<?xml version="1.0" encoding="UTF-8" standalone="no"?>
<!DOCTYPE svg PUBLIC "-//W3C//DTD SVG 1.1//EN"
 "http://www.w3.org/Graphics/SVG/1.1/DTD/svg11.dtd">
<!-- Generated by graphviz version 2.36.0 (20140111.2315)
 -->
<!-- Title: gui.nonbuttonfeatures.TurtleScreenFeature.TurtleScreenFeature Pages: 1 -->
<svg width="428pt" height="234pt"
 viewBox="0.00 0.00 428.00 234.00" xmlns="http://www.w3.org/2000/svg" xmlns:xlink="http://www.w3.org/1999/xlink">
<g id="graph0" class="graph" transform="scale(1 1) rotate(0) translate(4 230)">
<title>gui.nonbuttonfeatures.TurtleScreenFeature.TurtleScreenFeature</title>
<polygon fill="white" stroke="none" points="-4,4 -4,-230 424,-230 424,4 -4,4"/>
<!-- Node1 -->
<g id="node1" class="node"><title>Node1</title>
<polygon fill="#bfbfbf" stroke="black" points="0.5,-98 0.5,-128 185.5,-128 185.5,-98 0.5,-98"/>
<text text-anchor="start" x="8.5" y="-116" font-family="Helvetica,sans-Serif" font-size="10.00">gui.nonbuttonfeatures.Turtle</text>
<text text-anchor="middle" x="93" y="-105" font-family="Helvetica,sans-Serif" font-size="10.00">ScreenFeature.TurtleScreenFeature</text>
</g>
<!-- Node2 -->
<g id="node2" class="node"><title>Node2</title>
<g id="a_node2"><a xlink:href="../../dd/d4c/classgui_1_1componentdrawers_1_1_turtle_screen_drawer.html#ab5fc47200b00a26dff1c7389e062403a" target="_top" xlink:title="gui.componentdrawers.Turtle\lScreenDrawer.changeScreenColor">
<polygon fill="white" stroke="black" points="231,-196 231,-226 411,-226 411,-196 231,-196"/>
<text text-anchor="start" x="239" y="-214" font-family="Helvetica,sans-Serif" font-size="10.00">gui.componentdrawers.Turtle</text>
<text text-anchor="middle" x="321" y="-203" font-family="Helvetica,sans-Serif" font-size="10.00">ScreenDrawer.changeScreenColor</text>
</a>
</g>
</g>
<!-- Node1&#45;&gt;Node2 -->
<g id="edge1" class="edge"><title>Node1&#45;&gt;Node2</title>
<path fill="none" stroke="midnightblue" d="M116.187,-128.12C141.003,-144.431 182.864,-170.185 222,-186 228.235,-188.519 234.797,-190.845 241.45,-192.977"/>
<polygon fill="midnightblue" stroke="midnightblue" points="240.647,-196.392 251.233,-195.964 242.691,-189.697 240.647,-196.392"/>
</g>
<!-- Node3 -->
<g id="node3" class="node"><title>Node3</title>
<g id="a_node3"><a xlink:href="../../dd/d08/class_x_m_l_1_1workspaceparams_1_1_workspace_screen_parameters.html#a754928838a4deedd7a54b5d08f58a4ef" target="_top" xlink:title="XML.workspaceparams.Workspace\lScreenParameters.extractParams">
<polygon fill="white" stroke="black" points="231,-147 231,-177 411,-177 411,-147 231,-147"/>
<text text-anchor="start" x="239" y="-165" font-family="Helvetica,sans-Serif" font-size="10.00">XML.workspaceparams.Workspace</text>
<text text-anchor="middle" x="321" y="-154" font-family="Helvetica,sans-Serif" font-size="10.00">ScreenParameters.extractParams</text>
</a>
</g>
</g>
<!-- Node1&#45;&gt;Node3 -->
<g id="edge2" class="edge"><title>Node1&#45;&gt;Node3</title>
<path fill="none" stroke="midnightblue" d="M163.343,-128.035C187.857,-133.349 215.609,-139.367 240.872,-144.844"/>
<polygon fill="midnightblue" stroke="midnightblue" points="240.273,-148.295 250.788,-146.994 241.757,-141.454 240.273,-148.295"/>
</g>
<!-- Node4 -->
<g id="node4" class="node"><title>Node4</title>
<g id="a_node4"><a xlink:href="../../dd/d08/class_x_m_l_1_1workspaceparams_1_1_workspace_screen_parameters.html#aef156b7e2b28d42961e3453526836396" target="_top" xlink:title="XML.workspaceparams.Workspace\lScreenParameters.hasParam">
<polygon fill="white" stroke="black" points="231,-98 231,-128 411,-128 411,-98 231,-98"/>
<text text-anchor="start" x="239" y="-116" font-family="Helvetica,sans-Serif" font-size="10.00">XML.workspaceparams.Workspace</text>
<text text-anchor="middle" x="321" y="-105" font-family="Helvetica,sans-Serif" font-size="10.00">ScreenParameters.hasParam</text>
</a>
</g>
</g>
<!-- Node1&#45;&gt;Node4 -->
<g id="edge3" class="edge"><title>Node1&#45;&gt;Node4</title>
<path fill="none" stroke="midnightblue" d="M185.597,-113C197.143,-113 208.997,-113 220.656,-113"/>
<polygon fill="midnightblue" stroke="midnightblue" points="220.837,-116.5 230.837,-113 220.837,-109.5 220.837,-116.5"/>
</g>
<!-- Node5 -->
<g id="node5" class="node"><title>Node5</title>
<g id="a_node5"><a xlink:href="../../dd/d4c/classgui_1_1componentdrawers_1_1_turtle_screen_drawer.html#af40fb9891c8d1c7b9241ce896d6b8c65" target="_top" xlink:title="gui.componentdrawers.Turtle\lScreenDrawer.setTurtleScreenFeature">
<polygon fill="white" stroke="black" points="222.5,-49 222.5,-79 419.5,-79 419.5,-49 222.5,-49"/>
<text text-anchor="start" x="230.5" y="-67" font-family="Helvetica,sans-Serif" font-size="10.00">gui.componentdrawers.Turtle</text>
<text text-anchor="middle" x="321" y="-56" font-family="Helvetica,sans-Serif" font-size="10.00">ScreenDrawer.setTurtleScreenFeature</text>
</a>
</g>
</g>
<!-- Node1&#45;&gt;Node5 -->
<g id="edge4" class="edge"><title>Node1&#45;&gt;Node5</title>
<path fill="none" stroke="midnightblue" d="M163.343,-97.9654C187.857,-92.6506 215.609,-86.6335 240.872,-81.156"/>
<polygon fill="midnightblue" stroke="midnightblue" points="241.757,-84.5457 250.788,-79.0062 240.273,-77.7046 241.757,-84.5457"/>
</g>
<!-- Node6 -->
<g id="node6" class="node"><title>Node6</title>
<g id="a_node6"><a xlink:href="../../dd/d4c/classgui_1_1componentdrawers_1_1_turtle_screen_drawer.html#a3192fcd19827a75a4b167ba38b793a26" target="_top" xlink:title="gui.componentdrawers.Turtle\lScreenDrawer.toggleGrid">
<polygon fill="white" stroke="black" points="243.5,-0 243.5,-30 398.5,-30 398.5,-0 243.5,-0"/>
<text text-anchor="start" x="251.5" y="-18" font-family="Helvetica,sans-Serif" font-size="10.00">gui.componentdrawers.Turtle</text>
<text text-anchor="middle" x="321" y="-7" font-family="Helvetica,sans-Serif" font-size="10.00">ScreenDrawer.toggleGrid</text>
</a>
</g>
</g>
<!-- Node1&#45;&gt;Node6 -->
<g id="edge5" class="edge"><title>Node1&#45;&gt;Node6</title>
<path fill="none" stroke="midnightblue" d="M116.187,-97.8804C141.003,-81.5692 182.864,-55.815 222,-40 228.235,-37.4806 234.797,-35.1554 241.45,-33.0229"/>
<polygon fill="midnightblue" stroke="midnightblue" points="242.691,-36.3034 251.233,-30.036 240.647,-29.6084 242.691,-36.3034"/>
</g>
</g>
</svg>
