<?xml version="1.0" encoding="UTF-8" standalone="no"?>
<!DOCTYPE svg PUBLIC "-//W3C//DTD SVG 1.1//EN"
 "http://www.w3.org/Graphics/SVG/1.1/DTD/svg11.dtd">
<!-- Generated by graphviz version 2.36.0 (20140111.2315)
 -->
<!-- Title: gui.factories.turtlefactory.TurtleNode.selectTurtle Pages: 1 -->
<svg width="762pt" height="119pt"
 viewBox="0.00 0.00 762.00 119.09" xmlns="http://www.w3.org/2000/svg" xmlns:xlink="http://www.w3.org/1999/xlink">
<g id="graph0" class="graph" transform="scale(1 1) rotate(0) translate(4 115.094)">
<title>gui.factories.turtlefactory.TurtleNode.selectTurtle</title>
<polygon fill="white" stroke="none" points="-4,4 -4,-115.094 758,-115.094 758,4 -4,4"/>
<!-- Node1 -->
<g id="node1" class="node"><title>Node1</title>
<polygon fill="#bfbfbf" stroke="black" points="0,-54 0,-84 138,-84 138,-54 0,-54"/>
<text text-anchor="start" x="8" y="-72" font-family="Helvetica,sans-Serif" font-size="10.00">gui.factories.turtlefactory.</text>
<text text-anchor="middle" x="69" y="-61" font-family="Helvetica,sans-Serif" font-size="10.00">TurtleNode.selectTurtle</text>
</g>
<!-- Node2 -->
<g id="node2" class="node"><title>Node2</title>
<g id="a_node2"><a xlink:href="../../d1/d95/classgui_1_1factories_1_1turtlefactory_1_1_turtle_node.html#a3e07701226a7044520bc57956f81f0ea" target="_top" xlink:title="gui.factories.turtlefactory.\lTurtleNode.isSelected">
<polygon fill="white" stroke="black" points="608,-81 608,-111 746,-111 746,-81 608,-81"/>
<text text-anchor="start" x="616" y="-99" font-family="Helvetica,sans-Serif" font-size="10.00">gui.factories.turtlefactory.</text>
<text text-anchor="middle" x="677" y="-88" font-family="Helvetica,sans-Serif" font-size="10.00">TurtleNode.isSelected</text>
</a>
</g>
</g>
<!-- Node1&#45;&gt;Node2 -->
<g id="edge1" class="edge"><title>Node1&#45;&gt;Node2</title>
<path fill="none" stroke="midnightblue" d="M113.723,-84.0423C132.099,-89.614 153.85,-95.2432 174,-98 322.656,-118.338 498.399,-110.417 597.568,-103.048"/>
<polygon fill="midnightblue" stroke="midnightblue" points="598.099,-106.517 607.805,-102.269 597.568,-99.5376 598.099,-106.517"/>
</g>
<!-- Node3 -->
<g id="node3" class="node"><title>Node3</title>
<g id="a_node3"><a xlink:href="../../d8/df2/classgui_1_1mainclasses_1_1workspace_1_1_workspace.html#afe27c5d2bffafe1e1092a0319331cc33" target="_top" xlink:title="gui.mainclasses.workspace.\lWorkspace.notifyOfTurtleSelection\lChange">
<polygon fill="white" stroke="black" points="174.5,-48.5 174.5,-89.5 351.5,-89.5 351.5,-48.5 174.5,-48.5"/>
<text text-anchor="start" x="182.5" y="-77.5" font-family="Helvetica,sans-Serif" font-size="10.00">gui.mainclasses.workspace.</text>
<text text-anchor="start" x="182.5" y="-66.5" font-family="Helvetica,sans-Serif" font-size="10.00">Workspace.notifyOfTurtleSelection</text>
<text text-anchor="middle" x="263" y="-55.5" font-family="Helvetica,sans-Serif" font-size="10.00">Change</text>
</a>
</g>
</g>
<!-- Node1&#45;&gt;Node3 -->
<g id="edge2" class="edge"><title>Node1&#45;&gt;Node3</title>
<path fill="none" stroke="midnightblue" d="M138.233,-69C146.599,-69 155.274,-69 163.971,-69"/>
<polygon fill="midnightblue" stroke="midnightblue" points="164.174,-72.5001 174.174,-69 164.174,-65.5001 164.174,-72.5001"/>
</g>
<!-- Node7 -->
<g id="node7" class="node"><title>Node7</title>
<g id="a_node7"><a xlink:href="../../d1/d95/classgui_1_1factories_1_1turtlefactory_1_1_turtle_node.html#a0aa8eeeb9e98c70ffd9953c04d1a8ba3" target="_top" xlink:title="gui.factories.turtlefactory.\lTurtleNode.updateImage">
<polygon fill="white" stroke="black" points="194,-0 194,-30 332,-30 332,-0 194,-0"/>
<text text-anchor="start" x="202" y="-18" font-family="Helvetica,sans-Serif" font-size="10.00">gui.factories.turtlefactory.</text>
<text text-anchor="middle" x="263" y="-7" font-family="Helvetica,sans-Serif" font-size="10.00">TurtleNode.updateImage</text>
</a>
</g>
</g>
<!-- Node1&#45;&gt;Node7 -->
<g id="edge7" class="edge"><title>Node1&#45;&gt;Node7</title>
<path fill="none" stroke="midnightblue" d="M121.534,-53.9735C138.256,-49.1408 156.902,-43.7973 174,-39 181.209,-36.9773 188.757,-34.8831 196.273,-32.8128"/>
<polygon fill="midnightblue" stroke="midnightblue" points="197.387,-36.1364 206.103,-30.113 195.533,-29.3864 197.387,-36.1364"/>
</g>
<!-- Node4 -->
<g id="node4" class="node"><title>Node4</title>
<g id="a_node4"><a xlink:href="../../dd/d25/classgui_1_1factories_1_1turtlefactory_1_1_turtle_nodes.html#a95e5268536cc20234687d9c3f61f49be" target="_top" xlink:title="gui.factories.turtlefactory.\lTurtleNodes.getActiveNodes">
<polygon fill="white" stroke="black" points="400,-59 400,-89 552,-89 552,-59 400,-59"/>
<text text-anchor="start" x="408" y="-77" font-family="Helvetica,sans-Serif" font-size="10.00">gui.factories.turtlefactory.</text>
<text text-anchor="middle" x="476" y="-66" font-family="Helvetica,sans-Serif" font-size="10.00">TurtleNodes.getActiveNodes</text>
</a>
</g>
</g>
<!-- Node3&#45;&gt;Node4 -->
<g id="edge3" class="edge"><title>Node3&#45;&gt;Node4</title>
<path fill="none" stroke="midnightblue" d="M351.65,-71.077C364.123,-71.3726 376.938,-71.6763 389.371,-71.9709"/>
<polygon fill="midnightblue" stroke="midnightblue" points="389.629,-75.4779 399.71,-72.2159 389.795,-68.4799 389.629,-75.4779"/>
</g>
<!-- Node5 -->
<g id="node5" class="node"><title>Node5</title>
<g id="a_node5"><a xlink:href="../../d8/df2/classgui_1_1mainclasses_1_1workspace_1_1_workspace.html#a1c6c6c0599097fbf5e9a660ec0ac3702" target="_top" xlink:title="gui.mainclasses.workspace.\lWorkspace.parseCommandString">
<polygon fill="white" stroke="black" points="388,-10 388,-40 564,-40 564,-10 388,-10"/>
<text text-anchor="start" x="396" y="-28" font-family="Helvetica,sans-Serif" font-size="10.00">gui.mainclasses.workspace.</text>
<text text-anchor="middle" x="476" y="-17" font-family="Helvetica,sans-Serif" font-size="10.00">Workspace.parseCommandString</text>
</a>
</g>
</g>
<!-- Node3&#45;&gt;Node5 -->
<g id="edge5" class="edge"><title>Node3&#45;&gt;Node5</title>
<path fill="none" stroke="midnightblue" d="M351.65,-50.7223C365.408,-47.8533 379.583,-44.8974 393.202,-42.0574"/>
<polygon fill="midnightblue" stroke="midnightblue" points="393.932,-45.4805 403.007,-40.0128 392.503,-38.6279 393.932,-45.4805"/>
</g>
<!-- Node4&#45;&gt;Node2 -->
<g id="edge4" class="edge"><title>Node4&#45;&gt;Node2</title>
<path fill="none" stroke="midnightblue" d="M552.233,-82.3173C567.078,-83.9584 582.691,-85.6844 597.636,-87.3367"/>
<polygon fill="midnightblue" stroke="midnightblue" points="597.535,-90.8467 607.859,-88.4668 598.304,-83.8891 597.535,-90.8467"/>
</g>
<!-- Node6 -->
<g id="node6" class="node"><title>Node6</title>
<g id="a_node6"><a xlink:href="../../da/d55/interface_control_1_1_slogo_graphics.html#a05813100446932183f367405e6c73d67" target="_top" xlink:title="Control.SlogoGraphics.parse\lCommandString">
<polygon fill="white" stroke="black" points="600.5,-10 600.5,-40 753.5,-40 753.5,-10 600.5,-10"/>
<text text-anchor="start" x="608.5" y="-28" font-family="Helvetica,sans-Serif" font-size="10.00">Control.SlogoGraphics.parse</text>
<text text-anchor="middle" x="677" y="-17" font-family="Helvetica,sans-Serif" font-size="10.00">CommandString</text>
</a>
</g>
</g>
<!-- Node5&#45;&gt;Node6 -->
<g id="edge6" class="edge"><title>Node5&#45;&gt;Node6</title>
<path fill="none" stroke="midnightblue" d="M564.284,-25C572.916,-25 581.673,-25 590.288,-25"/>
<polygon fill="midnightblue" stroke="midnightblue" points="590.322,-28.5001 600.322,-25 590.322,-21.5001 590.322,-28.5001"/>
</g>
</g>
</svg>
