<?xml version="1.0" encoding="UTF-8" standalone="no"?>
<!DOCTYPE svg PUBLIC "-//W3C//DTD SVG 1.1//EN"
 "http://www.w3.org/Graphics/SVG/1.1/DTD/svg11.dtd">
<!-- Generated by graphviz version 2.36.0 (20140111.2315)
 -->
<!-- Title: gui.factories.turtlefactory.TurtleNode.parseStringToPoints Pages: 1 -->
<svg width="540pt" height="87pt"
 viewBox="0.00 0.00 540.00 87.00" xmlns="http://www.w3.org/2000/svg" xmlns:xlink="http://www.w3.org/1999/xlink">
<g id="graph0" class="graph" transform="scale(1 1) rotate(0) translate(4 83)">
<title>gui.factories.turtlefactory.TurtleNode.parseStringToPoints</title>
<polygon fill="white" stroke="none" points="-4,4 -4,-83 536,-83 536,4 -4,4"/>
<!-- Node1 -->
<g id="node1" class="node"><title>Node1</title>
<polygon fill="#bfbfbf" stroke="black" points="0.5,-24 0.5,-54 165.5,-54 165.5,-24 0.5,-24"/>
<text text-anchor="start" x="8.5" y="-42" font-family="Helvetica,sans-Serif" font-size="10.00">gui.factories.turtlefactory.</text>
<text text-anchor="middle" x="83" y="-31" font-family="Helvetica,sans-Serif" font-size="10.00">TurtleNode.parseStringToPoints</text>
</g>
<!-- Node2 -->
<g id="node2" class="node"><title>Node2</title>
<g id="a_node2"><a xlink:href="../../d1/d95/classgui_1_1factories_1_1turtlefactory_1_1_turtle_node.html#a6e2a02d271815ab5516bde6eb8d4d361" target="_top" xlink:title="gui.factories.turtlefactory.\lTurtleNode.updatePosition">
<polygon fill="white" stroke="black" points="202,-24 202,-54 344,-54 344,-24 202,-24"/>
<text text-anchor="start" x="210" y="-42" font-family="Helvetica,sans-Serif" font-size="10.00">gui.factories.turtlefactory.</text>
<text text-anchor="middle" x="273" y="-31" font-family="Helvetica,sans-Serif" font-size="10.00">TurtleNode.updatePosition</text>
</a>
</g>
</g>
<!-- Node1&#45;&gt;Node2 -->
<g id="edge1" class="edge"><title>Node1&#45;&gt;Node2</title>
<path fill="none" stroke="midnightblue" d="M175.887,-39C184.642,-39 193.422,-39 201.922,-39"/>
<polygon fill="midnightblue" stroke="midnightblue" points="175.639,-35.5001 165.639,-39 175.639,-42.5001 175.639,-35.5001"/>
</g>
<!-- Node3 -->
<g id="node3" class="node"><title>Node3</title>
<g id="a_node3"><a xlink:href="../../df/d5f/classgui_1_1factories_1_1turtlefactory_1_1_turtle_factory.html#a68a8fca83dc5ca127be73f046950ef54" target="_top" xlink:title="gui.factories.turtlefactory.\lTurtleFactory.generateObject">
<polygon fill="white" stroke="black" points="380,-49 380,-79 532,-79 532,-49 380,-49"/>
<text text-anchor="start" x="388" y="-67" font-family="Helvetica,sans-Serif" font-size="10.00">gui.factories.turtlefactory.</text>
<text text-anchor="middle" x="456" y="-56" font-family="Helvetica,sans-Serif" font-size="10.00">TurtleFactory.generateObject</text>
</a>
</g>
</g>
<!-- Node2&#45;&gt;Node3 -->
<g id="edge2" class="edge"><title>Node2&#45;&gt;Node3</title>
<path fill="none" stroke="midnightblue" d="M354.419,-50.1076C362.829,-51.2692 371.356,-52.447 379.706,-53.6003"/>
<polygon fill="midnightblue" stroke="midnightblue" points="354.623,-46.6027 344.238,-48.7014 353.665,-53.5368 354.623,-46.6027"/>
</g>
<!-- Node4 -->
<g id="node4" class="node"><title>Node4</title>
<g id="a_node4"><a xlink:href="../../d1/d95/classgui_1_1factories_1_1turtlefactory_1_1_turtle_node.html#aeae66bb4bbd0ee69922deaf346872467" target="_top" xlink:title="gui.factories.turtlefactory.\lTurtleNode.TurtleNode">
<polygon fill="white" stroke="black" points="387,-0 387,-30 525,-30 525,-0 387,-0"/>
<text text-anchor="start" x="395" y="-18" font-family="Helvetica,sans-Serif" font-size="10.00">gui.factories.turtlefactory.</text>
<text text-anchor="middle" x="456" y="-7" font-family="Helvetica,sans-Serif" font-size="10.00">TurtleNode.TurtleNode</text>
</a>
</g>
</g>
<!-- Node2&#45;&gt;Node4 -->
<g id="edge3" class="edge"><title>Node2&#45;&gt;Node4</title>
<path fill="none" stroke="midnightblue" d="M354.184,-28.3679C365.096,-26.921 376.211,-25.4472 386.882,-24.0322"/>
<polygon fill="midnightblue" stroke="midnightblue" points="353.692,-24.9024 344.238,-29.6866 354.612,-31.8417 353.692,-24.9024"/>
</g>
</g>
</svg>
