<?xml version="1.0" encoding="UTF-8" standalone="no"?>
<!DOCTYPE svg PUBLIC "-//W3C//DTD SVG 1.1//EN"
 "http://www.w3.org/Graphics/SVG/1.1/DTD/svg11.dtd">
<!-- Generated by graphviz version 2.36.0 (20140111.2315)
 -->
<!-- Title: gui.factories.turtlefactory.TurtleNode.updatePosition Pages: 1 -->
<svg width="338pt" height="87pt"
 viewBox="0.00 0.00 338.00 87.00" xmlns="http://www.w3.org/2000/svg" xmlns:xlink="http://www.w3.org/1999/xlink">
<g id="graph0" class="graph" transform="scale(1 1) rotate(0) translate(4 83)">
<title>gui.factories.turtlefactory.TurtleNode.updatePosition</title>
<polygon fill="white" stroke="none" points="-4,4 -4,-83 334,-83 334,4 -4,4"/>
<!-- Node1 -->
<g id="node1" class="node"><title>Node1</title>
<polygon fill="#bfbfbf" stroke="black" points="0,-24 0,-54 142,-54 142,-24 0,-24"/>
<text text-anchor="start" x="8" y="-42" font-family="Helvetica,sans-Serif" font-size="10.00">gui.factories.turtlefactory.</text>
<text text-anchor="middle" x="71" y="-31" font-family="Helvetica,sans-Serif" font-size="10.00">TurtleNode.updatePosition</text>
</g>
<!-- Node2 -->
<g id="node2" class="node"><title>Node2</title>
<g id="a_node2"><a xlink:href="../../df/d5f/classgui_1_1factories_1_1turtlefactory_1_1_turtle_factory.html#a68a8fca83dc5ca127be73f046950ef54" target="_top" xlink:title="gui.factories.turtlefactory.\lTurtleFactory.generateObject">
<polygon fill="white" stroke="black" points="178,-49 178,-79 330,-79 330,-49 178,-49"/>
<text text-anchor="start" x="186" y="-67" font-family="Helvetica,sans-Serif" font-size="10.00">gui.factories.turtlefactory.</text>
<text text-anchor="middle" x="254" y="-56" font-family="Helvetica,sans-Serif" font-size="10.00">TurtleFactory.generateObject</text>
</a>
</g>
</g>
<!-- Node1&#45;&gt;Node2 -->
<g id="edge1" class="edge"><title>Node1&#45;&gt;Node2</title>
<path fill="none" stroke="midnightblue" d="M152.419,-50.1076C160.829,-51.2692 169.356,-52.447 177.706,-53.6003"/>
<polygon fill="midnightblue" stroke="midnightblue" points="152.623,-46.6027 142.238,-48.7014 151.665,-53.5368 152.623,-46.6027"/>
</g>
<!-- Node3 -->
<g id="node3" class="node"><title>Node3</title>
<g id="a_node3"><a xlink:href="../../d1/d95/classgui_1_1factories_1_1turtlefactory_1_1_turtle_node.html#aeae66bb4bbd0ee69922deaf346872467" target="_top" xlink:title="gui.factories.turtlefactory.\lTurtleNode.TurtleNode">
<polygon fill="white" stroke="black" points="185,-0 185,-30 323,-30 323,-0 185,-0"/>
<text text-anchor="start" x="193" y="-18" font-family="Helvetica,sans-Serif" font-size="10.00">gui.factories.turtlefactory.</text>
<text text-anchor="middle" x="254" y="-7" font-family="Helvetica,sans-Serif" font-size="10.00">TurtleNode.TurtleNode</text>
</a>
</g>
</g>
<!-- Node1&#45;&gt;Node3 -->
<g id="edge2" class="edge"><title>Node1&#45;&gt;Node3</title>
<path fill="none" stroke="midnightblue" d="M152.184,-28.3679C163.096,-26.921 174.211,-25.4472 184.882,-24.0322"/>
<polygon fill="midnightblue" stroke="midnightblue" points="151.692,-24.9024 142.238,-29.6866 152.612,-31.8417 151.692,-24.9024"/>
</g>
</g>
</svg>
