<?xml version="1.0" encoding="UTF-8" standalone="no"?>
<!DOCTYPE svg PUBLIC "-//W3C//DTD SVG 1.1//EN"
 "http://www.w3.org/Graphics/SVG/1.1/DTD/svg11.dtd">
<!-- Generated by graphviz version 2.36.0 (20140111.2315)
 -->
<!-- Title: gui.factories.turtlefactory.TurtleNode.updatePosition Pages: 1 -->
<!--zoomable 185 -->
<svg id="main" version="1.1" xmlns="http://www.w3.org/2000/svg" xmlns:xlink="http://www.w3.org/1999/xlink" xml:space="preserve" onload="init(evt)">
<style type="text/css"><![CDATA[
.edge:hover path { stroke: red; }
.edge:hover polygon { stroke: red; fill: red; }
]]></style>
<script type="text/javascript"><![CDATA[
var edges = document.getElementsByTagName('g');
if (edges && edges.length) {
  for (var i=0;i<edges.length;i++) {
    if (edges[i].id.substr(0,4)=='edge') {
      edges[i].setAttribute('class','edge');
    }
  }
}
]]></script>
        <defs>
                <circle id="rim" cx="0" cy="0" r="7"/>
                <circle id="rim2" cx="0" cy="0" r="3.5"/>
                <g id="zoomPlus">
                        <use xlink:href="#rim" fill="#404040">
                                <set attributeName="fill" to="#808080" begin="zoomplus.mouseover" end="zoomplus.mouseout"/>
                        </use>
                        <path d="M-4,0h8M0,-4v8" fill="none" stroke="white" stroke-width="1.5" pointer-events="none"/>
                </g>
                <g id="zoomMin">
                        <use xlink:href="#rim" fill="#404040">
                                <set attributeName="fill" to="#808080" begin="zoomminus.mouseover" end="zoomminus.mouseout"/>
                        </use>
                        <path d="M-4,0h8" fill="none" stroke="white" stroke-width="1.5" pointer-events="none"/>
                </g>
                <g id="dirArrow">
                        <path fill="none" stroke="white" stroke-width="1.5" d="M0,-3.0v7 M-2.5,-0.5L0,-3.0L2.5,-0.5"/>
                </g>
               <g id="resetDef">
                       <use xlink:href="#rim2" fill="#404040">
                               <set attributeName="fill" to="#808080" begin="reset.mouseover" end="reset.mouseout"/>
                       </use>
               </g>
        </defs>

<script type="text/javascript">
var viewWidth = 562;
var viewHeight = 185;
var sectionId = 'dynsection-8';
</script>
<script xlink:href="../../svgpan.js"/>
<svg id="graph" class="graph">
<g id="viewport">
<title>gui.factories.turtlefactory.TurtleNode.updatePosition</title>
<polygon fill="white" stroke="none" points="-4,4 -4,-181 558,-181 558,4 -4,4"/>
<!-- Node1 -->
<g id="node1" class="node"><title>Node1</title>
<polygon fill="#bfbfbf" stroke="black" points="0,-73 0,-103 142,-103 142,-73 0,-73"/>
<text text-anchor="start" x="8" y="-91" font-family="Helvetica,sans-Serif" font-size="10.00">gui.factories.turtlefactory.</text>
<text text-anchor="middle" x="71" y="-80" font-family="Helvetica,sans-Serif" font-size="10.00">TurtleNode.updatePosition</text>
</g>
<!-- Node2 -->
<g id="node2" class="node"><title>Node2</title>
<g id="a_node2"><a xlink:href="../../d4/d9b/classgui_1_1turtlescreenwrap_1_1_coordinate_changer.html#a4b6834129da347abd82e9f84a69d0662" target="_top" xlink:title="gui.turtlescreenwrap.Coordinate\lChanger.convX">
<polygon fill="white" stroke="black" points="178,-147 178,-177 348,-177 348,-147 178,-147"/>
<text text-anchor="start" x="186" y="-165" font-family="Helvetica,sans-Serif" font-size="10.00">gui.turtlescreenwrap.Coordinate</text>
<text text-anchor="middle" x="263" y="-154" font-family="Helvetica,sans-Serif" font-size="10.00">Changer.convX</text>
</a>
</g>
</g>
<!-- Node1&#45;&gt;Node2 -->
<g id="edge1" class="edge"><title>Node1&#45;&gt;Node2</title>
<path fill="none" stroke="midnightblue" d="M101.665,-103.11C122.652,-113.452 151.637,-127.043 178,-137 184.312,-139.384 190.958,-141.692 197.632,-143.879"/>
<polygon fill="midnightblue" stroke="midnightblue" points="196.805,-147.289 207.395,-146.992 198.931,-140.62 196.805,-147.289"/>
</g>
<!-- Node3 -->
<g id="node3" class="node"><title>Node3</title>
<g id="a_node3"><a xlink:href="../../d4/d9b/classgui_1_1turtlescreenwrap_1_1_coordinate_changer.html#a26ee7cc089d708666b8eab5c37406a7c" target="_top" xlink:title="gui.turtlescreenwrap.Coordinate\lChanger.convY">
<polygon fill="white" stroke="black" points="178,-98 178,-128 348,-128 348,-98 178,-98"/>
<text text-anchor="start" x="186" y="-116" font-family="Helvetica,sans-Serif" font-size="10.00">gui.turtlescreenwrap.Coordinate</text>
<text text-anchor="middle" x="263" y="-105" font-family="Helvetica,sans-Serif" font-size="10.00">Changer.convY</text>
</a>
</g>
</g>
<!-- Node1&#45;&gt;Node3 -->
<g id="edge2" class="edge"><title>Node1&#45;&gt;Node3</title>
<path fill="none" stroke="midnightblue" d="M142.209,-97.238C150.567,-98.3378 159.2,-99.4737 167.824,-100.608"/>
<polygon fill="midnightblue" stroke="midnightblue" points="167.555,-104.103 177.926,-101.938 168.469,-97.163 167.555,-104.103"/>
</g>
<!-- Node4 -->
<g id="node4" class="node"><title>Node4</title>
<g id="a_node4"><a xlink:href="../../d2/d8c/classgui_1_1turtlescreenwrap_1_1_tesselation_mapper.html#accb8e9b832acd2b297b33650dbef962d" target="_top" xlink:title="gui.turtlescreenwrap.Tesselation\lMapper.map">
<polygon fill="white" stroke="black" points="178,-49 178,-79 348,-79 348,-49 178,-49"/>
<text text-anchor="start" x="186" y="-67" font-family="Helvetica,sans-Serif" font-size="10.00">gui.turtlescreenwrap.Tesselation</text>
<text text-anchor="middle" x="263" y="-56" font-family="Helvetica,sans-Serif" font-size="10.00">Mapper.map</text>
</a>
</g>
</g>
<!-- Node1&#45;&gt;Node4 -->
<g id="edge3" class="edge"><title>Node1&#45;&gt;Node4</title>
<path fill="none" stroke="midnightblue" d="M142.209,-79.1315C150.567,-78.0758 159.2,-76.9853 167.824,-75.8959"/>
<polygon fill="midnightblue" stroke="midnightblue" points="168.444,-79.3455 177.926,-74.6198 167.567,-72.4007 168.444,-79.3455"/>
</g>
<!-- Node7 -->
<g id="node7" class="node"><title>Node7</title>
<g id="a_node7"><a xlink:href="../../d1/d95/classgui_1_1factories_1_1turtlefactory_1_1_turtle_node.html#aeea99dc4ec97b6f73d146213912391a2" target="_top" xlink:title="gui.factories.turtlefactory.\lTurtleNode.parseStringToPoints">
<polygon fill="white" stroke="black" points="180.5,-0 180.5,-30 345.5,-30 345.5,-0 180.5,-0"/>
<text text-anchor="start" x="188.5" y="-18" font-family="Helvetica,sans-Serif" font-size="10.00">gui.factories.turtlefactory.</text>
<text text-anchor="middle" x="263" y="-7" font-family="Helvetica,sans-Serif" font-size="10.00">TurtleNode.parseStringToPoints</text>
</a>
</g>
</g>
<!-- Node1&#45;&gt;Node7 -->
<g id="edge6" class="edge"><title>Node1&#45;&gt;Node7</title>
<path fill="none" stroke="midnightblue" d="M102.611,-72.8008C123.537,-62.7444 152.071,-49.6781 178,-40 184.321,-37.6406 190.973,-35.3485 197.651,-33.1711"/>
<polygon fill="midnightblue" stroke="midnightblue" points="198.947,-36.4318 207.418,-30.0687 196.828,-29.7602 198.947,-36.4318"/>
</g>
<!-- Node5 -->
<g id="node5" class="node"><title>Node5</title>
<g id="a_node5"><a xlink:href="../../d2/d8c/classgui_1_1turtlescreenwrap_1_1_tesselation_mapper.html#aabbaac2b93b3b79c2f4d88ac0849ab6f" target="_top" xlink:title="gui.turtlescreenwrap.Tesselation\lMapper.checkOffScreen">
<polygon fill="white" stroke="black" points="384,-73 384,-103 554,-103 554,-73 384,-73"/>
<text text-anchor="start" x="392" y="-91" font-family="Helvetica,sans-Serif" font-size="10.00">gui.turtlescreenwrap.Tesselation</text>
<text text-anchor="middle" x="469" y="-80" font-family="Helvetica,sans-Serif" font-size="10.00">Mapper.checkOffScreen</text>
</a>
</g>
</g>
<!-- Node4&#45;&gt;Node5 -->
<g id="edge4" class="edge"><title>Node4&#45;&gt;Node5</title>
<path fill="none" stroke="midnightblue" d="M348.152,-73.9003C356.593,-74.8933 365.202,-75.9061 373.739,-76.9104"/>
<polygon fill="midnightblue" stroke="midnightblue" points="373.371,-80.3913 383.712,-78.0837 374.189,-73.4392 373.371,-80.3913"/>
</g>
<!-- Node6 -->
<g id="node6" class="node"><title>Node6</title>
<g id="a_node6"><a xlink:href="../../d2/d8c/classgui_1_1turtlescreenwrap_1_1_tesselation_mapper.html#aa9ff2f06fa612f2250c8a94a084f9c99" target="_top" xlink:title="gui.turtlescreenwrap.Tesselation\lMapper.getDummyOrigin">
<polygon fill="white" stroke="black" points="384,-24 384,-54 554,-54 554,-24 384,-24"/>
<text text-anchor="start" x="392" y="-42" font-family="Helvetica,sans-Serif" font-size="10.00">gui.turtlescreenwrap.Tesselation</text>
<text text-anchor="middle" x="469" y="-31" font-family="Helvetica,sans-Serif" font-size="10.00">Mapper.getDummyOrigin</text>
</a>
</g>
</g>
<!-- Node4&#45;&gt;Node6 -->
<g id="edge5" class="edge"><title>Node4&#45;&gt;Node6</title>
<path fill="none" stroke="midnightblue" d="M348.152,-53.6872C356.593,-52.6528 365.202,-51.5978 373.739,-50.5516"/>
<polygon fill="midnightblue" stroke="midnightblue" points="374.212,-54.0199 383.712,-49.3294 373.36,-47.0719 374.212,-54.0199"/>
</g>
</g>
</svg>
        <g id="navigator" transform="translate(0 0)" fill="#404254">
                <rect fill="#f2f5e9" fill-opacity="0.5" stroke="#606060" stroke-width=".5" x="0" y="0" width="60" height="60"/>
                <use id="zoomplus" xlink:href="#zoomPlus" x="17" y="9" onmousedown="handleZoom(evt,'in')"/>
                <use id="zoomminus" xlink:href="#zoomMin" x="42" y="9" onmousedown="handleZoom(evt,'out')"/>
                <use id="reset" xlink:href="#resetDef" x="30" y="36" onmousedown="handleReset()"/>
                <g id="arrowUp" xlink:href="#dirArrow" transform="translate(30 24)" onmousedown="handlePan(0,-1)">
                  <use xlink:href="#rim" fill="#404040">
                        <set attributeName="fill" to="#808080" begin="arrowUp.mouseover" end="arrowUp.mouseout"/>
                  </use>
                  <path fill="none" stroke="white" stroke-width="1.5" d="M0,-3.0v7 M-2.5,-0.5L0,-3.0L2.5,-0.5"/>
                </g>
                <g id="arrowRight" xlink:href="#dirArrow" transform="rotate(90) translate(36 -43)" onmousedown="handlePan(1,0)">
                  <use xlink:href="#rim" fill="#404040">
                        <set attributeName="fill" to="#808080" begin="arrowRight.mouseover" end="arrowRight.mouseout"/>
                  </use>
                  <path fill="none" stroke="white" stroke-width="1.5" d="M0,-3.0v7 M-2.5,-0.5L0,-3.0L2.5,-0.5"/>
                </g>
                <g id="arrowDown" xlink:href="#dirArrow" transform="rotate(180) translate(-30 -48)" onmousedown="handlePan(0,1)">
                  <use xlink:href="#rim" fill="#404040">
                        <set attributeName="fill" to="#808080" begin="arrowDown.mouseover" end="arrowDown.mouseout"/>
                  </use>
                  <path fill="none" stroke="white" stroke-width="1.5" d="M0,-3.0v7 M-2.5,-0.5L0,-3.0L2.5,-0.5"/>
                </g>
                <g id="arrowLeft" xlink:href="#dirArrow" transform="rotate(270) translate(-36 17)" onmousedown="handlePan(-1,0)">
                  <use xlink:href="#rim" fill="#404040">
                        <set attributeName="fill" to="#808080" begin="arrowLeft.mouseover" end="arrowLeft.mouseout"/>
                  </use>
                  <path fill="none" stroke="white" stroke-width="1.5" d="M0,-3.0v7 M-2.5,-0.5L0,-3.0L2.5,-0.5"/>
                </g>
        </g>
        <svg viewBox="0 0 15 15" width="100%" height="30px" preserveAspectRatio="xMaxYMin meet">
         <g id="arrow_out" transform="scale(0.3 0.3)">
          <a xlink:href="classgui_1_1factories_1_1turtlefactory_1_1_turtle_node_a6e2a02d271815ab5516bde6eb8d4d361_cgraph_org.svg" target="_base">
           <rect id="button" ry="5" rx="5" y="6" x="6" height="38" width="38"
                fill="#f2f5e9" fill-opacity="0.5" stroke="#606060" stroke-width="1.0"/>
           <path id="arrow"
             d="M 11.500037,31.436501 C 11.940474,20.09759 22.043105,11.32322 32.158766,21.979434 L 37.068811,17.246167 C 37.068811,17.246167 37.088388,32 37.088388,32 L 22.160133,31.978069 C 22.160133,31.978069 26.997745,27.140456 26.997745,27.140456 C 18.528582,18.264221 13.291696,25.230495 11.500037,31.436501 z"
             style="fill:#404040;"/>
          </a>
         </g>
        </svg>
</svg>
