<?xml version="1.0" encoding="UTF-8" standalone="no"?>
<!DOCTYPE svg PUBLIC "-//W3C//DTD SVG 1.1//EN"
 "http://www.w3.org/Graphics/SVG/1.1/DTD/svg11.dtd">
<!-- Generated by graphviz version 2.36.0 (20140111.2315)
 -->
<!-- Title: gui.factories.turtlefactory.TurtleNode.isSelected Pages: 1 -->
<!--zoomable 117 -->
<svg id="main" version="1.1" xmlns="http://www.w3.org/2000/svg" xmlns:xlink="http://www.w3.org/1999/xlink" xml:space="preserve" onload="init(evt)">
<style type="text/css"><![CDATA[
.edge:hover path { stroke: red; }
.edge:hover polygon { stroke: red; fill: red; }
]]></style>
<script type="text/javascript"><![CDATA[
var edges = document.getElementsByTagName('g');
if (edges && edges.length) {
  for (var i=0;i<edges.length;i++) {
    if (edges[i].id.substr(0,4)=='edge') {
      edges[i].setAttribute('class','edge');
    }
  }
}
]]></script>
        <defs>
                <circle id="rim" cx="0" cy="0" r="7"/>
                <circle id="rim2" cx="0" cy="0" r="3.5"/>
                <g id="zoomPlus">
                        <use xlink:href="#rim" fill="#404040">
                                <set attributeName="fill" to="#808080" begin="zoomplus.mouseover" end="zoomplus.mouseout"/>
                        </use>
                        <path d="M-4,0h8M0,-4v8" fill="none" stroke="white" stroke-width="1.5" pointer-events="none"/>
                </g>
                <g id="zoomMin">
                        <use xlink:href="#rim" fill="#404040">
                                <set attributeName="fill" to="#808080" begin="zoomminus.mouseover" end="zoomminus.mouseout"/>
                        </use>
                        <path d="M-4,0h8" fill="none" stroke="white" stroke-width="1.5" pointer-events="none"/>
                </g>
                <g id="dirArrow">
                        <path fill="none" stroke="white" stroke-width="1.5" d="M0,-3.0v7 M-2.5,-0.5L0,-3.0L2.5,-0.5"/>
                </g>
               <g id="resetDef">
                       <use xlink:href="#rim2" fill="#404040">
                               <set attributeName="fill" to="#808080" begin="reset.mouseover" end="reset.mouseout"/>
                       </use>
               </g>
        </defs>

<script type="text/javascript">
var viewWidth = 972;
var viewHeight = 117;
var sectionId = 'dynsection-3';
</script>
<script xlink:href="../../svgpan.js"/>
<svg id="graph" class="graph">
<g id="viewport">
<title>gui.factories.turtlefactory.TurtleNode.isSelected</title>
<polygon fill="white" stroke="none" points="-4,4 -4,-113 968,-113 968,4 -4,4"/>
<!-- Node1 -->
<g id="node1" class="node"><title>Node1</title>
<polygon fill="#bfbfbf" stroke="black" points="0,-0 0,-30 138,-30 138,-0 0,-0"/>
<text text-anchor="start" x="8" y="-18" font-family="Helvetica,sans-Serif" font-size="10.00">gui.factories.turtlefactory.</text>
<text text-anchor="middle" x="69" y="-7" font-family="Helvetica,sans-Serif" font-size="10.00">TurtleNode.isSelected</text>
</g>
<!-- Node2 -->
<g id="node2" class="node"><title>Node2</title>
<g id="a_node2"><a xlink:href="../../dd/d25/classgui_1_1factories_1_1turtlefactory_1_1_turtle_nodes.html#a95e5268536cc20234687d9c3f61f49be" target="_top" xlink:title="gui.factories.turtlefactory.\lTurtleNodes.getActiveNodes">
<polygon fill="white" stroke="black" points="174,-25 174,-55 326,-55 326,-25 174,-25"/>
<text text-anchor="start" x="182" y="-43" font-family="Helvetica,sans-Serif" font-size="10.00">gui.factories.turtlefactory.</text>
<text text-anchor="middle" x="250" y="-32" font-family="Helvetica,sans-Serif" font-size="10.00">TurtleNodes.getActiveNodes</text>
</a>
</g>
</g>
<!-- Node1&#45;&gt;Node2 -->
<g id="edge1" class="edge"><title>Node1&#45;&gt;Node2</title>
<path fill="none" stroke="midnightblue" d="M148.122,-25.9109C156.66,-27.1034 165.338,-28.3154 173.84,-29.5027"/>
<polygon fill="midnightblue" stroke="midnightblue" points="148.571,-22.4397 138.183,-24.5227 147.603,-29.3724 148.571,-22.4397"/>
</g>
<!-- Node7 -->
<g id="node7" class="node"><title>Node7</title>
<g id="a_node7"><a xlink:href="../../d1/d95/classgui_1_1factories_1_1turtlefactory_1_1_turtle_node.html#a8a90adc42503d132ce9c45b10844e32b" target="_top" xlink:title="gui.factories.turtlefactory.\lTurtleNode.selectTurtle">
<polygon fill="white" stroke="black" points="602,-1 602,-31 740,-31 740,-1 602,-1"/>
<text text-anchor="start" x="610" y="-19" font-family="Helvetica,sans-Serif" font-size="10.00">gui.factories.turtlefactory.</text>
<text text-anchor="middle" x="671" y="-8" font-family="Helvetica,sans-Serif" font-size="10.00">TurtleNode.selectTurtle</text>
</a>
</g>
</g>
<!-- Node1&#45;&gt;Node7 -->
<g id="edge8" class="edge"><title>Node1&#45;&gt;Node7</title>
<path fill="none" stroke="midnightblue" d="M148.318,-12.5546C241.619,-10.0146 402.197,-6.82162 540,-10 560.103,-10.4637 581.94,-11.3301 601.877,-12.2633"/>
<polygon fill="midnightblue" stroke="midnightblue" points="148.013,-9.0616 138.114,-12.8371 148.207,-16.0589 148.013,-9.0616"/>
</g>
<!-- Node3 -->
<g id="node3" class="node"><title>Node3</title>
<g id="a_node3"><a xlink:href="../../d8/df2/classgui_1_1mainclasses_1_1workspace_1_1_workspace.html#a01dff18cc9fa51688c0ba996b3ff9b6a" target="_top" xlink:title="gui.mainclasses.workspace.\lWorkspace.moveActiveTurtles">
<polygon fill="white" stroke="black" points="372,-79 372,-109 530,-109 530,-79 372,-79"/>
<text text-anchor="start" x="380" y="-97" font-family="Helvetica,sans-Serif" font-size="10.00">gui.mainclasses.workspace.</text>
<text text-anchor="middle" x="451" y="-86" font-family="Helvetica,sans-Serif" font-size="10.00">Workspace.moveActiveTurtles</text>
</a>
</g>
</g>
<!-- Node2&#45;&gt;Node3 -->
<g id="edge2" class="edge"><title>Node2&#45;&gt;Node3</title>
<path fill="none" stroke="midnightblue" d="M316.309,-57.7221C341.601,-64.5853 370.249,-72.359 394.52,-78.9451"/>
<polygon fill="midnightblue" stroke="midnightblue" points="317,-54.2831 306.433,-55.042 315.167,-61.0388 317,-54.2831"/>
</g>
<!-- Node6 -->
<g id="node6" class="node"><title>Node6</title>
<g id="a_node6"><a xlink:href="../../d8/df2/classgui_1_1mainclasses_1_1workspace_1_1_workspace.html#afe27c5d2bffafe1e1092a0319331cc33" target="_top" xlink:title="gui.mainclasses.workspace.\lWorkspace.notifyOfTurtleSelection\lChange">
<polygon fill="white" stroke="black" points="362.5,-19.5 362.5,-60.5 539.5,-60.5 539.5,-19.5 362.5,-19.5"/>
<text text-anchor="start" x="370.5" y="-48.5" font-family="Helvetica,sans-Serif" font-size="10.00">gui.mainclasses.workspace.</text>
<text text-anchor="start" x="370.5" y="-37.5" font-family="Helvetica,sans-Serif" font-size="10.00">Workspace.notifyOfTurtleSelection</text>
<text text-anchor="middle" x="451" y="-26.5" font-family="Helvetica,sans-Serif" font-size="10.00">Change</text>
</a>
</g>
</g>
<!-- Node2&#45;&gt;Node6 -->
<g id="edge5" class="edge"><title>Node2&#45;&gt;Node6</title>
<path fill="none" stroke="midnightblue" d="M336.269,-40C344.888,-40 353.653,-40 362.297,-40"/>
<polygon fill="midnightblue" stroke="midnightblue" points="336.233,-36.5001 326.233,-40 336.233,-43.5001 336.233,-36.5001"/>
</g>
<!-- Node4 -->
<g id="node4" class="node"><title>Node4</title>
<g id="a_node4"><a xlink:href="../../d5/d3d/classgui_1_1mainclasses_1_1_g_u_i_controller.html#af8e32f667f89b5d6c80f282c2947fe84" target="_top" xlink:title="gui.mainclasses.GUIController.move\lActiveTurtlesInActiveWorkspace">
<polygon fill="white" stroke="black" points="576.5,-79 576.5,-109 765.5,-109 765.5,-79 576.5,-79"/>
<text text-anchor="start" x="584.5" y="-97" font-family="Helvetica,sans-Serif" font-size="10.00">gui.mainclasses.GUIController.move</text>
<text text-anchor="middle" x="671" y="-86" font-family="Helvetica,sans-Serif" font-size="10.00">ActiveTurtlesInActiveWorkspace</text>
</a>
</g>
</g>
<!-- Node3&#45;&gt;Node4 -->
<g id="edge3" class="edge"><title>Node3&#45;&gt;Node4</title>
<path fill="none" stroke="midnightblue" d="M540.418,-94C552.289,-94 564.499,-94 576.455,-94"/>
<polygon fill="midnightblue" stroke="midnightblue" points="540.087,-90.5001 530.087,-94 540.087,-97.5001 540.087,-90.5001"/>
</g>
<!-- Node5 -->
<g id="node5" class="node"><title>Node5</title>
<g id="a_node5"><a xlink:href="../../d5/d3d/classgui_1_1mainclasses_1_1_g_u_i_controller.html#aa8f2d03270ced2e768ccad9c0c925b3f" target="_top" xlink:title="gui.mainclasses.GUIController.\lGUIController">
<polygon fill="white" stroke="black" points="802,-79 802,-109 964,-109 964,-79 802,-79"/>
<text text-anchor="start" x="810" y="-97" font-family="Helvetica,sans-Serif" font-size="10.00">gui.mainclasses.GUIController.</text>
<text text-anchor="middle" x="883" y="-86" font-family="Helvetica,sans-Serif" font-size="10.00">GUIController</text>
</a>
</g>
</g>
<!-- Node4&#45;&gt;Node5 -->
<g id="edge4" class="edge"><title>Node4&#45;&gt;Node5</title>
<path fill="none" stroke="midnightblue" d="M775.823,-94C784.515,-94 793.218,-94 801.694,-94"/>
<polygon fill="midnightblue" stroke="midnightblue" points="775.638,-90.5001 765.638,-94 775.638,-97.5001 775.638,-90.5001"/>
</g>
<!-- Node6&#45;&gt;Node7 -->
<g id="edge6" class="edge"><title>Node6&#45;&gt;Node7</title>
<path fill="none" stroke="midnightblue" d="M549.989,-29.2122C567.519,-27.2823 585.432,-25.3102 601.89,-23.4983"/>
<polygon fill="midnightblue" stroke="midnightblue" points="549.284,-25.7687 539.727,-30.342 550.05,-32.7266 549.284,-25.7687"/>
</g>
<!-- Node8 -->
<g id="node8" class="node"><title>Node8</title>
<g id="a_node8"><a xlink:href="../../d1/d95/classgui_1_1factories_1_1turtlefactory_1_1_turtle_node.html#aeae66bb4bbd0ee69922deaf346872467" target="_top" xlink:title="gui.factories.turtlefactory.\lTurtleNode.TurtleNode">
<polygon fill="white" stroke="black" points="814,-1 814,-31 952,-31 952,-1 814,-1"/>
<text text-anchor="start" x="822" y="-19" font-family="Helvetica,sans-Serif" font-size="10.00">gui.factories.turtlefactory.</text>
<text text-anchor="middle" x="883" y="-8" font-family="Helvetica,sans-Serif" font-size="10.00">TurtleNode.TurtleNode</text>
</a>
</g>
</g>
<!-- Node7&#45;&gt;Node8 -->
<g id="edge7" class="edge"><title>Node7&#45;&gt;Node8</title>
<path fill="none" stroke="midnightblue" d="M750.287,-16C771.152,-16 793.525,-16 813.802,-16"/>
<polygon fill="midnightblue" stroke="midnightblue" points="750.181,-12.5001 740.181,-16 750.181,-19.5001 750.181,-12.5001"/>
</g>
</g>
</svg>
        <g id="navigator" transform="translate(0 0)" fill="#404254">
                <rect fill="#f2f5e9" fill-opacity="0.5" stroke="#606060" stroke-width=".5" x="0" y="0" width="60" height="60"/>
                <use id="zoomplus" xlink:href="#zoomPlus" x="17" y="9" onmousedown="handleZoom(evt,'in')"/>
                <use id="zoomminus" xlink:href="#zoomMin" x="42" y="9" onmousedown="handleZoom(evt,'out')"/>
                <use id="reset" xlink:href="#resetDef" x="30" y="36" onmousedown="handleReset()"/>
                <g id="arrowUp" xlink:href="#dirArrow" transform="translate(30 24)" onmousedown="handlePan(0,-1)">
                  <use xlink:href="#rim" fill="#404040">
                        <set attributeName="fill" to="#808080" begin="arrowUp.mouseover" end="arrowUp.mouseout"/>
                  </use>
                  <path fill="none" stroke="white" stroke-width="1.5" d="M0,-3.0v7 M-2.5,-0.5L0,-3.0L2.5,-0.5"/>
                </g>
                <g id="arrowRight" xlink:href="#dirArrow" transform="rotate(90) translate(36 -43)" onmousedown="handlePan(1,0)">
                  <use xlink:href="#rim" fill="#404040">
                        <set attributeName="fill" to="#808080" begin="arrowRight.mouseover" end="arrowRight.mouseout"/>
                  </use>
                  <path fill="none" stroke="white" stroke-width="1.5" d="M0,-3.0v7 M-2.5,-0.5L0,-3.0L2.5,-0.5"/>
                </g>
                <g id="arrowDown" xlink:href="#dirArrow" transform="rotate(180) translate(-30 -48)" onmousedown="handlePan(0,1)">
                  <use xlink:href="#rim" fill="#404040">
                        <set attributeName="fill" to="#808080" begin="arrowDown.mouseover" end="arrowDown.mouseout"/>
                  </use>
                  <path fill="none" stroke="white" stroke-width="1.5" d="M0,-3.0v7 M-2.5,-0.5L0,-3.0L2.5,-0.5"/>
                </g>
                <g id="arrowLeft" xlink:href="#dirArrow" transform="rotate(270) translate(-36 17)" onmousedown="handlePan(-1,0)">
                  <use xlink:href="#rim" fill="#404040">
                        <set attributeName="fill" to="#808080" begin="arrowLeft.mouseover" end="arrowLeft.mouseout"/>
                  </use>
                  <path fill="none" stroke="white" stroke-width="1.5" d="M0,-3.0v7 M-2.5,-0.5L0,-3.0L2.5,-0.5"/>
                </g>
        </g>
        <svg viewBox="0 0 15 15" width="100%" height="30px" preserveAspectRatio="xMaxYMin meet">
         <g id="arrow_out" transform="scale(0.3 0.3)">
          <a xlink:href="classgui_1_1factories_1_1turtlefactory_1_1_turtle_node_a3e07701226a7044520bc57956f81f0ea_icgraph_org.svg" target="_base">
           <rect id="button" ry="5" rx="5" y="6" x="6" height="38" width="38"
                fill="#f2f5e9" fill-opacity="0.5" stroke="#606060" stroke-width="1.0"/>
           <path id="arrow"
             d="M 11.500037,31.436501 C 11.940474,20.09759 22.043105,11.32322 32.158766,21.979434 L 37.068811,17.246167 C 37.068811,17.246167 37.088388,32 37.088388,32 L 22.160133,31.978069 C 22.160133,31.978069 26.997745,27.140456 26.997745,27.140456 C 18.528582,18.264221 13.291696,25.230495 11.500037,31.436501 z"
             style="fill:#404040;"/>
          </a>
         </g>
        </svg>
</svg>
