<?xml version="1.0" encoding="UTF-8" standalone="no"?>
<!DOCTYPE svg PUBLIC "-//W3C//DTD SVG 1.1//EN"
 "http://www.w3.org/Graphics/SVG/1.1/DTD/svg11.dtd">
<!-- Generated by graphviz version 2.36.0 (20140111.2315)
 -->
<!-- Title: gui.factories.turtlefactory.TurtleNode.updateImage Pages: 1 -->
<svg width="494pt" height="61pt"
 viewBox="0.00 0.00 494.00 61.00" xmlns="http://www.w3.org/2000/svg" xmlns:xlink="http://www.w3.org/1999/xlink">
<g id="graph0" class="graph" transform="scale(1 1) rotate(0) translate(4 57)">
<title>gui.factories.turtlefactory.TurtleNode.updateImage</title>
<polygon fill="white" stroke="none" points="-4,4 -4,-57 490,-57 490,4 -4,4"/>
<!-- Node1 -->
<g id="node1" class="node"><title>Node1</title>
<polygon fill="#bfbfbf" stroke="black" points="0,-1 0,-31 138,-31 138,-1 0,-1"/>
<text text-anchor="start" x="8" y="-19" font-family="Helvetica,sans-Serif" font-size="10.00">gui.factories.turtlefactory.</text>
<text text-anchor="middle" x="69" y="-8" font-family="Helvetica,sans-Serif" font-size="10.00">TurtleNode.updateImage</text>
</g>
<!-- Node2 -->
<g id="node2" class="node"><title>Node2</title>
<g id="a_node2"><a xlink:href="../../d1/d95/classgui_1_1factories_1_1turtlefactory_1_1_turtle_node.html#a8a90adc42503d132ce9c45b10844e32b" target="_top" xlink:title="gui.factories.turtlefactory.\lTurtleNode.selectTurtle">
<polygon fill="white" stroke="black" points="174,-23 174,-53 312,-53 312,-23 174,-23"/>
<text text-anchor="start" x="182" y="-41" font-family="Helvetica,sans-Serif" font-size="10.00">gui.factories.turtlefactory.</text>
<text text-anchor="middle" x="243" y="-30" font-family="Helvetica,sans-Serif" font-size="10.00">TurtleNode.selectTurtle</text>
</a>
</g>
</g>
<!-- Node1&#45;&gt;Node2 -->
<g id="edge1" class="edge"><title>Node1&#45;&gt;Node2</title>
<path fill="none" stroke="midnightblue" d="M148.637,-26.0582C157.025,-27.1312 165.508,-28.2161 173.762,-29.2719"/>
<polygon fill="midnightblue" stroke="midnightblue" points="148.836,-22.5553 138.473,-24.7582 147.948,-29.4987 148.836,-22.5553"/>
</g>
<!-- Node3 -->
<g id="node3" class="node"><title>Node3</title>
<g id="a_node3"><a xlink:href="../../d1/d95/classgui_1_1factories_1_1turtlefactory_1_1_turtle_node.html#aeae66bb4bbd0ee69922deaf346872467" target="_top" xlink:title="gui.factories.turtlefactory.\lTurtleNode.TurtleNode">
<polygon fill="white" stroke="black" points="348,-1 348,-31 486,-31 486,-1 348,-1"/>
<text text-anchor="start" x="356" y="-19" font-family="Helvetica,sans-Serif" font-size="10.00">gui.factories.turtlefactory.</text>
<text text-anchor="middle" x="417" y="-8" font-family="Helvetica,sans-Serif" font-size="10.00">TurtleNode.TurtleNode</text>
</a>
</g>
</g>
<!-- Node1&#45;&gt;Node3 -->
<g id="edge3" class="edge"><title>Node1&#45;&gt;Node3</title>
<path fill="none" stroke="midnightblue" d="M148.364,-14.3317C157.014,-14.1956 165.693,-14.0799 174,-14 235.33,-13.4103 250.67,-13.4103 312,-14 323.557,-14.1111 335.836,-14.2917 347.753,-14.5"/>
<polygon fill="midnightblue" stroke="midnightblue" points="148.188,-10.8341 138.247,-14.5 148.304,-17.8331 148.188,-10.8341"/>
</g>
<!-- Node2&#45;&gt;Node3 -->
<g id="edge2" class="edge"><title>Node2&#45;&gt;Node3</title>
<path fill="none" stroke="midnightblue" d="M322.637,-27.9418C331.025,-26.8688 339.508,-25.7839 347.762,-24.7281"/>
<polygon fill="midnightblue" stroke="midnightblue" points="321.948,-24.5013 312.473,-29.2418 322.836,-31.4447 321.948,-24.5013"/>
</g>
</g>
</svg>
