<?xml version="1.0" encoding="UTF-8" standalone="no"?>
<!DOCTYPE svg PUBLIC "-//W3C//DTD SVG 1.1//EN"
 "http://www.w3.org/Graphics/SVG/1.1/DTD/svg11.dtd">
<!-- Generated by graphviz version 2.36.0 (20140111.2315)
 -->
<!-- Title: gui.factories.turtlefactory.TurtleNode.TurtleNode Pages: 1 -->
<svg width="940pt" height="317pt"
 viewBox="0.00 0.00 940.00 316.98" xmlns="http://www.w3.org/2000/svg" xmlns:xlink="http://www.w3.org/1999/xlink">
<g id="graph0" class="graph" transform="scale(1 1) rotate(0) translate(4 312.984)">
<title>gui.factories.turtlefactory.TurtleNode.TurtleNode</title>
<polygon fill="white" stroke="none" points="-4,4 -4,-312.984 936,-312.984 936,4 -4,4"/>
<!-- Node1 -->
<g id="node1" class="node"><title>Node1</title>
<polygon fill="#bfbfbf" stroke="black" points="0,-196 0,-226 138,-226 138,-196 0,-196"/>
<text text-anchor="start" x="8" y="-214" font-family="Helvetica,sans-Serif" font-size="10.00">gui.factories.turtlefactory.</text>
<text text-anchor="middle" x="69" y="-203" font-family="Helvetica,sans-Serif" font-size="10.00">TurtleNode.TurtleNode</text>
</g>
<!-- Node2 -->
<g id="node2" class="node"><title>Node2</title>
<g id="a_node2"><a xlink:href="../../d1/d95/classgui_1_1factories_1_1turtlefactory_1_1_turtle_node.html#a8a90adc42503d132ce9c45b10844e32b" target="_top" xlink:title="gui.factories.turtlefactory.\lTurtleNode.selectTurtle">
<polygon fill="white" stroke="black" points="176,-245 176,-275 314,-275 314,-245 176,-245"/>
<text text-anchor="start" x="184" y="-263" font-family="Helvetica,sans-Serif" font-size="10.00">gui.factories.turtlefactory.</text>
<text text-anchor="middle" x="245" y="-252" font-family="Helvetica,sans-Serif" font-size="10.00">TurtleNode.selectTurtle</text>
</a>
</g>
</g>
<!-- Node1&#45;&gt;Node2 -->
<g id="edge1" class="edge"><title>Node1&#45;&gt;Node2</title>
<path fill="none" stroke="midnightblue" d="M123.626,-226.101C141.737,-231.202 162.124,-236.943 180.9,-242.23"/>
<polygon fill="midnightblue" stroke="midnightblue" points="179.977,-245.607 190.552,-244.948 181.875,-238.869 179.977,-245.607"/>
</g>
<!-- Node4 -->
<g id="node4" class="node"><title>Node4</title>
<g id="a_node4"><a xlink:href="../../d1/d95/classgui_1_1factories_1_1turtlefactory_1_1_turtle_node.html#a0aa8eeeb9e98c70ffd9953c04d1a8ba3" target="_top" xlink:title="gui.factories.turtlefactory.\lTurtleNode.updateImage">
<polygon fill="white" stroke="black" points="372,-196 372,-226 510,-226 510,-196 372,-196"/>
<text text-anchor="start" x="380" y="-214" font-family="Helvetica,sans-Serif" font-size="10.00">gui.factories.turtlefactory.</text>
<text text-anchor="middle" x="441" y="-203" font-family="Helvetica,sans-Serif" font-size="10.00">TurtleNode.updateImage</text>
</a>
</g>
</g>
<!-- Node1&#45;&gt;Node4 -->
<g id="edge9" class="edge"><title>Node1&#45;&gt;Node4</title>
<path fill="none" stroke="midnightblue" d="M138.295,-211C201.423,-211 295.194,-211 361.409,-211"/>
<polygon fill="midnightblue" stroke="midnightblue" points="361.791,-214.5 371.791,-211 361.791,-207.5 361.791,-214.5"/>
</g>
<!-- Node9 -->
<g id="node9" class="node"><title>Node9</title>
<g id="a_node9"><a xlink:href="../../d1/d95/classgui_1_1factories_1_1turtlefactory_1_1_turtle_node.html#a6e2a02d271815ab5516bde6eb8d4d361" target="_top" xlink:title="gui.factories.turtlefactory.\lTurtleNode.updatePosition">
<polygon fill="white" stroke="black" points="174,-98 174,-128 316,-128 316,-98 174,-98"/>
<text text-anchor="start" x="182" y="-116" font-family="Helvetica,sans-Serif" font-size="10.00">gui.factories.turtlefactory.</text>
<text text-anchor="middle" x="245" y="-105" font-family="Helvetica,sans-Serif" font-size="10.00">TurtleNode.updatePosition</text>
</a>
</g>
</g>
<!-- Node1&#45;&gt;Node9 -->
<g id="edge10" class="edge"><title>Node1&#45;&gt;Node9</title>
<path fill="none" stroke="midnightblue" d="M96.8062,-195.902C126.694,-179.069 175.172,-151.765 208.265,-133.126"/>
<polygon fill="midnightblue" stroke="midnightblue" points="210.168,-136.072 217.163,-128.115 206.733,-129.973 210.168,-136.072"/>
</g>
<!-- Node3 -->
<g id="node3" class="node"><title>Node3</title>
<g id="a_node3"><a xlink:href="../../d1/d95/classgui_1_1factories_1_1turtlefactory_1_1_turtle_node.html#a3e07701226a7044520bc57956f81f0ea" target="_top" xlink:title="gui.factories.turtlefactory.\lTurtleNode.isSelected">
<polygon fill="white" stroke="black" points="786,-277 786,-307 924,-307 924,-277 786,-277"/>
<text text-anchor="start" x="794" y="-295" font-family="Helvetica,sans-Serif" font-size="10.00">gui.factories.turtlefactory.</text>
<text text-anchor="middle" x="855" y="-284" font-family="Helvetica,sans-Serif" font-size="10.00">TurtleNode.isSelected</text>
</a>
</g>
</g>
<!-- Node2&#45;&gt;Node3 -->
<g id="edge2" class="edge"><title>Node2&#45;&gt;Node3</title>
<path fill="none" stroke="midnightblue" d="M283.087,-275.02C303.127,-282.333 328.514,-290.326 352,-294 500.238,-317.192 676.125,-308.287 775.434,-299.966"/>
<polygon fill="midnightblue" stroke="midnightblue" points="776.021,-303.429 785.685,-299.086 775.422,-296.454 776.021,-303.429"/>
</g>
<!-- Node2&#45;&gt;Node4 -->
<g id="edge3" class="edge"><title>Node2&#45;&gt;Node4</title>
<path fill="none" stroke="midnightblue" d="M305.525,-244.965C326.102,-239.768 349.337,-233.899 370.634,-228.52"/>
<polygon fill="midnightblue" stroke="midnightblue" points="371.749,-231.849 380.588,-226.006 370.035,-225.062 371.749,-231.849"/>
</g>
<!-- Node5 -->
<g id="node5" class="node"><title>Node5</title>
<g id="a_node5"><a xlink:href="../../d8/df2/classgui_1_1mainclasses_1_1workspace_1_1_workspace.html#afe27c5d2bffafe1e1092a0319331cc33" target="_top" xlink:title="gui.mainclasses.workspace.\lWorkspace.notifyOfTurtleSelection\lChange">
<polygon fill="white" stroke="black" points="352.5,-244.5 352.5,-285.5 529.5,-285.5 529.5,-244.5 352.5,-244.5"/>
<text text-anchor="start" x="360.5" y="-273.5" font-family="Helvetica,sans-Serif" font-size="10.00">gui.mainclasses.workspace.</text>
<text text-anchor="start" x="360.5" y="-262.5" font-family="Helvetica,sans-Serif" font-size="10.00">Workspace.notifyOfTurtleSelection</text>
<text text-anchor="middle" x="441" y="-251.5" font-family="Helvetica,sans-Serif" font-size="10.00">Change</text>
</a>
</g>
</g>
<!-- Node2&#45;&gt;Node5 -->
<g id="edge4" class="edge"><title>Node2&#45;&gt;Node5</title>
<path fill="none" stroke="midnightblue" d="M314.124,-261.756C323.184,-261.989 332.614,-262.232 342.056,-262.476"/>
<polygon fill="midnightblue" stroke="midnightblue" points="342.202,-265.981 352.289,-262.739 342.383,-258.983 342.202,-265.981"/>
</g>
<!-- Node6 -->
<g id="node6" class="node"><title>Node6</title>
<g id="a_node6"><a xlink:href="../../dd/d25/classgui_1_1factories_1_1turtlefactory_1_1_turtle_nodes.html#a95e5268536cc20234687d9c3f61f49be" target="_top" xlink:title="gui.factories.turtlefactory.\lTurtleNodes.getActiveNodes">
<polygon fill="white" stroke="black" points="578,-255 578,-285 730,-285 730,-255 578,-255"/>
<text text-anchor="start" x="586" y="-273" font-family="Helvetica,sans-Serif" font-size="10.00">gui.factories.turtlefactory.</text>
<text text-anchor="middle" x="654" y="-262" font-family="Helvetica,sans-Serif" font-size="10.00">TurtleNodes.getActiveNodes</text>
</a>
</g>
</g>
<!-- Node5&#45;&gt;Node6 -->
<g id="edge5" class="edge"><title>Node5&#45;&gt;Node6</title>
<path fill="none" stroke="midnightblue" d="M529.65,-267.077C542.123,-267.373 554.938,-267.676 567.371,-267.971"/>
<polygon fill="midnightblue" stroke="midnightblue" points="567.629,-271.478 577.71,-268.216 567.795,-264.48 567.629,-271.478"/>
</g>
<!-- Node7 -->
<g id="node7" class="node"><title>Node7</title>
<g id="a_node7"><a xlink:href="../../d8/df2/classgui_1_1mainclasses_1_1workspace_1_1_workspace.html#a1c6c6c0599097fbf5e9a660ec0ac3702" target="_top" xlink:title="gui.mainclasses.workspace.\lWorkspace.parseCommandString">
<polygon fill="white" stroke="black" points="566,-206 566,-236 742,-236 742,-206 566,-206"/>
<text text-anchor="start" x="574" y="-224" font-family="Helvetica,sans-Serif" font-size="10.00">gui.mainclasses.workspace.</text>
<text text-anchor="middle" x="654" y="-213" font-family="Helvetica,sans-Serif" font-size="10.00">Workspace.parseCommandString</text>
</a>
</g>
</g>
<!-- Node5&#45;&gt;Node7 -->
<g id="edge7" class="edge"><title>Node5&#45;&gt;Node7</title>
<path fill="none" stroke="midnightblue" d="M529.65,-246.722C543.408,-243.853 557.583,-240.897 571.202,-238.057"/>
<polygon fill="midnightblue" stroke="midnightblue" points="571.932,-241.481 581.007,-236.013 570.503,-234.628 571.932,-241.481"/>
</g>
<!-- Node6&#45;&gt;Node3 -->
<g id="edge6" class="edge"><title>Node6&#45;&gt;Node3</title>
<path fill="none" stroke="midnightblue" d="M730.233,-278.317C745.078,-279.958 760.691,-281.684 775.636,-283.337"/>
<polygon fill="midnightblue" stroke="midnightblue" points="775.535,-286.847 785.859,-284.467 776.304,-279.889 775.535,-286.847"/>
</g>
<!-- Node8 -->
<g id="node8" class="node"><title>Node8</title>
<g id="a_node8"><a xlink:href="../../da/d55/interface_control_1_1_slogo_graphics.html#a05813100446932183f367405e6c73d67" target="_top" xlink:title="Control.SlogoGraphics.parse\lCommandString">
<polygon fill="white" stroke="black" points="778.5,-206 778.5,-236 931.5,-236 931.5,-206 778.5,-206"/>
<text text-anchor="start" x="786.5" y="-224" font-family="Helvetica,sans-Serif" font-size="10.00">Control.SlogoGraphics.parse</text>
<text text-anchor="middle" x="855" y="-213" font-family="Helvetica,sans-Serif" font-size="10.00">CommandString</text>
</a>
</g>
</g>
<!-- Node7&#45;&gt;Node8 -->
<g id="edge8" class="edge"><title>Node7&#45;&gt;Node8</title>
<path fill="none" stroke="midnightblue" d="M742.284,-221C750.916,-221 759.673,-221 768.288,-221"/>
<polygon fill="midnightblue" stroke="midnightblue" points="768.322,-224.5 778.322,-221 768.322,-217.5 768.322,-224.5"/>
</g>
<!-- Node10 -->
<g id="node10" class="node"><title>Node10</title>
<g id="a_node10"><a xlink:href="../../d1/d95/classgui_1_1factories_1_1turtlefactory_1_1_turtle_node.html#aeea99dc4ec97b6f73d146213912391a2" target="_top" xlink:title="gui.factories.turtlefactory.\lTurtleNode.parseStringToPoints">
<polygon fill="white" stroke="black" points="358.5,-147 358.5,-177 523.5,-177 523.5,-147 358.5,-147"/>
<text text-anchor="start" x="366.5" y="-165" font-family="Helvetica,sans-Serif" font-size="10.00">gui.factories.turtlefactory.</text>
<text text-anchor="middle" x="441" y="-154" font-family="Helvetica,sans-Serif" font-size="10.00">TurtleNode.parseStringToPoints</text>
</a>
</g>
</g>
<!-- Node9&#45;&gt;Node10 -->
<g id="edge11" class="edge"><title>Node9&#45;&gt;Node10</title>
<path fill="none" stroke="midnightblue" d="M305.525,-128.035C326.102,-133.232 349.337,-139.101 370.634,-144.48"/>
<polygon fill="midnightblue" stroke="midnightblue" points="370.035,-147.938 380.588,-146.994 371.749,-141.151 370.035,-147.938"/>
</g>
<!-- Node11 -->
<g id="node11" class="node"><title>Node11</title>
<g id="a_node11"><a xlink:href="../../d2/d8c/classgui_1_1turtlescreenwrap_1_1_tesselation_mapper.html#accb8e9b832acd2b297b33650dbef962d" target="_top" xlink:title="gui.turtlescreenwrap.Tesselation\lMapper.map">
<polygon fill="white" stroke="black" points="356,-98 356,-128 526,-128 526,-98 356,-98"/>
<text text-anchor="start" x="364" y="-116" font-family="Helvetica,sans-Serif" font-size="10.00">gui.turtlescreenwrap.Tesselation</text>
<text text-anchor="middle" x="441" y="-105" font-family="Helvetica,sans-Serif" font-size="10.00">Mapper.map</text>
</a>
</g>
</g>
<!-- Node9&#45;&gt;Node11 -->
<g id="edge12" class="edge"><title>Node9&#45;&gt;Node11</title>
<path fill="none" stroke="midnightblue" d="M316.038,-113C325.725,-113 335.801,-113 345.837,-113"/>
<polygon fill="midnightblue" stroke="midnightblue" points="345.843,-116.5 355.843,-113 345.843,-109.5 345.843,-116.5"/>
</g>
<!-- Node14 -->
<g id="node14" class="node"><title>Node14</title>
<g id="a_node14"><a xlink:href="../../d4/d9b/classgui_1_1turtlescreenwrap_1_1_coordinate_changer.html#a4b6834129da347abd82e9f84a69d0662" target="_top" xlink:title="gui.turtlescreenwrap.Coordinate\lChanger.convX">
<polygon fill="white" stroke="black" points="356,-49 356,-79 526,-79 526,-49 356,-49"/>
<text text-anchor="start" x="364" y="-67" font-family="Helvetica,sans-Serif" font-size="10.00">gui.turtlescreenwrap.Coordinate</text>
<text text-anchor="middle" x="441" y="-56" font-family="Helvetica,sans-Serif" font-size="10.00">Changer.convX</text>
</a>
</g>
</g>
<!-- Node9&#45;&gt;Node14 -->
<g id="edge15" class="edge"><title>Node9&#45;&gt;Node14</title>
<path fill="none" stroke="midnightblue" d="M305.525,-97.9654C326.102,-92.7682 349.337,-86.8994 370.634,-81.5204"/>
<polygon fill="midnightblue" stroke="midnightblue" points="371.749,-84.8486 380.588,-79.0062 370.035,-78.0617 371.749,-84.8486"/>
</g>
<!-- Node15 -->
<g id="node15" class="node"><title>Node15</title>
<g id="a_node15"><a xlink:href="../../d4/d9b/classgui_1_1turtlescreenwrap_1_1_coordinate_changer.html#a26ee7cc089d708666b8eab5c37406a7c" target="_top" xlink:title="gui.turtlescreenwrap.Coordinate\lChanger.convY">
<polygon fill="white" stroke="black" points="356,-0 356,-30 526,-30 526,-0 356,-0"/>
<text text-anchor="start" x="364" y="-18" font-family="Helvetica,sans-Serif" font-size="10.00">gui.turtlescreenwrap.Coordinate</text>
<text text-anchor="middle" x="441" y="-7" font-family="Helvetica,sans-Serif" font-size="10.00">Changer.convY</text>
</a>
</g>
</g>
<!-- Node9&#45;&gt;Node15 -->
<g id="edge16" class="edge"><title>Node9&#45;&gt;Node15</title>
<path fill="none" stroke="midnightblue" d="M263.581,-97.8497C283.705,-81.2219 318.258,-54.7966 352,-39 356.258,-37.0067 360.711,-35.1529 365.258,-33.4332"/>
<polygon fill="midnightblue" stroke="midnightblue" points="366.434,-36.7299 374.69,-30.0895 364.095,-30.1323 366.434,-36.7299"/>
</g>
<!-- Node12 -->
<g id="node12" class="node"><title>Node12</title>
<g id="a_node12"><a xlink:href="../../d2/d8c/classgui_1_1turtlescreenwrap_1_1_tesselation_mapper.html#aabbaac2b93b3b79c2f4d88ac0849ab6f" target="_top" xlink:title="gui.turtlescreenwrap.Tesselation\lMapper.checkOffScreen">
<polygon fill="white" stroke="black" points="569,-122 569,-152 739,-152 739,-122 569,-122"/>
<text text-anchor="start" x="577" y="-140" font-family="Helvetica,sans-Serif" font-size="10.00">gui.turtlescreenwrap.Tesselation</text>
<text text-anchor="middle" x="654" y="-129" font-family="Helvetica,sans-Serif" font-size="10.00">Mapper.checkOffScreen</text>
</a>
</g>
</g>
<!-- Node11&#45;&gt;Node12 -->
<g id="edge13" class="edge"><title>Node11&#45;&gt;Node12</title>
<path fill="none" stroke="midnightblue" d="M526.302,-122.589C536.915,-123.796 547.826,-125.037 558.582,-126.26"/>
<polygon fill="midnightblue" stroke="midnightblue" points="558.5,-129.774 568.831,-127.426 559.291,-122.819 558.5,-129.774"/>
</g>
<!-- Node13 -->
<g id="node13" class="node"><title>Node13</title>
<g id="a_node13"><a xlink:href="../../d2/d8c/classgui_1_1turtlescreenwrap_1_1_tesselation_mapper.html#aa9ff2f06fa612f2250c8a94a084f9c99" target="_top" xlink:title="gui.turtlescreenwrap.Tesselation\lMapper.getDummyOrigin">
<polygon fill="white" stroke="black" points="569,-73 569,-103 739,-103 739,-73 569,-73"/>
<text text-anchor="start" x="577" y="-91" font-family="Helvetica,sans-Serif" font-size="10.00">gui.turtlescreenwrap.Tesselation</text>
<text text-anchor="middle" x="654" y="-80" font-family="Helvetica,sans-Serif" font-size="10.00">Mapper.getDummyOrigin</text>
</a>
</g>
</g>
<!-- Node11&#45;&gt;Node13 -->
<g id="edge14" class="edge"><title>Node11&#45;&gt;Node13</title>
<path fill="none" stroke="midnightblue" d="M526.302,-103.012C536.915,-101.754 547.826,-100.461 558.582,-99.187"/>
<polygon fill="midnightblue" stroke="midnightblue" points="559.313,-102.625 568.831,-97.9726 558.489,-95.6736 559.313,-102.625"/>
</g>
</g>
</svg>
