<?xml version="1.0" encoding="UTF-8" standalone="no"?>
<!DOCTYPE svg PUBLIC "-//W3C//DTD SVG 1.1//EN"
 "http://www.w3.org/Graphics/SVG/1.1/DTD/svg11.dtd">
<!-- Generated by graphviz version 2.36.0 (20140111.2315)
 -->
<!-- Title: commandParsing.structuralCommandParsing.StructuralCommandOnBooleanSwitch.evaluateBooleanExpression Pages: 1 -->
<svg width="440pt" height="87pt"
 viewBox="0.00 0.00 440.00 87.00" xmlns="http://www.w3.org/2000/svg" xmlns:xlink="http://www.w3.org/1999/xlink">
<g id="graph0" class="graph" transform="scale(1 1) rotate(0) translate(4 83)">
<title>commandParsing.structuralCommandParsing.StructuralCommandOnBooleanSwitch.evaluateBooleanExpression</title>
<polygon fill="white" stroke="none" points="-4,4 -4,-83 436,-83 436,4 -4,4"/>
<!-- Node1 -->
<g id="node1" class="node"><title>Node1</title>
<polygon fill="#bfbfbf" stroke="black" points="0.5,-18.5 0.5,-59.5 235.5,-59.5 235.5,-18.5 0.5,-18.5"/>
<text text-anchor="start" x="8.5" y="-47.5" font-family="Helvetica,sans-Serif" font-size="10.00">commandParsing.structural</text>
<text text-anchor="start" x="8.5" y="-36.5" font-family="Helvetica,sans-Serif" font-size="10.00">CommandParsing.StructuralCommand</text>
<text text-anchor="middle" x="118" y="-25.5" font-family="Helvetica,sans-Serif" font-size="10.00">OnBooleanSwitch.evaluateBooleanExpression</text>
</g>
<!-- Node2 -->
<g id="node2" class="node"><title>Node2</title>
<g id="a_node2"><a xlink:href="../../d3/d0e/classcommand_parsing_1_1structural_command_parsing_1_1_if.html#a89fd19125688d38678f4faff6ad679ed" target="_top" xlink:title="commandParsing.structural\lCommandParsing.If.parse">
<polygon fill="white" stroke="black" points="277.5,-49 277.5,-79 426.5,-79 426.5,-49 277.5,-49"/>
<text text-anchor="start" x="285.5" y="-67" font-family="Helvetica,sans-Serif" font-size="10.00">commandParsing.structural</text>
<text text-anchor="middle" x="352" y="-56" font-family="Helvetica,sans-Serif" font-size="10.00">CommandParsing.If.parse</text>
</a>
</g>
</g>
<!-- Node1&#45;&gt;Node2 -->
<g id="edge1" class="edge"><title>Node1&#45;&gt;Node2</title>
<path fill="none" stroke="midnightblue" d="M245.663,-52.649C256.508,-53.8176 267.227,-54.9727 277.437,-56.0729"/>
<polygon fill="midnightblue" stroke="midnightblue" points="245.997,-49.1649 235.68,-51.5732 245.247,-56.1246 245.997,-49.1649"/>
</g>
<!-- Node3 -->
<g id="node3" class="node"><title>Node3</title>
<g id="a_node3"><a xlink:href="../../d5/dd6/classcommand_parsing_1_1structural_command_parsing_1_1_if_else.html#a00f4fac4f783a99448a471dd359c8e8e" target="_top" xlink:title="commandParsing.structural\lCommandParsing.IfElse.parse">
<polygon fill="white" stroke="black" points="272.5,-0 272.5,-30 431.5,-30 431.5,-0 272.5,-0"/>
<text text-anchor="start" x="280.5" y="-18" font-family="Helvetica,sans-Serif" font-size="10.00">commandParsing.structural</text>
<text text-anchor="middle" x="352" y="-7" font-family="Helvetica,sans-Serif" font-size="10.00">CommandParsing.IfElse.parse</text>
</a>
</g>
</g>
<!-- Node1&#45;&gt;Node3 -->
<g id="edge2" class="edge"><title>Node1&#45;&gt;Node3</title>
<path fill="none" stroke="midnightblue" d="M245.848,-25.8778C254.831,-24.9486 263.726,-24.0283 272.316,-23.1397"/>
<polygon fill="midnightblue" stroke="midnightblue" points="245.266,-22.4192 235.68,-26.9297 245.987,-29.382 245.266,-22.4192"/>
</g>
</g>
</svg>
