<?xml version="1.0" encoding="UTF-8" standalone="no"?>
<!DOCTYPE svg PUBLIC "-//W3C//DTD SVG 1.1//EN"
 "http://www.w3.org/Graphics/SVG/1.1/DTD/svg11.dtd">
<!-- Generated by graphviz version 2.36.0 (20140111.2315)
 -->
<!-- Title: gui.mainclasses.GUIController Pages: 1 -->
<!--zoomable 384 -->
<svg id="main" version="1.1" xmlns="http://www.w3.org/2000/svg" xmlns:xlink="http://www.w3.org/1999/xlink" xml:space="preserve" onload="init(evt)">
<style type="text/css"><![CDATA[
.edge:hover path { stroke: red; }
.edge:hover polygon { stroke: red; fill: red; }
]]></style>
<script type="text/javascript"><![CDATA[
var edges = document.getElementsByTagName('g');
if (edges && edges.length) {
  for (var i=0;i<edges.length;i++) {
    if (edges[i].id.substr(0,4)=='edge') {
      edges[i].setAttribute('class','edge');
    }
  }
}
]]></script>
        <defs>
                <circle id="rim" cx="0" cy="0" r="7"/>
                <circle id="rim2" cx="0" cy="0" r="3.5"/>
                <g id="zoomPlus">
                        <use xlink:href="#rim" fill="#404040">
                                <set attributeName="fill" to="#808080" begin="zoomplus.mouseover" end="zoomplus.mouseout"/>
                        </use>
                        <path d="M-4,0h8M0,-4v8" fill="none" stroke="white" stroke-width="1.5" pointer-events="none"/>
                </g>
                <g id="zoomMin">
                        <use xlink:href="#rim" fill="#404040">
                                <set attributeName="fill" to="#808080" begin="zoomminus.mouseover" end="zoomminus.mouseout"/>
                        </use>
                        <path d="M-4,0h8" fill="none" stroke="white" stroke-width="1.5" pointer-events="none"/>
                </g>
                <g id="dirArrow">
                        <path fill="none" stroke="white" stroke-width="1.5" d="M0,-3.0v7 M-2.5,-0.5L0,-3.0L2.5,-0.5"/>
                </g>
               <g id="resetDef">
                       <use xlink:href="#rim2" fill="#404040">
                               <set attributeName="fill" to="#808080" begin="reset.mouseover" end="reset.mouseout"/>
                       </use>
               </g>
        </defs>

<script type="text/javascript">
var viewWidth = 1652;
var viewHeight = 384;
var sectionId = 'dynsection-0';
</script>
<script xlink:href="../../svgpan.js"/>
<svg id="graph" class="graph">
<g id="viewport">
<title>gui.mainclasses.GUIController</title>
<polygon fill="white" stroke="none" points="-4,4 -4,-380.301 1648,-380.301 1648,4 -4,4"/>
<!-- Node1 -->
<g id="node1" class="node"><title>Node1</title>
<polygon fill="#bfbfbf" stroke="black" points="1484,-307.801 1484,-326.801 1644,-326.801 1644,-307.801 1484,-307.801"/>
<text text-anchor="middle" x="1564" y="-314.801" font-family="Helvetica,sans-Serif" font-size="10.00">gui.mainclasses.GUIController</text>
</g>
<!-- Node2 -->
<g id="node2" class="node"><title>Node2</title>
<g id="a_node2"><a xlink:href="../../d3/db0/classgui_1_1mainclasses_1_1workspace_1_1_workspace_manager.html" target="_top" xlink:title="gui.mainclasses.workspace.\lWorkspaceManager">
<polygon fill="white" stroke="black" points="1168.5,-330.301 1168.5,-360.301 1317.5,-360.301 1317.5,-330.301 1168.5,-330.301"/>
<text text-anchor="start" x="1176.5" y="-348.301" font-family="Helvetica,sans-Serif" font-size="10.00">gui.mainclasses.workspace.</text>
<text text-anchor="middle" x="1243" y="-337.301" font-family="Helvetica,sans-Serif" font-size="10.00">WorkspaceManager</text>
</a>
</g>
</g>
<!-- Node2&#45;&gt;Node1 -->
<g id="edge1" class="edge"><title>Node2&#45;&gt;Node1</title>
<path fill="none" stroke="#9a32cd" stroke-dasharray="5,2" d="M1327.7,-337.955C1376.02,-333.714 1436.42,-328.412 1483.93,-324.242"/>
<polygon fill="#9a32cd" stroke="#9a32cd" points="1327.24,-334.482 1317.59,-338.843 1327.85,-341.455 1327.24,-334.482"/>
<text text-anchor="middle" x="1410" y="-339.301" font-family="Helvetica,sans-Serif" font-size="10.00"> myWorkspaceManager</text>
</g>
<!-- Node3 -->
<g id="node3" class="node"><title>Node3</title>
<polygon fill="white" stroke="#bfbfbf" points="903,-329.801 903,-348.801 959,-348.801 959,-329.801 903,-329.801"/>
<text text-anchor="middle" x="931" y="-336.801" font-family="Helvetica,sans-Serif" font-size="10.00">TabPane</text>
</g>
<!-- Node3&#45;&gt;Node2 -->
<g id="edge2" class="edge"><title>Node3&#45;&gt;Node2</title>
<path fill="none" stroke="midnightblue" d="M969.404,-340.025C1018.5,-340.976 1105.76,-342.665 1168.34,-343.876"/>
<polygon fill="midnightblue" stroke="midnightblue" points="969.305,-336.523 959.239,-339.829 969.169,-343.522 969.305,-336.523"/>
</g>
<!-- Node4 -->
<g id="node4" class="node"><title>Node4</title>
<g id="a_node4"><a xlink:href="../../d8/df2/classgui_1_1mainclasses_1_1workspace_1_1_workspace.html" target="_top" xlink:title="gui.mainclasses.workspace.\lWorkspace">
<polygon fill="white" stroke="black" points="856.5,-206.301 856.5,-236.301 1005.5,-236.301 1005.5,-206.301 856.5,-206.301"/>
<text text-anchor="start" x="864.5" y="-224.301" font-family="Helvetica,sans-Serif" font-size="10.00">gui.mainclasses.workspace.</text>
<text text-anchor="middle" x="931" y="-213.301" font-family="Helvetica,sans-Serif" font-size="10.00">Workspace</text>
</a>
</g>
</g>
<!-- Node4&#45;&gt;Node2 -->
<g id="edge3" class="edge"><title>Node4&#45;&gt;Node2</title>
<path fill="none" stroke="#9a32cd" stroke-dasharray="5,2" d="M1003.91,-238.645C1013.35,-240.898 1022.91,-243.164 1032,-245.301 1076.4,-255.734 1090.33,-249.772 1132,-268.301 1168,-284.308 1204.41,-312.738 1224.99,-330.213"/>
<polygon fill="#9a32cd" stroke="#9a32cd" points="1004.66,-235.228 994.124,-236.308 1003.04,-242.036 1004.66,-235.228"/>
<text text-anchor="middle" x="1082" y="-271.301" font-family="Helvetica,sans-Serif" font-size="10.00"> myActiveWorkspace</text>
</g>
<!-- Node17 -->
<g id="node17" class="node"><title>Node17</title>
<g id="a_node17"><a xlink:href="../../dd/d25/classgui_1_1factories_1_1turtlefactory_1_1_turtle_nodes.html" target="_top" xlink:title="gui.factories.turtlefactory.\lTurtleNodes">
<polygon fill="white" stroke="black" points="1174,-129.301 1174,-159.301 1312,-159.301 1312,-129.301 1174,-129.301"/>
<text text-anchor="start" x="1182" y="-147.301" font-family="Helvetica,sans-Serif" font-size="10.00">gui.factories.turtlefactory.</text>
<text text-anchor="middle" x="1243" y="-136.301" font-family="Helvetica,sans-Serif" font-size="10.00">TurtleNodes</text>
</a>
</g>
</g>
<!-- Node4&#45;&gt;Node17 -->
<g id="edge19" class="edge"><title>Node4&#45;&gt;Node17</title>
<path fill="none" stroke="#9a32cd" stroke-dasharray="5,2" d="M968.179,-201.624C986.763,-192.308 1010.06,-181.821 1032,-175.301 1078.28,-161.55 1132.18,-153.754 1173.79,-149.42"/>
<polygon fill="#9a32cd" stroke="#9a32cd" points="966.502,-198.551 959.193,-206.221 969.689,-204.783 966.502,-198.551"/>
<text text-anchor="middle" x="1082" y="-178.301" font-family="Helvetica,sans-Serif" font-size="10.00"> myWorkspace</text>
</g>
<!-- Node5 -->
<g id="node5" class="node"><title>Node5</title>
<polygon fill="white" stroke="#bfbfbf" points="584,-115.801 584,-134.801 616,-134.801 616,-115.801 584,-115.801"/>
<text text-anchor="middle" x="600" y="-122.801" font-family="Helvetica,sans-Serif" font-size="10.00">Tab</text>
</g>
<!-- Node5&#45;&gt;Node4 -->
<g id="edge4" class="edge"><title>Node5&#45;&gt;Node4</title>
<path fill="none" stroke="midnightblue" d="M626.216,-127.733C669.069,-132.393 758.417,-144.408 830,-169.301 857.169,-178.75 886.109,-194.493 905.827,-206.187"/>
<polygon fill="midnightblue" stroke="midnightblue" points="626.434,-124.237 616.125,-126.68 625.708,-131.199 626.434,-124.237"/>
</g>
<!-- Node6 -->
<g id="node6" class="node"><title>Node6</title>
<g id="a_node6"><a xlink:href="../../d0/d23/classgui_1_1mainclasses_1_1workspace_1_1_workspace_data_holder.html" target="_top" xlink:title="gui.mainclasses.workspace.\lWorkspaceDataHolder">
<polygon fill="white" stroke="black" points="525.5,-241.301 525.5,-271.301 674.5,-271.301 674.5,-241.301 525.5,-241.301"/>
<text text-anchor="start" x="533.5" y="-259.301" font-family="Helvetica,sans-Serif" font-size="10.00">gui.mainclasses.workspace.</text>
<text text-anchor="middle" x="600" y="-248.301" font-family="Helvetica,sans-Serif" font-size="10.00">WorkspaceDataHolder</text>
</a>
</g>
</g>
<!-- Node6&#45;&gt;Node4 -->
<g id="edge5" class="edge"><title>Node6&#45;&gt;Node4</title>
<path fill="none" stroke="#9a32cd" stroke-dasharray="5,2" d="M684.653,-245.886C695.201,-244.641 705.849,-243.417 716,-242.301 762.57,-237.183 814.91,-232.036 856.171,-228.118"/>
<polygon fill="#9a32cd" stroke="#9a32cd" points="684.105,-242.427 674.589,-247.084 684.932,-249.378 684.105,-242.427"/>
<text text-anchor="middle" x="773" y="-245.301" font-family="Helvetica,sans-Serif" font-size="10.00"> myDataHolder</text>
</g>
<!-- Node7 -->
<g id="node7" class="node"><title>Node7</title>
<polygon fill="white" stroke="#bfbfbf" points="0.5,-338.301 0.5,-368.301 319.5,-368.301 319.5,-338.301 0.5,-338.301"/>
<text text-anchor="start" x="8.5" y="-356.301" font-family="Helvetica,sans-Serif" font-size="10.00">ObservableList&lt; gui.nonbuttonfeatures.tableviews.imageindex.</text>
<text text-anchor="middle" x="160" y="-345.301" font-family="Helvetica,sans-Serif" font-size="10.00">ImageIndex &gt;</text>
</g>
<!-- Node7&#45;&gt;Node6 -->
<g id="edge6" class="edge"><title>Node7&#45;&gt;Node6</title>
<path fill="none" stroke="#9a32cd" stroke-dasharray="5,2" d="M267.177,-336.626C284.82,-333.85 302.926,-330.997 320,-328.301 392.896,-316.792 419.151,-337.527 484,-302.301 494.509,-296.593 491.804,-288.552 502,-282.301 509.209,-277.882 517.168,-274.204 525.334,-271.145"/>
<polygon fill="#9a32cd" stroke="#9a32cd" points="266.188,-333.239 256.854,-338.25 267.276,-340.154 266.188,-333.239"/>
<text text-anchor="middle" x="411" y="-329.301" font-family="Helvetica,sans-Serif" font-size="10.00"> myImageIndexList</text>
</g>
<!-- Node8 -->
<g id="node8" class="node"><title>Node8</title>
<polygon fill="white" stroke="#bfbfbf" points="4,-289.301 4,-319.301 316,-319.301 316,-289.301 4,-289.301"/>
<text text-anchor="start" x="12" y="-307.301" font-family="Helvetica,sans-Serif" font-size="10.00">ObservableList&lt; gui.nonbuttonfeatures.tableviews.colorindex.</text>
<text text-anchor="middle" x="160" y="-296.301" font-family="Helvetica,sans-Serif" font-size="10.00">ColorIndex &gt;</text>
</g>
<!-- Node8&#45;&gt;Node6 -->
<g id="edge7" class="edge"><title>Node8&#45;&gt;Node6</title>
<path fill="none" stroke="#9a32cd" stroke-dasharray="5,2" d="M326.401,-288.299C377.01,-283.161 432.821,-277.253 484,-271.301 497.4,-269.743 511.663,-267.973 525.419,-266.209"/>
<polygon fill="#9a32cd" stroke="#9a32cd" points="325.948,-284.826 316.351,-289.316 326.653,-291.791 325.948,-284.826"/>
<text text-anchor="middle" x="411" y="-290.301" font-family="Helvetica,sans-Serif" font-size="10.00"> myColorIndexList</text>
</g>
<!-- Node9 -->
<g id="node9" class="node"><title>Node9</title>
<polygon fill="white" stroke="#bfbfbf" points="72.5,-240.301 72.5,-270.301 247.5,-270.301 247.5,-240.301 72.5,-240.301"/>
<text text-anchor="start" x="80.5" y="-258.301" font-family="Helvetica,sans-Serif" font-size="10.00">ObservableList&lt; gui.variableslist.</text>
<text text-anchor="middle" x="160" y="-247.301" font-family="Helvetica,sans-Serif" font-size="10.00">WorkspaceVariable &gt;</text>
</g>
<!-- Node9&#45;&gt;Node6 -->
<g id="edge8" class="edge"><title>Node9&#45;&gt;Node6</title>
<path fill="none" stroke="#9a32cd" stroke-dasharray="5,2" d="M257.71,-255.522C338.457,-255.707 451.85,-255.966 525.374,-256.133"/>
<polygon fill="#9a32cd" stroke="#9a32cd" points="257.543,-252.022 247.535,-255.499 257.527,-259.022 257.543,-252.022"/>
<text text-anchor="middle" x="411" y="-259.301" font-family="Helvetica,sans-Serif" font-size="10.00"> myVariablesList</text>
</g>
<!-- Node10 -->
<g id="node10" class="node"><title>Node10</title>
<polygon fill="white" stroke="#bfbfbf" points="91,-201.801 91,-220.801 229,-220.801 229,-201.801 91,-201.801"/>
<text text-anchor="middle" x="160" y="-208.801" font-family="Helvetica,sans-Serif" font-size="10.00">ObservableList&lt; String &gt;</text>
</g>
<!-- Node10&#45;&gt;Node6 -->
<g id="edge9" class="edge"><title>Node10&#45;&gt;Node6</title>
<path fill="none" stroke="#9a32cd" stroke-dasharray="5,2" d="M239.33,-212.33C304.963,-214.047 400.98,-218.555 484,-230.301 502.747,-232.954 522.961,-237.084 541.134,-241.278"/>
<polygon fill="#9a32cd" stroke="#9a32cd" points="239.147,-208.825 229.064,-212.078 238.975,-215.823 239.147,-208.825"/>
<text text-anchor="middle" x="411" y="-244.301" font-family="Helvetica,sans-Serif" font-size="10.00"> myPreviousCommandsList</text>
<text text-anchor="middle" x="411" y="-233.301" font-family="Helvetica,sans-Serif" font-size="10.00">mySavedCommandsList</text>
</g>
<!-- Node11 -->
<g id="node11" class="node"><title>Node11</title>
<polygon fill="white" stroke="#bfbfbf" points="23.5,-152.301 23.5,-182.301 296.5,-182.301 296.5,-152.301 23.5,-152.301"/>
<text text-anchor="start" x="31.5" y="-170.301" font-family="Helvetica,sans-Serif" font-size="10.00">ObservableList&lt; gui.factories.userdefinedcommands.</text>
<text text-anchor="middle" x="160" y="-159.301" font-family="Helvetica,sans-Serif" font-size="10.00">DisplayedUserCommand &gt;</text>
</g>
<!-- Node11&#45;&gt;Node6 -->
<g id="edge10" class="edge"><title>Node11&#45;&gt;Node6</title>
<path fill="none" stroke="#9a32cd" stroke-dasharray="5,2" d="M306.806,-156.284C365.746,-158.365 431.988,-169.575 484,-202.301 496.84,-210.38 489.776,-222.318 502,-231.301 509.007,-236.451 516.977,-240.542 525.266,-243.793"/>
<polygon fill="#9a32cd" stroke="#9a32cd" points="306.745,-152.782 296.655,-156.013 306.557,-159.779 306.745,-152.782"/>
<text text-anchor="middle" x="411" y="-205.301" font-family="Helvetica,sans-Serif" font-size="10.00"> myUserDefinedCommandList</text>
</g>
<!-- Node12 -->
<g id="node12" class="node"><title>Node12</title>
<polygon fill="white" stroke="#bfbfbf" points="502.5,-192.301 502.5,-222.301 697.5,-222.301 697.5,-192.301 502.5,-192.301"/>
<text text-anchor="start" x="510.5" y="-210.301" font-family="Helvetica,sans-Serif" font-size="10.00">Map&lt; String, gui.componentdrawers.</text>
<text text-anchor="middle" x="600" y="-199.301" font-family="Helvetica,sans-Serif" font-size="10.00">ComponentDrawer &gt;</text>
</g>
<!-- Node12&#45;&gt;Node4 -->
<g id="edge11" class="edge"><title>Node12&#45;&gt;Node4</title>
<path fill="none" stroke="#9a32cd" stroke-dasharray="5,2" d="M707.948,-205.006C746.46,-204.909 790.217,-205.639 830,-208.301 838.559,-208.874 847.506,-209.704 856.377,-210.672"/>
<polygon fill="#9a32cd" stroke="#9a32cd" points="707.74,-201.507 697.755,-205.051 707.771,-208.507 707.74,-201.507"/>
<text text-anchor="middle" x="773" y="-211.301" font-family="Helvetica,sans-Serif" font-size="10.00"> myComponentDrawers</text>
</g>
<!-- Node13 -->
<g id="node13" class="node"><title>Node13</title>
<g id="a_node13"><a xlink:href="../../dd/d4c/classgui_1_1componentdrawers_1_1_turtle_screen_drawer.html" target="_top" xlink:title="gui.componentdrawers.Turtle\lScreenDrawer">
<polygon fill="white" stroke="black" points="1486.5,-103.301 1486.5,-133.301 1641.5,-133.301 1641.5,-103.301 1486.5,-103.301"/>
<text text-anchor="start" x="1494.5" y="-121.301" font-family="Helvetica,sans-Serif" font-size="10.00">gui.componentdrawers.Turtle</text>
<text text-anchor="middle" x="1564" y="-110.301" font-family="Helvetica,sans-Serif" font-size="10.00">ScreenDrawer</text>
</a>
</g>
</g>
<!-- Node13&#45;&gt;Node4 -->
<g id="edge12" class="edge"><title>Node13&#45;&gt;Node4</title>
<path fill="none" stroke="#9a32cd" stroke-dasharray="5,2" d="M1539.28,-140.03C1520.72,-155.755 1493.52,-176.133 1466,-187.301 1311.7,-249.911 1111.68,-241.512 1005.61,-230.848"/>
<polygon fill="#9a32cd" stroke="#9a32cd" points="1541.66,-142.595 1546.92,-133.399 1537.07,-137.307 1541.66,-142.595"/>
<text text-anchor="middle" x="1243" y="-241.301" font-family="Helvetica,sans-Serif" font-size="10.00"> myTurtleScreenDrawer</text>
</g>
<!-- Node14 -->
<g id="node14" class="node"><title>Node14</title>
<g id="a_node14"><a xlink:href="../../d0/dda/classgui_1_1componentdrawers_1_1_component_drawer.html" target="_top" xlink:title="gui.componentdrawers.Component\lDrawer">
<polygon fill="white" stroke="black" points="1150.5,-31.3015 1150.5,-61.3015 1335.5,-61.3015 1335.5,-31.3015 1150.5,-31.3015"/>
<text text-anchor="start" x="1158.5" y="-49.3015" font-family="Helvetica,sans-Serif" font-size="10.00">gui.componentdrawers.Component</text>
<text text-anchor="middle" x="1243" y="-38.3015" font-family="Helvetica,sans-Serif" font-size="10.00">Drawer</text>
</a>
</g>
</g>
<!-- Node14&#45;&gt;Node13 -->
<g id="edge13" class="edge"><title>Node14&#45;&gt;Node13</title>
<path fill="none" stroke="midnightblue" d="M1326,-63.4247C1367.94,-72.3375 1419.77,-83.5865 1466,-94.3015 1478.17,-97.1216 1491.16,-100.254 1503.56,-103.3"/>
<polygon fill="midnightblue" stroke="midnightblue" points="1326.61,-59.9783 1316.11,-61.3277 1325.16,-66.826 1326.61,-59.9783"/>
</g>
<!-- Node15 -->
<g id="node15" class="node"><title>Node15</title>
<polygon fill="white" stroke="#bfbfbf" points="911,-36.8015 911,-55.8015 951,-55.8015 951,-36.8015 911,-36.8015"/>
<text text-anchor="middle" x="931" y="-43.8015" font-family="Helvetica,sans-Serif" font-size="10.00">Pane</text>
</g>
<!-- Node15&#45;&gt;Node13 -->
<g id="edge17" class="edge"><title>Node15&#45;&gt;Node13</title>
<path fill="none" stroke="#9a32cd" stroke-dasharray="5,2" d="M960.975,-38.0078C1027.79,-20.119 1197.54,18.2514 1336,-10.3015 1416.57,-26.9172 1501.56,-77.619 1540.78,-103.201"/>
<polygon fill="#9a32cd" stroke="#9a32cd" points="959.88,-34.6784 951.156,-40.6896 961.725,-41.4311 959.88,-34.6784"/>
<text text-anchor="middle" x="1243" y="-13.3015" font-family="Helvetica,sans-Serif" font-size="10.00"> myGrid</text>
</g>
<!-- Node15&#45;&gt;Node14 -->
<g id="edge14" class="edge"><title>Node15&#45;&gt;Node14</title>
<path fill="none" stroke="midnightblue" d="M961.445,-46.3015C1004.41,-46.3015 1086.15,-46.3015 1150.36,-46.3015"/>
<polygon fill="midnightblue" stroke="midnightblue" points="961.392,-42.8016 951.392,-46.3015 961.392,-49.8016 961.392,-42.8016"/>
</g>
<!-- Node16 -->
<g id="node16" class="node"><title>Node16</title>
<g id="a_node16"><a xlink:href="../../dd/d6a/classgui_1_1nonbuttonfeatures_1_1_turtle_screen_feature.html" target="_top" xlink:title="gui.nonbuttonfeatures.Turtle\lScreenFeature">
<polygon fill="white" stroke="black" points="1167,-80.3015 1167,-110.301 1319,-110.301 1319,-80.3015 1167,-80.3015"/>
<text text-anchor="start" x="1175" y="-98.3015" font-family="Helvetica,sans-Serif" font-size="10.00">gui.nonbuttonfeatures.Turtle</text>
<text text-anchor="middle" x="1243" y="-87.3015" font-family="Helvetica,sans-Serif" font-size="10.00">ScreenFeature</text>
</a>
</g>
</g>
<!-- Node15&#45;&gt;Node16 -->
<g id="edge16" class="edge"><title>Node15&#45;&gt;Node16</title>
<path fill="none" stroke="midnightblue" d="M961.449,-50.9564C1008.21,-58.3479 1100.9,-72.9992 1166.94,-83.4373"/>
<polygon fill="midnightblue" stroke="midnightblue" points="961.816,-47.4709 951.392,-49.3667 960.723,-54.3851 961.816,-47.4709"/>
</g>
<!-- Node16&#45;&gt;Node13 -->
<g id="edge15" class="edge"><title>Node16&#45;&gt;Node13</title>
<path fill="none" stroke="#9a32cd" stroke-dasharray="5,2" d="M1329.18,-96.7058C1370.55,-97.9101 1420.93,-100.147 1466,-104.301 1472.61,-104.911 1479.45,-105.659 1486.31,-106.49"/>
<polygon fill="#9a32cd" stroke="#9a32cd" points="1329.23,-93.206 1319.14,-96.4285 1329.04,-100.203 1329.23,-93.206"/>
<text text-anchor="middle" x="1410" y="-107.301" font-family="Helvetica,sans-Serif" font-size="10.00"> myTurtleScreen</text>
</g>
<!-- Node17&#45;&gt;Node4 -->
<g id="edge23" class="edge"><title>Node17&#45;&gt;Node4</title>
<path fill="none" stroke="#9a32cd" stroke-dasharray="5,2" d="M1164.13,-162.459C1159.24,-164.512 1154.49,-166.786 1150,-169.301 1140.4,-174.684 1141.84,-181.367 1132,-186.301 1110.14,-197.268 1053.23,-206.629 1005.68,-212.903"/>
<polygon fill="#9a32cd" stroke="#9a32cd" points="1165.59,-165.645 1173.66,-158.777 1163.07,-159.115 1165.59,-165.645"/>
<text text-anchor="middle" x="1082" y="-212.301" font-family="Helvetica,sans-Serif" font-size="10.00"> myTurtleNodes</text>
</g>
<!-- Node17&#45;&gt;Node13 -->
<g id="edge18" class="edge"><title>Node17&#45;&gt;Node13</title>
<path fill="none" stroke="#9a32cd" stroke-dasharray="5,2" d="M1322.16,-137.931C1372.15,-133.857 1436.7,-128.595 1486.39,-124.546"/>
<polygon fill="#9a32cd" stroke="#9a32cd" points="1321.72,-134.455 1312.04,-138.756 1322.29,-141.432 1321.72,-134.455"/>
<text text-anchor="middle" x="1410" y="-138.301" font-family="Helvetica,sans-Serif" font-size="10.00"> myTurtleNodes</text>
</g>
<!-- Node18 -->
<g id="node18" class="node"><title>Node18</title>
<polygon fill="white" stroke="#bfbfbf" points="848,-125.301 848,-155.301 1014,-155.301 1014,-125.301 848,-125.301"/>
<text text-anchor="start" x="856" y="-143.301" font-family="Helvetica,sans-Serif" font-size="10.00">List&lt; gui.factories.turtlefactory.</text>
<text text-anchor="middle" x="931" y="-132.301" font-family="Helvetica,sans-Serif" font-size="10.00">TurtleNode &gt;</text>
</g>
<!-- Node18&#45;&gt;Node17 -->
<g id="edge20" class="edge"><title>Node18&#45;&gt;Node17</title>
<path fill="none" stroke="#9a32cd" stroke-dasharray="5,2" d="M1024.56,-140.335C1058.37,-140.46 1096.92,-140.735 1132,-141.301 1145.56,-141.52 1160.06,-141.849 1173.94,-142.209"/>
<polygon fill="#9a32cd" stroke="#9a32cd" points="1024.24,-136.834 1014.23,-140.301 1024.22,-143.834 1024.24,-136.834"/>
<text text-anchor="middle" x="1082" y="-144.301" font-family="Helvetica,sans-Serif" font-size="10.00"> myTurtleNodes</text>
</g>
<!-- Node19 -->
<g id="node19" class="node"><title>Node19</title>
<polygon fill="white" stroke="#bfbfbf" points="1222.5,-178.801 1222.5,-197.801 1263.5,-197.801 1263.5,-178.801 1222.5,-178.801"/>
<text text-anchor="middle" x="1243" y="-185.801" font-family="Helvetica,sans-Serif" font-size="10.00">Color</text>
</g>
<!-- Node19&#45;&gt;Node13 -->
<g id="edge21" class="edge"><title>Node19&#45;&gt;Node13</title>
<path fill="none" stroke="#9a32cd" stroke-dasharray="5,2" d="M1273.52,-184.676C1316.33,-179.096 1397.97,-167.246 1466,-150.301 1484.58,-145.673 1504.75,-139.255 1521.86,-133.38"/>
<polygon fill="#9a32cd" stroke="#9a32cd" points="1272.98,-181.216 1263.5,-185.958 1273.87,-188.159 1272.98,-181.216"/>
<text text-anchor="middle" x="1410" y="-175.301" font-family="Helvetica,sans-Serif" font-size="10.00"> myScreenColor</text>
</g>
<!-- Node20 -->
<g id="node20" class="node"><title>Node20</title>
<g id="a_node20"><a xlink:href="../../d1/d60/classgui_1_1factories_1_1_object_factory.html" target="_top" xlink:title="gui.factories.ObjectFactory">
<polygon fill="white" stroke="black" points="528.5,-153.801 528.5,-172.801 671.5,-172.801 671.5,-153.801 528.5,-153.801"/>
<text text-anchor="middle" x="600" y="-160.801" font-family="Helvetica,sans-Serif" font-size="10.00">gui.factories.ObjectFactory</text>
</a>
</g>
</g>
<!-- Node20&#45;&gt;Node4 -->
<g id="edge22" class="edge"><title>Node20&#45;&gt;Node4</title>
<path fill="none" stroke="#9a32cd" stroke-dasharray="5,2" d="M681.797,-169.188C725.913,-173.312 781.316,-179.977 830,-190.301 849.203,-194.374 870.002,-200.528 887.631,-206.282"/>
<polygon fill="#9a32cd" stroke="#9a32cd" points="681.977,-165.69 671.701,-168.27 681.343,-172.662 681.977,-165.69"/>
<text text-anchor="middle" x="773" y="-193.301" font-family="Helvetica,sans-Serif" font-size="10.00"> myObjectFactories</text>
</g>
<!-- Node21 -->
<g id="node21" class="node"><title>Node21</title>
<g id="a_node21"><a xlink:href="../../da/d55/interface_control_1_1_slogo_graphics.html" target="_top" xlink:title="Control.SlogoGraphics">
<polygon fill="white" stroke="black" points="538.5,-352.801 538.5,-371.801 661.5,-371.801 661.5,-352.801 538.5,-352.801"/>
<text text-anchor="middle" x="600" y="-359.801" font-family="Helvetica,sans-Serif" font-size="10.00">Control.SlogoGraphics</text>
</a>
</g>
</g>
<!-- Node21&#45;&gt;Node2 -->
<g id="edge26" class="edge"><title>Node21&#45;&gt;Node2</title>
<path fill="none" stroke="#9a32cd" stroke-dasharray="5,2" d="M671.749,-363.613C773.595,-365.022 967.386,-365.911 1132,-356.301 1143.78,-355.614 1156.25,-354.621 1168.4,-353.511"/>
<polygon fill="#9a32cd" stroke="#9a32cd" points="671.636,-360.111 661.586,-363.467 671.535,-367.11 671.636,-360.111"/>
<text text-anchor="middle" x="931" y="-368.301" font-family="Helvetica,sans-Serif" font-size="10.00"> myControl</text>
</g>
<!-- Node21&#45;&gt;Node4 -->
<g id="edge24" class="edge"><title>Node21&#45;&gt;Node4</title>
<path fill="none" stroke="#9a32cd" stroke-dasharray="5,2" d="M655.819,-350.388C703.377,-338.878 773.296,-319.091 830,-291.301 860.828,-276.193 892.684,-252.175 911.923,-236.573"/>
<polygon fill="#9a32cd" stroke="#9a32cd" points="654.941,-346.999 646.023,-352.719 656.561,-353.809 654.941,-346.999"/>
<text text-anchor="middle" x="773" y="-336.301" font-family="Helvetica,sans-Serif" font-size="10.00"> myControl</text>
</g>
<!-- Node22 -->
<g id="node22" class="node"><title>Node22</title>
<polygon fill="white" stroke="#bfbfbf" points="564,-291.801 564,-310.801 636,-310.801 636,-291.801 564,-291.801"/>
<text text-anchor="middle" x="600" y="-298.801" font-family="Helvetica,sans-Serif" font-size="10.00">BorderPane</text>
</g>
<!-- Node22&#45;&gt;Node1 -->
<g id="edge27" class="edge"><title>Node22&#45;&gt;Node1</title>
<path fill="none" stroke="#9a32cd" stroke-dasharray="5,2" d="M646.439,-302.057C798.421,-304.585 1290.32,-312.766 1483.79,-315.984"/>
<polygon fill="#9a32cd" stroke="#9a32cd" points="646.149,-298.552 636.092,-301.885 646.033,-305.551 646.149,-298.552"/>
<text text-anchor="middle" x="1082" y="-313.301" font-family="Helvetica,sans-Serif" font-size="10.00"> myPane</text>
</g>
<!-- Node22&#45;&gt;Node4 -->
<g id="edge25" class="edge"><title>Node22&#45;&gt;Node4</title>
<path fill="none" stroke="#9a32cd" stroke-dasharray="5,2" d="M645.908,-291.633C662.306,-288.088 680.996,-284.031 698,-280.301 706.005,-278.546 707.983,-278.001 716,-276.301 766.564,-265.584 779.976,-266.309 830,-253.301 848.7,-248.439 869.059,-242.117 886.497,-236.378"/>
<polygon fill="#9a32cd" stroke="#9a32cd" points="645.066,-288.234 636.03,-293.766 646.544,-295.076 645.066,-288.234"/>
<text text-anchor="middle" x="773" y="-279.301" font-family="Helvetica,sans-Serif" font-size="10.00"> myPane</text>
</g>
</g>
</svg>
        <g id="navigator" transform="translate(0 0)" fill="#404254">
                <rect fill="#f2f5e9" fill-opacity="0.5" stroke="#606060" stroke-width=".5" x="0" y="0" width="60" height="60"/>
                <use id="zoomplus" xlink:href="#zoomPlus" x="17" y="9" onmousedown="handleZoom(evt,'in')"/>
                <use id="zoomminus" xlink:href="#zoomMin" x="42" y="9" onmousedown="handleZoom(evt,'out')"/>
                <use id="reset" xlink:href="#resetDef" x="30" y="36" onmousedown="handleReset()"/>
                <g id="arrowUp" xlink:href="#dirArrow" transform="translate(30 24)" onmousedown="handlePan(0,-1)">
                  <use xlink:href="#rim" fill="#404040">
                        <set attributeName="fill" to="#808080" begin="arrowUp.mouseover" end="arrowUp.mouseout"/>
                  </use>
                  <path fill="none" stroke="white" stroke-width="1.5" d="M0,-3.0v7 M-2.5,-0.5L0,-3.0L2.5,-0.5"/>
                </g>
                <g id="arrowRight" xlink:href="#dirArrow" transform="rotate(90) translate(36 -43)" onmousedown="handlePan(1,0)">
                  <use xlink:href="#rim" fill="#404040">
                        <set attributeName="fill" to="#808080" begin="arrowRight.mouseover" end="arrowRight.mouseout"/>
                  </use>
                  <path fill="none" stroke="white" stroke-width="1.5" d="M0,-3.0v7 M-2.5,-0.5L0,-3.0L2.5,-0.5"/>
                </g>
                <g id="arrowDown" xlink:href="#dirArrow" transform="rotate(180) translate(-30 -48)" onmousedown="handlePan(0,1)">
                  <use xlink:href="#rim" fill="#404040">
                        <set attributeName="fill" to="#808080" begin="arrowDown.mouseover" end="arrowDown.mouseout"/>
                  </use>
                  <path fill="none" stroke="white" stroke-width="1.5" d="M0,-3.0v7 M-2.5,-0.5L0,-3.0L2.5,-0.5"/>
                </g>
                <g id="arrowLeft" xlink:href="#dirArrow" transform="rotate(270) translate(-36 17)" onmousedown="handlePan(-1,0)">
                  <use xlink:href="#rim" fill="#404040">
                        <set attributeName="fill" to="#808080" begin="arrowLeft.mouseover" end="arrowLeft.mouseout"/>
                  </use>
                  <path fill="none" stroke="white" stroke-width="1.5" d="M0,-3.0v7 M-2.5,-0.5L0,-3.0L2.5,-0.5"/>
                </g>
        </g>
        <svg viewBox="0 0 15 15" width="100%" height="30px" preserveAspectRatio="xMaxYMin meet">
         <g id="arrow_out" transform="scale(0.3 0.3)">
          <a xlink:href="classgui_1_1mainclasses_1_1_g_u_i_controller__coll__graph_org.svg" target="_base">
           <rect id="button" ry="5" rx="5" y="6" x="6" height="38" width="38"
                fill="#f2f5e9" fill-opacity="0.5" stroke="#606060" stroke-width="1.0"/>
           <path id="arrow"
             d="M 11.500037,31.436501 C 11.940474,20.09759 22.043105,11.32322 32.158766,21.979434 L 37.068811,17.246167 C 37.068811,17.246167 37.088388,32 37.088388,32 L 22.160133,31.978069 C 22.160133,31.978069 26.997745,27.140456 26.997745,27.140456 C 18.528582,18.264221 13.291696,25.230495 11.500037,31.436501 z"
             style="fill:#404040;"/>
          </a>
         </g>
        </svg>
</svg>
