<?xml version="1.0" encoding="UTF-8" standalone="no"?>
<!DOCTYPE svg PUBLIC "-//W3C//DTD SVG 1.1//EN"
 "http://www.w3.org/Graphics/SVG/1.1/DTD/svg11.dtd">
<!-- Generated by graphviz version 2.36.0 (20140111.2315)
 -->
<!-- Title: commandParsing.drawableObectGenerationInterfaces.UserDefinedVariableGenerator Pages: 1 -->
<svg width="610pt" height="185pt"
 viewBox="0.00 0.00 610.00 185.00" xmlns="http://www.w3.org/2000/svg" xmlns:xlink="http://www.w3.org/1999/xlink">
<g id="graph0" class="graph" transform="scale(1 1) rotate(0) translate(4 181)">
<title>commandParsing.drawableObectGenerationInterfaces.UserDefinedVariableGenerator</title>
<polygon fill="white" stroke="none" points="-4,4 -4,-181 606,-181 606,4 -4,4"/>
<!-- Node1 -->
<g id="node1" class="node"><title>Node1</title>
<polygon fill="#bfbfbf" stroke="black" points="0.5,-43.5 0.5,-84.5 179.5,-84.5 179.5,-43.5 0.5,-43.5"/>
<text text-anchor="start" x="8.5" y="-72.5" font-family="Helvetica,sans-Serif" font-size="10.00">commandParsing.drawableObect</text>
<text text-anchor="start" x="8.5" y="-61.5" font-family="Helvetica,sans-Serif" font-size="10.00">GenerationInterfaces.UserDefined</text>
<text text-anchor="middle" x="90" y="-50.5" font-family="Helvetica,sans-Serif" font-size="10.00">VariableGenerator</text>
</g>
<!-- Node2 -->
<g id="node2" class="node"><title>Node2</title>
<g id="a_node2"><a xlink:href="../../d0/dfe/classcommand_parsing_1_1structural_command_parsing_1_1_recurring_command.html" target="_top" xlink:title="commandParsing.structural\lCommandParsing.RecurringCommand">
<polygon fill="white" stroke="black" points="216.5,-98 216.5,-128 415.5,-128 415.5,-98 216.5,-98"/>
<text text-anchor="start" x="224.5" y="-116" font-family="Helvetica,sans-Serif" font-size="10.00">commandParsing.structural</text>
<text text-anchor="middle" x="316" y="-105" font-family="Helvetica,sans-Serif" font-size="10.00">CommandParsing.RecurringCommand</text>
</a>
</g>
</g>
<!-- Node1&#45;&gt;Node2 -->
<g id="edge1" class="edge"><title>Node1&#45;&gt;Node2</title>
<path fill="none" stroke="midnightblue" d="M189.46,-85.5381C208.564,-89.717 228.2,-94.0126 246.103,-97.9288"/>
<polygon fill="midnightblue" stroke="midnightblue" points="190.048,-82.084 179.531,-83.3661 188.552,-88.9223 190.048,-82.084"/>
</g>
<!-- Node6 -->
<g id="node6" class="node"><title>Node6</title>
<g id="a_node6"><a xlink:href="../../d3/d58/classcommand_parsing_1_1user_command_parsing_1_1_make_user_instruction.html" target="_top" xlink:title="commandParsing.userCommand\lParsing.MakeUserInstruction">
<polygon fill="white" stroke="black" points="229,-49 229,-79 403,-79 403,-49 229,-49"/>
<text text-anchor="start" x="237" y="-67" font-family="Helvetica,sans-Serif" font-size="10.00">commandParsing.userCommand</text>
<text text-anchor="middle" x="316" y="-56" font-family="Helvetica,sans-Serif" font-size="10.00">Parsing.MakeUserInstruction</text>
</a>
</g>
</g>
<!-- Node1&#45;&gt;Node6 -->
<g id="edge5" class="edge"><title>Node1&#45;&gt;Node6</title>
<path fill="none" stroke="midnightblue" d="M189.902,-64C202.914,-64 216.166,-64 228.941,-64"/>
<polygon fill="midnightblue" stroke="midnightblue" points="189.531,-60.5001 179.531,-64 189.531,-67.5001 189.531,-60.5001"/>
</g>
<!-- Node7 -->
<g id="node7" class="node"><title>Node7</title>
<g id="a_node7"><a xlink:href="../../d9/dd9/classcommand_parsing_1_1variable_command_parsing_1_1_make_variable.html" target="_top" xlink:title="commandParsing.variableCommand\lParsing.MakeVariable">
<polygon fill="white" stroke="black" points="220.5,-0 220.5,-30 411.5,-30 411.5,-0 220.5,-0"/>
<text text-anchor="start" x="228.5" y="-18" font-family="Helvetica,sans-Serif" font-size="10.00">commandParsing.variableCommand</text>
<text text-anchor="middle" x="316" y="-7" font-family="Helvetica,sans-Serif" font-size="10.00">Parsing.MakeVariable</text>
</a>
</g>
</g>
<!-- Node1&#45;&gt;Node7 -->
<g id="edge6" class="edge"><title>Node1&#45;&gt;Node7</title>
<path fill="none" stroke="midnightblue" d="M189.46,-42.4619C208.564,-38.283 228.2,-33.9874 246.103,-30.0712"/>
<polygon fill="midnightblue" stroke="midnightblue" points="188.552,-39.0777 179.531,-44.6339 190.048,-45.916 188.552,-39.0777"/>
</g>
<!-- Node3 -->
<g id="node3" class="node"><title>Node3</title>
<g id="a_node3"><a xlink:href="../../d7/d10/classcommand_parsing_1_1structural_command_parsing_1_1_do_times.html" target="_top" xlink:title="commandParsing.structural\lCommandParsing.DoTimes">
<polygon fill="white" stroke="black" points="452.5,-147 452.5,-177 601.5,-177 601.5,-147 452.5,-147"/>
<text text-anchor="start" x="460.5" y="-165" font-family="Helvetica,sans-Serif" font-size="10.00">commandParsing.structural</text>
<text text-anchor="middle" x="527" y="-154" font-family="Helvetica,sans-Serif" font-size="10.00">CommandParsing.DoTimes</text>
</a>
</g>
</g>
<!-- Node2&#45;&gt;Node3 -->
<g id="edge2" class="edge"><title>Node2&#45;&gt;Node3</title>
<path fill="none" stroke="midnightblue" d="M390.922,-130.331C414.126,-135.771 439.536,-141.729 461.994,-146.994"/>
<polygon fill="midnightblue" stroke="midnightblue" points="391.662,-126.91 381.127,-128.035 390.064,-133.725 391.662,-126.91"/>
</g>
<!-- Node4 -->
<g id="node4" class="node"><title>Node4</title>
<g id="a_node4"><a xlink:href="../../d3/d78/classcommand_parsing_1_1structural_command_parsing_1_1_for.html" target="_top" xlink:title="commandParsing.structural\lCommandParsing.For">
<polygon fill="white" stroke="black" points="452.5,-98 452.5,-128 601.5,-128 601.5,-98 452.5,-98"/>
<text text-anchor="start" x="460.5" y="-116" font-family="Helvetica,sans-Serif" font-size="10.00">commandParsing.structural</text>
<text text-anchor="middle" x="527" y="-105" font-family="Helvetica,sans-Serif" font-size="10.00">CommandParsing.For</text>
</a>
</g>
</g>
<!-- Node2&#45;&gt;Node4 -->
<g id="edge3" class="edge"><title>Node2&#45;&gt;Node4</title>
<path fill="none" stroke="midnightblue" d="M425.84,-113C434.83,-113 443.777,-113 452.415,-113"/>
<polygon fill="midnightblue" stroke="midnightblue" points="425.686,-109.5 415.686,-113 425.686,-116.5 425.686,-109.5"/>
</g>
<!-- Node5 -->
<g id="node5" class="node"><title>Node5</title>
<g id="a_node5"><a xlink:href="../../d8/d8f/classcommand_parsing_1_1structural_command_parsing_1_1_repeat.html" target="_top" xlink:title="commandParsing.structural\lCommandParsing.Repeat">
<polygon fill="white" stroke="black" points="452.5,-49 452.5,-79 601.5,-79 601.5,-49 452.5,-49"/>
<text text-anchor="start" x="460.5" y="-67" font-family="Helvetica,sans-Serif" font-size="10.00">commandParsing.structural</text>
<text text-anchor="middle" x="527" y="-56" font-family="Helvetica,sans-Serif" font-size="10.00">CommandParsing.Repeat</text>
</a>
</g>
</g>
<!-- Node2&#45;&gt;Node5 -->
<g id="edge4" class="edge"><title>Node2&#45;&gt;Node5</title>
<path fill="none" stroke="midnightblue" d="M390.922,-95.6691C414.126,-90.2288 439.536,-84.2715 461.994,-79.0062"/>
<polygon fill="midnightblue" stroke="midnightblue" points="390.064,-92.2751 381.127,-97.9654 391.662,-99.0903 390.064,-92.2751"/>
</g>
</g>
</svg>
