<?xml version="1.0" encoding="UTF-8" standalone="no"?>
<!DOCTYPE svg PUBLIC "-//W3C//DTD SVG 1.1//EN"
 "http://www.w3.org/Graphics/SVG/1.1/DTD/svg11.dtd">
<!-- Generated by graphviz version 2.36.0 (20140111.2315)
 -->
<!-- Title: commandParsing.structuralCommandParsing.IfElse.parse Pages: 1 -->
<svg width="924pt" height="301pt"
 viewBox="0.00 0.00 924.00 300.80" xmlns="http://www.w3.org/2000/svg" xmlns:xlink="http://www.w3.org/1999/xlink">
<g id="graph0" class="graph" transform="scale(1 1) rotate(0) translate(4 296.796)">
<title>commandParsing.structuralCommandParsing.IfElse.parse</title>
<polygon fill="white" stroke="none" points="-4,4 -4,-296.796 920,-296.796 920,4 -4,4"/>
<!-- Node1 -->
<g id="node1" class="node"><title>Node1</title>
<polygon fill="#bfbfbf" stroke="black" points="0.5,-149.796 0.5,-179.796 159.5,-179.796 159.5,-149.796 0.5,-149.796"/>
<text text-anchor="start" x="8.5" y="-167.796" font-family="Helvetica,sans-Serif" font-size="10.00">commandParsing.structural</text>
<text text-anchor="middle" x="80" y="-156.796" font-family="Helvetica,sans-Serif" font-size="10.00">CommandParsing.IfElse.parse</text>
</g>
<!-- Node2 -->
<g id="node2" class="node"><title>Node2</title>
<g id="a_node2"><a xlink:href="../../d7/d17/classcommand_parsing_1_1_command_parser.html#a663a439263fd1c59baab79f31742f1d7" target="_top" xlink:title="commandParsing.CommandParser.accumulate\lComponents">
<polygon fill="white" stroke="black" points="196,-203.796 196,-233.796 438,-233.796 438,-203.796 196,-203.796"/>
<text text-anchor="start" x="204" y="-221.796" font-family="Helvetica,sans-Serif" font-size="10.00">commandParsing.CommandParser.accumulate</text>
<text text-anchor="middle" x="317" y="-210.796" font-family="Helvetica,sans-Serif" font-size="10.00">Components</text>
</a>
</g>
</g>
<!-- Node1&#45;&gt;Node2 -->
<g id="edge1" class="edge"><title>Node1&#45;&gt;Node2</title>
<path fill="none" stroke="midnightblue" d="M138.506,-179.797C156.841,-184.446 177.239,-189.478 196,-193.796 207.422,-196.425 219.484,-199.08 231.382,-201.628"/>
<polygon fill="midnightblue" stroke="midnightblue" points="230.811,-205.085 241.32,-203.74 232.266,-198.238 230.811,-205.085"/>
</g>
<!-- Node7 -->
<g id="node7" class="node"><title>Node7</title>
<g id="a_node7"><a xlink:href="../../dd/d10/classcommand_parsing_1_1structural_command_parsing_1_1_structural_command_on_boolean_switch.html#ae7f31654d460fec0f2dd0c0a515ffd82" target="_top" xlink:title="commandParsing.structural\lCommandParsing.StructuralCommand\lOnBooleanSwitch.evaluateBooleanExpression">
<polygon fill="white" stroke="black" points="199.5,-144.296 199.5,-185.296 434.5,-185.296 434.5,-144.296 199.5,-144.296"/>
<text text-anchor="start" x="207.5" y="-173.296" font-family="Helvetica,sans-Serif" font-size="10.00">commandParsing.structural</text>
<text text-anchor="start" x="207.5" y="-162.296" font-family="Helvetica,sans-Serif" font-size="10.00">CommandParsing.StructuralCommand</text>
<text text-anchor="middle" x="317" y="-151.296" font-family="Helvetica,sans-Serif" font-size="10.00">OnBooleanSwitch.evaluateBooleanExpression</text>
</a>
</g>
</g>
<!-- Node1&#45;&gt;Node7 -->
<g id="edge6" class="edge"><title>Node1&#45;&gt;Node7</title>
<path fill="none" stroke="midnightblue" d="M159.578,-164.796C169.185,-164.796 179.184,-164.796 189.273,-164.796"/>
<polygon fill="midnightblue" stroke="midnightblue" points="189.382,-168.296 199.382,-164.796 189.382,-161.296 189.382,-168.296"/>
</g>
<!-- Node8 -->
<g id="node8" class="node"><title>Node8</title>
<g id="a_node8"><a xlink:href="../../de/dcc/classcommand_parsing_1_1structural_command_parsing_1_1_structural_command.html#aaba2d63efc66bac087cb3b36e2a65a41" target="_top" xlink:title="commandParsing.structural\lCommandParsing.StructuralCommand.extract\lCommandsBetweenBraces">
<polygon fill="white" stroke="black" points="197.5,-21.2962 197.5,-62.2962 436.5,-62.2962 436.5,-21.2962 197.5,-21.2962"/>
<text text-anchor="start" x="205.5" y="-50.2962" font-family="Helvetica,sans-Serif" font-size="10.00">commandParsing.structural</text>
<text text-anchor="start" x="205.5" y="-39.2962" font-family="Helvetica,sans-Serif" font-size="10.00">CommandParsing.StructuralCommand.extract</text>
<text text-anchor="middle" x="317" y="-28.2962" font-family="Helvetica,sans-Serif" font-size="10.00">CommandsBetweenBraces</text>
</a>
</g>
</g>
<!-- Node1&#45;&gt;Node8 -->
<g id="edge7" class="edge"><title>Node1&#45;&gt;Node8</title>
<path fill="none" stroke="midnightblue" d="M96.3503,-149.457C117.181,-129.473 156.368,-94.7392 196,-74.7962 202.502,-71.5243 209.371,-68.5422 216.397,-65.8301"/>
<polygon fill="midnightblue" stroke="midnightblue" points="217.867,-69.0192 226.057,-62.2973 215.463,-62.4451 217.867,-69.0192"/>
</g>
<!-- Node12 -->
<g id="node12" class="node"><title>Node12</title>
<g id="a_node12"><a xlink:href="../../de/dcc/classcommand_parsing_1_1structural_command_parsing_1_1_structural_command.html#aca1700d80302bd0af8325ba9e2e13d21" target="_top" xlink:title="commandParsing.structural\lCommandParsing.StructuralCommand.ignore\lUntilClosingBrace">
<polygon fill="white" stroke="black" points="199.5,-84.2962 199.5,-125.296 434.5,-125.296 434.5,-84.2962 199.5,-84.2962"/>
<text text-anchor="start" x="207.5" y="-113.296" font-family="Helvetica,sans-Serif" font-size="10.00">commandParsing.structural</text>
<text text-anchor="start" x="207.5" y="-102.296" font-family="Helvetica,sans-Serif" font-size="10.00">CommandParsing.StructuralCommand.ignore</text>
<text text-anchor="middle" x="317" y="-91.2962" font-family="Helvetica,sans-Serif" font-size="10.00">UntilClosingBrace</text>
</a>
</g>
</g>
<!-- Node1&#45;&gt;Node12 -->
<g id="edge12" class="edge"><title>Node1&#45;&gt;Node12</title>
<path fill="none" stroke="midnightblue" d="M138.295,-149.727C156.711,-144.916 177.208,-139.596 196,-134.796 204.957,-132.508 214.294,-130.142 223.631,-127.788"/>
<polygon fill="midnightblue" stroke="midnightblue" points="224.502,-131.178 233.345,-125.342 222.793,-124.389 224.502,-131.178"/>
</g>
<!-- Node14 -->
<g id="node14" class="node"><title>Node14</title>
<g id="a_node14"><a xlink:href="../../de/dcc/classcommand_parsing_1_1structural_command_parsing_1_1_structural_command.html#a4758d97862a38c414f90ca079a0d8d04" target="_top" xlink:title="commandParsing.structural\lCommandParsing.StructuralCommand.parse\lCommandsBetweenBraces">
<polygon fill="white" stroke="black" points="201,-252.296 201,-293.296 433,-293.296 433,-252.296 201,-252.296"/>
<text text-anchor="start" x="209" y="-281.296" font-family="Helvetica,sans-Serif" font-size="10.00">commandParsing.structural</text>
<text text-anchor="start" x="209" y="-270.296" font-family="Helvetica,sans-Serif" font-size="10.00">CommandParsing.StructuralCommand.parse</text>
<text text-anchor="middle" x="317" y="-259.296" font-family="Helvetica,sans-Serif" font-size="10.00">CommandsBetweenBraces</text>
</a>
</g>
</g>
<!-- Node1&#45;&gt;Node14 -->
<g id="edge17" class="edge"><title>Node1&#45;&gt;Node14</title>
<path fill="none" stroke="midnightblue" d="M98.9222,-179.932C120.585,-197.492 158.781,-226.154 196,-242.796 200.901,-244.988 205.989,-247.037 211.181,-248.952"/>
<polygon fill="midnightblue" stroke="midnightblue" points="210.026,-252.256 220.621,-252.253 212.337,-245.648 210.026,-252.256"/>
</g>
<!-- Node3 -->
<g id="node3" class="node"><title>Node3</title>
<g id="a_node3"><a xlink:href="../../d7/d17/classcommand_parsing_1_1_command_parser.html#a9bf6e09b0ad06b6f217ad0ad040f8e93" target="_top" xlink:title="commandParsing.CommandParser.create\lParser">
<polygon fill="white" stroke="black" points="491,-215.796 491,-245.796 707,-245.796 707,-215.796 491,-215.796"/>
<text text-anchor="start" x="499" y="-233.796" font-family="Helvetica,sans-Serif" font-size="10.00">commandParsing.CommandParser.create</text>
<text text-anchor="middle" x="599" y="-222.796" font-family="Helvetica,sans-Serif" font-size="10.00">Parser</text>
</a>
</g>
</g>
<!-- Node2&#45;&gt;Node3 -->
<g id="edge2" class="edge"><title>Node2&#45;&gt;Node3</title>
<path fill="none" stroke="midnightblue" d="M438.37,-223.955C452.444,-224.558 466.788,-225.173 480.818,-225.774"/>
<polygon fill="midnightblue" stroke="midnightblue" points="480.83,-229.278 490.97,-226.209 481.13,-222.284 480.83,-229.278"/>
</g>
<!-- Node4 -->
<g id="node4" class="node"><title>Node4</title>
<g id="a_node4"><a xlink:href="../../d7/d17/classcommand_parsing_1_1_command_parser.html#ac5bad35b74ad1aac039e96f2e3a99e82" target="_top" xlink:title="commandParsing.CommandParser.is\lStringParsableAsCommand">
<polygon fill="white" stroke="black" points="502.5,-166.796 502.5,-196.796 695.5,-196.796 695.5,-166.796 502.5,-166.796"/>
<text text-anchor="start" x="510.5" y="-184.796" font-family="Helvetica,sans-Serif" font-size="10.00">commandParsing.CommandParser.is</text>
<text text-anchor="middle" x="599" y="-173.796" font-family="Helvetica,sans-Serif" font-size="10.00">StringParsableAsCommand</text>
</a>
</g>
</g>
<!-- Node2&#45;&gt;Node4 -->
<g id="edge3" class="edge"><title>Node2&#45;&gt;Node4</title>
<path fill="none" stroke="midnightblue" d="M431.887,-203.747C451.742,-201.123 472.324,-198.403 491.958,-195.809"/>
<polygon fill="midnightblue" stroke="midnightblue" points="492.674,-199.245 502.13,-194.465 491.757,-192.305 492.674,-199.245"/>
</g>
<!-- Node6 -->
<g id="node6" class="node"><title>Node6</title>
<g id="a_node6"><a xlink:href="../../d7/d17/classcommand_parsing_1_1_command_parser.html#ae5a2f506ca01f7fa355a64e4831fbae3" target="_top" xlink:title="commandParsing.CommandParser.parse">
<polygon fill="white" stroke="black" points="493,-265.296 493,-284.296 705,-284.296 705,-265.296 493,-265.296"/>
<text text-anchor="middle" x="599" y="-272.296" font-family="Helvetica,sans-Serif" font-size="10.00">commandParsing.CommandParser.parse</text>
</a>
</g>
</g>
<!-- Node2&#45;&gt;Node6 -->
<g id="edge5" class="edge"><title>Node2&#45;&gt;Node6</title>
<path fill="none" stroke="midnightblue" d="M400.293,-233.844C412.98,-236.57 425.885,-239.579 438,-242.796 454.3,-247.125 457.621,-250.774 474,-254.796 487.547,-258.123 502.067,-261.037 516.228,-263.535"/>
<polygon fill="midnightblue" stroke="midnightblue" points="516.01,-267.048 526.456,-265.281 517.188,-260.148 516.01,-267.048"/>
</g>
<!-- Node5 -->
<g id="node5" class="node"><title>Node5</title>
<g id="a_node5"><a xlink:href="../../d3/de0/classtranslator_1_1_translator.html#ad62364674b153e6fb5c67b328700d6e2" target="_top" xlink:title="translator.Translator.matches\lCommandPattern">
<polygon fill="white" stroke="black" points="760,-166.796 760,-196.796 916,-196.796 916,-166.796 760,-166.796"/>
<text text-anchor="start" x="768" y="-184.796" font-family="Helvetica,sans-Serif" font-size="10.00">translator.Translator.matches</text>
<text text-anchor="middle" x="838" y="-173.796" font-family="Helvetica,sans-Serif" font-size="10.00">CommandPattern</text>
</a>
</g>
</g>
<!-- Node4&#45;&gt;Node5 -->
<g id="edge4" class="edge"><title>Node4&#45;&gt;Node5</title>
<path fill="none" stroke="midnightblue" d="M695.714,-181.796C713.541,-181.796 732.083,-181.796 749.643,-181.796"/>
<polygon fill="midnightblue" stroke="midnightblue" points="749.856,-185.296 759.856,-181.796 749.856,-178.296 749.856,-185.296"/>
</g>
<!-- Node9 -->
<g id="node9" class="node"><title>Node9</title>
<g id="a_node9"><a xlink:href="../../de/dcc/classcommand_parsing_1_1structural_command_parsing_1_1_structural_command.html#a3f1054710afe4826d31938f0a74af315" target="_top" xlink:title="commandParsing.structural\lCommandParsing.StructuralCommand.check\lForOpeningBrace">
<polygon fill="white" stroke="black" points="482.5,-19.2962 482.5,-60.2962 715.5,-60.2962 715.5,-19.2962 482.5,-19.2962"/>
<text text-anchor="start" x="490.5" y="-48.2962" font-family="Helvetica,sans-Serif" font-size="10.00">commandParsing.structural</text>
<text text-anchor="start" x="490.5" y="-37.2962" font-family="Helvetica,sans-Serif" font-size="10.00">CommandParsing.StructuralCommand.check</text>
<text text-anchor="middle" x="599" y="-26.2962" font-family="Helvetica,sans-Serif" font-size="10.00">ForOpeningBrace</text>
</a>
</g>
</g>
<!-- Node8&#45;&gt;Node9 -->
<g id="edge8" class="edge"><title>Node8&#45;&gt;Node9</title>
<path fill="none" stroke="midnightblue" d="M436.745,-40.948C448.389,-40.8648 460.233,-40.7802 471.946,-40.6965"/>
<polygon fill="midnightblue" stroke="midnightblue" points="472.222,-44.1948 482.196,-40.6233 472.172,-37.1949 472.222,-44.1948"/>
</g>
<!-- Node10 -->
<g id="node10" class="node"><title>Node10</title>
<g id="a_node10"><a xlink:href="../../d3/de0/classtranslator_1_1_translator.html#a87328fef942490ca02d2ebabaec35c47" target="_top" xlink:title="translator.Translator.matches\lListStartPattern">
<polygon fill="white" stroke="black" points="760,-24.7962 760,-54.7962 916,-54.7962 916,-24.7962 760,-24.7962"/>
<text text-anchor="start" x="768" y="-42.7962" font-family="Helvetica,sans-Serif" font-size="10.00">translator.Translator.matches</text>
<text text-anchor="middle" x="838" y="-31.7962" font-family="Helvetica,sans-Serif" font-size="10.00">ListStartPattern</text>
</a>
</g>
</g>
<!-- Node8&#45;&gt;Node10 -->
<g id="edge10" class="edge"><title>Node8&#45;&gt;Node10</title>
<path fill="none" stroke="midnightblue" d="M402.531,-21.2137C425.568,-16.4945 450.62,-12.1694 474,-9.79616 584.543,1.42477 613.823,4.58011 724,-9.79616 743.02,-12.278 763.396,-17.0154 781.535,-22.0051"/>
<polygon fill="midnightblue" stroke="midnightblue" points="780.783,-25.43 791.359,-24.7903 782.693,-18.6954 780.783,-25.43"/>
</g>
<!-- Node11 -->
<g id="node11" class="node"><title>Node11</title>
<g id="a_node11"><a xlink:href="../../d3/de0/classtranslator_1_1_translator.html#abd79378932d164889d2d90c7783f1493" target="_top" xlink:title="translator.Translator.matches\lListEndPattern">
<polygon fill="white" stroke="black" points="760,-95.7962 760,-125.796 916,-125.796 916,-95.7962 760,-95.7962"/>
<text text-anchor="start" x="768" y="-113.796" font-family="Helvetica,sans-Serif" font-size="10.00">translator.Translator.matches</text>
<text text-anchor="middle" x="838" y="-102.796" font-family="Helvetica,sans-Serif" font-size="10.00">ListEndPattern</text>
</a>
</g>
</g>
<!-- Node8&#45;&gt;Node11 -->
<g id="edge11" class="edge"><title>Node8&#45;&gt;Node11</title>
<path fill="none" stroke="midnightblue" d="M432.049,-62.2964C446.158,-64.6079 460.398,-66.8337 474,-68.7962 567.854,-82.3368 675.858,-94.3833 749.494,-102.065"/>
<polygon fill="midnightblue" stroke="midnightblue" points="749.343,-105.568 759.651,-103.119 750.066,-98.605 749.343,-105.568"/>
</g>
<!-- Node9&#45;&gt;Node10 -->
<g id="edge9" class="edge"><title>Node9&#45;&gt;Node10</title>
<path fill="none" stroke="midnightblue" d="M715.723,-39.7962C727.148,-39.7962 738.608,-39.7962 749.677,-39.7962"/>
<polygon fill="midnightblue" stroke="midnightblue" points="749.72,-43.2963 759.72,-39.7962 749.72,-36.2963 749.72,-43.2963"/>
</g>
<!-- Node12&#45;&gt;Node9 -->
<g id="edge13" class="edge"><title>Node12&#45;&gt;Node9</title>
<path fill="none" stroke="midnightblue" d="M406.594,-84.2298C436.103,-77.3795 469.15,-69.7079 499.371,-62.6922"/>
<polygon fill="midnightblue" stroke="midnightblue" points="500.553,-66.011 509.502,-60.3403 498.97,-59.1923 500.553,-66.011"/>
</g>
<!-- Node13 -->
<g id="node13" class="node"><title>Node13</title>
<g id="a_node13"><a xlink:href="../../de/dcc/classcommand_parsing_1_1structural_command_parsing_1_1_structural_command.html#a277f37ab3033f12c95cf3c79f4c13805" target="_top" xlink:title="commandParsing.structural\lCommandParsing.StructuralCommand.findBrace">
<polygon fill="white" stroke="black" points="474,-117.796 474,-147.796 724,-147.796 724,-117.796 474,-117.796"/>
<text text-anchor="start" x="482" y="-135.796" font-family="Helvetica,sans-Serif" font-size="10.00">commandParsing.structural</text>
<text text-anchor="middle" x="599" y="-124.796" font-family="Helvetica,sans-Serif" font-size="10.00">CommandParsing.StructuralCommand.findBrace</text>
</a>
</g>
</g>
<!-- Node12&#45;&gt;Node13 -->
<g id="edge14" class="edge"><title>Node12&#45;&gt;Node13</title>
<path fill="none" stroke="midnightblue" d="M434.718,-116.468C444.295,-117.426 454.023,-118.398 463.714,-119.368"/>
<polygon fill="midnightblue" stroke="midnightblue" points="463.493,-122.863 473.792,-120.375 464.189,-115.898 463.493,-122.863"/>
</g>
<!-- Node13&#45;&gt;Node10 -->
<g id="edge16" class="edge"><title>Node13&#45;&gt;Node10</title>
<path fill="none" stroke="midnightblue" d="M638.342,-117.751C679.473,-101.61 744.861,-75.952 789.29,-58.5178"/>
<polygon fill="midnightblue" stroke="midnightblue" points="790.683,-61.731 798.714,-54.82 788.126,-55.2148 790.683,-61.731"/>
</g>
<!-- Node13&#45;&gt;Node11 -->
<g id="edge15" class="edge"><title>Node13&#45;&gt;Node11</title>
<path fill="none" stroke="midnightblue" d="M724.053,-121.281C732.732,-120.475 741.371,-119.673 749.783,-118.892"/>
<polygon fill="midnightblue" stroke="midnightblue" points="750.286,-122.361 759.92,-117.951 749.639,-115.391 750.286,-122.361"/>
</g>
<!-- Node14&#45;&gt;Node3 -->
<g id="edge18" class="edge"><title>Node14&#45;&gt;Node3</title>
<path fill="none" stroke="midnightblue" d="M433.099,-255.531C451.171,-252.821 469.815,-250.024 487.773,-247.33"/>
<polygon fill="midnightblue" stroke="midnightblue" points="488.302,-250.79 497.672,-245.845 487.263,-243.868 488.302,-250.79"/>
</g>
<!-- Node14&#45;&gt;Node6 -->
<g id="edge19" class="edge"><title>Node14&#45;&gt;Node6</title>
<path fill="none" stroke="midnightblue" d="M433.099,-273.618C449.462,-273.735 466.294,-273.855 482.662,-273.972"/>
<polygon fill="midnightblue" stroke="midnightblue" points="482.76,-277.473 492.785,-274.045 482.811,-270.473 482.76,-277.473"/>
</g>
</g>
</svg>
