<?xml version="1.0" encoding="UTF-8" standalone="no"?>
<!DOCTYPE svg PUBLIC "-//W3C//DTD SVG 1.1//EN"
 "http://www.w3.org/Graphics/SVG/1.1/DTD/svg11.dtd">
<!-- Generated by graphviz version 2.36.0 (20140111.2315)
 -->
<!-- Title: commandParsing.turtleCommandParsing.turtleAttributeSetters.SetHeading.operateOnComponents Pages: 1 -->
<svg width="886pt" height="312pt"
 viewBox="0.00 0.00 886.00 312.00" xmlns="http://www.w3.org/2000/svg" xmlns:xlink="http://www.w3.org/1999/xlink">
<g id="graph0" class="graph" transform="scale(1 1) rotate(0) translate(4 308)">
<title>commandParsing.turtleCommandParsing.turtleAttributeSetters.SetHeading.operateOnComponents</title>
<polygon fill="white" stroke="none" points="-4,4 -4,-308 882,-308 882,4 -4,4"/>
<!-- Node1 -->
<g id="node1" class="node"><title>Node1</title>
<polygon fill="#bfbfbf" stroke="black" points="0,-104.5 0,-145.5 188,-145.5 188,-104.5 0,-104.5"/>
<text text-anchor="start" x="8" y="-133.5" font-family="Helvetica,sans-Serif" font-size="10.00">commandParsing.turtleCommand</text>
<text text-anchor="start" x="8" y="-122.5" font-family="Helvetica,sans-Serif" font-size="10.00">Parsing.turtleAttributeSetters.</text>
<text text-anchor="middle" x="94" y="-111.5" font-family="Helvetica,sans-Serif" font-size="10.00">SetHeading.operateOnComponents</text>
</g>
<!-- Node2 -->
<g id="node2" class="node"><title>Node2</title>
<g id="a_node2"><a xlink:href="../../df/d64/interfacecommand_parsing_1_1drawable_obect_generation_interfaces_1_1_turtle_generator.html#ad2df4af6c11d2ec038868c5520be6acd" target="_top" xlink:title="commandParsing.drawableObect\lGenerationInterfaces.TurtleGenerator.generate\lDrawableObjectRepresentingTurtle">
<polygon fill="white" stroke="black" points="224,-131.5 224,-172.5 464,-172.5 464,-131.5 224,-131.5"/>
<text text-anchor="start" x="232" y="-160.5" font-family="Helvetica,sans-Serif" font-size="10.00">commandParsing.drawableObect</text>
<text text-anchor="start" x="232" y="-149.5" font-family="Helvetica,sans-Serif" font-size="10.00">GenerationInterfaces.TurtleGenerator.generate</text>
<text text-anchor="middle" x="344" y="-138.5" font-family="Helvetica,sans-Serif" font-size="10.00">DrawableObjectRepresentingTurtle</text>
</a>
</g>
</g>
<!-- Node1&#45;&gt;Node2 -->
<g id="edge1" class="edge"><title>Node1&#45;&gt;Node2</title>
<path fill="none" stroke="midnightblue" d="M188.052,-135.131C196.449,-136.045 205.048,-136.981 213.681,-137.921"/>
<polygon fill="midnightblue" stroke="midnightblue" points="213.502,-141.422 223.822,-139.025 214.26,-134.463 213.502,-141.422"/>
</g>
<!-- Node11 -->
<g id="node11" class="node"><title>Node11</title>
<g id="a_node11"><a xlink:href="../../db/d1f/classworkspace_state_1_1_turtle_collection.html#a6c49b4d7d24c0ed82ea491185b023cf0" target="_top" xlink:title="workspaceState.TurtleCollection.get\lActiveTurtles">
<polygon fill="white" stroke="black" points="250.5,-83 250.5,-113 437.5,-113 437.5,-83 250.5,-83"/>
<text text-anchor="start" x="258.5" y="-101" font-family="Helvetica,sans-Serif" font-size="10.00">workspaceState.TurtleCollection.get</text>
<text text-anchor="middle" x="344" y="-90" font-family="Helvetica,sans-Serif" font-size="10.00">ActiveTurtles</text>
</a>
</g>
</g>
<!-- Node1&#45;&gt;Node11 -->
<g id="edge10" class="edge"><title>Node1&#45;&gt;Node11</title>
<path fill="none" stroke="midnightblue" d="M188.052,-114.869C205.056,-113.018 222.89,-111.077 240.159,-109.196"/>
<polygon fill="midnightblue" stroke="midnightblue" points="240.689,-112.659 250.252,-108.098 239.932,-105.701 240.689,-112.659"/>
</g>
<!-- Node3 -->
<g id="node3" class="node"><title>Node3</title>
<g id="a_node3"><a xlink:href="../../d0/d77/classworkspace_state_1_1_location.html#ae445cb48bedcd80659a847365a6a3de4" target="_top" xlink:title="workspaceState.Location.generate\lLocationString">
<polygon fill="white" stroke="black" points="500.5,-274 500.5,-304 683.5,-304 683.5,-274 500.5,-274"/>
<text text-anchor="start" x="508.5" y="-292" font-family="Helvetica,sans-Serif" font-size="10.00">workspaceState.Location.generate</text>
<text text-anchor="middle" x="592" y="-281" font-family="Helvetica,sans-Serif" font-size="10.00">LocationString</text>
</a>
</g>
</g>
<!-- Node2&#45;&gt;Node3 -->
<g id="edge2" class="edge"><title>Node2&#45;&gt;Node3</title>
<path fill="none" stroke="midnightblue" d="M367.732,-172.509C396.541,-197.49 448.655,-239.392 500,-264 504.894,-266.346 510.045,-268.503 515.305,-270.481"/>
<polygon fill="midnightblue" stroke="midnightblue" points="514.263,-273.825 524.858,-273.85 516.592,-267.223 514.263,-273.825"/>
</g>
<!-- Node5 -->
<g id="node5" class="node"><title>Node5</title>
<g id="a_node5"><a xlink:href="../../d1/d01/classworkspace_state_1_1_turtle.html#ac6697327d46a4fde63526e973948d6f7" target="_top" xlink:title="workspaceState.Turtle.get\lHeading">
<polygon fill="white" stroke="black" points="522,-225 522,-255 662,-255 662,-225 522,-225"/>
<text text-anchor="start" x="530" y="-243" font-family="Helvetica,sans-Serif" font-size="10.00">workspaceState.Turtle.get</text>
<text text-anchor="middle" x="592" y="-232" font-family="Helvetica,sans-Serif" font-size="10.00">Heading</text>
</a>
</g>
</g>
<!-- Node2&#45;&gt;Node5 -->
<g id="edge4" class="edge"><title>Node2&#45;&gt;Node5</title>
<path fill="none" stroke="midnightblue" d="M391.6,-172.62C422.096,-185.695 463.002,-202.448 500,-215 507.12,-217.416 514.612,-219.769 522.113,-222.004"/>
<polygon fill="midnightblue" stroke="midnightblue" points="521.369,-225.432 531.949,-224.869 523.327,-218.712 521.369,-225.432"/>
</g>
<!-- Node6 -->
<g id="node6" class="node"><title>Node6</title>
<g id="a_node6"><a xlink:href="../../d1/d01/classworkspace_state_1_1_turtle.html#a2b5e77b78036091a65abb5f4959b5ef7" target="_top" xlink:title="workspaceState.Turtle.getID">
<polygon fill="white" stroke="black" points="517,-186.5 517,-205.5 667,-205.5 667,-186.5 517,-186.5"/>
<text text-anchor="middle" x="592" y="-193.5" font-family="Helvetica,sans-Serif" font-size="10.00">workspaceState.Turtle.getID</text>
</a>
</g>
</g>
<!-- Node2&#45;&gt;Node6 -->
<g id="edge5" class="edge"><title>Node2&#45;&gt;Node6</title>
<path fill="none" stroke="midnightblue" d="M459.717,-172.519C483.184,-176.716 507.055,-180.985 527.892,-184.712"/>
<polygon fill="midnightblue" stroke="midnightblue" points="527.402,-188.18 537.862,-186.496 528.634,-181.29 527.402,-188.18"/>
</g>
<!-- Node7 -->
<g id="node7" class="node"><title>Node7</title>
<g id="a_node7"><a xlink:href="../../d1/d01/classworkspace_state_1_1_turtle.html#a9bb3d15f12d9d4e03332ea9817f76882" target="_top" xlink:title="workspaceState.Turtle.get\lLocation">
<polygon fill="white" stroke="black" points="522,-137 522,-167 662,-167 662,-137 522,-137"/>
<text text-anchor="start" x="530" y="-155" font-family="Helvetica,sans-Serif" font-size="10.00">workspaceState.Turtle.get</text>
<text text-anchor="middle" x="592" y="-144" font-family="Helvetica,sans-Serif" font-size="10.00">Location</text>
</a>
</g>
</g>
<!-- Node2&#45;&gt;Node7 -->
<g id="edge6" class="edge"><title>Node2&#45;&gt;Node7</title>
<path fill="none" stroke="midnightblue" d="M464.037,-152C480.179,-152 496.413,-152 511.624,-152"/>
<polygon fill="midnightblue" stroke="midnightblue" points="511.978,-155.5 521.978,-152 511.978,-148.5 511.978,-155.5"/>
</g>
<!-- Node8 -->
<g id="node8" class="node"><title>Node8</title>
<g id="a_node8"><a xlink:href="../../d1/d01/classworkspace_state_1_1_turtle.html#a5c09e19002f9ed4c61ce538fff3da4ff" target="_top" xlink:title="workspaceState.Turtle.get\lOpacity">
<polygon fill="white" stroke="black" points="522,-88 522,-118 662,-118 662,-88 522,-88"/>
<text text-anchor="start" x="530" y="-106" font-family="Helvetica,sans-Serif" font-size="10.00">workspaceState.Turtle.get</text>
<text text-anchor="middle" x="592" y="-95" font-family="Helvetica,sans-Serif" font-size="10.00">Opacity</text>
</a>
</g>
</g>
<!-- Node2&#45;&gt;Node8 -->
<g id="edge7" class="edge"><title>Node2&#45;&gt;Node8</title>
<path fill="none" stroke="midnightblue" d="M448.257,-131.433C469.613,-127.179 491.784,-122.762 512.105,-118.715"/>
<polygon fill="midnightblue" stroke="midnightblue" points="512.796,-122.146 521.92,-116.76 511.429,-115.281 512.796,-122.146"/>
</g>
<!-- Node9 -->
<g id="node9" class="node"><title>Node9</title>
<g id="a_node9"><a xlink:href="../../da/de7/classworkspace_state_1_1_shape.html#aace6051dd26034446492ecac6ff16099" target="_top" xlink:title="workspaceState.Shape.getPath">
<polygon fill="white" stroke="black" points="508.5,-49.5 508.5,-68.5 675.5,-68.5 675.5,-49.5 508.5,-49.5"/>
<text text-anchor="middle" x="592" y="-56.5" font-family="Helvetica,sans-Serif" font-size="10.00">workspaceState.Shape.getPath</text>
</a>
</g>
</g>
<!-- Node2&#45;&gt;Node9 -->
<g id="edge8" class="edge"><title>Node2&#45;&gt;Node9</title>
<path fill="none" stroke="midnightblue" d="M446.268,-131.422C452.455,-128.666 458.425,-125.542 464,-122 485.327,-108.45 478.399,-91.1086 500,-78 503.471,-75.8936 507.138,-74.0178 510.93,-72.3474"/>
<polygon fill="midnightblue" stroke="midnightblue" points="512.516,-75.4865 520.571,-68.6046 509.982,-68.961 512.516,-75.4865"/>
</g>
<!-- Node10 -->
<g id="node10" class="node"><title>Node10</title>
<g id="a_node10"><a xlink:href="../../d1/d01/classworkspace_state_1_1_turtle.html#a8d9dd9cb3503c6d0aa45efca91816f71" target="_top" xlink:title="workspaceState.Turtle.get\lShape">
<polygon fill="white" stroke="black" points="522,-0 522,-30 662,-30 662,-0 522,-0"/>
<text text-anchor="start" x="530" y="-18" font-family="Helvetica,sans-Serif" font-size="10.00">workspaceState.Turtle.get</text>
<text text-anchor="middle" x="592" y="-7" font-family="Helvetica,sans-Serif" font-size="10.00">Shape</text>
</a>
</g>
</g>
<!-- Node2&#45;&gt;Node10 -->
<g id="edge9" class="edge"><title>Node2&#45;&gt;Node10</title>
<path fill="none" stroke="midnightblue" d="M450.604,-131.367C455.349,-128.616 459.852,-125.509 464,-122 494.39,-96.2971 469.883,-66.0229 500,-40 503.754,-36.7563 507.893,-33.9301 512.274,-31.4682"/>
<polygon fill="midnightblue" stroke="midnightblue" points="514.125,-34.4583 521.559,-26.909 511.04,-28.1749 514.125,-34.4583"/>
</g>
<!-- Node4 -->
<g id="node4" class="node"><title>Node4</title>
<g id="a_node4"><a xlink:href="../../d0/d77/classworkspace_state_1_1_location.html#ad4e68a97bd0ea67236551c1183fdcd6f" target="_top" xlink:title="workspaceState.Location.add">
<polygon fill="white" stroke="black" points="720,-279.5 720,-298.5 878,-298.5 878,-279.5 720,-279.5"/>
<text text-anchor="middle" x="799" y="-286.5" font-family="Helvetica,sans-Serif" font-size="10.00">workspaceState.Location.add</text>
</a>
</g>
</g>
<!-- Node3&#45;&gt;Node4 -->
<g id="edge3" class="edge"><title>Node3&#45;&gt;Node4</title>
<path fill="none" stroke="midnightblue" d="M683.513,-289C692.224,-289 701.053,-289 709.742,-289"/>
<polygon fill="midnightblue" stroke="midnightblue" points="709.863,-292.5 719.863,-289 709.863,-285.5 709.863,-292.5"/>
</g>
</g>
</svg>
