<?xml version="1.0" encoding="UTF-8" standalone="no"?>
<!DOCTYPE svg PUBLIC "-//W3C//DTD SVG 1.1//EN"
 "http://www.w3.org/Graphics/SVG/1.1/DTD/svg11.dtd">
<!-- Generated by graphviz version 2.36.0 (20140111.2315)
 -->
<!-- Title: commandParsing.userCommandParsing.UserInstruction.accumulateComponents Pages: 1 -->
<svg width="882pt" height="401pt"
 viewBox="0.00 0.00 882.00 401.00" xmlns="http://www.w3.org/2000/svg" xmlns:xlink="http://www.w3.org/1999/xlink">
<g id="graph0" class="graph" transform="scale(1 1) rotate(0) translate(4 397)">
<title>commandParsing.userCommandParsing.UserInstruction.accumulateComponents</title>
<polygon fill="white" stroke="none" points="-4,4 -4,-397 878,-397 878,4 -4,4"/>
<!-- Node1 -->
<g id="node1" class="node"><title>Node1</title>
<polygon fill="#bfbfbf" stroke="black" points="0,-211.5 0,-252.5 186,-252.5 186,-211.5 0,-211.5"/>
<text text-anchor="start" x="8" y="-240.5" font-family="Helvetica,sans-Serif" font-size="10.00">commandParsing.userCommand</text>
<text text-anchor="start" x="8" y="-229.5" font-family="Helvetica,sans-Serif" font-size="10.00">Parsing.UserInstruction.accumulate</text>
<text text-anchor="middle" x="93" y="-218.5" font-family="Helvetica,sans-Serif" font-size="10.00">Components</text>
</g>
<!-- Node2 -->
<g id="node2" class="node"><title>Node2</title>
<g id="a_node2"><a xlink:href="../../d7/d17/classcommand_parsing_1_1_command_parser.html#a9bf6e09b0ad06b6f217ad0ad040f8e93" target="_top" xlink:title="commandParsing.CommandParser.create\lParser">
<polygon fill="white" stroke="black" points="465,-363 465,-393 681,-393 681,-363 465,-363"/>
<text text-anchor="start" x="473" y="-381" font-family="Helvetica,sans-Serif" font-size="10.00">commandParsing.CommandParser.create</text>
<text text-anchor="middle" x="573" y="-370" font-family="Helvetica,sans-Serif" font-size="10.00">Parser</text>
</a>
</g>
</g>
<!-- Node1&#45;&gt;Node2 -->
<g id="edge1" class="edge"><title>Node1&#45;&gt;Node2</title>
<path fill="none" stroke="midnightblue" d="M135.106,-252.633C159.876,-264.557 192.282,-279.273 222,-290 321.692,-325.985 348.96,-328.18 452,-353 463.041,-355.66 474.694,-358.297 486.223,-360.805"/>
<polygon fill="midnightblue" stroke="midnightblue" points="485.792,-364.293 496.305,-362.974 487.265,-357.449 485.792,-364.293"/>
</g>
<!-- Node3 -->
<g id="node3" class="node"><title>Node3</title>
<g id="a_node3"><a xlink:href="../../dd/d73/classworkspace_state_1_1_user_defined_variable_collection.html#a5def0190a604962200573bd46f2e262c" target="_top" xlink:title="workspaceState.UserDefined\lVariableCollection.fetchVariable">
<polygon fill="white" stroke="black" points="235.5,-168 235.5,-198 402.5,-198 402.5,-168 235.5,-168"/>
<text text-anchor="start" x="243.5" y="-186" font-family="Helvetica,sans-Serif" font-size="10.00">workspaceState.UserDefined</text>
<text text-anchor="middle" x="319" y="-175" font-family="Helvetica,sans-Serif" font-size="10.00">VariableCollection.fetchVariable</text>
</a>
</g>
</g>
<!-- Node1&#45;&gt;Node3 -->
<g id="edge2" class="edge"><title>Node1&#45;&gt;Node3</title>
<path fill="none" stroke="midnightblue" d="M186.079,-211.858C203.732,-207.996 222.066,-203.986 239.252,-200.226"/>
<polygon fill="midnightblue" stroke="midnightblue" points="240.203,-203.601 249.224,-198.045 238.707,-196.763 240.203,-203.601"/>
</g>
<!-- Node4 -->
<g id="node4" class="node"><title>Node4</title>
<g id="a_node4"><a xlink:href="../../d1/d88/classworkspace_state_1_1_user_defined_command_collection_1_1_command.html#aef5822fd036cde06800b67d8a7ada3ad" target="_top" xlink:title="workspaceState.UserDefined\lCommandCollection.Command.getParameters">
<polygon fill="white" stroke="black" points="452.5,-314 452.5,-344 693.5,-344 693.5,-314 452.5,-314"/>
<text text-anchor="start" x="460.5" y="-332" font-family="Helvetica,sans-Serif" font-size="10.00">workspaceState.UserDefined</text>
<text text-anchor="middle" x="573" y="-321" font-family="Helvetica,sans-Serif" font-size="10.00">CommandCollection.Command.getParameters</text>
</a>
</g>
</g>
<!-- Node1&#45;&gt;Node4 -->
<g id="edge3" class="edge"><title>Node1&#45;&gt;Node4</title>
<path fill="none" stroke="midnightblue" d="M186.163,-250.703C273.454,-268.416 403.411,-294.788 487.934,-311.941"/>
<polygon fill="midnightblue" stroke="midnightblue" points="487.259,-315.375 497.755,-313.934 488.651,-308.515 487.259,-315.375"/>
</g>
<!-- Node5 -->
<g id="node5" class="node"><title>Node5</title>
<g id="a_node5"><a xlink:href="../../d7/d17/classcommand_parsing_1_1_command_parser.html#ac5bad35b74ad1aac039e96f2e3a99e82" target="_top" xlink:title="commandParsing.CommandParser.is\lStringParsableAsCommand">
<polygon fill="white" stroke="black" points="222.5,-65 222.5,-95 415.5,-95 415.5,-65 222.5,-65"/>
<text text-anchor="start" x="230.5" y="-83" font-family="Helvetica,sans-Serif" font-size="10.00">commandParsing.CommandParser.is</text>
<text text-anchor="middle" x="319" y="-72" font-family="Helvetica,sans-Serif" font-size="10.00">StringParsableAsCommand</text>
</a>
</g>
</g>
<!-- Node1&#45;&gt;Node5 -->
<g id="edge4" class="edge"><title>Node1&#45;&gt;Node5</title>
<path fill="none" stroke="midnightblue" d="M124.677,-211.184C167.498,-182.126 244.73,-129.719 287.471,-100.716"/>
<polygon fill="midnightblue" stroke="midnightblue" points="289.482,-103.581 295.792,-95.0699 285.552,-97.7888 289.482,-103.581"/>
</g>
<!-- Node7 -->
<g id="node7" class="node"><title>Node7</title>
<g id="a_node7"><a xlink:href="../../de/d9e/classcommand_parsing_1_1user_command_parsing_1_1_user_instruction.html#a6b14be9849056a39530c989dde2da904" target="_top" xlink:title="commandParsing.userCommand\lParsing.UserInstruction.parse">
<polygon fill="white" stroke="black" points="232,-217 232,-247 406,-247 406,-217 232,-217"/>
<text text-anchor="start" x="240" y="-235" font-family="Helvetica,sans-Serif" font-size="10.00">commandParsing.userCommand</text>
<text text-anchor="middle" x="319" y="-224" font-family="Helvetica,sans-Serif" font-size="10.00">Parsing.UserInstruction.parse</text>
</a>
</g>
</g>
<!-- Node1&#45;&gt;Node7 -->
<g id="edge6" class="edge"><title>Node1&#45;&gt;Node7</title>
<path fill="none" stroke="midnightblue" d="M186.079,-225.346C197.745,-225.233 209.709,-225.22 221.443,-225.307"/>
<polygon fill="midnightblue" stroke="midnightblue" points="221.647,-228.809 231.682,-225.41 221.717,-221.81 221.647,-228.809"/>
</g>
<!-- Node6 -->
<g id="node6" class="node"><title>Node6</title>
<g id="a_node6"><a xlink:href="../../d3/de0/classtranslator_1_1_translator.html#ad62364674b153e6fb5c67b328700d6e2" target="_top" xlink:title="translator.Translator.matches\lCommandPattern">
<polygon fill="white" stroke="black" points="495,-0 495,-30 651,-30 651,-0 495,-0"/>
<text text-anchor="start" x="503" y="-18" font-family="Helvetica,sans-Serif" font-size="10.00">translator.Translator.matches</text>
<text text-anchor="middle" x="573" y="-7" font-family="Helvetica,sans-Serif" font-size="10.00">CommandPattern</text>
</a>
</g>
</g>
<!-- Node5&#45;&gt;Node6 -->
<g id="edge5" class="edge"><title>Node5&#45;&gt;Node6</title>
<path fill="none" stroke="midnightblue" d="M364.276,-64.9871C389.749,-56.6677 422.466,-46.5185 452,-39 462.669,-36.2839 473.936,-33.684 485.122,-31.2645"/>
<polygon fill="midnightblue" stroke="midnightblue" points="485.858,-34.6863 494.913,-29.1864 484.404,-27.8388 485.858,-34.6863"/>
</g>
<!-- Node7&#45;&gt;Node1 -->
<g id="edge8" class="edge"><title>Node7&#45;&gt;Node1</title>
<path fill="none" stroke="midnightblue" d="M231.682,-238.59C220.129,-238.736 208.19,-238.782 196.395,-238.728"/>
<polygon fill="midnightblue" stroke="midnightblue" points="196.104,-235.226 186.079,-238.654 196.054,-242.226 196.104,-235.226"/>
</g>
<!-- Node7&#45;&gt;Node2 -->
<g id="edge14" class="edge"><title>Node7&#45;&gt;Node2</title>
<path fill="none" stroke="midnightblue" d="M331.647,-247.018C352.683,-273.019 399.713,-326.198 452,-353 456.616,-355.366 461.441,-357.508 466.393,-359.448"/>
<polygon fill="midnightblue" stroke="midnightblue" points="465.458,-362.831 476.052,-362.933 467.834,-356.247 465.458,-362.831"/>
</g>
<!-- Node7&#45;&gt;Node4 -->
<g id="edge10" class="edge"><title>Node7&#45;&gt;Node4</title>
<path fill="none" stroke="midnightblue" d="M342.856,-247.19C368.425,-263.522 411.575,-289.135 452,-304 459.303,-306.685 466.967,-309.114 474.741,-311.303"/>
<polygon fill="midnightblue" stroke="midnightblue" points="474.063,-314.745 484.628,-313.951 475.874,-307.983 474.063,-314.745"/>
</g>
<!-- Node8 -->
<g id="node8" class="node"><title>Node8</title>
<g id="a_node8"><a xlink:href="../../d2/d58/classworkspace_state_1_1_user_defined_command_collection.html#a1d4a2ef01acd52de48f327ecc6fc0664" target="_top" xlink:title="workspaceState.UserDefined\lCommandCollection.fetchUserDefined\lCommand">
<polygon fill="white" stroke="black" points="473,-48.5 473,-89.5 673,-89.5 673,-48.5 473,-48.5"/>
<text text-anchor="start" x="481" y="-77.5" font-family="Helvetica,sans-Serif" font-size="10.00">workspaceState.UserDefined</text>
<text text-anchor="start" x="481" y="-66.5" font-family="Helvetica,sans-Serif" font-size="10.00">CommandCollection.fetchUserDefined</text>
<text text-anchor="middle" x="573" y="-55.5" font-family="Helvetica,sans-Serif" font-size="10.00">Command</text>
</a>
</g>
</g>
<!-- Node7&#45;&gt;Node8 -->
<g id="edge7" class="edge"><title>Node7&#45;&gt;Node8</title>
<path fill="none" stroke="midnightblue" d="M402.176,-216.976C407.173,-214.179 411.849,-210.882 416,-207 452.955,-172.441 414.876,-133.378 452,-99 455.649,-95.6213 459.619,-92.6084 463.823,-89.9227"/>
<polygon fill="midnightblue" stroke="midnightblue" points="465.781,-92.8358 472.752,-84.8573 462.327,-86.7472 465.781,-92.8358"/>
</g>
<!-- Node9 -->
<g id="node9" class="node"><title>Node9</title>
<g id="a_node9"><a xlink:href="../../d1/d88/classworkspace_state_1_1_user_defined_command_collection_1_1_command.html#a02101fdac622014a39e7f5ebe974d126" target="_top" xlink:title="workspaceState.UserDefined\lCommandCollection.Command.getNum\lArguments">
<polygon fill="white" stroke="black" points="468.5,-254.5 468.5,-295.5 677.5,-295.5 677.5,-254.5 468.5,-254.5"/>
<text text-anchor="start" x="476.5" y="-283.5" font-family="Helvetica,sans-Serif" font-size="10.00">workspaceState.UserDefined</text>
<text text-anchor="start" x="476.5" y="-272.5" font-family="Helvetica,sans-Serif" font-size="10.00">CommandCollection.Command.getNum</text>
<text text-anchor="middle" x="573" y="-261.5" font-family="Helvetica,sans-Serif" font-size="10.00">Arguments</text>
</a>
</g>
</g>
<!-- Node7&#45;&gt;Node9 -->
<g id="edge9" class="edge"><title>Node7&#45;&gt;Node9</title>
<path fill="none" stroke="midnightblue" d="M406.019,-246.678C422.706,-249.525 440.436,-252.551 457.861,-255.524"/>
<polygon fill="midnightblue" stroke="midnightblue" points="457.629,-259.035 468.075,-257.267 458.807,-252.135 457.629,-259.035"/>
</g>
<!-- Node10 -->
<g id="node10" class="node"><title>Node10</title>
<g id="a_node10"><a xlink:href="../../dd/d73/classworkspace_state_1_1_user_defined_variable_collection.html#a093eadfb9434e9c2ae29c48d5d9e7bd7" target="_top" xlink:title="workspaceState.UserDefined\lVariableCollection.storeVariable">
<polygon fill="white" stroke="black" points="489.5,-206 489.5,-236 656.5,-236 656.5,-206 489.5,-206"/>
<text text-anchor="start" x="497.5" y="-224" font-family="Helvetica,sans-Serif" font-size="10.00">workspaceState.UserDefined</text>
<text text-anchor="middle" x="573" y="-213" font-family="Helvetica,sans-Serif" font-size="10.00">VariableCollection.storeVariable</text>
</a>
</g>
</g>
<!-- Node7&#45;&gt;Node10 -->
<g id="edge11" class="edge"><title>Node7&#45;&gt;Node10</title>
<path fill="none" stroke="midnightblue" d="M406.019,-228.245C429.599,-227.216 455.263,-226.096 479.204,-225.051"/>
<polygon fill="midnightblue" stroke="midnightblue" points="479.51,-228.541 489.348,-224.608 479.205,-221.547 479.51,-228.541"/>
</g>
<!-- Node12 -->
<g id="node12" class="node"><title>Node12</title>
<g id="a_node12"><a xlink:href="../../d1/d88/classworkspace_state_1_1_user_defined_command_collection_1_1_command.html#a8e88f2faaa1c66a28481ddb578446629" target="_top" xlink:title="workspaceState.UserDefined\lCommandCollection.Command.getCommand\lIterator">
<polygon fill="white" stroke="black" points="455,-146.5 455,-187.5 691,-187.5 691,-146.5 455,-146.5"/>
<text text-anchor="start" x="463" y="-175.5" font-family="Helvetica,sans-Serif" font-size="10.00">workspaceState.UserDefined</text>
<text text-anchor="start" x="463" y="-164.5" font-family="Helvetica,sans-Serif" font-size="10.00">CommandCollection.Command.getCommand</text>
<text text-anchor="middle" x="573" y="-153.5" font-family="Helvetica,sans-Serif" font-size="10.00">Iterator</text>
</a>
</g>
</g>
<!-- Node7&#45;&gt;Node12 -->
<g id="edge13" class="edge"><title>Node7&#45;&gt;Node12</title>
<path fill="none" stroke="midnightblue" d="M379.253,-216.984C391.432,-213.781 404.151,-210.352 416,-207 432.099,-202.446 435.862,-200.411 452,-196 459.341,-193.993 466.954,-191.985 474.623,-190.015"/>
<polygon fill="midnightblue" stroke="midnightblue" points="475.52,-193.398 484.35,-187.543 473.796,-186.614 475.52,-193.398"/>
</g>
<!-- Node13 -->
<g id="node13" class="node"><title>Node13</title>
<g id="a_node13"><a xlink:href="../../d7/d17/classcommand_parsing_1_1_command_parser.html#ae5a2f506ca01f7fa355a64e4831fbae3" target="_top" xlink:title="commandParsing.CommandParser.parse">
<polygon fill="white" stroke="black" points="467,-108.5 467,-127.5 679,-127.5 679,-108.5 467,-108.5"/>
<text text-anchor="middle" x="573" y="-115.5" font-family="Helvetica,sans-Serif" font-size="10.00">commandParsing.CommandParser.parse</text>
</a>
</g>
</g>
<!-- Node7&#45;&gt;Node13 -->
<g id="edge15" class="edge"><title>Node7&#45;&gt;Node13</title>
<path fill="none" stroke="midnightblue" d="M400.117,-216.931C405.784,-214.156 411.161,-210.876 416,-207 443.307,-185.131 423.658,-157.509 452,-137 454.403,-135.261 456.904,-133.656 459.485,-132.175"/>
<polygon fill="midnightblue" stroke="midnightblue" points="461.192,-135.234 468.544,-127.605 458.039,-128.985 461.192,-135.234"/>
</g>
<!-- Node11 -->
<g id="node11" class="node"><title>Node11</title>
<g id="a_node11"><a xlink:href="../../d9/da1/classgui_1_1variableslist_1_1_workspace_variable.html#adb4b0d1dfaf6d63d871b7499006a7a01" target="_top" xlink:title="gui.variableslist.Workspace\lVariable.addValue">
<polygon fill="white" stroke="black" points="730,-206 730,-236 874,-236 874,-206 730,-206"/>
<text text-anchor="start" x="738" y="-224" font-family="Helvetica,sans-Serif" font-size="10.00">gui.variableslist.Workspace</text>
<text text-anchor="middle" x="802" y="-213" font-family="Helvetica,sans-Serif" font-size="10.00">Variable.addValue</text>
</a>
</g>
</g>
<!-- Node10&#45;&gt;Node11 -->
<g id="edge12" class="edge"><title>Node10&#45;&gt;Node11</title>
<path fill="none" stroke="midnightblue" d="M656.594,-221C677.091,-221 699.042,-221 719.486,-221"/>
<polygon fill="midnightblue" stroke="midnightblue" points="719.705,-224.5 729.705,-221 719.705,-217.5 719.705,-224.5"/>
</g>
</g>
</svg>
