<?xml version="1.0" encoding="UTF-8" standalone="no"?>
<!DOCTYPE svg PUBLIC "-//W3C//DTD SVG 1.1//EN"
 "http://www.w3.org/Graphics/SVG/1.1/DTD/svg11.dtd">
<!-- Generated by graphviz version 2.36.0 (20140111.2315)
 -->
<!-- Title: commandParsing.userCommandParsing.UserInstruction.parse Pages: 1 -->
<!--zoomable 434 -->
<svg id="main" version="1.1" xmlns="http://www.w3.org/2000/svg" xmlns:xlink="http://www.w3.org/1999/xlink" xml:space="preserve" onload="init(evt)">
<style type="text/css"><![CDATA[
.edge:hover path { stroke: red; }
.edge:hover polygon { stroke: red; fill: red; }
]]></style>
<script type="text/javascript"><![CDATA[
var edges = document.getElementsByTagName('g');
if (edges && edges.length) {
  for (var i=0;i<edges.length;i++) {
    if (edges[i].id.substr(0,4)=='edge') {
      edges[i].setAttribute('class','edge');
    }
  }
}
]]></script>
        <defs>
                <circle id="rim" cx="0" cy="0" r="7"/>
                <circle id="rim2" cx="0" cy="0" r="3.5"/>
                <g id="zoomPlus">
                        <use xlink:href="#rim" fill="#404040">
                                <set attributeName="fill" to="#808080" begin="zoomplus.mouseover" end="zoomplus.mouseout"/>
                        </use>
                        <path d="M-4,0h8M0,-4v8" fill="none" stroke="white" stroke-width="1.5" pointer-events="none"/>
                </g>
                <g id="zoomMin">
                        <use xlink:href="#rim" fill="#404040">
                                <set attributeName="fill" to="#808080" begin="zoomminus.mouseover" end="zoomminus.mouseout"/>
                        </use>
                        <path d="M-4,0h8" fill="none" stroke="white" stroke-width="1.5" pointer-events="none"/>
                </g>
                <g id="dirArrow">
                        <path fill="none" stroke="white" stroke-width="1.5" d="M0,-3.0v7 M-2.5,-0.5L0,-3.0L2.5,-0.5"/>
                </g>
               <g id="resetDef">
                       <use xlink:href="#rim2" fill="#404040">
                               <set attributeName="fill" to="#808080" begin="reset.mouseover" end="reset.mouseout"/>
                       </use>
               </g>
        </defs>

<script type="text/javascript">
var viewWidth = 924;
var viewHeight = 434;
var sectionId = 'dynsection-4';
</script>
<script xlink:href="../../svgpan.js"/>
<svg id="graph" class="graph">
<g id="viewport">
<title>commandParsing.userCommandParsing.UserInstruction.parse</title>
<polygon fill="white" stroke="none" points="-4,4 -4,-430 920,-430 920,4 -4,4"/>
<!-- Node1 -->
<g id="node1" class="node"><title>Node1</title>
<polygon fill="#bfbfbf" stroke="black" points="0,-213 0,-243 174,-243 174,-213 0,-213"/>
<text text-anchor="start" x="8" y="-231" font-family="Helvetica,sans-Serif" font-size="10.00">commandParsing.userCommand</text>
<text text-anchor="middle" x="87" y="-220" font-family="Helvetica,sans-Serif" font-size="10.00">Parsing.UserInstruction.parse</text>
</g>
<!-- Node2 -->
<g id="node2" class="node"><title>Node2</title>
<g id="a_node2"><a xlink:href="../../de/d9e/classcommand_parsing_1_1user_command_parsing_1_1_user_instruction.html#a0e5dae1883f162efa064de96a540ec47" target="_top" xlink:title="commandParsing.userCommand\lParsing.UserInstruction.accumulate\lComponents">
<polygon fill="white" stroke="black" points="235,-305.5 235,-346.5 421,-346.5 421,-305.5 235,-305.5"/>
<text text-anchor="start" x="243" y="-334.5" font-family="Helvetica,sans-Serif" font-size="10.00">commandParsing.userCommand</text>
<text text-anchor="start" x="243" y="-323.5" font-family="Helvetica,sans-Serif" font-size="10.00">Parsing.UserInstruction.accumulate</text>
<text text-anchor="middle" x="328" y="-312.5" font-family="Helvetica,sans-Serif" font-size="10.00">Components</text>
</a>
</g>
</g>
<!-- Node1&#45;&gt;Node2 -->
<g id="edge1" class="edge"><title>Node1&#45;&gt;Node2</title>
<path fill="none" stroke="midnightblue" d="M127.779,-243.059C151.206,-254.828 181.706,-270.578 210,-282 228.751,-289.569 249.77,-296.357 268.764,-302.359"/>
<polygon fill="midnightblue" stroke="midnightblue" points="267.9,-305.757 278.49,-305.427 270.006,-299.081 267.9,-305.757"/>
</g>
<!-- Node3 -->
<g id="node3" class="node"><title>Node3</title>
<g id="a_node3"><a xlink:href="../../d7/d17/classcommand_parsing_1_1_command_parser.html#a9bf6e09b0ad06b6f217ad0ad040f8e93" target="_top" xlink:title="commandParsing.CommandParser.create\lParser">
<polygon fill="white" stroke="black" points="495,-396 495,-426 711,-426 711,-396 495,-396"/>
<text text-anchor="start" x="503" y="-414" font-family="Helvetica,sans-Serif" font-size="10.00">commandParsing.CommandParser.create</text>
<text text-anchor="middle" x="603" y="-403" font-family="Helvetica,sans-Serif" font-size="10.00">Parser</text>
</a>
</g>
</g>
<!-- Node1&#45;&gt;Node3 -->
<g id="edge8" class="edge"><title>Node1&#45;&gt;Node3</title>
<path fill="none" stroke="midnightblue" d="M97.5509,-243.253C115.699,-270.777 158.034,-328.362 210,-355 295.068,-398.607 403.378,-411.364 484.582,-413.919"/>
<polygon fill="midnightblue" stroke="midnightblue" points="484.759,-417.424 494.849,-414.192 484.946,-410.427 484.759,-417.424"/>
</g>
<!-- Node5 -->
<g id="node5" class="node"><title>Node5</title>
<g id="a_node5"><a xlink:href="../../d1/d88/classworkspace_state_1_1_user_defined_command_collection_1_1_command.html#aef5822fd036cde06800b67d8a7ada3ad" target="_top" xlink:title="workspaceState.UserDefined\lCommandCollection.Command.getParameters">
<polygon fill="white" stroke="black" points="482.5,-249 482.5,-279 723.5,-279 723.5,-249 482.5,-249"/>
<text text-anchor="start" x="490.5" y="-267" font-family="Helvetica,sans-Serif" font-size="10.00">workspaceState.UserDefined</text>
<text text-anchor="middle" x="603" y="-256" font-family="Helvetica,sans-Serif" font-size="10.00">CommandCollection.Command.getParameters</text>
</a>
</g>
</g>
<!-- Node1&#45;&gt;Node5 -->
<g id="edge12" class="edge"><title>Node1&#45;&gt;Node5</title>
<path fill="none" stroke="midnightblue" d="M140.39,-243.07C161.784,-248.536 186.889,-254.082 210,-257 296.925,-267.977 395.542,-269.685 472.117,-268.67"/>
<polygon fill="midnightblue" stroke="midnightblue" points="472.349,-272.167 482.295,-268.517 472.244,-265.168 472.349,-272.167"/>
</g>
<!-- Node8 -->
<g id="node8" class="node"><title>Node8</title>
<g id="a_node8"><a xlink:href="../../d2/d58/classworkspace_state_1_1_user_defined_command_collection.html#a1d4a2ef01acd52de48f327ecc6fc0664" target="_top" xlink:title="workspaceState.UserDefined\lCommandCollection.fetchUserDefined\lCommand">
<polygon fill="white" stroke="black" points="228,-207.5 228,-248.5 428,-248.5 428,-207.5 228,-207.5"/>
<text text-anchor="start" x="236" y="-236.5" font-family="Helvetica,sans-Serif" font-size="10.00">workspaceState.UserDefined</text>
<text text-anchor="start" x="236" y="-225.5" font-family="Helvetica,sans-Serif" font-size="10.00">CommandCollection.fetchUserDefined</text>
<text text-anchor="middle" x="328" y="-214.5" font-family="Helvetica,sans-Serif" font-size="10.00">Command</text>
</a>
</g>
</g>
<!-- Node1&#45;&gt;Node8 -->
<g id="edge9" class="edge"><title>Node1&#45;&gt;Node8</title>
<path fill="none" stroke="midnightblue" d="M174.284,-228C188.407,-228 203.203,-228 217.792,-228"/>
<polygon fill="midnightblue" stroke="midnightblue" points="217.848,-231.5 227.848,-228 217.848,-224.5 217.848,-231.5"/>
</g>
<!-- Node9 -->
<g id="node9" class="node"><title>Node9</title>
<g id="a_node9"><a xlink:href="../../d1/d88/classworkspace_state_1_1_user_defined_command_collection_1_1_command.html#a8e88f2faaa1c66a28481ddb578446629" target="_top" xlink:title="workspaceState.UserDefined\lCommandCollection.Command.getCommand\lIterator">
<polygon fill="white" stroke="black" points="210,-147.5 210,-188.5 446,-188.5 446,-147.5 210,-147.5"/>
<text text-anchor="start" x="218" y="-176.5" font-family="Helvetica,sans-Serif" font-size="10.00">workspaceState.UserDefined</text>
<text text-anchor="start" x="218" y="-165.5" font-family="Helvetica,sans-Serif" font-size="10.00">CommandCollection.Command.getCommand</text>
<text text-anchor="middle" x="328" y="-154.5" font-family="Helvetica,sans-Serif" font-size="10.00">Iterator</text>
</a>
</g>
</g>
<!-- Node1&#45;&gt;Node9 -->
<g id="edge10" class="edge"><title>Node1&#45;&gt;Node9</title>
<path fill="none" stroke="midnightblue" d="M148.001,-212.937C174.462,-206.294 206.149,-198.339 235.459,-190.981"/>
<polygon fill="midnightblue" stroke="midnightblue" points="236.449,-194.341 245.296,-188.511 234.745,-187.552 236.449,-194.341"/>
</g>
<!-- Node10 -->
<g id="node10" class="node"><title>Node10</title>
<g id="a_node10"><a xlink:href="../../d1/d88/classworkspace_state_1_1_user_defined_command_collection_1_1_command.html#a02101fdac622014a39e7f5ebe974d126" target="_top" xlink:title="workspaceState.UserDefined\lCommandCollection.Command.getNum\lArguments">
<polygon fill="white" stroke="black" points="223.5,-87.5 223.5,-128.5 432.5,-128.5 432.5,-87.5 223.5,-87.5"/>
<text text-anchor="start" x="231.5" y="-116.5" font-family="Helvetica,sans-Serif" font-size="10.00">workspaceState.UserDefined</text>
<text text-anchor="start" x="231.5" y="-105.5" font-family="Helvetica,sans-Serif" font-size="10.00">CommandCollection.Command.getNum</text>
<text text-anchor="middle" x="328" y="-94.5" font-family="Helvetica,sans-Serif" font-size="10.00">Arguments</text>
</a>
</g>
</g>
<!-- Node1&#45;&gt;Node10 -->
<g id="edge11" class="edge"><title>Node1&#45;&gt;Node10</title>
<path fill="none" stroke="midnightblue" d="M104.036,-212.947C126.182,-192.957 168.154,-157.869 210,-138 214.386,-135.917 218.937,-133.966 223.585,-132.139"/>
<polygon fill="midnightblue" stroke="midnightblue" points="225.081,-135.317 233.243,-128.562 222.65,-128.753 225.081,-135.317"/>
</g>
<!-- Node11 -->
<g id="node11" class="node"><title>Node11</title>
<g id="a_node11"><a xlink:href="../../d7/d17/classcommand_parsing_1_1_command_parser.html#ae5a2f506ca01f7fa355a64e4831fbae3" target="_top" xlink:title="commandParsing.CommandParser.parse">
<polygon fill="white" stroke="black" points="222,-49.5 222,-68.5 434,-68.5 434,-49.5 222,-49.5"/>
<text text-anchor="middle" x="328" y="-56.5" font-family="Helvetica,sans-Serif" font-size="10.00">commandParsing.CommandParser.parse</text>
</a>
</g>
</g>
<!-- Node1&#45;&gt;Node11 -->
<g id="edge13" class="edge"><title>Node1&#45;&gt;Node11</title>
<path fill="none" stroke="midnightblue" d="M95.5787,-212.573C111.791,-181.371 153.051,-110.947 210,-78 213.707,-75.8553 217.585,-73.9337 221.581,-72.2131"/>
<polygon fill="midnightblue" stroke="midnightblue" points="223.019,-75.4102 231.095,-68.553 220.505,-68.8769 223.019,-75.4102"/>
</g>
<!-- Node12 -->
<g id="node12" class="node"><title>Node12</title>
<g id="a_node12"><a xlink:href="../../dd/d73/classworkspace_state_1_1_user_defined_variable_collection.html#a093eadfb9434e9c2ae29c48d5d9e7bd7" target="_top" xlink:title="workspaceState.UserDefined\lVariableCollection.storeVariable">
<polygon fill="white" stroke="black" points="244.5,-0 244.5,-30 411.5,-30 411.5,-0 244.5,-0"/>
<text text-anchor="start" x="252.5" y="-18" font-family="Helvetica,sans-Serif" font-size="10.00">workspaceState.UserDefined</text>
<text text-anchor="middle" x="328" y="-7" font-family="Helvetica,sans-Serif" font-size="10.00">VariableCollection.storeVariable</text>
</a>
</g>
</g>
<!-- Node1&#45;&gt;Node12 -->
<g id="edge14" class="edge"><title>Node1&#45;&gt;Node12</title>
<path fill="none" stroke="midnightblue" d="M93.1562,-212.921C106.347,-176.757 144.937,-84.7834 210,-40 217.539,-34.8108 225.949,-30.6673 234.707,-27.3633"/>
<polygon fill="midnightblue" stroke="midnightblue" points="235.978,-30.6279 244.321,-24.0978 233.727,-23.9997 235.978,-30.6279"/>
</g>
<!-- Node2&#45;&gt;Node1 -->
<g id="edge7" class="edge"><title>Node2&#45;&gt;Node1</title>
<path fill="none" stroke="midnightblue" d="M234.786,-309.148C226.334,-306.288 217.962,-303.214 210,-300 174.915,-285.837 136.438,-265.018 112.262,-249.097"/>
<polygon fill="midnightblue" stroke="midnightblue" points="113.962,-246.019 103.733,-243.258 110.008,-251.795 113.962,-246.019"/>
</g>
<!-- Node2&#45;&gt;Node3 -->
<g id="edge2" class="edge"><title>Node2&#45;&gt;Node3</title>
<path fill="none" stroke="midnightblue" d="M375.496,-346.597C405.456,-359.275 445.496,-375.124 482,-386 491.254,-388.757 500.998,-391.322 510.766,-393.677"/>
<polygon fill="midnightblue" stroke="midnightblue" points="509.992,-397.09 520.526,-395.961 511.587,-390.274 509.992,-397.09"/>
</g>
<!-- Node4 -->
<g id="node4" class="node"><title>Node4</title>
<g id="a_node4"><a xlink:href="../../dd/d73/classworkspace_state_1_1_user_defined_variable_collection.html#a5def0190a604962200573bd46f2e262c" target="_top" xlink:title="workspaceState.UserDefined\lVariableCollection.fetchVariable">
<polygon fill="white" stroke="black" points="519.5,-347 519.5,-377 686.5,-377 686.5,-347 519.5,-347"/>
<text text-anchor="start" x="527.5" y="-365" font-family="Helvetica,sans-Serif" font-size="10.00">workspaceState.UserDefined</text>
<text text-anchor="middle" x="603" y="-354" font-family="Helvetica,sans-Serif" font-size="10.00">VariableCollection.fetchVariable</text>
</a>
</g>
</g>
<!-- Node2&#45;&gt;Node4 -->
<g id="edge3" class="edge"><title>Node2&#45;&gt;Node4</title>
<path fill="none" stroke="midnightblue" d="M421.045,-338.138C449.431,-341.881 480.696,-346.004 509.137,-349.754"/>
<polygon fill="midnightblue" stroke="midnightblue" points="508.698,-353.227 519.07,-351.064 509.613,-346.287 508.698,-353.227"/>
</g>
<!-- Node2&#45;&gt;Node5 -->
<g id="edge4" class="edge"><title>Node2&#45;&gt;Node5</title>
<path fill="none" stroke="midnightblue" d="M411.866,-305.451C434.569,-299.96 459.204,-294.13 482,-289 493.597,-286.39 505.847,-283.729 517.912,-281.163"/>
<polygon fill="midnightblue" stroke="midnightblue" points="518.925,-284.527 527.985,-279.034 517.477,-277.678 518.925,-284.527"/>
</g>
<!-- Node6 -->
<g id="node6" class="node"><title>Node6</title>
<g id="a_node6"><a xlink:href="../../d7/d17/classcommand_parsing_1_1_command_parser.html#ac5bad35b74ad1aac039e96f2e3a99e82" target="_top" xlink:title="commandParsing.CommandParser.is\lStringParsableAsCommand">
<polygon fill="white" stroke="black" points="506.5,-298 506.5,-328 699.5,-328 699.5,-298 506.5,-298"/>
<text text-anchor="start" x="514.5" y="-316" font-family="Helvetica,sans-Serif" font-size="10.00">commandParsing.CommandParser.is</text>
<text text-anchor="middle" x="603" y="-305" font-family="Helvetica,sans-Serif" font-size="10.00">StringParsableAsCommand</text>
</a>
</g>
</g>
<!-- Node2&#45;&gt;Node6 -->
<g id="edge5" class="edge"><title>Node2&#45;&gt;Node6</title>
<path fill="none" stroke="midnightblue" d="M421.045,-321.617C445.126,-320.47 471.279,-319.225 496.021,-318.047"/>
<polygon fill="midnightblue" stroke="midnightblue" points="496.337,-321.536 506.159,-317.564 496.004,-314.544 496.337,-321.536"/>
</g>
<!-- Node7 -->
<g id="node7" class="node"><title>Node7</title>
<g id="a_node7"><a xlink:href="../../d3/de0/classtranslator_1_1_translator.html#ad62364674b153e6fb5c67b328700d6e2" target="_top" xlink:title="translator.Translator.matches\lCommandPattern">
<polygon fill="white" stroke="black" points="760,-298 760,-328 916,-328 916,-298 760,-298"/>
<text text-anchor="start" x="768" y="-316" font-family="Helvetica,sans-Serif" font-size="10.00">translator.Translator.matches</text>
<text text-anchor="middle" x="838" y="-305" font-family="Helvetica,sans-Serif" font-size="10.00">CommandPattern</text>
</a>
</g>
</g>
<!-- Node6&#45;&gt;Node7 -->
<g id="edge6" class="edge"><title>Node6&#45;&gt;Node7</title>
<path fill="none" stroke="midnightblue" d="M699.779,-313C716.306,-313 733.408,-313 749.696,-313"/>
<polygon fill="midnightblue" stroke="midnightblue" points="749.72,-316.5 759.72,-313 749.72,-309.5 749.72,-316.5"/>
</g>
<!-- Node13 -->
<g id="node13" class="node"><title>Node13</title>
<g id="a_node13"><a xlink:href="../../d9/da1/classgui_1_1variableslist_1_1_workspace_variable.html#adb4b0d1dfaf6d63d871b7499006a7a01" target="_top" xlink:title="gui.variableslist.Workspace\lVariable.addValue">
<polygon fill="white" stroke="black" points="531,-0 531,-30 675,-30 675,-0 531,-0"/>
<text text-anchor="start" x="539" y="-18" font-family="Helvetica,sans-Serif" font-size="10.00">gui.variableslist.Workspace</text>
<text text-anchor="middle" x="603" y="-7" font-family="Helvetica,sans-Serif" font-size="10.00">Variable.addValue</text>
</a>
</g>
</g>
<!-- Node12&#45;&gt;Node13 -->
<g id="edge15" class="edge"><title>Node12&#45;&gt;Node13</title>
<path fill="none" stroke="midnightblue" d="M411.65,-15C446.216,-15 486.269,-15 520.691,-15"/>
<polygon fill="midnightblue" stroke="midnightblue" points="520.71,-18.5001 530.71,-15 520.71,-11.5001 520.71,-18.5001"/>
</g>
</g>
</svg>
        <g id="navigator" transform="translate(0 0)" fill="#404254">
                <rect fill="#f2f5e9" fill-opacity="0.5" stroke="#606060" stroke-width=".5" x="0" y="0" width="60" height="60"/>
                <use id="zoomplus" xlink:href="#zoomPlus" x="17" y="9" onmousedown="handleZoom(evt,'in')"/>
                <use id="zoomminus" xlink:href="#zoomMin" x="42" y="9" onmousedown="handleZoom(evt,'out')"/>
                <use id="reset" xlink:href="#resetDef" x="30" y="36" onmousedown="handleReset()"/>
                <g id="arrowUp" xlink:href="#dirArrow" transform="translate(30 24)" onmousedown="handlePan(0,-1)">
                  <use xlink:href="#rim" fill="#404040">
                        <set attributeName="fill" to="#808080" begin="arrowUp.mouseover" end="arrowUp.mouseout"/>
                  </use>
                  <path fill="none" stroke="white" stroke-width="1.5" d="M0,-3.0v7 M-2.5,-0.5L0,-3.0L2.5,-0.5"/>
                </g>
                <g id="arrowRight" xlink:href="#dirArrow" transform="rotate(90) translate(36 -43)" onmousedown="handlePan(1,0)">
                  <use xlink:href="#rim" fill="#404040">
                        <set attributeName="fill" to="#808080" begin="arrowRight.mouseover" end="arrowRight.mouseout"/>
                  </use>
                  <path fill="none" stroke="white" stroke-width="1.5" d="M0,-3.0v7 M-2.5,-0.5L0,-3.0L2.5,-0.5"/>
                </g>
                <g id="arrowDown" xlink:href="#dirArrow" transform="rotate(180) translate(-30 -48)" onmousedown="handlePan(0,1)">
                  <use xlink:href="#rim" fill="#404040">
                        <set attributeName="fill" to="#808080" begin="arrowDown.mouseover" end="arrowDown.mouseout"/>
                  </use>
                  <path fill="none" stroke="white" stroke-width="1.5" d="M0,-3.0v7 M-2.5,-0.5L0,-3.0L2.5,-0.5"/>
                </g>
                <g id="arrowLeft" xlink:href="#dirArrow" transform="rotate(270) translate(-36 17)" onmousedown="handlePan(-1,0)">
                  <use xlink:href="#rim" fill="#404040">
                        <set attributeName="fill" to="#808080" begin="arrowLeft.mouseover" end="arrowLeft.mouseout"/>
                  </use>
                  <path fill="none" stroke="white" stroke-width="1.5" d="M0,-3.0v7 M-2.5,-0.5L0,-3.0L2.5,-0.5"/>
                </g>
        </g>
        <svg viewBox="0 0 15 15" width="100%" height="30px" preserveAspectRatio="xMaxYMin meet">
         <g id="arrow_out" transform="scale(0.3 0.3)">
          <a xlink:href="classcommand_parsing_1_1user_command_parsing_1_1_user_instruction_a6b14be9849056a39530c989dde2da904_cgraph_org.svg" target="_base">
           <rect id="button" ry="5" rx="5" y="6" x="6" height="38" width="38"
                fill="#f2f5e9" fill-opacity="0.5" stroke="#606060" stroke-width="1.0"/>
           <path id="arrow"
             d="M 11.500037,31.436501 C 11.940474,20.09759 22.043105,11.32322 32.158766,21.979434 L 37.068811,17.246167 C 37.068811,17.246167 37.088388,32 37.088388,32 L 22.160133,31.978069 C 22.160133,31.978069 26.997745,27.140456 26.997745,27.140456 C 18.528582,18.264221 13.291696,25.230495 11.500037,31.436501 z"
             style="fill:#404040;"/>
          </a>
         </g>
        </svg>
</svg>
