<?xml version="1.0" encoding="UTF-8" standalone="no"?>
<!DOCTYPE svg PUBLIC "-//W3C//DTD SVG 1.1//EN"
 "http://www.w3.org/Graphics/SVG/1.1/DTD/svg11.dtd">
<!-- Generated by graphviz version 2.36.0 (20140111.2315)
 -->
<!-- Title: commandParsing.turtleCommandParsing.turtleMovement.Rotate Pages: 1 -->
<svg width="1080pt" height="87pt"
 viewBox="0.00 0.00 1080.00 87.00" xmlns="http://www.w3.org/2000/svg" xmlns:xlink="http://www.w3.org/1999/xlink">
<g id="graph0" class="graph" transform="scale(1 1) rotate(0) translate(4 83)">
<title>commandParsing.turtleCommandParsing.turtleMovement.Rotate</title>
<polygon fill="white" stroke="none" points="-4,4 -4,-83 1076,-83 1076,4 -4,4"/>
<!-- Node1 -->
<g id="node1" class="node"><title>Node1</title>
<polygon fill="#bfbfbf" stroke="black" points="676.5,-24 676.5,-54 855.5,-54 855.5,-24 676.5,-24"/>
<text text-anchor="start" x="684.5" y="-42" font-family="Helvetica,sans-Serif" font-size="10.00">commandParsing.turtleCommand</text>
<text text-anchor="middle" x="766" y="-31" font-family="Helvetica,sans-Serif" font-size="10.00">Parsing.turtleMovement.Rotate</text>
</g>
<!-- Node6 -->
<g id="node6" class="node"><title>Node6</title>
<g id="a_node6"><a xlink:href="../../d8/dfc/classcommand_parsing_1_1turtle_command_parsing_1_1turtle_movement_1_1_left.html" target="_top" xlink:title="commandParsing.turtleCommand\lParsing.turtleMovement.Left">
<polygon fill="white" stroke="black" points="892.5,-49 892.5,-79 1071.5,-79 1071.5,-49 892.5,-49"/>
<text text-anchor="start" x="900.5" y="-67" font-family="Helvetica,sans-Serif" font-size="10.00">commandParsing.turtleCommand</text>
<text text-anchor="middle" x="982" y="-56" font-family="Helvetica,sans-Serif" font-size="10.00">Parsing.turtleMovement.Left</text>
</a>
</g>
</g>
<!-- Node1&#45;&gt;Node6 -->
<g id="edge5" class="edge"><title>Node1&#45;&gt;Node6</title>
<path fill="none" stroke="midnightblue" d="M865.645,-50.524C874.596,-51.5696 883.625,-52.6244 892.48,-53.6588"/>
<polygon fill="midnightblue" stroke="midnightblue" points="865.925,-47.033 855.587,-49.3489 865.113,-53.9857 865.925,-47.033"/>
</g>
<!-- Node7 -->
<g id="node7" class="node"><title>Node7</title>
<g id="a_node7"><a xlink:href="../../d0/dea/classcommand_parsing_1_1turtle_command_parsing_1_1turtle_movement_1_1_right.html" target="_top" xlink:title="commandParsing.turtleCommand\lParsing.turtleMovement.Right">
<polygon fill="white" stroke="black" points="892.5,-0 892.5,-30 1071.5,-30 1071.5,-0 892.5,-0"/>
<text text-anchor="start" x="900.5" y="-18" font-family="Helvetica,sans-Serif" font-size="10.00">commandParsing.turtleCommand</text>
<text text-anchor="middle" x="982" y="-7" font-family="Helvetica,sans-Serif" font-size="10.00">Parsing.turtleMovement.Right</text>
</a>
</g>
</g>
<!-- Node1&#45;&gt;Node7 -->
<g id="edge6" class="edge"><title>Node1&#45;&gt;Node7</title>
<path fill="none" stroke="midnightblue" d="M865.645,-27.937C874.596,-26.9332 883.625,-25.9206 892.48,-24.9275"/>
<polygon fill="midnightblue" stroke="midnightblue" points="865.134,-24.4722 855.587,-29.065 865.915,-31.4286 865.134,-24.4722"/>
</g>
<!-- Node2 -->
<g id="node2" class="node"><title>Node2</title>
<g id="a_node2"><a xlink:href="../../d3/d00/classcommand_parsing_1_1float_command_parsing_1_1_one_input_float_command_parser.html" target="_top" xlink:title="commandParsing.floatCommand\lParsing.OneInputFloatCommandParser">
<polygon fill="white" stroke="black" points="438.5,-49 438.5,-79 639.5,-79 639.5,-49 438.5,-49"/>
<text text-anchor="start" x="446.5" y="-67" font-family="Helvetica,sans-Serif" font-size="10.00">commandParsing.floatCommand</text>
<text text-anchor="middle" x="539" y="-56" font-family="Helvetica,sans-Serif" font-size="10.00">Parsing.OneInputFloatCommandParser</text>
</a>
</g>
</g>
<!-- Node2&#45;&gt;Node1 -->
<g id="edge1" class="edge"><title>Node2&#45;&gt;Node1</title>
<path fill="none" stroke="midnightblue" d="M649.733,-51.8075C658.664,-50.8151 667.619,-49.8201 676.372,-48.8476"/>
<polygon fill="midnightblue" stroke="midnightblue" points="649.223,-48.3425 639.671,-52.9255 649.996,-55.2997 649.223,-48.3425"/>
</g>
<!-- Node3 -->
<g id="node3" class="node"><title>Node3</title>
<g id="a_node3"><a xlink:href="../../d9/d8d/classcommand_parsing_1_1float_command_parsing_1_1_float_input_command_parser.html" target="_top" xlink:title="commandParsing.floatCommand\lParsing.FloatInputCommandParser">
<polygon fill="white" stroke="black" points="220,-49 220,-79 402,-79 402,-49 220,-49"/>
<text text-anchor="start" x="228" y="-67" font-family="Helvetica,sans-Serif" font-size="10.00">commandParsing.floatCommand</text>
<text text-anchor="middle" x="311" y="-56" font-family="Helvetica,sans-Serif" font-size="10.00">Parsing.FloatInputCommandParser</text>
</a>
</g>
</g>
<!-- Node3&#45;&gt;Node2 -->
<g id="edge2" class="edge"><title>Node3&#45;&gt;Node2</title>
<path fill="none" stroke="midnightblue" d="M412.324,-64C420.916,-64 429.607,-64 438.195,-64"/>
<polygon fill="midnightblue" stroke="midnightblue" points="412.296,-60.5001 402.296,-64 412.295,-67.5001 412.296,-60.5001"/>
</g>
<!-- Node4 -->
<g id="node4" class="node"><title>Node4</title>
<g id="a_node4"><a xlink:href="../../d7/d17/classcommand_parsing_1_1_command_parser.html" target="_top" xlink:title="commandParsing.CommandParser">
<polygon fill="white" stroke="black" points="0.5,-54.5 0.5,-73.5 183.5,-73.5 183.5,-54.5 0.5,-54.5"/>
<text text-anchor="middle" x="92" y="-61.5" font-family="Helvetica,sans-Serif" font-size="10.00">commandParsing.CommandParser</text>
</a>
</g>
</g>
<!-- Node4&#45;&gt;Node3 -->
<g id="edge3" class="edge"><title>Node4&#45;&gt;Node3</title>
<path fill="none" stroke="midnightblue" d="M193.92,-64C202.603,-64 211.352,-64 219.941,-64"/>
<polygon fill="midnightblue" stroke="midnightblue" points="193.77,-60.5001 183.77,-64 193.77,-67.5001 193.77,-60.5001"/>
</g>
<!-- Node5 -->
<g id="node5" class="node"><title>Node5</title>
<g id="a_node5"><a xlink:href="../../df/d64/interfacecommand_parsing_1_1drawable_obect_generation_interfaces_1_1_turtle_generator.html" target="_top" xlink:title="commandParsing.drawableObect\lGenerationInterfaces.TurtleGenerator">
<polygon fill="white" stroke="black" points="442,-0 442,-30 636,-30 636,-0 442,-0"/>
<text text-anchor="start" x="450" y="-18" font-family="Helvetica,sans-Serif" font-size="10.00">commandParsing.drawableObect</text>
<text text-anchor="middle" x="539" y="-7" font-family="Helvetica,sans-Serif" font-size="10.00">GenerationInterfaces.TurtleGenerator</text>
</a>
</g>
</g>
<!-- Node5&#45;&gt;Node1 -->
<g id="edge4" class="edge"><title>Node5&#45;&gt;Node1</title>
<path fill="none" stroke="midnightblue" d="M646.153,-26.323C656.269,-27.402 666.453,-28.4883 676.377,-29.5469"/>
<polygon fill="midnightblue" stroke="midnightblue" points="646.388,-22.8283 636.073,-25.2478 645.645,-29.7888 646.388,-22.8283"/>
</g>
</g>
</svg>
