<?xml version="1.0" encoding="UTF-8" standalone="no"?>
<!DOCTYPE svg PUBLIC "-//W3C//DTD SVG 1.1//EN"
 "http://www.w3.org/Graphics/SVG/1.1/DTD/svg11.dtd">
<!-- Generated by graphviz version 2.36.0 (20140111.2315)
 -->
<!-- Title: gui.mainclasses.DrawableObjectParser.parseDrawableObject Pages: 1 -->
<!--zoomable 136 -->
<svg id="main" version="1.1" xmlns="http://www.w3.org/2000/svg" xmlns:xlink="http://www.w3.org/1999/xlink" xml:space="preserve" onload="init(evt)">
<style type="text/css"><![CDATA[
.edge:hover path { stroke: red; }
.edge:hover polygon { stroke: red; fill: red; }
]]></style>
<script type="text/javascript"><![CDATA[
var edges = document.getElementsByTagName('g');
if (edges && edges.length) {
  for (var i=0;i<edges.length;i++) {
    if (edges[i].id.substr(0,4)=='edge') {
      edges[i].setAttribute('class','edge');
    }
  }
}
]]></script>
        <defs>
                <circle id="rim" cx="0" cy="0" r="7"/>
                <circle id="rim2" cx="0" cy="0" r="3.5"/>
                <g id="zoomPlus">
                        <use xlink:href="#rim" fill="#404040">
                                <set attributeName="fill" to="#808080" begin="zoomplus.mouseover" end="zoomplus.mouseout"/>
                        </use>
                        <path d="M-4,0h8M0,-4v8" fill="none" stroke="white" stroke-width="1.5" pointer-events="none"/>
                </g>
                <g id="zoomMin">
                        <use xlink:href="#rim" fill="#404040">
                                <set attributeName="fill" to="#808080" begin="zoomminus.mouseover" end="zoomminus.mouseout"/>
                        </use>
                        <path d="M-4,0h8" fill="none" stroke="white" stroke-width="1.5" pointer-events="none"/>
                </g>
                <g id="dirArrow">
                        <path fill="none" stroke="white" stroke-width="1.5" d="M0,-3.0v7 M-2.5,-0.5L0,-3.0L2.5,-0.5"/>
                </g>
               <g id="resetDef">
                       <use xlink:href="#rim2" fill="#404040">
                               <set attributeName="fill" to="#808080" begin="reset.mouseover" end="reset.mouseout"/>
                       </use>
               </g>
        </defs>

<script type="text/javascript">
var viewWidth = 648;
var viewHeight = 136;
var sectionId = 'dynsection-1';
</script>
<script xlink:href="../../svgpan.js"/>
<svg id="graph" class="graph">
<g id="viewport">
<title>gui.mainclasses.DrawableObjectParser.parseDrawableObject</title>
<polygon fill="white" stroke="none" points="-4,4 -4,-132 644,-132 644,4 -4,4"/>
<!-- Node1 -->
<g id="node1" class="node"><title>Node1</title>
<polygon fill="#bfbfbf" stroke="black" points="0,-49 0,-79 182,-79 182,-49 0,-49"/>
<text text-anchor="start" x="8" y="-67" font-family="Helvetica,sans-Serif" font-size="10.00">gui.mainclasses.Drawable</text>
<text text-anchor="middle" x="91" y="-56" font-family="Helvetica,sans-Serif" font-size="10.00">ObjectParser.parseDrawableObject</text>
</g>
<!-- Node2 -->
<g id="node2" class="node"><title>Node2</title>
<g id="a_node2"><a xlink:href="../../d0/dda/classgui_1_1componentdrawers_1_1_component_drawer.html#a7866683582ed9aebe665c7998d549fbb" target="_top" xlink:title="gui.componentdrawers.Component\lDrawer.drawShape">
<polygon fill="white" stroke="black" points="224.5,-98 224.5,-128 409.5,-128 409.5,-98 224.5,-98"/>
<text text-anchor="start" x="232.5" y="-116" font-family="Helvetica,sans-Serif" font-size="10.00">gui.componentdrawers.Component</text>
<text text-anchor="middle" x="317" y="-105" font-family="Helvetica,sans-Serif" font-size="10.00">Drawer.drawShape</text>
</a>
</g>
</g>
<!-- Node1&#45;&gt;Node2 -->
<g id="edge1" class="edge"><title>Node1&#45;&gt;Node2</title>
<path fill="none" stroke="midnightblue" d="M160.73,-79.0346C185.026,-84.3494 212.533,-90.3665 237.572,-95.844"/>
<polygon fill="midnightblue" stroke="midnightblue" points="236.883,-99.2759 247.4,-97.9938 238.379,-92.4376 236.883,-99.2759"/>
</g>
<!-- Node3 -->
<g id="node3" class="node"><title>Node3</title>
<g id="a_node3"><a xlink:href="../../db/db2/classgui_1_1mainclasses_1_1_drawable_object_parser.html#adb6188c1155c494e00251c5e7d5f3e7a" target="_top" xlink:title="gui.mainclasses.Drawable\lObjectParser.parseComponentDrawer">
<polygon fill="white" stroke="black" points="218.5,-49 218.5,-79 415.5,-79 415.5,-49 218.5,-49"/>
<text text-anchor="start" x="226.5" y="-67" font-family="Helvetica,sans-Serif" font-size="10.00">gui.mainclasses.Drawable</text>
<text text-anchor="middle" x="317" y="-56" font-family="Helvetica,sans-Serif" font-size="10.00">ObjectParser.parseComponentDrawer</text>
</a>
</g>
</g>
<!-- Node1&#45;&gt;Node3 -->
<g id="edge2" class="edge"><title>Node1&#45;&gt;Node3</title>
<path fill="none" stroke="midnightblue" d="M182.141,-64C190.704,-64 199.445,-64 208.152,-64"/>
<polygon fill="midnightblue" stroke="midnightblue" points="208.345,-67.5001 218.345,-64 208.345,-60.5001 208.345,-67.5001"/>
</g>
<!-- Node4 -->
<g id="node4" class="node"><title>Node4</title>
<g id="a_node4"><a xlink:href="../../db/db2/classgui_1_1mainclasses_1_1_drawable_object_parser.html#ac93f66a3adf4230d9c365f8628083a3c" target="_top" xlink:title="gui.mainclasses.Drawable\lObjectParser.parseNodeToDraw">
<polygon fill="white" stroke="black" points="234,-0 234,-30 400,-30 400,-0 234,-0"/>
<text text-anchor="start" x="242" y="-18" font-family="Helvetica,sans-Serif" font-size="10.00">gui.mainclasses.Drawable</text>
<text text-anchor="middle" x="317" y="-7" font-family="Helvetica,sans-Serif" font-size="10.00">ObjectParser.parseNodeToDraw</text>
</a>
</g>
</g>
<!-- Node1&#45;&gt;Node4 -->
<g id="edge3" class="edge"><title>Node1&#45;&gt;Node4</title>
<path fill="none" stroke="midnightblue" d="M160.73,-48.9654C185.026,-43.6506 212.533,-37.6335 237.572,-32.156"/>
<polygon fill="midnightblue" stroke="midnightblue" points="238.379,-35.5624 247.4,-30.0062 236.883,-28.7241 238.379,-35.5624"/>
</g>
<!-- Node5 -->
<g id="node5" class="node"><title>Node5</title>
<g id="a_node5"><a xlink:href="../../d1/d60/classgui_1_1factories_1_1_object_factory.html#aae1042d4fe6455bf3dbeb6fea18df24a" target="_top" xlink:title="gui.factories.ObjectFactory.generate\lObject">
<polygon fill="white" stroke="black" points="452,-0 452,-30 640,-30 640,-0 452,-0"/>
<text text-anchor="start" x="460" y="-18" font-family="Helvetica,sans-Serif" font-size="10.00">gui.factories.ObjectFactory.generate</text>
<text text-anchor="middle" x="546" y="-7" font-family="Helvetica,sans-Serif" font-size="10.00">Object</text>
</a>
</g>
</g>
<!-- Node4&#45;&gt;Node5 -->
<g id="edge4" class="edge"><title>Node4&#45;&gt;Node5</title>
<path fill="none" stroke="midnightblue" d="M400.273,-15C413.75,-15 427.865,-15 441.771,-15"/>
<polygon fill="midnightblue" stroke="midnightblue" points="441.849,-18.5001 451.849,-15 441.849,-11.5001 441.849,-18.5001"/>
</g>
</g>
</svg>
        <g id="navigator" transform="translate(0 0)" fill="#404254">
                <rect fill="#f2f5e9" fill-opacity="0.5" stroke="#606060" stroke-width=".5" x="0" y="0" width="60" height="60"/>
                <use id="zoomplus" xlink:href="#zoomPlus" x="17" y="9" onmousedown="handleZoom(evt,'in')"/>
                <use id="zoomminus" xlink:href="#zoomMin" x="42" y="9" onmousedown="handleZoom(evt,'out')"/>
                <use id="reset" xlink:href="#resetDef" x="30" y="36" onmousedown="handleReset()"/>
                <g id="arrowUp" xlink:href="#dirArrow" transform="translate(30 24)" onmousedown="handlePan(0,-1)">
                  <use xlink:href="#rim" fill="#404040">
                        <set attributeName="fill" to="#808080" begin="arrowUp.mouseover" end="arrowUp.mouseout"/>
                  </use>
                  <path fill="none" stroke="white" stroke-width="1.5" d="M0,-3.0v7 M-2.5,-0.5L0,-3.0L2.5,-0.5"/>
                </g>
                <g id="arrowRight" xlink:href="#dirArrow" transform="rotate(90) translate(36 -43)" onmousedown="handlePan(1,0)">
                  <use xlink:href="#rim" fill="#404040">
                        <set attributeName="fill" to="#808080" begin="arrowRight.mouseover" end="arrowRight.mouseout"/>
                  </use>
                  <path fill="none" stroke="white" stroke-width="1.5" d="M0,-3.0v7 M-2.5,-0.5L0,-3.0L2.5,-0.5"/>
                </g>
                <g id="arrowDown" xlink:href="#dirArrow" transform="rotate(180) translate(-30 -48)" onmousedown="handlePan(0,1)">
                  <use xlink:href="#rim" fill="#404040">
                        <set attributeName="fill" to="#808080" begin="arrowDown.mouseover" end="arrowDown.mouseout"/>
                  </use>
                  <path fill="none" stroke="white" stroke-width="1.5" d="M0,-3.0v7 M-2.5,-0.5L0,-3.0L2.5,-0.5"/>
                </g>
                <g id="arrowLeft" xlink:href="#dirArrow" transform="rotate(270) translate(-36 17)" onmousedown="handlePan(-1,0)">
                  <use xlink:href="#rim" fill="#404040">
                        <set attributeName="fill" to="#808080" begin="arrowLeft.mouseover" end="arrowLeft.mouseout"/>
                  </use>
                  <path fill="none" stroke="white" stroke-width="1.5" d="M0,-3.0v7 M-2.5,-0.5L0,-3.0L2.5,-0.5"/>
                </g>
        </g>
        <svg viewBox="0 0 15 15" width="100%" height="30px" preserveAspectRatio="xMaxYMin meet">
         <g id="arrow_out" transform="scale(0.3 0.3)">
          <a xlink:href="classgui_1_1mainclasses_1_1_drawable_object_parser_af82adbaff13327029a151db1a0a0acdb_cgraph_org.svg" target="_base">
           <rect id="button" ry="5" rx="5" y="6" x="6" height="38" width="38"
                fill="#f2f5e9" fill-opacity="0.5" stroke="#606060" stroke-width="1.0"/>
           <path id="arrow"
             d="M 11.500037,31.436501 C 11.940474,20.09759 22.043105,11.32322 32.158766,21.979434 L 37.068811,17.246167 C 37.068811,17.246167 37.088388,32 37.088388,32 L 22.160133,31.978069 C 22.160133,31.978069 26.997745,27.140456 26.997745,27.140456 C 18.528582,18.264221 13.291696,25.230495 11.500037,31.436501 z"
             style="fill:#404040;"/>
          </a>
         </g>
        </svg>
</svg>
