<?xml version="1.0" encoding="UTF-8" standalone="no"?>
<!DOCTYPE svg PUBLIC "-//W3C//DTD SVG 1.1//EN"
 "http://www.w3.org/Graphics/SVG/1.1/DTD/svg11.dtd">
<!-- Generated by graphviz version 2.36.0 (20140111.2315)
 -->
<!-- Title: gui.buttonfeatures.SaveCommandButtonFeature.SaveCommandButtonFeature Pages: 1 -->
<svg width="672pt" height="87pt"
 viewBox="0.00 0.00 672.00 87.00" xmlns="http://www.w3.org/2000/svg" xmlns:xlink="http://www.w3.org/1999/xlink">
<g id="graph0" class="graph" transform="scale(1 1) rotate(0) translate(4 83)">
<title>gui.buttonfeatures.SaveCommandButtonFeature.SaveCommandButtonFeature</title>
<polygon fill="white" stroke="none" points="-4,4 -4,-83 668,-83 668,4 -4,4"/>
<!-- Node1 -->
<g id="node1" class="node"><title>Node1</title>
<polygon fill="#bfbfbf" stroke="black" points="0,-24 0,-54 230,-54 230,-24 0,-24"/>
<text text-anchor="start" x="8" y="-42" font-family="Helvetica,sans-Serif" font-size="10.00">gui.buttonfeatures.SaveCommand</text>
<text text-anchor="middle" x="115" y="-31" font-family="Helvetica,sans-Serif" font-size="10.00">ButtonFeature.SaveCommandButtonFeature</text>
</g>
<!-- Node2 -->
<g id="node2" class="node"><title>Node2</title>
<g id="a_node2"><a xlink:href="../../dd/d11/classgui_1_1buttonfeatures_1_1_save_command_button_feature.html#a5c5a00043f5b13347ae4ce993daa93fb" target="_top" xlink:title="gui.buttonfeatures.SaveCommand\lButtonFeature.saveCommand">
<polygon fill="white" stroke="black" points="266,-24 266,-54 448,-54 448,-24 266,-24"/>
<text text-anchor="start" x="274" y="-42" font-family="Helvetica,sans-Serif" font-size="10.00">gui.buttonfeatures.SaveCommand</text>
<text text-anchor="middle" x="357" y="-31" font-family="Helvetica,sans-Serif" font-size="10.00">ButtonFeature.saveCommand</text>
</a>
</g>
</g>
<!-- Node1&#45;&gt;Node2 -->
<g id="edge1" class="edge"><title>Node1&#45;&gt;Node2</title>
<path fill="none" stroke="midnightblue" d="M230.026,-39C238.538,-39 247.091,-39 255.512,-39"/>
<polygon fill="midnightblue" stroke="midnightblue" points="255.706,-42.5001 265.706,-39 255.706,-35.5001 255.706,-42.5001"/>
</g>
<!-- Node3 -->
<g id="node3" class="node"><title>Node3</title>
<g id="a_node3"><a xlink:href="../../d8/d70/classgui_1_1componentdrawers_1_1_command_line_drawer.html#a586cc30b8b8064d9203938b452aa7c94" target="_top" xlink:title="gui.componentdrawers.Command\lLineDrawer.getCurrentCommand">
<polygon fill="white" stroke="black" points="484.5,-49 484.5,-79 663.5,-79 663.5,-49 484.5,-49"/>
<text text-anchor="start" x="492.5" y="-67" font-family="Helvetica,sans-Serif" font-size="10.00">gui.componentdrawers.Command</text>
<text text-anchor="middle" x="574" y="-56" font-family="Helvetica,sans-Serif" font-size="10.00">LineDrawer.getCurrentCommand</text>
</a>
</g>
</g>
<!-- Node2&#45;&gt;Node3 -->
<g id="edge2" class="edge"><title>Node2&#45;&gt;Node3</title>
<path fill="none" stroke="midnightblue" d="M448.245,-49.4936C456.835,-50.4924 465.576,-51.5088 474.24,-52.5163"/>
<polygon fill="midnightblue" stroke="midnightblue" points="474.026,-56.0149 484.363,-53.6934 474.835,-49.0617 474.026,-56.0149"/>
</g>
<!-- Node4 -->
<g id="node4" class="node"><title>Node4</title>
<g id="a_node4"><a xlink:href="../../d1/de9/classgui_1_1nonbuttonfeatures_1_1_saved_commands_feature.html#a8f35f127939243399954ff07406a069d" target="_top" xlink:title="gui.nonbuttonfeatures.Saved\lCommandsFeature.addCommand">
<polygon fill="white" stroke="black" points="484.5,-0 484.5,-30 663.5,-30 663.5,-0 484.5,-0"/>
<text text-anchor="start" x="492.5" y="-18" font-family="Helvetica,sans-Serif" font-size="10.00">gui.nonbuttonfeatures.Saved</text>
<text text-anchor="middle" x="574" y="-7" font-family="Helvetica,sans-Serif" font-size="10.00">CommandsFeature.addCommand</text>
</a>
</g>
</g>
<!-- Node2&#45;&gt;Node4 -->
<g id="edge3" class="edge"><title>Node2&#45;&gt;Node4</title>
<path fill="none" stroke="midnightblue" d="M448.245,-28.9262C456.835,-27.9673 465.576,-26.9915 474.24,-26.0243"/>
<polygon fill="midnightblue" stroke="midnightblue" points="474.813,-29.4822 484.363,-24.8943 474.037,-22.5254 474.813,-29.4822"/>
</g>
</g>
</svg>
