<?xml version="1.0" encoding="UTF-8" standalone="no"?>
<!DOCTYPE svg PUBLIC "-//W3C//DTD SVG 1.1//EN"
 "http://www.w3.org/Graphics/SVG/1.1/DTD/svg11.dtd">
<!-- Generated by graphviz version 2.36.0 (20140111.2315)
 -->
<!-- Title: gui.buttonfeatures.SaveCommandButtonFeature.saveCommand Pages: 1 -->
<svg width="456pt" height="38pt"
 viewBox="0.00 0.00 456.00 38.00" xmlns="http://www.w3.org/2000/svg" xmlns:xlink="http://www.w3.org/1999/xlink">
<g id="graph0" class="graph" transform="scale(1 1) rotate(0) translate(4 34)">
<title>gui.buttonfeatures.SaveCommandButtonFeature.saveCommand</title>
<polygon fill="white" stroke="none" points="-4,4 -4,-34 452,-34 452,4 -4,4"/>
<!-- Node1 -->
<g id="node1" class="node"><title>Node1</title>
<polygon fill="#bfbfbf" stroke="black" points="0,-0 0,-30 182,-30 182,-0 0,-0"/>
<text text-anchor="start" x="8" y="-18" font-family="Helvetica,sans-Serif" font-size="10.00">gui.buttonfeatures.SaveCommand</text>
<text text-anchor="middle" x="91" y="-7" font-family="Helvetica,sans-Serif" font-size="10.00">ButtonFeature.saveCommand</text>
</g>
<!-- Node2 -->
<g id="node2" class="node"><title>Node2</title>
<g id="a_node2"><a xlink:href="../../dd/d11/classgui_1_1buttonfeatures_1_1_save_command_button_feature.html#a43c4de933c5d307618beae2c827fc6e6" target="_top" xlink:title="gui.buttonfeatures.SaveCommand\lButtonFeature.SaveCommandButtonFeature">
<polygon fill="white" stroke="black" points="218,-0 218,-30 448,-30 448,-0 218,-0"/>
<text text-anchor="start" x="226" y="-18" font-family="Helvetica,sans-Serif" font-size="10.00">gui.buttonfeatures.SaveCommand</text>
<text text-anchor="middle" x="333" y="-7" font-family="Helvetica,sans-Serif" font-size="10.00">ButtonFeature.SaveCommandButtonFeature</text>
</a>
</g>
</g>
<!-- Node1&#45;&gt;Node2 -->
<g id="edge1" class="edge"><title>Node1&#45;&gt;Node2</title>
<path fill="none" stroke="midnightblue" d="M192.29,-15C200.75,-15 209.344,-15 217.898,-15"/>
<polygon fill="midnightblue" stroke="midnightblue" points="192.05,-11.5001 182.05,-15 192.05,-18.5001 192.05,-11.5001"/>
</g>
</g>
</svg>
