<?xml version="1.0" encoding="UTF-8" standalone="no"?>
<!DOCTYPE svg PUBLIC "-//W3C//DTD SVG 1.1//EN"
 "http://www.w3.org/Graphics/SVG/1.1/DTD/svg11.dtd">
<!-- Generated by graphviz version 2.36.0 (20140111.2315)
 -->
<!-- Title: commandParsing.structuralCommandParsing.For Pages: 1 -->
<svg width="852pt" height="98pt"
 viewBox="0.00 0.00 852.00 98.00" xmlns="http://www.w3.org/2000/svg" xmlns:xlink="http://www.w3.org/1999/xlink">
<g id="graph0" class="graph" transform="scale(1 1) rotate(0) translate(4 94)">
<title>commandParsing.structuralCommandParsing.For</title>
<polygon fill="white" stroke="none" points="-4,4 -4,-94 848,-94 848,4 -4,4"/>
<!-- Node1 -->
<g id="node1" class="node"><title>Node1</title>
<polygon fill="#bfbfbf" stroke="black" points="694.5,-33 694.5,-63 843.5,-63 843.5,-33 694.5,-33"/>
<text text-anchor="start" x="702.5" y="-51" font-family="Helvetica,sans-Serif" font-size="10.00">commandParsing.structural</text>
<text text-anchor="middle" x="769" y="-40" font-family="Helvetica,sans-Serif" font-size="10.00">CommandParsing.For</text>
</g>
<!-- Node2 -->
<g id="node2" class="node"><title>Node2</title>
<g id="a_node2"><a xlink:href="../../d0/dfe/classcommand_parsing_1_1structural_command_parsing_1_1_recurring_command.html" target="_top" xlink:title="commandParsing.structural\lCommandParsing.RecurringCommand">
<polygon fill="white" stroke="black" points="458.5,-33 458.5,-63 657.5,-63 657.5,-33 458.5,-33"/>
<text text-anchor="start" x="466.5" y="-51" font-family="Helvetica,sans-Serif" font-size="10.00">commandParsing.structural</text>
<text text-anchor="middle" x="558" y="-40" font-family="Helvetica,sans-Serif" font-size="10.00">CommandParsing.RecurringCommand</text>
</a>
</g>
</g>
<!-- Node2&#45;&gt;Node1 -->
<g id="edge1" class="edge"><title>Node2&#45;&gt;Node1</title>
<path fill="none" stroke="midnightblue" d="M667.84,-48C676.83,-48 685.777,-48 694.415,-48"/>
<polygon fill="midnightblue" stroke="midnightblue" points="667.686,-44.5001 657.686,-48 667.686,-51.5001 667.686,-44.5001"/>
</g>
<!-- Node3 -->
<g id="node3" class="node"><title>Node3</title>
<g id="a_node3"><a xlink:href="../../de/dcc/classcommand_parsing_1_1structural_command_parsing_1_1_structural_command.html" target="_top" xlink:title="commandParsing.structural\lCommandParsing.StructuralCommand">
<polygon fill="white" stroke="black" points="220,-60 220,-90 422,-90 422,-60 220,-60"/>
<text text-anchor="start" x="228" y="-78" font-family="Helvetica,sans-Serif" font-size="10.00">commandParsing.structural</text>
<text text-anchor="middle" x="321" y="-67" font-family="Helvetica,sans-Serif" font-size="10.00">CommandParsing.StructuralCommand</text>
</a>
</g>
</g>
<!-- Node3&#45;&gt;Node2 -->
<g id="edge2" class="edge"><title>Node3&#45;&gt;Node2</title>
<path fill="none" stroke="midnightblue" d="M432.168,-62.3424C440.859,-61.3438 449.604,-60.3391 458.211,-59.3502"/>
<polygon fill="midnightblue" stroke="midnightblue" points="431.537,-58.8918 422.002,-63.5104 432.336,-65.846 431.537,-58.8918"/>
</g>
<!-- Node4 -->
<g id="node4" class="node"><title>Node4</title>
<g id="a_node4"><a xlink:href="../../d7/d17/classcommand_parsing_1_1_command_parser.html" target="_top" xlink:title="commandParsing.CommandParser">
<polygon fill="white" stroke="black" points="0.5,-65.5 0.5,-84.5 183.5,-84.5 183.5,-65.5 0.5,-65.5"/>
<text text-anchor="middle" x="92" y="-72.5" font-family="Helvetica,sans-Serif" font-size="10.00">commandParsing.CommandParser</text>
</a>
</g>
</g>
<!-- Node4&#45;&gt;Node3 -->
<g id="edge3" class="edge"><title>Node4&#45;&gt;Node3</title>
<path fill="none" stroke="midnightblue" d="M193.768,-75C202.398,-75 211.127,-75 219.753,-75"/>
<polygon fill="midnightblue" stroke="midnightblue" points="193.695,-71.5001 183.695,-75 193.695,-78.5001 193.695,-71.5001"/>
</g>
<!-- Node5 -->
<g id="node5" class="node"><title>Node5</title>
<g id="a_node5"><a xlink:href="../../d5/dc4/interfacecommand_parsing_1_1drawable_obect_generation_interfaces_1_1_user_defined_variable_generator.html" target="_top" xlink:title="commandParsing.drawableObect\lGenerationInterfaces.UserDefined\lVariableGenerator">
<polygon fill="white" stroke="black" points="231.5,-0.5 231.5,-41.5 410.5,-41.5 410.5,-0.5 231.5,-0.5"/>
<text text-anchor="start" x="239.5" y="-29.5" font-family="Helvetica,sans-Serif" font-size="10.00">commandParsing.drawableObect</text>
<text text-anchor="start" x="239.5" y="-18.5" font-family="Helvetica,sans-Serif" font-size="10.00">GenerationInterfaces.UserDefined</text>
<text text-anchor="middle" x="321" y="-7.5" font-family="Helvetica,sans-Serif" font-size="10.00">VariableGenerator</text>
</a>
</g>
</g>
<!-- Node5&#45;&gt;Node2 -->
<g id="edge4" class="edge"><title>Node5&#45;&gt;Node2</title>
<path fill="none" stroke="midnightblue" d="M420.475,-32.3141C432.995,-33.7526 445.811,-35.2251 458.334,-36.6639"/>
<polygon fill="midnightblue" stroke="midnightblue" points="420.843,-28.8335 410.509,-31.1691 420.044,-35.7877 420.843,-28.8335"/>
</g>
</g>
</svg>
