<?xml version="1.0" encoding="UTF-8" standalone="no"?>
<!DOCTYPE svg PUBLIC "-//W3C//DTD SVG 1.1//EN"
 "http://www.w3.org/Graphics/SVG/1.1/DTD/svg11.dtd">
<!-- Generated by graphviz version 2.36.0 (20140111.2315)
 -->
<!-- Title: Control.SlogoGraphics.parseCommandString Pages: 1 -->
<svg width="1068pt" height="489pt"
 viewBox="0.00 0.00 1068.00 489.00" xmlns="http://www.w3.org/2000/svg" xmlns:xlink="http://www.w3.org/1999/xlink">
<g id="graph0" class="graph" transform="scale(1 1) rotate(0) translate(4 485)">
<title>Control.SlogoGraphics.parseCommandString</title>
<polygon fill="white" stroke="none" points="-4,4 -4,-485 1064,-485 1064,4 -4,4"/>
<!-- Node1 -->
<g id="node1" class="node"><title>Node1</title>
<polygon fill="#bfbfbf" stroke="black" points="0.5,-303 0.5,-333 153.5,-333 153.5,-303 0.5,-303"/>
<text text-anchor="start" x="8.5" y="-321" font-family="Helvetica,sans-Serif" font-size="10.00">Control.SlogoGraphics.parse</text>
<text text-anchor="middle" x="77" y="-310" font-family="Helvetica,sans-Serif" font-size="10.00">CommandString</text>
</g>
<!-- Node2 -->
<g id="node2" class="node"><title>Node2</title>
<g id="a_node2"><a xlink:href="../../d8/df2/classgui_1_1mainclasses_1_1workspace_1_1_workspace.html#a01dff18cc9fa51688c0ba996b3ff9b6a" target="_top" xlink:title="gui.mainclasses.workspace.\lWorkspace.moveActiveTurtles">
<polygon fill="white" stroke="black" points="199,-377 199,-407 357,-407 357,-377 199,-377"/>
<text text-anchor="start" x="207" y="-395" font-family="Helvetica,sans-Serif" font-size="10.00">gui.mainclasses.workspace.</text>
<text text-anchor="middle" x="278" y="-384" font-family="Helvetica,sans-Serif" font-size="10.00">Workspace.moveActiveTurtles</text>
</a>
</g>
</g>
<!-- Node1&#45;&gt;Node2 -->
<g id="edge1" class="edge"><title>Node1&#45;&gt;Node2</title>
<path fill="none" stroke="midnightblue" d="M128.371,-336.731C161.908,-349.202 205.388,-365.37 236.644,-376.993"/>
<polygon fill="midnightblue" stroke="midnightblue" points="129.344,-333.359 118.751,-333.154 126.904,-339.92 129.344,-333.359"/>
</g>
<!-- Node5 -->
<g id="node5" class="node"><title>Node5</title>
<g id="a_node5"><a xlink:href="../../d8/df2/classgui_1_1mainclasses_1_1workspace_1_1_workspace.html#a1c6c6c0599097fbf5e9a660ec0ac3702" target="_top" xlink:title="gui.mainclasses.workspace.\lWorkspace.parseCommandString">
<polygon fill="white" stroke="black" points="190,-230 190,-260 366,-260 366,-230 190,-230"/>
<text text-anchor="start" x="198" y="-248" font-family="Helvetica,sans-Serif" font-size="10.00">gui.mainclasses.workspace.</text>
<text text-anchor="middle" x="278" y="-237" font-family="Helvetica,sans-Serif" font-size="10.00">Workspace.parseCommandString</text>
</a>
</g>
</g>
<!-- Node1&#45;&gt;Node5 -->
<g id="edge4" class="edge"><title>Node1&#45;&gt;Node5</title>
<path fill="none" stroke="midnightblue" d="M128.76,-299.379C161.95,-287.204 204.748,-271.504 235.82,-260.106"/>
<polygon fill="midnightblue" stroke="midnightblue" points="127.416,-296.144 119.233,-302.874 129.827,-302.716 127.416,-296.144"/>
</g>
<!-- Node3 -->
<g id="node3" class="node"><title>Node3</title>
<g id="a_node3"><a xlink:href="../../d5/d3d/classgui_1_1mainclasses_1_1_g_u_i_controller.html#af8e32f667f89b5d6c80f282c2947fe84" target="_top" xlink:title="gui.mainclasses.GUIController.move\lActiveTurtlesInActiveWorkspace">
<polygon fill="white" stroke="black" points="419.5,-451 419.5,-481 608.5,-481 608.5,-451 419.5,-451"/>
<text text-anchor="start" x="427.5" y="-469" font-family="Helvetica,sans-Serif" font-size="10.00">gui.mainclasses.GUIController.move</text>
<text text-anchor="middle" x="514" y="-458" font-family="Helvetica,sans-Serif" font-size="10.00">ActiveTurtlesInActiveWorkspace</text>
</a>
</g>
</g>
<!-- Node2&#45;&gt;Node3 -->
<g id="edge2" class="edge"><title>Node2&#45;&gt;Node3</title>
<path fill="none" stroke="midnightblue" d="M321.956,-411.046C345.31,-420.906 374.886,-432.603 402,-441 413.699,-444.623 426.242,-447.957 438.534,-450.931"/>
<polygon fill="midnightblue" stroke="midnightblue" points="323.252,-407.793 312.681,-407.088 320.505,-414.232 323.252,-407.793"/>
</g>
<!-- Node4 -->
<g id="node4" class="node"><title>Node4</title>
<g id="a_node4"><a xlink:href="../../d5/d3d/classgui_1_1mainclasses_1_1_g_u_i_controller.html#aa8f2d03270ced2e768ccad9c0c925b3f" target="_top" xlink:title="gui.mainclasses.GUIController.\lGUIController">
<polygon fill="white" stroke="black" points="693,-451 693,-481 855,-481 855,-451 693,-451"/>
<text text-anchor="start" x="701" y="-469" font-family="Helvetica,sans-Serif" font-size="10.00">gui.mainclasses.GUIController.</text>
<text text-anchor="middle" x="774" y="-458" font-family="Helvetica,sans-Serif" font-size="10.00">GUIController</text>
</a>
</g>
</g>
<!-- Node3&#45;&gt;Node4 -->
<g id="edge3" class="edge"><title>Node3&#45;&gt;Node4</title>
<path fill="none" stroke="midnightblue" d="M618.608,-466C643.243,-466 669.164,-466 692.584,-466"/>
<polygon fill="midnightblue" stroke="midnightblue" points="618.509,-462.5 608.509,-466 618.509,-469.5 618.509,-462.5"/>
</g>
<!-- Node6 -->
<g id="node6" class="node"><title>Node6</title>
<g id="a_node6"><a xlink:href="../../d8/df2/classgui_1_1mainclasses_1_1workspace_1_1_workspace.html#afe27c5d2bffafe1e1092a0319331cc33" target="_top" xlink:title="gui.mainclasses.workspace.\lWorkspace.notifyOfTurtleSelection\lChange">
<polygon fill="white" stroke="black" points="425.5,-391.5 425.5,-432.5 602.5,-432.5 602.5,-391.5 425.5,-391.5"/>
<text text-anchor="start" x="433.5" y="-420.5" font-family="Helvetica,sans-Serif" font-size="10.00">gui.mainclasses.workspace.</text>
<text text-anchor="start" x="433.5" y="-409.5" font-family="Helvetica,sans-Serif" font-size="10.00">Workspace.notifyOfTurtleSelection</text>
<text text-anchor="middle" x="514" y="-398.5" font-family="Helvetica,sans-Serif" font-size="10.00">Change</text>
</a>
</g>
</g>
<!-- Node5&#45;&gt;Node6 -->
<g id="edge5" class="edge"><title>Node5&#45;&gt;Node6</title>
<path fill="none" stroke="midnightblue" d="M294.919,-268.46C316.071,-297.908 356.151,-348.059 402,-377 410.885,-382.609 420.741,-387.383 430.805,-391.43"/>
<polygon fill="midnightblue" stroke="midnightblue" points="297.6,-266.188 288.977,-260.032 291.879,-270.221 297.6,-266.188"/>
</g>
<!-- Node9 -->
<g id="node9" class="node"><title>Node9</title>
<g id="a_node9"><a xlink:href="../../d1/dea/classgui_1_1menus_1_1_file_menu.html#ae040d0be1f3ff61aae358d2d6894619e" target="_top" xlink:title="gui.menus.FileMenu.FileMenu">
<polygon fill="white" stroke="black" points="696.5,-331.5 696.5,-350.5 851.5,-350.5 851.5,-331.5 696.5,-331.5"/>
<text text-anchor="middle" x="774" y="-338.5" font-family="Helvetica,sans-Serif" font-size="10.00">gui.menus.FileMenu.FileMenu</text>
</a>
</g>
</g>
<!-- Node5&#45;&gt;Node9 -->
<g id="edge8" class="edge"><title>Node5&#45;&gt;Node9</title>
<path fill="none" stroke="midnightblue" d="M298.694,-267.965C320.946,-291.976 359.625,-328.183 402,-343 514.33,-382.278 657.752,-363.822 728.885,-350.506"/>
<polygon fill="midnightblue" stroke="midnightblue" points="301.099,-265.407 291.795,-260.339 295.908,-270.103 301.099,-265.407"/>
</g>
<!-- Node10 -->
<g id="node10" class="node"><title>Node10</title>
<g id="a_node10"><a xlink:href="../../d1/dea/classgui_1_1menus_1_1_file_menu.html#a74457f2750f6a40c52c28de3c6842fd1" target="_top" xlink:title="gui.menus.FileMenu.addTurtle\lToWorkspace">
<polygon fill="white" stroke="black" points="435,-304 435,-334 593,-334 593,-304 435,-304"/>
<text text-anchor="start" x="443" y="-322" font-family="Helvetica,sans-Serif" font-size="10.00">gui.menus.FileMenu.addTurtle</text>
<text text-anchor="middle" x="514" y="-311" font-family="Helvetica,sans-Serif" font-size="10.00">ToWorkspace</text>
</a>
</g>
</g>
<!-- Node5&#45;&gt;Node10 -->
<g id="edge9" class="edge"><title>Node5&#45;&gt;Node10</title>
<path fill="none" stroke="midnightblue" d="M321.956,-264.046C345.31,-273.906 374.886,-285.603 402,-294 413.699,-297.623 426.242,-300.957 438.534,-303.931"/>
<polygon fill="midnightblue" stroke="midnightblue" points="323.252,-260.793 312.681,-260.088 320.505,-267.232 323.252,-260.793"/>
</g>
<!-- Node11 -->
<g id="node11" class="node"><title>Node11</title>
<g id="a_node11"><a xlink:href="../../d0/d64/classgui_1_1nonbuttonfeatures_1_1_command_line_feature.html#a4dff445024bfeb311bd236e17ddbacb5" target="_top" xlink:title="gui.nonbuttonfeatures.Command\lLineFeature.CommandLineFeature">
<polygon fill="white" stroke="black" points="423.5,-255 423.5,-285 604.5,-285 604.5,-255 423.5,-255"/>
<text text-anchor="start" x="431.5" y="-273" font-family="Helvetica,sans-Serif" font-size="10.00">gui.nonbuttonfeatures.Command</text>
<text text-anchor="middle" x="514" y="-262" font-family="Helvetica,sans-Serif" font-size="10.00">LineFeature.CommandLineFeature</text>
</a>
</g>
</g>
<!-- Node5&#45;&gt;Node11 -->
<g id="edge11" class="edge"><title>Node5&#45;&gt;Node11</title>
<path fill="none" stroke="midnightblue" d="M376.313,-255.397C391.929,-257.065 408.026,-258.785 423.449,-260.433"/>
<polygon fill="midnightblue" stroke="midnightblue" points="376.448,-251.891 366.133,-254.309 375.705,-258.852 376.448,-251.891"/>
</g>
<!-- Node12 -->
<g id="node12" class="node"><title>Node12</title>
<g id="a_node12"><a xlink:href="../../d7/dcb/classgui_1_1nonbuttonfeatures_1_1pen_1_1_pen_color_picker_feature.html#a3078379f2eb940905e5ef7001540562f" target="_top" xlink:title="gui.nonbuttonfeatures.pen.\lPenColorPickerFeature.changePenColor">
<polygon fill="white" stroke="black" points="411.5,-206 411.5,-236 616.5,-236 616.5,-206 411.5,-206"/>
<text text-anchor="start" x="419.5" y="-224" font-family="Helvetica,sans-Serif" font-size="10.00">gui.nonbuttonfeatures.pen.</text>
<text text-anchor="middle" x="514" y="-213" font-family="Helvetica,sans-Serif" font-size="10.00">PenColorPickerFeature.changePenColor</text>
</a>
</g>
</g>
<!-- Node5&#45;&gt;Node12 -->
<g id="edge12" class="edge"><title>Node5&#45;&gt;Node12</title>
<path fill="none" stroke="midnightblue" d="M376.205,-235.03C387.757,-233.845 399.574,-232.633 411.188,-231.442"/>
<polygon fill="midnightblue" stroke="midnightblue" points="375.724,-231.561 366.133,-236.063 376.438,-238.525 375.724,-231.561"/>
</g>
<!-- Node14 -->
<g id="node14" class="node"><title>Node14</title>
<g id="a_node14"><a xlink:href="../../df/da5/classgui_1_1nonbuttonfeatures_1_1pen_1_1_pen_thickness_slider_feature.html#a28590dd5170b40217f2a9179df0f7f4f" target="_top" xlink:title="gui.nonbuttonfeatures.pen.\lPenThicknessSliderFeature.setPenSize">
<polygon fill="white" stroke="black" points="414,-157 414,-187 614,-187 614,-157 414,-157"/>
<text text-anchor="start" x="422" y="-175" font-family="Helvetica,sans-Serif" font-size="10.00">gui.nonbuttonfeatures.pen.</text>
<text text-anchor="middle" x="514" y="-164" font-family="Helvetica,sans-Serif" font-size="10.00">PenThicknessSliderFeature.setPenSize</text>
</a>
</g>
</g>
<!-- Node5&#45;&gt;Node14 -->
<g id="edge14" class="edge"><title>Node5&#45;&gt;Node14</title>
<path fill="none" stroke="midnightblue" d="M321.679,-225.966C345.062,-216.057 374.753,-204.31 402,-196 412.749,-192.722 424.215,-189.713 435.545,-187.017"/>
<polygon fill="midnightblue" stroke="midnightblue" points="320.209,-222.788 312.395,-229.943 322.966,-229.222 320.209,-222.788"/>
</g>
<!-- Node16 -->
<g id="node16" class="node"><title>Node16</title>
<g id="a_node16"><a xlink:href="../../dc/d93/classgui_1_1nonbuttonfeatures_1_1pen_1_1_pen_up_or_down_feature.html#a2d50dbb527225257edef57d6c4a1c084" target="_top" xlink:title="gui.nonbuttonfeatures.pen.\lPenUpOrDownFeature.PenUpOrDown\lFeature">
<polygon fill="white" stroke="black" points="417,-97.5 417,-138.5 611,-138.5 611,-97.5 417,-97.5"/>
<text text-anchor="start" x="425" y="-126.5" font-family="Helvetica,sans-Serif" font-size="10.00">gui.nonbuttonfeatures.pen.</text>
<text text-anchor="start" x="425" y="-115.5" font-family="Helvetica,sans-Serif" font-size="10.00">PenUpOrDownFeature.PenUpOrDown</text>
<text text-anchor="middle" x="514" y="-104.5" font-family="Helvetica,sans-Serif" font-size="10.00">Feature</text>
</a>
</g>
</g>
<!-- Node5&#45;&gt;Node16 -->
<g id="edge16" class="edge"><title>Node5&#45;&gt;Node16</title>
<path fill="none" stroke="midnightblue" d="M301.082,-222.585C324.263,-200.291 362.736,-166.657 402,-147 408.234,-143.879 414.838,-141.07 421.594,-138.545"/>
<polygon fill="midnightblue" stroke="midnightblue" points="298.534,-220.181 293.828,-229.674 303.426,-225.188 298.534,-220.181"/>
</g>
<!-- Node17 -->
<g id="node17" class="node"><title>Node17</title>
<g id="a_node17"><a xlink:href="../../d2/dc7/classgui_1_1nonbuttonfeatures_1_1tableviews_1_1variables_1_1_editing_cell.html#ae385a984ae073026aa03561792416a78" target="_top" xlink:title="gui.nonbuttonfeatures.tableviews.variables.\lEditingCell.createTextField">
<polygon fill="white" stroke="black" points="402,-49 402,-79 626,-79 626,-49 402,-49"/>
<text text-anchor="start" x="410" y="-67" font-family="Helvetica,sans-Serif" font-size="10.00">gui.nonbuttonfeatures.tableviews.variables.</text>
<text text-anchor="middle" x="514" y="-56" font-family="Helvetica,sans-Serif" font-size="10.00">EditingCell.createTextField</text>
</a>
</g>
</g>
<!-- Node5&#45;&gt;Node17 -->
<g id="edge17" class="edge"><title>Node5&#45;&gt;Node17</title>
<path fill="none" stroke="midnightblue" d="M291.097,-220.493C309.798,-185.313 349.159,-121.098 402,-88 407.514,-84.5462 413.451,-81.584 419.61,-79.0441"/>
<polygon fill="midnightblue" stroke="midnightblue" points="287.873,-219.108 286.377,-229.596 294.088,-222.33 287.873,-219.108"/>
</g>
<!-- Node19 -->
<g id="node19" class="node"><title>Node19</title>
<g id="a_node19"><a xlink:href="../../de/d46/classgui_1_1nonbuttonfeatures_1_1_turtle_image_feature.html#a18bdc932497aaaea84fb0a34fd0fd4a2" target="_top" xlink:title="gui.nonbuttonfeatures.Turtle\lImageFeature.TurtleImageFeature">
<polygon fill="white" stroke="black" points="425.5,-0 425.5,-30 602.5,-30 602.5,-0 425.5,-0"/>
<text text-anchor="start" x="433.5" y="-18" font-family="Helvetica,sans-Serif" font-size="10.00">gui.nonbuttonfeatures.Turtle</text>
<text text-anchor="middle" x="514" y="-7" font-family="Helvetica,sans-Serif" font-size="10.00">ImageFeature.TurtleImageFeature</text>
</a>
</g>
</g>
<!-- Node5&#45;&gt;Node19 -->
<g id="edge19" class="edge"><title>Node5&#45;&gt;Node19</title>
<path fill="none" stroke="midnightblue" d="M286.435,-220.359C301.003,-176.513 337.629,-85.2206 402,-39 409.127,-33.8827 417.13,-29.8193 425.489,-26.598"/>
<polygon fill="midnightblue" stroke="midnightblue" points="283.083,-219.351 283.354,-229.942 289.747,-221.494 283.083,-219.351"/>
</g>
<!-- Node7 -->
<g id="node7" class="node"><title>Node7</title>
<g id="a_node7"><a xlink:href="../../d1/d95/classgui_1_1factories_1_1turtlefactory_1_1_turtle_node.html#a8a90adc42503d132ce9c45b10844e32b" target="_top" xlink:title="gui.factories.turtlefactory.\lTurtleNode.selectTurtle">
<polygon fill="white" stroke="black" points="705,-397 705,-427 843,-427 843,-397 705,-397"/>
<text text-anchor="start" x="713" y="-415" font-family="Helvetica,sans-Serif" font-size="10.00">gui.factories.turtlefactory.</text>
<text text-anchor="middle" x="774" y="-404" font-family="Helvetica,sans-Serif" font-size="10.00">TurtleNode.selectTurtle</text>
</a>
</g>
</g>
<!-- Node6&#45;&gt;Node7 -->
<g id="edge6" class="edge"><title>Node6&#45;&gt;Node7</title>
<path fill="none" stroke="midnightblue" d="M612.972,-412C643.55,-412 676.601,-412 704.683,-412"/>
<polygon fill="midnightblue" stroke="midnightblue" points="612.707,-408.5 602.707,-412 612.707,-415.5 612.707,-408.5"/>
</g>
<!-- Node8 -->
<g id="node8" class="node"><title>Node8</title>
<g id="a_node8"><a xlink:href="../../d1/d95/classgui_1_1factories_1_1turtlefactory_1_1_turtle_node.html#aeae66bb4bbd0ee69922deaf346872467" target="_top" xlink:title="gui.factories.turtlefactory.\lTurtleNode.TurtleNode">
<polygon fill="white" stroke="black" points="922,-397 922,-427 1060,-427 1060,-397 922,-397"/>
<text text-anchor="start" x="930" y="-415" font-family="Helvetica,sans-Serif" font-size="10.00">gui.factories.turtlefactory.</text>
<text text-anchor="middle" x="991" y="-404" font-family="Helvetica,sans-Serif" font-size="10.00">TurtleNode.TurtleNode</text>
</a>
</g>
</g>
<!-- Node7&#45;&gt;Node8 -->
<g id="edge7" class="edge"><title>Node7&#45;&gt;Node8</title>
<path fill="none" stroke="midnightblue" d="M853.188,-412C875.618,-412 899.891,-412 921.677,-412"/>
<polygon fill="midnightblue" stroke="midnightblue" points="853.027,-408.5 843.027,-412 853.027,-415.5 853.027,-408.5"/>
</g>
<!-- Node10&#45;&gt;Node9 -->
<g id="edge10" class="edge"><title>Node10&#45;&gt;Node9</title>
<path fill="none" stroke="midnightblue" d="M603.246,-326.525C633.548,-329.109 667.195,-331.978 696.488,-334.476"/>
<polygon fill="midnightblue" stroke="midnightblue" points="603.37,-323.023 593.109,-325.66 602.775,-329.997 603.37,-323.023"/>
</g>
<!-- Node13 -->
<g id="node13" class="node"><title>Node13</title>
<g id="a_node13"><a xlink:href="../../d7/dcb/classgui_1_1nonbuttonfeatures_1_1pen_1_1_pen_color_picker_feature.html#a81a0f1a6c8a7bc72f47d734988577ad9" target="_top" xlink:title="gui.nonbuttonfeatures.pen.\lPenColorPickerFeature.PenColor\lPickerFeature">
<polygon fill="white" stroke="black" points="689,-205.5 689,-246.5 859,-246.5 859,-205.5 689,-205.5"/>
<text text-anchor="start" x="697" y="-234.5" font-family="Helvetica,sans-Serif" font-size="10.00">gui.nonbuttonfeatures.pen.</text>
<text text-anchor="start" x="697" y="-223.5" font-family="Helvetica,sans-Serif" font-size="10.00">PenColorPickerFeature.PenColor</text>
<text text-anchor="middle" x="774" y="-212.5" font-family="Helvetica,sans-Serif" font-size="10.00">PickerFeature</text>
</a>
</g>
</g>
<!-- Node12&#45;&gt;Node13 -->
<g id="edge13" class="edge"><title>Node12&#45;&gt;Node13</title>
<path fill="none" stroke="midnightblue" d="M626.78,-223.166C647.641,-223.571 669.114,-223.987 688.963,-224.371"/>
<polygon fill="midnightblue" stroke="midnightblue" points="626.664,-219.663 616.598,-222.969 626.528,-226.662 626.664,-219.663"/>
</g>
<!-- Node15 -->
<g id="node15" class="node"><title>Node15</title>
<g id="a_node15"><a xlink:href="../../df/da5/classgui_1_1nonbuttonfeatures_1_1pen_1_1_pen_thickness_slider_feature.html#ac21db0471ec55460007a5bc7f1dd5b40" target="_top" xlink:title="gui.nonbuttonfeatures.pen.\lPenThicknessSliderFeature.PenThickness\lSliderFeature">
<polygon fill="white" stroke="black" points="668,-145.5 668,-186.5 880,-186.5 880,-145.5 668,-145.5"/>
<text text-anchor="start" x="676" y="-174.5" font-family="Helvetica,sans-Serif" font-size="10.00">gui.nonbuttonfeatures.pen.</text>
<text text-anchor="start" x="676" y="-163.5" font-family="Helvetica,sans-Serif" font-size="10.00">PenThicknessSliderFeature.PenThickness</text>
<text text-anchor="middle" x="774" y="-152.5" font-family="Helvetica,sans-Serif" font-size="10.00">SliderFeature</text>
</a>
</g>
</g>
<!-- Node14&#45;&gt;Node15 -->
<g id="edge15" class="edge"><title>Node14&#45;&gt;Node15</title>
<path fill="none" stroke="midnightblue" d="M624.416,-169.455C638.801,-169.121 653.517,-168.779 667.829,-168.446"/>
<polygon fill="midnightblue" stroke="midnightblue" points="623.928,-165.966 614.012,-169.697 624.09,-172.964 623.928,-165.966"/>
</g>
<!-- Node18 -->
<g id="node18" class="node"><title>Node18</title>
<g id="a_node18"><a xlink:href="../../d2/dc7/classgui_1_1nonbuttonfeatures_1_1tableviews_1_1variables_1_1_editing_cell.html#af1eccedb428d7558821b79d9abacbe36" target="_top" xlink:title="gui.nonbuttonfeatures.tableviews.variables.\lEditingCell.startEdit">
<polygon fill="white" stroke="black" points="662,-49 662,-79 886,-79 886,-49 662,-49"/>
<text text-anchor="start" x="670" y="-67" font-family="Helvetica,sans-Serif" font-size="10.00">gui.nonbuttonfeatures.tableviews.variables.</text>
<text text-anchor="middle" x="774" y="-56" font-family="Helvetica,sans-Serif" font-size="10.00">EditingCell.startEdit</text>
</a>
</g>
</g>
<!-- Node17&#45;&gt;Node18 -->
<g id="edge18" class="edge"><title>Node17&#45;&gt;Node18</title>
<path fill="none" stroke="midnightblue" d="M636.499,-64C644.895,-64 653.334,-64 661.673,-64"/>
<polygon fill="midnightblue" stroke="midnightblue" points="636.287,-60.5001 626.287,-64 636.287,-67.5001 636.287,-60.5001"/>
</g>
</g>
</svg>
