<?xml version="1.0" encoding="UTF-8" standalone="no"?>
<!DOCTYPE svg PUBLIC "-//W3C//DTD SVG 1.1//EN"
 "http://www.w3.org/Graphics/SVG/1.1/DTD/svg11.dtd">
<!-- Generated by graphviz version 2.36.0 (20140111.2315)
 -->
<!-- Title: gui.turtlescreenwrap.CoordinateChanger.convY Pages: 1 -->
<svg width="606pt" height="136pt"
 viewBox="0.00 0.00 606.00 136.00" xmlns="http://www.w3.org/2000/svg" xmlns:xlink="http://www.w3.org/1999/xlink">
<g id="graph0" class="graph" transform="scale(1 1) rotate(0) translate(4 132)">
<title>gui.turtlescreenwrap.CoordinateChanger.convY</title>
<polygon fill="white" stroke="none" points="-4,4 -4,-132 602,-132 602,4 -4,4"/>
<!-- Node1 -->
<g id="node1" class="node"><title>Node1</title>
<polygon fill="#bfbfbf" stroke="black" points="0,-73 0,-103 170,-103 170,-73 0,-73"/>
<text text-anchor="start" x="8" y="-91" font-family="Helvetica,sans-Serif" font-size="10.00">gui.turtlescreenwrap.Coordinate</text>
<text text-anchor="middle" x="85" y="-80" font-family="Helvetica,sans-Serif" font-size="10.00">Changer.convY</text>
</g>
<!-- Node2 -->
<g id="node2" class="node"><title>Node2</title>
<g id="a_node2"><a xlink:href="../../d9/db1/classgui_1_1factories_1_1_line_factory.html#ae85d2251f95d36e5a88dd6beca11f6e9" target="_top" xlink:title="gui.factories.LineFactory.generate\lLines">
<polygon fill="white" stroke="black" points="206.5,-98 206.5,-128 383.5,-128 383.5,-98 206.5,-98"/>
<text text-anchor="start" x="214.5" y="-116" font-family="Helvetica,sans-Serif" font-size="10.00">gui.factories.LineFactory.generate</text>
<text text-anchor="middle" x="295" y="-105" font-family="Helvetica,sans-Serif" font-size="10.00">Lines</text>
</a>
</g>
</g>
<!-- Node1&#45;&gt;Node2 -->
<g id="edge1" class="edge"><title>Node1&#45;&gt;Node2</title>
<path fill="none" stroke="midnightblue" d="M180.158,-99.3171C188.859,-100.363 197.652,-101.42 206.291,-102.458"/>
<polygon fill="midnightblue" stroke="midnightblue" points="180.348,-95.8148 170.002,-98.0964 179.513,-102.765 180.348,-95.8148"/>
</g>
<!-- Node4 -->
<g id="node4" class="node"><title>Node4</title>
<g id="a_node4"><a xlink:href="../../d1/d95/classgui_1_1factories_1_1turtlefactory_1_1_turtle_node.html#a6e2a02d271815ab5516bde6eb8d4d361" target="_top" xlink:title="gui.factories.turtlefactory.\lTurtleNode.updatePosition">
<polygon fill="white" stroke="black" points="224,-49 224,-79 366,-79 366,-49 224,-49"/>
<text text-anchor="start" x="232" y="-67" font-family="Helvetica,sans-Serif" font-size="10.00">gui.factories.turtlefactory.</text>
<text text-anchor="middle" x="295" y="-56" font-family="Helvetica,sans-Serif" font-size="10.00">TurtleNode.updatePosition</text>
</a>
</g>
</g>
<!-- Node1&#45;&gt;Node4 -->
<g id="edge3" class="edge"><title>Node1&#45;&gt;Node4</title>
<path fill="none" stroke="midnightblue" d="M180.094,-77.143C194.753,-75.4516 209.677,-73.7295 223.687,-72.113"/>
<polygon fill="midnightblue" stroke="midnightblue" points="179.535,-73.6842 170.002,-78.3075 180.337,-80.6381 179.535,-73.6842"/>
</g>
<!-- Node3 -->
<g id="node3" class="node"><title>Node3</title>
<g id="a_node3"><a xlink:href="../../d9/db1/classgui_1_1factories_1_1_line_factory.html#aa231c6ad19768eadffdee89b51f96e11" target="_top" xlink:title="gui.factories.LineFactory.generate\lObject">
<polygon fill="white" stroke="black" points="420.5,-98 420.5,-128 597.5,-128 597.5,-98 420.5,-98"/>
<text text-anchor="start" x="428.5" y="-116" font-family="Helvetica,sans-Serif" font-size="10.00">gui.factories.LineFactory.generate</text>
<text text-anchor="middle" x="509" y="-105" font-family="Helvetica,sans-Serif" font-size="10.00">Object</text>
</a>
</g>
</g>
<!-- Node2&#45;&gt;Node3 -->
<g id="edge2" class="edge"><title>Node2&#45;&gt;Node3</title>
<path fill="none" stroke="midnightblue" d="M394.01,-113C402.783,-113 411.629,-113 420.307,-113"/>
<polygon fill="midnightblue" stroke="midnightblue" points="393.759,-109.5 383.759,-113 393.759,-116.5 393.759,-109.5"/>
</g>
<!-- Node5 -->
<g id="node5" class="node"><title>Node5</title>
<g id="a_node5"><a xlink:href="../../df/d5f/classgui_1_1factories_1_1turtlefactory_1_1_turtle_factory.html#a68a8fca83dc5ca127be73f046950ef54" target="_top" xlink:title="gui.factories.turtlefactory.\lTurtleFactory.generateObject">
<polygon fill="white" stroke="black" points="433,-49 433,-79 585,-79 585,-49 433,-49"/>
<text text-anchor="start" x="441" y="-67" font-family="Helvetica,sans-Serif" font-size="10.00">gui.factories.turtlefactory.</text>
<text text-anchor="middle" x="509" y="-56" font-family="Helvetica,sans-Serif" font-size="10.00">TurtleFactory.generateObject</text>
</a>
</g>
</g>
<!-- Node4&#45;&gt;Node5 -->
<g id="edge4" class="edge"><title>Node4&#45;&gt;Node5</title>
<path fill="none" stroke="midnightblue" d="M376.215,-64C394.833,-64 414.58,-64 432.965,-64"/>
<polygon fill="midnightblue" stroke="midnightblue" points="376.004,-60.5001 366.004,-64 376.004,-67.5001 376.004,-60.5001"/>
</g>
<!-- Node6 -->
<g id="node6" class="node"><title>Node6</title>
<g id="a_node6"><a xlink:href="../../d1/d95/classgui_1_1factories_1_1turtlefactory_1_1_turtle_node.html#aeae66bb4bbd0ee69922deaf346872467" target="_top" xlink:title="gui.factories.turtlefactory.\lTurtleNode.TurtleNode">
<polygon fill="white" stroke="black" points="440,-0 440,-30 578,-30 578,-0 440,-0"/>
<text text-anchor="start" x="448" y="-18" font-family="Helvetica,sans-Serif" font-size="10.00">gui.factories.turtlefactory.</text>
<text text-anchor="middle" x="509" y="-7" font-family="Helvetica,sans-Serif" font-size="10.00">TurtleNode.TurtleNode</text>
</a>
</g>
</g>
<!-- Node4&#45;&gt;Node6 -->
<g id="edge5" class="edge"><title>Node4&#45;&gt;Node6</title>
<path fill="none" stroke="midnightblue" d="M370.983,-46.6691C394.52,-41.2288 420.295,-35.2715 443.075,-30.0062"/>
<polygon fill="midnightblue" stroke="midnightblue" points="370.003,-43.3033 361.048,-48.9654 371.579,-50.1235 370.003,-43.3033"/>
</g>
</g>
</svg>
