<?xml version="1.0" encoding="UTF-8" standalone="no"?>
<!DOCTYPE svg PUBLIC "-//W3C//DTD SVG 1.1//EN"
 "http://www.w3.org/Graphics/SVG/1.1/DTD/svg11.dtd">
<!-- Generated by graphviz version 2.36.0 (20140111.2315)
 -->
<!-- Title: commandParsing.structuralCommandParsing.RecurringCommand.incrementLoopVariable Pages: 1 -->
<svg width="700pt" height="170pt"
 viewBox="0.00 0.00 700.00 170.00" xmlns="http://www.w3.org/2000/svg" xmlns:xlink="http://www.w3.org/1999/xlink">
<g id="graph0" class="graph" transform="scale(1 1) rotate(0) translate(4 166)">
<title>commandParsing.structuralCommandParsing.RecurringCommand.incrementLoopVariable</title>
<polygon fill="white" stroke="none" points="-4,4 -4,-166 696,-166 696,4 -4,4"/>
<!-- Node1 -->
<g id="node1" class="node"><title>Node1</title>
<polygon fill="#bfbfbf" stroke="black" points="0.5,-54.5 0.5,-95.5 251.5,-95.5 251.5,-54.5 0.5,-54.5"/>
<text text-anchor="start" x="8.5" y="-83.5" font-family="Helvetica,sans-Serif" font-size="10.00">commandParsing.structural</text>
<text text-anchor="start" x="8.5" y="-72.5" font-family="Helvetica,sans-Serif" font-size="10.00">CommandParsing.RecurringCommand.increment</text>
<text text-anchor="middle" x="126" y="-61.5" font-family="Helvetica,sans-Serif" font-size="10.00">LoopVariable</text>
</g>
<!-- Node2 -->
<g id="node2" class="node"><title>Node2</title>
<g id="a_node2"><a xlink:href="../../dd/d73/classworkspace_state_1_1_user_defined_variable_collection.html#a0b0c4d5c4c1130ab60e39a818fd013d3" target="_top" xlink:title="workspaceState.UserDefined\lVariableCollection.fetchWorkspace\lVariable">
<polygon fill="white" stroke="black" points="310.5,-120.5 310.5,-161.5 489.5,-161.5 489.5,-120.5 310.5,-120.5"/>
<text text-anchor="start" x="318.5" y="-149.5" font-family="Helvetica,sans-Serif" font-size="10.00">workspaceState.UserDefined</text>
<text text-anchor="start" x="318.5" y="-138.5" font-family="Helvetica,sans-Serif" font-size="10.00">VariableCollection.fetchWorkspace</text>
<text text-anchor="middle" x="400" y="-127.5" font-family="Helvetica,sans-Serif" font-size="10.00">Variable</text>
</a>
</g>
</g>
<!-- Node1&#45;&gt;Node2 -->
<g id="edge1" class="edge"><title>Node1&#45;&gt;Node2</title>
<path fill="none" stroke="midnightblue" d="M211.572,-95.521C241.123,-102.692 274.473,-110.784 304.763,-118.134"/>
<polygon fill="midnightblue" stroke="midnightblue" points="303.937,-121.535 314.481,-120.492 305.588,-114.732 303.937,-121.535"/>
</g>
<!-- Node3 -->
<g id="node3" class="node"><title>Node3</title>
<g id="a_node3"><a xlink:href="../../d5/dc4/interfacecommand_parsing_1_1drawable_obect_generation_interfaces_1_1_user_defined_variable_generator.html#a0a6cea3a0e31a571a77c07065fd68e5b" target="_top" xlink:title="commandParsing.drawableObect\lGenerationInterfaces.UserDefined\lVariableGenerator.generateDrawableObject\lRepresentingVariable">
<polygon fill="white" stroke="black" points="288,-49 288,-101 512,-101 512,-49 288,-49"/>
<text text-anchor="start" x="296" y="-89" font-family="Helvetica,sans-Serif" font-size="10.00">commandParsing.drawableObect</text>
<text text-anchor="start" x="296" y="-78" font-family="Helvetica,sans-Serif" font-size="10.00">GenerationInterfaces.UserDefined</text>
<text text-anchor="start" x="296" y="-67" font-family="Helvetica,sans-Serif" font-size="10.00">VariableGenerator.generateDrawableObject</text>
<text text-anchor="middle" x="400" y="-56" font-family="Helvetica,sans-Serif" font-size="10.00">RepresentingVariable</text>
</a>
</g>
</g>
<!-- Node1&#45;&gt;Node3 -->
<g id="edge2" class="edge"><title>Node1&#45;&gt;Node3</title>
<path fill="none" stroke="midnightblue" d="M251.855,-75C260.487,-75 269.18,-75 277.793,-75"/>
<polygon fill="midnightblue" stroke="midnightblue" points="277.858,-78.5001 287.858,-75 277.858,-71.5001 277.858,-78.5001"/>
</g>
<!-- Node6 -->
<g id="node6" class="node"><title>Node6</title>
<g id="a_node6"><a xlink:href="../../dd/d73/classworkspace_state_1_1_user_defined_variable_collection.html#a0b7bc63ad9b7fa5acdc5d5a9d691d798" target="_top" xlink:title="workspaceState.UserDefined\lVariableCollection.incrementVariable">
<polygon fill="white" stroke="black" points="304.5,-0 304.5,-30 495.5,-30 495.5,-0 304.5,-0"/>
<text text-anchor="start" x="312.5" y="-18" font-family="Helvetica,sans-Serif" font-size="10.00">workspaceState.UserDefined</text>
<text text-anchor="middle" x="400" y="-7" font-family="Helvetica,sans-Serif" font-size="10.00">VariableCollection.incrementVariable</text>
</a>
</g>
</g>
<!-- Node1&#45;&gt;Node6 -->
<g id="edge5" class="edge"><title>Node1&#45;&gt;Node6</title>
<path fill="none" stroke="midnightblue" d="M220.226,-54.4353C252.976,-47.2112 289.409,-39.1745 320.797,-32.2508"/>
<polygon fill="midnightblue" stroke="midnightblue" points="321.788,-35.6164 330.799,-30.0443 320.28,-28.7807 321.788,-35.6164"/>
</g>
<!-- Node4 -->
<g id="node4" class="node"><title>Node4</title>
<g id="a_node4"><a xlink:href="../../d9/da1/classgui_1_1variableslist_1_1_workspace_variable.html#ae407fad5ec45549a9e1ef6343a909fe7" target="_top" xlink:title="gui.variableslist.Workspace\lVariable.getMyName">
<polygon fill="white" stroke="black" points="548,-84 548,-114 692,-114 692,-84 548,-84"/>
<text text-anchor="start" x="556" y="-102" font-family="Helvetica,sans-Serif" font-size="10.00">gui.variableslist.Workspace</text>
<text text-anchor="middle" x="620" y="-91" font-family="Helvetica,sans-Serif" font-size="10.00">Variable.getMyName</text>
</a>
</g>
</g>
<!-- Node3&#45;&gt;Node4 -->
<g id="edge3" class="edge"><title>Node3&#45;&gt;Node4</title>
<path fill="none" stroke="midnightblue" d="M512.235,-87.2461C520.817,-88.1909 529.381,-89.1337 537.713,-90.051"/>
<polygon fill="midnightblue" stroke="midnightblue" points="537.425,-93.5403 547.748,-91.1557 538.191,-86.5823 537.425,-93.5403"/>
</g>
<!-- Node5 -->
<g id="node5" class="node"><title>Node5</title>
<g id="a_node5"><a xlink:href="../../d9/da1/classgui_1_1variableslist_1_1_workspace_variable.html#a0fc16dab06a0aaedc76f6612f305cd6f" target="_top" xlink:title="gui.variableslist.Workspace\lVariable.getMyValue">
<polygon fill="white" stroke="black" points="548,-35 548,-65 692,-65 692,-35 548,-35"/>
<text text-anchor="start" x="556" y="-53" font-family="Helvetica,sans-Serif" font-size="10.00">gui.variableslist.Workspace</text>
<text text-anchor="middle" x="620" y="-42" font-family="Helvetica,sans-Serif" font-size="10.00">Variable.getMyValue</text>
</a>
</g>
</g>
<!-- Node3&#45;&gt;Node5 -->
<g id="edge4" class="edge"><title>Node3&#45;&gt;Node5</title>
<path fill="none" stroke="midnightblue" d="M512.235,-62.2437C520.817,-61.2595 529.381,-60.2774 537.713,-59.3219"/>
<polygon fill="midnightblue" stroke="midnightblue" points="538.212,-62.7878 547.748,-58.1711 537.414,-55.8333 538.212,-62.7878"/>
</g>
</g>
</svg>
