<?xml version="1.0" encoding="UTF-8" standalone="no"?>
<!DOCTYPE svg PUBLIC "-//W3C//DTD SVG 1.1//EN"
 "http://www.w3.org/Graphics/SVG/1.1/DTD/svg11.dtd">
<!-- Generated by graphviz version 2.36.0 (20140111.2315)
 -->
<!-- Title: commandParsing.structuralCommandParsing.RecurringCommand.basicLoopVariableInitialization Pages: 1 -->
<svg width="460pt" height="109pt"
 viewBox="0.00 0.00 460.00 109.00" xmlns="http://www.w3.org/2000/svg" xmlns:xlink="http://www.w3.org/1999/xlink">
<g id="graph0" class="graph" transform="scale(1 1) rotate(0) translate(4 105)">
<title>commandParsing.structuralCommandParsing.RecurringCommand.basicLoopVariableInitialization</title>
<polygon fill="white" stroke="none" points="-4,4 -4,-105 456,-105 456,4 -4,4"/>
<!-- Node1 -->
<g id="node1" class="node"><title>Node1</title>
<polygon fill="#bfbfbf" stroke="black" points="0.5,-29.5 0.5,-70.5 227.5,-70.5 227.5,-29.5 0.5,-29.5"/>
<text text-anchor="start" x="8.5" y="-58.5" font-family="Helvetica,sans-Serif" font-size="10.00">commandParsing.structural</text>
<text text-anchor="start" x="8.5" y="-47.5" font-family="Helvetica,sans-Serif" font-size="10.00">CommandParsing.RecurringCommand.basic</text>
<text text-anchor="middle" x="114" y="-36.5" font-family="Helvetica,sans-Serif" font-size="10.00">LoopVariableInitialization</text>
</g>
<!-- Node2 -->
<g id="node2" class="node"><title>Node2</title>
<g id="a_node2"><a xlink:href="../../d8/d8f/classcommand_parsing_1_1structural_command_parsing_1_1_repeat.html#abb20eafb2f42a9286c20ec3af2b41925" target="_top" xlink:title="commandParsing.structural\lCommandParsing.Repeat.initialize\lLoopVariableParameters">
<polygon fill="white" stroke="black" points="268.5,-59.5 268.5,-100.5 447.5,-100.5 447.5,-59.5 268.5,-59.5"/>
<text text-anchor="start" x="276.5" y="-88.5" font-family="Helvetica,sans-Serif" font-size="10.00">commandParsing.structural</text>
<text text-anchor="start" x="276.5" y="-77.5" font-family="Helvetica,sans-Serif" font-size="10.00">CommandParsing.Repeat.initialize</text>
<text text-anchor="middle" x="358" y="-66.5" font-family="Helvetica,sans-Serif" font-size="10.00">LoopVariableParameters</text>
</a>
</g>
</g>
<!-- Node1&#45;&gt;Node2 -->
<g id="edge1" class="edge"><title>Node1&#45;&gt;Node2</title>
<path fill="none" stroke="midnightblue" d="M238.033,-65.252C248.218,-66.5147 258.384,-67.7749 268.242,-68.997"/>
<polygon fill="midnightblue" stroke="midnightblue" points="238.207,-61.7469 227.852,-63.9899 237.346,-68.6937 238.207,-61.7469"/>
</g>
<!-- Node3 -->
<g id="node3" class="node"><title>Node3</title>
<g id="a_node3"><a xlink:href="../../d7/d10/classcommand_parsing_1_1structural_command_parsing_1_1_do_times.html#afb2baa6c526f8693dacb3da8d19648f7" target="_top" xlink:title="commandParsing.structural\lCommandParsing.DoTimes.initialize\lLoopVariableParameters">
<polygon fill="white" stroke="black" points="264,0.5 264,-40.5 452,-40.5 452,0.5 264,0.5"/>
<text text-anchor="start" x="272" y="-28.5" font-family="Helvetica,sans-Serif" font-size="10.00">commandParsing.structural</text>
<text text-anchor="start" x="272" y="-17.5" font-family="Helvetica,sans-Serif" font-size="10.00">CommandParsing.DoTimes.initialize</text>
<text text-anchor="middle" x="358" y="-6.5" font-family="Helvetica,sans-Serif" font-size="10.00">LoopVariableParameters</text>
</a>
</g>
</g>
<!-- Node1&#45;&gt;Node3 -->
<g id="edge2" class="edge"><title>Node1&#45;&gt;Node3</title>
<path fill="none" stroke="midnightblue" d="M238.056,-34.7451C246.752,-33.6671 255.434,-32.5908 263.922,-31.5386"/>
<polygon fill="midnightblue" stroke="midnightblue" points="237.346,-31.3063 227.852,-36.0101 238.207,-38.2531 237.346,-31.3063"/>
</g>
</g>
</svg>
