<?xml version="1.0" encoding="UTF-8" standalone="no"?>
<!DOCTYPE svg PUBLIC "-//W3C//DTD SVG 1.1//EN"
 "http://www.w3.org/Graphics/SVG/1.1/DTD/svg11.dtd">
<!-- Generated by graphviz version 2.36.0 (20140111.2315)
 -->
<!-- Title: commandParsing.structuralCommandParsing.RecurringCommand.incrementLoopVariable Pages: 1 -->
<svg width="526pt" height="48pt"
 viewBox="0.00 0.00 526.00 48.00" xmlns="http://www.w3.org/2000/svg" xmlns:xlink="http://www.w3.org/1999/xlink">
<g id="graph0" class="graph" transform="scale(1 1) rotate(0) translate(4 44)">
<title>commandParsing.structuralCommandParsing.RecurringCommand.incrementLoopVariable</title>
<polygon fill="white" stroke="none" points="-4,4 -4,-44 522,-44 522,4 -4,4"/>
<!-- Node1 -->
<g id="node1" class="node"><title>Node1</title>
<polygon fill="#bfbfbf" stroke="black" points="0.5,0.5 0.5,-40.5 251.5,-40.5 251.5,0.5 0.5,0.5"/>
<text text-anchor="start" x="8.5" y="-28.5" font-family="Helvetica,sans-Serif" font-size="10.00">commandParsing.structural</text>
<text text-anchor="start" x="8.5" y="-17.5" font-family="Helvetica,sans-Serif" font-size="10.00">CommandParsing.RecurringCommand.increment</text>
<text text-anchor="middle" x="126" y="-6.5" font-family="Helvetica,sans-Serif" font-size="10.00">LoopVariable</text>
</g>
<!-- Node2 -->
<g id="node2" class="node"><title>Node2</title>
<g id="a_node2"><a xlink:href="../../d0/dfe/classcommand_parsing_1_1structural_command_parsing_1_1_recurring_command.html#a60a1b93f2283ed1f1d5957146b10619b" target="_top" xlink:title="commandParsing.structural\lCommandParsing.RecurringCommand.parse">
<polygon fill="white" stroke="black" points="288.5,-5 288.5,-35 517.5,-35 517.5,-5 288.5,-5"/>
<text text-anchor="start" x="296.5" y="-23" font-family="Helvetica,sans-Serif" font-size="10.00">commandParsing.structural</text>
<text text-anchor="middle" x="403" y="-12" font-family="Helvetica,sans-Serif" font-size="10.00">CommandParsing.RecurringCommand.parse</text>
</a>
</g>
</g>
<!-- Node1&#45;&gt;Node2 -->
<g id="edge1" class="edge"><title>Node1&#45;&gt;Node2</title>
<path fill="none" stroke="midnightblue" d="M261.674,-20C270.587,-20 279.516,-20 288.311,-20"/>
<polygon fill="midnightblue" stroke="midnightblue" points="261.626,-16.5001 251.626,-20 261.626,-23.5001 261.626,-16.5001"/>
</g>
</g>
</svg>
