<?xml version="1.0" encoding="UTF-8" standalone="no"?>
<!DOCTYPE svg PUBLIC "-//W3C//DTD SVG 1.1//EN"
 "http://www.w3.org/Graphics/SVG/1.1/DTD/svg11.dtd">
<!-- Generated by graphviz version 2.36.0 (20140111.2315)
 -->
<!-- Title: commandParsing.structuralCommandParsing.RecurringCommand.parse Pages: 1 -->
<svg width="988pt" height="464pt"
 viewBox="0.00 0.00 988.00 464.00" xmlns="http://www.w3.org/2000/svg" xmlns:xlink="http://www.w3.org/1999/xlink">
<g id="graph0" class="graph" transform="scale(1 1) rotate(0) translate(4 460)">
<title>commandParsing.structuralCommandParsing.RecurringCommand.parse</title>
<polygon fill="white" stroke="none" points="-4,4 -4,-460 984,-460 984,4 -4,4"/>
<!-- Node1 -->
<g id="node1" class="node"><title>Node1</title>
<polygon fill="#bfbfbf" stroke="black" points="0.5,-153 0.5,-183 229.5,-183 229.5,-153 0.5,-153"/>
<text text-anchor="start" x="8.5" y="-171" font-family="Helvetica,sans-Serif" font-size="10.00">commandParsing.structural</text>
<text text-anchor="middle" x="115" y="-160" font-family="Helvetica,sans-Serif" font-size="10.00">CommandParsing.RecurringCommand.parse</text>
</g>
<!-- Node2 -->
<g id="node2" class="node"><title>Node2</title>
<g id="a_node2"><a xlink:href="../../de/dcc/classcommand_parsing_1_1structural_command_parsing_1_1_structural_command.html#aaba2d63efc66bac087cb3b36e2a65a41" target="_top" xlink:title="commandParsing.structural\lCommandParsing.StructuralCommand.extract\lCommandsBetweenBraces">
<polygon fill="white" stroke="black" points="272.5,-343.5 272.5,-384.5 511.5,-384.5 511.5,-343.5 272.5,-343.5"/>
<text text-anchor="start" x="280.5" y="-372.5" font-family="Helvetica,sans-Serif" font-size="10.00">commandParsing.structural</text>
<text text-anchor="start" x="280.5" y="-361.5" font-family="Helvetica,sans-Serif" font-size="10.00">CommandParsing.StructuralCommand.extract</text>
<text text-anchor="middle" x="392" y="-350.5" font-family="Helvetica,sans-Serif" font-size="10.00">CommandsBetweenBraces</text>
</a>
</g>
</g>
<!-- Node1&#45;&gt;Node2 -->
<g id="edge1" class="edge"><title>Node1&#45;&gt;Node2</title>
<path fill="none" stroke="midnightblue" d="M137.122,-183.054C183.634,-216.204 295.404,-295.866 353.897,-337.556"/>
<polygon fill="midnightblue" stroke="midnightblue" points="351.952,-340.467 362.126,-343.421 356.014,-334.767 351.952,-340.467"/>
</g>
<!-- Node6 -->
<g id="node6" class="node"><title>Node6</title>
<g id="a_node6"><a xlink:href="../../d0/dfe/classcommand_parsing_1_1structural_command_parsing_1_1_recurring_command.html#af97967b7330c654969ecd32fc31b1f8e" target="_top" xlink:title="commandParsing.structural\lCommandParsing.RecurringCommand.increment\lLoopVariable">
<polygon fill="white" stroke="black" points="266.5,-207.5 266.5,-248.5 517.5,-248.5 517.5,-207.5 266.5,-207.5"/>
<text text-anchor="start" x="274.5" y="-236.5" font-family="Helvetica,sans-Serif" font-size="10.00">commandParsing.structural</text>
<text text-anchor="start" x="274.5" y="-225.5" font-family="Helvetica,sans-Serif" font-size="10.00">CommandParsing.RecurringCommand.increment</text>
<text text-anchor="middle" x="392" y="-214.5" font-family="Helvetica,sans-Serif" font-size="10.00">LoopVariable</text>
</a>
</g>
</g>
<!-- Node1&#45;&gt;Node6 -->
<g id="edge6" class="edge"><title>Node1&#45;&gt;Node6</title>
<path fill="none" stroke="midnightblue" d="M185.039,-183.063C215.883,-189.793 252.898,-197.869 286.988,-205.307"/>
<polygon fill="midnightblue" stroke="midnightblue" points="286.473,-208.776 296.989,-207.489 287.965,-201.937 286.473,-208.776"/>
</g>
<!-- Node12 -->
<g id="node12" class="node"><title>Node12</title>
<g id="a_node12"><a xlink:href="../../d0/dfe/classcommand_parsing_1_1structural_command_parsing_1_1_recurring_command.html#a8bb4e069f3574996457e573ff9f6a594" target="_top" xlink:title="commandParsing.structural\lCommandParsing.RecurringCommand.initialize\lLoopVariableParameters">
<polygon fill="white" stroke="black" points="272,-147.5 272,-188.5 512,-188.5 512,-147.5 272,-147.5"/>
<text text-anchor="start" x="280" y="-176.5" font-family="Helvetica,sans-Serif" font-size="10.00">commandParsing.structural</text>
<text text-anchor="start" x="280" y="-165.5" font-family="Helvetica,sans-Serif" font-size="10.00">CommandParsing.RecurringCommand.initialize</text>
<text text-anchor="middle" x="392" y="-154.5" font-family="Helvetica,sans-Serif" font-size="10.00">LoopVariableParameters</text>
</a>
</g>
</g>
<!-- Node1&#45;&gt;Node12 -->
<g id="edge12" class="edge"><title>Node1&#45;&gt;Node12</title>
<path fill="none" stroke="midnightblue" d="M229.838,-168C240.364,-168 251.08,-168 261.731,-168"/>
<polygon fill="midnightblue" stroke="midnightblue" points="261.913,-171.5 271.913,-168 261.913,-164.5 261.913,-171.5"/>
</g>
<!-- Node13 -->
<g id="node13" class="node"><title>Node13</title>
<g id="a_node13"><a xlink:href="../../d0/dfe/classcommand_parsing_1_1structural_command_parsing_1_1_recurring_command.html#a3e23bd2241166fa5aa8b4168ea3c13f0" target="_top" xlink:title="commandParsing.structural\lCommandParsing.RecurringCommand.loop\lVariableIsIncrementable">
<polygon fill="white" stroke="black" points="281,-87.5 281,-128.5 503,-128.5 503,-87.5 281,-87.5"/>
<text text-anchor="start" x="289" y="-116.5" font-family="Helvetica,sans-Serif" font-size="10.00">commandParsing.structural</text>
<text text-anchor="start" x="289" y="-105.5" font-family="Helvetica,sans-Serif" font-size="10.00">CommandParsing.RecurringCommand.loop</text>
<text text-anchor="middle" x="392" y="-94.5" font-family="Helvetica,sans-Serif" font-size="10.00">VariableIsIncrementable</text>
</a>
</g>
</g>
<!-- Node1&#45;&gt;Node13 -->
<g id="edge13" class="edge"><title>Node1&#45;&gt;Node13</title>
<path fill="none" stroke="midnightblue" d="M185.039,-152.937C215.883,-146.207 252.898,-138.131 286.988,-130.693"/>
<polygon fill="midnightblue" stroke="midnightblue" points="287.965,-134.063 296.989,-128.511 286.473,-127.224 287.965,-134.063"/>
</g>
<!-- Node15 -->
<g id="node15" class="node"><title>Node15</title>
<g id="a_node15"><a xlink:href="../../de/dcc/classcommand_parsing_1_1structural_command_parsing_1_1_structural_command.html#a4758d97862a38c414f90ca079a0d8d04" target="_top" xlink:title="commandParsing.structural\lCommandParsing.StructuralCommand.parse\lCommandsBetweenBraces">
<polygon fill="white" stroke="black" points="276,-27.5 276,-68.5 508,-68.5 508,-27.5 276,-27.5"/>
<text text-anchor="start" x="284" y="-56.5" font-family="Helvetica,sans-Serif" font-size="10.00">commandParsing.structural</text>
<text text-anchor="start" x="284" y="-45.5" font-family="Helvetica,sans-Serif" font-size="10.00">CommandParsing.StructuralCommand.parse</text>
<text text-anchor="middle" x="392" y="-34.5" font-family="Helvetica,sans-Serif" font-size="10.00">CommandsBetweenBraces</text>
</a>
</g>
</g>
<!-- Node1&#45;&gt;Node15 -->
<g id="edge15" class="edge"><title>Node1&#45;&gt;Node15</title>
<path fill="none" stroke="midnightblue" d="M136.772,-152.71C164.773,-132.781 216.803,-98.1065 266,-78 271.492,-75.7553 277.192,-73.6533 282.997,-71.6885"/>
<polygon fill="midnightblue" stroke="midnightblue" points="284.405,-74.912 292.847,-68.5105 282.255,-68.2501 284.405,-74.912"/>
</g>
<!-- Node3 -->
<g id="node3" class="node"><title>Node3</title>
<g id="a_node3"><a xlink:href="../../de/dcc/classcommand_parsing_1_1structural_command_parsing_1_1_structural_command.html#a3f1054710afe4826d31938f0a74af315" target="_top" xlink:title="commandParsing.structural\lCommandParsing.StructuralCommand.check\lForOpeningBrace">
<polygon fill="white" stroke="black" points="554.5,-414.5 554.5,-455.5 787.5,-455.5 787.5,-414.5 554.5,-414.5"/>
<text text-anchor="start" x="562.5" y="-443.5" font-family="Helvetica,sans-Serif" font-size="10.00">commandParsing.structural</text>
<text text-anchor="start" x="562.5" y="-432.5" font-family="Helvetica,sans-Serif" font-size="10.00">CommandParsing.StructuralCommand.check</text>
<text text-anchor="middle" x="671" y="-421.5" font-family="Helvetica,sans-Serif" font-size="10.00">ForOpeningBrace</text>
</a>
</g>
</g>
<!-- Node2&#45;&gt;Node3 -->
<g id="edge2" class="edge"><title>Node2&#45;&gt;Node3</title>
<path fill="none" stroke="midnightblue" d="M473.12,-384.536C506.423,-393.072 545.238,-403.021 579.558,-411.818"/>
<polygon fill="midnightblue" stroke="midnightblue" points="579.025,-415.295 589.581,-414.387 580.763,-408.514 579.025,-415.295"/>
</g>
<!-- Node4 -->
<g id="node4" class="node"><title>Node4</title>
<g id="a_node4"><a xlink:href="../../d3/de0/classtranslator_1_1_translator.html#a87328fef942490ca02d2ebabaec35c47" target="_top" xlink:title="translator.Translator.matches\lListStartPattern">
<polygon fill="white" stroke="black" points="824,-395 824,-425 980,-425 980,-395 824,-395"/>
<text text-anchor="start" x="832" y="-413" font-family="Helvetica,sans-Serif" font-size="10.00">translator.Translator.matches</text>
<text text-anchor="middle" x="902" y="-402" font-family="Helvetica,sans-Serif" font-size="10.00">ListStartPattern</text>
</a>
</g>
</g>
<!-- Node2&#45;&gt;Node4 -->
<g id="edge4" class="edge"><title>Node2&#45;&gt;Node4</title>
<path fill="none" stroke="midnightblue" d="M511.783,-374.756C604.25,-383.129 730.462,-394.558 813.775,-402.102"/>
<polygon fill="midnightblue" stroke="midnightblue" points="813.695,-405.609 823.97,-403.025 814.326,-398.637 813.695,-405.609"/>
</g>
<!-- Node5 -->
<g id="node5" class="node"><title>Node5</title>
<g id="a_node5"><a xlink:href="../../d3/de0/classtranslator_1_1_translator.html#abd79378932d164889d2d90c7783f1493" target="_top" xlink:title="translator.Translator.matches\lListEndPattern">
<polygon fill="white" stroke="black" points="593,-327 593,-357 749,-357 749,-327 593,-327"/>
<text text-anchor="start" x="601" y="-345" font-family="Helvetica,sans-Serif" font-size="10.00">translator.Translator.matches</text>
<text text-anchor="middle" x="671" y="-334" font-family="Helvetica,sans-Serif" font-size="10.00">ListEndPattern</text>
</a>
</g>
</g>
<!-- Node2&#45;&gt;Node5 -->
<g id="edge5" class="edge"><title>Node2&#45;&gt;Node5</title>
<path fill="none" stroke="midnightblue" d="M511.678,-354.574C535.491,-352.683 560.101,-350.728 582.615,-348.94"/>
<polygon fill="midnightblue" stroke="midnightblue" points="583.11,-352.412 592.802,-348.131 582.556,-345.434 583.11,-352.412"/>
</g>
<!-- Node3&#45;&gt;Node4 -->
<g id="edge3" class="edge"><title>Node3&#45;&gt;Node4</title>
<path fill="none" stroke="midnightblue" d="M787.506,-422.39C796.375,-421.422 805.235,-420.455 813.874,-419.512"/>
<polygon fill="midnightblue" stroke="midnightblue" points="814.341,-422.982 823.902,-418.417 813.581,-416.023 814.341,-422.982"/>
</g>
<!-- Node7 -->
<g id="node7" class="node"><title>Node7</title>
<g id="a_node7"><a xlink:href="../../dd/d73/classworkspace_state_1_1_user_defined_variable_collection.html#a0b0c4d5c4c1130ab60e39a818fd013d3" target="_top" xlink:title="workspaceState.UserDefined\lVariableCollection.fetchWorkspace\lVariable">
<polygon fill="white" stroke="black" points="581.5,-267.5 581.5,-308.5 760.5,-308.5 760.5,-267.5 581.5,-267.5"/>
<text text-anchor="start" x="589.5" y="-296.5" font-family="Helvetica,sans-Serif" font-size="10.00">workspaceState.UserDefined</text>
<text text-anchor="start" x="589.5" y="-285.5" font-family="Helvetica,sans-Serif" font-size="10.00">VariableCollection.fetchWorkspace</text>
<text text-anchor="middle" x="671" y="-274.5" font-family="Helvetica,sans-Serif" font-size="10.00">Variable</text>
</a>
</g>
</g>
<!-- Node6&#45;&gt;Node7 -->
<g id="edge7" class="edge"><title>Node6&#45;&gt;Node7</title>
<path fill="none" stroke="midnightblue" d="M487.94,-248.565C514.86,-254.396 544.225,-260.756 571.359,-266.634"/>
<polygon fill="midnightblue" stroke="midnightblue" points="570.732,-270.079 581.246,-268.775 572.214,-263.238 570.732,-270.079"/>
</g>
<!-- Node8 -->
<g id="node8" class="node"><title>Node8</title>
<g id="a_node8"><a xlink:href="../../d5/dc4/interfacecommand_parsing_1_1drawable_obect_generation_interfaces_1_1_user_defined_variable_generator.html#a0a6cea3a0e31a571a77c07065fd68e5b" target="_top" xlink:title="commandParsing.drawableObect\lGenerationInterfaces.UserDefined\lVariableGenerator.generateDrawableObject\lRepresentingVariable">
<polygon fill="white" stroke="black" points="559,-196 559,-248 783,-248 783,-196 559,-196"/>
<text text-anchor="start" x="567" y="-236" font-family="Helvetica,sans-Serif" font-size="10.00">commandParsing.drawableObect</text>
<text text-anchor="start" x="567" y="-225" font-family="Helvetica,sans-Serif" font-size="10.00">GenerationInterfaces.UserDefined</text>
<text text-anchor="start" x="567" y="-214" font-family="Helvetica,sans-Serif" font-size="10.00">VariableGenerator.generateDrawableObject</text>
<text text-anchor="middle" x="671" y="-203" font-family="Helvetica,sans-Serif" font-size="10.00">RepresentingVariable</text>
</a>
</g>
</g>
<!-- Node6&#45;&gt;Node8 -->
<g id="edge8" class="edge"><title>Node6&#45;&gt;Node8</title>
<path fill="none" stroke="midnightblue" d="M517.724,-225.298C527.956,-225.077 538.289,-224.853 548.496,-224.632"/>
<polygon fill="midnightblue" stroke="midnightblue" points="548.732,-228.128 558.654,-224.412 548.58,-221.129 548.732,-228.128"/>
</g>
<!-- Node11 -->
<g id="node11" class="node"><title>Node11</title>
<g id="a_node11"><a xlink:href="../../dd/d73/classworkspace_state_1_1_user_defined_variable_collection.html#a0b7bc63ad9b7fa5acdc5d5a9d691d798" target="_top" xlink:title="workspaceState.UserDefined\lVariableCollection.incrementVariable">
<polygon fill="white" stroke="black" points="575.5,-147 575.5,-177 766.5,-177 766.5,-147 575.5,-147"/>
<text text-anchor="start" x="583.5" y="-165" font-family="Helvetica,sans-Serif" font-size="10.00">workspaceState.UserDefined</text>
<text text-anchor="middle" x="671" y="-154" font-family="Helvetica,sans-Serif" font-size="10.00">VariableCollection.incrementVariable</text>
</a>
</g>
</g>
<!-- Node6&#45;&gt;Node11 -->
<g id="edge11" class="edge"><title>Node6&#45;&gt;Node11</title>
<path fill="none" stroke="midnightblue" d="M478.554,-207.428C491.792,-204.058 505.286,-200.516 518,-197 534.125,-192.54 537.791,-190.144 554,-186 563.168,-183.656 572.789,-181.379 582.402,-179.222"/>
<polygon fill="midnightblue" stroke="midnightblue" points="583.387,-182.589 592.399,-177.018 581.88,-175.753 583.387,-182.589"/>
</g>
<!-- Node9 -->
<g id="node9" class="node"><title>Node9</title>
<g id="a_node9"><a xlink:href="../../d9/da1/classgui_1_1variableslist_1_1_workspace_variable.html#ae407fad5ec45549a9e1ef6343a909fe7" target="_top" xlink:title="gui.variableslist.Workspace\lVariable.getMyName">
<polygon fill="white" stroke="black" points="830,-232 830,-262 974,-262 974,-232 830,-232"/>
<text text-anchor="start" x="838" y="-250" font-family="Helvetica,sans-Serif" font-size="10.00">gui.variableslist.Workspace</text>
<text text-anchor="middle" x="902" y="-239" font-family="Helvetica,sans-Serif" font-size="10.00">Variable.getMyName</text>
</a>
</g>
</g>
<!-- Node8&#45;&gt;Node9 -->
<g id="edge9" class="edge"><title>Node8&#45;&gt;Node9</title>
<path fill="none" stroke="midnightblue" d="M783.146,-234.134C795.397,-235.471 807.7,-236.814 819.492,-238.102"/>
<polygon fill="midnightblue" stroke="midnightblue" points="819.388,-241.611 829.709,-239.217 820.148,-234.652 819.388,-241.611"/>
</g>
<!-- Node10 -->
<g id="node10" class="node"><title>Node10</title>
<g id="a_node10"><a xlink:href="../../d9/da1/classgui_1_1variableslist_1_1_workspace_variable.html#a0fc16dab06a0aaedc76f6612f305cd6f" target="_top" xlink:title="gui.variableslist.Workspace\lVariable.getMyValue">
<polygon fill="white" stroke="black" points="830,-183 830,-213 974,-213 974,-183 830,-183"/>
<text text-anchor="start" x="838" y="-201" font-family="Helvetica,sans-Serif" font-size="10.00">gui.variableslist.Workspace</text>
<text text-anchor="middle" x="902" y="-190" font-family="Helvetica,sans-Serif" font-size="10.00">Variable.getMyValue</text>
</a>
</g>
</g>
<!-- Node8&#45;&gt;Node10 -->
<g id="edge10" class="edge"><title>Node8&#45;&gt;Node10</title>
<path fill="none" stroke="midnightblue" d="M783.146,-210.352C795.397,-209.068 807.7,-207.778 819.492,-206.542"/>
<polygon fill="midnightblue" stroke="midnightblue" points="820.128,-209.995 829.709,-205.472 819.399,-203.033 820.128,-209.995"/>
</g>
<!-- Node14 -->
<g id="node14" class="node"><title>Node14</title>
<g id="a_node14"><a xlink:href="../../dd/d73/classworkspace_state_1_1_user_defined_variable_collection.html#a5def0190a604962200573bd46f2e262c" target="_top" xlink:title="workspaceState.UserDefined\lVariableCollection.fetchVariable">
<polygon fill="white" stroke="black" points="587.5,-93 587.5,-123 754.5,-123 754.5,-93 587.5,-93"/>
<text text-anchor="start" x="595.5" y="-111" font-family="Helvetica,sans-Serif" font-size="10.00">workspaceState.UserDefined</text>
<text text-anchor="middle" x="671" y="-100" font-family="Helvetica,sans-Serif" font-size="10.00">VariableCollection.fetchVariable</text>
</a>
</g>
</g>
<!-- Node13&#45;&gt;Node14 -->
<g id="edge14" class="edge"><title>Node13&#45;&gt;Node14</title>
<path fill="none" stroke="midnightblue" d="M503.274,-108C527.828,-108 553.619,-108 577.378,-108"/>
<polygon fill="midnightblue" stroke="midnightblue" points="577.427,-111.5 587.427,-108 577.427,-104.5 577.427,-111.5"/>
</g>
<!-- Node16 -->
<g id="node16" class="node"><title>Node16</title>
<g id="a_node16"><a xlink:href="../../d7/d17/classcommand_parsing_1_1_command_parser.html#a9bf6e09b0ad06b6f217ad0ad040f8e93" target="_top" xlink:title="commandParsing.CommandParser.create\lParser">
<polygon fill="white" stroke="black" points="563,-39 563,-69 779,-69 779,-39 563,-39"/>
<text text-anchor="start" x="571" y="-57" font-family="Helvetica,sans-Serif" font-size="10.00">commandParsing.CommandParser.create</text>
<text text-anchor="middle" x="671" y="-46" font-family="Helvetica,sans-Serif" font-size="10.00">Parser</text>
</a>
</g>
</g>
<!-- Node15&#45;&gt;Node16 -->
<g id="edge16" class="edge"><title>Node15&#45;&gt;Node16</title>
<path fill="none" stroke="midnightblue" d="M508.066,-50.4924C522.801,-50.8116 537.899,-51.1386 552.669,-51.4585"/>
<polygon fill="midnightblue" stroke="midnightblue" points="552.76,-54.9612 562.833,-51.6787 552.912,-47.9629 552.76,-54.9612"/>
</g>
<!-- Node17 -->
<g id="node17" class="node"><title>Node17</title>
<g id="a_node17"><a xlink:href="../../d7/d17/classcommand_parsing_1_1_command_parser.html#ae5a2f506ca01f7fa355a64e4831fbae3" target="_top" xlink:title="commandParsing.CommandParser.parse">
<polygon fill="white" stroke="black" points="565,-0.5 565,-19.5 777,-19.5 777,-0.5 565,-0.5"/>
<text text-anchor="middle" x="671" y="-7.5" font-family="Helvetica,sans-Serif" font-size="10.00">commandParsing.CommandParser.parse</text>
</a>
</g>
</g>
<!-- Node15&#45;&gt;Node17 -->
<g id="edge17" class="edge"><title>Node15&#45;&gt;Node17</title>
<path fill="none" stroke="midnightblue" d="M508.066,-32.2147C535.755,-28.4163 564.73,-24.4414 590.391,-20.9211"/>
<polygon fill="midnightblue" stroke="midnightblue" points="590.992,-24.3715 600.424,-19.5447 590.041,-17.4364 590.992,-24.3715"/>
</g>
</g>
</svg>
