<?xml version="1.0" encoding="UTF-8" standalone="no"?>
<!DOCTYPE svg PUBLIC "-//W3C//DTD SVG 1.1//EN"
 "http://www.w3.org/Graphics/SVG/1.1/DTD/svg11.dtd">
<!-- Generated by graphviz version 2.36.0 (20140111.2315)
 -->
<!-- Title: commandParsing.structuralCommandParsing.RecurringCommand.basicLoopVariableInitialization Pages: 1 -->
<!--zoomable 273 -->
<svg id="main" version="1.1" xmlns="http://www.w3.org/2000/svg" xmlns:xlink="http://www.w3.org/1999/xlink" xml:space="preserve" onload="init(evt)">
<style type="text/css"><![CDATA[
.edge:hover path { stroke: red; }
.edge:hover polygon { stroke: red; fill: red; }
]]></style>
<script type="text/javascript"><![CDATA[
var edges = document.getElementsByTagName('g');
if (edges && edges.length) {
  for (var i=0;i<edges.length;i++) {
    if (edges[i].id.substr(0,4)=='edge') {
      edges[i].setAttribute('class','edge');
    }
  }
}
]]></script>
        <defs>
                <circle id="rim" cx="0" cy="0" r="7"/>
                <circle id="rim2" cx="0" cy="0" r="3.5"/>
                <g id="zoomPlus">
                        <use xlink:href="#rim" fill="#404040">
                                <set attributeName="fill" to="#808080" begin="zoomplus.mouseover" end="zoomplus.mouseout"/>
                        </use>
                        <path d="M-4,0h8M0,-4v8" fill="none" stroke="white" stroke-width="1.5" pointer-events="none"/>
                </g>
                <g id="zoomMin">
                        <use xlink:href="#rim" fill="#404040">
                                <set attributeName="fill" to="#808080" begin="zoomminus.mouseover" end="zoomminus.mouseout"/>
                        </use>
                        <path d="M-4,0h8" fill="none" stroke="white" stroke-width="1.5" pointer-events="none"/>
                </g>
                <g id="dirArrow">
                        <path fill="none" stroke="white" stroke-width="1.5" d="M0,-3.0v7 M-2.5,-0.5L0,-3.0L2.5,-0.5"/>
                </g>
               <g id="resetDef">
                       <use xlink:href="#rim2" fill="#404040">
                               <set attributeName="fill" to="#808080" begin="reset.mouseover" end="reset.mouseout"/>
                       </use>
               </g>
        </defs>

<script type="text/javascript">
var viewWidth = 958;
var viewHeight = 273;
var sectionId = 'dynsection-2';
</script>
<script xlink:href="../../svgpan.js"/>
<svg id="graph" class="graph">
<g id="viewport">
<title>commandParsing.structuralCommandParsing.RecurringCommand.basicLoopVariableInitialization</title>
<polygon fill="white" stroke="none" points="-4,4 -4,-269 954,-269 954,4 -4,4"/>
<!-- Node1 -->
<g id="node1" class="node"><title>Node1</title>
<polygon fill="#bfbfbf" stroke="black" points="0.5,-91.5 0.5,-132.5 227.5,-132.5 227.5,-91.5 0.5,-91.5"/>
<text text-anchor="start" x="8.5" y="-120.5" font-family="Helvetica,sans-Serif" font-size="10.00">commandParsing.structural</text>
<text text-anchor="start" x="8.5" y="-109.5" font-family="Helvetica,sans-Serif" font-size="10.00">CommandParsing.RecurringCommand.basic</text>
<text text-anchor="middle" x="114" y="-98.5" font-family="Helvetica,sans-Serif" font-size="10.00">LoopVariableInitialization</text>
</g>
<!-- Node2 -->
<g id="node2" class="node"><title>Node2</title>
<g id="a_node2"><a xlink:href="../../d7/d17/classcommand_parsing_1_1_command_parser.html#a663a439263fd1c59baab79f31742f1d7" target="_top" xlink:title="commandParsing.CommandParser.accumulate\lComponents">
<polygon fill="white" stroke="black" points="264,-185 264,-215 506,-215 506,-185 264,-185"/>
<text text-anchor="start" x="272" y="-203" font-family="Helvetica,sans-Serif" font-size="10.00">commandParsing.CommandParser.accumulate</text>
<text text-anchor="middle" x="385" y="-192" font-family="Helvetica,sans-Serif" font-size="10.00">Components</text>
</a>
</g>
</g>
<!-- Node1&#45;&gt;Node2 -->
<g id="edge1" class="edge"><title>Node1&#45;&gt;Node2</title>
<path fill="none" stroke="midnightblue" d="M158.557,-132.583C187.861,-145.814 227.641,-162.6 264,-174 273.865,-177.093 284.299,-179.948 294.733,-182.543"/>
<polygon fill="midnightblue" stroke="midnightblue" points="294.176,-186.008 304.718,-184.95 295.817,-179.204 294.176,-186.008"/>
</g>
<!-- Node7 -->
<g id="node7" class="node"><title>Node7</title>
<g id="a_node7"><a xlink:href="../../dd/d73/classworkspace_state_1_1_user_defined_variable_collection.html#a0b0c4d5c4c1130ab60e39a818fd013d3" target="_top" xlink:title="workspaceState.UserDefined\lVariableCollection.fetchWorkspace\lVariable">
<polygon fill="white" stroke="black" points="295.5,-124.5 295.5,-165.5 474.5,-165.5 474.5,-124.5 295.5,-124.5"/>
<text text-anchor="start" x="303.5" y="-153.5" font-family="Helvetica,sans-Serif" font-size="10.00">workspaceState.UserDefined</text>
<text text-anchor="start" x="303.5" y="-142.5" font-family="Helvetica,sans-Serif" font-size="10.00">VariableCollection.fetchWorkspace</text>
<text text-anchor="middle" x="385" y="-131.5" font-family="Helvetica,sans-Serif" font-size="10.00">Variable</text>
</a>
</g>
</g>
<!-- Node1&#45;&gt;Node7 -->
<g id="edge6" class="edge"><title>Node1&#45;&gt;Node7</title>
<path fill="none" stroke="midnightblue" d="M227.522,-125.804C246.681,-128.154 266.453,-130.58 285.224,-132.882"/>
<polygon fill="midnightblue" stroke="midnightblue" points="284.886,-136.367 295.238,-134.111 285.739,-129.419 284.886,-136.367"/>
</g>
<!-- Node8 -->
<g id="node8" class="node"><title>Node8</title>
<g id="a_node8"><a xlink:href="../../d5/dc4/interfacecommand_parsing_1_1drawable_obect_generation_interfaces_1_1_user_defined_variable_generator.html#a0a6cea3a0e31a571a77c07065fd68e5b" target="_top" xlink:title="commandParsing.drawableObect\lGenerationInterfaces.UserDefined\lVariableGenerator.generateDrawableObject\lRepresentingVariable">
<polygon fill="white" stroke="black" points="273,-53 273,-105 497,-105 497,-53 273,-53"/>
<text text-anchor="start" x="281" y="-93" font-family="Helvetica,sans-Serif" font-size="10.00">commandParsing.drawableObect</text>
<text text-anchor="start" x="281" y="-82" font-family="Helvetica,sans-Serif" font-size="10.00">GenerationInterfaces.UserDefined</text>
<text text-anchor="start" x="281" y="-71" font-family="Helvetica,sans-Serif" font-size="10.00">VariableGenerator.generateDrawableObject</text>
<text text-anchor="middle" x="385" y="-60" font-family="Helvetica,sans-Serif" font-size="10.00">RepresentingVariable</text>
</a>
</g>
</g>
<!-- Node1&#45;&gt;Node8 -->
<g id="edge7" class="edge"><title>Node1&#45;&gt;Node8</title>
<path fill="none" stroke="midnightblue" d="M227.522,-98.1962C239.102,-96.7756 250.906,-95.3275 262.578,-93.8957"/>
<polygon fill="midnightblue" stroke="midnightblue" points="263.292,-97.3344 272.791,-92.6427 262.44,-90.3865 263.292,-97.3344"/>
</g>
<!-- Node11 -->
<g id="node11" class="node"><title>Node11</title>
<g id="a_node11"><a xlink:href="../../dd/d73/classworkspace_state_1_1_user_defined_variable_collection.html#a093eadfb9434e9c2ae29c48d5d9e7bd7" target="_top" xlink:title="workspaceState.UserDefined\lVariableCollection.storeVariable">
<polygon fill="white" stroke="black" points="301.5,-3 301.5,-33 468.5,-33 468.5,-3 301.5,-3"/>
<text text-anchor="start" x="309.5" y="-21" font-family="Helvetica,sans-Serif" font-size="10.00">workspaceState.UserDefined</text>
<text text-anchor="middle" x="385" y="-10" font-family="Helvetica,sans-Serif" font-size="10.00">VariableCollection.storeVariable</text>
</a>
</g>
</g>
<!-- Node1&#45;&gt;Node11 -->
<g id="edge10" class="edge"><title>Node1&#45;&gt;Node11</title>
<path fill="none" stroke="midnightblue" d="M152.918,-91.4981C182.461,-76.2558 224.892,-55.9399 264,-43 272.847,-40.0728 282.178,-37.4155 291.57,-35.0214"/>
<polygon fill="midnightblue" stroke="midnightblue" points="292.481,-38.4017 301.36,-32.6216 290.814,-31.603 292.481,-38.4017"/>
</g>
<!-- Node3 -->
<g id="node3" class="node"><title>Node3</title>
<g id="a_node3"><a xlink:href="../../d7/d17/classcommand_parsing_1_1_command_parser.html#a9bf6e09b0ad06b6f217ad0ad040f8e93" target="_top" xlink:title="commandParsing.CommandParser.create\lParser">
<polygon fill="white" stroke="black" points="542,-235 542,-265 758,-265 758,-235 542,-235"/>
<text text-anchor="start" x="550" y="-253" font-family="Helvetica,sans-Serif" font-size="10.00">commandParsing.CommandParser.create</text>
<text text-anchor="middle" x="650" y="-242" font-family="Helvetica,sans-Serif" font-size="10.00">Parser</text>
</a>
</g>
</g>
<!-- Node2&#45;&gt;Node3 -->
<g id="edge2" class="edge"><title>Node2&#45;&gt;Node3</title>
<path fill="none" stroke="midnightblue" d="M464.909,-215.002C494.809,-220.686 529.052,-227.196 559.831,-233.048"/>
<polygon fill="midnightblue" stroke="midnightblue" points="559.215,-236.493 569.693,-234.923 560.523,-229.616 559.215,-236.493"/>
</g>
<!-- Node4 -->
<g id="node4" class="node"><title>Node4</title>
<g id="a_node4"><a xlink:href="../../d7/d17/classcommand_parsing_1_1_command_parser.html#ac5bad35b74ad1aac039e96f2e3a99e82" target="_top" xlink:title="commandParsing.CommandParser.is\lStringParsableAsCommand">
<polygon fill="white" stroke="black" points="553.5,-186 553.5,-216 746.5,-216 746.5,-186 553.5,-186"/>
<text text-anchor="start" x="561.5" y="-204" font-family="Helvetica,sans-Serif" font-size="10.00">commandParsing.CommandParser.is</text>
<text text-anchor="middle" x="650" y="-193" font-family="Helvetica,sans-Serif" font-size="10.00">StringParsableAsCommand</text>
</a>
</g>
</g>
<!-- Node2&#45;&gt;Node4 -->
<g id="edge3" class="edge"><title>Node2&#45;&gt;Node4</title>
<path fill="none" stroke="midnightblue" d="M506.34,-200.458C518.597,-200.504 530.985,-200.551 543.073,-200.597"/>
<polygon fill="midnightblue" stroke="midnightblue" points="543.134,-204.097 553.147,-200.636 543.16,-197.097 543.134,-204.097"/>
</g>
<!-- Node6 -->
<g id="node6" class="node"><title>Node6</title>
<g id="a_node6"><a xlink:href="../../d7/d17/classcommand_parsing_1_1_command_parser.html#ae5a2f506ca01f7fa355a64e4831fbae3" target="_top" xlink:title="commandParsing.CommandParser.parse">
<polygon fill="white" stroke="black" points="544,-147.5 544,-166.5 756,-166.5 756,-147.5 544,-147.5"/>
<text text-anchor="middle" x="650" y="-154.5" font-family="Helvetica,sans-Serif" font-size="10.00">commandParsing.CommandParser.parse</text>
</a>
</g>
</g>
<!-- Node2&#45;&gt;Node6 -->
<g id="edge5" class="edge"><title>Node2&#45;&gt;Node6</title>
<path fill="none" stroke="midnightblue" d="M477.985,-184.961C511.801,-179.432 549.461,-173.274 580.814,-168.148"/>
<polygon fill="midnightblue" stroke="midnightblue" points="581.455,-171.59 590.759,-166.522 580.326,-164.682 581.455,-171.59"/>
</g>
<!-- Node5 -->
<g id="node5" class="node"><title>Node5</title>
<g id="a_node5"><a xlink:href="../../d3/de0/classtranslator_1_1_translator.html#ad62364674b153e6fb5c67b328700d6e2" target="_top" xlink:title="translator.Translator.matches\lCommandPattern">
<polygon fill="white" stroke="black" points="794,-186 794,-216 950,-216 950,-186 794,-186"/>
<text text-anchor="start" x="802" y="-204" font-family="Helvetica,sans-Serif" font-size="10.00">translator.Translator.matches</text>
<text text-anchor="middle" x="872" y="-193" font-family="Helvetica,sans-Serif" font-size="10.00">CommandPattern</text>
</a>
</g>
</g>
<!-- Node4&#45;&gt;Node5 -->
<g id="edge4" class="edge"><title>Node4&#45;&gt;Node5</title>
<path fill="none" stroke="midnightblue" d="M746.535,-201C758.856,-201 771.423,-201 783.604,-201"/>
<polygon fill="midnightblue" stroke="midnightblue" points="783.731,-204.5 793.731,-201 783.731,-197.5 783.731,-204.5"/>
</g>
<!-- Node9 -->
<g id="node9" class="node"><title>Node9</title>
<g id="a_node9"><a xlink:href="../../d9/da1/classgui_1_1variableslist_1_1_workspace_variable.html#ae407fad5ec45549a9e1ef6343a909fe7" target="_top" xlink:title="gui.variableslist.Workspace\lVariable.getMyName">
<polygon fill="white" stroke="black" points="578,-98 578,-128 722,-128 722,-98 578,-98"/>
<text text-anchor="start" x="586" y="-116" font-family="Helvetica,sans-Serif" font-size="10.00">gui.variableslist.Workspace</text>
<text text-anchor="middle" x="650" y="-105" font-family="Helvetica,sans-Serif" font-size="10.00">Variable.getMyName</text>
</a>
</g>
</g>
<!-- Node8&#45;&gt;Node9 -->
<g id="edge8" class="edge"><title>Node8&#45;&gt;Node9</title>
<path fill="none" stroke="midnightblue" d="M497.154,-93.3698C520.861,-96.4345 545.472,-99.6162 567.804,-102.503"/>
<polygon fill="midnightblue" stroke="midnightblue" points="567.526,-105.996 577.893,-103.807 568.424,-99.0541 567.526,-105.996"/>
</g>
<!-- Node10 -->
<g id="node10" class="node"><title>Node10</title>
<g id="a_node10"><a xlink:href="../../d9/da1/classgui_1_1variableslist_1_1_workspace_variable.html#a0fc16dab06a0aaedc76f6612f305cd6f" target="_top" xlink:title="gui.variableslist.Workspace\lVariable.getMyValue">
<polygon fill="white" stroke="black" points="578,-49 578,-79 722,-79 722,-49 578,-49"/>
<text text-anchor="start" x="586" y="-67" font-family="Helvetica,sans-Serif" font-size="10.00">gui.variableslist.Workspace</text>
<text text-anchor="middle" x="650" y="-56" font-family="Helvetica,sans-Serif" font-size="10.00">Variable.getMyValue</text>
</a>
</g>
</g>
<!-- Node8&#45;&gt;Node10 -->
<g id="edge9" class="edge"><title>Node8&#45;&gt;Node10</title>
<path fill="none" stroke="midnightblue" d="M497.154,-72.6604C520.861,-71.3083 545.472,-69.9046 567.804,-68.631"/>
<polygon fill="midnightblue" stroke="midnightblue" points="568.108,-72.1194 577.893,-68.0555 567.71,-65.1307 568.108,-72.1194"/>
</g>
<!-- Node12 -->
<g id="node12" class="node"><title>Node12</title>
<g id="a_node12"><a xlink:href="../../d9/da1/classgui_1_1variableslist_1_1_workspace_variable.html#adb4b0d1dfaf6d63d871b7499006a7a01" target="_top" xlink:title="gui.variableslist.Workspace\lVariable.addValue">
<polygon fill="white" stroke="black" points="578,-0 578,-30 722,-30 722,-0 578,-0"/>
<text text-anchor="start" x="586" y="-18" font-family="Helvetica,sans-Serif" font-size="10.00">gui.variableslist.Workspace</text>
<text text-anchor="middle" x="650" y="-7" font-family="Helvetica,sans-Serif" font-size="10.00">Variable.addValue</text>
</a>
</g>
</g>
<!-- Node11&#45;&gt;Node12 -->
<g id="edge11" class="edge"><title>Node11&#45;&gt;Node12</title>
<path fill="none" stroke="midnightblue" d="M468.854,-17.0549C500.374,-16.6954 536.235,-16.2863 567.618,-15.9283"/>
<polygon fill="midnightblue" stroke="midnightblue" points="567.679,-19.4279 577.639,-15.814 567.599,-12.4284 567.679,-19.4279"/>
</g>
</g>
</svg>
        <g id="navigator" transform="translate(0 0)" fill="#404254">
                <rect fill="#f2f5e9" fill-opacity="0.5" stroke="#606060" stroke-width=".5" x="0" y="0" width="60" height="60"/>
                <use id="zoomplus" xlink:href="#zoomPlus" x="17" y="9" onmousedown="handleZoom(evt,'in')"/>
                <use id="zoomminus" xlink:href="#zoomMin" x="42" y="9" onmousedown="handleZoom(evt,'out')"/>
                <use id="reset" xlink:href="#resetDef" x="30" y="36" onmousedown="handleReset()"/>
                <g id="arrowUp" xlink:href="#dirArrow" transform="translate(30 24)" onmousedown="handlePan(0,-1)">
                  <use xlink:href="#rim" fill="#404040">
                        <set attributeName="fill" to="#808080" begin="arrowUp.mouseover" end="arrowUp.mouseout"/>
                  </use>
                  <path fill="none" stroke="white" stroke-width="1.5" d="M0,-3.0v7 M-2.5,-0.5L0,-3.0L2.5,-0.5"/>
                </g>
                <g id="arrowRight" xlink:href="#dirArrow" transform="rotate(90) translate(36 -43)" onmousedown="handlePan(1,0)">
                  <use xlink:href="#rim" fill="#404040">
                        <set attributeName="fill" to="#808080" begin="arrowRight.mouseover" end="arrowRight.mouseout"/>
                  </use>
                  <path fill="none" stroke="white" stroke-width="1.5" d="M0,-3.0v7 M-2.5,-0.5L0,-3.0L2.5,-0.5"/>
                </g>
                <g id="arrowDown" xlink:href="#dirArrow" transform="rotate(180) translate(-30 -48)" onmousedown="handlePan(0,1)">
                  <use xlink:href="#rim" fill="#404040">
                        <set attributeName="fill" to="#808080" begin="arrowDown.mouseover" end="arrowDown.mouseout"/>
                  </use>
                  <path fill="none" stroke="white" stroke-width="1.5" d="M0,-3.0v7 M-2.5,-0.5L0,-3.0L2.5,-0.5"/>
                </g>
                <g id="arrowLeft" xlink:href="#dirArrow" transform="rotate(270) translate(-36 17)" onmousedown="handlePan(-1,0)">
                  <use xlink:href="#rim" fill="#404040">
                        <set attributeName="fill" to="#808080" begin="arrowLeft.mouseover" end="arrowLeft.mouseout"/>
                  </use>
                  <path fill="none" stroke="white" stroke-width="1.5" d="M0,-3.0v7 M-2.5,-0.5L0,-3.0L2.5,-0.5"/>
                </g>
        </g>
        <svg viewBox="0 0 15 15" width="100%" height="30px" preserveAspectRatio="xMaxYMin meet">
         <g id="arrow_out" transform="scale(0.3 0.3)">
          <a xlink:href="classcommand_parsing_1_1structural_command_parsing_1_1_recurring_command_ab7f44ef8841353bf8a5e112541e16a75_cgraph_org.svg" target="_base">
           <rect id="button" ry="5" rx="5" y="6" x="6" height="38" width="38"
                fill="#f2f5e9" fill-opacity="0.5" stroke="#606060" stroke-width="1.0"/>
           <path id="arrow"
             d="M 11.500037,31.436501 C 11.940474,20.09759 22.043105,11.32322 32.158766,21.979434 L 37.068811,17.246167 C 37.068811,17.246167 37.088388,32 37.088388,32 L 22.160133,31.978069 C 22.160133,31.978069 26.997745,27.140456 26.997745,27.140456 C 18.528582,18.264221 13.291696,25.230495 11.500037,31.436501 z"
             style="fill:#404040;"/>
          </a>
         </g>
        </svg>
</svg>
