<?xml version="1.0" encoding="UTF-8" standalone="no"?>
<!DOCTYPE svg PUBLIC "-//W3C//DTD SVG 1.1//EN"
 "http://www.w3.org/Graphics/SVG/1.1/DTD/svg11.dtd">
<!-- Generated by graphviz version 2.36.0 (20140111.2315)
 -->
<!-- Title: workspaceState.Turtle.move Pages: 1 -->
<svg width="354pt" height="77pt"
 viewBox="0.00 0.00 354.00 77.00" xmlns="http://www.w3.org/2000/svg" xmlns:xlink="http://www.w3.org/1999/xlink">
<g id="graph0" class="graph" transform="scale(1 1) rotate(0) translate(4 73)">
<title>workspaceState.Turtle.move</title>
<polygon fill="white" stroke="none" points="-4,4 -4,-73 350,-73 350,4 -4,4"/>
<!-- Node1 -->
<g id="node1" class="node"><title>Node1</title>
<polygon fill="#bfbfbf" stroke="black" points="0,-27.5 0,-46.5 152,-46.5 152,-27.5 0,-27.5"/>
<text text-anchor="middle" x="76" y="-34.5" font-family="Helvetica,sans-Serif" font-size="10.00">workspaceState.Turtle.move</text>
</g>
<!-- Node2 -->
<g id="node2" class="node"><title>Node2</title>
<g id="a_node2"><a xlink:href="../../d0/d77/classworkspace_state_1_1_location.html#ad4e68a97bd0ea67236551c1183fdcd6f" target="_top" xlink:title="workspaceState.Location.add">
<polygon fill="white" stroke="black" points="188,-49.5 188,-68.5 346,-68.5 346,-49.5 188,-49.5"/>
<text text-anchor="middle" x="267" y="-56.5" font-family="Helvetica,sans-Serif" font-size="10.00">workspaceState.Location.add</text>
</a>
</g>
</g>
<!-- Node1&#45;&gt;Node2 -->
<g id="edge1" class="edge"><title>Node1&#45;&gt;Node2</title>
<path fill="none" stroke="midnightblue" d="M152.241,-45.7582C160.676,-46.74 169.324,-47.7467 177.902,-48.7452"/>
<polygon fill="midnightblue" stroke="midnightblue" points="177.585,-52.2318 187.922,-49.9116 178.394,-45.2788 177.585,-52.2318"/>
</g>
<!-- Node3 -->
<g id="node3" class="node"><title>Node3</title>
<g id="a_node3"><a xlink:href="../../d1/d01/classworkspace_state_1_1_turtle.html#a57e9bcac4256357cd7bd02b2252fbc3a" target="_top" xlink:title="workspaceState.Turtle.round\lToHundredths">
<polygon fill="white" stroke="black" points="191,-0 191,-30 343,-30 343,-0 191,-0"/>
<text text-anchor="start" x="199" y="-18" font-family="Helvetica,sans-Serif" font-size="10.00">workspaceState.Turtle.round</text>
<text text-anchor="middle" x="267" y="-7" font-family="Helvetica,sans-Serif" font-size="10.00">ToHundredths</text>
</a>
</g>
</g>
<!-- Node1&#45;&gt;Node3 -->
<g id="edge2" class="edge"><title>Node1&#45;&gt;Node3</title>
<path fill="none" stroke="midnightblue" d="M152.241,-28.2418C161.539,-27.1594 171.098,-26.0468 180.535,-24.9483"/>
<polygon fill="midnightblue" stroke="midnightblue" points="181.181,-28.3968 190.709,-23.764 180.372,-21.4438 181.181,-28.3968"/>
</g>
</g>
</svg>
