<?xml version="1.0" encoding="UTF-8" standalone="no"?>
<!DOCTYPE svg PUBLIC "-//W3C//DTD SVG 1.1//EN"
 "http://www.w3.org/Graphics/SVG/1.1/DTD/svg11.dtd">
<!-- Generated by graphviz version 2.36.0 (20140111.2315)
 -->
<!-- Title: workspaceState.Turtle.isTurtleShowing Pages: 1 -->
<svg width="388pt" height="446pt"
 viewBox="0.00 0.00 388.00 446.00" xmlns="http://www.w3.org/2000/svg" xmlns:xlink="http://www.w3.org/1999/xlink">
<g id="graph0" class="graph" transform="scale(1 1) rotate(0) translate(4 442)">
<title>workspaceState.Turtle.isTurtleShowing</title>
<polygon fill="white" stroke="none" points="-4,4 -4,-442 384,-442 384,4 -4,4"/>
<!-- Node1 -->
<g id="node1" class="node"><title>Node1</title>
<polygon fill="#bfbfbf" stroke="black" points="0,-201 0,-231 132,-231 132,-201 0,-201"/>
<text text-anchor="start" x="8" y="-219" font-family="Helvetica,sans-Serif" font-size="10.00">workspaceState.Turtle.is</text>
<text text-anchor="middle" x="66" y="-208" font-family="Helvetica,sans-Serif" font-size="10.00">TurtleShowing</text>
</g>
<!-- Node2 -->
<g id="node2" class="node"><title>Node2</title>
<g id="a_node2"><a xlink:href="../../dd/d96/classtests_1_1command_tests_1_1inputless_command_tests_1_1_clear_screen_tests.html#a607f982d50c547cc6a91c491b73bb401" target="_top" xlink:title="tests.commandTests.inputless\lCommandTests.ClearScreenTests.Clear\lScreeenTest">
<polygon fill="white" stroke="black" points="172,-396.5 172,-437.5 376,-437.5 376,-396.5 172,-396.5"/>
<text text-anchor="start" x="180" y="-425.5" font-family="Helvetica,sans-Serif" font-size="10.00">tests.commandTests.inputless</text>
<text text-anchor="start" x="180" y="-414.5" font-family="Helvetica,sans-Serif" font-size="10.00">CommandTests.ClearScreenTests.Clear</text>
<text text-anchor="middle" x="274" y="-403.5" font-family="Helvetica,sans-Serif" font-size="10.00">ScreeenTest</text>
</a>
</g>
</g>
<!-- Node1&#45;&gt;Node2 -->
<g id="edge1" class="edge"><title>Node1&#45;&gt;Node2</title>
<path fill="none" stroke="midnightblue" d="M74.9965,-240.571C88.3176,-277.632 118.579,-347.573 168,-386 173.102,-389.967 178.7,-393.427 184.574,-396.444"/>
<polygon fill="midnightblue" stroke="midnightblue" points="78.2745,-239.341 71.6867,-231.044 71.6622,-241.638 78.2745,-239.341"/>
</g>
<!-- Node3 -->
<g id="node3" class="node"><title>Node3</title>
<g id="a_node3"><a xlink:href="../../d1/d44/classtests_1_1command_tests_1_1inputless_command_tests_1_1_show_turtle_tests.html#a1d79a96cb3c74ad74f652c3a9e9fed2d" target="_top" xlink:title="tests.commandTests.inputless\lCommandTests.ShowTurtleTests.Heading\lAfterMoveTest">
<polygon fill="white" stroke="black" points="168,-336.5 168,-377.5 380,-377.5 380,-336.5 168,-336.5"/>
<text text-anchor="start" x="176" y="-365.5" font-family="Helvetica,sans-Serif" font-size="10.00">tests.commandTests.inputless</text>
<text text-anchor="start" x="176" y="-354.5" font-family="Helvetica,sans-Serif" font-size="10.00">CommandTests.ShowTurtleTests.Heading</text>
<text text-anchor="middle" x="274" y="-343.5" font-family="Helvetica,sans-Serif" font-size="10.00">AfterMoveTest</text>
</a>
</g>
</g>
<!-- Node1&#45;&gt;Node3 -->
<g id="edge2" class="edge"><title>Node1&#45;&gt;Node3</title>
<path fill="none" stroke="midnightblue" d="M82.8188,-239.749C100.665,-264.745 131.948,-303.52 168,-326 174.29,-329.922 181.101,-333.369 188.127,-336.394"/>
<polygon fill="midnightblue" stroke="midnightblue" points="85.4601,-237.418 76.8678,-231.219 79.7191,-241.423 85.4601,-237.418"/>
</g>
<!-- Node4 -->
<g id="node4" class="node"><title>Node4</title>
<g id="a_node4"><a xlink:href="../../d3/d67/classtests_1_1command_tests_1_1inputless_command_tests_1_1_hide_turtle_tests.html#a6e11970970d0c7a3a45730a4d712d4ce" target="_top" xlink:title="tests.commandTests.inputless\lCommandTests.HideTurtleTests.Heading\lAfterMoveTest">
<polygon fill="white" stroke="black" points="170,-276.5 170,-317.5 378,-317.5 378,-276.5 170,-276.5"/>
<text text-anchor="start" x="178" y="-305.5" font-family="Helvetica,sans-Serif" font-size="10.00">tests.commandTests.inputless</text>
<text text-anchor="start" x="178" y="-294.5" font-family="Helvetica,sans-Serif" font-size="10.00">CommandTests.HideTurtleTests.Heading</text>
<text text-anchor="middle" x="274" y="-283.5" font-family="Helvetica,sans-Serif" font-size="10.00">AfterMoveTest</text>
</a>
</g>
</g>
<!-- Node1&#45;&gt;Node4 -->
<g id="edge3" class="edge"><title>Node1&#45;&gt;Node4</title>
<path fill="none" stroke="midnightblue" d="M102.289,-235.892C121.348,-246.101 145.52,-258.204 168,-267 176.563,-270.35 185.65,-273.508 194.755,-276.426"/>
<polygon fill="midnightblue" stroke="midnightblue" points="103.832,-232.747 93.3732,-231.056 100.494,-238.9 103.832,-232.747"/>
</g>
<!-- Node5 -->
<g id="node5" class="node"><title>Node5</title>
<g id="a_node5"><a xlink:href="../../da/d00/classcommand_parsing_1_1turtle_query_parsing_1_1_is_showing.html#a242b1e80586161c8f1026161fad842ae" target="_top" xlink:title="commandParsing.turtleQuery\lParsing.IsShowing.parse">
<polygon fill="white" stroke="black" points="195.5,-228 195.5,-258 352.5,-258 352.5,-228 195.5,-228"/>
<text text-anchor="start" x="203.5" y="-246" font-family="Helvetica,sans-Serif" font-size="10.00">commandParsing.turtleQuery</text>
<text text-anchor="middle" x="274" y="-235" font-family="Helvetica,sans-Serif" font-size="10.00">Parsing.IsShowing.parse</text>
</a>
</g>
</g>
<!-- Node1&#45;&gt;Node5 -->
<g id="edge4" class="edge"><title>Node1&#45;&gt;Node5</title>
<path fill="none" stroke="midnightblue" d="M142.205,-225.857C159.482,-228.121 177.886,-230.534 195.267,-232.812"/>
<polygon fill="midnightblue" stroke="midnightblue" points="142.55,-222.372 132.18,-224.543 141.64,-229.313 142.55,-222.372"/>
</g>
<!-- Node6 -->
<g id="node6" class="node"><title>Node6</title>
<g id="a_node6"><a xlink:href="../../d1/d44/classtests_1_1command_tests_1_1inputless_command_tests_1_1_show_turtle_tests.html#a7a6360b62941dd5f7216b8675892d1cb" target="_top" xlink:title="tests.commandTests.inputless\lCommandTests.ShowTurtleTests.Pen\lUpTest">
<polygon fill="white" stroke="black" points="179,-168.5 179,-209.5 369,-209.5 369,-168.5 179,-168.5"/>
<text text-anchor="start" x="187" y="-197.5" font-family="Helvetica,sans-Serif" font-size="10.00">tests.commandTests.inputless</text>
<text text-anchor="start" x="187" y="-186.5" font-family="Helvetica,sans-Serif" font-size="10.00">CommandTests.ShowTurtleTests.Pen</text>
<text text-anchor="middle" x="274" y="-175.5" font-family="Helvetica,sans-Serif" font-size="10.00">UpTest</text>
</a>
</g>
</g>
<!-- Node1&#45;&gt;Node6 -->
<g id="edge5" class="edge"><title>Node1&#45;&gt;Node6</title>
<path fill="none" stroke="midnightblue" d="M142.445,-206.112C154.299,-204.558 166.68,-202.935 178.892,-201.335"/>
<polygon fill="midnightblue" stroke="midnightblue" points="141.64,-202.687 132.18,-207.457 142.55,-209.628 141.64,-202.687"/>
</g>
<!-- Node7 -->
<g id="node7" class="node"><title>Node7</title>
<g id="a_node7"><a xlink:href="../../d3/d67/classtests_1_1command_tests_1_1inputless_command_tests_1_1_hide_turtle_tests.html#a3b6125f2b093278040a42dd56849b140" target="_top" xlink:title="tests.commandTests.inputless\lCommandTests.HideTurtleTests.Pen\lUpTest">
<polygon fill="white" stroke="black" points="181,-108.5 181,-149.5 367,-149.5 367,-108.5 181,-108.5"/>
<text text-anchor="start" x="189" y="-137.5" font-family="Helvetica,sans-Serif" font-size="10.00">tests.commandTests.inputless</text>
<text text-anchor="start" x="189" y="-126.5" font-family="Helvetica,sans-Serif" font-size="10.00">CommandTests.HideTurtleTests.Pen</text>
<text text-anchor="middle" x="274" y="-115.5" font-family="Helvetica,sans-Serif" font-size="10.00">UpTest</text>
</a>
</g>
</g>
<!-- Node1&#45;&gt;Node7 -->
<g id="edge6" class="edge"><title>Node1&#45;&gt;Node7</title>
<path fill="none" stroke="midnightblue" d="M98.9944,-195.367C118.384,-183.525 143.946,-169.058 168,-159 176.133,-155.599 184.776,-152.444 193.475,-149.557"/>
<polygon fill="midnightblue" stroke="midnightblue" points="96.9345,-192.526 90.2771,-200.768 100.621,-198.476 96.9345,-192.526"/>
</g>
<!-- Node8 -->
<g id="node8" class="node"><title>Node8</title>
<g id="a_node8"><a xlink:href="../../db/d90/classtests_1_1command_tests_1_1turtle_query_tests_1_1_is_showing_tests.html#acd150343525e2e93d21498ce3adb8e5e" target="_top" xlink:title="tests.commandTests.turtle\lQueryTests.IsShowingTests.Showing\lAfterHideTest">
<polygon fill="white" stroke="black" points="181,-48.5 181,-89.5 367,-89.5 367,-48.5 181,-48.5"/>
<text text-anchor="start" x="189" y="-77.5" font-family="Helvetica,sans-Serif" font-size="10.00">tests.commandTests.turtle</text>
<text text-anchor="start" x="189" y="-66.5" font-family="Helvetica,sans-Serif" font-size="10.00">QueryTests.IsShowingTests.Showing</text>
<text text-anchor="middle" x="274" y="-55.5" font-family="Helvetica,sans-Serif" font-size="10.00">AfterHideTest</text>
</a>
</g>
</g>
<!-- Node1&#45;&gt;Node8 -->
<g id="edge7" class="edge"><title>Node1&#45;&gt;Node8</title>
<path fill="none" stroke="midnightblue" d="M81.3547,-192.289C98.6565,-165.705 130.173,-123.165 168,-99 173.512,-95.4788 179.445,-92.3618 185.586,-89.604"/>
<polygon fill="midnightblue" stroke="midnightblue" points="78.2478,-190.653 75.8406,-200.97 84.1566,-194.406 78.2478,-190.653"/>
</g>
<!-- Node9 -->
<g id="node9" class="node"><title>Node9</title>
<g id="a_node9"><a xlink:href="../../db/d90/classtests_1_1command_tests_1_1turtle_query_tests_1_1_is_showing_tests.html#a867d04dd941b5affeb604ae43d36ed5a" target="_top" xlink:title="tests.commandTests.turtle\lQueryTests.IsShowingTests.ShowingTest">
<polygon fill="white" stroke="black" points="171.5,-0 171.5,-30 376.5,-30 376.5,-0 171.5,-0"/>
<text text-anchor="start" x="179.5" y="-18" font-family="Helvetica,sans-Serif" font-size="10.00">tests.commandTests.turtle</text>
<text text-anchor="middle" x="274" y="-7" font-family="Helvetica,sans-Serif" font-size="10.00">QueryTests.IsShowingTests.ShowingTest</text>
</a>
</g>
</g>
<!-- Node1&#45;&gt;Node9 -->
<g id="edge8" class="edge"><title>Node1&#45;&gt;Node9</title>
<path fill="none" stroke="midnightblue" d="M74.124,-190.906C86.5059,-152.041 115.803,-77.7402 168,-39 172.655,-35.5452 177.722,-32.5752 183.033,-30.0233"/>
<polygon fill="midnightblue" stroke="midnightblue" points="70.6545,-190.283 71.0752,-200.87 77.3481,-192.331 70.6545,-190.283"/>
</g>
</g>
</svg>
