<?xml version="1.0" encoding="UTF-8" standalone="no"?>
<!DOCTYPE svg PUBLIC "-//W3C//DTD SVG 1.1//EN"
 "http://www.w3.org/Graphics/SVG/1.1/DTD/svg11.dtd">
<!-- Generated by graphviz version 2.36.0 (20140111.2315)
 -->
<!-- Title: workspaceState.Turtle.setOpacity Pages: 1 -->
<svg width="334pt" height="87pt"
 viewBox="0.00 0.00 334.00 87.00" xmlns="http://www.w3.org/2000/svg" xmlns:xlink="http://www.w3.org/1999/xlink">
<g id="graph0" class="graph" transform="scale(1 1) rotate(0) translate(4 83)">
<title>workspaceState.Turtle.setOpacity</title>
<polygon fill="white" stroke="none" points="-4,4 -4,-83 330,-83 330,4 -4,4"/>
<!-- Node1 -->
<g id="node1" class="node"><title>Node1</title>
<polygon fill="#bfbfbf" stroke="black" points="0,-24 0,-54 140,-54 140,-24 0,-24"/>
<text text-anchor="start" x="8" y="-42" font-family="Helvetica,sans-Serif" font-size="10.00">workspaceState.Turtle.set</text>
<text text-anchor="middle" x="70" y="-31" font-family="Helvetica,sans-Serif" font-size="10.00">Opacity</text>
</g>
<!-- Node2 -->
<g id="node2" class="node"><title>Node2</title>
<g id="a_node2"><a xlink:href="../../d1/d01/classworkspace_state_1_1_turtle.html#acd0512075292d13a955a1ebdaab8ef97" target="_top" xlink:title="workspaceState.Turtle.hide\lTurtle">
<polygon fill="white" stroke="black" points="178.5,-49 178.5,-79 323.5,-79 323.5,-49 178.5,-49"/>
<text text-anchor="start" x="186.5" y="-67" font-family="Helvetica,sans-Serif" font-size="10.00">workspaceState.Turtle.hide</text>
<text text-anchor="middle" x="251" y="-56" font-family="Helvetica,sans-Serif" font-size="10.00">Turtle</text>
</a>
</g>
</g>
<!-- Node1&#45;&gt;Node2 -->
<g id="edge1" class="edge"><title>Node1&#45;&gt;Node2</title>
<path fill="none" stroke="midnightblue" d="M150.261,-50.0699C159.599,-51.3742 169.089,-52.6995 178.315,-53.9881"/>
<polygon fill="midnightblue" stroke="midnightblue" points="150.594,-46.5826 140.206,-48.6657 149.626,-53.5153 150.594,-46.5826"/>
</g>
<!-- Node3 -->
<g id="node3" class="node"><title>Node3</title>
<g id="a_node3"><a xlink:href="../../d1/d01/classworkspace_state_1_1_turtle.html#afad1a491630cb5ae37da10c7ff1da2ff" target="_top" xlink:title="workspaceState.Turtle.show\lTurtle">
<polygon fill="white" stroke="black" points="176.5,-0 176.5,-30 325.5,-30 325.5,-0 176.5,-0"/>
<text text-anchor="start" x="184.5" y="-18" font-family="Helvetica,sans-Serif" font-size="10.00">workspaceState.Turtle.show</text>
<text text-anchor="middle" x="251" y="-7" font-family="Helvetica,sans-Serif" font-size="10.00">Turtle</text>
</a>
</g>
</g>
<!-- Node1&#45;&gt;Node3 -->
<g id="edge2" class="edge"><title>Node1&#45;&gt;Node3</title>
<path fill="none" stroke="midnightblue" d="M150.265,-28.3722C158.902,-27.2143 167.667,-26.0391 176.233,-24.8905"/>
<polygon fill="midnightblue" stroke="midnightblue" points="149.652,-24.923 140.206,-29.721 150.583,-31.861 149.652,-24.923"/>
</g>
</g>
</svg>
