<?xml version="1.0" encoding="UTF-8" standalone="no"?>
<!DOCTYPE svg PUBLIC "-//W3C//DTD SVG 1.1//EN"
 "http://www.w3.org/Graphics/SVG/1.1/DTD/svg11.dtd">
<!-- Generated by graphviz version 2.36.0 (20140111.2315)
 -->
<!-- Title: workspaceState.Turtle.getShape Pages: 1 -->
<svg width="918pt" height="670pt"
 viewBox="0.00 0.00 918.00 670.00" xmlns="http://www.w3.org/2000/svg" xmlns:xlink="http://www.w3.org/1999/xlink">
<g id="graph0" class="graph" transform="scale(1 1) rotate(0) translate(4 666)">
<title>workspaceState.Turtle.getShape</title>
<polygon fill="white" stroke="none" points="-4,4 -4,-666 914,-666 914,4 -4,4"/>
<!-- Node1 -->
<g id="node1" class="node"><title>Node1</title>
<polygon fill="#bfbfbf" stroke="black" points="0,-253 0,-283 140,-283 140,-253 0,-253"/>
<text text-anchor="start" x="8" y="-271" font-family="Helvetica,sans-Serif" font-size="10.00">workspaceState.Turtle.get</text>
<text text-anchor="middle" x="70" y="-260" font-family="Helvetica,sans-Serif" font-size="10.00">Shape</text>
</g>
<!-- Node2 -->
<g id="node2" class="node"><title>Node2</title>
<g id="a_node2"><a xlink:href="../../df/d64/interfacecommand_parsing_1_1drawable_obect_generation_interfaces_1_1_turtle_generator.html#ad2df4af6c11d2ec038868c5520be6acd" target="_top" xlink:title="commandParsing.drawableObect\lGenerationInterfaces.TurtleGenerator.generate\lDrawableObjectRepresentingTurtle">
<polygon fill="white" stroke="black" points="176,-277.5 176,-318.5 416,-318.5 416,-277.5 176,-277.5"/>
<text text-anchor="start" x="184" y="-306.5" font-family="Helvetica,sans-Serif" font-size="10.00">commandParsing.drawableObect</text>
<text text-anchor="start" x="184" y="-295.5" font-family="Helvetica,sans-Serif" font-size="10.00">GenerationInterfaces.TurtleGenerator.generate</text>
<text text-anchor="middle" x="296" y="-284.5" font-family="Helvetica,sans-Serif" font-size="10.00">DrawableObjectRepresentingTurtle</text>
</a>
</g>
</g>
<!-- Node1&#45;&gt;Node2 -->
<g id="edge1" class="edge"><title>Node1&#45;&gt;Node2</title>
<path fill="none" stroke="midnightblue" d="M150.119,-278.596C158.507,-279.72 167.166,-280.879 175.882,-282.047"/>
<polygon fill="midnightblue" stroke="midnightblue" points="150.411,-275.104 140.035,-277.246 149.482,-282.042 150.411,-275.104"/>
</g>
<!-- Node17 -->
<g id="node17" class="node"><title>Node17</title>
<g id="a_node17"><a xlink:href="../../dc/dfa/classtests_1_1command_tests_1_1color_command_tests_1_1_get_shape_tests.html#a807c38b796d6c163175a6c00def56503" target="_top" xlink:title="tests.commandTests.color\lCommandTests.GetShapeTests.Get\lShapeTest">
<polygon fill="white" stroke="black" points="203,-217.5 203,-258.5 389,-258.5 389,-217.5 203,-217.5"/>
<text text-anchor="start" x="211" y="-246.5" font-family="Helvetica,sans-Serif" font-size="10.00">tests.commandTests.color</text>
<text text-anchor="start" x="211" y="-235.5" font-family="Helvetica,sans-Serif" font-size="10.00">CommandTests.GetShapeTests.Get</text>
<text text-anchor="middle" x="296" y="-224.5" font-family="Helvetica,sans-Serif" font-size="10.00">ShapeTest</text>
</a>
</g>
</g>
<!-- Node1&#45;&gt;Node17 -->
<g id="edge16" class="edge"><title>Node1&#45;&gt;Node17</title>
<path fill="none" stroke="midnightblue" d="M150.414,-257.364C167.334,-255.098 185.341,-252.687 202.696,-250.362"/>
<polygon fill="midnightblue" stroke="midnightblue" points="149.482,-253.958 140.035,-258.754 150.411,-260.896 149.482,-253.958"/>
</g>
<!-- Node3 -->
<g id="node3" class="node"><title>Node3</title>
<g id="a_node3"><a xlink:href="../../da/df9/classcommand_parsing_1_1structural_command_parsing_1_1_multiple_turtle_command.html#ac35b7854cdc1ab7dcdbc9809a6db903c" target="_top" xlink:title="commandParsing.structural\lCommandParsing.MultipleTurtleCommand.make\lAndActivateGivenTurtles">
<polygon fill="white" stroke="black" points="453.5,-577.5 453.5,-618.5 700.5,-618.5 700.5,-577.5 453.5,-577.5"/>
<text text-anchor="start" x="461.5" y="-606.5" font-family="Helvetica,sans-Serif" font-size="10.00">commandParsing.structural</text>
<text text-anchor="start" x="461.5" y="-595.5" font-family="Helvetica,sans-Serif" font-size="10.00">CommandParsing.MultipleTurtleCommand.make</text>
<text text-anchor="middle" x="577" y="-584.5" font-family="Helvetica,sans-Serif" font-size="10.00">AndActivateGivenTurtles</text>
</a>
</g>
</g>
<!-- Node2&#45;&gt;Node3 -->
<g id="edge2" class="edge"><title>Node2&#45;&gt;Node3</title>
<path fill="none" stroke="midnightblue" d="M305.718,-328.301C323.489,-384.458 369.378,-504.643 452,-567 457.225,-570.943 462.892,-574.39 468.831,-577.401"/>
<polygon fill="midnightblue" stroke="midnightblue" points="309.015,-327.114 302.724,-318.589 302.325,-329.176 309.015,-327.114"/>
</g>
<!-- Node7 -->
<g id="node7" class="node"><title>Node7</title>
<g id="a_node7"><a xlink:href="../../d1/d76/classcommand_parsing_1_1turtle_command_parsing_1_1turtle_attribute_setters_1_1_set_heading.html#ae69dccc512c0e9f0fe5341003fd048ea" target="_top" xlink:title="commandParsing.turtleCommand\lParsing.turtleAttributeSetters.\lSetHeading.operateOnComponents">
<polygon fill="white" stroke="black" points="483,-517.5 483,-558.5 671,-558.5 671,-517.5 483,-517.5"/>
<text text-anchor="start" x="491" y="-546.5" font-family="Helvetica,sans-Serif" font-size="10.00">commandParsing.turtleCommand</text>
<text text-anchor="start" x="491" y="-535.5" font-family="Helvetica,sans-Serif" font-size="10.00">Parsing.turtleAttributeSetters.</text>
<text text-anchor="middle" x="577" y="-524.5" font-family="Helvetica,sans-Serif" font-size="10.00">SetHeading.operateOnComponents</text>
</a>
</g>
</g>
<!-- Node2&#45;&gt;Node7 -->
<g id="edge6" class="edge"><title>Node2&#45;&gt;Node7</title>
<path fill="none" stroke="midnightblue" d="M310.685,-327.753C333.343,-373.586 383.084,-460.974 452,-507 461.411,-513.285 471.994,-518.297 482.908,-522.292"/>
<polygon fill="midnightblue" stroke="midnightblue" points="313.776,-326.104 306.264,-318.633 307.477,-329.158 313.776,-326.104"/>
</g>
<!-- Node8 -->
<g id="node8" class="node"><title>Node8</title>
<g id="a_node8"><a xlink:href="../../dd/d66/classcommand_parsing_1_1turtle_command_parsing_1_1turtle_movement_1_1_rotate.html#a9638cfc1f990cd9e8d09196875e555ae" target="_top" xlink:title="commandParsing.turtleCommand\lParsing.turtleMovement.Rotate.operate\lOnComponents">
<polygon fill="white" stroke="black" points="474.5,-457.5 474.5,-498.5 679.5,-498.5 679.5,-457.5 474.5,-457.5"/>
<text text-anchor="start" x="482.5" y="-486.5" font-family="Helvetica,sans-Serif" font-size="10.00">commandParsing.turtleCommand</text>
<text text-anchor="start" x="482.5" y="-475.5" font-family="Helvetica,sans-Serif" font-size="10.00">Parsing.turtleMovement.Rotate.operate</text>
<text text-anchor="middle" x="577" y="-464.5" font-family="Helvetica,sans-Serif" font-size="10.00">OnComponents</text>
</a>
</g>
</g>
<!-- Node2&#45;&gt;Node8 -->
<g id="edge7" class="edge"><title>Node2&#45;&gt;Node8</title>
<path fill="none" stroke="midnightblue" d="M318.884,-326.697C346.292,-360.599 396.447,-416.266 452,-447 459.184,-450.975 466.882,-454.448 474.795,-457.482"/>
<polygon fill="midnightblue" stroke="midnightblue" points="321.384,-324.217 312.417,-318.575 315.908,-328.578 321.384,-324.217"/>
</g>
<!-- Node9 -->
<g id="node9" class="node"><title>Node9</title>
<g id="a_node9"><a xlink:href="../../d9/db7/classcommand_parsing_1_1turtle_command_parsing_1_1turtle_attribute_setters_1_1_set_shape.html#a0ba18906dd13ecd9788f2930fe2c5c4b" target="_top" xlink:title="commandParsing.turtleCommand\lParsing.turtleAttributeSetters.\lSetShape.operateOnComponents">
<polygon fill="white" stroke="black" points="487.5,-397.5 487.5,-438.5 666.5,-438.5 666.5,-397.5 487.5,-397.5"/>
<text text-anchor="start" x="495.5" y="-426.5" font-family="Helvetica,sans-Serif" font-size="10.00">commandParsing.turtleCommand</text>
<text text-anchor="start" x="495.5" y="-415.5" font-family="Helvetica,sans-Serif" font-size="10.00">Parsing.turtleAttributeSetters.</text>
<text text-anchor="middle" x="577" y="-404.5" font-family="Helvetica,sans-Serif" font-size="10.00">SetShape.operateOnComponents</text>
</a>
</g>
</g>
<!-- Node2&#45;&gt;Node9 -->
<g id="edge8" class="edge"><title>Node2&#45;&gt;Node9</title>
<path fill="none" stroke="midnightblue" d="M335.507,-324.132C365.98,-343.801 410.219,-370.162 452,-387 463.217,-391.521 475.278,-395.521 487.315,-399.019"/>
<polygon fill="midnightblue" stroke="midnightblue" points="337.188,-321.05 326.9,-318.518 333.364,-326.913 337.188,-321.05"/>
</g>
<!-- Node10 -->
<g id="node10" class="node"><title>Node10</title>
<g id="a_node10"><a xlink:href="../../d9/dab/classcommand_parsing_1_1turtle_command_parsing_1_1turtle_movement_1_1_move_to_location.html#a914c07518060cce52ab6782b8dcfeb81" target="_top" xlink:title="commandParsing.turtleCommand\lParsing.turtleMovement.MoveToLocation.operate\lOnComponents">
<polygon fill="white" stroke="black" points="452,-337.5 452,-378.5 702,-378.5 702,-337.5 452,-337.5"/>
<text text-anchor="start" x="460" y="-366.5" font-family="Helvetica,sans-Serif" font-size="10.00">commandParsing.turtleCommand</text>
<text text-anchor="start" x="460" y="-355.5" font-family="Helvetica,sans-Serif" font-size="10.00">Parsing.turtleMovement.MoveToLocation.operate</text>
<text text-anchor="middle" x="577" y="-344.5" font-family="Helvetica,sans-Serif" font-size="10.00">OnComponents</text>
</a>
</g>
</g>
<!-- Node2&#45;&gt;Node10 -->
<g id="edge9" class="edge"><title>Node2&#45;&gt;Node10</title>
<path fill="none" stroke="midnightblue" d="M402.71,-320.733C428.27,-326.23 455.44,-332.073 480.499,-337.462"/>
<polygon fill="midnightblue" stroke="midnightblue" points="403.138,-317.245 392.626,-318.565 401.666,-324.089 403.138,-317.245"/>
</g>
<!-- Node11 -->
<g id="node11" class="node"><title>Node11</title>
<g id="a_node11"><a xlink:href="../../da/d63/classcommand_parsing_1_1turtle_command_parsing_1_1turtle_attribute_setters_1_1_set_towards.html#a287e5a64e0179d1de65f2ebb4d5622a2" target="_top" xlink:title="commandParsing.turtleCommand\lParsing.turtleAttributeSetters.\lSetTowards.operateOnComponents">
<polygon fill="white" stroke="black" points="484,-277.5 484,-318.5 670,-318.5 670,-277.5 484,-277.5"/>
<text text-anchor="start" x="492" y="-306.5" font-family="Helvetica,sans-Serif" font-size="10.00">commandParsing.turtleCommand</text>
<text text-anchor="start" x="492" y="-295.5" font-family="Helvetica,sans-Serif" font-size="10.00">Parsing.turtleAttributeSetters.</text>
<text text-anchor="middle" x="577" y="-284.5" font-family="Helvetica,sans-Serif" font-size="10.00">SetTowards.operateOnComponents</text>
</a>
</g>
</g>
<!-- Node2&#45;&gt;Node11 -->
<g id="edge10" class="edge"><title>Node2&#45;&gt;Node11</title>
<path fill="none" stroke="midnightblue" d="M426.262,-298C445.698,-298 465.4,-298 483.849,-298"/>
<polygon fill="midnightblue" stroke="midnightblue" points="426.13,-294.5 416.13,-298 426.13,-301.5 426.13,-294.5"/>
</g>
<!-- Node12 -->
<g id="node12" class="node"><title>Node12</title>
<g id="a_node12"><a xlink:href="../../d6/d37/classcommand_parsing_1_1turtle_command_parsing_1_1turtle_movement_1_1_move.html#a82fa17cd8efe11bebcbfb1c7ae8fe7c7" target="_top" xlink:title="commandParsing.turtleCommand\lParsing.turtleMovement.Move.operate\lOnComponents">
<polygon fill="white" stroke="black" points="477,-217.5 477,-258.5 677,-258.5 677,-217.5 477,-217.5"/>
<text text-anchor="start" x="485" y="-246.5" font-family="Helvetica,sans-Serif" font-size="10.00">commandParsing.turtleCommand</text>
<text text-anchor="start" x="485" y="-235.5" font-family="Helvetica,sans-Serif" font-size="10.00">Parsing.turtleMovement.Move.operate</text>
<text text-anchor="middle" x="577" y="-224.5" font-family="Helvetica,sans-Serif" font-size="10.00">OnComponents</text>
</a>
</g>
</g>
<!-- Node2&#45;&gt;Node12 -->
<g id="edge11" class="edge"><title>Node2&#45;&gt;Node12</title>
<path fill="none" stroke="midnightblue" d="M402.71,-275.267C428.27,-269.77 455.44,-263.927 480.499,-258.538"/>
<polygon fill="midnightblue" stroke="midnightblue" points="401.666,-271.911 392.626,-277.435 403.138,-278.755 401.666,-271.911"/>
</g>
<!-- Node13 -->
<g id="node13" class="node"><title>Node13</title>
<g id="a_node13"><a xlink:href="../../d1/de7/classcommand_parsing_1_1turtle_command_parsing_1_1turtle_attribute_setters_1_1_hide_turtle.html#af7c45d61a317edddfeee3960e0a3b59e" target="_top" xlink:title="commandParsing.turtleCommand\lParsing.turtleAttributeSetters.\lHideTurtle.parse">
<polygon fill="white" stroke="black" points="487.5,-157.5 487.5,-198.5 666.5,-198.5 666.5,-157.5 487.5,-157.5"/>
<text text-anchor="start" x="495.5" y="-186.5" font-family="Helvetica,sans-Serif" font-size="10.00">commandParsing.turtleCommand</text>
<text text-anchor="start" x="495.5" y="-175.5" font-family="Helvetica,sans-Serif" font-size="10.00">Parsing.turtleAttributeSetters.</text>
<text text-anchor="middle" x="577" y="-164.5" font-family="Helvetica,sans-Serif" font-size="10.00">HideTurtle.parse</text>
</a>
</g>
</g>
<!-- Node2&#45;&gt;Node13 -->
<g id="edge12" class="edge"><title>Node2&#45;&gt;Node13</title>
<path fill="none" stroke="midnightblue" d="M407.711,-272.552C410.573,-270.821 413.344,-268.973 416,-267 440.659,-248.683 427.182,-226.101 452,-208 462.558,-200.3 474.836,-194.555 487.48,-190.274"/>
<polygon fill="midnightblue" stroke="midnightblue" points="405.959,-269.521 398.875,-277.399 409.326,-275.658 405.959,-269.521"/>
</g>
<!-- Node14 -->
<g id="node14" class="node"><title>Node14</title>
<g id="a_node14"><a xlink:href="../../d6/daa/classcommand_parsing_1_1turtle_command_parsing_1_1turtle_attribute_setters_1_1_show_turtle.html#a806202bb6da0c5999d8c7298f4ed948b" target="_top" xlink:title="commandParsing.turtleCommand\lParsing.turtleAttributeSetters.\lShowTurtle.parse">
<polygon fill="white" stroke="black" points="487.5,-97.5 487.5,-138.5 666.5,-138.5 666.5,-97.5 487.5,-97.5"/>
<text text-anchor="start" x="495.5" y="-126.5" font-family="Helvetica,sans-Serif" font-size="10.00">commandParsing.turtleCommand</text>
<text text-anchor="start" x="495.5" y="-115.5" font-family="Helvetica,sans-Serif" font-size="10.00">Parsing.turtleAttributeSetters.</text>
<text text-anchor="middle" x="577" y="-104.5" font-family="Helvetica,sans-Serif" font-size="10.00">ShowTurtle.parse</text>
</a>
</g>
</g>
<!-- Node2&#45;&gt;Node14 -->
<g id="edge13" class="edge"><title>Node2&#45;&gt;Node14</title>
<path fill="none" stroke="midnightblue" d="M410.826,-271.546C412.616,-270.107 414.343,-268.593 416,-267 455.825,-228.696 411.842,-185.955 452,-148 461.98,-138.567 474.399,-131.944 487.491,-127.323"/>
<polygon fill="midnightblue" stroke="midnightblue" points="408.733,-268.739 402.607,-277.384 412.787,-274.446 408.733,-268.739"/>
</g>
<!-- Node15 -->
<g id="node15" class="node"><title>Node15</title>
<g id="a_node15"><a xlink:href="../../d0/dc1/classcommand_parsing_1_1turtle_command_parsing_1_1_make_turtle.html#a6ed9fedb55ea99caa7a891b0c9bbd20a" target="_top" xlink:title="commandParsing.turtleCommand\lParsing.MakeTurtle.parse">
<polygon fill="white" stroke="black" points="487.5,-49 487.5,-79 666.5,-79 666.5,-49 487.5,-49"/>
<text text-anchor="start" x="495.5" y="-67" font-family="Helvetica,sans-Serif" font-size="10.00">commandParsing.turtleCommand</text>
<text text-anchor="middle" x="577" y="-56" font-family="Helvetica,sans-Serif" font-size="10.00">Parsing.MakeTurtle.parse</text>
</a>
</g>
</g>
<!-- Node2&#45;&gt;Node15 -->
<g id="edge14" class="edge"><title>Node2&#45;&gt;Node15</title>
<path fill="none" stroke="midnightblue" d="M411.616,-271.251C413.134,-269.9 414.598,-268.484 416,-267 471.741,-208.025 394.411,-145.171 452,-88 461.726,-78.3448 474.094,-71.9735 487.234,-67.8582"/>
<polygon fill="midnightblue" stroke="midnightblue" points="409.345,-268.583 403.598,-277.484 413.641,-274.11 409.345,-268.583"/>
</g>
<!-- Node16 -->
<g id="node16" class="node"><title>Node16</title>
<g id="a_node16"><a xlink:href="../../d7/dd2/classcommand_parsing_1_1turtle_command_parsing_1_1_stamp.html#a05a3413c6b4195da962917a40ba016ed" target="_top" xlink:title="commandParsing.turtleCommand\lParsing.Stamp.parse">
<polygon fill="white" stroke="black" points="487.5,-0 487.5,-30 666.5,-30 666.5,-0 487.5,-0"/>
<text text-anchor="start" x="495.5" y="-18" font-family="Helvetica,sans-Serif" font-size="10.00">commandParsing.turtleCommand</text>
<text text-anchor="middle" x="577" y="-7" font-family="Helvetica,sans-Serif" font-size="10.00">Parsing.Stamp.parse</text>
</a>
</g>
</g>
<!-- Node2&#45;&gt;Node16 -->
<g id="edge15" class="edge"><title>Node2&#45;&gt;Node16</title>
<path fill="none" stroke="midnightblue" d="M412.154,-270.912C413.484,-269.663 414.768,-268.359 416,-267 484.892,-190.985 380.724,-112.785 452,-39 461.598,-29.0645 473.981,-22.5656 487.198,-18.4136"/>
<polygon fill="midnightblue" stroke="midnightblue" points="409.614,-268.466 404.062,-277.489 414.03,-273.898 409.614,-268.466"/>
</g>
<!-- Node4 -->
<g id="node4" class="node"><title>Node4</title>
<g id="a_node4"><a xlink:href="../../d7/d50/classcommand_parsing_1_1structural_command_parsing_1_1_ask.html#aa19ad64684414b0ef6112ac7e75e992d" target="_top" xlink:title="commandParsing.structural\lCommandParsing.Ask.parse">
<polygon fill="white" stroke="black" points="748,-632 748,-662 900,-662 900,-632 748,-632"/>
<text text-anchor="start" x="756" y="-650" font-family="Helvetica,sans-Serif" font-size="10.00">commandParsing.structural</text>
<text text-anchor="middle" x="824" y="-639" font-family="Helvetica,sans-Serif" font-size="10.00">CommandParsing.Ask.parse</text>
</a>
</g>
</g>
<!-- Node3&#45;&gt;Node4 -->
<g id="edge3" class="edge"><title>Node3&#45;&gt;Node4</title>
<path fill="none" stroke="midnightblue" d="M690.651,-620.53C710.088,-624.418 729.858,-628.372 747.986,-631.997"/>
<polygon fill="midnightblue" stroke="midnightblue" points="691.329,-617.097 680.837,-618.567 689.957,-623.961 691.329,-617.097"/>
</g>
<!-- Node5 -->
<g id="node5" class="node"><title>Node5</title>
<g id="a_node5"><a xlink:href="../../db/da0/classcommand_parsing_1_1structural_command_parsing_1_1_tell.html#aaab258a057ef8d0fd8ff6980e59dc719" target="_top" xlink:title="commandParsing.structural\lCommandParsing.Tell.parse">
<polygon fill="white" stroke="black" points="749.5,-583 749.5,-613 898.5,-613 898.5,-583 749.5,-583"/>
<text text-anchor="start" x="757.5" y="-601" font-family="Helvetica,sans-Serif" font-size="10.00">commandParsing.structural</text>
<text text-anchor="middle" x="824" y="-590" font-family="Helvetica,sans-Serif" font-size="10.00">CommandParsing.Tell.parse</text>
</a>
</g>
</g>
<!-- Node3&#45;&gt;Node5 -->
<g id="edge4" class="edge"><title>Node3&#45;&gt;Node5</title>
<path fill="none" stroke="midnightblue" d="M710.961,-598C724.143,-598 737.162,-598 749.402,-598"/>
<polygon fill="midnightblue" stroke="midnightblue" points="710.859,-594.5 700.859,-598 710.859,-601.5 710.859,-594.5"/>
</g>
<!-- Node6 -->
<g id="node6" class="node"><title>Node6</title>
<g id="a_node6"><a xlink:href="../../d7/d78/classcommand_parsing_1_1structural_command_parsing_1_1_ask_with.html#a934aa5eda34ccd0b9703e578753031fb" target="_top" xlink:title="commandParsing.structural\lCommandParsing.AskWith.parse">
<polygon fill="white" stroke="black" points="738,-534 738,-564 910,-564 910,-534 738,-534"/>
<text text-anchor="start" x="746" y="-552" font-family="Helvetica,sans-Serif" font-size="10.00">commandParsing.structural</text>
<text text-anchor="middle" x="824" y="-541" font-family="Helvetica,sans-Serif" font-size="10.00">CommandParsing.AskWith.parse</text>
</a>
</g>
</g>
<!-- Node3&#45;&gt;Node6 -->
<g id="edge5" class="edge"><title>Node3&#45;&gt;Node6</title>
<path fill="none" stroke="midnightblue" d="M690.651,-575.47C710.088,-571.582 729.858,-567.628 747.986,-564.003"/>
<polygon fill="midnightblue" stroke="midnightblue" points="689.957,-572.039 680.837,-577.433 691.329,-578.903 689.957,-572.039"/>
</g>
</g>
</svg>
