<?xml version="1.0" encoding="UTF-8" standalone="no"?>
<!DOCTYPE svg PUBLIC "-//W3C//DTD SVG 1.1//EN"
 "http://www.w3.org/Graphics/SVG/1.1/DTD/svg11.dtd">
<!-- Generated by graphviz version 2.36.0 (20140111.2315)
 -->
<!-- Title: gui.nonbuttonfeatures.PreviousCommandsFeature.displayPreviousCommandInCommandLineOnDblClick Pages: 1 -->
<svg width="460pt" height="48pt"
 viewBox="0.00 0.00 460.00 48.00" xmlns="http://www.w3.org/2000/svg" xmlns:xlink="http://www.w3.org/1999/xlink">
<g id="graph0" class="graph" transform="scale(1 1) rotate(0) translate(4 44)">
<title>gui.nonbuttonfeatures.PreviousCommandsFeature.displayPreviousCommandInCommandLineOnDblClick</title>
<polygon fill="white" stroke="none" points="-4,4 -4,-44 456,-44 456,4 -4,4"/>
<!-- Node1 -->
<g id="node1" class="node"><title>Node1</title>
<polygon fill="#bfbfbf" stroke="black" points="0.5,0.5 0.5,-40.5 235.5,-40.5 235.5,0.5 0.5,0.5"/>
<text text-anchor="start" x="8.5" y="-28.5" font-family="Helvetica,sans-Serif" font-size="10.00">gui.nonbuttonfeatures.Previous</text>
<text text-anchor="start" x="8.5" y="-17.5" font-family="Helvetica,sans-Serif" font-size="10.00">CommandsFeature.displayPreviousCommand</text>
<text text-anchor="middle" x="118" y="-6.5" font-family="Helvetica,sans-Serif" font-size="10.00">InCommandLineOnDblClick</text>
</g>
<!-- Node2 -->
<g id="node2" class="node"><title>Node2</title>
<g id="a_node2"><a xlink:href="../../d8/d70/classgui_1_1componentdrawers_1_1_command_line_drawer.html#a08074f05635bafab1fbf64d7aedf0b72" target="_top" xlink:title="gui.componentdrawers.Command\lLineDrawer.setCommandLine">
<polygon fill="white" stroke="black" points="272.5,-5 272.5,-35 451.5,-35 451.5,-5 272.5,-5"/>
<text text-anchor="start" x="280.5" y="-23" font-family="Helvetica,sans-Serif" font-size="10.00">gui.componentdrawers.Command</text>
<text text-anchor="middle" x="362" y="-12" font-family="Helvetica,sans-Serif" font-size="10.00">LineDrawer.setCommandLine</text>
</a>
</g>
</g>
<!-- Node1&#45;&gt;Node2 -->
<g id="edge1" class="edge"><title>Node1&#45;&gt;Node2</title>
<path fill="none" stroke="midnightblue" d="M235.747,-20C244.608,-20 253.499,-20 262.231,-20"/>
<polygon fill="midnightblue" stroke="midnightblue" points="262.396,-23.5001 272.396,-20 262.396,-16.5001 262.396,-23.5001"/>
</g>
</g>
</svg>
