<?xml version="1.0" encoding="UTF-8" standalone="no"?>
<!DOCTYPE svg PUBLIC "-//W3C//DTD SVG 1.1//EN"
 "http://www.w3.org/Graphics/SVG/1.1/DTD/svg11.dtd">
<!-- Generated by graphviz version 2.36.0 (20140111.2315)
 -->
<!-- Title: gui.nonbuttonfeatures.PreviousCommandsFeature.PreviousCommandsFeature Pages: 1 -->
<svg width="704pt" height="98pt"
 viewBox="0.00 0.00 704.00 98.00" xmlns="http://www.w3.org/2000/svg" xmlns:xlink="http://www.w3.org/1999/xlink">
<g id="graph0" class="graph" transform="scale(1 1) rotate(0) translate(4 94)">
<title>gui.nonbuttonfeatures.PreviousCommandsFeature.PreviousCommandsFeature</title>
<polygon fill="white" stroke="none" points="-4,4 -4,-94 700,-94 700,4 -4,4"/>
<!-- Node1 -->
<g id="node1" class="node"><title>Node1</title>
<polygon fill="#bfbfbf" stroke="black" points="0.5,-21.5 0.5,-62.5 207.5,-62.5 207.5,-21.5 0.5,-21.5"/>
<text text-anchor="start" x="8.5" y="-50.5" font-family="Helvetica,sans-Serif" font-size="10.00">gui.nonbuttonfeatures.Previous</text>
<text text-anchor="start" x="8.5" y="-39.5" font-family="Helvetica,sans-Serif" font-size="10.00">CommandsFeature.PreviousCommands</text>
<text text-anchor="middle" x="104" y="-28.5" font-family="Helvetica,sans-Serif" font-size="10.00">Feature</text>
</g>
<!-- Node2 -->
<g id="node2" class="node"><title>Node2</title>
<g id="a_node2"><a xlink:href="../../da/d9c/classgui_1_1nonbuttonfeatures_1_1_previous_commands_feature.html#af9ec386cbf1a9c16558f0b0cb67faeb5" target="_top" xlink:title="gui.nonbuttonfeatures.Previous\lCommandsFeature.displayPreviousCommand\lInCommandLineOnDblClick">
<polygon fill="white" stroke="black" points="244.5,-48.5 244.5,-89.5 479.5,-89.5 479.5,-48.5 244.5,-48.5"/>
<text text-anchor="start" x="252.5" y="-77.5" font-family="Helvetica,sans-Serif" font-size="10.00">gui.nonbuttonfeatures.Previous</text>
<text text-anchor="start" x="252.5" y="-66.5" font-family="Helvetica,sans-Serif" font-size="10.00">CommandsFeature.displayPreviousCommand</text>
<text text-anchor="middle" x="362" y="-55.5" font-family="Helvetica,sans-Serif" font-size="10.00">InCommandLineOnDblClick</text>
</a>
</g>
</g>
<!-- Node1&#45;&gt;Node2 -->
<g id="edge1" class="edge"><title>Node1&#45;&gt;Node2</title>
<path fill="none" stroke="midnightblue" d="M207.65,-52.8264C216.443,-53.7537 225.402,-54.6986 234.352,-55.6426"/>
<polygon fill="midnightblue" stroke="midnightblue" points="234.132,-59.1388 244.444,-56.707 234.867,-52.1774 234.132,-59.1388"/>
</g>
<!-- Node4 -->
<g id="node4" class="node"><title>Node4</title>
<g id="a_node4"><a xlink:href="../../d0/dda/classgui_1_1componentdrawers_1_1_component_drawer.html#a7866683582ed9aebe665c7998d549fbb" target="_top" xlink:title="gui.componentdrawers.Component\lDrawer.drawShape">
<polygon fill="white" stroke="black" points="269.5,-0 269.5,-30 454.5,-30 454.5,-0 269.5,-0"/>
<text text-anchor="start" x="277.5" y="-18" font-family="Helvetica,sans-Serif" font-size="10.00">gui.componentdrawers.Component</text>
<text text-anchor="middle" x="362" y="-7" font-family="Helvetica,sans-Serif" font-size="10.00">Drawer.drawShape</text>
</a>
</g>
</g>
<!-- Node1&#45;&gt;Node4 -->
<g id="edge3" class="edge"><title>Node1&#45;&gt;Node4</title>
<path fill="none" stroke="midnightblue" d="M207.65,-31.1736C224.743,-29.3708 242.465,-27.5017 259.529,-25.702"/>
<polygon fill="midnightblue" stroke="midnightblue" points="259.913,-29.1811 269.49,-24.6514 259.178,-22.2197 259.913,-29.1811"/>
</g>
<!-- Node3 -->
<g id="node3" class="node"><title>Node3</title>
<g id="a_node3"><a xlink:href="../../d8/d70/classgui_1_1componentdrawers_1_1_command_line_drawer.html#a08074f05635bafab1fbf64d7aedf0b72" target="_top" xlink:title="gui.componentdrawers.Command\lLineDrawer.setCommandLine">
<polygon fill="white" stroke="black" points="516.5,-54 516.5,-84 695.5,-84 695.5,-54 516.5,-54"/>
<text text-anchor="start" x="524.5" y="-72" font-family="Helvetica,sans-Serif" font-size="10.00">gui.componentdrawers.Command</text>
<text text-anchor="middle" x="606" y="-61" font-family="Helvetica,sans-Serif" font-size="10.00">LineDrawer.setCommandLine</text>
</a>
</g>
</g>
<!-- Node2&#45;&gt;Node3 -->
<g id="edge2" class="edge"><title>Node2&#45;&gt;Node3</title>
<path fill="none" stroke="midnightblue" d="M479.747,-69C488.608,-69 497.499,-69 506.231,-69"/>
<polygon fill="midnightblue" stroke="midnightblue" points="506.396,-72.5001 516.396,-69 506.396,-65.5001 506.396,-72.5001"/>
</g>
</g>
</svg>
