<?xml version="1.0" encoding="UTF-8" standalone="no"?>
<!DOCTYPE svg PUBLIC "-//W3C//DTD SVG 1.1//EN"
 "http://www.w3.org/Graphics/SVG/1.1/DTD/svg11.dtd">
<!-- Generated by graphviz version 2.36.0 (20140111.2315)
 -->
<!-- Title: gui.componentdrawers.ErrorDrawer.setParentNode Pages: 1 -->
<svg width="380pt" height="38pt"
 viewBox="0.00 0.00 380.00 38.00" xmlns="http://www.w3.org/2000/svg" xmlns:xlink="http://www.w3.org/1999/xlink">
<g id="graph0" class="graph" transform="scale(1 1) rotate(0) translate(4 34)">
<title>gui.componentdrawers.ErrorDrawer.setParentNode</title>
<polygon fill="white" stroke="none" points="-4,4 -4,-34 376,-34 376,4 -4,4"/>
<!-- Node1 -->
<g id="node1" class="node"><title>Node1</title>
<polygon fill="#bfbfbf" stroke="black" points="0,-0 0,-30 152,-30 152,-0 0,-0"/>
<text text-anchor="start" x="8" y="-18" font-family="Helvetica,sans-Serif" font-size="10.00">gui.componentdrawers.Error</text>
<text text-anchor="middle" x="76" y="-7" font-family="Helvetica,sans-Serif" font-size="10.00">Drawer.setParentNode</text>
</g>
<!-- Node2 -->
<g id="node2" class="node"><title>Node2</title>
<g id="a_node2"><a xlink:href="../../da/d12/classgui_1_1nonbuttonfeatures_1_1_error_display_feature.html#af234016a1e1921adfdc1ef754f3b52e9" target="_top" xlink:title="gui.nonbuttonfeatures.Error\lDisplayFeature.ErrorDisplayFeature">
<polygon fill="white" stroke="black" points="188,-0 188,-30 372,-30 372,-0 188,-0"/>
<text text-anchor="start" x="196" y="-18" font-family="Helvetica,sans-Serif" font-size="10.00">gui.nonbuttonfeatures.Error</text>
<text text-anchor="middle" x="280" y="-7" font-family="Helvetica,sans-Serif" font-size="10.00">DisplayFeature.ErrorDisplayFeature</text>
</a>
</g>
</g>
<!-- Node1&#45;&gt;Node2 -->
<g id="edge1" class="edge"><title>Node1&#45;&gt;Node2</title>
<path fill="none" stroke="midnightblue" d="M162.341,-15C170.714,-15 179.234,-15 187.664,-15"/>
<polygon fill="midnightblue" stroke="midnightblue" points="162.217,-11.5001 152.217,-15 162.217,-18.5001 162.217,-11.5001"/>
</g>
</g>
</svg>
