<?xml version="1.0" encoding="UTF-8" standalone="no"?>
<!DOCTYPE svg PUBLIC "-//W3C//DTD SVG 1.1//EN"
 "http://www.w3.org/Graphics/SVG/1.1/DTD/svg11.dtd">
<!-- Generated by graphviz version 2.36.0 (20140111.2315)
 -->
<!-- Title: commandParsing.drawableObectGenerationInterfaces.ColorPaletteUpdateGenerator.generateDrawableObjectRepresentingColorPaletteUpdate Pages: 1 -->
<svg width="482pt" height="60pt"
 viewBox="0.00 0.00 482.00 60.00" xmlns="http://www.w3.org/2000/svg" xmlns:xlink="http://www.w3.org/1999/xlink">
<g id="graph0" class="graph" transform="scale(1 1) rotate(0) translate(4 56)">
<title>commandParsing.drawableObectGenerationInterfaces.ColorPaletteUpdateGenerator.generateDrawableObjectRepresentingColorPaletteUpdate</title>
<polygon fill="white" stroke="none" points="-4,4 -4,-56 478,-56 478,4 -4,4"/>
<!-- Node1 -->
<g id="node1" class="node"><title>Node1</title>
<polygon fill="#bfbfbf" stroke="black" points="0.5,-0 0.5,-52 221.5,-52 221.5,-0 0.5,-0"/>
<text text-anchor="start" x="8.5" y="-40" font-family="Helvetica,sans-Serif" font-size="10.00">commandParsing.drawableObect</text>
<text text-anchor="start" x="8.5" y="-29" font-family="Helvetica,sans-Serif" font-size="10.00">GenerationInterfaces.ColorPalette</text>
<text text-anchor="start" x="8.5" y="-18" font-family="Helvetica,sans-Serif" font-size="10.00">UpdateGenerator.generateDrawableObject</text>
<text text-anchor="middle" x="111" y="-7" font-family="Helvetica,sans-Serif" font-size="10.00">RepresentingColorPaletteUpdate</text>
</g>
<!-- Node2 -->
<g id="node2" class="node"><title>Node2</title>
<g id="a_node2"><a xlink:href="../../dd/dff/classcommand_parsing_1_1color_commandparsing_1_1_set_palette.html#aaa1cbd8f43c86a2d29b299be7fc543bd" target="_top" xlink:title="commandParsing.colorCommandparsing.\lSetPalette.operateOnComponents">
<polygon fill="white" stroke="black" points="258.5,-11 258.5,-41 473.5,-41 473.5,-11 258.5,-11"/>
<text text-anchor="start" x="266.5" y="-29" font-family="Helvetica,sans-Serif" font-size="10.00">commandParsing.colorCommandparsing.</text>
<text text-anchor="middle" x="366" y="-18" font-family="Helvetica,sans-Serif" font-size="10.00">SetPalette.operateOnComponents</text>
</a>
</g>
</g>
<!-- Node1&#45;&gt;Node2 -->
<g id="edge1" class="edge"><title>Node1&#45;&gt;Node2</title>
<path fill="none" stroke="midnightblue" d="M232.144,-26C240.924,-26 249.745,-26 258.438,-26"/>
<polygon fill="midnightblue" stroke="midnightblue" points="231.866,-22.5001 221.866,-26 231.866,-29.5001 231.866,-22.5001"/>
</g>
</g>
</svg>
