<?xml version="1.0" encoding="UTF-8" standalone="no"?>
<!DOCTYPE svg PUBLIC "-//W3C//DTD SVG 1.1//EN"
 "http://www.w3.org/Graphics/SVG/1.1/DTD/svg11.dtd">
<!-- Generated by graphviz version 2.36.0 (20140111.2315)
 -->
<!-- Title: commandParsing.exceptions.RunTimeDivideByZeroException Pages: 1 -->
<svg width="174pt" height="164pt"
 viewBox="0.00 0.00 174.00 164.00" xmlns="http://www.w3.org/2000/svg" xmlns:xlink="http://www.w3.org/1999/xlink">
<g id="graph0" class="graph" transform="scale(1 1) rotate(0) translate(4 160)">
<title>commandParsing.exceptions.RunTimeDivideByZeroException</title>
<polygon fill="white" stroke="none" points="-4,4 -4,-160 170,-160 170,4 -4,4"/>
<!-- Node1 -->
<g id="node1" class="node"><title>Node1</title>
<polygon fill="#bfbfbf" stroke="black" points="-1,-1 -1,-31 167,-31 167,-1 -1,-1"/>
<text text-anchor="start" x="7" y="-19" font-family="Helvetica,sans-Serif" font-size="10.00">commandParsing.exceptions.</text>
<text text-anchor="middle" x="83" y="-8" font-family="Helvetica,sans-Serif" font-size="10.00">RunTimeDivideByZeroException</text>
</g>
<!-- Node2 -->
<g id="node2" class="node"><title>Node2</title>
<g id="a_node2"><a xlink:href="../../d7/ddf/classcommand_parsing_1_1exceptions_1_1_s_l_o_g_o_exception.html" target="_top" xlink:title="commandParsing.exceptions.\lSLOGOException">
<polygon fill="white" stroke="black" points="4,-69 4,-99 162,-99 162,-69 4,-69"/>
<text text-anchor="start" x="12" y="-87" font-family="Helvetica,sans-Serif" font-size="10.00">commandParsing.exceptions.</text>
<text text-anchor="middle" x="83" y="-76" font-family="Helvetica,sans-Serif" font-size="10.00">SLOGOException</text>
</a>
</g>
</g>
<!-- Node2&#45;&gt;Node1 -->
<g id="edge1" class="edge"><title>Node2&#45;&gt;Node1</title>
<path fill="none" stroke="midnightblue" d="M83,-58.5322C83,-49.3606 83,-39.2449 83,-31.2931"/>
<polygon fill="midnightblue" stroke="midnightblue" points="79.5001,-58.6789 83,-68.679 86.5001,-58.679 79.5001,-58.6789"/>
</g>
<!-- Node3 -->
<g id="node3" class="node"><title>Node3</title>
<polygon fill="white" stroke="#bfbfbf" points="51.5,-136.5 51.5,-155.5 114.5,-155.5 114.5,-136.5 51.5,-136.5"/>
<text text-anchor="middle" x="83" y="-143.5" font-family="Helvetica,sans-Serif" font-size="10.00">Exception</text>
</g>
<!-- Node3&#45;&gt;Node2 -->
<g id="edge2" class="edge"><title>Node3&#45;&gt;Node2</title>
<path fill="none" stroke="midnightblue" d="M83,-126.371C83,-117.585 83,-107.272 83,-99.1408"/>
<polygon fill="midnightblue" stroke="midnightblue" points="79.5001,-126.403 83,-136.403 86.5001,-126.403 79.5001,-126.403"/>
</g>
</g>
</svg>
