<?xml version="1.0" encoding="UTF-8" standalone="no"?>
<!DOCTYPE svg PUBLIC "-//W3C//DTD SVG 1.1//EN"
 "http://www.w3.org/Graphics/SVG/1.1/DTD/svg11.dtd">
<!-- Generated by graphviz version 2.36.0 (20140111.2315)
 -->
<!-- Title: commandParsing.turtleCommandParsing.turtleAttributeSetters.PenUp Pages: 1 -->
<svg width="1414pt" height="290pt"
 viewBox="0.00 0.00 1414.00 290.00" xmlns="http://www.w3.org/2000/svg" xmlns:xlink="http://www.w3.org/1999/xlink">
<g id="graph0" class="graph" transform="scale(1 1) rotate(0) translate(4 286)">
<title>commandParsing.turtleCommandParsing.turtleAttributeSetters.PenUp</title>
<polygon fill="white" stroke="none" points="-4,4 -4,-286 1410,-286 1410,4 -4,4"/>
<!-- Node1 -->
<g id="node1" class="node"><title>Node1</title>
<polygon fill="#bfbfbf" stroke="black" points="1214.5,-135 1214.5,-165 1405.5,-165 1405.5,-135 1214.5,-135"/>
<text text-anchor="start" x="1222.5" y="-153" font-family="Helvetica,sans-Serif" font-size="10.00">commandParsing.turtleCommand</text>
<text text-anchor="middle" x="1310" y="-142" font-family="Helvetica,sans-Serif" font-size="10.00">Parsing.turtleAttributeSetters.PenUp</text>
</g>
<!-- Node2 -->
<g id="node2" class="node"><title>Node2</title>
<g id="a_node2"><a xlink:href="../../d7/d17/classcommand_parsing_1_1_command_parser.html" target="_top" xlink:title="commandParsing.CommandParser">
<polygon fill="white" stroke="black" points="992.5,-140.5 992.5,-159.5 1175.5,-159.5 1175.5,-140.5 992.5,-140.5"/>
<text text-anchor="middle" x="1084" y="-147.5" font-family="Helvetica,sans-Serif" font-size="10.00">commandParsing.CommandParser</text>
</a>
</g>
</g>
<!-- Node2&#45;&gt;Node1 -->
<g id="edge1" class="edge"><title>Node2&#45;&gt;Node1</title>
<path fill="none" stroke="midnightblue" d="M1186,-150C1195.46,-150 1205.03,-150 1214.44,-150"/>
<polygon fill="midnightblue" stroke="midnightblue" points="1185.79,-146.5 1175.79,-150 1185.79,-153.5 1185.79,-146.5"/>
</g>
<!-- Node3 -->
<g id="node3" class="node"><title>Node3</title>
<polygon fill="white" stroke="#bfbfbf" points="719.5,-160.5 719.5,-179.5 808.5,-179.5 808.5,-160.5 719.5,-160.5"/>
<text text-anchor="middle" x="764" y="-167.5" font-family="Helvetica,sans-Serif" font-size="10.00">List&lt; Double &gt;</text>
</g>
<!-- Node3&#45;&gt;Node2 -->
<g id="edge2" class="edge"><title>Node3&#45;&gt;Node2</title>
<path fill="none" stroke="#9a32cd" stroke-dasharray="5,2" d="M818.61,-166.628C866.047,-163.645 936.254,-159.229 992.401,-155.698"/>
<polygon fill="#9a32cd" stroke="#9a32cd" points="818.31,-163.14 808.55,-167.261 818.75,-170.126 818.31,-163.14"/>
<text text-anchor="middle" x="915" y="-168" font-family="Helvetica,sans-Serif" font-size="10.00"> expressionComponents</text>
</g>
<!-- Node4 -->
<g id="node4" class="node"><title>Node4</title>
<g id="a_node4"><a xlink:href="../../d5/daa/classworkspace_state_1_1_workspace_state.html" target="_top" xlink:title="workspaceState.Workspace\lState">
<polygon fill="white" stroke="black" points="690.5,-111 690.5,-141 837.5,-141 837.5,-111 690.5,-111"/>
<text text-anchor="start" x="698.5" y="-129" font-family="Helvetica,sans-Serif" font-size="10.00">workspaceState.Workspace</text>
<text text-anchor="middle" x="764" y="-118" font-family="Helvetica,sans-Serif" font-size="10.00">State</text>
</a>
</g>
</g>
<!-- Node4&#45;&gt;Node2 -->
<g id="edge3" class="edge"><title>Node4&#45;&gt;Node2</title>
<path fill="none" stroke="#9a32cd" stroke-dasharray="5,2" d="M847.719,-132.243C892.054,-135.589 946.759,-139.718 992.259,-143.152"/>
<polygon fill="#9a32cd" stroke="#9a32cd" points="847.792,-128.739 837.557,-131.476 847.265,-135.719 847.792,-128.739"/>
<text text-anchor="middle" x="915" y="-145" font-family="Helvetica,sans-Serif" font-size="10.00"> workspace</text>
</g>
<!-- Node5 -->
<g id="node5" class="node"><title>Node5</title>
<g id="a_node5"><a xlink:href="../../db/d1f/classworkspace_state_1_1_turtle_collection.html" target="_top" xlink:title="workspaceState.TurtleCollection">
<polygon fill="white" stroke="black" points="420,-238.5 420,-257.5 588,-257.5 588,-238.5 420,-238.5"/>
<text text-anchor="middle" x="504" y="-245.5" font-family="Helvetica,sans-Serif" font-size="10.00">workspaceState.TurtleCollection</text>
</a>
</g>
</g>
<!-- Node5&#45;&gt;Node4 -->
<g id="edge4" class="edge"><title>Node5&#45;&gt;Node4</title>
<path fill="none" stroke="#9a32cd" stroke-dasharray="5,2" d="M552.835,-235.749C564.424,-232.506 576.721,-228.831 588,-225 626.135,-212.046 642.981,-218.929 672,-191 686.046,-177.481 675.59,-164.13 690,-151 694.258,-147.12 699.145,-143.839 704.33,-141.064"/>
<polygon fill="#9a32cd" stroke="#9a32cd" points="551.594,-232.46 542.877,-238.482 553.447,-239.211 551.594,-232.46"/>
<text text-anchor="middle" x="639" y="-223" font-family="Helvetica,sans-Serif" font-size="10.00"> turtles</text>
</g>
<!-- Node6 -->
<g id="node6" class="node"><title>Node6</title>
<polygon fill="white" stroke="#bfbfbf" points="35.5,-235 35.5,-265 202.5,-265 202.5,-235 35.5,-235"/>
<text text-anchor="start" x="43.5" y="-253" font-family="Helvetica,sans-Serif" font-size="10.00">Map&lt; Integer, workspaceState.</text>
<text text-anchor="middle" x="119" y="-242" font-family="Helvetica,sans-Serif" font-size="10.00">Turtle &gt;</text>
</g>
<!-- Node6&#45;&gt;Node5 -->
<g id="edge5" class="edge"><title>Node6&#45;&gt;Node5</title>
<path fill="none" stroke="#9a32cd" stroke-dasharray="5,2" d="M212.989,-249.514C276.13,-249.185 358.905,-248.752 419.854,-248.434"/>
<polygon fill="#9a32cd" stroke="#9a32cd" points="212.615,-246.016 202.634,-249.568 212.652,-253.016 212.615,-246.016"/>
<text text-anchor="middle" x="329" y="-274" font-family="Helvetica,sans-Serif" font-size="10.00"> turtles</text>
<text text-anchor="middle" x="329" y="-263" font-family="Helvetica,sans-Serif" font-size="10.00">activeTurtles</text>
<text text-anchor="middle" x="329" y="-252" font-family="Helvetica,sans-Serif" font-size="10.00">turtleStamps</text>
</g>
<!-- Node7 -->
<g id="node7" class="node"><title>Node7</title>
<g id="a_node7"><a xlink:href="../../d2/df5/classworkspace_state_1_1_palette.html" target="_top" xlink:title="workspaceState.Palette\l\&lt; workspaceState.Shape \&gt;">
<polygon fill="white" stroke="black" points="429.5,-186 429.5,-216 578.5,-216 578.5,-186 429.5,-186"/>
<text text-anchor="start" x="437.5" y="-204" font-family="Helvetica,sans-Serif" font-size="10.00">workspaceState.Palette</text>
<text text-anchor="middle" x="504" y="-193" font-family="Helvetica,sans-Serif" font-size="10.00">&lt; workspaceState.Shape &gt;</text>
</a>
</g>
</g>
<!-- Node7&#45;&gt;Node4 -->
<g id="edge6" class="edge"><title>Node7&#45;&gt;Node4</title>
<path fill="none" stroke="#9a32cd" stroke-dasharray="5,2" d="M576.242,-183.413C605.977,-175.766 640.795,-166.413 672,-157 674.547,-156.232 697.129,-148.539 719.158,-141.01"/>
<polygon fill="#9a32cd" stroke="#9a32cd" points="575.187,-180.07 566.366,-185.938 576.921,-186.852 575.187,-180.07"/>
<text text-anchor="middle" x="639" y="-179" font-family="Helvetica,sans-Serif" font-size="10.00"> shapePalette</text>
</g>
<!-- Node8 -->
<g id="node8" class="node"><title>Node8</title>
<g id="a_node8"><a xlink:href="../../dd/d73/classworkspace_state_1_1_user_defined_variable_collection.html" target="_top" xlink:title="workspaceState.UserDefined\lVariableCollection">
<polygon fill="white" stroke="black" points="426.5,-137 426.5,-167 581.5,-167 581.5,-137 426.5,-137"/>
<text text-anchor="start" x="434.5" y="-155" font-family="Helvetica,sans-Serif" font-size="10.00">workspaceState.UserDefined</text>
<text text-anchor="middle" x="504" y="-144" font-family="Helvetica,sans-Serif" font-size="10.00">VariableCollection</text>
</a>
</g>
</g>
<!-- Node8&#45;&gt;Node4 -->
<g id="edge7" class="edge"><title>Node8&#45;&gt;Node4</title>
<path fill="none" stroke="#9a32cd" stroke-dasharray="5,2" d="M591.921,-143.241C623.823,-140.026 659.581,-136.422 690.125,-133.344"/>
<polygon fill="#9a32cd" stroke="#9a32cd" points="591.309,-139.784 581.71,-144.27 592.011,-146.749 591.309,-139.784"/>
<text text-anchor="middle" x="639" y="-145" font-family="Helvetica,sans-Serif" font-size="10.00"> variables</text>
</g>
<!-- Node9 -->
<g id="node9" class="node"><title>Node9</title>
<polygon fill="white" stroke="#bfbfbf" points="39.5,-186 39.5,-216 198.5,-216 198.5,-186 39.5,-186"/>
<text text-anchor="start" x="47.5" y="-204" font-family="Helvetica,sans-Serif" font-size="10.00">Map&lt; String, gui.variableslist.</text>
<text text-anchor="middle" x="119" y="-193" font-family="Helvetica,sans-Serif" font-size="10.00">WorkspaceVariable &gt;</text>
</g>
<!-- Node9&#45;&gt;Node8 -->
<g id="edge8" class="edge"><title>Node9&#45;&gt;Node8</title>
<path fill="none" stroke="#9a32cd" stroke-dasharray="5,2" d="M208.945,-190.909C264.493,-184.45 337.472,-175.68 402,-167 409.906,-165.937 418.153,-164.783 426.378,-163.605"/>
<polygon fill="#9a32cd" stroke="#9a32cd" points="208.312,-187.459 198.782,-192.088 209.118,-194.413 208.312,-187.459"/>
<text text-anchor="middle" x="329" y="-188" font-family="Helvetica,sans-Serif" font-size="10.00"> variableMap</text>
</g>
<!-- Node10 -->
<g id="node10" class="node"><title>Node10</title>
<g id="a_node10"><a xlink:href="../../d9/da1/classgui_1_1variableslist_1_1_workspace_variable.html" target="_top" xlink:title="gui.variableslist.Workspace\lVariable">
<polygon fill="white" stroke="black" points="47,-137 47,-167 191,-167 191,-137 47,-137"/>
<text text-anchor="start" x="55" y="-155" font-family="Helvetica,sans-Serif" font-size="10.00">gui.variableslist.Workspace</text>
<text text-anchor="middle" x="119" y="-144" font-family="Helvetica,sans-Serif" font-size="10.00">Variable</text>
</a>
</g>
</g>
<!-- Node10&#45;&gt;Node8 -->
<g id="edge9" class="edge"><title>Node10&#45;&gt;Node8</title>
<path fill="none" stroke="#9a32cd" stroke-dasharray="5,2" d="M201.162,-152C267.654,-152 361.086,-152 426.327,-152"/>
<polygon fill="#9a32cd" stroke="#9a32cd" points="201.142,-148.5 191.142,-152 201.142,-155.5 201.142,-148.5"/>
<text text-anchor="middle" x="329" y="-155" font-family="Helvetica,sans-Serif" font-size="10.00"> defaultVar</text>
</g>
<!-- Node11 -->
<g id="node11" class="node"><title>Node11</title>
<g id="a_node11"><a xlink:href="../../d2/d58/classworkspace_state_1_1_user_defined_command_collection.html" target="_top" xlink:title="workspaceState.UserDefined\lCommandCollection">
<polygon fill="white" stroke="black" points="426.5,-88 426.5,-118 581.5,-118 581.5,-88 426.5,-88"/>
<text text-anchor="start" x="434.5" y="-106" font-family="Helvetica,sans-Serif" font-size="10.00">workspaceState.UserDefined</text>
<text text-anchor="middle" x="504" y="-95" font-family="Helvetica,sans-Serif" font-size="10.00">CommandCollection</text>
</a>
</g>
</g>
<!-- Node11&#45;&gt;Node4 -->
<g id="edge10" class="edge"><title>Node11&#45;&gt;Node4</title>
<path fill="none" stroke="#9a32cd" stroke-dasharray="5,2" d="M591.764,-106.046C617.621,-107.393 645.994,-109.305 672,-112 677.883,-112.61 683.966,-113.335 690.069,-114.131"/>
<polygon fill="#9a32cd" stroke="#9a32cd" points="591.773,-102.542 581.611,-105.539 591.424,-109.533 591.773,-102.542"/>
<text text-anchor="middle" x="639" y="-115" font-family="Helvetica,sans-Serif" font-size="10.00"> commands</text>
</g>
<!-- Node12 -->
<g id="node12" class="node"><title>Node12</title>
<polygon fill="white" stroke="#bfbfbf" points="0.5,-88 0.5,-118 237.5,-118 237.5,-88 0.5,-88"/>
<text text-anchor="start" x="8.5" y="-106" font-family="Helvetica,sans-Serif" font-size="10.00">Map&lt; String, workspaceState.</text>
<text text-anchor="middle" x="119" y="-95" font-family="Helvetica,sans-Serif" font-size="10.00">UserDefinedCommandCollection.Command &gt;</text>
</g>
<!-- Node12&#45;&gt;Node11 -->
<g id="edge11" class="edge"><title>Node12&#45;&gt;Node11</title>
<path fill="none" stroke="#9a32cd" stroke-dasharray="5,2" d="M247.683,-103C306.827,-103 375.141,-103 426.215,-103"/>
<polygon fill="#9a32cd" stroke="#9a32cd" points="247.516,-99.5001 237.515,-103 247.515,-106.5 247.516,-99.5001"/>
<text text-anchor="middle" x="329" y="-106" font-family="Helvetica,sans-Serif" font-size="10.00"> commandMap</text>
</g>
<!-- Node13 -->
<g id="node13" class="node"><title>Node13</title>
<g id="a_node13"><a xlink:href="../../d3/de0/classtranslator_1_1_translator.html" target="_top" xlink:title="translator.Translator">
<polygon fill="white" stroke="black" points="448,-49.5 448,-68.5 560,-68.5 560,-49.5 448,-49.5"/>
<text text-anchor="middle" x="504" y="-56.5" font-family="Helvetica,sans-Serif" font-size="10.00">translator.Translator</text>
</a>
</g>
</g>
<!-- Node13&#45;&gt;Node4 -->
<g id="edge12" class="edge"><title>Node13&#45;&gt;Node4</title>
<path fill="none" stroke="#9a32cd" stroke-dasharray="5,2" d="M569.932,-69.2991C601.087,-74.8819 638.776,-82.5781 672,-92 690.335,-97.1995 710.214,-104.433 726.701,-110.893"/>
<polygon fill="#9a32cd" stroke="#9a32cd" points="570.516,-65.8481 560.061,-67.5613 569.302,-72.7421 570.516,-65.8481"/>
<text text-anchor="middle" x="639" y="-95" font-family="Helvetica,sans-Serif" font-size="10.00"> translator</text>
</g>
<!-- Node14 -->
<g id="node14" class="node"><title>Node14</title>
<polygon fill="white" stroke="#bfbfbf" points="58,-4.5 58,-23.5 180,-23.5 180,-4.5 58,-4.5"/>
<text text-anchor="middle" x="119" y="-11.5" font-family="Helvetica,sans-Serif" font-size="10.00">Map&lt; String, String &gt;</text>
</g>
<!-- Node14&#45;&gt;Node13 -->
<g id="edge13" class="edge"><title>Node14&#45;&gt;Node13</title>
<path fill="none" stroke="#9a32cd" stroke-dasharray="5,2" d="M190.327,-13.7993C247.772,-14.8131 330.809,-18.9751 402,-33 410.274,-34.6299 411.894,-36.6768 420,-39 432.966,-42.7159 447.202,-46.3172 460.166,-49.4158"/>
<polygon fill="#9a32cd" stroke="#9a32cd" points="190.316,-10.2988 180.265,-13.6493 190.211,-17.2981 190.316,-10.2988"/>
<text text-anchor="middle" x="329" y="-91" font-family="Helvetica,sans-Serif" font-size="10.00"> dictionaryOfClassNameToPath</text>
<text text-anchor="middle" x="329" y="-80" font-family="Helvetica,sans-Serif" font-size="10.00">reverseMapping</text>
<text text-anchor="start" x="256" y="-69" font-family="Helvetica,sans-Serif" font-size="10.00">dictionaryOfLanguageToClass</text>
<text text-anchor="middle" x="329" y="-58" font-family="Helvetica,sans-Serif" font-size="10.00">Path</text>
<text text-anchor="middle" x="329" y="-47" font-family="Helvetica,sans-Serif" font-size="10.00">syntaxDictionary</text>
<text text-anchor="middle" x="329" y="-36" font-family="Helvetica,sans-Serif" font-size="10.00">dictionaryLanguageToEnglish</text>
</g>
<!-- Node15 -->
<g id="node15" class="node"><title>Node15</title>
<g id="a_node15"><a xlink:href="../../d2/df5/classworkspace_state_1_1_palette.html" target="_top" xlink:title="workspaceState.Palette\l\&lt; Color \&gt;">
<polygon fill="white" stroke="black" points="439.5,-0 439.5,-30 568.5,-30 568.5,-0 439.5,-0"/>
<text text-anchor="start" x="447.5" y="-18" font-family="Helvetica,sans-Serif" font-size="10.00">workspaceState.Palette</text>
<text text-anchor="middle" x="504" y="-7" font-family="Helvetica,sans-Serif" font-size="10.00">&lt; Color &gt;</text>
</a>
</g>
</g>
<!-- Node15&#45;&gt;Node4 -->
<g id="edge14" class="edge"><title>Node15&#45;&gt;Node4</title>
<path fill="none" stroke="#9a32cd" stroke-dasharray="5,2" d="M578.608,-30.0024C608.426,-37.5277 642.671,-48.0619 672,-62 699.563,-75.0988 727.767,-96.4077 745.321,-110.803"/>
<polygon fill="#9a32cd" stroke="#9a32cd" points="579.225,-26.55 568.679,-27.5651 577.556,-33.3482 579.225,-26.55"/>
<text text-anchor="middle" x="639" y="-65" font-family="Helvetica,sans-Serif" font-size="10.00"> colorPalette</text>
</g>
</g>
</svg>
