<?xml version="1.0" encoding="UTF-8" standalone="no"?>
<!DOCTYPE svg PUBLIC "-//W3C//DTD SVG 1.1//EN"
 "http://www.w3.org/Graphics/SVG/1.1/DTD/svg11.dtd">
<!-- Generated by graphviz version 2.36.0 (20140111.2315)
 -->
<!-- Title: commandParsing.structuralCommandParsing.IfElse Pages: 1 -->
<svg width="210pt" height="242pt"
 viewBox="0.00 0.00 210.00 242.00" xmlns="http://www.w3.org/2000/svg" xmlns:xlink="http://www.w3.org/1999/xlink">
<g id="graph0" class="graph" transform="scale(1 1) rotate(0) translate(4 238)">
<title>commandParsing.structuralCommandParsing.IfElse</title>
<polygon fill="white" stroke="none" points="-4,4 -4,-238 206,-238 206,4 -4,4"/>
<!-- Node1 -->
<g id="node1" class="node"><title>Node1</title>
<polygon fill="#bfbfbf" stroke="black" points="26.5,-1 26.5,-31 175.5,-31 175.5,-1 26.5,-1"/>
<text text-anchor="start" x="34.5" y="-19" font-family="Helvetica,sans-Serif" font-size="10.00">commandParsing.structural</text>
<text text-anchor="middle" x="101" y="-8" font-family="Helvetica,sans-Serif" font-size="10.00">CommandParsing.IfElse</text>
</g>
<!-- Node2 -->
<g id="node2" class="node"><title>Node2</title>
<g id="a_node2"><a xlink:href="../../dd/d10/classcommand_parsing_1_1structural_command_parsing_1_1_structural_command_on_boolean_switch.html" target="_top" xlink:title="commandParsing.structural\lCommandParsing.StructuralCommand\lOnBooleanSwitch">
<polygon fill="white" stroke="black" points="0,-68.5 0,-109.5 202,-109.5 202,-68.5 0,-68.5"/>
<text text-anchor="start" x="8" y="-97.5" font-family="Helvetica,sans-Serif" font-size="10.00">commandParsing.structural</text>
<text text-anchor="start" x="8" y="-86.5" font-family="Helvetica,sans-Serif" font-size="10.00">CommandParsing.StructuralCommand</text>
<text text-anchor="middle" x="101" y="-75.5" font-family="Helvetica,sans-Serif" font-size="10.00">OnBooleanSwitch</text>
</a>
</g>
</g>
<!-- Node2&#45;&gt;Node1 -->
<g id="edge1" class="edge"><title>Node2&#45;&gt;Node1</title>
<path fill="none" stroke="midnightblue" d="M101,-58.0188C101,-48.6567 101,-38.7696 101,-31.0485"/>
<polygon fill="midnightblue" stroke="midnightblue" points="97.5001,-58.2225 101,-68.2225 104.5,-58.2226 97.5001,-58.2225"/>
</g>
<!-- Node3 -->
<g id="node3" class="node"><title>Node3</title>
<g id="a_node3"><a xlink:href="../../de/dcc/classcommand_parsing_1_1structural_command_parsing_1_1_structural_command.html" target="_top" xlink:title="commandParsing.structural\lCommandParsing.StructuralCommand">
<polygon fill="white" stroke="black" points="0,-147 0,-177 202,-177 202,-147 0,-147"/>
<text text-anchor="start" x="8" y="-165" font-family="Helvetica,sans-Serif" font-size="10.00">commandParsing.structural</text>
<text text-anchor="middle" x="101" y="-154" font-family="Helvetica,sans-Serif" font-size="10.00">CommandParsing.StructuralCommand</text>
</a>
</g>
</g>
<!-- Node3&#45;&gt;Node2 -->
<g id="edge2" class="edge"><title>Node3&#45;&gt;Node2</title>
<path fill="none" stroke="midnightblue" d="M101,-136.853C101,-127.987 101,-118.065 101,-109.642"/>
<polygon fill="midnightblue" stroke="midnightblue" points="97.5001,-136.973 101,-146.973 104.5,-136.973 97.5001,-136.973"/>
</g>
<!-- Node4 -->
<g id="node4" class="node"><title>Node4</title>
<g id="a_node4"><a xlink:href="../../d7/d17/classcommand_parsing_1_1_command_parser.html" target="_top" xlink:title="commandParsing.CommandParser">
<polygon fill="white" stroke="black" points="9.5,-214.5 9.5,-233.5 192.5,-233.5 192.5,-214.5 9.5,-214.5"/>
<text text-anchor="middle" x="101" y="-221.5" font-family="Helvetica,sans-Serif" font-size="10.00">commandParsing.CommandParser</text>
</a>
</g>
</g>
<!-- Node4&#45;&gt;Node3 -->
<g id="edge3" class="edge"><title>Node4&#45;&gt;Node3</title>
<path fill="none" stroke="midnightblue" d="M101,-204.371C101,-195.585 101,-185.272 101,-177.141"/>
<polygon fill="midnightblue" stroke="midnightblue" points="97.5001,-204.403 101,-214.403 104.5,-204.403 97.5001,-204.403"/>
</g>
</g>
</svg>
