<?xml version="1.0" encoding="UTF-8" standalone="no"?>
<!DOCTYPE svg PUBLIC "-//W3C//DTD SVG 1.1//EN"
 "http://www.w3.org/Graphics/SVG/1.1/DTD/svg11.dtd">
<!-- Generated by graphviz version 2.36.0 (20140111.2315)
 -->
<!-- Title: commandParsing.turtleCommandParsing.ClearScreen.operateOnComponents Pages: 1 -->
<svg width="510pt" height="98pt"
 viewBox="0.00 0.00 510.00 98.00" xmlns="http://www.w3.org/2000/svg" xmlns:xlink="http://www.w3.org/1999/xlink">
<g id="graph0" class="graph" transform="scale(1 1) rotate(0) translate(4 94)">
<title>commandParsing.turtleCommandParsing.ClearScreen.operateOnComponents</title>
<polygon fill="white" stroke="none" points="-4,4 -4,-94 506,-94 506,4 -4,4"/>
<!-- Node1 -->
<g id="node1" class="node"><title>Node1</title>
<polygon fill="#bfbfbf" stroke="black" points="0,-27 0,-57 228,-57 228,-27 0,-27"/>
<text text-anchor="start" x="8" y="-45" font-family="Helvetica,sans-Serif" font-size="10.00">commandParsing.turtleCommand</text>
<text text-anchor="middle" x="114" y="-34" font-family="Helvetica,sans-Serif" font-size="10.00">Parsing.ClearScreen.operateOnComponents</text>
</g>
<!-- Node2 -->
<g id="node2" class="node"><title>Node2</title>
<g id="a_node2"><a xlink:href="../../d1/d65/interfacecommand_parsing_1_1drawable_obect_generation_interfaces_1_1_pane_generator.html#ac7ba246e2a65717c9e3ff72f19118eb3" target="_top" xlink:title="commandParsing.drawableObect\lGenerationInterfaces.PaneGenerator.generate\lDrawableObjectRepresentingPaneReset">
<polygon fill="white" stroke="black" points="264,-48.5 264,-89.5 502,-89.5 502,-48.5 264,-48.5"/>
<text text-anchor="start" x="272" y="-77.5" font-family="Helvetica,sans-Serif" font-size="10.00">commandParsing.drawableObect</text>
<text text-anchor="start" x="272" y="-66.5" font-family="Helvetica,sans-Serif" font-size="10.00">GenerationInterfaces.PaneGenerator.generate</text>
<text text-anchor="middle" x="383" y="-55.5" font-family="Helvetica,sans-Serif" font-size="10.00">DrawableObjectRepresentingPaneReset</text>
</a>
</g>
</g>
<!-- Node1&#45;&gt;Node2 -->
<g id="edge1" class="edge"><title>Node1&#45;&gt;Node2</title>
<path fill="none" stroke="midnightblue" d="M228.232,-53.4504C236.711,-54.3079 245.302,-55.1766 253.863,-56.0423"/>
<polygon fill="midnightblue" stroke="midnightblue" points="253.59,-59.5324 263.891,-57.0564 254.294,-52.568 253.59,-59.5324"/>
</g>
<!-- Node3 -->
<g id="node3" class="node"><title>Node3</title>
<g id="a_node3"><a xlink:href="../../db/d1f/classworkspace_state_1_1_turtle_collection.html#a6c49b4d7d24c0ed82ea491185b023cf0" target="_top" xlink:title="workspaceState.TurtleCollection.get\lActiveTurtles">
<polygon fill="white" stroke="black" points="289.5,-0 289.5,-30 476.5,-30 476.5,-0 289.5,-0"/>
<text text-anchor="start" x="297.5" y="-18" font-family="Helvetica,sans-Serif" font-size="10.00">workspaceState.TurtleCollection.get</text>
<text text-anchor="middle" x="383" y="-7" font-family="Helvetica,sans-Serif" font-size="10.00">ActiveTurtles</text>
</a>
</g>
</g>
<!-- Node1&#45;&gt;Node3 -->
<g id="edge2" class="edge"><title>Node1&#45;&gt;Node3</title>
<path fill="none" stroke="midnightblue" d="M228.232,-30.5496C245.063,-28.8475 262.335,-27.101 278.942,-25.4216"/>
<polygon fill="midnightblue" stroke="midnightblue" points="279.59,-28.874 289.187,-24.3856 278.886,-21.9095 279.59,-28.874"/>
</g>
</g>
</svg>
