<?xml version="1.0" encoding="UTF-8" standalone="no"?>
<!DOCTYPE svg PUBLIC "-//W3C//DTD SVG 1.1//EN"
 "http://www.w3.org/Graphics/SVG/1.1/DTD/svg11.dtd">
<!-- Generated by graphviz version 2.36.0 (20140111.2315)
 -->
<!-- Title: gui.nonbuttonfeatures.tableviews.variables.EditingCell.getString Pages: 1 -->
<svg width="752pt" height="87pt"
 viewBox="0.00 0.00 752.00 87.00" xmlns="http://www.w3.org/2000/svg" xmlns:xlink="http://www.w3.org/1999/xlink">
<g id="graph0" class="graph" transform="scale(1 1) rotate(0) translate(4 83)">
<title>gui.nonbuttonfeatures.tableviews.variables.EditingCell.getString</title>
<polygon fill="white" stroke="none" points="-4,4 -4,-83 748,-83 748,4 -4,4"/>
<!-- Node1 -->
<g id="node1" class="node"><title>Node1</title>
<polygon fill="#bfbfbf" stroke="black" points="0,-24 0,-54 224,-54 224,-24 0,-24"/>
<text text-anchor="start" x="8" y="-42" font-family="Helvetica,sans-Serif" font-size="10.00">gui.nonbuttonfeatures.tableviews.variables.</text>
<text text-anchor="middle" x="112" y="-31" font-family="Helvetica,sans-Serif" font-size="10.00">EditingCell.getString</text>
</g>
<!-- Node2 -->
<g id="node2" class="node"><title>Node2</title>
<g id="a_node2"><a xlink:href="../../d2/dc7/classgui_1_1nonbuttonfeatures_1_1tableviews_1_1variables_1_1_editing_cell.html#ae385a984ae073026aa03561792416a78" target="_top" xlink:title="gui.nonbuttonfeatures.tableviews.variables.\lEditingCell.createTextField">
<polygon fill="white" stroke="black" points="260,-49 260,-79 484,-79 484,-49 260,-49"/>
<text text-anchor="start" x="268" y="-67" font-family="Helvetica,sans-Serif" font-size="10.00">gui.nonbuttonfeatures.tableviews.variables.</text>
<text text-anchor="middle" x="372" y="-56" font-family="Helvetica,sans-Serif" font-size="10.00">EditingCell.createTextField</text>
</a>
</g>
</g>
<!-- Node1&#45;&gt;Node2 -->
<g id="edge1" class="edge"><title>Node1&#45;&gt;Node2</title>
<path fill="none" stroke="midnightblue" d="M234.499,-50.7731C242.895,-51.5868 251.334,-52.4045 259.673,-53.2125"/>
<polygon fill="midnightblue" stroke="midnightblue" points="234.578,-47.2645 224.287,-49.7836 233.903,-54.2319 234.578,-47.2645"/>
</g>
<!-- Node4 -->
<g id="node4" class="node"><title>Node4</title>
<g id="a_node4"><a xlink:href="../../d2/dc7/classgui_1_1nonbuttonfeatures_1_1tableviews_1_1variables_1_1_editing_cell.html#a01e7e5f36c986ac990bec55fd7a642a6" target="_top" xlink:title="gui.nonbuttonfeatures.tableviews.variables.\lEditingCell.updateItem">
<polygon fill="white" stroke="black" points="260,-0 260,-30 484,-30 484,-0 260,-0"/>
<text text-anchor="start" x="268" y="-18" font-family="Helvetica,sans-Serif" font-size="10.00">gui.nonbuttonfeatures.tableviews.variables.</text>
<text text-anchor="middle" x="372" y="-7" font-family="Helvetica,sans-Serif" font-size="10.00">EditingCell.updateItem</text>
</a>
</g>
</g>
<!-- Node1&#45;&gt;Node4 -->
<g id="edge3" class="edge"><title>Node1&#45;&gt;Node4</title>
<path fill="none" stroke="midnightblue" d="M234.499,-27.6978C242.895,-26.9167 251.334,-26.1317 259.673,-25.356"/>
<polygon fill="midnightblue" stroke="midnightblue" points="233.92,-24.2364 224.287,-28.6477 234.568,-31.2063 233.92,-24.2364"/>
</g>
<!-- Node3 -->
<g id="node3" class="node"><title>Node3</title>
<g id="a_node3"><a xlink:href="../../d2/dc7/classgui_1_1nonbuttonfeatures_1_1tableviews_1_1variables_1_1_editing_cell.html#af1eccedb428d7558821b79d9abacbe36" target="_top" xlink:title="gui.nonbuttonfeatures.tableviews.variables.\lEditingCell.startEdit">
<polygon fill="white" stroke="black" points="520,-49 520,-79 744,-79 744,-49 520,-49"/>
<text text-anchor="start" x="528" y="-67" font-family="Helvetica,sans-Serif" font-size="10.00">gui.nonbuttonfeatures.tableviews.variables.</text>
<text text-anchor="middle" x="632" y="-56" font-family="Helvetica,sans-Serif" font-size="10.00">EditingCell.startEdit</text>
</a>
</g>
</g>
<!-- Node2&#45;&gt;Node3 -->
<g id="edge2" class="edge"><title>Node2&#45;&gt;Node3</title>
<path fill="none" stroke="midnightblue" d="M494.499,-64C502.895,-64 511.334,-64 519.673,-64"/>
<polygon fill="midnightblue" stroke="midnightblue" points="494.287,-60.5001 484.287,-64 494.287,-67.5001 494.287,-60.5001"/>
</g>
</g>
</svg>
