<?xml version="1.0" encoding="UTF-8" standalone="no"?>
<!DOCTYPE svg PUBLIC "-//W3C//DTD SVG 1.1//EN"
 "http://www.w3.org/Graphics/SVG/1.1/DTD/svg11.dtd">
<!-- Generated by graphviz version 2.36.0 (20140111.2315)
 -->
<!-- Title: gui.nonbuttonfeatures.tableviews.variables.EditingCell.startEdit Pages: 1 -->
<svg width="942pt" height="136pt"
 viewBox="0.00 0.00 942.00 136.00" xmlns="http://www.w3.org/2000/svg" xmlns:xlink="http://www.w3.org/1999/xlink">
<g id="graph0" class="graph" transform="scale(1 1) rotate(0) translate(4 132)">
<title>gui.nonbuttonfeatures.tableviews.variables.EditingCell.startEdit</title>
<polygon fill="white" stroke="none" points="-4,4 -4,-132 938,-132 938,4 -4,4"/>
<!-- Node1 -->
<g id="node1" class="node"><title>Node1</title>
<polygon fill="#bfbfbf" stroke="black" points="0,-49 0,-79 224,-79 224,-49 0,-49"/>
<text text-anchor="start" x="8" y="-67" font-family="Helvetica,sans-Serif" font-size="10.00">gui.nonbuttonfeatures.tableviews.variables.</text>
<text text-anchor="middle" x="112" y="-56" font-family="Helvetica,sans-Serif" font-size="10.00">EditingCell.startEdit</text>
</g>
<!-- Node2 -->
<g id="node2" class="node"><title>Node2</title>
<g id="a_node2"><a xlink:href="../../d2/dc7/classgui_1_1nonbuttonfeatures_1_1tableviews_1_1variables_1_1_editing_cell.html#ae385a984ae073026aa03561792416a78" target="_top" xlink:title="gui.nonbuttonfeatures.tableviews.variables.\lEditingCell.createTextField">
<polygon fill="white" stroke="black" points="260,-49 260,-79 484,-79 484,-49 260,-49"/>
<text text-anchor="start" x="268" y="-67" font-family="Helvetica,sans-Serif" font-size="10.00">gui.nonbuttonfeatures.tableviews.variables.</text>
<text text-anchor="middle" x="372" y="-56" font-family="Helvetica,sans-Serif" font-size="10.00">EditingCell.createTextField</text>
</a>
</g>
</g>
<!-- Node1&#45;&gt;Node2 -->
<g id="edge1" class="edge"><title>Node1&#45;&gt;Node2</title>
<path fill="none" stroke="midnightblue" d="M224.287,-64C232.626,-64 241.065,-64 249.462,-64"/>
<polygon fill="midnightblue" stroke="midnightblue" points="249.673,-67.5001 259.673,-64 249.673,-60.5001 249.673,-67.5001"/>
</g>
<!-- Node3 -->
<g id="node3" class="node"><title>Node3</title>
<g id="a_node3"><a xlink:href="../../d9/da1/classgui_1_1variableslist_1_1_workspace_variable.html#ae407fad5ec45549a9e1ef6343a909fe7" target="_top" xlink:title="gui.variableslist.Workspace\lVariable.getMyName">
<polygon fill="white" stroke="black" points="560,-98 560,-128 704,-128 704,-98 560,-98"/>
<text text-anchor="start" x="568" y="-116" font-family="Helvetica,sans-Serif" font-size="10.00">gui.variableslist.Workspace</text>
<text text-anchor="middle" x="632" y="-105" font-family="Helvetica,sans-Serif" font-size="10.00">Variable.getMyName</text>
</a>
</g>
</g>
<!-- Node2&#45;&gt;Node3 -->
<g id="edge2" class="edge"><title>Node2&#45;&gt;Node3</title>
<path fill="none" stroke="midnightblue" d="M452.162,-79.0346C483.171,-84.9239 518.72,-91.6756 549.913,-97.5998"/>
<polygon fill="midnightblue" stroke="midnightblue" points="549.399,-101.065 559.876,-99.492 550.705,-94.1875 549.399,-101.065"/>
</g>
<!-- Node4 -->
<g id="node4" class="node"><title>Node4</title>
<g id="a_node4"><a xlink:href="../../d2/dc7/classgui_1_1nonbuttonfeatures_1_1tableviews_1_1variables_1_1_editing_cell.html#a7cc5d33a62a6106ace514132717c0f66" target="_top" xlink:title="gui.nonbuttonfeatures.tableviews.variables.\lEditingCell.getString">
<polygon fill="white" stroke="black" points="520,-49 520,-79 744,-79 744,-49 520,-49"/>
<text text-anchor="start" x="528" y="-67" font-family="Helvetica,sans-Serif" font-size="10.00">gui.nonbuttonfeatures.tableviews.variables.</text>
<text text-anchor="middle" x="632" y="-56" font-family="Helvetica,sans-Serif" font-size="10.00">EditingCell.getString</text>
</a>
</g>
</g>
<!-- Node2&#45;&gt;Node4 -->
<g id="edge3" class="edge"><title>Node2&#45;&gt;Node4</title>
<path fill="none" stroke="midnightblue" d="M484.287,-64C492.626,-64 501.065,-64 509.462,-64"/>
<polygon fill="midnightblue" stroke="midnightblue" points="509.673,-67.5001 519.673,-64 509.673,-60.5001 509.673,-67.5001"/>
</g>
<!-- Node5 -->
<g id="node5" class="node"><title>Node5</title>
<g id="a_node5"><a xlink:href="../../d8/df2/classgui_1_1mainclasses_1_1workspace_1_1_workspace.html#a1c6c6c0599097fbf5e9a660ec0ac3702" target="_top" xlink:title="gui.mainclasses.workspace.\lWorkspace.parseCommandString">
<polygon fill="white" stroke="black" points="544,-0 544,-30 720,-30 720,-0 544,-0"/>
<text text-anchor="start" x="552" y="-18" font-family="Helvetica,sans-Serif" font-size="10.00">gui.mainclasses.workspace.</text>
<text text-anchor="middle" x="632" y="-7" font-family="Helvetica,sans-Serif" font-size="10.00">Workspace.parseCommandString</text>
</a>
</g>
</g>
<!-- Node2&#45;&gt;Node5 -->
<g id="edge4" class="edge"><title>Node2&#45;&gt;Node5</title>
<path fill="none" stroke="midnightblue" d="M452.162,-48.9654C480.517,-43.58 512.669,-37.4736 541.815,-31.9382"/>
<polygon fill="midnightblue" stroke="midnightblue" points="542.817,-35.3107 551.988,-30.0062 541.51,-28.4336 542.817,-35.3107"/>
</g>
<!-- Node6 -->
<g id="node6" class="node"><title>Node6</title>
<g id="a_node6"><a xlink:href="../../da/d55/interface_control_1_1_slogo_graphics.html#a05813100446932183f367405e6c73d67" target="_top" xlink:title="Control.SlogoGraphics.parse\lCommandString">
<polygon fill="white" stroke="black" points="780.5,-0 780.5,-30 933.5,-30 933.5,-0 780.5,-0"/>
<text text-anchor="start" x="788.5" y="-18" font-family="Helvetica,sans-Serif" font-size="10.00">Control.SlogoGraphics.parse</text>
<text text-anchor="middle" x="857" y="-7" font-family="Helvetica,sans-Serif" font-size="10.00">CommandString</text>
</a>
</g>
</g>
<!-- Node5&#45;&gt;Node6 -->
<g id="edge5" class="edge"><title>Node5&#45;&gt;Node6</title>
<path fill="none" stroke="midnightblue" d="M720.176,-15C736.665,-15 753.901,-15 770.343,-15"/>
<polygon fill="midnightblue" stroke="midnightblue" points="770.464,-18.5001 780.464,-15 770.464,-11.5001 770.464,-18.5001"/>
</g>
</g>
</svg>
