<?xml version="1.0" encoding="UTF-8" standalone="no"?>
<!DOCTYPE svg PUBLIC "-//W3C//DTD SVG 1.1//EN"
 "http://www.w3.org/Graphics/SVG/1.1/DTD/svg11.dtd">
<!-- Generated by graphviz version 2.36.0 (20140111.2315)
 -->
<!-- Title: gui.nonbuttonfeatures.tableviews.variables.EditingCell.updateItem Pages: 1 -->
<svg width="492pt" height="38pt"
 viewBox="0.00 0.00 492.00 38.00" xmlns="http://www.w3.org/2000/svg" xmlns:xlink="http://www.w3.org/1999/xlink">
<g id="graph0" class="graph" transform="scale(1 1) rotate(0) translate(4 34)">
<title>gui.nonbuttonfeatures.tableviews.variables.EditingCell.updateItem</title>
<polygon fill="white" stroke="none" points="-4,4 -4,-34 488,-34 488,4 -4,4"/>
<!-- Node1 -->
<g id="node1" class="node"><title>Node1</title>
<polygon fill="#bfbfbf" stroke="black" points="0,-0 0,-30 224,-30 224,-0 0,-0"/>
<text text-anchor="start" x="8" y="-18" font-family="Helvetica,sans-Serif" font-size="10.00">gui.nonbuttonfeatures.tableviews.variables.</text>
<text text-anchor="middle" x="112" y="-7" font-family="Helvetica,sans-Serif" font-size="10.00">EditingCell.updateItem</text>
</g>
<!-- Node2 -->
<g id="node2" class="node"><title>Node2</title>
<g id="a_node2"><a xlink:href="../../d2/dc7/classgui_1_1nonbuttonfeatures_1_1tableviews_1_1variables_1_1_editing_cell.html#a7cc5d33a62a6106ace514132717c0f66" target="_top" xlink:title="gui.nonbuttonfeatures.tableviews.variables.\lEditingCell.getString">
<polygon fill="white" stroke="black" points="260,-0 260,-30 484,-30 484,-0 260,-0"/>
<text text-anchor="start" x="268" y="-18" font-family="Helvetica,sans-Serif" font-size="10.00">gui.nonbuttonfeatures.tableviews.variables.</text>
<text text-anchor="middle" x="372" y="-7" font-family="Helvetica,sans-Serif" font-size="10.00">EditingCell.getString</text>
</a>
</g>
</g>
<!-- Node1&#45;&gt;Node2 -->
<g id="edge1" class="edge"><title>Node1&#45;&gt;Node2</title>
<path fill="none" stroke="midnightblue" d="M224.287,-15C232.626,-15 241.065,-15 249.462,-15"/>
<polygon fill="midnightblue" stroke="midnightblue" points="249.673,-18.5001 259.673,-15 249.673,-11.5001 249.673,-18.5001"/>
</g>
</g>
</svg>
