<?xml version="1.0" encoding="UTF-8" standalone="no"?>
<!DOCTYPE svg PUBLIC "-//W3C//DTD SVG 1.1//EN"
 "http://www.w3.org/Graphics/SVG/1.1/DTD/svg11.dtd">
<!-- Generated by graphviz version 2.36.0 (20140111.2315)
 -->
<!-- Title: gui.componentdrawers.WorkspaceVariablesDrawer.WorkspaceVariablesDrawer Pages: 1 -->
<svg width="422pt" height="77pt"
 viewBox="0.00 0.00 422.00 77.00" xmlns="http://www.w3.org/2000/svg" xmlns:xlink="http://www.w3.org/1999/xlink">
<g id="graph0" class="graph" transform="scale(1 1) rotate(0) translate(4 73)">
<title>gui.componentdrawers.WorkspaceVariablesDrawer.WorkspaceVariablesDrawer</title>
<polygon fill="white" stroke="none" points="-4,4 -4,-73 418,-73 418,4 -4,4"/>
<!-- Node1 -->
<g id="node1" class="node"><title>Node1</title>
<polygon fill="#bfbfbf" stroke="black" points="0.5,-11.5 0.5,-52.5 191.5,-52.5 191.5,-11.5 0.5,-11.5"/>
<text text-anchor="start" x="8.5" y="-40.5" font-family="Helvetica,sans-Serif" font-size="10.00">gui.componentdrawers.Workspace</text>
<text text-anchor="start" x="8.5" y="-29.5" font-family="Helvetica,sans-Serif" font-size="10.00">VariablesDrawer.WorkspaceVariables</text>
<text text-anchor="middle" x="96" y="-18.5" font-family="Helvetica,sans-Serif" font-size="10.00">Drawer</text>
</g>
<!-- Node2 -->
<g id="node2" class="node"><title>Node2</title>
<g id="a_node2"><a xlink:href="../../d0/dda/classgui_1_1componentdrawers_1_1_component_drawer.html#a7866683582ed9aebe665c7998d549fbb" target="_top" xlink:title="gui.componentdrawers.Component\lDrawer.drawShape">
<polygon fill="white" stroke="black" points="228.5,-39 228.5,-69 413.5,-69 413.5,-39 228.5,-39"/>
<text text-anchor="start" x="236.5" y="-57" font-family="Helvetica,sans-Serif" font-size="10.00">gui.componentdrawers.Component</text>
<text text-anchor="middle" x="321" y="-46" font-family="Helvetica,sans-Serif" font-size="10.00">Drawer.drawShape</text>
</a>
</g>
</g>
<!-- Node1&#45;&gt;Node2 -->
<g id="edge1" class="edge"><title>Node1&#45;&gt;Node2</title>
<path fill="none" stroke="midnightblue" d="M191.572,-41.33C200.456,-42.2064 209.486,-43.0973 218.431,-43.9797"/>
<polygon fill="midnightblue" stroke="midnightblue" points="218.185,-47.4724 228.48,-44.9712 218.872,-40.5062 218.185,-47.4724"/>
</g>
<!-- Node3 -->
<g id="node3" class="node"><title>Node3</title>
<g id="a_node3"><a xlink:href="../../d0/d49/classgui_1_1mainclasses_1_1_text_generator.html#afef308a2abfb8f1503d2b276407833e6" target="_top" xlink:title="gui.mainclasses.TextGenerator.get">
<polygon fill="white" stroke="black" points="230,-0.5 230,-19.5 412,-19.5 412,-0.5 230,-0.5"/>
<text text-anchor="middle" x="321" y="-7.5" font-family="Helvetica,sans-Serif" font-size="10.00">gui.mainclasses.TextGenerator.get</text>
</a>
</g>
</g>
<!-- Node1&#45;&gt;Node3 -->
<g id="edge2" class="edge"><title>Node1&#45;&gt;Node3</title>
<path fill="none" stroke="midnightblue" d="M191.572,-22.67C200.9,-21.7498 210.39,-20.8136 219.772,-19.888"/>
<polygon fill="midnightblue" stroke="midnightblue" points="220.289,-23.354 229.897,-18.889 219.602,-16.3878 220.289,-23.354"/>
</g>
</g>
</svg>
