<?xml version="1.0" encoding="UTF-8" standalone="no"?>
<!DOCTYPE svg PUBLIC "-//W3C//DTD SVG 1.1//EN"
 "http://www.w3.org/Graphics/SVG/1.1/DTD/svg11.dtd">
<!-- Generated by graphviz version 2.36.0 (20140111.2315)
 -->
<!-- Title: commandParsing.drawableObectGenerationInterfaces.PaneGenerator.generateDrawableObjectRepresentingPane Pages: 1 -->
<svg width="498pt" height="48pt"
 viewBox="0.00 0.00 498.00 48.00" xmlns="http://www.w3.org/2000/svg" xmlns:xlink="http://www.w3.org/1999/xlink">
<g id="graph0" class="graph" transform="scale(1 1) rotate(0) translate(4 44)">
<title>commandParsing.drawableObectGenerationInterfaces.PaneGenerator.generateDrawableObjectRepresentingPane</title>
<polygon fill="white" stroke="none" points="-4,4 -4,-44 494,-44 494,4 -4,4"/>
<!-- Node1 -->
<g id="node1" class="node"><title>Node1</title>
<polygon fill="#bfbfbf" stroke="black" points="0,0.5 0,-40.5 238,-40.5 238,0.5 0,0.5"/>
<text text-anchor="start" x="8" y="-28.5" font-family="Helvetica,sans-Serif" font-size="10.00">commandParsing.drawableObect</text>
<text text-anchor="start" x="8" y="-17.5" font-family="Helvetica,sans-Serif" font-size="10.00">GenerationInterfaces.PaneGenerator.generate</text>
<text text-anchor="middle" x="119" y="-6.5" font-family="Helvetica,sans-Serif" font-size="10.00">DrawableObjectRepresentingPane</text>
</g>
<!-- Node2 -->
<g id="node2" class="node"><title>Node2</title>
<g id="a_node2"><a xlink:href="../../d7/dac/classcommand_parsing_1_1color_commandparsing_1_1_set_background.html#acaba7fc291b384f18df5b26155f9142b" target="_top" xlink:title="commandParsing.colorCommandparsing.\lSetBackground.operateOnComponents">
<polygon fill="white" stroke="black" points="274.5,-5 274.5,-35 489.5,-35 489.5,-5 274.5,-5"/>
<text text-anchor="start" x="282.5" y="-23" font-family="Helvetica,sans-Serif" font-size="10.00">commandParsing.colorCommandparsing.</text>
<text text-anchor="middle" x="382" y="-12" font-family="Helvetica,sans-Serif" font-size="10.00">SetBackground.operateOnComponents</text>
</a>
</g>
</g>
<!-- Node1&#45;&gt;Node2 -->
<g id="edge1" class="edge"><title>Node1&#45;&gt;Node2</title>
<path fill="none" stroke="midnightblue" d="M248.434,-20C257.095,-20 265.768,-20 274.3,-20"/>
<polygon fill="midnightblue" stroke="midnightblue" points="248.282,-16.5001 238.282,-20 248.282,-23.5001 248.282,-16.5001"/>
</g>
</g>
</svg>
