<?xml version="1.0" encoding="UTF-8" standalone="no"?>
<!DOCTYPE svg PUBLIC "-//W3C//DTD SVG 1.1//EN"
 "http://www.w3.org/Graphics/SVG/1.1/DTD/svg11.dtd">
<!-- Generated by graphviz version 2.36.0 (20140111.2315)
 -->
<!-- Title: workspaceState.TurtleCollection.hasTurtleWithID Pages: 1 -->
<svg width="688pt" height="136pt"
 viewBox="0.00 0.00 688.00 136.00" xmlns="http://www.w3.org/2000/svg" xmlns:xlink="http://www.w3.org/1999/xlink">
<g id="graph0" class="graph" transform="scale(1 1) rotate(0) translate(4 132)">
<title>workspaceState.TurtleCollection.hasTurtleWithID</title>
<polygon fill="white" stroke="none" points="-4,4 -4,-132 684,-132 684,4 -4,4"/>
<!-- Node1 -->
<g id="node1" class="node"><title>Node1</title>
<polygon fill="#bfbfbf" stroke="black" points="0,-49 0,-79 188,-79 188,-49 0,-49"/>
<text text-anchor="start" x="8" y="-67" font-family="Helvetica,sans-Serif" font-size="10.00">workspaceState.TurtleCollection.has</text>
<text text-anchor="middle" x="94" y="-56" font-family="Helvetica,sans-Serif" font-size="10.00">TurtleWithID</text>
</g>
<!-- Node2 -->
<g id="node2" class="node"><title>Node2</title>
<g id="a_node2"><a xlink:href="../../da/df9/classcommand_parsing_1_1structural_command_parsing_1_1_multiple_turtle_command.html#ac35b7854cdc1ab7dcdbc9809a6db903c" target="_top" xlink:title="commandParsing.structural\lCommandParsing.MultipleTurtleCommand.make\lAndActivateGivenTurtles">
<polygon fill="white" stroke="black" points="224.5,-43.5 224.5,-84.5 471.5,-84.5 471.5,-43.5 224.5,-43.5"/>
<text text-anchor="start" x="232.5" y="-72.5" font-family="Helvetica,sans-Serif" font-size="10.00">commandParsing.structural</text>
<text text-anchor="start" x="232.5" y="-61.5" font-family="Helvetica,sans-Serif" font-size="10.00">CommandParsing.MultipleTurtleCommand.make</text>
<text text-anchor="middle" x="348" y="-50.5" font-family="Helvetica,sans-Serif" font-size="10.00">AndActivateGivenTurtles</text>
</a>
</g>
</g>
<!-- Node1&#45;&gt;Node2 -->
<g id="edge1" class="edge"><title>Node1&#45;&gt;Node2</title>
<path fill="none" stroke="midnightblue" d="M198.144,-64C206.75,-64 215.503,-64 224.235,-64"/>
<polygon fill="midnightblue" stroke="midnightblue" points="198.12,-60.5001 188.12,-64 198.119,-67.5001 198.12,-60.5001"/>
</g>
<!-- Node3 -->
<g id="node3" class="node"><title>Node3</title>
<g id="a_node3"><a xlink:href="../../d7/d50/classcommand_parsing_1_1structural_command_parsing_1_1_ask.html#aa19ad64684414b0ef6112ac7e75e992d" target="_top" xlink:title="commandParsing.structural\lCommandParsing.Ask.parse">
<polygon fill="white" stroke="black" points="518,-98 518,-128 670,-128 670,-98 518,-98"/>
<text text-anchor="start" x="526" y="-116" font-family="Helvetica,sans-Serif" font-size="10.00">commandParsing.structural</text>
<text text-anchor="middle" x="594" y="-105" font-family="Helvetica,sans-Serif" font-size="10.00">CommandParsing.Ask.parse</text>
</a>
</g>
</g>
<!-- Node2&#45;&gt;Node3 -->
<g id="edge2" class="edge"><title>Node2&#45;&gt;Node3</title>
<path fill="none" stroke="midnightblue" d="M461.456,-86.5834C480.728,-90.4537 500.32,-94.3881 518.292,-97.9972"/>
<polygon fill="midnightblue" stroke="midnightblue" points="461.911,-83.1049 451.417,-84.5674 460.533,-89.9679 461.911,-83.1049"/>
</g>
<!-- Node4 -->
<g id="node4" class="node"><title>Node4</title>
<g id="a_node4"><a xlink:href="../../db/da0/classcommand_parsing_1_1structural_command_parsing_1_1_tell.html#aaab258a057ef8d0fd8ff6980e59dc719" target="_top" xlink:title="commandParsing.structural\lCommandParsing.Tell.parse">
<polygon fill="white" stroke="black" points="519.5,-49 519.5,-79 668.5,-79 668.5,-49 519.5,-49"/>
<text text-anchor="start" x="527.5" y="-67" font-family="Helvetica,sans-Serif" font-size="10.00">commandParsing.structural</text>
<text text-anchor="middle" x="594" y="-56" font-family="Helvetica,sans-Serif" font-size="10.00">CommandParsing.Tell.parse</text>
</a>
</g>
</g>
<!-- Node2&#45;&gt;Node4 -->
<g id="edge3" class="edge"><title>Node2&#45;&gt;Node4</title>
<path fill="none" stroke="midnightblue" d="M481.99,-64C494.773,-64 507.393,-64 519.284,-64"/>
<polygon fill="midnightblue" stroke="midnightblue" points="481.715,-60.5001 471.715,-64 481.715,-67.5001 481.715,-60.5001"/>
</g>
<!-- Node5 -->
<g id="node5" class="node"><title>Node5</title>
<g id="a_node5"><a xlink:href="../../d7/d78/classcommand_parsing_1_1structural_command_parsing_1_1_ask_with.html#a934aa5eda34ccd0b9703e578753031fb" target="_top" xlink:title="commandParsing.structural\lCommandParsing.AskWith.parse">
<polygon fill="white" stroke="black" points="508,-0 508,-30 680,-30 680,-0 508,-0"/>
<text text-anchor="start" x="516" y="-18" font-family="Helvetica,sans-Serif" font-size="10.00">commandParsing.structural</text>
<text text-anchor="middle" x="594" y="-7" font-family="Helvetica,sans-Serif" font-size="10.00">CommandParsing.AskWith.parse</text>
</a>
</g>
</g>
<!-- Node2&#45;&gt;Node5 -->
<g id="edge4" class="edge"><title>Node2&#45;&gt;Node5</title>
<path fill="none" stroke="midnightblue" d="M461.456,-41.4166C480.728,-37.5463 500.32,-33.6119 518.292,-30.0028"/>
<polygon fill="midnightblue" stroke="midnightblue" points="460.533,-38.0321 451.417,-43.4326 461.911,-44.8951 460.533,-38.0321"/>
</g>
</g>
</svg>
