<?xml version="1.0" encoding="UTF-8" standalone="no"?>
<!DOCTYPE svg PUBLIC "-//W3C//DTD SVG 1.1//EN"
 "http://www.w3.org/Graphics/SVG/1.1/DTD/svg11.dtd">
<!-- Generated by graphviz version 2.36.0 (20140111.2315)
 -->
<!-- Title: workspaceState.TurtleCollection.getLastActiveTurtle Pages: 1 -->
<!--zoomable 1389 -->
<svg id="main" version="1.1" xmlns="http://www.w3.org/2000/svg" xmlns:xlink="http://www.w3.org/1999/xlink" xml:space="preserve" onload="init(evt)">
<style type="text/css"><![CDATA[
.edge:hover path { stroke: red; }
.edge:hover polygon { stroke: red; fill: red; }
]]></style>
<script type="text/javascript"><![CDATA[
var edges = document.getElementsByTagName('g');
if (edges && edges.length) {
  for (var i=0;i<edges.length;i++) {
    if (edges[i].id.substr(0,4)=='edge') {
      edges[i].setAttribute('class','edge');
    }
  }
}
]]></script>
        <defs>
                <circle id="rim" cx="0" cy="0" r="7"/>
                <circle id="rim2" cx="0" cy="0" r="3.5"/>
                <g id="zoomPlus">
                        <use xlink:href="#rim" fill="#404040">
                                <set attributeName="fill" to="#808080" begin="zoomplus.mouseover" end="zoomplus.mouseout"/>
                        </use>
                        <path d="M-4,0h8M0,-4v8" fill="none" stroke="white" stroke-width="1.5" pointer-events="none"/>
                </g>
                <g id="zoomMin">
                        <use xlink:href="#rim" fill="#404040">
                                <set attributeName="fill" to="#808080" begin="zoomminus.mouseover" end="zoomminus.mouseout"/>
                        </use>
                        <path d="M-4,0h8" fill="none" stroke="white" stroke-width="1.5" pointer-events="none"/>
                </g>
                <g id="dirArrow">
                        <path fill="none" stroke="white" stroke-width="1.5" d="M0,-3.0v7 M-2.5,-0.5L0,-3.0L2.5,-0.5"/>
                </g>
               <g id="resetDef">
                       <use xlink:href="#rim2" fill="#404040">
                               <set attributeName="fill" to="#808080" begin="reset.mouseover" end="reset.mouseout"/>
                       </use>
               </g>
        </defs>

<script type="text/javascript">
var viewWidth = 448;
var viewHeight = 1389;
var sectionId = 'dynsection-12';
</script>
<script xlink:href="../../svgpan.js"/>
<svg id="graph" class="graph">
<g id="viewport">
<title>workspaceState.TurtleCollection.getLastActiveTurtle</title>
<polygon fill="white" stroke="none" points="-4,4 -4,-1385 444,-1385 444,4 -4,4"/>
<!-- Node1 -->
<g id="node1" class="node"><title>Node1</title>
<polygon fill="#bfbfbf" stroke="black" points="0.5,-664 0.5,-694 187.5,-694 187.5,-664 0.5,-664"/>
<text text-anchor="start" x="8.5" y="-682" font-family="Helvetica,sans-Serif" font-size="10.00">workspaceState.TurtleCollection.get</text>
<text text-anchor="middle" x="94" y="-671" font-family="Helvetica,sans-Serif" font-size="10.00">LastActiveTurtle</text>
</g>
<!-- Node2 -->
<g id="node2" class="node"><title>Node2</title>
<g id="a_node2"><a xlink:href="../../dd/d96/classtests_1_1command_tests_1_1inputless_command_tests_1_1_clear_screen_tests.html#a607f982d50c547cc6a91c491b73bb401" target="_top" xlink:title="tests.commandTests.inputless\lCommandTests.ClearScreenTests.Clear\lScreeenTest">
<polygon fill="white" stroke="black" points="230,-1339.5 230,-1380.5 434,-1380.5 434,-1339.5 230,-1339.5"/>
<text text-anchor="start" x="238" y="-1368.5" font-family="Helvetica,sans-Serif" font-size="10.00">tests.commandTests.inputless</text>
<text text-anchor="start" x="238" y="-1357.5" font-family="Helvetica,sans-Serif" font-size="10.00">CommandTests.ClearScreenTests.Clear</text>
<text text-anchor="middle" x="332" y="-1346.5" font-family="Helvetica,sans-Serif" font-size="10.00">ScreeenTest</text>
</a>
</g>
</g>
<!-- Node1&#45;&gt;Node2 -->
<g id="edge1" class="edge"><title>Node1&#45;&gt;Node2</title>
<path fill="none" stroke="midnightblue" d="M96.5919,-704.456C103.871,-812.842 137.427,-1234.63 224,-1329 227.53,-1332.85 231.506,-1336.23 235.794,-1339.2"/>
<polygon fill="midnightblue" stroke="midnightblue" points="100.063,-703.904 95.9167,-694.155 93.0784,-704.362 100.063,-703.904"/>
</g>
<!-- Node3 -->
<g id="node3" class="node"><title>Node3</title>
<g id="a_node3"><a xlink:href="../../dd/d8a/classcommand_parsing_1_1turtle_command_parsing_1_1turtle_movement_1_1_home.html#a2fe517590438630aef24faca396f2016" target="_top" xlink:title="commandParsing.turtleCommand\lParsing.turtleMovement.Home.get\lDestinationHeading">
<polygon fill="white" stroke="black" points="241,-1279.5 241,-1320.5 423,-1320.5 423,-1279.5 241,-1279.5"/>
<text text-anchor="start" x="249" y="-1308.5" font-family="Helvetica,sans-Serif" font-size="10.00">commandParsing.turtleCommand</text>
<text text-anchor="start" x="249" y="-1297.5" font-family="Helvetica,sans-Serif" font-size="10.00">Parsing.turtleMovement.Home.get</text>
<text text-anchor="middle" x="332" y="-1286.5" font-family="Helvetica,sans-Serif" font-size="10.00">DestinationHeading</text>
</a>
</g>
</g>
<!-- Node1&#45;&gt;Node3 -->
<g id="edge2" class="edge"><title>Node1&#45;&gt;Node3</title>
<path fill="none" stroke="midnightblue" d="M97.1404,-704.371C106.232,-806.278 144.866,-1184.4 224,-1269 228.888,-1274.23 234.599,-1278.59 240.792,-1282.23"/>
<polygon fill="midnightblue" stroke="midnightblue" points="100.601,-703.761 96.2419,-694.105 93.6272,-704.372 100.601,-703.761"/>
</g>
<!-- Node4 -->
<g id="node4" class="node"><title>Node4</title>
<g id="a_node4"><a xlink:href="../../db/d21/classtests_1_1command_tests_1_1turtle_query_tests_1_1_get_pen_color_tests.html#a5aeab527041ba3cc9ea7ecdadca5d551" target="_top" xlink:title="tests.commandTests.turtle\lQueryTests.GetPenColorTests.Get\lPenColorAfterSettingPenColorTest">
<polygon fill="white" stroke="black" points="242.5,-1219.5 242.5,-1260.5 421.5,-1260.5 421.5,-1219.5 242.5,-1219.5"/>
<text text-anchor="start" x="250.5" y="-1248.5" font-family="Helvetica,sans-Serif" font-size="10.00">tests.commandTests.turtle</text>
<text text-anchor="start" x="250.5" y="-1237.5" font-family="Helvetica,sans-Serif" font-size="10.00">QueryTests.GetPenColorTests.Get</text>
<text text-anchor="middle" x="332" y="-1226.5" font-family="Helvetica,sans-Serif" font-size="10.00">PenColorAfterSettingPenColorTest</text>
</a>
</g>
</g>
<!-- Node1&#45;&gt;Node4 -->
<g id="edge3" class="edge"><title>Node1&#45;&gt;Node4</title>
<path fill="none" stroke="midnightblue" d="M97.7991,-704.221C108.832,-799.251 152.253,-1134.08 224,-1209 229.351,-1214.59 235.642,-1219.19 242.448,-1222.97"/>
<polygon fill="midnightblue" stroke="midnightblue" points="101.254,-703.63 96.6411,-694.092 94.2996,-704.425 101.254,-703.63"/>
</g>
<!-- Node5 -->
<g id="node5" class="node"><title>Node5</title>
<g id="a_node5"><a xlink:href="../../db/d21/classtests_1_1command_tests_1_1turtle_query_tests_1_1_get_pen_color_tests.html#a6f603fbcf3392994537c770883d1d96e" target="_top" xlink:title="tests.commandTests.turtle\lQueryTests.GetPenColorTests.Get\lPenColorTest">
<polygon fill="white" stroke="black" points="244,-1159.5 244,-1200.5 420,-1200.5 420,-1159.5 244,-1159.5"/>
<text text-anchor="start" x="252" y="-1188.5" font-family="Helvetica,sans-Serif" font-size="10.00">tests.commandTests.turtle</text>
<text text-anchor="start" x="252" y="-1177.5" font-family="Helvetica,sans-Serif" font-size="10.00">QueryTests.GetPenColorTests.Get</text>
<text text-anchor="middle" x="332" y="-1166.5" font-family="Helvetica,sans-Serif" font-size="10.00">PenColorTest</text>
</a>
</g>
</g>
<!-- Node1&#45;&gt;Node5 -->
<g id="edge4" class="edge"><title>Node1&#45;&gt;Node5</title>
<path fill="none" stroke="midnightblue" d="M98.6306,-704.176C111.79,-792.102 159.623,-1083.71 224,-1149 229.771,-1154.85 236.575,-1159.62 243.91,-1163.49"/>
<polygon fill="midnightblue" stroke="midnightblue" points="102.058,-703.427 97.1337,-694.046 95.1331,-704.45 102.058,-703.427"/>
</g>
<!-- Node6 -->
<g id="node6" class="node"><title>Node6</title>
<g id="a_node6"><a xlink:href="../../dc/dfa/classtests_1_1command_tests_1_1color_command_tests_1_1_get_shape_tests.html#a807c38b796d6c163175a6c00def56503" target="_top" xlink:title="tests.commandTests.color\lCommandTests.GetShapeTests.Get\lShapeTest">
<polygon fill="white" stroke="black" points="239,-1099.5 239,-1140.5 425,-1140.5 425,-1099.5 239,-1099.5"/>
<text text-anchor="start" x="247" y="-1128.5" font-family="Helvetica,sans-Serif" font-size="10.00">tests.commandTests.color</text>
<text text-anchor="start" x="247" y="-1117.5" font-family="Helvetica,sans-Serif" font-size="10.00">CommandTests.GetShapeTests.Get</text>
<text text-anchor="middle" x="332" y="-1106.5" font-family="Helvetica,sans-Serif" font-size="10.00">ShapeTest</text>
</a>
</g>
</g>
<!-- Node1&#45;&gt;Node6 -->
<g id="edge5" class="edge"><title>Node1&#45;&gt;Node6</title>
<path fill="none" stroke="midnightblue" d="M95.1747,-704.538C97.092,-776.035 112.562,-980.077 224,-1089 228.426,-1093.33 233.417,-1097.05 238.763,-1100.27"/>
<polygon fill="midnightblue" stroke="midnightblue" points="98.6681,-704.164 94.9707,-694.236 91.6694,-704.303 98.6681,-704.164"/>
</g>
<!-- Node7 -->
<g id="node7" class="node"><title>Node7</title>
<g id="a_node7"><a xlink:href="../../d4/d48/classtests_1_1command_tests_1_1inputless_command_tests_1_1_pen_down_tests.html#a9e1c147dca8b063113e4d934fcf01b4e" target="_top" xlink:title="tests.commandTests.inputless\lCommandTests.PenDownTests.Heading\lAfterMoveTest">
<polygon fill="white" stroke="black" points="229.5,-1039.5 229.5,-1080.5 434.5,-1080.5 434.5,-1039.5 229.5,-1039.5"/>
<text text-anchor="start" x="237.5" y="-1068.5" font-family="Helvetica,sans-Serif" font-size="10.00">tests.commandTests.inputless</text>
<text text-anchor="start" x="237.5" y="-1057.5" font-family="Helvetica,sans-Serif" font-size="10.00">CommandTests.PenDownTests.Heading</text>
<text text-anchor="middle" x="332" y="-1046.5" font-family="Helvetica,sans-Serif" font-size="10.00">AfterMoveTest</text>
</a>
</g>
</g>
<!-- Node1&#45;&gt;Node7 -->
<g id="edge6" class="edge"><title>Node1&#45;&gt;Node7</title>
<path fill="none" stroke="midnightblue" d="M96.7408,-704.241C102.538,-768.293 126.785,-938.465 224,-1029 228.246,-1032.95 232.966,-1036.41 237.991,-1039.42"/>
<polygon fill="midnightblue" stroke="midnightblue" points="100.225,-703.902 95.9093,-694.226 93.2488,-704.481 100.225,-703.902"/>
</g>
<!-- Node8 -->
<g id="node8" class="node"><title>Node8</title>
<g id="a_node8"><a xlink:href="../../d9/d78/classtests_1_1command_tests_1_1inputless_command_tests_1_1_pen_up_tests.html#a6049fd1c8b706dd374ba5b7365a2140e" target="_top" xlink:title="tests.commandTests.inputless\lCommandTests.PenUpTests.Heading\lAfterMoveTest">
<polygon fill="white" stroke="black" points="236,-979.5 236,-1020.5 428,-1020.5 428,-979.5 236,-979.5"/>
<text text-anchor="start" x="244" y="-1008.5" font-family="Helvetica,sans-Serif" font-size="10.00">tests.commandTests.inputless</text>
<text text-anchor="start" x="244" y="-997.5" font-family="Helvetica,sans-Serif" font-size="10.00">CommandTests.PenUpTests.Heading</text>
<text text-anchor="middle" x="332" y="-986.5" font-family="Helvetica,sans-Serif" font-size="10.00">AfterMoveTest</text>
</a>
</g>
</g>
<!-- Node1&#45;&gt;Node8 -->
<g id="edge7" class="edge"><title>Node1&#45;&gt;Node8</title>
<path fill="none" stroke="midnightblue" d="M98.941,-704.426C109.025,-760.735 141.067,-896.683 224,-969 228.519,-972.94 233.512,-976.381 238.799,-979.385"/>
<polygon fill="midnightblue" stroke="midnightblue" points="102.34,-703.537 97.2085,-694.268 95.4398,-704.714 102.34,-703.537"/>
</g>
<!-- Node9 -->
<g id="node9" class="node"><title>Node9</title>
<g id="a_node9"><a xlink:href="../../d1/d44/classtests_1_1command_tests_1_1inputless_command_tests_1_1_show_turtle_tests.html#a1d79a96cb3c74ad74f652c3a9e9fed2d" target="_top" xlink:title="tests.commandTests.inputless\lCommandTests.ShowTurtleTests.Heading\lAfterMoveTest">
<polygon fill="white" stroke="black" points="226,-919.5 226,-960.5 438,-960.5 438,-919.5 226,-919.5"/>
<text text-anchor="start" x="234" y="-948.5" font-family="Helvetica,sans-Serif" font-size="10.00">tests.commandTests.inputless</text>
<text text-anchor="start" x="234" y="-937.5" font-family="Helvetica,sans-Serif" font-size="10.00">CommandTests.ShowTurtleTests.Heading</text>
<text text-anchor="middle" x="332" y="-926.5" font-family="Helvetica,sans-Serif" font-size="10.00">AfterMoveTest</text>
</a>
</g>
</g>
<!-- Node1&#45;&gt;Node9 -->
<g id="edge8" class="edge"><title>Node1&#45;&gt;Node9</title>
<path fill="none" stroke="midnightblue" d="M102.038,-704.019C116.649,-751.335 154.819,-854.098 224,-909 228.999,-912.967 234.488,-916.427 240.256,-919.444"/>
<polygon fill="midnightblue" stroke="midnightblue" points="105.343,-702.856 99.1234,-694.279 98.6369,-704.863 105.343,-702.856"/>
</g>
<!-- Node10 -->
<g id="node10" class="node"><title>Node10</title>
<g id="a_node10"><a xlink:href="../../d3/d67/classtests_1_1command_tests_1_1inputless_command_tests_1_1_hide_turtle_tests.html#a6e11970970d0c7a3a45730a4d712d4ce" target="_top" xlink:title="tests.commandTests.inputless\lCommandTests.HideTurtleTests.Heading\lAfterMoveTest">
<polygon fill="white" stroke="black" points="228,-859.5 228,-900.5 436,-900.5 436,-859.5 228,-859.5"/>
<text text-anchor="start" x="236" y="-888.5" font-family="Helvetica,sans-Serif" font-size="10.00">tests.commandTests.inputless</text>
<text text-anchor="start" x="236" y="-877.5" font-family="Helvetica,sans-Serif" font-size="10.00">CommandTests.HideTurtleTests.Heading</text>
<text text-anchor="middle" x="332" y="-866.5" font-family="Helvetica,sans-Serif" font-size="10.00">AfterMoveTest</text>
</a>
</g>
</g>
<!-- Node1&#45;&gt;Node10 -->
<g id="edge9" class="edge"><title>Node1&#45;&gt;Node10</title>
<path fill="none" stroke="midnightblue" d="M106.732,-703.343C125.963,-740.634 167.75,-811.606 224,-850 229.179,-853.535 234.767,-856.656 240.578,-859.411"/>
<polygon fill="midnightblue" stroke="midnightblue" points="109.75,-701.554 102.123,-694.2 103.499,-704.705 109.75,-701.554"/>
</g>
<!-- Node11 -->
<g id="node11" class="node"><title>Node11</title>
<g id="a_node11"><a xlink:href="../../d9/d5a/classcommand_parsing_1_1turtle_query_parsing_1_1_heading.html#a8cd726b29da8e6c79b9c149355b0470a" target="_top" xlink:title="commandParsing.turtleQuery\lParsing.Heading.parse">
<polygon fill="white" stroke="black" points="253.5,-811 253.5,-841 410.5,-841 410.5,-811 253.5,-811"/>
<text text-anchor="start" x="261.5" y="-829" font-family="Helvetica,sans-Serif" font-size="10.00">commandParsing.turtleQuery</text>
<text text-anchor="middle" x="332" y="-818" font-family="Helvetica,sans-Serif" font-size="10.00">Parsing.Heading.parse</text>
</a>
</g>
</g>
<!-- Node1&#45;&gt;Node11 -->
<g id="edge10" class="edge"><title>Node1&#45;&gt;Node11</title>
<path fill="none" stroke="midnightblue" d="M112.756,-702.022C135.478,-729.832 177.503,-775.988 224,-801 233.072,-805.88 243.078,-809.814 253.22,-812.983"/>
<polygon fill="midnightblue" stroke="midnightblue" points="115.327,-699.635 106.34,-694.024 109.867,-704.015 115.327,-699.635"/>
</g>
<!-- Node12 -->
<g id="node12" class="node"><title>Node12</title>
<g id="a_node12"><a xlink:href="../../d4/dca/classcommand_parsing_1_1turtle_query_parsing_1_1_is_pen_down.html#a58d7b1bf808f818ccd55afa66d761152" target="_top" xlink:title="commandParsing.turtleQuery\lParsing.IsPenDown.parse">
<polygon fill="white" stroke="black" points="253.5,-762 253.5,-792 410.5,-792 410.5,-762 253.5,-762"/>
<text text-anchor="start" x="261.5" y="-780" font-family="Helvetica,sans-Serif" font-size="10.00">commandParsing.turtleQuery</text>
<text text-anchor="middle" x="332" y="-769" font-family="Helvetica,sans-Serif" font-size="10.00">Parsing.IsPenDown.parse</text>
</a>
</g>
</g>
<!-- Node1&#45;&gt;Node12 -->
<g id="edge11" class="edge"><title>Node1&#45;&gt;Node12</title>
<path fill="none" stroke="midnightblue" d="M125.771,-699.752C151.155,-716.035 188.62,-738.186 224,-752 233.685,-755.781 244.095,-759.086 254.484,-761.945"/>
<polygon fill="midnightblue" stroke="midnightblue" points="127.612,-696.774 117.319,-694.261 123.798,-702.644 127.612,-696.774"/>
</g>
<!-- Node13 -->
<g id="node13" class="node"><title>Node13</title>
<g id="a_node13"><a xlink:href="../../da/d00/classcommand_parsing_1_1turtle_query_parsing_1_1_is_showing.html#a242b1e80586161c8f1026161fad842ae" target="_top" xlink:title="commandParsing.turtleQuery\lParsing.IsShowing.parse">
<polygon fill="white" stroke="black" points="253.5,-713 253.5,-743 410.5,-743 410.5,-713 253.5,-713"/>
<text text-anchor="start" x="261.5" y="-731" font-family="Helvetica,sans-Serif" font-size="10.00">commandParsing.turtleQuery</text>
<text text-anchor="middle" x="332" y="-720" font-family="Helvetica,sans-Serif" font-size="10.00">Parsing.IsShowing.parse</text>
</a>
</g>
</g>
<!-- Node1&#45;&gt;Node13 -->
<g id="edge12" class="edge"><title>Node1&#45;&gt;Node13</title>
<path fill="none" stroke="midnightblue" d="M177.42,-696.113C203.904,-701.611 233.026,-707.658 258.725,-712.994"/>
<polygon fill="midnightblue" stroke="midnightblue" points="177.914,-692.641 167.412,-694.035 176.491,-699.495 177.914,-692.641"/>
</g>
<!-- Node14 -->
<g id="node14" class="node"><title>Node14</title>
<g id="a_node14"><a xlink:href="../../dd/db9/classcommand_parsing_1_1turtle_query_parsing_1_1_i_d.html#a9b0f6a303b7065552ea3bfbe4b9980f5" target="_top" xlink:title="commandParsing.turtleQuery\lParsing.ID.parse">
<polygon fill="white" stroke="black" points="253.5,-664 253.5,-694 410.5,-694 410.5,-664 253.5,-664"/>
<text text-anchor="start" x="261.5" y="-682" font-family="Helvetica,sans-Serif" font-size="10.00">commandParsing.turtleQuery</text>
<text text-anchor="middle" x="332" y="-671" font-family="Helvetica,sans-Serif" font-size="10.00">Parsing.ID.parse</text>
</a>
</g>
</g>
<!-- Node1&#45;&gt;Node14 -->
<g id="edge13" class="edge"><title>Node1&#45;&gt;Node14</title>
<path fill="none" stroke="midnightblue" d="M197.842,-679C216.399,-679 235.465,-679 253.163,-679"/>
<polygon fill="midnightblue" stroke="midnightblue" points="197.596,-675.5 187.596,-679 197.596,-682.5 197.596,-675.5"/>
</g>
<!-- Node15 -->
<g id="node15" class="node"><title>Node15</title>
<g id="a_node15"><a xlink:href="../../da/d28/classcommand_parsing_1_1turtle_query_parsing_1_1_x_coordinate.html#a0e2c0e0fc4d6c72c65d57303ae1906d9" target="_top" xlink:title="commandParsing.turtleQuery\lParsing.XCoordinate.parse">
<polygon fill="white" stroke="black" points="253.5,-615 253.5,-645 410.5,-645 410.5,-615 253.5,-615"/>
<text text-anchor="start" x="261.5" y="-633" font-family="Helvetica,sans-Serif" font-size="10.00">commandParsing.turtleQuery</text>
<text text-anchor="middle" x="332" y="-622" font-family="Helvetica,sans-Serif" font-size="10.00">Parsing.XCoordinate.parse</text>
</a>
</g>
</g>
<!-- Node1&#45;&gt;Node15 -->
<g id="edge14" class="edge"><title>Node1&#45;&gt;Node15</title>
<path fill="none" stroke="midnightblue" d="M177.42,-661.887C203.904,-656.389 233.026,-650.342 258.725,-645.006"/>
<polygon fill="midnightblue" stroke="midnightblue" points="176.491,-658.505 167.412,-663.965 177.914,-665.359 176.491,-658.505"/>
</g>
<!-- Node16 -->
<g id="node16" class="node"><title>Node16</title>
<g id="a_node16"><a xlink:href="../../db/d7d/classcommand_parsing_1_1turtle_query_parsing_1_1_y_coordinate.html#a2f6a0a62e3c05f59adf5c476fdd8dd8c" target="_top" xlink:title="commandParsing.turtleQuery\lParsing.YCoordinate.parse">
<polygon fill="white" stroke="black" points="253.5,-566 253.5,-596 410.5,-596 410.5,-566 253.5,-566"/>
<text text-anchor="start" x="261.5" y="-584" font-family="Helvetica,sans-Serif" font-size="10.00">commandParsing.turtleQuery</text>
<text text-anchor="middle" x="332" y="-573" font-family="Helvetica,sans-Serif" font-size="10.00">Parsing.YCoordinate.parse</text>
</a>
</g>
</g>
<!-- Node1&#45;&gt;Node16 -->
<g id="edge15" class="edge"><title>Node1&#45;&gt;Node16</title>
<path fill="none" stroke="midnightblue" d="M125.771,-658.248C151.155,-641.965 188.62,-619.814 224,-606 233.685,-602.219 244.095,-598.914 254.484,-596.055"/>
<polygon fill="midnightblue" stroke="midnightblue" points="123.798,-655.356 117.319,-663.739 127.612,-661.226 123.798,-655.356"/>
</g>
<!-- Node17 -->
<g id="node17" class="node"><title>Node17</title>
<g id="a_node17"><a xlink:href="../../d4/d48/classtests_1_1command_tests_1_1inputless_command_tests_1_1_pen_down_tests.html#afd34a7499a703b9066ae90c4c61b30e9" target="_top" xlink:title="tests.commandTests.inputless\lCommandTests.PenDownTests.PenUpTest">
<polygon fill="white" stroke="black" points="224.5,-517 224.5,-547 439.5,-547 439.5,-517 224.5,-517"/>
<text text-anchor="start" x="232.5" y="-535" font-family="Helvetica,sans-Serif" font-size="10.00">tests.commandTests.inputless</text>
<text text-anchor="middle" x="332" y="-524" font-family="Helvetica,sans-Serif" font-size="10.00">CommandTests.PenDownTests.PenUpTest</text>
</a>
</g>
</g>
<!-- Node1&#45;&gt;Node17 -->
<g id="edge16" class="edge"><title>Node1&#45;&gt;Node17</title>
<path fill="none" stroke="midnightblue" d="M112.756,-655.978C135.478,-628.168 177.503,-582.012 224,-557 231.224,-553.114 239.04,-549.828 247.046,-547.05"/>
<polygon fill="midnightblue" stroke="midnightblue" points="109.867,-653.985 106.34,-663.976 115.327,-658.365 109.867,-653.985"/>
</g>
<!-- Node18 -->
<g id="node18" class="node"><title>Node18</title>
<g id="a_node18"><a xlink:href="../../d9/d78/classtests_1_1command_tests_1_1inputless_command_tests_1_1_pen_up_tests.html#ad8426b9e66de47ba247b89a2584a883c" target="_top" xlink:title="tests.commandTests.inputless\lCommandTests.PenUpTests.PenUpTest">
<polygon fill="white" stroke="black" points="230.5,-468 230.5,-498 433.5,-498 433.5,-468 230.5,-468"/>
<text text-anchor="start" x="238.5" y="-486" font-family="Helvetica,sans-Serif" font-size="10.00">tests.commandTests.inputless</text>
<text text-anchor="middle" x="332" y="-475" font-family="Helvetica,sans-Serif" font-size="10.00">CommandTests.PenUpTests.PenUpTest</text>
</a>
</g>
</g>
<!-- Node1&#45;&gt;Node18 -->
<g id="edge17" class="edge"><title>Node1&#45;&gt;Node18</title>
<path fill="none" stroke="midnightblue" d="M106.389,-654.638C125.284,-617.018 166.78,-545.245 224,-508 229.996,-504.097 236.531,-500.802 243.318,-498.019"/>
<polygon fill="midnightblue" stroke="midnightblue" points="103.129,-653.337 101.87,-663.857 109.414,-656.418 103.129,-653.337"/>
</g>
<!-- Node19 -->
<g id="node19" class="node"><title>Node19</title>
<g id="a_node19"><a xlink:href="../../d1/d44/classtests_1_1command_tests_1_1inputless_command_tests_1_1_show_turtle_tests.html#a7a6360b62941dd5f7216b8675892d1cb" target="_top" xlink:title="tests.commandTests.inputless\lCommandTests.ShowTurtleTests.Pen\lUpTest">
<polygon fill="white" stroke="black" points="237,-408.5 237,-449.5 427,-449.5 427,-408.5 237,-408.5"/>
<text text-anchor="start" x="245" y="-437.5" font-family="Helvetica,sans-Serif" font-size="10.00">tests.commandTests.inputless</text>
<text text-anchor="start" x="245" y="-426.5" font-family="Helvetica,sans-Serif" font-size="10.00">CommandTests.ShowTurtleTests.Pen</text>
<text text-anchor="middle" x="332" y="-415.5" font-family="Helvetica,sans-Serif" font-size="10.00">UpTest</text>
</a>
</g>
</g>
<!-- Node1&#45;&gt;Node19 -->
<g id="edge18" class="edge"><title>Node1&#45;&gt;Node19</title>
<path fill="none" stroke="midnightblue" d="M102.635,-654.056C117.95,-608.276 156.83,-510.799 224,-459 228.583,-455.466 233.562,-452.347 238.78,-449.597"/>
<polygon fill="midnightblue" stroke="midnightblue" points="99.2414,-653.175 99.483,-663.767 105.899,-655.337 99.2414,-653.175"/>
</g>
<!-- Node20 -->
<g id="node20" class="node"><title>Node20</title>
<g id="a_node20"><a xlink:href="../../d3/d67/classtests_1_1command_tests_1_1inputless_command_tests_1_1_hide_turtle_tests.html#a3b6125f2b093278040a42dd56849b140" target="_top" xlink:title="tests.commandTests.inputless\lCommandTests.HideTurtleTests.Pen\lUpTest">
<polygon fill="white" stroke="black" points="239,-348.5 239,-389.5 425,-389.5 425,-348.5 239,-348.5"/>
<text text-anchor="start" x="247" y="-377.5" font-family="Helvetica,sans-Serif" font-size="10.00">tests.commandTests.inputless</text>
<text text-anchor="start" x="247" y="-366.5" font-family="Helvetica,sans-Serif" font-size="10.00">CommandTests.HideTurtleTests.Pen</text>
<text text-anchor="middle" x="332" y="-355.5" font-family="Helvetica,sans-Serif" font-size="10.00">UpTest</text>
</a>
</g>
</g>
<!-- Node1&#45;&gt;Node20 -->
<g id="edge19" class="edge"><title>Node1&#45;&gt;Node20</title>
<path fill="none" stroke="midnightblue" d="M99.2507,-653.998C109.892,-599.261 142.876,-468.196 224,-399 228.55,-395.119 233.568,-391.738 238.872,-388.792"/>
<polygon fill="midnightblue" stroke="midnightblue" points="95.7991,-653.416 97.4128,-663.887 102.681,-654.695 95.7991,-653.416"/>
</g>
<!-- Node21 -->
<g id="node21" class="node"><title>Node21</title>
<g id="a_node21"><a xlink:href="../../df/dba/classtests_1_1command_tests_1_1color_command_tests_1_1_set_pen_color_tests.html#a81bbab6205035ed10a74995601263e1a" target="_top" xlink:title="tests.commandTests.color\lCommandTests.SetPenColorTests.\lSetPenColorAfterSetPenColorTest">
<polygon fill="white" stroke="black" points="242,-288.5 242,-329.5 422,-329.5 422,-288.5 242,-288.5"/>
<text text-anchor="start" x="250" y="-317.5" font-family="Helvetica,sans-Serif" font-size="10.00">tests.commandTests.color</text>
<text text-anchor="start" x="250" y="-306.5" font-family="Helvetica,sans-Serif" font-size="10.00">CommandTests.SetPenColorTests.</text>
<text text-anchor="middle" x="332" y="-295.5" font-family="Helvetica,sans-Serif" font-size="10.00">SetPenColorAfterSetPenColorTest</text>
</a>
</g>
</g>
<!-- Node1&#45;&gt;Node21 -->
<g id="edge20" class="edge"><title>Node1&#45;&gt;Node21</title>
<path fill="none" stroke="midnightblue" d="M97.0185,-653.592C103.413,-590.595 128.846,-426.017 224,-339 229.339,-334.118 235.41,-330.022 241.883,-326.587"/>
<polygon fill="midnightblue" stroke="midnightblue" points="93.5101,-653.519 96.0616,-663.802 100.48,-654.173 93.5101,-653.519"/>
</g>
<!-- Node22 -->
<g id="node22" class="node"><title>Node22</title>
<g id="a_node22"><a xlink:href="../../df/dba/classtests_1_1command_tests_1_1color_command_tests_1_1_set_pen_color_tests.html#af1466ce0e9b147930198231d50ae1bad" target="_top" xlink:title="tests.commandTests.color\lCommandTests.SetPenColorTests.\lSetPenColorTest">
<polygon fill="white" stroke="black" points="242,-228.5 242,-269.5 422,-269.5 422,-228.5 242,-228.5"/>
<text text-anchor="start" x="250" y="-257.5" font-family="Helvetica,sans-Serif" font-size="10.00">tests.commandTests.color</text>
<text text-anchor="start" x="250" y="-246.5" font-family="Helvetica,sans-Serif" font-size="10.00">CommandTests.SetPenColorTests.</text>
<text text-anchor="middle" x="332" y="-235.5" font-family="Helvetica,sans-Serif" font-size="10.00">SetPenColorTest</text>
</a>
</g>
</g>
<!-- Node1&#45;&gt;Node22 -->
<g id="edge21" class="edge"><title>Node1&#45;&gt;Node22</title>
<path fill="none" stroke="midnightblue" d="M95.3573,-653.543C97.7694,-583.197 114.445,-384.405 224,-279 229.283,-273.917 235.355,-269.682 241.866,-266.155"/>
<polygon fill="midnightblue" stroke="midnightblue" points="91.8544,-653.605 95.0806,-663.697 98.8518,-653.796 91.8544,-653.605"/>
</g>
<!-- Node23 -->
<g id="node23" class="node"><title>Node23</title>
<g id="a_node23"><a xlink:href="../../d9/d64/classtests_1_1command_tests_1_1color_command_tests_1_1_set_pen_size_tests.html#a1e20de702b4186a9cd0f6aab63c29db2" target="_top" xlink:title="tests.commandTests.color\lCommandTests.SetPenSizeTests.\lSetPenSizeAfterSetPenSizeTest">
<polygon fill="white" stroke="black" points="244,-168.5 244,-209.5 420,-209.5 420,-168.5 244,-168.5"/>
<text text-anchor="start" x="252" y="-197.5" font-family="Helvetica,sans-Serif" font-size="10.00">tests.commandTests.color</text>
<text text-anchor="start" x="252" y="-186.5" font-family="Helvetica,sans-Serif" font-size="10.00">CommandTests.SetPenSizeTests.</text>
<text text-anchor="middle" x="332" y="-175.5" font-family="Helvetica,sans-Serif" font-size="10.00">SetPenSizeAfterSetPenSizeTest</text>
</a>
</g>
</g>
<!-- Node1&#45;&gt;Node23 -->
<g id="edge22" class="edge"><title>Node1&#45;&gt;Node23</title>
<path fill="none" stroke="midnightblue" d="M98.7776,-653.76C112.256,-566.934 160.584,-282.413 224,-219 229.798,-213.202 236.62,-208.503 243.966,-204.697"/>
<polygon fill="midnightblue" stroke="midnightblue" points="95.2969,-653.368 97.241,-663.783 102.216,-654.429 95.2969,-653.368"/>
</g>
<!-- Node24 -->
<g id="node24" class="node"><title>Node24</title>
<g id="a_node24"><a xlink:href="../../d9/d64/classtests_1_1command_tests_1_1color_command_tests_1_1_set_pen_size_tests.html#a6f93e7ea0cddfb6bfdd86dfa760f2913" target="_top" xlink:title="tests.commandTests.color\lCommandTests.SetPenSizeTests.\lSetPenSizeTest">
<polygon fill="white" stroke="black" points="244,-108.5 244,-149.5 420,-149.5 420,-108.5 244,-108.5"/>
<text text-anchor="start" x="252" y="-137.5" font-family="Helvetica,sans-Serif" font-size="10.00">tests.commandTests.color</text>
<text text-anchor="start" x="252" y="-126.5" font-family="Helvetica,sans-Serif" font-size="10.00">CommandTests.SetPenSizeTests.</text>
<text text-anchor="middle" x="332" y="-115.5" font-family="Helvetica,sans-Serif" font-size="10.00">SetPenSizeTest</text>
</a>
</g>
</g>
<!-- Node1&#45;&gt;Node24 -->
<g id="edge23" class="edge"><title>Node1&#45;&gt;Node24</title>
<path fill="none" stroke="midnightblue" d="M97.8859,-653.922C109.159,-560.186 153.129,-232.043 224,-159 229.71,-153.115 236.473,-148.358 243.782,-144.515"/>
<polygon fill="midnightblue" stroke="midnightblue" points="94.4019,-653.581 96.701,-663.924 101.353,-654.405 94.4019,-653.581"/>
</g>
<!-- Node25 -->
<g id="node25" class="node"><title>Node25</title>
<g id="a_node25"><a xlink:href="../../db/d90/classtests_1_1command_tests_1_1turtle_query_tests_1_1_is_showing_tests.html#acd150343525e2e93d21498ce3adb8e5e" target="_top" xlink:title="tests.commandTests.turtle\lQueryTests.IsShowingTests.Showing\lAfterHideTest">
<polygon fill="white" stroke="black" points="239,-48.5 239,-89.5 425,-89.5 425,-48.5 239,-48.5"/>
<text text-anchor="start" x="247" y="-77.5" font-family="Helvetica,sans-Serif" font-size="10.00">tests.commandTests.turtle</text>
<text text-anchor="start" x="247" y="-66.5" font-family="Helvetica,sans-Serif" font-size="10.00">QueryTests.IsShowingTests.Showing</text>
<text text-anchor="middle" x="332" y="-55.5" font-family="Helvetica,sans-Serif" font-size="10.00">AfterHideTest</text>
</a>
</g>
</g>
<!-- Node1&#45;&gt;Node25 -->
<g id="edge24" class="edge"><title>Node1&#45;&gt;Node25</title>
<path fill="none" stroke="midnightblue" d="M97.2142,-653.707C106.529,-552.956 145.723,-181.664 224,-99 228.378,-94.3771 233.404,-90.4476 238.841,-87.1095"/>
<polygon fill="midnightblue" stroke="midnightblue" points="93.7103,-653.592 96.2921,-663.868 100.682,-654.225 93.7103,-653.592"/>
</g>
<!-- Node26 -->
<g id="node26" class="node"><title>Node26</title>
<g id="a_node26"><a xlink:href="../../db/d90/classtests_1_1command_tests_1_1turtle_query_tests_1_1_is_showing_tests.html#a867d04dd941b5affeb604ae43d36ed5a" target="_top" xlink:title="tests.commandTests.turtle\lQueryTests.IsShowingTests.ShowingTest">
<polygon fill="white" stroke="black" points="229.5,-0 229.5,-30 434.5,-30 434.5,-0 229.5,-0"/>
<text text-anchor="start" x="237.5" y="-18" font-family="Helvetica,sans-Serif" font-size="10.00">tests.commandTests.turtle</text>
<text text-anchor="middle" x="332" y="-7" font-family="Helvetica,sans-Serif" font-size="10.00">QueryTests.IsShowingTests.ShowingTest</text>
</a>
</g>
</g>
<!-- Node1&#45;&gt;Node26 -->
<g id="edge25" class="edge"><title>Node1&#45;&gt;Node26</title>
<path fill="none" stroke="midnightblue" d="M96.507,-653.796C103.437,-546.504 135.763,-129.178 224,-39 227.329,-35.5981 231.028,-32.6318 234.993,-30.0484"/>
<polygon fill="midnightblue" stroke="midnightblue" points="93.0003,-653.794 95.8654,-663.994 99.9865,-654.234 93.0003,-653.794"/>
</g>
</g>
</svg>
        <g id="navigator" transform="translate(0 0)" fill="#404254">
                <rect fill="#f2f5e9" fill-opacity="0.5" stroke="#606060" stroke-width=".5" x="0" y="0" width="60" height="60"/>
                <use id="zoomplus" xlink:href="#zoomPlus" x="17" y="9" onmousedown="handleZoom(evt,'in')"/>
                <use id="zoomminus" xlink:href="#zoomMin" x="42" y="9" onmousedown="handleZoom(evt,'out')"/>
                <use id="reset" xlink:href="#resetDef" x="30" y="36" onmousedown="handleReset()"/>
                <g id="arrowUp" xlink:href="#dirArrow" transform="translate(30 24)" onmousedown="handlePan(0,-1)">
                  <use xlink:href="#rim" fill="#404040">
                        <set attributeName="fill" to="#808080" begin="arrowUp.mouseover" end="arrowUp.mouseout"/>
                  </use>
                  <path fill="none" stroke="white" stroke-width="1.5" d="M0,-3.0v7 M-2.5,-0.5L0,-3.0L2.5,-0.5"/>
                </g>
                <g id="arrowRight" xlink:href="#dirArrow" transform="rotate(90) translate(36 -43)" onmousedown="handlePan(1,0)">
                  <use xlink:href="#rim" fill="#404040">
                        <set attributeName="fill" to="#808080" begin="arrowRight.mouseover" end="arrowRight.mouseout"/>
                  </use>
                  <path fill="none" stroke="white" stroke-width="1.5" d="M0,-3.0v7 M-2.5,-0.5L0,-3.0L2.5,-0.5"/>
                </g>
                <g id="arrowDown" xlink:href="#dirArrow" transform="rotate(180) translate(-30 -48)" onmousedown="handlePan(0,1)">
                  <use xlink:href="#rim" fill="#404040">
                        <set attributeName="fill" to="#808080" begin="arrowDown.mouseover" end="arrowDown.mouseout"/>
                  </use>
                  <path fill="none" stroke="white" stroke-width="1.5" d="M0,-3.0v7 M-2.5,-0.5L0,-3.0L2.5,-0.5"/>
                </g>
                <g id="arrowLeft" xlink:href="#dirArrow" transform="rotate(270) translate(-36 17)" onmousedown="handlePan(-1,0)">
                  <use xlink:href="#rim" fill="#404040">
                        <set attributeName="fill" to="#808080" begin="arrowLeft.mouseover" end="arrowLeft.mouseout"/>
                  </use>
                  <path fill="none" stroke="white" stroke-width="1.5" d="M0,-3.0v7 M-2.5,-0.5L0,-3.0L2.5,-0.5"/>
                </g>
        </g>
        <svg viewBox="0 0 15 15" width="100%" height="30px" preserveAspectRatio="xMaxYMin meet">
         <g id="arrow_out" transform="scale(0.3 0.3)">
          <a xlink:href="classworkspace_state_1_1_turtle_collection_adb957aceb9e490922ee0604c86f0bc79_icgraph_org.svg" target="_base">
           <rect id="button" ry="5" rx="5" y="6" x="6" height="38" width="38"
                fill="#f2f5e9" fill-opacity="0.5" stroke="#606060" stroke-width="1.0"/>
           <path id="arrow"
             d="M 11.500037,31.436501 C 11.940474,20.09759 22.043105,11.32322 32.158766,21.979434 L 37.068811,17.246167 C 37.068811,17.246167 37.088388,32 37.088388,32 L 22.160133,31.978069 C 22.160133,31.978069 26.997745,27.140456 26.997745,27.140456 C 18.528582,18.264221 13.291696,25.230495 11.500037,31.436501 z"
             style="fill:#404040;"/>
          </a>
         </g>
        </svg>
</svg>
