<?xml version="1.0" encoding="UTF-8" standalone="no"?>
<!DOCTYPE svg PUBLIC "-//W3C//DTD SVG 1.1//EN"
 "http://www.w3.org/Graphics/SVG/1.1/DTD/svg11.dtd">
<!-- Generated by graphviz version 2.36.0 (20140111.2315)
 -->
<!-- Title: workspaceState.TurtleCollection.addTurtle Pages: 1 -->
<svg width="450pt" height="38pt"
 viewBox="0.00 0.00 450.00 38.00" xmlns="http://www.w3.org/2000/svg" xmlns:xlink="http://www.w3.org/1999/xlink">
<g id="graph0" class="graph" transform="scale(1 1) rotate(0) translate(4 34)">
<title>workspaceState.TurtleCollection.addTurtle</title>
<polygon fill="white" stroke="none" points="-4,4 -4,-34 446,-34 446,4 -4,4"/>
<!-- Node1 -->
<g id="node1" class="node"><title>Node1</title>
<polygon fill="#bfbfbf" stroke="black" points="0.5,-0 0.5,-30 189.5,-30 189.5,-0 0.5,-0"/>
<text text-anchor="start" x="8.5" y="-18" font-family="Helvetica,sans-Serif" font-size="10.00">workspaceState.TurtleCollection.add</text>
<text text-anchor="middle" x="95" y="-7" font-family="Helvetica,sans-Serif" font-size="10.00">Turtle</text>
</g>
<!-- Node2 -->
<g id="node2" class="node"><title>Node2</title>
<g id="a_node2"><a xlink:href="../../db/d1f/classworkspace_state_1_1_turtle_collection.html#a2a83ac80ea6d84c1b032f2df8ac2fb0d" target="_top" xlink:title="workspaceState.TurtleCollection.generate\lValidTurtleID">
<polygon fill="white" stroke="black" points="226.5,-0 226.5,-30 441.5,-30 441.5,-0 226.5,-0"/>
<text text-anchor="start" x="234.5" y="-18" font-family="Helvetica,sans-Serif" font-size="10.00">workspaceState.TurtleCollection.generate</text>
<text text-anchor="middle" x="334" y="-7" font-family="Helvetica,sans-Serif" font-size="10.00">ValidTurtleID</text>
</a>
</g>
</g>
<!-- Node1&#45;&gt;Node2 -->
<g id="edge1" class="edge"><title>Node1&#45;&gt;Node2</title>
<path fill="none" stroke="midnightblue" d="M189.669,-15C198.411,-15 207.343,-15 216.261,-15"/>
<polygon fill="midnightblue" stroke="midnightblue" points="216.313,-18.5001 226.313,-15 216.313,-11.5001 216.313,-18.5001"/>
</g>
</g>
</svg>
