<?xml version="1.0" encoding="UTF-8" standalone="no"?>
<!DOCTYPE svg PUBLIC "-//W3C//DTD SVG 1.1//EN"
 "http://www.w3.org/Graphics/SVG/1.1/DTD/svg11.dtd">
<!-- Generated by graphviz version 2.36.0 (20140111.2315)
 -->
<!-- Title: workspaceState.TurtleCollection.removeAllStamps Pages: 1 -->
<svg width="432pt" height="38pt"
 viewBox="0.00 0.00 432.00 38.00" xmlns="http://www.w3.org/2000/svg" xmlns:xlink="http://www.w3.org/1999/xlink">
<g id="graph0" class="graph" transform="scale(1 1) rotate(0) translate(4 34)">
<title>workspaceState.TurtleCollection.removeAllStamps</title>
<polygon fill="white" stroke="none" points="-4,4 -4,-34 428,-34 428,4 -4,4"/>
<!-- Node1 -->
<g id="node1" class="node"><title>Node1</title>
<polygon fill="#bfbfbf" stroke="black" points="0,-0 0,-30 208,-30 208,-0 0,-0"/>
<text text-anchor="start" x="8" y="-18" font-family="Helvetica,sans-Serif" font-size="10.00">workspaceState.TurtleCollection.remove</text>
<text text-anchor="middle" x="104" y="-7" font-family="Helvetica,sans-Serif" font-size="10.00">AllStamps</text>
</g>
<!-- Node2 -->
<g id="node2" class="node"><title>Node2</title>
<g id="a_node2"><a xlink:href="../../de/d58/classcommand_parsing_1_1turtle_command_parsing_1_1_clear_stamps.html#a0be3a3feace25c27d4f9b1316aa3dc12" target="_top" xlink:title="commandParsing.turtleCommand\lParsing.ClearStamps.parse">
<polygon fill="white" stroke="black" points="244.5,-0 244.5,-30 423.5,-30 423.5,-0 244.5,-0"/>
<text text-anchor="start" x="252.5" y="-18" font-family="Helvetica,sans-Serif" font-size="10.00">commandParsing.turtleCommand</text>
<text text-anchor="middle" x="334" y="-7" font-family="Helvetica,sans-Serif" font-size="10.00">Parsing.ClearStamps.parse</text>
</a>
</g>
</g>
<!-- Node1&#45;&gt;Node2 -->
<g id="edge1" class="edge"><title>Node1&#45;&gt;Node2</title>
<path fill="none" stroke="midnightblue" d="M218.493,-15C227.164,-15 235.84,-15 244.319,-15"/>
<polygon fill="midnightblue" stroke="midnightblue" points="218.326,-11.5001 208.326,-15 218.326,-18.5001 218.326,-11.5001"/>
</g>
</g>
</svg>
