<?xml version="1.0" encoding="UTF-8" standalone="no"?>
<!DOCTYPE svg PUBLIC "-//W3C//DTD SVG 1.1//EN"
 "http://www.w3.org/Graphics/SVG/1.1/DTD/svg11.dtd">
<!-- Generated by graphviz version 2.36.0 (20140111.2315)
 -->
<!-- Title: workspaceState.TurtleCollection.clearActiveTurtles Pages: 1 -->
<svg width="640pt" height="186pt"
 viewBox="0.00 0.00 640.00 186.00" xmlns="http://www.w3.org/2000/svg" xmlns:xlink="http://www.w3.org/1999/xlink">
<g id="graph0" class="graph" transform="scale(1 1) rotate(0) translate(4 182)">
<title>workspaceState.TurtleCollection.clearActiveTurtles</title>
<polygon fill="white" stroke="none" points="-4,4 -4,-182 636,-182 636,4 -4,4"/>
<!-- Node1 -->
<g id="node1" class="node"><title>Node1</title>
<polygon fill="#bfbfbf" stroke="black" points="0,-71 0,-101 194,-101 194,-71 0,-71"/>
<text text-anchor="start" x="8" y="-89" font-family="Helvetica,sans-Serif" font-size="10.00">workspaceState.TurtleCollection.clear</text>
<text text-anchor="middle" x="97" y="-78" font-family="Helvetica,sans-Serif" font-size="10.00">ActiveTurtles</text>
</g>
<!-- Node2 -->
<g id="node2" class="node"><title>Node2</title>
<g id="a_node2"><a xlink:href="../../d7/d78/classcommand_parsing_1_1structural_command_parsing_1_1_ask_with.html#ab3835c2a34a1c16bc05317d1484c44a7" target="_top" xlink:title="commandParsing.structural\lCommandParsing.AskWith.determine\lIfTurtleIsValidRecipient">
<polygon fill="white" stroke="black" points="230,-136.5 230,-177.5 424,-177.5 424,-136.5 230,-136.5"/>
<text text-anchor="start" x="238" y="-165.5" font-family="Helvetica,sans-Serif" font-size="10.00">commandParsing.structural</text>
<text text-anchor="start" x="238" y="-154.5" font-family="Helvetica,sans-Serif" font-size="10.00">CommandParsing.AskWith.determine</text>
<text text-anchor="middle" x="327" y="-143.5" font-family="Helvetica,sans-Serif" font-size="10.00">IfTurtleIsValidRecipient</text>
</a>
</g>
</g>
<!-- Node1&#45;&gt;Node2 -->
<g id="edge1" class="edge"><title>Node1&#45;&gt;Node2</title>
<path fill="none" stroke="midnightblue" d="M155.933,-104.041C187.652,-113.918 227.081,-126.196 259.986,-136.443"/>
<polygon fill="midnightblue" stroke="midnightblue" points="156.941,-100.689 146.353,-101.057 154.86,-107.372 156.941,-100.689"/>
</g>
<!-- Node3 -->
<g id="node3" class="node"><title>Node3</title>
<g id="a_node3"><a xlink:href="../../d7/d78/classcommand_parsing_1_1structural_command_parsing_1_1_ask_with.html#a934aa5eda34ccd0b9703e578753031fb" target="_top" xlink:title="commandParsing.structural\lCommandParsing.AskWith.parse">
<polygon fill="white" stroke="black" points="460,-117 460,-147 632,-147 632,-117 460,-117"/>
<text text-anchor="start" x="468" y="-135" font-family="Helvetica,sans-Serif" font-size="10.00">commandParsing.structural</text>
<text text-anchor="middle" x="546" y="-124" font-family="Helvetica,sans-Serif" font-size="10.00">CommandParsing.AskWith.parse</text>
</a>
</g>
</g>
<!-- Node1&#45;&gt;Node3 -->
<g id="edge5" class="edge"><title>Node1&#45;&gt;Node3</title>
<path fill="none" stroke="midnightblue" d="M204.526,-96.9624C282.664,-105.003 387.361,-115.778 459.934,-123.246"/>
<polygon fill="midnightblue" stroke="midnightblue" points="204.473,-93.4386 194.167,-95.8964 203.756,-100.402 204.473,-93.4386"/>
</g>
<!-- Node4 -->
<g id="node4" class="node"><title>Node4</title>
<g id="a_node4"><a xlink:href="../../db/da0/classcommand_parsing_1_1structural_command_parsing_1_1_tell.html#aaab258a057ef8d0fd8ff6980e59dc719" target="_top" xlink:title="commandParsing.structural\lCommandParsing.Tell.parse">
<polygon fill="white" stroke="black" points="252.5,-49 252.5,-79 401.5,-79 401.5,-49 252.5,-49"/>
<text text-anchor="start" x="260.5" y="-67" font-family="Helvetica,sans-Serif" font-size="10.00">commandParsing.structural</text>
<text text-anchor="middle" x="327" y="-56" font-family="Helvetica,sans-Serif" font-size="10.00">CommandParsing.Tell.parse</text>
</a>
</g>
</g>
<!-- Node1&#45;&gt;Node4 -->
<g id="edge3" class="edge"><title>Node1&#45;&gt;Node4</title>
<path fill="none" stroke="midnightblue" d="M204.124,-75.76C220.396,-74.1899 236.883,-72.599 252.25,-71.1162"/>
<polygon fill="midnightblue" stroke="midnightblue" points="203.649,-72.2894 194.032,-76.7338 204.322,-79.2571 203.649,-72.2894"/>
</g>
<!-- Node5 -->
<g id="node5" class="node"><title>Node5</title>
<g id="a_node5"><a xlink:href="../../d7/d50/classcommand_parsing_1_1structural_command_parsing_1_1_ask.html#aa19ad64684414b0ef6112ac7e75e992d" target="_top" xlink:title="commandParsing.structural\lCommandParsing.Ask.parse">
<polygon fill="white" stroke="black" points="251,-0 251,-30 403,-30 403,-0 251,-0"/>
<text text-anchor="start" x="259" y="-18" font-family="Helvetica,sans-Serif" font-size="10.00">commandParsing.structural</text>
<text text-anchor="middle" x="327" y="-7" font-family="Helvetica,sans-Serif" font-size="10.00">CommandParsing.Ask.parse</text>
</a>
</g>
</g>
<!-- Node1&#45;&gt;Node5 -->
<g id="edge4" class="edge"><title>Node1&#45;&gt;Node5</title>
<path fill="none" stroke="midnightblue" d="M147.923,-67.5369C172.489,-58.7253 202.634,-48.3167 230,-40 241.288,-36.5695 253.408,-33.185 265.107,-30.0673"/>
<polygon fill="midnightblue" stroke="midnightblue" points="146.674,-64.2668 138.455,-70.9529 149.049,-70.8514 146.674,-64.2668"/>
</g>
<!-- Node2&#45;&gt;Node3 -->
<g id="edge2" class="edge"><title>Node2&#45;&gt;Node3</title>
<path fill="none" stroke="midnightblue" d="M434.205,-144.764C442.809,-143.773 451.432,-142.78 459.858,-141.809"/>
<polygon fill="midnightblue" stroke="midnightblue" points="433.661,-141.304 424.127,-145.925 434.462,-148.258 433.661,-141.304"/>
</g>
</g>
</svg>
