<?xml version="1.0" encoding="UTF-8" standalone="no"?>
<!DOCTYPE svg PUBLIC "-//W3C//DTD SVG 1.1//EN"
 "http://www.w3.org/Graphics/SVG/1.1/DTD/svg11.dtd">
<!-- Generated by graphviz version 2.36.0 (20140111.2315)
 -->
<!-- Title: workspaceState.TurtleCollection.getStamps Pages: 1 -->
<svg width="462pt" height="87pt"
 viewBox="0.00 0.00 462.00 87.00" xmlns="http://www.w3.org/2000/svg" xmlns:xlink="http://www.w3.org/1999/xlink">
<g id="graph0" class="graph" transform="scale(1 1) rotate(0) translate(4 83)">
<title>workspaceState.TurtleCollection.getStamps</title>
<polygon fill="white" stroke="none" points="-4,4 -4,-83 458,-83 458,4 -4,4"/>
<!-- Node1 -->
<g id="node1" class="node"><title>Node1</title>
<polygon fill="#bfbfbf" stroke="black" points="0.5,-24 0.5,-54 187.5,-54 187.5,-24 0.5,-24"/>
<text text-anchor="start" x="8.5" y="-42" font-family="Helvetica,sans-Serif" font-size="10.00">workspaceState.TurtleCollection.get</text>
<text text-anchor="middle" x="94" y="-31" font-family="Helvetica,sans-Serif" font-size="10.00">Stamps</text>
</g>
<!-- Node2 -->
<g id="node2" class="node"><title>Node2</title>
<g id="a_node2"><a xlink:href="../../de/d58/classcommand_parsing_1_1turtle_command_parsing_1_1_clear_stamps.html#a0be3a3feace25c27d4f9b1316aa3dc12" target="_top" xlink:title="commandParsing.turtleCommand\lParsing.ClearStamps.parse">
<polygon fill="white" stroke="black" points="249.5,-49 249.5,-79 428.5,-79 428.5,-49 249.5,-49"/>
<text text-anchor="start" x="257.5" y="-67" font-family="Helvetica,sans-Serif" font-size="10.00">commandParsing.turtleCommand</text>
<text text-anchor="middle" x="339" y="-56" font-family="Helvetica,sans-Serif" font-size="10.00">Parsing.ClearStamps.parse</text>
</a>
</g>
</g>
<!-- Node1&#45;&gt;Node2 -->
<g id="edge1" class="edge"><title>Node1&#45;&gt;Node2</title>
<path fill="none" stroke="midnightblue" d="M197.61,-49.5566C214.798,-51.3249 232.503,-53.1464 249.303,-54.8748"/>
<polygon fill="midnightblue" stroke="midnightblue" points="197.867,-46.0646 187.561,-48.5227 197.15,-53.0279 197.867,-46.0646"/>
</g>
<!-- Node3 -->
<g id="node3" class="node"><title>Node3</title>
<g id="a_node3"><a xlink:href="../../d8/dcc/classtests_1_1command_tests_1_1inputless_command_tests_1_1_clear_stamps_test.html#ae7d3640d990fa8bdffe17607e256acf9" target="_top" xlink:title="tests.commandTests.inputless\lCommandTests.ClearStampsTest.StampTest">
<polygon fill="white" stroke="black" points="224.5,-0 224.5,-30 453.5,-30 453.5,-0 224.5,-0"/>
<text text-anchor="start" x="232.5" y="-18" font-family="Helvetica,sans-Serif" font-size="10.00">tests.commandTests.inputless</text>
<text text-anchor="middle" x="339" y="-7" font-family="Helvetica,sans-Serif" font-size="10.00">CommandTests.ClearStampsTest.StampTest</text>
</a>
</g>
</g>
<!-- Node1&#45;&gt;Node3 -->
<g id="edge2" class="edge"><title>Node1&#45;&gt;Node3</title>
<path fill="none" stroke="midnightblue" d="M197.543,-28.8723C206.447,-27.9929 215.489,-27.0998 224.473,-26.2125"/>
<polygon fill="midnightblue" stroke="midnightblue" points="197.169,-25.3921 187.561,-29.8582 197.857,-32.3583 197.169,-25.3921"/>
</g>
</g>
</svg>
