<?xml version="1.0" encoding="UTF-8" standalone="no"?>
<!DOCTYPE svg PUBLIC "-//W3C//DTD SVG 1.1//EN"
 "http://www.w3.org/Graphics/SVG/1.1/DTD/svg11.dtd">
<!-- Generated by graphviz version 2.36.0 (20140111.2315)
 -->
<!-- Title: workspaceState.TurtleCollection.getActiveTurtles Pages: 1 -->
<!--zoomable 1372 -->
<svg id="main" version="1.1" xmlns="http://www.w3.org/2000/svg" xmlns:xlink="http://www.w3.org/1999/xlink" xml:space="preserve" onload="init(evt)">
<style type="text/css"><![CDATA[
.edge:hover path { stroke: red; }
.edge:hover polygon { stroke: red; fill: red; }
]]></style>
<script type="text/javascript"><![CDATA[
var edges = document.getElementsByTagName('g');
if (edges && edges.length) {
  for (var i=0;i<edges.length;i++) {
    if (edges[i].id.substr(0,4)=='edge') {
      edges[i].setAttribute('class','edge');
    }
  }
}
]]></script>
        <defs>
                <circle id="rim" cx="0" cy="0" r="7"/>
                <circle id="rim2" cx="0" cy="0" r="3.5"/>
                <g id="zoomPlus">
                        <use xlink:href="#rim" fill="#404040">
                                <set attributeName="fill" to="#808080" begin="zoomplus.mouseover" end="zoomplus.mouseout"/>
                        </use>
                        <path d="M-4,0h8M0,-4v8" fill="none" stroke="white" stroke-width="1.5" pointer-events="none"/>
                </g>
                <g id="zoomMin">
                        <use xlink:href="#rim" fill="#404040">
                                <set attributeName="fill" to="#808080" begin="zoomminus.mouseover" end="zoomminus.mouseout"/>
                        </use>
                        <path d="M-4,0h8" fill="none" stroke="white" stroke-width="1.5" pointer-events="none"/>
                </g>
                <g id="dirArrow">
                        <path fill="none" stroke="white" stroke-width="1.5" d="M0,-3.0v7 M-2.5,-0.5L0,-3.0L2.5,-0.5"/>
                </g>
               <g id="resetDef">
                       <use xlink:href="#rim2" fill="#404040">
                               <set attributeName="fill" to="#808080" begin="reset.mouseover" end="reset.mouseout"/>
                       </use>
               </g>
        </defs>

<script type="text/javascript">
var viewWidth = 690;
var viewHeight = 1372;
var sectionId = 'dynsection-9';
</script>
<script xlink:href="../../svgpan.js"/>
<svg id="graph" class="graph">
<g id="viewport">
<title>workspaceState.TurtleCollection.getActiveTurtles</title>
<polygon fill="white" stroke="none" points="-4,4 -4,-1368 686,-1368 686,4 -4,4"/>
<!-- Node1 -->
<g id="node1" class="node"><title>Node1</title>
<polygon fill="#bfbfbf" stroke="black" points="0.5,-653 0.5,-683 187.5,-683 187.5,-653 0.5,-653"/>
<text text-anchor="start" x="8.5" y="-671" font-family="Helvetica,sans-Serif" font-size="10.00">workspaceState.TurtleCollection.get</text>
<text text-anchor="middle" x="94" y="-660" font-family="Helvetica,sans-Serif" font-size="10.00">ActiveTurtles</text>
</g>
<!-- Node2 -->
<g id="node2" class="node"><title>Node2</title>
<g id="a_node2"><a xlink:href="../../d4/d7d/classtests_1_1command_tests_1_1multiple_turtle_command_tests_1_1_ask_tests.html#a2b6aad6a6c126cc588781c15ba1ea64e" target="_top" xlink:title="tests.commandTests.multiple\lTurtleCommandTests.AskTests.Complicated\lAskTests">
<polygon fill="white" stroke="black" points="237,-1322.5 237,-1363.5 461,-1363.5 461,-1322.5 237,-1322.5"/>
<text text-anchor="start" x="245" y="-1351.5" font-family="Helvetica,sans-Serif" font-size="10.00">tests.commandTests.multiple</text>
<text text-anchor="start" x="245" y="-1340.5" font-family="Helvetica,sans-Serif" font-size="10.00">TurtleCommandTests.AskTests.Complicated</text>
<text text-anchor="middle" x="349" y="-1329.5" font-family="Helvetica,sans-Serif" font-size="10.00">AskTests</text>
</a>
</g>
</g>
<!-- Node1&#45;&gt;Node2 -->
<g id="edge1" class="edge"><title>Node1&#45;&gt;Node2</title>
<path fill="none" stroke="midnightblue" d="M96.5394,-693.305C103.602,-801.037 136.398,-1220.15 224,-1312 227.905,-1316.09 232.263,-1319.68 236.944,-1322.82"/>
<polygon fill="midnightblue" stroke="midnightblue" points="100.016,-692.822 95.885,-683.066 93.0301,-693.269 100.016,-692.822"/>
</g>
<!-- Node3 -->
<g id="node3" class="node"><title>Node3</title>
<g id="a_node3"><a xlink:href="../../d8/da3/classtests_1_1command_tests_1_1multiple_turtle_command_tests_1_1_ask_with_tests.html#a240881e86ec4ad319cc420ce196b0351" target="_top" xlink:title="tests.commandTests.multiple\lTurtleCommandTests.AskWithTests.\lMultipleTurtleAskWithTests">
<polygon fill="white" stroke="black" points="257,-1262.5 257,-1303.5 441,-1303.5 441,-1262.5 257,-1262.5"/>
<text text-anchor="start" x="265" y="-1291.5" font-family="Helvetica,sans-Serif" font-size="10.00">tests.commandTests.multiple</text>
<text text-anchor="start" x="265" y="-1280.5" font-family="Helvetica,sans-Serif" font-size="10.00">TurtleCommandTests.AskWithTests.</text>
<text text-anchor="middle" x="349" y="-1269.5" font-family="Helvetica,sans-Serif" font-size="10.00">MultipleTurtleAskWithTests</text>
</a>
</g>
</g>
<!-- Node1&#45;&gt;Node3 -->
<g id="edge2" class="edge"><title>Node1&#45;&gt;Node3</title>
<path fill="none" stroke="midnightblue" d="M97.0922,-693.198C105.998,-794.397 144.008,-1169.77 224,-1252 233.129,-1261.38 244.637,-1268.09 256.941,-1272.85"/>
<polygon fill="midnightblue" stroke="midnightblue" points="100.559,-692.665 96.2127,-683.002 93.5852,-693.266 100.559,-692.665"/>
</g>
<!-- Node4 -->
<g id="node4" class="node"><title>Node4</title>
<g id="a_node4"><a xlink:href="../../d8/da3/classtests_1_1command_tests_1_1multiple_turtle_command_tests_1_1_ask_with_tests.html#ace302d80756057ceb2241cbe8d85d690" target="_top" xlink:title="tests.commandTests.multiple\lTurtleCommandTests.AskWithTests.\lMultipleTurtlesWithConditionAskWithTests">
<polygon fill="white" stroke="black" points="243.5,-1202.5 243.5,-1243.5 454.5,-1243.5 454.5,-1202.5 243.5,-1202.5"/>
<text text-anchor="start" x="251.5" y="-1231.5" font-family="Helvetica,sans-Serif" font-size="10.00">tests.commandTests.multiple</text>
<text text-anchor="start" x="251.5" y="-1220.5" font-family="Helvetica,sans-Serif" font-size="10.00">TurtleCommandTests.AskWithTests.</text>
<text text-anchor="middle" x="349" y="-1209.5" font-family="Helvetica,sans-Serif" font-size="10.00">MultipleTurtlesWithConditionAskWithTests</text>
</a>
</g>
</g>
<!-- Node1&#45;&gt;Node4 -->
<g id="edge3" class="edge"><title>Node1&#45;&gt;Node4</title>
<path fill="none" stroke="midnightblue" d="M97.792,-693.333C108.728,-788.015 151.644,-1119.38 224,-1192 229.717,-1197.74 236.324,-1202.47 243.452,-1206.36"/>
<polygon fill="midnightblue" stroke="midnightblue" points="101.251,-692.771 96.6436,-683.23 94.2956,-693.562 101.251,-692.771"/>
</g>
<!-- Node5 -->
<g id="node5" class="node"><title>Node5</title>
<g id="a_node5"><a xlink:href="../../da/d45/classcommand_parsing_1_1turtle_command_parsing_1_1turtle_attribute_setters_1_1_set_pen_color.html#a605196faee611476d77f7d08efd07a75" target="_top" xlink:title="commandParsing.turtleCommand\lParsing.turtleAttributeSetters.\lSetPenColor.operateOnComponents">
<polygon fill="white" stroke="black" points="253.5,-1142.5 253.5,-1183.5 444.5,-1183.5 444.5,-1142.5 253.5,-1142.5"/>
<text text-anchor="start" x="261.5" y="-1171.5" font-family="Helvetica,sans-Serif" font-size="10.00">commandParsing.turtleCommand</text>
<text text-anchor="start" x="261.5" y="-1160.5" font-family="Helvetica,sans-Serif" font-size="10.00">Parsing.turtleAttributeSetters.</text>
<text text-anchor="middle" x="349" y="-1149.5" font-family="Helvetica,sans-Serif" font-size="10.00">SetPenColor.operateOnComponents</text>
</a>
</g>
</g>
<!-- Node1&#45;&gt;Node5 -->
<g id="edge4" class="edge"><title>Node1&#45;&gt;Node5</title>
<path fill="none" stroke="midnightblue" d="M98.6806,-693.523C111.84,-781.314 159.243,-1068.92 224,-1132 232.345,-1140.13 242.482,-1146.23 253.326,-1150.79"/>
<polygon fill="midnightblue" stroke="midnightblue" points="102.107,-692.768 97.1814,-683.388 95.1825,-693.793 102.107,-692.768"/>
</g>
<!-- Node6 -->
<g id="node6" class="node"><title>Node6</title>
<g id="a_node6"><a xlink:href="../../d8/d64/classcommand_parsing_1_1turtle_command_parsing_1_1turtle_attribute_setters_1_1_set_pen_size.html#a4d290bee0cfdf89a149e3bd517f00a53" target="_top" xlink:title="commandParsing.turtleCommand\lParsing.turtleAttributeSetters.\lSetPenSize.operateOnComponents">
<polygon fill="white" stroke="black" points="255.5,-1082.5 255.5,-1123.5 442.5,-1123.5 442.5,-1082.5 255.5,-1082.5"/>
<text text-anchor="start" x="263.5" y="-1111.5" font-family="Helvetica,sans-Serif" font-size="10.00">commandParsing.turtleCommand</text>
<text text-anchor="start" x="263.5" y="-1100.5" font-family="Helvetica,sans-Serif" font-size="10.00">Parsing.turtleAttributeSetters.</text>
<text text-anchor="middle" x="349" y="-1089.5" font-family="Helvetica,sans-Serif" font-size="10.00">SetPenSize.operateOnComponents</text>
</a>
</g>
</g>
<!-- Node1&#45;&gt;Node6 -->
<g id="edge5" class="edge"><title>Node1&#45;&gt;Node6</title>
<path fill="none" stroke="midnightblue" d="M95.1023,-693.383C96.83,-764.406 111.851,-966.818 224,-1072 232.983,-1080.42 243.899,-1086.65 255.488,-1091.24"/>
<polygon fill="midnightblue" stroke="midnightblue" points="98.5978,-693.085 94.9263,-683.147 91.5988,-693.206 98.5978,-693.085"/>
</g>
<!-- Node7 -->
<g id="node7" class="node"><title>Node7</title>
<g id="a_node7"><a xlink:href="../../d1/d76/classcommand_parsing_1_1turtle_command_parsing_1_1turtle_attribute_setters_1_1_set_heading.html#ae69dccc512c0e9f0fe5341003fd048ea" target="_top" xlink:title="commandParsing.turtleCommand\lParsing.turtleAttributeSetters.\lSetHeading.operateOnComponents">
<polygon fill="white" stroke="black" points="255,-1022.5 255,-1063.5 443,-1063.5 443,-1022.5 255,-1022.5"/>
<text text-anchor="start" x="263" y="-1051.5" font-family="Helvetica,sans-Serif" font-size="10.00">commandParsing.turtleCommand</text>
<text text-anchor="start" x="263" y="-1040.5" font-family="Helvetica,sans-Serif" font-size="10.00">Parsing.turtleAttributeSetters.</text>
<text text-anchor="middle" x="349" y="-1029.5" font-family="Helvetica,sans-Serif" font-size="10.00">SetHeading.operateOnComponents</text>
</a>
</g>
</g>
<!-- Node1&#45;&gt;Node7 -->
<g id="edge6" class="edge"><title>Node1&#45;&gt;Node7</title>
<path fill="none" stroke="midnightblue" d="M96.7271,-693.425C102.473,-757.203 126.572,-925.072 224,-1012 232.941,-1019.98 243.628,-1025.97 254.925,-1030.46"/>
<polygon fill="midnightblue" stroke="midnightblue" points="100.186,-692.783 95.8787,-683.103 93.2097,-693.356 100.186,-692.783"/>
</g>
<!-- Node8 -->
<g id="node8" class="node"><title>Node8</title>
<g id="a_node8"><a xlink:href="../../d9/db7/classcommand_parsing_1_1turtle_command_parsing_1_1turtle_attribute_setters_1_1_set_shape.html#a0ba18906dd13ecd9788f2930fe2c5c4b" target="_top" xlink:title="commandParsing.turtleCommand\lParsing.turtleAttributeSetters.\lSetShape.operateOnComponents">
<polygon fill="white" stroke="black" points="259.5,-962.5 259.5,-1003.5 438.5,-1003.5 438.5,-962.5 259.5,-962.5"/>
<text text-anchor="start" x="267.5" y="-991.5" font-family="Helvetica,sans-Serif" font-size="10.00">commandParsing.turtleCommand</text>
<text text-anchor="start" x="267.5" y="-980.5" font-family="Helvetica,sans-Serif" font-size="10.00">Parsing.turtleAttributeSetters.</text>
<text text-anchor="middle" x="349" y="-969.5" font-family="Helvetica,sans-Serif" font-size="10.00">SetShape.operateOnComponents</text>
</a>
</g>
</g>
<!-- Node1&#45;&gt;Node8 -->
<g id="edge7" class="edge"><title>Node1&#45;&gt;Node8</title>
<path fill="none" stroke="midnightblue" d="M98.9203,-693.131C108.962,-748.746 140.924,-882.774 224,-952 234.229,-960.523 246.474,-966.754 259.229,-971.299"/>
<polygon fill="midnightblue" stroke="midnightblue" points="102.339,-692.359 97.1956,-683.096 95.4401,-693.545 102.339,-692.359"/>
</g>
<!-- Node9 -->
<g id="node9" class="node"><title>Node9</title>
<g id="a_node9"><a xlink:href="../../dd/d66/classcommand_parsing_1_1turtle_command_parsing_1_1turtle_movement_1_1_rotate.html#a9638cfc1f990cd9e8d09196875e555ae" target="_top" xlink:title="commandParsing.turtleCommand\lParsing.turtleMovement.Rotate.operate\lOnComponents">
<polygon fill="white" stroke="black" points="246.5,-902.5 246.5,-943.5 451.5,-943.5 451.5,-902.5 246.5,-902.5"/>
<text text-anchor="start" x="254.5" y="-931.5" font-family="Helvetica,sans-Serif" font-size="10.00">commandParsing.turtleCommand</text>
<text text-anchor="start" x="254.5" y="-920.5" font-family="Helvetica,sans-Serif" font-size="10.00">Parsing.turtleMovement.Rotate.operate</text>
<text text-anchor="middle" x="349" y="-909.5" font-family="Helvetica,sans-Serif" font-size="10.00">OnComponents</text>
</a>
</g>
</g>
<!-- Node1&#45;&gt;Node9 -->
<g id="edge8" class="edge"><title>Node1&#45;&gt;Node9</title>
<path fill="none" stroke="midnightblue" d="M101.984,-692.761C116.505,-739.537 154.526,-840.862 224,-893 230.82,-898.118 238.394,-902.376 246.34,-905.915"/>
<polygon fill="midnightblue" stroke="midnightblue" points="105.32,-691.698 99.0894,-683.129 98.6157,-693.713 105.32,-691.698"/>
</g>
<!-- Node10 -->
<g id="node10" class="node"><title>Node10</title>
<g id="a_node10"><a xlink:href="../../dd/dc5/classcommand_parsing_1_1turtle_command_parsing_1_1_clear_screen.html#a25f0fd68cd628027c51a0224b98d6935" target="_top" xlink:title="commandParsing.turtleCommand\lParsing.ClearScreen.operateOnComponents">
<polygon fill="white" stroke="black" points="235,-854 235,-884 463,-884 463,-854 235,-854"/>
<text text-anchor="start" x="243" y="-872" font-family="Helvetica,sans-Serif" font-size="10.00">commandParsing.turtleCommand</text>
<text text-anchor="middle" x="349" y="-861" font-family="Helvetica,sans-Serif" font-size="10.00">Parsing.ClearScreen.operateOnComponents</text>
</a>
</g>
</g>
<!-- Node1&#45;&gt;Node10 -->
<g id="edge9" class="edge"><title>Node1&#45;&gt;Node10</title>
<path fill="none" stroke="midnightblue" d="M105.781,-692.703C124.091,-731.55 165.098,-806.361 224,-844 230.014,-847.843 236.5,-851.114 243.24,-853.895"/>
<polygon fill="midnightblue" stroke="midnightblue" points="108.772,-690.831 101.419,-683.203 102.411,-693.751 108.772,-690.831"/>
</g>
<!-- Node11 -->
<g id="node11" class="node"><title>Node11</title>
<g id="a_node11"><a xlink:href="../../d9/dab/classcommand_parsing_1_1turtle_command_parsing_1_1turtle_movement_1_1_move_to_location.html#a914c07518060cce52ab6782b8dcfeb81" target="_top" xlink:title="commandParsing.turtleCommand\lParsing.turtleMovement.MoveToLocation.operate\lOnComponents">
<polygon fill="white" stroke="black" points="224,-794.5 224,-835.5 474,-835.5 474,-794.5 224,-794.5"/>
<text text-anchor="start" x="232" y="-823.5" font-family="Helvetica,sans-Serif" font-size="10.00">commandParsing.turtleCommand</text>
<text text-anchor="start" x="232" y="-812.5" font-family="Helvetica,sans-Serif" font-size="10.00">Parsing.turtleMovement.MoveToLocation.operate</text>
<text text-anchor="middle" x="349" y="-801.5" font-family="Helvetica,sans-Serif" font-size="10.00">OnComponents</text>
</a>
</g>
</g>
<!-- Node1&#45;&gt;Node11 -->
<g id="edge10" class="edge"><title>Node1&#45;&gt;Node11</title>
<path fill="none" stroke="midnightblue" d="M114.179,-691.012C137.45,-717.427 179.173,-760.166 224,-784 231.445,-787.959 239.413,-791.425 247.583,-794.458"/>
<polygon fill="midnightblue" stroke="midnightblue" points="116.758,-688.644 107.566,-683.377 111.467,-693.227 116.758,-688.644"/>
</g>
<!-- Node12 -->
<g id="node12" class="node"><title>Node12</title>
<g id="a_node12"><a xlink:href="../../da/d63/classcommand_parsing_1_1turtle_command_parsing_1_1turtle_attribute_setters_1_1_set_towards.html#a287e5a64e0179d1de65f2ebb4d5622a2" target="_top" xlink:title="commandParsing.turtleCommand\lParsing.turtleAttributeSetters.\lSetTowards.operateOnComponents">
<polygon fill="white" stroke="black" points="256,-734.5 256,-775.5 442,-775.5 442,-734.5 256,-734.5"/>
<text text-anchor="start" x="264" y="-763.5" font-family="Helvetica,sans-Serif" font-size="10.00">commandParsing.turtleCommand</text>
<text text-anchor="start" x="264" y="-752.5" font-family="Helvetica,sans-Serif" font-size="10.00">Parsing.turtleAttributeSetters.</text>
<text text-anchor="middle" x="349" y="-741.5" font-family="Helvetica,sans-Serif" font-size="10.00">SetTowards.operateOnComponents</text>
</a>
</g>
</g>
<!-- Node1&#45;&gt;Node12 -->
<g id="edge11" class="edge"><title>Node1&#45;&gt;Node12</title>
<path fill="none" stroke="midnightblue" d="M134.929,-687.364C160.078,-699.048 193.455,-713.631 224,-724 235.032,-727.745 246.754,-731.258 258.419,-734.476"/>
<polygon fill="midnightblue" stroke="midnightblue" points="136.255,-684.12 125.716,-683.042 133.283,-690.458 136.255,-684.12"/>
</g>
<!-- Node13 -->
<g id="node13" class="node"><title>Node13</title>
<g id="a_node13"><a xlink:href="../../d6/d37/classcommand_parsing_1_1turtle_command_parsing_1_1turtle_movement_1_1_move.html#a82fa17cd8efe11bebcbfb1c7ae8fe7c7" target="_top" xlink:title="commandParsing.turtleCommand\lParsing.turtleMovement.Move.operate\lOnComponents">
<polygon fill="white" stroke="black" points="249,-674.5 249,-715.5 449,-715.5 449,-674.5 249,-674.5"/>
<text text-anchor="start" x="257" y="-703.5" font-family="Helvetica,sans-Serif" font-size="10.00">commandParsing.turtleCommand</text>
<text text-anchor="start" x="257" y="-692.5" font-family="Helvetica,sans-Serif" font-size="10.00">Parsing.turtleMovement.Move.operate</text>
<text text-anchor="middle" x="349" y="-681.5" font-family="Helvetica,sans-Serif" font-size="10.00">OnComponents</text>
</a>
</g>
</g>
<!-- Node1&#45;&gt;Node13 -->
<g id="edge12" class="edge"><title>Node1&#45;&gt;Node13</title>
<path fill="none" stroke="midnightblue" d="M198.12,-679.005C214.875,-680.793 232.198,-682.642 248.856,-684.419"/>
<polygon fill="midnightblue" stroke="midnightblue" points="198.086,-675.482 187.771,-677.9 197.343,-682.442 198.086,-675.482"/>
</g>
<!-- Node14 -->
<g id="node14" class="node"><title>Node14</title>
<g id="a_node14"><a xlink:href="../../de/d6a/classcommand_parsing_1_1turtle_query_parsing_1_1_turtles.html#aa304a513e0d39116375d56d0503933e6" target="_top" xlink:title="commandParsing.turtleQuery\lParsing.Turtles.parse">
<polygon fill="white" stroke="black" points="270.5,-626 270.5,-656 427.5,-656 427.5,-626 270.5,-626"/>
<text text-anchor="start" x="278.5" y="-644" font-family="Helvetica,sans-Serif" font-size="10.00">commandParsing.turtleQuery</text>
<text text-anchor="middle" x="349" y="-633" font-family="Helvetica,sans-Serif" font-size="10.00">Parsing.Turtles.parse</text>
</a>
</g>
</g>
<!-- Node1&#45;&gt;Node14 -->
<g id="edge13" class="edge"><title>Node1&#45;&gt;Node14</title>
<path fill="none" stroke="midnightblue" d="M198.019,-657.006C222.123,-654.434 247.406,-651.735 270.2,-649.303"/>
<polygon fill="midnightblue" stroke="midnightblue" points="197.343,-653.558 187.771,-658.1 198.086,-660.518 197.343,-653.558"/>
</g>
<!-- Node15 -->
<g id="node15" class="node"><title>Node15</title>
<g id="a_node15"><a xlink:href="../../dc/df0/classcommand_parsing_1_1turtle_query_parsing_1_1_get_pen_color.html#a3bd931cd58e3aa075888d63ae310e346" target="_top" xlink:title="commandParsing.turtleQuery\lParsing.GetPenColor.parse">
<polygon fill="white" stroke="black" points="270.5,-577 270.5,-607 427.5,-607 427.5,-577 270.5,-577"/>
<text text-anchor="start" x="278.5" y="-595" font-family="Helvetica,sans-Serif" font-size="10.00">commandParsing.turtleQuery</text>
<text text-anchor="middle" x="349" y="-584" font-family="Helvetica,sans-Serif" font-size="10.00">Parsing.GetPenColor.parse</text>
</a>
</g>
</g>
<!-- Node1&#45;&gt;Node15 -->
<g id="edge14" class="edge"><title>Node1&#45;&gt;Node15</title>
<path fill="none" stroke="midnightblue" d="M137.842,-648.844C162.632,-638.323 194.644,-625.687 224,-617 238.846,-612.607 254.919,-608.737 270.418,-605.436"/>
<polygon fill="midnightblue" stroke="midnightblue" points="136.183,-645.747 128.375,-652.907 138.944,-652.179 136.183,-645.747"/>
</g>
<!-- Node16 -->
<g id="node16" class="node"><title>Node16</title>
<g id="a_node16"><a xlink:href="../../d1/de7/classcommand_parsing_1_1turtle_command_parsing_1_1turtle_attribute_setters_1_1_hide_turtle.html#af7c45d61a317edddfeee3960e0a3b59e" target="_top" xlink:title="commandParsing.turtleCommand\lParsing.turtleAttributeSetters.\lHideTurtle.parse">
<polygon fill="white" stroke="black" points="259.5,-517.5 259.5,-558.5 438.5,-558.5 438.5,-517.5 259.5,-517.5"/>
<text text-anchor="start" x="267.5" y="-546.5" font-family="Helvetica,sans-Serif" font-size="10.00">commandParsing.turtleCommand</text>
<text text-anchor="start" x="267.5" y="-535.5" font-family="Helvetica,sans-Serif" font-size="10.00">Parsing.turtleAttributeSetters.</text>
<text text-anchor="middle" x="349" y="-524.5" font-family="Helvetica,sans-Serif" font-size="10.00">HideTurtle.parse</text>
</a>
</g>
</g>
<!-- Node1&#45;&gt;Node16 -->
<g id="edge15" class="edge"><title>Node1&#45;&gt;Node16</title>
<path fill="none" stroke="midnightblue" d="M117.483,-645.681C141.751,-622.841 182.525,-587.953 224,-568 235.077,-562.671 247.18,-558.242 259.342,-554.574"/>
<polygon fill="midnightblue" stroke="midnightblue" points="115.015,-643.199 110.205,-652.639 119.852,-648.259 115.015,-643.199"/>
</g>
<!-- Node17 -->
<g id="node17" class="node"><title>Node17</title>
<g id="a_node17"><a xlink:href="../../dd/d40/classcommand_parsing_1_1turtle_command_parsing_1_1turtle_attribute_setters_1_1_pen_down.html#a8901996714ea7599edcfda978ab24f0f" target="_top" xlink:title="commandParsing.turtleCommand\lParsing.turtleAttributeSetters.\lPenDown.parse">
<polygon fill="white" stroke="black" points="259.5,-457.5 259.5,-498.5 438.5,-498.5 438.5,-457.5 259.5,-457.5"/>
<text text-anchor="start" x="267.5" y="-486.5" font-family="Helvetica,sans-Serif" font-size="10.00">commandParsing.turtleCommand</text>
<text text-anchor="start" x="267.5" y="-475.5" font-family="Helvetica,sans-Serif" font-size="10.00">Parsing.turtleAttributeSetters.</text>
<text text-anchor="middle" x="349" y="-464.5" font-family="Helvetica,sans-Serif" font-size="10.00">PenDown.parse</text>
</a>
</g>
</g>
<!-- Node1&#45;&gt;Node17 -->
<g id="edge16" class="edge"><title>Node1&#45;&gt;Node17</title>
<path fill="none" stroke="midnightblue" d="M107.687,-643.74C127.556,-608.227 169.452,-542.566 224,-508 234.758,-501.183 246.938,-495.915 259.36,-491.844"/>
<polygon fill="midnightblue" stroke="midnightblue" points="104.402,-642.453 102.675,-652.906 110.543,-645.811 104.402,-642.453"/>
</g>
<!-- Node18 -->
<g id="node18" class="node"><title>Node18</title>
<g id="a_node18"><a xlink:href="../../d1/d7c/classcommand_parsing_1_1turtle_command_parsing_1_1turtle_attribute_setters_1_1_pen_up.html#a27e6db5a6404401727e931098a028bf1" target="_top" xlink:title="commandParsing.turtleCommand\lParsing.turtleAttributeSetters.\lPenUp.parse">
<polygon fill="white" stroke="black" points="259.5,-397.5 259.5,-438.5 438.5,-438.5 438.5,-397.5 259.5,-397.5"/>
<text text-anchor="start" x="267.5" y="-426.5" font-family="Helvetica,sans-Serif" font-size="10.00">commandParsing.turtleCommand</text>
<text text-anchor="start" x="267.5" y="-415.5" font-family="Helvetica,sans-Serif" font-size="10.00">Parsing.turtleAttributeSetters.</text>
<text text-anchor="middle" x="349" y="-404.5" font-family="Helvetica,sans-Serif" font-size="10.00">PenUp.parse</text>
</a>
</g>
</g>
<!-- Node1&#45;&gt;Node18 -->
<g id="edge17" class="edge"><title>Node1&#45;&gt;Node18</title>
<path fill="none" stroke="midnightblue" d="M102.351,-643.16C117.3,-597.139 155.744,-498.705 224,-448 234.49,-440.207 246.731,-434.413 259.359,-430.11"/>
<polygon fill="midnightblue" stroke="midnightblue" points="98.9455,-642.323 99.2828,-652.913 105.623,-644.424 98.9455,-642.323"/>
</g>
<!-- Node19 -->
<g id="node19" class="node"><title>Node19</title>
<g id="a_node19"><a xlink:href="../../d6/daa/classcommand_parsing_1_1turtle_command_parsing_1_1turtle_attribute_setters_1_1_show_turtle.html#a806202bb6da0c5999d8c7298f4ed948b" target="_top" xlink:title="commandParsing.turtleCommand\lParsing.turtleAttributeSetters.\lShowTurtle.parse">
<polygon fill="white" stroke="black" points="259.5,-337.5 259.5,-378.5 438.5,-378.5 438.5,-337.5 259.5,-337.5"/>
<text text-anchor="start" x="267.5" y="-366.5" font-family="Helvetica,sans-Serif" font-size="10.00">commandParsing.turtleCommand</text>
<text text-anchor="start" x="267.5" y="-355.5" font-family="Helvetica,sans-Serif" font-size="10.00">Parsing.turtleAttributeSetters.</text>
<text text-anchor="middle" x="349" y="-344.5" font-family="Helvetica,sans-Serif" font-size="10.00">ShowTurtle.parse</text>
</a>
</g>
</g>
<!-- Node1&#45;&gt;Node19 -->
<g id="edge18" class="edge"><title>Node1&#45;&gt;Node19</title>
<path fill="none" stroke="midnightblue" d="M99.0689,-642.781C109.345,-587.609 141.645,-455.725 224,-388 234.264,-379.559 246.529,-373.427 259.292,-368.985"/>
<polygon fill="midnightblue" stroke="midnightblue" points="95.6009,-642.293 97.299,-652.751 102.493,-643.517 95.6009,-642.293"/>
</g>
<!-- Node20 -->
<g id="node20" class="node"><title>Node20</title>
<g id="a_node20"><a xlink:href="../../da/dc5/classcommand_parsing_1_1turtle_query_parsing_1_1_get_shape.html#a58f20574454dd35df933aa5e8de5907e" target="_top" xlink:title="commandParsing.turtleQuery\lParsing.GetShape.parse">
<polygon fill="white" stroke="black" points="270.5,-289 270.5,-319 427.5,-319 427.5,-289 270.5,-289"/>
<text text-anchor="start" x="278.5" y="-307" font-family="Helvetica,sans-Serif" font-size="10.00">commandParsing.turtleQuery</text>
<text text-anchor="middle" x="349" y="-296" font-family="Helvetica,sans-Serif" font-size="10.00">Parsing.GetShape.parse</text>
</a>
</g>
</g>
<!-- Node1&#45;&gt;Node20 -->
<g id="edge19" class="edge"><title>Node1&#45;&gt;Node20</title>
<path fill="none" stroke="midnightblue" d="M96.5528,-642.547C101.893,-578.756 125.125,-411.227 224,-328 237.085,-316.986 253.708,-310.456 270.498,-306.699"/>
<polygon fill="midnightblue" stroke="midnightblue" points="93.0359,-642.639 95.7719,-652.874 100.016,-643.167 93.0359,-642.639"/>
</g>
<!-- Node21 -->
<g id="node21" class="node"><title>Node21</title>
<g id="a_node21"><a xlink:href="../../d7/dd2/classcommand_parsing_1_1turtle_command_parsing_1_1_stamp.html#a05a3413c6b4195da962917a40ba016ed" target="_top" xlink:title="commandParsing.turtleCommand\lParsing.Stamp.parse">
<polygon fill="white" stroke="black" points="259.5,-240 259.5,-270 438.5,-270 438.5,-240 259.5,-240"/>
<text text-anchor="start" x="267.5" y="-258" font-family="Helvetica,sans-Serif" font-size="10.00">commandParsing.turtleCommand</text>
<text text-anchor="middle" x="349" y="-247" font-family="Helvetica,sans-Serif" font-size="10.00">Parsing.Stamp.parse</text>
</a>
</g>
</g>
<!-- Node1&#45;&gt;Node21 -->
<g id="edge20" class="edge"><title>Node1&#45;&gt;Node21</title>
<path fill="none" stroke="midnightblue" d="M95.2315,-642.867C97.3188,-573.496 113.234,-378.011 224,-280 234.033,-271.123 246.324,-265.057 259.229,-260.966"/>
<polygon fill="midnightblue" stroke="midnightblue" points="91.7321,-642.806 95.0028,-652.884 98.7303,-642.966 91.7321,-642.806"/>
</g>
<!-- Node22 -->
<g id="node22" class="node"><title>Node22</title>
<g id="a_node22"><a xlink:href="../../da/df9/classcommand_parsing_1_1structural_command_parsing_1_1_multiple_turtle_command.html#a33a969978dd11cb87ebf8b9e40f4ef0d" target="_top" xlink:title="commandParsing.structural\lCommandParsing.MultipleTurtleCommand.save\lCurrentActiveTurtles">
<polygon fill="white" stroke="black" points="228,-180.5 228,-221.5 470,-221.5 470,-180.5 228,-180.5"/>
<text text-anchor="start" x="236" y="-209.5" font-family="Helvetica,sans-Serif" font-size="10.00">commandParsing.structural</text>
<text text-anchor="start" x="236" y="-198.5" font-family="Helvetica,sans-Serif" font-size="10.00">CommandParsing.MultipleTurtleCommand.save</text>
<text text-anchor="middle" x="349" y="-187.5" font-family="Helvetica,sans-Serif" font-size="10.00">CurrentActiveTurtles</text>
</a>
</g>
</g>
<!-- Node1&#45;&gt;Node22 -->
<g id="edge21" class="edge"><title>Node1&#45;&gt;Node22</title>
<path fill="none" stroke="midnightblue" d="M94.3457,-642.568C93.8832,-567.655 103.263,-345.885 224,-231 227.691,-227.488 231.719,-224.366 235.994,-221.59"/>
<polygon fill="midnightblue" stroke="midnightblue" points="90.8504,-642.957 94.481,-652.91 97.8498,-642.865 90.8504,-642.957"/>
</g>
<!-- Node25 -->
<g id="node25" class="node"><title>Node25</title>
<g id="a_node25"><a xlink:href="../../d4/d7d/classtests_1_1command_tests_1_1multiple_turtle_command_tests_1_1_ask_tests.html#a5a4f933f1ab15a1df2f6025de737eaec" target="_top" xlink:title="tests.commandTests.multiple\lTurtleCommandTests.AskTests.Simple\lAskTests">
<polygon fill="white" stroke="black" points="250.5,-120.5 250.5,-161.5 447.5,-161.5 447.5,-120.5 250.5,-120.5"/>
<text text-anchor="start" x="258.5" y="-149.5" font-family="Helvetica,sans-Serif" font-size="10.00">tests.commandTests.multiple</text>
<text text-anchor="start" x="258.5" y="-138.5" font-family="Helvetica,sans-Serif" font-size="10.00">TurtleCommandTests.AskTests.Simple</text>
<text text-anchor="middle" x="349" y="-127.5" font-family="Helvetica,sans-Serif" font-size="10.00">AskTests</text>
</a>
</g>
</g>
<!-- Node1&#45;&gt;Node25 -->
<g id="edge24" class="edge"><title>Node1&#45;&gt;Node25</title>
<path fill="none" stroke="midnightblue" d="M98.1215,-642.768C109.933,-551.324 154.76,-239.102 224,-171 231.58,-163.545 240.676,-157.831 250.455,-153.467"/>
<polygon fill="midnightblue" stroke="midnightblue" points="94.6361,-642.432 96.8454,-652.793 101.58,-643.315 94.6361,-642.432"/>
</g>
<!-- Node26 -->
<g id="node26" class="node"><title>Node26</title>
<g id="a_node26"><a xlink:href="../../d8/da3/classtests_1_1command_tests_1_1multiple_turtle_command_tests_1_1_ask_with_tests.html#a3c211ef3037b2fb12fe3e369cfae74d8" target="_top" xlink:title="tests.commandTests.multiple\lTurtleCommandTests.AskWithTests.\lSimpleAskWithTests">
<polygon fill="white" stroke="black" points="257,-60.5 257,-101.5 441,-101.5 441,-60.5 257,-60.5"/>
<text text-anchor="start" x="265" y="-89.5" font-family="Helvetica,sans-Serif" font-size="10.00">tests.commandTests.multiple</text>
<text text-anchor="start" x="265" y="-78.5" font-family="Helvetica,sans-Serif" font-size="10.00">TurtleCommandTests.AskWithTests.</text>
<text text-anchor="middle" x="349" y="-67.5" font-family="Helvetica,sans-Serif" font-size="10.00">SimpleAskWithTests</text>
</a>
</g>
</g>
<!-- Node1&#45;&gt;Node26 -->
<g id="edge25" class="edge"><title>Node1&#45;&gt;Node26</title>
<path fill="none" stroke="midnightblue" d="M97.375,-642.684C107.115,-544.245 147.165,-188.591 224,-111 233.117,-101.793 244.543,-95.2277 256.745,-90.5769"/>
<polygon fill="midnightblue" stroke="midnightblue" points="93.867,-642.596 96.3835,-652.888 100.834,-643.273 93.867,-642.596"/>
</g>
<!-- Node27 -->
<g id="node27" class="node"><title>Node27</title>
<g id="a_node27"><a xlink:href="../../d3/d7b/classtests_1_1command_tests_1_1multiple_turtle_command_tests_1_1_tell_tests.html#a34e1bf417818e254247d153d3bb0ffbf" target="_top" xlink:title="tests.commandTests.multiple\lTurtleCommandTests.TellTests.Simple\lTellTests">
<polygon fill="white" stroke="black" points="252,-0.5 252,-41.5 446,-41.5 446,-0.5 252,-0.5"/>
<text text-anchor="start" x="260" y="-29.5" font-family="Helvetica,sans-Serif" font-size="10.00">tests.commandTests.multiple</text>
<text text-anchor="start" x="260" y="-18.5" font-family="Helvetica,sans-Serif" font-size="10.00">TurtleCommandTests.TellTests.Simple</text>
<text text-anchor="middle" x="349" y="-7.5" font-family="Helvetica,sans-Serif" font-size="10.00">TellTests</text>
</a>
</g>
</g>
<!-- Node1&#45;&gt;Node27 -->
<g id="edge26" class="edge"><title>Node1&#45;&gt;Node27</title>
<path fill="none" stroke="midnightblue" d="M96.7573,-642.735C104.561,-537.853 139.492,-138.192 224,-51 231.862,-42.8887 241.512,-36.8186 251.927,-32.2983"/>
<polygon fill="midnightblue" stroke="midnightblue" points="93.2457,-642.769 96.0112,-652.996 100.227,-643.276 93.2457,-642.769"/>
</g>
<!-- Node23 -->
<g id="node23" class="node"><title>Node23</title>
<g id="a_node23"><a xlink:href="../../d7/d50/classcommand_parsing_1_1structural_command_parsing_1_1_ask.html#aa19ad64684414b0ef6112ac7e75e992d" target="_top" xlink:title="commandParsing.structural\lCommandParsing.Ask.parse">
<polygon fill="white" stroke="black" points="520,-210 520,-240 672,-240 672,-210 520,-210"/>
<text text-anchor="start" x="528" y="-228" font-family="Helvetica,sans-Serif" font-size="10.00">commandParsing.structural</text>
<text text-anchor="middle" x="596" y="-217" font-family="Helvetica,sans-Serif" font-size="10.00">CommandParsing.Ask.parse</text>
</a>
</g>
</g>
<!-- Node22&#45;&gt;Node23 -->
<g id="edge22" class="edge"><title>Node22&#45;&gt;Node23</title>
<path fill="none" stroke="midnightblue" d="M480.593,-213.793C493.973,-215.103 507.224,-216.402 519.703,-217.624"/>
<polygon fill="midnightblue" stroke="midnightblue" points="480.64,-210.281 470.347,-212.789 479.958,-217.247 480.64,-210.281"/>
</g>
<!-- Node24 -->
<g id="node24" class="node"><title>Node24</title>
<g id="a_node24"><a xlink:href="../../d7/d78/classcommand_parsing_1_1structural_command_parsing_1_1_ask_with.html#a934aa5eda34ccd0b9703e578753031fb" target="_top" xlink:title="commandParsing.structural\lCommandParsing.AskWith.parse">
<polygon fill="white" stroke="black" points="510,-161 510,-191 682,-191 682,-161 510,-161"/>
<text text-anchor="start" x="518" y="-179" font-family="Helvetica,sans-Serif" font-size="10.00">commandParsing.structural</text>
<text text-anchor="middle" x="596" y="-168" font-family="Helvetica,sans-Serif" font-size="10.00">CommandParsing.AskWith.parse</text>
</a>
</g>
</g>
<!-- Node22&#45;&gt;Node24 -->
<g id="edge23" class="edge"><title>Node22&#45;&gt;Node24</title>
<path fill="none" stroke="midnightblue" d="M480.327,-187.701C490.294,-186.684 500.191,-185.674 509.754,-184.699"/>
<polygon fill="midnightblue" stroke="midnightblue" points="479.94,-184.223 470.347,-188.72 480.65,-191.186 479.94,-184.223"/>
</g>
</g>
</svg>
        <g id="navigator" transform="translate(0 0)" fill="#404254">
                <rect fill="#f2f5e9" fill-opacity="0.5" stroke="#606060" stroke-width=".5" x="0" y="0" width="60" height="60"/>
                <use id="zoomplus" xlink:href="#zoomPlus" x="17" y="9" onmousedown="handleZoom(evt,'in')"/>
                <use id="zoomminus" xlink:href="#zoomMin" x="42" y="9" onmousedown="handleZoom(evt,'out')"/>
                <use id="reset" xlink:href="#resetDef" x="30" y="36" onmousedown="handleReset()"/>
                <g id="arrowUp" xlink:href="#dirArrow" transform="translate(30 24)" onmousedown="handlePan(0,-1)">
                  <use xlink:href="#rim" fill="#404040">
                        <set attributeName="fill" to="#808080" begin="arrowUp.mouseover" end="arrowUp.mouseout"/>
                  </use>
                  <path fill="none" stroke="white" stroke-width="1.5" d="M0,-3.0v7 M-2.5,-0.5L0,-3.0L2.5,-0.5"/>
                </g>
                <g id="arrowRight" xlink:href="#dirArrow" transform="rotate(90) translate(36 -43)" onmousedown="handlePan(1,0)">
                  <use xlink:href="#rim" fill="#404040">
                        <set attributeName="fill" to="#808080" begin="arrowRight.mouseover" end="arrowRight.mouseout"/>
                  </use>
                  <path fill="none" stroke="white" stroke-width="1.5" d="M0,-3.0v7 M-2.5,-0.5L0,-3.0L2.5,-0.5"/>
                </g>
                <g id="arrowDown" xlink:href="#dirArrow" transform="rotate(180) translate(-30 -48)" onmousedown="handlePan(0,1)">
                  <use xlink:href="#rim" fill="#404040">
                        <set attributeName="fill" to="#808080" begin="arrowDown.mouseover" end="arrowDown.mouseout"/>
                  </use>
                  <path fill="none" stroke="white" stroke-width="1.5" d="M0,-3.0v7 M-2.5,-0.5L0,-3.0L2.5,-0.5"/>
                </g>
                <g id="arrowLeft" xlink:href="#dirArrow" transform="rotate(270) translate(-36 17)" onmousedown="handlePan(-1,0)">
                  <use xlink:href="#rim" fill="#404040">
                        <set attributeName="fill" to="#808080" begin="arrowLeft.mouseover" end="arrowLeft.mouseout"/>
                  </use>
                  <path fill="none" stroke="white" stroke-width="1.5" d="M0,-3.0v7 M-2.5,-0.5L0,-3.0L2.5,-0.5"/>
                </g>
        </g>
        <svg viewBox="0 0 15 15" width="100%" height="30px" preserveAspectRatio="xMaxYMin meet">
         <g id="arrow_out" transform="scale(0.3 0.3)">
          <a xlink:href="classworkspace_state_1_1_turtle_collection_a6c49b4d7d24c0ed82ea491185b023cf0_icgraph_org.svg" target="_base">
           <rect id="button" ry="5" rx="5" y="6" x="6" height="38" width="38"
                fill="#f2f5e9" fill-opacity="0.5" stroke="#606060" stroke-width="1.0"/>
           <path id="arrow"
             d="M 11.500037,31.436501 C 11.940474,20.09759 22.043105,11.32322 32.158766,21.979434 L 37.068811,17.246167 C 37.068811,17.246167 37.088388,32 37.088388,32 L 22.160133,31.978069 C 22.160133,31.978069 26.997745,27.140456 26.997745,27.140456 C 18.528582,18.264221 13.291696,25.230495 11.500037,31.436501 z"
             style="fill:#404040;"/>
          </a>
         </g>
        </svg>
</svg>
