<?xml version="1.0" encoding="UTF-8" standalone="no"?>
<!DOCTYPE svg PUBLIC "-//W3C//DTD SVG 1.1//EN"
 "http://www.w3.org/Graphics/SVG/1.1/DTD/svg11.dtd">
<!-- Generated by graphviz version 2.36.0 (20140111.2315)
 -->
<!-- Title: workspaceState.TurtleCollection.getLastAddedTurtle Pages: 1 -->
<svg width="688pt" height="141pt"
 viewBox="0.00 0.00 688.00 141.00" xmlns="http://www.w3.org/2000/svg" xmlns:xlink="http://www.w3.org/1999/xlink">
<g id="graph0" class="graph" transform="scale(1 1) rotate(0) translate(4 137)">
<title>workspaceState.TurtleCollection.getLastAddedTurtle</title>
<polygon fill="white" stroke="none" points="-4,4 -4,-137 684,-137 684,4 -4,4"/>
<!-- Node1 -->
<g id="node1" class="node"><title>Node1</title>
<polygon fill="#bfbfbf" stroke="black" points="0.5,-27 0.5,-57 187.5,-57 187.5,-27 0.5,-27"/>
<text text-anchor="start" x="8.5" y="-45" font-family="Helvetica,sans-Serif" font-size="10.00">workspaceState.TurtleCollection.get</text>
<text text-anchor="middle" x="94" y="-34" font-family="Helvetica,sans-Serif" font-size="10.00">LastAddedTurtle</text>
</g>
<!-- Node2 -->
<g id="node2" class="node"><title>Node2</title>
<g id="a_node2"><a xlink:href="../../da/df9/classcommand_parsing_1_1structural_command_parsing_1_1_multiple_turtle_command.html#ac35b7854cdc1ab7dcdbc9809a6db903c" target="_top" xlink:title="commandParsing.structural\lCommandParsing.MultipleTurtleCommand.make\lAndActivateGivenTurtles">
<polygon fill="white" stroke="black" points="224.5,-48.5 224.5,-89.5 471.5,-89.5 471.5,-48.5 224.5,-48.5"/>
<text text-anchor="start" x="232.5" y="-77.5" font-family="Helvetica,sans-Serif" font-size="10.00">commandParsing.structural</text>
<text text-anchor="start" x="232.5" y="-66.5" font-family="Helvetica,sans-Serif" font-size="10.00">CommandParsing.MultipleTurtleCommand.make</text>
<text text-anchor="middle" x="348" y="-55.5" font-family="Helvetica,sans-Serif" font-size="10.00">AndActivateGivenTurtles</text>
</a>
</g>
</g>
<!-- Node1&#45;&gt;Node2 -->
<g id="edge1" class="edge"><title>Node1&#45;&gt;Node2</title>
<path fill="none" stroke="midnightblue" d="M197.918,-53.0269C206.638,-53.9612 215.511,-54.9119 224.362,-55.8602"/>
<polygon fill="midnightblue" stroke="midnightblue" points="198.078,-49.5241 187.762,-51.9388 197.332,-56.4843 198.078,-49.5241"/>
</g>
<!-- Node6 -->
<g id="node6" class="node"><title>Node6</title>
<g id="a_node6"><a xlink:href="../../d0/dc1/classcommand_parsing_1_1turtle_command_parsing_1_1_make_turtle.html#a6ed9fedb55ea99caa7a891b0c9bbd20a" target="_top" xlink:title="commandParsing.turtleCommand\lParsing.MakeTurtle.parse">
<polygon fill="white" stroke="black" points="258.5,-0 258.5,-30 437.5,-30 437.5,-0 258.5,-0"/>
<text text-anchor="start" x="266.5" y="-18" font-family="Helvetica,sans-Serif" font-size="10.00">commandParsing.turtleCommand</text>
<text text-anchor="middle" x="348" y="-7" font-family="Helvetica,sans-Serif" font-size="10.00">Parsing.MakeTurtle.parse</text>
</a>
</g>
</g>
<!-- Node1&#45;&gt;Node6 -->
<g id="edge5" class="edge"><title>Node1&#45;&gt;Node6</title>
<path fill="none" stroke="midnightblue" d="M197.831,-30.9824C217.854,-28.8371 238.685,-26.6052 258.207,-24.5136"/>
<polygon fill="midnightblue" stroke="midnightblue" points="197.332,-27.5157 187.762,-32.0612 198.078,-34.4759 197.332,-27.5157"/>
</g>
<!-- Node3 -->
<g id="node3" class="node"><title>Node3</title>
<g id="a_node3"><a xlink:href="../../d7/d50/classcommand_parsing_1_1structural_command_parsing_1_1_ask.html#aa19ad64684414b0ef6112ac7e75e992d" target="_top" xlink:title="commandParsing.structural\lCommandParsing.Ask.parse">
<polygon fill="white" stroke="black" points="518,-103 518,-133 670,-133 670,-103 518,-103"/>
<text text-anchor="start" x="526" y="-121" font-family="Helvetica,sans-Serif" font-size="10.00">commandParsing.structural</text>
<text text-anchor="middle" x="594" y="-110" font-family="Helvetica,sans-Serif" font-size="10.00">CommandParsing.Ask.parse</text>
</a>
</g>
</g>
<!-- Node2&#45;&gt;Node3 -->
<g id="edge2" class="edge"><title>Node2&#45;&gt;Node3</title>
<path fill="none" stroke="midnightblue" d="M461.456,-91.5834C480.728,-95.4537 500.32,-99.3881 518.292,-102.997"/>
<polygon fill="midnightblue" stroke="midnightblue" points="461.911,-88.1049 451.417,-89.5674 460.533,-94.9679 461.911,-88.1049"/>
</g>
<!-- Node4 -->
<g id="node4" class="node"><title>Node4</title>
<g id="a_node4"><a xlink:href="../../db/da0/classcommand_parsing_1_1structural_command_parsing_1_1_tell.html#aaab258a057ef8d0fd8ff6980e59dc719" target="_top" xlink:title="commandParsing.structural\lCommandParsing.Tell.parse">
<polygon fill="white" stroke="black" points="519.5,-54 519.5,-84 668.5,-84 668.5,-54 519.5,-54"/>
<text text-anchor="start" x="527.5" y="-72" font-family="Helvetica,sans-Serif" font-size="10.00">commandParsing.structural</text>
<text text-anchor="middle" x="594" y="-61" font-family="Helvetica,sans-Serif" font-size="10.00">CommandParsing.Tell.parse</text>
</a>
</g>
</g>
<!-- Node2&#45;&gt;Node4 -->
<g id="edge3" class="edge"><title>Node2&#45;&gt;Node4</title>
<path fill="none" stroke="midnightblue" d="M481.99,-69C494.773,-69 507.393,-69 519.284,-69"/>
<polygon fill="midnightblue" stroke="midnightblue" points="481.715,-65.5001 471.715,-69 481.715,-72.5001 481.715,-65.5001"/>
</g>
<!-- Node5 -->
<g id="node5" class="node"><title>Node5</title>
<g id="a_node5"><a xlink:href="../../d7/d78/classcommand_parsing_1_1structural_command_parsing_1_1_ask_with.html#a934aa5eda34ccd0b9703e578753031fb" target="_top" xlink:title="commandParsing.structural\lCommandParsing.AskWith.parse">
<polygon fill="white" stroke="black" points="508,-5 508,-35 680,-35 680,-5 508,-5"/>
<text text-anchor="start" x="516" y="-23" font-family="Helvetica,sans-Serif" font-size="10.00">commandParsing.structural</text>
<text text-anchor="middle" x="594" y="-12" font-family="Helvetica,sans-Serif" font-size="10.00">CommandParsing.AskWith.parse</text>
</a>
</g>
</g>
<!-- Node2&#45;&gt;Node5 -->
<g id="edge4" class="edge"><title>Node2&#45;&gt;Node5</title>
<path fill="none" stroke="midnightblue" d="M461.456,-46.4166C480.728,-42.5463 500.32,-38.6119 518.292,-35.0028"/>
<polygon fill="midnightblue" stroke="midnightblue" points="460.533,-43.0321 451.417,-48.4326 461.911,-49.8951 460.533,-43.0321"/>
</g>
</g>
</svg>
