<?xml version="1.0" encoding="UTF-8" standalone="no"?>
<!DOCTYPE svg PUBLIC "-//W3C//DTD SVG 1.1//EN"
 "http://www.w3.org/Graphics/SVG/1.1/DTD/svg11.dtd">
<!-- Generated by graphviz version 2.36.0 (20140111.2315)
 -->
<!-- Title: commandParsing.colorCommandparsing.SetPalette Pages: 1 -->
<svg width="662pt" height="98pt"
 viewBox="0.00 0.00 662.00 98.00" xmlns="http://www.w3.org/2000/svg" xmlns:xlink="http://www.w3.org/1999/xlink">
<g id="graph0" class="graph" transform="scale(1 1) rotate(0) translate(4 94)">
<title>commandParsing.colorCommandparsing.SetPalette</title>
<polygon fill="white" stroke="none" points="-4,4 -4,-94 658,-94 658,4 -4,4"/>
<!-- Node1 -->
<g id="node1" class="node"><title>Node1</title>
<polygon fill="#bfbfbf" stroke="black" points="438.5,-33 438.5,-63 653.5,-63 653.5,-33 438.5,-33"/>
<text text-anchor="start" x="446.5" y="-51" font-family="Helvetica,sans-Serif" font-size="10.00">commandParsing.colorCommandparsing.</text>
<text text-anchor="middle" x="546" y="-40" font-family="Helvetica,sans-Serif" font-size="10.00">SetPalette</text>
</g>
<!-- Node2 -->
<g id="node2" class="node"><title>Node2</title>
<g id="a_node2"><a xlink:href="../../d9/d8d/classcommand_parsing_1_1float_command_parsing_1_1_float_input_command_parser.html" target="_top" xlink:title="commandParsing.floatCommand\lParsing.FloatInputCommandParser">
<polygon fill="white" stroke="black" points="220,-60 220,-90 402,-90 402,-60 220,-60"/>
<text text-anchor="start" x="228" y="-78" font-family="Helvetica,sans-Serif" font-size="10.00">commandParsing.floatCommand</text>
<text text-anchor="middle" x="311" y="-67" font-family="Helvetica,sans-Serif" font-size="10.00">Parsing.FloatInputCommandParser</text>
</a>
</g>
</g>
<!-- Node2&#45;&gt;Node1 -->
<g id="edge1" class="edge"><title>Node2&#45;&gt;Node1</title>
<path fill="none" stroke="midnightblue" d="M412.213,-63.3873C420.9,-62.3807 429.71,-61.3598 438.445,-60.3476"/>
<polygon fill="midnightblue" stroke="midnightblue" points="411.614,-59.9332 402.084,-64.5611 412.42,-66.8866 411.614,-59.9332"/>
</g>
<!-- Node3 -->
<g id="node3" class="node"><title>Node3</title>
<g id="a_node3"><a xlink:href="../../d7/d17/classcommand_parsing_1_1_command_parser.html" target="_top" xlink:title="commandParsing.CommandParser">
<polygon fill="white" stroke="black" points="0.5,-65.5 0.5,-84.5 183.5,-84.5 183.5,-65.5 0.5,-65.5"/>
<text text-anchor="middle" x="92" y="-72.5" font-family="Helvetica,sans-Serif" font-size="10.00">commandParsing.CommandParser</text>
</a>
</g>
</g>
<!-- Node3&#45;&gt;Node2 -->
<g id="edge2" class="edge"><title>Node3&#45;&gt;Node2</title>
<path fill="none" stroke="midnightblue" d="M193.92,-75C202.603,-75 211.352,-75 219.941,-75"/>
<polygon fill="midnightblue" stroke="midnightblue" points="193.77,-71.5001 183.77,-75 193.77,-78.5001 193.77,-71.5001"/>
</g>
<!-- Node4 -->
<g id="node4" class="node"><title>Node4</title>
<g id="a_node4"><a xlink:href="../../dd/d4b/interfacecommand_parsing_1_1drawable_obect_generation_interfaces_1_1_color_palette_update_generator.html" target="_top" xlink:title="commandParsing.drawableObect\lGenerationInterfaces.ColorPalette\lUpdateGenerator">
<polygon fill="white" stroke="black" points="222,-0.5 222,-41.5 400,-41.5 400,-0.5 222,-0.5"/>
<text text-anchor="start" x="230" y="-29.5" font-family="Helvetica,sans-Serif" font-size="10.00">commandParsing.drawableObect</text>
<text text-anchor="start" x="230" y="-18.5" font-family="Helvetica,sans-Serif" font-size="10.00">GenerationInterfaces.ColorPalette</text>
<text text-anchor="middle" x="311" y="-7.5" font-family="Helvetica,sans-Serif" font-size="10.00">UpdateGenerator</text>
</a>
</g>
</g>
<!-- Node4&#45;&gt;Node1 -->
<g id="edge3" class="edge"><title>Node4&#45;&gt;Node1</title>
<path fill="none" stroke="midnightblue" d="M410.135,-32.3719C419.464,-33.4529 428.954,-34.5526 438.358,-35.6424"/>
<polygon fill="midnightblue" stroke="midnightblue" points="410.424,-28.882 400.087,-31.2075 409.618,-35.8355 410.424,-28.882"/>
</g>
</g>
</svg>
