<?xml version="1.0" encoding="UTF-8" standalone="no"?>
<!DOCTYPE svg PUBLIC "-//W3C//DTD SVG 1.1//EN"
 "http://www.w3.org/Graphics/SVG/1.1/DTD/svg11.dtd">
<!-- Generated by graphviz version 2.36.0 (20140111.2315)
 -->
<!-- Title: commandParsing.structuralCommandParsing.AskWith.parse Pages: 1 -->
<!--zoomable 682 -->
<svg id="main" version="1.1" xmlns="http://www.w3.org/2000/svg" xmlns:xlink="http://www.w3.org/1999/xlink" xml:space="preserve" onload="init(evt)">
<style type="text/css"><![CDATA[
.edge:hover path { stroke: red; }
.edge:hover polygon { stroke: red; fill: red; }
]]></style>
<script type="text/javascript"><![CDATA[
var edges = document.getElementsByTagName('g');
if (edges && edges.length) {
  for (var i=0;i<edges.length;i++) {
    if (edges[i].id.substr(0,4)=='edge') {
      edges[i].setAttribute('class','edge');
    }
  }
}
]]></script>
        <defs>
                <circle id="rim" cx="0" cy="0" r="7"/>
                <circle id="rim2" cx="0" cy="0" r="3.5"/>
                <g id="zoomPlus">
                        <use xlink:href="#rim" fill="#404040">
                                <set attributeName="fill" to="#808080" begin="zoomplus.mouseover" end="zoomplus.mouseout"/>
                        </use>
                        <path d="M-4,0h8M0,-4v8" fill="none" stroke="white" stroke-width="1.5" pointer-events="none"/>
                </g>
                <g id="zoomMin">
                        <use xlink:href="#rim" fill="#404040">
                                <set attributeName="fill" to="#808080" begin="zoomminus.mouseover" end="zoomminus.mouseout"/>
                        </use>
                        <path d="M-4,0h8" fill="none" stroke="white" stroke-width="1.5" pointer-events="none"/>
                </g>
                <g id="dirArrow">
                        <path fill="none" stroke="white" stroke-width="1.5" d="M0,-3.0v7 M-2.5,-0.5L0,-3.0L2.5,-0.5"/>
                </g>
               <g id="resetDef">
                       <use xlink:href="#rim2" fill="#404040">
                               <set attributeName="fill" to="#808080" begin="reset.mouseover" end="reset.mouseout"/>
                       </use>
               </g>
        </defs>

<script type="text/javascript">
var viewWidth = 1192;
var viewHeight = 682;
var sectionId = 'dynsection-4';
</script>
<script xlink:href="../../svgpan.js"/>
<svg id="graph" class="graph">
<g id="viewport">
<title>commandParsing.structuralCommandParsing.AskWith.parse</title>
<polygon fill="white" stroke="none" points="-4,4 -4,-678 1188,-678 1188,4 -4,4"/>
<!-- Node1 -->
<g id="node1" class="node"><title>Node1</title>
<polygon fill="#bfbfbf" stroke="black" points="0,-210 0,-240 172,-240 172,-210 0,-210"/>
<text text-anchor="start" x="8" y="-228" font-family="Helvetica,sans-Serif" font-size="10.00">commandParsing.structural</text>
<text text-anchor="middle" x="86" y="-217" font-family="Helvetica,sans-Serif" font-size="10.00">CommandParsing.AskWith.parse</text>
</g>
<!-- Node2 -->
<g id="node2" class="node"><title>Node2</title>
<g id="a_node2"><a xlink:href="../../db/d1f/classworkspace_state_1_1_turtle_collection.html#af5ea0db23f1a5f2bf51f4743faf45943" target="_top" xlink:title="workspaceState.TurtleCollection.clear\lActiveTurtles">
<polygon fill="white" stroke="black" points="521,-284 521,-314 715,-314 715,-284 521,-284"/>
<text text-anchor="start" x="529" y="-302" font-family="Helvetica,sans-Serif" font-size="10.00">workspaceState.TurtleCollection.clear</text>
<text text-anchor="middle" x="618" y="-291" font-family="Helvetica,sans-Serif" font-size="10.00">ActiveTurtles</text>
</a>
</g>
</g>
<!-- Node1&#45;&gt;Node2 -->
<g id="edge1" class="edge"><title>Node1&#45;&gt;Node2</title>
<path fill="none" stroke="midnightblue" d="M110.425,-240.108C134.005,-254.405 171.951,-274.98 208,-284 308.515,-309.149 427.226,-310.514 510.79,-307.031"/>
<polygon fill="midnightblue" stroke="midnightblue" points="510.969,-310.527 520.802,-306.584 510.656,-303.534 510.969,-310.527"/>
</g>
<!-- Node3 -->
<g id="node3" class="node"><title>Node3</title>
<g id="a_node3"><a xlink:href="../../d7/d78/classcommand_parsing_1_1structural_command_parsing_1_1_ask_with.html#ab3835c2a34a1c16bc05317d1484c44a7" target="_top" xlink:title="commandParsing.structural\lCommandParsing.AskWith.determine\lIfTurtleIsValidRecipient">
<polygon fill="white" stroke="black" points="238,-234.5 238,-275.5 432,-275.5 432,-234.5 238,-234.5"/>
<text text-anchor="start" x="246" y="-263.5" font-family="Helvetica,sans-Serif" font-size="10.00">commandParsing.structural</text>
<text text-anchor="start" x="246" y="-252.5" font-family="Helvetica,sans-Serif" font-size="10.00">CommandParsing.AskWith.determine</text>
<text text-anchor="middle" x="335" y="-241.5" font-family="Helvetica,sans-Serif" font-size="10.00">IfTurtleIsValidRecipient</text>
</a>
</g>
</g>
<!-- Node1&#45;&gt;Node3 -->
<g id="edge2" class="edge"><title>Node1&#45;&gt;Node3</title>
<path fill="none" stroke="midnightblue" d="M172.003,-235.324C189.983,-237.508 209.173,-239.839 227.824,-242.104"/>
<polygon fill="midnightblue" stroke="midnightblue" points="227.469,-245.587 237.818,-243.318 228.313,-238.638 227.469,-245.587"/>
</g>
<!-- Node7 -->
<g id="node7" class="node"><title>Node7</title>
<g id="a_node7"><a xlink:href="../../de/dcc/classcommand_parsing_1_1structural_command_parsing_1_1_structural_command.html#aaba2d63efc66bac087cb3b36e2a65a41" target="_top" xlink:title="commandParsing.structural\lCommandParsing.StructuralCommand.extract\lCommandsBetweenBraces">
<polygon fill="white" stroke="black" points="215.5,-114.5 215.5,-155.5 454.5,-155.5 454.5,-114.5 215.5,-114.5"/>
<text text-anchor="start" x="223.5" y="-143.5" font-family="Helvetica,sans-Serif" font-size="10.00">commandParsing.structural</text>
<text text-anchor="start" x="223.5" y="-132.5" font-family="Helvetica,sans-Serif" font-size="10.00">CommandParsing.StructuralCommand.extract</text>
<text text-anchor="middle" x="335" y="-121.5" font-family="Helvetica,sans-Serif" font-size="10.00">CommandsBetweenBraces</text>
</a>
</g>
</g>
<!-- Node1&#45;&gt;Node7 -->
<g id="edge7" class="edge"><title>Node1&#45;&gt;Node7</title>
<path fill="none" stroke="midnightblue" d="M113.148,-209.864C137.153,-196.499 174.043,-177.281 208,-165 214.393,-162.688 221.034,-160.503 227.774,-158.448"/>
<polygon fill="midnightblue" stroke="midnightblue" points="229.096,-161.708 237.704,-155.531 227.123,-154.992 229.096,-161.708"/>
</g>
<!-- Node11 -->
<g id="node11" class="node"><title>Node11</title>
<g id="a_node11"><a xlink:href="../../db/d1f/classworkspace_state_1_1_turtle_collection.html#a1980242e0eb442eb460a171a1f40e1da" target="_top" xlink:title="workspaceState.TurtleCollection.get\lAllTurtles">
<polygon fill="white" stroke="black" points="241.5,-66 241.5,-96 428.5,-96 428.5,-66 241.5,-66"/>
<text text-anchor="start" x="249.5" y="-84" font-family="Helvetica,sans-Serif" font-size="10.00">workspaceState.TurtleCollection.get</text>
<text text-anchor="middle" x="335" y="-73" font-family="Helvetica,sans-Serif" font-size="10.00">AllTurtles</text>
</a>
</g>
</g>
<!-- Node1&#45;&gt;Node11 -->
<g id="edge12" class="edge"><title>Node1&#45;&gt;Node11</title>
<path fill="none" stroke="midnightblue" d="M97.3593,-209.998C116.151,-184.046 158.525,-131.056 208,-105 215.435,-101.085 223.415,-97.8019 231.619,-95.0506"/>
<polygon fill="midnightblue" stroke="midnightblue" points="232.807,-98.3472 241.333,-92.0588 230.746,-91.6573 232.807,-98.3472"/>
</g>
<!-- Node12 -->
<g id="node12" class="node"><title>Node12</title>
<g id="a_node12"><a xlink:href="../../da/df9/classcommand_parsing_1_1structural_command_parsing_1_1_multiple_turtle_command.html#ac35b7854cdc1ab7dcdbc9809a6db903c" target="_top" xlink:title="commandParsing.structural\lCommandParsing.MultipleTurtleCommand.make\lAndActivateGivenTurtles">
<polygon fill="white" stroke="black" points="211.5,-408.5 211.5,-449.5 458.5,-449.5 458.5,-408.5 211.5,-408.5"/>
<text text-anchor="start" x="219.5" y="-437.5" font-family="Helvetica,sans-Serif" font-size="10.00">commandParsing.structural</text>
<text text-anchor="start" x="219.5" y="-426.5" font-family="Helvetica,sans-Serif" font-size="10.00">CommandParsing.MultipleTurtleCommand.make</text>
<text text-anchor="middle" x="335" y="-415.5" font-family="Helvetica,sans-Serif" font-size="10.00">AndActivateGivenTurtles</text>
</a>
</g>
</g>
<!-- Node1&#45;&gt;Node12 -->
<g id="edge13" class="edge"><title>Node1&#45;&gt;Node12</title>
<path fill="none" stroke="midnightblue" d="M94.88,-240.231C111.63,-271.2 153.723,-341.958 208,-382 220.252,-391.039 234.439,-398.523 248.78,-404.657"/>
<polygon fill="midnightblue" stroke="midnightblue" points="247.625,-407.966 258.207,-408.496 250.265,-401.483 247.625,-407.966"/>
</g>
<!-- Node26 -->
<g id="node26" class="node"><title>Node26</title>
<g id="a_node26"><a xlink:href="../../de/dcc/classcommand_parsing_1_1structural_command_parsing_1_1_structural_command.html#a4758d97862a38c414f90ca079a0d8d04" target="_top" xlink:title="commandParsing.structural\lCommandParsing.StructuralCommand.parse\lCommandsBetweenBraces">
<polygon fill="white" stroke="black" points="219,-174.5 219,-215.5 451,-215.5 451,-174.5 219,-174.5"/>
<text text-anchor="start" x="227" y="-203.5" font-family="Helvetica,sans-Serif" font-size="10.00">commandParsing.structural</text>
<text text-anchor="start" x="227" y="-192.5" font-family="Helvetica,sans-Serif" font-size="10.00">CommandParsing.StructuralCommand.parse</text>
<text text-anchor="middle" x="335" y="-181.5" font-family="Helvetica,sans-Serif" font-size="10.00">CommandsBetweenBraces</text>
</a>
</g>
</g>
<!-- Node1&#45;&gt;Node26 -->
<g id="edge28" class="edge"><title>Node1&#45;&gt;Node26</title>
<path fill="none" stroke="midnightblue" d="M172.003,-214.676C183.895,-213.231 196.317,-211.723 208.761,-210.211"/>
<polygon fill="midnightblue" stroke="midnightblue" points="209.232,-213.68 218.737,-209 208.388,-206.731 209.232,-213.68"/>
</g>
<!-- Node27 -->
<g id="node27" class="node"><title>Node27</title>
<g id="a_node27"><a xlink:href="../../da/df9/classcommand_parsing_1_1structural_command_parsing_1_1_multiple_turtle_command.html#a3159da63370fb83e727078b8f8722a59" target="_top" xlink:title="commandParsing.structural\lCommandParsing.MultipleTurtleCommand.restore\lActiveTurtles">
<polygon fill="white" stroke="black" points="208,-332.5 208,-373.5 462,-373.5 462,-332.5 208,-332.5"/>
<text text-anchor="start" x="216" y="-361.5" font-family="Helvetica,sans-Serif" font-size="10.00">commandParsing.structural</text>
<text text-anchor="start" x="216" y="-350.5" font-family="Helvetica,sans-Serif" font-size="10.00">CommandParsing.MultipleTurtleCommand.restore</text>
<text text-anchor="middle" x="335" y="-339.5" font-family="Helvetica,sans-Serif" font-size="10.00">ActiveTurtles</text>
</a>
</g>
</g>
<!-- Node1&#45;&gt;Node27 -->
<g id="edge31" class="edge"><title>Node1&#45;&gt;Node27</title>
<path fill="none" stroke="midnightblue" d="M102.47,-240.118C124.262,-260.612 166.044,-297.05 208,-318 216.291,-322.14 225.142,-325.85 234.163,-329.161"/>
<polygon fill="midnightblue" stroke="midnightblue" points="233.014,-332.467 243.609,-332.469 235.328,-325.861 233.014,-332.467"/>
</g>
<!-- Node28 -->
<g id="node28" class="node"><title>Node28</title>
<g id="a_node28"><a xlink:href="../../da/df9/classcommand_parsing_1_1structural_command_parsing_1_1_multiple_turtle_command.html#a33a969978dd11cb87ebf8b9e40f4ef0d" target="_top" xlink:title="commandParsing.structural\lCommandParsing.MultipleTurtleCommand.save\lCurrentActiveTurtles">
<polygon fill="white" stroke="black" points="214,-0.5 214,-41.5 456,-41.5 456,-0.5 214,-0.5"/>
<text text-anchor="start" x="222" y="-29.5" font-family="Helvetica,sans-Serif" font-size="10.00">commandParsing.structural</text>
<text text-anchor="start" x="222" y="-18.5" font-family="Helvetica,sans-Serif" font-size="10.00">CommandParsing.MultipleTurtleCommand.save</text>
<text text-anchor="middle" x="335" y="-7.5" font-family="Helvetica,sans-Serif" font-size="10.00">CurrentActiveTurtles</text>
</a>
</g>
</g>
<!-- Node1&#45;&gt;Node28 -->
<g id="edge33" class="edge"><title>Node1&#45;&gt;Node28</title>
<path fill="none" stroke="midnightblue" d="M93.4586,-209.966C108.474,-176.843 149.001,-97.2518 208,-56 213.312,-52.2862 219.005,-48.9655 224.93,-45.9963"/>
<polygon fill="midnightblue" stroke="midnightblue" points="226.8,-48.9875 234.408,-41.6138 223.863,-42.6338 226.8,-48.9875"/>
</g>
<!-- Node3&#45;&gt;Node2 -->
<g id="edge4" class="edge"><title>Node3&#45;&gt;Node2</title>
<path fill="none" stroke="midnightblue" d="M432.311,-270.081C457.557,-274.034 484.923,-278.319 510.66,-282.349"/>
<polygon fill="midnightblue" stroke="midnightblue" points="510.394,-285.85 520.815,-283.939 511.477,-278.934 510.394,-285.85"/>
</g>
<!-- Node4 -->
<g id="node4" class="node"><title>Node4</title>
<g id="a_node4"><a xlink:href="../../db/d1f/classworkspace_state_1_1_turtle_collection.html#a79a25f886bf29b5b691520b4cd3fa682" target="_top" xlink:title="workspaceState.TurtleCollection.activate\lTurtle">
<polygon fill="white" stroke="black" points="513.5,-333 513.5,-363 722.5,-363 722.5,-333 513.5,-333"/>
<text text-anchor="start" x="521.5" y="-351" font-family="Helvetica,sans-Serif" font-size="10.00">workspaceState.TurtleCollection.activate</text>
<text text-anchor="middle" x="618" y="-340" font-family="Helvetica,sans-Serif" font-size="10.00">Turtle</text>
</a>
</g>
</g>
<!-- Node3&#45;&gt;Node4 -->
<g id="edge3" class="edge"><title>Node3&#45;&gt;Node4</title>
<path fill="none" stroke="midnightblue" d="M378.825,-275.618C411.01,-290.458 456.505,-310.062 498,-323 506.825,-325.752 516.113,-328.293 525.447,-330.617"/>
<polygon fill="midnightblue" stroke="midnightblue" points="524.632,-334.02 535.173,-332.958 526.27,-327.215 524.632,-334.02"/>
</g>
<!-- Node5 -->
<g id="node5" class="node"><title>Node5</title>
<g id="a_node5"><a xlink:href="../../d7/d17/classcommand_parsing_1_1_command_parser.html#a9bf6e09b0ad06b6f217ad0ad040f8e93" target="_top" xlink:title="commandParsing.CommandParser.create\lParser">
<polygon fill="white" stroke="black" points="510,-196 510,-226 726,-226 726,-196 510,-196"/>
<text text-anchor="start" x="518" y="-214" font-family="Helvetica,sans-Serif" font-size="10.00">commandParsing.CommandParser.create</text>
<text text-anchor="middle" x="618" y="-203" font-family="Helvetica,sans-Serif" font-size="10.00">Parser</text>
</a>
</g>
</g>
<!-- Node3&#45;&gt;Node5 -->
<g id="edge5" class="edge"><title>Node3&#45;&gt;Node5</title>
<path fill="none" stroke="midnightblue" d="M432.311,-239.919C457.557,-235.966 484.923,-231.681 510.66,-227.651"/>
<polygon fill="midnightblue" stroke="midnightblue" points="511.477,-231.066 520.815,-226.061 510.394,-224.15 511.477,-231.066"/>
</g>
<!-- Node6 -->
<g id="node6" class="node"><title>Node6</title>
<g id="a_node6"><a xlink:href="../../d7/d17/classcommand_parsing_1_1_command_parser.html#ae5a2f506ca01f7fa355a64e4831fbae3" target="_top" xlink:title="commandParsing.CommandParser.parse">
<polygon fill="white" stroke="black" points="512,-245.5 512,-264.5 724,-264.5 724,-245.5 512,-245.5"/>
<text text-anchor="middle" x="618" y="-252.5" font-family="Helvetica,sans-Serif" font-size="10.00">commandParsing.CommandParser.parse</text>
</a>
</g>
</g>
<!-- Node3&#45;&gt;Node6 -->
<g id="edge6" class="edge"><title>Node3&#45;&gt;Node6</title>
<path fill="none" stroke="midnightblue" d="M432.311,-255C454.593,-255 478.525,-255 501.532,-255"/>
<polygon fill="midnightblue" stroke="midnightblue" points="501.677,-258.5 511.677,-255 501.677,-251.5 501.677,-258.5"/>
</g>
<!-- Node8 -->
<g id="node8" class="node"><title>Node8</title>
<g id="a_node8"><a xlink:href="../../de/dcc/classcommand_parsing_1_1structural_command_parsing_1_1_structural_command.html#a3f1054710afe4826d31938f0a74af315" target="_top" xlink:title="commandParsing.structural\lCommandParsing.StructuralCommand.check\lForOpeningBrace">
<polygon fill="white" stroke="black" points="501.5,-97.5 501.5,-138.5 734.5,-138.5 734.5,-97.5 501.5,-97.5"/>
<text text-anchor="start" x="509.5" y="-126.5" font-family="Helvetica,sans-Serif" font-size="10.00">commandParsing.structural</text>
<text text-anchor="start" x="509.5" y="-115.5" font-family="Helvetica,sans-Serif" font-size="10.00">CommandParsing.StructuralCommand.check</text>
<text text-anchor="middle" x="618" y="-104.5" font-family="Helvetica,sans-Serif" font-size="10.00">ForOpeningBrace</text>
</a>
</g>
</g>
<!-- Node7&#45;&gt;Node8 -->
<g id="edge8" class="edge"><title>Node7&#45;&gt;Node8</title>
<path fill="none" stroke="midnightblue" d="M454.762,-127.815C466.815,-127.086 479.087,-126.343 491.211,-125.61"/>
<polygon fill="midnightblue" stroke="midnightblue" points="491.583,-129.094 501.353,-124.996 491.16,-122.107 491.583,-129.094"/>
</g>
<!-- Node9 -->
<g id="node9" class="node"><title>Node9</title>
<g id="a_node9"><a xlink:href="../../d3/de0/classtranslator_1_1_translator.html#a87328fef942490ca02d2ebabaec35c47" target="_top" xlink:title="translator.Translator.matches\lListStartPattern">
<polygon fill="white" stroke="black" points="804,-128 804,-158 960,-158 960,-128 804,-128"/>
<text text-anchor="start" x="812" y="-146" font-family="Helvetica,sans-Serif" font-size="10.00">translator.Translator.matches</text>
<text text-anchor="middle" x="882" y="-135" font-family="Helvetica,sans-Serif" font-size="10.00">ListStartPattern</text>
</a>
</g>
</g>
<!-- Node7&#45;&gt;Node9 -->
<g id="edge10" class="edge"><title>Node7&#45;&gt;Node9</title>
<path fill="none" stroke="midnightblue" d="M454.501,-144.793C469.142,-145.703 483.909,-146.479 498,-147 604.594,-150.943 631.344,-148.491 738,-147 756.02,-146.748 775.313,-146.318 793.711,-145.83"/>
<polygon fill="midnightblue" stroke="midnightblue" points="793.925,-149.326 803.825,-145.554 793.734,-142.328 793.925,-149.326"/>
</g>
<!-- Node10 -->
<g id="node10" class="node"><title>Node10</title>
<g id="a_node10"><a xlink:href="../../d3/de0/classtranslator_1_1_translator.html#abd79378932d164889d2d90c7783f1493" target="_top" xlink:title="translator.Translator.matches\lListEndPattern">
<polygon fill="white" stroke="black" points="540,-49 540,-79 696,-79 696,-49 540,-49"/>
<text text-anchor="start" x="548" y="-67" font-family="Helvetica,sans-Serif" font-size="10.00">translator.Translator.matches</text>
<text text-anchor="middle" x="618" y="-56" font-family="Helvetica,sans-Serif" font-size="10.00">ListEndPattern</text>
</a>
</g>
</g>
<!-- Node7&#45;&gt;Node10 -->
<g id="edge11" class="edge"><title>Node7&#45;&gt;Node10</title>
<path fill="none" stroke="midnightblue" d="M431.554,-114.471C441.919,-111.587 452.24,-108.425 462,-105 478.696,-99.1416 481.205,-93.5676 498,-88 508.185,-84.6236 519.026,-81.6409 529.859,-79.0288"/>
<polygon fill="midnightblue" stroke="midnightblue" points="530.832,-82.3963 539.787,-76.7336 529.255,-75.5762 530.832,-82.3963"/>
</g>
<!-- Node8&#45;&gt;Node9 -->
<g id="edge9" class="edge"><title>Node8&#45;&gt;Node9</title>
<path fill="none" stroke="midnightblue" d="M734.68,-129.038C754.55,-130.934 774.896,-132.876 793.857,-134.685"/>
<polygon fill="midnightblue" stroke="midnightblue" points="793.648,-138.181 803.935,-135.647 794.313,-131.212 793.648,-138.181"/>
</g>
<!-- Node12&#45;&gt;Node4 -->
<g id="edge15" class="edge"><title>Node12&#45;&gt;Node4</title>
<path fill="none" stroke="midnightblue" d="M388.672,-408.372C420.073,-396.603 460.918,-382.209 498,-372 506.655,-369.617 515.724,-367.363 524.83,-365.26"/>
<polygon fill="midnightblue" stroke="midnightblue" points="525.719,-368.648 534.707,-363.039 524.183,-361.818 525.719,-368.648"/>
</g>
<!-- Node13 -->
<g id="node13" class="node"><title>Node13</title>
<g id="a_node13"><a xlink:href="../../db/d1f/classworkspace_state_1_1_turtle_collection.html#add93f937daadc46dc1e3e4e80f58566f" target="_top" xlink:title="workspaceState.TurtleCollection.has\lTurtleWithID">
<polygon fill="white" stroke="black" points="524,-431 524,-461 712,-461 712,-431 524,-431"/>
<text text-anchor="start" x="532" y="-449" font-family="Helvetica,sans-Serif" font-size="10.00">workspaceState.TurtleCollection.has</text>
<text text-anchor="middle" x="618" y="-438" font-family="Helvetica,sans-Serif" font-size="10.00">TurtleWithID</text>
</a>
</g>
</g>
<!-- Node12&#45;&gt;Node13 -->
<g id="edge14" class="edge"><title>Node12&#45;&gt;Node13</title>
<path fill="none" stroke="midnightblue" d="M458.842,-436.432C477.113,-437.537 495.789,-438.667 513.607,-439.745"/>
<polygon fill="midnightblue" stroke="midnightblue" points="513.796,-443.263 523.989,-440.373 514.219,-436.275 513.796,-443.263"/>
</g>
<!-- Node14 -->
<g id="node14" class="node"><title>Node14</title>
<g id="a_node14"><a xlink:href="../../db/d1f/classworkspace_state_1_1_turtle_collection.html#af419bef3394c00e4313fd549fbcbd9a8" target="_top" xlink:title="workspaceState.TurtleCollection.add\lTurtle">
<polygon fill="white" stroke="black" points="523.5,-382 523.5,-412 712.5,-412 712.5,-382 523.5,-382"/>
<text text-anchor="start" x="531.5" y="-400" font-family="Helvetica,sans-Serif" font-size="10.00">workspaceState.TurtleCollection.add</text>
<text text-anchor="middle" x="618" y="-389" font-family="Helvetica,sans-Serif" font-size="10.00">Turtle</text>
</a>
</g>
</g>
<!-- Node12&#45;&gt;Node14 -->
<g id="edge16" class="edge"><title>Node12&#45;&gt;Node14</title>
<path fill="none" stroke="midnightblue" d="M458.842,-415.011C476.866,-412.958 495.284,-410.861 512.884,-408.857"/>
<polygon fill="midnightblue" stroke="midnightblue" points="513.603,-412.297 523.143,-407.688 512.811,-405.342 513.603,-412.297"/>
</g>
<!-- Node16 -->
<g id="node16" class="node"><title>Node16</title>
<g id="a_node16"><a xlink:href="../../db/d1f/classworkspace_state_1_1_turtle_collection.html#ae03078f5b9aa6fc7a83f65631683048b" target="_top" xlink:title="workspaceState.TurtleCollection.get\lLastAddedTurtle">
<polygon fill="white" stroke="black" points="524.5,-539 524.5,-569 711.5,-569 711.5,-539 524.5,-539"/>
<text text-anchor="start" x="532.5" y="-557" font-family="Helvetica,sans-Serif" font-size="10.00">workspaceState.TurtleCollection.get</text>
<text text-anchor="middle" x="618" y="-546" font-family="Helvetica,sans-Serif" font-size="10.00">LastAddedTurtle</text>
</a>
</g>
</g>
<!-- Node12&#45;&gt;Node16 -->
<g id="edge18" class="edge"><title>Node12&#45;&gt;Node16</title>
<path fill="none" stroke="midnightblue" d="M362.818,-449.636C393.739,-472.425 446.895,-508.585 498,-529 504.604,-531.638 511.531,-534.015 518.581,-536.153"/>
<polygon fill="midnightblue" stroke="midnightblue" points="517.675,-539.535 528.252,-538.924 519.603,-532.805 517.675,-539.535"/>
</g>
<!-- Node17 -->
<g id="node17" class="node"><title>Node17</title>
<g id="a_node17"><a xlink:href="../../df/d64/interfacecommand_parsing_1_1drawable_obect_generation_interfaces_1_1_turtle_generator.html#ad2df4af6c11d2ec038868c5520be6acd" target="_top" xlink:title="commandParsing.drawableObect\lGenerationInterfaces.TurtleGenerator.generate\lDrawableObjectRepresentingTurtle">
<polygon fill="white" stroke="black" points="498,-479.5 498,-520.5 738,-520.5 738,-479.5 498,-479.5"/>
<text text-anchor="start" x="506" y="-508.5" font-family="Helvetica,sans-Serif" font-size="10.00">commandParsing.drawableObect</text>
<text text-anchor="start" x="506" y="-497.5" font-family="Helvetica,sans-Serif" font-size="10.00">GenerationInterfaces.TurtleGenerator.generate</text>
<text text-anchor="middle" x="618" y="-486.5" font-family="Helvetica,sans-Serif" font-size="10.00">DrawableObjectRepresentingTurtle</text>
</a>
</g>
</g>
<!-- Node12&#45;&gt;Node17 -->
<g id="edge19" class="edge"><title>Node12&#45;&gt;Node17</title>
<path fill="none" stroke="midnightblue" d="M417.164,-449.557C443.001,-456.097 471.7,-463.357 498,-470 506.969,-472.266 516.319,-474.625 525.662,-476.983"/>
<polygon fill="midnightblue" stroke="midnightblue" points="524.828,-480.382 535.38,-479.434 526.54,-473.594 524.828,-480.382"/>
</g>
<!-- Node15 -->
<g id="node15" class="node"><title>Node15</title>
<g id="a_node15"><a xlink:href="../../db/d1f/classworkspace_state_1_1_turtle_collection.html#a2a83ac80ea6d84c1b032f2df8ac2fb0d" target="_top" xlink:title="workspaceState.TurtleCollection.generate\lValidTurtleID">
<polygon fill="white" stroke="black" points="774.5,-321 774.5,-351 989.5,-351 989.5,-321 774.5,-321"/>
<text text-anchor="start" x="782.5" y="-339" font-family="Helvetica,sans-Serif" font-size="10.00">workspaceState.TurtleCollection.generate</text>
<text text-anchor="middle" x="882" y="-328" font-family="Helvetica,sans-Serif" font-size="10.00">ValidTurtleID</text>
</a>
</g>
</g>
<!-- Node14&#45;&gt;Node15 -->
<g id="edge17" class="edge"><title>Node14&#45;&gt;Node15</title>
<path fill="none" stroke="midnightblue" d="M697.08,-381.935C710.782,-378.911 724.857,-375.559 738,-372 754.279,-367.592 757.751,-364.518 774,-360 782.263,-357.703 790.93,-355.471 799.605,-353.352"/>
<polygon fill="midnightblue" stroke="midnightblue" points="800.471,-356.744 809.381,-351.011 798.84,-349.936 800.471,-356.744"/>
</g>
<!-- Node18 -->
<g id="node18" class="node"><title>Node18</title>
<g id="a_node18"><a xlink:href="../../d0/d77/classworkspace_state_1_1_location.html#ae445cb48bedcd80659a847365a6a3de4" target="_top" xlink:title="workspaceState.Location.generate\lLocationString">
<polygon fill="white" stroke="black" points="790.5,-370 790.5,-400 973.5,-400 973.5,-370 790.5,-370"/>
<text text-anchor="start" x="798.5" y="-388" font-family="Helvetica,sans-Serif" font-size="10.00">workspaceState.Location.generate</text>
<text text-anchor="middle" x="882" y="-377" font-family="Helvetica,sans-Serif" font-size="10.00">LocationString</text>
</a>
</g>
</g>
<!-- Node17&#45;&gt;Node18 -->
<g id="edge20" class="edge"><title>Node17&#45;&gt;Node18</title>
<path fill="none" stroke="midnightblue" d="M722.962,-479.353C728.252,-476.612 733.308,-473.51 738,-470 763.207,-451.142 748.547,-427.525 774,-409 776.381,-407.267 778.865,-405.656 781.431,-404.158"/>
<polygon fill="midnightblue" stroke="midnightblue" points="783.17,-407.199 790.439,-399.491 779.95,-400.984 783.17,-407.199"/>
</g>
<!-- Node20 -->
<g id="node20" class="node"><title>Node20</title>
<g id="a_node20"><a xlink:href="../../d1/d01/classworkspace_state_1_1_turtle.html#ac6697327d46a4fde63526e973948d6f7" target="_top" xlink:title="workspaceState.Turtle.get\lHeading">
<polygon fill="white" stroke="black" points="812,-644 812,-674 952,-674 952,-644 812,-644"/>
<text text-anchor="start" x="820" y="-662" font-family="Helvetica,sans-Serif" font-size="10.00">workspaceState.Turtle.get</text>
<text text-anchor="middle" x="882" y="-651" font-family="Helvetica,sans-Serif" font-size="10.00">Heading</text>
</a>
</g>
</g>
<!-- Node17&#45;&gt;Node20 -->
<g id="edge22" class="edge"><title>Node17&#45;&gt;Node20</title>
<path fill="none" stroke="midnightblue" d="M725.501,-520.572C729.953,-523.344 734.153,-526.472 738,-530 774.046,-563.063 737.667,-601.253 774,-634 782.083,-641.285 791.875,-646.565 802.215,-650.371"/>
<polygon fill="midnightblue" stroke="midnightblue" points="801.239,-653.734 811.831,-653.468 803.385,-647.071 801.239,-653.734"/>
</g>
<!-- Node21 -->
<g id="node21" class="node"><title>Node21</title>
<g id="a_node21"><a xlink:href="../../d1/d01/classworkspace_state_1_1_turtle.html#a2b5e77b78036091a65abb5f4959b5ef7" target="_top" xlink:title="workspaceState.Turtle.getID">
<polygon fill="white" stroke="black" points="807,-605.5 807,-624.5 957,-624.5 957,-605.5 807,-605.5"/>
<text text-anchor="middle" x="882" y="-612.5" font-family="Helvetica,sans-Serif" font-size="10.00">workspaceState.Turtle.getID</text>
</a>
</g>
</g>
<!-- Node17&#45;&gt;Node21 -->
<g id="edge23" class="edge"><title>Node17&#45;&gt;Node21</title>
<path fill="none" stroke="midnightblue" d="M723.365,-520.646C728.52,-523.389 733.441,-526.491 738,-530 764.17,-550.142 747.217,-575.681 774,-595 781.071,-600.101 789.069,-604.012 797.43,-606.998"/>
<polygon fill="midnightblue" stroke="midnightblue" points="796.405,-610.345 806.994,-609.99 798.494,-603.664 796.405,-610.345"/>
</g>
<!-- Node22 -->
<g id="node22" class="node"><title>Node22</title>
<g id="a_node22"><a xlink:href="../../d1/d01/classworkspace_state_1_1_turtle.html#a9bb3d15f12d9d4e03332ea9817f76882" target="_top" xlink:title="workspaceState.Turtle.get\lLocation">
<polygon fill="white" stroke="black" points="812,-556 812,-586 952,-586 952,-556 812,-556"/>
<text text-anchor="start" x="820" y="-574" font-family="Helvetica,sans-Serif" font-size="10.00">workspaceState.Turtle.get</text>
<text text-anchor="middle" x="882" y="-563" font-family="Helvetica,sans-Serif" font-size="10.00">Location</text>
</a>
</g>
</g>
<!-- Node17&#45;&gt;Node22 -->
<g id="edge24" class="edge"><title>Node17&#45;&gt;Node22</title>
<path fill="none" stroke="midnightblue" d="M707.554,-520.528C717.895,-523.454 728.233,-526.626 738,-530 754.55,-535.717 757.401,-540.428 774,-546 782.993,-549.019 792.53,-551.808 802.059,-554.343"/>
<polygon fill="midnightblue" stroke="midnightblue" points="801.408,-557.79 811.964,-556.892 803.152,-551.011 801.408,-557.79"/>
</g>
<!-- Node23 -->
<g id="node23" class="node"><title>Node23</title>
<g id="a_node23"><a xlink:href="../../d1/d01/classworkspace_state_1_1_turtle.html#a5c09e19002f9ed4c61ce538fff3da4ff" target="_top" xlink:title="workspaceState.Turtle.get\lOpacity">
<polygon fill="white" stroke="black" points="812,-507 812,-537 952,-537 952,-507 812,-507"/>
<text text-anchor="start" x="820" y="-525" font-family="Helvetica,sans-Serif" font-size="10.00">workspaceState.Turtle.get</text>
<text text-anchor="middle" x="882" y="-514" font-family="Helvetica,sans-Serif" font-size="10.00">Opacity</text>
</a>
</g>
</g>
<!-- Node17&#45;&gt;Node23 -->
<g id="edge25" class="edge"><title>Node17&#45;&gt;Node23</title>
<path fill="none" stroke="midnightblue" d="M738.117,-510.002C759.742,-511.818 781.802,-513.67 801.915,-515.359"/>
<polygon fill="midnightblue" stroke="midnightblue" points="801.673,-518.851 811.93,-516.2 802.258,-511.876 801.673,-518.851"/>
</g>
<!-- Node24 -->
<g id="node24" class="node"><title>Node24</title>
<g id="a_node24"><a xlink:href="../../da/de7/classworkspace_state_1_1_shape.html#aace6051dd26034446492ecac6ff16099" target="_top" xlink:title="workspaceState.Shape.getPath">
<polygon fill="white" stroke="black" points="798.5,-468.5 798.5,-487.5 965.5,-487.5 965.5,-468.5 798.5,-468.5"/>
<text text-anchor="middle" x="882" y="-475.5" font-family="Helvetica,sans-Serif" font-size="10.00">workspaceState.Shape.getPath</text>
</a>
</g>
</g>
<!-- Node17&#45;&gt;Node24 -->
<g id="edge26" class="edge"><title>Node17&#45;&gt;Node24</title>
<path fill="none" stroke="midnightblue" d="M738.117,-489.998C754.909,-488.588 771.963,-487.156 788.164,-485.795"/>
<polygon fill="midnightblue" stroke="midnightblue" points="788.459,-489.283 798.131,-484.958 787.873,-482.308 788.459,-489.283"/>
</g>
<!-- Node25 -->
<g id="node25" class="node"><title>Node25</title>
<g id="a_node25"><a xlink:href="../../d1/d01/classworkspace_state_1_1_turtle.html#a8d9dd9cb3503c6d0aa45efca91816f71" target="_top" xlink:title="workspaceState.Turtle.get\lShape">
<polygon fill="white" stroke="black" points="812,-419 812,-449 952,-449 952,-419 812,-419"/>
<text text-anchor="start" x="820" y="-437" font-family="Helvetica,sans-Serif" font-size="10.00">workspaceState.Turtle.get</text>
<text text-anchor="middle" x="882" y="-426" font-family="Helvetica,sans-Serif" font-size="10.00">Shape</text>
</a>
</g>
</g>
<!-- Node17&#45;&gt;Node25 -->
<g id="edge27" class="edge"><title>Node17&#45;&gt;Node25</title>
<path fill="none" stroke="midnightblue" d="M702.684,-479.46C714.564,-476.382 726.609,-473.174 738,-470 754.116,-465.509 757.845,-463.35 774,-459 783.533,-456.433 793.584,-453.882 803.554,-451.446"/>
<polygon fill="midnightblue" stroke="midnightblue" points="804.576,-454.8 813.475,-449.052 802.933,-447.996 804.576,-454.8"/>
</g>
<!-- Node19 -->
<g id="node19" class="node"><title>Node19</title>
<g id="a_node19"><a xlink:href="../../d0/d77/classworkspace_state_1_1_location.html#ad4e68a97bd0ea67236551c1183fdcd6f" target="_top" xlink:title="workspaceState.Location.add">
<polygon fill="white" stroke="black" points="1026,-375.5 1026,-394.5 1184,-394.5 1184,-375.5 1026,-375.5"/>
<text text-anchor="middle" x="1105" y="-382.5" font-family="Helvetica,sans-Serif" font-size="10.00">workspaceState.Location.add</text>
</a>
</g>
</g>
<!-- Node18&#45;&gt;Node19 -->
<g id="edge21" class="edge"><title>Node18&#45;&gt;Node19</title>
<path fill="none" stroke="midnightblue" d="M973.527,-385C987.531,-385 1001.98,-385 1015.93,-385"/>
<polygon fill="midnightblue" stroke="midnightblue" points="1015.98,-388.5 1025.98,-385 1015.98,-381.5 1015.98,-388.5"/>
</g>
<!-- Node26&#45;&gt;Node5 -->
<g id="edge29" class="edge"><title>Node26&#45;&gt;Node5</title>
<path fill="none" stroke="midnightblue" d="M451.104,-201.554C467.019,-202.46 483.383,-203.392 499.343,-204.301"/>
<polygon fill="midnightblue" stroke="midnightblue" points="499.581,-207.82 509.764,-204.894 499.979,-200.831 499.581,-207.82"/>
</g>
<!-- Node26&#45;&gt;Node6 -->
<g id="edge30" class="edge"><title>Node26&#45;&gt;Node6</title>
<path fill="none" stroke="midnightblue" d="M424.223,-215.565C436.918,-218.652 449.806,-221.856 462,-225 478.08,-229.146 481.79,-231.397 498,-235 512.373,-238.195 527.823,-241.143 542.676,-243.739"/>
<polygon fill="midnightblue" stroke="midnightblue" points="542.395,-247.242 552.842,-245.479 543.576,-240.342 542.395,-247.242"/>
</g>
<!-- Node27&#45;&gt;Node4 -->
<g id="edge32" class="edge"><title>Node27&#45;&gt;Node4</title>
<path fill="none" stroke="midnightblue" d="M462.116,-350.756C475.719,-350.514 489.504,-350.269 502.953,-350.029"/>
<polygon fill="midnightblue" stroke="midnightblue" points="503.227,-353.525 513.164,-349.848 503.103,-346.526 503.227,-353.525"/>
</g>
<!-- Node29 -->
<g id="node29" class="node"><title>Node29</title>
<g id="a_node29"><a xlink:href="../../db/d1f/classworkspace_state_1_1_turtle_collection.html#a6c49b4d7d24c0ed82ea491185b023cf0" target="_top" xlink:title="workspaceState.TurtleCollection.get\lActiveTurtles">
<polygon fill="white" stroke="black" points="524.5,-0 524.5,-30 711.5,-30 711.5,-0 524.5,-0"/>
<text text-anchor="start" x="532.5" y="-18" font-family="Helvetica,sans-Serif" font-size="10.00">workspaceState.TurtleCollection.get</text>
<text text-anchor="middle" x="618" y="-7" font-family="Helvetica,sans-Serif" font-size="10.00">ActiveTurtles</text>
</a>
</g>
</g>
<!-- Node28&#45;&gt;Node29 -->
<g id="edge34" class="edge"><title>Node28&#45;&gt;Node29</title>
<path fill="none" stroke="midnightblue" d="M456.392,-18.4293C475.711,-18.0168 495.548,-17.5933 514.401,-17.1907"/>
<polygon fill="midnightblue" stroke="midnightblue" points="514.539,-20.6887 524.462,-16.9759 514.389,-13.6903 514.539,-20.6887"/>
</g>
</g>
</svg>
        <g id="navigator" transform="translate(0 0)" fill="#404254">
                <rect fill="#f2f5e9" fill-opacity="0.5" stroke="#606060" stroke-width=".5" x="0" y="0" width="60" height="60"/>
                <use id="zoomplus" xlink:href="#zoomPlus" x="17" y="9" onmousedown="handleZoom(evt,'in')"/>
                <use id="zoomminus" xlink:href="#zoomMin" x="42" y="9" onmousedown="handleZoom(evt,'out')"/>
                <use id="reset" xlink:href="#resetDef" x="30" y="36" onmousedown="handleReset()"/>
                <g id="arrowUp" xlink:href="#dirArrow" transform="translate(30 24)" onmousedown="handlePan(0,-1)">
                  <use xlink:href="#rim" fill="#404040">
                        <set attributeName="fill" to="#808080" begin="arrowUp.mouseover" end="arrowUp.mouseout"/>
                  </use>
                  <path fill="none" stroke="white" stroke-width="1.5" d="M0,-3.0v7 M-2.5,-0.5L0,-3.0L2.5,-0.5"/>
                </g>
                <g id="arrowRight" xlink:href="#dirArrow" transform="rotate(90) translate(36 -43)" onmousedown="handlePan(1,0)">
                  <use xlink:href="#rim" fill="#404040">
                        <set attributeName="fill" to="#808080" begin="arrowRight.mouseover" end="arrowRight.mouseout"/>
                  </use>
                  <path fill="none" stroke="white" stroke-width="1.5" d="M0,-3.0v7 M-2.5,-0.5L0,-3.0L2.5,-0.5"/>
                </g>
                <g id="arrowDown" xlink:href="#dirArrow" transform="rotate(180) translate(-30 -48)" onmousedown="handlePan(0,1)">
                  <use xlink:href="#rim" fill="#404040">
                        <set attributeName="fill" to="#808080" begin="arrowDown.mouseover" end="arrowDown.mouseout"/>
                  </use>
                  <path fill="none" stroke="white" stroke-width="1.5" d="M0,-3.0v7 M-2.5,-0.5L0,-3.0L2.5,-0.5"/>
                </g>
                <g id="arrowLeft" xlink:href="#dirArrow" transform="rotate(270) translate(-36 17)" onmousedown="handlePan(-1,0)">
                  <use xlink:href="#rim" fill="#404040">
                        <set attributeName="fill" to="#808080" begin="arrowLeft.mouseover" end="arrowLeft.mouseout"/>
                  </use>
                  <path fill="none" stroke="white" stroke-width="1.5" d="M0,-3.0v7 M-2.5,-0.5L0,-3.0L2.5,-0.5"/>
                </g>
        </g>
        <svg viewBox="0 0 15 15" width="100%" height="30px" preserveAspectRatio="xMaxYMin meet">
         <g id="arrow_out" transform="scale(0.3 0.3)">
          <a xlink:href="classcommand_parsing_1_1structural_command_parsing_1_1_ask_with_a934aa5eda34ccd0b9703e578753031fb_cgraph_org.svg" target="_base">
           <rect id="button" ry="5" rx="5" y="6" x="6" height="38" width="38"
                fill="#f2f5e9" fill-opacity="0.5" stroke="#606060" stroke-width="1.0"/>
           <path id="arrow"
             d="M 11.500037,31.436501 C 11.940474,20.09759 22.043105,11.32322 32.158766,21.979434 L 37.068811,17.246167 C 37.068811,17.246167 37.088388,32 37.088388,32 L 22.160133,31.978069 C 22.160133,31.978069 26.997745,27.140456 26.997745,27.140456 C 18.528582,18.264221 13.291696,25.230495 11.500037,31.436501 z"
             style="fill:#404040;"/>
          </a>
         </g>
        </svg>
</svg>
