<?xml version="1.0" encoding="UTF-8" standalone="no"?>
<!DOCTYPE svg PUBLIC "-//W3C//DTD SVG 1.1//EN"
 "http://www.w3.org/Graphics/SVG/1.1/DTD/svg11.dtd">
<!-- Generated by graphviz version 2.36.0 (20140111.2315)
 -->
<!-- Title: gui.turtlescreenwrap.TesselationMapper.map Pages: 1 -->
<!--zoomable 841 -->
<svg id="main" version="1.1" xmlns="http://www.w3.org/2000/svg" xmlns:xlink="http://www.w3.org/1999/xlink" xml:space="preserve" onload="init(evt)">
<style type="text/css"><![CDATA[
.edge:hover path { stroke: red; }
.edge:hover polygon { stroke: red; fill: red; }
]]></style>
<script type="text/javascript"><![CDATA[
var edges = document.getElementsByTagName('g');
if (edges && edges.length) {
  for (var i=0;i<edges.length;i++) {
    if (edges[i].id.substr(0,4)=='edge') {
      edges[i].setAttribute('class','edge');
    }
  }
}
]]></script>
        <defs>
                <circle id="rim" cx="0" cy="0" r="7"/>
                <circle id="rim2" cx="0" cy="0" r="3.5"/>
                <g id="zoomPlus">
                        <use xlink:href="#rim" fill="#404040">
                                <set attributeName="fill" to="#808080" begin="zoomplus.mouseover" end="zoomplus.mouseout"/>
                        </use>
                        <path d="M-4,0h8M0,-4v8" fill="none" stroke="white" stroke-width="1.5" pointer-events="none"/>
                </g>
                <g id="zoomMin">
                        <use xlink:href="#rim" fill="#404040">
                                <set attributeName="fill" to="#808080" begin="zoomminus.mouseover" end="zoomminus.mouseout"/>
                        </use>
                        <path d="M-4,0h8" fill="none" stroke="white" stroke-width="1.5" pointer-events="none"/>
                </g>
                <g id="dirArrow">
                        <path fill="none" stroke="white" stroke-width="1.5" d="M0,-3.0v7 M-2.5,-0.5L0,-3.0L2.5,-0.5"/>
                </g>
               <g id="resetDef">
                       <use xlink:href="#rim2" fill="#404040">
                               <set attributeName="fill" to="#808080" begin="reset.mouseover" end="reset.mouseout"/>
                       </use>
               </g>
        </defs>

<script type="text/javascript">
var viewWidth = 890;
var viewHeight = 841;
var sectionId = 'dynsection-3';
</script>
<script xlink:href="../../svgpan.js"/>
<svg id="graph" class="graph">
<g id="viewport">
<title>gui.turtlescreenwrap.TesselationMapper.map</title>
<polygon fill="white" stroke="none" points="-4,4 -4,-837 886,-837 886,4 -4,4"/>
<!-- Node1 -->
<g id="node1" class="node"><title>Node1</title>
<polygon fill="#bfbfbf" stroke="black" points="0,-183 0,-213 170,-213 170,-183 0,-183"/>
<text text-anchor="start" x="8" y="-201" font-family="Helvetica,sans-Serif" font-size="10.00">gui.turtlescreenwrap.Tesselation</text>
<text text-anchor="middle" x="85" y="-190" font-family="Helvetica,sans-Serif" font-size="10.00">Mapper.map</text>
</g>
<!-- Node2 -->
<g id="node2" class="node"><title>Node2</title>
<g id="a_node2"><a xlink:href="../../d8/dec/classgui_1_1turtlescreenwrap_1_1_turtle_screen_wrap.html#a5ef2b5f6381070a4a78575ef1207dc44" target="_top" xlink:title="gui.turtlescreenwrap.Turtle\lScreenWrap.fragmentPoint2DPair">
<polygon fill="white" stroke="black" points="206,-489 206,-519 382,-519 382,-489 206,-489"/>
<text text-anchor="start" x="214" y="-507" font-family="Helvetica,sans-Serif" font-size="10.00">gui.turtlescreenwrap.Turtle</text>
<text text-anchor="middle" x="294" y="-496" font-family="Helvetica,sans-Serif" font-size="10.00">ScreenWrap.fragmentPoint2DPair</text>
</a>
</g>
</g>
<!-- Node1&#45;&gt;Node2 -->
<g id="edge1" class="edge"><title>Node1&#45;&gt;Node2</title>
<path fill="none" stroke="midnightblue" d="M101.985,-221.63C142.627,-281.709 249.062,-439.048 282.673,-488.734"/>
<polygon fill="midnightblue" stroke="midnightblue" points="104.767,-219.496 96.2652,-213.175 98.9693,-223.419 104.767,-219.496"/>
</g>
<!-- Node15 -->
<g id="node15" class="node"><title>Node15</title>
<g id="a_node15"><a xlink:href="../../d3/d33/classtests_1_1screen_wrap_tests_1_1_mapper_point_pair_tests.html#a8021400ee830c4286db79d14e546405e" target="_top" xlink:title="tests.screenWrapTests.Mapper\lPointPairTests.testDiagonal">
<polygon fill="white" stroke="black" points="213,-232 213,-262 375,-262 375,-232 213,-232"/>
<text text-anchor="start" x="221" y="-250" font-family="Helvetica,sans-Serif" font-size="10.00">tests.screenWrapTests.Mapper</text>
<text text-anchor="middle" x="294" y="-239" font-family="Helvetica,sans-Serif" font-size="10.00">PointPairTests.testDiagonal</text>
</a>
</g>
</g>
<!-- Node1&#45;&gt;Node15 -->
<g id="edge14" class="edge"><title>Node1&#45;&gt;Node15</title>
<path fill="none" stroke="midnightblue" d="M159.522,-215.404C182.421,-220.824 207.463,-226.752 229.607,-231.994"/>
<polygon fill="midnightblue" stroke="midnightblue" points="160.051,-211.932 149.514,-213.035 158.438,-218.744 160.051,-211.932"/>
</g>
<!-- Node25 -->
<g id="node25" class="node"><title>Node25</title>
<g id="a_node25"><a xlink:href="../../d3/d33/classtests_1_1screen_wrap_tests_1_1_mapper_point_pair_tests.html#ae2f90753d0ecfc7938b795376c2fb1e9" target="_top" xlink:title="tests.screenWrapTests.Mapper\lPointPairTests.testHomeScreen">
<polygon fill="white" stroke="black" points="210.5,-183 210.5,-213 377.5,-213 377.5,-183 210.5,-183"/>
<text text-anchor="start" x="218.5" y="-201" font-family="Helvetica,sans-Serif" font-size="10.00">tests.screenWrapTests.Mapper</text>
<text text-anchor="middle" x="294" y="-190" font-family="Helvetica,sans-Serif" font-size="10.00">PointPairTests.testHomeScreen</text>
</a>
</g>
</g>
<!-- Node1&#45;&gt;Node25 -->
<g id="edge24" class="edge"><title>Node1&#45;&gt;Node25</title>
<path fill="none" stroke="midnightblue" d="M180.482,-198C190.406,-198 200.442,-198 210.221,-198"/>
<polygon fill="midnightblue" stroke="midnightblue" points="180.195,-194.5 170.195,-198 180.195,-201.5 180.195,-194.5"/>
</g>
<!-- Node26 -->
<g id="node26" class="node"><title>Node26</title>
<g id="a_node26"><a xlink:href="../../dc/dcd/classtests_1_1screen_wrap_tests_1_1_mapper_random_point_tests.html#a362d586493bb4f1889865a8545a6c551" target="_top" xlink:title="tests.screenWrapTests.Mapper\lRandomPointTests.testRandom">
<polygon fill="white" stroke="black" points="211,-134 211,-164 377,-164 377,-134 211,-134"/>
<text text-anchor="start" x="219" y="-152" font-family="Helvetica,sans-Serif" font-size="10.00">tests.screenWrapTests.Mapper</text>
<text text-anchor="middle" x="294" y="-141" font-family="Helvetica,sans-Serif" font-size="10.00">RandomPointTests.testRandom</text>
</a>
</g>
</g>
<!-- Node1&#45;&gt;Node26 -->
<g id="edge25" class="edge"><title>Node1&#45;&gt;Node26</title>
<path fill="none" stroke="midnightblue" d="M159.522,-180.596C182.421,-175.176 207.463,-169.248 229.607,-164.006"/>
<polygon fill="midnightblue" stroke="midnightblue" points="158.438,-177.256 149.514,-182.965 160.051,-184.068 158.438,-177.256"/>
</g>
<!-- Node27 -->
<g id="node27" class="node"><title>Node27</title>
<g id="a_node27"><a xlink:href="../../d1/d95/classgui_1_1factories_1_1turtlefactory_1_1_turtle_node.html#a6e2a02d271815ab5516bde6eb8d4d361" target="_top" xlink:title="gui.factories.turtlefactory.\lTurtleNode.updatePosition">
<polygon fill="white" stroke="black" points="223,-85 223,-115 365,-115 365,-85 223,-85"/>
<text text-anchor="start" x="231" y="-103" font-family="Helvetica,sans-Serif" font-size="10.00">gui.factories.turtlefactory.</text>
<text text-anchor="middle" x="294" y="-92" font-family="Helvetica,sans-Serif" font-size="10.00">TurtleNode.updatePosition</text>
</a>
</g>
</g>
<!-- Node1&#45;&gt;Node27 -->
<g id="edge26" class="edge"><title>Node1&#45;&gt;Node27</title>
<path fill="none" stroke="midnightblue" d="M115.647,-176.876C139.221,-160.857 173.522,-139.238 206,-125 214.492,-121.277 223.691,-117.942 232.819,-115.015"/>
<polygon fill="midnightblue" stroke="midnightblue" points="113.417,-174.161 107.164,-182.714 117.386,-179.928 113.417,-174.161"/>
</g>
<!-- Node3 -->
<g id="node3" class="node"><title>Node3</title>
<g id="a_node3"><a xlink:href="../../df/d1f/classtests_1_1screen_wrap_tests_1_1_turtle_screen_wrap_tests.html#a84f8307a9e2fa54ba4670a8f8c8f5d63" target="_top" xlink:title="tests.screenWrapTests.Turtle\lScreenWrapTests.exitTopRightDiagonally">
<polygon fill="white" stroke="black" points="425.5,-803 425.5,-833 632.5,-833 632.5,-803 425.5,-803"/>
<text text-anchor="start" x="433.5" y="-821" font-family="Helvetica,sans-Serif" font-size="10.00">tests.screenWrapTests.Turtle</text>
<text text-anchor="middle" x="529" y="-810" font-family="Helvetica,sans-Serif" font-size="10.00">ScreenWrapTests.exitTopRightDiagonally</text>
</a>
</g>
</g>
<!-- Node2&#45;&gt;Node3 -->
<g id="edge2" class="edge"><title>Node2&#45;&gt;Node3</title>
<path fill="none" stroke="midnightblue" d="M298.048,-529.267C306.266,-585.805 334.239,-723.027 418,-793 422.584,-796.829 427.637,-800.101 432.983,-802.894"/>
<polygon fill="midnightblue" stroke="midnightblue" points="301.478,-528.514 296.657,-519.08 294.542,-529.461 301.478,-528.514"/>
</g>
<!-- Node4 -->
<g id="node4" class="node"><title>Node4</title>
<g id="a_node4"><a xlink:href="../../df/d1f/classtests_1_1screen_wrap_tests_1_1_turtle_screen_wrap_tests.html#a9b25b860fd3d50aaaf783cc87d8bf644" target="_top" xlink:title="tests.screenWrapTests.Turtle\lScreenWrapTests.exitTopLeftDiagonally">
<polygon fill="white" stroke="black" points="428.5,-754 428.5,-784 629.5,-784 629.5,-754 428.5,-754"/>
<text text-anchor="start" x="436.5" y="-772" font-family="Helvetica,sans-Serif" font-size="10.00">tests.screenWrapTests.Turtle</text>
<text text-anchor="middle" x="529" y="-761" font-family="Helvetica,sans-Serif" font-size="10.00">ScreenWrapTests.exitTopLeftDiagonally</text>
</a>
</g>
</g>
<!-- Node2&#45;&gt;Node4 -->
<g id="edge3" class="edge"><title>Node2&#45;&gt;Node4</title>
<path fill="none" stroke="midnightblue" d="M300.394,-529.065C312.369,-578.384 346,-688.081 418,-744 422.95,-747.844 428.38,-751.118 434.095,-753.904"/>
<polygon fill="midnightblue" stroke="midnightblue" points="303.78,-528.173 298.101,-519.229 296.962,-529.763 303.78,-528.173"/>
</g>
<!-- Node5 -->
<g id="node5" class="node"><title>Node5</title>
<g id="a_node5"><a xlink:href="../../df/d1f/classtests_1_1screen_wrap_tests_1_1_turtle_screen_wrap_tests.html#a00650f413c6293abeecbbc5f162bfefe" target="_top" xlink:title="tests.screenWrapTests.Turtle\lScreenWrapTests.exitBottomRight\lDiagonally">
<polygon fill="white" stroke="black" points="440,-694.5 440,-735.5 618,-735.5 618,-694.5 440,-694.5"/>
<text text-anchor="start" x="448" y="-723.5" font-family="Helvetica,sans-Serif" font-size="10.00">tests.screenWrapTests.Turtle</text>
<text text-anchor="start" x="448" y="-712.5" font-family="Helvetica,sans-Serif" font-size="10.00">ScreenWrapTests.exitBottomRight</text>
<text text-anchor="middle" x="529" y="-701.5" font-family="Helvetica,sans-Serif" font-size="10.00">Diagonally</text>
</a>
</g>
</g>
<!-- Node2&#45;&gt;Node5 -->
<g id="edge4" class="edge"><title>Node2&#45;&gt;Node5</title>
<path fill="none" stroke="midnightblue" d="M304.835,-528.389C321.884,-567.52 360.686,-644.076 418,-685 424.685,-689.774 432.094,-693.788 439.816,-697.164"/>
<polygon fill="midnightblue" stroke="midnightblue" points="308.008,-526.906 300.879,-519.069 301.564,-529.641 308.008,-526.906"/>
</g>
<!-- Node6 -->
<g id="node6" class="node"><title>Node6</title>
<g id="a_node6"><a xlink:href="../../df/d1f/classtests_1_1screen_wrap_tests_1_1_turtle_screen_wrap_tests.html#a7b6f09ead374e3a569d64aaf38a0ee6d" target="_top" xlink:title="tests.screenWrapTests.Turtle\lScreenWrapTests.exitBottomLeftDiagonally">
<polygon fill="white" stroke="black" points="418.5,-646 418.5,-676 639.5,-676 639.5,-646 418.5,-646"/>
<text text-anchor="start" x="426.5" y="-664" font-family="Helvetica,sans-Serif" font-size="10.00">tests.screenWrapTests.Turtle</text>
<text text-anchor="middle" x="529" y="-653" font-family="Helvetica,sans-Serif" font-size="10.00">ScreenWrapTests.exitBottomLeftDiagonally</text>
</a>
</g>
</g>
<!-- Node2&#45;&gt;Node6 -->
<g id="edge5" class="edge"><title>Node2&#45;&gt;Node6</title>
<path fill="none" stroke="midnightblue" d="M310.234,-527.588C330.912,-557.607 370.757,-608.82 418,-636 424.79,-639.907 432.144,-643.203 439.719,-645.984"/>
<polygon fill="midnightblue" stroke="midnightblue" points="312.937,-525.336 304.444,-519.002 307.133,-529.25 312.937,-525.336"/>
</g>
<!-- Node7 -->
<g id="node7" class="node"><title>Node7</title>
<g id="a_node7"><a xlink:href="../../df/d1f/classtests_1_1screen_wrap_tests_1_1_turtle_screen_wrap_tests.html#a83f756a9cbdd2a8c906c5270c13b6aff" target="_top" xlink:title="tests.screenWrapTests.Turtle\lScreenWrapTests.exitRightTopDiagonally">
<polygon fill="white" stroke="black" points="425.5,-597 425.5,-627 632.5,-627 632.5,-597 425.5,-597"/>
<text text-anchor="start" x="433.5" y="-615" font-family="Helvetica,sans-Serif" font-size="10.00">tests.screenWrapTests.Turtle</text>
<text text-anchor="middle" x="529" y="-604" font-family="Helvetica,sans-Serif" font-size="10.00">ScreenWrapTests.exitRightTopDiagonally</text>
</a>
</g>
</g>
<!-- Node2&#45;&gt;Node7 -->
<g id="edge6" class="edge"><title>Node2&#45;&gt;Node7</title>
<path fill="none" stroke="midnightblue" d="M320.745,-525.575C344.545,-544.454 381.626,-571.254 418,-587 426.896,-590.851 436.465,-594.148 446.113,-596.96"/>
<polygon fill="midnightblue" stroke="midnightblue" points="322.887,-522.806 312.904,-519.259 318.496,-528.258 322.887,-522.806"/>
</g>
<!-- Node8 -->
<g id="node8" class="node"><title>Node8</title>
<g id="a_node8"><a xlink:href="../../df/d1f/classtests_1_1screen_wrap_tests_1_1_turtle_screen_wrap_tests.html#ac86ad58070045f6e75e619d34b133cbe" target="_top" xlink:title="tests.screenWrapTests.Turtle\lScreenWrapTests.exitRightBOttom\lDiagonally">
<polygon fill="white" stroke="black" points="439.5,-537.5 439.5,-578.5 618.5,-578.5 618.5,-537.5 439.5,-537.5"/>
<text text-anchor="start" x="447.5" y="-566.5" font-family="Helvetica,sans-Serif" font-size="10.00">tests.screenWrapTests.Turtle</text>
<text text-anchor="start" x="447.5" y="-555.5" font-family="Helvetica,sans-Serif" font-size="10.00">ScreenWrapTests.exitRightBOttom</text>
<text text-anchor="middle" x="529" y="-544.5" font-family="Helvetica,sans-Serif" font-size="10.00">Diagonally</text>
</a>
</g>
</g>
<!-- Node2&#45;&gt;Node8 -->
<g id="edge7" class="edge"><title>Node2&#45;&gt;Node8</title>
<path fill="none" stroke="midnightblue" d="M369.912,-521.362C392.08,-526.499 416.56,-532.173 439.5,-537.489"/>
<polygon fill="midnightblue" stroke="midnightblue" points="370.436,-517.89 359.903,-519.042 368.855,-524.709 370.436,-517.89"/>
</g>
<!-- Node9 -->
<g id="node9" class="node"><title>Node9</title>
<g id="a_node9"><a xlink:href="../../df/d1f/classtests_1_1screen_wrap_tests_1_1_turtle_screen_wrap_tests.html#a08ce37429aff7988e44b90649df211d6" target="_top" xlink:title="tests.screenWrapTests.Turtle\lScreenWrapTests.exitLeftTopDiagonally">
<polygon fill="white" stroke="black" points="428.5,-489 428.5,-519 629.5,-519 629.5,-489 428.5,-489"/>
<text text-anchor="start" x="436.5" y="-507" font-family="Helvetica,sans-Serif" font-size="10.00">tests.screenWrapTests.Turtle</text>
<text text-anchor="middle" x="529" y="-496" font-family="Helvetica,sans-Serif" font-size="10.00">ScreenWrapTests.exitLeftTopDiagonally</text>
</a>
</g>
</g>
<!-- Node2&#45;&gt;Node9 -->
<g id="edge8" class="edge"><title>Node2&#45;&gt;Node9</title>
<path fill="none" stroke="midnightblue" d="M392.106,-504C404.122,-504 416.42,-504 428.471,-504"/>
<polygon fill="midnightblue" stroke="midnightblue" points="392.092,-500.5 382.092,-504 392.092,-507.5 392.092,-500.5"/>
</g>
<!-- Node10 -->
<g id="node10" class="node"><title>Node10</title>
<g id="a_node10"><a xlink:href="../../df/d1f/classtests_1_1screen_wrap_tests_1_1_turtle_screen_wrap_tests.html#a9bb95a8580f478b494f193f7a076dc26" target="_top" xlink:title="tests.screenWrapTests.Turtle\lScreenWrapTests.exitLeftBottomDiagonally">
<polygon fill="white" stroke="black" points="418.5,-440 418.5,-470 639.5,-470 639.5,-440 418.5,-440"/>
<text text-anchor="start" x="426.5" y="-458" font-family="Helvetica,sans-Serif" font-size="10.00">tests.screenWrapTests.Turtle</text>
<text text-anchor="middle" x="529" y="-447" font-family="Helvetica,sans-Serif" font-size="10.00">ScreenWrapTests.exitLeftBottomDiagonally</text>
</a>
</g>
</g>
<!-- Node2&#45;&gt;Node10 -->
<g id="edge9" class="edge"><title>Node2&#45;&gt;Node10</title>
<path fill="none" stroke="midnightblue" d="M376.372,-486.887C402.52,-481.389 431.272,-475.342 456.644,-470.006"/>
<polygon fill="midnightblue" stroke="midnightblue" points="375.557,-483.482 366.491,-488.965 376.997,-490.332 375.557,-483.482"/>
</g>
<!-- Node11 -->
<g id="node11" class="node"><title>Node11</title>
<g id="a_node11"><a xlink:href="../../df/d1f/classtests_1_1screen_wrap_tests_1_1_turtle_screen_wrap_tests.html#a15854787cfae755b696fae7a5c61feed" target="_top" xlink:title="tests.screenWrapTests.Turtle\lScreenWrapTests.exitRightHorizontally">
<polygon fill="white" stroke="black" points="430,-391 430,-421 628,-421 628,-391 430,-391"/>
<text text-anchor="start" x="438" y="-409" font-family="Helvetica,sans-Serif" font-size="10.00">tests.screenWrapTests.Turtle</text>
<text text-anchor="middle" x="529" y="-398" font-family="Helvetica,sans-Serif" font-size="10.00">ScreenWrapTests.exitRightHorizontally</text>
</a>
</g>
</g>
<!-- Node2&#45;&gt;Node11 -->
<g id="edge10" class="edge"><title>Node2&#45;&gt;Node11</title>
<path fill="none" stroke="midnightblue" d="M324.053,-483.203C348.164,-466.84 383.9,-444.602 418,-431 427.55,-427.191 437.809,-423.892 448.085,-421.055"/>
<polygon fill="midnightblue" stroke="midnightblue" points="321.974,-480.386 315.721,-488.939 325.943,-486.152 321.974,-480.386"/>
</g>
<!-- Node12 -->
<g id="node12" class="node"><title>Node12</title>
<g id="a_node12"><a xlink:href="../../df/d1f/classtests_1_1screen_wrap_tests_1_1_turtle_screen_wrap_tests.html#a2d6fdd923f6a332030f21ba77d598288" target="_top" xlink:title="tests.screenWrapTests.Turtle\lScreenWrapTests.exitLeftHorizontally">
<polygon fill="white" stroke="black" points="433,-342 433,-372 625,-372 625,-342 433,-342"/>
<text text-anchor="start" x="441" y="-360" font-family="Helvetica,sans-Serif" font-size="10.00">tests.screenWrapTests.Turtle</text>
<text text-anchor="middle" x="529" y="-349" font-family="Helvetica,sans-Serif" font-size="10.00">ScreenWrapTests.exitLeftHorizontally</text>
</a>
</g>
</g>
<!-- Node2&#45;&gt;Node12 -->
<g id="edge11" class="edge"><title>Node2&#45;&gt;Node12</title>
<path fill="none" stroke="midnightblue" d="M311.662,-480.91C333.056,-453.032 372.85,-406.806 418,-382 425.037,-378.134 432.642,-374.864 440.452,-372.1"/>
<polygon fill="midnightblue" stroke="midnightblue" points="308.844,-478.834 305.628,-488.929 314.437,-483.043 308.844,-478.834"/>
</g>
<!-- Node13 -->
<g id="node13" class="node"><title>Node13</title>
<g id="a_node13"><a xlink:href="../../df/d1f/classtests_1_1screen_wrap_tests_1_1_turtle_screen_wrap_tests.html#aa462570f354601659fc671244c30d715" target="_top" xlink:title="tests.screenWrapTests.Turtle\lScreenWrapTests.exitTopVertically">
<polygon fill="white" stroke="black" points="441,-293 441,-323 617,-323 617,-293 441,-293"/>
<text text-anchor="start" x="449" y="-311" font-family="Helvetica,sans-Serif" font-size="10.00">tests.screenWrapTests.Turtle</text>
<text text-anchor="middle" x="529" y="-300" font-family="Helvetica,sans-Serif" font-size="10.00">ScreenWrapTests.exitTopVertically</text>
</a>
</g>
</g>
<!-- Node2&#45;&gt;Node13 -->
<g id="edge12" class="edge"><title>Node2&#45;&gt;Node13</title>
<path fill="none" stroke="midnightblue" d="M305.522,-479.602C323.082,-441.933 362.038,-370.094 418,-333 425.019,-328.347 432.784,-324.552 440.846,-321.458"/>
<polygon fill="midnightblue" stroke="midnightblue" points="302.279,-478.281 301.331,-488.833 308.652,-481.175 302.279,-478.281"/>
</g>
<!-- Node14 -->
<g id="node14" class="node"><title>Node14</title>
<g id="a_node14"><a xlink:href="../../df/d1f/classtests_1_1screen_wrap_tests_1_1_turtle_screen_wrap_tests.html#a567edc540b0561af9828e1b8461f0e21" target="_top" xlink:title="tests.screenWrapTests.Turtle\lScreenWrapTests.exitBottomVertically">
<polygon fill="white" stroke="black" points="430.5,-244 430.5,-274 627.5,-274 627.5,-244 430.5,-244"/>
<text text-anchor="start" x="438.5" y="-262" font-family="Helvetica,sans-Serif" font-size="10.00">tests.screenWrapTests.Turtle</text>
<text text-anchor="middle" x="529" y="-251" font-family="Helvetica,sans-Serif" font-size="10.00">ScreenWrapTests.exitBottomVertically</text>
</a>
</g>
</g>
<!-- Node2&#45;&gt;Node14 -->
<g id="edge13" class="edge"><title>Node2&#45;&gt;Node14</title>
<path fill="none" stroke="midnightblue" d="M301.596,-479.091C315.159,-432.955 350.709,-334.336 418,-284 423.175,-280.129 428.844,-276.84 434.793,-274.049"/>
<polygon fill="midnightblue" stroke="midnightblue" points="298.184,-478.293 298.822,-488.869 304.918,-480.204 298.184,-478.293"/>
</g>
<!-- Node16 -->
<g id="node16" class="node"><title>Node16</title>
<g id="a_node16"><a xlink:href="../../d3/d33/classtests_1_1screen_wrap_tests_1_1_mapper_point_pair_tests.html#ac9b526958a9faaa6cfea49b68378cd3e" target="_top" xlink:title="tests.screenWrapTests.Mapper\lPointPairTests.test">
<polygon fill="white" stroke="black" points="448,-195 448,-225 610,-225 610,-195 448,-195"/>
<text text-anchor="start" x="456" y="-213" font-family="Helvetica,sans-Serif" font-size="10.00">tests.screenWrapTests.Mapper</text>
<text text-anchor="middle" x="529" y="-202" font-family="Helvetica,sans-Serif" font-size="10.00">PointPairTests.test</text>
</a>
</g>
</g>
<!-- Node15&#45;&gt;Node16 -->
<g id="edge15" class="edge"><title>Node15&#45;&gt;Node16</title>
<path fill="none" stroke="midnightblue" d="M385.188,-232.678C405.777,-229.409 427.522,-225.956 447.667,-222.757"/>
<polygon fill="midnightblue" stroke="midnightblue" points="384.513,-229.242 375.185,-234.267 385.611,-236.155 384.513,-229.242"/>
</g>
<!-- Node17 -->
<g id="node17" class="node"><title>Node17</title>
<g id="a_node17"><a xlink:href="../../d3/d33/classtests_1_1screen_wrap_tests_1_1_mapper_point_pair_tests.html#aecaf7db29e98245d53ec0b2af045a3c4" target="_top" xlink:title="tests.screenWrapTests.Mapper\lPointPairTests.testRightScreen">
<polygon fill="white" stroke="black" points="698,-384 698,-414 860,-414 860,-384 698,-384"/>
<text text-anchor="start" x="706" y="-402" font-family="Helvetica,sans-Serif" font-size="10.00">tests.screenWrapTests.Mapper</text>
<text text-anchor="middle" x="779" y="-391" font-family="Helvetica,sans-Serif" font-size="10.00">PointPairTests.testRightScreen</text>
</a>
</g>
</g>
<!-- Node16&#45;&gt;Node17 -->
<g id="edge16" class="edge"><title>Node16&#45;&gt;Node17</title>
<path fill="none" stroke="midnightblue" d="M619.802,-221.235C627.225,-224.785 634.12,-229.294 640,-235 685.795,-279.444 630.581,-329.171 676,-374 682.229,-380.148 689.707,-384.869 697.749,-388.483"/>
<polygon fill="midnightblue" stroke="midnightblue" points="620.733,-217.832 610.155,-217.232 618.051,-224.297 620.733,-217.832"/>
</g>
<!-- Node18 -->
<g id="node18" class="node"><title>Node18</title>
<g id="a_node18"><a xlink:href="../../d3/d33/classtests_1_1screen_wrap_tests_1_1_mapper_point_pair_tests.html#aa42026a0396afbe6d497e6523a476711" target="_top" xlink:title="tests.screenWrapTests.Mapper\lPointPairTests.testTopRightDiagonal\lScreen">
<polygon fill="white" stroke="black" points="686.5,-324.5 686.5,-365.5 871.5,-365.5 871.5,-324.5 686.5,-324.5"/>
<text text-anchor="start" x="694.5" y="-353.5" font-family="Helvetica,sans-Serif" font-size="10.00">tests.screenWrapTests.Mapper</text>
<text text-anchor="start" x="694.5" y="-342.5" font-family="Helvetica,sans-Serif" font-size="10.00">PointPairTests.testTopRightDiagonal</text>
<text text-anchor="middle" x="779" y="-331.5" font-family="Helvetica,sans-Serif" font-size="10.00">Screen</text>
</a>
</g>
</g>
<!-- Node16&#45;&gt;Node18 -->
<g id="edge17" class="edge"><title>Node16&#45;&gt;Node18</title>
<path fill="none" stroke="midnightblue" d="M619.6,-222.661C626.936,-225.933 633.872,-229.986 640,-235 670.177,-259.689 646.61,-289.379 676,-315 680.035,-318.518 684.465,-321.623 689.148,-324.365"/>
<polygon fill="midnightblue" stroke="midnightblue" points="620.711,-219.337 610.124,-218.921 618.141,-225.848 620.711,-219.337"/>
</g>
<!-- Node19 -->
<g id="node19" class="node"><title>Node19</title>
<g id="a_node19"><a xlink:href="../../d3/d33/classtests_1_1screen_wrap_tests_1_1_mapper_point_pair_tests.html#a752b84bf403b555dbf9ed9c8cca52e0a" target="_top" xlink:title="tests.screenWrapTests.Mapper\lPointPairTests.testTopScreen">
<polygon fill="white" stroke="black" points="698,-276 698,-306 860,-306 860,-276 698,-276"/>
<text text-anchor="start" x="706" y="-294" font-family="Helvetica,sans-Serif" font-size="10.00">tests.screenWrapTests.Mapper</text>
<text text-anchor="middle" x="779" y="-283" font-family="Helvetica,sans-Serif" font-size="10.00">PointPairTests.testTopScreen</text>
</a>
</g>
</g>
<!-- Node16&#45;&gt;Node19 -->
<g id="edge18" class="edge"><title>Node16&#45;&gt;Node19</title>
<path fill="none" stroke="midnightblue" d="M619.692,-226.463C626.715,-228.928 633.569,-231.756 640,-235 658.852,-244.51 657.229,-256.332 676,-266 683.537,-269.882 691.701,-273.179 700.016,-275.975"/>
<polygon fill="midnightblue" stroke="midnightblue" points="620.628,-223.087 610.035,-223.323 618.463,-229.744 620.628,-223.087"/>
</g>
<!-- Node20 -->
<g id="node20" class="node"><title>Node20</title>
<g id="a_node20"><a xlink:href="../../d3/d33/classtests_1_1screen_wrap_tests_1_1_mapper_point_pair_tests.html#a3fca68ba79dc641626f3912ba6f2d810" target="_top" xlink:title="tests.screenWrapTests.Mapper\lPointPairTests.testTopLeftDiagonal\lScreen">
<polygon fill="white" stroke="black" points="689.5,-216.5 689.5,-257.5 868.5,-257.5 868.5,-216.5 689.5,-216.5"/>
<text text-anchor="start" x="697.5" y="-245.5" font-family="Helvetica,sans-Serif" font-size="10.00">tests.screenWrapTests.Mapper</text>
<text text-anchor="start" x="697.5" y="-234.5" font-family="Helvetica,sans-Serif" font-size="10.00">PointPairTests.testTopLeftDiagonal</text>
<text text-anchor="middle" x="779" y="-223.5" font-family="Helvetica,sans-Serif" font-size="10.00">Screen</text>
</a>
</g>
</g>
<!-- Node16&#45;&gt;Node20 -->
<g id="edge19" class="edge"><title>Node16&#45;&gt;Node20</title>
<path fill="none" stroke="midnightblue" d="M620.348,-219.836C642.754,-222.276 666.746,-224.888 689.083,-227.32"/>
<polygon fill="midnightblue" stroke="midnightblue" points="620.496,-216.332 610.176,-218.729 619.738,-223.291 620.496,-216.332"/>
</g>
<!-- Node21 -->
<g id="node21" class="node"><title>Node21</title>
<g id="a_node21"><a xlink:href="../../d3/d33/classtests_1_1screen_wrap_tests_1_1_mapper_point_pair_tests.html#ab7c6fdef03cf2f45a3d6084490f21abc" target="_top" xlink:title="tests.screenWrapTests.Mapper\lPointPairTests.testLeftScreen">
<polygon fill="white" stroke="black" points="698,-168 698,-198 860,-198 860,-168 698,-168"/>
<text text-anchor="start" x="706" y="-186" font-family="Helvetica,sans-Serif" font-size="10.00">tests.screenWrapTests.Mapper</text>
<text text-anchor="middle" x="779" y="-175" font-family="Helvetica,sans-Serif" font-size="10.00">PointPairTests.testLeftScreen</text>
</a>
</g>
</g>
<!-- Node16&#45;&gt;Node21 -->
<g id="edge20" class="edge"><title>Node16&#45;&gt;Node21</title>
<path fill="none" stroke="midnightblue" d="M620.157,-200.185C645.52,-197.423 672.928,-194.439 697.676,-191.745"/>
<polygon fill="midnightblue" stroke="midnightblue" points="619.738,-196.709 610.176,-201.271 620.496,-203.668 619.738,-196.709"/>
</g>
<!-- Node22 -->
<g id="node22" class="node"><title>Node22</title>
<g id="a_node22"><a xlink:href="../../d3/d33/classtests_1_1screen_wrap_tests_1_1_mapper_point_pair_tests.html#a6228c4b5099f63880c16e00ccbdbadc8" target="_top" xlink:title="tests.screenWrapTests.Mapper\lPointPairTests.testBottomLeftDiagonal\lScreen">
<polygon fill="white" stroke="black" points="679,-108.5 679,-149.5 879,-149.5 879,-108.5 679,-108.5"/>
<text text-anchor="start" x="687" y="-137.5" font-family="Helvetica,sans-Serif" font-size="10.00">tests.screenWrapTests.Mapper</text>
<text text-anchor="start" x="687" y="-126.5" font-family="Helvetica,sans-Serif" font-size="10.00">PointPairTests.testBottomLeftDiagonal</text>
<text text-anchor="middle" x="779" y="-115.5" font-family="Helvetica,sans-Serif" font-size="10.00">Screen</text>
</a>
</g>
</g>
<!-- Node16&#45;&gt;Node22 -->
<g id="edge21" class="edge"><title>Node16&#45;&gt;Node22</title>
<path fill="none" stroke="midnightblue" d="M580.911,-191.514C608.867,-181.541 644.218,-169.218 676,-159 685.841,-155.836 696.257,-152.621 706.526,-149.528"/>
<polygon fill="midnightblue" stroke="midnightblue" points="579.585,-188.272 571.349,-194.937 581.944,-194.862 579.585,-188.272"/>
</g>
<!-- Node23 -->
<g id="node23" class="node"><title>Node23</title>
<g id="a_node23"><a xlink:href="../../d3/d33/classtests_1_1screen_wrap_tests_1_1_mapper_point_pair_tests.html#a1e1a4a4b1c54288788ab791a4a9802ba" target="_top" xlink:title="tests.screenWrapTests.Mapper\lPointPairTests.testBottomScreen">
<polygon fill="white" stroke="black" points="692.5,-60 692.5,-90 865.5,-90 865.5,-60 692.5,-60"/>
<text text-anchor="start" x="700.5" y="-78" font-family="Helvetica,sans-Serif" font-size="10.00">tests.screenWrapTests.Mapper</text>
<text text-anchor="middle" x="779" y="-67" font-family="Helvetica,sans-Serif" font-size="10.00">PointPairTests.testBottomScreen</text>
</a>
</g>
</g>
<!-- Node16&#45;&gt;Node23 -->
<g id="edge22" class="edge"><title>Node16&#45;&gt;Node23</title>
<path fill="none" stroke="midnightblue" d="M574.304,-190.459C595.56,-179.786 620.565,-165.226 640,-148 660.223,-130.076 653.457,-113.903 676,-99 681.236,-95.5388 686.913,-92.5747 692.817,-90.0365"/>
<polygon fill="midnightblue" stroke="midnightblue" points="572.59,-187.401 565.143,-194.938 575.664,-193.69 572.59,-187.401"/>
</g>
<!-- Node24 -->
<g id="node24" class="node"><title>Node24</title>
<g id="a_node24"><a xlink:href="../../d3/d33/classtests_1_1screen_wrap_tests_1_1_mapper_point_pair_tests.html#a20caa6e9b49389619463a4a0fa334397" target="_top" xlink:title="tests.screenWrapTests.Mapper\lPointPairTests.testBottomRightDiagonal\lScreen">
<polygon fill="white" stroke="black" points="676,-0.5 676,-41.5 882,-41.5 882,-0.5 676,-0.5"/>
<text text-anchor="start" x="684" y="-29.5" font-family="Helvetica,sans-Serif" font-size="10.00">tests.screenWrapTests.Mapper</text>
<text text-anchor="start" x="684" y="-18.5" font-family="Helvetica,sans-Serif" font-size="10.00">PointPairTests.testBottomRightDiagonal</text>
<text text-anchor="middle" x="779" y="-7.5" font-family="Helvetica,sans-Serif" font-size="10.00">Screen</text>
</a>
</g>
</g>
<!-- Node16&#45;&gt;Node24 -->
<g id="edge23" class="edge"><title>Node16&#45;&gt;Node24</title>
<path fill="none" stroke="midnightblue" d="M580.933,-190.557C601.604,-180.514 624.266,-166.437 640,-148 669.851,-113.021 642.377,-82.3695 676,-51 679.779,-47.4743 683.952,-44.3609 688.386,-41.6119"/>
<polygon fill="midnightblue" stroke="midnightblue" points="579.203,-187.502 571.608,-194.889 582.152,-193.85 579.203,-187.502"/>
</g>
<!-- Node28 -->
<g id="node28" class="node"><title>Node28</title>
<g id="a_node28"><a xlink:href="../../df/d5f/classgui_1_1factories_1_1turtlefactory_1_1_turtle_factory.html#a68a8fca83dc5ca127be73f046950ef54" target="_top" xlink:title="gui.factories.turtlefactory.\lTurtleFactory.generateObject">
<polygon fill="white" stroke="black" points="453,-109 453,-139 605,-139 605,-109 453,-109"/>
<text text-anchor="start" x="461" y="-127" font-family="Helvetica,sans-Serif" font-size="10.00">gui.factories.turtlefactory.</text>
<text text-anchor="middle" x="529" y="-116" font-family="Helvetica,sans-Serif" font-size="10.00">TurtleFactory.generateObject</text>
</a>
</g>
</g>
<!-- Node27&#45;&gt;Node28 -->
<g id="edge27" class="edge"><title>Node27&#45;&gt;Node28</title>
<path fill="none" stroke="midnightblue" d="M375.419,-108.284C400.46,-110.863 427.969,-113.696 452.649,-116.239"/>
<polygon fill="midnightblue" stroke="midnightblue" points="375.53,-104.776 365.224,-107.233 374.812,-111.74 375.53,-104.776"/>
</g>
<!-- Node29 -->
<g id="node29" class="node"><title>Node29</title>
<g id="a_node29"><a xlink:href="../../d1/d95/classgui_1_1factories_1_1turtlefactory_1_1_turtle_node.html#aeae66bb4bbd0ee69922deaf346872467" target="_top" xlink:title="gui.factories.turtlefactory.\lTurtleNode.TurtleNode">
<polygon fill="white" stroke="black" points="460,-60 460,-90 598,-90 598,-60 460,-60"/>
<text text-anchor="start" x="468" y="-78" font-family="Helvetica,sans-Serif" font-size="10.00">gui.factories.turtlefactory.</text>
<text text-anchor="middle" x="529" y="-67" font-family="Helvetica,sans-Serif" font-size="10.00">TurtleNode.TurtleNode</text>
</a>
</g>
</g>
<!-- Node27&#45;&gt;Node29 -->
<g id="edge28" class="edge"><title>Node27&#45;&gt;Node29</title>
<path fill="none" stroke="midnightblue" d="M375.235,-91.3911C402.813,-88.4321 433.403,-85.1499 459.922,-82.3045"/>
<polygon fill="midnightblue" stroke="midnightblue" points="374.793,-87.9183 365.224,-92.4653 375.54,-94.8784 374.793,-87.9183"/>
</g>
</g>
</svg>
        <g id="navigator" transform="translate(0 0)" fill="#404254">
                <rect fill="#f2f5e9" fill-opacity="0.5" stroke="#606060" stroke-width=".5" x="0" y="0" width="60" height="60"/>
                <use id="zoomplus" xlink:href="#zoomPlus" x="17" y="9" onmousedown="handleZoom(evt,'in')"/>
                <use id="zoomminus" xlink:href="#zoomMin" x="42" y="9" onmousedown="handleZoom(evt,'out')"/>
                <use id="reset" xlink:href="#resetDef" x="30" y="36" onmousedown="handleReset()"/>
                <g id="arrowUp" xlink:href="#dirArrow" transform="translate(30 24)" onmousedown="handlePan(0,-1)">
                  <use xlink:href="#rim" fill="#404040">
                        <set attributeName="fill" to="#808080" begin="arrowUp.mouseover" end="arrowUp.mouseout"/>
                  </use>
                  <path fill="none" stroke="white" stroke-width="1.5" d="M0,-3.0v7 M-2.5,-0.5L0,-3.0L2.5,-0.5"/>
                </g>
                <g id="arrowRight" xlink:href="#dirArrow" transform="rotate(90) translate(36 -43)" onmousedown="handlePan(1,0)">
                  <use xlink:href="#rim" fill="#404040">
                        <set attributeName="fill" to="#808080" begin="arrowRight.mouseover" end="arrowRight.mouseout"/>
                  </use>
                  <path fill="none" stroke="white" stroke-width="1.5" d="M0,-3.0v7 M-2.5,-0.5L0,-3.0L2.5,-0.5"/>
                </g>
                <g id="arrowDown" xlink:href="#dirArrow" transform="rotate(180) translate(-30 -48)" onmousedown="handlePan(0,1)">
                  <use xlink:href="#rim" fill="#404040">
                        <set attributeName="fill" to="#808080" begin="arrowDown.mouseover" end="arrowDown.mouseout"/>
                  </use>
                  <path fill="none" stroke="white" stroke-width="1.5" d="M0,-3.0v7 M-2.5,-0.5L0,-3.0L2.5,-0.5"/>
                </g>
                <g id="arrowLeft" xlink:href="#dirArrow" transform="rotate(270) translate(-36 17)" onmousedown="handlePan(-1,0)">
                  <use xlink:href="#rim" fill="#404040">
                        <set attributeName="fill" to="#808080" begin="arrowLeft.mouseover" end="arrowLeft.mouseout"/>
                  </use>
                  <path fill="none" stroke="white" stroke-width="1.5" d="M0,-3.0v7 M-2.5,-0.5L0,-3.0L2.5,-0.5"/>
                </g>
        </g>
        <svg viewBox="0 0 15 15" width="100%" height="30px" preserveAspectRatio="xMaxYMin meet">
         <g id="arrow_out" transform="scale(0.3 0.3)">
          <a xlink:href="classgui_1_1turtlescreenwrap_1_1_tesselation_mapper_accb8e9b832acd2b297b33650dbef962d_icgraph_org.svg" target="_base">
           <rect id="button" ry="5" rx="5" y="6" x="6" height="38" width="38"
                fill="#f2f5e9" fill-opacity="0.5" stroke="#606060" stroke-width="1.0"/>
           <path id="arrow"
             d="M 11.500037,31.436501 C 11.940474,20.09759 22.043105,11.32322 32.158766,21.979434 L 37.068811,17.246167 C 37.068811,17.246167 37.088388,32 37.088388,32 L 22.160133,31.978069 C 22.160133,31.978069 26.997745,27.140456 26.997745,27.140456 C 18.528582,18.264221 13.291696,25.230495 11.500037,31.436501 z"
             style="fill:#404040;"/>
          </a>
         </g>
        </svg>
</svg>
