<?xml version="1.0" encoding="UTF-8" standalone="no"?>
<!DOCTYPE svg PUBLIC "-//W3C//DTD SVG 1.1//EN"
 "http://www.w3.org/Graphics/SVG/1.1/DTD/svg11.dtd">
<!-- Generated by graphviz version 2.36.0 (20140111.2315)
 -->
<!-- Title: gui.turtlescreenwrap.TesselationMapper.checkOffScreen Pages: 1 -->
<!--zoomable 939 -->
<svg id="main" version="1.1" xmlns="http://www.w3.org/2000/svg" xmlns:xlink="http://www.w3.org/1999/xlink" xml:space="preserve" onload="init(evt)">
<style type="text/css"><![CDATA[
.edge:hover path { stroke: red; }
.edge:hover polygon { stroke: red; fill: red; }
]]></style>
<script type="text/javascript"><![CDATA[
var edges = document.getElementsByTagName('g');
if (edges && edges.length) {
  for (var i=0;i<edges.length;i++) {
    if (edges[i].id.substr(0,4)=='edge') {
      edges[i].setAttribute('class','edge');
    }
  }
}
]]></script>
        <defs>
                <circle id="rim" cx="0" cy="0" r="7"/>
                <circle id="rim2" cx="0" cy="0" r="3.5"/>
                <g id="zoomPlus">
                        <use xlink:href="#rim" fill="#404040">
                                <set attributeName="fill" to="#808080" begin="zoomplus.mouseover" end="zoomplus.mouseout"/>
                        </use>
                        <path d="M-4,0h8M0,-4v8" fill="none" stroke="white" stroke-width="1.5" pointer-events="none"/>
                </g>
                <g id="zoomMin">
                        <use xlink:href="#rim" fill="#404040">
                                <set attributeName="fill" to="#808080" begin="zoomminus.mouseover" end="zoomminus.mouseout"/>
                        </use>
                        <path d="M-4,0h8" fill="none" stroke="white" stroke-width="1.5" pointer-events="none"/>
                </g>
                <g id="dirArrow">
                        <path fill="none" stroke="white" stroke-width="1.5" d="M0,-3.0v7 M-2.5,-0.5L0,-3.0L2.5,-0.5"/>
                </g>
               <g id="resetDef">
                       <use xlink:href="#rim2" fill="#404040">
                               <set attributeName="fill" to="#808080" begin="reset.mouseover" end="reset.mouseout"/>
                       </use>
               </g>
        </defs>

<script type="text/javascript">
var viewWidth = 1128;
var viewHeight = 939;
var sectionId = 'dynsection-0';
</script>
<script xlink:href="../../svgpan.js"/>
<svg id="graph" class="graph">
<g id="viewport">
<title>gui.turtlescreenwrap.TesselationMapper.checkOffScreen</title>
<polygon fill="white" stroke="none" points="-4,4 -4,-935 1124,-935 1124,4 -4,4"/>
<!-- Node1 -->
<g id="node1" class="node"><title>Node1</title>
<polygon fill="#bfbfbf" stroke="black" points="0,-447 0,-477 170,-477 170,-447 0,-447"/>
<text text-anchor="start" x="8" y="-465" font-family="Helvetica,sans-Serif" font-size="10.00">gui.turtlescreenwrap.Tesselation</text>
<text text-anchor="middle" x="85" y="-454" font-family="Helvetica,sans-Serif" font-size="10.00">Mapper.checkOffScreen</text>
</g>
<!-- Node2 -->
<g id="node2" class="node"><title>Node2</title>
<g id="a_node2"><a xlink:href="../../d7/d9f/classgui_1_1turtlescreenwrap_1_1_horizontal_turtle_screen_wrap.html#a40b4c312a593132d0f3c1ab3f312ae6d" target="_top" xlink:title="gui.turtlescreenwrap.Horizontal\lTurtleScreenWrap.fragmentPoint2DPair">
<polygon fill="white" stroke="black" points="206.5,-560 206.5,-590 407.5,-590 407.5,-560 206.5,-560"/>
<text text-anchor="start" x="214.5" y="-578" font-family="Helvetica,sans-Serif" font-size="10.00">gui.turtlescreenwrap.Horizontal</text>
<text text-anchor="middle" x="307" y="-567" font-family="Helvetica,sans-Serif" font-size="10.00">TurtleScreenWrap.fragmentPoint2DPair</text>
</a>
</g>
</g>
<!-- Node1&#45;&gt;Node2 -->
<g id="edge1" class="edge"><title>Node1&#45;&gt;Node2</title>
<path fill="none" stroke="midnightblue" d="M112.006,-483.594C135.363,-502.078 171.233,-528.279 206,-545 218.169,-550.853 231.725,-555.84 244.829,-559.969"/>
<polygon fill="midnightblue" stroke="midnightblue" points="113.983,-480.693 103.992,-477.165 109.602,-486.153 113.983,-480.693"/>
</g>
<!-- Node3 -->
<g id="node3" class="node"><title>Node3</title>
<g id="a_node3"><a xlink:href="../../d8/dec/classgui_1_1turtlescreenwrap_1_1_turtle_screen_wrap.html#a5ef2b5f6381070a4a78575ef1207dc44" target="_top" xlink:title="gui.turtlescreenwrap.Turtle\lScreenWrap.fragmentPoint2DPair">
<polygon fill="white" stroke="black" points="444,-538 444,-568 620,-568 620,-538 444,-538"/>
<text text-anchor="start" x="452" y="-556" font-family="Helvetica,sans-Serif" font-size="10.00">gui.turtlescreenwrap.Turtle</text>
<text text-anchor="middle" x="532" y="-545" font-family="Helvetica,sans-Serif" font-size="10.00">ScreenWrap.fragmentPoint2DPair</text>
</a>
</g>
</g>
<!-- Node1&#45;&gt;Node3 -->
<g id="edge17" class="edge"><title>Node1&#45;&gt;Node3</title>
<path fill="none" stroke="midnightblue" d="M126.197,-481.475C149.087,-491.78 178.585,-503.763 206,-511 285.075,-531.874 377.82,-542.549 443.95,-547.896"/>
<polygon fill="midnightblue" stroke="midnightblue" points="127.367,-478.162 116.818,-477.181 124.453,-484.526 127.367,-478.162"/>
</g>
<!-- Node16 -->
<g id="node16" class="node"><title>Node16</title>
<g id="a_node16"><a xlink:href="../../d2/d04/classgui_1_1turtlescreenwrap_1_1_vertical_turtle_screen_wrap.html#a09a534d1bb5b5dd4b71354711ec0a7ac" target="_top" xlink:title="gui.turtlescreenwrap.Vertical\lTurtleScreenWrap.fragmentPoint2DPair">
<polygon fill="white" stroke="black" points="206.5,-472 206.5,-502 407.5,-502 407.5,-472 206.5,-472"/>
<text text-anchor="start" x="214.5" y="-490" font-family="Helvetica,sans-Serif" font-size="10.00">gui.turtlescreenwrap.Vertical</text>
<text text-anchor="middle" x="307" y="-479" font-family="Helvetica,sans-Serif" font-size="10.00">TurtleScreenWrap.fragmentPoint2DPair</text>
</a>
</g>
</g>
<!-- Node1&#45;&gt;Node16 -->
<g id="edge15" class="edge"><title>Node1&#45;&gt;Node16</title>
<path fill="none" stroke="midnightblue" d="M180.233,-472.708C188.916,-473.695 197.733,-474.697 206.461,-475.689"/>
<polygon fill="midnightblue" stroke="midnightblue" points="180.446,-469.21 170.114,-471.558 179.655,-476.165 180.446,-469.21"/>
</g>
<!-- Node17 -->
<g id="node17" class="node"><title>Node17</title>
<g id="a_node17"><a xlink:href="../../d8/dec/classgui_1_1turtlescreenwrap_1_1_turtle_screen_wrap.html#a12eea89f671040d3f523c73077a66735" target="_top" xlink:title="gui.turtlescreenwrap.Turtle\lScreenWrap.getExitEdge">
<polygon fill="white" stroke="black" points="235.5,-423 235.5,-453 378.5,-453 378.5,-423 235.5,-423"/>
<text text-anchor="start" x="243.5" y="-441" font-family="Helvetica,sans-Serif" font-size="10.00">gui.turtlescreenwrap.Turtle</text>
<text text-anchor="middle" x="307" y="-430" font-family="Helvetica,sans-Serif" font-size="10.00">ScreenWrap.getExitEdge</text>
</a>
</g>
</g>
<!-- Node1&#45;&gt;Node17 -->
<g id="edge18" class="edge"><title>Node1&#45;&gt;Node17</title>
<path fill="none" stroke="midnightblue" d="M180.267,-451.716C198.678,-449.708 217.689,-447.634 235.18,-445.726"/>
<polygon fill="midnightblue" stroke="midnightblue" points="179.676,-448.26 170.114,-452.824 180.435,-455.219 179.676,-448.26"/>
</g>
<!-- Node18 -->
<g id="node18" class="node"><title>Node18</title>
<g id="a_node18"><a xlink:href="../../d2/d8c/classgui_1_1turtlescreenwrap_1_1_tesselation_mapper.html#accb8e9b832acd2b297b33650dbef962d" target="_top" xlink:title="gui.turtlescreenwrap.Tesselation\lMapper.map">
<polygon fill="white" stroke="black" points="222,-298 222,-328 392,-328 392,-298 222,-298"/>
<text text-anchor="start" x="230" y="-316" font-family="Helvetica,sans-Serif" font-size="10.00">gui.turtlescreenwrap.Tesselation</text>
<text text-anchor="middle" x="307" y="-305" font-family="Helvetica,sans-Serif" font-size="10.00">Mapper.map</text>
</a>
</g>
</g>
<!-- Node1&#45;&gt;Node18 -->
<g id="edge20" class="edge"><title>Node1&#45;&gt;Node18</title>
<path fill="none" stroke="midnightblue" d="M116.76,-441.167C161.65,-410.764 244.062,-354.949 283.635,-328.147"/>
<polygon fill="midnightblue" stroke="midnightblue" points="114.623,-438.388 108.305,-446.893 118.548,-444.183 114.623,-438.388"/>
</g>
<!-- Node33 -->
<g id="node33" class="node"><title>Node33</title>
<g id="a_node33"><a xlink:href="../../dc/dcd/classtests_1_1screen_wrap_tests_1_1_mapper_random_point_tests.html#a362d586493bb4f1889865a8545a6c551" target="_top" xlink:title="tests.screenWrapTests.Mapper\lRandomPointTests.testRandom">
<polygon fill="white" stroke="black" points="449,-176 449,-206 615,-206 615,-176 449,-176"/>
<text text-anchor="start" x="457" y="-194" font-family="Helvetica,sans-Serif" font-size="10.00">tests.screenWrapTests.Mapper</text>
<text text-anchor="middle" x="532" y="-183" font-family="Helvetica,sans-Serif" font-size="10.00">RandomPointTests.testRandom</text>
</a>
</g>
</g>
<!-- Node1&#45;&gt;Node33 -->
<g id="edge37" class="edge"><title>Node1&#45;&gt;Node33</title>
<path fill="none" stroke="midnightblue" d="M96.3263,-437.671C113.54,-400.016 151.655,-327.818 206,-288 277.96,-235.276 378.571,-210.984 448.72,-199.937"/>
<polygon fill="midnightblue" stroke="midnightblue" points="93.0913,-436.332 92.2157,-446.891 99.4846,-439.183 93.0913,-436.332"/>
</g>
<!-- Node2&#45;&gt;Node3 -->
<g id="edge2" class="edge"><title>Node2&#45;&gt;Node3</title>
<path fill="none" stroke="midnightblue" d="M417.967,-564.151C426.678,-563.292 435.401,-562.431 443.924,-561.59"/>
<polygon fill="midnightblue" stroke="midnightblue" points="417.368,-560.693 407.76,-565.158 418.055,-567.659 417.368,-560.693"/>
</g>
<!-- Node4 -->
<g id="node4" class="node"><title>Node4</title>
<g id="a_node4"><a xlink:href="../../df/d1f/classtests_1_1screen_wrap_tests_1_1_turtle_screen_wrap_tests.html#a84f8307a9e2fa54ba4670a8f8c8f5d63" target="_top" xlink:title="tests.screenWrapTests.Turtle\lScreenWrapTests.exitTopRightDiagonally">
<polygon fill="white" stroke="black" points="663.5,-901 663.5,-931 870.5,-931 870.5,-901 663.5,-901"/>
<text text-anchor="start" x="671.5" y="-919" font-family="Helvetica,sans-Serif" font-size="10.00">tests.screenWrapTests.Turtle</text>
<text text-anchor="middle" x="767" y="-908" font-family="Helvetica,sans-Serif" font-size="10.00">ScreenWrapTests.exitTopRightDiagonally</text>
</a>
</g>
</g>
<!-- Node3&#45;&gt;Node4 -->
<g id="edge3" class="edge"><title>Node3&#45;&gt;Node4</title>
<path fill="none" stroke="midnightblue" d="M534.32,-578.523C539.027,-641.757 560.339,-806.652 656,-891 660.333,-894.821 665.129,-898.093 670.222,-900.893"/>
<polygon fill="midnightblue" stroke="midnightblue" points="537.794,-578.018 533.639,-568.272 530.809,-578.482 537.794,-578.018"/>
</g>
<!-- Node5 -->
<g id="node5" class="node"><title>Node5</title>
<g id="a_node5"><a xlink:href="../../df/d1f/classtests_1_1screen_wrap_tests_1_1_turtle_screen_wrap_tests.html#a9b25b860fd3d50aaaf783cc87d8bf644" target="_top" xlink:title="tests.screenWrapTests.Turtle\lScreenWrapTests.exitTopLeftDiagonally">
<polygon fill="white" stroke="black" points="666.5,-852 666.5,-882 867.5,-882 867.5,-852 666.5,-852"/>
<text text-anchor="start" x="674.5" y="-870" font-family="Helvetica,sans-Serif" font-size="10.00">tests.screenWrapTests.Turtle</text>
<text text-anchor="middle" x="767" y="-859" font-family="Helvetica,sans-Serif" font-size="10.00">ScreenWrapTests.exitTopLeftDiagonally</text>
</a>
</g>
</g>
<!-- Node3&#45;&gt;Node5 -->
<g id="edge4" class="edge"><title>Node3&#45;&gt;Node5</title>
<path fill="none" stroke="midnightblue" d="M536.048,-578.267C544.266,-634.805 572.239,-772.027 656,-842 660.584,-845.829 665.637,-849.101 670.983,-851.894"/>
<polygon fill="midnightblue" stroke="midnightblue" points="539.478,-577.514 534.657,-568.08 532.542,-578.461 539.478,-577.514"/>
</g>
<!-- Node6 -->
<g id="node6" class="node"><title>Node6</title>
<g id="a_node6"><a xlink:href="../../df/d1f/classtests_1_1screen_wrap_tests_1_1_turtle_screen_wrap_tests.html#a00650f413c6293abeecbbc5f162bfefe" target="_top" xlink:title="tests.screenWrapTests.Turtle\lScreenWrapTests.exitBottomRight\lDiagonally">
<polygon fill="white" stroke="black" points="678,-792.5 678,-833.5 856,-833.5 856,-792.5 678,-792.5"/>
<text text-anchor="start" x="686" y="-821.5" font-family="Helvetica,sans-Serif" font-size="10.00">tests.screenWrapTests.Turtle</text>
<text text-anchor="start" x="686" y="-810.5" font-family="Helvetica,sans-Serif" font-size="10.00">ScreenWrapTests.exitBottomRight</text>
<text text-anchor="middle" x="767" y="-799.5" font-family="Helvetica,sans-Serif" font-size="10.00">Diagonally</text>
</a>
</g>
</g>
<!-- Node3&#45;&gt;Node6 -->
<g id="edge5" class="edge"><title>Node3&#45;&gt;Node6</title>
<path fill="none" stroke="midnightblue" d="M539.188,-577.759C552.318,-625.061 587.528,-728.42 656,-783 662.578,-788.244 670.004,-792.573 677.815,-796.148"/>
<polygon fill="midnightblue" stroke="midnightblue" points="542.551,-576.788 536.583,-568.034 535.79,-578.599 542.551,-576.788"/>
</g>
<!-- Node7 -->
<g id="node7" class="node"><title>Node7</title>
<g id="a_node7"><a xlink:href="../../df/d1f/classtests_1_1screen_wrap_tests_1_1_turtle_screen_wrap_tests.html#a7b6f09ead374e3a569d64aaf38a0ee6d" target="_top" xlink:title="tests.screenWrapTests.Turtle\lScreenWrapTests.exitBottomLeftDiagonally">
<polygon fill="white" stroke="black" points="656.5,-744 656.5,-774 877.5,-774 877.5,-744 656.5,-744"/>
<text text-anchor="start" x="664.5" y="-762" font-family="Helvetica,sans-Serif" font-size="10.00">tests.screenWrapTests.Turtle</text>
<text text-anchor="middle" x="767" y="-751" font-family="Helvetica,sans-Serif" font-size="10.00">ScreenWrapTests.exitBottomLeftDiagonally</text>
</a>
</g>
</g>
<!-- Node3&#45;&gt;Node7 -->
<g id="edge6" class="edge"><title>Node3&#45;&gt;Node7</title>
<path fill="none" stroke="midnightblue" d="M542.638,-577.671C559.408,-617.201 597.824,-694.311 656,-734 661.662,-737.863 667.832,-741.137 674.266,-743.911"/>
<polygon fill="midnightblue" stroke="midnightblue" points="545.801,-576.16 538.752,-568.251 539.33,-578.83 545.801,-576.16"/>
</g>
<!-- Node8 -->
<g id="node8" class="node"><title>Node8</title>
<g id="a_node8"><a xlink:href="../../df/d1f/classtests_1_1screen_wrap_tests_1_1_turtle_screen_wrap_tests.html#a83f756a9cbdd2a8c906c5270c13b6aff" target="_top" xlink:title="tests.screenWrapTests.Turtle\lScreenWrapTests.exitRightTopDiagonally">
<polygon fill="white" stroke="black" points="663.5,-695 663.5,-725 870.5,-725 870.5,-695 663.5,-695"/>
<text text-anchor="start" x="671.5" y="-713" font-family="Helvetica,sans-Serif" font-size="10.00">tests.screenWrapTests.Turtle</text>
<text text-anchor="middle" x="767" y="-702" font-family="Helvetica,sans-Serif" font-size="10.00">ScreenWrapTests.exitRightTopDiagonally</text>
</a>
</g>
</g>
<!-- Node3&#45;&gt;Node8 -->
<g id="edge7" class="edge"><title>Node3&#45;&gt;Node8</title>
<path fill="none" stroke="midnightblue" d="M548.234,-576.588C568.912,-606.607 608.757,-657.82 656,-685 662.79,-688.907 670.144,-692.203 677.719,-694.984"/>
<polygon fill="midnightblue" stroke="midnightblue" points="550.937,-574.336 542.444,-568.002 545.133,-578.25 550.937,-574.336"/>
</g>
<!-- Node9 -->
<g id="node9" class="node"><title>Node9</title>
<g id="a_node9"><a xlink:href="../../df/d1f/classtests_1_1screen_wrap_tests_1_1_turtle_screen_wrap_tests.html#ac86ad58070045f6e75e619d34b133cbe" target="_top" xlink:title="tests.screenWrapTests.Turtle\lScreenWrapTests.exitRightBOttom\lDiagonally">
<polygon fill="white" stroke="black" points="677.5,-635.5 677.5,-676.5 856.5,-676.5 856.5,-635.5 677.5,-635.5"/>
<text text-anchor="start" x="685.5" y="-664.5" font-family="Helvetica,sans-Serif" font-size="10.00">tests.screenWrapTests.Turtle</text>
<text text-anchor="start" x="685.5" y="-653.5" font-family="Helvetica,sans-Serif" font-size="10.00">ScreenWrapTests.exitRightBOttom</text>
<text text-anchor="middle" x="767" y="-642.5" font-family="Helvetica,sans-Serif" font-size="10.00">Diagonally</text>
</a>
</g>
</g>
<!-- Node3&#45;&gt;Node9 -->
<g id="edge8" class="edge"><title>Node3&#45;&gt;Node9</title>
<path fill="none" stroke="midnightblue" d="M562.652,-573.7C586.847,-589.812 622.403,-611.758 656,-626 664.11,-629.438 672.724,-632.587 681.423,-635.444"/>
<polygon fill="midnightblue" stroke="midnightblue" points="564.525,-570.741 554.277,-568.053 560.611,-576.545 564.525,-570.741"/>
</g>
<!-- Node10 -->
<g id="node10" class="node"><title>Node10</title>
<g id="a_node10"><a xlink:href="../../df/d1f/classtests_1_1screen_wrap_tests_1_1_turtle_screen_wrap_tests.html#a08ce37429aff7988e44b90649df211d6" target="_top" xlink:title="tests.screenWrapTests.Turtle\lScreenWrapTests.exitLeftTopDiagonally">
<polygon fill="white" stroke="black" points="666.5,-587 666.5,-617 867.5,-617 867.5,-587 666.5,-587"/>
<text text-anchor="start" x="674.5" y="-605" font-family="Helvetica,sans-Serif" font-size="10.00">tests.screenWrapTests.Turtle</text>
<text text-anchor="middle" x="767" y="-594" font-family="Helvetica,sans-Serif" font-size="10.00">ScreenWrapTests.exitLeftTopDiagonally</text>
</a>
</g>
</g>
<!-- Node3&#45;&gt;Node10 -->
<g id="edge9" class="edge"><title>Node3&#45;&gt;Node10</title>
<path fill="none" stroke="midnightblue" d="M614.372,-570.113C640.52,-575.611 669.272,-581.658 694.644,-586.994"/>
<polygon fill="midnightblue" stroke="midnightblue" points="614.997,-566.668 604.491,-568.035 613.557,-573.518 614.997,-566.668"/>
</g>
<!-- Node11 -->
<g id="node11" class="node"><title>Node11</title>
<g id="a_node11"><a xlink:href="../../df/d1f/classtests_1_1screen_wrap_tests_1_1_turtle_screen_wrap_tests.html#a9bb95a8580f478b494f193f7a076dc26" target="_top" xlink:title="tests.screenWrapTests.Turtle\lScreenWrapTests.exitLeftBottomDiagonally">
<polygon fill="white" stroke="black" points="656.5,-538 656.5,-568 877.5,-568 877.5,-538 656.5,-538"/>
<text text-anchor="start" x="664.5" y="-556" font-family="Helvetica,sans-Serif" font-size="10.00">tests.screenWrapTests.Turtle</text>
<text text-anchor="middle" x="767" y="-545" font-family="Helvetica,sans-Serif" font-size="10.00">ScreenWrapTests.exitLeftBottomDiagonally</text>
</a>
</g>
</g>
<!-- Node3&#45;&gt;Node11 -->
<g id="edge10" class="edge"><title>Node3&#45;&gt;Node11</title>
<path fill="none" stroke="midnightblue" d="M630.106,-553C638.704,-553 647.447,-553 656.14,-553"/>
<polygon fill="midnightblue" stroke="midnightblue" points="630.092,-549.5 620.092,-553 630.092,-556.5 630.092,-549.5"/>
</g>
<!-- Node12 -->
<g id="node12" class="node"><title>Node12</title>
<g id="a_node12"><a xlink:href="../../df/d1f/classtests_1_1screen_wrap_tests_1_1_turtle_screen_wrap_tests.html#a15854787cfae755b696fae7a5c61feed" target="_top" xlink:title="tests.screenWrapTests.Turtle\lScreenWrapTests.exitRightHorizontally">
<polygon fill="white" stroke="black" points="668,-489 668,-519 866,-519 866,-489 668,-489"/>
<text text-anchor="start" x="676" y="-507" font-family="Helvetica,sans-Serif" font-size="10.00">tests.screenWrapTests.Turtle</text>
<text text-anchor="middle" x="767" y="-496" font-family="Helvetica,sans-Serif" font-size="10.00">ScreenWrapTests.exitRightHorizontally</text>
</a>
</g>
</g>
<!-- Node3&#45;&gt;Node12 -->
<g id="edge11" class="edge"><title>Node3&#45;&gt;Node12</title>
<path fill="none" stroke="midnightblue" d="M614.372,-535.887C640.52,-530.389 669.272,-524.342 694.644,-519.006"/>
<polygon fill="midnightblue" stroke="midnightblue" points="613.557,-532.482 604.491,-537.965 614.997,-539.332 613.557,-532.482"/>
</g>
<!-- Node13 -->
<g id="node13" class="node"><title>Node13</title>
<g id="a_node13"><a xlink:href="../../df/d1f/classtests_1_1screen_wrap_tests_1_1_turtle_screen_wrap_tests.html#a2d6fdd923f6a332030f21ba77d598288" target="_top" xlink:title="tests.screenWrapTests.Turtle\lScreenWrapTests.exitLeftHorizontally">
<polygon fill="white" stroke="black" points="671,-440 671,-470 863,-470 863,-440 671,-440"/>
<text text-anchor="start" x="679" y="-458" font-family="Helvetica,sans-Serif" font-size="10.00">tests.screenWrapTests.Turtle</text>
<text text-anchor="middle" x="767" y="-447" font-family="Helvetica,sans-Serif" font-size="10.00">ScreenWrapTests.exitLeftHorizontally</text>
</a>
</g>
</g>
<!-- Node3&#45;&gt;Node13 -->
<g id="edge12" class="edge"><title>Node3&#45;&gt;Node13</title>
<path fill="none" stroke="midnightblue" d="M562.053,-532.203C586.164,-515.84 621.9,-493.602 656,-480 665.55,-476.191 675.809,-472.892 686.085,-470.055"/>
<polygon fill="midnightblue" stroke="midnightblue" points="559.974,-529.386 553.721,-537.939 563.943,-535.152 559.974,-529.386"/>
</g>
<!-- Node14 -->
<g id="node14" class="node"><title>Node14</title>
<g id="a_node14"><a xlink:href="../../df/d1f/classtests_1_1screen_wrap_tests_1_1_turtle_screen_wrap_tests.html#aa462570f354601659fc671244c30d715" target="_top" xlink:title="tests.screenWrapTests.Turtle\lScreenWrapTests.exitTopVertically">
<polygon fill="white" stroke="black" points="679,-391 679,-421 855,-421 855,-391 679,-391"/>
<text text-anchor="start" x="687" y="-409" font-family="Helvetica,sans-Serif" font-size="10.00">tests.screenWrapTests.Turtle</text>
<text text-anchor="middle" x="767" y="-398" font-family="Helvetica,sans-Serif" font-size="10.00">ScreenWrapTests.exitTopVertically</text>
</a>
</g>
</g>
<!-- Node3&#45;&gt;Node14 -->
<g id="edge13" class="edge"><title>Node3&#45;&gt;Node14</title>
<path fill="none" stroke="midnightblue" d="M549.662,-529.91C571.056,-502.032 610.85,-455.806 656,-431 663.123,-427.086 670.828,-423.785 678.738,-420.999"/>
<polygon fill="midnightblue" stroke="midnightblue" points="546.844,-527.834 543.628,-537.929 552.437,-532.043 546.844,-527.834"/>
</g>
<!-- Node15 -->
<g id="node15" class="node"><title>Node15</title>
<g id="a_node15"><a xlink:href="../../df/d1f/classtests_1_1screen_wrap_tests_1_1_turtle_screen_wrap_tests.html#a567edc540b0561af9828e1b8461f0e21" target="_top" xlink:title="tests.screenWrapTests.Turtle\lScreenWrapTests.exitBottomVertically">
<polygon fill="white" stroke="black" points="668.5,-342 668.5,-372 865.5,-372 865.5,-342 668.5,-342"/>
<text text-anchor="start" x="676.5" y="-360" font-family="Helvetica,sans-Serif" font-size="10.00">tests.screenWrapTests.Turtle</text>
<text text-anchor="middle" x="767" y="-349" font-family="Helvetica,sans-Serif" font-size="10.00">ScreenWrapTests.exitBottomVertically</text>
</a>
</g>
</g>
<!-- Node3&#45;&gt;Node15 -->
<g id="edge14" class="edge"><title>Node3&#45;&gt;Node15</title>
<path fill="none" stroke="midnightblue" d="M543.522,-528.602C561.082,-490.933 600.038,-419.094 656,-382 661.877,-378.105 668.276,-374.811 674.934,-372.026"/>
<polygon fill="midnightblue" stroke="midnightblue" points="540.279,-527.281 539.331,-537.833 546.652,-530.175 540.279,-527.281"/>
</g>
<!-- Node16&#45;&gt;Node3 -->
<g id="edge16" class="edge"><title>Node16&#45;&gt;Node3</title>
<path fill="none" stroke="midnightblue" d="M368.484,-504.901C403.383,-515.23 446.782,-528.075 479.952,-537.892"/>
<polygon fill="midnightblue" stroke="midnightblue" points="369.463,-501.541 358.881,-502.059 367.477,-508.253 369.463,-501.541"/>
</g>
<!-- Node17&#45;&gt;Node3 -->
<g id="edge19" class="edge"><title>Node17&#45;&gt;Node3</title>
<path fill="none" stroke="midnightblue" d="M388.493,-455.178C395.208,-457.493 401.795,-460.091 408,-463 450.167,-482.766 492.491,-517.893 514.826,-537.917"/>
<polygon fill="midnightblue" stroke="midnightblue" points="389.184,-451.724 378.592,-451.985 387.035,-458.386 389.184,-451.724"/>
</g>
<!-- Node18&#45;&gt;Node3 -->
<g id="edge24" class="edge"><title>Node18&#45;&gt;Node3</title>
<path fill="none" stroke="midnightblue" d="M330.846,-335.349C351.358,-355.584 382.131,-386.366 408,-414 449.18,-457.991 495.83,-511.882 517.985,-537.737"/>
<polygon fill="midnightblue" stroke="midnightblue" points="333.102,-332.658 323.519,-328.139 328.192,-337.647 333.102,-332.658"/>
</g>
<!-- Node19 -->
<g id="node19" class="node"><title>Node19</title>
<g id="a_node19"><a xlink:href="../../d1/d95/classgui_1_1factories_1_1turtlefactory_1_1_turtle_node.html#a6e2a02d271815ab5516bde6eb8d4d361" target="_top" xlink:title="gui.factories.turtlefactory.\lTurtleNode.updatePosition">
<polygon fill="white" stroke="black" points="461,-323 461,-353 603,-353 603,-323 461,-323"/>
<text text-anchor="start" x="469" y="-341" font-family="Helvetica,sans-Serif" font-size="10.00">gui.factories.turtlefactory.</text>
<text text-anchor="middle" x="532" y="-330" font-family="Helvetica,sans-Serif" font-size="10.00">TurtleNode.updatePosition</text>
</a>
</g>
</g>
<!-- Node18&#45;&gt;Node19 -->
<g id="edge21" class="edge"><title>Node18&#45;&gt;Node19</title>
<path fill="none" stroke="midnightblue" d="M402.449,-323.589C421.995,-325.78 442.257,-328.051 460.755,-330.125"/>
<polygon fill="midnightblue" stroke="midnightblue" points="402.634,-320.087 392.307,-322.451 401.855,-327.044 402.634,-320.087"/>
</g>
<!-- Node22 -->
<g id="node22" class="node"><title>Node22</title>
<g id="a_node22"><a xlink:href="../../d3/d33/classtests_1_1screen_wrap_tests_1_1_mapper_point_pair_tests.html#ae2f90753d0ecfc7938b795376c2fb1e9" target="_top" xlink:title="tests.screenWrapTests.Mapper\lPointPairTests.testHomeScreen">
<polygon fill="white" stroke="black" points="448.5,-274 448.5,-304 615.5,-304 615.5,-274 448.5,-274"/>
<text text-anchor="start" x="456.5" y="-292" font-family="Helvetica,sans-Serif" font-size="10.00">tests.screenWrapTests.Mapper</text>
<text text-anchor="middle" x="532" y="-281" font-family="Helvetica,sans-Serif" font-size="10.00">PointPairTests.testHomeScreen</text>
</a>
</g>
</g>
<!-- Node18&#45;&gt;Node22 -->
<g id="edge25" class="edge"><title>Node18&#45;&gt;Node22</title>
<path fill="none" stroke="midnightblue" d="M402.302,-302.851C417.63,-301.201 433.401,-299.504 448.421,-297.887"/>
<polygon fill="midnightblue" stroke="midnightblue" points="401.875,-299.377 392.307,-303.927 402.624,-306.336 401.875,-299.377"/>
</g>
<!-- Node23 -->
<g id="node23" class="node"><title>Node23</title>
<g id="a_node23"><a xlink:href="../../d3/d33/classtests_1_1screen_wrap_tests_1_1_mapper_point_pair_tests.html#a8021400ee830c4286db79d14e546405e" target="_top" xlink:title="tests.screenWrapTests.Mapper\lPointPairTests.testDiagonal">
<polygon fill="white" stroke="black" points="451,-225 451,-255 613,-255 613,-225 451,-225"/>
<text text-anchor="start" x="459" y="-243" font-family="Helvetica,sans-Serif" font-size="10.00">tests.screenWrapTests.Mapper</text>
<text text-anchor="middle" x="532" y="-232" font-family="Helvetica,sans-Serif" font-size="10.00">PointPairTests.testDiagonal</text>
</a>
</g>
</g>
<!-- Node18&#45;&gt;Node23 -->
<g id="edge26" class="edge"><title>Node18&#45;&gt;Node23</title>
<path fill="none" stroke="midnightblue" d="M356.84,-294.378C382.603,-284.816 414.836,-273.261 444,-264 453.557,-260.965 463.774,-257.947 473.722,-255.128"/>
<polygon fill="midnightblue" stroke="midnightblue" points="355.448,-291.161 347.302,-297.936 357.895,-297.72 355.448,-291.161"/>
</g>
<!-- Node18&#45;&gt;Node33 -->
<g id="edge36" class="edge"><title>Node18&#45;&gt;Node33</title>
<path fill="none" stroke="midnightblue" d="M349.729,-293.21C368.471,-283.343 390.3,-270.436 408,-256 426.792,-240.674 423.45,-227.875 444,-215 449.444,-211.589 455.375,-208.655 461.499,-206.133"/>
<polygon fill="midnightblue" stroke="midnightblue" points="348.097,-290.113 340.808,-297.802 351.301,-296.337 348.097,-290.113"/>
</g>
<!-- Node20 -->
<g id="node20" class="node"><title>Node20</title>
<g id="a_node20"><a xlink:href="../../df/d5f/classgui_1_1factories_1_1turtlefactory_1_1_turtle_factory.html#a68a8fca83dc5ca127be73f046950ef54" target="_top" xlink:title="gui.factories.turtlefactory.\lTurtleFactory.generateObject">
<polygon fill="white" stroke="black" points="691,-293 691,-323 843,-323 843,-293 691,-293"/>
<text text-anchor="start" x="699" y="-311" font-family="Helvetica,sans-Serif" font-size="10.00">gui.factories.turtlefactory.</text>
<text text-anchor="middle" x="767" y="-300" font-family="Helvetica,sans-Serif" font-size="10.00">TurtleFactory.generateObject</text>
</a>
</g>
</g>
<!-- Node19&#45;&gt;Node20 -->
<g id="edge22" class="edge"><title>Node19&#45;&gt;Node20</title>
<path fill="none" stroke="midnightblue" d="M613.419,-327.646C638.46,-324.421 665.969,-320.88 690.649,-317.702"/>
<polygon fill="midnightblue" stroke="midnightblue" points="612.695,-324.21 603.224,-328.958 613.589,-331.153 612.695,-324.21"/>
</g>
<!-- Node21 -->
<g id="node21" class="node"><title>Node21</title>
<g id="a_node21"><a xlink:href="../../d1/d95/classgui_1_1factories_1_1turtlefactory_1_1_turtle_node.html#aeae66bb4bbd0ee69922deaf346872467" target="_top" xlink:title="gui.factories.turtlefactory.\lTurtleNode.TurtleNode">
<polygon fill="white" stroke="black" points="698,-244 698,-274 836,-274 836,-244 698,-244"/>
<text text-anchor="start" x="706" y="-262" font-family="Helvetica,sans-Serif" font-size="10.00">gui.factories.turtlefactory.</text>
<text text-anchor="middle" x="767" y="-251" font-family="Helvetica,sans-Serif" font-size="10.00">TurtleNode.TurtleNode</text>
</a>
</g>
</g>
<!-- Node19&#45;&gt;Node21 -->
<g id="edge23" class="edge"><title>Node19&#45;&gt;Node21</title>
<path fill="none" stroke="midnightblue" d="M606.562,-319.274C611.194,-317.359 615.713,-315.272 620,-313 638.403,-303.248 637.29,-292.149 656,-283 668.994,-276.646 683.667,-271.961 697.963,-268.509"/>
<polygon fill="midnightblue" stroke="midnightblue" points="605.018,-316.117 596.933,-322.965 607.524,-322.654 605.018,-316.117"/>
</g>
<!-- Node24 -->
<g id="node24" class="node"><title>Node24</title>
<g id="a_node24"><a xlink:href="../../d3/d33/classtests_1_1screen_wrap_tests_1_1_mapper_point_pair_tests.html#ac9b526958a9faaa6cfea49b68378cd3e" target="_top" xlink:title="tests.screenWrapTests.Mapper\lPointPairTests.test">
<polygon fill="white" stroke="black" points="686,-195 686,-225 848,-225 848,-195 686,-195"/>
<text text-anchor="start" x="694" y="-213" font-family="Helvetica,sans-Serif" font-size="10.00">tests.screenWrapTests.Mapper</text>
<text text-anchor="middle" x="767" y="-202" font-family="Helvetica,sans-Serif" font-size="10.00">PointPairTests.test</text>
</a>
</g>
</g>
<!-- Node23&#45;&gt;Node24 -->
<g id="edge27" class="edge"><title>Node23&#45;&gt;Node24</title>
<path fill="none" stroke="midnightblue" d="M623.188,-228.388C643.777,-225.737 665.522,-222.937 685.667,-220.343"/>
<polygon fill="midnightblue" stroke="midnightblue" points="622.657,-224.927 613.185,-229.676 623.55,-231.87 622.657,-224.927"/>
</g>
<!-- Node25 -->
<g id="node25" class="node"><title>Node25</title>
<g id="a_node25"><a xlink:href="../../d3/d33/classtests_1_1screen_wrap_tests_1_1_mapper_point_pair_tests.html#aecaf7db29e98245d53ec0b2af045a3c4" target="_top" xlink:title="tests.screenWrapTests.Mapper\lPointPairTests.testRightScreen">
<polygon fill="white" stroke="black" points="936,-384 936,-414 1098,-414 1098,-384 936,-384"/>
<text text-anchor="start" x="944" y="-402" font-family="Helvetica,sans-Serif" font-size="10.00">tests.screenWrapTests.Mapper</text>
<text text-anchor="middle" x="1017" y="-391" font-family="Helvetica,sans-Serif" font-size="10.00">PointPairTests.testRightScreen</text>
</a>
</g>
</g>
<!-- Node24&#45;&gt;Node25 -->
<g id="edge28" class="edge"><title>Node24&#45;&gt;Node25</title>
<path fill="none" stroke="midnightblue" d="M857.785,-220.372C865.211,-223.864 872.112,-228.325 878,-234 924.259,-278.584 868.314,-328.829 914,-374 920.288,-380.217 927.855,-384.976 935.989,-388.606"/>
<polygon fill="midnightblue" stroke="midnightblue" points="858.716,-216.973 848.134,-216.448 856.079,-223.457 858.716,-216.973"/>
</g>
<!-- Node26 -->
<g id="node26" class="node"><title>Node26</title>
<g id="a_node26"><a xlink:href="../../d3/d33/classtests_1_1screen_wrap_tests_1_1_mapper_point_pair_tests.html#aa42026a0396afbe6d497e6523a476711" target="_top" xlink:title="tests.screenWrapTests.Mapper\lPointPairTests.testTopRightDiagonal\lScreen">
<polygon fill="white" stroke="black" points="924.5,-324.5 924.5,-365.5 1109.5,-365.5 1109.5,-324.5 924.5,-324.5"/>
<text text-anchor="start" x="932.5" y="-353.5" font-family="Helvetica,sans-Serif" font-size="10.00">tests.screenWrapTests.Mapper</text>
<text text-anchor="start" x="932.5" y="-342.5" font-family="Helvetica,sans-Serif" font-size="10.00">PointPairTests.testTopRightDiagonal</text>
<text text-anchor="middle" x="1017" y="-331.5" font-family="Helvetica,sans-Serif" font-size="10.00">Screen</text>
</a>
</g>
</g>
<!-- Node24&#45;&gt;Node26 -->
<g id="edge29" class="edge"><title>Node24&#45;&gt;Node26</title>
<path fill="none" stroke="midnightblue" d="M857.603,-221.775C864.939,-224.995 871.874,-229.008 878,-234 908.541,-258.885 884.364,-289.044 914,-315 918.027,-318.527 922.45,-321.64 927.129,-324.387"/>
<polygon fill="midnightblue" stroke="midnightblue" points="858.718,-218.453 848.129,-218.106 856.191,-224.981 858.718,-218.453"/>
</g>
<!-- Node27 -->
<g id="node27" class="node"><title>Node27</title>
<g id="a_node27"><a xlink:href="../../d3/d33/classtests_1_1screen_wrap_tests_1_1_mapper_point_pair_tests.html#a752b84bf403b555dbf9ed9c8cca52e0a" target="_top" xlink:title="tests.screenWrapTests.Mapper\lPointPairTests.testTopScreen">
<polygon fill="white" stroke="black" points="936,-276 936,-306 1098,-306 1098,-276 936,-276"/>
<text text-anchor="start" x="944" y="-294" font-family="Helvetica,sans-Serif" font-size="10.00">tests.screenWrapTests.Mapper</text>
<text text-anchor="middle" x="1017" y="-283" font-family="Helvetica,sans-Serif" font-size="10.00">PointPairTests.testTopScreen</text>
</a>
</g>
</g>
<!-- Node24&#45;&gt;Node27 -->
<g id="edge30" class="edge"><title>Node24&#45;&gt;Node27</title>
<path fill="none" stroke="midnightblue" d="M857.745,-225.483C864.755,-227.92 871.592,-230.739 878,-234 897.079,-243.709 895.047,-256.048 914,-266 921.345,-269.857 929.301,-273.132 937.419,-275.911"/>
<polygon fill="midnightblue" stroke="midnightblue" points="858.692,-222.111 848.101,-222.391 856.554,-228.777 858.692,-222.111"/>
</g>
<!-- Node28 -->
<g id="node28" class="node"><title>Node28</title>
<g id="a_node28"><a xlink:href="../../d3/d33/classtests_1_1screen_wrap_tests_1_1_mapper_point_pair_tests.html#a3fca68ba79dc641626f3912ba6f2d810" target="_top" xlink:title="tests.screenWrapTests.Mapper\lPointPairTests.testTopLeftDiagonal\lScreen">
<polygon fill="white" stroke="black" points="927.5,-216.5 927.5,-257.5 1106.5,-257.5 1106.5,-216.5 927.5,-216.5"/>
<text text-anchor="start" x="935.5" y="-245.5" font-family="Helvetica,sans-Serif" font-size="10.00">tests.screenWrapTests.Mapper</text>
<text text-anchor="start" x="935.5" y="-234.5" font-family="Helvetica,sans-Serif" font-size="10.00">PointPairTests.testTopLeftDiagonal</text>
<text text-anchor="middle" x="1017" y="-223.5" font-family="Helvetica,sans-Serif" font-size="10.00">Screen</text>
</a>
</g>
</g>
<!-- Node24&#45;&gt;Node28 -->
<g id="edge31" class="edge"><title>Node24&#45;&gt;Node28</title>
<path fill="none" stroke="midnightblue" d="M858.348,-219.836C880.754,-222.276 904.746,-224.888 927.083,-227.32"/>
<polygon fill="midnightblue" stroke="midnightblue" points="858.496,-216.332 848.176,-218.729 857.738,-223.291 858.496,-216.332"/>
</g>
<!-- Node29 -->
<g id="node29" class="node"><title>Node29</title>
<g id="a_node29"><a xlink:href="../../d3/d33/classtests_1_1screen_wrap_tests_1_1_mapper_point_pair_tests.html#ab7c6fdef03cf2f45a3d6084490f21abc" target="_top" xlink:title="tests.screenWrapTests.Mapper\lPointPairTests.testLeftScreen">
<polygon fill="white" stroke="black" points="936,-168 936,-198 1098,-198 1098,-168 936,-168"/>
<text text-anchor="start" x="944" y="-186" font-family="Helvetica,sans-Serif" font-size="10.00">tests.screenWrapTests.Mapper</text>
<text text-anchor="middle" x="1017" y="-175" font-family="Helvetica,sans-Serif" font-size="10.00">PointPairTests.testLeftScreen</text>
</a>
</g>
</g>
<!-- Node24&#45;&gt;Node29 -->
<g id="edge32" class="edge"><title>Node24&#45;&gt;Node29</title>
<path fill="none" stroke="midnightblue" d="M858.157,-200.185C883.52,-197.423 910.928,-194.439 935.676,-191.745"/>
<polygon fill="midnightblue" stroke="midnightblue" points="857.738,-196.709 848.176,-201.271 858.496,-203.668 857.738,-196.709"/>
</g>
<!-- Node30 -->
<g id="node30" class="node"><title>Node30</title>
<g id="a_node30"><a xlink:href="../../d3/d33/classtests_1_1screen_wrap_tests_1_1_mapper_point_pair_tests.html#a6228c4b5099f63880c16e00ccbdbadc8" target="_top" xlink:title="tests.screenWrapTests.Mapper\lPointPairTests.testBottomLeftDiagonal\lScreen">
<polygon fill="white" stroke="black" points="917,-108.5 917,-149.5 1117,-149.5 1117,-108.5 917,-108.5"/>
<text text-anchor="start" x="925" y="-137.5" font-family="Helvetica,sans-Serif" font-size="10.00">tests.screenWrapTests.Mapper</text>
<text text-anchor="start" x="925" y="-126.5" font-family="Helvetica,sans-Serif" font-size="10.00">PointPairTests.testBottomLeftDiagonal</text>
<text text-anchor="middle" x="1017" y="-115.5" font-family="Helvetica,sans-Serif" font-size="10.00">Screen</text>
</a>
</g>
</g>
<!-- Node24&#45;&gt;Node30 -->
<g id="edge33" class="edge"><title>Node24&#45;&gt;Node30</title>
<path fill="none" stroke="midnightblue" d="M817.644,-191.413C845.763,-181.113 881.676,-168.339 914,-158 922.943,-155.14 932.371,-152.268 941.735,-149.503"/>
<polygon fill="midnightblue" stroke="midnightblue" points="816.218,-188.208 808.041,-194.945 818.635,-194.777 816.218,-188.208"/>
</g>
<!-- Node31 -->
<g id="node31" class="node"><title>Node31</title>
<g id="a_node31"><a xlink:href="../../d3/d33/classtests_1_1screen_wrap_tests_1_1_mapper_point_pair_tests.html#a1e1a4a4b1c54288788ab791a4a9802ba" target="_top" xlink:title="tests.screenWrapTests.Mapper\lPointPairTests.testBottomScreen">
<polygon fill="white" stroke="black" points="930.5,-60 930.5,-90 1103.5,-90 1103.5,-60 930.5,-60"/>
<text text-anchor="start" x="938.5" y="-78" font-family="Helvetica,sans-Serif" font-size="10.00">tests.screenWrapTests.Mapper</text>
<text text-anchor="middle" x="1017" y="-67" font-family="Helvetica,sans-Serif" font-size="10.00">PointPairTests.testBottomScreen</text>
</a>
</g>
</g>
<!-- Node24&#45;&gt;Node31 -->
<g id="edge34" class="edge"><title>Node24&#45;&gt;Node31</title>
<path fill="none" stroke="midnightblue" d="M790.56,-187.926C817.643,-162.671 865.506,-121.864 914,-99 921.322,-95.5477 929.181,-92.5704 937.169,-90.0073"/>
<polygon fill="midnightblue" stroke="midnightblue" points="788.027,-185.504 783.166,-194.919 792.837,-190.59 788.027,-185.504"/>
</g>
<!-- Node32 -->
<g id="node32" class="node"><title>Node32</title>
<g id="a_node32"><a xlink:href="../../d3/d33/classtests_1_1screen_wrap_tests_1_1_mapper_point_pair_tests.html#a20caa6e9b49389619463a4a0fa334397" target="_top" xlink:title="tests.screenWrapTests.Mapper\lPointPairTests.testBottomRightDiagonal\lScreen">
<polygon fill="white" stroke="black" points="914,-0.5 914,-41.5 1120,-41.5 1120,-0.5 914,-0.5"/>
<text text-anchor="start" x="922" y="-29.5" font-family="Helvetica,sans-Serif" font-size="10.00">tests.screenWrapTests.Mapper</text>
<text text-anchor="start" x="922" y="-18.5" font-family="Helvetica,sans-Serif" font-size="10.00">PointPairTests.testBottomRightDiagonal</text>
<text text-anchor="middle" x="1017" y="-7.5" font-family="Helvetica,sans-Serif" font-size="10.00">Screen</text>
</a>
</g>
</g>
<!-- Node24&#45;&gt;Node32 -->
<g id="edge35" class="edge"><title>Node24&#45;&gt;Node32</title>
<path fill="none" stroke="midnightblue" d="M783.41,-185.976C807.188,-150.851 856.17,-85.7798 914,-50 919.088,-46.8519 924.528,-44.0358 930.149,-41.518"/>
<polygon fill="midnightblue" stroke="midnightblue" points="780.276,-184.368 777.652,-194.633 786.105,-188.245 780.276,-184.368"/>
</g>
</g>
</svg>
        <g id="navigator" transform="translate(0 0)" fill="#404254">
                <rect fill="#f2f5e9" fill-opacity="0.5" stroke="#606060" stroke-width=".5" x="0" y="0" width="60" height="60"/>
                <use id="zoomplus" xlink:href="#zoomPlus" x="17" y="9" onmousedown="handleZoom(evt,'in')"/>
                <use id="zoomminus" xlink:href="#zoomMin" x="42" y="9" onmousedown="handleZoom(evt,'out')"/>
                <use id="reset" xlink:href="#resetDef" x="30" y="36" onmousedown="handleReset()"/>
                <g id="arrowUp" xlink:href="#dirArrow" transform="translate(30 24)" onmousedown="handlePan(0,-1)">
                  <use xlink:href="#rim" fill="#404040">
                        <set attributeName="fill" to="#808080" begin="arrowUp.mouseover" end="arrowUp.mouseout"/>
                  </use>
                  <path fill="none" stroke="white" stroke-width="1.5" d="M0,-3.0v7 M-2.5,-0.5L0,-3.0L2.5,-0.5"/>
                </g>
                <g id="arrowRight" xlink:href="#dirArrow" transform="rotate(90) translate(36 -43)" onmousedown="handlePan(1,0)">
                  <use xlink:href="#rim" fill="#404040">
                        <set attributeName="fill" to="#808080" begin="arrowRight.mouseover" end="arrowRight.mouseout"/>
                  </use>
                  <path fill="none" stroke="white" stroke-width="1.5" d="M0,-3.0v7 M-2.5,-0.5L0,-3.0L2.5,-0.5"/>
                </g>
                <g id="arrowDown" xlink:href="#dirArrow" transform="rotate(180) translate(-30 -48)" onmousedown="handlePan(0,1)">
                  <use xlink:href="#rim" fill="#404040">
                        <set attributeName="fill" to="#808080" begin="arrowDown.mouseover" end="arrowDown.mouseout"/>
                  </use>
                  <path fill="none" stroke="white" stroke-width="1.5" d="M0,-3.0v7 M-2.5,-0.5L0,-3.0L2.5,-0.5"/>
                </g>
                <g id="arrowLeft" xlink:href="#dirArrow" transform="rotate(270) translate(-36 17)" onmousedown="handlePan(-1,0)">
                  <use xlink:href="#rim" fill="#404040">
                        <set attributeName="fill" to="#808080" begin="arrowLeft.mouseover" end="arrowLeft.mouseout"/>
                  </use>
                  <path fill="none" stroke="white" stroke-width="1.5" d="M0,-3.0v7 M-2.5,-0.5L0,-3.0L2.5,-0.5"/>
                </g>
        </g>
        <svg viewBox="0 0 15 15" width="100%" height="30px" preserveAspectRatio="xMaxYMin meet">
         <g id="arrow_out" transform="scale(0.3 0.3)">
          <a xlink:href="classgui_1_1turtlescreenwrap_1_1_tesselation_mapper_aabbaac2b93b3b79c2f4d88ac0849ab6f_icgraph_org.svg" target="_base">
           <rect id="button" ry="5" rx="5" y="6" x="6" height="38" width="38"
                fill="#f2f5e9" fill-opacity="0.5" stroke="#606060" stroke-width="1.0"/>
           <path id="arrow"
             d="M 11.500037,31.436501 C 11.940474,20.09759 22.043105,11.32322 32.158766,21.979434 L 37.068811,17.246167 C 37.068811,17.246167 37.088388,32 37.088388,32 L 22.160133,31.978069 C 22.160133,31.978069 26.997745,27.140456 26.997745,27.140456 C 18.528582,18.264221 13.291696,25.230495 11.500037,31.436501 z"
             style="fill:#404040;"/>
          </a>
         </g>
        </svg>
</svg>
