<?xml version="1.0" encoding="UTF-8" standalone="no"?>
<!DOCTYPE svg PUBLIC "-//W3C//DTD SVG 1.1//EN"
 "http://www.w3.org/Graphics/SVG/1.1/DTD/svg11.dtd">
<!-- Generated by graphviz version 2.36.0 (20140111.2315)
 -->
<!-- Title: gui.turtlescreenwrap.TesselationMapper.map Pages: 1 -->
<svg width="384pt" height="87pt"
 viewBox="0.00 0.00 384.00 87.00" xmlns="http://www.w3.org/2000/svg" xmlns:xlink="http://www.w3.org/1999/xlink">
<g id="graph0" class="graph" transform="scale(1 1) rotate(0) translate(4 83)">
<title>gui.turtlescreenwrap.TesselationMapper.map</title>
<polygon fill="white" stroke="none" points="-4,4 -4,-83 380,-83 380,4 -4,4"/>
<!-- Node1 -->
<g id="node1" class="node"><title>Node1</title>
<polygon fill="#bfbfbf" stroke="black" points="0,-24 0,-54 170,-54 170,-24 0,-24"/>
<text text-anchor="start" x="8" y="-42" font-family="Helvetica,sans-Serif" font-size="10.00">gui.turtlescreenwrap.Tesselation</text>
<text text-anchor="middle" x="85" y="-31" font-family="Helvetica,sans-Serif" font-size="10.00">Mapper.map</text>
</g>
<!-- Node2 -->
<g id="node2" class="node"><title>Node2</title>
<g id="a_node2"><a xlink:href="../../d2/d8c/classgui_1_1turtlescreenwrap_1_1_tesselation_mapper.html#aabbaac2b93b3b79c2f4d88ac0849ab6f" target="_top" xlink:title="gui.turtlescreenwrap.Tesselation\lMapper.checkOffScreen">
<polygon fill="white" stroke="black" points="206,-49 206,-79 376,-79 376,-49 206,-49"/>
<text text-anchor="start" x="214" y="-67" font-family="Helvetica,sans-Serif" font-size="10.00">gui.turtlescreenwrap.Tesselation</text>
<text text-anchor="middle" x="291" y="-56" font-family="Helvetica,sans-Serif" font-size="10.00">Mapper.checkOffScreen</text>
</a>
</g>
</g>
<!-- Node1&#45;&gt;Node2 -->
<g id="edge1" class="edge"><title>Node1&#45;&gt;Node2</title>
<path fill="none" stroke="midnightblue" d="M170.152,-49.3128C178.593,-50.3472 187.202,-51.4022 195.739,-52.4484"/>
<polygon fill="midnightblue" stroke="midnightblue" points="195.36,-55.9281 205.712,-53.6706 196.212,-48.9801 195.36,-55.9281"/>
</g>
<!-- Node3 -->
<g id="node3" class="node"><title>Node3</title>
<g id="a_node3"><a xlink:href="../../d2/d8c/classgui_1_1turtlescreenwrap_1_1_tesselation_mapper.html#aa9ff2f06fa612f2250c8a94a084f9c99" target="_top" xlink:title="gui.turtlescreenwrap.Tesselation\lMapper.getDummyOrigin">
<polygon fill="white" stroke="black" points="206,-0 206,-30 376,-30 376,-0 206,-0"/>
<text text-anchor="start" x="214" y="-18" font-family="Helvetica,sans-Serif" font-size="10.00">gui.turtlescreenwrap.Tesselation</text>
<text text-anchor="middle" x="291" y="-7" font-family="Helvetica,sans-Serif" font-size="10.00">Mapper.getDummyOrigin</text>
</a>
</g>
</g>
<!-- Node1&#45;&gt;Node3 -->
<g id="edge2" class="edge"><title>Node1&#45;&gt;Node3</title>
<path fill="none" stroke="midnightblue" d="M170.152,-29.0997C178.593,-28.1067 187.202,-27.0939 195.739,-26.0896"/>
<polygon fill="midnightblue" stroke="midnightblue" points="196.189,-29.5608 205.712,-24.9163 195.371,-22.6087 196.189,-29.5608"/>
</g>
</g>
</svg>
