<?xml version="1.0" encoding="UTF-8" standalone="no"?>
<!DOCTYPE svg PUBLIC "-//W3C//DTD SVG 1.1//EN"
 "http://www.w3.org/Graphics/SVG/1.1/DTD/svg11.dtd">
<!-- Generated by graphviz version 2.36.0 (20140111.2315)
 -->
<!-- Title: gui.menus.FileMenu Pages: 1 -->
<!--zoomable 493 -->
<svg id="main" version="1.1" xmlns="http://www.w3.org/2000/svg" xmlns:xlink="http://www.w3.org/1999/xlink" xml:space="preserve" onload="init(evt)">
<style type="text/css"><![CDATA[
.edge:hover path { stroke: red; }
.edge:hover polygon { stroke: red; fill: red; }
]]></style>
<script type="text/javascript"><![CDATA[
var edges = document.getElementsByTagName('g');
if (edges && edges.length) {
  for (var i=0;i<edges.length;i++) {
    if (edges[i].id.substr(0,4)=='edge') {
      edges[i].setAttribute('class','edge');
    }
  }
}
]]></script>
        <defs>
                <circle id="rim" cx="0" cy="0" r="7"/>
                <circle id="rim2" cx="0" cy="0" r="3.5"/>
                <g id="zoomPlus">
                        <use xlink:href="#rim" fill="#404040">
                                <set attributeName="fill" to="#808080" begin="zoomplus.mouseover" end="zoomplus.mouseout"/>
                        </use>
                        <path d="M-4,0h8M0,-4v8" fill="none" stroke="white" stroke-width="1.5" pointer-events="none"/>
                </g>
                <g id="zoomMin">
                        <use xlink:href="#rim" fill="#404040">
                                <set attributeName="fill" to="#808080" begin="zoomminus.mouseover" end="zoomminus.mouseout"/>
                        </use>
                        <path d="M-4,0h8" fill="none" stroke="white" stroke-width="1.5" pointer-events="none"/>
                </g>
                <g id="dirArrow">
                        <path fill="none" stroke="white" stroke-width="1.5" d="M0,-3.0v7 M-2.5,-0.5L0,-3.0L2.5,-0.5"/>
                </g>
               <g id="resetDef">
                       <use xlink:href="#rim2" fill="#404040">
                               <set attributeName="fill" to="#808080" begin="reset.mouseover" end="reset.mouseout"/>
                       </use>
               </g>
        </defs>

<script type="text/javascript">
var viewWidth = 1648;
var viewHeight = 493;
var sectionId = 'dynsection-1';
</script>
<script xlink:href="../../svgpan.js"/>
<svg id="graph" class="graph">
<g id="viewport">
<title>gui.menus.FileMenu</title>
<polygon fill="white" stroke="none" points="-4,4 -4,-489 1644,-489 1644,4 -4,4"/>
<!-- Node1 -->
<g id="node1" class="node"><title>Node1</title>
<polygon fill="#bfbfbf" stroke="black" points="1506.5,-326.5 1506.5,-345.5 1617.5,-345.5 1617.5,-326.5 1506.5,-326.5"/>
<text text-anchor="middle" x="1562" y="-333.5" font-family="Helvetica,sans-Serif" font-size="10.00">gui.menus.FileMenu</text>
</g>
<!-- Node2 -->
<g id="node2" class="node"><title>Node2</title>
<polygon fill="white" stroke="#bfbfbf" points="1221.5,-344.5 1221.5,-363.5 1264.5,-363.5 1264.5,-344.5 1221.5,-344.5"/>
<text text-anchor="middle" x="1243" y="-351.5" font-family="Helvetica,sans-Serif" font-size="10.00">Menu</text>
</g>
<!-- Node2&#45;&gt;Node1 -->
<g id="edge1" class="edge"><title>Node2&#45;&gt;Node1</title>
<path fill="none" stroke="midnightblue" d="M1275.04,-352.238C1328.68,-349.192 1439.36,-342.907 1506.2,-339.112"/>
<polygon fill="midnightblue" stroke="midnightblue" points="1274.58,-348.758 1264.8,-352.819 1274.98,-355.746 1274.58,-348.758"/>
</g>
<!-- Node3 -->
<g id="node3" class="node"><title>Node3</title>
<g id="a_node3"><a xlink:href="../../d3/db0/classgui_1_1mainclasses_1_1workspace_1_1_workspace_manager.html" target="_top" xlink:title="gui.mainclasses.workspace.\lWorkspaceManager">
<polygon fill="white" stroke="black" points="1168.5,-295 1168.5,-325 1317.5,-325 1317.5,-295 1168.5,-295"/>
<text text-anchor="start" x="1176.5" y="-313" font-family="Helvetica,sans-Serif" font-size="10.00">gui.mainclasses.workspace.</text>
<text text-anchor="middle" x="1243" y="-302" font-family="Helvetica,sans-Serif" font-size="10.00">WorkspaceManager</text>
</a>
</g>
</g>
<!-- Node3&#45;&gt;Node1 -->
<g id="edge2" class="edge"><title>Node3&#45;&gt;Node1</title>
<path fill="none" stroke="#9a32cd" stroke-dasharray="5,2" d="M1327.61,-316.045C1369.22,-319.144 1420.28,-323.084 1466,-327 1479.04,-328.117 1493.08,-329.402 1506.26,-330.644"/>
<polygon fill="#9a32cd" stroke="#9a32cd" points="1327.75,-312.546 1317.52,-315.296 1327.24,-319.527 1327.75,-312.546"/>
<text text-anchor="middle" x="1410" y="-330" font-family="Helvetica,sans-Serif" font-size="10.00"> myWorkspaceManager</text>
</g>
<!-- Node4 -->
<g id="node4" class="node"><title>Node4</title>
<polygon fill="white" stroke="#bfbfbf" points="903,-285.5 903,-304.5 959,-304.5 959,-285.5 903,-285.5"/>
<text text-anchor="middle" x="931" y="-292.5" font-family="Helvetica,sans-Serif" font-size="10.00">TabPane</text>
</g>
<!-- Node4&#45;&gt;Node3 -->
<g id="edge3" class="edge"><title>Node4&#45;&gt;Node3</title>
<path fill="none" stroke="midnightblue" d="M969.404,-296.81C1018.5,-299.185 1105.76,-303.408 1168.34,-306.436"/>
<polygon fill="midnightblue" stroke="midnightblue" points="969.396,-293.305 959.239,-296.318 969.058,-300.297 969.396,-293.305"/>
</g>
<!-- Node5 -->
<g id="node5" class="node"><title>Node5</title>
<g id="a_node5"><a xlink:href="../../d8/df2/classgui_1_1mainclasses_1_1workspace_1_1_workspace.html" target="_top" xlink:title="gui.mainclasses.workspace.\lWorkspace">
<polygon fill="white" stroke="black" points="856.5,-236 856.5,-266 1005.5,-266 1005.5,-236 856.5,-236"/>
<text text-anchor="start" x="864.5" y="-254" font-family="Helvetica,sans-Serif" font-size="10.00">gui.mainclasses.workspace.</text>
<text text-anchor="middle" x="931" y="-243" font-family="Helvetica,sans-Serif" font-size="10.00">Workspace</text>
</a>
</g>
</g>
<!-- Node5&#45;&gt;Node3 -->
<g id="edge4" class="edge"><title>Node5&#45;&gt;Node3</title>
<path fill="none" stroke="#9a32cd" stroke-dasharray="5,2" d="M1015.73,-264.179C1051.62,-270.1 1093.95,-277.448 1132,-285 1147.18,-288.012 1163.46,-291.546 1178.72,-294.993"/>
<polygon fill="#9a32cd" stroke="#9a32cd" points="1016.23,-260.714 1005.79,-262.548 1015.09,-267.621 1016.23,-260.714"/>
<text text-anchor="middle" x="1082" y="-288" font-family="Helvetica,sans-Serif" font-size="10.00"> myActiveWorkspace</text>
</g>
<!-- Node18 -->
<g id="node18" class="node"><title>Node18</title>
<g id="a_node18"><a xlink:href="../../dd/d25/classgui_1_1factories_1_1turtlefactory_1_1_turtle_nodes.html" target="_top" xlink:title="gui.factories.turtlefactory.\lTurtleNodes">
<polygon fill="white" stroke="black" points="1174,-146 1174,-176 1312,-176 1312,-146 1174,-146"/>
<text text-anchor="start" x="1182" y="-164" font-family="Helvetica,sans-Serif" font-size="10.00">gui.factories.turtlefactory.</text>
<text text-anchor="middle" x="1243" y="-153" font-family="Helvetica,sans-Serif" font-size="10.00">TurtleNodes</text>
</a>
</g>
</g>
<!-- Node5&#45;&gt;Node18 -->
<g id="edge20" class="edge"><title>Node5&#45;&gt;Node18</title>
<path fill="none" stroke="#9a32cd" stroke-dasharray="5,2" d="M960.587,-230.078C979.827,-217.048 1006.29,-201.089 1032,-192 1077.69,-175.848 1131.85,-168.11 1173.73,-164.404"/>
<polygon fill="#9a32cd" stroke="#9a32cd" points="958.515,-227.255 952.284,-235.823 962.499,-233.011 958.515,-227.255"/>
<text text-anchor="middle" x="1082" y="-195" font-family="Helvetica,sans-Serif" font-size="10.00"> myWorkspace</text>
</g>
<!-- Node6 -->
<g id="node6" class="node"><title>Node6</title>
<polygon fill="white" stroke="#bfbfbf" points="584,-406.5 584,-425.5 616,-425.5 616,-406.5 584,-406.5"/>
<text text-anchor="middle" x="600" y="-413.5" font-family="Helvetica,sans-Serif" font-size="10.00">Tab</text>
</g>
<!-- Node6&#45;&gt;Node5 -->
<g id="edge5" class="edge"><title>Node6&#45;&gt;Node5</title>
<path fill="none" stroke="midnightblue" d="M626.034,-421.424C672.983,-429.983 774.509,-440.593 830,-387 865.949,-352.281 815.128,-313.645 848,-276 851.328,-272.188 855.219,-268.948 859.464,-266.195"/>
<polygon fill="midnightblue" stroke="midnightblue" points="626.588,-417.966 616.103,-419.492 625.251,-424.837 626.588,-417.966"/>
</g>
<!-- Node7 -->
<g id="node7" class="node"><title>Node7</title>
<g id="a_node7"><a xlink:href="../../d0/d23/classgui_1_1mainclasses_1_1workspace_1_1_workspace_data_holder.html" target="_top" xlink:title="gui.mainclasses.workspace.\lWorkspaceDataHolder">
<polygon fill="white" stroke="black" points="525.5,-357 525.5,-387 674.5,-387 674.5,-357 525.5,-357"/>
<text text-anchor="start" x="533.5" y="-375" font-family="Helvetica,sans-Serif" font-size="10.00">gui.mainclasses.workspace.</text>
<text text-anchor="middle" x="600" y="-364" font-family="Helvetica,sans-Serif" font-size="10.00">WorkspaceDataHolder</text>
</a>
</g>
</g>
<!-- Node7&#45;&gt;Node5 -->
<g id="edge6" class="edge"><title>Node7&#45;&gt;Node5</title>
<path fill="none" stroke="#9a32cd" stroke-dasharray="5,2" d="M684.674,-375.516C732.41,-373.144 790.428,-362.268 830,-328 848.488,-311.99 830.387,-292.968 848,-276 851.966,-272.179 856.498,-268.941 861.35,-266.196"/>
<polygon fill="#9a32cd" stroke="#9a32cd" points="684.514,-372.02 674.654,-375.899 684.781,-379.015 684.514,-372.02"/>
<text text-anchor="middle" x="773" y="-375" font-family="Helvetica,sans-Serif" font-size="10.00"> myDataHolder</text>
</g>
<!-- Node8 -->
<g id="node8" class="node"><title>Node8</title>
<polygon fill="white" stroke="#bfbfbf" points="0.5,-454 0.5,-484 319.5,-484 319.5,-454 0.5,-454"/>
<text text-anchor="start" x="8.5" y="-472" font-family="Helvetica,sans-Serif" font-size="10.00">ObservableList&lt; gui.nonbuttonfeatures.tableviews.imageindex.</text>
<text text-anchor="middle" x="160" y="-461" font-family="Helvetica,sans-Serif" font-size="10.00">ImageIndex &gt;</text>
</g>
<!-- Node8&#45;&gt;Node7 -->
<g id="edge7" class="edge"><title>Node8&#45;&gt;Node7</title>
<path fill="none" stroke="#9a32cd" stroke-dasharray="5,2" d="M267.177,-452.325C284.82,-449.548 302.926,-446.696 320,-444 392.896,-432.491 419.581,-454.008 484,-418 494.73,-412.002 491.567,-403.501 502,-397 509.232,-392.494 517.25,-388.797 525.487,-385.764"/>
<polygon fill="#9a32cd" stroke="#9a32cd" points="266.188,-448.937 256.854,-453.949 267.276,-455.852 266.188,-448.937"/>
<text text-anchor="middle" x="411" y="-445" font-family="Helvetica,sans-Serif" font-size="10.00"> myImageIndexList</text>
</g>
<!-- Node9 -->
<g id="node9" class="node"><title>Node9</title>
<polygon fill="white" stroke="#bfbfbf" points="4,-405 4,-435 316,-435 316,-405 4,-405"/>
<text text-anchor="start" x="12" y="-423" font-family="Helvetica,sans-Serif" font-size="10.00">ObservableList&lt; gui.nonbuttonfeatures.tableviews.colorindex.</text>
<text text-anchor="middle" x="160" y="-412" font-family="Helvetica,sans-Serif" font-size="10.00">ColorIndex &gt;</text>
</g>
<!-- Node9&#45;&gt;Node7 -->
<g id="edge8" class="edge"><title>Node9&#45;&gt;Node7</title>
<path fill="none" stroke="#9a32cd" stroke-dasharray="5,2" d="M326.401,-403.997C377.01,-398.859 432.821,-392.951 484,-387 497.4,-385.442 511.663,-383.672 525.419,-381.908"/>
<polygon fill="#9a32cd" stroke="#9a32cd" points="325.948,-400.525 316.351,-405.014 326.653,-407.489 325.948,-400.525"/>
<text text-anchor="middle" x="411" y="-406" font-family="Helvetica,sans-Serif" font-size="10.00"> myColorIndexList</text>
</g>
<!-- Node10 -->
<g id="node10" class="node"><title>Node10</title>
<polygon fill="white" stroke="#bfbfbf" points="72.5,-356 72.5,-386 247.5,-386 247.5,-356 72.5,-356"/>
<text text-anchor="start" x="80.5" y="-374" font-family="Helvetica,sans-Serif" font-size="10.00">ObservableList&lt; gui.variableslist.</text>
<text text-anchor="middle" x="160" y="-363" font-family="Helvetica,sans-Serif" font-size="10.00">WorkspaceVariable &gt;</text>
</g>
<!-- Node10&#45;&gt;Node7 -->
<g id="edge9" class="edge"><title>Node10&#45;&gt;Node7</title>
<path fill="none" stroke="#9a32cd" stroke-dasharray="5,2" d="M257.71,-371.221C338.457,-371.405 451.85,-371.664 525.374,-371.832"/>
<polygon fill="#9a32cd" stroke="#9a32cd" points="257.543,-367.721 247.535,-371.198 257.527,-374.72 257.543,-367.721"/>
<text text-anchor="middle" x="411" y="-375" font-family="Helvetica,sans-Serif" font-size="10.00"> myVariablesList</text>
</g>
<!-- Node11 -->
<g id="node11" class="node"><title>Node11</title>
<polygon fill="white" stroke="#bfbfbf" points="91,-317.5 91,-336.5 229,-336.5 229,-317.5 91,-317.5"/>
<text text-anchor="middle" x="160" y="-324.5" font-family="Helvetica,sans-Serif" font-size="10.00">ObservableList&lt; String &gt;</text>
</g>
<!-- Node11&#45;&gt;Node7 -->
<g id="edge10" class="edge"><title>Node11&#45;&gt;Node7</title>
<path fill="none" stroke="#9a32cd" stroke-dasharray="5,2" d="M239.33,-328.029C304.963,-329.746 400.98,-334.254 484,-346 502.747,-348.652 522.961,-352.783 541.134,-356.976"/>
<polygon fill="#9a32cd" stroke="#9a32cd" points="239.147,-324.523 229.064,-327.776 238.975,-331.521 239.147,-324.523"/>
<text text-anchor="middle" x="411" y="-360" font-family="Helvetica,sans-Serif" font-size="10.00"> myPreviousCommandsList</text>
<text text-anchor="middle" x="411" y="-349" font-family="Helvetica,sans-Serif" font-size="10.00">mySavedCommandsList</text>
</g>
<!-- Node12 -->
<g id="node12" class="node"><title>Node12</title>
<polygon fill="white" stroke="#bfbfbf" points="23.5,-268 23.5,-298 296.5,-298 296.5,-268 23.5,-268"/>
<text text-anchor="start" x="31.5" y="-286" font-family="Helvetica,sans-Serif" font-size="10.00">ObservableList&lt; gui.factories.userdefinedcommands.</text>
<text text-anchor="middle" x="160" y="-275" font-family="Helvetica,sans-Serif" font-size="10.00">DisplayedUserCommand &gt;</text>
</g>
<!-- Node12&#45;&gt;Node7 -->
<g id="edge11" class="edge"><title>Node12&#45;&gt;Node7</title>
<path fill="none" stroke="#9a32cd" stroke-dasharray="5,2" d="M306.935,-272.406C365.738,-274.586 431.844,-285.757 484,-318 496.584,-325.779 490.052,-337.276 502,-346 509.04,-351.141 517.031,-355.265 525.332,-358.574"/>
<polygon fill="#9a32cd" stroke="#9a32cd" points="306.903,-268.904 296.807,-272.115 306.702,-275.901 306.903,-268.904"/>
<text text-anchor="middle" x="411" y="-321" font-family="Helvetica,sans-Serif" font-size="10.00"> myUserDefinedCommandList</text>
</g>
<!-- Node13 -->
<g id="node13" class="node"><title>Node13</title>
<polygon fill="white" stroke="#bfbfbf" points="502.5,-227 502.5,-257 697.5,-257 697.5,-227 502.5,-227"/>
<text text-anchor="start" x="510.5" y="-245" font-family="Helvetica,sans-Serif" font-size="10.00">Map&lt; String, gui.componentdrawers.</text>
<text text-anchor="middle" x="600" y="-234" font-family="Helvetica,sans-Serif" font-size="10.00">ComponentDrawer &gt;</text>
</g>
<!-- Node13&#45;&gt;Node5 -->
<g id="edge12" class="edge"><title>Node13&#45;&gt;Node5</title>
<path fill="none" stroke="#9a32cd" stroke-dasharray="5,2" d="M707.852,-244.716C746.355,-245.716 790.131,-246.88 830,-248 838.507,-248.239 847.422,-248.497 856.275,-248.757"/>
<polygon fill="#9a32cd" stroke="#9a32cd" points="707.75,-241.212 697.662,-244.451 707.568,-248.209 707.75,-241.212"/>
<text text-anchor="middle" x="773" y="-251" font-family="Helvetica,sans-Serif" font-size="10.00"> myComponentDrawers</text>
</g>
<!-- Node14 -->
<g id="node14" class="node"><title>Node14</title>
<g id="a_node14"><a xlink:href="../../dd/d4c/classgui_1_1componentdrawers_1_1_turtle_screen_drawer.html" target="_top" xlink:title="gui.componentdrawers.Turtle\lScreenDrawer">
<polygon fill="white" stroke="black" points="1484.5,-120 1484.5,-150 1639.5,-150 1639.5,-120 1484.5,-120"/>
<text text-anchor="start" x="1492.5" y="-138" font-family="Helvetica,sans-Serif" font-size="10.00">gui.componentdrawers.Turtle</text>
<text text-anchor="middle" x="1562" y="-127" font-family="Helvetica,sans-Serif" font-size="10.00">ScreenDrawer</text>
</a>
</g>
</g>
<!-- Node14&#45;&gt;Node5 -->
<g id="edge13" class="edge"><title>Node14&#45;&gt;Node5</title>
<path fill="none" stroke="#9a32cd" stroke-dasharray="5,2" d="M1538.01,-157.046C1519.92,-173.049 1493.28,-193.786 1466,-205 1311.73,-268.425 1111.69,-265.583 1005.62,-258.178"/>
<polygon fill="#9a32cd" stroke="#9a32cd" points="1540.64,-159.388 1545.69,-150.077 1535.93,-154.202 1540.64,-159.388"/>
<text text-anchor="middle" x="1243" y="-265" font-family="Helvetica,sans-Serif" font-size="10.00"> myTurtleScreenDrawer</text>
</g>
<!-- Node15 -->
<g id="node15" class="node"><title>Node15</title>
<g id="a_node15"><a xlink:href="../../d0/dda/classgui_1_1componentdrawers_1_1_component_drawer.html" target="_top" xlink:title="gui.componentdrawers.Component\lDrawer">
<polygon fill="white" stroke="black" points="1150.5,-0 1150.5,-30 1335.5,-30 1335.5,-0 1150.5,-0"/>
<text text-anchor="start" x="1158.5" y="-18" font-family="Helvetica,sans-Serif" font-size="10.00">gui.componentdrawers.Component</text>
<text text-anchor="middle" x="1243" y="-7" font-family="Helvetica,sans-Serif" font-size="10.00">Drawer</text>
</a>
</g>
</g>
<!-- Node15&#45;&gt;Node14 -->
<g id="edge14" class="edge"><title>Node15&#45;&gt;Node14</title>
<path fill="none" stroke="midnightblue" d="M1345.98,-20.7998C1384.95,-25.9639 1428.91,-35.5025 1466,-53 1500.09,-69.082 1531.49,-100.876 1548.27,-119.802"/>
<polygon fill="midnightblue" stroke="midnightblue" points="1346.01,-17.2772 1335.65,-19.5176 1345.15,-24.2238 1346.01,-17.2772"/>
</g>
<!-- Node16 -->
<g id="node16" class="node"><title>Node16</title>
<polygon fill="white" stroke="#bfbfbf" points="911,-57.5 911,-76.5 951,-76.5 951,-57.5 911,-57.5"/>
<text text-anchor="middle" x="931" y="-64.5" font-family="Helvetica,sans-Serif" font-size="10.00">Pane</text>
</g>
<!-- Node16&#45;&gt;Node14 -->
<g id="edge18" class="edge"><title>Node16&#45;&gt;Node14</title>
<path fill="none" stroke="#9a32cd" stroke-dasharray="5,2" d="M961.243,-65.3228C1028.04,-61.9986 1196.81,-56.4753 1336,-76 1399.79,-84.9474 1471.43,-105.649 1516.38,-119.984"/>
<polygon fill="#9a32cd" stroke="#9a32cd" points="960.863,-61.8378 951.058,-65.8529 961.226,-68.8284 960.863,-61.8378"/>
<text text-anchor="middle" x="1243" y="-79" font-family="Helvetica,sans-Serif" font-size="10.00"> myGrid</text>
</g>
<!-- Node16&#45;&gt;Node15 -->
<g id="edge15" class="edge"><title>Node16&#45;&gt;Node15</title>
<path fill="none" stroke="midnightblue" d="M961.281,-62.0884C1004.67,-54.8097 1087.88,-40.8529 1152.48,-30.0157"/>
<polygon fill="midnightblue" stroke="midnightblue" points="960.675,-58.641 951.392,-63.7472 961.833,-65.5446 960.675,-58.641"/>
</g>
<!-- Node17 -->
<g id="node17" class="node"><title>Node17</title>
<g id="a_node17"><a xlink:href="../../dd/d6a/classgui_1_1nonbuttonfeatures_1_1_turtle_screen_feature.html" target="_top" xlink:title="gui.nonbuttonfeatures.Turtle\lScreenFeature">
<polygon fill="white" stroke="black" points="1167,-97 1167,-127 1319,-127 1319,-97 1167,-97"/>
<text text-anchor="start" x="1175" y="-115" font-family="Helvetica,sans-Serif" font-size="10.00">gui.nonbuttonfeatures.Turtle</text>
<text text-anchor="middle" x="1243" y="-104" font-family="Helvetica,sans-Serif" font-size="10.00">ScreenFeature</text>
</a>
</g>
</g>
<!-- Node16&#45;&gt;Node17 -->
<g id="edge17" class="edge"><title>Node16&#45;&gt;Node17</title>
<path fill="none" stroke="midnightblue" d="M961.449,-71.2749C1008.21,-78.063 1100.9,-91.5183 1166.94,-101.104"/>
<polygon fill="midnightblue" stroke="midnightblue" points="961.791,-67.7879 951.392,-69.815 960.785,-74.7153 961.791,-67.7879"/>
</g>
<!-- Node17&#45;&gt;Node14 -->
<g id="edge16" class="edge"><title>Node17&#45;&gt;Node14</title>
<path fill="none" stroke="#9a32cd" stroke-dasharray="5,2" d="M1329.19,-113.345C1370.55,-114.536 1420.94,-116.778 1466,-121 1471.98,-121.56 1478.15,-122.239 1484.35,-122.993"/>
<polygon fill="#9a32cd" stroke="#9a32cd" points="1329.24,-109.846 1319.15,-113.072 1329.05,-116.843 1329.24,-109.846"/>
<text text-anchor="middle" x="1410" y="-124" font-family="Helvetica,sans-Serif" font-size="10.00"> myTurtleScreen</text>
</g>
<!-- Node18&#45;&gt;Node5 -->
<g id="edge24" class="edge"><title>Node18&#45;&gt;Node5</title>
<path fill="none" stroke="#9a32cd" stroke-dasharray="5,2" d="M1164.13,-179.158C1159.24,-181.21 1154.49,-183.484 1150,-186 1140.4,-191.382 1141.7,-197.807 1132,-203 1091.79,-224.521 1076.35,-215.358 1032,-226 1018.86,-229.153 1004.78,-232.62 991.443,-235.943"/>
<polygon fill="#9a32cd" stroke="#9a32cd" points="1165.59,-182.343 1173.66,-175.476 1163.07,-175.813 1165.59,-182.343"/>
<text text-anchor="middle" x="1082" y="-229" font-family="Helvetica,sans-Serif" font-size="10.00"> myTurtleNodes</text>
</g>
<!-- Node18&#45;&gt;Node14 -->
<g id="edge19" class="edge"><title>Node18&#45;&gt;Node14</title>
<path fill="none" stroke="#9a32cd" stroke-dasharray="5,2" d="M1322.02,-154.601C1371.52,-150.541 1435.28,-145.311 1484.49,-141.276"/>
<polygon fill="#9a32cd" stroke="#9a32cd" points="1321.68,-151.117 1312,-155.422 1322.26,-158.093 1321.68,-151.117"/>
<text text-anchor="middle" x="1410" y="-155" font-family="Helvetica,sans-Serif" font-size="10.00"> myTurtleNodes</text>
</g>
<!-- Node19 -->
<g id="node19" class="node"><title>Node19</title>
<polygon fill="white" stroke="#bfbfbf" points="848,-142 848,-172 1014,-172 1014,-142 848,-142"/>
<text text-anchor="start" x="856" y="-160" font-family="Helvetica,sans-Serif" font-size="10.00">List&lt; gui.factories.turtlefactory.</text>
<text text-anchor="middle" x="931" y="-149" font-family="Helvetica,sans-Serif" font-size="10.00">TurtleNode &gt;</text>
</g>
<!-- Node19&#45;&gt;Node18 -->
<g id="edge21" class="edge"><title>Node19&#45;&gt;Node18</title>
<path fill="none" stroke="#9a32cd" stroke-dasharray="5,2" d="M1024.56,-157.033C1058.37,-157.159 1096.92,-157.434 1132,-158 1145.56,-158.219 1160.06,-158.547 1173.94,-158.907"/>
<polygon fill="#9a32cd" stroke="#9a32cd" points="1024.24,-153.532 1014.23,-156.999 1024.22,-160.532 1024.24,-153.532"/>
<text text-anchor="middle" x="1082" y="-161" font-family="Helvetica,sans-Serif" font-size="10.00"> myTurtleNodes</text>
</g>
<!-- Node20 -->
<g id="node20" class="node"><title>Node20</title>
<polygon fill="white" stroke="#bfbfbf" points="1222.5,-195.5 1222.5,-214.5 1263.5,-214.5 1263.5,-195.5 1222.5,-195.5"/>
<text text-anchor="middle" x="1243" y="-202.5" font-family="Helvetica,sans-Serif" font-size="10.00">Color</text>
</g>
<!-- Node20&#45;&gt;Node14 -->
<g id="edge22" class="edge"><title>Node20&#45;&gt;Node14</title>
<path fill="none" stroke="#9a32cd" stroke-dasharray="5,2" d="M1273.53,-201.431C1316.36,-195.922 1398.02,-184.157 1466,-167 1484.22,-162.401 1503.98,-155.987 1520.73,-150.108"/>
<polygon fill="#9a32cd" stroke="#9a32cd" points="1273,-197.971 1263.51,-202.697 1273.87,-204.916 1273,-197.971"/>
<text text-anchor="middle" x="1410" y="-193" font-family="Helvetica,sans-Serif" font-size="10.00"> myScreenColor</text>
</g>
<!-- Node21 -->
<g id="node21" class="node"><title>Node21</title>
<g id="a_node21"><a xlink:href="../../d1/d60/classgui_1_1factories_1_1_object_factory.html" target="_top" xlink:title="gui.factories.ObjectFactory">
<polygon fill="white" stroke="black" points="528.5,-188.5 528.5,-207.5 671.5,-207.5 671.5,-188.5 528.5,-188.5"/>
<text text-anchor="middle" x="600" y="-195.5" font-family="Helvetica,sans-Serif" font-size="10.00">gui.factories.ObjectFactory</text>
</a>
</g>
</g>
<!-- Node21&#45;&gt;Node5 -->
<g id="edge23" class="edge"><title>Node21&#45;&gt;Node5</title>
<path fill="none" stroke="#9a32cd" stroke-dasharray="5,2" d="M681.665,-207.907C725.629,-213.649 780.931,-221.43 830,-230 840.223,-231.786 850.996,-233.852 861.533,-235.977"/>
<polygon fill="#9a32cd" stroke="#9a32cd" points="681.973,-204.418 671.606,-206.603 681.073,-211.36 681.973,-204.418"/>
<text text-anchor="middle" x="773" y="-233" font-family="Helvetica,sans-Serif" font-size="10.00"> myObjectFactories</text>
</g>
<!-- Node22 -->
<g id="node22" class="node"><title>Node22</title>
<g id="a_node22"><a xlink:href="../../da/d55/interface_control_1_1_slogo_graphics.html" target="_top" xlink:title="Control.SlogoGraphics">
<polygon fill="white" stroke="black" points="538.5,-317.5 538.5,-336.5 661.5,-336.5 661.5,-317.5 538.5,-317.5"/>
<text text-anchor="middle" x="600" y="-324.5" font-family="Helvetica,sans-Serif" font-size="10.00">Control.SlogoGraphics</text>
</a>
</g>
</g>
<!-- Node22&#45;&gt;Node3 -->
<g id="edge27" class="edge"><title>Node22&#45;&gt;Node3</title>
<path fill="none" stroke="#9a32cd" stroke-dasharray="5,2" d="M671.762,-327.604C717.017,-327.841 776.967,-327.878 830,-327 964.277,-324.777 997.861,-323.487 1132,-317 1143.75,-316.431 1156.21,-315.732 1168.35,-314.998"/>
<polygon fill="#9a32cd" stroke="#9a32cd" points="671.775,-324.104 661.755,-327.547 671.735,-331.104 671.775,-324.104"/>
<text text-anchor="middle" x="931" y="-330" font-family="Helvetica,sans-Serif" font-size="10.00"> myControl</text>
</g>
<!-- Node22&#45;&gt;Node5 -->
<g id="edge25" class="edge"><title>Node22&#45;&gt;Node5</title>
<path fill="none" stroke="#9a32cd" stroke-dasharray="5,2" d="M671.663,-318.865C728.049,-311.711 802.059,-300.648 830,-289 839.109,-285.203 839.161,-280.387 848,-276 855.466,-272.295 863.589,-269.014 871.725,-266.15"/>
<polygon fill="#9a32cd" stroke="#9a32cd" points="671.198,-315.396 661.711,-320.11 672.068,-322.341 671.198,-315.396"/>
<text text-anchor="middle" x="773" y="-316" font-family="Helvetica,sans-Serif" font-size="10.00"> myControl</text>
</g>
<!-- Node23 -->
<g id="node23" class="node"><title>Node23</title>
<polygon fill="white" stroke="#bfbfbf" points="564,-276.5 564,-295.5 636,-295.5 636,-276.5 564,-276.5"/>
<text text-anchor="middle" x="600" y="-283.5" font-family="Helvetica,sans-Serif" font-size="10.00">BorderPane</text>
</g>
<!-- Node23&#45;&gt;Node5 -->
<g id="edge26" class="edge"><title>Node23&#45;&gt;Node5</title>
<path fill="none" stroke="#9a32cd" stroke-dasharray="5,2" d="M646.193,-281.192C700.322,-275.434 791.748,-265.708 856.179,-258.853"/>
<polygon fill="#9a32cd" stroke="#9a32cd" points="645.782,-277.716 636.209,-282.254 646.523,-284.677 645.782,-277.716"/>
<text text-anchor="middle" x="773" y="-277" font-family="Helvetica,sans-Serif" font-size="10.00"> myPane</text>
</g>
</g>
</svg>
        <g id="navigator" transform="translate(0 0)" fill="#404254">
                <rect fill="#f2f5e9" fill-opacity="0.5" stroke="#606060" stroke-width=".5" x="0" y="0" width="60" height="60"/>
                <use id="zoomplus" xlink:href="#zoomPlus" x="17" y="9" onmousedown="handleZoom(evt,'in')"/>
                <use id="zoomminus" xlink:href="#zoomMin" x="42" y="9" onmousedown="handleZoom(evt,'out')"/>
                <use id="reset" xlink:href="#resetDef" x="30" y="36" onmousedown="handleReset()"/>
                <g id="arrowUp" xlink:href="#dirArrow" transform="translate(30 24)" onmousedown="handlePan(0,-1)">
                  <use xlink:href="#rim" fill="#404040">
                        <set attributeName="fill" to="#808080" begin="arrowUp.mouseover" end="arrowUp.mouseout"/>
                  </use>
                  <path fill="none" stroke="white" stroke-width="1.5" d="M0,-3.0v7 M-2.5,-0.5L0,-3.0L2.5,-0.5"/>
                </g>
                <g id="arrowRight" xlink:href="#dirArrow" transform="rotate(90) translate(36 -43)" onmousedown="handlePan(1,0)">
                  <use xlink:href="#rim" fill="#404040">
                        <set attributeName="fill" to="#808080" begin="arrowRight.mouseover" end="arrowRight.mouseout"/>
                  </use>
                  <path fill="none" stroke="white" stroke-width="1.5" d="M0,-3.0v7 M-2.5,-0.5L0,-3.0L2.5,-0.5"/>
                </g>
                <g id="arrowDown" xlink:href="#dirArrow" transform="rotate(180) translate(-30 -48)" onmousedown="handlePan(0,1)">
                  <use xlink:href="#rim" fill="#404040">
                        <set attributeName="fill" to="#808080" begin="arrowDown.mouseover" end="arrowDown.mouseout"/>
                  </use>
                  <path fill="none" stroke="white" stroke-width="1.5" d="M0,-3.0v7 M-2.5,-0.5L0,-3.0L2.5,-0.5"/>
                </g>
                <g id="arrowLeft" xlink:href="#dirArrow" transform="rotate(270) translate(-36 17)" onmousedown="handlePan(-1,0)">
                  <use xlink:href="#rim" fill="#404040">
                        <set attributeName="fill" to="#808080" begin="arrowLeft.mouseover" end="arrowLeft.mouseout"/>
                  </use>
                  <path fill="none" stroke="white" stroke-width="1.5" d="M0,-3.0v7 M-2.5,-0.5L0,-3.0L2.5,-0.5"/>
                </g>
        </g>
        <svg viewBox="0 0 15 15" width="100%" height="30px" preserveAspectRatio="xMaxYMin meet">
         <g id="arrow_out" transform="scale(0.3 0.3)">
          <a xlink:href="classgui_1_1menus_1_1_file_menu__coll__graph_org.svg" target="_base">
           <rect id="button" ry="5" rx="5" y="6" x="6" height="38" width="38"
                fill="#f2f5e9" fill-opacity="0.5" stroke="#606060" stroke-width="1.0"/>
           <path id="arrow"
             d="M 11.500037,31.436501 C 11.940474,20.09759 22.043105,11.32322 32.158766,21.979434 L 37.068811,17.246167 C 37.068811,17.246167 37.088388,32 37.088388,32 L 22.160133,31.978069 C 22.160133,31.978069 26.997745,27.140456 26.997745,27.140456 C 18.528582,18.264221 13.291696,25.230495 11.500037,31.436501 z"
             style="fill:#404040;"/>
          </a>
         </g>
        </svg>
</svg>
