<?xml version="1.0" encoding="UTF-8" standalone="no"?>
<!DOCTYPE svg PUBLIC "-//W3C//DTD SVG 1.1//EN"
 "http://www.w3.org/Graphics/SVG/1.1/DTD/svg11.dtd">
<!-- Generated by graphviz version 2.36.0 (20140111.2315)
 -->
<!-- Title: commandParsing.CommandParser.accumulateComponents Pages: 1 -->
<svg width="738pt" height="384pt"
 viewBox="0.00 0.00 738.00 384.00" xmlns="http://www.w3.org/2000/svg" xmlns:xlink="http://www.w3.org/1999/xlink">
<g id="graph0" class="graph" transform="scale(1 1) rotate(0) translate(4 380)">
<title>commandParsing.CommandParser.accumulateComponents</title>
<polygon fill="white" stroke="none" points="-4,4 -4,-380 734,-380 734,4 -4,4"/>
<!-- Node1 -->
<g id="node1" class="node"><title>Node1</title>
<polygon fill="#bfbfbf" stroke="black" points="0,-147 0,-177 242,-177 242,-147 0,-147"/>
<text text-anchor="start" x="8" y="-165" font-family="Helvetica,sans-Serif" font-size="10.00">commandParsing.CommandParser.accumulate</text>
<text text-anchor="middle" x="121" y="-154" font-family="Helvetica,sans-Serif" font-size="10.00">Components</text>
</g>
<!-- Node2 -->
<g id="node2" class="node"><title>Node2</title>
<g id="a_node2"><a xlink:href="../../d0/dfe/classcommand_parsing_1_1structural_command_parsing_1_1_recurring_command.html#ab7f44ef8841353bf8a5e112541e16a75" target="_top" xlink:title="commandParsing.structural\lCommandParsing.RecurringCommand.basic\lLoopVariableInitialization">
<polygon fill="white" stroke="black" points="278.5,-304.5 278.5,-345.5 505.5,-345.5 505.5,-304.5 278.5,-304.5"/>
<text text-anchor="start" x="286.5" y="-333.5" font-family="Helvetica,sans-Serif" font-size="10.00">commandParsing.structural</text>
<text text-anchor="start" x="286.5" y="-322.5" font-family="Helvetica,sans-Serif" font-size="10.00">CommandParsing.RecurringCommand.basic</text>
<text text-anchor="middle" x="392" y="-311.5" font-family="Helvetica,sans-Serif" font-size="10.00">LoopVariableInitialization</text>
</a>
</g>
</g>
<!-- Node1&#45;&gt;Node2 -->
<g id="edge1" class="edge"><title>Node1&#45;&gt;Node2</title>
<path fill="none" stroke="midnightblue" d="M142.315,-184.422C170.143,-213.806 222.97,-265 278,-294 285.469,-297.936 293.485,-301.41 301.676,-304.47"/>
<polygon fill="midnightblue" stroke="midnightblue" points="144.855,-182.014 135.47,-177.098 139.741,-186.794 144.855,-182.014"/>
</g>
<!-- Node5 -->
<g id="node5" class="node"><title>Node5</title>
<g id="a_node5"><a xlink:href="../../d3/d78/classcommand_parsing_1_1structural_command_parsing_1_1_for.html#a6b84827c7c254153b5a8171a10a4ba8c" target="_top" xlink:title="commandParsing.structural\lCommandParsing.For.initializeLoop\lVariableParameters">
<polygon fill="white" stroke="black" points="300.5,-244.5 300.5,-285.5 483.5,-285.5 483.5,-244.5 300.5,-244.5"/>
<text text-anchor="start" x="308.5" y="-273.5" font-family="Helvetica,sans-Serif" font-size="10.00">commandParsing.structural</text>
<text text-anchor="start" x="308.5" y="-262.5" font-family="Helvetica,sans-Serif" font-size="10.00">CommandParsing.For.initializeLoop</text>
<text text-anchor="middle" x="392" y="-251.5" font-family="Helvetica,sans-Serif" font-size="10.00">VariableParameters</text>
</a>
</g>
</g>
<!-- Node1&#45;&gt;Node5 -->
<g id="edge4" class="edge"><title>Node1&#45;&gt;Node5</title>
<path fill="none" stroke="midnightblue" d="M159.266,-181.743C190.381,-197.661 236.231,-219.82 278,-235 287.252,-238.363 297.055,-241.528 306.867,-244.45"/>
<polygon fill="midnightblue" stroke="midnightblue" points="160.596,-178.49 150.104,-177.018 157.387,-184.712 160.596,-178.49"/>
</g>
<!-- Node6 -->
<g id="node6" class="node"><title>Node6</title>
<g id="a_node6"><a xlink:href="../../d3/d0e/classcommand_parsing_1_1structural_command_parsing_1_1_if.html#a89fd19125688d38678f4faff6ad679ed" target="_top" xlink:title="commandParsing.structural\lCommandParsing.If.parse">
<polygon fill="white" stroke="black" points="317.5,-196 317.5,-226 466.5,-226 466.5,-196 317.5,-196"/>
<text text-anchor="start" x="325.5" y="-214" font-family="Helvetica,sans-Serif" font-size="10.00">commandParsing.structural</text>
<text text-anchor="middle" x="392" y="-203" font-family="Helvetica,sans-Serif" font-size="10.00">CommandParsing.If.parse</text>
</a>
</g>
</g>
<!-- Node1&#45;&gt;Node6 -->
<g id="edge5" class="edge"><title>Node1&#45;&gt;Node6</title>
<path fill="none" stroke="midnightblue" d="M214.802,-178.904C248.307,-185.008 285.645,-191.809 317.294,-197.574"/>
<polygon fill="midnightblue" stroke="midnightblue" points="215.002,-175.383 204.537,-177.035 213.748,-182.27 215.002,-175.383"/>
</g>
<!-- Node7 -->
<g id="node7" class="node"><title>Node7</title>
<g id="a_node7"><a xlink:href="../../d5/dd6/classcommand_parsing_1_1structural_command_parsing_1_1_if_else.html#a00f4fac4f783a99448a471dd359c8e8e" target="_top" xlink:title="commandParsing.structural\lCommandParsing.IfElse.parse">
<polygon fill="white" stroke="black" points="312.5,-147 312.5,-177 471.5,-177 471.5,-147 312.5,-147"/>
<text text-anchor="start" x="320.5" y="-165" font-family="Helvetica,sans-Serif" font-size="10.00">commandParsing.structural</text>
<text text-anchor="middle" x="392" y="-154" font-family="Helvetica,sans-Serif" font-size="10.00">CommandParsing.IfElse.parse</text>
</a>
</g>
</g>
<!-- Node1&#45;&gt;Node7 -->
<g id="edge6" class="edge"><title>Node1&#45;&gt;Node7</title>
<path fill="none" stroke="midnightblue" d="M252.397,-162C272.927,-162 293.585,-162 312.454,-162"/>
<polygon fill="midnightblue" stroke="midnightblue" points="252.338,-158.5 242.338,-162 252.338,-165.5 252.338,-158.5"/>
</g>
<!-- Node8 -->
<g id="node8" class="node"><title>Node8</title>
<g id="a_node8"><a xlink:href="../../d4/d75/classcommand_parsing_1_1color_commandparsing_1_1_set_shape_palette.html#af3ab4a90e68f055229809889db8be77a" target="_top" xlink:title="commandParsing.colorCommandparsing.\lSetShapePalette.parse">
<polygon fill="white" stroke="black" points="284.5,-98 284.5,-128 499.5,-128 499.5,-98 284.5,-98"/>
<text text-anchor="start" x="292.5" y="-116" font-family="Helvetica,sans-Serif" font-size="10.00">commandParsing.colorCommandparsing.</text>
<text text-anchor="middle" x="392" y="-105" font-family="Helvetica,sans-Serif" font-size="10.00">SetShapePalette.parse</text>
</a>
</g>
</g>
<!-- Node1&#45;&gt;Node8 -->
<g id="edge7" class="edge"><title>Node1&#45;&gt;Node8</title>
<path fill="none" stroke="midnightblue" d="M214.75,-145.105C245.254,-139.548 278.939,-133.413 308.619,-128.006"/>
<polygon fill="midnightblue" stroke="midnightblue" points="213.748,-141.73 204.537,-146.965 215.002,-148.617 213.748,-141.73"/>
</g>
<!-- Node9 -->
<g id="node9" class="node"><title>Node9</title>
<g id="a_node9"><a xlink:href="../../d9/d8d/classcommand_parsing_1_1float_command_parsing_1_1_float_input_command_parser.html#a6c371e5159eedf7001793eab06250e8a" target="_top" xlink:title="commandParsing.floatCommand\lParsing.FloatInputCommandParser.parse">
<polygon fill="white" stroke="black" points="286.5,-49 286.5,-79 497.5,-79 497.5,-49 286.5,-49"/>
<text text-anchor="start" x="294.5" y="-67" font-family="Helvetica,sans-Serif" font-size="10.00">commandParsing.floatCommand</text>
<text text-anchor="middle" x="392" y="-56" font-family="Helvetica,sans-Serif" font-size="10.00">Parsing.FloatInputCommandParser.parse</text>
</a>
</g>
</g>
<!-- Node1&#45;&gt;Node9 -->
<g id="edge8" class="edge"><title>Node1&#45;&gt;Node9</title>
<path fill="none" stroke="midnightblue" d="M158.538,-142.091C189.564,-125.877 235.667,-103.392 278,-89 289.033,-85.249 300.868,-81.9145 312.574,-79.0001"/>
<polygon fill="midnightblue" stroke="midnightblue" points="156.625,-139.143 149.414,-146.905 159.892,-145.334 156.625,-139.143"/>
</g>
<!-- Node10 -->
<g id="node10" class="node"><title>Node10</title>
<g id="a_node10"><a xlink:href="../../d9/dd9/classcommand_parsing_1_1variable_command_parsing_1_1_make_variable.html#aff148a4ca342ca23dca6794736562010" target="_top" xlink:title="commandParsing.variableCommand\lParsing.MakeVariable.parse">
<polygon fill="white" stroke="black" points="296.5,-0 296.5,-30 487.5,-30 487.5,-0 296.5,-0"/>
<text text-anchor="start" x="304.5" y="-18" font-family="Helvetica,sans-Serif" font-size="10.00">commandParsing.variableCommand</text>
<text text-anchor="middle" x="392" y="-7" font-family="Helvetica,sans-Serif" font-size="10.00">Parsing.MakeVariable.parse</text>
</a>
</g>
</g>
<!-- Node1&#45;&gt;Node10 -->
<g id="edge9" class="edge"><title>Node1&#45;&gt;Node10</title>
<path fill="none" stroke="midnightblue" d="M144.167,-139.287C172.573,-111.544 224.562,-65.2042 278,-40 286.269,-36.1001 295.167,-32.7968 304.211,-30.0011"/>
<polygon fill="midnightblue" stroke="midnightblue" points="141.44,-137.062 136.799,-146.586 146.366,-142.035 141.44,-137.062"/>
</g>
<!-- Node3 -->
<g id="node3" class="node"><title>Node3</title>
<g id="a_node3"><a xlink:href="../../d7/d10/classcommand_parsing_1_1structural_command_parsing_1_1_do_times.html#afb2baa6c526f8693dacb3da8d19648f7" target="_top" xlink:title="commandParsing.structural\lCommandParsing.DoTimes.initialize\lLoopVariableParameters">
<polygon fill="white" stroke="black" points="542,-334.5 542,-375.5 730,-375.5 730,-334.5 542,-334.5"/>
<text text-anchor="start" x="550" y="-363.5" font-family="Helvetica,sans-Serif" font-size="10.00">commandParsing.structural</text>
<text text-anchor="start" x="550" y="-352.5" font-family="Helvetica,sans-Serif" font-size="10.00">CommandParsing.DoTimes.initialize</text>
<text text-anchor="middle" x="636" y="-341.5" font-family="Helvetica,sans-Serif" font-size="10.00">LoopVariableParameters</text>
</a>
</g>
</g>
<!-- Node2&#45;&gt;Node3 -->
<g id="edge2" class="edge"><title>Node2&#45;&gt;Node3</title>
<path fill="none" stroke="midnightblue" d="M516.056,-340.255C524.752,-341.333 533.434,-342.409 541.922,-343.461"/>
<polygon fill="midnightblue" stroke="midnightblue" points="516.207,-336.747 505.852,-338.99 515.346,-343.694 516.207,-336.747"/>
</g>
<!-- Node4 -->
<g id="node4" class="node"><title>Node4</title>
<g id="a_node4"><a xlink:href="../../d8/d8f/classcommand_parsing_1_1structural_command_parsing_1_1_repeat.html#abb20eafb2f42a9286c20ec3af2b41925" target="_top" xlink:title="commandParsing.structural\lCommandParsing.Repeat.initialize\lLoopVariableParameters">
<polygon fill="white" stroke="black" points="546.5,-274.5 546.5,-315.5 725.5,-315.5 725.5,-274.5 546.5,-274.5"/>
<text text-anchor="start" x="554.5" y="-303.5" font-family="Helvetica,sans-Serif" font-size="10.00">commandParsing.structural</text>
<text text-anchor="start" x="554.5" y="-292.5" font-family="Helvetica,sans-Serif" font-size="10.00">CommandParsing.Repeat.initialize</text>
<text text-anchor="middle" x="636" y="-281.5" font-family="Helvetica,sans-Serif" font-size="10.00">LoopVariableParameters</text>
</a>
</g>
</g>
<!-- Node2&#45;&gt;Node4 -->
<g id="edge3" class="edge"><title>Node2&#45;&gt;Node4</title>
<path fill="none" stroke="midnightblue" d="M516.033,-309.748C526.218,-308.485 536.384,-307.225 546.242,-306.003"/>
<polygon fill="midnightblue" stroke="midnightblue" points="515.346,-306.306 505.852,-311.01 516.207,-313.253 515.346,-306.306"/>
</g>
</g>
</svg>
