<?xml version="1.0" encoding="UTF-8" standalone="no"?>
<!DOCTYPE svg PUBLIC "-//W3C//DTD SVG 1.1//EN"
 "http://www.w3.org/Graphics/SVG/1.1/DTD/svg11.dtd">
<!-- Generated by graphviz version 2.36.0 (20140111.2315)
 -->
<!-- Title: commandParsing.CommandParser.accumulateComponents Pages: 1 -->
<!--zoomable 126 -->
<svg id="main" version="1.1" xmlns="http://www.w3.org/2000/svg" xmlns:xlink="http://www.w3.org/1999/xlink" xml:space="preserve" onload="init(evt)">
<style type="text/css"><![CDATA[
.edge:hover path { stroke: red; }
.edge:hover polygon { stroke: red; fill: red; }
]]></style>
<script type="text/javascript"><![CDATA[
var edges = document.getElementsByTagName('g');
if (edges && edges.length) {
  for (var i=0;i<edges.length;i++) {
    if (edges[i].id.substr(0,4)=='edge') {
      edges[i].setAttribute('class','edge');
    }
  }
}
]]></script>
        <defs>
                <circle id="rim" cx="0" cy="0" r="7"/>
                <circle id="rim2" cx="0" cy="0" r="3.5"/>
                <g id="zoomPlus">
                        <use xlink:href="#rim" fill="#404040">
                                <set attributeName="fill" to="#808080" begin="zoomplus.mouseover" end="zoomplus.mouseout"/>
                        </use>
                        <path d="M-4,0h8M0,-4v8" fill="none" stroke="white" stroke-width="1.5" pointer-events="none"/>
                </g>
                <g id="zoomMin">
                        <use xlink:href="#rim" fill="#404040">
                                <set attributeName="fill" to="#808080" begin="zoomminus.mouseover" end="zoomminus.mouseout"/>
                        </use>
                        <path d="M-4,0h8" fill="none" stroke="white" stroke-width="1.5" pointer-events="none"/>
                </g>
                <g id="dirArrow">
                        <path fill="none" stroke="white" stroke-width="1.5" d="M0,-3.0v7 M-2.5,-0.5L0,-3.0L2.5,-0.5"/>
                </g>
               <g id="resetDef">
                       <use xlink:href="#rim2" fill="#404040">
                               <set attributeName="fill" to="#808080" begin="reset.mouseover" end="reset.mouseout"/>
                       </use>
               </g>
        </defs>

<script type="text/javascript">
var viewWidth = 694;
var viewHeight = 126;
var sectionId = 'dynsection-2';
</script>
<script xlink:href="../../svgpan.js"/>
<svg id="graph" class="graph">
<g id="viewport">
<title>commandParsing.CommandParser.accumulateComponents</title>
<polygon fill="white" stroke="none" points="-4,4 -4,-122 690,-122 690,4 -4,4"/>
<!-- Node1 -->
<g id="node1" class="node"><title>Node1</title>
<polygon fill="#bfbfbf" stroke="black" points="0,-39 0,-69 242,-69 242,-39 0,-39"/>
<text text-anchor="start" x="8" y="-57" font-family="Helvetica,sans-Serif" font-size="10.00">commandParsing.CommandParser.accumulate</text>
<text text-anchor="middle" x="121" y="-46" font-family="Helvetica,sans-Serif" font-size="10.00">Components</text>
</g>
<!-- Node2 -->
<g id="node2" class="node"><title>Node2</title>
<g id="a_node2"><a xlink:href="../../d7/d17/classcommand_parsing_1_1_command_parser.html#a9bf6e09b0ad06b6f217ad0ad040f8e93" target="_top" xlink:title="commandParsing.CommandParser.create\lParser">
<polygon fill="white" stroke="black" points="278,-88 278,-118 494,-118 494,-88 278,-88"/>
<text text-anchor="start" x="286" y="-106" font-family="Helvetica,sans-Serif" font-size="10.00">commandParsing.CommandParser.create</text>
<text text-anchor="middle" x="386" y="-95" font-family="Helvetica,sans-Serif" font-size="10.00">Parser</text>
</a>
</g>
</g>
<!-- Node1&#45;&gt;Node2 -->
<g id="edge1" class="edge"><title>Node1&#45;&gt;Node2</title>
<path fill="none" stroke="midnightblue" d="M202.696,-69.0346C231.727,-74.4435 264.663,-80.5797 294.476,-86.1343"/>
<polygon fill="midnightblue" stroke="midnightblue" points="293.985,-89.6029 304.457,-87.9938 295.267,-82.7213 293.985,-89.6029"/>
</g>
<!-- Node3 -->
<g id="node3" class="node"><title>Node3</title>
<g id="a_node3"><a xlink:href="../../d7/d17/classcommand_parsing_1_1_command_parser.html#ac5bad35b74ad1aac039e96f2e3a99e82" target="_top" xlink:title="commandParsing.CommandParser.is\lStringParsableAsCommand">
<polygon fill="white" stroke="black" points="289.5,-39 289.5,-69 482.5,-69 482.5,-39 289.5,-39"/>
<text text-anchor="start" x="297.5" y="-57" font-family="Helvetica,sans-Serif" font-size="10.00">commandParsing.CommandParser.is</text>
<text text-anchor="middle" x="386" y="-46" font-family="Helvetica,sans-Serif" font-size="10.00">StringParsableAsCommand</text>
</a>
</g>
</g>
<!-- Node1&#45;&gt;Node3 -->
<g id="edge2" class="edge"><title>Node1&#45;&gt;Node3</title>
<path fill="none" stroke="midnightblue" d="M242.34,-54C254.597,-54 266.985,-54 279.073,-54"/>
<polygon fill="midnightblue" stroke="midnightblue" points="279.147,-57.5001 289.147,-54 279.147,-50.5001 279.147,-57.5001"/>
</g>
<!-- Node5 -->
<g id="node5" class="node"><title>Node5</title>
<g id="a_node5"><a xlink:href="../../d7/d17/classcommand_parsing_1_1_command_parser.html#ae5a2f506ca01f7fa355a64e4831fbae3" target="_top" xlink:title="commandParsing.CommandParser.parse">
<polygon fill="white" stroke="black" points="280,-0.5 280,-19.5 492,-19.5 492,-0.5 280,-0.5"/>
<text text-anchor="middle" x="386" y="-7.5" font-family="Helvetica,sans-Serif" font-size="10.00">commandParsing.CommandParser.parse</text>
</a>
</g>
</g>
<!-- Node1&#45;&gt;Node5 -->
<g id="edge4" class="edge"><title>Node1&#45;&gt;Node5</title>
<path fill="none" stroke="midnightblue" d="M211.774,-38.9808C246.551,-33.1625 285.672,-26.6176 317.925,-21.2216"/>
<polygon fill="midnightblue" stroke="midnightblue" points="318.856,-24.6146 328.142,-19.5124 317.701,-17.7105 318.856,-24.6146"/>
</g>
<!-- Node4 -->
<g id="node4" class="node"><title>Node4</title>
<g id="a_node4"><a xlink:href="../../d3/de0/classtranslator_1_1_translator.html#ad62364674b153e6fb5c67b328700d6e2" target="_top" xlink:title="translator.Translator.matches\lCommandPattern">
<polygon fill="white" stroke="black" points="530,-39 530,-69 686,-69 686,-39 530,-39"/>
<text text-anchor="start" x="538" y="-57" font-family="Helvetica,sans-Serif" font-size="10.00">translator.Translator.matches</text>
<text text-anchor="middle" x="608" y="-46" font-family="Helvetica,sans-Serif" font-size="10.00">CommandPattern</text>
</a>
</g>
</g>
<!-- Node3&#45;&gt;Node4 -->
<g id="edge3" class="edge"><title>Node3&#45;&gt;Node4</title>
<path fill="none" stroke="midnightblue" d="M482.535,-54C494.856,-54 507.423,-54 519.604,-54"/>
<polygon fill="midnightblue" stroke="midnightblue" points="519.731,-57.5001 529.731,-54 519.731,-50.5001 519.731,-57.5001"/>
</g>
</g>
</svg>
        <g id="navigator" transform="translate(0 0)" fill="#404254">
                <rect fill="#f2f5e9" fill-opacity="0.5" stroke="#606060" stroke-width=".5" x="0" y="0" width="60" height="60"/>
                <use id="zoomplus" xlink:href="#zoomPlus" x="17" y="9" onmousedown="handleZoom(evt,'in')"/>
                <use id="zoomminus" xlink:href="#zoomMin" x="42" y="9" onmousedown="handleZoom(evt,'out')"/>
                <use id="reset" xlink:href="#resetDef" x="30" y="36" onmousedown="handleReset()"/>
                <g id="arrowUp" xlink:href="#dirArrow" transform="translate(30 24)" onmousedown="handlePan(0,-1)">
                  <use xlink:href="#rim" fill="#404040">
                        <set attributeName="fill" to="#808080" begin="arrowUp.mouseover" end="arrowUp.mouseout"/>
                  </use>
                  <path fill="none" stroke="white" stroke-width="1.5" d="M0,-3.0v7 M-2.5,-0.5L0,-3.0L2.5,-0.5"/>
                </g>
                <g id="arrowRight" xlink:href="#dirArrow" transform="rotate(90) translate(36 -43)" onmousedown="handlePan(1,0)">
                  <use xlink:href="#rim" fill="#404040">
                        <set attributeName="fill" to="#808080" begin="arrowRight.mouseover" end="arrowRight.mouseout"/>
                  </use>
                  <path fill="none" stroke="white" stroke-width="1.5" d="M0,-3.0v7 M-2.5,-0.5L0,-3.0L2.5,-0.5"/>
                </g>
                <g id="arrowDown" xlink:href="#dirArrow" transform="rotate(180) translate(-30 -48)" onmousedown="handlePan(0,1)">
                  <use xlink:href="#rim" fill="#404040">
                        <set attributeName="fill" to="#808080" begin="arrowDown.mouseover" end="arrowDown.mouseout"/>
                  </use>
                  <path fill="none" stroke="white" stroke-width="1.5" d="M0,-3.0v7 M-2.5,-0.5L0,-3.0L2.5,-0.5"/>
                </g>
                <g id="arrowLeft" xlink:href="#dirArrow" transform="rotate(270) translate(-36 17)" onmousedown="handlePan(-1,0)">
                  <use xlink:href="#rim" fill="#404040">
                        <set attributeName="fill" to="#808080" begin="arrowLeft.mouseover" end="arrowLeft.mouseout"/>
                  </use>
                  <path fill="none" stroke="white" stroke-width="1.5" d="M0,-3.0v7 M-2.5,-0.5L0,-3.0L2.5,-0.5"/>
                </g>
        </g>
        <svg viewBox="0 0 15 15" width="100%" height="30px" preserveAspectRatio="xMaxYMin meet">
         <g id="arrow_out" transform="scale(0.3 0.3)">
          <a xlink:href="classcommand_parsing_1_1_command_parser_a663a439263fd1c59baab79f31742f1d7_cgraph_org.svg" target="_base">
           <rect id="button" ry="5" rx="5" y="6" x="6" height="38" width="38"
                fill="#f2f5e9" fill-opacity="0.5" stroke="#606060" stroke-width="1.0"/>
           <path id="arrow"
             d="M 11.500037,31.436501 C 11.940474,20.09759 22.043105,11.32322 32.158766,21.979434 L 37.068811,17.246167 C 37.068811,17.246167 37.088388,32 37.088388,32 L 22.160133,31.978069 C 22.160133,31.978069 26.997745,27.140456 26.997745,27.140456 C 18.528582,18.264221 13.291696,25.230495 11.500037,31.436501 z"
             style="fill:#404040;"/>
          </a>
         </g>
        </svg>
</svg>
