<?xml version="1.0" encoding="UTF-8" standalone="no"?>
<!DOCTYPE svg PUBLIC "-//W3C//DTD SVG 1.1//EN"
 "http://www.w3.org/Graphics/SVG/1.1/DTD/svg11.dtd">
<!-- Generated by graphviz version 2.36.0 (20140111.2315)
 -->
<!-- Title: workspaceState.Pen.getPenColor Pages: 1 -->
<!--zoomable 320 -->
<svg id="main" version="1.1" xmlns="http://www.w3.org/2000/svg" xmlns:xlink="http://www.w3.org/1999/xlink" xml:space="preserve" onload="init(evt)">
<style type="text/css"><![CDATA[
.edge:hover path { stroke: red; }
.edge:hover polygon { stroke: red; fill: red; }
]]></style>
<script type="text/javascript"><![CDATA[
var edges = document.getElementsByTagName('g');
if (edges && edges.length) {
  for (var i=0;i<edges.length;i++) {
    if (edges[i].id.substr(0,4)=='edge') {
      edges[i].setAttribute('class','edge');
    }
  }
}
]]></script>
        <defs>
                <circle id="rim" cx="0" cy="0" r="7"/>
                <circle id="rim2" cx="0" cy="0" r="3.5"/>
                <g id="zoomPlus">
                        <use xlink:href="#rim" fill="#404040">
                                <set attributeName="fill" to="#808080" begin="zoomplus.mouseover" end="zoomplus.mouseout"/>
                        </use>
                        <path d="M-4,0h8M0,-4v8" fill="none" stroke="white" stroke-width="1.5" pointer-events="none"/>
                </g>
                <g id="zoomMin">
                        <use xlink:href="#rim" fill="#404040">
                                <set attributeName="fill" to="#808080" begin="zoomminus.mouseover" end="zoomminus.mouseout"/>
                        </use>
                        <path d="M-4,0h8" fill="none" stroke="white" stroke-width="1.5" pointer-events="none"/>
                </g>
                <g id="dirArrow">
                        <path fill="none" stroke="white" stroke-width="1.5" d="M0,-3.0v7 M-2.5,-0.5L0,-3.0L2.5,-0.5"/>
                </g>
               <g id="resetDef">
                       <use xlink:href="#rim2" fill="#404040">
                               <set attributeName="fill" to="#808080" begin="reset.mouseover" end="reset.mouseout"/>
                       </use>
               </g>
        </defs>

<script type="text/javascript">
var viewWidth = 716;
var viewHeight = 320;
var sectionId = 'dynsection-1';
</script>
<script xlink:href="../../svgpan.js"/>
<svg id="graph" class="graph">
<g id="viewport">
<title>workspaceState.Pen.getPenColor</title>
<polygon fill="white" stroke="none" points="-4,4 -4,-316 712,-316 712,4 -4,4"/>
<!-- Node1 -->
<g id="node1" class="node"><title>Node1</title>
<polygon fill="#bfbfbf" stroke="black" points="0.5,-126 0.5,-156 151.5,-156 151.5,-126 0.5,-126"/>
<text text-anchor="start" x="8.5" y="-144" font-family="Helvetica,sans-Serif" font-size="10.00">workspaceState.Pen.getPen</text>
<text text-anchor="middle" x="76" y="-133" font-family="Helvetica,sans-Serif" font-size="10.00">Color</text>
</g>
<!-- Node2 -->
<g id="node2" class="node"><title>Node2</title>
<g id="a_node2"><a xlink:href="../../d7/d23/interfacecommand_parsing_1_1drawable_obect_generation_interfaces_1_1_line_generator.html#a5e51e570ee2ac71f93cce35834969f1e" target="_top" xlink:title="commandParsing.drawableObect\lGenerationInterfaces.LineGenerator.generate\lDrawableObjectRepresentingLine">
<polygon fill="white" stroke="black" points="188,-240.5 188,-281.5 422,-281.5 422,-240.5 188,-240.5"/>
<text text-anchor="start" x="196" y="-269.5" font-family="Helvetica,sans-Serif" font-size="10.00">commandParsing.drawableObect</text>
<text text-anchor="start" x="196" y="-258.5" font-family="Helvetica,sans-Serif" font-size="10.00">GenerationInterfaces.LineGenerator.generate</text>
<text text-anchor="middle" x="305" y="-247.5" font-family="Helvetica,sans-Serif" font-size="10.00">DrawableObjectRepresentingLine</text>
</a>
</g>
</g>
<!-- Node1&#45;&gt;Node2 -->
<g id="edge1" class="edge"><title>Node1&#45;&gt;Node2</title>
<path fill="none" stroke="midnightblue" d="M98.8983,-163.221C119.982,-183.411 153.65,-212.617 188,-230 195.719,-233.906 203.983,-237.361 212.414,-240.407"/>
<polygon fill="midnightblue" stroke="midnightblue" points="101.327,-160.701 91.7219,-156.23 96.4422,-165.715 101.327,-160.701"/>
</g>
<!-- Node5 -->
<g id="node5" class="node"><title>Node5</title>
<g id="a_node5"><a xlink:href="../../db/d21/classtests_1_1command_tests_1_1turtle_query_tests_1_1_get_pen_color_tests.html#a5aeab527041ba3cc9ea7ecdadca5d551" target="_top" xlink:title="tests.commandTests.turtle\lQueryTests.GetPenColorTests.Get\lPenColorAfterSettingPenColorTest">
<polygon fill="white" stroke="black" points="215.5,-180.5 215.5,-221.5 394.5,-221.5 394.5,-180.5 215.5,-180.5"/>
<text text-anchor="start" x="223.5" y="-209.5" font-family="Helvetica,sans-Serif" font-size="10.00">tests.commandTests.turtle</text>
<text text-anchor="start" x="223.5" y="-198.5" font-family="Helvetica,sans-Serif" font-size="10.00">QueryTests.GetPenColorTests.Get</text>
<text text-anchor="middle" x="305" y="-187.5" font-family="Helvetica,sans-Serif" font-size="10.00">PenColorAfterSettingPenColorTest</text>
</a>
</g>
</g>
<!-- Node1&#45;&gt;Node5 -->
<g id="edge4" class="edge"><title>Node1&#45;&gt;Node5</title>
<path fill="none" stroke="midnightblue" d="M143.718,-158.635C169.644,-165.487 199.519,-173.384 226.399,-180.489"/>
<polygon fill="midnightblue" stroke="midnightblue" points="144.551,-155.235 133.989,-156.063 142.762,-162.002 144.551,-155.235"/>
</g>
<!-- Node6 -->
<g id="node6" class="node"><title>Node6</title>
<g id="a_node6"><a xlink:href="../../db/d21/classtests_1_1command_tests_1_1turtle_query_tests_1_1_get_pen_color_tests.html#a6f603fbcf3392994537c770883d1d96e" target="_top" xlink:title="tests.commandTests.turtle\lQueryTests.GetPenColorTests.Get\lPenColorTest">
<polygon fill="white" stroke="black" points="217,-120.5 217,-161.5 393,-161.5 393,-120.5 217,-120.5"/>
<text text-anchor="start" x="225" y="-149.5" font-family="Helvetica,sans-Serif" font-size="10.00">tests.commandTests.turtle</text>
<text text-anchor="start" x="225" y="-138.5" font-family="Helvetica,sans-Serif" font-size="10.00">QueryTests.GetPenColorTests.Get</text>
<text text-anchor="middle" x="305" y="-127.5" font-family="Helvetica,sans-Serif" font-size="10.00">PenColorTest</text>
</a>
</g>
</g>
<!-- Node1&#45;&gt;Node6 -->
<g id="edge5" class="edge"><title>Node1&#45;&gt;Node6</title>
<path fill="none" stroke="midnightblue" d="M161.778,-141C179.712,-141 198.671,-141 216.697,-141"/>
<polygon fill="midnightblue" stroke="midnightblue" points="161.643,-137.5 151.643,-141 161.643,-144.5 161.643,-137.5"/>
</g>
<!-- Node7 -->
<g id="node7" class="node"><title>Node7</title>
<g id="a_node7"><a xlink:href="../../df/dba/classtests_1_1command_tests_1_1color_command_tests_1_1_set_pen_color_tests.html#a81bbab6205035ed10a74995601263e1a" target="_top" xlink:title="tests.commandTests.color\lCommandTests.SetPenColorTests.\lSetPenColorAfterSetPenColorTest">
<polygon fill="white" stroke="black" points="215,-60.5 215,-101.5 395,-101.5 395,-60.5 215,-60.5"/>
<text text-anchor="start" x="223" y="-89.5" font-family="Helvetica,sans-Serif" font-size="10.00">tests.commandTests.color</text>
<text text-anchor="start" x="223" y="-78.5" font-family="Helvetica,sans-Serif" font-size="10.00">CommandTests.SetPenColorTests.</text>
<text text-anchor="middle" x="305" y="-67.5" font-family="Helvetica,sans-Serif" font-size="10.00">SetPenColorAfterSetPenColorTest</text>
</a>
</g>
</g>
<!-- Node1&#45;&gt;Node7 -->
<g id="edge6" class="edge"><title>Node1&#45;&gt;Node7</title>
<path fill="none" stroke="midnightblue" d="M142.055,-123.29C157.132,-119.222 173.119,-114.935 188,-111 199.664,-107.916 211.997,-104.689 224.097,-101.543"/>
<polygon fill="midnightblue" stroke="midnightblue" points="141.04,-119.939 132.299,-125.927 142.866,-126.697 141.04,-119.939"/>
</g>
<!-- Node8 -->
<g id="node8" class="node"><title>Node8</title>
<g id="a_node8"><a xlink:href="../../df/dba/classtests_1_1command_tests_1_1color_command_tests_1_1_set_pen_color_tests.html#af1466ce0e9b147930198231d50ae1bad" target="_top" xlink:title="tests.commandTests.color\lCommandTests.SetPenColorTests.\lSetPenColorTest">
<polygon fill="white" stroke="black" points="215,-0.5 215,-41.5 395,-41.5 395,-0.5 215,-0.5"/>
<text text-anchor="start" x="223" y="-29.5" font-family="Helvetica,sans-Serif" font-size="10.00">tests.commandTests.color</text>
<text text-anchor="start" x="223" y="-18.5" font-family="Helvetica,sans-Serif" font-size="10.00">CommandTests.SetPenColorTests.</text>
<text text-anchor="middle" x="305" y="-7.5" font-family="Helvetica,sans-Serif" font-size="10.00">SetPenColorTest</text>
</a>
</g>
</g>
<!-- Node1&#45;&gt;Node8 -->
<g id="edge7" class="edge"><title>Node1&#45;&gt;Node8</title>
<path fill="none" stroke="midnightblue" d="M98.4591,-118.804C119.462,-98.3232 153.279,-68.5146 188,-51 196.45,-46.7373 205.561,-43.0422 214.831,-39.8476"/>
<polygon fill="midnightblue" stroke="midnightblue" points="95.9545,-116.358 91.3231,-125.887 100.886,-121.326 95.9545,-116.358"/>
</g>
<!-- Node3 -->
<g id="node3" class="node"><title>Node3</title>
<g id="a_node3"><a xlink:href="../../d9/dab/classcommand_parsing_1_1turtle_command_parsing_1_1turtle_movement_1_1_move_to_location.html#a914c07518060cce52ab6782b8dcfeb81" target="_top" xlink:title="commandParsing.turtleCommand\lParsing.turtleMovement.MoveToLocation.operate\lOnComponents">
<polygon fill="white" stroke="black" points="458,-270.5 458,-311.5 708,-311.5 708,-270.5 458,-270.5"/>
<text text-anchor="start" x="466" y="-299.5" font-family="Helvetica,sans-Serif" font-size="10.00">commandParsing.turtleCommand</text>
<text text-anchor="start" x="466" y="-288.5" font-family="Helvetica,sans-Serif" font-size="10.00">Parsing.turtleMovement.MoveToLocation.operate</text>
<text text-anchor="middle" x="583" y="-277.5" font-family="Helvetica,sans-Serif" font-size="10.00">OnComponents</text>
</a>
</g>
</g>
<!-- Node2&#45;&gt;Node3 -->
<g id="edge2" class="edge"><title>Node2&#45;&gt;Node3</title>
<path fill="none" stroke="midnightblue" d="M432.237,-274.721C440.775,-275.649 449.374,-276.584 457.902,-277.511"/>
<polygon fill="midnightblue" stroke="midnightblue" points="432.569,-271.237 422.249,-273.636 431.812,-278.196 432.569,-271.237"/>
</g>
<!-- Node4 -->
<g id="node4" class="node"><title>Node4</title>
<g id="a_node4"><a xlink:href="../../d6/d37/classcommand_parsing_1_1turtle_command_parsing_1_1turtle_movement_1_1_move.html#a82fa17cd8efe11bebcbfb1c7ae8fe7c7" target="_top" xlink:title="commandParsing.turtleCommand\lParsing.turtleMovement.Move.operate\lOnComponents">
<polygon fill="white" stroke="black" points="483,-210.5 483,-251.5 683,-251.5 683,-210.5 483,-210.5"/>
<text text-anchor="start" x="491" y="-239.5" font-family="Helvetica,sans-Serif" font-size="10.00">commandParsing.turtleCommand</text>
<text text-anchor="start" x="491" y="-228.5" font-family="Helvetica,sans-Serif" font-size="10.00">Parsing.turtleMovement.Move.operate</text>
<text text-anchor="middle" x="583" y="-217.5" font-family="Helvetica,sans-Serif" font-size="10.00">OnComponents</text>
</a>
</g>
</g>
<!-- Node2&#45;&gt;Node4 -->
<g id="edge3" class="edge"><title>Node2&#45;&gt;Node4</title>
<path fill="none" stroke="midnightblue" d="M432.226,-247.28C449.233,-245.431 466.479,-243.557 482.923,-241.769"/>
<polygon fill="midnightblue" stroke="midnightblue" points="431.812,-243.804 422.249,-248.364 432.569,-250.763 431.812,-243.804"/>
</g>
</g>
</svg>
        <g id="navigator" transform="translate(0 0)" fill="#404254">
                <rect fill="#f2f5e9" fill-opacity="0.5" stroke="#606060" stroke-width=".5" x="0" y="0" width="60" height="60"/>
                <use id="zoomplus" xlink:href="#zoomPlus" x="17" y="9" onmousedown="handleZoom(evt,'in')"/>
                <use id="zoomminus" xlink:href="#zoomMin" x="42" y="9" onmousedown="handleZoom(evt,'out')"/>
                <use id="reset" xlink:href="#resetDef" x="30" y="36" onmousedown="handleReset()"/>
                <g id="arrowUp" xlink:href="#dirArrow" transform="translate(30 24)" onmousedown="handlePan(0,-1)">
                  <use xlink:href="#rim" fill="#404040">
                        <set attributeName="fill" to="#808080" begin="arrowUp.mouseover" end="arrowUp.mouseout"/>
                  </use>
                  <path fill="none" stroke="white" stroke-width="1.5" d="M0,-3.0v7 M-2.5,-0.5L0,-3.0L2.5,-0.5"/>
                </g>
                <g id="arrowRight" xlink:href="#dirArrow" transform="rotate(90) translate(36 -43)" onmousedown="handlePan(1,0)">
                  <use xlink:href="#rim" fill="#404040">
                        <set attributeName="fill" to="#808080" begin="arrowRight.mouseover" end="arrowRight.mouseout"/>
                  </use>
                  <path fill="none" stroke="white" stroke-width="1.5" d="M0,-3.0v7 M-2.5,-0.5L0,-3.0L2.5,-0.5"/>
                </g>
                <g id="arrowDown" xlink:href="#dirArrow" transform="rotate(180) translate(-30 -48)" onmousedown="handlePan(0,1)">
                  <use xlink:href="#rim" fill="#404040">
                        <set attributeName="fill" to="#808080" begin="arrowDown.mouseover" end="arrowDown.mouseout"/>
                  </use>
                  <path fill="none" stroke="white" stroke-width="1.5" d="M0,-3.0v7 M-2.5,-0.5L0,-3.0L2.5,-0.5"/>
                </g>
                <g id="arrowLeft" xlink:href="#dirArrow" transform="rotate(270) translate(-36 17)" onmousedown="handlePan(-1,0)">
                  <use xlink:href="#rim" fill="#404040">
                        <set attributeName="fill" to="#808080" begin="arrowLeft.mouseover" end="arrowLeft.mouseout"/>
                  </use>
                  <path fill="none" stroke="white" stroke-width="1.5" d="M0,-3.0v7 M-2.5,-0.5L0,-3.0L2.5,-0.5"/>
                </g>
        </g>
        <svg viewBox="0 0 15 15" width="100%" height="30px" preserveAspectRatio="xMaxYMin meet">
         <g id="arrow_out" transform="scale(0.3 0.3)">
          <a xlink:href="classworkspace_state_1_1_pen_af76da0ea2e8a2eba96a60c5aa0b73d3d_icgraph_org.svg" target="_base">
           <rect id="button" ry="5" rx="5" y="6" x="6" height="38" width="38"
                fill="#f2f5e9" fill-opacity="0.5" stroke="#606060" stroke-width="1.0"/>
           <path id="arrow"
             d="M 11.500037,31.436501 C 11.940474,20.09759 22.043105,11.32322 32.158766,21.979434 L 37.068811,17.246167 C 37.068811,17.246167 37.088388,32 37.088388,32 L 22.160133,31.978069 C 22.160133,31.978069 26.997745,27.140456 26.997745,27.140456 C 18.528582,18.264221 13.291696,25.230495 11.500037,31.436501 z"
             style="fill:#404040;"/>
          </a>
         </g>
        </svg>
</svg>
