<?xml version="1.0" encoding="UTF-8" standalone="no"?>
<!DOCTYPE svg PUBLIC "-//W3C//DTD SVG 1.1//EN"
 "http://www.w3.org/Graphics/SVG/1.1/DTD/svg11.dtd">
<!-- Generated by graphviz version 2.36.0 (20140111.2315)
 -->
<!-- Title: Control.SlogoControl.parseCommandString Pages: 1 -->
<svg width="1556pt" height="507pt"
 viewBox="0.00 0.00 1556.00 507.00" xmlns="http://www.w3.org/2000/svg" xmlns:xlink="http://www.w3.org/1999/xlink">
<g id="graph0" class="graph" transform="scale(1 1) rotate(0) translate(4 503)">
<title>Control.SlogoControl.parseCommandString</title>
<polygon fill="white" stroke="none" points="-4,4 -4,-503 1552,-503 1552,4 -4,4"/>
<!-- Node1 -->
<g id="node1" class="node"><title>Node1</title>
<polygon fill="#bfbfbf" stroke="black" points="0,-245 0,-275 146,-275 146,-245 0,-245"/>
<text text-anchor="start" x="8" y="-263" font-family="Helvetica,sans-Serif" font-size="10.00">Control.SlogoControl.parse</text>
<text text-anchor="middle" x="73" y="-252" font-family="Helvetica,sans-Serif" font-size="10.00">CommandString</text>
</g>
<!-- Node2 -->
<g id="node2" class="node"><title>Node2</title>
<g id="a_node2"><a xlink:href="../../d8/df2/classgui_1_1mainclasses_1_1workspace_1_1_workspace.html#ae2fa99713631e9ca7192e75f7302e477" target="_top" xlink:title="gui.mainclasses.workspace.\lWorkspace.addPreviousCommand">
<polygon fill="white" stroke="black" points="200.5,-463 200.5,-493 379.5,-493 379.5,-463 200.5,-463"/>
<text text-anchor="start" x="208.5" y="-481" font-family="Helvetica,sans-Serif" font-size="10.00">gui.mainclasses.workspace.</text>
<text text-anchor="middle" x="290" y="-470" font-family="Helvetica,sans-Serif" font-size="10.00">Workspace.addPreviousCommand</text>
</a>
</g>
</g>
<!-- Node1&#45;&gt;Node2 -->
<g id="edge1" class="edge"><title>Node1&#45;&gt;Node2</title>
<path fill="none" stroke="midnightblue" d="M77.8859,-275.094C88.1465,-311.774 119.565,-406.02 182,-453 184.996,-455.255 188.163,-457.31 191.457,-459.184"/>
<polygon fill="midnightblue" stroke="midnightblue" points="189.939,-462.339 200.442,-463.733 193.101,-456.094 189.939,-462.339"/>
</g>
<!-- Node4 -->
<g id="node4" class="node"><title>Node4</title>
<g id="a_node4"><a xlink:href="../../d7/d17/classcommand_parsing_1_1_command_parser.html#a9bf6e09b0ad06b6f217ad0ad040f8e93" target="_top" xlink:title="commandParsing.CommandParser.create\lParser">
<polygon fill="white" stroke="black" points="182,-414 182,-444 398,-444 398,-414 182,-414"/>
<text text-anchor="start" x="190" y="-432" font-family="Helvetica,sans-Serif" font-size="10.00">commandParsing.CommandParser.create</text>
<text text-anchor="middle" x="290" y="-421" font-family="Helvetica,sans-Serif" font-size="10.00">Parser</text>
</a>
</g>
</g>
<!-- Node1&#45;&gt;Node4 -->
<g id="edge3" class="edge"><title>Node1&#45;&gt;Node4</title>
<path fill="none" stroke="midnightblue" d="M81.0032,-275.416C95.3893,-305.25 131.237,-370.857 182,-404 185.182,-406.078 188.517,-407.983 191.962,-409.731"/>
<polygon fill="midnightblue" stroke="midnightblue" points="190.756,-413.028 201.306,-413.999 193.664,-406.661 190.756,-413.028"/>
</g>
<!-- Node5 -->
<g id="node5" class="node"><title>Node5</title>
<g id="a_node5"><a xlink:href="../../da/de1/class_control_1_1_slogo_control.html#ac59ba1076929dce517c40f9d492f56b2" target="_top" xlink:title="Control.SlogoControl.draw\lDrawableObjects">
<polygon fill="white" stroke="black" points="219.5,-365 219.5,-395 360.5,-395 360.5,-365 219.5,-365"/>
<text text-anchor="start" x="227.5" y="-383" font-family="Helvetica,sans-Serif" font-size="10.00">Control.SlogoControl.draw</text>
<text text-anchor="middle" x="290" y="-372" font-family="Helvetica,sans-Serif" font-size="10.00">DrawableObjects</text>
</a>
</g>
</g>
<!-- Node1&#45;&gt;Node5 -->
<g id="edge4" class="edge"><title>Node1&#45;&gt;Node5</title>
<path fill="none" stroke="midnightblue" d="M87.9097,-275.017C107.19,-294.967 143.979,-330.01 182,-350 190.709,-354.579 200.195,-358.524 209.802,-361.906"/>
<polygon fill="midnightblue" stroke="midnightblue" points="208.832,-365.272 219.425,-365.103 211.039,-358.629 208.832,-365.272"/>
</g>
<!-- Node7 -->
<g id="node7" class="node"><title>Node7</title>
<g id="a_node7"><a xlink:href="../../d3/db0/classgui_1_1mainclasses_1_1workspace_1_1_workspace_manager.html#a4863a19ac83bbd4dea5582dcecf3553d" target="_top" xlink:title="gui.mainclasses.workspace.\lWorkspaceManager.getActiveWorkspace">
<polygon fill="white" stroke="black" points="664,-321 664,-351 872,-351 872,-321 664,-321"/>
<text text-anchor="start" x="672" y="-339" font-family="Helvetica,sans-Serif" font-size="10.00">gui.mainclasses.workspace.</text>
<text text-anchor="middle" x="768" y="-328" font-family="Helvetica,sans-Serif" font-size="10.00">WorkspaceManager.getActiveWorkspace</text>
</a>
</g>
</g>
<!-- Node1&#45;&gt;Node7 -->
<g id="edge15" class="edge"><title>Node1&#45;&gt;Node7</title>
<path fill="none" stroke="midnightblue" d="M95.9739,-275.136C116.995,-288.681 150.128,-307.649 182,-316 341.637,-357.829 534.143,-354.638 653.582,-346.711"/>
<polygon fill="midnightblue" stroke="midnightblue" points="654.1,-350.184 663.837,-346.007 653.62,-343.201 654.1,-350.184"/>
</g>
<!-- Node14 -->
<g id="node14" class="node"><title>Node14</title>
<g id="a_node14"><a xlink:href="../../d1/d63/classcommand_parsing_1_1exceptions_1_1_compile_time_parsing_exception.html#a8926a38a2f21f0523beadfaa9e149534" target="_top" xlink:title="commandParsing.exceptions.\lCompileTimeParsingException.generate\lErrorMessage">
<polygon fill="white" stroke="black" points="187,-266.5 187,-307.5 393,-307.5 393,-266.5 187,-266.5"/>
<text text-anchor="start" x="195" y="-295.5" font-family="Helvetica,sans-Serif" font-size="10.00">commandParsing.exceptions.</text>
<text text-anchor="start" x="195" y="-284.5" font-family="Helvetica,sans-Serif" font-size="10.00">CompileTimeParsingException.generate</text>
<text text-anchor="middle" x="290" y="-273.5" font-family="Helvetica,sans-Serif" font-size="10.00">ErrorMessage</text>
</a>
</g>
</g>
<!-- Node1&#45;&gt;Node14 -->
<g id="edge13" class="edge"><title>Node1&#45;&gt;Node14</title>
<path fill="none" stroke="midnightblue" d="M146.19,-269.066C156.082,-270.308 166.422,-271.607 176.821,-272.912"/>
<polygon fill="midnightblue" stroke="midnightblue" points="176.439,-276.392 186.797,-274.165 177.311,-269.446 176.439,-276.392"/>
</g>
<!-- Node15 -->
<g id="node15" class="node"><title>Node15</title>
<g id="a_node15"><a xlink:href="../../d7/ddf/classcommand_parsing_1_1exceptions_1_1_s_l_o_g_o_exception.html#a1f818eeb2738ee107f09b09dc4557012" target="_top" xlink:title="commandParsing.exceptions.\lSLOGOException.generateErrorMessage">
<polygon fill="white" stroke="black" points="185,-218 185,-248 395,-248 395,-218 185,-218"/>
<text text-anchor="start" x="193" y="-236" font-family="Helvetica,sans-Serif" font-size="10.00">commandParsing.exceptions.</text>
<text text-anchor="middle" x="290" y="-225" font-family="Helvetica,sans-Serif" font-size="10.00">SLOGOException.generateErrorMessage</text>
</a>
</g>
</g>
<!-- Node1&#45;&gt;Node15 -->
<g id="edge14" class="edge"><title>Node1&#45;&gt;Node15</title>
<path fill="none" stroke="midnightblue" d="M146.19,-250.934C155.425,-249.775 165.051,-248.566 174.751,-247.348"/>
<polygon fill="midnightblue" stroke="midnightblue" points="175.387,-250.795 184.873,-246.076 174.515,-243.85 175.387,-250.795"/>
</g>
<!-- Node16 -->
<g id="node16" class="node"><title>Node16</title>
<g id="a_node16"><a xlink:href="../../d5/d3d/classgui_1_1mainclasses_1_1_g_u_i_controller.html#ada863c2634db50c98e233c35a57823ff" target="_top" xlink:title="gui.mainclasses.GUIController.get\lWorkspaceManager">
<polygon fill="white" stroke="black" points="201,-169 201,-199 379,-199 379,-169 201,-169"/>
<text text-anchor="start" x="209" y="-187" font-family="Helvetica,sans-Serif" font-size="10.00">gui.mainclasses.GUIController.get</text>
<text text-anchor="middle" x="290" y="-176" font-family="Helvetica,sans-Serif" font-size="10.00">WorkspaceManager</text>
</a>
</g>
</g>
<!-- Node1&#45;&gt;Node16 -->
<g id="edge16" class="edge"><title>Node1&#45;&gt;Node16</title>
<path fill="none" stroke="midnightblue" d="M100.789,-244.976C122.211,-233.49 153.303,-217.98 182,-208 188.464,-205.752 195.222,-203.662 202.064,-201.731"/>
<polygon fill="midnightblue" stroke="midnightblue" points="203.383,-205 212.124,-199.013 201.558,-198.242 203.383,-205"/>
</g>
<!-- Node17 -->
<g id="node17" class="node"><title>Node17</title>
<g id="a_node17"><a xlink:href="../../d7/d17/classcommand_parsing_1_1_command_parser.html#ae5a2f506ca01f7fa355a64e4831fbae3" target="_top" xlink:title="commandParsing.CommandParser.parse">
<polygon fill="white" stroke="black" points="184,-130.5 184,-149.5 396,-149.5 396,-130.5 184,-130.5"/>
<text text-anchor="middle" x="290" y="-137.5" font-family="Helvetica,sans-Serif" font-size="10.00">commandParsing.CommandParser.parse</text>
</a>
</g>
</g>
<!-- Node1&#45;&gt;Node17 -->
<g id="edge17" class="edge"><title>Node1&#45;&gt;Node17</title>
<path fill="none" stroke="midnightblue" d="M85.3809,-244.801C103.256,-222.133 140.214,-179.902 182,-159 186.851,-156.573 191.962,-154.452 197.214,-152.598"/>
<polygon fill="midnightblue" stroke="midnightblue" points="198.329,-155.916 206.792,-149.542 196.201,-149.247 198.329,-155.916"/>
</g>
<!-- Node18 -->
<g id="node18" class="node"><title>Node18</title>
<g id="a_node18"><a xlink:href="../../da/de1/class_control_1_1_slogo_control.html#a45f3c19cfd5992942071e92a2ae3f4b7" target="_top" xlink:title="Control.SlogoControl.sanitize">
<polygon fill="white" stroke="black" points="212.5,-92.5 212.5,-111.5 367.5,-111.5 367.5,-92.5 212.5,-92.5"/>
<text text-anchor="middle" x="290" y="-99.5" font-family="Helvetica,sans-Serif" font-size="10.00">Control.SlogoControl.sanitize</text>
</a>
</g>
</g>
<!-- Node1&#45;&gt;Node18 -->
<g id="edge18" class="edge"><title>Node1&#45;&gt;Node18</title>
<path fill="none" stroke="midnightblue" d="M81.004,-244.88C95.3914,-215.663 131.241,-151.633 182,-121 188.33,-117.18 195.229,-114.084 202.375,-111.58"/>
<polygon fill="midnightblue" stroke="midnightblue" points="203.728,-114.825 212.243,-108.52 201.655,-108.139 203.728,-114.825"/>
</g>
<!-- Node19 -->
<g id="node19" class="node"><title>Node19</title>
<g id="a_node19"><a xlink:href="../../d3/de0/classtranslator_1_1_translator.html#a0b8583b3ece2e55d0f02d7a076522863" target="_top" xlink:title="translator.Translator.translate">
<polygon fill="white" stroke="black" points="211.5,-54.5 211.5,-73.5 368.5,-73.5 368.5,-54.5 211.5,-54.5"/>
<text text-anchor="middle" x="290" y="-61.5" font-family="Helvetica,sans-Serif" font-size="10.00">translator.Translator.translate</text>
</a>
</g>
</g>
<!-- Node1&#45;&gt;Node19 -->
<g id="edge19" class="edge"><title>Node1&#45;&gt;Node19</title>
<path fill="none" stroke="midnightblue" d="M78.4568,-244.913C89.588,-210.08 122.107,-123.917 182,-83 188.051,-78.866 194.73,-75.549 201.706,-72.8964"/>
<polygon fill="midnightblue" stroke="midnightblue" points="202.99,-76.1576 211.372,-69.6766 200.778,-69.5164 202.99,-76.1576"/>
</g>
<!-- Node3 -->
<g id="node3" class="node"><title>Node3</title>
<g id="a_node3"><a xlink:href="../../d0/d23/classgui_1_1mainclasses_1_1workspace_1_1_workspace_data_holder.html#a9476ee0347a1d675525393b4d7a56acb" target="_top" xlink:title="gui.mainclasses.workspace.\lWorkspaceDataHolder.getMyPrevious\lCommandsList">
<polygon fill="white" stroke="black" points="434,-457.5 434,-498.5 628,-498.5 628,-457.5 434,-457.5"/>
<text text-anchor="start" x="442" y="-486.5" font-family="Helvetica,sans-Serif" font-size="10.00">gui.mainclasses.workspace.</text>
<text text-anchor="start" x="442" y="-475.5" font-family="Helvetica,sans-Serif" font-size="10.00">WorkspaceDataHolder.getMyPrevious</text>
<text text-anchor="middle" x="531" y="-464.5" font-family="Helvetica,sans-Serif" font-size="10.00">CommandsList</text>
</a>
</g>
</g>
<!-- Node2&#45;&gt;Node3 -->
<g id="edge2" class="edge"><title>Node2&#45;&gt;Node3</title>
<path fill="none" stroke="midnightblue" d="M379.655,-478C394.011,-478 409.004,-478 423.726,-478"/>
<polygon fill="midnightblue" stroke="midnightblue" points="423.864,-481.5 433.864,-478 423.864,-474.5 423.864,-481.5"/>
</g>
<!-- Node6 -->
<g id="node6" class="node"><title>Node6</title>
<g id="a_node6"><a xlink:href="../../d5/d3d/classgui_1_1mainclasses_1_1_g_u_i_controller.html#a32ce7160aef646c8557283e20135d34c" target="_top" xlink:title="gui.mainclasses.GUIController.draw\lDrawableObjects">
<polygon fill="white" stroke="black" points="438.5,-365 438.5,-395 623.5,-395 623.5,-365 438.5,-365"/>
<text text-anchor="start" x="446.5" y="-383" font-family="Helvetica,sans-Serif" font-size="10.00">gui.mainclasses.GUIController.draw</text>
<text text-anchor="middle" x="531" y="-372" font-family="Helvetica,sans-Serif" font-size="10.00">DrawableObjects</text>
</a>
</g>
</g>
<!-- Node5&#45;&gt;Node6 -->
<g id="edge5" class="edge"><title>Node5&#45;&gt;Node6</title>
<path fill="none" stroke="midnightblue" d="M360.771,-380C381.895,-380 405.542,-380 428.307,-380"/>
<polygon fill="midnightblue" stroke="midnightblue" points="428.344,-383.5 438.344,-380 428.344,-376.5 428.344,-383.5"/>
</g>
<!-- Node6&#45;&gt;Node7 -->
<g id="edge6" class="edge"><title>Node6&#45;&gt;Node7</title>
<path fill="none" stroke="midnightblue" d="M612.216,-364.981C632.993,-361.091 655.504,-356.876 676.756,-352.897"/>
<polygon fill="midnightblue" stroke="midnightblue" points="677.561,-356.307 686.746,-351.026 676.273,-349.426 677.561,-356.307"/>
</g>
<!-- Node8 -->
<g id="node8" class="node"><title>Node8</title>
<g id="a_node8"><a xlink:href="../../d8/df2/classgui_1_1mainclasses_1_1workspace_1_1_workspace.html#a3aa7429441a5bca58fe2c0b94f25645d" target="_top" xlink:title="gui.mainclasses.workspace.\lWorkspace.parseDrawableObject">
<polygon fill="white" stroke="black" points="681.5,-370 681.5,-400 854.5,-400 854.5,-370 681.5,-370"/>
<text text-anchor="start" x="689.5" y="-388" font-family="Helvetica,sans-Serif" font-size="10.00">gui.mainclasses.workspace.</text>
<text text-anchor="middle" x="768" y="-377" font-family="Helvetica,sans-Serif" font-size="10.00">Workspace.parseDrawableObject</text>
</a>
</g>
</g>
<!-- Node6&#45;&gt;Node8 -->
<g id="edge7" class="edge"><title>Node6&#45;&gt;Node8</title>
<path fill="none" stroke="midnightblue" d="M623.53,-381.947C639.176,-382.28 655.469,-382.627 671.222,-382.962"/>
<polygon fill="midnightblue" stroke="midnightblue" points="671.412,-386.467 681.484,-383.181 671.561,-379.468 671.412,-386.467"/>
</g>
<!-- Node9 -->
<g id="node9" class="node"><title>Node9</title>
<g id="a_node9"><a xlink:href="../../db/db2/classgui_1_1mainclasses_1_1_drawable_object_parser.html#af82adbaff13327029a151db1a0a0acdb" target="_top" xlink:title="gui.mainclasses.Drawable\lObjectParser.parseDrawableObject">
<polygon fill="white" stroke="black" points="908,-370 908,-400 1090,-400 1090,-370 908,-370"/>
<text text-anchor="start" x="916" y="-388" font-family="Helvetica,sans-Serif" font-size="10.00">gui.mainclasses.Drawable</text>
<text text-anchor="middle" x="999" y="-377" font-family="Helvetica,sans-Serif" font-size="10.00">ObjectParser.parseDrawableObject</text>
</a>
</g>
</g>
<!-- Node8&#45;&gt;Node9 -->
<g id="edge8" class="edge"><title>Node8&#45;&gt;Node9</title>
<path fill="none" stroke="midnightblue" d="M854.597,-385C868.602,-385 883.224,-385 897.549,-385"/>
<polygon fill="midnightblue" stroke="midnightblue" points="897.914,-388.5 907.914,-385 897.914,-381.5 897.914,-388.5"/>
</g>
<!-- Node10 -->
<g id="node10" class="node"><title>Node10</title>
<g id="a_node10"><a xlink:href="../../db/db2/classgui_1_1mainclasses_1_1_drawable_object_parser.html#adb6188c1155c494e00251c5e7d5f3e7a" target="_top" xlink:title="gui.mainclasses.Drawable\lObjectParser.parseComponentDrawer">
<polygon fill="white" stroke="black" points="1126.5,-419 1126.5,-449 1323.5,-449 1323.5,-419 1126.5,-419"/>
<text text-anchor="start" x="1134.5" y="-437" font-family="Helvetica,sans-Serif" font-size="10.00">gui.mainclasses.Drawable</text>
<text text-anchor="middle" x="1225" y="-426" font-family="Helvetica,sans-Serif" font-size="10.00">ObjectParser.parseComponentDrawer</text>
</a>
</g>
</g>
<!-- Node9&#45;&gt;Node10 -->
<g id="edge9" class="edge"><title>Node9&#45;&gt;Node10</title>
<path fill="none" stroke="midnightblue" d="M1068.73,-400.035C1093.03,-405.349 1120.53,-411.367 1145.57,-416.844"/>
<polygon fill="midnightblue" stroke="midnightblue" points="1144.88,-420.276 1155.4,-418.994 1146.38,-413.438 1144.88,-420.276"/>
</g>
<!-- Node11 -->
<g id="node11" class="node"><title>Node11</title>
<g id="a_node11"><a xlink:href="../../db/db2/classgui_1_1mainclasses_1_1_drawable_object_parser.html#ac93f66a3adf4230d9c365f8628083a3c" target="_top" xlink:title="gui.mainclasses.Drawable\lObjectParser.parseNodeToDraw">
<polygon fill="white" stroke="black" points="1142,-370 1142,-400 1308,-400 1308,-370 1142,-370"/>
<text text-anchor="start" x="1150" y="-388" font-family="Helvetica,sans-Serif" font-size="10.00">gui.mainclasses.Drawable</text>
<text text-anchor="middle" x="1225" y="-377" font-family="Helvetica,sans-Serif" font-size="10.00">ObjectParser.parseNodeToDraw</text>
</a>
</g>
</g>
<!-- Node9&#45;&gt;Node11 -->
<g id="edge10" class="edge"><title>Node9&#45;&gt;Node11</title>
<path fill="none" stroke="midnightblue" d="M1090.14,-385C1103.7,-385 1117.71,-385 1131.33,-385"/>
<polygon fill="midnightblue" stroke="midnightblue" points="1131.65,-388.5 1141.65,-385 1131.65,-381.5 1131.65,-388.5"/>
</g>
<!-- Node13 -->
<g id="node13" class="node"><title>Node13</title>
<g id="a_node13"><a xlink:href="../../d0/dda/classgui_1_1componentdrawers_1_1_component_drawer.html#a7866683582ed9aebe665c7998d549fbb" target="_top" xlink:title="gui.componentdrawers.Component\lDrawer.drawShape">
<polygon fill="white" stroke="black" points="1132.5,-321 1132.5,-351 1317.5,-351 1317.5,-321 1132.5,-321"/>
<text text-anchor="start" x="1140.5" y="-339" font-family="Helvetica,sans-Serif" font-size="10.00">gui.componentdrawers.Component</text>
<text text-anchor="middle" x="1225" y="-328" font-family="Helvetica,sans-Serif" font-size="10.00">Drawer.drawShape</text>
</a>
</g>
</g>
<!-- Node9&#45;&gt;Node13 -->
<g id="edge12" class="edge"><title>Node9&#45;&gt;Node13</title>
<path fill="none" stroke="midnightblue" d="M1068.73,-369.965C1093.03,-364.651 1120.53,-358.633 1145.57,-353.156"/>
<polygon fill="midnightblue" stroke="midnightblue" points="1146.38,-356.562 1155.4,-351.006 1144.88,-349.724 1146.38,-356.562"/>
</g>
<!-- Node12 -->
<g id="node12" class="node"><title>Node12</title>
<g id="a_node12"><a xlink:href="../../d1/d60/classgui_1_1factories_1_1_object_factory.html#aae1042d4fe6455bf3dbeb6fea18df24a" target="_top" xlink:title="gui.factories.ObjectFactory.generate\lObject">
<polygon fill="white" stroke="black" points="1360,-370 1360,-400 1548,-400 1548,-370 1360,-370"/>
<text text-anchor="start" x="1368" y="-388" font-family="Helvetica,sans-Serif" font-size="10.00">gui.factories.ObjectFactory.generate</text>
<text text-anchor="middle" x="1454" y="-377" font-family="Helvetica,sans-Serif" font-size="10.00">Object</text>
</a>
</g>
</g>
<!-- Node11&#45;&gt;Node12 -->
<g id="edge11" class="edge"><title>Node11&#45;&gt;Node12</title>
<path fill="none" stroke="midnightblue" d="M1308.27,-385C1321.75,-385 1335.86,-385 1349.77,-385"/>
<polygon fill="midnightblue" stroke="midnightblue" points="1349.85,-388.5 1359.85,-385 1349.85,-381.5 1349.85,-388.5"/>
</g>
<!-- Node20 -->
<g id="node20" class="node"><title>Node20</title>
<g id="a_node20"><a xlink:href="../../d3/de0/classtranslator_1_1_translator.html#ae5f7587427ac1df42b5764f127ce827c" target="_top" xlink:title="translator.Translator.translate\lToList">
<polygon fill="white" stroke="black" points="452.5,-49 452.5,-79 609.5,-79 609.5,-49 452.5,-49"/>
<text text-anchor="start" x="460.5" y="-67" font-family="Helvetica,sans-Serif" font-size="10.00">translator.Translator.translate</text>
<text text-anchor="middle" x="531" y="-56" font-family="Helvetica,sans-Serif" font-size="10.00">ToList</text>
</a>
</g>
</g>
<!-- Node19&#45;&gt;Node20 -->
<g id="edge20" class="edge"><title>Node19&#45;&gt;Node20</title>
<path fill="none" stroke="midnightblue" d="M368.596,-64C392.091,-64 418.061,-64 442.176,-64"/>
<polygon fill="midnightblue" stroke="midnightblue" points="442.384,-67.5001 452.384,-64 442.384,-60.5001 442.384,-67.5001"/>
</g>
<!-- Node21 -->
<g id="node21" class="node"><title>Node21</title>
<g id="a_node21"><a xlink:href="../../d3/de0/classtranslator_1_1_translator.html#ad62364674b153e6fb5c67b328700d6e2" target="_top" xlink:title="translator.Translator.matches\lCommandPattern">
<polygon fill="white" stroke="black" points="690,-98 690,-128 846,-128 846,-98 690,-98"/>
<text text-anchor="start" x="698" y="-116" font-family="Helvetica,sans-Serif" font-size="10.00">translator.Translator.matches</text>
<text text-anchor="middle" x="768" y="-105" font-family="Helvetica,sans-Serif" font-size="10.00">CommandPattern</text>
</a>
</g>
</g>
<!-- Node20&#45;&gt;Node21 -->
<g id="edge21" class="edge"><title>Node20&#45;&gt;Node21</title>
<path fill="none" stroke="midnightblue" d="M604.105,-79.0346C629.707,-84.373 658.707,-90.4198 685.07,-95.9166"/>
<polygon fill="midnightblue" stroke="midnightblue" points="684.528,-99.3788 695.032,-97.9938 685.957,-92.5262 684.528,-99.3788"/>
</g>
<!-- Node22 -->
<g id="node22" class="node"><title>Node22</title>
<g id="a_node22"><a xlink:href="../../d3/de0/classtranslator_1_1_translator.html#ae163dd69225da8754f9f090cb2b32bd4" target="_top" xlink:title="translator.Translator.matches\lConstantPattern">
<polygon fill="white" stroke="black" points="690,-49 690,-79 846,-79 846,-49 690,-49"/>
<text text-anchor="start" x="698" y="-67" font-family="Helvetica,sans-Serif" font-size="10.00">translator.Translator.matches</text>
<text text-anchor="middle" x="768" y="-56" font-family="Helvetica,sans-Serif" font-size="10.00">ConstantPattern</text>
</a>
</g>
</g>
<!-- Node20&#45;&gt;Node22 -->
<g id="edge22" class="edge"><title>Node20&#45;&gt;Node22</title>
<path fill="none" stroke="midnightblue" d="M609.599,-64C632.076,-64 656.762,-64 679.784,-64"/>
<polygon fill="midnightblue" stroke="midnightblue" points="679.883,-67.5001 689.883,-64 679.883,-60.5001 679.883,-67.5001"/>
</g>
<!-- Node23 -->
<g id="node23" class="node"><title>Node23</title>
<g id="a_node23"><a xlink:href="../../d3/de0/classtranslator_1_1_translator.html#aeb9508fb69ae1c82eec49d2b1d4ee77b" target="_top" xlink:title="translator.Translator.matches\lVariablePattern">
<polygon fill="white" stroke="black" points="690,-0 690,-30 846,-30 846,-0 690,-0"/>
<text text-anchor="start" x="698" y="-18" font-family="Helvetica,sans-Serif" font-size="10.00">translator.Translator.matches</text>
<text text-anchor="middle" x="768" y="-7" font-family="Helvetica,sans-Serif" font-size="10.00">VariablePattern</text>
</a>
</g>
</g>
<!-- Node20&#45;&gt;Node23 -->
<g id="edge23" class="edge"><title>Node20&#45;&gt;Node23</title>
<path fill="none" stroke="midnightblue" d="M604.105,-48.9654C629.707,-43.627 658.707,-37.5802 685.07,-32.0834"/>
<polygon fill="midnightblue" stroke="midnightblue" points="685.957,-35.4738 695.032,-30.0062 684.528,-28.6212 685.957,-35.4738"/>
</g>
</g>
</svg>
