<?xml version="1.0" encoding="UTF-8" standalone="no"?>
<!DOCTYPE svg PUBLIC "-//W3C//DTD SVG 1.1//EN"
 "http://www.w3.org/Graphics/SVG/1.1/DTD/svg11.dtd">
<!-- Generated by graphviz version 2.36.0 (20140111.2315)
 -->
<!-- Title: Control.SlogoControl.sanitize Pages: 1 -->
<svg width="528pt" height="38pt"
 viewBox="0.00 0.00 528.00 38.00" xmlns="http://www.w3.org/2000/svg" xmlns:xlink="http://www.w3.org/1999/xlink">
<g id="graph0" class="graph" transform="scale(1 1) rotate(0) translate(4 34)">
<title>Control.SlogoControl.sanitize</title>
<polygon fill="white" stroke="none" points="-4,4 -4,-34 524,-34 524,4 -4,4"/>
<!-- Node1 -->
<g id="node1" class="node"><title>Node1</title>
<polygon fill="#bfbfbf" stroke="black" points="0.5,-5.5 0.5,-24.5 155.5,-24.5 155.5,-5.5 0.5,-5.5"/>
<text text-anchor="middle" x="78" y="-12.5" font-family="Helvetica,sans-Serif" font-size="10.00">Control.SlogoControl.sanitize</text>
</g>
<!-- Node2 -->
<g id="node2" class="node"><title>Node2</title>
<g id="a_node2"><a xlink:href="../../da/de1/class_control_1_1_slogo_control.html#a3c55ba4e1dadbf4fbcd647017109fa9a" target="_top" xlink:title="Control.SlogoControl.parse\lCommandString">
<polygon fill="white" stroke="black" points="192,-0 192,-30 338,-30 338,-0 192,-0"/>
<text text-anchor="start" x="200" y="-18" font-family="Helvetica,sans-Serif" font-size="10.00">Control.SlogoControl.parse</text>
<text text-anchor="middle" x="265" y="-7" font-family="Helvetica,sans-Serif" font-size="10.00">CommandString</text>
</a>
</g>
</g>
<!-- Node1&#45;&gt;Node2 -->
<g id="edge1" class="edge"><title>Node1&#45;&gt;Node2</title>
<path fill="none" stroke="midnightblue" d="M165.8,-15C174.546,-15 183.361,-15 191.929,-15"/>
<polygon fill="midnightblue" stroke="midnightblue" points="165.582,-11.5001 155.582,-15 165.582,-18.5001 165.582,-11.5001"/>
</g>
<!-- Node3 -->
<g id="node3" class="node"><title>Node3</title>
<g id="a_node3"><a xlink:href="../../da/de1/class_control_1_1_slogo_control.html#a3c3830d88ed47944348f1f82c56d0d58" target="_top" xlink:title="Control.SlogoControl.Slogo\lControl">
<polygon fill="white" stroke="black" points="374,-0 374,-30 520,-30 520,-0 374,-0"/>
<text text-anchor="start" x="382" y="-18" font-family="Helvetica,sans-Serif" font-size="10.00">Control.SlogoControl.Slogo</text>
<text text-anchor="middle" x="447" y="-7" font-family="Helvetica,sans-Serif" font-size="10.00">Control</text>
</a>
</g>
</g>
<!-- Node2&#45;&gt;Node3 -->
<g id="edge2" class="edge"><title>Node2&#45;&gt;Node3</title>
<path fill="none" stroke="midnightblue" d="M348.439,-15C356.906,-15 365.464,-15 373.808,-15"/>
<polygon fill="midnightblue" stroke="midnightblue" points="348.176,-11.5001 338.176,-15 348.176,-18.5001 348.176,-11.5001"/>
</g>
</g>
</svg>
