<?xml version="1.0" encoding="UTF-8" standalone="no"?>
<!DOCTYPE svg PUBLIC "-//W3C//DTD SVG 1.1//EN"
 "http://www.w3.org/Graphics/SVG/1.1/DTD/svg11.dtd">
<!-- Generated by graphviz version 2.36.0 (20140111.2315)
 -->
<!-- Title: Control.SlogoControl.drawDrawableObjects Pages: 1 -->
<svg width="1292pt" height="136pt"
 viewBox="0.00 0.00 1292.00 136.00" xmlns="http://www.w3.org/2000/svg" xmlns:xlink="http://www.w3.org/1999/xlink">
<g id="graph0" class="graph" transform="scale(1 1) rotate(0) translate(4 132)">
<title>Control.SlogoControl.drawDrawableObjects</title>
<polygon fill="white" stroke="none" points="-4,4 -4,-132 1288,-132 1288,4 -4,4"/>
<!-- Node1 -->
<g id="node1" class="node"><title>Node1</title>
<polygon fill="#bfbfbf" stroke="black" points="0.5,-73 0.5,-103 141.5,-103 141.5,-73 0.5,-73"/>
<text text-anchor="start" x="8.5" y="-91" font-family="Helvetica,sans-Serif" font-size="10.00">Control.SlogoControl.draw</text>
<text text-anchor="middle" x="71" y="-80" font-family="Helvetica,sans-Serif" font-size="10.00">DrawableObjects</text>
</g>
<!-- Node2 -->
<g id="node2" class="node"><title>Node2</title>
<g id="a_node2"><a xlink:href="../../d5/d3d/classgui_1_1mainclasses_1_1_g_u_i_controller.html#a32ce7160aef646c8557283e20135d34c" target="_top" xlink:title="gui.mainclasses.GUIController.draw\lDrawableObjects">
<polygon fill="white" stroke="black" points="178.5,-73 178.5,-103 363.5,-103 363.5,-73 178.5,-73"/>
<text text-anchor="start" x="186.5" y="-91" font-family="Helvetica,sans-Serif" font-size="10.00">gui.mainclasses.GUIController.draw</text>
<text text-anchor="middle" x="271" y="-80" font-family="Helvetica,sans-Serif" font-size="10.00">DrawableObjects</text>
</a>
</g>
</g>
<!-- Node1&#45;&gt;Node2 -->
<g id="edge1" class="edge"><title>Node1&#45;&gt;Node2</title>
<path fill="none" stroke="midnightblue" d="M141.529,-88C150.192,-88 159.186,-88 168.211,-88"/>
<polygon fill="midnightblue" stroke="midnightblue" points="168.397,-91.5001 178.397,-88 168.397,-84.5001 168.397,-91.5001"/>
</g>
<!-- Node3 -->
<g id="node3" class="node"><title>Node3</title>
<g id="a_node3"><a xlink:href="../../d3/db0/classgui_1_1mainclasses_1_1workspace_1_1_workspace_manager.html#a4863a19ac83bbd4dea5582dcecf3553d" target="_top" xlink:title="gui.mainclasses.workspace.\lWorkspaceManager.getActiveWorkspace">
<polygon fill="white" stroke="black" points="400,-98 400,-128 608,-128 608,-98 400,-98"/>
<text text-anchor="start" x="408" y="-116" font-family="Helvetica,sans-Serif" font-size="10.00">gui.mainclasses.workspace.</text>
<text text-anchor="middle" x="504" y="-105" font-family="Helvetica,sans-Serif" font-size="10.00">WorkspaceManager.getActiveWorkspace</text>
</a>
</g>
</g>
<!-- Node2&#45;&gt;Node3 -->
<g id="edge2" class="edge"><title>Node2&#45;&gt;Node3</title>
<path fill="none" stroke="midnightblue" d="M363.629,-97.9166C372.14,-98.8376 380.831,-99.7782 389.507,-100.717"/>
<polygon fill="midnightblue" stroke="midnightblue" points="389.355,-104.221 399.673,-101.817 390.108,-97.2617 389.355,-104.221"/>
</g>
<!-- Node4 -->
<g id="node4" class="node"><title>Node4</title>
<g id="a_node4"><a xlink:href="../../d8/df2/classgui_1_1mainclasses_1_1workspace_1_1_workspace.html#a3aa7429441a5bca58fe2c0b94f25645d" target="_top" xlink:title="gui.mainclasses.workspace.\lWorkspace.parseDrawableObject">
<polygon fill="white" stroke="black" points="417.5,-49 417.5,-79 590.5,-79 590.5,-49 417.5,-49"/>
<text text-anchor="start" x="425.5" y="-67" font-family="Helvetica,sans-Serif" font-size="10.00">gui.mainclasses.workspace.</text>
<text text-anchor="middle" x="504" y="-56" font-family="Helvetica,sans-Serif" font-size="10.00">Workspace.parseDrawableObject</text>
</a>
</g>
</g>
<!-- Node2&#45;&gt;Node4 -->
<g id="edge3" class="edge"><title>Node2&#45;&gt;Node4</title>
<path fill="none" stroke="midnightblue" d="M363.629,-78.4801C378.06,-76.9808 393.011,-75.4275 407.526,-73.9194"/>
<polygon fill="midnightblue" stroke="midnightblue" points="407.909,-77.3985 417.494,-72.8838 407.186,-70.436 407.909,-77.3985"/>
</g>
<!-- Node5 -->
<g id="node5" class="node"><title>Node5</title>
<g id="a_node5"><a xlink:href="../../db/db2/classgui_1_1mainclasses_1_1_drawable_object_parser.html#af82adbaff13327029a151db1a0a0acdb" target="_top" xlink:title="gui.mainclasses.Drawable\lObjectParser.parseDrawableObject">
<polygon fill="white" stroke="black" points="644,-49 644,-79 826,-79 826,-49 644,-49"/>
<text text-anchor="start" x="652" y="-67" font-family="Helvetica,sans-Serif" font-size="10.00">gui.mainclasses.Drawable</text>
<text text-anchor="middle" x="735" y="-56" font-family="Helvetica,sans-Serif" font-size="10.00">ObjectParser.parseDrawableObject</text>
</a>
</g>
</g>
<!-- Node4&#45;&gt;Node5 -->
<g id="edge4" class="edge"><title>Node4&#45;&gt;Node5</title>
<path fill="none" stroke="midnightblue" d="M590.597,-64C604.602,-64 619.224,-64 633.549,-64"/>
<polygon fill="midnightblue" stroke="midnightblue" points="633.914,-67.5001 643.914,-64 633.914,-60.5001 633.914,-67.5001"/>
</g>
<!-- Node6 -->
<g id="node6" class="node"><title>Node6</title>
<g id="a_node6"><a xlink:href="../../db/db2/classgui_1_1mainclasses_1_1_drawable_object_parser.html#adb6188c1155c494e00251c5e7d5f3e7a" target="_top" xlink:title="gui.mainclasses.Drawable\lObjectParser.parseComponentDrawer">
<polygon fill="white" stroke="black" points="862.5,-98 862.5,-128 1059.5,-128 1059.5,-98 862.5,-98"/>
<text text-anchor="start" x="870.5" y="-116" font-family="Helvetica,sans-Serif" font-size="10.00">gui.mainclasses.Drawable</text>
<text text-anchor="middle" x="961" y="-105" font-family="Helvetica,sans-Serif" font-size="10.00">ObjectParser.parseComponentDrawer</text>
</a>
</g>
</g>
<!-- Node5&#45;&gt;Node6 -->
<g id="edge5" class="edge"><title>Node5&#45;&gt;Node6</title>
<path fill="none" stroke="midnightblue" d="M804.73,-79.0346C829.026,-84.3494 856.533,-90.3665 881.572,-95.844"/>
<polygon fill="midnightblue" stroke="midnightblue" points="880.883,-99.2759 891.4,-97.9938 882.379,-92.4376 880.883,-99.2759"/>
</g>
<!-- Node7 -->
<g id="node7" class="node"><title>Node7</title>
<g id="a_node7"><a xlink:href="../../db/db2/classgui_1_1mainclasses_1_1_drawable_object_parser.html#ac93f66a3adf4230d9c365f8628083a3c" target="_top" xlink:title="gui.mainclasses.Drawable\lObjectParser.parseNodeToDraw">
<polygon fill="white" stroke="black" points="878,-49 878,-79 1044,-79 1044,-49 878,-49"/>
<text text-anchor="start" x="886" y="-67" font-family="Helvetica,sans-Serif" font-size="10.00">gui.mainclasses.Drawable</text>
<text text-anchor="middle" x="961" y="-56" font-family="Helvetica,sans-Serif" font-size="10.00">ObjectParser.parseNodeToDraw</text>
</a>
</g>
</g>
<!-- Node5&#45;&gt;Node7 -->
<g id="edge6" class="edge"><title>Node5&#45;&gt;Node7</title>
<path fill="none" stroke="midnightblue" d="M826.141,-64C839.704,-64 853.711,-64 867.326,-64"/>
<polygon fill="midnightblue" stroke="midnightblue" points="867.647,-67.5001 877.647,-64 867.647,-60.5001 867.647,-67.5001"/>
</g>
<!-- Node9 -->
<g id="node9" class="node"><title>Node9</title>
<g id="a_node9"><a xlink:href="../../d0/dda/classgui_1_1componentdrawers_1_1_component_drawer.html#a7866683582ed9aebe665c7998d549fbb" target="_top" xlink:title="gui.componentdrawers.Component\lDrawer.drawShape">
<polygon fill="white" stroke="black" points="868.5,-0 868.5,-30 1053.5,-30 1053.5,-0 868.5,-0"/>
<text text-anchor="start" x="876.5" y="-18" font-family="Helvetica,sans-Serif" font-size="10.00">gui.componentdrawers.Component</text>
<text text-anchor="middle" x="961" y="-7" font-family="Helvetica,sans-Serif" font-size="10.00">Drawer.drawShape</text>
</a>
</g>
</g>
<!-- Node5&#45;&gt;Node9 -->
<g id="edge8" class="edge"><title>Node5&#45;&gt;Node9</title>
<path fill="none" stroke="midnightblue" d="M804.73,-48.9654C829.026,-43.6506 856.533,-37.6335 881.572,-32.156"/>
<polygon fill="midnightblue" stroke="midnightblue" points="882.379,-35.5624 891.4,-30.0062 880.883,-28.7241 882.379,-35.5624"/>
</g>
<!-- Node8 -->
<g id="node8" class="node"><title>Node8</title>
<g id="a_node8"><a xlink:href="../../d1/d60/classgui_1_1factories_1_1_object_factory.html#aae1042d4fe6455bf3dbeb6fea18df24a" target="_top" xlink:title="gui.factories.ObjectFactory.generate\lObject">
<polygon fill="white" stroke="black" points="1096,-49 1096,-79 1284,-79 1284,-49 1096,-49"/>
<text text-anchor="start" x="1104" y="-67" font-family="Helvetica,sans-Serif" font-size="10.00">gui.factories.ObjectFactory.generate</text>
<text text-anchor="middle" x="1190" y="-56" font-family="Helvetica,sans-Serif" font-size="10.00">Object</text>
</a>
</g>
</g>
<!-- Node7&#45;&gt;Node8 -->
<g id="edge7" class="edge"><title>Node7&#45;&gt;Node8</title>
<path fill="none" stroke="midnightblue" d="M1044.27,-64C1057.75,-64 1071.86,-64 1085.77,-64"/>
<polygon fill="midnightblue" stroke="midnightblue" points="1085.85,-67.5001 1095.85,-64 1085.85,-60.5001 1085.85,-67.5001"/>
</g>
</g>
</svg>
