<?xml version="1.0" encoding="UTF-8" standalone="no"?>
<!DOCTYPE svg PUBLIC "-//W3C//DTD SVG 1.1//EN"
 "http://www.w3.org/Graphics/SVG/1.1/DTD/svg11.dtd">
<!-- Generated by graphviz version 2.36.0 (20140111.2315)
 -->
<!-- Title: commandParsing.drawableObectGenerationInterfaces.LineGenerator.generateDrawableObjectRepresentingLine Pages: 1 -->
<svg width="656pt" height="126pt"
 viewBox="0.00 0.00 656.00 126.00" xmlns="http://www.w3.org/2000/svg" xmlns:xlink="http://www.w3.org/1999/xlink">
<g id="graph0" class="graph" transform="scale(1 1) rotate(0) translate(4 122)">
<title>commandParsing.drawableObectGenerationInterfaces.LineGenerator.generateDrawableObjectRepresentingLine</title>
<polygon fill="white" stroke="none" points="-4,4 -4,-122 652,-122 652,4 -4,4"/>
<!-- Node1 -->
<g id="node1" class="node"><title>Node1</title>
<polygon fill="#bfbfbf" stroke="black" points="0,-33.5 0,-74.5 234,-74.5 234,-33.5 0,-33.5"/>
<text text-anchor="start" x="8" y="-62.5" font-family="Helvetica,sans-Serif" font-size="10.00">commandParsing.drawableObect</text>
<text text-anchor="start" x="8" y="-51.5" font-family="Helvetica,sans-Serif" font-size="10.00">GenerationInterfaces.LineGenerator.generate</text>
<text text-anchor="middle" x="117" y="-40.5" font-family="Helvetica,sans-Serif" font-size="10.00">DrawableObjectRepresentingLine</text>
</g>
<!-- Node2 -->
<g id="node2" class="node"><title>Node2</title>
<g id="a_node2"><a xlink:href="../../d0/d77/classworkspace_state_1_1_location.html#ae445cb48bedcd80659a847365a6a3de4" target="_top" xlink:title="workspaceState.Location.generate\lLocationString">
<polygon fill="white" stroke="black" points="270.5,-88 270.5,-118 453.5,-118 453.5,-88 270.5,-88"/>
<text text-anchor="start" x="278.5" y="-106" font-family="Helvetica,sans-Serif" font-size="10.00">workspaceState.Location.generate</text>
<text text-anchor="middle" x="362" y="-95" font-family="Helvetica,sans-Serif" font-size="10.00">LocationString</text>
</a>
</g>
</g>
<!-- Node1&#45;&gt;Node2 -->
<g id="edge1" class="edge"><title>Node1&#45;&gt;Node2</title>
<path fill="none" stroke="midnightblue" d="M219.998,-74.5674C238.847,-78.3683 258.339,-82.2988 276.595,-85.9801"/>
<polygon fill="midnightblue" stroke="midnightblue" points="276.104,-89.4514 286.598,-87.9972 277.488,-82.5895 276.104,-89.4514"/>
</g>
<!-- Node4 -->
<g id="node4" class="node"><title>Node4</title>
<g id="a_node4"><a xlink:href="../../de/dc6/classworkspace_state_1_1_pen.html#af76da0ea2e8a2eba96a60c5aa0b73d3d" target="_top" xlink:title="workspaceState.Pen.getPen\lColor">
<polygon fill="white" stroke="black" points="286.5,-39 286.5,-69 437.5,-69 437.5,-39 286.5,-39"/>
<text text-anchor="start" x="294.5" y="-57" font-family="Helvetica,sans-Serif" font-size="10.00">workspaceState.Pen.getPen</text>
<text text-anchor="middle" x="362" y="-46" font-family="Helvetica,sans-Serif" font-size="10.00">Color</text>
</a>
</g>
</g>
<!-- Node1&#45;&gt;Node4 -->
<g id="edge3" class="edge"><title>Node1&#45;&gt;Node4</title>
<path fill="none" stroke="midnightblue" d="M234.162,-54C248.262,-54 262.457,-54 275.987,-54"/>
<polygon fill="midnightblue" stroke="midnightblue" points="276.191,-57.5001 286.191,-54 276.191,-50.5001 276.191,-57.5001"/>
</g>
<!-- Node5 -->
<g id="node5" class="node"><title>Node5</title>
<g id="a_node5"><a xlink:href="../../de/dc6/classworkspace_state_1_1_pen.html#a5cb8cf583caf24d0c520855c97751349" target="_top" xlink:title="workspaceState.Pen.getPenSize">
<polygon fill="white" stroke="black" points="276.5,-0.5 276.5,-19.5 447.5,-19.5 447.5,-0.5 276.5,-0.5"/>
<text text-anchor="middle" x="362" y="-7.5" font-family="Helvetica,sans-Serif" font-size="10.00">workspaceState.Pen.getPenSize</text>
</a>
</g>
</g>
<!-- Node1&#45;&gt;Node5 -->
<g id="edge4" class="edge"><title>Node1&#45;&gt;Node5</title>
<path fill="none" stroke="midnightblue" d="M231.318,-33.4814C254.499,-29.2841 278.078,-25.0146 298.661,-21.2877"/>
<polygon fill="midnightblue" stroke="midnightblue" points="299.294,-24.7302 308.51,-19.5044 298.046,-17.8422 299.294,-24.7302"/>
</g>
<!-- Node3 -->
<g id="node3" class="node"><title>Node3</title>
<g id="a_node3"><a xlink:href="../../d0/d77/classworkspace_state_1_1_location.html#ad4e68a97bd0ea67236551c1183fdcd6f" target="_top" xlink:title="workspaceState.Location.add">
<polygon fill="white" stroke="black" points="490,-93.5 490,-112.5 648,-112.5 648,-93.5 490,-93.5"/>
<text text-anchor="middle" x="569" y="-100.5" font-family="Helvetica,sans-Serif" font-size="10.00">workspaceState.Location.add</text>
</a>
</g>
</g>
<!-- Node2&#45;&gt;Node3 -->
<g id="edge2" class="edge"><title>Node2&#45;&gt;Node3</title>
<path fill="none" stroke="midnightblue" d="M453.513,-103C462.224,-103 471.053,-103 479.742,-103"/>
<polygon fill="midnightblue" stroke="midnightblue" points="479.863,-106.5 489.863,-103 479.863,-99.5001 479.863,-106.5"/>
</g>
</g>
</svg>
