<?xml version="1.0" encoding="UTF-8" standalone="no"?>
<!DOCTYPE svg PUBLIC "-//W3C//DTD SVG 1.1//EN"
 "http://www.w3.org/Graphics/SVG/1.1/DTD/svg11.dtd">
<!-- Generated by graphviz version 2.36.0 (20140111.2315)
 -->
<!-- Title: commandParsing.turtleCommandParsing.ClearScreen Pages: 1 -->
<svg width="2336pt" height="291pt"
 viewBox="0.00 0.00 2336.00 291.00" xmlns="http://www.w3.org/2000/svg" xmlns:xlink="http://www.w3.org/1999/xlink">
<g id="graph0" class="graph" transform="scale(1 1) rotate(0) translate(4 287)">
<title>commandParsing.turtleCommandParsing.ClearScreen</title>
<polygon fill="white" stroke="none" points="-4,4 -4,-287 2332,-287 2332,4 -4,4"/>
<!-- Node1 -->
<g id="node1" class="node"><title>Node1</title>
<polygon fill="#bfbfbf" stroke="black" points="2148.5,-63 2148.5,-93 2327.5,-93 2327.5,-63 2148.5,-63"/>
<text text-anchor="start" x="2156.5" y="-81" font-family="Helvetica,sans-Serif" font-size="10.00">commandParsing.turtleCommand</text>
<text text-anchor="middle" x="2238" y="-70" font-family="Helvetica,sans-Serif" font-size="10.00">Parsing.ClearScreen</text>
</g>
<!-- Node2 -->
<g id="node2" class="node"><title>Node2</title>
<g id="a_node2"><a xlink:href="../../dd/d8a/classcommand_parsing_1_1turtle_command_parsing_1_1turtle_movement_1_1_home.html" target="_top" xlink:title="commandParsing.turtleCommand\lParsing.turtleMovement.Home">
<polygon fill="white" stroke="black" points="1924.5,-94 1924.5,-124 2103.5,-124 2103.5,-94 1924.5,-94"/>
<text text-anchor="start" x="1932.5" y="-112" font-family="Helvetica,sans-Serif" font-size="10.00">commandParsing.turtleCommand</text>
<text text-anchor="middle" x="2014" y="-101" font-family="Helvetica,sans-Serif" font-size="10.00">Parsing.turtleMovement.Home</text>
</a>
</g>
</g>
<!-- Node2&#45;&gt;Node1 -->
<g id="edge1" class="edge"><title>Node2&#45;&gt;Node1</title>
<path fill="none" stroke="midnightblue" d="M2113.78,-95.2059C2125.33,-93.5939 2137.05,-91.957 2148.44,-90.366"/>
<polygon fill="midnightblue" stroke="midnightblue" points="2113.12,-91.7649 2103.7,-96.6143 2114.09,-98.6976 2113.12,-91.7649"/>
</g>
<!-- Node3 -->
<g id="node3" class="node"><title>Node3</title>
<g id="a_node3"><a xlink:href="../../d9/dab/classcommand_parsing_1_1turtle_command_parsing_1_1turtle_movement_1_1_move_to_location.html" target="_top" xlink:title="commandParsing.turtleCommand\lParsing.turtleMovement.MoveToLocation">
<polygon fill="white" stroke="black" points="1670.5,-94 1670.5,-124 1879.5,-124 1879.5,-94 1670.5,-94"/>
<text text-anchor="start" x="1678.5" y="-112" font-family="Helvetica,sans-Serif" font-size="10.00">commandParsing.turtleCommand</text>
<text text-anchor="middle" x="1775" y="-101" font-family="Helvetica,sans-Serif" font-size="10.00">Parsing.turtleMovement.MoveToLocation</text>
</a>
</g>
</g>
<!-- Node3&#45;&gt;Node2 -->
<g id="edge2" class="edge"><title>Node3&#45;&gt;Node2</title>
<path fill="none" stroke="midnightblue" d="M1889.8,-109C1901.44,-109 1913.13,-109 1924.44,-109"/>
<polygon fill="midnightblue" stroke="midnightblue" points="1889.61,-105.5 1879.61,-109 1889.61,-112.5 1889.61,-105.5"/>
</g>
<!-- Node4 -->
<g id="node4" class="node"><title>Node4</title>
<g id="a_node4"><a xlink:href="../../d7/d99/classcommand_parsing_1_1float_command_parsing_1_1_two_input_float_command_parser.html" target="_top" xlink:title="commandParsing.floatCommand\lParsing.TwoInputFloatCommandParser">
<polygon fill="white" stroke="black" points="1434,-143 1434,-173 1632,-173 1632,-143 1434,-143"/>
<text text-anchor="start" x="1442" y="-161" font-family="Helvetica,sans-Serif" font-size="10.00">commandParsing.floatCommand</text>
<text text-anchor="middle" x="1533" y="-150" font-family="Helvetica,sans-Serif" font-size="10.00">Parsing.TwoInputFloatCommandParser</text>
</a>
</g>
</g>
<!-- Node4&#45;&gt;Node3 -->
<g id="edge3" class="edge"><title>Node4&#45;&gt;Node3</title>
<path fill="none" stroke="midnightblue" d="M1617.46,-140.96C1644.49,-135.442 1674.25,-129.366 1700.5,-124.006"/>
<polygon fill="midnightblue" stroke="midnightblue" points="1616.74,-137.536 1607.64,-142.965 1618.14,-144.394 1616.74,-137.536"/>
</g>
<!-- Node5 -->
<g id="node5" class="node"><title>Node5</title>
<g id="a_node5"><a xlink:href="../../d9/d8d/classcommand_parsing_1_1float_command_parsing_1_1_float_input_command_parser.html" target="_top" xlink:title="commandParsing.floatCommand\lParsing.FloatInputCommandParser">
<polygon fill="white" stroke="black" points="1214,-143 1214,-173 1396,-173 1396,-143 1214,-143"/>
<text text-anchor="start" x="1222" y="-161" font-family="Helvetica,sans-Serif" font-size="10.00">commandParsing.floatCommand</text>
<text text-anchor="middle" x="1305" y="-150" font-family="Helvetica,sans-Serif" font-size="10.00">Parsing.FloatInputCommandParser</text>
</a>
</g>
</g>
<!-- Node5&#45;&gt;Node4 -->
<g id="edge4" class="edge"><title>Node5&#45;&gt;Node4</title>
<path fill="none" stroke="midnightblue" d="M1406.45,-158C1415.5,-158 1424.66,-158 1433.69,-158"/>
<polygon fill="midnightblue" stroke="midnightblue" points="1406.3,-154.5 1396.3,-158 1406.3,-161.5 1406.3,-154.5"/>
</g>
<!-- Node6 -->
<g id="node6" class="node"><title>Node6</title>
<g id="a_node6"><a xlink:href="../../d7/d17/classcommand_parsing_1_1_command_parser.html" target="_top" xlink:title="commandParsing.CommandParser">
<polygon fill="white" stroke="black" points="992.5,-148.5 992.5,-167.5 1175.5,-167.5 1175.5,-148.5 992.5,-148.5"/>
<text text-anchor="middle" x="1084" y="-155.5" font-family="Helvetica,sans-Serif" font-size="10.00">commandParsing.CommandParser</text>
</a>
</g>
</g>
<!-- Node6&#45;&gt;Node5 -->
<g id="edge5" class="edge"><title>Node6&#45;&gt;Node5</title>
<path fill="none" stroke="midnightblue" d="M1185.75,-158C1195.09,-158 1204.52,-158 1213.76,-158"/>
<polygon fill="midnightblue" stroke="midnightblue" points="1185.66,-154.5 1175.66,-158 1185.66,-161.5 1185.66,-154.5"/>
</g>
<!-- Node7 -->
<g id="node7" class="node"><title>Node7</title>
<polygon fill="white" stroke="#bfbfbf" points="719.5,-165.5 719.5,-184.5 808.5,-184.5 808.5,-165.5 719.5,-165.5"/>
<text text-anchor="middle" x="764" y="-172.5" font-family="Helvetica,sans-Serif" font-size="10.00">List&lt; Double &gt;</text>
</g>
<!-- Node7&#45;&gt;Node6 -->
<g id="edge6" class="edge"><title>Node7&#45;&gt;Node6</title>
<path fill="none" stroke="#9a32cd" stroke-dasharray="5,2" d="M818.61,-172.134C866.047,-169.598 936.254,-165.845 992.401,-162.843"/>
<polygon fill="#9a32cd" stroke="#9a32cd" points="818.349,-168.643 808.55,-172.672 818.722,-175.633 818.349,-168.643"/>
<text text-anchor="middle" x="915" y="-173" font-family="Helvetica,sans-Serif" font-size="10.00"> expressionComponents</text>
</g>
<!-- Node8 -->
<g id="node8" class="node"><title>Node8</title>
<g id="a_node8"><a xlink:href="../../d5/daa/classworkspace_state_1_1_workspace_state.html" target="_top" xlink:title="workspaceState.Workspace\lState">
<polygon fill="white" stroke="black" points="690.5,-116 690.5,-146 837.5,-146 837.5,-116 690.5,-116"/>
<text text-anchor="start" x="698.5" y="-134" font-family="Helvetica,sans-Serif" font-size="10.00">workspaceState.Workspace</text>
<text text-anchor="middle" x="764" y="-123" font-family="Helvetica,sans-Serif" font-size="10.00">State</text>
</a>
</g>
</g>
<!-- Node8&#45;&gt;Node6 -->
<g id="edge7" class="edge"><title>Node8&#45;&gt;Node6</title>
<path fill="none" stroke="#9a32cd" stroke-dasharray="5,2" d="M847.719,-138.023C892.054,-141.788 946.759,-146.432 992.259,-150.296"/>
<polygon fill="#9a32cd" stroke="#9a32cd" points="847.817,-134.519 837.557,-137.161 847.225,-141.494 847.817,-134.519"/>
<text text-anchor="middle" x="915" y="-152" font-family="Helvetica,sans-Serif" font-size="10.00"> workspace</text>
</g>
<!-- Node9 -->
<g id="node9" class="node"><title>Node9</title>
<g id="a_node9"><a xlink:href="../../db/d1f/classworkspace_state_1_1_turtle_collection.html" target="_top" xlink:title="workspaceState.TurtleCollection">
<polygon fill="white" stroke="black" points="420,-238.5 420,-257.5 588,-257.5 588,-238.5 420,-238.5"/>
<text text-anchor="middle" x="504" y="-245.5" font-family="Helvetica,sans-Serif" font-size="10.00">workspaceState.TurtleCollection</text>
</a>
</g>
</g>
<!-- Node9&#45;&gt;Node8 -->
<g id="edge8" class="edge"><title>Node9&#45;&gt;Node8</title>
<path fill="none" stroke="#9a32cd" stroke-dasharray="5,2" d="M552.808,-235.667C564.397,-232.426 576.702,-228.773 588,-225 626.045,-212.294 642.399,-219.068 672,-192 685.201,-179.928 676.534,-167.776 690,-156 694.437,-152.12 699.505,-148.835 704.857,-146.055"/>
<polygon fill="#9a32cd" stroke="#9a32cd" points="551.566,-232.378 542.85,-238.402 553.42,-239.128 551.566,-232.378"/>
<text text-anchor="middle" x="639" y="-223" font-family="Helvetica,sans-Serif" font-size="10.00"> turtles</text>
</g>
<!-- Node10 -->
<g id="node10" class="node"><title>Node10</title>
<polygon fill="white" stroke="#bfbfbf" points="35.5,-235 35.5,-265 202.5,-265 202.5,-235 35.5,-235"/>
<text text-anchor="start" x="43.5" y="-253" font-family="Helvetica,sans-Serif" font-size="10.00">Map&lt; Integer, workspaceState.</text>
<text text-anchor="middle" x="119" y="-242" font-family="Helvetica,sans-Serif" font-size="10.00">Turtle &gt;</text>
</g>
<!-- Node10&#45;&gt;Node9 -->
<g id="edge9" class="edge"><title>Node10&#45;&gt;Node9</title>
<path fill="none" stroke="#9a32cd" stroke-dasharray="5,2" d="M212.989,-249.514C276.13,-249.185 358.905,-248.752 419.854,-248.434"/>
<polygon fill="#9a32cd" stroke="#9a32cd" points="212.615,-246.016 202.634,-249.568 212.652,-253.016 212.615,-246.016"/>
<text text-anchor="middle" x="329" y="-275" font-family="Helvetica,sans-Serif" font-size="10.00"> turtles</text>
<text text-anchor="middle" x="329" y="-264" font-family="Helvetica,sans-Serif" font-size="10.00">activeTurtles</text>
<text text-anchor="middle" x="329" y="-253" font-family="Helvetica,sans-Serif" font-size="10.00">turtleStamps</text>
</g>
<!-- Node11 -->
<g id="node11" class="node"><title>Node11</title>
<g id="a_node11"><a xlink:href="../../d2/df5/classworkspace_state_1_1_palette.html" target="_top" xlink:title="workspaceState.Palette\l\&lt; workspaceState.Shape \&gt;">
<polygon fill="white" stroke="black" points="429.5,-186 429.5,-216 578.5,-216 578.5,-186 429.5,-186"/>
<text text-anchor="start" x="437.5" y="-204" font-family="Helvetica,sans-Serif" font-size="10.00">workspaceState.Palette</text>
<text text-anchor="middle" x="504" y="-193" font-family="Helvetica,sans-Serif" font-size="10.00">&lt; workspaceState.Shape &gt;</text>
</a>
</g>
</g>
<!-- Node11&#45;&gt;Node8 -->
<g id="edge10" class="edge"><title>Node11&#45;&gt;Node8</title>
<path fill="none" stroke="#9a32cd" stroke-dasharray="5,2" d="M577.996,-183.517C607.304,-176.27 641.345,-167.565 672,-159 686.328,-154.997 701.829,-150.348 715.907,-146.002"/>
<polygon fill="#9a32cd" stroke="#9a32cd" points="577.123,-180.127 568.249,-185.917 578.796,-186.924 577.123,-180.127"/>
<text text-anchor="middle" x="639" y="-180" font-family="Helvetica,sans-Serif" font-size="10.00"> shapePalette</text>
</g>
<!-- Node12 -->
<g id="node12" class="node"><title>Node12</title>
<g id="a_node12"><a xlink:href="../../dd/d73/classworkspace_state_1_1_user_defined_variable_collection.html" target="_top" xlink:title="workspaceState.UserDefined\lVariableCollection">
<polygon fill="white" stroke="black" points="426.5,-137 426.5,-167 581.5,-167 581.5,-137 426.5,-137"/>
<text text-anchor="start" x="434.5" y="-155" font-family="Helvetica,sans-Serif" font-size="10.00">workspaceState.UserDefined</text>
<text text-anchor="middle" x="504" y="-144" font-family="Helvetica,sans-Serif" font-size="10.00">VariableCollection</text>
</a>
</g>
</g>
<!-- Node12&#45;&gt;Node8 -->
<g id="edge11" class="edge"><title>Node12&#45;&gt;Node8</title>
<path fill="none" stroke="#9a32cd" stroke-dasharray="5,2" d="M591.921,-144.925C623.823,-142.328 659.581,-139.418 690.125,-136.932"/>
<polygon fill="#9a32cd" stroke="#9a32cd" points="591.393,-141.456 581.71,-145.756 591.961,-148.433 591.393,-141.456"/>
<text text-anchor="middle" x="639" y="-147" font-family="Helvetica,sans-Serif" font-size="10.00"> variables</text>
</g>
<!-- Node13 -->
<g id="node13" class="node"><title>Node13</title>
<polygon fill="white" stroke="#bfbfbf" points="39.5,-186 39.5,-216 198.5,-216 198.5,-186 39.5,-186"/>
<text text-anchor="start" x="47.5" y="-204" font-family="Helvetica,sans-Serif" font-size="10.00">Map&lt; String, gui.variableslist.</text>
<text text-anchor="middle" x="119" y="-193" font-family="Helvetica,sans-Serif" font-size="10.00">WorkspaceVariable &gt;</text>
</g>
<!-- Node13&#45;&gt;Node12 -->
<g id="edge12" class="edge"><title>Node13&#45;&gt;Node12</title>
<path fill="none" stroke="#9a32cd" stroke-dasharray="5,2" d="M208.945,-190.909C264.493,-184.45 337.472,-175.68 402,-167 409.906,-165.937 418.153,-164.783 426.378,-163.605"/>
<polygon fill="#9a32cd" stroke="#9a32cd" points="208.312,-187.459 198.782,-192.088 209.118,-194.413 208.312,-187.459"/>
<text text-anchor="middle" x="329" y="-188" font-family="Helvetica,sans-Serif" font-size="10.00"> variableMap</text>
</g>
<!-- Node14 -->
<g id="node14" class="node"><title>Node14</title>
<g id="a_node14"><a xlink:href="../../d9/da1/classgui_1_1variableslist_1_1_workspace_variable.html" target="_top" xlink:title="gui.variableslist.Workspace\lVariable">
<polygon fill="white" stroke="black" points="47,-137 47,-167 191,-167 191,-137 47,-137"/>
<text text-anchor="start" x="55" y="-155" font-family="Helvetica,sans-Serif" font-size="10.00">gui.variableslist.Workspace</text>
<text text-anchor="middle" x="119" y="-144" font-family="Helvetica,sans-Serif" font-size="10.00">Variable</text>
</a>
</g>
</g>
<!-- Node14&#45;&gt;Node12 -->
<g id="edge13" class="edge"><title>Node14&#45;&gt;Node12</title>
<path fill="none" stroke="#9a32cd" stroke-dasharray="5,2" d="M201.162,-152C267.654,-152 361.086,-152 426.327,-152"/>
<polygon fill="#9a32cd" stroke="#9a32cd" points="201.142,-148.5 191.142,-152 201.142,-155.5 201.142,-148.5"/>
<text text-anchor="middle" x="329" y="-155" font-family="Helvetica,sans-Serif" font-size="10.00"> defaultVar</text>
</g>
<!-- Node15 -->
<g id="node15" class="node"><title>Node15</title>
<g id="a_node15"><a xlink:href="../../d2/d58/classworkspace_state_1_1_user_defined_command_collection.html" target="_top" xlink:title="workspaceState.UserDefined\lCommandCollection">
<polygon fill="white" stroke="black" points="426.5,-88 426.5,-118 581.5,-118 581.5,-88 426.5,-88"/>
<text text-anchor="start" x="434.5" y="-106" font-family="Helvetica,sans-Serif" font-size="10.00">workspaceState.UserDefined</text>
<text text-anchor="middle" x="504" y="-95" font-family="Helvetica,sans-Serif" font-size="10.00">CommandCollection</text>
</a>
</g>
</g>
<!-- Node15&#45;&gt;Node8 -->
<g id="edge14" class="edge"><title>Node15&#45;&gt;Node8</title>
<path fill="none" stroke="#9a32cd" stroke-dasharray="5,2" d="M591.921,-112.433C623.823,-115.896 659.581,-119.776 690.125,-123.091"/>
<polygon fill="#9a32cd" stroke="#9a32cd" points="592.029,-108.925 581.71,-111.325 591.274,-115.884 592.029,-108.925"/>
<text text-anchor="middle" x="639" y="-124" font-family="Helvetica,sans-Serif" font-size="10.00"> commands</text>
</g>
<!-- Node16 -->
<g id="node16" class="node"><title>Node16</title>
<polygon fill="white" stroke="#bfbfbf" points="0.5,-88 0.5,-118 237.5,-118 237.5,-88 0.5,-88"/>
<text text-anchor="start" x="8.5" y="-106" font-family="Helvetica,sans-Serif" font-size="10.00">Map&lt; String, workspaceState.</text>
<text text-anchor="middle" x="119" y="-95" font-family="Helvetica,sans-Serif" font-size="10.00">UserDefinedCommandCollection.Command &gt;</text>
</g>
<!-- Node16&#45;&gt;Node15 -->
<g id="edge15" class="edge"><title>Node16&#45;&gt;Node15</title>
<path fill="none" stroke="#9a32cd" stroke-dasharray="5,2" d="M247.683,-103C306.827,-103 375.141,-103 426.215,-103"/>
<polygon fill="#9a32cd" stroke="#9a32cd" points="247.516,-99.5001 237.515,-103 247.515,-106.5 247.516,-99.5001"/>
<text text-anchor="middle" x="329" y="-106" font-family="Helvetica,sans-Serif" font-size="10.00"> commandMap</text>
</g>
<!-- Node17 -->
<g id="node17" class="node"><title>Node17</title>
<g id="a_node17"><a xlink:href="../../d3/de0/classtranslator_1_1_translator.html" target="_top" xlink:title="translator.Translator">
<polygon fill="white" stroke="black" points="448,-49.5 448,-68.5 560,-68.5 560,-49.5 448,-49.5"/>
<text text-anchor="middle" x="504" y="-56.5" font-family="Helvetica,sans-Serif" font-size="10.00">translator.Translator</text>
</a>
</g>
</g>
<!-- Node17&#45;&gt;Node8 -->
<g id="edge16" class="edge"><title>Node17&#45;&gt;Node8</title>
<path fill="none" stroke="#9a32cd" stroke-dasharray="5,2" d="M557.637,-70.7895C567.728,-73.1233 578.202,-75.596 588,-78 625.481,-87.1958 635.044,-88.8816 672,-100 687.983,-104.808 705.364,-110.59 720.613,-115.852"/>
<polygon fill="#9a32cd" stroke="#9a32cd" points="558.241,-67.3373 547.711,-68.5097 556.674,-74.1596 558.241,-67.3373"/>
<text text-anchor="middle" x="639" y="-103" font-family="Helvetica,sans-Serif" font-size="10.00"> translator</text>
</g>
<!-- Node18 -->
<g id="node18" class="node"><title>Node18</title>
<polygon fill="white" stroke="#bfbfbf" points="58,-4.5 58,-23.5 180,-23.5 180,-4.5 58,-4.5"/>
<text text-anchor="middle" x="119" y="-11.5" font-family="Helvetica,sans-Serif" font-size="10.00">Map&lt; String, String &gt;</text>
</g>
<!-- Node18&#45;&gt;Node17 -->
<g id="edge17" class="edge"><title>Node18&#45;&gt;Node17</title>
<path fill="none" stroke="#9a32cd" stroke-dasharray="5,2" d="M190.327,-13.7993C247.772,-14.8131 330.809,-18.9751 402,-33 410.274,-34.6299 411.894,-36.6768 420,-39 432.966,-42.7159 447.202,-46.3172 460.166,-49.4158"/>
<polygon fill="#9a32cd" stroke="#9a32cd" points="190.316,-10.2988 180.265,-13.6493 190.211,-17.2981 190.316,-10.2988"/>
<text text-anchor="middle" x="329" y="-91" font-family="Helvetica,sans-Serif" font-size="10.00"> dictionaryOfClassNameToPath</text>
<text text-anchor="middle" x="329" y="-80" font-family="Helvetica,sans-Serif" font-size="10.00">reverseMapping</text>
<text text-anchor="start" x="256" y="-69" font-family="Helvetica,sans-Serif" font-size="10.00">dictionaryOfLanguageToClass</text>
<text text-anchor="middle" x="329" y="-58" font-family="Helvetica,sans-Serif" font-size="10.00">Path</text>
<text text-anchor="middle" x="329" y="-47" font-family="Helvetica,sans-Serif" font-size="10.00">syntaxDictionary</text>
<text text-anchor="middle" x="329" y="-36" font-family="Helvetica,sans-Serif" font-size="10.00">dictionaryLanguageToEnglish</text>
</g>
<!-- Node19 -->
<g id="node19" class="node"><title>Node19</title>
<g id="a_node19"><a xlink:href="../../d2/df5/classworkspace_state_1_1_palette.html" target="_top" xlink:title="workspaceState.Palette\l\&lt; Color \&gt;">
<polygon fill="white" stroke="black" points="439.5,-0 439.5,-30 568.5,-30 568.5,-0 439.5,-0"/>
<text text-anchor="start" x="447.5" y="-18" font-family="Helvetica,sans-Serif" font-size="10.00">workspaceState.Palette</text>
<text text-anchor="middle" x="504" y="-7" font-family="Helvetica,sans-Serif" font-size="10.00">&lt; Color &gt;</text>
</a>
</g>
</g>
<!-- Node19&#45;&gt;Node8 -->
<g id="edge18" class="edge"><title>Node19&#45;&gt;Node8</title>
<path fill="none" stroke="#9a32cd" stroke-dasharray="5,2" d="M565.777,-33.0835C573.272,-35.3791 580.819,-37.7221 588,-40 625.511,-51.8983 636.802,-50.4009 672,-68 698.811,-81.4056 726.738,-101.867 744.465,-115.808"/>
<polygon fill="#9a32cd" stroke="#9a32cd" points="566.576,-29.668 555.99,-30.1025 564.536,-36.3643 566.576,-29.668"/>
<text text-anchor="middle" x="639" y="-71" font-family="Helvetica,sans-Serif" font-size="10.00"> colorPalette</text>
</g>
<!-- Node20 -->
<g id="node20" class="node"><title>Node20</title>
<g id="a_node20"><a xlink:href="../../d7/d23/interfacecommand_parsing_1_1drawable_obect_generation_interfaces_1_1_line_generator.html" target="_top" xlink:title="commandParsing.drawableObect\lGenerationInterfaces.LineGenerator">
<polygon fill="white" stroke="black" points="1439,-94 1439,-124 1627,-124 1627,-94 1439,-94"/>
<text text-anchor="start" x="1447" y="-112" font-family="Helvetica,sans-Serif" font-size="10.00">commandParsing.drawableObect</text>
<text text-anchor="middle" x="1533" y="-101" font-family="Helvetica,sans-Serif" font-size="10.00">GenerationInterfaces.LineGenerator</text>
</a>
</g>
</g>
<!-- Node20&#45;&gt;Node3 -->
<g id="edge19" class="edge"><title>Node20&#45;&gt;Node3</title>
<path fill="none" stroke="midnightblue" d="M1637.46,-109C1648.3,-109 1659.32,-109 1670.16,-109"/>
<polygon fill="midnightblue" stroke="midnightblue" points="1637.13,-105.5 1627.13,-109 1637.13,-112.5 1637.13,-105.5"/>
</g>
<!-- Node21 -->
<g id="node21" class="node"><title>Node21</title>
<g id="a_node21"><a xlink:href="../../df/d64/interfacecommand_parsing_1_1drawable_obect_generation_interfaces_1_1_turtle_generator.html" target="_top" xlink:title="commandParsing.drawableObect\lGenerationInterfaces.TurtleGenerator">
<polygon fill="white" stroke="black" points="1436,-45 1436,-75 1630,-75 1630,-45 1436,-45"/>
<text text-anchor="start" x="1444" y="-63" font-family="Helvetica,sans-Serif" font-size="10.00">commandParsing.drawableObect</text>
<text text-anchor="middle" x="1533" y="-52" font-family="Helvetica,sans-Serif" font-size="10.00">GenerationInterfaces.TurtleGenerator</text>
</a>
</g>
</g>
<!-- Node21&#45;&gt;Node3 -->
<g id="edge20" class="edge"><title>Node21&#45;&gt;Node3</title>
<path fill="none" stroke="midnightblue" d="M1617.46,-77.04C1644.49,-82.5582 1674.25,-88.6345 1700.5,-93.9938"/>
<polygon fill="midnightblue" stroke="midnightblue" points="1618.14,-73.6058 1607.64,-75.0346 1616.74,-80.4644 1618.14,-73.6058"/>
</g>
<!-- Node22 -->
<g id="node22" class="node"><title>Node22</title>
<g id="a_node22"><a xlink:href="../../d1/d65/interfacecommand_parsing_1_1drawable_obect_generation_interfaces_1_1_pane_generator.html" target="_top" xlink:title="commandParsing.drawableObect\lGenerationInterfaces.PaneGenerator">
<polygon fill="white" stroke="black" points="1918,-45 1918,-75 2110,-75 2110,-45 1918,-45"/>
<text text-anchor="start" x="1926" y="-63" font-family="Helvetica,sans-Serif" font-size="10.00">commandParsing.drawableObect</text>
<text text-anchor="middle" x="2014" y="-52" font-family="Helvetica,sans-Serif" font-size="10.00">GenerationInterfaces.PaneGenerator</text>
</a>
</g>
</g>
<!-- Node22&#45;&gt;Node1 -->
<g id="edge21" class="edge"><title>Node22&#45;&gt;Node1</title>
<path fill="none" stroke="midnightblue" d="M2120.29,-68.537C2129.7,-69.2999 2139.16,-70.0672 2148.41,-70.817"/>
<polygon fill="midnightblue" stroke="midnightblue" points="2120.36,-65.0316 2110.11,-67.712 2119.8,-72.0088 2120.36,-65.0316"/>
</g>
</g>
</svg>
