<?xml version="1.0" encoding="UTF-8" standalone="no"?>
<!DOCTYPE svg PUBLIC "-//W3C//DTD SVG 1.1//EN"
 "http://www.w3.org/Graphics/SVG/1.1/DTD/svg11.dtd">
<!-- Generated by graphviz version 2.36.0 (20140111.2315)
 -->
<!-- Title: commandParsing.turtleCommandParsing.Stamp.parse Pages: 1 -->
<svg width="878pt" height="312pt"
 viewBox="0.00 0.00 878.00 312.00" xmlns="http://www.w3.org/2000/svg" xmlns:xlink="http://www.w3.org/1999/xlink">
<g id="graph0" class="graph" transform="scale(1 1) rotate(0) translate(4 308)">
<title>commandParsing.turtleCommandParsing.Stamp.parse</title>
<polygon fill="white" stroke="none" points="-4,4 -4,-308 874,-308 874,4 -4,4"/>
<!-- Node1 -->
<g id="node1" class="node"><title>Node1</title>
<polygon fill="#bfbfbf" stroke="black" points="0.5,-162 0.5,-192 179.5,-192 179.5,-162 0.5,-162"/>
<text text-anchor="start" x="8.5" y="-180" font-family="Helvetica,sans-Serif" font-size="10.00">commandParsing.turtleCommand</text>
<text text-anchor="middle" x="90" y="-169" font-family="Helvetica,sans-Serif" font-size="10.00">Parsing.Stamp.parse</text>
</g>
<!-- Node2 -->
<g id="node2" class="node"><title>Node2</title>
<g id="a_node2"><a xlink:href="../../db/d1f/classworkspace_state_1_1_turtle_collection.html#ad234e256bd4604d84cf0db318c96547b" target="_top" xlink:title="workspaceState.TurtleCollection.add\lStamp">
<polygon fill="white" stroke="black" points="241.5,-235 241.5,-265 430.5,-265 430.5,-235 241.5,-235"/>
<text text-anchor="start" x="249.5" y="-253" font-family="Helvetica,sans-Serif" font-size="10.00">workspaceState.TurtleCollection.add</text>
<text text-anchor="middle" x="336" y="-242" font-family="Helvetica,sans-Serif" font-size="10.00">Stamp</text>
</a>
</g>
</g>
<!-- Node1&#45;&gt;Node2 -->
<g id="edge1" class="edge"><title>Node1&#45;&gt;Node2</title>
<path fill="none" stroke="midnightblue" d="M141.261,-192.037C180.136,-203.668 234.084,-219.808 275.182,-232.104"/>
<polygon fill="midnightblue" stroke="midnightblue" points="274.22,-235.469 284.804,-234.982 276.227,-228.763 274.22,-235.469"/>
</g>
<!-- Node4 -->
<g id="node4" class="node"><title>Node4</title>
<g id="a_node4"><a xlink:href="../../df/d64/interfacecommand_parsing_1_1drawable_obect_generation_interfaces_1_1_turtle_generator.html#ad2df4af6c11d2ec038868c5520be6acd" target="_top" xlink:title="commandParsing.drawableObect\lGenerationInterfaces.TurtleGenerator.generate\lDrawableObjectRepresentingTurtle">
<polygon fill="white" stroke="black" points="216,-156.5 216,-197.5 456,-197.5 456,-156.5 216,-156.5"/>
<text text-anchor="start" x="224" y="-185.5" font-family="Helvetica,sans-Serif" font-size="10.00">commandParsing.drawableObect</text>
<text text-anchor="start" x="224" y="-174.5" font-family="Helvetica,sans-Serif" font-size="10.00">GenerationInterfaces.TurtleGenerator.generate</text>
<text text-anchor="middle" x="336" y="-163.5" font-family="Helvetica,sans-Serif" font-size="10.00">DrawableObjectRepresentingTurtle</text>
</a>
</g>
</g>
<!-- Node1&#45;&gt;Node4 -->
<g id="edge3" class="edge"><title>Node1&#45;&gt;Node4</title>
<path fill="none" stroke="midnightblue" d="M179.78,-177C188.202,-177 196.854,-177 205.556,-177"/>
<polygon fill="midnightblue" stroke="midnightblue" points="205.784,-180.5 215.784,-177 205.784,-173.5 205.784,-180.5"/>
</g>
<!-- Node12 -->
<g id="node12" class="node"><title>Node12</title>
<g id="a_node12"><a xlink:href="../../db/d1f/classworkspace_state_1_1_turtle_collection.html#a6c49b4d7d24c0ed82ea491185b023cf0" target="_top" xlink:title="workspaceState.TurtleCollection.get\lActiveTurtles">
<polygon fill="white" stroke="black" points="242.5,-108 242.5,-138 429.5,-138 429.5,-108 242.5,-108"/>
<text text-anchor="start" x="250.5" y="-126" font-family="Helvetica,sans-Serif" font-size="10.00">workspaceState.TurtleCollection.get</text>
<text text-anchor="middle" x="336" y="-115" font-family="Helvetica,sans-Serif" font-size="10.00">ActiveTurtles</text>
</a>
</g>
</g>
<!-- Node1&#45;&gt;Node12 -->
<g id="edge12" class="edge"><title>Node1&#45;&gt;Node12</title>
<path fill="none" stroke="midnightblue" d="M151.615,-161.981C172.033,-157.048 194.97,-151.643 216,-147 226.478,-144.687 237.496,-142.344 248.423,-140.076"/>
<polygon fill="midnightblue" stroke="midnightblue" points="249.328,-143.463 258.415,-138.016 247.915,-136.607 249.328,-143.463"/>
</g>
<!-- Node3 -->
<g id="node3" class="node"><title>Node3</title>
<g id="a_node3"><a xlink:href="../../d1/d01/classworkspace_state_1_1_turtle.html#a2b5e77b78036091a65abb5f4959b5ef7" target="_top" xlink:title="workspaceState.Turtle.getID">
<polygon fill="white" stroke="black" points="509,-284.5 509,-303.5 659,-303.5 659,-284.5 509,-284.5"/>
<text text-anchor="middle" x="584" y="-291.5" font-family="Helvetica,sans-Serif" font-size="10.00">workspaceState.Turtle.getID</text>
</a>
</g>
</g>
<!-- Node2&#45;&gt;Node3 -->
<g id="edge2" class="edge"><title>Node2&#45;&gt;Node3</title>
<path fill="none" stroke="midnightblue" d="M420.971,-265.019C453.36,-270.812 489.776,-277.326 519.869,-282.708"/>
<polygon fill="midnightblue" stroke="midnightblue" points="519.357,-286.172 529.817,-284.488 520.589,-279.282 519.357,-286.172"/>
</g>
<!-- Node4&#45;&gt;Node3 -->
<g id="edge7" class="edge"><title>Node4&#45;&gt;Node3</title>
<path fill="none" stroke="midnightblue" d="M404.636,-197.562C422.394,-204.845 440.808,-214.235 456,-226 477.084,-242.328 469.576,-259.569 492,-274 496.038,-276.599 500.364,-278.864 504.855,-280.837"/>
<polygon fill="midnightblue" stroke="midnightblue" points="503.681,-284.136 514.27,-284.493 506.215,-277.611 503.681,-284.136"/>
</g>
<!-- Node5 -->
<g id="node5" class="node"><title>Node5</title>
<g id="a_node5"><a xlink:href="../../d0/d77/classworkspace_state_1_1_location.html#ae445cb48bedcd80659a847365a6a3de4" target="_top" xlink:title="workspaceState.Location.generate\lLocationString">
<polygon fill="white" stroke="black" points="492.5,-235 492.5,-265 675.5,-265 675.5,-235 492.5,-235"/>
<text text-anchor="start" x="500.5" y="-253" font-family="Helvetica,sans-Serif" font-size="10.00">workspaceState.Location.generate</text>
<text text-anchor="middle" x="584" y="-242" font-family="Helvetica,sans-Serif" font-size="10.00">LocationString</text>
</a>
</g>
</g>
<!-- Node4&#45;&gt;Node5 -->
<g id="edge4" class="edge"><title>Node4&#45;&gt;Node5</title>
<path fill="none" stroke="midnightblue" d="M401.716,-197.551C429.455,-206.227 462.256,-216.311 492,-225 500.139,-227.377 508.705,-229.815 517.195,-232.192"/>
<polygon fill="midnightblue" stroke="midnightblue" points="516.522,-235.638 527.094,-234.947 518.399,-228.894 516.522,-235.638"/>
</g>
<!-- Node7 -->
<g id="node7" class="node"><title>Node7</title>
<g id="a_node7"><a xlink:href="../../d1/d01/classworkspace_state_1_1_turtle.html#ac6697327d46a4fde63526e973948d6f7" target="_top" xlink:title="workspaceState.Turtle.get\lHeading">
<polygon fill="white" stroke="black" points="514,-186 514,-216 654,-216 654,-186 514,-186"/>
<text text-anchor="start" x="522" y="-204" font-family="Helvetica,sans-Serif" font-size="10.00">workspaceState.Turtle.get</text>
<text text-anchor="middle" x="584" y="-193" font-family="Helvetica,sans-Serif" font-size="10.00">Heading</text>
</a>
</g>
</g>
<!-- Node4&#45;&gt;Node7 -->
<g id="edge6" class="edge"><title>Node4&#45;&gt;Node7</title>
<path fill="none" stroke="midnightblue" d="M456.037,-188.613C472.179,-190.188 488.413,-191.772 503.624,-193.256"/>
<polygon fill="midnightblue" stroke="midnightblue" points="503.685,-196.779 513.978,-194.266 504.365,-189.812 503.685,-196.779"/>
</g>
<!-- Node8 -->
<g id="node8" class="node"><title>Node8</title>
<g id="a_node8"><a xlink:href="../../d1/d01/classworkspace_state_1_1_turtle.html#a9bb3d15f12d9d4e03332ea9817f76882" target="_top" xlink:title="workspaceState.Turtle.get\lLocation">
<polygon fill="white" stroke="black" points="514,-137 514,-167 654,-167 654,-137 514,-137"/>
<text text-anchor="start" x="522" y="-155" font-family="Helvetica,sans-Serif" font-size="10.00">workspaceState.Turtle.get</text>
<text text-anchor="middle" x="584" y="-144" font-family="Helvetica,sans-Serif" font-size="10.00">Location</text>
</a>
</g>
</g>
<!-- Node4&#45;&gt;Node8 -->
<g id="edge8" class="edge"><title>Node4&#45;&gt;Node8</title>
<path fill="none" stroke="midnightblue" d="M456.037,-164.903C472.179,-163.262 488.413,-161.612 503.624,-160.067"/>
<polygon fill="midnightblue" stroke="midnightblue" points="504.383,-163.508 513.978,-159.014 503.675,-156.543 504.383,-163.508"/>
</g>
<!-- Node9 -->
<g id="node9" class="node"><title>Node9</title>
<g id="a_node9"><a xlink:href="../../d1/d01/classworkspace_state_1_1_turtle.html#a5c09e19002f9ed4c61ce538fff3da4ff" target="_top" xlink:title="workspaceState.Turtle.get\lOpacity">
<polygon fill="white" stroke="black" points="514,-88 514,-118 654,-118 654,-88 514,-88"/>
<text text-anchor="start" x="522" y="-106" font-family="Helvetica,sans-Serif" font-size="10.00">workspaceState.Turtle.get</text>
<text text-anchor="middle" x="584" y="-95" font-family="Helvetica,sans-Serif" font-size="10.00">Opacity</text>
</a>
</g>
</g>
<!-- Node4&#45;&gt;Node9 -->
<g id="edge9" class="edge"><title>Node4&#45;&gt;Node9</title>
<path fill="none" stroke="midnightblue" d="M428.73,-156.455C438.048,-153.603 447.284,-150.451 456,-147 473.018,-140.261 475.019,-133.831 492,-127 497.116,-124.942 502.465,-123.009 507.896,-121.205"/>
<polygon fill="midnightblue" stroke="midnightblue" points="509.248,-124.448 517.728,-118.096 507.138,-117.774 509.248,-124.448"/>
</g>
<!-- Node10 -->
<g id="node10" class="node"><title>Node10</title>
<g id="a_node10"><a xlink:href="../../da/de7/classworkspace_state_1_1_shape.html#aace6051dd26034446492ecac6ff16099" target="_top" xlink:title="workspaceState.Shape.getPath">
<polygon fill="white" stroke="black" points="500.5,-49.5 500.5,-68.5 667.5,-68.5 667.5,-49.5 500.5,-49.5"/>
<text text-anchor="middle" x="584" y="-56.5" font-family="Helvetica,sans-Serif" font-size="10.00">workspaceState.Shape.getPath</text>
</a>
</g>
</g>
<!-- Node4&#45;&gt;Node10 -->
<g id="edge10" class="edge"><title>Node4&#45;&gt;Node10</title>
<path fill="none" stroke="midnightblue" d="M441.47,-156.489C446.599,-153.712 451.485,-150.565 456,-147 483.146,-125.563 464.419,-98.8745 492,-78 494.353,-76.2194 496.833,-74.5963 499.412,-73.1171"/>
<polygon fill="midnightblue" stroke="midnightblue" points="501.095,-76.1896 508.511,-68.6234 497.995,-69.9133 501.095,-76.1896"/>
</g>
<!-- Node11 -->
<g id="node11" class="node"><title>Node11</title>
<g id="a_node11"><a xlink:href="../../d1/d01/classworkspace_state_1_1_turtle.html#a8d9dd9cb3503c6d0aa45efca91816f71" target="_top" xlink:title="workspaceState.Turtle.get\lShape">
<polygon fill="white" stroke="black" points="514,-0 514,-30 654,-30 654,-0 514,-0"/>
<text text-anchor="start" x="522" y="-18" font-family="Helvetica,sans-Serif" font-size="10.00">workspaceState.Turtle.get</text>
<text text-anchor="middle" x="584" y="-7" font-family="Helvetica,sans-Serif" font-size="10.00">Shape</text>
</a>
</g>
</g>
<!-- Node4&#45;&gt;Node11 -->
<g id="edge11" class="edge"><title>Node4&#45;&gt;Node11</title>
<path fill="none" stroke="midnightblue" d="M443.539,-156.469C447.98,-153.687 452.169,-150.545 456,-147 492.829,-112.924 455.534,-74.4639 492,-40 495.846,-36.3654 500.17,-33.25 504.789,-30.5806"/>
<polygon fill="midnightblue" stroke="midnightblue" points="506.614,-33.5817 513.991,-25.9777 503.482,-27.3212 506.614,-33.5817"/>
</g>
<!-- Node6 -->
<g id="node6" class="node"><title>Node6</title>
<g id="a_node6"><a xlink:href="../../d0/d77/classworkspace_state_1_1_location.html#ad4e68a97bd0ea67236551c1183fdcd6f" target="_top" xlink:title="workspaceState.Location.add">
<polygon fill="white" stroke="black" points="712,-240.5 712,-259.5 870,-259.5 870,-240.5 712,-240.5"/>
<text text-anchor="middle" x="791" y="-247.5" font-family="Helvetica,sans-Serif" font-size="10.00">workspaceState.Location.add</text>
</a>
</g>
</g>
<!-- Node5&#45;&gt;Node6 -->
<g id="edge5" class="edge"><title>Node5&#45;&gt;Node6</title>
<path fill="none" stroke="midnightblue" d="M675.513,-250C684.224,-250 693.053,-250 701.742,-250"/>
<polygon fill="midnightblue" stroke="midnightblue" points="701.863,-253.5 711.863,-250 701.863,-246.5 701.863,-253.5"/>
</g>
</g>
</svg>
