<?xml version="1.0" encoding="UTF-8" standalone="no"?>
<!DOCTYPE svg PUBLIC "-//W3C//DTD SVG 1.1//EN"
 "http://www.w3.org/Graphics/SVG/1.1/DTD/svg11.dtd">
<!-- Generated by graphviz version 2.36.0 (20140111.2315)
 -->
<!-- Title: commandParsing.turtleCommandParsing.turtleMovement.Move Pages: 1 -->
<!--zoomable 136 -->
<svg id="main" version="1.1" xmlns="http://www.w3.org/2000/svg" xmlns:xlink="http://www.w3.org/1999/xlink" xml:space="preserve" onload="init(evt)">
<style type="text/css"><![CDATA[
.edge:hover path { stroke: red; }
.edge:hover polygon { stroke: red; fill: red; }
]]></style>
<script type="text/javascript"><![CDATA[
var edges = document.getElementsByTagName('g');
if (edges && edges.length) {
  for (var i=0;i<edges.length;i++) {
    if (edges[i].id.substr(0,4)=='edge') {
      edges[i].setAttribute('class','edge');
    }
  }
}
]]></script>
        <defs>
                <circle id="rim" cx="0" cy="0" r="7"/>
                <circle id="rim2" cx="0" cy="0" r="3.5"/>
                <g id="zoomPlus">
                        <use xlink:href="#rim" fill="#404040">
                                <set attributeName="fill" to="#808080" begin="zoomplus.mouseover" end="zoomplus.mouseout"/>
                        </use>
                        <path d="M-4,0h8M0,-4v8" fill="none" stroke="white" stroke-width="1.5" pointer-events="none"/>
                </g>
                <g id="zoomMin">
                        <use xlink:href="#rim" fill="#404040">
                                <set attributeName="fill" to="#808080" begin="zoomminus.mouseover" end="zoomminus.mouseout"/>
                        </use>
                        <path d="M-4,0h8" fill="none" stroke="white" stroke-width="1.5" pointer-events="none"/>
                </g>
                <g id="dirArrow">
                        <path fill="none" stroke="white" stroke-width="1.5" d="M0,-3.0v7 M-2.5,-0.5L0,-3.0L2.5,-0.5"/>
                </g>
               <g id="resetDef">
                       <use xlink:href="#rim2" fill="#404040">
                               <set attributeName="fill" to="#808080" begin="reset.mouseover" end="reset.mouseout"/>
                       </use>
               </g>
        </defs>

<script type="text/javascript">
var viewWidth = 1080;
var viewHeight = 136;
var sectionId = 'dynsection-0';
</script>
<script xlink:href="../../svgpan.js"/>
<svg id="graph" class="graph">
<g id="viewport">
<title>commandParsing.turtleCommandParsing.turtleMovement.Move</title>
<polygon fill="white" stroke="none" points="-4,4 -4,-132 1076,-132 1076,4 -4,4"/>
<!-- Node1 -->
<g id="node1" class="node"><title>Node1</title>
<polygon fill="#bfbfbf" stroke="black" points="676.5,-49 676.5,-79 855.5,-79 855.5,-49 676.5,-49"/>
<text text-anchor="start" x="684.5" y="-67" font-family="Helvetica,sans-Serif" font-size="10.00">commandParsing.turtleCommand</text>
<text text-anchor="middle" x="766" y="-56" font-family="Helvetica,sans-Serif" font-size="10.00">Parsing.turtleMovement.Move</text>
</g>
<!-- Node7 -->
<g id="node7" class="node"><title>Node7</title>
<g id="a_node7"><a xlink:href="../../d9/d5e/classcommand_parsing_1_1turtle_command_parsing_1_1turtle_movement_1_1_backward.html" target="_top" xlink:title="commandParsing.turtleCommand\lParsing.turtleMovement.Backward">
<polygon fill="white" stroke="black" points="892.5,-74 892.5,-104 1071.5,-104 1071.5,-74 892.5,-74"/>
<text text-anchor="start" x="900.5" y="-92" font-family="Helvetica,sans-Serif" font-size="10.00">commandParsing.turtleCommand</text>
<text text-anchor="middle" x="982" y="-81" font-family="Helvetica,sans-Serif" font-size="10.00">Parsing.turtleMovement.Backward</text>
</a>
</g>
</g>
<!-- Node1&#45;&gt;Node7 -->
<g id="edge6" class="edge"><title>Node1&#45;&gt;Node7</title>
<path fill="none" stroke="midnightblue" d="M865.645,-75.524C874.596,-76.5696 883.625,-77.6244 892.48,-78.6588"/>
<polygon fill="midnightblue" stroke="midnightblue" points="865.925,-72.033 855.587,-74.3489 865.113,-78.9857 865.925,-72.033"/>
</g>
<!-- Node8 -->
<g id="node8" class="node"><title>Node8</title>
<g id="a_node8"><a xlink:href="../../da/d78/classcommand_parsing_1_1turtle_command_parsing_1_1turtle_movement_1_1_forward.html" target="_top" xlink:title="commandParsing.turtleCommand\lParsing.turtleMovement.Forward">
<polygon fill="white" stroke="black" points="892.5,-25 892.5,-55 1071.5,-55 1071.5,-25 892.5,-25"/>
<text text-anchor="start" x="900.5" y="-43" font-family="Helvetica,sans-Serif" font-size="10.00">commandParsing.turtleCommand</text>
<text text-anchor="middle" x="982" y="-32" font-family="Helvetica,sans-Serif" font-size="10.00">Parsing.turtleMovement.Forward</text>
</a>
</g>
</g>
<!-- Node1&#45;&gt;Node8 -->
<g id="edge7" class="edge"><title>Node1&#45;&gt;Node8</title>
<path fill="none" stroke="midnightblue" d="M865.645,-52.937C874.596,-51.9332 883.625,-50.9206 892.48,-49.9275"/>
<polygon fill="midnightblue" stroke="midnightblue" points="865.134,-49.4722 855.587,-54.065 865.915,-56.4286 865.134,-49.4722"/>
</g>
<!-- Node2 -->
<g id="node2" class="node"><title>Node2</title>
<g id="a_node2"><a xlink:href="../../d3/d00/classcommand_parsing_1_1float_command_parsing_1_1_one_input_float_command_parser.html" target="_top" xlink:title="commandParsing.floatCommand\lParsing.OneInputFloatCommandParser">
<polygon fill="white" stroke="black" points="438.5,-98 438.5,-128 639.5,-128 639.5,-98 438.5,-98"/>
<text text-anchor="start" x="446.5" y="-116" font-family="Helvetica,sans-Serif" font-size="10.00">commandParsing.floatCommand</text>
<text text-anchor="middle" x="539" y="-105" font-family="Helvetica,sans-Serif" font-size="10.00">Parsing.OneInputFloatCommandParser</text>
</a>
</g>
</g>
<!-- Node2&#45;&gt;Node1 -->
<g id="edge1" class="edge"><title>Node2&#45;&gt;Node1</title>
<path fill="none" stroke="midnightblue" d="M618.912,-95.8146C644.073,-90.3353 671.701,-84.3185 696.094,-79.0062"/>
<polygon fill="midnightblue" stroke="midnightblue" points="618.063,-92.4176 609.037,-97.9654 619.552,-99.2572 618.063,-92.4176"/>
</g>
<!-- Node3 -->
<g id="node3" class="node"><title>Node3</title>
<g id="a_node3"><a xlink:href="../../d9/d8d/classcommand_parsing_1_1float_command_parsing_1_1_float_input_command_parser.html" target="_top" xlink:title="commandParsing.floatCommand\lParsing.FloatInputCommandParser">
<polygon fill="white" stroke="black" points="220,-98 220,-128 402,-128 402,-98 220,-98"/>
<text text-anchor="start" x="228" y="-116" font-family="Helvetica,sans-Serif" font-size="10.00">commandParsing.floatCommand</text>
<text text-anchor="middle" x="311" y="-105" font-family="Helvetica,sans-Serif" font-size="10.00">Parsing.FloatInputCommandParser</text>
</a>
</g>
</g>
<!-- Node3&#45;&gt;Node2 -->
<g id="edge2" class="edge"><title>Node3&#45;&gt;Node2</title>
<path fill="none" stroke="midnightblue" d="M412.324,-113C420.916,-113 429.607,-113 438.195,-113"/>
<polygon fill="midnightblue" stroke="midnightblue" points="412.296,-109.5 402.296,-113 412.295,-116.5 412.296,-109.5"/>
</g>
<!-- Node4 -->
<g id="node4" class="node"><title>Node4</title>
<g id="a_node4"><a xlink:href="../../d7/d17/classcommand_parsing_1_1_command_parser.html" target="_top" xlink:title="commandParsing.CommandParser">
<polygon fill="white" stroke="black" points="0.5,-103.5 0.5,-122.5 183.5,-122.5 183.5,-103.5 0.5,-103.5"/>
<text text-anchor="middle" x="92" y="-110.5" font-family="Helvetica,sans-Serif" font-size="10.00">commandParsing.CommandParser</text>
</a>
</g>
</g>
<!-- Node4&#45;&gt;Node3 -->
<g id="edge3" class="edge"><title>Node4&#45;&gt;Node3</title>
<path fill="none" stroke="midnightblue" d="M193.92,-113C202.603,-113 211.352,-113 219.941,-113"/>
<polygon fill="midnightblue" stroke="midnightblue" points="193.77,-109.5 183.77,-113 193.77,-116.5 193.77,-109.5"/>
</g>
<!-- Node5 -->
<g id="node5" class="node"><title>Node5</title>
<g id="a_node5"><a xlink:href="../../d7/d23/interfacecommand_parsing_1_1drawable_obect_generation_interfaces_1_1_line_generator.html" target="_top" xlink:title="commandParsing.drawableObect\lGenerationInterfaces.LineGenerator">
<polygon fill="white" stroke="black" points="445,-49 445,-79 633,-79 633,-49 445,-49"/>
<text text-anchor="start" x="453" y="-67" font-family="Helvetica,sans-Serif" font-size="10.00">commandParsing.drawableObect</text>
<text text-anchor="middle" x="539" y="-56" font-family="Helvetica,sans-Serif" font-size="10.00">GenerationInterfaces.LineGenerator</text>
</a>
</g>
</g>
<!-- Node5&#45;&gt;Node1 -->
<g id="edge4" class="edge"><title>Node5&#45;&gt;Node1</title>
<path fill="none" stroke="midnightblue" d="M643.229,-64C654.265,-64 665.42,-64 676.267,-64"/>
<polygon fill="midnightblue" stroke="midnightblue" points="643.14,-60.5001 633.14,-64 643.14,-67.5001 643.14,-60.5001"/>
</g>
<!-- Node6 -->
<g id="node6" class="node"><title>Node6</title>
<g id="a_node6"><a xlink:href="../../df/d64/interfacecommand_parsing_1_1drawable_obect_generation_interfaces_1_1_turtle_generator.html" target="_top" xlink:title="commandParsing.drawableObect\lGenerationInterfaces.TurtleGenerator">
<polygon fill="white" stroke="black" points="442,-0 442,-30 636,-30 636,-0 442,-0"/>
<text text-anchor="start" x="450" y="-18" font-family="Helvetica,sans-Serif" font-size="10.00">commandParsing.drawableObect</text>
<text text-anchor="middle" x="539" y="-7" font-family="Helvetica,sans-Serif" font-size="10.00">GenerationInterfaces.TurtleGenerator</text>
</a>
</g>
</g>
<!-- Node6&#45;&gt;Node1 -->
<g id="edge5" class="edge"><title>Node6&#45;&gt;Node1</title>
<path fill="none" stroke="midnightblue" d="M618.912,-32.1854C644.073,-37.6647 671.701,-43.6815 696.094,-48.9938"/>
<polygon fill="midnightblue" stroke="midnightblue" points="619.552,-28.7428 609.037,-30.0346 618.063,-35.5824 619.552,-28.7428"/>
</g>
</g>
</svg>
        <g id="navigator" transform="translate(0 0)" fill="#404254">
                <rect fill="#f2f5e9" fill-opacity="0.5" stroke="#606060" stroke-width=".5" x="0" y="0" width="60" height="60"/>
                <use id="zoomplus" xlink:href="#zoomPlus" x="17" y="9" onmousedown="handleZoom(evt,'in')"/>
                <use id="zoomminus" xlink:href="#zoomMin" x="42" y="9" onmousedown="handleZoom(evt,'out')"/>
                <use id="reset" xlink:href="#resetDef" x="30" y="36" onmousedown="handleReset()"/>
                <g id="arrowUp" xlink:href="#dirArrow" transform="translate(30 24)" onmousedown="handlePan(0,-1)">
                  <use xlink:href="#rim" fill="#404040">
                        <set attributeName="fill" to="#808080" begin="arrowUp.mouseover" end="arrowUp.mouseout"/>
                  </use>
                  <path fill="none" stroke="white" stroke-width="1.5" d="M0,-3.0v7 M-2.5,-0.5L0,-3.0L2.5,-0.5"/>
                </g>
                <g id="arrowRight" xlink:href="#dirArrow" transform="rotate(90) translate(36 -43)" onmousedown="handlePan(1,0)">
                  <use xlink:href="#rim" fill="#404040">
                        <set attributeName="fill" to="#808080" begin="arrowRight.mouseover" end="arrowRight.mouseout"/>
                  </use>
                  <path fill="none" stroke="white" stroke-width="1.5" d="M0,-3.0v7 M-2.5,-0.5L0,-3.0L2.5,-0.5"/>
                </g>
                <g id="arrowDown" xlink:href="#dirArrow" transform="rotate(180) translate(-30 -48)" onmousedown="handlePan(0,1)">
                  <use xlink:href="#rim" fill="#404040">
                        <set attributeName="fill" to="#808080" begin="arrowDown.mouseover" end="arrowDown.mouseout"/>
                  </use>
                  <path fill="none" stroke="white" stroke-width="1.5" d="M0,-3.0v7 M-2.5,-0.5L0,-3.0L2.5,-0.5"/>
                </g>
                <g id="arrowLeft" xlink:href="#dirArrow" transform="rotate(270) translate(-36 17)" onmousedown="handlePan(-1,0)">
                  <use xlink:href="#rim" fill="#404040">
                        <set attributeName="fill" to="#808080" begin="arrowLeft.mouseover" end="arrowLeft.mouseout"/>
                  </use>
                  <path fill="none" stroke="white" stroke-width="1.5" d="M0,-3.0v7 M-2.5,-0.5L0,-3.0L2.5,-0.5"/>
                </g>
        </g>
        <svg viewBox="0 0 15 15" width="100%" height="30px" preserveAspectRatio="xMaxYMin meet">
         <g id="arrow_out" transform="scale(0.3 0.3)">
          <a xlink:href="classcommand_parsing_1_1turtle_command_parsing_1_1turtle_movement_1_1_move__inherit__graph_org.svg" target="_base">
           <rect id="button" ry="5" rx="5" y="6" x="6" height="38" width="38"
                fill="#f2f5e9" fill-opacity="0.5" stroke="#606060" stroke-width="1.0"/>
           <path id="arrow"
             d="M 11.500037,31.436501 C 11.940474,20.09759 22.043105,11.32322 32.158766,21.979434 L 37.068811,17.246167 C 37.068811,17.246167 37.088388,32 37.088388,32 L 22.160133,31.978069 C 22.160133,31.978069 26.997745,27.140456 26.997745,27.140456 C 18.528582,18.264221 13.291696,25.230495 11.500037,31.436501 z"
             style="fill:#404040;"/>
          </a>
         </g>
        </svg>
</svg>
