<?xml version="1.0" encoding="UTF-8" standalone="no"?>
<!DOCTYPE svg PUBLIC "-//W3C//DTD SVG 1.1//EN"
 "http://www.w3.org/Graphics/SVG/1.1/DTD/svg11.dtd">
<!-- Generated by graphviz version 2.36.0 (20140111.2315)
 -->
<!-- Title: commandParsing.turtleCommandParsing.turtleMovement.MoveToLocation.distanceBetweenPoints Pages: 1 -->
<svg width="460pt" height="66pt"
 viewBox="0.00 0.00 460.00 66.00" xmlns="http://www.w3.org/2000/svg" xmlns:xlink="http://www.w3.org/1999/xlink">
<g id="graph0" class="graph" transform="scale(1 1) rotate(0) translate(4 62)">
<title>commandParsing.turtleCommandParsing.turtleMovement.MoveToLocation.distanceBetweenPoints</title>
<polygon fill="white" stroke="none" points="-4,4 -4,-62 456,-62 456,4 -4,4"/>
<!-- Node1 -->
<g id="node1" class="node"><title>Node1</title>
<polygon fill="#bfbfbf" stroke="black" points="0.5,-8.5 0.5,-49.5 253.5,-49.5 253.5,-8.5 0.5,-8.5"/>
<text text-anchor="start" x="8.5" y="-37.5" font-family="Helvetica,sans-Serif" font-size="10.00">commandParsing.turtleCommand</text>
<text text-anchor="start" x="8.5" y="-26.5" font-family="Helvetica,sans-Serif" font-size="10.00">Parsing.turtleMovement.MoveToLocation.distance</text>
<text text-anchor="middle" x="127" y="-15.5" font-family="Helvetica,sans-Serif" font-size="10.00">BetweenPoints</text>
</g>
<!-- Node2 -->
<g id="node2" class="node"><title>Node2</title>
<g id="a_node2"><a xlink:href="../../d0/d77/classworkspace_state_1_1_location.html#a31253ea7c01289f9c53d8353739de0a1" target="_top" xlink:title="workspaceState.Location.getX">
<polygon fill="white" stroke="black" points="290.5,-38.5 290.5,-57.5 451.5,-57.5 451.5,-38.5 290.5,-38.5"/>
<text text-anchor="middle" x="371" y="-45.5" font-family="Helvetica,sans-Serif" font-size="10.00">workspaceState.Location.getX</text>
</a>
</g>
</g>
<!-- Node1&#45;&gt;Node2 -->
<g id="edge1" class="edge"><title>Node1&#45;&gt;Node2</title>
<path fill="none" stroke="midnightblue" d="M253.607,-38.8617C262.541,-39.5632 271.442,-40.2619 280.113,-40.9428"/>
<polygon fill="midnightblue" stroke="midnightblue" points="279.933,-44.4393 290.176,-41.7328 280.481,-37.4608 279.933,-44.4393"/>
</g>
<!-- Node3 -->
<g id="node3" class="node"><title>Node3</title>
<g id="a_node3"><a xlink:href="../../d0/d77/classworkspace_state_1_1_location.html#a944e143017d77d851ea8265bba48917c" target="_top" xlink:title="workspaceState.Location.getY">
<polygon fill="white" stroke="black" points="290.5,-0.5 290.5,-19.5 451.5,-19.5 451.5,-0.5 290.5,-0.5"/>
<text text-anchor="middle" x="371" y="-7.5" font-family="Helvetica,sans-Serif" font-size="10.00">workspaceState.Location.getY</text>
</a>
</g>
</g>
<!-- Node1&#45;&gt;Node3 -->
<g id="edge2" class="edge"><title>Node1&#45;&gt;Node3</title>
<path fill="none" stroke="midnightblue" d="M253.607,-19.1383C262.541,-18.4368 271.442,-17.7381 280.113,-17.0572"/>
<polygon fill="midnightblue" stroke="midnightblue" points="280.481,-20.5392 290.176,-16.2672 279.933,-13.5607 280.481,-20.5392"/>
</g>
</g>
</svg>
