<?xml version="1.0" encoding="UTF-8" standalone="no"?>
<!DOCTYPE svg PUBLIC "-//W3C//DTD SVG 1.1//EN"
 "http://www.w3.org/Graphics/SVG/1.1/DTD/svg11.dtd">
<!-- Generated by graphviz version 2.36.0 (20140111.2315)
 -->
<!-- Title: commandParsing.turtleCommandParsing.turtleMovement.MoveToLocation.operateOnComponents Pages: 1 -->
<svg width="962pt" height="538pt"
 viewBox="0.00 0.00 962.00 537.52" xmlns="http://www.w3.org/2000/svg" xmlns:xlink="http://www.w3.org/1999/xlink">
<g id="graph0" class="graph" transform="scale(1 1) rotate(0) translate(4 533.523)">
<title>commandParsing.turtleCommandParsing.turtleMovement.MoveToLocation.operateOnComponents</title>
<polygon fill="white" stroke="none" points="-4,4 -4,-533.523 958,-533.523 958,4 -4,4"/>
<!-- Node1 -->
<g id="node1" class="node"><title>Node1</title>
<polygon fill="#bfbfbf" stroke="black" points="0,-197.5 0,-238.5 250,-238.5 250,-197.5 0,-197.5"/>
<text text-anchor="start" x="8" y="-226.5" font-family="Helvetica,sans-Serif" font-size="10.00">commandParsing.turtleCommand</text>
<text text-anchor="start" x="8" y="-215.5" font-family="Helvetica,sans-Serif" font-size="10.00">Parsing.turtleMovement.MoveToLocation.operate</text>
<text text-anchor="middle" x="125" y="-204.5" font-family="Helvetica,sans-Serif" font-size="10.00">OnComponents</text>
</g>
<!-- Node2 -->
<g id="node2" class="node"><title>Node2</title>
<g id="a_node2"><a xlink:href="../../d0/d77/classworkspace_state_1_1_location.html#ad4e68a97bd0ea67236551c1183fdcd6f" target="_top" xlink:title="workspaceState.Location.add">
<polygon fill="white" stroke="black" points="796,-383.5 796,-402.5 954,-402.5 954,-383.5 796,-383.5"/>
<text text-anchor="middle" x="875" y="-390.5" font-family="Helvetica,sans-Serif" font-size="10.00">workspaceState.Location.add</text>
</a>
</g>
</g>
<!-- Node1&#45;&gt;Node2 -->
<g id="edge1" class="edge"><title>Node1&#45;&gt;Node2</title>
<path fill="none" stroke="midnightblue" d="M133.244,-238.621C150.94,-285.556 201.23,-400.144 286,-450 467.905,-556.985 559.702,-544.453 760,-478 800.337,-464.617 837.975,-430.796 858.303,-410.077"/>
<polygon fill="midnightblue" stroke="midnightblue" points="861.072,-412.245 865.449,-402.596 856.011,-407.409 861.072,-412.245"/>
</g>
<!-- Node3 -->
<g id="node3" class="node"><title>Node3</title>
<g id="a_node3"><a xlink:href="../../d9/dab/classcommand_parsing_1_1turtle_command_parsing_1_1turtle_movement_1_1_move_to_location.html#a782737d77da1acbdba318e8485df9fb5" target="_top" xlink:title="commandParsing.turtleCommand\lParsing.turtleMovement.MoveToLocation.distance\lBetweenPoints">
<polygon fill="white" stroke="black" points="286.5,-400.5 286.5,-441.5 539.5,-441.5 539.5,-400.5 286.5,-400.5"/>
<text text-anchor="start" x="294.5" y="-429.5" font-family="Helvetica,sans-Serif" font-size="10.00">commandParsing.turtleCommand</text>
<text text-anchor="start" x="294.5" y="-418.5" font-family="Helvetica,sans-Serif" font-size="10.00">Parsing.turtleMovement.MoveToLocation.distance</text>
<text text-anchor="middle" x="413" y="-407.5" font-family="Helvetica,sans-Serif" font-size="10.00">BetweenPoints</text>
</a>
</g>
</g>
<!-- Node1&#45;&gt;Node3 -->
<g id="edge2" class="edge"><title>Node1&#45;&gt;Node3</title>
<path fill="none" stroke="midnightblue" d="M151.575,-238.514C182.773,-263.298 237.374,-305.913 286,-340 313.31,-359.144 344.88,-379.436 369.587,-394.921"/>
<polygon fill="midnightblue" stroke="midnightblue" points="368.023,-398.07 378.359,-400.397 371.73,-392.132 368.023,-398.07"/>
</g>
<!-- Node6 -->
<g id="node6" class="node"><title>Node6</title>
<g id="a_node6"><a xlink:href="../../d7/d23/interfacecommand_parsing_1_1drawable_obect_generation_interfaces_1_1_line_generator.html#a5e51e570ee2ac71f93cce35834969f1e" target="_top" xlink:title="commandParsing.drawableObect\lGenerationInterfaces.LineGenerator.generate\lDrawableObjectRepresentingLine">
<polygon fill="white" stroke="black" points="296,-290.5 296,-331.5 530,-331.5 530,-290.5 296,-290.5"/>
<text text-anchor="start" x="304" y="-319.5" font-family="Helvetica,sans-Serif" font-size="10.00">commandParsing.drawableObect</text>
<text text-anchor="start" x="304" y="-308.5" font-family="Helvetica,sans-Serif" font-size="10.00">GenerationInterfaces.LineGenerator.generate</text>
<text text-anchor="middle" x="413" y="-297.5" font-family="Helvetica,sans-Serif" font-size="10.00">DrawableObjectRepresentingLine</text>
</a>
</g>
</g>
<!-- Node1&#45;&gt;Node6 -->
<g id="edge5" class="edge"><title>Node1&#45;&gt;Node6</title>
<path fill="none" stroke="midnightblue" d="M189.118,-238.524C233.348,-252.907 292.59,-272.171 338.879,-287.223"/>
<polygon fill="midnightblue" stroke="midnightblue" points="337.957,-290.604 348.55,-290.368 340.122,-283.947 337.957,-290.604"/>
</g>
<!-- Node10 -->
<g id="node10" class="node"><title>Node10</title>
<g id="a_node10"><a xlink:href="../../df/d64/interfacecommand_parsing_1_1drawable_obect_generation_interfaces_1_1_turtle_generator.html#ad2df4af6c11d2ec038868c5520be6acd" target="_top" xlink:title="commandParsing.drawableObect\lGenerationInterfaces.TurtleGenerator.generate\lDrawableObjectRepresentingTurtle">
<polygon fill="white" stroke="black" points="293,-197.5 293,-238.5 533,-238.5 533,-197.5 293,-197.5"/>
<text text-anchor="start" x="301" y="-226.5" font-family="Helvetica,sans-Serif" font-size="10.00">commandParsing.drawableObect</text>
<text text-anchor="start" x="301" y="-215.5" font-family="Helvetica,sans-Serif" font-size="10.00">GenerationInterfaces.TurtleGenerator.generate</text>
<text text-anchor="middle" x="413" y="-204.5" font-family="Helvetica,sans-Serif" font-size="10.00">DrawableObjectRepresentingTurtle</text>
</a>
</g>
</g>
<!-- Node1&#45;&gt;Node10 -->
<g id="edge10" class="edge"><title>Node1&#45;&gt;Node10</title>
<path fill="none" stroke="midnightblue" d="M250.196,-218C260.934,-218 271.817,-218 282.595,-218"/>
<polygon fill="midnightblue" stroke="midnightblue" points="282.89,-221.5 292.89,-218 282.889,-214.5 282.89,-221.5"/>
</g>
<!-- Node17 -->
<g id="node17" class="node"><title>Node17</title>
<g id="a_node17"><a xlink:href="../../db/d1f/classworkspace_state_1_1_turtle_collection.html#a6c49b4d7d24c0ed82ea491185b023cf0" target="_top" xlink:title="workspaceState.TurtleCollection.get\lActiveTurtles">
<polygon fill="white" stroke="black" points="319.5,-149 319.5,-179 506.5,-179 506.5,-149 319.5,-149"/>
<text text-anchor="start" x="327.5" y="-167" font-family="Helvetica,sans-Serif" font-size="10.00">workspaceState.TurtleCollection.get</text>
<text text-anchor="middle" x="413" y="-156" font-family="Helvetica,sans-Serif" font-size="10.00">ActiveTurtles</text>
</a>
</g>
</g>
<!-- Node1&#45;&gt;Node17 -->
<g id="edge18" class="edge"><title>Node1&#45;&gt;Node17</title>
<path fill="none" stroke="midnightblue" d="M234.94,-197.431C263.762,-191.989 294.543,-186.177 322.222,-180.951"/>
<polygon fill="midnightblue" stroke="midnightblue" points="323.092,-184.349 332.269,-179.054 321.793,-177.47 323.092,-184.349"/>
</g>
<!-- Node18 -->
<g id="node18" class="node"><title>Node18</title>
<g id="a_node18"><a xlink:href="../../d9/dab/classcommand_parsing_1_1turtle_command_parsing_1_1turtle_movement_1_1_move_to_location.html#abdb24c8a5c8d0b7736a0ccb4317b645c" target="_top" xlink:title="commandParsing.turtleCommand\lParsing.turtleMovement.MoveToLocation.get\lDestinationHeading">
<polygon fill="white" stroke="black" points="299,-89.5 299,-130.5 527,-130.5 527,-89.5 299,-89.5"/>
<text text-anchor="start" x="307" y="-118.5" font-family="Helvetica,sans-Serif" font-size="10.00">commandParsing.turtleCommand</text>
<text text-anchor="start" x="307" y="-107.5" font-family="Helvetica,sans-Serif" font-size="10.00">Parsing.turtleMovement.MoveToLocation.get</text>
<text text-anchor="middle" x="413" y="-96.5" font-family="Helvetica,sans-Serif" font-size="10.00">DestinationHeading</text>
</a>
</g>
</g>
<!-- Node1&#45;&gt;Node18 -->
<g id="edge19" class="edge"><title>Node1&#45;&gt;Node18</title>
<path fill="none" stroke="midnightblue" d="M161.49,-197.481C193.239,-179.861 241.499,-154.863 286,-139 291.486,-137.044 297.154,-135.187 302.911,-133.429"/>
<polygon fill="midnightblue" stroke="midnightblue" points="304.059,-136.74 312.667,-130.563 302.086,-130.024 304.059,-136.74"/>
</g>
<!-- Node19 -->
<g id="node19" class="node"><title>Node19</title>
<g id="a_node19"><a xlink:href="../../d9/dab/classcommand_parsing_1_1turtle_command_parsing_1_1turtle_movement_1_1_move_to_location.html#aff67c0610960b8d227bff990b11415ea" target="_top" xlink:title="commandParsing.turtleCommand\lParsing.turtleMovement.MoveToLocation.get\lDestinationLocation">
<polygon fill="white" stroke="black" points="299,-29.5 299,-70.5 527,-70.5 527,-29.5 299,-29.5"/>
<text text-anchor="start" x="307" y="-58.5" font-family="Helvetica,sans-Serif" font-size="10.00">commandParsing.turtleCommand</text>
<text text-anchor="start" x="307" y="-47.5" font-family="Helvetica,sans-Serif" font-size="10.00">Parsing.turtleMovement.MoveToLocation.get</text>
<text text-anchor="middle" x="413" y="-36.5" font-family="Helvetica,sans-Serif" font-size="10.00">DestinationLocation</text>
</a>
</g>
</g>
<!-- Node1&#45;&gt;Node19 -->
<g id="edge20" class="edge"><title>Node1&#45;&gt;Node19</title>
<path fill="none" stroke="midnightblue" d="M143.704,-197.443C171.073,-167.011 226.723,-110.314 286,-80 289.993,-77.9579 294.129,-76.0519 298.361,-74.2732"/>
<polygon fill="midnightblue" stroke="midnightblue" points="299.734,-77.4943 307.761,-70.5792 297.174,-70.9793 299.734,-77.4943"/>
</g>
<!-- Node4 -->
<g id="node4" class="node"><title>Node4</title>
<g id="a_node4"><a xlink:href="../../d0/d77/classworkspace_state_1_1_location.html#a31253ea7c01289f9c53d8353739de0a1" target="_top" xlink:title="workspaceState.Location.getX">
<polygon fill="white" stroke="black" points="587.5,-449.5 587.5,-468.5 748.5,-468.5 748.5,-449.5 587.5,-449.5"/>
<text text-anchor="middle" x="668" y="-456.5" font-family="Helvetica,sans-Serif" font-size="10.00">workspaceState.Location.getX</text>
</a>
</g>
</g>
<!-- Node3&#45;&gt;Node4 -->
<g id="edge3" class="edge"><title>Node3&#45;&gt;Node4</title>
<path fill="none" stroke="midnightblue" d="M539.759,-439.889C558.142,-442.65 576.546,-445.414 593.419,-447.948"/>
<polygon fill="midnightblue" stroke="midnightblue" points="593.303,-451.47 603.712,-449.494 594.343,-444.548 593.303,-451.47"/>
</g>
<!-- Node5 -->
<g id="node5" class="node"><title>Node5</title>
<g id="a_node5"><a xlink:href="../../d0/d77/classworkspace_state_1_1_location.html#a944e143017d77d851ea8265bba48917c" target="_top" xlink:title="workspaceState.Location.getY">
<polygon fill="white" stroke="black" points="587.5,-411.5 587.5,-430.5 748.5,-430.5 748.5,-411.5 587.5,-411.5"/>
<text text-anchor="middle" x="668" y="-418.5" font-family="Helvetica,sans-Serif" font-size="10.00">workspaceState.Location.getY</text>
</a>
</g>
</g>
<!-- Node3&#45;&gt;Node5 -->
<g id="edge4" class="edge"><title>Node3&#45;&gt;Node5</title>
<path fill="none" stroke="midnightblue" d="M539.759,-421C552.451,-421 565.153,-421 577.354,-421"/>
<polygon fill="midnightblue" stroke="midnightblue" points="577.474,-424.5 587.474,-421 577.474,-417.5 577.474,-424.5"/>
</g>
<!-- Node7 -->
<g id="node7" class="node"><title>Node7</title>
<g id="a_node7"><a xlink:href="../../d0/d77/classworkspace_state_1_1_location.html#ae445cb48bedcd80659a847365a6a3de4" target="_top" xlink:title="workspaceState.Location.generate\lLocationString">
<polygon fill="white" stroke="black" points="576.5,-274 576.5,-304 759.5,-304 759.5,-274 576.5,-274"/>
<text text-anchor="start" x="584.5" y="-292" font-family="Helvetica,sans-Serif" font-size="10.00">workspaceState.Location.generate</text>
<text text-anchor="middle" x="668" y="-281" font-family="Helvetica,sans-Serif" font-size="10.00">LocationString</text>
</a>
</g>
</g>
<!-- Node6&#45;&gt;Node7 -->
<g id="edge6" class="edge"><title>Node6&#45;&gt;Node7</title>
<path fill="none" stroke="midnightblue" d="M530.133,-300.901C542.089,-299.862 554.17,-298.811 565.943,-297.788"/>
<polygon fill="midnightblue" stroke="midnightblue" points="566.541,-301.249 576.2,-296.896 565.934,-294.275 566.541,-301.249"/>
</g>
<!-- Node8 -->
<g id="node8" class="node"><title>Node8</title>
<g id="a_node8"><a xlink:href="../../de/dc6/classworkspace_state_1_1_pen.html#af76da0ea2e8a2eba96a60c5aa0b73d3d" target="_top" xlink:title="workspaceState.Pen.getPen\lColor">
<polygon fill="white" stroke="black" points="592.5,-362 592.5,-392 743.5,-392 743.5,-362 592.5,-362"/>
<text text-anchor="start" x="600.5" y="-380" font-family="Helvetica,sans-Serif" font-size="10.00">workspaceState.Pen.getPen</text>
<text text-anchor="middle" x="668" y="-369" font-family="Helvetica,sans-Serif" font-size="10.00">Color</text>
</a>
</g>
</g>
<!-- Node6&#45;&gt;Node8 -->
<g id="edge8" class="edge"><title>Node6&#45;&gt;Node8</title>
<path fill="none" stroke="midnightblue" d="M492.664,-331.521C526.843,-340.437 566.485,-350.779 599.324,-359.345"/>
<polygon fill="midnightblue" stroke="midnightblue" points="598.724,-362.806 609.284,-361.944 600.491,-356.033 598.724,-362.806"/>
</g>
<!-- Node9 -->
<g id="node9" class="node"><title>Node9</title>
<g id="a_node9"><a xlink:href="../../de/dc6/classworkspace_state_1_1_pen.html#a5cb8cf583caf24d0c520855c97751349" target="_top" xlink:title="workspaceState.Pen.getPenSize">
<polygon fill="white" stroke="black" points="582.5,-323.5 582.5,-342.5 753.5,-342.5 753.5,-323.5 582.5,-323.5"/>
<text text-anchor="middle" x="668" y="-330.5" font-family="Helvetica,sans-Serif" font-size="10.00">workspaceState.Pen.getPenSize</text>
</a>
</g>
</g>
<!-- Node6&#45;&gt;Node9 -->
<g id="edge9" class="edge"><title>Node6&#45;&gt;Node9</title>
<path fill="none" stroke="midnightblue" d="M530.133,-321.099C544.108,-322.314 558.252,-323.544 571.878,-324.729"/>
<polygon fill="midnightblue" stroke="midnightblue" points="571.92,-328.245 582.186,-325.625 572.526,-321.272 571.92,-328.245"/>
</g>
<!-- Node7&#45;&gt;Node2 -->
<g id="edge7" class="edge"><title>Node7&#45;&gt;Node2</title>
<path fill="none" stroke="midnightblue" d="M734.589,-304.137C743.301,-306.978 751.984,-310.255 760,-314 796.208,-330.916 833.383,-359.103 855.053,-376.836"/>
<polygon fill="midnightblue" stroke="midnightblue" points="852.896,-379.595 862.824,-383.295 857.371,-374.212 852.896,-379.595"/>
</g>
<!-- Node10&#45;&gt;Node7 -->
<g id="edge11" class="edge"><title>Node10&#45;&gt;Node7</title>
<path fill="none" stroke="midnightblue" d="M485.737,-238.512C513.867,-246.518 546.433,-255.741 576,-264 584.37,-266.338 593.177,-268.78 601.882,-271.183"/>
<polygon fill="midnightblue" stroke="midnightblue" points="601.067,-274.589 611.638,-273.872 602.927,-267.841 601.067,-274.589"/>
</g>
<!-- Node11 -->
<g id="node11" class="node"><title>Node11</title>
<g id="a_node11"><a xlink:href="../../d1/d01/classworkspace_state_1_1_turtle.html#ac6697327d46a4fde63526e973948d6f7" target="_top" xlink:title="workspaceState.Turtle.get\lHeading">
<polygon fill="white" stroke="black" points="598,-225 598,-255 738,-255 738,-225 598,-225"/>
<text text-anchor="start" x="606" y="-243" font-family="Helvetica,sans-Serif" font-size="10.00">workspaceState.Turtle.get</text>
<text text-anchor="middle" x="668" y="-232" font-family="Helvetica,sans-Serif" font-size="10.00">Heading</text>
</a>
</g>
</g>
<!-- Node10&#45;&gt;Node11 -->
<g id="edge12" class="edge"><title>Node10&#45;&gt;Node11</title>
<path fill="none" stroke="midnightblue" d="M533.092,-228.356C551.627,-229.968 570.374,-231.598 587.736,-233.107"/>
<polygon fill="midnightblue" stroke="midnightblue" points="587.52,-236.602 597.786,-233.981 588.126,-229.628 587.52,-236.602"/>
</g>
<!-- Node12 -->
<g id="node12" class="node"><title>Node12</title>
<g id="a_node12"><a xlink:href="../../d1/d01/classworkspace_state_1_1_turtle.html#a2b5e77b78036091a65abb5f4959b5ef7" target="_top" xlink:title="workspaceState.Turtle.getID">
<polygon fill="white" stroke="black" points="593,-186.5 593,-205.5 743,-205.5 743,-186.5 593,-186.5"/>
<text text-anchor="middle" x="668" y="-193.5" font-family="Helvetica,sans-Serif" font-size="10.00">workspaceState.Turtle.getID</text>
</a>
</g>
</g>
<!-- Node10&#45;&gt;Node12 -->
<g id="edge13" class="edge"><title>Node10&#45;&gt;Node12</title>
<path fill="none" stroke="midnightblue" d="M533.092,-207.644C549.808,-206.191 566.698,-204.722 582.587,-203.34"/>
<polygon fill="midnightblue" stroke="midnightblue" points="583.214,-206.799 592.873,-202.446 582.607,-199.825 583.214,-206.799"/>
</g>
<!-- Node13 -->
<g id="node13" class="node"><title>Node13</title>
<g id="a_node13"><a xlink:href="../../d1/d01/classworkspace_state_1_1_turtle.html#a9bb3d15f12d9d4e03332ea9817f76882" target="_top" xlink:title="workspaceState.Turtle.get\lLocation">
<polygon fill="white" stroke="black" points="598,-137 598,-167 738,-167 738,-137 598,-137"/>
<text text-anchor="start" x="606" y="-155" font-family="Helvetica,sans-Serif" font-size="10.00">workspaceState.Turtle.get</text>
<text text-anchor="middle" x="668" y="-144" font-family="Helvetica,sans-Serif" font-size="10.00">Location</text>
</a>
</g>
</g>
<!-- Node10&#45;&gt;Node13 -->
<g id="edge14" class="edge"><title>Node10&#45;&gt;Node13</title>
<path fill="none" stroke="midnightblue" d="M503.318,-197.469C515.671,-194.415 528.173,-191.211 540,-188 556.146,-183.616 559.932,-181.661 576,-177 584.143,-174.638 592.712,-172.209 601.203,-169.837"/>
<polygon fill="midnightblue" stroke="midnightblue" points="602.406,-173.136 611.104,-167.086 600.532,-166.391 602.406,-173.136"/>
</g>
<!-- Node14 -->
<g id="node14" class="node"><title>Node14</title>
<g id="a_node14"><a xlink:href="../../d1/d01/classworkspace_state_1_1_turtle.html#a5c09e19002f9ed4c61ce538fff3da4ff" target="_top" xlink:title="workspaceState.Turtle.get\lOpacity">
<polygon fill="white" stroke="black" points="598,-88 598,-118 738,-118 738,-88 598,-88"/>
<text text-anchor="start" x="606" y="-106" font-family="Helvetica,sans-Serif" font-size="10.00">workspaceState.Turtle.get</text>
<text text-anchor="middle" x="668" y="-95" font-family="Helvetica,sans-Serif" font-size="10.00">Opacity</text>
</a>
</g>
</g>
<!-- Node10&#45;&gt;Node14 -->
<g id="edge15" class="edge"><title>Node10&#45;&gt;Node14</title>
<path fill="none" stroke="midnightblue" d="M524.668,-197.428C530.053,-194.665 535.205,-191.538 540,-188 565.331,-169.309 550.896,-145.995 576,-127 579.868,-124.073 584.063,-121.502 588.456,-119.245"/>
<polygon fill="midnightblue" stroke="midnightblue" points="590.059,-122.361 597.713,-115.035 587.161,-115.989 590.059,-122.361"/>
</g>
<!-- Node15 -->
<g id="node15" class="node"><title>Node15</title>
<g id="a_node15"><a xlink:href="../../da/de7/classworkspace_state_1_1_shape.html#aace6051dd26034446492ecac6ff16099" target="_top" xlink:title="workspaceState.Shape.getPath">
<polygon fill="white" stroke="black" points="584.5,-49.5 584.5,-68.5 751.5,-68.5 751.5,-49.5 584.5,-49.5"/>
<text text-anchor="middle" x="668" y="-56.5" font-family="Helvetica,sans-Serif" font-size="10.00">workspaceState.Shape.getPath</text>
</a>
</g>
</g>
<!-- Node10&#45;&gt;Node15 -->
<g id="edge16" class="edge"><title>Node10&#45;&gt;Node15</title>
<path fill="none" stroke="midnightblue" d="M527.676,-197.389C532.057,-194.619 536.195,-191.503 540,-188 577.844,-153.158 537.674,-112.311 576,-78 577.71,-76.4694 579.51,-75.0502 581.386,-73.7347"/>
<polygon fill="midnightblue" stroke="midnightblue" points="583.225,-76.7137 590.047,-68.608 579.659,-70.6899 583.225,-76.7137"/>
</g>
<!-- Node16 -->
<g id="node16" class="node"><title>Node16</title>
<g id="a_node16"><a xlink:href="../../d1/d01/classworkspace_state_1_1_turtle.html#a8d9dd9cb3503c6d0aa45efca91816f71" target="_top" xlink:title="workspaceState.Turtle.get\lShape">
<polygon fill="white" stroke="black" points="598,-0 598,-30 738,-30 738,-0 598,-0"/>
<text text-anchor="start" x="606" y="-18" font-family="Helvetica,sans-Serif" font-size="10.00">workspaceState.Turtle.get</text>
<text text-anchor="middle" x="668" y="-7" font-family="Helvetica,sans-Serif" font-size="10.00">Shape</text>
</a>
</g>
</g>
<!-- Node10&#45;&gt;Node16 -->
<g id="edge17" class="edge"><title>Node10&#45;&gt;Node16</title>
<path fill="none" stroke="midnightblue" d="M528.579,-197.373C532.659,-194.601 536.493,-191.49 540,-188 587.984,-140.248 528.843,-88.569 576,-40 579.852,-36.0327 584.27,-32.677 589.038,-29.8405"/>
<polygon fill="midnightblue" stroke="midnightblue" points="590.645,-32.9495 597.951,-25.2757 587.454,-26.719 590.645,-32.9495"/>
</g>
</g>
</svg>
