<?xml version="1.0" encoding="UTF-8" standalone="no"?>
<!DOCTYPE svg PUBLIC "-//W3C//DTD SVG 1.1//EN"
 "http://www.w3.org/Graphics/SVG/1.1/DTD/svg11.dtd">
<!-- Generated by graphviz version 2.36.0 (20140111.2315)
 -->
<!-- Title: commandParsing.turtleCommandParsing.turtleMovement.MoveToLocation.getDestinationHeading Pages: 1 -->
<svg width="522pt" height="48pt"
 viewBox="0.00 0.00 522.00 48.00" xmlns="http://www.w3.org/2000/svg" xmlns:xlink="http://www.w3.org/1999/xlink">
<g id="graph0" class="graph" transform="scale(1 1) rotate(0) translate(4 44)">
<title>commandParsing.turtleCommandParsing.turtleMovement.MoveToLocation.getDestinationHeading</title>
<polygon fill="white" stroke="none" points="-4,4 -4,-44 518,-44 518,4 -4,4"/>
<!-- Node1 -->
<g id="node1" class="node"><title>Node1</title>
<polygon fill="#bfbfbf" stroke="black" points="0,0.5 0,-40.5 228,-40.5 228,0.5 0,0.5"/>
<text text-anchor="start" x="8" y="-28.5" font-family="Helvetica,sans-Serif" font-size="10.00">commandParsing.turtleCommand</text>
<text text-anchor="start" x="8" y="-17.5" font-family="Helvetica,sans-Serif" font-size="10.00">Parsing.turtleMovement.MoveToLocation.get</text>
<text text-anchor="middle" x="114" y="-6.5" font-family="Helvetica,sans-Serif" font-size="10.00">DestinationHeading</text>
</g>
<!-- Node2 -->
<g id="node2" class="node"><title>Node2</title>
<g id="a_node2"><a xlink:href="../../d9/dab/classcommand_parsing_1_1turtle_command_parsing_1_1turtle_movement_1_1_move_to_location.html#a914c07518060cce52ab6782b8dcfeb81" target="_top" xlink:title="commandParsing.turtleCommand\lParsing.turtleMovement.MoveToLocation.operate\lOnComponents">
<polygon fill="white" stroke="black" points="264,0.5 264,-40.5 514,-40.5 514,0.5 264,0.5"/>
<text text-anchor="start" x="272" y="-28.5" font-family="Helvetica,sans-Serif" font-size="10.00">commandParsing.turtleCommand</text>
<text text-anchor="start" x="272" y="-17.5" font-family="Helvetica,sans-Serif" font-size="10.00">Parsing.turtleMovement.MoveToLocation.operate</text>
<text text-anchor="middle" x="389" y="-6.5" font-family="Helvetica,sans-Serif" font-size="10.00">OnComponents</text>
</a>
</g>
</g>
<!-- Node1&#45;&gt;Node2 -->
<g id="edge1" class="edge"><title>Node1&#45;&gt;Node2</title>
<path fill="none" stroke="midnightblue" d="M238.238,-20C246.657,-20 255.145,-20 263.571,-20"/>
<polygon fill="midnightblue" stroke="midnightblue" points="238.01,-16.5001 228.01,-20 238.01,-23.5001 238.01,-16.5001"/>
</g>
</g>
</svg>
