<?xml version="1.0" encoding="UTF-8" standalone="no"?>
<!DOCTYPE svg PUBLIC "-//W3C//DTD SVG 1.1//EN"
 "http://www.w3.org/Graphics/SVG/1.1/DTD/svg11.dtd">
<!-- Generated by graphviz version 2.36.0 (20140111.2315)
 -->
<!-- Title: gui.nonbuttonfeatures.tableviews.variables.EditingCell Pages: 1 -->
<svg width="1630pt" height="371pt"
 viewBox="0.00 0.00 1630.00 371.00" xmlns="http://www.w3.org/2000/svg" xmlns:xlink="http://www.w3.org/1999/xlink">
<g id="graph0" class="graph" transform="scale(1 1) rotate(0) translate(4 367)">
<title>gui.nonbuttonfeatures.tableviews.variables.EditingCell</title>
<polygon fill="white" stroke="none" points="-4,4 -4,-367 1626,-367 1626,4 -4,4"/>
<!-- Node1 -->
<g id="node1" class="node"><title>Node1</title>
<polygon fill="#bfbfbf" stroke="black" points="1128,-44 1128,-74 1352,-74 1352,-44 1128,-44"/>
<text text-anchor="start" x="1136" y="-62" font-family="Helvetica,sans-Serif" font-size="10.00">gui.nonbuttonfeatures.tableviews.variables.</text>
<text text-anchor="middle" x="1240" y="-51" font-family="Helvetica,sans-Serif" font-size="10.00">EditingCell</text>
</g>
<!-- Node2 -->
<g id="node2" class="node"><title>Node2</title>
<polygon fill="white" stroke="#bfbfbf" points="848.5,-38.5 848.5,-79.5 1015.5,-79.5 1015.5,-38.5 848.5,-38.5"/>
<text text-anchor="start" x="856.5" y="-67.5" font-family="Helvetica,sans-Serif" font-size="10.00">javafx::scene::control</text>
<text text-anchor="start" x="856.5" y="-56.5" font-family="Helvetica,sans-Serif" font-size="10.00">::TableCell&lt; WorkspaceVariable,</text>
<text text-anchor="middle" x="932" y="-45.5" font-family="Helvetica,sans-Serif" font-size="10.00"> Double &gt;</text>
</g>
<!-- Node2&#45;&gt;Node1 -->
<g id="edge1" class="edge"><title>Node2&#45;&gt;Node1</title>
<path fill="none" stroke="midnightblue" d="M1026.08,-59C1058.22,-59 1094.54,-59 1127.96,-59"/>
<polygon fill="midnightblue" stroke="midnightblue" points="1025.81,-55.5001 1015.81,-59 1025.81,-62.5001 1025.81,-55.5001"/>
</g>
<!-- Node3 -->
<g id="node3" class="node"><title>Node3</title>
<g id="a_node3"><a xlink:href="../../d8/df2/classgui_1_1mainclasses_1_1workspace_1_1_workspace.html" target="_top" xlink:title="gui.mainclasses.workspace.\lWorkspace">
<polygon fill="white" stroke="black" points="857.5,-120 857.5,-150 1006.5,-150 1006.5,-120 857.5,-120"/>
<text text-anchor="start" x="865.5" y="-138" font-family="Helvetica,sans-Serif" font-size="10.00">gui.mainclasses.workspace.</text>
<text text-anchor="middle" x="932" y="-127" font-family="Helvetica,sans-Serif" font-size="10.00">Workspace</text>
</a>
</g>
</g>
<!-- Node3&#45;&gt;Node1 -->
<g id="edge2" class="edge"><title>Node3&#45;&gt;Node1</title>
<path fill="none" stroke="#9a32cd" stroke-dasharray="5,2" d="M973.315,-115.734C991.508,-107.697 1013.48,-98.8832 1034,-93 1064,-84.3993 1097.13,-77.729 1127.85,-72.6666"/>
<polygon fill="#9a32cd" stroke="#9a32cd" points="971.857,-112.552 964.173,-119.847 974.729,-118.936 971.857,-112.552"/>
<text text-anchor="middle" x="1072" y="-96" font-family="Helvetica,sans-Serif" font-size="10.00"> myWorkspace</text>
</g>
<!-- Node16 -->
<g id="node16" class="node"><title>Node16</title>
<g id="a_node16"><a xlink:href="../../dd/d25/classgui_1_1factories_1_1turtlefactory_1_1_turtle_nodes.html" target="_top" xlink:title="gui.factories.turtlefactory.\lTurtleNodes">
<polygon fill="white" stroke="black" points="1171,-186 1171,-216 1309,-216 1309,-186 1171,-186"/>
<text text-anchor="start" x="1179" y="-204" font-family="Helvetica,sans-Serif" font-size="10.00">gui.factories.turtlefactory.</text>
<text text-anchor="middle" x="1240" y="-193" font-family="Helvetica,sans-Serif" font-size="10.00">TurtleNodes</text>
</a>
</g>
</g>
<!-- Node3&#45;&gt;Node16 -->
<g id="edge18" class="edge"><title>Node3&#45;&gt;Node16</title>
<path fill="none" stroke="#9a32cd" stroke-dasharray="5,2" d="M993.822,-152.784C1007.01,-156.382 1020.93,-159.983 1034,-163 1079.32,-173.462 1130.79,-182.995 1170.83,-189.896"/>
<polygon fill="#9a32cd" stroke="#9a32cd" points="994.472,-149.332 983.901,-150.042 992.608,-156.08 994.472,-149.332"/>
<text text-anchor="middle" x="1072" y="-182" font-family="Helvetica,sans-Serif" font-size="10.00"> myWorkspace</text>
</g>
<!-- Node4 -->
<g id="node4" class="node"><title>Node4</title>
<polygon fill="white" stroke="#bfbfbf" points="584,-240.5 584,-259.5 616,-259.5 616,-240.5 584,-240.5"/>
<text text-anchor="middle" x="600" y="-247.5" font-family="Helvetica,sans-Serif" font-size="10.00">Tab</text>
</g>
<!-- Node4&#45;&gt;Node3 -->
<g id="edge3" class="edge"><title>Node4&#45;&gt;Node3</title>
<path fill="none" stroke="midnightblue" d="M626.229,-248.044C669.448,-243.998 759.774,-232.484 830,-203 846.664,-196.004 886.131,-168.014 910.501,-150.198"/>
<polygon fill="midnightblue" stroke="midnightblue" points="625.713,-244.575 616.058,-248.937 626.326,-251.549 625.713,-244.575"/>
</g>
<!-- Node5 -->
<g id="node5" class="node"><title>Node5</title>
<g id="a_node5"><a xlink:href="../../d0/d23/classgui_1_1mainclasses_1_1workspace_1_1_workspace_data_holder.html" target="_top" xlink:title="gui.mainclasses.workspace.\lWorkspaceDataHolder">
<polygon fill="white" stroke="black" points="525.5,-191 525.5,-221 674.5,-221 674.5,-191 525.5,-191"/>
<text text-anchor="start" x="533.5" y="-209" font-family="Helvetica,sans-Serif" font-size="10.00">gui.mainclasses.workspace.</text>
<text text-anchor="middle" x="600" y="-198" font-family="Helvetica,sans-Serif" font-size="10.00">WorkspaceDataHolder</text>
</a>
</g>
</g>
<!-- Node5&#45;&gt;Node3 -->
<g id="edge4" class="edge"><title>Node5&#45;&gt;Node3</title>
<path fill="none" stroke="#9a32cd" stroke-dasharray="5,2" d="M684.639,-193.327C728.215,-186.144 782.24,-176.331 830,-165 847.887,-160.756 867.296,-155.221 884.275,-150.062"/>
<polygon fill="#9a32cd" stroke="#9a32cd" points="683.959,-189.891 674.653,-194.957 685.087,-196.8 683.959,-189.891"/>
<text text-anchor="middle" x="773" y="-191" font-family="Helvetica,sans-Serif" font-size="10.00"> myDataHolder</text>
</g>
<!-- Node6 -->
<g id="node6" class="node"><title>Node6</title>
<polygon fill="white" stroke="#bfbfbf" points="0.5,-288 0.5,-318 319.5,-318 319.5,-288 0.5,-288"/>
<text text-anchor="start" x="8.5" y="-306" font-family="Helvetica,sans-Serif" font-size="10.00">ObservableList&lt; gui.nonbuttonfeatures.tableviews.imageindex.</text>
<text text-anchor="middle" x="160" y="-295" font-family="Helvetica,sans-Serif" font-size="10.00">ImageIndex &gt;</text>
</g>
<!-- Node6&#45;&gt;Node5 -->
<g id="edge5" class="edge"><title>Node6&#45;&gt;Node5</title>
<path fill="none" stroke="#9a32cd" stroke-dasharray="5,2" d="M267.177,-286.325C284.82,-283.548 302.926,-280.696 320,-278 392.896,-266.491 419.581,-288.008 484,-252 494.73,-246.002 491.567,-237.501 502,-231 509.232,-226.494 517.25,-222.797 525.487,-219.764"/>
<polygon fill="#9a32cd" stroke="#9a32cd" points="266.188,-282.937 256.854,-287.949 267.276,-289.852 266.188,-282.937"/>
<text text-anchor="middle" x="411" y="-279" font-family="Helvetica,sans-Serif" font-size="10.00"> myImageIndexList</text>
</g>
<!-- Node7 -->
<g id="node7" class="node"><title>Node7</title>
<polygon fill="white" stroke="#bfbfbf" points="4,-239 4,-269 316,-269 316,-239 4,-239"/>
<text text-anchor="start" x="12" y="-257" font-family="Helvetica,sans-Serif" font-size="10.00">ObservableList&lt; gui.nonbuttonfeatures.tableviews.colorindex.</text>
<text text-anchor="middle" x="160" y="-246" font-family="Helvetica,sans-Serif" font-size="10.00">ColorIndex &gt;</text>
</g>
<!-- Node7&#45;&gt;Node5 -->
<g id="edge6" class="edge"><title>Node7&#45;&gt;Node5</title>
<path fill="none" stroke="#9a32cd" stroke-dasharray="5,2" d="M326.401,-237.997C377.01,-232.859 432.821,-226.951 484,-221 497.4,-219.442 511.663,-217.672 525.419,-215.908"/>
<polygon fill="#9a32cd" stroke="#9a32cd" points="325.948,-234.525 316.351,-239.014 326.653,-241.489 325.948,-234.525"/>
<text text-anchor="middle" x="411" y="-240" font-family="Helvetica,sans-Serif" font-size="10.00"> myColorIndexList</text>
</g>
<!-- Node8 -->
<g id="node8" class="node"><title>Node8</title>
<polygon fill="white" stroke="#bfbfbf" points="72.5,-190 72.5,-220 247.5,-220 247.5,-190 72.5,-190"/>
<text text-anchor="start" x="80.5" y="-208" font-family="Helvetica,sans-Serif" font-size="10.00">ObservableList&lt; gui.variableslist.</text>
<text text-anchor="middle" x="160" y="-197" font-family="Helvetica,sans-Serif" font-size="10.00">WorkspaceVariable &gt;</text>
</g>
<!-- Node8&#45;&gt;Node5 -->
<g id="edge7" class="edge"><title>Node8&#45;&gt;Node5</title>
<path fill="none" stroke="#9a32cd" stroke-dasharray="5,2" d="M257.71,-205.221C338.457,-205.405 451.85,-205.664 525.374,-205.832"/>
<polygon fill="#9a32cd" stroke="#9a32cd" points="257.543,-201.721 247.535,-205.198 257.527,-208.72 257.543,-201.721"/>
<text text-anchor="middle" x="411" y="-209" font-family="Helvetica,sans-Serif" font-size="10.00"> myVariablesList</text>
</g>
<!-- Node9 -->
<g id="node9" class="node"><title>Node9</title>
<polygon fill="white" stroke="#bfbfbf" points="91,-151.5 91,-170.5 229,-170.5 229,-151.5 91,-151.5"/>
<text text-anchor="middle" x="160" y="-158.5" font-family="Helvetica,sans-Serif" font-size="10.00">ObservableList&lt; String &gt;</text>
</g>
<!-- Node9&#45;&gt;Node5 -->
<g id="edge8" class="edge"><title>Node9&#45;&gt;Node5</title>
<path fill="none" stroke="#9a32cd" stroke-dasharray="5,2" d="M239.33,-162.029C304.963,-163.746 400.98,-168.254 484,-180 502.747,-182.652 522.961,-186.783 541.134,-190.976"/>
<polygon fill="#9a32cd" stroke="#9a32cd" points="239.147,-158.523 229.064,-161.776 238.975,-165.521 239.147,-158.523"/>
<text text-anchor="middle" x="411" y="-194" font-family="Helvetica,sans-Serif" font-size="10.00"> myPreviousCommandsList</text>
<text text-anchor="middle" x="411" y="-183" font-family="Helvetica,sans-Serif" font-size="10.00">mySavedCommandsList</text>
</g>
<!-- Node10 -->
<g id="node10" class="node"><title>Node10</title>
<polygon fill="white" stroke="#bfbfbf" points="23.5,-102 23.5,-132 296.5,-132 296.5,-102 23.5,-102"/>
<text text-anchor="start" x="31.5" y="-120" font-family="Helvetica,sans-Serif" font-size="10.00">ObservableList&lt; gui.factories.userdefinedcommands.</text>
<text text-anchor="middle" x="160" y="-109" font-family="Helvetica,sans-Serif" font-size="10.00">DisplayedUserCommand &gt;</text>
</g>
<!-- Node10&#45;&gt;Node5 -->
<g id="edge9" class="edge"><title>Node10&#45;&gt;Node5</title>
<path fill="none" stroke="#9a32cd" stroke-dasharray="5,2" d="M306.806,-105.983C365.746,-108.063 431.988,-119.274 484,-152 496.84,-160.079 489.776,-172.017 502,-181 509.007,-186.149 516.977,-190.241 525.266,-193.491"/>
<polygon fill="#9a32cd" stroke="#9a32cd" points="306.745,-102.48 296.655,-105.711 306.557,-109.478 306.745,-102.48"/>
<text text-anchor="middle" x="411" y="-155" font-family="Helvetica,sans-Serif" font-size="10.00"> myUserDefinedCommandList</text>
</g>
<!-- Node11 -->
<g id="node11" class="node"><title>Node11</title>
<polygon fill="white" stroke="#bfbfbf" points="502.5,-142 502.5,-172 697.5,-172 697.5,-142 502.5,-142"/>
<text text-anchor="start" x="510.5" y="-160" font-family="Helvetica,sans-Serif" font-size="10.00">Map&lt; String, gui.componentdrawers.</text>
<text text-anchor="middle" x="600" y="-149" font-family="Helvetica,sans-Serif" font-size="10.00">ComponentDrawer &gt;</text>
</g>
<!-- Node11&#45;&gt;Node3 -->
<g id="edge10" class="edge"><title>Node11&#45;&gt;Node3</title>
<path fill="none" stroke="#9a32cd" stroke-dasharray="5,2" d="M707.761,-149.883C756.619,-146.625 813.292,-142.847 857.311,-139.913"/>
<polygon fill="#9a32cd" stroke="#9a32cd" points="707.526,-146.39 697.781,-150.548 707.992,-153.375 707.526,-146.39"/>
<text text-anchor="middle" x="773" y="-153" font-family="Helvetica,sans-Serif" font-size="10.00"> myComponentDrawers</text>
</g>
<!-- Node12 -->
<g id="node12" class="node"><title>Node12</title>
<g id="a_node12"><a xlink:href="../../dd/d4c/classgui_1_1componentdrawers_1_1_turtle_screen_drawer.html" target="_top" xlink:title="gui.componentdrawers.Turtle\lScreenDrawer">
<polygon fill="white" stroke="black" points="1466.5,-208 1466.5,-238 1621.5,-238 1621.5,-208 1466.5,-208"/>
<text text-anchor="start" x="1474.5" y="-226" font-family="Helvetica,sans-Serif" font-size="10.00">gui.componentdrawers.Turtle</text>
<text text-anchor="middle" x="1544" y="-215" font-family="Helvetica,sans-Serif" font-size="10.00">ScreenDrawer</text>
</a>
</g>
</g>
<!-- Node12&#45;&gt;Node3 -->
<g id="edge11" class="edge"><title>Node12&#45;&gt;Node3</title>
<path fill="none" stroke="#9a32cd" stroke-dasharray="5,2" d="M1512.77,-202.142C1476.51,-178.501 1412.94,-141.385 1352,-127 1233.75,-99.0843 1091.47,-110.994 1006.84,-122.649"/>
<polygon fill="#9a32cd" stroke="#9a32cd" points="1511.12,-205.242 1521.39,-207.84 1514.98,-199.404 1511.12,-205.242"/>
<text text-anchor="middle" x="1240" y="-130" font-family="Helvetica,sans-Serif" font-size="10.00"> myTurtleScreenDrawer</text>
</g>
<!-- Node13 -->
<g id="node13" class="node"><title>Node13</title>
<g id="a_node13"><a xlink:href="../../d0/dda/classgui_1_1componentdrawers_1_1_component_drawer.html" target="_top" xlink:title="gui.componentdrawers.Component\lDrawer">
<polygon fill="white" stroke="black" points="1147.5,-235 1147.5,-265 1332.5,-265 1332.5,-235 1147.5,-235"/>
<text text-anchor="start" x="1155.5" y="-253" font-family="Helvetica,sans-Serif" font-size="10.00">gui.componentdrawers.Component</text>
<text text-anchor="middle" x="1240" y="-242" font-family="Helvetica,sans-Serif" font-size="10.00">Drawer</text>
</a>
</g>
</g>
<!-- Node13&#45;&gt;Node12 -->
<g id="edge12" class="edge"><title>Node13&#45;&gt;Node12</title>
<path fill="none" stroke="midnightblue" d="M1342.97,-240.883C1383.31,-237.277 1428.89,-233.202 1466.33,-229.854"/>
<polygon fill="midnightblue" stroke="midnightblue" points="1342.49,-237.412 1332.84,-241.789 1343.11,-244.385 1342.49,-237.412"/>
</g>
<!-- Node14 -->
<g id="node14" class="node"><title>Node14</title>
<polygon fill="white" stroke="#bfbfbf" points="912,-292.5 912,-311.5 952,-311.5 952,-292.5 912,-292.5"/>
<text text-anchor="middle" x="932" y="-299.5" font-family="Helvetica,sans-Serif" font-size="10.00">Pane</text>
</g>
<!-- Node14&#45;&gt;Node12 -->
<g id="edge16" class="edge"><title>Node14&#45;&gt;Node12</title>
<path fill="none" stroke="#9a32cd" stroke-dasharray="5,2" d="M962.439,-301.928C1031.13,-301.348 1207.18,-297.481 1352,-274 1395.52,-266.943 1405.4,-260.375 1448,-249 1461.13,-245.493 1475.27,-241.656 1488.52,-238.034"/>
<polygon fill="#9a32cd" stroke="#9a32cd" points="962.334,-298.428 952.357,-301.995 962.38,-305.428 962.334,-298.428"/>
<text text-anchor="middle" x="1240" y="-300" font-family="Helvetica,sans-Serif" font-size="10.00"> myGrid</text>
</g>
<!-- Node14&#45;&gt;Node13 -->
<g id="edge13" class="edge"><title>Node14&#45;&gt;Node13</title>
<path fill="none" stroke="midnightblue" d="M962.175,-297.042C1005.08,-289.751 1087,-275.83 1150.64,-265.016"/>
<polygon fill="midnightblue" stroke="midnightblue" points="961.414,-293.621 952.142,-298.747 962.587,-300.522 961.414,-293.621"/>
</g>
<!-- Node15 -->
<g id="node15" class="node"><title>Node15</title>
<g id="a_node15"><a xlink:href="../../dd/d6a/classgui_1_1nonbuttonfeatures_1_1_turtle_screen_feature.html" target="_top" xlink:title="gui.nonbuttonfeatures.Turtle\lScreenFeature">
<polygon fill="white" stroke="black" points="1164,-332 1164,-362 1316,-362 1316,-332 1164,-332"/>
<text text-anchor="start" x="1172" y="-350" font-family="Helvetica,sans-Serif" font-size="10.00">gui.nonbuttonfeatures.Turtle</text>
<text text-anchor="middle" x="1240" y="-339" font-family="Helvetica,sans-Serif" font-size="10.00">ScreenFeature</text>
</a>
</g>
</g>
<!-- Node14&#45;&gt;Node15 -->
<g id="edge15" class="edge"><title>Node14&#45;&gt;Node15</title>
<path fill="none" stroke="midnightblue" d="M962.309,-306.31C1008.31,-313.075 1098.91,-326.398 1163.91,-335.958"/>
<polygon fill="midnightblue" stroke="midnightblue" points="962.545,-302.807 952.142,-304.815 961.526,-309.733 962.545,-302.807"/>
</g>
<!-- Node15&#45;&gt;Node12 -->
<g id="edge14" class="edge"><title>Node15&#45;&gt;Node12</title>
<path fill="none" stroke="#9a32cd" stroke-dasharray="5,2" d="M1326.42,-346.067C1365.22,-342.726 1410.67,-334.575 1448,-316 1484.99,-297.596 1516.7,-259.46 1532.43,-238.184"/>
<polygon fill="#9a32cd" stroke="#9a32cd" points="1325.89,-342.597 1316.19,-346.851 1326.43,-349.576 1325.89,-342.597"/>
<text text-anchor="middle" x="1409" y="-343" font-family="Helvetica,sans-Serif" font-size="10.00"> myTurtleScreen</text>
</g>
<!-- Node16&#45;&gt;Node3 -->
<g id="edge22" class="edge"><title>Node16&#45;&gt;Node3</title>
<path fill="none" stroke="#9a32cd" stroke-dasharray="5,2" d="M1161.03,-191.229C1149.35,-187.611 1137.92,-182.688 1128,-176 1116.35,-168.141 1122.16,-157.043 1110,-150 1092.65,-139.955 1047.28,-136.244 1006.82,-135.024"/>
<polygon fill="#9a32cd" stroke="#9a32cd" points="1160.3,-194.659 1170.87,-193.972 1162.18,-187.916 1160.3,-194.659"/>
<text text-anchor="middle" x="1072" y="-153" font-family="Helvetica,sans-Serif" font-size="10.00"> myTurtleNodes</text>
</g>
<!-- Node16&#45;&gt;Node12 -->
<g id="edge17" class="edge"><title>Node16&#45;&gt;Node12</title>
<path fill="none" stroke="#9a32cd" stroke-dasharray="5,2" d="M1319.27,-205.328C1358.02,-207.62 1405.49,-210.652 1448,-214 1453.95,-214.468 1460.1,-214.983 1466.28,-215.521"/>
<polygon fill="#9a32cd" stroke="#9a32cd" points="1319.28,-201.823 1309.1,-204.731 1318.88,-208.811 1319.28,-201.823"/>
<text text-anchor="middle" x="1409" y="-217" font-family="Helvetica,sans-Serif" font-size="10.00"> myTurtleNodes</text>
</g>
<!-- Node17 -->
<g id="node17" class="node"><title>Node17</title>
<polygon fill="white" stroke="#bfbfbf" points="849,-204 849,-234 1015,-234 1015,-204 849,-204"/>
<text text-anchor="start" x="857" y="-222" font-family="Helvetica,sans-Serif" font-size="10.00">List&lt; gui.factories.turtlefactory.</text>
<text text-anchor="middle" x="932" y="-211" font-family="Helvetica,sans-Serif" font-size="10.00">TurtleNode &gt;</text>
</g>
<!-- Node17&#45;&gt;Node16 -->
<g id="edge19" class="edge"><title>Node17&#45;&gt;Node16</title>
<path fill="none" stroke="#9a32cd" stroke-dasharray="5,2" d="M1025.17,-213.578C1072.06,-210.82 1128.07,-207.526 1170.99,-205"/>
<polygon fill="#9a32cd" stroke="#9a32cd" points="1024.78,-210.095 1015,-214.176 1025.19,-217.083 1024.78,-210.095"/>
<text text-anchor="middle" x="1072" y="-216" font-family="Helvetica,sans-Serif" font-size="10.00"> myTurtleNodes</text>
</g>
<!-- Node18 -->
<g id="node18" class="node"><title>Node18</title>
<polygon fill="white" stroke="#bfbfbf" points="1219.5,-147.5 1219.5,-166.5 1260.5,-166.5 1260.5,-147.5 1219.5,-147.5"/>
<text text-anchor="middle" x="1240" y="-154.5" font-family="Helvetica,sans-Serif" font-size="10.00">Color</text>
</g>
<!-- Node18&#45;&gt;Node12 -->
<g id="edge20" class="edge"><title>Node18&#45;&gt;Node12</title>
<path fill="none" stroke="#9a32cd" stroke-dasharray="5,2" d="M1270.56,-161.067C1310.95,-166.901 1385.51,-178.655 1448,-194 1464.24,-197.989 1481.82,-203.119 1497.38,-207.952"/>
<polygon fill="#9a32cd" stroke="#9a32cd" points="1270.97,-157.591 1260.58,-159.647 1269.99,-164.522 1270.97,-157.591"/>
<text text-anchor="middle" x="1409" y="-197" font-family="Helvetica,sans-Serif" font-size="10.00"> myScreenColor</text>
</g>
<!-- Node19 -->
<g id="node19" class="node"><title>Node19</title>
<g id="a_node19"><a xlink:href="../../d1/d60/classgui_1_1factories_1_1_object_factory.html" target="_top" xlink:title="gui.factories.ObjectFactory">
<polygon fill="white" stroke="black" points="528.5,-103.5 528.5,-122.5 671.5,-122.5 671.5,-103.5 528.5,-103.5"/>
<text text-anchor="middle" x="600" y="-110.5" font-family="Helvetica,sans-Serif" font-size="10.00">gui.factories.ObjectFactory</text>
</a>
</g>
</g>
<!-- Node19&#45;&gt;Node3 -->
<g id="edge21" class="edge"><title>Node19&#45;&gt;Node3</title>
<path fill="none" stroke="#9a32cd" stroke-dasharray="5,2" d="M681.706,-118.212C725.571,-121.063 780.766,-124.681 830,-128 838.856,-128.597 848.149,-129.231 857.361,-129.864"/>
<polygon fill="#9a32cd" stroke="#9a32cd" points="681.876,-114.715 671.67,-117.56 681.422,-121.701 681.876,-114.715"/>
<text text-anchor="middle" x="773" y="-131" font-family="Helvetica,sans-Serif" font-size="10.00"> myObjectFactories</text>
</g>
<!-- Node20 -->
<g id="node20" class="node"><title>Node20</title>
<g id="a_node20"><a xlink:href="../../da/d55/interface_control_1_1_slogo_graphics.html" target="_top" xlink:title="Control.SlogoGraphics">
<polygon fill="white" stroke="black" points="538.5,-65.5 538.5,-84.5 661.5,-84.5 661.5,-65.5 538.5,-65.5"/>
<text text-anchor="middle" x="600" y="-72.5" font-family="Helvetica,sans-Serif" font-size="10.00">Control.SlogoGraphics</text>
</a>
</g>
</g>
<!-- Node20&#45;&gt;Node3 -->
<g id="edge23" class="edge"><title>Node20&#45;&gt;Node3</title>
<path fill="none" stroke="#9a32cd" stroke-dasharray="5,2" d="M671.736,-81.8942C717.224,-86.9861 777.437,-94.957 830,-106 847.853,-109.751 867.17,-114.996 884.083,-119.997"/>
<polygon fill="#9a32cd" stroke="#9a32cd" points="672.001,-78.4023 661.678,-80.7882 671.235,-85.3603 672.001,-78.4023"/>
<text text-anchor="middle" x="773" y="-109" font-family="Helvetica,sans-Serif" font-size="10.00"> myControl</text>
</g>
<!-- Node21 -->
<g id="node21" class="node"><title>Node21</title>
<polygon fill="white" stroke="#bfbfbf" points="564,-27.5 564,-46.5 636,-46.5 636,-27.5 564,-27.5"/>
<text text-anchor="middle" x="600" y="-34.5" font-family="Helvetica,sans-Serif" font-size="10.00">BorderPane</text>
</g>
<!-- Node21&#45;&gt;Node3 -->
<g id="edge24" class="edge"><title>Node21&#45;&gt;Node3</title>
<path fill="none" stroke="#9a32cd" stroke-dasharray="5,2" d="M646.017,-37.0833C693.71,-38.7353 770.232,-45.9258 830,-73 839.486,-77.2969 839.435,-82.0772 848,-88 865.026,-99.773 885.213,-111.255 901.416,-119.922"/>
<polygon fill="#9a32cd" stroke="#9a32cd" points="646.096,-33.5842 636.002,-36.8034 645.9,-40.5815 646.096,-33.5842"/>
<text text-anchor="middle" x="773" y="-76" font-family="Helvetica,sans-Serif" font-size="10.00"> myPane</text>
</g>
<!-- Node22 -->
<g id="node22" class="node"><title>Node22</title>
<polygon fill="white" stroke="#bfbfbf" points="904,-0.5 904,-19.5 960,-19.5 960,-0.5 904,-0.5"/>
<text text-anchor="middle" x="932" y="-7.5" font-family="Helvetica,sans-Serif" font-size="10.00">TextField</text>
</g>
<!-- Node22&#45;&gt;Node1 -->
<g id="edge25" class="edge"><title>Node22&#45;&gt;Node1</title>
<path fill="none" stroke="#9a32cd" stroke-dasharray="5,2" d="M970.2,-15.9569C1013.35,-22.8661 1086.09,-34.5151 1145.04,-43.9534"/>
<polygon fill="#9a32cd" stroke="#9a32cd" points="970.583,-12.4737 960.155,-14.3484 969.476,-19.3856 970.583,-12.4737"/>
<text text-anchor="middle" x="1072" y="-41" font-family="Helvetica,sans-Serif" font-size="10.00"> textField</text>
</g>
</g>
</svg>
