<?xml version="1.0" encoding="UTF-8" standalone="no"?>
<!DOCTYPE svg PUBLIC "-//W3C//DTD SVG 1.1//EN"
 "http://www.w3.org/Graphics/SVG/1.1/DTD/svg11.dtd">
<!-- Generated by graphviz version 2.36.0 (20140111.2315)
 -->
<!-- Title: commandParsing.colorCommandparsing.SetPalette.operateOnComponents Pages: 1 -->
<svg width="482pt" height="109pt"
 viewBox="0.00 0.00 482.00 109.00" xmlns="http://www.w3.org/2000/svg" xmlns:xlink="http://www.w3.org/1999/xlink">
<g id="graph0" class="graph" transform="scale(1 1) rotate(0) translate(4 105)">
<title>commandParsing.colorCommandparsing.SetPalette.operateOnComponents</title>
<polygon fill="white" stroke="none" points="-4,4 -4,-105 478,-105 478,4 -4,4"/>
<!-- Node1 -->
<g id="node1" class="node"><title>Node1</title>
<polygon fill="#bfbfbf" stroke="black" points="0.5,-41 0.5,-71 215.5,-71 215.5,-41 0.5,-41"/>
<text text-anchor="start" x="8.5" y="-59" font-family="Helvetica,sans-Serif" font-size="10.00">commandParsing.colorCommandparsing.</text>
<text text-anchor="middle" x="108" y="-48" font-family="Helvetica,sans-Serif" font-size="10.00">SetPalette.operateOnComponents</text>
</g>
<!-- Node2 -->
<g id="node2" class="node"><title>Node2</title>
<g id="a_node2"><a xlink:href="../../d2/df5/classworkspace_state_1_1_palette.html#a25ed91713e1e00f327a6d0723b4a1d62" target="_top" xlink:title="workspaceState.Palette.add\lToPalette">
<polygon fill="white" stroke="black" points="288,-71 288,-101 438,-101 438,-71 288,-71"/>
<text text-anchor="start" x="296" y="-89" font-family="Helvetica,sans-Serif" font-size="10.00">workspaceState.Palette.add</text>
<text text-anchor="middle" x="363" y="-78" font-family="Helvetica,sans-Serif" font-size="10.00">ToPalette</text>
</a>
</g>
</g>
<!-- Node1&#45;&gt;Node2 -->
<g id="edge1" class="edge"><title>Node1&#45;&gt;Node2</title>
<path fill="none" stroke="midnightblue" d="M215.562,-68.6358C236.356,-71.1015 257.889,-73.6548 277.834,-76.0198"/>
<polygon fill="midnightblue" stroke="midnightblue" points="277.453,-79.4991 287.796,-77.2011 278.278,-72.5478 277.453,-79.4991"/>
</g>
<!-- Node3 -->
<g id="node3" class="node"><title>Node3</title>
<g id="a_node3"><a xlink:href="../../dd/d4b/interfacecommand_parsing_1_1drawable_obect_generation_interfaces_1_1_color_palette_update_generator.html#a4318e2f2bd75125b5d99e77991b4d646" target="_top" xlink:title="commandParsing.drawableObect\lGenerationInterfaces.ColorPalette\lUpdateGenerator.generateDrawableObject\lRepresentingColorPaletteUpdate">
<polygon fill="white" stroke="black" points="252.5,-0 252.5,-52 473.5,-52 473.5,-0 252.5,-0"/>
<text text-anchor="start" x="260.5" y="-40" font-family="Helvetica,sans-Serif" font-size="10.00">commandParsing.drawableObect</text>
<text text-anchor="start" x="260.5" y="-29" font-family="Helvetica,sans-Serif" font-size="10.00">GenerationInterfaces.ColorPalette</text>
<text text-anchor="start" x="260.5" y="-18" font-family="Helvetica,sans-Serif" font-size="10.00">UpdateGenerator.generateDrawableObject</text>
<text text-anchor="middle" x="363" y="-7" font-family="Helvetica,sans-Serif" font-size="10.00">RepresentingColorPaletteUpdate</text>
</a>
</g>
</g>
<!-- Node1&#45;&gt;Node3 -->
<g id="edge2" class="edge"><title>Node1&#45;&gt;Node3</title>
<path fill="none" stroke="midnightblue" d="M215.562,-43.3642C224.392,-42.3171 233.356,-41.2542 242.274,-40.1967"/>
<polygon fill="midnightblue" stroke="midnightblue" points="242.797,-43.6594 252.315,-39.0061 241.973,-36.7081 242.797,-43.6594"/>
</g>
</g>
</svg>
