<?xml version="1.0" encoding="UTF-8" standalone="no"?>
<!DOCTYPE svg PUBLIC "-//W3C//DTD SVG 1.1//EN"
 "http://www.w3.org/Graphics/SVG/1.1/DTD/svg11.dtd">
<!-- Generated by graphviz version 2.36.0 (20140111.2315)
 -->
<!-- Title: commandParsing.exceptions.SLOGOException Pages: 1 -->
<svg width="474pt" height="234pt"
 viewBox="0.00 0.00 474.00 234.00" xmlns="http://www.w3.org/2000/svg" xmlns:xlink="http://www.w3.org/1999/xlink">
<g id="graph0" class="graph" transform="scale(1 1) rotate(0) translate(4 230)">
<title>commandParsing.exceptions.SLOGOException</title>
<polygon fill="white" stroke="none" points="-4,4 -4,-230 470,-230 470,4 -4,4"/>
<!-- Node1 -->
<g id="node1" class="node"><title>Node1</title>
<polygon fill="#bfbfbf" stroke="black" points="100,-98 100,-128 258,-128 258,-98 100,-98"/>
<text text-anchor="start" x="108" y="-116" font-family="Helvetica,sans-Serif" font-size="10.00">commandParsing.exceptions.</text>
<text text-anchor="middle" x="179" y="-105" font-family="Helvetica,sans-Serif" font-size="10.00">SLOGOException</text>
</g>
<!-- Node3 -->
<g id="node3" class="node"><title>Node3</title>
<g id="a_node3"><a xlink:href="../../d1/d63/classcommand_parsing_1_1exceptions_1_1_compile_time_parsing_exception.html" target="_top" xlink:title="commandParsing.exceptions.\lCompileTimeParsingException">
<polygon fill="white" stroke="black" points="300,-196 300,-226 460,-226 460,-196 300,-196"/>
<text text-anchor="start" x="308" y="-214" font-family="Helvetica,sans-Serif" font-size="10.00">commandParsing.exceptions.</text>
<text text-anchor="middle" x="380" y="-203" font-family="Helvetica,sans-Serif" font-size="10.00">CompileTimeParsingException</text>
</a>
</g>
</g>
<!-- Node1&#45;&gt;Node3 -->
<g id="edge2" class="edge"><title>Node1&#45;&gt;Node3</title>
<path fill="none" stroke="midnightblue" d="M207.917,-134.078C230.241,-150.123 262.852,-171.797 294,-186 302.118,-189.701 310.92,-193.009 319.68,-195.911"/>
<polygon fill="midnightblue" stroke="midnightblue" points="209.742,-131.076 199.599,-128.016 205.62,-136.734 209.742,-131.076"/>
</g>
<!-- Node4 -->
<g id="node4" class="node"><title>Node4</title>
<g id="a_node4"><a xlink:href="../../d7/dc7/classcommand_parsing_1_1exceptions_1_1_language_file_not_found_exception.html" target="_top" xlink:title="commandParsing.exceptions.\lLanguageFileNotFoundException">
<polygon fill="white" stroke="black" points="294,-147 294,-177 466,-177 466,-147 294,-147"/>
<text text-anchor="start" x="302" y="-165" font-family="Helvetica,sans-Serif" font-size="10.00">commandParsing.exceptions.</text>
<text text-anchor="middle" x="380" y="-154" font-family="Helvetica,sans-Serif" font-size="10.00">LanguageFileNotFoundException</text>
</a>
</g>
</g>
<!-- Node1&#45;&gt;Node4 -->
<g id="edge3" class="edge"><title>Node1&#45;&gt;Node4</title>
<path fill="none" stroke="midnightblue" d="M250.977,-130.477C272.911,-135.877 296.864,-141.776 318.057,-146.994"/>
<polygon fill="midnightblue" stroke="midnightblue" points="251.606,-127.027 241.059,-128.035 249.932,-133.824 251.606,-127.027"/>
</g>
<!-- Node5 -->
<g id="node5" class="node"><title>Node5</title>
<g id="a_node5"><a xlink:href="../../de/d2d/classcommand_parsing_1_1exceptions_1_1_property_file_access_exception.html" target="_top" xlink:title="commandParsing.exceptions.\lPropertyFileAccessException">
<polygon fill="white" stroke="black" points="301,-98 301,-128 459,-128 459,-98 301,-98"/>
<text text-anchor="start" x="309" y="-116" font-family="Helvetica,sans-Serif" font-size="10.00">commandParsing.exceptions.</text>
<text text-anchor="middle" x="380" y="-105" font-family="Helvetica,sans-Serif" font-size="10.00">PropertyFileAccessException</text>
</a>
</g>
</g>
<!-- Node1&#45;&gt;Node5 -->
<g id="edge4" class="edge"><title>Node1&#45;&gt;Node5</title>
<path fill="none" stroke="midnightblue" d="M268.373,-113C279.184,-113 290.173,-113 300.82,-113"/>
<polygon fill="midnightblue" stroke="midnightblue" points="268.079,-109.5 258.079,-113 268.079,-116.5 268.079,-109.5"/>
</g>
<!-- Node6 -->
<g id="node6" class="node"><title>Node6</title>
<g id="a_node6"><a xlink:href="../../d4/dd0/classcommand_parsing_1_1exceptions_1_1_run_time_divide_by_zero_exception.html" target="_top" xlink:title="commandParsing.exceptions.\lRunTimeDivideByZeroException">
<polygon fill="white" stroke="black" points="296,-49 296,-79 464,-79 464,-49 296,-49"/>
<text text-anchor="start" x="304" y="-67" font-family="Helvetica,sans-Serif" font-size="10.00">commandParsing.exceptions.</text>
<text text-anchor="middle" x="380" y="-56" font-family="Helvetica,sans-Serif" font-size="10.00">RunTimeDivideByZeroException</text>
</a>
</g>
</g>
<!-- Node1&#45;&gt;Node6 -->
<g id="edge5" class="edge"><title>Node1&#45;&gt;Node6</title>
<path fill="none" stroke="midnightblue" d="M250.977,-95.5232C272.911,-90.1225 296.864,-84.2245 318.057,-79.0062"/>
<polygon fill="midnightblue" stroke="midnightblue" points="249.932,-92.1759 241.059,-97.9654 251.606,-98.9729 249.932,-92.1759"/>
</g>
<!-- Node7 -->
<g id="node7" class="node"><title>Node7</title>
<g id="a_node7"><a xlink:href="../../d8/db6/classcommand_parsing_1_1exceptions_1_1_run_time_null_pointer_exception.html" target="_top" xlink:title="commandParsing.exceptions.\lRunTimeNullPointerException">
<polygon fill="white" stroke="black" points="301,-0 301,-30 459,-30 459,-0 301,-0"/>
<text text-anchor="start" x="309" y="-18" font-family="Helvetica,sans-Serif" font-size="10.00">commandParsing.exceptions.</text>
<text text-anchor="middle" x="380" y="-7" font-family="Helvetica,sans-Serif" font-size="10.00">RunTimeNullPointerException</text>
</a>
</g>
</g>
<!-- Node1&#45;&gt;Node7 -->
<g id="edge6" class="edge"><title>Node1&#45;&gt;Node7</title>
<path fill="none" stroke="midnightblue" d="M207.426,-91.8126C229.71,-75.4541 262.504,-53.2725 294,-39 301.402,-35.6456 309.383,-32.6514 317.385,-30.0121"/>
<polygon fill="midnightblue" stroke="midnightblue" points="205.064,-89.2072 199.134,-97.9871 209.245,-94.8214 205.064,-89.2072"/>
</g>
<!-- Node2 -->
<g id="node2" class="node"><title>Node2</title>
<polygon fill="white" stroke="#bfbfbf" points="0.5,-103.5 0.5,-122.5 63.5,-122.5 63.5,-103.5 0.5,-103.5"/>
<text text-anchor="middle" x="32" y="-110.5" font-family="Helvetica,sans-Serif" font-size="10.00">Exception</text>
</g>
<!-- Node2&#45;&gt;Node1 -->
<g id="edge1" class="edge"><title>Node2&#45;&gt;Node1</title>
<path fill="none" stroke="midnightblue" d="M74.0224,-113C82.1582,-113 90.9502,-113 99.8565,-113"/>
<polygon fill="midnightblue" stroke="midnightblue" points="73.7508,-109.5 63.7508,-113 73.7507,-116.5 73.7508,-109.5"/>
</g>
</g>
</svg>
