<?xml version="1.0" encoding="UTF-8" standalone="no"?>
<!DOCTYPE svg PUBLIC "-//W3C//DTD SVG 1.1//EN"
 "http://www.w3.org/Graphics/SVG/1.1/DTD/svg11.dtd">
<!-- Generated by graphviz version 2.36.0 (20140111.2315)
 -->
<!-- Title: workspaceState.UserDefinedCommandCollection.fetchUserDefinedCommand Pages: 1 -->
<!--zoomable 207 -->
<svg id="main" version="1.1" xmlns="http://www.w3.org/2000/svg" xmlns:xlink="http://www.w3.org/1999/xlink" xml:space="preserve" onload="init(evt)">
<style type="text/css"><![CDATA[
.edge:hover path { stroke: red; }
.edge:hover polygon { stroke: red; fill: red; }
]]></style>
<script type="text/javascript"><![CDATA[
var edges = document.getElementsByTagName('g');
if (edges && edges.length) {
  for (var i=0;i<edges.length;i++) {
    if (edges[i].id.substr(0,4)=='edge') {
      edges[i].setAttribute('class','edge');
    }
  }
}
]]></script>
        <defs>
                <circle id="rim" cx="0" cy="0" r="7"/>
                <circle id="rim2" cx="0" cy="0" r="3.5"/>
                <g id="zoomPlus">
                        <use xlink:href="#rim" fill="#404040">
                                <set attributeName="fill" to="#808080" begin="zoomplus.mouseover" end="zoomplus.mouseout"/>
                        </use>
                        <path d="M-4,0h8M0,-4v8" fill="none" stroke="white" stroke-width="1.5" pointer-events="none"/>
                </g>
                <g id="zoomMin">
                        <use xlink:href="#rim" fill="#404040">
                                <set attributeName="fill" to="#808080" begin="zoomminus.mouseover" end="zoomminus.mouseout"/>
                        </use>
                        <path d="M-4,0h8" fill="none" stroke="white" stroke-width="1.5" pointer-events="none"/>
                </g>
                <g id="dirArrow">
                        <path fill="none" stroke="white" stroke-width="1.5" d="M0,-3.0v7 M-2.5,-0.5L0,-3.0L2.5,-0.5"/>
                </g>
               <g id="resetDef">
                       <use xlink:href="#rim2" fill="#404040">
                               <set attributeName="fill" to="#808080" begin="reset.mouseover" end="reset.mouseout"/>
                       </use>
               </g>
        </defs>

<script type="text/javascript">
var viewWidth = 708;
var viewHeight = 207;
var sectionId = 'dynsection-1';
</script>
<script xlink:href="../../svgpan.js"/>
<svg id="graph" class="graph">
<g id="viewport">
<title>workspaceState.UserDefinedCommandCollection.fetchUserDefinedCommand</title>
<polygon fill="white" stroke="none" points="-4,4 -4,-203 704,-203 704,4 -4,4"/>
<!-- Node1 -->
<g id="node1" class="node"><title>Node1</title>
<polygon fill="#bfbfbf" stroke="black" points="0,-70.5 0,-111.5 200,-111.5 200,-70.5 0,-70.5"/>
<text text-anchor="start" x="8" y="-99.5" font-family="Helvetica,sans-Serif" font-size="10.00">workspaceState.UserDefined</text>
<text text-anchor="start" x="8" y="-88.5" font-family="Helvetica,sans-Serif" font-size="10.00">CommandCollection.fetchUserDefined</text>
<text text-anchor="middle" x="100" y="-77.5" font-family="Helvetica,sans-Serif" font-size="10.00">Command</text>
</g>
<!-- Node2 -->
<g id="node2" class="node"><title>Node2</title>
<g id="a_node2"><a xlink:href="../../df/dde/classtests_1_1command_tests_1_1user_defined_command_tests_1_1_make_user_instruction_tests.html#aeff560cfcbaecd0222009883a57dead3" target="_top" xlink:title="tests.commandTests.userDefined\lCommandTests.MakeUserInstruction\lTests.MakeCommandTest">
<polygon fill="white" stroke="black" points="261,-157.5 261,-198.5 453,-198.5 453,-157.5 261,-157.5"/>
<text text-anchor="start" x="269" y="-186.5" font-family="Helvetica,sans-Serif" font-size="10.00">tests.commandTests.userDefined</text>
<text text-anchor="start" x="269" y="-175.5" font-family="Helvetica,sans-Serif" font-size="10.00">CommandTests.MakeUserInstruction</text>
<text text-anchor="middle" x="357" y="-164.5" font-family="Helvetica,sans-Serif" font-size="10.00">Tests.MakeCommandTest</text>
</a>
</g>
</g>
<!-- Node1&#45;&gt;Node2 -->
<g id="edge1" class="edge"><title>Node1&#45;&gt;Node2</title>
<path fill="none" stroke="midnightblue" d="M155.433,-115.627C179.781,-126.108 209.023,-137.97 236,-147 247.018,-150.688 258.728,-154.2 270.346,-157.445"/>
<polygon fill="midnightblue" stroke="midnightblue" points="156.579,-112.309 146.013,-111.536 153.791,-118.73 156.579,-112.309"/>
</g>
<!-- Node3 -->
<g id="node3" class="node"><title>Node3</title>
<g id="a_node3"><a xlink:href="../../df/dde/classtests_1_1command_tests_1_1user_defined_command_tests_1_1_make_user_instruction_tests.html#a43b4b411c31260c575955a7939330f46" target="_top" xlink:title="tests.commandTests.userDefined\lCommandTests.MakeUserInstruction\lTests.MakeCommandTestWithPreviousVariables">
<polygon fill="white" stroke="black" points="236,-97.5 236,-138.5 478,-138.5 478,-97.5 236,-97.5"/>
<text text-anchor="start" x="244" y="-126.5" font-family="Helvetica,sans-Serif" font-size="10.00">tests.commandTests.userDefined</text>
<text text-anchor="start" x="244" y="-115.5" font-family="Helvetica,sans-Serif" font-size="10.00">CommandTests.MakeUserInstruction</text>
<text text-anchor="middle" x="357" y="-104.5" font-family="Helvetica,sans-Serif" font-size="10.00">Tests.MakeCommandTestWithPreviousVariables</text>
</a>
</g>
</g>
<!-- Node1&#45;&gt;Node3 -->
<g id="edge2" class="edge"><title>Node1&#45;&gt;Node3</title>
<path fill="none" stroke="midnightblue" d="M210.458,-102.59C218.82,-103.475 227.288,-104.372 235.713,-105.264"/>
<polygon fill="midnightblue" stroke="midnightblue" points="210.633,-99.0887 200.32,-101.516 209.896,-106.05 210.633,-99.0887"/>
</g>
<!-- Node4 -->
<g id="node4" class="node"><title>Node4</title>
<g id="a_node4"><a xlink:href="../../de/d9e/classcommand_parsing_1_1user_command_parsing_1_1_user_instruction.html#a6b14be9849056a39530c989dde2da904" target="_top" xlink:title="commandParsing.userCommand\lParsing.UserInstruction.parse">
<polygon fill="white" stroke="black" points="270,-49 270,-79 444,-79 444,-49 270,-49"/>
<text text-anchor="start" x="278" y="-67" font-family="Helvetica,sans-Serif" font-size="10.00">commandParsing.userCommand</text>
<text text-anchor="middle" x="357" y="-56" font-family="Helvetica,sans-Serif" font-size="10.00">Parsing.UserInstruction.parse</text>
</a>
</g>
</g>
<!-- Node1&#45;&gt;Node4 -->
<g id="edge3" class="edge"><title>Node1&#45;&gt;Node4</title>
<path fill="none" stroke="midnightblue" d="M210.335,-79.4234C230.214,-77.3185 250.695,-75.1499 269.791,-73.128"/>
<polygon fill="midnightblue" stroke="midnightblue" points="209.896,-75.9502 200.32,-80.4838 210.633,-82.9113 209.896,-75.9502"/>
</g>
<!-- Node6 -->
<g id="node6" class="node"><title>Node6</title>
<g id="a_node6"><a xlink:href="../../d3/d58/classcommand_parsing_1_1user_command_parsing_1_1_make_user_instruction.html#ae874a4712e6685abea7e05c70b4bb7b7" target="_top" xlink:title="commandParsing.userCommand\lParsing.MakeUserInstruction.parse">
<polygon fill="white" stroke="black" points="266,-0 266,-30 448,-30 448,-0 266,-0"/>
<text text-anchor="start" x="274" y="-18" font-family="Helvetica,sans-Serif" font-size="10.00">commandParsing.userCommand</text>
<text text-anchor="middle" x="357" y="-7" font-family="Helvetica,sans-Serif" font-size="10.00">Parsing.MakeUserInstruction.parse</text>
</a>
</g>
</g>
<!-- Node1&#45;&gt;Node6 -->
<g id="edge6" class="edge"><title>Node1&#45;&gt;Node6</title>
<path fill="none" stroke="midnightblue" d="M159.237,-66.7269C182.793,-57.509 210.418,-47.4478 236,-40 248.566,-36.3417 262.02,-32.9983 275.21,-30.0296"/>
<polygon fill="midnightblue" stroke="midnightblue" points="157.76,-63.5471 149.748,-70.4799 160.335,-70.0565 157.76,-63.5471"/>
</g>
<!-- Node5 -->
<g id="node5" class="node"><title>Node5</title>
<g id="a_node5"><a xlink:href="../../de/d9e/classcommand_parsing_1_1user_command_parsing_1_1_user_instruction.html#a0e5dae1883f162efa064de96a540ec47" target="_top" xlink:title="commandParsing.userCommand\lParsing.UserInstruction.accumulate\lComponents">
<polygon fill="white" stroke="black" points="514,-43.5 514,-84.5 700,-84.5 700,-43.5 514,-43.5"/>
<text text-anchor="start" x="522" y="-72.5" font-family="Helvetica,sans-Serif" font-size="10.00">commandParsing.userCommand</text>
<text text-anchor="start" x="522" y="-61.5" font-family="Helvetica,sans-Serif" font-size="10.00">Parsing.UserInstruction.accumulate</text>
<text text-anchor="middle" x="607" y="-50.5" font-family="Helvetica,sans-Serif" font-size="10.00">Components</text>
</a>
</g>
</g>
<!-- Node4&#45;&gt;Node5 -->
<g id="edge4" class="edge"><title>Node4&#45;&gt;Node5</title>
<path fill="none" stroke="midnightblue" d="M454.184,-57.4033C473.768,-57.1841 494.328,-57.2 513.771,-57.4509"/>
<polygon fill="midnightblue" stroke="midnightblue" points="453.994,-53.9054 444.042,-57.5393 454.088,-60.9048 453.994,-53.9054"/>
</g>
<!-- Node5&#45;&gt;Node4 -->
<g id="edge5" class="edge"><title>Node5&#45;&gt;Node4</title>
<path fill="none" stroke="midnightblue" d="M503.513,-70.6589C483.744,-70.8279 463.223,-70.7618 444.042,-70.4607"/>
<polygon fill="midnightblue" stroke="midnightblue" points="503.809,-74.156 513.771,-70.5491 503.734,-67.1564 503.809,-74.156"/>
</g>
</g>
</svg>
        <g id="navigator" transform="translate(0 0)" fill="#404254">
                <rect fill="#f2f5e9" fill-opacity="0.5" stroke="#606060" stroke-width=".5" x="0" y="0" width="60" height="60"/>
                <use id="zoomplus" xlink:href="#zoomPlus" x="17" y="9" onmousedown="handleZoom(evt,'in')"/>
                <use id="zoomminus" xlink:href="#zoomMin" x="42" y="9" onmousedown="handleZoom(evt,'out')"/>
                <use id="reset" xlink:href="#resetDef" x="30" y="36" onmousedown="handleReset()"/>
                <g id="arrowUp" xlink:href="#dirArrow" transform="translate(30 24)" onmousedown="handlePan(0,-1)">
                  <use xlink:href="#rim" fill="#404040">
                        <set attributeName="fill" to="#808080" begin="arrowUp.mouseover" end="arrowUp.mouseout"/>
                  </use>
                  <path fill="none" stroke="white" stroke-width="1.5" d="M0,-3.0v7 M-2.5,-0.5L0,-3.0L2.5,-0.5"/>
                </g>
                <g id="arrowRight" xlink:href="#dirArrow" transform="rotate(90) translate(36 -43)" onmousedown="handlePan(1,0)">
                  <use xlink:href="#rim" fill="#404040">
                        <set attributeName="fill" to="#808080" begin="arrowRight.mouseover" end="arrowRight.mouseout"/>
                  </use>
                  <path fill="none" stroke="white" stroke-width="1.5" d="M0,-3.0v7 M-2.5,-0.5L0,-3.0L2.5,-0.5"/>
                </g>
                <g id="arrowDown" xlink:href="#dirArrow" transform="rotate(180) translate(-30 -48)" onmousedown="handlePan(0,1)">
                  <use xlink:href="#rim" fill="#404040">
                        <set attributeName="fill" to="#808080" begin="arrowDown.mouseover" end="arrowDown.mouseout"/>
                  </use>
                  <path fill="none" stroke="white" stroke-width="1.5" d="M0,-3.0v7 M-2.5,-0.5L0,-3.0L2.5,-0.5"/>
                </g>
                <g id="arrowLeft" xlink:href="#dirArrow" transform="rotate(270) translate(-36 17)" onmousedown="handlePan(-1,0)">
                  <use xlink:href="#rim" fill="#404040">
                        <set attributeName="fill" to="#808080" begin="arrowLeft.mouseover" end="arrowLeft.mouseout"/>
                  </use>
                  <path fill="none" stroke="white" stroke-width="1.5" d="M0,-3.0v7 M-2.5,-0.5L0,-3.0L2.5,-0.5"/>
                </g>
        </g>
        <svg viewBox="0 0 15 15" width="100%" height="30px" preserveAspectRatio="xMaxYMin meet">
         <g id="arrow_out" transform="scale(0.3 0.3)">
          <a xlink:href="classworkspace_state_1_1_user_defined_command_collection_a1d4a2ef01acd52de48f327ecc6fc0664_icgraph_org.svg" target="_base">
           <rect id="button" ry="5" rx="5" y="6" x="6" height="38" width="38"
                fill="#f2f5e9" fill-opacity="0.5" stroke="#606060" stroke-width="1.0"/>
           <path id="arrow"
             d="M 11.500037,31.436501 C 11.940474,20.09759 22.043105,11.32322 32.158766,21.979434 L 37.068811,17.246167 C 37.068811,17.246167 37.088388,32 37.088388,32 L 22.160133,31.978069 C 22.160133,31.978069 26.997745,27.140456 26.997745,27.140456 C 18.528582,18.264221 13.291696,25.230495 11.500037,31.436501 z"
             style="fill:#404040;"/>
          </a>
         </g>
        </svg>
</svg>
