<?xml version="1.0" encoding="UTF-8" standalone="no"?>
<!DOCTYPE svg PUBLIC "-//W3C//DTD SVG 1.1//EN"
 "http://www.w3.org/Graphics/SVG/1.1/DTD/svg11.dtd">
<!-- Generated by graphviz version 2.36.0 (20140111.2315)
 -->
<!-- Title: gui.factories.turtlefactory.TurtleFactory Pages: 1 -->
<svg width="1590pt" height="354pt"
 viewBox="0.00 0.00 1590.00 354.00" xmlns="http://www.w3.org/2000/svg" xmlns:xlink="http://www.w3.org/1999/xlink">
<g id="graph0" class="graph" transform="scale(1 1) rotate(0) translate(4 350)">
<title>gui.factories.turtlefactory.TurtleFactory</title>
<polygon fill="white" stroke="none" points="-4,4 -4,-350 1586,-350 1586,4 -4,4"/>
<!-- Node1 -->
<g id="node1" class="node"><title>Node1</title>
<polygon fill="#bfbfbf" stroke="black" points="1435,-309 1435,-339 1573,-339 1573,-309 1435,-309"/>
<text text-anchor="start" x="1443" y="-327" font-family="Helvetica,sans-Serif" font-size="10.00">gui.factories.turtlefactory.</text>
<text text-anchor="middle" x="1504" y="-316" font-family="Helvetica,sans-Serif" font-size="10.00">TurtleFactory</text>
</g>
<!-- Node2 -->
<g id="node2" class="node"><title>Node2</title>
<g id="a_node2"><a xlink:href="../../d1/d60/classgui_1_1factories_1_1_object_factory.html" target="_top" xlink:title="gui.factories.ObjectFactory">
<polygon fill="white" stroke="black" points="528.5,-326.5 528.5,-345.5 671.5,-345.5 671.5,-326.5 528.5,-326.5"/>
<text text-anchor="middle" x="600" y="-333.5" font-family="Helvetica,sans-Serif" font-size="10.00">gui.factories.ObjectFactory</text>
</a>
</g>
</g>
<!-- Node2&#45;&gt;Node1 -->
<g id="edge1" class="edge"><title>Node2&#45;&gt;Node1</title>
<path fill="none" stroke="midnightblue" d="M681.992,-334.923C857.693,-332.585 1271.18,-327.084 1434.71,-324.908"/>
<polygon fill="midnightblue" stroke="midnightblue" points="681.731,-331.426 671.778,-335.058 681.824,-338.425 681.731,-331.426"/>
</g>
<!-- Node4 -->
<g id="node4" class="node"><title>Node4</title>
<g id="a_node4"><a xlink:href="../../d8/df2/classgui_1_1mainclasses_1_1workspace_1_1_workspace.html" target="_top" xlink:title="gui.mainclasses.workspace.\lWorkspace">
<polygon fill="white" stroke="black" points="856.5,-219 856.5,-249 1005.5,-249 1005.5,-219 856.5,-219"/>
<text text-anchor="start" x="864.5" y="-237" font-family="Helvetica,sans-Serif" font-size="10.00">gui.mainclasses.workspace.</text>
<text text-anchor="middle" x="931" y="-226" font-family="Helvetica,sans-Serif" font-size="10.00">Workspace</text>
</a>
</g>
</g>
<!-- Node2&#45;&gt;Node4 -->
<g id="edge20" class="edge"><title>Node2&#45;&gt;Node4</title>
<path fill="none" stroke="#9a32cd" stroke-dasharray="5,2" d="M670.24,-324.798C726.724,-315.107 801.643,-300.829 830,-289 838.874,-285.298 839.731,-281.906 848,-277 864.59,-267.157 883.644,-257.094 899.207,-249.179"/>
<polygon fill="#9a32cd" stroke="#9a32cd" points="669.551,-321.365 660.279,-326.493 670.725,-328.266 669.551,-321.365"/>
<text text-anchor="middle" x="773" y="-320" font-family="Helvetica,sans-Serif" font-size="10.00"> myObjectFactories</text>
</g>
<!-- Node3 -->
<g id="node3" class="node"><title>Node3</title>
<g id="a_node3"><a xlink:href="../../dd/d25/classgui_1_1factories_1_1turtlefactory_1_1_turtle_nodes.html" target="_top" xlink:title="gui.factories.turtlefactory.\lTurtleNodes">
<polygon fill="white" stroke="black" points="1150,-253 1150,-283 1288,-283 1288,-253 1150,-253"/>
<text text-anchor="start" x="1158" y="-271" font-family="Helvetica,sans-Serif" font-size="10.00">gui.factories.turtlefactory.</text>
<text text-anchor="middle" x="1219" y="-260" font-family="Helvetica,sans-Serif" font-size="10.00">TurtleNodes</text>
</a>
</g>
</g>
<!-- Node3&#45;&gt;Node1 -->
<g id="edge2" class="edge"><title>Node3&#45;&gt;Node1</title>
<path fill="none" stroke="#9a32cd" stroke-dasharray="5,2" d="M1297.99,-283.433C1340.92,-291.929 1393.7,-302.372 1434.96,-310.535"/>
<polygon fill="#9a32cd" stroke="#9a32cd" points="1298.63,-279.992 1288.15,-281.485 1297.28,-286.859 1298.63,-279.992"/>
<text text-anchor="middle" x="1369" y="-308" font-family="Helvetica,sans-Serif" font-size="10.00"> myTurtleNodes</text>
</g>
<!-- Node3&#45;&gt;Node4 -->
<g id="edge21" class="edge"><title>Node3&#45;&gt;Node4</title>
<path fill="none" stroke="#9a32cd" stroke-dasharray="5,2" d="M1139.86,-258.787C1106.61,-254.859 1067.41,-250.218 1032,-246 1023.49,-244.986 1014.58,-243.921 1005.72,-242.861"/>
<polygon fill="#9a32cd" stroke="#9a32cd" points="1139.63,-262.285 1149.97,-259.982 1140.45,-255.333 1139.63,-262.285"/>
<text text-anchor="middle" x="1070" y="-258" font-family="Helvetica,sans-Serif" font-size="10.00"> myTurtleNodes</text>
</g>
<!-- Node13 -->
<g id="node13" class="node"><title>Node13</title>
<g id="a_node13"><a xlink:href="../../dd/d4c/classgui_1_1componentdrawers_1_1_turtle_screen_drawer.html" target="_top" xlink:title="gui.componentdrawers.Turtle\lScreenDrawer">
<polygon fill="white" stroke="black" points="1426.5,-120 1426.5,-150 1581.5,-150 1581.5,-120 1426.5,-120"/>
<text text-anchor="start" x="1434.5" y="-138" font-family="Helvetica,sans-Serif" font-size="10.00">gui.componentdrawers.Turtle</text>
<text text-anchor="middle" x="1504" y="-127" font-family="Helvetica,sans-Serif" font-size="10.00">ScreenDrawer</text>
</a>
</g>
</g>
<!-- Node3&#45;&gt;Node13 -->
<g id="edge18" class="edge"><title>Node3&#45;&gt;Node13</title>
<path fill="none" stroke="#9a32cd" stroke-dasharray="5,2" d="M1298.46,-253.729C1333.32,-245.443 1374.05,-232.994 1408,-215 1440.39,-197.835 1471.65,-168.189 1489.01,-150.208"/>
<polygon fill="#9a32cd" stroke="#9a32cd" points="1297.29,-250.409 1288.33,-256.063 1298.86,-257.23 1297.29,-250.409"/>
<text text-anchor="middle" x="1369" y="-248" font-family="Helvetica,sans-Serif" font-size="10.00"> myTurtleNodes</text>
</g>
<!-- Node4&#45;&gt;Node3 -->
<g id="edge3" class="edge"><title>Node4&#45;&gt;Node3</title>
<path fill="none" stroke="#9a32cd" stroke-dasharray="5,2" d="M1015.77,-229.613C1045.09,-229.362 1078.13,-230.529 1108,-235 1131.66,-238.542 1157.31,-246.014 1177.88,-252.954"/>
<polygon fill="#9a32cd" stroke="#9a32cd" points="1015.52,-226.116 1005.57,-229.758 1015.62,-233.116 1015.52,-226.116"/>
<text text-anchor="middle" x="1070" y="-238" font-family="Helvetica,sans-Serif" font-size="10.00"> myWorkspace</text>
</g>
<!-- Node5 -->
<g id="node5" class="node"><title>Node5</title>
<polygon fill="white" stroke="#bfbfbf" points="584,-240.5 584,-259.5 616,-259.5 616,-240.5 584,-240.5"/>
<text text-anchor="middle" x="600" y="-247.5" font-family="Helvetica,sans-Serif" font-size="10.00">Tab</text>
</g>
<!-- Node5&#45;&gt;Node4 -->
<g id="edge4" class="edge"><title>Node5&#45;&gt;Node4</title>
<path fill="none" stroke="midnightblue" d="M626.718,-248.749C675.534,-246.375 783.259,-241.136 856.264,-237.586"/>
<polygon fill="midnightblue" stroke="midnightblue" points="626.245,-245.268 616.427,-249.25 626.585,-252.26 626.245,-245.268"/>
</g>
<!-- Node6 -->
<g id="node6" class="node"><title>Node6</title>
<g id="a_node6"><a xlink:href="../../d0/d23/classgui_1_1mainclasses_1_1workspace_1_1_workspace_data_holder.html" target="_top" xlink:title="gui.mainclasses.workspace.\lWorkspaceDataHolder">
<polygon fill="white" stroke="black" points="525.5,-191 525.5,-221 674.5,-221 674.5,-191 525.5,-191"/>
<text text-anchor="start" x="533.5" y="-209" font-family="Helvetica,sans-Serif" font-size="10.00">gui.mainclasses.workspace.</text>
<text text-anchor="middle" x="600" y="-198" font-family="Helvetica,sans-Serif" font-size="10.00">WorkspaceDataHolder</text>
</a>
</g>
</g>
<!-- Node6&#45;&gt;Node4 -->
<g id="edge5" class="edge"><title>Node6&#45;&gt;Node4</title>
<path fill="none" stroke="#9a32cd" stroke-dasharray="5,2" d="M684.961,-212.825C728.284,-216.382 781.982,-220.847 830,-225 838.51,-225.736 847.425,-226.52 856.28,-227.306"/>
<polygon fill="#9a32cd" stroke="#9a32cd" points="685.003,-209.317 674.75,-211.988 684.43,-216.293 685.003,-209.317"/>
<text text-anchor="middle" x="773" y="-228" font-family="Helvetica,sans-Serif" font-size="10.00"> myDataHolder</text>
</g>
<!-- Node7 -->
<g id="node7" class="node"><title>Node7</title>
<polygon fill="white" stroke="#bfbfbf" points="0.5,-288 0.5,-318 319.5,-318 319.5,-288 0.5,-288"/>
<text text-anchor="start" x="8.5" y="-306" font-family="Helvetica,sans-Serif" font-size="10.00">ObservableList&lt; gui.nonbuttonfeatures.tableviews.imageindex.</text>
<text text-anchor="middle" x="160" y="-295" font-family="Helvetica,sans-Serif" font-size="10.00">ImageIndex &gt;</text>
</g>
<!-- Node7&#45;&gt;Node6 -->
<g id="edge6" class="edge"><title>Node7&#45;&gt;Node6</title>
<path fill="none" stroke="#9a32cd" stroke-dasharray="5,2" d="M267.177,-286.325C284.82,-283.548 302.926,-280.696 320,-278 392.896,-266.491 419.581,-288.008 484,-252 494.73,-246.002 491.567,-237.501 502,-231 509.232,-226.494 517.25,-222.797 525.487,-219.764"/>
<polygon fill="#9a32cd" stroke="#9a32cd" points="266.188,-282.937 256.854,-287.949 267.276,-289.852 266.188,-282.937"/>
<text text-anchor="middle" x="411" y="-279" font-family="Helvetica,sans-Serif" font-size="10.00"> myImageIndexList</text>
</g>
<!-- Node8 -->
<g id="node8" class="node"><title>Node8</title>
<polygon fill="white" stroke="#bfbfbf" points="4,-239 4,-269 316,-269 316,-239 4,-239"/>
<text text-anchor="start" x="12" y="-257" font-family="Helvetica,sans-Serif" font-size="10.00">ObservableList&lt; gui.nonbuttonfeatures.tableviews.colorindex.</text>
<text text-anchor="middle" x="160" y="-246" font-family="Helvetica,sans-Serif" font-size="10.00">ColorIndex &gt;</text>
</g>
<!-- Node8&#45;&gt;Node6 -->
<g id="edge7" class="edge"><title>Node8&#45;&gt;Node6</title>
<path fill="none" stroke="#9a32cd" stroke-dasharray="5,2" d="M326.401,-237.997C377.01,-232.859 432.821,-226.951 484,-221 497.4,-219.442 511.663,-217.672 525.419,-215.908"/>
<polygon fill="#9a32cd" stroke="#9a32cd" points="325.948,-234.525 316.351,-239.014 326.653,-241.489 325.948,-234.525"/>
<text text-anchor="middle" x="411" y="-240" font-family="Helvetica,sans-Serif" font-size="10.00"> myColorIndexList</text>
</g>
<!-- Node9 -->
<g id="node9" class="node"><title>Node9</title>
<polygon fill="white" stroke="#bfbfbf" points="72.5,-190 72.5,-220 247.5,-220 247.5,-190 72.5,-190"/>
<text text-anchor="start" x="80.5" y="-208" font-family="Helvetica,sans-Serif" font-size="10.00">ObservableList&lt; gui.variableslist.</text>
<text text-anchor="middle" x="160" y="-197" font-family="Helvetica,sans-Serif" font-size="10.00">WorkspaceVariable &gt;</text>
</g>
<!-- Node9&#45;&gt;Node6 -->
<g id="edge8" class="edge"><title>Node9&#45;&gt;Node6</title>
<path fill="none" stroke="#9a32cd" stroke-dasharray="5,2" d="M257.71,-205.221C338.457,-205.405 451.85,-205.664 525.374,-205.832"/>
<polygon fill="#9a32cd" stroke="#9a32cd" points="257.543,-201.721 247.535,-205.198 257.527,-208.72 257.543,-201.721"/>
<text text-anchor="middle" x="411" y="-209" font-family="Helvetica,sans-Serif" font-size="10.00"> myVariablesList</text>
</g>
<!-- Node10 -->
<g id="node10" class="node"><title>Node10</title>
<polygon fill="white" stroke="#bfbfbf" points="91,-151.5 91,-170.5 229,-170.5 229,-151.5 91,-151.5"/>
<text text-anchor="middle" x="160" y="-158.5" font-family="Helvetica,sans-Serif" font-size="10.00">ObservableList&lt; String &gt;</text>
</g>
<!-- Node10&#45;&gt;Node6 -->
<g id="edge9" class="edge"><title>Node10&#45;&gt;Node6</title>
<path fill="none" stroke="#9a32cd" stroke-dasharray="5,2" d="M239.33,-162.029C304.963,-163.746 400.98,-168.254 484,-180 502.747,-182.652 522.961,-186.783 541.134,-190.976"/>
<polygon fill="#9a32cd" stroke="#9a32cd" points="239.147,-158.523 229.064,-161.776 238.975,-165.521 239.147,-158.523"/>
<text text-anchor="middle" x="411" y="-194" font-family="Helvetica,sans-Serif" font-size="10.00"> myPreviousCommandsList</text>
<text text-anchor="middle" x="411" y="-183" font-family="Helvetica,sans-Serif" font-size="10.00">mySavedCommandsList</text>
</g>
<!-- Node11 -->
<g id="node11" class="node"><title>Node11</title>
<polygon fill="white" stroke="#bfbfbf" points="23.5,-102 23.5,-132 296.5,-132 296.5,-102 23.5,-102"/>
<text text-anchor="start" x="31.5" y="-120" font-family="Helvetica,sans-Serif" font-size="10.00">ObservableList&lt; gui.factories.userdefinedcommands.</text>
<text text-anchor="middle" x="160" y="-109" font-family="Helvetica,sans-Serif" font-size="10.00">DisplayedUserCommand &gt;</text>
</g>
<!-- Node11&#45;&gt;Node6 -->
<g id="edge10" class="edge"><title>Node11&#45;&gt;Node6</title>
<path fill="none" stroke="#9a32cd" stroke-dasharray="5,2" d="M306.806,-105.983C365.746,-108.063 431.988,-119.274 484,-152 496.84,-160.079 489.776,-172.017 502,-181 509.007,-186.149 516.977,-190.241 525.266,-193.491"/>
<polygon fill="#9a32cd" stroke="#9a32cd" points="306.745,-102.48 296.655,-105.711 306.557,-109.478 306.745,-102.48"/>
<text text-anchor="middle" x="411" y="-155" font-family="Helvetica,sans-Serif" font-size="10.00"> myUserDefinedCommandList</text>
</g>
<!-- Node12 -->
<g id="node12" class="node"><title>Node12</title>
<polygon fill="white" stroke="#bfbfbf" points="502.5,-142 502.5,-172 697.5,-172 697.5,-142 502.5,-142"/>
<text text-anchor="start" x="510.5" y="-160" font-family="Helvetica,sans-Serif" font-size="10.00">Map&lt; String, gui.componentdrawers.</text>
<text text-anchor="middle" x="600" y="-149" font-family="Helvetica,sans-Serif" font-size="10.00">ComponentDrawer &gt;</text>
</g>
<!-- Node12&#45;&gt;Node4 -->
<g id="edge11" class="edge"><title>Node12&#45;&gt;Node4</title>
<path fill="none" stroke="#9a32cd" stroke-dasharray="5,2" d="M703.769,-173.829C743.464,-181.09 789.093,-190.368 830,-201 849.464,-206.059 870.664,-212.863 888.515,-218.979"/>
<polygon fill="#9a32cd" stroke="#9a32cd" points="704.275,-170.364 693.811,-172.027 703.028,-177.252 704.275,-170.364"/>
<text text-anchor="middle" x="773" y="-204" font-family="Helvetica,sans-Serif" font-size="10.00"> myComponentDrawers</text>
</g>
<!-- Node13&#45;&gt;Node4 -->
<g id="edge12" class="edge"><title>Node13&#45;&gt;Node4</title>
<path fill="none" stroke="#9a32cd" stroke-dasharray="5,2" d="M1444.56,-152.867C1432.54,-156.186 1419.91,-159.417 1408,-162 1266.9,-192.594 1099.48,-214.684 1005.51,-225.816"/>
<polygon fill="#9a32cd" stroke="#9a32cd" points="1445.81,-156.151 1454.48,-150.07 1443.91,-149.413 1445.81,-156.151"/>
<text text-anchor="middle" x="1219" y="-213" font-family="Helvetica,sans-Serif" font-size="10.00"> myTurtleScreenDrawer</text>
</g>
<!-- Node14 -->
<g id="node14" class="node"><title>Node14</title>
<g id="a_node14"><a xlink:href="../../d0/dda/classgui_1_1componentdrawers_1_1_component_drawer.html" target="_top" xlink:title="gui.componentdrawers.Component\lDrawer">
<polygon fill="white" stroke="black" points="1126.5,-0 1126.5,-30 1311.5,-30 1311.5,-0 1126.5,-0"/>
<text text-anchor="start" x="1134.5" y="-18" font-family="Helvetica,sans-Serif" font-size="10.00">gui.componentdrawers.Component</text>
<text text-anchor="middle" x="1219" y="-7" font-family="Helvetica,sans-Serif" font-size="10.00">Drawer</text>
</a>
</g>
</g>
<!-- Node14&#45;&gt;Node13 -->
<g id="edge13" class="edge"><title>Node14&#45;&gt;Node13</title>
<path fill="none" stroke="midnightblue" d="M1289.86,-32.7027C1297.35,-34.7567 1304.85,-36.8777 1312,-39 1355.12,-51.7945 1367.65,-51.1426 1408,-71 1436.01,-84.7853 1465.4,-105.733 1483.93,-119.874"/>
<polygon fill="midnightblue" stroke="midnightblue" points="1290.61,-29.2791 1280.04,-30.0467 1288.78,-36.0363 1290.61,-29.2791"/>
</g>
<!-- Node15 -->
<g id="node15" class="node"><title>Node15</title>
<polygon fill="white" stroke="#bfbfbf" points="911,-54.5 911,-73.5 951,-73.5 951,-54.5 911,-54.5"/>
<text text-anchor="middle" x="931" y="-61.5" font-family="Helvetica,sans-Serif" font-size="10.00">Pane</text>
</g>
<!-- Node15&#45;&gt;Node13 -->
<g id="edge17" class="edge"><title>Node15&#45;&gt;Node13</title>
<path fill="none" stroke="#9a32cd" stroke-dasharray="5,2" d="M961.158,-68.2284C981.094,-71.0835 1008.13,-74.885 1032,-78 1170.85,-96.1193 1332.99,-115.31 1426.26,-126.158"/>
<polygon fill="#9a32cd" stroke="#9a32cd" points="961.553,-64.7492 951.156,-66.7901 960.556,-71.6779 961.553,-64.7492"/>
<text text-anchor="middle" x="1219" y="-116" font-family="Helvetica,sans-Serif" font-size="10.00"> myGrid</text>
</g>
<!-- Node15&#45;&gt;Node14 -->
<g id="edge14" class="edge"><title>Node15&#45;&gt;Node14</title>
<path fill="none" stroke="midnightblue" d="M961.189,-58.9991C1000.58,-52.2499 1072.48,-39.9322 1130.2,-30.043"/>
<polygon fill="midnightblue" stroke="midnightblue" points="960.475,-55.5704 951.209,-60.7089 961.657,-62.4699 960.475,-55.5704"/>
</g>
<!-- Node16 -->
<g id="node16" class="node"><title>Node16</title>
<g id="a_node16"><a xlink:href="../../dd/d6a/classgui_1_1nonbuttonfeatures_1_1_turtle_screen_feature.html" target="_top" xlink:title="gui.nonbuttonfeatures.Turtle\lScreenFeature">
<polygon fill="white" stroke="black" points="1143,-49 1143,-79 1295,-79 1295,-49 1143,-49"/>
<text text-anchor="start" x="1151" y="-67" font-family="Helvetica,sans-Serif" font-size="10.00">gui.nonbuttonfeatures.Turtle</text>
<text text-anchor="middle" x="1219" y="-56" font-family="Helvetica,sans-Serif" font-size="10.00">ScreenFeature</text>
</a>
</g>
</g>
<!-- Node15&#45;&gt;Node16 -->
<g id="edge16" class="edge"><title>Node15&#45;&gt;Node16</title>
<path fill="none" stroke="midnightblue" d="M961.385,-64C1003.74,-64 1083.37,-64 1142.75,-64"/>
<polygon fill="midnightblue" stroke="midnightblue" points="961.209,-60.5001 951.209,-64 961.209,-67.5001 961.209,-60.5001"/>
</g>
<!-- Node16&#45;&gt;Node13 -->
<g id="edge15" class="edge"><title>Node16&#45;&gt;Node13</title>
<path fill="none" stroke="#9a32cd" stroke-dasharray="5,2" d="M1305.15,-70.9188C1337.77,-74.9434 1375.05,-81.2329 1408,-91 1431.87,-98.0774 1457.4,-110.181 1475.98,-119.904"/>
<polygon fill="#9a32cd" stroke="#9a32cd" points="1305.53,-67.439 1295.18,-69.7411 1304.7,-74.3906 1305.53,-67.439"/>
<text text-anchor="middle" x="1369" y="-94" font-family="Helvetica,sans-Serif" font-size="10.00"> myTurtleScreen</text>
</g>
<!-- Node17 -->
<g id="node17" class="node"><title>Node17</title>
<polygon fill="white" stroke="#bfbfbf" points="1198.5,-145.5 1198.5,-164.5 1239.5,-164.5 1239.5,-145.5 1198.5,-145.5"/>
<text text-anchor="middle" x="1219" y="-152.5" font-family="Helvetica,sans-Serif" font-size="10.00">Color</text>
</g>
<!-- Node17&#45;&gt;Node13 -->
<g id="edge19" class="edge"><title>Node17&#45;&gt;Node13</title>
<path fill="none" stroke="#9a32cd" stroke-dasharray="5,2" d="M1249.93,-152.885C1291.52,-149.946 1368.22,-144.525 1426.33,-140.419"/>
<polygon fill="#9a32cd" stroke="#9a32cd" points="1249.63,-149.397 1239.9,-153.594 1250.12,-156.38 1249.63,-149.397"/>
<text text-anchor="middle" x="1369" y="-150" font-family="Helvetica,sans-Serif" font-size="10.00"> myScreenColor</text>
</g>
<!-- Node18 -->
<g id="node18" class="node"><title>Node18</title>
<g id="a_node18"><a xlink:href="../../da/d55/interface_control_1_1_slogo_graphics.html" target="_top" xlink:title="Control.SlogoGraphics">
<polygon fill="white" stroke="black" points="538.5,-103.5 538.5,-122.5 661.5,-122.5 661.5,-103.5 538.5,-103.5"/>
<text text-anchor="middle" x="600" y="-110.5" font-family="Helvetica,sans-Serif" font-size="10.00">Control.SlogoGraphics</text>
</a>
</g>
</g>
<!-- Node18&#45;&gt;Node4 -->
<g id="edge22" class="edge"><title>Node18&#45;&gt;Node4</title>
<path fill="none" stroke="#9a32cd" stroke-dasharray="5,2" d="M671.535,-120.216C718.1,-126.853 779.59,-139.261 830,-162 862.371,-176.602 894.808,-202.541 913.614,-218.975"/>
<polygon fill="#9a32cd" stroke="#9a32cd" points="671.919,-116.736 661.536,-118.847 670.969,-123.672 671.919,-116.736"/>
<text text-anchor="middle" x="773" y="-165" font-family="Helvetica,sans-Serif" font-size="10.00"> myControl</text>
</g>
<!-- Node19 -->
<g id="node19" class="node"><title>Node19</title>
<polygon fill="white" stroke="#bfbfbf" points="564,-278.5 564,-297.5 636,-297.5 636,-278.5 564,-278.5"/>
<text text-anchor="middle" x="600" y="-285.5" font-family="Helvetica,sans-Serif" font-size="10.00">BorderPane</text>
</g>
<!-- Node19&#45;&gt;Node4 -->
<g id="edge23" class="edge"><title>Node19&#45;&gt;Node4</title>
<path fill="none" stroke="#9a32cd" stroke-dasharray="5,2" d="M646.063,-282.753C692.364,-277.116 766.452,-267.413 830,-256 841.373,-253.958 853.417,-251.534 865.059,-249.055"/>
<polygon fill="#9a32cd" stroke="#9a32cd" points="645.56,-279.288 636.051,-283.961 646.398,-286.238 645.56,-279.288"/>
<text text-anchor="middle" x="773" y="-277" font-family="Helvetica,sans-Serif" font-size="10.00"> myPane</text>
</g>
<!-- Node20 -->
<g id="node20" class="node"><title>Node20</title>
<polygon fill="white" stroke="#bfbfbf" points="848,-287 848,-317 1014,-317 1014,-287 848,-287"/>
<text text-anchor="start" x="856" y="-305" font-family="Helvetica,sans-Serif" font-size="10.00">List&lt; gui.factories.turtlefactory.</text>
<text text-anchor="middle" x="931" y="-294" font-family="Helvetica,sans-Serif" font-size="10.00">TurtleNode &gt;</text>
</g>
<!-- Node20&#45;&gt;Node3 -->
<g id="edge24" class="edge"><title>Node20&#45;&gt;Node3</title>
<path fill="none" stroke="#9a32cd" stroke-dasharray="5,2" d="M1024.29,-291.028C1065.08,-286.18 1112.19,-280.579 1149.74,-276.115"/>
<polygon fill="#9a32cd" stroke="#9a32cd" points="1023.86,-287.555 1014.34,-292.211 1024.68,-294.506 1023.86,-287.555"/>
<text text-anchor="middle" x="1070" y="-294" font-family="Helvetica,sans-Serif" font-size="10.00"> myTurtleNodes</text>
</g>
</g>
</svg>
