<?xml version="1.0" encoding="UTF-8" standalone="no"?>
<!DOCTYPE svg PUBLIC "-//W3C//DTD SVG 1.1//EN"
 "http://www.w3.org/Graphics/SVG/1.1/DTD/svg11.dtd">
<!-- Generated by graphviz version 2.36.0 (20140111.2315)
 -->
<!-- Title: commandParsing.turtleCommandParsing.turtleMovement.Home Pages: 1 -->
<svg width="1322pt" height="136pt"
 viewBox="0.00 0.00 1322.00 136.00" xmlns="http://www.w3.org/2000/svg" xmlns:xlink="http://www.w3.org/1999/xlink">
<g id="graph0" class="graph" transform="scale(1 1) rotate(0) translate(4 132)">
<title>commandParsing.turtleCommandParsing.turtleMovement.Home</title>
<polygon fill="white" stroke="none" points="-4,4 -4,-132 1318,-132 1318,4 -4,4"/>
<!-- Node1 -->
<g id="node1" class="node"><title>Node1</title>
<polygon fill="#bfbfbf" stroke="black" points="918.5,-49 918.5,-79 1097.5,-79 1097.5,-49 918.5,-49"/>
<text text-anchor="start" x="926.5" y="-67" font-family="Helvetica,sans-Serif" font-size="10.00">commandParsing.turtleCommand</text>
<text text-anchor="middle" x="1008" y="-56" font-family="Helvetica,sans-Serif" font-size="10.00">Parsing.turtleMovement.Home</text>
</g>
<!-- Node8 -->
<g id="node8" class="node"><title>Node8</title>
<g id="a_node8"><a xlink:href="../../dd/dc5/classcommand_parsing_1_1turtle_command_parsing_1_1_clear_screen.html" target="_top" xlink:title="commandParsing.turtleCommand\lParsing.ClearScreen">
<polygon fill="white" stroke="black" points="1134.5,-49 1134.5,-79 1313.5,-79 1313.5,-49 1134.5,-49"/>
<text text-anchor="start" x="1142.5" y="-67" font-family="Helvetica,sans-Serif" font-size="10.00">commandParsing.turtleCommand</text>
<text text-anchor="middle" x="1224" y="-56" font-family="Helvetica,sans-Serif" font-size="10.00">Parsing.ClearScreen</text>
</a>
</g>
</g>
<!-- Node1&#45;&gt;Node8 -->
<g id="edge7" class="edge"><title>Node1&#45;&gt;Node8</title>
<path fill="none" stroke="midnightblue" d="M1107.65,-64C1116.6,-64 1125.62,-64 1134.48,-64"/>
<polygon fill="midnightblue" stroke="midnightblue" points="1107.59,-60.5001 1097.59,-64 1107.59,-67.5001 1107.59,-60.5001"/>
</g>
<!-- Node2 -->
<g id="node2" class="node"><title>Node2</title>
<g id="a_node2"><a xlink:href="../../d9/dab/classcommand_parsing_1_1turtle_command_parsing_1_1turtle_movement_1_1_move_to_location.html" target="_top" xlink:title="commandParsing.turtleCommand\lParsing.turtleMovement.MoveToLocation">
<polygon fill="white" stroke="black" points="672.5,-49 672.5,-79 881.5,-79 881.5,-49 672.5,-49"/>
<text text-anchor="start" x="680.5" y="-67" font-family="Helvetica,sans-Serif" font-size="10.00">commandParsing.turtleCommand</text>
<text text-anchor="middle" x="777" y="-56" font-family="Helvetica,sans-Serif" font-size="10.00">Parsing.turtleMovement.MoveToLocation</text>
</a>
</g>
</g>
<!-- Node2&#45;&gt;Node1 -->
<g id="edge1" class="edge"><title>Node2&#45;&gt;Node1</title>
<path fill="none" stroke="midnightblue" d="M891.804,-64C900.694,-64 909.591,-64 918.278,-64"/>
<polygon fill="midnightblue" stroke="midnightblue" points="891.78,-60.5001 881.78,-64 891.78,-67.5001 891.78,-60.5001"/>
</g>
<!-- Node3 -->
<g id="node3" class="node"><title>Node3</title>
<g id="a_node3"><a xlink:href="../../d7/d99/classcommand_parsing_1_1float_command_parsing_1_1_two_input_float_command_parser.html" target="_top" xlink:title="commandParsing.floatCommand\lParsing.TwoInputFloatCommandParser">
<polygon fill="white" stroke="black" points="438,-98 438,-128 636,-128 636,-98 438,-98"/>
<text text-anchor="start" x="446" y="-116" font-family="Helvetica,sans-Serif" font-size="10.00">commandParsing.floatCommand</text>
<text text-anchor="middle" x="537" y="-105" font-family="Helvetica,sans-Serif" font-size="10.00">Parsing.TwoInputFloatCommandParser</text>
</a>
</g>
</g>
<!-- Node3&#45;&gt;Node2 -->
<g id="edge2" class="edge"><title>Node3&#45;&gt;Node2</title>
<path fill="none" stroke="midnightblue" d="M621.119,-95.8873C647.827,-90.3885 677.196,-84.342 703.113,-79.0062"/>
<polygon fill="midnightblue" stroke="midnightblue" points="620.114,-92.5207 611.025,-97.9654 621.526,-99.3769 620.114,-92.5207"/>
</g>
<!-- Node4 -->
<g id="node4" class="node"><title>Node4</title>
<g id="a_node4"><a xlink:href="../../d9/d8d/classcommand_parsing_1_1float_command_parsing_1_1_float_input_command_parser.html" target="_top" xlink:title="commandParsing.floatCommand\lParsing.FloatInputCommandParser">
<polygon fill="white" stroke="black" points="220,-98 220,-128 402,-128 402,-98 220,-98"/>
<text text-anchor="start" x="228" y="-116" font-family="Helvetica,sans-Serif" font-size="10.00">commandParsing.floatCommand</text>
<text text-anchor="middle" x="311" y="-105" font-family="Helvetica,sans-Serif" font-size="10.00">Parsing.FloatInputCommandParser</text>
</a>
</g>
</g>
<!-- Node4&#45;&gt;Node3 -->
<g id="edge3" class="edge"><title>Node4&#45;&gt;Node3</title>
<path fill="none" stroke="midnightblue" d="M412.158,-113C420.739,-113 429.413,-113 437.976,-113"/>
<polygon fill="midnightblue" stroke="midnightblue" points="412.141,-109.5 402.141,-113 412.141,-116.5 412.141,-109.5"/>
</g>
<!-- Node5 -->
<g id="node5" class="node"><title>Node5</title>
<g id="a_node5"><a xlink:href="../../d7/d17/classcommand_parsing_1_1_command_parser.html" target="_top" xlink:title="commandParsing.CommandParser">
<polygon fill="white" stroke="black" points="0.5,-103.5 0.5,-122.5 183.5,-122.5 183.5,-103.5 0.5,-103.5"/>
<text text-anchor="middle" x="92" y="-110.5" font-family="Helvetica,sans-Serif" font-size="10.00">commandParsing.CommandParser</text>
</a>
</g>
</g>
<!-- Node5&#45;&gt;Node4 -->
<g id="edge4" class="edge"><title>Node5&#45;&gt;Node4</title>
<path fill="none" stroke="midnightblue" d="M193.92,-113C202.603,-113 211.352,-113 219.941,-113"/>
<polygon fill="midnightblue" stroke="midnightblue" points="193.77,-109.5 183.77,-113 193.77,-116.5 193.77,-109.5"/>
</g>
<!-- Node6 -->
<g id="node6" class="node"><title>Node6</title>
<g id="a_node6"><a xlink:href="../../d7/d23/interfacecommand_parsing_1_1drawable_obect_generation_interfaces_1_1_line_generator.html" target="_top" xlink:title="commandParsing.drawableObect\lGenerationInterfaces.LineGenerator">
<polygon fill="white" stroke="black" points="443,-49 443,-79 631,-79 631,-49 443,-49"/>
<text text-anchor="start" x="451" y="-67" font-family="Helvetica,sans-Serif" font-size="10.00">commandParsing.drawableObect</text>
<text text-anchor="middle" x="537" y="-56" font-family="Helvetica,sans-Serif" font-size="10.00">GenerationInterfaces.LineGenerator</text>
</a>
</g>
</g>
<!-- Node6&#45;&gt;Node2 -->
<g id="edge5" class="edge"><title>Node6&#45;&gt;Node2</title>
<path fill="none" stroke="midnightblue" d="M641.286,-64C651.597,-64 662.069,-64 672.383,-64"/>
<polygon fill="midnightblue" stroke="midnightblue" points="641.04,-60.5001 631.04,-64 641.04,-67.5001 641.04,-60.5001"/>
</g>
<!-- Node7 -->
<g id="node7" class="node"><title>Node7</title>
<g id="a_node7"><a xlink:href="../../df/d64/interfacecommand_parsing_1_1drawable_obect_generation_interfaces_1_1_turtle_generator.html" target="_top" xlink:title="commandParsing.drawableObect\lGenerationInterfaces.TurtleGenerator">
<polygon fill="white" stroke="black" points="440,-0 440,-30 634,-30 634,-0 440,-0"/>
<text text-anchor="start" x="448" y="-18" font-family="Helvetica,sans-Serif" font-size="10.00">commandParsing.drawableObect</text>
<text text-anchor="middle" x="537" y="-7" font-family="Helvetica,sans-Serif" font-size="10.00">GenerationInterfaces.TurtleGenerator</text>
</a>
</g>
</g>
<!-- Node7&#45;&gt;Node2 -->
<g id="edge6" class="edge"><title>Node7&#45;&gt;Node2</title>
<path fill="none" stroke="midnightblue" d="M621.119,-32.1127C647.827,-37.6115 677.196,-43.658 703.113,-48.9938"/>
<polygon fill="midnightblue" stroke="midnightblue" points="621.526,-28.6231 611.025,-30.0346 620.114,-35.4793 621.526,-28.6231"/>
</g>
</g>
</svg>
