<?xml version="1.0" encoding="UTF-8" standalone="no"?>
<!DOCTYPE svg PUBLIC "-//W3C//DTD SVG 1.1//EN"
 "http://www.w3.org/Graphics/SVG/1.1/DTD/svg11.dtd">
<!-- Generated by graphviz version 2.36.0 (20140111.2315)
 -->
<!-- Title: gui.turtlescreenwrap.Point2DPair Pages: 1 -->
<svg width="154pt" height="118pt"
 viewBox="0.00 0.00 154.00 118.00" xmlns="http://www.w3.org/2000/svg" xmlns:xlink="http://www.w3.org/1999/xlink">
<g id="graph0" class="graph" transform="scale(1 1) rotate(0) translate(4 114)">
<title>gui.turtlescreenwrap.Point2DPair</title>
<polygon fill="white" stroke="none" points="-4,4 -4,-114 150,-114 150,4 -4,4"/>
<!-- Node1 -->
<g id="node1" class="node"><title>Node1</title>
<polygon fill="#bfbfbf" stroke="black" points="-0.5,-1 -0.5,-31 146.5,-31 146.5,-1 -0.5,-1"/>
<text text-anchor="start" x="7.5" y="-19" font-family="Helvetica,sans-Serif" font-size="10.00">gui.turtlescreenwrap.Point2</text>
<text text-anchor="middle" x="73" y="-8" font-family="Helvetica,sans-Serif" font-size="10.00">DPair</text>
</g>
<!-- Node2 -->
<g id="node2" class="node"><title>Node2</title>
<polygon fill="white" stroke="#bfbfbf" points="46,-90.5 46,-109.5 100,-109.5 100,-90.5 46,-90.5"/>
<text text-anchor="middle" x="73" y="-97.5" font-family="Helvetica,sans-Serif" font-size="10.00">Point2D</text>
</g>
<!-- Node2&#45;&gt;Node1 -->
<g id="edge1" class="edge"><title>Node2&#45;&gt;Node1</title>
<path fill="none" stroke="#9a32cd" stroke-dasharray="5,2" d="M73,-80.1139C73,-65.2014 73,-44.7195 73,-31.1839"/>
<polygon fill="#9a32cd" stroke="#9a32cd" points="69.5001,-80.2245 73,-90.2246 76.5001,-80.2246 69.5001,-80.2245"/>
<text text-anchor="middle" x="86.5" y="-64" font-family="Helvetica,sans-Serif" font-size="10.00"> dest</text>
<text text-anchor="middle" x="86.5" y="-53" font-family="Helvetica,sans-Serif" font-size="10.00">origin</text>
</g>
</g>
</svg>
