<?xml version="1.0" encoding="UTF-8" standalone="no"?>
<!DOCTYPE svg PUBLIC "-//W3C//DTD SVG 1.1//EN"
 "http://www.w3.org/Graphics/SVG/1.1/DTD/svg11.dtd">
<!-- Generated by graphviz version 2.36.0 (20140111.2315)
 -->
<!-- Title: commandParsing.colorCommandparsing.SetBackground Pages: 1 -->
<svg width="900pt" height="87pt"
 viewBox="0.00 0.00 900.00 87.00" xmlns="http://www.w3.org/2000/svg" xmlns:xlink="http://www.w3.org/1999/xlink">
<g id="graph0" class="graph" transform="scale(1 1) rotate(0) translate(4 83)">
<title>commandParsing.colorCommandparsing.SetBackground</title>
<polygon fill="white" stroke="none" points="-4,4 -4,-83 896,-83 896,4 -4,4"/>
<!-- Node1 -->
<g id="node1" class="node"><title>Node1</title>
<polygon fill="#bfbfbf" stroke="black" points="676.5,-24 676.5,-54 891.5,-54 891.5,-24 676.5,-24"/>
<text text-anchor="start" x="684.5" y="-42" font-family="Helvetica,sans-Serif" font-size="10.00">commandParsing.colorCommandparsing.</text>
<text text-anchor="middle" x="784" y="-31" font-family="Helvetica,sans-Serif" font-size="10.00">SetBackground</text>
</g>
<!-- Node2 -->
<g id="node2" class="node"><title>Node2</title>
<g id="a_node2"><a xlink:href="../../d3/d00/classcommand_parsing_1_1float_command_parsing_1_1_one_input_float_command_parser.html" target="_top" xlink:title="commandParsing.floatCommand\lParsing.OneInputFloatCommandParser">
<polygon fill="white" stroke="black" points="438.5,-49 438.5,-79 639.5,-79 639.5,-49 438.5,-49"/>
<text text-anchor="start" x="446.5" y="-67" font-family="Helvetica,sans-Serif" font-size="10.00">commandParsing.floatCommand</text>
<text text-anchor="middle" x="539" y="-56" font-family="Helvetica,sans-Serif" font-size="10.00">Parsing.OneInputFloatCommandParser</text>
</a>
</g>
</g>
<!-- Node2&#45;&gt;Node1 -->
<g id="edge1" class="edge"><title>Node2&#45;&gt;Node1</title>
<path fill="none" stroke="midnightblue" d="M649.487,-52.7359C658.34,-51.8251 667.279,-50.9055 676.113,-49.9966"/>
<polygon fill="midnightblue" stroke="midnightblue" points="649.128,-49.2543 639.539,-53.7594 649.844,-56.2175 649.128,-49.2543"/>
</g>
<!-- Node3 -->
<g id="node3" class="node"><title>Node3</title>
<g id="a_node3"><a xlink:href="../../d9/d8d/classcommand_parsing_1_1float_command_parsing_1_1_float_input_command_parser.html" target="_top" xlink:title="commandParsing.floatCommand\lParsing.FloatInputCommandParser">
<polygon fill="white" stroke="black" points="220,-49 220,-79 402,-79 402,-49 220,-49"/>
<text text-anchor="start" x="228" y="-67" font-family="Helvetica,sans-Serif" font-size="10.00">commandParsing.floatCommand</text>
<text text-anchor="middle" x="311" y="-56" font-family="Helvetica,sans-Serif" font-size="10.00">Parsing.FloatInputCommandParser</text>
</a>
</g>
</g>
<!-- Node3&#45;&gt;Node2 -->
<g id="edge2" class="edge"><title>Node3&#45;&gt;Node2</title>
<path fill="none" stroke="midnightblue" d="M412.324,-64C420.916,-64 429.607,-64 438.195,-64"/>
<polygon fill="midnightblue" stroke="midnightblue" points="412.296,-60.5001 402.296,-64 412.295,-67.5001 412.296,-60.5001"/>
</g>
<!-- Node4 -->
<g id="node4" class="node"><title>Node4</title>
<g id="a_node4"><a xlink:href="../../d7/d17/classcommand_parsing_1_1_command_parser.html" target="_top" xlink:title="commandParsing.CommandParser">
<polygon fill="white" stroke="black" points="0.5,-54.5 0.5,-73.5 183.5,-73.5 183.5,-54.5 0.5,-54.5"/>
<text text-anchor="middle" x="92" y="-61.5" font-family="Helvetica,sans-Serif" font-size="10.00">commandParsing.CommandParser</text>
</a>
</g>
</g>
<!-- Node4&#45;&gt;Node3 -->
<g id="edge3" class="edge"><title>Node4&#45;&gt;Node3</title>
<path fill="none" stroke="midnightblue" d="M193.92,-64C202.603,-64 211.352,-64 219.941,-64"/>
<polygon fill="midnightblue" stroke="midnightblue" points="193.77,-60.5001 183.77,-64 193.77,-67.5001 193.77,-60.5001"/>
</g>
<!-- Node5 -->
<g id="node5" class="node"><title>Node5</title>
<g id="a_node5"><a xlink:href="../../d1/d65/interfacecommand_parsing_1_1drawable_obect_generation_interfaces_1_1_pane_generator.html" target="_top" xlink:title="commandParsing.drawableObect\lGenerationInterfaces.PaneGenerator">
<polygon fill="white" stroke="black" points="443,-0 443,-30 635,-30 635,-0 443,-0"/>
<text text-anchor="start" x="451" y="-18" font-family="Helvetica,sans-Serif" font-size="10.00">commandParsing.drawableObect</text>
<text text-anchor="middle" x="539" y="-7" font-family="Helvetica,sans-Serif" font-size="10.00">GenerationInterfaces.PaneGenerator</text>
</a>
</g>
</g>
<!-- Node5&#45;&gt;Node1 -->
<g id="edge4" class="edge"><title>Node5&#45;&gt;Node1</title>
<path fill="none" stroke="midnightblue" d="M645.488,-25.4185C655.695,-26.4266 666.055,-27.4499 676.274,-28.4592"/>
<polygon fill="midnightblue" stroke="midnightblue" points="645.638,-21.9165 635.343,-24.4166 644.95,-28.8826 645.638,-21.9165"/>
</g>
</g>
</svg>
