<?xml version="1.0" encoding="UTF-8" standalone="no"?>
<!DOCTYPE svg PUBLIC "-//W3C//DTD SVG 1.1//EN"
 "http://www.w3.org/Graphics/SVG/1.1/DTD/svg11.dtd">
<!-- Generated by graphviz version 2.36.0 (20140111.2315)
 -->
<!-- Title: gui.buttonfeatures.SaveCommandButtonFeature Pages: 1 -->
<!--zoomable 206 -->
<svg id="main" version="1.1" xmlns="http://www.w3.org/2000/svg" xmlns:xlink="http://www.w3.org/1999/xlink" xml:space="preserve" onload="init(evt)">
<style type="text/css"><![CDATA[
.edge:hover path { stroke: red; }
.edge:hover polygon { stroke: red; fill: red; }
]]></style>
<script type="text/javascript"><![CDATA[
var edges = document.getElementsByTagName('g');
if (edges && edges.length) {
  for (var i=0;i<edges.length;i++) {
    if (edges[i].id.substr(0,4)=='edge') {
      edges[i].setAttribute('class','edge');
    }
  }
}
]]></script>
        <defs>
                <circle id="rim" cx="0" cy="0" r="7"/>
                <circle id="rim2" cx="0" cy="0" r="3.5"/>
                <g id="zoomPlus">
                        <use xlink:href="#rim" fill="#404040">
                                <set attributeName="fill" to="#808080" begin="zoomplus.mouseover" end="zoomplus.mouseout"/>
                        </use>
                        <path d="M-4,0h8M0,-4v8" fill="none" stroke="white" stroke-width="1.5" pointer-events="none"/>
                </g>
                <g id="zoomMin">
                        <use xlink:href="#rim" fill="#404040">
                                <set attributeName="fill" to="#808080" begin="zoomminus.mouseover" end="zoomminus.mouseout"/>
                        </use>
                        <path d="M-4,0h8" fill="none" stroke="white" stroke-width="1.5" pointer-events="none"/>
                </g>
                <g id="dirArrow">
                        <path fill="none" stroke="white" stroke-width="1.5" d="M0,-3.0v7 M-2.5,-0.5L0,-3.0L2.5,-0.5"/>
                </g>
               <g id="resetDef">
                       <use xlink:href="#rim2" fill="#404040">
                               <set attributeName="fill" to="#808080" begin="reset.mouseover" end="reset.mouseout"/>
                       </use>
               </g>
        </defs>

<script type="text/javascript">
var viewWidth = 1246;
var viewHeight = 206;
var sectionId = 'dynsection-1';
</script>
<script xlink:href="../../svgpan.js"/>
<svg id="graph" class="graph">
<g id="viewport">
<title>gui.buttonfeatures.SaveCommandButtonFeature</title>
<polygon fill="white" stroke="none" points="-4,4 -4,-202 1242,-202 1242,4 -4,4"/>
<!-- Node1 -->
<g id="node1" class="node"><title>Node1</title>
<polygon fill="#bfbfbf" stroke="black" points="1056,-87 1056,-117 1238,-117 1238,-87 1056,-87"/>
<text text-anchor="start" x="1064" y="-105" font-family="Helvetica,sans-Serif" font-size="10.00">gui.buttonfeatures.SaveCommand</text>
<text text-anchor="middle" x="1147" y="-94" font-family="Helvetica,sans-Serif" font-size="10.00">ButtonFeature</text>
</g>
<!-- Node2 -->
<g id="node2" class="node"><title>Node2</title>
<g id="a_node2"><a xlink:href="../../d0/d42/classgui_1_1buttonfeatures_1_1_button_feature.html" target="_top" xlink:title="gui.buttonfeatures.Button\lFeature">
<polygon fill="white" stroke="black" points="750,-167 750,-197 890,-197 890,-167 750,-167"/>
<text text-anchor="start" x="758" y="-185" font-family="Helvetica,sans-Serif" font-size="10.00">gui.buttonfeatures.Button</text>
<text text-anchor="middle" x="820" y="-174" font-family="Helvetica,sans-Serif" font-size="10.00">Feature</text>
</a>
</g>
</g>
<!-- Node2&#45;&gt;Node1 -->
<g id="edge1" class="edge"><title>Node2&#45;&gt;Node1</title>
<path fill="none" stroke="midnightblue" d="M900.188,-165.883C941.44,-157.133 992.617,-145.727 1038,-134 1057.69,-128.912 1079.21,-122.676 1097.82,-117.066"/>
<polygon fill="midnightblue" stroke="midnightblue" points="899.257,-162.502 890.195,-167.991 900.702,-169.351 899.257,-162.502"/>
</g>
<!-- Node3 -->
<g id="node3" class="node"><title>Node3</title>
<polygon fill="white" stroke="#bfbfbf" points="453.5,-178.5 453.5,-197.5 502.5,-197.5 502.5,-178.5 453.5,-178.5"/>
<text text-anchor="middle" x="478" y="-185.5" font-family="Helvetica,sans-Serif" font-size="10.00">Button</text>
</g>
<!-- Node3&#45;&gt;Node2 -->
<g id="edge2" class="edge"><title>Node3&#45;&gt;Node2</title>
<path fill="none" stroke="midnightblue" d="M512.883,-187.402C567.903,-186.431 677.758,-184.493 749.803,-183.221"/>
<polygon fill="midnightblue" stroke="midnightblue" points="512.575,-183.907 502.638,-187.583 512.698,-190.906 512.575,-183.907"/>
</g>
<!-- Node4 -->
<g id="node4" class="node"><title>Node4</title>
<g id="a_node4"><a xlink:href="../../da/d9c/classgui_1_1nonbuttonfeatures_1_1_previous_commands_feature.html" target="_top" xlink:title="gui.nonbuttonfeatures.Previous\lCommandsFeature">
<polygon fill="white" stroke="black" points="736.5,-63 736.5,-93 903.5,-93 903.5,-63 736.5,-63"/>
<text text-anchor="start" x="744.5" y="-81" font-family="Helvetica,sans-Serif" font-size="10.00">gui.nonbuttonfeatures.Previous</text>
<text text-anchor="middle" x="820" y="-70" font-family="Helvetica,sans-Serif" font-size="10.00">CommandsFeature</text>
</a>
</g>
</g>
<!-- Node4&#45;&gt;Node1 -->
<g id="edge3" class="edge"><title>Node4&#45;&gt;Node1</title>
<path fill="none" stroke="#9a32cd" stroke-dasharray="5,2" d="M913.662,-81.9921C952.157,-83.9446 997.27,-86.6137 1038,-90 1043.83,-90.4846 1049.83,-91.0277 1055.87,-91.6082"/>
<polygon fill="#9a32cd" stroke="#9a32cd" points="913.671,-78.4882 903.509,-81.4858 913.322,-85.4796 913.671,-78.4882"/>
<text text-anchor="middle" x="980" y="-93" font-family="Helvetica,sans-Serif" font-size="10.00"> myPreviousCommands</text>
</g>
<!-- Node5 -->
<g id="node5" class="node"><title>Node5</title>
<polygon fill="white" stroke="#bfbfbf" points="419,-126 419,-156 537,-156 537,-126 419,-126"/>
<text text-anchor="start" x="427" y="-144" font-family="Helvetica,sans-Serif" font-size="10.00">javafx::scene::control</text>
<text text-anchor="middle" x="478" y="-133" font-family="Helvetica,sans-Serif" font-size="10.00">::ListView&lt; String &gt;</text>
</g>
<!-- Node5&#45;&gt;Node4 -->
<g id="edge4" class="edge"><title>Node5&#45;&gt;Node4</title>
<path fill="none" stroke="midnightblue" d="M547.557,-150.041C597.56,-153.439 665.478,-151.213 718,-124 729.217,-118.188 725.455,-108.958 736,-102 741.258,-98.5302 747.025,-95.5529 752.993,-93"/>
<polygon fill="midnightblue" stroke="midnightblue" points="547.728,-146.543 537.488,-149.264 547.19,-153.523 547.728,-146.543"/>
</g>
<!-- Node11 -->
<g id="node11" class="node"><title>Node11</title>
<g id="a_node11"><a xlink:href="../../d1/de9/classgui_1_1nonbuttonfeatures_1_1_saved_commands_feature.html" target="_top" xlink:title="gui.nonbuttonfeatures.Saved\lCommandsFeature">
<polygon fill="white" stroke="black" points="742,-112 742,-142 898,-142 898,-112 742,-112"/>
<text text-anchor="start" x="750" y="-130" font-family="Helvetica,sans-Serif" font-size="10.00">gui.nonbuttonfeatures.Saved</text>
<text text-anchor="middle" x="820" y="-119" font-family="Helvetica,sans-Serif" font-size="10.00">CommandsFeature</text>
</a>
</g>
</g>
<!-- Node5&#45;&gt;Node11 -->
<g id="edge11" class="edge"><title>Node5&#45;&gt;Node11</title>
<path fill="none" stroke="midnightblue" d="M547.372,-148.372C595.269,-152.295 660.7,-155.168 718,-149 731.828,-147.511 746.54,-144.908 760.334,-142.001"/>
<polygon fill="midnightblue" stroke="midnightblue" points="547.384,-144.86 537.122,-147.494 546.787,-151.835 547.384,-144.86"/>
</g>
<!-- Node6 -->
<g id="node6" class="node"><title>Node6</title>
<g id="a_node6"><a xlink:href="../../d8/d70/classgui_1_1componentdrawers_1_1_command_line_drawer.html" target="_top" xlink:title="gui.componentdrawers.Command\lLineDrawer">
<polygon fill="white" stroke="black" points="388.5,-12 388.5,-42 567.5,-42 567.5,-12 388.5,-12"/>
<text text-anchor="start" x="396.5" y="-30" font-family="Helvetica,sans-Serif" font-size="10.00">gui.componentdrawers.Command</text>
<text text-anchor="middle" x="478" y="-19" font-family="Helvetica,sans-Serif" font-size="10.00">LineDrawer</text>
</a>
</g>
</g>
<!-- Node6&#45;&gt;Node1 -->
<g id="edge13" class="edge"><title>Node6&#45;&gt;Node1</title>
<path fill="none" stroke="#9a32cd" stroke-dasharray="5,2" d="M577.849,-24.705C664.309,-24.0725 793.051,-26.4603 904,-42 972.374,-51.5765 1049.49,-72.511 1097.91,-86.933"/>
<polygon fill="#9a32cd" stroke="#9a32cd" points="577.751,-21.2057 567.782,-24.7937 577.812,-28.2054 577.751,-21.2057"/>
<text text-anchor="middle" x="820" y="-45" font-family="Helvetica,sans-Serif" font-size="10.00"> myCommandLine</text>
</g>
<!-- Node6&#45;&gt;Node4 -->
<g id="edge5" class="edge"><title>Node6&#45;&gt;Node4</title>
<path fill="none" stroke="#9a32cd" stroke-dasharray="5,2" d="M577.496,-41.1596C620.637,-47.4298 671.847,-54.9651 718,-62 723.967,-62.9096 730.131,-63.8597 736.334,-64.8237"/>
<polygon fill="#9a32cd" stroke="#9a32cd" points="577.967,-37.6914 567.568,-39.7183 576.961,-44.6188 577.967,-37.6914"/>
<text text-anchor="middle" x="652" y="-65" font-family="Helvetica,sans-Serif" font-size="10.00"> myCommandLineDrawer</text>
</g>
<!-- Node7 -->
<g id="node7" class="node"><title>Node7</title>
<g id="a_node7"><a xlink:href="../../d0/dda/classgui_1_1componentdrawers_1_1_component_drawer.html" target="_top" xlink:title="gui.componentdrawers.Component\lDrawer">
<polygon fill="white" stroke="black" points="78.5,-39 78.5,-69 263.5,-69 263.5,-39 78.5,-39"/>
<text text-anchor="start" x="86.5" y="-57" font-family="Helvetica,sans-Serif" font-size="10.00">gui.componentdrawers.Component</text>
<text text-anchor="middle" x="171" y="-46" font-family="Helvetica,sans-Serif" font-size="10.00">Drawer</text>
</a>
</g>
</g>
<!-- Node7&#45;&gt;Node6 -->
<g id="edge6" class="edge"><title>Node7&#45;&gt;Node6</title>
<path fill="none" stroke="midnightblue" d="M273.848,-44.984C310.955,-41.699 352.576,-38.0146 388.437,-34.84"/>
<polygon fill="midnightblue" stroke="midnightblue" points="273.162,-41.5309 263.51,-45.8991 273.78,-48.5036 273.162,-41.5309"/>
</g>
<!-- Node8 -->
<g id="node8" class="node"><title>Node8</title>
<polygon fill="white" stroke="#bfbfbf" points="0,-44.5 0,-63.5 40,-63.5 40,-44.5 0,-44.5"/>
<text text-anchor="middle" x="20" y="-51.5" font-family="Helvetica,sans-Serif" font-size="10.00">Pane</text>
</g>
<!-- Node8&#45;&gt;Node7 -->
<g id="edge7" class="edge"><title>Node8&#45;&gt;Node7</title>
<path fill="none" stroke="midnightblue" d="M50.4195,-54C58.7971,-54 68.3935,-54 78.4266,-54"/>
<polygon fill="midnightblue" stroke="midnightblue" points="50.1741,-50.5001 40.1741,-54 50.1741,-57.5001 50.1741,-50.5001"/>
</g>
<!-- Node9 -->
<g id="node9" class="node"><title>Node9</title>
<polygon fill="white" stroke="#bfbfbf" points="142,-0.5 142,-19.5 200,-19.5 200,-0.5 142,-0.5"/>
<text text-anchor="middle" x="171" y="-7.5" font-family="Helvetica,sans-Serif" font-size="10.00">TextArea</text>
</g>
<!-- Node9&#45;&gt;Node6 -->
<g id="edge8" class="edge"><title>Node9&#45;&gt;Node6</title>
<path fill="none" stroke="#9a32cd" stroke-dasharray="5,2" d="M210.291,-11.7649C250.18,-13.6432 314.485,-16.7824 370,-20 375.947,-20.3447 382.079,-20.7126 388.258,-21.0925"/>
<polygon fill="#9a32cd" stroke="#9a32cd" points="210.358,-8.26434 200.205,-11.2924 210.031,-15.2567 210.358,-8.26434"/>
<text text-anchor="middle" x="326" y="-23" font-family="Helvetica,sans-Serif" font-size="10.00"> myCommandLine</text>
</g>
<!-- Node10 -->
<g id="node10" class="node"><title>Node10</title>
<polygon fill="white" stroke="#bfbfbf" points="409,-77.5 409,-96.5 547,-96.5 547,-77.5 409,-77.5"/>
<text text-anchor="middle" x="478" y="-84.5" font-family="Helvetica,sans-Serif" font-size="10.00">ObservableList&lt; String &gt;</text>
</g>
<!-- Node10&#45;&gt;Node4 -->
<g id="edge9" class="edge"><title>Node10&#45;&gt;Node4</title>
<path fill="none" stroke="#9a32cd" stroke-dasharray="5,2" d="M557.213,-80.5137C566.902,-79.8986 576.675,-79.3682 586,-79 635.919,-77.0292 691.9,-76.7272 736.477,-76.9425"/>
<polygon fill="#9a32cd" stroke="#9a32cd" points="556.915,-77.0257 547.17,-81.1821 557.38,-84.0102 556.915,-77.0257"/>
<text text-anchor="middle" x="652" y="-82" font-family="Helvetica,sans-Serif" font-size="10.00"> myPreviousCommandsList</text>
</g>
<!-- Node10&#45;&gt;Node11 -->
<g id="edge12" class="edge"><title>Node10&#45;&gt;Node11</title>
<path fill="none" stroke="#9a32cd" stroke-dasharray="5,2" d="M557.513,-96.2368C612.894,-102.752 686.726,-111.438 741.811,-117.919"/>
<polygon fill="#9a32cd" stroke="#9a32cd" points="557.736,-92.739 547.395,-95.0465 556.918,-99.691 557.736,-92.739"/>
<text text-anchor="middle" x="652" y="-118" font-family="Helvetica,sans-Serif" font-size="10.00"> myCommands</text>
</g>
<!-- Node11&#45;&gt;Node1 -->
<g id="edge10" class="edge"><title>Node11&#45;&gt;Node1</title>
<path fill="none" stroke="#9a32cd" stroke-dasharray="5,2" d="M908.211,-120.291C953.933,-116.774 1009.86,-112.472 1055.99,-108.924"/>
<polygon fill="#9a32cd" stroke="#9a32cd" points="907.723,-116.819 898.02,-121.075 908.259,-123.798 907.723,-116.819"/>
<text text-anchor="middle" x="980" y="-122" font-family="Helvetica,sans-Serif" font-size="10.00"> mySavedCommands</text>
</g>
</g>
</svg>
        <g id="navigator" transform="translate(0 0)" fill="#404254">
                <rect fill="#f2f5e9" fill-opacity="0.5" stroke="#606060" stroke-width=".5" x="0" y="0" width="60" height="60"/>
                <use id="zoomplus" xlink:href="#zoomPlus" x="17" y="9" onmousedown="handleZoom(evt,'in')"/>
                <use id="zoomminus" xlink:href="#zoomMin" x="42" y="9" onmousedown="handleZoom(evt,'out')"/>
                <use id="reset" xlink:href="#resetDef" x="30" y="36" onmousedown="handleReset()"/>
                <g id="arrowUp" xlink:href="#dirArrow" transform="translate(30 24)" onmousedown="handlePan(0,-1)">
                  <use xlink:href="#rim" fill="#404040">
                        <set attributeName="fill" to="#808080" begin="arrowUp.mouseover" end="arrowUp.mouseout"/>
                  </use>
                  <path fill="none" stroke="white" stroke-width="1.5" d="M0,-3.0v7 M-2.5,-0.5L0,-3.0L2.5,-0.5"/>
                </g>
                <g id="arrowRight" xlink:href="#dirArrow" transform="rotate(90) translate(36 -43)" onmousedown="handlePan(1,0)">
                  <use xlink:href="#rim" fill="#404040">
                        <set attributeName="fill" to="#808080" begin="arrowRight.mouseover" end="arrowRight.mouseout"/>
                  </use>
                  <path fill="none" stroke="white" stroke-width="1.5" d="M0,-3.0v7 M-2.5,-0.5L0,-3.0L2.5,-0.5"/>
                </g>
                <g id="arrowDown" xlink:href="#dirArrow" transform="rotate(180) translate(-30 -48)" onmousedown="handlePan(0,1)">
                  <use xlink:href="#rim" fill="#404040">
                        <set attributeName="fill" to="#808080" begin="arrowDown.mouseover" end="arrowDown.mouseout"/>
                  </use>
                  <path fill="none" stroke="white" stroke-width="1.5" d="M0,-3.0v7 M-2.5,-0.5L0,-3.0L2.5,-0.5"/>
                </g>
                <g id="arrowLeft" xlink:href="#dirArrow" transform="rotate(270) translate(-36 17)" onmousedown="handlePan(-1,0)">
                  <use xlink:href="#rim" fill="#404040">
                        <set attributeName="fill" to="#808080" begin="arrowLeft.mouseover" end="arrowLeft.mouseout"/>
                  </use>
                  <path fill="none" stroke="white" stroke-width="1.5" d="M0,-3.0v7 M-2.5,-0.5L0,-3.0L2.5,-0.5"/>
                </g>
        </g>
        <svg viewBox="0 0 15 15" width="100%" height="30px" preserveAspectRatio="xMaxYMin meet">
         <g id="arrow_out" transform="scale(0.3 0.3)">
          <a xlink:href="classgui_1_1buttonfeatures_1_1_save_command_button_feature__coll__graph_org.svg" target="_base">
           <rect id="button" ry="5" rx="5" y="6" x="6" height="38" width="38"
                fill="#f2f5e9" fill-opacity="0.5" stroke="#606060" stroke-width="1.0"/>
           <path id="arrow"
             d="M 11.500037,31.436501 C 11.940474,20.09759 22.043105,11.32322 32.158766,21.979434 L 37.068811,17.246167 C 37.068811,17.246167 37.088388,32 37.088388,32 L 22.160133,31.978069 C 22.160133,31.978069 26.997745,27.140456 26.997745,27.140456 C 18.528582,18.264221 13.291696,25.230495 11.500037,31.436501 z"
             style="fill:#404040;"/>
          </a>
         </g>
        </svg>
</svg>
