<?xml version="1.0" encoding="UTF-8" standalone="no"?>
<!DOCTYPE svg PUBLIC "-//W3C//DTD SVG 1.1//EN"
 "http://www.w3.org/Graphics/SVG/1.1/DTD/svg11.dtd">
<!-- Generated by graphviz version 2.36.0 (20140111.2315)
 -->
<!-- Title: gui.componentdrawers.significantcommands.tabs.UserDefinedCommandsTab Pages: 1 -->
<svg width="940pt" height="101pt"
 viewBox="0.00 0.00 940.00 101.00" xmlns="http://www.w3.org/2000/svg" xmlns:xlink="http://www.w3.org/1999/xlink">
<g id="graph0" class="graph" transform="scale(1 1) rotate(0) translate(4 97)">
<title>gui.componentdrawers.significantcommands.tabs.UserDefinedCommandsTab</title>
<polygon fill="white" stroke="none" points="-4,4 -4,-97 936,-97 936,4 -4,4"/>
<!-- Node1 -->
<g id="node1" class="node"><title>Node1</title>
<polygon fill="#bfbfbf" stroke="black" points="674,-50 674,-80 932,-80 932,-50 674,-50"/>
<text text-anchor="start" x="682" y="-68" font-family="Helvetica,sans-Serif" font-size="10.00">gui.componentdrawers.significantcommands.tabs.</text>
<text text-anchor="middle" x="803" y="-57" font-family="Helvetica,sans-Serif" font-size="10.00">UserDefinedCommandsTab</text>
</g>
<!-- Node2 -->
<g id="node2" class="node"><title>Node2</title>
<polygon fill="white" stroke="#bfbfbf" points="476,-73.5 476,-92.5 508,-92.5 508,-73.5 476,-73.5"/>
<text text-anchor="middle" x="492" y="-80.5" font-family="Helvetica,sans-Serif" font-size="10.00">Tab</text>
</g>
<!-- Node2&#45;&gt;Node1 -->
<g id="edge1" class="edge"><title>Node2&#45;&gt;Node1</title>
<path fill="none" stroke="midnightblue" d="M518.352,-81.5232C552.522,-79.5327 615.79,-75.8472 673.916,-72.4612"/>
<polygon fill="midnightblue" stroke="midnightblue" points="518.103,-78.0317 508.323,-82.1074 518.51,-85.0198 518.103,-78.0317"/>
</g>
<!-- Node3 -->
<g id="node3" class="node"><title>Node3</title>
<g id="a_node3"><a xlink:href="../../de/d51/classgui_1_1nonbuttonfeatures_1_1tableviews_1_1_user_defined_commands_feature.html" target="_top" xlink:title="gui.nonbuttonfeatures.tableviews.\lUserDefinedCommandsFeature">
<polygon fill="white" stroke="black" points="402.5,-24 402.5,-54 581.5,-54 581.5,-24 402.5,-24"/>
<text text-anchor="start" x="410.5" y="-42" font-family="Helvetica,sans-Serif" font-size="10.00">gui.nonbuttonfeatures.tableviews.</text>
<text text-anchor="middle" x="492" y="-31" font-family="Helvetica,sans-Serif" font-size="10.00">UserDefinedCommandsFeature</text>
</a>
</g>
</g>
<!-- Node3&#45;&gt;Node1 -->
<g id="edge2" class="edge"><title>Node3&#45;&gt;Node1</title>
<path fill="none" stroke="#9a32cd" stroke-dasharray="5,2" d="M591.787,-47.3122C617.846,-49.5048 646.346,-51.9029 673.716,-54.2059"/>
<polygon fill="#9a32cd" stroke="#9a32cd" points="591.805,-43.8014 581.547,-46.4506 591.218,-50.7768 591.805,-43.8014"/>
<text text-anchor="middle" x="628" y="-55" font-family="Helvetica,sans-Serif" font-size="10.00"> myFeature</text>
</g>
<!-- Node4 -->
<g id="node4" class="node"><title>Node4</title>
<polygon fill="white" stroke="#bfbfbf" points="32,-49 32,-79 242,-79 242,-49 32,-49"/>
<text text-anchor="start" x="40" y="-67" font-family="Helvetica,sans-Serif" font-size="10.00">javafx::scene::control</text>
<text text-anchor="middle" x="137" y="-56" font-family="Helvetica,sans-Serif" font-size="10.00">::TableView&lt; DisplayedUserCommand &gt;</text>
</g>
<!-- Node4&#45;&gt;Node3 -->
<g id="edge3" class="edge"><title>Node4&#45;&gt;Node3</title>
<path fill="none" stroke="midnightblue" d="M252.285,-56.2366C293.769,-53.3831 341.002,-50.0931 384,-47 389.946,-46.5723 396.077,-46.1265 402.254,-45.6739"/>
<polygon fill="midnightblue" stroke="midnightblue" points="251.883,-52.7559 242.146,-56.9332 252.363,-59.7394 251.883,-52.7559"/>
</g>
<!-- Node5 -->
<g id="node5" class="node"><title>Node5</title>
<polygon fill="white" stroke="#bfbfbf" points="0.5,-0 0.5,-30 273.5,-30 273.5,-0 0.5,-0"/>
<text text-anchor="start" x="8.5" y="-18" font-family="Helvetica,sans-Serif" font-size="10.00">ObservableList&lt; gui.factories.userdefinedcommands.</text>
<text text-anchor="middle" x="137" y="-7" font-family="Helvetica,sans-Serif" font-size="10.00">DisplayedUserCommand &gt;</text>
</g>
<!-- Node5&#45;&gt;Node3 -->
<g id="edge4" class="edge"><title>Node5&#45;&gt;Node3</title>
<path fill="none" stroke="#9a32cd" stroke-dasharray="5,2" d="M283.89,-24.9189C324.093,-27.6522 366.482,-30.5342 402.365,-32.9739"/>
<polygon fill="#9a32cd" stroke="#9a32cd" points="283.936,-21.414 273.722,-24.2275 283.461,-28.3979 283.936,-21.414"/>
<text text-anchor="middle" x="338" y="-35" font-family="Helvetica,sans-Serif" font-size="10.00"> myCommandsList</text>
</g>
</g>
</svg>
