<?xml version="1.0" encoding="UTF-8" standalone="no"?>
<!DOCTYPE svg PUBLIC "-//W3C//DTD SVG 1.1//EN"
 "http://www.w3.org/Graphics/SVG/1.1/DTD/svg11.dtd">
<!-- Generated by graphviz version 2.36.0 (20140111.2315)
 -->
<!-- Title: gui.nonbuttonfeatures.tableviews.imageindex.ImageIndexFeature.ImageFileCell Pages: 1 -->
<svg width="244pt" height="118pt"
 viewBox="0.00 0.00 244.00 118.00" xmlns="http://www.w3.org/2000/svg" xmlns:xlink="http://www.w3.org/1999/xlink">
<g id="graph0" class="graph" transform="scale(1 1) rotate(0) translate(4 114)">
<title>gui.nonbuttonfeatures.tableviews.imageindex.ImageIndexFeature.ImageFileCell</title>
<polygon fill="white" stroke="none" points="-4,4 -4,-114 240,-114 240,4 -4,4"/>
<!-- Node1 -->
<g id="node1" class="node"><title>Node1</title>
<polygon fill="#bfbfbf" stroke="black" points="-0.5,-1 -0.5,-31 236.5,-31 236.5,-1 -0.5,-1"/>
<text text-anchor="start" x="7.5" y="-19" font-family="Helvetica,sans-Serif" font-size="10.00">gui.nonbuttonfeatures.tableviews.imageindex.</text>
<text text-anchor="middle" x="118" y="-8" font-family="Helvetica,sans-Serif" font-size="10.00">ImageIndexFeature.ImageFileCell</text>
</g>
<!-- Node2 -->
<g id="node2" class="node"><title>Node2</title>
<polygon fill="white" stroke="#bfbfbf" points="51,-68.5 51,-109.5 185,-109.5 185,-68.5 51,-68.5"/>
<text text-anchor="start" x="59" y="-97.5" font-family="Helvetica,sans-Serif" font-size="10.00">javafx::scene::control</text>
<text text-anchor="start" x="59" y="-86.5" font-family="Helvetica,sans-Serif" font-size="10.00">::TableCell&lt; ImageIndex,</text>
<text text-anchor="middle" x="118" y="-75.5" font-family="Helvetica,sans-Serif" font-size="10.00"> File &gt;</text>
</g>
<!-- Node2&#45;&gt;Node1 -->
<g id="edge1" class="edge"><title>Node2&#45;&gt;Node1</title>
<path fill="none" stroke="midnightblue" d="M118,-58.0188C118,-48.6567 118,-38.7696 118,-31.0485"/>
<polygon fill="midnightblue" stroke="midnightblue" points="114.5,-58.2225 118,-68.2225 121.5,-58.2226 114.5,-58.2225"/>
</g>
</g>
</svg>
