<?xml version="1.0" encoding="UTF-8" standalone="no"?>
<!DOCTYPE svg PUBLIC "-//W3C//DTD SVG 1.1//EN"
 "http://www.w3.org/Graphics/SVG/1.1/DTD/svg11.dtd">
<!-- Generated by graphviz version 2.36.0 (20140111.2315)
 -->
<!-- Title: workspaceState.Location.generateLocationString Pages: 1 -->
<svg width="962pt" height="627pt"
 viewBox="0.00 0.00 962.00 627.00" xmlns="http://www.w3.org/2000/svg" xmlns:xlink="http://www.w3.org/1999/xlink">
<g id="graph0" class="graph" transform="scale(1 1) rotate(0) translate(4 623)">
<title>workspaceState.Location.generateLocationString</title>
<polygon fill="white" stroke="none" points="-4,4 -4,-623 958,-623 958,4 -4,4"/>
<!-- Node1 -->
<g id="node1" class="node"><title>Node1</title>
<polygon fill="#bfbfbf" stroke="black" points="0.5,-433 0.5,-463 183.5,-463 183.5,-433 0.5,-433"/>
<text text-anchor="start" x="8.5" y="-451" font-family="Helvetica,sans-Serif" font-size="10.00">workspaceState.Location.generate</text>
<text text-anchor="middle" x="92" y="-440" font-family="Helvetica,sans-Serif" font-size="10.00">LocationString</text>
</g>
<!-- Node2 -->
<g id="node2" class="node"><title>Node2</title>
<g id="a_node2"><a xlink:href="../../d7/d23/interfacecommand_parsing_1_1drawable_obect_generation_interfaces_1_1_line_generator.html#a5e51e570ee2ac71f93cce35834969f1e" target="_top" xlink:title="commandParsing.drawableObect\lGenerationInterfaces.LineGenerator.generate\lDrawableObjectRepresentingLine">
<polygon fill="white" stroke="black" points="223,-517.5 223,-558.5 457,-558.5 457,-517.5 223,-517.5"/>
<text text-anchor="start" x="231" y="-546.5" font-family="Helvetica,sans-Serif" font-size="10.00">commandParsing.drawableObect</text>
<text text-anchor="start" x="231" y="-535.5" font-family="Helvetica,sans-Serif" font-size="10.00">GenerationInterfaces.LineGenerator.generate</text>
<text text-anchor="middle" x="340" y="-524.5" font-family="Helvetica,sans-Serif" font-size="10.00">DrawableObjectRepresentingLine</text>
</a>
</g>
</g>
<!-- Node1&#45;&gt;Node2 -->
<g id="edge1" class="edge"><title>Node1&#45;&gt;Node2</title>
<path fill="none" stroke="midnightblue" d="M143.597,-466.511C184.146,-481.346 240.996,-502.145 282.926,-517.485"/>
<polygon fill="midnightblue" stroke="midnightblue" points="144.769,-463.213 134.175,-463.064 142.364,-469.787 144.769,-463.213"/>
</g>
<!-- Node5 -->
<g id="node5" class="node"><title>Node5</title>
<g id="a_node5"><a xlink:href="../../df/d64/interfacecommand_parsing_1_1drawable_obect_generation_interfaces_1_1_turtle_generator.html#ad2df4af6c11d2ec038868c5520be6acd" target="_top" xlink:title="commandParsing.drawableObect\lGenerationInterfaces.TurtleGenerator.generate\lDrawableObjectRepresentingTurtle">
<polygon fill="white" stroke="black" points="220,-307.5 220,-348.5 460,-348.5 460,-307.5 220,-307.5"/>
<text text-anchor="start" x="228" y="-336.5" font-family="Helvetica,sans-Serif" font-size="10.00">commandParsing.drawableObect</text>
<text text-anchor="start" x="228" y="-325.5" font-family="Helvetica,sans-Serif" font-size="10.00">GenerationInterfaces.TurtleGenerator.generate</text>
<text text-anchor="middle" x="340" y="-314.5" font-family="Helvetica,sans-Serif" font-size="10.00">DrawableObjectRepresentingTurtle</text>
</a>
</g>
</g>
<!-- Node1&#45;&gt;Node5 -->
<g id="edge4" class="edge"><title>Node1&#45;&gt;Node5</title>
<path fill="none" stroke="midnightblue" d="M133.318,-428.333C178.297,-406.392 250.747,-371.05 296.567,-348.699"/>
<polygon fill="midnightblue" stroke="midnightblue" points="131.609,-425.272 124.156,-432.802 134.678,-431.563 131.609,-425.272"/>
</g>
<!-- Node3 -->
<g id="node3" class="node"><title>Node3</title>
<g id="a_node3"><a xlink:href="../../d9/dab/classcommand_parsing_1_1turtle_command_parsing_1_1turtle_movement_1_1_move_to_location.html#a914c07518060cce52ab6782b8dcfeb81" target="_top" xlink:title="commandParsing.turtleCommand\lParsing.turtleMovement.MoveToLocation.operate\lOnComponents">
<polygon fill="white" stroke="black" points="496,-517.5 496,-558.5 746,-558.5 746,-517.5 496,-517.5"/>
<text text-anchor="start" x="504" y="-546.5" font-family="Helvetica,sans-Serif" font-size="10.00">commandParsing.turtleCommand</text>
<text text-anchor="start" x="504" y="-535.5" font-family="Helvetica,sans-Serif" font-size="10.00">Parsing.turtleMovement.MoveToLocation.operate</text>
<text text-anchor="middle" x="621" y="-524.5" font-family="Helvetica,sans-Serif" font-size="10.00">OnComponents</text>
</a>
</g>
</g>
<!-- Node2&#45;&gt;Node3 -->
<g id="edge2" class="edge"><title>Node2&#45;&gt;Node3</title>
<path fill="none" stroke="midnightblue" d="M467.476,-538C476.89,-538 486.384,-538 495.783,-538"/>
<polygon fill="midnightblue" stroke="midnightblue" points="467.301,-534.5 457.301,-538 467.301,-541.5 467.301,-534.5"/>
</g>
<!-- Node4 -->
<g id="node4" class="node"><title>Node4</title>
<g id="a_node4"><a xlink:href="../../d6/d37/classcommand_parsing_1_1turtle_command_parsing_1_1turtle_movement_1_1_move.html#a82fa17cd8efe11bebcbfb1c7ae8fe7c7" target="_top" xlink:title="commandParsing.turtleCommand\lParsing.turtleMovement.Move.operate\lOnComponents">
<polygon fill="white" stroke="black" points="521,-577.5 521,-618.5 721,-618.5 721,-577.5 521,-577.5"/>
<text text-anchor="start" x="529" y="-606.5" font-family="Helvetica,sans-Serif" font-size="10.00">commandParsing.turtleCommand</text>
<text text-anchor="start" x="529" y="-595.5" font-family="Helvetica,sans-Serif" font-size="10.00">Parsing.turtleMovement.Move.operate</text>
<text text-anchor="middle" x="621" y="-584.5" font-family="Helvetica,sans-Serif" font-size="10.00">OnComponents</text>
</a>
</g>
</g>
<!-- Node2&#45;&gt;Node4 -->
<g id="edge3" class="edge"><title>Node2&#45;&gt;Node4</title>
<path fill="none" stroke="midnightblue" d="M446.71,-560.733C472.27,-566.23 499.44,-572.073 524.499,-577.462"/>
<polygon fill="midnightblue" stroke="midnightblue" points="447.138,-557.245 436.626,-558.565 445.666,-564.089 447.138,-557.245"/>
</g>
<!-- Node5&#45;&gt;Node3 -->
<g id="edge12" class="edge"><title>Node5&#45;&gt;Node3</title>
<path fill="none" stroke="midnightblue" d="M358.181,-357.285C383.267,-397.387 433.778,-468.761 496,-507 502.428,-510.95 509.336,-514.398 516.482,-517.407"/>
<polygon fill="midnightblue" stroke="midnightblue" points="361.007,-355.199 352.788,-348.514 355.044,-358.865 361.007,-355.199"/>
</g>
<!-- Node5&#45;&gt;Node4 -->
<g id="edge14" class="edge"><title>Node5&#45;&gt;Node4</title>
<path fill="none" stroke="midnightblue" d="M360.667,-357.04C384.536,-392.446 425.831,-454.219 460,-508 476.473,-533.928 471.251,-548.805 496,-567 503.598,-572.586 512.091,-577.172 520.973,-580.936"/>
<polygon fill="midnightblue" stroke="midnightblue" points="363.485,-354.959 354.989,-348.628 357.683,-358.875 363.485,-354.959"/>
</g>
<!-- Node6 -->
<g id="node6" class="node"><title>Node6</title>
<g id="a_node6"><a xlink:href="../../da/df9/classcommand_parsing_1_1structural_command_parsing_1_1_multiple_turtle_command.html#ac35b7854cdc1ab7dcdbc9809a6db903c" target="_top" xlink:title="commandParsing.structural\lCommandParsing.MultipleTurtleCommand.make\lAndActivateGivenTurtles">
<polygon fill="white" stroke="black" points="497.5,-120.5 497.5,-161.5 744.5,-161.5 744.5,-120.5 497.5,-120.5"/>
<text text-anchor="start" x="505.5" y="-149.5" font-family="Helvetica,sans-Serif" font-size="10.00">commandParsing.structural</text>
<text text-anchor="start" x="505.5" y="-138.5" font-family="Helvetica,sans-Serif" font-size="10.00">CommandParsing.MultipleTurtleCommand.make</text>
<text text-anchor="middle" x="621" y="-127.5" font-family="Helvetica,sans-Serif" font-size="10.00">AndActivateGivenTurtles</text>
</a>
</g>
</g>
<!-- Node5&#45;&gt;Node6 -->
<g id="edge5" class="edge"><title>Node5&#45;&gt;Node6</title>
<path fill="none" stroke="midnightblue" d="M361.283,-299.264C388.011,-263.609 438.432,-203.549 496,-171 502.266,-167.457 508.94,-164.33 515.816,-161.571"/>
<polygon fill="midnightblue" stroke="midnightblue" points="358.443,-297.218 355.32,-307.342 364.075,-301.375 358.443,-297.218"/>
</g>
<!-- Node10 -->
<g id="node10" class="node"><title>Node10</title>
<g id="a_node10"><a xlink:href="../../d1/d76/classcommand_parsing_1_1turtle_command_parsing_1_1turtle_attribute_setters_1_1_set_heading.html#ae69dccc512c0e9f0fe5341003fd048ea" target="_top" xlink:title="commandParsing.turtleCommand\lParsing.turtleAttributeSetters.\lSetHeading.operateOnComponents">
<polygon fill="white" stroke="black" points="527,-60.5 527,-101.5 715,-101.5 715,-60.5 527,-60.5"/>
<text text-anchor="start" x="535" y="-89.5" font-family="Helvetica,sans-Serif" font-size="10.00">commandParsing.turtleCommand</text>
<text text-anchor="start" x="535" y="-78.5" font-family="Helvetica,sans-Serif" font-size="10.00">Parsing.turtleAttributeSetters.</text>
<text text-anchor="middle" x="621" y="-67.5" font-family="Helvetica,sans-Serif" font-size="10.00">SetHeading.operateOnComponents</text>
</a>
</g>
</g>
<!-- Node5&#45;&gt;Node10 -->
<g id="edge9" class="edge"><title>Node5&#45;&gt;Node10</title>
<path fill="none" stroke="midnightblue" d="M353.857,-298.069C375.804,-250.684 425.107,-158.874 496,-111 505.361,-104.678 515.914,-99.6847 526.812,-95.741"/>
<polygon fill="midnightblue" stroke="midnightblue" points="350.658,-296.648 349.712,-307.201 357.032,-299.541 350.658,-296.648"/>
</g>
<!-- Node11 -->
<g id="node11" class="node"><title>Node11</title>
<g id="a_node11"><a xlink:href="../../dd/d66/classcommand_parsing_1_1turtle_command_parsing_1_1turtle_movement_1_1_rotate.html#a9638cfc1f990cd9e8d09196875e555ae" target="_top" xlink:title="commandParsing.turtleCommand\lParsing.turtleMovement.Rotate.operate\lOnComponents">
<polygon fill="white" stroke="black" points="518.5,-0.5 518.5,-41.5 723.5,-41.5 723.5,-0.5 518.5,-0.5"/>
<text text-anchor="start" x="526.5" y="-29.5" font-family="Helvetica,sans-Serif" font-size="10.00">commandParsing.turtleCommand</text>
<text text-anchor="start" x="526.5" y="-18.5" font-family="Helvetica,sans-Serif" font-size="10.00">Parsing.turtleMovement.Rotate.operate</text>
<text text-anchor="middle" x="621" y="-7.5" font-family="Helvetica,sans-Serif" font-size="10.00">OnComponents</text>
</a>
</g>
</g>
<!-- Node5&#45;&gt;Node11 -->
<g id="edge10" class="edge"><title>Node5&#45;&gt;Node11</title>
<path fill="none" stroke="midnightblue" d="M349.168,-297.534C366.236,-239.971 411.303,-115.254 496,-51 502.794,-45.8461 510.348,-41.5639 518.282,-38.0078"/>
<polygon fill="midnightblue" stroke="midnightblue" points="345.804,-296.571 346.394,-307.149 352.529,-298.511 345.804,-296.571"/>
</g>
<!-- Node12 -->
<g id="node12" class="node"><title>Node12</title>
<g id="a_node12"><a xlink:href="../../d9/db7/classcommand_parsing_1_1turtle_command_parsing_1_1turtle_attribute_setters_1_1_set_shape.html#a0ba18906dd13ecd9788f2930fe2c5c4b" target="_top" xlink:title="commandParsing.turtleCommand\lParsing.turtleAttributeSetters.\lSetShape.operateOnComponents">
<polygon fill="white" stroke="black" points="531.5,-457.5 531.5,-498.5 710.5,-498.5 710.5,-457.5 531.5,-457.5"/>
<text text-anchor="start" x="539.5" y="-486.5" font-family="Helvetica,sans-Serif" font-size="10.00">commandParsing.turtleCommand</text>
<text text-anchor="start" x="539.5" y="-475.5" font-family="Helvetica,sans-Serif" font-size="10.00">Parsing.turtleAttributeSetters.</text>
<text text-anchor="middle" x="621" y="-464.5" font-family="Helvetica,sans-Serif" font-size="10.00">SetShape.operateOnComponents</text>
</a>
</g>
</g>
<!-- Node5&#45;&gt;Node12 -->
<g id="edge11" class="edge"><title>Node5&#45;&gt;Node12</title>
<path fill="none" stroke="midnightblue" d="M369.572,-355.834C398.958,-382.951 447.203,-423.436 496,-447 507.09,-452.355 519.2,-456.846 531.366,-460.594"/>
<polygon fill="midnightblue" stroke="midnightblue" points="371.855,-353.176 362.159,-348.906 367.076,-358.291 371.855,-353.176"/>
</g>
<!-- Node13 -->
<g id="node13" class="node"><title>Node13</title>
<g id="a_node13"><a xlink:href="../../da/d63/classcommand_parsing_1_1turtle_command_parsing_1_1turtle_attribute_setters_1_1_set_towards.html#a287e5a64e0179d1de65f2ebb4d5622a2" target="_top" xlink:title="commandParsing.turtleCommand\lParsing.turtleAttributeSetters.\lSetTowards.operateOnComponents">
<polygon fill="white" stroke="black" points="528,-397.5 528,-438.5 714,-438.5 714,-397.5 528,-397.5"/>
<text text-anchor="start" x="536" y="-426.5" font-family="Helvetica,sans-Serif" font-size="10.00">commandParsing.turtleCommand</text>
<text text-anchor="start" x="536" y="-415.5" font-family="Helvetica,sans-Serif" font-size="10.00">Parsing.turtleAttributeSetters.</text>
<text text-anchor="middle" x="621" y="-404.5" font-family="Helvetica,sans-Serif" font-size="10.00">SetTowards.operateOnComponents</text>
</a>
</g>
</g>
<!-- Node5&#45;&gt;Node13 -->
<g id="edge13" class="edge"><title>Node5&#45;&gt;Node13</title>
<path fill="none" stroke="midnightblue" d="M399.859,-352.293C428.574,-363.658 463.792,-376.884 496,-387 507.644,-390.657 520.008,-394.174 532.246,-397.442"/>
<polygon fill="midnightblue" stroke="midnightblue" points="400.969,-348.968 390.383,-348.517 398.378,-355.471 400.969,-348.968"/>
</g>
<!-- Node14 -->
<g id="node14" class="node"><title>Node14</title>
<g id="a_node14"><a xlink:href="../../d1/de7/classcommand_parsing_1_1turtle_command_parsing_1_1turtle_attribute_setters_1_1_hide_turtle.html#af7c45d61a317edddfeee3960e0a3b59e" target="_top" xlink:title="commandParsing.turtleCommand\lParsing.turtleAttributeSetters.\lHideTurtle.parse">
<polygon fill="white" stroke="black" points="531.5,-337.5 531.5,-378.5 710.5,-378.5 710.5,-337.5 531.5,-337.5"/>
<text text-anchor="start" x="539.5" y="-366.5" font-family="Helvetica,sans-Serif" font-size="10.00">commandParsing.turtleCommand</text>
<text text-anchor="start" x="539.5" y="-355.5" font-family="Helvetica,sans-Serif" font-size="10.00">Parsing.turtleAttributeSetters.</text>
<text text-anchor="middle" x="621" y="-344.5" font-family="Helvetica,sans-Serif" font-size="10.00">HideTurtle.parse</text>
</a>
</g>
</g>
<!-- Node5&#45;&gt;Node14 -->
<g id="edge15" class="edge"><title>Node5&#45;&gt;Node14</title>
<path fill="none" stroke="midnightblue" d="M470.23,-341.896C490.87,-344.115 511.811,-346.367 531.233,-348.455"/>
<polygon fill="midnightblue" stroke="midnightblue" points="470.447,-338.399 460.13,-340.81 469.699,-345.359 470.447,-338.399"/>
</g>
<!-- Node15 -->
<g id="node15" class="node"><title>Node15</title>
<g id="a_node15"><a xlink:href="../../d6/daa/classcommand_parsing_1_1turtle_command_parsing_1_1turtle_attribute_setters_1_1_show_turtle.html#a806202bb6da0c5999d8c7298f4ed948b" target="_top" xlink:title="commandParsing.turtleCommand\lParsing.turtleAttributeSetters.\lShowTurtle.parse">
<polygon fill="white" stroke="black" points="531.5,-277.5 531.5,-318.5 710.5,-318.5 710.5,-277.5 531.5,-277.5"/>
<text text-anchor="start" x="539.5" y="-306.5" font-family="Helvetica,sans-Serif" font-size="10.00">commandParsing.turtleCommand</text>
<text text-anchor="start" x="539.5" y="-295.5" font-family="Helvetica,sans-Serif" font-size="10.00">Parsing.turtleAttributeSetters.</text>
<text text-anchor="middle" x="621" y="-284.5" font-family="Helvetica,sans-Serif" font-size="10.00">ShowTurtle.parse</text>
</a>
</g>
</g>
<!-- Node5&#45;&gt;Node15 -->
<g id="edge16" class="edge"><title>Node5&#45;&gt;Node15</title>
<path fill="none" stroke="midnightblue" d="M470.23,-314.104C490.87,-311.885 511.811,-309.633 531.233,-307.545"/>
<polygon fill="midnightblue" stroke="midnightblue" points="469.699,-310.641 460.13,-315.19 470.447,-317.601 469.699,-310.641"/>
</g>
<!-- Node16 -->
<g id="node16" class="node"><title>Node16</title>
<g id="a_node16"><a xlink:href="../../d0/dc1/classcommand_parsing_1_1turtle_command_parsing_1_1_make_turtle.html#a6ed9fedb55ea99caa7a891b0c9bbd20a" target="_top" xlink:title="commandParsing.turtleCommand\lParsing.MakeTurtle.parse">
<polygon fill="white" stroke="black" points="531.5,-229 531.5,-259 710.5,-259 710.5,-229 531.5,-229"/>
<text text-anchor="start" x="539.5" y="-247" font-family="Helvetica,sans-Serif" font-size="10.00">commandParsing.turtleCommand</text>
<text text-anchor="middle" x="621" y="-236" font-family="Helvetica,sans-Serif" font-size="10.00">Parsing.MakeTurtle.parse</text>
</a>
</g>
</g>
<!-- Node5&#45;&gt;Node16 -->
<g id="edge17" class="edge"><title>Node5&#45;&gt;Node16</title>
<path fill="none" stroke="midnightblue" d="M397.299,-303.417C426.352,-291.45 462.616,-277.609 496,-268 507.484,-264.694 519.698,-261.709 531.812,-259.056"/>
<polygon fill="midnightblue" stroke="midnightblue" points="395.626,-300.322 387.738,-307.395 398.315,-306.785 395.626,-300.322"/>
</g>
<!-- Node17 -->
<g id="node17" class="node"><title>Node17</title>
<g id="a_node17"><a xlink:href="../../d7/dd2/classcommand_parsing_1_1turtle_command_parsing_1_1_stamp.html#a05a3413c6b4195da962917a40ba016ed" target="_top" xlink:title="commandParsing.turtleCommand\lParsing.Stamp.parse">
<polygon fill="white" stroke="black" points="531.5,-180 531.5,-210 710.5,-210 710.5,-180 531.5,-180"/>
<text text-anchor="start" x="539.5" y="-198" font-family="Helvetica,sans-Serif" font-size="10.00">commandParsing.turtleCommand</text>
<text text-anchor="middle" x="621" y="-187" font-family="Helvetica,sans-Serif" font-size="10.00">Parsing.Stamp.parse</text>
</a>
</g>
</g>
<!-- Node5&#45;&gt;Node17 -->
<g id="edge18" class="edge"><title>Node5&#45;&gt;Node17</title>
<path fill="none" stroke="midnightblue" d="M371.764,-300.783C401.5,-275.948 448.858,-240.14 496,-220 507.107,-215.255 519.166,-211.394 531.253,-208.258"/>
<polygon fill="midnightblue" stroke="midnightblue" points="369.23,-298.342 363.859,-307.475 373.753,-303.685 369.23,-298.342"/>
</g>
<!-- Node7 -->
<g id="node7" class="node"><title>Node7</title>
<g id="a_node7"><a xlink:href="../../d7/d50/classcommand_parsing_1_1structural_command_parsing_1_1_ask.html#aa19ad64684414b0ef6112ac7e75e992d" target="_top" xlink:title="commandParsing.structural\lCommandParsing.Ask.parse">
<polygon fill="white" stroke="black" points="792,-175 792,-205 944,-205 944,-175 792,-175"/>
<text text-anchor="start" x="800" y="-193" font-family="Helvetica,sans-Serif" font-size="10.00">commandParsing.structural</text>
<text text-anchor="middle" x="868" y="-182" font-family="Helvetica,sans-Serif" font-size="10.00">CommandParsing.Ask.parse</text>
</a>
</g>
</g>
<!-- Node6&#45;&gt;Node7 -->
<g id="edge6" class="edge"><title>Node6&#45;&gt;Node7</title>
<path fill="none" stroke="midnightblue" d="M734.651,-163.53C754.088,-167.418 773.858,-171.372 791.986,-174.997"/>
<polygon fill="midnightblue" stroke="midnightblue" points="735.329,-160.097 724.837,-161.567 733.957,-166.961 735.329,-160.097"/>
</g>
<!-- Node8 -->
<g id="node8" class="node"><title>Node8</title>
<g id="a_node8"><a xlink:href="../../db/da0/classcommand_parsing_1_1structural_command_parsing_1_1_tell.html#aaab258a057ef8d0fd8ff6980e59dc719" target="_top" xlink:title="commandParsing.structural\lCommandParsing.Tell.parse">
<polygon fill="white" stroke="black" points="793.5,-126 793.5,-156 942.5,-156 942.5,-126 793.5,-126"/>
<text text-anchor="start" x="801.5" y="-144" font-family="Helvetica,sans-Serif" font-size="10.00">commandParsing.structural</text>
<text text-anchor="middle" x="868" y="-133" font-family="Helvetica,sans-Serif" font-size="10.00">CommandParsing.Tell.parse</text>
</a>
</g>
</g>
<!-- Node6&#45;&gt;Node8 -->
<g id="edge7" class="edge"><title>Node6&#45;&gt;Node8</title>
<path fill="none" stroke="midnightblue" d="M754.961,-141C768.143,-141 781.162,-141 793.402,-141"/>
<polygon fill="midnightblue" stroke="midnightblue" points="754.859,-137.5 744.859,-141 754.859,-144.5 754.859,-137.5"/>
</g>
<!-- Node9 -->
<g id="node9" class="node"><title>Node9</title>
<g id="a_node9"><a xlink:href="../../d7/d78/classcommand_parsing_1_1structural_command_parsing_1_1_ask_with.html#a934aa5eda34ccd0b9703e578753031fb" target="_top" xlink:title="commandParsing.structural\lCommandParsing.AskWith.parse">
<polygon fill="white" stroke="black" points="782,-77 782,-107 954,-107 954,-77 782,-77"/>
<text text-anchor="start" x="790" y="-95" font-family="Helvetica,sans-Serif" font-size="10.00">commandParsing.structural</text>
<text text-anchor="middle" x="868" y="-84" font-family="Helvetica,sans-Serif" font-size="10.00">CommandParsing.AskWith.parse</text>
</a>
</g>
</g>
<!-- Node6&#45;&gt;Node9 -->
<g id="edge8" class="edge"><title>Node6&#45;&gt;Node9</title>
<path fill="none" stroke="midnightblue" d="M734.651,-118.47C754.088,-114.582 773.858,-110.628 791.986,-107.003"/>
<polygon fill="midnightblue" stroke="midnightblue" points="733.957,-115.039 724.837,-120.433 735.329,-121.903 733.957,-115.039"/>
</g>
</g>
</svg>
