<?xml version="1.0" encoding="UTF-8" standalone="no"?>
<!DOCTYPE svg PUBLIC "-//W3C//DTD SVG 1.1//EN"
 "http://www.w3.org/Graphics/SVG/1.1/DTD/svg11.dtd">
<!-- Generated by graphviz version 2.36.0 (20140111.2315)
 -->
<!-- Title: workspaceState.Location.getX Pages: 1 -->
<svg width="746pt" height="206pt"
 viewBox="0.00 0.00 746.00 206.00" xmlns="http://www.w3.org/2000/svg" xmlns:xlink="http://www.w3.org/1999/xlink">
<g id="graph0" class="graph" transform="scale(1 1) rotate(0) translate(4 202)">
<title>workspaceState.Location.getX</title>
<polygon fill="white" stroke="none" points="-4,4 -4,-202 742,-202 742,4 -4,4"/>
<!-- Node1 -->
<g id="node1" class="node"><title>Node1</title>
<polygon fill="#bfbfbf" stroke="black" points="0.5,-88.5 0.5,-107.5 161.5,-107.5 161.5,-88.5 0.5,-88.5"/>
<text text-anchor="middle" x="81" y="-95.5" font-family="Helvetica,sans-Serif" font-size="10.00">workspaceState.Location.getX</text>
</g>
<!-- Node2 -->
<g id="node2" class="node"><title>Node2</title>
<g id="a_node2"><a xlink:href="../../d9/dab/classcommand_parsing_1_1turtle_command_parsing_1_1turtle_movement_1_1_move_to_location.html#a782737d77da1acbdba318e8485df9fb5" target="_top" xlink:title="commandParsing.turtleCommand\lParsing.turtleMovement.MoveToLocation.distance\lBetweenPoints">
<polygon fill="white" stroke="black" points="198.5,-156.5 198.5,-197.5 451.5,-197.5 451.5,-156.5 198.5,-156.5"/>
<text text-anchor="start" x="206.5" y="-185.5" font-family="Helvetica,sans-Serif" font-size="10.00">commandParsing.turtleCommand</text>
<text text-anchor="start" x="206.5" y="-174.5" font-family="Helvetica,sans-Serif" font-size="10.00">Parsing.turtleMovement.MoveToLocation.distance</text>
<text text-anchor="middle" x="325" y="-163.5" font-family="Helvetica,sans-Serif" font-size="10.00">BetweenPoints</text>
</a>
</g>
</g>
<!-- Node1&#45;&gt;Node2 -->
<g id="edge1" class="edge"><title>Node1&#45;&gt;Node2</title>
<path fill="none" stroke="midnightblue" d="M110.987,-111.833C134.147,-122.495 167.643,-137.051 198,-147 208.257,-150.362 219.097,-153.517 229.941,-156.426"/>
<polygon fill="midnightblue" stroke="midnightblue" points="112.276,-108.572 101.733,-107.526 109.323,-114.919 112.276,-108.572"/>
</g>
<!-- Node4 -->
<g id="node4" class="node"><title>Node4</title>
<g id="a_node4"><a xlink:href="../../d1/d01/classworkspace_state_1_1_turtle.html#a457173c44890aa32367cd663b1f436e2" target="_top" xlink:title="workspaceState.Turtle.get\lTurtleXLocation">
<polygon fill="white" stroke="black" points="255,-108 255,-138 395,-138 395,-108 255,-108"/>
<text text-anchor="start" x="263" y="-126" font-family="Helvetica,sans-Serif" font-size="10.00">workspaceState.Turtle.get</text>
<text text-anchor="middle" x="325" y="-115" font-family="Helvetica,sans-Serif" font-size="10.00">TurtleXLocation</text>
</a>
</g>
</g>
<!-- Node1&#45;&gt;Node4 -->
<g id="edge3" class="edge"><title>Node1&#45;&gt;Node4</title>
<path fill="none" stroke="midnightblue" d="M171.603,-107.257C199.14,-110.101 229.007,-113.187 254.944,-115.866"/>
<polygon fill="midnightblue" stroke="midnightblue" points="171.882,-103.767 161.575,-106.221 171.162,-110.73 171.882,-103.767"/>
</g>
<!-- Node6 -->
<g id="node6" class="node"><title>Node6</title>
<g id="a_node6"><a xlink:href="../../d0/d77/classworkspace_state_1_1_location.html#a6ff1cc193fc4d0ecaaeb739bbc01be93" target="_top" xlink:title="workspaceState.Location.\lLocation">
<polygon fill="white" stroke="black" points="255,-59 255,-89 395,-89 395,-59 255,-59"/>
<text text-anchor="start" x="263" y="-77" font-family="Helvetica,sans-Serif" font-size="10.00">workspaceState.Location.</text>
<text text-anchor="middle" x="325" y="-66" font-family="Helvetica,sans-Serif" font-size="10.00">Location</text>
</a>
</g>
</g>
<!-- Node1&#45;&gt;Node6 -->
<g id="edge5" class="edge"><title>Node1&#45;&gt;Node6</title>
<path fill="none" stroke="midnightblue" d="M171.603,-89.1137C199.14,-86.3828 229.007,-83.4208 254.944,-80.8485"/>
<polygon fill="midnightblue" stroke="midnightblue" points="171.181,-85.6384 161.575,-90.1083 171.872,-92.6042 171.181,-85.6384"/>
</g>
<!-- Node7 -->
<g id="node7" class="node"><title>Node7</title>
<g id="a_node7"><a xlink:href="../../da/d63/classcommand_parsing_1_1turtle_command_parsing_1_1turtle_attribute_setters_1_1_set_towards.html#a20403486a3c514b9137f93884038cfe2" target="_top" xlink:title="commandParsing.turtleCommand\lParsing.turtleAttributeSetters.\lSetTowards.vectorFromTwoPoints">
<polygon fill="white" stroke="black" points="235.5,0.5 235.5,-40.5 414.5,-40.5 414.5,0.5 235.5,0.5"/>
<text text-anchor="start" x="243.5" y="-28.5" font-family="Helvetica,sans-Serif" font-size="10.00">commandParsing.turtleCommand</text>
<text text-anchor="start" x="243.5" y="-17.5" font-family="Helvetica,sans-Serif" font-size="10.00">Parsing.turtleAttributeSetters.</text>
<text text-anchor="middle" x="325" y="-6.5" font-family="Helvetica,sans-Serif" font-size="10.00">SetTowards.vectorFromTwoPoints</text>
</a>
</g>
</g>
<!-- Node1&#45;&gt;Node7 -->
<g id="edge6" class="edge"><title>Node1&#45;&gt;Node7</title>
<path fill="none" stroke="midnightblue" d="M111.855,-84.1074C134.998,-73.7173 168.063,-59.6902 198,-50 209.98,-46.1221 222.749,-42.5053 235.387,-39.2208"/>
<polygon fill="midnightblue" stroke="midnightblue" points="110.243,-80.9955 102.582,-88.3145 113.135,-87.3701 110.243,-80.9955"/>
</g>
<!-- Node3 -->
<g id="node3" class="node"><title>Node3</title>
<g id="a_node3"><a xlink:href="../../d9/dab/classcommand_parsing_1_1turtle_command_parsing_1_1turtle_movement_1_1_move_to_location.html#a914c07518060cce52ab6782b8dcfeb81" target="_top" xlink:title="commandParsing.turtleCommand\lParsing.turtleMovement.MoveToLocation.operate\lOnComponents">
<polygon fill="white" stroke="black" points="488,-156.5 488,-197.5 738,-197.5 738,-156.5 488,-156.5"/>
<text text-anchor="start" x="496" y="-185.5" font-family="Helvetica,sans-Serif" font-size="10.00">commandParsing.turtleCommand</text>
<text text-anchor="start" x="496" y="-174.5" font-family="Helvetica,sans-Serif" font-size="10.00">Parsing.turtleMovement.MoveToLocation.operate</text>
<text text-anchor="middle" x="613" y="-163.5" font-family="Helvetica,sans-Serif" font-size="10.00">OnComponents</text>
</a>
</g>
</g>
<!-- Node2&#45;&gt;Node3 -->
<g id="edge2" class="edge"><title>Node2&#45;&gt;Node3</title>
<path fill="none" stroke="midnightblue" d="M462.007,-177C470.67,-177 479.368,-177 487.973,-177"/>
<polygon fill="midnightblue" stroke="midnightblue" points="461.86,-173.5 451.86,-177 461.86,-180.5 461.86,-173.5"/>
</g>
<!-- Node5 -->
<g id="node5" class="node"><title>Node5</title>
<g id="a_node5"><a xlink:href="../../da/d28/classcommand_parsing_1_1turtle_query_parsing_1_1_x_coordinate.html#a0e2c0e0fc4d6c72c65d57303ae1906d9" target="_top" xlink:title="commandParsing.turtleQuery\lParsing.XCoordinate.parse">
<polygon fill="white" stroke="black" points="534.5,-108 534.5,-138 691.5,-138 691.5,-108 534.5,-108"/>
<text text-anchor="start" x="542.5" y="-126" font-family="Helvetica,sans-Serif" font-size="10.00">commandParsing.turtleQuery</text>
<text text-anchor="middle" x="613" y="-115" font-family="Helvetica,sans-Serif" font-size="10.00">Parsing.XCoordinate.parse</text>
</a>
</g>
</g>
<!-- Node4&#45;&gt;Node5 -->
<g id="edge4" class="edge"><title>Node4&#45;&gt;Node5</title>
<path fill="none" stroke="midnightblue" d="M405.278,-123C445.548,-123 494.293,-123 534.333,-123"/>
<polygon fill="midnightblue" stroke="midnightblue" points="405.233,-119.5 395.233,-123 405.233,-126.5 405.233,-119.5"/>
</g>
<!-- Node8 -->
<g id="node8" class="node"><title>Node8</title>
<g id="a_node8"><a xlink:href="../../da/d63/classcommand_parsing_1_1turtle_command_parsing_1_1turtle_attribute_setters_1_1_set_towards.html#a287e5a64e0179d1de65f2ebb4d5622a2" target="_top" xlink:title="commandParsing.turtleCommand\lParsing.turtleAttributeSetters.\lSetTowards.operateOnComponents">
<polygon fill="white" stroke="black" points="520,0.5 520,-40.5 706,-40.5 706,0.5 520,0.5"/>
<text text-anchor="start" x="528" y="-28.5" font-family="Helvetica,sans-Serif" font-size="10.00">commandParsing.turtleCommand</text>
<text text-anchor="start" x="528" y="-17.5" font-family="Helvetica,sans-Serif" font-size="10.00">Parsing.turtleAttributeSetters.</text>
<text text-anchor="middle" x="613" y="-6.5" font-family="Helvetica,sans-Serif" font-size="10.00">SetTowards.operateOnComponents</text>
</a>
</g>
</g>
<!-- Node7&#45;&gt;Node8 -->
<g id="edge7" class="edge"><title>Node7&#45;&gt;Node8</title>
<path fill="none" stroke="midnightblue" d="M424.866,-20C455.704,-20 489.578,-20 519.93,-20"/>
<polygon fill="midnightblue" stroke="midnightblue" points="424.534,-16.5001 414.534,-20 424.534,-23.5001 424.534,-16.5001"/>
</g>
</g>
</svg>
