<?xml version="1.0" encoding="UTF-8" standalone="no"?>
<!DOCTYPE svg PUBLIC "-//W3C//DTD SVG 1.1//EN"
 "http://www.w3.org/Graphics/SVG/1.1/DTD/svg11.dtd">
<!-- Generated by graphviz version 2.36.0 (20140111.2315)
 -->
<!-- Title: workspaceState.Location.add Pages: 1 -->
<svg width="1156pt" height="627pt"
 viewBox="0.00 0.00 1156.00 627.00" xmlns="http://www.w3.org/2000/svg" xmlns:xlink="http://www.w3.org/1999/xlink">
<g id="graph0" class="graph" transform="scale(1 1) rotate(0) translate(4 623)">
<title>workspaceState.Location.add</title>
<polygon fill="white" stroke="none" points="-4,4 -4,-623 1152,-623 1152,4 -4,4"/>
<!-- Node1 -->
<g id="node1" class="node"><title>Node1</title>
<polygon fill="#bfbfbf" stroke="black" points="0,-512.5 0,-531.5 158,-531.5 158,-512.5 0,-512.5"/>
<text text-anchor="middle" x="79" y="-519.5" font-family="Helvetica,sans-Serif" font-size="10.00">workspaceState.Location.add</text>
</g>
<!-- Node2 -->
<g id="node2" class="node"><title>Node2</title>
<g id="a_node2"><a xlink:href="../../d0/d77/classworkspace_state_1_1_location.html#ae445cb48bedcd80659a847365a6a3de4" target="_top" xlink:title="workspaceState.Location.generate\lLocationString">
<polygon fill="white" stroke="black" points="194.5,-529 194.5,-559 377.5,-559 377.5,-529 194.5,-529"/>
<text text-anchor="start" x="202.5" y="-547" font-family="Helvetica,sans-Serif" font-size="10.00">workspaceState.Location.generate</text>
<text text-anchor="middle" x="286" y="-536" font-family="Helvetica,sans-Serif" font-size="10.00">LocationString</text>
</a>
</g>
</g>
<!-- Node1&#45;&gt;Node2 -->
<g id="edge1" class="edge"><title>Node1&#45;&gt;Node2</title>
<path fill="none" stroke="midnightblue" d="M168.206,-531.466C176.894,-532.398 185.721,-533.346 194.432,-534.281"/>
<polygon fill="midnightblue" stroke="midnightblue" points="168.403,-527.967 158.087,-530.38 167.656,-534.927 168.403,-527.967"/>
</g>
<!-- Node4 -->
<g id="node4" class="node"><title>Node4</title>
<g id="a_node4"><a xlink:href="../../d9/dab/classcommand_parsing_1_1turtle_command_parsing_1_1turtle_movement_1_1_move_to_location.html#a914c07518060cce52ab6782b8dcfeb81" target="_top" xlink:title="commandParsing.turtleCommand\lParsing.turtleMovement.MoveToLocation.operate\lOnComponents">
<polygon fill="white" stroke="black" points="690,-577.5 690,-618.5 940,-618.5 940,-577.5 690,-577.5"/>
<text text-anchor="start" x="698" y="-606.5" font-family="Helvetica,sans-Serif" font-size="10.00">commandParsing.turtleCommand</text>
<text text-anchor="start" x="698" y="-595.5" font-family="Helvetica,sans-Serif" font-size="10.00">Parsing.turtleMovement.MoveToLocation.operate</text>
<text text-anchor="middle" x="815" y="-584.5" font-family="Helvetica,sans-Serif" font-size="10.00">OnComponents</text>
</a>
</g>
</g>
<!-- Node1&#45;&gt;Node4 -->
<g id="edge21" class="edge"><title>Node1&#45;&gt;Node4</title>
<path fill="none" stroke="midnightblue" d="M107.333,-536.067C129.922,-546.939 163.173,-561.238 194,-568 362.814,-605.031 563.44,-607.438 689.767,-604.07"/>
<polygon fill="midnightblue" stroke="midnightblue" points="108.862,-532.919 98.3432,-531.65 105.774,-539.201 108.862,-532.919"/>
</g>
<!-- Node5 -->
<g id="node5" class="node"><title>Node5</title>
<g id="a_node5"><a xlink:href="../../d6/d37/classcommand_parsing_1_1turtle_command_parsing_1_1turtle_movement_1_1_move.html#a82fa17cd8efe11bebcbfb1c7ae8fe7c7" target="_top" xlink:title="commandParsing.turtleCommand\lParsing.turtleMovement.Move.operate\lOnComponents">
<polygon fill="white" stroke="black" points="715,-517.5 715,-558.5 915,-558.5 915,-517.5 715,-517.5"/>
<text text-anchor="start" x="723" y="-546.5" font-family="Helvetica,sans-Serif" font-size="10.00">commandParsing.turtleCommand</text>
<text text-anchor="start" x="723" y="-535.5" font-family="Helvetica,sans-Serif" font-size="10.00">Parsing.turtleMovement.Move.operate</text>
<text text-anchor="middle" x="815" y="-524.5" font-family="Helvetica,sans-Serif" font-size="10.00">OnComponents</text>
</a>
</g>
</g>
<!-- Node1&#45;&gt;Node5 -->
<g id="edge22" class="edge"><title>Node1&#45;&gt;Node5</title>
<path fill="none" stroke="midnightblue" d="M168.376,-518.018C281.175,-513.745 482.286,-508.84 654,-519 673.686,-520.165 694.664,-522.129 714.73,-524.364"/>
<polygon fill="midnightblue" stroke="midnightblue" points="167.931,-514.533 158.073,-518.416 168.201,-521.528 167.931,-514.533"/>
</g>
<!-- Node19 -->
<g id="node19" class="node"><title>Node19</title>
<g id="a_node19"><a xlink:href="../../d1/d01/classworkspace_state_1_1_turtle.html#a823bb585dd6224c21d6b2bb4fe58a561" target="_top" xlink:title="workspaceState.Turtle.move">
<polygon fill="white" stroke="black" points="210,-452.5 210,-471.5 362,-471.5 362,-452.5 210,-452.5"/>
<text text-anchor="middle" x="286" y="-459.5" font-family="Helvetica,sans-Serif" font-size="10.00">workspaceState.Turtle.move</text>
</a>
</g>
</g>
<!-- Node1&#45;&gt;Node19 -->
<g id="edge20" class="edge"><title>Node1&#45;&gt;Node19</title>
<path fill="none" stroke="midnightblue" d="M118.585,-509.308C140.601,-502.194 168.759,-493.309 194,-486 211.42,-480.955 230.842,-475.773 247.255,-471.521"/>
<polygon fill="midnightblue" stroke="midnightblue" points="117.365,-506.024 108.934,-512.44 119.526,-512.683 117.365,-506.024"/>
</g>
<!-- Node3 -->
<g id="node3" class="node"><title>Node3</title>
<g id="a_node3"><a xlink:href="../../d7/d23/interfacecommand_parsing_1_1drawable_obect_generation_interfaces_1_1_line_generator.html#a5e51e570ee2ac71f93cce35834969f1e" target="_top" xlink:title="commandParsing.drawableObect\lGenerationInterfaces.LineGenerator.generate\lDrawableObjectRepresentingLine">
<polygon fill="white" stroke="black" points="417,-528.5 417,-569.5 651,-569.5 651,-528.5 417,-528.5"/>
<text text-anchor="start" x="425" y="-557.5" font-family="Helvetica,sans-Serif" font-size="10.00">commandParsing.drawableObect</text>
<text text-anchor="start" x="425" y="-546.5" font-family="Helvetica,sans-Serif" font-size="10.00">GenerationInterfaces.LineGenerator.generate</text>
<text text-anchor="middle" x="534" y="-535.5" font-family="Helvetica,sans-Serif" font-size="10.00">DrawableObjectRepresentingLine</text>
</a>
</g>
</g>
<!-- Node2&#45;&gt;Node3 -->
<g id="edge2" class="edge"><title>Node2&#45;&gt;Node3</title>
<path fill="none" stroke="midnightblue" d="M387.801,-546.049C397.321,-546.242 407.025,-546.44 416.674,-546.636"/>
<polygon fill="midnightblue" stroke="midnightblue" points="387.622,-542.545 377.553,-545.841 387.48,-549.543 387.622,-542.545"/>
</g>
<!-- Node6 -->
<g id="node6" class="node"><title>Node6</title>
<g id="a_node6"><a xlink:href="../../df/d64/interfacecommand_parsing_1_1drawable_obect_generation_interfaces_1_1_turtle_generator.html#ad2df4af6c11d2ec038868c5520be6acd" target="_top" xlink:title="commandParsing.drawableObect\lGenerationInterfaces.TurtleGenerator.generate\lDrawableObjectRepresentingTurtle">
<polygon fill="white" stroke="black" points="414,-327.5 414,-368.5 654,-368.5 654,-327.5 414,-327.5"/>
<text text-anchor="start" x="422" y="-356.5" font-family="Helvetica,sans-Serif" font-size="10.00">commandParsing.drawableObect</text>
<text text-anchor="start" x="422" y="-345.5" font-family="Helvetica,sans-Serif" font-size="10.00">GenerationInterfaces.TurtleGenerator.generate</text>
<text text-anchor="middle" x="534" y="-334.5" font-family="Helvetica,sans-Serif" font-size="10.00">DrawableObjectRepresentingTurtle</text>
</a>
</g>
</g>
<!-- Node2&#45;&gt;Node6 -->
<g id="edge5" class="edge"><title>Node2&#45;&gt;Node6</title>
<path fill="none" stroke="midnightblue" d="M319.086,-522.973C336.781,-511.085 358.959,-495.697 378,-481 426.841,-443.301 480.895,-395.407 510.512,-368.592"/>
<polygon fill="midnightblue" stroke="midnightblue" points="316.657,-520.386 310.283,-528.849 320.543,-526.209 316.657,-520.386"/>
</g>
<!-- Node3&#45;&gt;Node4 -->
<g id="edge3" class="edge"><title>Node3&#45;&gt;Node4</title>
<path fill="none" stroke="midnightblue" d="M661.257,-571.174C673.155,-573.264 685.183,-575.376 696.99,-577.45"/>
<polygon fill="midnightblue" stroke="midnightblue" points="661.756,-567.708 651.301,-569.426 660.545,-574.603 661.756,-567.708"/>
</g>
<!-- Node3&#45;&gt;Node5 -->
<g id="edge4" class="edge"><title>Node3&#45;&gt;Node5</title>
<path fill="none" stroke="midnightblue" d="M661.727,-544.004C679.505,-543.303 697.562,-542.591 714.73,-541.914"/>
<polygon fill="midnightblue" stroke="midnightblue" points="661.155,-540.523 651.301,-544.415 661.431,-547.518 661.155,-540.523"/>
</g>
<!-- Node6&#45;&gt;Node4 -->
<g id="edge13" class="edge"><title>Node6&#45;&gt;Node4</title>
<path fill="none" stroke="midnightblue" d="M555.217,-377.116C596.128,-435.96 685.269,-563.764 690,-567 695.769,-570.946 701.996,-574.391 708.481,-577.397"/>
<polygon fill="midnightblue" stroke="midnightblue" points="557.897,-374.839 549.315,-368.625 552.148,-378.834 557.897,-374.839"/>
</g>
<!-- Node6&#45;&gt;Node5 -->
<g id="edge15" class="edge"><title>Node6&#45;&gt;Node5</title>
<path fill="none" stroke="midnightblue" d="M555.023,-376.749C581.648,-412.756 632.135,-473.749 690,-507 697.792,-511.478 706.222,-515.314 714.894,-518.601"/>
<polygon fill="midnightblue" stroke="midnightblue" points="557.804,-374.622 549.089,-368.598 552.145,-378.743 557.804,-374.622"/>
</g>
<!-- Node7 -->
<g id="node7" class="node"><title>Node7</title>
<g id="a_node7"><a xlink:href="../../da/df9/classcommand_parsing_1_1structural_command_parsing_1_1_multiple_turtle_command.html#ac35b7854cdc1ab7dcdbc9809a6db903c" target="_top" xlink:title="commandParsing.structural\lCommandParsing.MultipleTurtleCommand.make\lAndActivateGivenTurtles">
<polygon fill="white" stroke="black" points="691.5,-300.5 691.5,-341.5 938.5,-341.5 938.5,-300.5 691.5,-300.5"/>
<text text-anchor="start" x="699.5" y="-329.5" font-family="Helvetica,sans-Serif" font-size="10.00">commandParsing.structural</text>
<text text-anchor="start" x="699.5" y="-318.5" font-family="Helvetica,sans-Serif" font-size="10.00">CommandParsing.MultipleTurtleCommand.make</text>
<text text-anchor="middle" x="815" y="-307.5" font-family="Helvetica,sans-Serif" font-size="10.00">AndActivateGivenTurtles</text>
</a>
</g>
</g>
<!-- Node6&#45;&gt;Node7 -->
<g id="edge6" class="edge"><title>Node6&#45;&gt;Node7</title>
<path fill="none" stroke="midnightblue" d="M664.255,-335.491C673.251,-334.621 682.304,-333.745 691.263,-332.878"/>
<polygon fill="midnightblue" stroke="midnightblue" points="663.747,-332.024 654.13,-336.471 664.421,-338.992 663.747,-332.024"/>
</g>
<!-- Node11 -->
<g id="node11" class="node"><title>Node11</title>
<g id="a_node11"><a xlink:href="../../d1/d76/classcommand_parsing_1_1turtle_command_parsing_1_1turtle_attribute_setters_1_1_set_heading.html#ae69dccc512c0e9f0fe5341003fd048ea" target="_top" xlink:title="commandParsing.turtleCommand\lParsing.turtleAttributeSetters.\lSetHeading.operateOnComponents">
<polygon fill="white" stroke="black" points="721,-240.5 721,-281.5 909,-281.5 909,-240.5 721,-240.5"/>
<text text-anchor="start" x="729" y="-269.5" font-family="Helvetica,sans-Serif" font-size="10.00">commandParsing.turtleCommand</text>
<text text-anchor="start" x="729" y="-258.5" font-family="Helvetica,sans-Serif" font-size="10.00">Parsing.turtleAttributeSetters.</text>
<text text-anchor="middle" x="815" y="-247.5" font-family="Helvetica,sans-Serif" font-size="10.00">SetHeading.operateOnComponents</text>
</a>
</g>
</g>
<!-- Node6&#45;&gt;Node11 -->
<g id="edge10" class="edge"><title>Node6&#45;&gt;Node11</title>
<path fill="none" stroke="midnightblue" d="M595.554,-323.894C623.968,-313.058 658.451,-300.583 690,-291 700.808,-287.717 712.232,-284.552 723.596,-281.587"/>
<polygon fill="midnightblue" stroke="midnightblue" points="594.244,-320.648 586.163,-327.499 596.753,-327.183 594.244,-320.648"/>
</g>
<!-- Node12 -->
<g id="node12" class="node"><title>Node12</title>
<g id="a_node12"><a xlink:href="../../dd/d66/classcommand_parsing_1_1turtle_command_parsing_1_1turtle_movement_1_1_rotate.html#a9638cfc1f990cd9e8d09196875e555ae" target="_top" xlink:title="commandParsing.turtleCommand\lParsing.turtleMovement.Rotate.operate\lOnComponents">
<polygon fill="white" stroke="black" points="712.5,-180.5 712.5,-221.5 917.5,-221.5 917.5,-180.5 712.5,-180.5"/>
<text text-anchor="start" x="720.5" y="-209.5" font-family="Helvetica,sans-Serif" font-size="10.00">commandParsing.turtleCommand</text>
<text text-anchor="start" x="720.5" y="-198.5" font-family="Helvetica,sans-Serif" font-size="10.00">Parsing.turtleMovement.Rotate.operate</text>
<text text-anchor="middle" x="815" y="-187.5" font-family="Helvetica,sans-Serif" font-size="10.00">OnComponents</text>
</a>
</g>
</g>
<!-- Node6&#45;&gt;Node12 -->
<g id="edge11" class="edge"><title>Node6&#45;&gt;Node12</title>
<path fill="none" stroke="midnightblue" d="M563.623,-320.578C593.048,-293.872 641.322,-254.034 690,-231 697.408,-227.495 705.264,-224.376 713.285,-221.605"/>
<polygon fill="midnightblue" stroke="midnightblue" points="561.193,-318.057 556.199,-327.401 565.93,-323.211 561.193,-318.057"/>
</g>
<!-- Node13 -->
<g id="node13" class="node"><title>Node13</title>
<g id="a_node13"><a xlink:href="../../d9/db7/classcommand_parsing_1_1turtle_command_parsing_1_1turtle_attribute_setters_1_1_set_shape.html#a0ba18906dd13ecd9788f2930fe2c5c4b" target="_top" xlink:title="commandParsing.turtleCommand\lParsing.turtleAttributeSetters.\lSetShape.operateOnComponents">
<polygon fill="white" stroke="black" points="725.5,-120.5 725.5,-161.5 904.5,-161.5 904.5,-120.5 725.5,-120.5"/>
<text text-anchor="start" x="733.5" y="-149.5" font-family="Helvetica,sans-Serif" font-size="10.00">commandParsing.turtleCommand</text>
<text text-anchor="start" x="733.5" y="-138.5" font-family="Helvetica,sans-Serif" font-size="10.00">Parsing.turtleAttributeSetters.</text>
<text text-anchor="middle" x="815" y="-127.5" font-family="Helvetica,sans-Serif" font-size="10.00">SetShape.operateOnComponents</text>
</a>
</g>
</g>
<!-- Node6&#45;&gt;Node13 -->
<g id="edge12" class="edge"><title>Node6&#45;&gt;Node13</title>
<path fill="none" stroke="midnightblue" d="M552.419,-318.667C577.622,-278.883 628.087,-208.489 690,-171 700.799,-164.461 712.937,-159.346 725.282,-155.346"/>
<polygon fill="midnightblue" stroke="midnightblue" points="549.311,-317.038 546.996,-327.377 555.253,-320.738 549.311,-317.038"/>
</g>
<!-- Node14 -->
<g id="node14" class="node"><title>Node14</title>
<g id="a_node14"><a xlink:href="../../da/d63/classcommand_parsing_1_1turtle_command_parsing_1_1turtle_attribute_setters_1_1_set_towards.html#a287e5a64e0179d1de65f2ebb4d5622a2" target="_top" xlink:title="commandParsing.turtleCommand\lParsing.turtleAttributeSetters.\lSetTowards.operateOnComponents">
<polygon fill="white" stroke="black" points="722,-60.5 722,-101.5 908,-101.5 908,-60.5 722,-60.5"/>
<text text-anchor="start" x="730" y="-89.5" font-family="Helvetica,sans-Serif" font-size="10.00">commandParsing.turtleCommand</text>
<text text-anchor="start" x="730" y="-78.5" font-family="Helvetica,sans-Serif" font-size="10.00">Parsing.turtleAttributeSetters.</text>
<text text-anchor="middle" x="815" y="-67.5" font-family="Helvetica,sans-Serif" font-size="10.00">SetTowards.operateOnComponents</text>
</a>
</g>
</g>
<!-- Node6&#45;&gt;Node14 -->
<g id="edge14" class="edge"><title>Node6&#45;&gt;Node14</title>
<path fill="none" stroke="midnightblue" d="M546.024,-317.972C566.303,-267.091 614.492,-164.28 690,-111 699.591,-104.232 710.526,-98.9806 721.837,-94.9077"/>
<polygon fill="midnightblue" stroke="midnightblue" points="542.71,-316.837 542.34,-327.426 549.232,-319.379 542.71,-316.837"/>
</g>
<!-- Node15 -->
<g id="node15" class="node"><title>Node15</title>
<g id="a_node15"><a xlink:href="../../d1/de7/classcommand_parsing_1_1turtle_command_parsing_1_1turtle_attribute_setters_1_1_hide_turtle.html#af7c45d61a317edddfeee3960e0a3b59e" target="_top" xlink:title="commandParsing.turtleCommand\lParsing.turtleAttributeSetters.\lHideTurtle.parse">
<polygon fill="white" stroke="black" points="725.5,-0.5 725.5,-41.5 904.5,-41.5 904.5,-0.5 725.5,-0.5"/>
<text text-anchor="start" x="733.5" y="-29.5" font-family="Helvetica,sans-Serif" font-size="10.00">commandParsing.turtleCommand</text>
<text text-anchor="start" x="733.5" y="-18.5" font-family="Helvetica,sans-Serif" font-size="10.00">Parsing.turtleAttributeSetters.</text>
<text text-anchor="middle" x="815" y="-7.5" font-family="Helvetica,sans-Serif" font-size="10.00">HideTurtle.parse</text>
</a>
</g>
</g>
<!-- Node6&#45;&gt;Node15 -->
<g id="edge16" class="edge"><title>Node6&#45;&gt;Node15</title>
<path fill="none" stroke="midnightblue" d="M541.939,-317.539C557.395,-256.904 600.557,-120.932 690,-51 700.382,-42.8827 712.636,-36.9181 725.332,-32.544"/>
<polygon fill="midnightblue" stroke="midnightblue" points="538.534,-316.731 539.532,-327.279 545.329,-318.411 538.534,-316.731"/>
</g>
<!-- Node16 -->
<g id="node16" class="node"><title>Node16</title>
<g id="a_node16"><a xlink:href="../../d6/daa/classcommand_parsing_1_1turtle_command_parsing_1_1turtle_attribute_setters_1_1_show_turtle.html#a806202bb6da0c5999d8c7298f4ed948b" target="_top" xlink:title="commandParsing.turtleCommand\lParsing.turtleAttributeSetters.\lShowTurtle.parse">
<polygon fill="white" stroke="black" points="725.5,-457.5 725.5,-498.5 904.5,-498.5 904.5,-457.5 725.5,-457.5"/>
<text text-anchor="start" x="733.5" y="-486.5" font-family="Helvetica,sans-Serif" font-size="10.00">commandParsing.turtleCommand</text>
<text text-anchor="start" x="733.5" y="-475.5" font-family="Helvetica,sans-Serif" font-size="10.00">Parsing.turtleAttributeSetters.</text>
<text text-anchor="middle" x="815" y="-464.5" font-family="Helvetica,sans-Serif" font-size="10.00">ShowTurtle.parse</text>
</a>
</g>
</g>
<!-- Node6&#45;&gt;Node16 -->
<g id="edge17" class="edge"><title>Node6&#45;&gt;Node16</title>
<path fill="none" stroke="midnightblue" d="M568.968,-374.721C599.171,-397.267 645.343,-428.846 690,-448 701.196,-452.802 713.304,-456.925 725.417,-460.44"/>
<polygon fill="midnightblue" stroke="midnightblue" points="570.977,-371.852 560.887,-368.619 566.758,-377.438 570.977,-371.852"/>
</g>
<!-- Node17 -->
<g id="node17" class="node"><title>Node17</title>
<g id="a_node17"><a xlink:href="../../d0/dc1/classcommand_parsing_1_1turtle_command_parsing_1_1_make_turtle.html#a6ed9fedb55ea99caa7a891b0c9bbd20a" target="_top" xlink:title="commandParsing.turtleCommand\lParsing.MakeTurtle.parse">
<polygon fill="white" stroke="black" points="725.5,-409 725.5,-439 904.5,-439 904.5,-409 725.5,-409"/>
<text text-anchor="start" x="733.5" y="-427" font-family="Helvetica,sans-Serif" font-size="10.00">commandParsing.turtleCommand</text>
<text text-anchor="middle" x="815" y="-416" font-family="Helvetica,sans-Serif" font-size="10.00">Parsing.MakeTurtle.parse</text>
</a>
</g>
</g>
<!-- Node6&#45;&gt;Node17 -->
<g id="edge18" class="edge"><title>Node6&#45;&gt;Node17</title>
<path fill="none" stroke="midnightblue" d="M601.714,-371.879C628.883,-381.097 660.729,-391.263 690,-399 703.588,-402.592 718.133,-405.95 732.305,-408.967"/>
<polygon fill="midnightblue" stroke="midnightblue" points="602.524,-368.457 591.929,-368.532 600.258,-375.081 602.524,-368.457"/>
</g>
<!-- Node18 -->
<g id="node18" class="node"><title>Node18</title>
<g id="a_node18"><a xlink:href="../../d7/dd2/classcommand_parsing_1_1turtle_command_parsing_1_1_stamp.html#a05a3413c6b4195da962917a40ba016ed" target="_top" xlink:title="commandParsing.turtleCommand\lParsing.Stamp.parse">
<polygon fill="white" stroke="black" points="725.5,-360 725.5,-390 904.5,-390 904.5,-360 725.5,-360"/>
<text text-anchor="start" x="733.5" y="-378" font-family="Helvetica,sans-Serif" font-size="10.00">commandParsing.turtleCommand</text>
<text text-anchor="middle" x="815" y="-367" font-family="Helvetica,sans-Serif" font-size="10.00">Parsing.Stamp.parse</text>
</a>
</g>
</g>
<!-- Node6&#45;&gt;Node18 -->
<g id="edge19" class="edge"><title>Node6&#45;&gt;Node18</title>
<path fill="none" stroke="midnightblue" d="M664.23,-360.506C684.87,-362.504 705.811,-364.53 725.233,-366.41"/>
<polygon fill="midnightblue" stroke="midnightblue" points="664.421,-357.008 654.13,-359.529 663.747,-363.976 664.421,-357.008"/>
</g>
<!-- Node8 -->
<g id="node8" class="node"><title>Node8</title>
<g id="a_node8"><a xlink:href="../../d7/d50/classcommand_parsing_1_1structural_command_parsing_1_1_ask.html#aa19ad64684414b0ef6112ac7e75e992d" target="_top" xlink:title="commandParsing.structural\lCommandParsing.Ask.parse">
<polygon fill="white" stroke="black" points="986,-355 986,-385 1138,-385 1138,-355 986,-355"/>
<text text-anchor="start" x="994" y="-373" font-family="Helvetica,sans-Serif" font-size="10.00">commandParsing.structural</text>
<text text-anchor="middle" x="1062" y="-362" font-family="Helvetica,sans-Serif" font-size="10.00">CommandParsing.Ask.parse</text>
</a>
</g>
</g>
<!-- Node7&#45;&gt;Node8 -->
<g id="edge7" class="edge"><title>Node7&#45;&gt;Node8</title>
<path fill="none" stroke="midnightblue" d="M928.651,-343.53C948.088,-347.418 967.858,-351.372 985.986,-354.997"/>
<polygon fill="midnightblue" stroke="midnightblue" points="929.329,-340.097 918.837,-341.567 927.957,-346.961 929.329,-340.097"/>
</g>
<!-- Node9 -->
<g id="node9" class="node"><title>Node9</title>
<g id="a_node9"><a xlink:href="../../db/da0/classcommand_parsing_1_1structural_command_parsing_1_1_tell.html#aaab258a057ef8d0fd8ff6980e59dc719" target="_top" xlink:title="commandParsing.structural\lCommandParsing.Tell.parse">
<polygon fill="white" stroke="black" points="987.5,-306 987.5,-336 1136.5,-336 1136.5,-306 987.5,-306"/>
<text text-anchor="start" x="995.5" y="-324" font-family="Helvetica,sans-Serif" font-size="10.00">commandParsing.structural</text>
<text text-anchor="middle" x="1062" y="-313" font-family="Helvetica,sans-Serif" font-size="10.00">CommandParsing.Tell.parse</text>
</a>
</g>
</g>
<!-- Node7&#45;&gt;Node9 -->
<g id="edge8" class="edge"><title>Node7&#45;&gt;Node9</title>
<path fill="none" stroke="midnightblue" d="M948.961,-321C962.143,-321 975.162,-321 987.402,-321"/>
<polygon fill="midnightblue" stroke="midnightblue" points="948.859,-317.5 938.859,-321 948.859,-324.5 948.859,-317.5"/>
</g>
<!-- Node10 -->
<g id="node10" class="node"><title>Node10</title>
<g id="a_node10"><a xlink:href="../../d7/d78/classcommand_parsing_1_1structural_command_parsing_1_1_ask_with.html#a934aa5eda34ccd0b9703e578753031fb" target="_top" xlink:title="commandParsing.structural\lCommandParsing.AskWith.parse">
<polygon fill="white" stroke="black" points="976,-257 976,-287 1148,-287 1148,-257 976,-257"/>
<text text-anchor="start" x="984" y="-275" font-family="Helvetica,sans-Serif" font-size="10.00">commandParsing.structural</text>
<text text-anchor="middle" x="1062" y="-264" font-family="Helvetica,sans-Serif" font-size="10.00">CommandParsing.AskWith.parse</text>
</a>
</g>
</g>
<!-- Node7&#45;&gt;Node10 -->
<g id="edge9" class="edge"><title>Node7&#45;&gt;Node10</title>
<path fill="none" stroke="midnightblue" d="M928.651,-298.47C948.088,-294.582 967.858,-290.628 985.986,-287.003"/>
<polygon fill="midnightblue" stroke="midnightblue" points="927.957,-295.039 918.837,-300.433 929.329,-301.903 927.957,-295.039"/>
</g>
</g>
</svg>
