<?xml version="1.0" encoding="UTF-8" standalone="no"?>
<!DOCTYPE svg PUBLIC "-//W3C//DTD SVG 1.1//EN"
 "http://www.w3.org/Graphics/SVG/1.1/DTD/svg11.dtd">
<!-- Generated by graphviz version 2.36.0 (20140111.2315)
 -->
<!-- Title: workspaceState.Location.Location Pages: 1 -->
<svg width="346pt" height="66pt"
 viewBox="0.00 0.00 346.00 66.00" xmlns="http://www.w3.org/2000/svg" xmlns:xlink="http://www.w3.org/1999/xlink">
<g id="graph0" class="graph" transform="scale(1 1) rotate(0) translate(4 62)">
<title>workspaceState.Location.Location</title>
<polygon fill="white" stroke="none" points="-4,4 -4,-62 342,-62 342,4 -4,4"/>
<!-- Node1 -->
<g id="node1" class="node"><title>Node1</title>
<polygon fill="#bfbfbf" stroke="black" points="0,-14 0,-44 140,-44 140,-14 0,-14"/>
<text text-anchor="start" x="8" y="-32" font-family="Helvetica,sans-Serif" font-size="10.00">workspaceState.Location.</text>
<text text-anchor="middle" x="70" y="-21" font-family="Helvetica,sans-Serif" font-size="10.00">Location</text>
</g>
<!-- Node2 -->
<g id="node2" class="node"><title>Node2</title>
<g id="a_node2"><a xlink:href="../../d0/d77/classworkspace_state_1_1_location.html#a31253ea7c01289f9c53d8353739de0a1" target="_top" xlink:title="workspaceState.Location.getX">
<polygon fill="white" stroke="black" points="176.5,-38.5 176.5,-57.5 337.5,-57.5 337.5,-38.5 176.5,-38.5"/>
<text text-anchor="middle" x="257" y="-45.5" font-family="Helvetica,sans-Serif" font-size="10.00">workspaceState.Location.getX</text>
</a>
</g>
</g>
<!-- Node1&#45;&gt;Node2 -->
<g id="edge1" class="edge"><title>Node1&#45;&gt;Node2</title>
<path fill="none" stroke="midnightblue" d="M140.15,-36.1019C148.633,-36.9731 157.397,-37.8732 166.129,-38.77"/>
<polygon fill="midnightblue" stroke="midnightblue" points="166.041,-42.2793 176.346,-39.8194 166.756,-35.3159 166.041,-42.2793"/>
</g>
<!-- Node3 -->
<g id="node3" class="node"><title>Node3</title>
<g id="a_node3"><a xlink:href="../../d0/d77/classworkspace_state_1_1_location.html#a944e143017d77d851ea8265bba48917c" target="_top" xlink:title="workspaceState.Location.getY">
<polygon fill="white" stroke="black" points="176.5,-0.5 176.5,-19.5 337.5,-19.5 337.5,-0.5 176.5,-0.5"/>
<text text-anchor="middle" x="257" y="-7.5" font-family="Helvetica,sans-Serif" font-size="10.00">workspaceState.Location.getY</text>
</a>
</g>
</g>
<!-- Node1&#45;&gt;Node3 -->
<g id="edge2" class="edge"><title>Node1&#45;&gt;Node3</title>
<path fill="none" stroke="midnightblue" d="M140.15,-21.8981C148.633,-21.0269 157.397,-20.1268 166.129,-19.23"/>
<polygon fill="midnightblue" stroke="midnightblue" points="166.756,-22.6841 176.346,-18.1806 166.041,-15.7207 166.756,-22.6841"/>
</g>
</g>
</svg>
