<?xml version="1.0" encoding="UTF-8" standalone="no"?>
<!DOCTYPE svg PUBLIC "-//W3C//DTD SVG 1.1//EN"
 "http://www.w3.org/Graphics/SVG/1.1/DTD/svg11.dtd">
<!-- Generated by graphviz version 2.36.0 (20140111.2315)
 -->
<!-- Title: commandParsing.structuralCommandParsing.MultipleTurtleCommand.saveCurrentActiveTurtles Pages: 1 -->
<svg width="474pt" height="48pt"
 viewBox="0.00 0.00 474.00 48.00" xmlns="http://www.w3.org/2000/svg" xmlns:xlink="http://www.w3.org/1999/xlink">
<g id="graph0" class="graph" transform="scale(1 1) rotate(0) translate(4 44)">
<title>commandParsing.structuralCommandParsing.MultipleTurtleCommand.saveCurrentActiveTurtles</title>
<polygon fill="white" stroke="none" points="-4,4 -4,-44 470,-44 470,4 -4,4"/>
<!-- Node1 -->
<g id="node1" class="node"><title>Node1</title>
<polygon fill="#bfbfbf" stroke="black" points="0,0.5 0,-40.5 242,-40.5 242,0.5 0,0.5"/>
<text text-anchor="start" x="8" y="-28.5" font-family="Helvetica,sans-Serif" font-size="10.00">commandParsing.structural</text>
<text text-anchor="start" x="8" y="-17.5" font-family="Helvetica,sans-Serif" font-size="10.00">CommandParsing.MultipleTurtleCommand.save</text>
<text text-anchor="middle" x="121" y="-6.5" font-family="Helvetica,sans-Serif" font-size="10.00">CurrentActiveTurtles</text>
</g>
<!-- Node2 -->
<g id="node2" class="node"><title>Node2</title>
<g id="a_node2"><a xlink:href="../../db/d1f/classworkspace_state_1_1_turtle_collection.html#a6c49b4d7d24c0ed82ea491185b023cf0" target="_top" xlink:title="workspaceState.TurtleCollection.get\lActiveTurtles">
<polygon fill="white" stroke="black" points="278.5,-5 278.5,-35 465.5,-35 465.5,-5 278.5,-5"/>
<text text-anchor="start" x="286.5" y="-23" font-family="Helvetica,sans-Serif" font-size="10.00">workspaceState.TurtleCollection.get</text>
<text text-anchor="middle" x="372" y="-12" font-family="Helvetica,sans-Serif" font-size="10.00">ActiveTurtles</text>
</a>
</g>
</g>
<!-- Node1&#45;&gt;Node2 -->
<g id="edge1" class="edge"><title>Node1&#45;&gt;Node2</title>
<path fill="none" stroke="midnightblue" d="M242.124,-20C250.884,-20 259.672,-20 268.316,-20"/>
<polygon fill="midnightblue" stroke="midnightblue" points="268.387,-23.5001 278.387,-20 268.387,-16.5001 268.387,-23.5001"/>
</g>
</g>
</svg>
