<?xml version="1.0" encoding="UTF-8" standalone="no"?>
<!DOCTYPE svg PUBLIC "-//W3C//DTD SVG 1.1//EN"
 "http://www.w3.org/Graphics/SVG/1.1/DTD/svg11.dtd">
<!-- Generated by graphviz version 2.36.0 (20140111.2315)
 -->
<!-- Title: commandParsing.structuralCommandParsing.MultipleTurtleCommand.restoreActiveTurtles Pages: 1 -->
<svg width="508pt" height="48pt"
 viewBox="0.00 0.00 508.00 48.00" xmlns="http://www.w3.org/2000/svg" xmlns:xlink="http://www.w3.org/1999/xlink">
<g id="graph0" class="graph" transform="scale(1 1) rotate(0) translate(4 44)">
<title>commandParsing.structuralCommandParsing.MultipleTurtleCommand.restoreActiveTurtles</title>
<polygon fill="white" stroke="none" points="-4,4 -4,-44 504,-44 504,4 -4,4"/>
<!-- Node1 -->
<g id="node1" class="node"><title>Node1</title>
<polygon fill="#bfbfbf" stroke="black" points="0,0.5 0,-40.5 254,-40.5 254,0.5 0,0.5"/>
<text text-anchor="start" x="8" y="-28.5" font-family="Helvetica,sans-Serif" font-size="10.00">commandParsing.structural</text>
<text text-anchor="start" x="8" y="-17.5" font-family="Helvetica,sans-Serif" font-size="10.00">CommandParsing.MultipleTurtleCommand.restore</text>
<text text-anchor="middle" x="127" y="-6.5" font-family="Helvetica,sans-Serif" font-size="10.00">ActiveTurtles</text>
</g>
<!-- Node2 -->
<g id="node2" class="node"><title>Node2</title>
<g id="a_node2"><a xlink:href="../../db/d1f/classworkspace_state_1_1_turtle_collection.html#a79a25f886bf29b5b691520b4cd3fa682" target="_top" xlink:title="workspaceState.TurtleCollection.activate\lTurtle">
<polygon fill="white" stroke="black" points="290.5,-5 290.5,-35 499.5,-35 499.5,-5 290.5,-5"/>
<text text-anchor="start" x="298.5" y="-23" font-family="Helvetica,sans-Serif" font-size="10.00">workspaceState.TurtleCollection.activate</text>
<text text-anchor="middle" x="395" y="-12" font-family="Helvetica,sans-Serif" font-size="10.00">Turtle</text>
</a>
</g>
</g>
<!-- Node1&#45;&gt;Node2 -->
<g id="edge1" class="edge"><title>Node1&#45;&gt;Node2</title>
<path fill="none" stroke="midnightblue" d="M254.378,-20C263.05,-20 271.758,-20 280.357,-20"/>
<polygon fill="midnightblue" stroke="midnightblue" points="280.391,-23.5001 290.391,-20 280.391,-16.5001 280.391,-23.5001"/>
</g>
</g>
</svg>
