<?xml version="1.0" encoding="UTF-8" standalone="no"?>
<!DOCTYPE svg PUBLIC "-//W3C//DTD SVG 1.1//EN"
 "http://www.w3.org/Graphics/SVG/1.1/DTD/svg11.dtd">
<!-- Generated by graphviz version 2.36.0 (20140111.2315)
 -->
<!-- Title: commandParsing.structuralCommandParsing.MultipleTurtleCommand.determineTurtlesToActivate Pages: 1 -->
<svg width="466pt" height="87pt"
 viewBox="0.00 0.00 466.00 87.00" xmlns="http://www.w3.org/2000/svg" xmlns:xlink="http://www.w3.org/1999/xlink">
<g id="graph0" class="graph" transform="scale(1 1) rotate(0) translate(4 83)">
<title>commandParsing.structuralCommandParsing.MultipleTurtleCommand.determineTurtlesToActivate</title>
<polygon fill="white" stroke="none" points="-4,4 -4,-83 462,-83 462,4 -4,4"/>
<!-- Node1 -->
<g id="node1" class="node"><title>Node1</title>
<polygon fill="#bfbfbf" stroke="black" points="0.5,-18.5 0.5,-59.5 269.5,-59.5 269.5,-18.5 0.5,-18.5"/>
<text text-anchor="start" x="8.5" y="-47.5" font-family="Helvetica,sans-Serif" font-size="10.00">commandParsing.structural</text>
<text text-anchor="start" x="8.5" y="-36.5" font-family="Helvetica,sans-Serif" font-size="10.00">CommandParsing.MultipleTurtleCommand.determine</text>
<text text-anchor="middle" x="135" y="-25.5" font-family="Helvetica,sans-Serif" font-size="10.00">TurtlesToActivate</text>
</g>
<!-- Node2 -->
<g id="node2" class="node"><title>Node2</title>
<g id="a_node2"><a xlink:href="../../d7/d50/classcommand_parsing_1_1structural_command_parsing_1_1_ask.html#aa19ad64684414b0ef6112ac7e75e992d" target="_top" xlink:title="commandParsing.structural\lCommandParsing.Ask.parse">
<polygon fill="white" stroke="black" points="306,-49 306,-79 458,-79 458,-49 306,-49"/>
<text text-anchor="start" x="314" y="-67" font-family="Helvetica,sans-Serif" font-size="10.00">commandParsing.structural</text>
<text text-anchor="middle" x="382" y="-56" font-family="Helvetica,sans-Serif" font-size="10.00">CommandParsing.Ask.parse</text>
</a>
</g>
</g>
<!-- Node1&#45;&gt;Node2 -->
<g id="edge1" class="edge"><title>Node1&#45;&gt;Node2</title>
<path fill="none" stroke="midnightblue" d="M279.763,-53.6696C288.704,-54.582 297.489,-55.4785 305.92,-56.3388"/>
<polygon fill="midnightblue" stroke="midnightblue" points="279.916,-50.1672 269.612,-52.6339 279.205,-57.131 279.916,-50.1672"/>
</g>
<!-- Node3 -->
<g id="node3" class="node"><title>Node3</title>
<g id="a_node3"><a xlink:href="../../db/da0/classcommand_parsing_1_1structural_command_parsing_1_1_tell.html#aaab258a057ef8d0fd8ff6980e59dc719" target="_top" xlink:title="commandParsing.structural\lCommandParsing.Tell.parse">
<polygon fill="white" stroke="black" points="307.5,-0 307.5,-30 456.5,-30 456.5,-0 307.5,-0"/>
<text text-anchor="start" x="315.5" y="-18" font-family="Helvetica,sans-Serif" font-size="10.00">commandParsing.structural</text>
<text text-anchor="middle" x="382" y="-7" font-family="Helvetica,sans-Serif" font-size="10.00">CommandParsing.Tell.parse</text>
</a>
</g>
</g>
<!-- Node1&#45;&gt;Node3 -->
<g id="edge2" class="edge"><title>Node1&#45;&gt;Node3</title>
<path fill="none" stroke="midnightblue" d="M279.614,-24.9316C289.161,-23.9965 298.532,-23.0785 307.484,-22.2016"/>
<polygon fill="midnightblue" stroke="midnightblue" points="279.223,-21.4531 269.612,-25.9115 279.906,-28.4198 279.223,-21.4531"/>
</g>
</g>
</svg>
