<?xml version="1.0" encoding="UTF-8" standalone="no"?>
<!DOCTYPE svg PUBLIC "-//W3C//DTD SVG 1.1//EN"
 "http://www.w3.org/Graphics/SVG/1.1/DTD/svg11.dtd">
<!-- Generated by graphviz version 2.36.0 (20140111.2315)
 -->
<!-- Title: commandParsing.structuralCommandParsing.MultipleTurtleCommand.saveCurrentActiveTurtles Pages: 1 -->
<svg width="458pt" height="87pt"
 viewBox="0.00 0.00 458.00 87.00" xmlns="http://www.w3.org/2000/svg" xmlns:xlink="http://www.w3.org/1999/xlink">
<g id="graph0" class="graph" transform="scale(1 1) rotate(0) translate(4 83)">
<title>commandParsing.structuralCommandParsing.MultipleTurtleCommand.saveCurrentActiveTurtles</title>
<polygon fill="white" stroke="none" points="-4,4 -4,-83 454,-83 454,4 -4,4"/>
<!-- Node1 -->
<g id="node1" class="node"><title>Node1</title>
<polygon fill="#bfbfbf" stroke="black" points="0,-18.5 0,-59.5 242,-59.5 242,-18.5 0,-18.5"/>
<text text-anchor="start" x="8" y="-47.5" font-family="Helvetica,sans-Serif" font-size="10.00">commandParsing.structural</text>
<text text-anchor="start" x="8" y="-36.5" font-family="Helvetica,sans-Serif" font-size="10.00">CommandParsing.MultipleTurtleCommand.save</text>
<text text-anchor="middle" x="121" y="-25.5" font-family="Helvetica,sans-Serif" font-size="10.00">CurrentActiveTurtles</text>
</g>
<!-- Node2 -->
<g id="node2" class="node"><title>Node2</title>
<g id="a_node2"><a xlink:href="../../d7/d50/classcommand_parsing_1_1structural_command_parsing_1_1_ask.html#aa19ad64684414b0ef6112ac7e75e992d" target="_top" xlink:title="commandParsing.structural\lCommandParsing.Ask.parse">
<polygon fill="white" stroke="black" points="288,-49 288,-79 440,-79 440,-49 288,-49"/>
<text text-anchor="start" x="296" y="-67" font-family="Helvetica,sans-Serif" font-size="10.00">commandParsing.structural</text>
<text text-anchor="middle" x="364" y="-56" font-family="Helvetica,sans-Serif" font-size="10.00">CommandParsing.Ask.parse</text>
</a>
</g>
</g>
<!-- Node1&#45;&gt;Node2 -->
<g id="edge1" class="edge"><title>Node1&#45;&gt;Node2</title>
<path fill="none" stroke="midnightblue" d="M252.351,-52.5219C264.474,-53.7794 276.463,-55.0231 287.822,-56.2015"/>
<polygon fill="midnightblue" stroke="midnightblue" points="252.455,-49.014 242.147,-51.4634 251.732,-55.9766 252.455,-49.014"/>
</g>
<!-- Node3 -->
<g id="node3" class="node"><title>Node3</title>
<g id="a_node3"><a xlink:href="../../d7/d78/classcommand_parsing_1_1structural_command_parsing_1_1_ask_with.html#a934aa5eda34ccd0b9703e578753031fb" target="_top" xlink:title="commandParsing.structural\lCommandParsing.AskWith.parse">
<polygon fill="white" stroke="black" points="278,-0 278,-30 450,-30 450,-0 278,-0"/>
<text text-anchor="start" x="286" y="-18" font-family="Helvetica,sans-Serif" font-size="10.00">commandParsing.structural</text>
<text text-anchor="middle" x="364" y="-7" font-family="Helvetica,sans-Serif" font-size="10.00">CommandParsing.AskWith.parse</text>
</a>
</g>
</g>
<!-- Node1&#45;&gt;Node3 -->
<g id="edge2" class="edge"><title>Node1&#45;&gt;Node3</title>
<path fill="none" stroke="midnightblue" d="M252.285,-26.0256C260.903,-25.1673 269.455,-24.3157 277.761,-23.4885"/>
<polygon fill="midnightblue" stroke="midnightblue" points="251.751,-22.5613 242.147,-27.0352 252.445,-29.5269 251.751,-22.5613"/>
</g>
</g>
</svg>
