<?xml version="1.0" encoding="UTF-8" standalone="no"?>
<!DOCTYPE svg PUBLIC "-//W3C//DTD SVG 1.1//EN"
 "http://www.w3.org/Graphics/SVG/1.1/DTD/svg11.dtd">
<!-- Generated by graphviz version 2.36.0 (20140111.2315)
 -->
<!-- Title: commandParsing.structuralCommandParsing.MultipleTurtleCommand.makeAndActivateGivenTurtles Pages: 1 -->
<svg width="978pt" height="361pt"
 viewBox="0.00 0.00 978.00 361.00" xmlns="http://www.w3.org/2000/svg" xmlns:xlink="http://www.w3.org/1999/xlink">
<g id="graph0" class="graph" transform="scale(1 1) rotate(0) translate(4 357)">
<title>commandParsing.structuralCommandParsing.MultipleTurtleCommand.makeAndActivateGivenTurtles</title>
<polygon fill="white" stroke="none" points="-4,4 -4,-357 974,-357 974,4 -4,4"/>
<!-- Node1 -->
<g id="node1" class="node"><title>Node1</title>
<polygon fill="#bfbfbf" stroke="black" points="0.5,-153.5 0.5,-194.5 247.5,-194.5 247.5,-153.5 0.5,-153.5"/>
<text text-anchor="start" x="8.5" y="-182.5" font-family="Helvetica,sans-Serif" font-size="10.00">commandParsing.structural</text>
<text text-anchor="start" x="8.5" y="-171.5" font-family="Helvetica,sans-Serif" font-size="10.00">CommandParsing.MultipleTurtleCommand.make</text>
<text text-anchor="middle" x="124" y="-160.5" font-family="Helvetica,sans-Serif" font-size="10.00">AndActivateGivenTurtles</text>
</g>
<!-- Node2 -->
<g id="node2" class="node"><title>Node2</title>
<g id="a_node2"><a xlink:href="../../db/d1f/classworkspace_state_1_1_turtle_collection.html#a79a25f886bf29b5b691520b4cd3fa682" target="_top" xlink:title="workspaceState.TurtleCollection.activate\lTurtle">
<polygon fill="white" stroke="black" points="299.5,-262 299.5,-292 508.5,-292 508.5,-262 299.5,-262"/>
<text text-anchor="start" x="307.5" y="-280" font-family="Helvetica,sans-Serif" font-size="10.00">workspaceState.TurtleCollection.activate</text>
<text text-anchor="middle" x="404" y="-269" font-family="Helvetica,sans-Serif" font-size="10.00">Turtle</text>
</a>
</g>
</g>
<!-- Node1&#45;&gt;Node2 -->
<g id="edge1" class="edge"><title>Node1&#45;&gt;Node2</title>
<path fill="none" stroke="midnightblue" d="M160.524,-194.627C192.042,-212.141 239.81,-236.786 284,-252 291.891,-254.717 300.182,-257.19 308.562,-259.432"/>
<polygon fill="midnightblue" stroke="midnightblue" points="307.866,-262.866 318.422,-261.956 309.603,-256.085 307.866,-262.866"/>
</g>
<!-- Node3 -->
<g id="node3" class="node"><title>Node3</title>
<g id="a_node3"><a xlink:href="../../db/d1f/classworkspace_state_1_1_turtle_collection.html#af419bef3394c00e4313fd549fbcbd9a8" target="_top" xlink:title="workspaceState.TurtleCollection.add\lTurtle">
<polygon fill="white" stroke="black" points="309.5,-213 309.5,-243 498.5,-243 498.5,-213 309.5,-213"/>
<text text-anchor="start" x="317.5" y="-231" font-family="Helvetica,sans-Serif" font-size="10.00">workspaceState.TurtleCollection.add</text>
<text text-anchor="middle" x="404" y="-220" font-family="Helvetica,sans-Serif" font-size="10.00">Turtle</text>
</a>
</g>
</g>
<!-- Node1&#45;&gt;Node3 -->
<g id="edge2" class="edge"><title>Node1&#45;&gt;Node3</title>
<path fill="none" stroke="midnightblue" d="M230.893,-194.569C258.785,-199.987 288.566,-205.772 315.379,-210.98"/>
<polygon fill="midnightblue" stroke="midnightblue" points="315.016,-214.475 325.499,-212.946 316.35,-207.603 315.016,-214.475"/>
</g>
<!-- Node5 -->
<g id="node5" class="node"><title>Node5</title>
<g id="a_node5"><a xlink:href="../../df/d64/interfacecommand_parsing_1_1drawable_obect_generation_interfaces_1_1_turtle_generator.html#ad2df4af6c11d2ec038868c5520be6acd" target="_top" xlink:title="commandParsing.drawableObect\lGenerationInterfaces.TurtleGenerator.generate\lDrawableObjectRepresentingTurtle">
<polygon fill="white" stroke="black" points="284,-153.5 284,-194.5 524,-194.5 524,-153.5 284,-153.5"/>
<text text-anchor="start" x="292" y="-182.5" font-family="Helvetica,sans-Serif" font-size="10.00">commandParsing.drawableObect</text>
<text text-anchor="start" x="292" y="-171.5" font-family="Helvetica,sans-Serif" font-size="10.00">GenerationInterfaces.TurtleGenerator.generate</text>
<text text-anchor="middle" x="404" y="-160.5" font-family="Helvetica,sans-Serif" font-size="10.00">DrawableObjectRepresentingTurtle</text>
</a>
</g>
</g>
<!-- Node1&#45;&gt;Node5 -->
<g id="edge4" class="edge"><title>Node1&#45;&gt;Node5</title>
<path fill="none" stroke="midnightblue" d="M247.744,-174C256.317,-174 264.973,-174 273.58,-174"/>
<polygon fill="midnightblue" stroke="midnightblue" points="273.654,-177.5 283.654,-174 273.654,-170.5 273.654,-177.5"/>
</g>
<!-- Node14 -->
<g id="node14" class="node"><title>Node14</title>
<g id="a_node14"><a xlink:href="../../db/d1f/classworkspace_state_1_1_turtle_collection.html#ae03078f5b9aa6fc7a83f65631683048b" target="_top" xlink:title="workspaceState.TurtleCollection.get\lLastAddedTurtle">
<polygon fill="white" stroke="black" points="310.5,-105 310.5,-135 497.5,-135 497.5,-105 310.5,-105"/>
<text text-anchor="start" x="318.5" y="-123" font-family="Helvetica,sans-Serif" font-size="10.00">workspaceState.TurtleCollection.get</text>
<text text-anchor="middle" x="404" y="-112" font-family="Helvetica,sans-Serif" font-size="10.00">LastAddedTurtle</text>
</a>
</g>
</g>
<!-- Node1&#45;&gt;Node14 -->
<g id="edge13" class="edge"><title>Node1&#45;&gt;Node14</title>
<path fill="none" stroke="midnightblue" d="M230.893,-153.431C258.785,-148.013 288.566,-142.228 315.379,-137.02"/>
<polygon fill="midnightblue" stroke="midnightblue" points="316.35,-140.397 325.499,-135.054 315.016,-133.525 316.35,-140.397"/>
</g>
<!-- Node15 -->
<g id="node15" class="node"><title>Node15</title>
<g id="a_node15"><a xlink:href="../../db/d1f/classworkspace_state_1_1_turtle_collection.html#add93f937daadc46dc1e3e4e80f58566f" target="_top" xlink:title="workspaceState.TurtleCollection.has\lTurtleWithID">
<polygon fill="white" stroke="black" points="310,-56 310,-86 498,-86 498,-56 310,-56"/>
<text text-anchor="start" x="318" y="-74" font-family="Helvetica,sans-Serif" font-size="10.00">workspaceState.TurtleCollection.has</text>
<text text-anchor="middle" x="404" y="-63" font-family="Helvetica,sans-Serif" font-size="10.00">TurtleWithID</text>
</a>
</g>
</g>
<!-- Node1&#45;&gt;Node15 -->
<g id="edge14" class="edge"><title>Node1&#45;&gt;Node15</title>
<path fill="none" stroke="midnightblue" d="M159.838,-153.348C191.306,-135.518 239.386,-110.285 284,-95 290.785,-92.6754 297.869,-90.5447 305.053,-88.5974"/>
<polygon fill="midnightblue" stroke="midnightblue" points="306.086,-91.9456 314.892,-86.0548 304.334,-85.1683 306.086,-91.9456"/>
</g>
<!-- Node4 -->
<g id="node4" class="node"><title>Node4</title>
<g id="a_node4"><a xlink:href="../../db/d1f/classworkspace_state_1_1_turtle_collection.html#a2a83ac80ea6d84c1b032f2df8ac2fb0d" target="_top" xlink:title="workspaceState.TurtleCollection.generate\lValidTurtleID">
<polygon fill="white" stroke="black" points="560.5,-323 560.5,-353 775.5,-353 775.5,-323 560.5,-323"/>
<text text-anchor="start" x="568.5" y="-341" font-family="Helvetica,sans-Serif" font-size="10.00">workspaceState.TurtleCollection.generate</text>
<text text-anchor="middle" x="668" y="-330" font-family="Helvetica,sans-Serif" font-size="10.00">ValidTurtleID</text>
</a>
</g>
</g>
<!-- Node3&#45;&gt;Node4 -->
<g id="edge3" class="edge"><title>Node3&#45;&gt;Node4</title>
<path fill="none" stroke="midnightblue" d="M498.793,-239.839C507.759,-243.242 516.347,-247.551 524,-253 549.333,-271.037 534.871,-294.68 560,-313 562.659,-314.939 565.446,-316.729 568.33,-318.384"/>
<polygon fill="midnightblue" stroke="midnightblue" points="566.754,-321.508 577.25,-322.947 569.942,-315.277 566.754,-321.508"/>
</g>
<!-- Node6 -->
<g id="node6" class="node"><title>Node6</title>
<g id="a_node6"><a xlink:href="../../d0/d77/classworkspace_state_1_1_location.html#ae445cb48bedcd80659a847365a6a3de4" target="_top" xlink:title="workspaceState.Location.generate\lLocationString">
<polygon fill="white" stroke="black" points="576.5,-274 576.5,-304 759.5,-304 759.5,-274 576.5,-274"/>
<text text-anchor="start" x="584.5" y="-292" font-family="Helvetica,sans-Serif" font-size="10.00">workspaceState.Location.generate</text>
<text text-anchor="middle" x="668" y="-281" font-family="Helvetica,sans-Serif" font-size="10.00">LocationString</text>
</a>
</g>
</g>
<!-- Node5&#45;&gt;Node6 -->
<g id="edge5" class="edge"><title>Node5&#45;&gt;Node6</title>
<path fill="none" stroke="midnightblue" d="M508.643,-194.539C514.045,-197.306 519.21,-200.444 524,-204 548.969,-222.539 534.871,-245.68 560,-264 562.659,-265.939 565.446,-267.729 568.33,-269.384"/>
<polygon fill="midnightblue" stroke="midnightblue" points="566.754,-272.508 577.25,-273.947 569.942,-266.277 566.754,-272.508"/>
</g>
<!-- Node8 -->
<g id="node8" class="node"><title>Node8</title>
<g id="a_node8"><a xlink:href="../../d1/d01/classworkspace_state_1_1_turtle.html#ac6697327d46a4fde63526e973948d6f7" target="_top" xlink:title="workspaceState.Turtle.get\lHeading">
<polygon fill="white" stroke="black" points="598,-225 598,-255 738,-255 738,-225 598,-225"/>
<text text-anchor="start" x="606" y="-243" font-family="Helvetica,sans-Serif" font-size="10.00">workspaceState.Turtle.get</text>
<text text-anchor="middle" x="668" y="-232" font-family="Helvetica,sans-Serif" font-size="10.00">Heading</text>
</a>
</g>
</g>
<!-- Node5&#45;&gt;Node8 -->
<g id="edge7" class="edge"><title>Node5&#45;&gt;Node8</title>
<path fill="none" stroke="midnightblue" d="M488.684,-194.54C500.564,-197.618 512.609,-200.826 524,-204 540.116,-208.491 543.845,-210.65 560,-215 569.533,-217.567 579.584,-220.118 589.554,-222.554"/>
<polygon fill="midnightblue" stroke="midnightblue" points="588.933,-226.004 599.475,-224.948 590.576,-219.2 588.933,-226.004"/>
</g>
<!-- Node9 -->
<g id="node9" class="node"><title>Node9</title>
<g id="a_node9"><a xlink:href="../../d1/d01/classworkspace_state_1_1_turtle.html#a2b5e77b78036091a65abb5f4959b5ef7" target="_top" xlink:title="workspaceState.Turtle.getID">
<polygon fill="white" stroke="black" points="593,-186.5 593,-205.5 743,-205.5 743,-186.5 593,-186.5"/>
<text text-anchor="middle" x="668" y="-193.5" font-family="Helvetica,sans-Serif" font-size="10.00">workspaceState.Turtle.getID</text>
</a>
</g>
</g>
<!-- Node5&#45;&gt;Node9 -->
<g id="edge8" class="edge"><title>Node5&#45;&gt;Node9</title>
<path fill="none" stroke="midnightblue" d="M524.117,-184.002C543.849,-185.659 563.943,-187.346 582.59,-188.912"/>
<polygon fill="midnightblue" stroke="midnightblue" points="582.53,-192.419 592.788,-189.768 583.116,-185.444 582.53,-192.419"/>
</g>
<!-- Node10 -->
<g id="node10" class="node"><title>Node10</title>
<g id="a_node10"><a xlink:href="../../d1/d01/classworkspace_state_1_1_turtle.html#a9bb3d15f12d9d4e03332ea9817f76882" target="_top" xlink:title="workspaceState.Turtle.get\lLocation">
<polygon fill="white" stroke="black" points="598,-137 598,-167 738,-167 738,-137 598,-137"/>
<text text-anchor="start" x="606" y="-155" font-family="Helvetica,sans-Serif" font-size="10.00">workspaceState.Turtle.get</text>
<text text-anchor="middle" x="668" y="-144" font-family="Helvetica,sans-Serif" font-size="10.00">Location</text>
</a>
</g>
</g>
<!-- Node5&#45;&gt;Node10 -->
<g id="edge9" class="edge"><title>Node5&#45;&gt;Node10</title>
<path fill="none" stroke="midnightblue" d="M524.117,-163.998C545.742,-162.182 567.802,-160.33 587.915,-158.641"/>
<polygon fill="midnightblue" stroke="midnightblue" points="588.258,-162.124 597.93,-157.8 587.673,-155.149 588.258,-162.124"/>
</g>
<!-- Node11 -->
<g id="node11" class="node"><title>Node11</title>
<g id="a_node11"><a xlink:href="../../d1/d01/classworkspace_state_1_1_turtle.html#a5c09e19002f9ed4c61ce538fff3da4ff" target="_top" xlink:title="workspaceState.Turtle.get\lOpacity">
<polygon fill="white" stroke="black" points="598,-88 598,-118 738,-118 738,-88 598,-88"/>
<text text-anchor="start" x="606" y="-106" font-family="Helvetica,sans-Serif" font-size="10.00">workspaceState.Turtle.get</text>
<text text-anchor="middle" x="668" y="-95" font-family="Helvetica,sans-Serif" font-size="10.00">Opacity</text>
</a>
</g>
</g>
<!-- Node5&#45;&gt;Node11 -->
<g id="edge10" class="edge"><title>Node5&#45;&gt;Node11</title>
<path fill="none" stroke="midnightblue" d="M494.59,-153.417C504.596,-150.527 514.573,-147.378 524,-144 540.657,-138.031 543.266,-132.749 560,-127 568.953,-123.924 578.466,-121.138 587.982,-118.644"/>
<polygon fill="midnightblue" stroke="midnightblue" points="589.035,-121.988 597.877,-116.152 587.325,-115.2 589.035,-121.988"/>
</g>
<!-- Node12 -->
<g id="node12" class="node"><title>Node12</title>
<g id="a_node12"><a xlink:href="../../da/de7/classworkspace_state_1_1_shape.html#aace6051dd26034446492ecac6ff16099" target="_top" xlink:title="workspaceState.Shape.getPath">
<polygon fill="white" stroke="black" points="584.5,-49.5 584.5,-68.5 751.5,-68.5 751.5,-49.5 584.5,-49.5"/>
<text text-anchor="middle" x="668" y="-56.5" font-family="Helvetica,sans-Serif" font-size="10.00">workspaceState.Shape.getPath</text>
</a>
</g>
</g>
<!-- Node5&#45;&gt;Node12 -->
<g id="edge11" class="edge"><title>Node5&#45;&gt;Node12</title>
<path fill="none" stroke="midnightblue" d="M509.392,-153.389C514.541,-150.637 519.453,-147.523 524,-144 550.413,-123.535 532.876,-97.5119 560,-78 564.595,-74.6948 569.582,-71.9032 574.807,-69.5505"/>
<polygon fill="midnightblue" stroke="midnightblue" points="576.404,-72.6838 584.434,-65.7731 573.847,-66.1674 576.404,-72.6838"/>
</g>
<!-- Node13 -->
<g id="node13" class="node"><title>Node13</title>
<g id="a_node13"><a xlink:href="../../d1/d01/classworkspace_state_1_1_turtle.html#a8d9dd9cb3503c6d0aa45efca91816f71" target="_top" xlink:title="workspaceState.Turtle.get\lShape">
<polygon fill="white" stroke="black" points="598,-0 598,-30 738,-30 738,-0 598,-0"/>
<text text-anchor="start" x="606" y="-18" font-family="Helvetica,sans-Serif" font-size="10.00">workspaceState.Turtle.get</text>
<text text-anchor="middle" x="668" y="-7" font-family="Helvetica,sans-Serif" font-size="10.00">Shape</text>
</a>
</g>
</g>
<!-- Node5&#45;&gt;Node13 -->
<g id="edge12" class="edge"><title>Node5&#45;&gt;Node13</title>
<path fill="none" stroke="midnightblue" d="M511.501,-153.428C515.953,-150.656 520.153,-147.528 524,-144 560.046,-110.937 523.667,-72.7475 560,-40 568.083,-32.715 577.875,-27.4353 588.215,-23.6288"/>
<polygon fill="midnightblue" stroke="midnightblue" points="589.385,-26.9291 597.831,-20.532 587.239,-20.2661 589.385,-26.9291"/>
</g>
<!-- Node7 -->
<g id="node7" class="node"><title>Node7</title>
<g id="a_node7"><a xlink:href="../../d0/d77/classworkspace_state_1_1_location.html#ad4e68a97bd0ea67236551c1183fdcd6f" target="_top" xlink:title="workspaceState.Location.add">
<polygon fill="white" stroke="black" points="812,-279.5 812,-298.5 970,-298.5 970,-279.5 812,-279.5"/>
<text text-anchor="middle" x="891" y="-286.5" font-family="Helvetica,sans-Serif" font-size="10.00">workspaceState.Location.add</text>
</a>
</g>
</g>
<!-- Node6&#45;&gt;Node7 -->
<g id="edge6" class="edge"><title>Node6&#45;&gt;Node7</title>
<path fill="none" stroke="midnightblue" d="M759.527,-289C773.531,-289 787.979,-289 801.928,-289"/>
<polygon fill="midnightblue" stroke="midnightblue" points="801.984,-292.5 811.984,-289 801.984,-285.5 801.984,-292.5"/>
</g>
</g>
</svg>
