<?xml version="1.0" encoding="UTF-8" standalone="no"?>
<!DOCTYPE svg PUBLIC "-//W3C//DTD SVG 1.1//EN"
 "http://www.w3.org/Graphics/SVG/1.1/DTD/svg11.dtd">
<!-- Generated by graphviz version 2.36.0 (20140111.2315)
 -->
<!-- Title: commandParsing.structuralCommandParsing.MultipleTurtleCommand.determineTurtlesToActivate Pages: 1 -->
<svg width="530pt" height="77pt"
 viewBox="0.00 0.00 530.00 77.00" xmlns="http://www.w3.org/2000/svg" xmlns:xlink="http://www.w3.org/1999/xlink">
<g id="graph0" class="graph" transform="scale(1 1) rotate(0) translate(4 73)">
<title>commandParsing.structuralCommandParsing.MultipleTurtleCommand.determineTurtlesToActivate</title>
<polygon fill="white" stroke="none" points="-4,4 -4,-73 526,-73 526,4 -4,4"/>
<!-- Node1 -->
<g id="node1" class="node"><title>Node1</title>
<polygon fill="#bfbfbf" stroke="black" points="0.5,-11.5 0.5,-52.5 269.5,-52.5 269.5,-11.5 0.5,-11.5"/>
<text text-anchor="start" x="8.5" y="-40.5" font-family="Helvetica,sans-Serif" font-size="10.00">commandParsing.structural</text>
<text text-anchor="start" x="8.5" y="-29.5" font-family="Helvetica,sans-Serif" font-size="10.00">CommandParsing.MultipleTurtleCommand.determine</text>
<text text-anchor="middle" x="135" y="-18.5" font-family="Helvetica,sans-Serif" font-size="10.00">TurtlesToActivate</text>
</g>
<!-- Node2 -->
<g id="node2" class="node"><title>Node2</title>
<g id="a_node2"><a xlink:href="../../d7/d17/classcommand_parsing_1_1_command_parser.html#a9bf6e09b0ad06b6f217ad0ad040f8e93" target="_top" xlink:title="commandParsing.CommandParser.create\lParser">
<polygon fill="white" stroke="black" points="306,-39 306,-69 522,-69 522,-39 306,-39"/>
<text text-anchor="start" x="314" y="-57" font-family="Helvetica,sans-Serif" font-size="10.00">commandParsing.CommandParser.create</text>
<text text-anchor="middle" x="414" y="-46" font-family="Helvetica,sans-Serif" font-size="10.00">Parser</text>
</a>
</g>
</g>
<!-- Node1&#45;&gt;Node2 -->
<g id="edge1" class="edge"><title>Node1&#45;&gt;Node2</title>
<path fill="none" stroke="midnightblue" d="M269.632,-42.6134C278.382,-43.3083 287.159,-44.0054 295.821,-44.6934"/>
<polygon fill="midnightblue" stroke="midnightblue" points="295.684,-48.1934 305.929,-45.4962 296.238,-41.2154 295.684,-48.1934"/>
</g>
<!-- Node3 -->
<g id="node3" class="node"><title>Node3</title>
<g id="a_node3"><a xlink:href="../../d7/d17/classcommand_parsing_1_1_command_parser.html#ae5a2f506ca01f7fa355a64e4831fbae3" target="_top" xlink:title="commandParsing.CommandParser.parse">
<polygon fill="white" stroke="black" points="308,-0.5 308,-19.5 520,-19.5 520,-0.5 308,-0.5"/>
<text text-anchor="middle" x="414" y="-7.5" font-family="Helvetica,sans-Serif" font-size="10.00">commandParsing.CommandParser.parse</text>
</a>
</g>
</g>
<!-- Node1&#45;&gt;Node3 -->
<g id="edge2" class="edge"><title>Node1&#45;&gt;Node3</title>
<path fill="none" stroke="midnightblue" d="M269.632,-21.3866C279.08,-20.6362 288.559,-19.8834 297.892,-19.1421"/>
<polygon fill="midnightblue" stroke="midnightblue" points="298.263,-22.6238 307.954,-18.343 297.708,-15.6458 298.263,-22.6238"/>
</g>
</g>
</svg>
