<?xml version="1.0" encoding="UTF-8" standalone="no"?>
<!DOCTYPE svg PUBLIC "-//W3C//DTD SVG 1.1//EN"
 "http://www.w3.org/Graphics/SVG/1.1/DTD/svg11.dtd">
<!-- Generated by graphviz version 2.36.0 (20140111.2315)
 -->
<!-- Title: gui.mainclasses.TextGenerator.getResourceBundle Pages: 1 -->
<svg width="600pt" height="38pt"
 viewBox="0.00 0.00 600.00 38.00" xmlns="http://www.w3.org/2000/svg" xmlns:xlink="http://www.w3.org/1999/xlink">
<g id="graph0" class="graph" transform="scale(1 1) rotate(0) translate(4 34)">
<title>gui.mainclasses.TextGenerator.getResourceBundle</title>
<polygon fill="white" stroke="none" points="-4,4 -4,-34 596,-34 596,4 -4,4"/>
<!-- Node1 -->
<g id="node1" class="node"><title>Node1</title>
<polygon fill="#bfbfbf" stroke="black" points="0,-0 0,-30 182,-30 182,-0 0,-0"/>
<text text-anchor="start" x="8" y="-18" font-family="Helvetica,sans-Serif" font-size="10.00">gui.mainclasses.TextGenerator.get</text>
<text text-anchor="middle" x="91" y="-7" font-family="Helvetica,sans-Serif" font-size="10.00">ResourceBundle</text>
</g>
<!-- Node2 -->
<g id="node2" class="node"><title>Node2</title>
<g id="a_node2"><a xlink:href="../../d0/d49/classgui_1_1mainclasses_1_1_text_generator.html#a149c17d3fd9309bcab210887f0ccde82" target="_top" xlink:title="gui.mainclasses.TextGenerator.set\lLanguage">
<polygon fill="white" stroke="black" points="218.5,-0 218.5,-30 399.5,-30 399.5,-0 218.5,-0"/>
<text text-anchor="start" x="226.5" y="-18" font-family="Helvetica,sans-Serif" font-size="10.00">gui.mainclasses.TextGenerator.set</text>
<text text-anchor="middle" x="309" y="-7" font-family="Helvetica,sans-Serif" font-size="10.00">Language</text>
</a>
</g>
</g>
<!-- Node1&#45;&gt;Node2 -->
<g id="edge1" class="edge"><title>Node1&#45;&gt;Node2</title>
<path fill="none" stroke="midnightblue" d="M192.256,-15C200.997,-15 209.807,-15 218.454,-15"/>
<polygon fill="midnightblue" stroke="midnightblue" points="192.039,-11.5001 182.039,-15 192.039,-18.5001 192.039,-11.5001"/>
</g>
<!-- Node3 -->
<g id="node3" class="node"><title>Node3</title>
<g id="a_node3"><a xlink:href="../../d1/dea/classgui_1_1menus_1_1_file_menu.html#ae040d0be1f3ff61aae358d2d6894619e" target="_top" xlink:title="gui.menus.FileMenu.FileMenu">
<polygon fill="white" stroke="black" points="436.5,-5.5 436.5,-24.5 591.5,-24.5 591.5,-5.5 436.5,-5.5"/>
<text text-anchor="middle" x="514" y="-12.5" font-family="Helvetica,sans-Serif" font-size="10.00">gui.menus.FileMenu.FileMenu</text>
</a>
</g>
</g>
<!-- Node2&#45;&gt;Node3 -->
<g id="edge2" class="edge"><title>Node2&#45;&gt;Node3</title>
<path fill="none" stroke="midnightblue" d="M409.687,-15C418.615,-15 427.561,-15 436.25,-15"/>
<polygon fill="midnightblue" stroke="midnightblue" points="409.63,-11.5001 399.63,-15 409.63,-18.5001 409.63,-11.5001"/>
</g>
</g>
</svg>
