<?xml version="1.0" encoding="UTF-8" standalone="no"?>
<!DOCTYPE svg PUBLIC "-//W3C//DTD SVG 1.1//EN"
 "http://www.w3.org/Graphics/SVG/1.1/DTD/svg11.dtd">
<!-- Generated by graphviz version 2.36.0 (20140111.2315)
 -->
<!-- Title: gui.mainclasses.TextGenerator.get Pages: 1 -->
<!--zoomable 1214 -->
<svg id="main" version="1.1" xmlns="http://www.w3.org/2000/svg" xmlns:xlink="http://www.w3.org/1999/xlink" xml:space="preserve" onload="init(evt)">
<style type="text/css"><![CDATA[
.edge:hover path { stroke: red; }
.edge:hover polygon { stroke: red; fill: red; }
]]></style>
<script type="text/javascript"><![CDATA[
var edges = document.getElementsByTagName('g');
if (edges && edges.length) {
  for (var i=0;i<edges.length;i++) {
    if (edges[i].id.substr(0,4)=='edge') {
      edges[i].setAttribute('class','edge');
    }
  }
}
]]></script>
        <defs>
                <circle id="rim" cx="0" cy="0" r="7"/>
                <circle id="rim2" cx="0" cy="0" r="3.5"/>
                <g id="zoomPlus">
                        <use xlink:href="#rim" fill="#404040">
                                <set attributeName="fill" to="#808080" begin="zoomplus.mouseover" end="zoomplus.mouseout"/>
                        </use>
                        <path d="M-4,0h8M0,-4v8" fill="none" stroke="white" stroke-width="1.5" pointer-events="none"/>
                </g>
                <g id="zoomMin">
                        <use xlink:href="#rim" fill="#404040">
                                <set attributeName="fill" to="#808080" begin="zoomminus.mouseover" end="zoomminus.mouseout"/>
                        </use>
                        <path d="M-4,0h8" fill="none" stroke="white" stroke-width="1.5" pointer-events="none"/>
                </g>
                <g id="dirArrow">
                        <path fill="none" stroke="white" stroke-width="1.5" d="M0,-3.0v7 M-2.5,-0.5L0,-3.0L2.5,-0.5"/>
                </g>
               <g id="resetDef">
                       <use xlink:href="#rim2" fill="#404040">
                               <set attributeName="fill" to="#808080" begin="reset.mouseover" end="reset.mouseout"/>
                       </use>
               </g>
        </defs>

<script type="text/javascript">
var viewWidth = 764;
var viewHeight = 1214;
var sectionId = 'dynsection-1';
</script>
<script xlink:href="../../svgpan.js"/>
<svg id="graph" class="graph">
<g id="viewport">
<title>gui.mainclasses.TextGenerator.get</title>
<polygon fill="white" stroke="none" points="-4,4 -4,-1210 760,-1210 760,4 -4,4"/>
<!-- Node1 -->
<g id="node1" class="node"><title>Node1</title>
<polygon fill="#bfbfbf" stroke="black" points="0,-618.5 0,-637.5 182,-637.5 182,-618.5 0,-618.5"/>
<text text-anchor="middle" x="91" y="-625.5" font-family="Helvetica,sans-Serif" font-size="10.00">gui.mainclasses.TextGenerator.get</text>
</g>
<!-- Node2 -->
<g id="node2" class="node"><title>Node2</title>
<g id="a_node2"><a xlink:href="../../d3/db0/classgui_1_1mainclasses_1_1workspace_1_1_workspace_manager.html#a5886a46ecdbed6403279af669228d661" target="_top" xlink:title="gui.mainclasses.workspace.\lWorkspaceManager.addWorkspace">
<polygon fill="white" stroke="black" points="275.5,-1176 275.5,-1206 456.5,-1206 456.5,-1176 275.5,-1176"/>
<text text-anchor="start" x="283.5" y="-1194" font-family="Helvetica,sans-Serif" font-size="10.00">gui.mainclasses.workspace.</text>
<text text-anchor="middle" x="366" y="-1183" font-family="Helvetica,sans-Serif" font-size="10.00">WorkspaceManager.addWorkspace</text>
</a>
</g>
</g>
<!-- Node1&#45;&gt;Node2 -->
<g id="edge1" class="edge"><title>Node1&#45;&gt;Node2</title>
<path fill="none" stroke="midnightblue" d="M93.8921,-648.053C102.604,-736.065 141.727,-1087.04 218,-1161 233.427,-1175.96 254.178,-1184.39 275.218,-1188.95"/>
<polygon fill="midnightblue" stroke="midnightblue" points="97.3504,-647.453 92.9019,-637.837 90.3831,-648.128 97.3504,-647.453"/>
</g>
<!-- Node4 -->
<g id="node4" class="node"><title>Node4</title>
<g id="a_node4"><a xlink:href="../../d1/dea/classgui_1_1menus_1_1_file_menu.html#ae040d0be1f3ff61aae358d2d6894619e" target="_top" xlink:title="gui.menus.FileMenu.FileMenu">
<polygon fill="white" stroke="black" points="575.5,-1137.5 575.5,-1156.5 730.5,-1156.5 730.5,-1137.5 575.5,-1137.5"/>
<text text-anchor="middle" x="653" y="-1144.5" font-family="Helvetica,sans-Serif" font-size="10.00">gui.menus.FileMenu.FileMenu</text>
</a>
</g>
</g>
<!-- Node1&#45;&gt;Node4 -->
<g id="edge11" class="edge"><title>Node1&#45;&gt;Node4</title>
<path fill="none" stroke="midnightblue" d="M93.9223,-647.869C102.578,-732.823 140.915,-1064.06 218,-1127 270.801,-1170.11 465.396,-1162.32 575.234,-1154.01"/>
<polygon fill="midnightblue" stroke="midnightblue" points="97.3899,-647.369 92.916,-637.766 90.4244,-648.063 97.3899,-647.369"/>
</g>
<!-- Node5 -->
<g id="node5" class="node"><title>Node5</title>
<g id="a_node5"><a xlink:href="../../d0/d42/classgui_1_1buttonfeatures_1_1_button_feature.html#a230ffc5f275f4b697e9d373fe9997882" target="_top" xlink:title="gui.buttonfeatures.Button\lFeature.ButtonFeature">
<polygon fill="white" stroke="black" points="296,-1088 296,-1118 436,-1118 436,-1088 296,-1088"/>
<text text-anchor="start" x="304" y="-1106" font-family="Helvetica,sans-Serif" font-size="10.00">gui.buttonfeatures.Button</text>
<text text-anchor="middle" x="366" y="-1095" font-family="Helvetica,sans-Serif" font-size="10.00">Feature.ButtonFeature</text>
</a>
</g>
</g>
<!-- Node1&#45;&gt;Node5 -->
<g id="edge4" class="edge"><title>Node1&#45;&gt;Node5</title>
<path fill="none" stroke="midnightblue" d="M94.7397,-647.947C106.027,-727.159 151.489,-1018.1 218,-1078 238.968,-1096.88 268.73,-1104.22 295.996,-1106.42"/>
<polygon fill="midnightblue" stroke="midnightblue" points="98.1785,-647.266 93.3238,-637.849 91.2463,-648.238 98.1785,-647.266"/>
</g>
<!-- Node6 -->
<g id="node6" class="node"><title>Node6</title>
<g id="a_node6"><a xlink:href="../../dd/d14/classgui_1_1nonbuttonfeatures_1_1tableviews_1_1colorindex_1_1_color_index_feature.html#a0571b77de46c85be1f2ffb79f36fa48f" target="_top" xlink:title="gui.nonbuttonfeatures.tableviews.colorindex.\lColorIndexFeature.ColorIndexFeature">
<polygon fill="white" stroke="black" points="251,-1039 251,-1069 481,-1069 481,-1039 251,-1039"/>
<text text-anchor="start" x="259" y="-1057" font-family="Helvetica,sans-Serif" font-size="10.00">gui.nonbuttonfeatures.tableviews.colorindex.</text>
<text text-anchor="middle" x="366" y="-1046" font-family="Helvetica,sans-Serif" font-size="10.00">ColorIndexFeature.ColorIndexFeature</text>
</a>
</g>
</g>
<!-- Node1&#45;&gt;Node6 -->
<g id="edge5" class="edge"><title>Node1&#45;&gt;Node6</title>
<path fill="none" stroke="midnightblue" d="M91.5618,-647.979C91.2904,-713.883 99.9902,-926.038 218,-1029 227.558,-1037.34 238.843,-1043.4 250.843,-1047.75"/>
<polygon fill="midnightblue" stroke="midnightblue" points="95.0642,-647.787 91.6859,-637.745 88.0648,-647.702 95.0642,-647.787"/>
</g>
<!-- Node7 -->
<g id="node7" class="node"><title>Node7</title>
<g id="a_node7"><a xlink:href="../../d2/d6c/classgui_1_1componentdrawers_1_1optionsholder_1_1tabs_1_1_color_index_tab.html#a96771828e105442e39f7a37302e9069b" target="_top" xlink:title="gui.componentdrawers.optionsholder.tabs.\lColorIndexTab.ColorIndexTab">
<polygon fill="white" stroke="black" points="255.5,-990 255.5,-1020 476.5,-1020 476.5,-990 255.5,-990"/>
<text text-anchor="start" x="263.5" y="-1008" font-family="Helvetica,sans-Serif" font-size="10.00">gui.componentdrawers.optionsholder.tabs.</text>
<text text-anchor="middle" x="366" y="-997" font-family="Helvetica,sans-Serif" font-size="10.00">ColorIndexTab.ColorIndexTab</text>
</a>
</g>
</g>
<!-- Node1&#45;&gt;Node7 -->
<g id="edge6" class="edge"><title>Node1&#45;&gt;Node7</title>
<path fill="none" stroke="midnightblue" d="M92.5482,-647.917C95.3684,-708.475 112.631,-891.653 218,-980 228.811,-989.065 241.682,-995.403 255.244,-999.765"/>
<polygon fill="midnightblue" stroke="midnightblue" points="96.0409,-647.654 92.1632,-637.794 89.0459,-647.92 96.0409,-647.654"/>
</g>
<!-- Node8 -->
<g id="node8" class="node"><title>Node8</title>
<g id="a_node8"><a xlink:href="../../d8/d70/classgui_1_1componentdrawers_1_1_command_line_drawer.html#a680ac8a366bd3df387e9cd84ff9615d5" target="_top" xlink:title="gui.componentdrawers.Command\lLineDrawer.CommandLineDrawer">
<polygon fill="white" stroke="black" points="276.5,-941 276.5,-971 455.5,-971 455.5,-941 276.5,-941"/>
<text text-anchor="start" x="284.5" y="-959" font-family="Helvetica,sans-Serif" font-size="10.00">gui.componentdrawers.Command</text>
<text text-anchor="middle" x="366" y="-948" font-family="Helvetica,sans-Serif" font-size="10.00">LineDrawer.CommandLineDrawer</text>
</a>
</g>
</g>
<!-- Node1&#45;&gt;Node8 -->
<g id="edge7" class="edge"><title>Node1&#45;&gt;Node8</title>
<path fill="none" stroke="midnightblue" d="M93.7934,-647.656C99.9015,-702.313 125.014,-856.94 218,-931 234.503,-944.144 255.397,-951.453 276.214,-955.31"/>
<polygon fill="midnightblue" stroke="midnightblue" points="97.2616,-647.166 92.7609,-637.575 90.2981,-647.879 97.2616,-647.166"/>
</g>
<!-- Node9 -->
<g id="node9" class="node"><title>Node9</title>
<g id="a_node9"><a xlink:href="../../d1/dea/classgui_1_1menus_1_1_file_menu.html#a5d282d9883fea642633ddf27638b173c" target="_top" xlink:title="gui.menus.FileMenu.create\lFileChooser">
<polygon fill="white" stroke="black" points="293.5,-892 293.5,-922 438.5,-922 438.5,-892 293.5,-892"/>
<text text-anchor="start" x="301.5" y="-910" font-family="Helvetica,sans-Serif" font-size="10.00">gui.menus.FileMenu.create</text>
<text text-anchor="middle" x="366" y="-899" font-family="Helvetica,sans-Serif" font-size="10.00">FileChooser</text>
</a>
</g>
</g>
<!-- Node1&#45;&gt;Node9 -->
<g id="edge8" class="edge"><title>Node1&#45;&gt;Node9</title>
<path fill="none" stroke="midnightblue" d="M95.4905,-647.669C105.21,-696.199 137.364,-822.041 218,-882 239.397,-897.91 267.372,-905.065 293.169,-907.934"/>
<polygon fill="midnightblue" stroke="midnightblue" points="98.8755,-646.734 93.5721,-637.562 91.9983,-648.039 98.8755,-646.734"/>
</g>
<!-- Node10 -->
<g id="node10" class="node"><title>Node10</title>
<g id="a_node10"><a xlink:href="../../d8/d2e/classgui_1_1componentdrawers_1_1_error_drawer.html#a55193e3b7378461bcb3599ecb9f28d8e" target="_top" xlink:title="gui.componentdrawers.Error\lDrawer.ErrorDrawer">
<polygon fill="white" stroke="black" points="290,-843 290,-873 442,-873 442,-843 290,-843"/>
<text text-anchor="start" x="298" y="-861" font-family="Helvetica,sans-Serif" font-size="10.00">gui.componentdrawers.Error</text>
<text text-anchor="middle" x="366" y="-850" font-family="Helvetica,sans-Serif" font-size="10.00">Drawer.ErrorDrawer</text>
</a>
</g>
</g>
<!-- Node1&#45;&gt;Node10 -->
<g id="edge10" class="edge"><title>Node1&#45;&gt;Node10</title>
<path fill="none" stroke="midnightblue" d="M97.8591,-647.493C111.46,-689.112 149.359,-786.635 218,-833 238.916,-847.128 265.222,-854.121 289.78,-857.364"/>
<polygon fill="midnightblue" stroke="midnightblue" points="101.133,-646.238 94.7905,-637.751 94.4567,-648.341 101.133,-646.238"/>
</g>
<!-- Node11 -->
<g id="node11" class="node"><title>Node11</title>
<g id="a_node11"><a xlink:href="../../d6/de0/classgui_1_1componentdrawers_1_1optionsholder_1_1tabs_1_1_general_options_tab.html#a968b44ebef02daffdaa01ffd97856551" target="_top" xlink:title="gui.componentdrawers.optionsholder.tabs.\lGeneralOptionsTab.GeneralOptionsTab">
<polygon fill="white" stroke="black" points="255.5,-794 255.5,-824 476.5,-824 476.5,-794 255.5,-794"/>
<text text-anchor="start" x="263.5" y="-812" font-family="Helvetica,sans-Serif" font-size="10.00">gui.componentdrawers.optionsholder.tabs.</text>
<text text-anchor="middle" x="366" y="-801" font-family="Helvetica,sans-Serif" font-size="10.00">GeneralOptionsTab.GeneralOptionsTab</text>
</a>
</g>
</g>
<!-- Node1&#45;&gt;Node11 -->
<g id="edge12" class="edge"><title>Node1&#45;&gt;Node11</title>
<path fill="none" stroke="midnightblue" d="M101.338,-646.927C119.027,-680.599 160.831,-750.51 218,-784 229.503,-790.739 242.328,-795.778 255.476,-799.529"/>
<polygon fill="midnightblue" stroke="midnightblue" points="104.3,-645.032 96.6323,-637.721 98.0675,-648.218 104.3,-645.032"/>
</g>
<!-- Node12 -->
<g id="node12" class="node"><title>Node12</title>
<g id="a_node12"><a xlink:href="../../dd/df0/classgui_1_1menus_1_1_help_menu.html#a257b252e445ed574b53a8bd5c168f825" target="_top" xlink:title="gui.menus.HelpMenu.HelpMenu">
<polygon fill="white" stroke="black" points="281.5,-755.5 281.5,-774.5 450.5,-774.5 450.5,-755.5 281.5,-755.5"/>
<text text-anchor="middle" x="366" y="-762.5" font-family="Helvetica,sans-Serif" font-size="10.00">gui.menus.HelpMenu.HelpMenu</text>
</a>
</g>
</g>
<!-- Node1&#45;&gt;Node12 -->
<g id="edge13" class="edge"><title>Node1&#45;&gt;Node12</title>
<path fill="none" stroke="midnightblue" d="M105.056,-645.686C125.741,-672.227 168.784,-721.721 218,-745 237.441,-754.195 259.839,-759.52 281.197,-762.521"/>
<polygon fill="midnightblue" stroke="midnightblue" points="107.767,-643.469 98.9217,-637.636 102.199,-647.712 107.767,-643.469"/>
</g>
<!-- Node13 -->
<g id="node13" class="node"><title>Node13</title>
<g id="a_node13"><a xlink:href="../../d8/d08/classgui_1_1nonbuttonfeatures_1_1tableviews_1_1imageindex_1_1_image_index_feature.html#ab9a1ab114c9eb00b7cfe279925e65b95" target="_top" xlink:title="gui.nonbuttonfeatures.tableviews.imageindex.\lImageIndexFeature.ImageIndexFeature">
<polygon fill="white" stroke="black" points="247.5,-706 247.5,-736 484.5,-736 484.5,-706 247.5,-706"/>
<text text-anchor="start" x="255.5" y="-724" font-family="Helvetica,sans-Serif" font-size="10.00">gui.nonbuttonfeatures.tableviews.imageindex.</text>
<text text-anchor="middle" x="366" y="-713" font-family="Helvetica,sans-Serif" font-size="10.00">ImageIndexFeature.ImageIndexFeature</text>
</a>
</g>
</g>
<!-- Node1&#45;&gt;Node13 -->
<g id="edge14" class="edge"><title>Node1&#45;&gt;Node13</title>
<path fill="none" stroke="midnightblue" d="M114.567,-643.134C139.006,-658.8 179.654,-682.794 218,-696 229.259,-699.878 241.218,-703.169 253.262,-705.959"/>
<polygon fill="midnightblue" stroke="midnightblue" points="116.322,-640.1 106.032,-637.577 112.502,-645.966 116.322,-640.1"/>
</g>
<!-- Node14 -->
<g id="node14" class="node"><title>Node14</title>
<g id="a_node14"><a xlink:href="../../db/d0b/classgui_1_1componentdrawers_1_1optionsholder_1_1tabs_1_1_image_index_tab.html#a9188d97f57d451107c4f944d44582456" target="_top" xlink:title="gui.componentdrawers.optionsholder.tabs.\lImageIndexTab.ImageIndexTab">
<polygon fill="white" stroke="black" points="255.5,-657 255.5,-687 476.5,-687 476.5,-657 255.5,-657"/>
<text text-anchor="start" x="263.5" y="-675" font-family="Helvetica,sans-Serif" font-size="10.00">gui.componentdrawers.optionsholder.tabs.</text>
<text text-anchor="middle" x="366" y="-664" font-family="Helvetica,sans-Serif" font-size="10.00">ImageIndexTab.ImageIndexTab</text>
</a>
</g>
</g>
<!-- Node1&#45;&gt;Node14 -->
<g id="edge15" class="edge"><title>Node1&#45;&gt;Node14</title>
<path fill="none" stroke="midnightblue" d="M161.395,-639.185C194.913,-644.587 235.616,-651.147 271.793,-656.978"/>
<polygon fill="midnightblue" stroke="midnightblue" points="161.666,-635.683 151.237,-637.547 160.553,-642.594 161.666,-635.683"/>
</g>
<!-- Node15 -->
<g id="node15" class="node"><title>Node15</title>
<g id="a_node15"><a xlink:href="../../d3/d5c/classgui_1_1mainclasses_1_1_stage_initializer.html#acfc5e18d03fb1e73167d49a7133ea3a5" target="_top" xlink:title="gui.mainclasses.StageInitializer.init">
<polygon fill="white" stroke="black" points="274.5,-618.5 274.5,-637.5 457.5,-637.5 457.5,-618.5 274.5,-618.5"/>
<text text-anchor="middle" x="366" y="-625.5" font-family="Helvetica,sans-Serif" font-size="10.00">gui.mainclasses.StageInitializer.init</text>
</a>
</g>
</g>
<!-- Node1&#45;&gt;Node15 -->
<g id="edge16" class="edge"><title>Node1&#45;&gt;Node15</title>
<path fill="none" stroke="midnightblue" d="M192.346,-628C219.241,-628 248.153,-628 274.482,-628"/>
<polygon fill="midnightblue" stroke="midnightblue" points="192.147,-624.5 182.147,-628 192.147,-631.5 192.147,-624.5"/>
</g>
<!-- Node17 -->
<g id="node17" class="node"><title>Node17</title>
<g id="a_node17"><a xlink:href="../../d0/d17/classgui_1_1componentdrawers_1_1optionsholder_1_1_options_holder_drawer.html#a996913025b7f3a691d7fc51473ceb75a" target="_top" xlink:title="gui.componentdrawers.optionsholder.\lOptionsHolderDrawer.OptionsHolderDrawer">
<polygon fill="white" stroke="black" points="254.5,-569 254.5,-599 477.5,-599 477.5,-569 254.5,-569"/>
<text text-anchor="start" x="262.5" y="-587" font-family="Helvetica,sans-Serif" font-size="10.00">gui.componentdrawers.optionsholder.</text>
<text text-anchor="middle" x="366" y="-576" font-family="Helvetica,sans-Serif" font-size="10.00">OptionsHolderDrawer.OptionsHolderDrawer</text>
</a>
</g>
</g>
<!-- Node1&#45;&gt;Node17 -->
<g id="edge18" class="edge"><title>Node1&#45;&gt;Node17</title>
<path fill="none" stroke="midnightblue" d="M161.395,-616.815C194.913,-611.413 235.616,-604.853 271.793,-599.022"/>
<polygon fill="midnightblue" stroke="midnightblue" points="160.553,-613.406 151.237,-618.453 161.666,-620.317 160.553,-613.406"/>
</g>
<!-- Node18 -->
<g id="node18" class="node"><title>Node18</title>
<g id="a_node18"><a xlink:href="../../dd/d82/classgui_1_1componentdrawers_1_1optionsholder_1_1tabs_1_1_pen_options_tab.html#ab3dcb663c2d35b2a63e385bd8f515255" target="_top" xlink:title="gui.componentdrawers.optionsholder.tabs.\lPenOptionsTab.PenOptionsTab">
<polygon fill="white" stroke="black" points="255.5,-520 255.5,-550 476.5,-550 476.5,-520 255.5,-520"/>
<text text-anchor="start" x="263.5" y="-538" font-family="Helvetica,sans-Serif" font-size="10.00">gui.componentdrawers.optionsholder.tabs.</text>
<text text-anchor="middle" x="366" y="-527" font-family="Helvetica,sans-Serif" font-size="10.00">PenOptionsTab.PenOptionsTab</text>
</a>
</g>
</g>
<!-- Node1&#45;&gt;Node18 -->
<g id="edge19" class="edge"><title>Node1&#45;&gt;Node18</title>
<path fill="none" stroke="midnightblue" d="M114.567,-612.866C139.006,-597.2 179.654,-573.206 218,-560 229.871,-555.912 242.52,-552.475 255.227,-549.59"/>
<polygon fill="midnightblue" stroke="midnightblue" points="112.502,-610.034 106.032,-618.423 116.322,-615.9 112.502,-610.034"/>
</g>
<!-- Node19 -->
<g id="node19" class="node"><title>Node19</title>
<g id="a_node19"><a xlink:href="../../dc/d93/classgui_1_1nonbuttonfeatures_1_1pen_1_1_pen_up_or_down_feature.html#a2d50dbb527225257edef57d6c4a1c084" target="_top" xlink:title="gui.nonbuttonfeatures.pen.\lPenUpOrDownFeature.PenUpOrDown\lFeature">
<polygon fill="white" stroke="black" points="269,-460.5 269,-501.5 463,-501.5 463,-460.5 269,-460.5"/>
<text text-anchor="start" x="277" y="-489.5" font-family="Helvetica,sans-Serif" font-size="10.00">gui.nonbuttonfeatures.pen.</text>
<text text-anchor="start" x="277" y="-478.5" font-family="Helvetica,sans-Serif" font-size="10.00">PenUpOrDownFeature.PenUpOrDown</text>
<text text-anchor="middle" x="366" y="-467.5" font-family="Helvetica,sans-Serif" font-size="10.00">Feature</text>
</a>
</g>
</g>
<!-- Node1&#45;&gt;Node19 -->
<g id="edge20" class="edge"><title>Node1&#45;&gt;Node19</title>
<path fill="none" stroke="midnightblue" d="M105.565,-610.328C126.627,-584.221 169.818,-535.769 218,-511 233.636,-502.962 251.247,-497.077 268.703,-492.768"/>
<polygon fill="midnightblue" stroke="midnightblue" points="102.751,-608.243 99.2952,-618.259 108.243,-612.584 102.751,-608.243"/>
</g>
<!-- Node20 -->
<g id="node20" class="node"><title>Node20</title>
<g id="a_node20"><a xlink:href="../../d9/dec/classgui_1_1componentdrawers_1_1_previous_commands_drawer.html#a994c6eddf76b83e6ec06f9a18becb42e" target="_top" xlink:title="gui.componentdrawers.Previous\lCommandsDrawer.PreviousCommandsDrawer">
<polygon fill="white" stroke="black" points="247,-412 247,-442 485,-442 485,-412 247,-412"/>
<text text-anchor="start" x="255" y="-430" font-family="Helvetica,sans-Serif" font-size="10.00">gui.componentdrawers.Previous</text>
<text text-anchor="middle" x="366" y="-419" font-family="Helvetica,sans-Serif" font-size="10.00">CommandsDrawer.PreviousCommandsDrawer</text>
</a>
</g>
</g>
<!-- Node1&#45;&gt;Node20 -->
<g id="edge21" class="edge"><title>Node1&#45;&gt;Node20</title>
<path fill="none" stroke="midnightblue" d="M99.6952,-608.611C115.61,-571.27 155.928,-489.657 218,-451 226.89,-445.464 236.646,-441.078 246.772,-437.619"/>
<polygon fill="midnightblue" stroke="midnightblue" points="96.2797,-607.712 95.698,-618.291 102.75,-610.384 96.2797,-607.712"/>
</g>
<!-- Node21 -->
<g id="node21" class="node"><title>Node21</title>
<g id="a_node21"><a xlink:href="../../dd/d6c/classgui_1_1componentdrawers_1_1significantcommands_1_1tabs_1_1_saved_commands_tab.html#a94031564c590d0913f8201ac6e05ee90" target="_top" xlink:title="gui.componentdrawers.significantcommands.tabs.\lSavedCommandsTab.SavedCommandsTab">
<polygon fill="white" stroke="black" points="237,-363 237,-393 495,-393 495,-363 237,-363"/>
<text text-anchor="start" x="245" y="-381" font-family="Helvetica,sans-Serif" font-size="10.00">gui.componentdrawers.significantcommands.tabs.</text>
<text text-anchor="middle" x="366" y="-370" font-family="Helvetica,sans-Serif" font-size="10.00">SavedCommandsTab.SavedCommandsTab</text>
</a>
</g>
</g>
<!-- Node1&#45;&gt;Node21 -->
<g id="edge22" class="edge"><title>Node1&#45;&gt;Node21</title>
<path fill="none" stroke="midnightblue" d="M96.7719,-608.468C108.74,-563.962 144.479,-454.866 218,-403 223.923,-398.822 230.309,-395.258 236.985,-392.225"/>
<polygon fill="midnightblue" stroke="midnightblue" points="93.34,-607.761 94.2329,-618.318 100.118,-609.508 93.34,-607.761"/>
</g>
<!-- Node22 -->
<g id="node22" class="node"><title>Node22</title>
<g id="a_node22"><a xlink:href="../../db/d27/classgui_1_1componentdrawers_1_1significantcommands_1_1_significant_commands_drawer.html#aa78535466af503d178354067791215c0" target="_top" xlink:title="gui.componentdrawers.significantcommands.\lSignificantCommandsDrawer.SignificantCommandsDrawer">
<polygon fill="white" stroke="black" points="218,-314 218,-344 514,-344 514,-314 218,-314"/>
<text text-anchor="start" x="226" y="-332" font-family="Helvetica,sans-Serif" font-size="10.00">gui.componentdrawers.significantcommands.</text>
<text text-anchor="middle" x="366" y="-321" font-family="Helvetica,sans-Serif" font-size="10.00">SignificantCommandsDrawer.SignificantCommandsDrawer</text>
</a>
</g>
</g>
<!-- Node1&#45;&gt;Node22 -->
<g id="edge23" class="edge"><title>Node1&#45;&gt;Node22</title>
<path fill="none" stroke="midnightblue" d="M94.7554,-608.181C102.998,-556.958 132.437,-419.603 218,-354 222.931,-350.22 228.229,-346.928 233.782,-344.068"/>
<polygon fill="midnightblue" stroke="midnightblue" points="91.2664,-607.847 93.2338,-618.257 98.1879,-608.892 91.2664,-607.847"/>
</g>
<!-- Node23 -->
<g id="node23" class="node"><title>Node23</title>
<g id="a_node23"><a xlink:href="../../de/d46/classgui_1_1nonbuttonfeatures_1_1_turtle_image_feature.html#a18bdc932497aaaea84fb0a34fd0fd4a2" target="_top" xlink:title="gui.nonbuttonfeatures.Turtle\lImageFeature.TurtleImageFeature">
<polygon fill="white" stroke="black" points="277.5,-265 277.5,-295 454.5,-295 454.5,-265 277.5,-265"/>
<text text-anchor="start" x="285.5" y="-283" font-family="Helvetica,sans-Serif" font-size="10.00">gui.nonbuttonfeatures.Turtle</text>
<text text-anchor="middle" x="366" y="-272" font-family="Helvetica,sans-Serif" font-size="10.00">ImageFeature.TurtleImageFeature</text>
</a>
</g>
</g>
<!-- Node1&#45;&gt;Node23 -->
<g id="edge24" class="edge"><title>Node1&#45;&gt;Node23</title>
<path fill="none" stroke="midnightblue" d="M93.2484,-608.219C97.9893,-551.091 119.99,-384.852 218,-305 234.658,-291.428 255.966,-284.029 277.159,-280.227"/>
<polygon fill="midnightblue" stroke="midnightblue" points="89.742,-608.178 92.4952,-618.409 96.723,-608.694 89.742,-608.178"/>
</g>
<!-- Node24 -->
<g id="node24" class="node"><title>Node24</title>
<g id="a_node24"><a xlink:href="../../dd/d4c/classgui_1_1componentdrawers_1_1_turtle_screen_drawer.html#aa743f077632a96e52896052f429de525" target="_top" xlink:title="gui.componentdrawers.Turtle\lScreenDrawer.TurtleScreenDrawer">
<polygon fill="white" stroke="black" points="276.5,-216 276.5,-246 455.5,-246 455.5,-216 276.5,-216"/>
<text text-anchor="start" x="284.5" y="-234" font-family="Helvetica,sans-Serif" font-size="10.00">gui.componentdrawers.Turtle</text>
<text text-anchor="middle" x="366" y="-223" font-family="Helvetica,sans-Serif" font-size="10.00">ScreenDrawer.TurtleScreenDrawer</text>
</a>
</g>
</g>
<!-- Node1&#45;&gt;Node24 -->
<g id="edge25" class="edge"><title>Node1&#45;&gt;Node24</title>
<path fill="none" stroke="midnightblue" d="M92.1136,-608.22C93.6259,-545.613 107.391,-350.369 218,-256 234.247,-242.138 255.289,-234.614 276.348,-230.783"/>
<polygon fill="midnightblue" stroke="midnightblue" points="88.6127,-608.258 91.9533,-618.312 95.6118,-608.369 88.6127,-608.258"/>
</g>
<!-- Node25 -->
<g id="node25" class="node"><title>Node25</title>
<g id="a_node25"><a xlink:href="../../de/d51/classgui_1_1nonbuttonfeatures_1_1tableviews_1_1_user_defined_commands_feature.html#a175eb81c8a336944ba7a7c86be4491fc" target="_top" xlink:title="gui.nonbuttonfeatures.tableviews.\lUserDefinedCommandsFeature.UserDefined\lCommandsFeature">
<polygon fill="white" stroke="black" points="251,-156.5 251,-197.5 481,-197.5 481,-156.5 251,-156.5"/>
<text text-anchor="start" x="259" y="-185.5" font-family="Helvetica,sans-Serif" font-size="10.00">gui.nonbuttonfeatures.tableviews.</text>
<text text-anchor="start" x="259" y="-174.5" font-family="Helvetica,sans-Serif" font-size="10.00">UserDefinedCommandsFeature.UserDefined</text>
<text text-anchor="middle" x="366" y="-163.5" font-family="Helvetica,sans-Serif" font-size="10.00">CommandsFeature</text>
</a>
</g>
</g>
<!-- Node1&#45;&gt;Node25 -->
<g id="edge26" class="edge"><title>Node1&#45;&gt;Node25</title>
<path fill="none" stroke="midnightblue" d="M91.3525,-608.083C90.3188,-540.497 96.6416,-317.957 218,-207 227.516,-198.3 238.847,-191.843 250.937,-187.086"/>
<polygon fill="midnightblue" stroke="midnightblue" points="87.8562,-608.288 91.5849,-618.205 94.8543,-608.127 87.8562,-608.288"/>
</g>
<!-- Node26 -->
<g id="node26" class="node"><title>Node26</title>
<g id="a_node26"><a xlink:href="../../dd/d48/classgui_1_1componentdrawers_1_1significantcommands_1_1tabs_1_1_user_defined_commands_tab.html#af3ea1644c4bbe152edd526db89f90a60" target="_top" xlink:title="gui.componentdrawers.significantcommands.tabs.\lUserDefinedCommandsTab.UserDefinedCommandsTab">
<polygon fill="white" stroke="black" points="225.5,-108 225.5,-138 506.5,-138 506.5,-108 225.5,-108"/>
<text text-anchor="start" x="233.5" y="-126" font-family="Helvetica,sans-Serif" font-size="10.00">gui.componentdrawers.significantcommands.tabs.</text>
<text text-anchor="middle" x="366" y="-115" font-family="Helvetica,sans-Serif" font-size="10.00">UserDefinedCommandsTab.UserDefinedCommandsTab</text>
</a>
</g>
</g>
<!-- Node1&#45;&gt;Node26 -->
<g id="edge27" class="edge"><title>Node1&#45;&gt;Node26</title>
<path fill="none" stroke="midnightblue" d="M94.3191,-608.275C104.399,-526.005 147.107,-211.5 218,-147 221.634,-143.694 225.539,-140.746 229.653,-138.122"/>
<polygon fill="midnightblue" stroke="midnightblue" points="90.8336,-607.945 93.1139,-618.292 97.7835,-608.781 90.8336,-607.945"/>
</g>
<!-- Node27 -->
<g id="node27" class="node"><title>Node27</title>
<g id="a_node27"><a xlink:href="../../d8/d55/classgui_1_1componentdrawers_1_1_workspace_variables_drawer.html#a52f608c492cdddff7646a5050cadb21b" target="_top" xlink:title="gui.componentdrawers.Workspace\lVariablesDrawer.WorkspaceVariables\lDrawer">
<polygon fill="white" stroke="black" points="270.5,-48.5 270.5,-89.5 461.5,-89.5 461.5,-48.5 270.5,-48.5"/>
<text text-anchor="start" x="278.5" y="-77.5" font-family="Helvetica,sans-Serif" font-size="10.00">gui.componentdrawers.Workspace</text>
<text text-anchor="start" x="278.5" y="-66.5" font-family="Helvetica,sans-Serif" font-size="10.00">VariablesDrawer.WorkspaceVariables</text>
<text text-anchor="middle" x="366" y="-55.5" font-family="Helvetica,sans-Serif" font-size="10.00">Drawer</text>
</a>
</g>
</g>
<!-- Node1&#45;&gt;Node27 -->
<g id="edge28" class="edge"><title>Node1&#45;&gt;Node27</title>
<path fill="none" stroke="midnightblue" d="M93.9153,-608.096C102.726,-520.737 142.207,-172.368 218,-99 232.223,-85.2318 250.957,-76.9944 270.27,-72.2173"/>
<polygon fill="midnightblue" stroke="midnightblue" points="90.4138,-607.94 92.9136,-618.236 97.3799,-608.628 90.4138,-607.94"/>
</g>
<!-- Node28 -->
<g id="node28" class="node"><title>Node28</title>
<g id="a_node28"><a xlink:href="../../dc/da5/classgui_1_1nonbuttonfeatures_1_1tableviews_1_1variables_1_1_workspace_variables_feature.html#aa3bb841cef0ae9fcd23cb920c122e226" target="_top" xlink:title="gui.nonbuttonfeatures.tableviews.variables.\lWorkspaceVariablesFeature.WorkspaceVariablesFeature">
<polygon fill="white" stroke="black" points="225.5,-0 225.5,-30 506.5,-30 506.5,-0 225.5,-0"/>
<text text-anchor="start" x="233.5" y="-18" font-family="Helvetica,sans-Serif" font-size="10.00">gui.nonbuttonfeatures.tableviews.variables.</text>
<text text-anchor="middle" x="366" y="-7" font-family="Helvetica,sans-Serif" font-size="10.00">WorkspaceVariablesFeature.WorkspaceVariablesFeature</text>
</a>
</g>
</g>
<!-- Node1&#45;&gt;Node28 -->
<g id="edge29" class="edge"><title>Node1&#45;&gt;Node28</title>
<path fill="none" stroke="midnightblue" d="M93.2955,-608.485C99.8632,-515.705 132.582,-120.339 218,-39 221.464,-35.701 225.196,-32.7535 229.137,-30.1239"/>
<polygon fill="midnightblue" stroke="midnightblue" points="89.8032,-608.254 92.6082,-618.47 96.7867,-608.734 89.8032,-608.254"/>
</g>
<!-- Node3 -->
<g id="node3" class="node"><title>Node3</title>
<g id="a_node3"><a xlink:href="../../d3/db0/classgui_1_1mainclasses_1_1workspace_1_1_workspace_manager.html#af1bf4f62bfb933aa3a845b283ddd9a76" target="_top" xlink:title="gui.mainclasses.workspace.\lWorkspaceManager.WorkspaceManager">
<polygon fill="white" stroke="black" points="550.5,-1176 550.5,-1206 755.5,-1206 755.5,-1176 550.5,-1176"/>
<text text-anchor="start" x="558.5" y="-1194" font-family="Helvetica,sans-Serif" font-size="10.00">gui.mainclasses.workspace.</text>
<text text-anchor="middle" x="653" y="-1183" font-family="Helvetica,sans-Serif" font-size="10.00">WorkspaceManager.WorkspaceManager</text>
</a>
</g>
</g>
<!-- Node2&#45;&gt;Node3 -->
<g id="edge2" class="edge"><title>Node2&#45;&gt;Node3</title>
<path fill="none" stroke="midnightblue" d="M467.004,-1191C493.979,-1191 523.189,-1191 550.257,-1191"/>
<polygon fill="midnightblue" stroke="midnightblue" points="466.785,-1187.5 456.785,-1191 466.785,-1194.5 466.785,-1187.5"/>
</g>
<!-- Node2&#45;&gt;Node4 -->
<g id="edge3" class="edge"><title>Node2&#45;&gt;Node4</title>
<path fill="none" stroke="midnightblue" d="M466.826,-1175.59C507.885,-1169.25 554.151,-1162.11 590.166,-1156.55"/>
<polygon fill="midnightblue" stroke="midnightblue" points="466.133,-1172.15 456.785,-1177.14 467.202,-1179.07 466.133,-1172.15"/>
</g>
<!-- Node9&#45;&gt;Node4 -->
<g id="edge9" class="edge"><title>Node9&#45;&gt;Node4</title>
<path fill="none" stroke="midnightblue" d="M448.632,-908.829C471.239,-912.42 494.815,-919.312 514,-932 594.28,-985.093 637.616,-1102.66 648.957,-1137.25"/>
<polygon fill="midnightblue" stroke="midnightblue" points="449.063,-905.355 438.676,-907.443 448.098,-912.288 449.063,-905.355"/>
</g>
<!-- Node16 -->
<g id="node16" class="node"><title>Node16</title>
<g id="a_node16"><a xlink:href="../../d5/d3d/classgui_1_1mainclasses_1_1_g_u_i_controller.html#aa8f2d03270ced2e768ccad9c0c925b3f" target="_top" xlink:title="gui.mainclasses.GUIController.\lGUIController">
<polygon fill="white" stroke="black" points="572,-613 572,-643 734,-643 734,-613 572,-613"/>
<text text-anchor="start" x="580" y="-631" font-family="Helvetica,sans-Serif" font-size="10.00">gui.mainclasses.GUIController.</text>
<text text-anchor="middle" x="653" y="-620" font-family="Helvetica,sans-Serif" font-size="10.00">GUIController</text>
</a>
</g>
</g>
<!-- Node15&#45;&gt;Node16 -->
<g id="edge17" class="edge"><title>Node15&#45;&gt;Node16</title>
<path fill="none" stroke="midnightblue" d="M467.572,-628C501.734,-628 539.424,-628 571.781,-628"/>
<polygon fill="midnightblue" stroke="midnightblue" points="467.567,-624.5 457.567,-628 467.567,-631.5 467.567,-624.5"/>
</g>
</g>
</svg>
        <g id="navigator" transform="translate(0 0)" fill="#404254">
                <rect fill="#f2f5e9" fill-opacity="0.5" stroke="#606060" stroke-width=".5" x="0" y="0" width="60" height="60"/>
                <use id="zoomplus" xlink:href="#zoomPlus" x="17" y="9" onmousedown="handleZoom(evt,'in')"/>
                <use id="zoomminus" xlink:href="#zoomMin" x="42" y="9" onmousedown="handleZoom(evt,'out')"/>
                <use id="reset" xlink:href="#resetDef" x="30" y="36" onmousedown="handleReset()"/>
                <g id="arrowUp" xlink:href="#dirArrow" transform="translate(30 24)" onmousedown="handlePan(0,-1)">
                  <use xlink:href="#rim" fill="#404040">
                        <set attributeName="fill" to="#808080" begin="arrowUp.mouseover" end="arrowUp.mouseout"/>
                  </use>
                  <path fill="none" stroke="white" stroke-width="1.5" d="M0,-3.0v7 M-2.5,-0.5L0,-3.0L2.5,-0.5"/>
                </g>
                <g id="arrowRight" xlink:href="#dirArrow" transform="rotate(90) translate(36 -43)" onmousedown="handlePan(1,0)">
                  <use xlink:href="#rim" fill="#404040">
                        <set attributeName="fill" to="#808080" begin="arrowRight.mouseover" end="arrowRight.mouseout"/>
                  </use>
                  <path fill="none" stroke="white" stroke-width="1.5" d="M0,-3.0v7 M-2.5,-0.5L0,-3.0L2.5,-0.5"/>
                </g>
                <g id="arrowDown" xlink:href="#dirArrow" transform="rotate(180) translate(-30 -48)" onmousedown="handlePan(0,1)">
                  <use xlink:href="#rim" fill="#404040">
                        <set attributeName="fill" to="#808080" begin="arrowDown.mouseover" end="arrowDown.mouseout"/>
                  </use>
                  <path fill="none" stroke="white" stroke-width="1.5" d="M0,-3.0v7 M-2.5,-0.5L0,-3.0L2.5,-0.5"/>
                </g>
                <g id="arrowLeft" xlink:href="#dirArrow" transform="rotate(270) translate(-36 17)" onmousedown="handlePan(-1,0)">
                  <use xlink:href="#rim" fill="#404040">
                        <set attributeName="fill" to="#808080" begin="arrowLeft.mouseover" end="arrowLeft.mouseout"/>
                  </use>
                  <path fill="none" stroke="white" stroke-width="1.5" d="M0,-3.0v7 M-2.5,-0.5L0,-3.0L2.5,-0.5"/>
                </g>
        </g>
        <svg viewBox="0 0 15 15" width="100%" height="30px" preserveAspectRatio="xMaxYMin meet">
         <g id="arrow_out" transform="scale(0.3 0.3)">
          <a xlink:href="classgui_1_1mainclasses_1_1_text_generator_afef308a2abfb8f1503d2b276407833e6_icgraph_org.svg" target="_base">
           <rect id="button" ry="5" rx="5" y="6" x="6" height="38" width="38"
                fill="#f2f5e9" fill-opacity="0.5" stroke="#606060" stroke-width="1.0"/>
           <path id="arrow"
             d="M 11.500037,31.436501 C 11.940474,20.09759 22.043105,11.32322 32.158766,21.979434 L 37.068811,17.246167 C 37.068811,17.246167 37.088388,32 37.088388,32 L 22.160133,31.978069 C 22.160133,31.978069 26.997745,27.140456 26.997745,27.140456 C 18.528582,18.264221 13.291696,25.230495 11.500037,31.436501 z"
             style="fill:#404040;"/>
          </a>
         </g>
        </svg>
</svg>
