<?xml version="1.0" encoding="UTF-8" standalone="no"?>
<!DOCTYPE svg PUBLIC "-//W3C//DTD SVG 1.1//EN"
 "http://www.w3.org/Graphics/SVG/1.1/DTD/svg11.dtd">
<!-- Generated by graphviz version 2.36.0 (20140111.2315)
 -->
<!-- Title: gui.mainclasses.workspace.WorkspaceDataHolder.getMyVariablesList Pages: 1 -->
<svg width="626pt" height="66pt"
 viewBox="0.00 0.00 626.00 66.00" xmlns="http://www.w3.org/2000/svg" xmlns:xlink="http://www.w3.org/1999/xlink">
<g id="graph0" class="graph" transform="scale(1 1) rotate(0) translate(4 62)">
<title>gui.mainclasses.workspace.WorkspaceDataHolder.getMyVariablesList</title>
<polygon fill="white" stroke="none" points="-4,4 -4,-62 622,-62 622,4 -4,4"/>
<!-- Node1 -->
<g id="node1" class="node"><title>Node1</title>
<polygon fill="#bfbfbf" stroke="black" points="0,-14 0,-44 214,-44 214,-14 0,-14"/>
<text text-anchor="start" x="8" y="-32" font-family="Helvetica,sans-Serif" font-size="10.00">gui.mainclasses.workspace.</text>
<text text-anchor="middle" x="107" y="-21" font-family="Helvetica,sans-Serif" font-size="10.00">WorkspaceDataHolder.getMyVariablesList</text>
</g>
<!-- Node2 -->
<g id="node2" class="node"><title>Node2</title>
<g id="a_node2"><a xlink:href="../../db/d5b/classgui_1_1mainclasses_1_1_factory_builder.html#af124c2a36a96d8dcaf4407148577210f" target="_top" xlink:title="gui.mainclasses.FactoryBuilder.init">
<polygon fill="white" stroke="black" points="251,-38.5 251,-57.5 431,-57.5 431,-38.5 251,-38.5"/>
<text text-anchor="middle" x="341" y="-45.5" font-family="Helvetica,sans-Serif" font-size="10.00">gui.mainclasses.FactoryBuilder.init</text>
</a>
</g>
</g>
<!-- Node1&#45;&gt;Node2 -->
<g id="edge1" class="edge"><title>Node1&#45;&gt;Node2</title>
<path fill="none" stroke="midnightblue" d="M224.258,-38.5211C233.216,-39.2547 242.171,-39.9882 250.911,-40.7039"/>
<polygon fill="midnightblue" stroke="midnightblue" points="224.407,-35.0217 214.155,-37.6937 223.836,-41.9984 224.407,-35.0217"/>
</g>
<!-- Node4 -->
<g id="node4" class="node"><title>Node4</title>
<g id="a_node4"><a xlink:href="../../d4/dd2/classgui_1_1mainclasses_1_1_feature_builder.html#a158ad9534f6b1334bdd1953bf76e32b8" target="_top" xlink:title="gui.mainclasses.FeatureBuilder.init">
<polygon fill="white" stroke="black" points="250,-0.5 250,-19.5 432,-19.5 432,-0.5 250,-0.5"/>
<text text-anchor="middle" x="341" y="-7.5" font-family="Helvetica,sans-Serif" font-size="10.00">gui.mainclasses.FeatureBuilder.init</text>
</a>
</g>
</g>
<!-- Node1&#45;&gt;Node4 -->
<g id="edge3" class="edge"><title>Node1&#45;&gt;Node4</title>
<path fill="none" stroke="midnightblue" d="M224.244,-19.48C232.847,-18.7754 241.449,-18.071 249.859,-17.3822"/>
<polygon fill="midnightblue" stroke="midnightblue" points="223.836,-16.0016 214.155,-20.3063 224.407,-22.9783 223.836,-16.0016"/>
</g>
<!-- Node3 -->
<g id="node3" class="node"><title>Node3</title>
<g id="a_node3"><a xlink:href="../../d8/df2/classgui_1_1mainclasses_1_1workspace_1_1_workspace.html#a2a722f3db714ab95c3784b2cc26837d4" target="_top" xlink:title="gui.mainclasses.workspace.\lWorkspace.Workspace">
<polygon fill="white" stroke="black" points="468.5,-14 468.5,-44 617.5,-44 617.5,-14 468.5,-14"/>
<text text-anchor="start" x="476.5" y="-32" font-family="Helvetica,sans-Serif" font-size="10.00">gui.mainclasses.workspace.</text>
<text text-anchor="middle" x="543" y="-21" font-family="Helvetica,sans-Serif" font-size="10.00">Workspace.Workspace</text>
</a>
</g>
</g>
<!-- Node2&#45;&gt;Node3 -->
<g id="edge2" class="edge"><title>Node2&#45;&gt;Node3</title>
<path fill="none" stroke="midnightblue" d="M441.382,-38.5587C450.435,-37.6986 459.496,-36.8379 468.266,-36.0047"/>
<polygon fill="midnightblue" stroke="midnightblue" points="440.803,-35.0978 431.179,-39.528 441.465,-42.0665 440.803,-35.0978"/>
</g>
<!-- Node4&#45;&gt;Node3 -->
<g id="edge4" class="edge"><title>Node4&#45;&gt;Node3</title>
<path fill="none" stroke="midnightblue" d="M442.034,-19.5032C450.887,-20.3443 459.739,-21.1852 468.314,-21.9998"/>
<polygon fill="midnightblue" stroke="midnightblue" points="442.34,-16.0166 432.054,-18.5551 441.678,-22.9852 442.34,-16.0166"/>
</g>
</g>
</svg>
