<?xml version="1.0" encoding="UTF-8" standalone="no"?>
<!DOCTYPE svg PUBLIC "-//W3C//DTD SVG 1.1//EN"
 "http://www.w3.org/Graphics/SVG/1.1/DTD/svg11.dtd">
<!-- Generated by graphviz version 2.36.0 (20140111.2315)
 -->
<!-- Title: gui.mainclasses.workspace.WorkspaceDataHolder.clear Pages: 1 -->
<svg width="544pt" height="48pt"
 viewBox="0.00 0.00 544.00 48.00" xmlns="http://www.w3.org/2000/svg" xmlns:xlink="http://www.w3.org/1999/xlink">
<g id="graph0" class="graph" transform="scale(1 1) rotate(0) translate(4 44)">
<title>gui.mainclasses.workspace.WorkspaceDataHolder.clear</title>
<polygon fill="white" stroke="none" points="-4,4 -4,-44 540,-44 540,4 -4,4"/>
<!-- Node1 -->
<g id="node1" class="node"><title>Node1</title>
<polygon fill="#bfbfbf" stroke="black" points="0.5,-5 0.5,-35 149.5,-35 149.5,-5 0.5,-5"/>
<text text-anchor="start" x="8.5" y="-23" font-family="Helvetica,sans-Serif" font-size="10.00">gui.mainclasses.workspace.</text>
<text text-anchor="middle" x="75" y="-12" font-family="Helvetica,sans-Serif" font-size="10.00">WorkspaceDataHolder.clear</text>
</g>
<!-- Node2 -->
<g id="node2" class="node"><title>Node2</title>
<g id="a_node2"><a xlink:href="../../d8/df2/classgui_1_1mainclasses_1_1workspace_1_1_workspace.html#a1efc21f37223b0b9898342065ae3f281" target="_top" xlink:title="gui.mainclasses.workspace.\lWorkspace.clear">
<polygon fill="white" stroke="black" points="186.5,-5 186.5,-35 335.5,-35 335.5,-5 186.5,-5"/>
<text text-anchor="start" x="194.5" y="-23" font-family="Helvetica,sans-Serif" font-size="10.00">gui.mainclasses.workspace.</text>
<text text-anchor="middle" x="261" y="-12" font-family="Helvetica,sans-Serif" font-size="10.00">Workspace.clear</text>
</a>
</g>
</g>
<!-- Node1&#45;&gt;Node2 -->
<g id="edge1" class="edge"><title>Node1&#45;&gt;Node2</title>
<path fill="none" stroke="midnightblue" d="M159.533,-20C168.462,-20 177.498,-20 186.302,-20"/>
<polygon fill="midnightblue" stroke="midnightblue" points="159.515,-16.5001 149.515,-20 159.515,-23.5001 159.515,-16.5001"/>
</g>
<!-- Node3 -->
<g id="node3" class="node"><title>Node3</title>
<g id="a_node3"><a xlink:href="../../d9/d24/classgui_1_1buttonfeatures_1_1_clear_workspace_button_feature.html#a97f708985c96012656d8fdfc77daad57" target="_top" xlink:title="gui.buttonfeatures.Clear\lWorkspaceButtonFeature.Clear\lWorkspaceButtonFeature">
<polygon fill="white" stroke="black" points="372,0.5 372,-40.5 536,-40.5 536,0.5 372,0.5"/>
<text text-anchor="start" x="380" y="-28.5" font-family="Helvetica,sans-Serif" font-size="10.00">gui.buttonfeatures.Clear</text>
<text text-anchor="start" x="380" y="-17.5" font-family="Helvetica,sans-Serif" font-size="10.00">WorkspaceButtonFeature.Clear</text>
<text text-anchor="middle" x="454" y="-6.5" font-family="Helvetica,sans-Serif" font-size="10.00">WorkspaceButtonFeature</text>
</a>
</g>
</g>
<!-- Node2&#45;&gt;Node3 -->
<g id="edge2" class="edge"><title>Node2&#45;&gt;Node3</title>
<path fill="none" stroke="midnightblue" d="M345.688,-20C354.371,-20 363.187,-20 371.842,-20"/>
<polygon fill="midnightblue" stroke="midnightblue" points="345.572,-16.5001 335.572,-20 345.572,-23.5001 345.572,-16.5001"/>
</g>
</g>
</svg>
