<?xml version="1.0" encoding="UTF-8" standalone="no"?>
<!DOCTYPE svg PUBLIC "-//W3C//DTD SVG 1.1//EN"
 "http://www.w3.org/Graphics/SVG/1.1/DTD/svg11.dtd">
<!-- Generated by graphviz version 2.36.0 (20140111.2315)
 -->
<!-- Title: gui.mainclasses.workspace.WorkspaceDataHolder.getMyImageIndexList Pages: 1 -->
<svg width="596pt" height="66pt"
 viewBox="0.00 0.00 596.00 66.00" xmlns="http://www.w3.org/2000/svg" xmlns:xlink="http://www.w3.org/1999/xlink">
<g id="graph0" class="graph" transform="scale(1 1) rotate(0) translate(4 62)">
<title>gui.mainclasses.workspace.WorkspaceDataHolder.getMyImageIndexList</title>
<polygon fill="white" stroke="none" points="-4,4 -4,-62 592,-62 592,4 -4,4"/>
<!-- Node1 -->
<g id="node1" class="node"><title>Node1</title>
<polygon fill="#bfbfbf" stroke="black" points="0,-8.5 0,-49.5 184,-49.5 184,-8.5 0,-8.5"/>
<text text-anchor="start" x="8" y="-37.5" font-family="Helvetica,sans-Serif" font-size="10.00">gui.mainclasses.workspace.</text>
<text text-anchor="start" x="8" y="-26.5" font-family="Helvetica,sans-Serif" font-size="10.00">WorkspaceDataHolder.getMyImage</text>
<text text-anchor="middle" x="92" y="-15.5" font-family="Helvetica,sans-Serif" font-size="10.00">IndexList</text>
</g>
<!-- Node2 -->
<g id="node2" class="node"><title>Node2</title>
<g id="a_node2"><a xlink:href="../../db/d5b/classgui_1_1mainclasses_1_1_factory_builder.html#af124c2a36a96d8dcaf4407148577210f" target="_top" xlink:title="gui.mainclasses.FactoryBuilder.init">
<polygon fill="white" stroke="black" points="221,-38.5 221,-57.5 401,-57.5 401,-38.5 221,-38.5"/>
<text text-anchor="middle" x="311" y="-45.5" font-family="Helvetica,sans-Serif" font-size="10.00">gui.mainclasses.FactoryBuilder.init</text>
</a>
</g>
</g>
<!-- Node1&#45;&gt;Node2 -->
<g id="edge1" class="edge"><title>Node1&#45;&gt;Node2</title>
<path fill="none" stroke="midnightblue" d="M194.129,-37.8546C203.062,-38.6368 212.062,-39.4248 220.886,-40.1974"/>
<polygon fill="midnightblue" stroke="midnightblue" points="194.352,-34.3608 184.084,-36.9751 193.741,-41.3341 194.352,-34.3608"/>
</g>
<!-- Node4 -->
<g id="node4" class="node"><title>Node4</title>
<g id="a_node4"><a xlink:href="../../d4/dd2/classgui_1_1mainclasses_1_1_feature_builder.html#a158ad9534f6b1334bdd1953bf76e32b8" target="_top" xlink:title="gui.mainclasses.FeatureBuilder.init">
<polygon fill="white" stroke="black" points="220,-0.5 220,-19.5 402,-19.5 402,-0.5 220,-0.5"/>
<text text-anchor="middle" x="311" y="-7.5" font-family="Helvetica,sans-Serif" font-size="10.00">gui.mainclasses.FeatureBuilder.init</text>
</a>
</g>
</g>
<!-- Node1&#45;&gt;Node4 -->
<g id="edge3" class="edge"><title>Node1&#45;&gt;Node4</title>
<path fill="none" stroke="midnightblue" d="M194.121,-20.1461C202.705,-19.3945 211.352,-18.6374 219.844,-17.8938"/>
<polygon fill="midnightblue" stroke="midnightblue" points="193.741,-16.6659 184.084,-21.0249 194.352,-23.6392 193.741,-16.6659"/>
</g>
<!-- Node3 -->
<g id="node3" class="node"><title>Node3</title>
<g id="a_node3"><a xlink:href="../../d8/df2/classgui_1_1mainclasses_1_1workspace_1_1_workspace.html#a2a722f3db714ab95c3784b2cc26837d4" target="_top" xlink:title="gui.mainclasses.workspace.\lWorkspace.Workspace">
<polygon fill="white" stroke="black" points="438.5,-14 438.5,-44 587.5,-44 587.5,-14 438.5,-14"/>
<text text-anchor="start" x="446.5" y="-32" font-family="Helvetica,sans-Serif" font-size="10.00">gui.mainclasses.workspace.</text>
<text text-anchor="middle" x="513" y="-21" font-family="Helvetica,sans-Serif" font-size="10.00">Workspace.Workspace</text>
</a>
</g>
</g>
<!-- Node2&#45;&gt;Node3 -->
<g id="edge2" class="edge"><title>Node2&#45;&gt;Node3</title>
<path fill="none" stroke="midnightblue" d="M411.382,-38.5587C420.435,-37.6986 429.496,-36.8379 438.266,-36.0047"/>
<polygon fill="midnightblue" stroke="midnightblue" points="410.803,-35.0978 401.179,-39.528 411.465,-42.0665 410.803,-35.0978"/>
</g>
<!-- Node4&#45;&gt;Node3 -->
<g id="edge4" class="edge"><title>Node4&#45;&gt;Node3</title>
<path fill="none" stroke="midnightblue" d="M412.034,-19.5032C420.887,-20.3443 429.739,-21.1852 438.314,-21.9998"/>
<polygon fill="midnightblue" stroke="midnightblue" points="412.34,-16.0166 402.054,-18.5551 411.678,-22.9852 412.34,-16.0166"/>
</g>
</g>
</svg>
