<?xml version="1.0" encoding="UTF-8" standalone="no"?>
<!DOCTYPE svg PUBLIC "-//W3C//DTD SVG 1.1//EN"
 "http://www.w3.org/Graphics/SVG/1.1/DTD/svg11.dtd">
<!-- Generated by graphviz version 2.36.0 (20140111.2315)
 -->
<!-- Title: gui.mainclasses.workspace.WorkspaceDataHolder.getMyPreviousCommandsList Pages: 1 -->
<svg width="788pt" height="87pt"
 viewBox="0.00 0.00 788.00 87.00" xmlns="http://www.w3.org/2000/svg" xmlns:xlink="http://www.w3.org/1999/xlink">
<g id="graph0" class="graph" transform="scale(1 1) rotate(0) translate(4 83)">
<title>gui.mainclasses.workspace.WorkspaceDataHolder.getMyPreviousCommandsList</title>
<polygon fill="white" stroke="none" points="-4,4 -4,-83 784,-83 784,4 -4,4"/>
<!-- Node1 -->
<g id="node1" class="node"><title>Node1</title>
<polygon fill="#bfbfbf" stroke="black" points="0,-18.5 0,-59.5 194,-59.5 194,-18.5 0,-18.5"/>
<text text-anchor="start" x="8" y="-47.5" font-family="Helvetica,sans-Serif" font-size="10.00">gui.mainclasses.workspace.</text>
<text text-anchor="start" x="8" y="-36.5" font-family="Helvetica,sans-Serif" font-size="10.00">WorkspaceDataHolder.getMyPrevious</text>
<text text-anchor="middle" x="97" y="-25.5" font-family="Helvetica,sans-Serif" font-size="10.00">CommandsList</text>
</g>
<!-- Node2 -->
<g id="node2" class="node"><title>Node2</title>
<g id="a_node2"><a xlink:href="../../d8/df2/classgui_1_1mainclasses_1_1workspace_1_1_workspace.html#ae2fa99713631e9ca7192e75f7302e477" target="_top" xlink:title="gui.mainclasses.workspace.\lWorkspace.addPreviousCommand">
<polygon fill="white" stroke="black" points="231.5,-47 231.5,-77 410.5,-77 410.5,-47 231.5,-47"/>
<text text-anchor="start" x="239.5" y="-65" font-family="Helvetica,sans-Serif" font-size="10.00">gui.mainclasses.workspace.</text>
<text text-anchor="middle" x="321" y="-54" font-family="Helvetica,sans-Serif" font-size="10.00">Workspace.addPreviousCommand</text>
</a>
</g>
</g>
<!-- Node1&#45;&gt;Node2 -->
<g id="edge1" class="edge"><title>Node1&#45;&gt;Node2</title>
<path fill="none" stroke="midnightblue" d="M204.315,-50.0146C213.406,-50.9565 222.539,-51.9027 231.47,-52.8279"/>
<polygon fill="midnightblue" stroke="midnightblue" points="204.389,-46.5036 194.081,-48.9544 203.667,-53.4663 204.389,-46.5036"/>
</g>
<!-- Node5 -->
<g id="node5" class="node"><title>Node5</title>
<g id="a_node5"><a xlink:href="../../d4/dd2/classgui_1_1mainclasses_1_1_feature_builder.html#a158ad9534f6b1334bdd1953bf76e32b8" target="_top" xlink:title="gui.mainclasses.FeatureBuilder.init">
<polygon fill="white" stroke="black" points="230,-7.5 230,-26.5 412,-26.5 412,-7.5 230,-7.5"/>
<text text-anchor="middle" x="321" y="-14.5" font-family="Helvetica,sans-Serif" font-size="10.00">gui.mainclasses.FeatureBuilder.init</text>
</a>
</g>
</g>
<!-- Node1&#45;&gt;Node5 -->
<g id="edge4" class="edge"><title>Node1&#45;&gt;Node5</title>
<path fill="none" stroke="midnightblue" d="M204.11,-28.4846C212.679,-27.6355 221.286,-26.7825 229.728,-25.9459"/>
<polygon fill="midnightblue" stroke="midnightblue" points="203.687,-25.0092 194.081,-29.4784 204.378,-31.9751 203.687,-25.0092"/>
</g>
<!-- Node3 -->
<g id="node3" class="node"><title>Node3</title>
<g id="a_node3"><a xlink:href="../../da/de1/class_control_1_1_slogo_control.html#a3c55ba4e1dadbf4fbcd647017109fa9a" target="_top" xlink:title="Control.SlogoControl.parse\lCommandString">
<polygon fill="white" stroke="black" points="450,-49 450,-79 596,-79 596,-49 450,-49"/>
<text text-anchor="start" x="458" y="-67" font-family="Helvetica,sans-Serif" font-size="10.00">Control.SlogoControl.parse</text>
<text text-anchor="middle" x="523" y="-56" font-family="Helvetica,sans-Serif" font-size="10.00">CommandString</text>
</a>
</g>
</g>
<!-- Node2&#45;&gt;Node3 -->
<g id="edge2" class="edge"><title>Node2&#45;&gt;Node3</title>
<path fill="none" stroke="midnightblue" d="M420.816,-62.9882C430.643,-63.0864 440.486,-63.1849 449.964,-63.2796"/>
<polygon fill="midnightblue" stroke="midnightblue" points="420.631,-59.4862 410.596,-62.886 420.561,-66.4859 420.631,-59.4862"/>
</g>
<!-- Node4 -->
<g id="node4" class="node"><title>Node4</title>
<g id="a_node4"><a xlink:href="../../da/de1/class_control_1_1_slogo_control.html#a3c3830d88ed47944348f1f82c56d0d58" target="_top" xlink:title="Control.SlogoControl.Slogo\lControl">
<polygon fill="white" stroke="black" points="634,-49 634,-79 780,-79 780,-49 634,-49"/>
<text text-anchor="start" x="642" y="-67" font-family="Helvetica,sans-Serif" font-size="10.00">Control.SlogoControl.Slogo</text>
<text text-anchor="middle" x="707" y="-56" font-family="Helvetica,sans-Serif" font-size="10.00">Control</text>
</a>
</g>
</g>
<!-- Node3&#45;&gt;Node4 -->
<g id="edge3" class="edge"><title>Node3&#45;&gt;Node4</title>
<path fill="none" stroke="midnightblue" d="M606.458,-64C615.613,-64 624.883,-64 633.895,-64"/>
<polygon fill="midnightblue" stroke="midnightblue" points="606.193,-60.5001 596.193,-64 606.193,-67.5001 606.193,-60.5001"/>
</g>
<!-- Node6 -->
<g id="node6" class="node"><title>Node6</title>
<g id="a_node6"><a xlink:href="../../d8/df2/classgui_1_1mainclasses_1_1workspace_1_1_workspace.html#a2a722f3db714ab95c3784b2cc26837d4" target="_top" xlink:title="gui.mainclasses.workspace.\lWorkspace.Workspace">
<polygon fill="white" stroke="black" points="448.5,-0 448.5,-30 597.5,-30 597.5,-0 448.5,-0"/>
<text text-anchor="start" x="456.5" y="-18" font-family="Helvetica,sans-Serif" font-size="10.00">gui.mainclasses.workspace.</text>
<text text-anchor="middle" x="523" y="-7" font-family="Helvetica,sans-Serif" font-size="10.00">Workspace.Workspace</text>
</a>
</g>
</g>
<!-- Node5&#45;&gt;Node6 -->
<g id="edge5" class="edge"><title>Node5&#45;&gt;Node6</title>
<path fill="none" stroke="midnightblue" d="M422.32,-15.9968C431.077,-15.9092 439.832,-15.8217 448.314,-15.7369"/>
<polygon fill="midnightblue" stroke="midnightblue" points="422.018,-12.4995 412.054,-16.0995 422.088,-19.4992 422.018,-12.4995"/>
</g>
</g>
</svg>
