<?xml version="1.0" encoding="UTF-8" standalone="no"?>
<!DOCTYPE svg PUBLIC "-//W3C//DTD SVG 1.1//EN"
 "http://www.w3.org/Graphics/SVG/1.1/DTD/svg11.dtd">
<!-- Generated by graphviz version 2.36.0 (20140111.2315)
 -->
<!-- Title: gui.turtlescreenwrap.HorizontalTurtleScreenWrap.fragmentPoint2DPair Pages: 1 -->
<svg width="680pt" height="597pt"
 viewBox="0.00 0.00 680.00 597.00" xmlns="http://www.w3.org/2000/svg" xmlns:xlink="http://www.w3.org/1999/xlink">
<g id="graph0" class="graph" transform="scale(1 1) rotate(0) translate(4 593)">
<title>gui.turtlescreenwrap.HorizontalTurtleScreenWrap.fragmentPoint2DPair</title>
<polygon fill="white" stroke="none" points="-4,4 -4,-593 676,-593 676,4 -4,4"/>
<!-- Node1 -->
<g id="node1" class="node"><title>Node1</title>
<polygon fill="#bfbfbf" stroke="black" points="0.5,-272 0.5,-302 201.5,-302 201.5,-272 0.5,-272"/>
<text text-anchor="start" x="8.5" y="-290" font-family="Helvetica,sans-Serif" font-size="10.00">gui.turtlescreenwrap.Horizontal</text>
<text text-anchor="middle" x="101" y="-279" font-family="Helvetica,sans-Serif" font-size="10.00">TurtleScreenWrap.fragmentPoint2DPair</text>
</g>
<!-- Node2 -->
<g id="node2" class="node"><title>Node2</title>
<g id="a_node2"><a xlink:href="../../d8/dec/classgui_1_1turtlescreenwrap_1_1_turtle_screen_wrap.html#a5ef2b5f6381070a4a78575ef1207dc44" target="_top" xlink:title="gui.turtlescreenwrap.Turtle\lScreenWrap.fragmentPoint2DPair">
<polygon fill="white" stroke="black" points="238,-272 238,-302 414,-302 414,-272 238,-272"/>
<text text-anchor="start" x="246" y="-290" font-family="Helvetica,sans-Serif" font-size="10.00">gui.turtlescreenwrap.Turtle</text>
<text text-anchor="middle" x="326" y="-279" font-family="Helvetica,sans-Serif" font-size="10.00">ScreenWrap.fragmentPoint2DPair</text>
</a>
</g>
</g>
<!-- Node1&#45;&gt;Node2 -->
<g id="edge1" class="edge"><title>Node1&#45;&gt;Node2</title>
<path fill="none" stroke="midnightblue" d="M211.967,-287C220.678,-287 229.401,-287 237.924,-287"/>
<polygon fill="midnightblue" stroke="midnightblue" points="211.76,-283.5 201.76,-287 211.76,-290.5 211.76,-283.5"/>
</g>
<!-- Node3 -->
<g id="node3" class="node"><title>Node3</title>
<g id="a_node3"><a xlink:href="../../df/d1f/classtests_1_1screen_wrap_tests_1_1_turtle_screen_wrap_tests.html#a84f8307a9e2fa54ba4670a8f8c8f5d63" target="_top" xlink:title="tests.screenWrapTests.Turtle\lScreenWrapTests.exitTopRightDiagonally">
<polygon fill="white" stroke="black" points="457.5,-559 457.5,-589 664.5,-589 664.5,-559 457.5,-559"/>
<text text-anchor="start" x="465.5" y="-577" font-family="Helvetica,sans-Serif" font-size="10.00">tests.screenWrapTests.Turtle</text>
<text text-anchor="middle" x="561" y="-566" font-family="Helvetica,sans-Serif" font-size="10.00">ScreenWrapTests.exitTopRightDiagonally</text>
</a>
</g>
</g>
<!-- Node2&#45;&gt;Node3 -->
<g id="edge2" class="edge"><title>Node2&#45;&gt;Node3</title>
<path fill="none" stroke="midnightblue" d="M331.237,-312.123C341.489,-364.746 372.726,-486.808 450,-549 454.806,-552.868 460.095,-556.162 465.674,-558.966"/>
<polygon fill="midnightblue" stroke="midnightblue" points="334.676,-311.471 329.409,-302.278 327.794,-312.749 334.676,-311.471"/>
</g>
<!-- Node4 -->
<g id="node4" class="node"><title>Node4</title>
<g id="a_node4"><a xlink:href="../../df/d1f/classtests_1_1screen_wrap_tests_1_1_turtle_screen_wrap_tests.html#a9b25b860fd3d50aaaf783cc87d8bf644" target="_top" xlink:title="tests.screenWrapTests.Turtle\lScreenWrapTests.exitTopLeftDiagonally">
<polygon fill="white" stroke="black" points="460.5,-510 460.5,-540 661.5,-540 661.5,-510 460.5,-510"/>
<text text-anchor="start" x="468.5" y="-528" font-family="Helvetica,sans-Serif" font-size="10.00">tests.screenWrapTests.Turtle</text>
<text text-anchor="middle" x="561" y="-517" font-family="Helvetica,sans-Serif" font-size="10.00">ScreenWrapTests.exitTopLeftDiagonally</text>
</a>
</g>
</g>
<!-- Node2&#45;&gt;Node4 -->
<g id="edge3" class="edge"><title>Node2&#45;&gt;Node4</title>
<path fill="none" stroke="midnightblue" d="M334.13,-312.066C348.304,-357.141 384.451,-451.674 450,-500 455.281,-503.893 461.063,-507.196 467.125,-509.995"/>
<polygon fill="midnightblue" stroke="midnightblue" points="337.397,-310.779 331.141,-302.228 330.699,-312.814 337.397,-310.779"/>
</g>
<!-- Node5 -->
<g id="node5" class="node"><title>Node5</title>
<g id="a_node5"><a xlink:href="../../df/d1f/classtests_1_1screen_wrap_tests_1_1_turtle_screen_wrap_tests.html#a00650f413c6293abeecbbc5f162bfefe" target="_top" xlink:title="tests.screenWrapTests.Turtle\lScreenWrapTests.exitBottomRight\lDiagonally">
<polygon fill="white" stroke="black" points="472,-450.5 472,-491.5 650,-491.5 650,-450.5 472,-450.5"/>
<text text-anchor="start" x="480" y="-479.5" font-family="Helvetica,sans-Serif" font-size="10.00">tests.screenWrapTests.Turtle</text>
<text text-anchor="start" x="480" y="-468.5" font-family="Helvetica,sans-Serif" font-size="10.00">ScreenWrapTests.exitBottomRight</text>
<text text-anchor="middle" x="561" y="-457.5" font-family="Helvetica,sans-Serif" font-size="10.00">Diagonally</text>
</a>
</g>
</g>
<!-- Node2&#45;&gt;Node5 -->
<g id="edge4" class="edge"><title>Node2&#45;&gt;Node5</title>
<path fill="none" stroke="midnightblue" d="M339.748,-311.195C359.007,-345.361 398.775,-407.325 450,-441 456.782,-445.458 464.213,-449.258 471.911,-452.496"/>
<polygon fill="midnightblue" stroke="midnightblue" points="342.76,-309.409 334.867,-302.342 336.63,-312.789 342.76,-309.409"/>
</g>
<!-- Node6 -->
<g id="node6" class="node"><title>Node6</title>
<g id="a_node6"><a xlink:href="../../df/d1f/classtests_1_1screen_wrap_tests_1_1_turtle_screen_wrap_tests.html#a7b6f09ead374e3a569d64aaf38a0ee6d" target="_top" xlink:title="tests.screenWrapTests.Turtle\lScreenWrapTests.exitBottomLeftDiagonally">
<polygon fill="white" stroke="black" points="450.5,-402 450.5,-432 671.5,-432 671.5,-402 450.5,-402"/>
<text text-anchor="start" x="458.5" y="-420" font-family="Helvetica,sans-Serif" font-size="10.00">tests.screenWrapTests.Turtle</text>
<text text-anchor="middle" x="561" y="-409" font-family="Helvetica,sans-Serif" font-size="10.00">ScreenWrapTests.exitBottomLeftDiagonally</text>
</a>
</g>
</g>
<!-- Node2&#45;&gt;Node6 -->
<g id="edge5" class="edge"><title>Node2&#45;&gt;Node6</title>
<path fill="none" stroke="midnightblue" d="M347.122,-309.752C369.744,-333.877 408.74,-371.298 450,-392 457.702,-395.864 466.006,-399.139 474.477,-401.912"/>
<polygon fill="midnightblue" stroke="midnightblue" points="349.446,-307.11 340.098,-302.124 344.297,-311.851 349.446,-307.11"/>
</g>
<!-- Node7 -->
<g id="node7" class="node"><title>Node7</title>
<g id="a_node7"><a xlink:href="../../df/d1f/classtests_1_1screen_wrap_tests_1_1_turtle_screen_wrap_tests.html#a83f756a9cbdd2a8c906c5270c13b6aff" target="_top" xlink:title="tests.screenWrapTests.Turtle\lScreenWrapTests.exitRightTopDiagonally">
<polygon fill="white" stroke="black" points="457.5,-353 457.5,-383 664.5,-383 664.5,-353 457.5,-353"/>
<text text-anchor="start" x="465.5" y="-371" font-family="Helvetica,sans-Serif" font-size="10.00">tests.screenWrapTests.Turtle</text>
<text text-anchor="middle" x="561" y="-360" font-family="Helvetica,sans-Serif" font-size="10.00">ScreenWrapTests.exitRightTopDiagonally</text>
</a>
</g>
</g>
<!-- Node2&#45;&gt;Node7 -->
<g id="edge6" class="edge"><title>Node2&#45;&gt;Node7</title>
<path fill="none" stroke="midnightblue" d="M364.733,-306.607C388.665,-318.427 420.56,-333.068 450,-343 460.948,-346.693 472.693,-350.012 484.285,-352.933"/>
<polygon fill="midnightblue" stroke="midnightblue" points="366.158,-303.406 355.648,-302.066 363.028,-309.667 366.158,-303.406"/>
</g>
<!-- Node8 -->
<g id="node8" class="node"><title>Node8</title>
<g id="a_node8"><a xlink:href="../../df/d1f/classtests_1_1screen_wrap_tests_1_1_turtle_screen_wrap_tests.html#ac86ad58070045f6e75e619d34b133cbe" target="_top" xlink:title="tests.screenWrapTests.Turtle\lScreenWrapTests.exitRightBOttom\lDiagonally">
<polygon fill="white" stroke="black" points="471.5,-293.5 471.5,-334.5 650.5,-334.5 650.5,-293.5 471.5,-293.5"/>
<text text-anchor="start" x="479.5" y="-322.5" font-family="Helvetica,sans-Serif" font-size="10.00">tests.screenWrapTests.Turtle</text>
<text text-anchor="start" x="479.5" y="-311.5" font-family="Helvetica,sans-Serif" font-size="10.00">ScreenWrapTests.exitRightBOttom</text>
<text text-anchor="middle" x="561" y="-300.5" font-family="Helvetica,sans-Serif" font-size="10.00">Diagonally</text>
</a>
</g>
</g>
<!-- Node2&#45;&gt;Node8 -->
<g id="edge7" class="edge"><title>Node2&#45;&gt;Node8</title>
<path fill="none" stroke="midnightblue" d="M424.288,-298.274C439.927,-300.086 456.041,-301.953 471.46,-303.74"/>
<polygon fill="midnightblue" stroke="midnightblue" points="424.428,-294.767 414.092,-297.092 423.623,-301.72 424.428,-294.767"/>
</g>
<!-- Node9 -->
<g id="node9" class="node"><title>Node9</title>
<g id="a_node9"><a xlink:href="../../df/d1f/classtests_1_1screen_wrap_tests_1_1_turtle_screen_wrap_tests.html#a08ce37429aff7988e44b90649df211d6" target="_top" xlink:title="tests.screenWrapTests.Turtle\lScreenWrapTests.exitLeftTopDiagonally">
<polygon fill="white" stroke="black" points="460.5,-245 460.5,-275 661.5,-275 661.5,-245 460.5,-245"/>
<text text-anchor="start" x="468.5" y="-263" font-family="Helvetica,sans-Serif" font-size="10.00">tests.screenWrapTests.Turtle</text>
<text text-anchor="middle" x="561" y="-252" font-family="Helvetica,sans-Serif" font-size="10.00">ScreenWrapTests.exitLeftTopDiagonally</text>
</a>
</g>
</g>
<!-- Node2&#45;&gt;Node9 -->
<g id="edge8" class="edge"><title>Node2&#45;&gt;Node9</title>
<path fill="none" stroke="midnightblue" d="M424.106,-275.747C436.122,-274.355 448.42,-272.93 460.471,-271.533"/>
<polygon fill="midnightblue" stroke="midnightblue" points="423.623,-272.28 414.092,-276.908 424.428,-279.233 423.623,-272.28"/>
</g>
<!-- Node10 -->
<g id="node10" class="node"><title>Node10</title>
<g id="a_node10"><a xlink:href="../../df/d1f/classtests_1_1screen_wrap_tests_1_1_turtle_screen_wrap_tests.html#a9bb95a8580f478b494f193f7a076dc26" target="_top" xlink:title="tests.screenWrapTests.Turtle\lScreenWrapTests.exitLeftBottomDiagonally">
<polygon fill="white" stroke="black" points="450.5,-196 450.5,-226 671.5,-226 671.5,-196 450.5,-196"/>
<text text-anchor="start" x="458.5" y="-214" font-family="Helvetica,sans-Serif" font-size="10.00">tests.screenWrapTests.Turtle</text>
<text text-anchor="middle" x="561" y="-203" font-family="Helvetica,sans-Serif" font-size="10.00">ScreenWrapTests.exitLeftBottomDiagonally</text>
</a>
</g>
</g>
<!-- Node2&#45;&gt;Node10 -->
<g id="edge9" class="edge"><title>Node2&#45;&gt;Node10</title>
<path fill="none" stroke="midnightblue" d="M368.401,-267.77C391.956,-257.355 422.218,-244.846 450,-236 461.477,-232.346 473.787,-229.004 485.869,-226.036"/>
<polygon fill="midnightblue" stroke="midnightblue" points="366.772,-264.664 359.071,-271.94 369.628,-271.055 366.772,-264.664"/>
</g>
<!-- Node11 -->
<g id="node11" class="node"><title>Node11</title>
<g id="a_node11"><a xlink:href="../../df/d1f/classtests_1_1screen_wrap_tests_1_1_turtle_screen_wrap_tests.html#a15854787cfae755b696fae7a5c61feed" target="_top" xlink:title="tests.screenWrapTests.Turtle\lScreenWrapTests.exitRightHorizontally">
<polygon fill="white" stroke="black" points="462,-147 462,-177 660,-177 660,-147 462,-147"/>
<text text-anchor="start" x="470" y="-165" font-family="Helvetica,sans-Serif" font-size="10.00">tests.screenWrapTests.Turtle</text>
<text text-anchor="middle" x="561" y="-154" font-family="Helvetica,sans-Serif" font-size="10.00">ScreenWrapTests.exitRightHorizontally</text>
</a>
</g>
</g>
<!-- Node2&#45;&gt;Node11 -->
<g id="edge10" class="edge"><title>Node2&#45;&gt;Node11</title>
<path fill="none" stroke="midnightblue" d="M348.097,-264.609C371.012,-241.642 409.761,-206.589 450,-187 458.012,-183.1 466.651,-179.796 475.44,-177"/>
<polygon fill="midnightblue" stroke="midnightblue" points="345.455,-262.303 340.953,-271.894 350.453,-267.204 345.455,-262.303"/>
</g>
<!-- Node12 -->
<g id="node12" class="node"><title>Node12</title>
<g id="a_node12"><a xlink:href="../../df/d1f/classtests_1_1screen_wrap_tests_1_1_turtle_screen_wrap_tests.html#a2d6fdd923f6a332030f21ba77d598288" target="_top" xlink:title="tests.screenWrapTests.Turtle\lScreenWrapTests.exitLeftHorizontally">
<polygon fill="white" stroke="black" points="465,-98 465,-128 657,-128 657,-98 465,-98"/>
<text text-anchor="start" x="473" y="-116" font-family="Helvetica,sans-Serif" font-size="10.00">tests.screenWrapTests.Turtle</text>
<text text-anchor="middle" x="561" y="-105" font-family="Helvetica,sans-Serif" font-size="10.00">ScreenWrapTests.exitLeftHorizontally</text>
</a>
</g>
</g>
<!-- Node2&#45;&gt;Node12 -->
<g id="edge11" class="edge"><title>Node2&#45;&gt;Node12</title>
<path fill="none" stroke="midnightblue" d="M340.012,-262.874C359.382,-229.38 399.052,-169.383 450,-138 456.336,-134.097 463.215,-130.802 470.336,-128.02"/>
<polygon fill="midnightblue" stroke="midnightblue" points="336.748,-261.536 334.878,-271.964 342.843,-264.978 336.748,-261.536"/>
</g>
<!-- Node13 -->
<g id="node13" class="node"><title>Node13</title>
<g id="a_node13"><a xlink:href="../../df/d1f/classtests_1_1screen_wrap_tests_1_1_turtle_screen_wrap_tests.html#aa462570f354601659fc671244c30d715" target="_top" xlink:title="tests.screenWrapTests.Turtle\lScreenWrapTests.exitTopVertically">
<polygon fill="white" stroke="black" points="473,-49 473,-79 649,-79 649,-49 473,-49"/>
<text text-anchor="start" x="481" y="-67" font-family="Helvetica,sans-Serif" font-size="10.00">tests.screenWrapTests.Turtle</text>
<text text-anchor="middle" x="561" y="-56" font-family="Helvetica,sans-Serif" font-size="10.00">ScreenWrapTests.exitTopVertically</text>
</a>
</g>
</g>
<!-- Node2&#45;&gt;Node13 -->
<g id="edge12" class="edge"><title>Node2&#45;&gt;Node13</title>
<path fill="none" stroke="midnightblue" d="M335.198,-262.17C350.569,-219.663 387.893,-133.264 450,-89 456.937,-84.0556 464.693,-80.0697 472.789,-76.8593"/>
<polygon fill="midnightblue" stroke="midnightblue" points="331.848,-261.146 331.842,-271.741 338.454,-263.463 331.848,-261.146"/>
</g>
<!-- Node14 -->
<g id="node14" class="node"><title>Node14</title>
<g id="a_node14"><a xlink:href="../../df/d1f/classtests_1_1screen_wrap_tests_1_1_turtle_screen_wrap_tests.html#a567edc540b0561af9828e1b8461f0e21" target="_top" xlink:title="tests.screenWrapTests.Turtle\lScreenWrapTests.exitBottomVertically">
<polygon fill="white" stroke="black" points="462.5,-0 462.5,-30 659.5,-30 659.5,-0 462.5,-0"/>
<text text-anchor="start" x="470.5" y="-18" font-family="Helvetica,sans-Serif" font-size="10.00">tests.screenWrapTests.Turtle</text>
<text text-anchor="middle" x="561" y="-7" font-family="Helvetica,sans-Serif" font-size="10.00">ScreenWrapTests.exitBottomVertically</text>
</a>
</g>
</g>
<!-- Node2&#45;&gt;Node14 -->
<g id="edge13" class="edge"><title>Node2&#45;&gt;Node14</title>
<path fill="none" stroke="midnightblue" d="M331.999,-261.943C343.415,-211.571 376.313,-97.9154 450,-40 454.927,-36.1274 460.341,-32.8323 466.044,-30.0309"/>
<polygon fill="midnightblue" stroke="midnightblue" points="328.525,-261.448 329.826,-271.962 335.366,-262.932 328.525,-261.448"/>
</g>
</g>
</svg>
