<?xml version="1.0" encoding="UTF-8" standalone="no"?>
<!DOCTYPE svg PUBLIC "-//W3C//DTD SVG 1.1//EN"
 "http://www.w3.org/Graphics/SVG/1.1/DTD/svg11.dtd">
<!-- Generated by graphviz version 2.36.0 (20140111.2315)
 -->
<!-- Title: gui.mainclasses.workspace.Workspace.getScreenParams Pages: 1 -->
<svg width="588pt" height="38pt"
 viewBox="0.00 0.00 588.00 38.00" xmlns="http://www.w3.org/2000/svg" xmlns:xlink="http://www.w3.org/1999/xlink">
<g id="graph0" class="graph" transform="scale(1 1) rotate(0) translate(4 34)">
<title>gui.mainclasses.workspace.Workspace.getScreenParams</title>
<polygon fill="white" stroke="none" points="-4,4 -4,-34 584,-34 584,4 -4,4"/>
<!-- Node1 -->
<g id="node1" class="node"><title>Node1</title>
<polygon fill="#bfbfbf" stroke="black" points="0,-0 0,-30 156,-30 156,-0 0,-0"/>
<text text-anchor="start" x="8" y="-18" font-family="Helvetica,sans-Serif" font-size="10.00">gui.mainclasses.workspace.</text>
<text text-anchor="middle" x="78" y="-7" font-family="Helvetica,sans-Serif" font-size="10.00">Workspace.getScreenParams</text>
</g>
<!-- Node2 -->
<g id="node2" class="node"><title>Node2</title>
<g id="a_node2"><a xlink:href="../../dd/d4c/classgui_1_1componentdrawers_1_1_turtle_screen_drawer.html#acb19cf73023088f555bd5e2e6d2ce986" target="_top" xlink:title="gui.componentdrawers.Turtle\lScreenDrawer.getScreenParams">
<polygon fill="white" stroke="black" points="192,-0 192,-30 364,-30 364,-0 192,-0"/>
<text text-anchor="start" x="200" y="-18" font-family="Helvetica,sans-Serif" font-size="10.00">gui.componentdrawers.Turtle</text>
<text text-anchor="middle" x="278" y="-7" font-family="Helvetica,sans-Serif" font-size="10.00">ScreenDrawer.getScreenParams</text>
</a>
</g>
</g>
<!-- Node1&#45;&gt;Node2 -->
<g id="edge1" class="edge"><title>Node1&#45;&gt;Node2</title>
<path fill="none" stroke="midnightblue" d="M156.119,-15C164.548,-15 173.199,-15 181.812,-15"/>
<polygon fill="midnightblue" stroke="midnightblue" points="181.89,-18.5001 191.89,-15 181.89,-11.5001 181.89,-18.5001"/>
</g>
<!-- Node3 -->
<g id="node3" class="node"><title>Node3</title>
<g id="a_node3"><a xlink:href="../../dd/d08/class_x_m_l_1_1workspaceparams_1_1_workspace_screen_parameters.html#a5eb367f82065dcbb61f1bfab175312cd" target="_top" xlink:title="XML.workspaceparams.Workspace\lScreenParameters.put">
<polygon fill="white" stroke="black" points="400,-0 400,-30 580,-30 580,-0 400,-0"/>
<text text-anchor="start" x="408" y="-18" font-family="Helvetica,sans-Serif" font-size="10.00">XML.workspaceparams.Workspace</text>
<text text-anchor="middle" x="490" y="-7" font-family="Helvetica,sans-Serif" font-size="10.00">ScreenParameters.put</text>
</a>
</g>
</g>
<!-- Node2&#45;&gt;Node3 -->
<g id="edge2" class="edge"><title>Node2&#45;&gt;Node3</title>
<path fill="none" stroke="midnightblue" d="M364.112,-15C372.438,-15 380.936,-15 389.388,-15"/>
<polygon fill="midnightblue" stroke="midnightblue" points="389.66,-18.5001 399.66,-15 389.66,-11.5001 389.66,-18.5001"/>
</g>
</g>
</svg>
