<?xml version="1.0" encoding="UTF-8" standalone="no"?>
<!DOCTYPE svg PUBLIC "-//W3C//DTD SVG 1.1//EN"
 "http://www.w3.org/Graphics/SVG/1.1/DTD/svg11.dtd">
<!-- Generated by graphviz version 2.36.0 (20140111.2315)
 -->
<!-- Title: gui.mainclasses.workspace.Workspace.parseCommandString Pages: 1 -->
<!--zoomable 441 -->
<svg id="main" version="1.1" xmlns="http://www.w3.org/2000/svg" xmlns:xlink="http://www.w3.org/1999/xlink" xml:space="preserve" onload="init(evt)">
<style type="text/css"><![CDATA[
.edge:hover path { stroke: red; }
.edge:hover polygon { stroke: red; fill: red; }
]]></style>
<script type="text/javascript"><![CDATA[
var edges = document.getElementsByTagName('g');
if (edges && edges.length) {
  for (var i=0;i<edges.length;i++) {
    if (edges[i].id.substr(0,4)=='edge') {
      edges[i].setAttribute('class','edge');
    }
  }
}
]]></script>
        <defs>
                <circle id="rim" cx="0" cy="0" r="7"/>
                <circle id="rim2" cx="0" cy="0" r="3.5"/>
                <g id="zoomPlus">
                        <use xlink:href="#rim" fill="#404040">
                                <set attributeName="fill" to="#808080" begin="zoomplus.mouseover" end="zoomplus.mouseout"/>
                        </use>
                        <path d="M-4,0h8M0,-4v8" fill="none" stroke="white" stroke-width="1.5" pointer-events="none"/>
                </g>
                <g id="zoomMin">
                        <use xlink:href="#rim" fill="#404040">
                                <set attributeName="fill" to="#808080" begin="zoomminus.mouseover" end="zoomminus.mouseout"/>
                        </use>
                        <path d="M-4,0h8" fill="none" stroke="white" stroke-width="1.5" pointer-events="none"/>
                </g>
                <g id="dirArrow">
                        <path fill="none" stroke="white" stroke-width="1.5" d="M0,-3.0v7 M-2.5,-0.5L0,-3.0L2.5,-0.5"/>
                </g>
               <g id="resetDef">
                       <use xlink:href="#rim2" fill="#404040">
                               <set attributeName="fill" to="#808080" begin="reset.mouseover" end="reset.mouseout"/>
                       </use>
               </g>
        </defs>

<script type="text/javascript">
var viewWidth = 878;
var viewHeight = 441;
var sectionId = 'dynsection-16';
</script>
<script xlink:href="../../svgpan.js"/>
<svg id="graph" class="graph">
<g id="viewport">
<title>gui.mainclasses.workspace.Workspace.parseCommandString</title>
<polygon fill="white" stroke="none" points="-4,4 -4,-437 874,-437 874,4 -4,4"/>
<!-- Node1 -->
<g id="node1" class="node"><title>Node1</title>
<polygon fill="#bfbfbf" stroke="black" points="0,-217 0,-247 176,-247 176,-217 0,-217"/>
<text text-anchor="start" x="8" y="-235" font-family="Helvetica,sans-Serif" font-size="10.00">gui.mainclasses.workspace.</text>
<text text-anchor="middle" x="88" y="-224" font-family="Helvetica,sans-Serif" font-size="10.00">Workspace.parseCommandString</text>
</g>
<!-- Node2 -->
<g id="node2" class="node"><title>Node2</title>
<g id="a_node2"><a xlink:href="../../d1/dea/classgui_1_1menus_1_1_file_menu.html#a74457f2750f6a40c52c28de3c6842fd1" target="_top" xlink:title="gui.menus.FileMenu.addTurtle\lToWorkspace">
<polygon fill="white" stroke="black" points="245,-403 245,-433 403,-433 403,-403 245,-403"/>
<text text-anchor="start" x="253" y="-421" font-family="Helvetica,sans-Serif" font-size="10.00">gui.menus.FileMenu.addTurtle</text>
<text text-anchor="middle" x="324" y="-410" font-family="Helvetica,sans-Serif" font-size="10.00">ToWorkspace</text>
</a>
</g>
</g>
<!-- Node1&#45;&gt;Node2 -->
<g id="edge1" class="edge"><title>Node1&#45;&gt;Node2</title>
<path fill="none" stroke="midnightblue" d="M101.365,-255.999C120.399,-290.517 160.173,-353.781 212,-388 221.912,-394.544 233.213,-399.667 244.721,-403.676"/>
<polygon fill="midnightblue" stroke="midnightblue" points="104.379,-254.215 96.5533,-247.073 98.2177,-257.537 104.379,-254.215"/>
</g>
<!-- Node3 -->
<g id="node3" class="node"><title>Node3</title>
<g id="a_node3"><a xlink:href="../../d1/dea/classgui_1_1menus_1_1_file_menu.html#ae040d0be1f3ff61aae358d2d6894619e" target="_top" xlink:title="gui.menus.FileMenu.FileMenu">
<polygon fill="white" stroke="black" points="506.5,-388.5 506.5,-407.5 661.5,-407.5 661.5,-388.5 506.5,-388.5"/>
<text text-anchor="middle" x="584" y="-395.5" font-family="Helvetica,sans-Serif" font-size="10.00">gui.menus.FileMenu.FileMenu</text>
</a>
</g>
</g>
<!-- Node1&#45;&gt;Node3 -->
<g id="edge8" class="edge"><title>Node1&#45;&gt;Node3</title>
<path fill="none" stroke="midnightblue" d="M104.922,-255.429C125.816,-284.067 165.36,-331.489 212,-354 262.381,-378.317 413.316,-389.841 506.418,-394.772"/>
<polygon fill="midnightblue" stroke="midnightblue" points="107.704,-253.303 99.0488,-247.193 102.005,-257.367 107.704,-253.303"/>
</g>
<!-- Node4 -->
<g id="node4" class="node"><title>Node4</title>
<g id="a_node4"><a xlink:href="../../d7/dcb/classgui_1_1nonbuttonfeatures_1_1pen_1_1_pen_color_picker_feature.html#a3078379f2eb940905e5ef7001540562f" target="_top" xlink:title="gui.nonbuttonfeatures.pen.\lPenColorPickerFeature.changePenColor">
<polygon fill="white" stroke="black" points="221.5,-315 221.5,-345 426.5,-345 426.5,-315 221.5,-315"/>
<text text-anchor="start" x="229.5" y="-333" font-family="Helvetica,sans-Serif" font-size="10.00">gui.nonbuttonfeatures.pen.</text>
<text text-anchor="middle" x="324" y="-322" font-family="Helvetica,sans-Serif" font-size="10.00">PenColorPickerFeature.changePenColor</text>
</a>
</g>
</g>
<!-- Node1&#45;&gt;Node4 -->
<g id="edge3" class="edge"><title>Node1&#45;&gt;Node4</title>
<path fill="none" stroke="midnightblue" d="M118.046,-252.814C142.152,-269.188 177.887,-291.431 212,-305 221.636,-308.833 231.989,-312.145 242.358,-314.989"/>
<polygon fill="midnightblue" stroke="midnightblue" points="119.936,-249.866 109.716,-247.075 115.965,-255.63 119.936,-249.866"/>
</g>
<!-- Node6 -->
<g id="node6" class="node"><title>Node6</title>
<g id="a_node6"><a xlink:href="../../d0/d64/classgui_1_1nonbuttonfeatures_1_1_command_line_feature.html#a4dff445024bfeb311bd236e17ddbacb5" target="_top" xlink:title="gui.nonbuttonfeatures.Command\lLineFeature.CommandLineFeature">
<polygon fill="white" stroke="black" points="233.5,-266 233.5,-296 414.5,-296 414.5,-266 233.5,-266"/>
<text text-anchor="start" x="241.5" y="-284" font-family="Helvetica,sans-Serif" font-size="10.00">gui.nonbuttonfeatures.Command</text>
<text text-anchor="middle" x="324" y="-273" font-family="Helvetica,sans-Serif" font-size="10.00">LineFeature.CommandLineFeature</text>
</a>
</g>
</g>
<!-- Node1&#45;&gt;Node6 -->
<g id="edge5" class="edge"><title>Node1&#45;&gt;Node6</title>
<path fill="none" stroke="midnightblue" d="M170.722,-249.113C196.981,-254.611 225.857,-260.658 251.338,-265.994"/>
<polygon fill="midnightblue" stroke="midnightblue" points="171.303,-245.659 160.798,-247.035 169.868,-252.51 171.303,-245.659"/>
</g>
<!-- Node7 -->
<g id="node7" class="node"><title>Node7</title>
<g id="a_node7"><a xlink:href="../../d2/dc7/classgui_1_1nonbuttonfeatures_1_1tableviews_1_1variables_1_1_editing_cell.html#ae385a984ae073026aa03561792416a78" target="_top" xlink:title="gui.nonbuttonfeatures.tableviews.variables.\lEditingCell.createTextField">
<polygon fill="white" stroke="black" points="212,-217 212,-247 436,-247 436,-217 212,-217"/>
<text text-anchor="start" x="220" y="-235" font-family="Helvetica,sans-Serif" font-size="10.00">gui.nonbuttonfeatures.tableviews.variables.</text>
<text text-anchor="middle" x="324" y="-224" font-family="Helvetica,sans-Serif" font-size="10.00">EditingCell.createTextField</text>
</a>
</g>
</g>
<!-- Node1&#45;&gt;Node7 -->
<g id="edge6" class="edge"><title>Node1&#45;&gt;Node7</title>
<path fill="none" stroke="midnightblue" d="M186.369,-232C194.828,-232 203.428,-232 211.986,-232"/>
<polygon fill="midnightblue" stroke="midnightblue" points="186.133,-228.5 176.133,-232 186.133,-235.5 186.133,-228.5"/>
</g>
<!-- Node9 -->
<g id="node9" class="node"><title>Node9</title>
<g id="a_node9"><a xlink:href="../../d8/df2/classgui_1_1mainclasses_1_1workspace_1_1_workspace.html#afe27c5d2bffafe1e1092a0319331cc33" target="_top" xlink:title="gui.mainclasses.workspace.\lWorkspace.notifyOfTurtleSelection\lChange">
<polygon fill="white" stroke="black" points="235.5,-157.5 235.5,-198.5 412.5,-198.5 412.5,-157.5 235.5,-157.5"/>
<text text-anchor="start" x="243.5" y="-186.5" font-family="Helvetica,sans-Serif" font-size="10.00">gui.mainclasses.workspace.</text>
<text text-anchor="start" x="243.5" y="-175.5" font-family="Helvetica,sans-Serif" font-size="10.00">Workspace.notifyOfTurtleSelection</text>
<text text-anchor="middle" x="324" y="-164.5" font-family="Helvetica,sans-Serif" font-size="10.00">Change</text>
</a>
</g>
</g>
<!-- Node1&#45;&gt;Node9 -->
<g id="edge9" class="edge"><title>Node1&#45;&gt;Node9</title>
<path fill="none" stroke="midnightblue" d="M164.095,-214.67C186.815,-209.427 211.964,-203.624 235.425,-198.21"/>
<polygon fill="midnightblue" stroke="midnightblue" points="163.139,-211.299 154.182,-216.958 164.713,-218.12 163.139,-211.299"/>
</g>
<!-- Node12 -->
<g id="node12" class="node"><title>Node12</title>
<g id="a_node12"><a xlink:href="../../dc/d93/classgui_1_1nonbuttonfeatures_1_1pen_1_1_pen_up_or_down_feature.html#a2d50dbb527225257edef57d6c4a1c084" target="_top" xlink:title="gui.nonbuttonfeatures.pen.\lPenUpOrDownFeature.PenUpOrDown\lFeature">
<polygon fill="white" stroke="black" points="227,-97.5 227,-138.5 421,-138.5 421,-97.5 227,-97.5"/>
<text text-anchor="start" x="235" y="-126.5" font-family="Helvetica,sans-Serif" font-size="10.00">gui.nonbuttonfeatures.pen.</text>
<text text-anchor="start" x="235" y="-115.5" font-family="Helvetica,sans-Serif" font-size="10.00">PenUpOrDownFeature.PenUpOrDown</text>
<text text-anchor="middle" x="324" y="-104.5" font-family="Helvetica,sans-Serif" font-size="10.00">Feature</text>
</a>
</g>
</g>
<!-- Node1&#45;&gt;Node12 -->
<g id="edge12" class="edge"><title>Node1&#45;&gt;Node12</title>
<path fill="none" stroke="midnightblue" d="M114.858,-210.502C138.733,-191.622 175.862,-164.642 212,-148 219.525,-144.535 227.527,-141.405 235.654,-138.592"/>
<polygon fill="midnightblue" stroke="midnightblue" points="112.601,-207.826 106.989,-216.813 116.98,-213.287 112.601,-207.826"/>
</g>
<!-- Node13 -->
<g id="node13" class="node"><title>Node13</title>
<g id="a_node13"><a xlink:href="../../df/da5/classgui_1_1nonbuttonfeatures_1_1pen_1_1_pen_thickness_slider_feature.html#a28590dd5170b40217f2a9179df0f7f4f" target="_top" xlink:title="gui.nonbuttonfeatures.pen.\lPenThicknessSliderFeature.setPenSize">
<polygon fill="white" stroke="black" points="224,-49 224,-79 424,-79 424,-49 224,-49"/>
<text text-anchor="start" x="232" y="-67" font-family="Helvetica,sans-Serif" font-size="10.00">gui.nonbuttonfeatures.pen.</text>
<text text-anchor="middle" x="324" y="-56" font-family="Helvetica,sans-Serif" font-size="10.00">PenThicknessSliderFeature.setPenSize</text>
</a>
</g>
</g>
<!-- Node1&#45;&gt;Node13 -->
<g id="edge13" class="edge"><title>Node1&#45;&gt;Node13</title>
<path fill="none" stroke="midnightblue" d="M102.477,-208.114C122.15,-175.568 161.903,-117.922 212,-88 217.755,-84.5626 223.939,-81.615 230.338,-79.0876"/>
<polygon fill="midnightblue" stroke="midnightblue" points="99.3194,-206.578 97.2473,-216.968 105.347,-210.138 99.3194,-206.578"/>
</g>
<!-- Node15 -->
<g id="node15" class="node"><title>Node15</title>
<g id="a_node15"><a xlink:href="../../de/d46/classgui_1_1nonbuttonfeatures_1_1_turtle_image_feature.html#a18bdc932497aaaea84fb0a34fd0fd4a2" target="_top" xlink:title="gui.nonbuttonfeatures.Turtle\lImageFeature.TurtleImageFeature">
<polygon fill="white" stroke="black" points="235.5,-0 235.5,-30 412.5,-30 412.5,-0 235.5,-0"/>
<text text-anchor="start" x="243.5" y="-18" font-family="Helvetica,sans-Serif" font-size="10.00">gui.nonbuttonfeatures.Turtle</text>
<text text-anchor="middle" x="324" y="-7" font-family="Helvetica,sans-Serif" font-size="10.00">ImageFeature.TurtleImageFeature</text>
</a>
</g>
</g>
<!-- Node1&#45;&gt;Node15 -->
<g id="edge15" class="edge"><title>Node1&#45;&gt;Node15</title>
<path fill="none" stroke="midnightblue" d="M97.5484,-207.151C113.257,-165.404 150.825,-81.5894 212,-39 219.12,-34.0434 227.071,-30.0816 235.358,-26.9191"/>
<polygon fill="midnightblue" stroke="midnightblue" points="94.1648,-206.213 94.0247,-216.807 100.741,-208.613 94.1648,-206.213"/>
</g>
<!-- Node2&#45;&gt;Node3 -->
<g id="edge2" class="edge"><title>Node2&#45;&gt;Node3</title>
<path fill="none" stroke="midnightblue" d="M413.246,-411.159C443.548,-408.81 477.195,-406.202 506.488,-403.931"/>
<polygon fill="midnightblue" stroke="midnightblue" points="412.808,-407.683 403.109,-411.945 413.349,-414.662 412.808,-407.683"/>
</g>
<!-- Node5 -->
<g id="node5" class="node"><title>Node5</title>
<g id="a_node5"><a xlink:href="../../d7/dcb/classgui_1_1nonbuttonfeatures_1_1pen_1_1_pen_color_picker_feature.html#a81a0f1a6c8a7bc72f47d734988577ad9" target="_top" xlink:title="gui.nonbuttonfeatures.pen.\lPenColorPickerFeature.PenColor\lPickerFeature">
<polygon fill="white" stroke="black" points="499,-309.5 499,-350.5 669,-350.5 669,-309.5 499,-309.5"/>
<text text-anchor="start" x="507" y="-338.5" font-family="Helvetica,sans-Serif" font-size="10.00">gui.nonbuttonfeatures.pen.</text>
<text text-anchor="start" x="507" y="-327.5" font-family="Helvetica,sans-Serif" font-size="10.00">PenColorPickerFeature.PenColor</text>
<text text-anchor="middle" x="584" y="-316.5" font-family="Helvetica,sans-Serif" font-size="10.00">PickerFeature</text>
</a>
</g>
</g>
<!-- Node4&#45;&gt;Node5 -->
<g id="edge4" class="edge"><title>Node4&#45;&gt;Node5</title>
<path fill="none" stroke="midnightblue" d="M436.78,-330C457.641,-330 479.114,-330 498.963,-330"/>
<polygon fill="midnightblue" stroke="midnightblue" points="436.598,-326.5 426.598,-330 436.598,-333.5 436.598,-326.5"/>
</g>
<!-- Node8 -->
<g id="node8" class="node"><title>Node8</title>
<g id="a_node8"><a xlink:href="../../d2/dc7/classgui_1_1nonbuttonfeatures_1_1tableviews_1_1variables_1_1_editing_cell.html#af1eccedb428d7558821b79d9abacbe36" target="_top" xlink:title="gui.nonbuttonfeatures.tableviews.variables.\lEditingCell.startEdit">
<polygon fill="white" stroke="black" points="472,-217 472,-247 696,-247 696,-217 472,-217"/>
<text text-anchor="start" x="480" y="-235" font-family="Helvetica,sans-Serif" font-size="10.00">gui.nonbuttonfeatures.tableviews.variables.</text>
<text text-anchor="middle" x="584" y="-224" font-family="Helvetica,sans-Serif" font-size="10.00">EditingCell.startEdit</text>
</a>
</g>
</g>
<!-- Node7&#45;&gt;Node8 -->
<g id="edge7" class="edge"><title>Node7&#45;&gt;Node8</title>
<path fill="none" stroke="midnightblue" d="M446.499,-232C454.895,-232 463.334,-232 471.673,-232"/>
<polygon fill="midnightblue" stroke="midnightblue" points="446.287,-228.5 436.287,-232 446.287,-235.5 446.287,-228.5"/>
</g>
<!-- Node10 -->
<g id="node10" class="node"><title>Node10</title>
<g id="a_node10"><a xlink:href="../../d1/d95/classgui_1_1factories_1_1turtlefactory_1_1_turtle_node.html#a8a90adc42503d132ce9c45b10844e32b" target="_top" xlink:title="gui.factories.turtlefactory.\lTurtleNode.selectTurtle">
<polygon fill="white" stroke="black" points="515,-163 515,-193 653,-193 653,-163 515,-163"/>
<text text-anchor="start" x="523" y="-181" font-family="Helvetica,sans-Serif" font-size="10.00">gui.factories.turtlefactory.</text>
<text text-anchor="middle" x="584" y="-170" font-family="Helvetica,sans-Serif" font-size="10.00">TurtleNode.selectTurtle</text>
</a>
</g>
</g>
<!-- Node9&#45;&gt;Node10 -->
<g id="edge10" class="edge"><title>Node9&#45;&gt;Node10</title>
<path fill="none" stroke="midnightblue" d="M422.972,-178C453.55,-178 486.601,-178 514.683,-178"/>
<polygon fill="midnightblue" stroke="midnightblue" points="422.707,-174.5 412.707,-178 422.707,-181.5 422.707,-174.5"/>
</g>
<!-- Node11 -->
<g id="node11" class="node"><title>Node11</title>
<g id="a_node11"><a xlink:href="../../d1/d95/classgui_1_1factories_1_1turtlefactory_1_1_turtle_node.html#aeae66bb4bbd0ee69922deaf346872467" target="_top" xlink:title="gui.factories.turtlefactory.\lTurtleNode.TurtleNode">
<polygon fill="white" stroke="black" points="732,-163 732,-193 870,-193 870,-163 732,-163"/>
<text text-anchor="start" x="740" y="-181" font-family="Helvetica,sans-Serif" font-size="10.00">gui.factories.turtlefactory.</text>
<text text-anchor="middle" x="801" y="-170" font-family="Helvetica,sans-Serif" font-size="10.00">TurtleNode.TurtleNode</text>
</a>
</g>
</g>
<!-- Node10&#45;&gt;Node11 -->
<g id="edge11" class="edge"><title>Node10&#45;&gt;Node11</title>
<path fill="none" stroke="midnightblue" d="M663.188,-178C685.618,-178 709.891,-178 731.677,-178"/>
<polygon fill="midnightblue" stroke="midnightblue" points="663.027,-174.5 653.027,-178 663.027,-181.5 663.027,-174.5"/>
</g>
<!-- Node14 -->
<g id="node14" class="node"><title>Node14</title>
<g id="a_node14"><a xlink:href="../../df/da5/classgui_1_1nonbuttonfeatures_1_1pen_1_1_pen_thickness_slider_feature.html#ac21db0471ec55460007a5bc7f1dd5b40" target="_top" xlink:title="gui.nonbuttonfeatures.pen.\lPenThicknessSliderFeature.PenThickness\lSliderFeature">
<polygon fill="white" stroke="black" points="478,-43.5 478,-84.5 690,-84.5 690,-43.5 478,-43.5"/>
<text text-anchor="start" x="486" y="-72.5" font-family="Helvetica,sans-Serif" font-size="10.00">gui.nonbuttonfeatures.pen.</text>
<text text-anchor="start" x="486" y="-61.5" font-family="Helvetica,sans-Serif" font-size="10.00">PenThicknessSliderFeature.PenThickness</text>
<text text-anchor="middle" x="584" y="-50.5" font-family="Helvetica,sans-Serif" font-size="10.00">SliderFeature</text>
</a>
</g>
</g>
<!-- Node13&#45;&gt;Node14 -->
<g id="edge14" class="edge"><title>Node13&#45;&gt;Node14</title>
<path fill="none" stroke="midnightblue" d="M434.416,-64C448.801,-64 463.517,-64 477.829,-64"/>
<polygon fill="midnightblue" stroke="midnightblue" points="434.012,-60.5001 424.012,-64 434.012,-67.5001 434.012,-60.5001"/>
</g>
</g>
</svg>
        <g id="navigator" transform="translate(0 0)" fill="#404254">
                <rect fill="#f2f5e9" fill-opacity="0.5" stroke="#606060" stroke-width=".5" x="0" y="0" width="60" height="60"/>
                <use id="zoomplus" xlink:href="#zoomPlus" x="17" y="9" onmousedown="handleZoom(evt,'in')"/>
                <use id="zoomminus" xlink:href="#zoomMin" x="42" y="9" onmousedown="handleZoom(evt,'out')"/>
                <use id="reset" xlink:href="#resetDef" x="30" y="36" onmousedown="handleReset()"/>
                <g id="arrowUp" xlink:href="#dirArrow" transform="translate(30 24)" onmousedown="handlePan(0,-1)">
                  <use xlink:href="#rim" fill="#404040">
                        <set attributeName="fill" to="#808080" begin="arrowUp.mouseover" end="arrowUp.mouseout"/>
                  </use>
                  <path fill="none" stroke="white" stroke-width="1.5" d="M0,-3.0v7 M-2.5,-0.5L0,-3.0L2.5,-0.5"/>
                </g>
                <g id="arrowRight" xlink:href="#dirArrow" transform="rotate(90) translate(36 -43)" onmousedown="handlePan(1,0)">
                  <use xlink:href="#rim" fill="#404040">
                        <set attributeName="fill" to="#808080" begin="arrowRight.mouseover" end="arrowRight.mouseout"/>
                  </use>
                  <path fill="none" stroke="white" stroke-width="1.5" d="M0,-3.0v7 M-2.5,-0.5L0,-3.0L2.5,-0.5"/>
                </g>
                <g id="arrowDown" xlink:href="#dirArrow" transform="rotate(180) translate(-30 -48)" onmousedown="handlePan(0,1)">
                  <use xlink:href="#rim" fill="#404040">
                        <set attributeName="fill" to="#808080" begin="arrowDown.mouseover" end="arrowDown.mouseout"/>
                  </use>
                  <path fill="none" stroke="white" stroke-width="1.5" d="M0,-3.0v7 M-2.5,-0.5L0,-3.0L2.5,-0.5"/>
                </g>
                <g id="arrowLeft" xlink:href="#dirArrow" transform="rotate(270) translate(-36 17)" onmousedown="handlePan(-1,0)">
                  <use xlink:href="#rim" fill="#404040">
                        <set attributeName="fill" to="#808080" begin="arrowLeft.mouseover" end="arrowLeft.mouseout"/>
                  </use>
                  <path fill="none" stroke="white" stroke-width="1.5" d="M0,-3.0v7 M-2.5,-0.5L0,-3.0L2.5,-0.5"/>
                </g>
        </g>
        <svg viewBox="0 0 15 15" width="100%" height="30px" preserveAspectRatio="xMaxYMin meet">
         <g id="arrow_out" transform="scale(0.3 0.3)">
          <a xlink:href="classgui_1_1mainclasses_1_1workspace_1_1_workspace_a1c6c6c0599097fbf5e9a660ec0ac3702_icgraph_org.svg" target="_base">
           <rect id="button" ry="5" rx="5" y="6" x="6" height="38" width="38"
                fill="#f2f5e9" fill-opacity="0.5" stroke="#606060" stroke-width="1.0"/>
           <path id="arrow"
             d="M 11.500037,31.436501 C 11.940474,20.09759 22.043105,11.32322 32.158766,21.979434 L 37.068811,17.246167 C 37.068811,17.246167 37.088388,32 37.088388,32 L 22.160133,31.978069 C 22.160133,31.978069 26.997745,27.140456 26.997745,27.140456 C 18.528582,18.264221 13.291696,25.230495 11.500037,31.436501 z"
             style="fill:#404040;"/>
          </a>
         </g>
        </svg>
</svg>
