<?xml version="1.0" encoding="UTF-8" standalone="no"?>
<!DOCTYPE svg PUBLIC "-//W3C//DTD SVG 1.1//EN"
 "http://www.w3.org/Graphics/SVG/1.1/DTD/svg11.dtd">
<!-- Generated by graphviz version 2.36.0 (20140111.2315)
 -->
<!-- Title: gui.mainclasses.workspace.Workspace.notifyOfTurtleSelectionChange Pages: 1 -->
<svg width="588pt" height="87pt"
 viewBox="0.00 0.00 588.00 87.00" xmlns="http://www.w3.org/2000/svg" xmlns:xlink="http://www.w3.org/1999/xlink">
<g id="graph0" class="graph" transform="scale(1 1) rotate(0) translate(4 83)">
<title>gui.mainclasses.workspace.Workspace.notifyOfTurtleSelectionChange</title>
<polygon fill="white" stroke="none" points="-4,4 -4,-83 584,-83 584,4 -4,4"/>
<!-- Node1 -->
<g id="node1" class="node"><title>Node1</title>
<polygon fill="#bfbfbf" stroke="black" points="0.5,-18.5 0.5,-59.5 177.5,-59.5 177.5,-18.5 0.5,-18.5"/>
<text text-anchor="start" x="8.5" y="-47.5" font-family="Helvetica,sans-Serif" font-size="10.00">gui.mainclasses.workspace.</text>
<text text-anchor="start" x="8.5" y="-36.5" font-family="Helvetica,sans-Serif" font-size="10.00">Workspace.notifyOfTurtleSelection</text>
<text text-anchor="middle" x="89" y="-25.5" font-family="Helvetica,sans-Serif" font-size="10.00">Change</text>
</g>
<!-- Node2 -->
<g id="node2" class="node"><title>Node2</title>
<g id="a_node2"><a xlink:href="../../dd/d25/classgui_1_1factories_1_1turtlefactory_1_1_turtle_nodes.html#a95e5268536cc20234687d9c3f61f49be" target="_top" xlink:title="gui.factories.turtlefactory.\lTurtleNodes.getActiveNodes">
<polygon fill="white" stroke="black" points="226,-49 226,-79 378,-79 378,-49 226,-49"/>
<text text-anchor="start" x="234" y="-67" font-family="Helvetica,sans-Serif" font-size="10.00">gui.factories.turtlefactory.</text>
<text text-anchor="middle" x="302" y="-56" font-family="Helvetica,sans-Serif" font-size="10.00">TurtleNodes.getActiveNodes</text>
</a>
</g>
</g>
<!-- Node1&#45;&gt;Node2 -->
<g id="edge1" class="edge"><title>Node1&#45;&gt;Node2</title>
<path fill="none" stroke="midnightblue" d="M177.65,-49.3851C190.247,-50.8776 203.194,-52.4116 215.744,-53.8986"/>
<polygon fill="midnightblue" stroke="midnightblue" points="215.367,-57.3783 225.71,-55.0793 216.191,-50.427 215.367,-57.3783"/>
</g>
<!-- Node4 -->
<g id="node4" class="node"><title>Node4</title>
<g id="a_node4"><a xlink:href="../../d8/df2/classgui_1_1mainclasses_1_1workspace_1_1_workspace.html#a1c6c6c0599097fbf5e9a660ec0ac3702" target="_top" xlink:title="gui.mainclasses.workspace.\lWorkspace.parseCommandString">
<polygon fill="white" stroke="black" points="214,-0 214,-30 390,-30 390,-0 214,-0"/>
<text text-anchor="start" x="222" y="-18" font-family="Helvetica,sans-Serif" font-size="10.00">gui.mainclasses.workspace.</text>
<text text-anchor="middle" x="302" y="-7" font-family="Helvetica,sans-Serif" font-size="10.00">Workspace.parseCommandString</text>
</a>
</g>
</g>
<!-- Node1&#45;&gt;Node4 -->
<g id="edge3" class="edge"><title>Node1&#45;&gt;Node4</title>
<path fill="none" stroke="midnightblue" d="M177.65,-29.0303C186.276,-28.0491 195.067,-27.0493 203.781,-26.058"/>
<polygon fill="midnightblue" stroke="midnightblue" points="204.422,-29.5078 213.962,-24.9 203.631,-22.5527 204.422,-29.5078"/>
</g>
<!-- Node3 -->
<g id="node3" class="node"><title>Node3</title>
<g id="a_node3"><a xlink:href="../../d1/d95/classgui_1_1factories_1_1turtlefactory_1_1_turtle_node.html#a3e07701226a7044520bc57956f81f0ea" target="_top" xlink:title="gui.factories.turtlefactory.\lTurtleNode.isSelected">
<polygon fill="white" stroke="black" points="434,-49 434,-79 572,-79 572,-49 434,-49"/>
<text text-anchor="start" x="442" y="-67" font-family="Helvetica,sans-Serif" font-size="10.00">gui.factories.turtlefactory.</text>
<text text-anchor="middle" x="503" y="-56" font-family="Helvetica,sans-Serif" font-size="10.00">TurtleNode.isSelected</text>
</a>
</g>
</g>
<!-- Node2&#45;&gt;Node3 -->
<g id="edge2" class="edge"><title>Node2&#45;&gt;Node3</title>
<path fill="none" stroke="midnightblue" d="M378.233,-64C393.078,-64 408.691,-64 423.636,-64"/>
<polygon fill="midnightblue" stroke="midnightblue" points="423.859,-67.5001 433.859,-64 423.859,-60.5001 423.859,-67.5001"/>
</g>
<!-- Node5 -->
<g id="node5" class="node"><title>Node5</title>
<g id="a_node5"><a xlink:href="../../da/d55/interface_control_1_1_slogo_graphics.html#a05813100446932183f367405e6c73d67" target="_top" xlink:title="Control.SlogoGraphics.parse\lCommandString">
<polygon fill="white" stroke="black" points="426.5,-0 426.5,-30 579.5,-30 579.5,-0 426.5,-0"/>
<text text-anchor="start" x="434.5" y="-18" font-family="Helvetica,sans-Serif" font-size="10.00">Control.SlogoGraphics.parse</text>
<text text-anchor="middle" x="503" y="-7" font-family="Helvetica,sans-Serif" font-size="10.00">CommandString</text>
</a>
</g>
</g>
<!-- Node4&#45;&gt;Node5 -->
<g id="edge4" class="edge"><title>Node4&#45;&gt;Node5</title>
<path fill="none" stroke="midnightblue" d="M390.284,-15C398.916,-15 407.673,-15 416.288,-15"/>
<polygon fill="midnightblue" stroke="midnightblue" points="416.322,-18.5001 426.322,-15 416.322,-11.5001 416.322,-18.5001"/>
</g>
</g>
</svg>
