<?xml version="1.0" encoding="UTF-8" standalone="no"?>
<!DOCTYPE svg PUBLIC "-//W3C//DTD SVG 1.1//EN"
 "http://www.w3.org/Graphics/SVG/1.1/DTD/svg11.dtd">
<!-- Generated by graphviz version 2.36.0 (20140111.2315)
 -->
<!-- Title: gui.mainclasses.workspace.Workspace.Workspace Pages: 1 -->
<!--zoomable 582 -->
<svg id="main" version="1.1" xmlns="http://www.w3.org/2000/svg" xmlns:xlink="http://www.w3.org/1999/xlink" xml:space="preserve" onload="init(evt)">
<style type="text/css"><![CDATA[
.edge:hover path { stroke: red; }
.edge:hover polygon { stroke: red; fill: red; }
]]></style>
<script type="text/javascript"><![CDATA[
var edges = document.getElementsByTagName('g');
if (edges && edges.length) {
  for (var i=0;i<edges.length;i++) {
    if (edges[i].id.substr(0,4)=='edge') {
      edges[i].setAttribute('class','edge');
    }
  }
}
]]></script>
        <defs>
                <circle id="rim" cx="0" cy="0" r="7"/>
                <circle id="rim2" cx="0" cy="0" r="3.5"/>
                <g id="zoomPlus">
                        <use xlink:href="#rim" fill="#404040">
                                <set attributeName="fill" to="#808080" begin="zoomplus.mouseover" end="zoomplus.mouseout"/>
                        </use>
                        <path d="M-4,0h8M0,-4v8" fill="none" stroke="white" stroke-width="1.5" pointer-events="none"/>
                </g>
                <g id="zoomMin">
                        <use xlink:href="#rim" fill="#404040">
                                <set attributeName="fill" to="#808080" begin="zoomminus.mouseover" end="zoomminus.mouseout"/>
                        </use>
                        <path d="M-4,0h8" fill="none" stroke="white" stroke-width="1.5" pointer-events="none"/>
                </g>
                <g id="dirArrow">
                        <path fill="none" stroke="white" stroke-width="1.5" d="M0,-3.0v7 M-2.5,-0.5L0,-3.0L2.5,-0.5"/>
                </g>
               <g id="resetDef">
                       <use xlink:href="#rim2" fill="#404040">
                               <set attributeName="fill" to="#808080" begin="reset.mouseover" end="reset.mouseout"/>
                       </use>
               </g>
        </defs>

<script type="text/javascript">
var viewWidth = 872;
var viewHeight = 582;
var sectionId = 'dynsection-2';
</script>
<script xlink:href="../../svgpan.js"/>
<svg id="graph" class="graph">
<g id="viewport">
<title>gui.mainclasses.workspace.Workspace.Workspace</title>
<polygon fill="white" stroke="none" points="-4,4 -4,-578 868,-578 868,4 -4,4"/>
<!-- Node1 -->
<g id="node1" class="node"><title>Node1</title>
<polygon fill="#bfbfbf" stroke="black" points="0.5,-323 0.5,-353 149.5,-353 149.5,-323 0.5,-323"/>
<text text-anchor="start" x="8.5" y="-341" font-family="Helvetica,sans-Serif" font-size="10.00">gui.mainclasses.workspace.</text>
<text text-anchor="middle" x="75" y="-330" font-family="Helvetica,sans-Serif" font-size="10.00">Workspace.Workspace</text>
</g>
<!-- Node2 -->
<g id="node2" class="node"><title>Node2</title>
<g id="a_node2"><a xlink:href="../../df/d64/classgui_1_1componentdrawers_1_1_component_builder.html#a9acabbcdf7709d2bfd99bed03faa2096" target="_top" xlink:title="gui.componentdrawers.Component\lBuilder.build">
<polygon fill="white" stroke="black" points="186.5,-469 186.5,-499 371.5,-499 371.5,-469 186.5,-469"/>
<text text-anchor="start" x="194.5" y="-487" font-family="Helvetica,sans-Serif" font-size="10.00">gui.componentdrawers.Component</text>
<text text-anchor="middle" x="279" y="-476" font-family="Helvetica,sans-Serif" font-size="10.00">Builder.build</text>
</a>
</g>
</g>
<!-- Node1&#45;&gt;Node2 -->
<g id="edge1" class="edge"><title>Node1&#45;&gt;Node2</title>
<path fill="none" stroke="midnightblue" d="M96.8567,-353.075C132.994,-379.194 207.335,-432.925 248.662,-462.795"/>
<polygon fill="midnightblue" stroke="midnightblue" points="246.799,-465.767 256.954,-468.789 250.9,-460.094 246.799,-465.767"/>
</g>
<!-- Node7 -->
<g id="node7" class="node"><title>Node7</title>
<g id="a_node7"><a xlink:href="../../d8/df2/classgui_1_1mainclasses_1_1workspace_1_1_workspace.html#a2b8ac3d24cc496d4522c1862453090f1" target="_top" xlink:title="gui.mainclasses.workspace.\lWorkspace.createPane">
<polygon fill="white" stroke="black" points="204.5,-345 204.5,-375 353.5,-375 353.5,-345 204.5,-345"/>
<text text-anchor="start" x="212.5" y="-363" font-family="Helvetica,sans-Serif" font-size="10.00">gui.mainclasses.workspace.</text>
<text text-anchor="middle" x="279" y="-352" font-family="Helvetica,sans-Serif" font-size="10.00">Workspace.createPane</text>
</a>
</g>
</g>
<!-- Node1&#45;&gt;Node7 -->
<g id="edge7" class="edge"><title>Node1&#45;&gt;Node7</title>
<path fill="none" stroke="midnightblue" d="M149.784,-346.036C164.252,-347.612 179.526,-349.275 194.291,-350.883"/>
<polygon fill="midnightblue" stroke="midnightblue" points="194.096,-354.383 204.416,-351.986 194.854,-347.424 194.096,-354.383"/>
</g>
<!-- Node8 -->
<g id="node8" class="node"><title>Node8</title>
<g id="a_node8"><a xlink:href="../../db/d5b/classgui_1_1mainclasses_1_1_factory_builder.html#af124c2a36a96d8dcaf4407148577210f" target="_top" xlink:title="gui.mainclasses.FactoryBuilder.init">
<polygon fill="white" stroke="black" points="189,-306.5 189,-325.5 369,-325.5 369,-306.5 189,-306.5"/>
<text text-anchor="middle" x="279" y="-313.5" font-family="Helvetica,sans-Serif" font-size="10.00">gui.mainclasses.FactoryBuilder.init</text>
</a>
</g>
</g>
<!-- Node1&#45;&gt;Node8 -->
<g id="edge8" class="edge"><title>Node1&#45;&gt;Node8</title>
<path fill="none" stroke="midnightblue" d="M149.784,-329.964C159.862,-328.866 170.331,-327.726 180.747,-326.592"/>
<polygon fill="midnightblue" stroke="midnightblue" points="181.14,-330.07 190.702,-325.508 180.382,-323.111 181.14,-330.07"/>
</g>
<!-- Node13 -->
<g id="node13" class="node"><title>Node13</title>
<g id="a_node13"><a xlink:href="../../d4/dd2/classgui_1_1mainclasses_1_1_feature_builder.html#a158ad9534f6b1334bdd1953bf76e32b8" target="_top" xlink:title="gui.mainclasses.FeatureBuilder.init">
<polygon fill="white" stroke="black" points="188,-195.5 188,-214.5 370,-214.5 370,-195.5 188,-195.5"/>
<text text-anchor="middle" x="279" y="-202.5" font-family="Helvetica,sans-Serif" font-size="10.00">gui.mainclasses.FeatureBuilder.init</text>
</a>
</g>
</g>
<!-- Node1&#45;&gt;Node13 -->
<g id="edge13" class="edge"><title>Node1&#45;&gt;Node13</title>
<path fill="none" stroke="midnightblue" d="M99.172,-322.743C138.027,-297.16 215.875,-245.904 254.77,-220.295"/>
<polygon fill="midnightblue" stroke="midnightblue" points="256.905,-223.08 263.333,-214.657 253.056,-217.233 256.905,-223.08"/>
</g>
<!-- Node3 -->
<g id="node3" class="node"><title>Node3</title>
<g id="a_node3"><a xlink:href="../../df/d64/classgui_1_1componentdrawers_1_1_component_builder.html#aa5d3aeb4fb2cace9278bf3d41cfcb7ac" target="_top" xlink:title="gui.componentdrawers.Component\lBuilder.buildLeftComponents">
<polygon fill="white" stroke="black" points="432.5,-494 432.5,-524 617.5,-524 617.5,-494 432.5,-494"/>
<text text-anchor="start" x="440.5" y="-512" font-family="Helvetica,sans-Serif" font-size="10.00">gui.componentdrawers.Component</text>
<text text-anchor="middle" x="525" y="-501" font-family="Helvetica,sans-Serif" font-size="10.00">Builder.buildLeftComponents</text>
</a>
</g>
</g>
<!-- Node2&#45;&gt;Node3 -->
<g id="edge2" class="edge"><title>Node2&#45;&gt;Node3</title>
<path fill="none" stroke="midnightblue" d="M371.551,-493.38C388.013,-495.067 405.264,-496.834 422,-498.549"/>
<polygon fill="midnightblue" stroke="midnightblue" points="422.037,-502.071 432.342,-499.609 422.751,-495.108 422.037,-502.071"/>
</g>
<!-- Node5 -->
<g id="node5" class="node"><title>Node5</title>
<g id="a_node5"><a xlink:href="../../df/d64/classgui_1_1componentdrawers_1_1_component_builder.html#a2fbeb84a6579d755e17c7c3d9e7b1759" target="_top" xlink:title="gui.componentdrawers.Component\lBuilder.buildRightComponents">
<polygon fill="white" stroke="black" points="432.5,-543 432.5,-573 617.5,-573 617.5,-543 432.5,-543"/>
<text text-anchor="start" x="440.5" y="-561" font-family="Helvetica,sans-Serif" font-size="10.00">gui.componentdrawers.Component</text>
<text text-anchor="middle" x="525" y="-550" font-family="Helvetica,sans-Serif" font-size="10.00">Builder.buildRightComponents</text>
</a>
</g>
</g>
<!-- Node2&#45;&gt;Node5 -->
<g id="edge4" class="edge"><title>Node2&#45;&gt;Node5</title>
<path fill="none" stroke="midnightblue" d="M315.085,-499.105C340.528,-509.645 375.954,-523.474 408,-533 417.087,-535.701 426.655,-538.239 436.238,-540.585"/>
<polygon fill="midnightblue" stroke="midnightblue" points="435.671,-544.048 446.209,-542.959 437.292,-537.238 435.671,-544.048"/>
</g>
<!-- Node6 -->
<g id="node6" class="node"><title>Node6</title>
<g id="a_node6"><a xlink:href="../../df/d64/classgui_1_1componentdrawers_1_1_component_builder.html#ad7635b966d68577ecae3dc2113ef2ffb" target="_top" xlink:title="gui.componentdrawers.Component\lBuilder.createComponentsDrawerMap">
<polygon fill="white" stroke="black" points="426,-445 426,-475 624,-475 624,-445 426,-445"/>
<text text-anchor="start" x="434" y="-463" font-family="Helvetica,sans-Serif" font-size="10.00">gui.componentdrawers.Component</text>
<text text-anchor="middle" x="525" y="-452" font-family="Helvetica,sans-Serif" font-size="10.00">Builder.createComponentsDrawerMap</text>
</a>
</g>
</g>
<!-- Node2&#45;&gt;Node6 -->
<g id="edge6" class="edge"><title>Node2&#45;&gt;Node6</title>
<path fill="none" stroke="midnightblue" d="M371.551,-474.995C385.944,-473.579 400.941,-472.104 415.669,-470.655"/>
<polygon fill="midnightblue" stroke="midnightblue" points="416.203,-474.12 425.812,-469.658 415.517,-467.154 416.203,-474.12"/>
</g>
<!-- Node4 -->
<g id="node4" class="node"><title>Node4</title>
<g id="a_node4"><a xlink:href="../../df/d64/classgui_1_1componentdrawers_1_1_component_builder.html#af3ba316f84ae822b52c9b080677d6fc2" target="_top" xlink:title="gui.componentdrawers.Component\lBuilder.addComponentsToBox">
<polygon fill="white" stroke="black" points="678.5,-518 678.5,-548 863.5,-548 863.5,-518 678.5,-518"/>
<text text-anchor="start" x="686.5" y="-536" font-family="Helvetica,sans-Serif" font-size="10.00">gui.componentdrawers.Component</text>
<text text-anchor="middle" x="771" y="-525" font-family="Helvetica,sans-Serif" font-size="10.00">Builder.addComponentsToBox</text>
</a>
</g>
</g>
<!-- Node3&#45;&gt;Node4 -->
<g id="edge3" class="edge"><title>Node3&#45;&gt;Node4</title>
<path fill="none" stroke="midnightblue" d="M617.551,-518.005C634.013,-519.624 651.264,-521.321 668,-522.967"/>
<polygon fill="midnightblue" stroke="midnightblue" points="668.047,-526.489 678.342,-523.984 668.733,-519.522 668.047,-526.489"/>
</g>
<!-- Node5&#45;&gt;Node4 -->
<g id="edge5" class="edge"><title>Node5&#45;&gt;Node4</title>
<path fill="none" stroke="midnightblue" d="M617.551,-548.62C634.013,-546.933 651.264,-545.166 668,-543.451"/>
<polygon fill="midnightblue" stroke="midnightblue" points="668.751,-546.892 678.342,-542.391 668.037,-539.929 668.751,-546.892"/>
</g>
<!-- Node9 -->
<g id="node9" class="node"><title>Node9</title>
<g id="a_node9"><a xlink:href="../../d0/d23/classgui_1_1mainclasses_1_1workspace_1_1_workspace_data_holder.html#a838413b345d84fde081ad2fc5b156700" target="_top" xlink:title="gui.mainclasses.workspace.\lWorkspaceDataHolder.getMyColor\lIndexList">
<polygon fill="white" stroke="black" points="435.5,-325.5 435.5,-366.5 614.5,-366.5 614.5,-325.5 435.5,-325.5"/>
<text text-anchor="start" x="443.5" y="-354.5" font-family="Helvetica,sans-Serif" font-size="10.00">gui.mainclasses.workspace.</text>
<text text-anchor="start" x="443.5" y="-343.5" font-family="Helvetica,sans-Serif" font-size="10.00">WorkspaceDataHolder.getMyColor</text>
<text text-anchor="middle" x="525" y="-332.5" font-family="Helvetica,sans-Serif" font-size="10.00">IndexList</text>
</a>
</g>
</g>
<!-- Node8&#45;&gt;Node9 -->
<g id="edge9" class="edge"><title>Node8&#45;&gt;Node9</title>
<path fill="none" stroke="midnightblue" d="M357.538,-325.533C379.054,-328.179 402.707,-331.087 425.258,-333.86"/>
<polygon fill="midnightblue" stroke="midnightblue" points="424.835,-337.334 435.187,-335.08 425.689,-330.386 424.835,-337.334"/>
</g>
<!-- Node10 -->
<g id="node10" class="node"><title>Node10</title>
<g id="a_node10"><a xlink:href="../../d0/d23/classgui_1_1mainclasses_1_1workspace_1_1_workspace_data_holder.html#ac9ccb5bda572375f83f7569de0384a5f" target="_top" xlink:title="gui.mainclasses.workspace.\lWorkspaceDataHolder.getMyImage\lIndexList">
<polygon fill="white" stroke="black" points="433,-265.5 433,-306.5 617,-306.5 617,-265.5 433,-265.5"/>
<text text-anchor="start" x="441" y="-294.5" font-family="Helvetica,sans-Serif" font-size="10.00">gui.mainclasses.workspace.</text>
<text text-anchor="start" x="441" y="-283.5" font-family="Helvetica,sans-Serif" font-size="10.00">WorkspaceDataHolder.getMyImage</text>
<text text-anchor="middle" x="525" y="-272.5" font-family="Helvetica,sans-Serif" font-size="10.00">IndexList</text>
</a>
</g>
</g>
<!-- Node8&#45;&gt;Node10 -->
<g id="edge10" class="edge"><title>Node8&#45;&gt;Node10</title>
<path fill="none" stroke="midnightblue" d="M357.538,-306.467C378.231,-303.922 400.901,-301.135 422.667,-298.459"/>
<polygon fill="midnightblue" stroke="midnightblue" points="423.096,-301.933 432.594,-297.238 422.241,-294.985 423.096,-301.933"/>
</g>
<!-- Node11 -->
<g id="node11" class="node"><title>Node11</title>
<g id="a_node11"><a xlink:href="../../d0/d23/classgui_1_1mainclasses_1_1workspace_1_1_workspace_data_holder.html#a342276171d7f5ba260a16b7e1c2b3d03" target="_top" xlink:title="gui.mainclasses.workspace.\lWorkspaceDataHolder.getMyUserDefined\lCommandList">
<polygon fill="white" stroke="black" points="418.5,-385.5 418.5,-426.5 631.5,-426.5 631.5,-385.5 418.5,-385.5"/>
<text text-anchor="start" x="426.5" y="-414.5" font-family="Helvetica,sans-Serif" font-size="10.00">gui.mainclasses.workspace.</text>
<text text-anchor="start" x="426.5" y="-403.5" font-family="Helvetica,sans-Serif" font-size="10.00">WorkspaceDataHolder.getMyUserDefined</text>
<text text-anchor="middle" x="525" y="-392.5" font-family="Helvetica,sans-Serif" font-size="10.00">CommandList</text>
</a>
</g>
</g>
<!-- Node8&#45;&gt;Node11 -->
<g id="edge11" class="edge"><title>Node8&#45;&gt;Node11</title>
<path fill="none" stroke="midnightblue" d="M350.061,-325.532C357.731,-328.002 365.21,-331.105 372,-335 392.746,-346.901 387.604,-362.508 408,-375 411.65,-377.235 415.46,-379.312 419.382,-381.24"/>
<polygon fill="midnightblue" stroke="midnightblue" points="418.16,-384.529 428.712,-385.476 421.053,-378.155 418.16,-384.529"/>
</g>
<!-- Node12 -->
<g id="node12" class="node"><title>Node12</title>
<g id="a_node12"><a xlink:href="../../d0/d23/classgui_1_1mainclasses_1_1workspace_1_1_workspace_data_holder.html#a23c9515c88ddf6000d43d55adeaccec1" target="_top" xlink:title="gui.mainclasses.workspace.\lWorkspaceDataHolder.getMyVariablesList">
<polygon fill="white" stroke="black" points="418,-217 418,-247 632,-247 632,-217 418,-217"/>
<text text-anchor="start" x="426" y="-235" font-family="Helvetica,sans-Serif" font-size="10.00">gui.mainclasses.workspace.</text>
<text text-anchor="middle" x="525" y="-224" font-family="Helvetica,sans-Serif" font-size="10.00">WorkspaceDataHolder.getMyVariablesList</text>
</a>
</g>
</g>
<!-- Node8&#45;&gt;Node12 -->
<g id="edge12" class="edge"><title>Node8&#45;&gt;Node12</title>
<path fill="none" stroke="midnightblue" d="M297.269,-306.303C321.371,-293.146 366.781,-269.713 408,-256 415.055,-253.653 422.432,-251.49 429.898,-249.506"/>
<polygon fill="midnightblue" stroke="midnightblue" points="430.916,-252.858 439.745,-247 429.19,-246.074 430.916,-252.858"/>
</g>
<!-- Node13&#45;&gt;Node9 -->
<g id="edge16" class="edge"><title>Node13&#45;&gt;Node9</title>
<path fill="none" stroke="midnightblue" d="M288.255,-214.562C307.2,-235.897 356.171,-287.652 408,-315 413.626,-317.969 419.559,-320.67 425.646,-323.126"/>
<polygon fill="midnightblue" stroke="midnightblue" points="424.724,-326.519 435.316,-326.785 427.202,-319.972 424.724,-326.519"/>
</g>
<!-- Node13&#45;&gt;Node10 -->
<g id="edge17" class="edge"><title>Node13&#45;&gt;Node10</title>
<path fill="none" stroke="midnightblue" d="M301.436,-214.507C326.615,-225.447 369.804,-243.507 408,-256 414.932,-258.267 422.141,-260.476 429.422,-262.601"/>
<polygon fill="midnightblue" stroke="midnightblue" points="428.798,-266.062 439.374,-265.442 430.72,-259.331 428.798,-266.062"/>
</g>
<!-- Node13&#45;&gt;Node12 -->
<g id="edge20" class="edge"><title>Node13&#45;&gt;Node12</title>
<path fill="none" stroke="midnightblue" d="M366.025,-214.519C379.495,-216.01 393.607,-217.571 407.62,-219.122"/>
<polygon fill="midnightblue" stroke="midnightblue" points="407.472,-222.627 417.796,-220.248 408.242,-215.669 407.472,-222.627"/>
</g>
<!-- Node14 -->
<g id="node14" class="node"><title>Node14</title>
<g id="a_node14"><a xlink:href="../../d0/d17/classgui_1_1componentdrawers_1_1optionsholder_1_1_options_holder_drawer.html#aea9961404fef7b09b5ef2ed74d22624f" target="_top" xlink:title="gui.componentdrawers.optionsholder.\lOptionsHolderDrawer.addTabs">
<polygon fill="white" stroke="black" points="426.5,-109 426.5,-139 623.5,-139 623.5,-109 426.5,-109"/>
<text text-anchor="start" x="434.5" y="-127" font-family="Helvetica,sans-Serif" font-size="10.00">gui.componentdrawers.optionsholder.</text>
<text text-anchor="middle" x="525" y="-116" font-family="Helvetica,sans-Serif" font-size="10.00">OptionsHolderDrawer.addTabs</text>
</a>
</g>
</g>
<!-- Node13&#45;&gt;Node14 -->
<g id="edge14" class="edge"><title>Node13&#45;&gt;Node14</title>
<path fill="none" stroke="midnightblue" d="M298.164,-195.41C322.543,-182.892 367.478,-161.047 408,-148 415.295,-145.651 422.924,-143.478 430.636,-141.478"/>
<polygon fill="midnightblue" stroke="midnightblue" points="431.572,-144.852 440.429,-139.038 429.879,-138.06 431.572,-144.852"/>
</g>
<!-- Node15 -->
<g id="node15" class="node"><title>Node15</title>
<g id="a_node15"><a xlink:href="../../db/d27/classgui_1_1componentdrawers_1_1significantcommands_1_1_significant_commands_drawer.html#aaf135176dc3fd8fdb66506b1674ca91d" target="_top" xlink:title="gui.componentdrawers.significantcommands.\lSignificantCommandsDrawer.addTabs">
<polygon fill="white" stroke="black" points="408,-60 408,-90 642,-90 642,-60 408,-60"/>
<text text-anchor="start" x="416" y="-78" font-family="Helvetica,sans-Serif" font-size="10.00">gui.componentdrawers.significantcommands.</text>
<text text-anchor="middle" x="525" y="-67" font-family="Helvetica,sans-Serif" font-size="10.00">SignificantCommandsDrawer.addTabs</text>
</a>
</g>
</g>
<!-- Node13&#45;&gt;Node15 -->
<g id="edge15" class="edge"><title>Node13&#45;&gt;Node15</title>
<path fill="none" stroke="midnightblue" d="M288.514,-195.273C307.607,-174.124 356.245,-123.863 408,-99 412.293,-96.9379 416.758,-95.0525 421.329,-93.3287"/>
<polygon fill="midnightblue" stroke="midnightblue" points="422.55,-96.6097 430.84,-90.0124 420.245,-89.9999 422.55,-96.6097"/>
</g>
<!-- Node16 -->
<g id="node16" class="node"><title>Node16</title>
<g id="a_node16"><a xlink:href="../../d0/d23/classgui_1_1mainclasses_1_1workspace_1_1_workspace_data_holder.html#a9476ee0347a1d675525393b4d7a56acb" target="_top" xlink:title="gui.mainclasses.workspace.\lWorkspaceDataHolder.getMyPrevious\lCommandsList">
<polygon fill="white" stroke="black" points="428,-0.5 428,-41.5 622,-41.5 622,-0.5 428,-0.5"/>
<text text-anchor="start" x="436" y="-29.5" font-family="Helvetica,sans-Serif" font-size="10.00">gui.mainclasses.workspace.</text>
<text text-anchor="start" x="436" y="-18.5" font-family="Helvetica,sans-Serif" font-size="10.00">WorkspaceDataHolder.getMyPrevious</text>
<text text-anchor="middle" x="525" y="-7.5" font-family="Helvetica,sans-Serif" font-size="10.00">CommandsList</text>
</a>
</g>
</g>
<!-- Node13&#45;&gt;Node16 -->
<g id="edge18" class="edge"><title>Node13&#45;&gt;Node16</title>
<path fill="none" stroke="midnightblue" d="M285.121,-195.18C300.033,-167.599 346.308,-88.9141 408,-50 411.409,-47.8499 414.967,-45.8591 418.634,-44.0159"/>
<polygon fill="midnightblue" stroke="midnightblue" points="420.324,-47.0909 427.946,-39.7312 417.398,-40.7318 420.324,-47.0909"/>
</g>
<!-- Node17 -->
<g id="node17" class="node"><title>Node17</title>
<g id="a_node17"><a xlink:href="../../d0/d23/classgui_1_1mainclasses_1_1workspace_1_1_workspace_data_holder.html#aac08788e0b6d38aafdc3e778028fe104" target="_top" xlink:title="gui.mainclasses.workspace.\lWorkspaceDataHolder.getMySaved\lCommandsList">
<polygon fill="white" stroke="black" points="433,-157.5 433,-198.5 617,-198.5 617,-157.5 433,-157.5"/>
<text text-anchor="start" x="441" y="-186.5" font-family="Helvetica,sans-Serif" font-size="10.00">gui.mainclasses.workspace.</text>
<text text-anchor="start" x="441" y="-175.5" font-family="Helvetica,sans-Serif" font-size="10.00">WorkspaceDataHolder.getMySaved</text>
<text text-anchor="middle" x="525" y="-164.5" font-family="Helvetica,sans-Serif" font-size="10.00">CommandsList</text>
</a>
</g>
</g>
<!-- Node13&#45;&gt;Node17 -->
<g id="edge19" class="edge"><title>Node13&#45;&gt;Node17</title>
<path fill="none" stroke="midnightblue" d="M366.025,-195.481C384.401,-193.447 403.973,-191.282 422.857,-189.192"/>
<polygon fill="midnightblue" stroke="midnightblue" points="423.407,-192.653 432.962,-188.074 422.638,-185.695 423.407,-192.653"/>
</g>
</g>
</svg>
        <g id="navigator" transform="translate(0 0)" fill="#404254">
                <rect fill="#f2f5e9" fill-opacity="0.5" stroke="#606060" stroke-width=".5" x="0" y="0" width="60" height="60"/>
                <use id="zoomplus" xlink:href="#zoomPlus" x="17" y="9" onmousedown="handleZoom(evt,'in')"/>
                <use id="zoomminus" xlink:href="#zoomMin" x="42" y="9" onmousedown="handleZoom(evt,'out')"/>
                <use id="reset" xlink:href="#resetDef" x="30" y="36" onmousedown="handleReset()"/>
                <g id="arrowUp" xlink:href="#dirArrow" transform="translate(30 24)" onmousedown="handlePan(0,-1)">
                  <use xlink:href="#rim" fill="#404040">
                        <set attributeName="fill" to="#808080" begin="arrowUp.mouseover" end="arrowUp.mouseout"/>
                  </use>
                  <path fill="none" stroke="white" stroke-width="1.5" d="M0,-3.0v7 M-2.5,-0.5L0,-3.0L2.5,-0.5"/>
                </g>
                <g id="arrowRight" xlink:href="#dirArrow" transform="rotate(90) translate(36 -43)" onmousedown="handlePan(1,0)">
                  <use xlink:href="#rim" fill="#404040">
                        <set attributeName="fill" to="#808080" begin="arrowRight.mouseover" end="arrowRight.mouseout"/>
                  </use>
                  <path fill="none" stroke="white" stroke-width="1.5" d="M0,-3.0v7 M-2.5,-0.5L0,-3.0L2.5,-0.5"/>
                </g>
                <g id="arrowDown" xlink:href="#dirArrow" transform="rotate(180) translate(-30 -48)" onmousedown="handlePan(0,1)">
                  <use xlink:href="#rim" fill="#404040">
                        <set attributeName="fill" to="#808080" begin="arrowDown.mouseover" end="arrowDown.mouseout"/>
                  </use>
                  <path fill="none" stroke="white" stroke-width="1.5" d="M0,-3.0v7 M-2.5,-0.5L0,-3.0L2.5,-0.5"/>
                </g>
                <g id="arrowLeft" xlink:href="#dirArrow" transform="rotate(270) translate(-36 17)" onmousedown="handlePan(-1,0)">
                  <use xlink:href="#rim" fill="#404040">
                        <set attributeName="fill" to="#808080" begin="arrowLeft.mouseover" end="arrowLeft.mouseout"/>
                  </use>
                  <path fill="none" stroke="white" stroke-width="1.5" d="M0,-3.0v7 M-2.5,-0.5L0,-3.0L2.5,-0.5"/>
                </g>
        </g>
        <svg viewBox="0 0 15 15" width="100%" height="30px" preserveAspectRatio="xMaxYMin meet">
         <g id="arrow_out" transform="scale(0.3 0.3)">
          <a xlink:href="classgui_1_1mainclasses_1_1workspace_1_1_workspace_a2a722f3db714ab95c3784b2cc26837d4_cgraph_org.svg" target="_base">
           <rect id="button" ry="5" rx="5" y="6" x="6" height="38" width="38"
                fill="#f2f5e9" fill-opacity="0.5" stroke="#606060" stroke-width="1.0"/>
           <path id="arrow"
             d="M 11.500037,31.436501 C 11.940474,20.09759 22.043105,11.32322 32.158766,21.979434 L 37.068811,17.246167 C 37.068811,17.246167 37.088388,32 37.088388,32 L 22.160133,31.978069 C 22.160133,31.978069 26.997745,27.140456 26.997745,27.140456 C 18.528582,18.264221 13.291696,25.230495 11.500037,31.436501 z"
             style="fill:#404040;"/>
          </a>
         </g>
        </svg>
</svg>
