<?xml version="1.0" encoding="UTF-8" standalone="no"?>
<!DOCTYPE svg PUBLIC "-//W3C//DTD SVG 1.1//EN"
 "http://www.w3.org/Graphics/SVG/1.1/DTD/svg11.dtd">
<!-- Generated by graphviz version 2.36.0 (20140111.2315)
 -->
<!-- Title: commandParsing.turtleCommandParsing.turtleAttributeSetters.ShowTurtle.parse Pages: 1 -->
<svg width="878pt" height="312pt"
 viewBox="0.00 0.00 878.00 312.00" xmlns="http://www.w3.org/2000/svg" xmlns:xlink="http://www.w3.org/1999/xlink">
<g id="graph0" class="graph" transform="scale(1 1) rotate(0) translate(4 308)">
<title>commandParsing.turtleCommandParsing.turtleAttributeSetters.ShowTurtle.parse</title>
<polygon fill="white" stroke="none" points="-4,4 -4,-308 874,-308 874,4 -4,4"/>
<!-- Node1 -->
<g id="node1" class="node"><title>Node1</title>
<polygon fill="#bfbfbf" stroke="black" points="0.5,-104.5 0.5,-145.5 179.5,-145.5 179.5,-104.5 0.5,-104.5"/>
<text text-anchor="start" x="8.5" y="-133.5" font-family="Helvetica,sans-Serif" font-size="10.00">commandParsing.turtleCommand</text>
<text text-anchor="start" x="8.5" y="-122.5" font-family="Helvetica,sans-Serif" font-size="10.00">Parsing.turtleAttributeSetters.</text>
<text text-anchor="middle" x="90" y="-111.5" font-family="Helvetica,sans-Serif" font-size="10.00">ShowTurtle.parse</text>
</g>
<!-- Node2 -->
<g id="node2" class="node"><title>Node2</title>
<g id="a_node2"><a xlink:href="../../df/d64/interfacecommand_parsing_1_1drawable_obect_generation_interfaces_1_1_turtle_generator.html#ad2df4af6c11d2ec038868c5520be6acd" target="_top" xlink:title="commandParsing.drawableObect\lGenerationInterfaces.TurtleGenerator.generate\lDrawableObjectRepresentingTurtle">
<polygon fill="white" stroke="black" points="216,-131.5 216,-172.5 456,-172.5 456,-131.5 216,-131.5"/>
<text text-anchor="start" x="224" y="-160.5" font-family="Helvetica,sans-Serif" font-size="10.00">commandParsing.drawableObect</text>
<text text-anchor="start" x="224" y="-149.5" font-family="Helvetica,sans-Serif" font-size="10.00">GenerationInterfaces.TurtleGenerator.generate</text>
<text text-anchor="middle" x="336" y="-138.5" font-family="Helvetica,sans-Serif" font-size="10.00">DrawableObjectRepresentingTurtle</text>
</a>
</g>
</g>
<!-- Node1&#45;&gt;Node2 -->
<g id="edge1" class="edge"><title>Node1&#45;&gt;Node2</title>
<path fill="none" stroke="midnightblue" d="M179.78,-134.824C188.294,-135.766 197.042,-136.734 205.84,-137.708"/>
<polygon fill="midnightblue" stroke="midnightblue" points="205.459,-141.187 215.784,-138.808 206.229,-134.229 205.459,-141.187"/>
</g>
<!-- Node11 -->
<g id="node11" class="node"><title>Node11</title>
<g id="a_node11"><a xlink:href="../../db/d1f/classworkspace_state_1_1_turtle_collection.html#a6c49b4d7d24c0ed82ea491185b023cf0" target="_top" xlink:title="workspaceState.TurtleCollection.get\lActiveTurtles">
<polygon fill="white" stroke="black" points="242.5,-83 242.5,-113 429.5,-113 429.5,-83 242.5,-83"/>
<text text-anchor="start" x="250.5" y="-101" font-family="Helvetica,sans-Serif" font-size="10.00">workspaceState.TurtleCollection.get</text>
<text text-anchor="middle" x="336" y="-90" font-family="Helvetica,sans-Serif" font-size="10.00">ActiveTurtles</text>
</a>
</g>
</g>
<!-- Node1&#45;&gt;Node11 -->
<g id="edge10" class="edge"><title>Node1&#45;&gt;Node11</title>
<path fill="none" stroke="midnightblue" d="M179.78,-115.176C196.752,-113.298 214.652,-111.317 232.025,-109.395"/>
<polygon fill="midnightblue" stroke="midnightblue" points="232.627,-112.85 242.182,-108.271 231.857,-105.892 232.627,-112.85"/>
</g>
<!-- Node3 -->
<g id="node3" class="node"><title>Node3</title>
<g id="a_node3"><a xlink:href="../../d0/d77/classworkspace_state_1_1_location.html#ae445cb48bedcd80659a847365a6a3de4" target="_top" xlink:title="workspaceState.Location.generate\lLocationString">
<polygon fill="white" stroke="black" points="492.5,-274 492.5,-304 675.5,-304 675.5,-274 492.5,-274"/>
<text text-anchor="start" x="500.5" y="-292" font-family="Helvetica,sans-Serif" font-size="10.00">workspaceState.Location.generate</text>
<text text-anchor="middle" x="584" y="-281" font-family="Helvetica,sans-Serif" font-size="10.00">LocationString</text>
</a>
</g>
</g>
<!-- Node2&#45;&gt;Node3 -->
<g id="edge2" class="edge"><title>Node2&#45;&gt;Node3</title>
<path fill="none" stroke="midnightblue" d="M359.732,-172.509C388.541,-197.49 440.655,-239.392 492,-264 496.894,-266.346 502.045,-268.503 507.305,-270.481"/>
<polygon fill="midnightblue" stroke="midnightblue" points="506.263,-273.825 516.858,-273.85 508.592,-267.223 506.263,-273.825"/>
</g>
<!-- Node5 -->
<g id="node5" class="node"><title>Node5</title>
<g id="a_node5"><a xlink:href="../../d1/d01/classworkspace_state_1_1_turtle.html#ac6697327d46a4fde63526e973948d6f7" target="_top" xlink:title="workspaceState.Turtle.get\lHeading">
<polygon fill="white" stroke="black" points="514,-225 514,-255 654,-255 654,-225 514,-225"/>
<text text-anchor="start" x="522" y="-243" font-family="Helvetica,sans-Serif" font-size="10.00">workspaceState.Turtle.get</text>
<text text-anchor="middle" x="584" y="-232" font-family="Helvetica,sans-Serif" font-size="10.00">Heading</text>
</a>
</g>
</g>
<!-- Node2&#45;&gt;Node5 -->
<g id="edge4" class="edge"><title>Node2&#45;&gt;Node5</title>
<path fill="none" stroke="midnightblue" d="M383.6,-172.62C414.096,-185.695 455.002,-202.448 492,-215 499.12,-217.416 506.612,-219.769 514.113,-222.004"/>
<polygon fill="midnightblue" stroke="midnightblue" points="513.369,-225.432 523.949,-224.869 515.327,-218.712 513.369,-225.432"/>
</g>
<!-- Node6 -->
<g id="node6" class="node"><title>Node6</title>
<g id="a_node6"><a xlink:href="../../d1/d01/classworkspace_state_1_1_turtle.html#a2b5e77b78036091a65abb5f4959b5ef7" target="_top" xlink:title="workspaceState.Turtle.getID">
<polygon fill="white" stroke="black" points="509,-186.5 509,-205.5 659,-205.5 659,-186.5 509,-186.5"/>
<text text-anchor="middle" x="584" y="-193.5" font-family="Helvetica,sans-Serif" font-size="10.00">workspaceState.Turtle.getID</text>
</a>
</g>
</g>
<!-- Node2&#45;&gt;Node6 -->
<g id="edge5" class="edge"><title>Node2&#45;&gt;Node6</title>
<path fill="none" stroke="midnightblue" d="M451.717,-172.519C475.184,-176.716 499.055,-180.985 519.892,-184.712"/>
<polygon fill="midnightblue" stroke="midnightblue" points="519.402,-188.18 529.862,-186.496 520.634,-181.29 519.402,-188.18"/>
</g>
<!-- Node7 -->
<g id="node7" class="node"><title>Node7</title>
<g id="a_node7"><a xlink:href="../../d1/d01/classworkspace_state_1_1_turtle.html#a9bb3d15f12d9d4e03332ea9817f76882" target="_top" xlink:title="workspaceState.Turtle.get\lLocation">
<polygon fill="white" stroke="black" points="514,-137 514,-167 654,-167 654,-137 514,-137"/>
<text text-anchor="start" x="522" y="-155" font-family="Helvetica,sans-Serif" font-size="10.00">workspaceState.Turtle.get</text>
<text text-anchor="middle" x="584" y="-144" font-family="Helvetica,sans-Serif" font-size="10.00">Location</text>
</a>
</g>
</g>
<!-- Node2&#45;&gt;Node7 -->
<g id="edge6" class="edge"><title>Node2&#45;&gt;Node7</title>
<path fill="none" stroke="midnightblue" d="M456.037,-152C472.179,-152 488.413,-152 503.624,-152"/>
<polygon fill="midnightblue" stroke="midnightblue" points="503.978,-155.5 513.978,-152 503.978,-148.5 503.978,-155.5"/>
</g>
<!-- Node8 -->
<g id="node8" class="node"><title>Node8</title>
<g id="a_node8"><a xlink:href="../../d1/d01/classworkspace_state_1_1_turtle.html#a5c09e19002f9ed4c61ce538fff3da4ff" target="_top" xlink:title="workspaceState.Turtle.get\lOpacity">
<polygon fill="white" stroke="black" points="514,-88 514,-118 654,-118 654,-88 514,-88"/>
<text text-anchor="start" x="522" y="-106" font-family="Helvetica,sans-Serif" font-size="10.00">workspaceState.Turtle.get</text>
<text text-anchor="middle" x="584" y="-95" font-family="Helvetica,sans-Serif" font-size="10.00">Opacity</text>
</a>
</g>
</g>
<!-- Node2&#45;&gt;Node8 -->
<g id="edge7" class="edge"><title>Node2&#45;&gt;Node8</title>
<path fill="none" stroke="midnightblue" d="M440.257,-131.433C461.613,-127.179 483.784,-122.762 504.105,-118.715"/>
<polygon fill="midnightblue" stroke="midnightblue" points="504.796,-122.146 513.92,-116.76 503.429,-115.281 504.796,-122.146"/>
</g>
<!-- Node9 -->
<g id="node9" class="node"><title>Node9</title>
<g id="a_node9"><a xlink:href="../../da/de7/classworkspace_state_1_1_shape.html#aace6051dd26034446492ecac6ff16099" target="_top" xlink:title="workspaceState.Shape.getPath">
<polygon fill="white" stroke="black" points="500.5,-49.5 500.5,-68.5 667.5,-68.5 667.5,-49.5 500.5,-49.5"/>
<text text-anchor="middle" x="584" y="-56.5" font-family="Helvetica,sans-Serif" font-size="10.00">workspaceState.Shape.getPath</text>
</a>
</g>
</g>
<!-- Node2&#45;&gt;Node9 -->
<g id="edge8" class="edge"><title>Node2&#45;&gt;Node9</title>
<path fill="none" stroke="midnightblue" d="M438.268,-131.422C444.455,-128.666 450.425,-125.542 456,-122 477.327,-108.45 470.399,-91.1086 492,-78 495.471,-75.8936 499.138,-74.0178 502.93,-72.3474"/>
<polygon fill="midnightblue" stroke="midnightblue" points="504.516,-75.4865 512.571,-68.6046 501.982,-68.961 504.516,-75.4865"/>
</g>
<!-- Node10 -->
<g id="node10" class="node"><title>Node10</title>
<g id="a_node10"><a xlink:href="../../d1/d01/classworkspace_state_1_1_turtle.html#a8d9dd9cb3503c6d0aa45efca91816f71" target="_top" xlink:title="workspaceState.Turtle.get\lShape">
<polygon fill="white" stroke="black" points="514,-0 514,-30 654,-30 654,-0 514,-0"/>
<text text-anchor="start" x="522" y="-18" font-family="Helvetica,sans-Serif" font-size="10.00">workspaceState.Turtle.get</text>
<text text-anchor="middle" x="584" y="-7" font-family="Helvetica,sans-Serif" font-size="10.00">Shape</text>
</a>
</g>
</g>
<!-- Node2&#45;&gt;Node10 -->
<g id="edge9" class="edge"><title>Node2&#45;&gt;Node10</title>
<path fill="none" stroke="midnightblue" d="M442.604,-131.367C447.349,-128.616 451.852,-125.509 456,-122 486.39,-96.2971 461.883,-66.0229 492,-40 495.754,-36.7563 499.893,-33.9301 504.274,-31.4682"/>
<polygon fill="midnightblue" stroke="midnightblue" points="506.125,-34.4583 513.559,-26.909 503.04,-28.1749 506.125,-34.4583"/>
</g>
<!-- Node4 -->
<g id="node4" class="node"><title>Node4</title>
<g id="a_node4"><a xlink:href="../../d0/d77/classworkspace_state_1_1_location.html#ad4e68a97bd0ea67236551c1183fdcd6f" target="_top" xlink:title="workspaceState.Location.add">
<polygon fill="white" stroke="black" points="712,-279.5 712,-298.5 870,-298.5 870,-279.5 712,-279.5"/>
<text text-anchor="middle" x="791" y="-286.5" font-family="Helvetica,sans-Serif" font-size="10.00">workspaceState.Location.add</text>
</a>
</g>
</g>
<!-- Node3&#45;&gt;Node4 -->
<g id="edge3" class="edge"><title>Node3&#45;&gt;Node4</title>
<path fill="none" stroke="midnightblue" d="M675.513,-289C684.224,-289 693.053,-289 701.742,-289"/>
<polygon fill="midnightblue" stroke="midnightblue" points="701.863,-292.5 711.863,-289 701.863,-285.5 701.863,-292.5"/>
</g>
</g>
</svg>
