<?xml version="1.0" encoding="UTF-8" standalone="no"?>
<!DOCTYPE svg PUBLIC "-//W3C//DTD SVG 1.1//EN"
 "http://www.w3.org/Graphics/SVG/1.1/DTD/svg11.dtd">
<!-- Generated by graphviz version 2.36.0 (20140111.2315)
 -->
<!-- Title: gui.componentdrawers.optionsholder.OptionsHolderDrawer Pages: 1 -->
<svg width="204pt" height="164pt"
 viewBox="0.00 0.00 204.00 164.00" xmlns="http://www.w3.org/2000/svg" xmlns:xlink="http://www.w3.org/1999/xlink">
<g id="graph0" class="graph" transform="scale(1 1) rotate(0) translate(4 160)">
<title>gui.componentdrawers.optionsholder.OptionsHolderDrawer</title>
<polygon fill="white" stroke="none" points="-4,4 -4,-160 200,-160 200,4 -4,4"/>
<!-- Node1 -->
<g id="node1" class="node"><title>Node1</title>
<polygon fill="#bfbfbf" stroke="black" points="-0.5,-1 -0.5,-31 196.5,-31 196.5,-1 -0.5,-1"/>
<text text-anchor="start" x="7.5" y="-19" font-family="Helvetica,sans-Serif" font-size="10.00">gui.componentdrawers.optionsholder.</text>
<text text-anchor="middle" x="98" y="-8" font-family="Helvetica,sans-Serif" font-size="10.00">OptionsHolderDrawer</text>
</g>
<!-- Node2 -->
<g id="node2" class="node"><title>Node2</title>
<g id="a_node2"><a xlink:href="../../d0/dda/classgui_1_1componentdrawers_1_1_component_drawer.html" target="_top" xlink:title="gui.componentdrawers.Component\lDrawer">
<polygon fill="white" stroke="black" points="5.5,-69 5.5,-99 190.5,-99 190.5,-69 5.5,-69"/>
<text text-anchor="start" x="13.5" y="-87" font-family="Helvetica,sans-Serif" font-size="10.00">gui.componentdrawers.Component</text>
<text text-anchor="middle" x="98" y="-76" font-family="Helvetica,sans-Serif" font-size="10.00">Drawer</text>
</a>
</g>
</g>
<!-- Node2&#45;&gt;Node1 -->
<g id="edge1" class="edge"><title>Node2&#45;&gt;Node1</title>
<path fill="none" stroke="midnightblue" d="M98,-58.5322C98,-49.3606 98,-39.2449 98,-31.2931"/>
<polygon fill="midnightblue" stroke="midnightblue" points="94.5001,-58.6789 98,-68.679 101.5,-58.679 94.5001,-58.6789"/>
</g>
<!-- Node3 -->
<g id="node3" class="node"><title>Node3</title>
<polygon fill="white" stroke="#bfbfbf" points="78,-136.5 78,-155.5 118,-155.5 118,-136.5 78,-136.5"/>
<text text-anchor="middle" x="98" y="-143.5" font-family="Helvetica,sans-Serif" font-size="10.00">Pane</text>
</g>
<!-- Node3&#45;&gt;Node2 -->
<g id="edge2" class="edge"><title>Node3&#45;&gt;Node2</title>
<path fill="none" stroke="midnightblue" d="M98,-126.371C98,-117.585 98,-107.272 98,-99.1408"/>
<polygon fill="midnightblue" stroke="midnightblue" points="94.5001,-126.403 98,-136.403 101.5,-126.403 94.5001,-126.403"/>
</g>
</g>
</svg>
