<?xml version="1.0" encoding="UTF-8" standalone="no"?>
<!DOCTYPE svg PUBLIC "-//W3C//DTD SVG 1.1//EN"
 "http://www.w3.org/Graphics/SVG/1.1/DTD/svg11.dtd">
<!-- Generated by graphviz version 2.36.0 (20140111.2315)
 -->
<!-- Title: gui.componentdrawers.optionsholder.tabs.OptionsTab Pages: 1 -->
<svg width="556pt" height="185pt"
 viewBox="0.00 0.00 556.00 185.00" xmlns="http://www.w3.org/2000/svg" xmlns:xlink="http://www.w3.org/1999/xlink">
<g id="graph0" class="graph" transform="scale(1 1) rotate(0) translate(4 181)">
<title>gui.componentdrawers.optionsholder.tabs.OptionsTab</title>
<polygon fill="white" stroke="none" points="-4,4 -4,-181 552,-181 552,4 -4,4"/>
<!-- Node1 -->
<g id="node1" class="node"><title>Node1</title>
<polygon fill="#bfbfbf" stroke="black" points="68.5,-73 68.5,-103 289.5,-103 289.5,-73 68.5,-73"/>
<text text-anchor="start" x="76.5" y="-91" font-family="Helvetica,sans-Serif" font-size="10.00">gui.componentdrawers.optionsholder.tabs.</text>
<text text-anchor="middle" x="179" y="-80" font-family="Helvetica,sans-Serif" font-size="10.00">OptionsTab</text>
</g>
<!-- Node3 -->
<g id="node3" class="node"><title>Node3</title>
<g id="a_node3"><a xlink:href="../../d2/d6c/classgui_1_1componentdrawers_1_1optionsholder_1_1tabs_1_1_color_index_tab.html" target="_top" xlink:title="gui.componentdrawers.optionsholder.tabs.\lColorIndexTab">
<polygon fill="white" stroke="black" points="326.5,-147 326.5,-177 547.5,-177 547.5,-147 326.5,-147"/>
<text text-anchor="start" x="334.5" y="-165" font-family="Helvetica,sans-Serif" font-size="10.00">gui.componentdrawers.optionsholder.tabs.</text>
<text text-anchor="middle" x="437" y="-154" font-family="Helvetica,sans-Serif" font-size="10.00">ColorIndexTab</text>
</a>
</g>
</g>
<!-- Node1&#45;&gt;Node3 -->
<g id="edge2" class="edge"><title>Node1&#45;&gt;Node3</title>
<path fill="none" stroke="midnightblue" d="M230.732,-106.422C258.635,-116.2 293.993,-128.016 326,-137 338.539,-140.519 351.986,-143.897 365.024,-146.97"/>
<polygon fill="midnightblue" stroke="midnightblue" points="231.786,-103.082 221.191,-103.056 229.457,-109.684 231.786,-103.082"/>
</g>
<!-- Node4 -->
<g id="node4" class="node"><title>Node4</title>
<g id="a_node4"><a xlink:href="../../d6/de0/classgui_1_1componentdrawers_1_1optionsholder_1_1tabs_1_1_general_options_tab.html" target="_top" xlink:title="gui.componentdrawers.optionsholder.tabs.\lGeneralOptionsTab">
<polygon fill="white" stroke="black" points="326.5,-98 326.5,-128 547.5,-128 547.5,-98 326.5,-98"/>
<text text-anchor="start" x="334.5" y="-116" font-family="Helvetica,sans-Serif" font-size="10.00">gui.componentdrawers.optionsholder.tabs.</text>
<text text-anchor="middle" x="437" y="-105" font-family="Helvetica,sans-Serif" font-size="10.00">GeneralOptionsTab</text>
</a>
</g>
</g>
<!-- Node1&#45;&gt;Node4 -->
<g id="edge3" class="edge"><title>Node1&#45;&gt;Node4</title>
<path fill="none" stroke="midnightblue" d="M299.915,-99.7104C308.661,-100.565 317.457,-101.424 326.14,-102.271"/>
<polygon fill="midnightblue" stroke="midnightblue" points="299.974,-96.1996 289.681,-98.711 299.294,-103.167 299.974,-96.1996"/>
</g>
<!-- Node5 -->
<g id="node5" class="node"><title>Node5</title>
<g id="a_node5"><a xlink:href="../../db/d0b/classgui_1_1componentdrawers_1_1optionsholder_1_1tabs_1_1_image_index_tab.html" target="_top" xlink:title="gui.componentdrawers.optionsholder.tabs.\lImageIndexTab">
<polygon fill="white" stroke="black" points="326.5,-49 326.5,-79 547.5,-79 547.5,-49 326.5,-49"/>
<text text-anchor="start" x="334.5" y="-67" font-family="Helvetica,sans-Serif" font-size="10.00">gui.componentdrawers.optionsholder.tabs.</text>
<text text-anchor="middle" x="437" y="-56" font-family="Helvetica,sans-Serif" font-size="10.00">ImageIndexTab</text>
</a>
</g>
</g>
<!-- Node1&#45;&gt;Node5 -->
<g id="edge4" class="edge"><title>Node1&#45;&gt;Node5</title>
<path fill="none" stroke="midnightblue" d="M299.915,-76.758C308.661,-75.9381 317.457,-75.1134 326.14,-74.2994"/>
<polygon fill="midnightblue" stroke="midnightblue" points="299.311,-73.2992 289.681,-77.7174 299.964,-80.2686 299.311,-73.2992"/>
</g>
<!-- Node6 -->
<g id="node6" class="node"><title>Node6</title>
<g id="a_node6"><a xlink:href="../../dd/d82/classgui_1_1componentdrawers_1_1optionsholder_1_1tabs_1_1_pen_options_tab.html" target="_top" xlink:title="gui.componentdrawers.optionsholder.tabs.\lPenOptionsTab">
<polygon fill="white" stroke="black" points="326.5,-0 326.5,-30 547.5,-30 547.5,-0 326.5,-0"/>
<text text-anchor="start" x="334.5" y="-18" font-family="Helvetica,sans-Serif" font-size="10.00">gui.componentdrawers.optionsholder.tabs.</text>
<text text-anchor="middle" x="437" y="-7" font-family="Helvetica,sans-Serif" font-size="10.00">PenOptionsTab</text>
</a>
</g>
</g>
<!-- Node1&#45;&gt;Node6 -->
<g id="edge5" class="edge"><title>Node1&#45;&gt;Node6</title>
<path fill="none" stroke="midnightblue" d="M230.401,-69.5739C258.341,-59.7426 293.839,-47.877 326,-39 337.494,-35.8276 349.755,-32.8044 361.767,-30.0394"/>
<polygon fill="midnightblue" stroke="midnightblue" points="229.108,-66.3189 220.851,-72.9583 231.446,-72.9168 229.108,-66.3189"/>
</g>
<!-- Node2 -->
<g id="node2" class="node"><title>Node2</title>
<polygon fill="white" stroke="#bfbfbf" points="0,-78.5 0,-97.5 32,-97.5 32,-78.5 0,-78.5"/>
<text text-anchor="middle" x="16" y="-85.5" font-family="Helvetica,sans-Serif" font-size="10.00">Tab</text>
</g>
<!-- Node2&#45;&gt;Node1 -->
<g id="edge1" class="edge"><title>Node2&#45;&gt;Node1</title>
<path fill="none" stroke="midnightblue" d="M42.292,-88C49.8848,-88 58.7419,-88 68.2266,-88"/>
<polygon fill="midnightblue" stroke="midnightblue" points="42.1465,-84.5001 32.1465,-88 42.1465,-91.5001 42.1465,-84.5001"/>
</g>
</g>
</svg>
