<?xml version="1.0" encoding="UTF-8" standalone="no"?>
<!DOCTYPE svg PUBLIC "-//W3C//DTD SVG 1.1//EN"
 "http://www.w3.org/Graphics/SVG/1.1/DTD/svg11.dtd">
<!-- Generated by graphviz version 2.36.0 (20140111.2315)
 -->
<!-- Title: gui.mainclasses.workspace.WorkspaceManager.WorkspaceManager Pages: 1 -->
<svg width="658pt" height="126pt"
 viewBox="0.00 0.00 658.00 126.00" xmlns="http://www.w3.org/2000/svg" xmlns:xlink="http://www.w3.org/1999/xlink">
<g id="graph0" class="graph" transform="scale(1 1) rotate(0) translate(4 122)">
<title>gui.mainclasses.workspace.WorkspaceManager.WorkspaceManager</title>
<polygon fill="white" stroke="none" points="-4,4 -4,-122 654,-122 654,4 -4,4"/>
<!-- Node1 -->
<g id="node1" class="node"><title>Node1</title>
<polygon fill="#bfbfbf" stroke="black" points="0.5,-24 0.5,-54 205.5,-54 205.5,-24 0.5,-24"/>
<text text-anchor="start" x="8.5" y="-42" font-family="Helvetica,sans-Serif" font-size="10.00">gui.mainclasses.workspace.</text>
<text text-anchor="middle" x="103" y="-31" font-family="Helvetica,sans-Serif" font-size="10.00">WorkspaceManager.WorkspaceManager</text>
</g>
<!-- Node2 -->
<g id="node2" class="node"><title>Node2</title>
<g id="a_node2"><a xlink:href="../../d3/db0/classgui_1_1mainclasses_1_1workspace_1_1_workspace_manager.html#a5886a46ecdbed6403279af669228d661" target="_top" xlink:title="gui.mainclasses.workspace.\lWorkspaceManager.addWorkspace">
<polygon fill="white" stroke="black" points="246.5,-49 246.5,-79 427.5,-79 427.5,-49 246.5,-49"/>
<text text-anchor="start" x="254.5" y="-67" font-family="Helvetica,sans-Serif" font-size="10.00">gui.mainclasses.workspace.</text>
<text text-anchor="middle" x="337" y="-56" font-family="Helvetica,sans-Serif" font-size="10.00">WorkspaceManager.addWorkspace</text>
</a>
</g>
</g>
<!-- Node1&#45;&gt;Node2 -->
<g id="edge1" class="edge"><title>Node1&#45;&gt;Node2</title>
<path fill="none" stroke="midnightblue" d="M205.759,-49.9654C215.894,-51.0576 226.177,-52.1656 236.291,-53.2555"/>
<polygon fill="midnightblue" stroke="midnightblue" points="236.02,-56.7465 246.338,-54.3381 236.77,-49.7868 236.02,-56.7465"/>
</g>
<!-- Node6 -->
<g id="node6" class="node"><title>Node6</title>
<g id="a_node6"><a xlink:href="../../d3/db0/classgui_1_1mainclasses_1_1workspace_1_1_workspace_manager.html#a6af99303d078d669e4c843c1e7c2f439" target="_top" xlink:title="gui.mainclasses.workspace.\lWorkspaceManager.initializeTabPane">
<polygon fill="white" stroke="black" points="242.5,-0 242.5,-30 431.5,-30 431.5,-0 242.5,-0"/>
<text text-anchor="start" x="250.5" y="-18" font-family="Helvetica,sans-Serif" font-size="10.00">gui.mainclasses.workspace.</text>
<text text-anchor="middle" x="337" y="-7" font-family="Helvetica,sans-Serif" font-size="10.00">WorkspaceManager.initializeTabPane</text>
</a>
</g>
</g>
<!-- Node1&#45;&gt;Node6 -->
<g id="edge5" class="edge"><title>Node1&#45;&gt;Node6</title>
<path fill="none" stroke="midnightblue" d="M205.759,-28.4733C214.604,-27.5582 223.562,-26.6315 232.423,-25.7149"/>
<polygon fill="midnightblue" stroke="midnightblue" points="232.787,-29.196 242.373,-24.6855 232.066,-22.2332 232.787,-29.196"/>
</g>
<!-- Node3 -->
<g id="node3" class="node"><title>Node3</title>
<g id="a_node3"><a xlink:href="../../d0/d49/classgui_1_1mainclasses_1_1_text_generator.html#afef308a2abfb8f1503d2b276407833e6" target="_top" xlink:title="gui.mainclasses.TextGenerator.get">
<polygon fill="white" stroke="black" points="468,-98.5 468,-117.5 650,-117.5 650,-98.5 468,-98.5"/>
<text text-anchor="middle" x="559" y="-105.5" font-family="Helvetica,sans-Serif" font-size="10.00">gui.mainclasses.TextGenerator.get</text>
</a>
</g>
</g>
<!-- Node2&#45;&gt;Node3 -->
<g id="edge2" class="edge"><title>Node2&#45;&gt;Node3</title>
<path fill="none" stroke="midnightblue" d="M413.096,-79.0192C441.684,-84.7367 473.78,-91.156 500.485,-96.4971"/>
<polygon fill="midnightblue" stroke="midnightblue" points="499.946,-99.9584 510.438,-98.4876 501.319,-93.0943 499.946,-99.9584"/>
</g>
<!-- Node4 -->
<g id="node4" class="node"><title>Node4</title>
<g id="a_node4"><a xlink:href="../../da/d55/interface_control_1_1_slogo_graphics.html#af3615631e22f23ebbed236a95b6207ff" target="_top" xlink:title="Control.SlogoGraphics.create\lWorkspaceState">
<polygon fill="white" stroke="black" points="480.5,-49 480.5,-79 637.5,-79 637.5,-49 480.5,-49"/>
<text text-anchor="start" x="488.5" y="-67" font-family="Helvetica,sans-Serif" font-size="10.00">Control.SlogoGraphics.create</text>
<text text-anchor="middle" x="559" y="-56" font-family="Helvetica,sans-Serif" font-size="10.00">WorkspaceState</text>
</a>
</g>
</g>
<!-- Node2&#45;&gt;Node4 -->
<g id="edge3" class="edge"><title>Node2&#45;&gt;Node4</title>
<path fill="none" stroke="midnightblue" d="M427.8,-64C441.854,-64 456.364,-64 470.369,-64"/>
<polygon fill="midnightblue" stroke="midnightblue" points="470.463,-67.5001 480.463,-64 470.463,-60.5001 470.463,-67.5001"/>
</g>
<!-- Node5 -->
<g id="node5" class="node"><title>Node5</title>
<g id="a_node5"><a xlink:href="../../da/d55/interface_control_1_1_slogo_graphics.html#a15527d6f44f87f4bd8063275ef06dfc2" target="_top" xlink:title="Control.SlogoGraphics.set\lActiveWorkspaceState">
<polygon fill="white" stroke="black" points="488.5,-0 488.5,-30 629.5,-30 629.5,-0 488.5,-0"/>
<text text-anchor="start" x="496.5" y="-18" font-family="Helvetica,sans-Serif" font-size="10.00">Control.SlogoGraphics.set</text>
<text text-anchor="middle" x="559" y="-7" font-family="Helvetica,sans-Serif" font-size="10.00">ActiveWorkspaceState</text>
</a>
</g>
</g>
<!-- Node2&#45;&gt;Node5 -->
<g id="edge4" class="edge"><title>Node2&#45;&gt;Node5</title>
<path fill="none" stroke="midnightblue" d="M405.502,-48.9654C429.259,-43.6741 456.141,-37.6867 480.646,-32.2288"/>
<polygon fill="midnightblue" stroke="midnightblue" points="481.625,-35.5966 490.625,-30.0062 480.104,-28.764 481.625,-35.5966"/>
</g>
<!-- Node6&#45;&gt;Node5 -->
<g id="edge6" class="edge"><title>Node6&#45;&gt;Node5</title>
<path fill="none" stroke="midnightblue" d="M431.619,-15C447.107,-15 463.039,-15 478.149,-15"/>
<polygon fill="midnightblue" stroke="midnightblue" points="478.462,-18.5001 488.462,-15 478.462,-11.5001 478.462,-18.5001"/>
</g>
</g>
</svg>
