<?xml version="1.0" encoding="UTF-8" standalone="no"?>
<!DOCTYPE svg PUBLIC "-//W3C//DTD SVG 1.1//EN"
 "http://www.w3.org/Graphics/SVG/1.1/DTD/svg11.dtd">
<!-- Generated by graphviz version 2.36.0 (20140111.2315)
 -->
<!-- Title: gui.mainclasses.workspace.WorkspaceManager.addWorkspace Pages: 1 -->
<svg width="408pt" height="126pt"
 viewBox="0.00 0.00 408.00 126.00" xmlns="http://www.w3.org/2000/svg" xmlns:xlink="http://www.w3.org/1999/xlink">
<g id="graph0" class="graph" transform="scale(1 1) rotate(0) translate(4 122)">
<title>gui.mainclasses.workspace.WorkspaceManager.addWorkspace</title>
<polygon fill="white" stroke="none" points="-4,4 -4,-122 404,-122 404,4 -4,4"/>
<!-- Node1 -->
<g id="node1" class="node"><title>Node1</title>
<polygon fill="#bfbfbf" stroke="black" points="0.5,-44 0.5,-74 181.5,-74 181.5,-44 0.5,-44"/>
<text text-anchor="start" x="8.5" y="-62" font-family="Helvetica,sans-Serif" font-size="10.00">gui.mainclasses.workspace.</text>
<text text-anchor="middle" x="91" y="-51" font-family="Helvetica,sans-Serif" font-size="10.00">WorkspaceManager.addWorkspace</text>
</g>
<!-- Node2 -->
<g id="node2" class="node"><title>Node2</title>
<g id="a_node2"><a xlink:href="../../da/d55/interface_control_1_1_slogo_graphics.html#af3615631e22f23ebbed236a95b6207ff" target="_top" xlink:title="Control.SlogoGraphics.create\lWorkspaceState">
<polygon fill="white" stroke="black" points="230.5,-88 230.5,-118 387.5,-118 387.5,-88 230.5,-88"/>
<text text-anchor="start" x="238.5" y="-106" font-family="Helvetica,sans-Serif" font-size="10.00">Control.SlogoGraphics.create</text>
<text text-anchor="middle" x="309" y="-95" font-family="Helvetica,sans-Serif" font-size="10.00">WorkspaceState</text>
</a>
</g>
</g>
<!-- Node1&#45;&gt;Node2 -->
<g id="edge1" class="edge"><title>Node1&#45;&gt;Node2</title>
<path fill="none" stroke="midnightblue" d="M165.731,-74.0192C184.568,-77.8564 204.957,-82.0097 224.256,-85.9411"/>
<polygon fill="midnightblue" stroke="midnightblue" points="223.738,-89.4072 234.235,-87.9738 225.135,-82.5481 223.738,-89.4072"/>
</g>
<!-- Node3 -->
<g id="node3" class="node"><title>Node3</title>
<g id="a_node3"><a xlink:href="../../d0/d49/classgui_1_1mainclasses_1_1_text_generator.html#afef308a2abfb8f1503d2b276407833e6" target="_top" xlink:title="gui.mainclasses.TextGenerator.get">
<polygon fill="white" stroke="black" points="218,-49.5 218,-68.5 400,-68.5 400,-49.5 218,-49.5"/>
<text text-anchor="middle" x="309" y="-56.5" font-family="Helvetica,sans-Serif" font-size="10.00">gui.mainclasses.TextGenerator.get</text>
</a>
</g>
</g>
<!-- Node1&#45;&gt;Node3 -->
<g id="edge2" class="edge"><title>Node1&#45;&gt;Node3</title>
<path fill="none" stroke="midnightblue" d="M181.727,-59C190.308,-59 199.047,-59 207.72,-59"/>
<polygon fill="midnightblue" stroke="midnightblue" points="207.857,-62.5001 217.857,-59 207.857,-55.5001 207.857,-62.5001"/>
</g>
<!-- Node4 -->
<g id="node4" class="node"><title>Node4</title>
<g id="a_node4"><a xlink:href="../../da/d55/interface_control_1_1_slogo_graphics.html#a15527d6f44f87f4bd8063275ef06dfc2" target="_top" xlink:title="Control.SlogoGraphics.set\lActiveWorkspaceState">
<polygon fill="white" stroke="black" points="238.5,-0 238.5,-30 379.5,-30 379.5,-0 238.5,-0"/>
<text text-anchor="start" x="246.5" y="-18" font-family="Helvetica,sans-Serif" font-size="10.00">Control.SlogoGraphics.set</text>
<text text-anchor="middle" x="309" y="-7" font-family="Helvetica,sans-Serif" font-size="10.00">ActiveWorkspaceState</text>
</a>
</g>
</g>
<!-- Node1&#45;&gt;Node4 -->
<g id="edge3" class="edge"><title>Node1&#45;&gt;Node4</title>
<path fill="none" stroke="midnightblue" d="M165.731,-43.9808C185.896,-39.873 207.84,-35.403 228.321,-31.2309"/>
<polygon fill="midnightblue" stroke="midnightblue" points="229.144,-34.6353 238.244,-29.2096 227.746,-27.7761 229.144,-34.6353"/>
</g>
</g>
</svg>
