<?xml version="1.0" encoding="UTF-8" standalone="no"?>
<!DOCTYPE svg PUBLIC "-//W3C//DTD SVG 1.1//EN"
 "http://www.w3.org/Graphics/SVG/1.1/DTD/svg11.dtd">
<!-- Generated by graphviz version 2.36.0 (20140111.2315)
 -->
<!-- Title: gui.mainclasses.workspace.WorkspaceManager.addWorkspace Pages: 1 -->
<svg width="432pt" height="77pt"
 viewBox="0.00 0.00 432.00 77.00" xmlns="http://www.w3.org/2000/svg" xmlns:xlink="http://www.w3.org/1999/xlink">
<g id="graph0" class="graph" transform="scale(1 1) rotate(0) translate(4 73)">
<title>gui.mainclasses.workspace.WorkspaceManager.addWorkspace</title>
<polygon fill="white" stroke="none" points="-4,4 -4,-73 428,-73 428,4 -4,4"/>
<!-- Node1 -->
<g id="node1" class="node"><title>Node1</title>
<polygon fill="#bfbfbf" stroke="black" points="0.5,-22 0.5,-52 181.5,-52 181.5,-22 0.5,-22"/>
<text text-anchor="start" x="8.5" y="-40" font-family="Helvetica,sans-Serif" font-size="10.00">gui.mainclasses.workspace.</text>
<text text-anchor="middle" x="91" y="-29" font-family="Helvetica,sans-Serif" font-size="10.00">WorkspaceManager.addWorkspace</text>
</g>
<!-- Node2 -->
<g id="node2" class="node"><title>Node2</title>
<g id="a_node2"><a xlink:href="../../d1/dea/classgui_1_1menus_1_1_file_menu.html#ae040d0be1f3ff61aae358d2d6894619e" target="_top" xlink:title="gui.menus.FileMenu.FileMenu">
<polygon fill="white" stroke="black" points="243.5,-49.5 243.5,-68.5 398.5,-68.5 398.5,-49.5 243.5,-49.5"/>
<text text-anchor="middle" x="321" y="-56.5" font-family="Helvetica,sans-Serif" font-size="10.00">gui.menus.FileMenu.FileMenu</text>
</a>
</g>
</g>
<!-- Node1&#45;&gt;Node2 -->
<g id="edge1" class="edge"><title>Node1&#45;&gt;Node2</title>
<path fill="none" stroke="midnightblue" d="M191.857,-46.6353C209.07,-48.2962 226.719,-49.9992 243.204,-51.5898"/>
<polygon fill="midnightblue" stroke="midnightblue" points="192.074,-43.1401 181.784,-45.6634 191.402,-50.1078 192.074,-43.1401"/>
</g>
<!-- Node3 -->
<g id="node3" class="node"><title>Node3</title>
<g id="a_node3"><a xlink:href="../../d3/db0/classgui_1_1mainclasses_1_1workspace_1_1_workspace_manager.html#af1bf4f62bfb933aa3a845b283ddd9a76" target="_top" xlink:title="gui.mainclasses.workspace.\lWorkspaceManager.WorkspaceManager">
<polygon fill="white" stroke="black" points="218.5,-0 218.5,-30 423.5,-30 423.5,-0 218.5,-0"/>
<text text-anchor="start" x="226.5" y="-18" font-family="Helvetica,sans-Serif" font-size="10.00">gui.mainclasses.workspace.</text>
<text text-anchor="middle" x="321" y="-7" font-family="Helvetica,sans-Serif" font-size="10.00">WorkspaceManager.WorkspaceManager</text>
</a>
</g>
</g>
<!-- Node1&#45;&gt;Node3 -->
<g id="edge2" class="edge"><title>Node1&#45;&gt;Node3</title>
<path fill="none" stroke="midnightblue" d="M191.954,-27.3553C200.672,-26.5141 209.5,-25.6623 218.232,-24.8197"/>
<polygon fill="midnightblue" stroke="midnightblue" points="191.402,-23.8922 181.784,-28.3366 192.074,-30.8599 191.402,-23.8922"/>
</g>
</g>
</svg>
