<?xml version="1.0" encoding="UTF-8" standalone="no"?>
<!DOCTYPE svg PUBLIC "-//W3C//DTD SVG 1.1//EN"
 "http://www.w3.org/Graphics/SVG/1.1/DTD/svg11.dtd">
<!-- Generated by graphviz version 2.36.0 (20140111.2315)
 -->
<!-- Title: commandParsing.turtleCommandParsing.turtleAttributeSetters.SetTowards.vectorFromTwoPoints Pages: 1 -->
<svg width="386pt" height="66pt"
 viewBox="0.00 0.00 386.00 66.00" xmlns="http://www.w3.org/2000/svg" xmlns:xlink="http://www.w3.org/1999/xlink">
<g id="graph0" class="graph" transform="scale(1 1) rotate(0) translate(4 62)">
<title>commandParsing.turtleCommandParsing.turtleAttributeSetters.SetTowards.vectorFromTwoPoints</title>
<polygon fill="white" stroke="none" points="-4,4 -4,-62 382,-62 382,4 -4,4"/>
<!-- Node1 -->
<g id="node1" class="node"><title>Node1</title>
<polygon fill="#bfbfbf" stroke="black" points="0.5,-8.5 0.5,-49.5 179.5,-49.5 179.5,-8.5 0.5,-8.5"/>
<text text-anchor="start" x="8.5" y="-37.5" font-family="Helvetica,sans-Serif" font-size="10.00">commandParsing.turtleCommand</text>
<text text-anchor="start" x="8.5" y="-26.5" font-family="Helvetica,sans-Serif" font-size="10.00">Parsing.turtleAttributeSetters.</text>
<text text-anchor="middle" x="90" y="-15.5" font-family="Helvetica,sans-Serif" font-size="10.00">SetTowards.vectorFromTwoPoints</text>
</g>
<!-- Node2 -->
<g id="node2" class="node"><title>Node2</title>
<g id="a_node2"><a xlink:href="../../d0/d77/classworkspace_state_1_1_location.html#a31253ea7c01289f9c53d8353739de0a1" target="_top" xlink:title="workspaceState.Location.getX">
<polygon fill="white" stroke="black" points="216.5,-38.5 216.5,-57.5 377.5,-57.5 377.5,-38.5 216.5,-38.5"/>
<text text-anchor="middle" x="297" y="-45.5" font-family="Helvetica,sans-Serif" font-size="10.00">workspaceState.Location.getX</text>
</a>
</g>
</g>
<!-- Node1&#45;&gt;Node2 -->
<g id="edge1" class="edge"><title>Node1&#45;&gt;Node2</title>
<path fill="none" stroke="midnightblue" d="M179.724,-37.2232C188.608,-38.0466 197.633,-38.883 206.525,-39.7072"/>
<polygon fill="midnightblue" stroke="midnightblue" points="206.213,-43.1932 216.493,-40.6311 206.859,-36.223 206.213,-43.1932"/>
</g>
<!-- Node3 -->
<g id="node3" class="node"><title>Node3</title>
<g id="a_node3"><a xlink:href="../../d0/d77/classworkspace_state_1_1_location.html#a944e143017d77d851ea8265bba48917c" target="_top" xlink:title="workspaceState.Location.getY">
<polygon fill="white" stroke="black" points="216.5,-0.5 216.5,-19.5 377.5,-19.5 377.5,-0.5 216.5,-0.5"/>
<text text-anchor="middle" x="297" y="-7.5" font-family="Helvetica,sans-Serif" font-size="10.00">workspaceState.Location.getY</text>
</a>
</g>
</g>
<!-- Node1&#45;&gt;Node3 -->
<g id="edge2" class="edge"><title>Node1&#45;&gt;Node3</title>
<path fill="none" stroke="midnightblue" d="M179.724,-20.7768C188.608,-19.9534 197.633,-19.117 206.525,-18.2928"/>
<polygon fill="midnightblue" stroke="midnightblue" points="206.859,-21.777 216.493,-17.3689 206.213,-14.8068 206.859,-21.777"/>
</g>
</g>
</svg>
