<?xml version="1.0" encoding="UTF-8" standalone="no"?>
<!DOCTYPE svg PUBLIC "-//W3C//DTD SVG 1.1//EN"
 "http://www.w3.org/Graphics/SVG/1.1/DTD/svg11.dtd">
<!-- Generated by graphviz version 2.36.0 (20140111.2315)
 -->
<!-- Title: commandParsing.turtleCommandParsing.turtleAttributeSetters.SetTowards.angleBetweenVectors Pages: 1 -->
<svg width="626pt" height="75pt"
 viewBox="0.00 0.00 626.00 75.00" xmlns="http://www.w3.org/2000/svg" xmlns:xlink="http://www.w3.org/1999/xlink">
<g id="graph0" class="graph" transform="scale(1 1) rotate(0) translate(4 71)">
<title>commandParsing.turtleCommandParsing.turtleAttributeSetters.SetTowards.angleBetweenVectors</title>
<polygon fill="white" stroke="none" points="-4,4 -4,-71 622,-71 622,4 -4,4"/>
<!-- Node1 -->
<g id="node1" class="node"><title>Node1</title>
<polygon fill="#bfbfbf" stroke="black" points="0.5,-0.5 0.5,-41.5 179.5,-41.5 179.5,-0.5 0.5,-0.5"/>
<text text-anchor="start" x="8.5" y="-29.5" font-family="Helvetica,sans-Serif" font-size="10.00">commandParsing.turtleCommand</text>
<text text-anchor="start" x="8.5" y="-18.5" font-family="Helvetica,sans-Serif" font-size="10.00">Parsing.turtleAttributeSetters.</text>
<text text-anchor="middle" x="90" y="-7.5" font-family="Helvetica,sans-Serif" font-size="10.00">SetTowards.angleBetweenVectors</text>
</g>
<!-- Node2 -->
<g id="node2" class="node"><title>Node2</title>
<g id="a_node2"><a xlink:href="../../da/d63/classcommand_parsing_1_1turtle_command_parsing_1_1turtle_attribute_setters_1_1_set_towards.html#a80e2b053ccefe49624bc2995312c6c98" target="_top" xlink:title="commandParsing.turtleCommand\lParsing.turtleAttributeSetters.\lSetTowards.angleToNorth">
<polygon fill="white" stroke="black" points="216.5,-25.5 216.5,-66.5 395.5,-66.5 395.5,-25.5 216.5,-25.5"/>
<text text-anchor="start" x="224.5" y="-54.5" font-family="Helvetica,sans-Serif" font-size="10.00">commandParsing.turtleCommand</text>
<text text-anchor="start" x="224.5" y="-43.5" font-family="Helvetica,sans-Serif" font-size="10.00">Parsing.turtleAttributeSetters.</text>
<text text-anchor="middle" x="306" y="-32.5" font-family="Helvetica,sans-Serif" font-size="10.00">SetTowards.angleToNorth</text>
</a>
</g>
</g>
<!-- Node1&#45;&gt;Node2 -->
<g id="edge1" class="edge"><title>Node1&#45;&gt;Node2</title>
<path fill="none" stroke="midnightblue" d="M189.645,-32.524C198.596,-33.5696 207.625,-34.6244 216.48,-35.6588"/>
<polygon fill="midnightblue" stroke="midnightblue" points="189.925,-29.033 179.587,-31.3489 189.113,-35.9857 189.925,-29.033"/>
</g>
<!-- Node3 -->
<g id="node3" class="node"><title>Node3</title>
<g id="a_node3"><a xlink:href="../../da/d63/classcommand_parsing_1_1turtle_command_parsing_1_1turtle_attribute_setters_1_1_set_towards.html#a287e5a64e0179d1de65f2ebb4d5622a2" target="_top" xlink:title="commandParsing.turtleCommand\lParsing.turtleAttributeSetters.\lSetTowards.operateOnComponents">
<polygon fill="white" stroke="black" points="432,-0.5 432,-41.5 618,-41.5 618,-0.5 432,-0.5"/>
<text text-anchor="start" x="440" y="-29.5" font-family="Helvetica,sans-Serif" font-size="10.00">commandParsing.turtleCommand</text>
<text text-anchor="start" x="440" y="-18.5" font-family="Helvetica,sans-Serif" font-size="10.00">Parsing.turtleAttributeSetters.</text>
<text text-anchor="middle" x="525" y="-7.5" font-family="Helvetica,sans-Serif" font-size="10.00">SetTowards.operateOnComponents</text>
</a>
</g>
</g>
<!-- Node1&#45;&gt;Node3 -->
<g id="edge3" class="edge"><title>Node1&#45;&gt;Node3</title>
<path fill="none" stroke="midnightblue" d="M189.767,-16.6827C198.636,-16.4059 207.48,-16.1703 216,-16 295.984,-14.401 316.015,-14.4384 396,-16 407.562,-16.2257 419.708,-16.5661 431.725,-16.9651"/>
<polygon fill="midnightblue" stroke="midnightblue" points="189.638,-13.1849 179.759,-17.0114 189.868,-20.1811 189.638,-13.1849"/>
</g>
<!-- Node2&#45;&gt;Node3 -->
<g id="edge2" class="edge"><title>Node2&#45;&gt;Node3</title>
<path fill="none" stroke="midnightblue" d="M405.727,-34.6259C414.419,-33.6245 423.196,-32.6134 431.831,-31.6185"/>
<polygon fill="midnightblue" stroke="midnightblue" points="405.109,-31.1739 395.575,-35.7955 405.91,-38.1279 405.109,-31.1739"/>
</g>
</g>
</svg>
