<?xml version="1.0" encoding="UTF-8" standalone="no"?>
<!DOCTYPE svg PUBLIC "-//W3C//DTD SVG 1.1//EN"
 "http://www.w3.org/Graphics/SVG/1.1/DTD/svg11.dtd">
<!-- Generated by graphviz version 2.36.0 (20140111.2315)
 -->
<!-- Title: commandParsing.turtleCommandParsing.turtleAttributeSetters.SetTowards.operateOnComponents Pages: 1 -->
<svg width="906pt" height="506pt"
 viewBox="0.00 0.00 906.00 506.00" xmlns="http://www.w3.org/2000/svg" xmlns:xlink="http://www.w3.org/1999/xlink">
<g id="graph0" class="graph" transform="scale(1 1) rotate(0) translate(4 502)">
<title>commandParsing.turtleCommandParsing.turtleAttributeSetters.SetTowards.operateOnComponents</title>
<polygon fill="white" stroke="none" points="-4,4 -4,-502 902,-502 902,4 -4,4"/>
<!-- Node1 -->
<g id="node1" class="node"><title>Node1</title>
<polygon fill="#bfbfbf" stroke="black" points="0,-191.5 0,-232.5 186,-232.5 186,-191.5 0,-191.5"/>
<text text-anchor="start" x="8" y="-220.5" font-family="Helvetica,sans-Serif" font-size="10.00">commandParsing.turtleCommand</text>
<text text-anchor="start" x="8" y="-209.5" font-family="Helvetica,sans-Serif" font-size="10.00">Parsing.turtleAttributeSetters.</text>
<text text-anchor="middle" x="93" y="-198.5" font-family="Helvetica,sans-Serif" font-size="10.00">SetTowards.operateOnComponents</text>
</g>
<!-- Node2 -->
<g id="node2" class="node"><title>Node2</title>
<g id="a_node2"><a xlink:href="../../da/d63/classcommand_parsing_1_1turtle_command_parsing_1_1turtle_attribute_setters_1_1_set_towards.html#a657fa3f61631be176f545052576cf0bb" target="_top" xlink:title="commandParsing.turtleCommand\lParsing.turtleAttributeSetters.\lSetTowards.angleBetweenVectors">
<polygon fill="white" stroke="black" points="500.5,-399.5 500.5,-440.5 679.5,-440.5 679.5,-399.5 500.5,-399.5"/>
<text text-anchor="start" x="508.5" y="-428.5" font-family="Helvetica,sans-Serif" font-size="10.00">commandParsing.turtleCommand</text>
<text text-anchor="start" x="508.5" y="-417.5" font-family="Helvetica,sans-Serif" font-size="10.00">Parsing.turtleAttributeSetters.</text>
<text text-anchor="middle" x="590" y="-406.5" font-family="Helvetica,sans-Serif" font-size="10.00">SetTowards.angleBetweenVectors</text>
</a>
</g>
</g>
<!-- Node1&#45;&gt;Node2 -->
<g id="edge1" class="edge"><title>Node1&#45;&gt;Node2</title>
<path fill="none" stroke="midnightblue" d="M104.245,-232.763C122.58,-267.477 164.53,-336.669 222,-369 304.093,-415.183 412.342,-425.22 489.968,-425.351"/>
<polygon fill="midnightblue" stroke="midnightblue" points="490.248,-428.85 500.234,-425.311 490.22,-421.85 490.248,-428.85"/>
</g>
<!-- Node5 -->
<g id="node5" class="node"><title>Node5</title>
<g id="a_node5"><a xlink:href="../../da/d63/classcommand_parsing_1_1turtle_command_parsing_1_1turtle_attribute_setters_1_1_set_towards.html#a80e2b053ccefe49624bc2995312c6c98" target="_top" xlink:title="commandParsing.turtleCommand\lParsing.turtleAttributeSetters.\lSetTowards.angleToNorth">
<polygon fill="white" stroke="black" points="252.5,-319.5 252.5,-360.5 431.5,-360.5 431.5,-319.5 252.5,-319.5"/>
<text text-anchor="start" x="260.5" y="-348.5" font-family="Helvetica,sans-Serif" font-size="10.00">commandParsing.turtleCommand</text>
<text text-anchor="start" x="260.5" y="-337.5" font-family="Helvetica,sans-Serif" font-size="10.00">Parsing.turtleAttributeSetters.</text>
<text text-anchor="middle" x="342" y="-326.5" font-family="Helvetica,sans-Serif" font-size="10.00">SetTowards.angleToNorth</text>
</a>
</g>
</g>
<!-- Node1&#45;&gt;Node5 -->
<g id="edge4" class="edge"><title>Node1&#45;&gt;Node5</title>
<path fill="none" stroke="midnightblue" d="M133.685,-232.565C176.897,-254.959 246.03,-290.785 292.447,-314.839"/>
<polygon fill="midnightblue" stroke="midnightblue" points="290.925,-317.992 301.414,-319.486 294.145,-311.777 290.925,-317.992"/>
</g>
<!-- Node6 -->
<g id="node6" class="node"><title>Node6</title>
<g id="a_node6"><a xlink:href="../../df/d64/interfacecommand_parsing_1_1drawable_obect_generation_interfaces_1_1_turtle_generator.html#ad2df4af6c11d2ec038868c5520be6acd" target="_top" xlink:title="commandParsing.drawableObect\lGenerationInterfaces.TurtleGenerator.generate\lDrawableObjectRepresentingTurtle">
<polygon fill="white" stroke="black" points="222,-218.5 222,-259.5 462,-259.5 462,-218.5 222,-218.5"/>
<text text-anchor="start" x="230" y="-247.5" font-family="Helvetica,sans-Serif" font-size="10.00">commandParsing.drawableObect</text>
<text text-anchor="start" x="230" y="-236.5" font-family="Helvetica,sans-Serif" font-size="10.00">GenerationInterfaces.TurtleGenerator.generate</text>
<text text-anchor="middle" x="342" y="-225.5" font-family="Helvetica,sans-Serif" font-size="10.00">DrawableObjectRepresentingTurtle</text>
</a>
</g>
</g>
<!-- Node1&#45;&gt;Node6 -->
<g id="edge6" class="edge"><title>Node1&#45;&gt;Node6</title>
<path fill="none" stroke="midnightblue" d="M186.325,-222.092C194.598,-222.997 203.07,-223.923 211.581,-224.853"/>
<polygon fill="midnightblue" stroke="midnightblue" points="211.257,-228.338 221.578,-225.946 212.018,-221.38 211.257,-228.338"/>
</g>
<!-- Node15 -->
<g id="node15" class="node"><title>Node15</title>
<g id="a_node15"><a xlink:href="../../db/d1f/classworkspace_state_1_1_turtle_collection.html#a6c49b4d7d24c0ed82ea491185b023cf0" target="_top" xlink:title="workspaceState.TurtleCollection.get\lActiveTurtles">
<polygon fill="white" stroke="black" points="248.5,-170 248.5,-200 435.5,-200 435.5,-170 248.5,-170"/>
<text text-anchor="start" x="256.5" y="-188" font-family="Helvetica,sans-Serif" font-size="10.00">workspaceState.TurtleCollection.get</text>
<text text-anchor="middle" x="342" y="-177" font-family="Helvetica,sans-Serif" font-size="10.00">ActiveTurtles</text>
</a>
</g>
</g>
<!-- Node1&#45;&gt;Node15 -->
<g id="edge15" class="edge"><title>Node1&#45;&gt;Node15</title>
<path fill="none" stroke="midnightblue" d="M186.325,-201.908C203.277,-200.055 221.069,-198.11 238.303,-196.226"/>
<polygon fill="midnightblue" stroke="midnightblue" points="238.815,-199.691 248.376,-195.125 238.055,-192.732 238.815,-199.691"/>
</g>
<!-- Node16 -->
<g id="node16" class="node"><title>Node16</title>
<g id="a_node16"><a xlink:href="../../da/d63/classcommand_parsing_1_1turtle_command_parsing_1_1turtle_attribute_setters_1_1_set_towards.html#a9d0724f040823f3aab7fd9d5ab8a07f1" target="_top" xlink:title="commandParsing.turtleCommand\lParsing.turtleAttributeSetters.\lSetTowards.vectorFromAngle">
<polygon fill="white" stroke="black" points="252.5,-110.5 252.5,-151.5 431.5,-151.5 431.5,-110.5 252.5,-110.5"/>
<text text-anchor="start" x="260.5" y="-139.5" font-family="Helvetica,sans-Serif" font-size="10.00">commandParsing.turtleCommand</text>
<text text-anchor="start" x="260.5" y="-128.5" font-family="Helvetica,sans-Serif" font-size="10.00">Parsing.turtleAttributeSetters.</text>
<text text-anchor="middle" x="342" y="-117.5" font-family="Helvetica,sans-Serif" font-size="10.00">SetTowards.vectorFromAngle</text>
</a>
</g>
</g>
<!-- Node1&#45;&gt;Node16 -->
<g id="edge16" class="edge"><title>Node1&#45;&gt;Node16</title>
<path fill="none" stroke="midnightblue" d="M139.906,-191.44C164.027,-181.127 194.268,-168.959 222,-160 228.526,-157.892 235.296,-155.855 242.145,-153.904"/>
<polygon fill="midnightblue" stroke="midnightblue" points="243.517,-157.156 252.218,-151.11 241.646,-150.41 243.517,-157.156"/>
</g>
<!-- Node17 -->
<g id="node17" class="node"><title>Node17</title>
<g id="a_node17"><a xlink:href="../../da/d63/classcommand_parsing_1_1turtle_command_parsing_1_1turtle_attribute_setters_1_1_set_towards.html#a20403486a3c514b9137f93884038cfe2" target="_top" xlink:title="commandParsing.turtleCommand\lParsing.turtleAttributeSetters.\lSetTowards.vectorFromTwoPoints">
<polygon fill="white" stroke="black" points="252.5,-27.5 252.5,-68.5 431.5,-68.5 431.5,-27.5 252.5,-27.5"/>
<text text-anchor="start" x="260.5" y="-56.5" font-family="Helvetica,sans-Serif" font-size="10.00">commandParsing.turtleCommand</text>
<text text-anchor="start" x="260.5" y="-45.5" font-family="Helvetica,sans-Serif" font-size="10.00">Parsing.turtleAttributeSetters.</text>
<text text-anchor="middle" x="342" y="-34.5" font-family="Helvetica,sans-Serif" font-size="10.00">SetTowards.vectorFromTwoPoints</text>
</a>
</g>
</g>
<!-- Node1&#45;&gt;Node17 -->
<g id="edge17" class="edge"><title>Node1&#45;&gt;Node17</title>
<path fill="none" stroke="midnightblue" d="M114.197,-191.073C138.212,-167.042 180.309,-127.529 222,-101 238.898,-90.2473 258.347,-80.5913 276.558,-72.5601"/>
<polygon fill="midnightblue" stroke="midnightblue" points="278.152,-75.6845 285.949,-68.5112 275.38,-69.2565 278.152,-75.6845"/>
</g>
<!-- Node3 -->
<g id="node3" class="node"><title>Node3</title>
<g id="a_node3"><a xlink:href="../../da/d63/classcommand_parsing_1_1turtle_command_parsing_1_1turtle_attribute_setters_1_1_set_towards.html#a4915f613805ee126821f686040d3bd02" target="_top" xlink:title="commandParsing.turtleCommand\lParsing.turtleAttributeSetters.\lSetTowards.dotProduct">
<polygon fill="white" stroke="black" points="718.5,-456.5 718.5,-497.5 897.5,-497.5 897.5,-456.5 718.5,-456.5"/>
<text text-anchor="start" x="726.5" y="-485.5" font-family="Helvetica,sans-Serif" font-size="10.00">commandParsing.turtleCommand</text>
<text text-anchor="start" x="726.5" y="-474.5" font-family="Helvetica,sans-Serif" font-size="10.00">Parsing.turtleAttributeSetters.</text>
<text text-anchor="middle" x="808" y="-463.5" font-family="Helvetica,sans-Serif" font-size="10.00">SetTowards.dotProduct</text>
</a>
</g>
</g>
<!-- Node2&#45;&gt;Node3 -->
<g id="edge2" class="edge"><title>Node2&#45;&gt;Node3</title>
<path fill="none" stroke="midnightblue" d="M668.981,-440.578C685.345,-444.897 702.709,-449.479 719.398,-453.883"/>
<polygon fill="midnightblue" stroke="midnightblue" points="718.571,-457.284 729.134,-456.452 720.358,-450.516 718.571,-457.284"/>
</g>
<!-- Node4 -->
<g id="node4" class="node"><title>Node4</title>
<g id="a_node4"><a xlink:href="../../da/d63/classcommand_parsing_1_1turtle_command_parsing_1_1turtle_attribute_setters_1_1_set_towards.html#adf4167c7d601e4af1465be24ad2f05e3" target="_top" xlink:title="commandParsing.turtleCommand\lParsing.turtleAttributeSetters.\lSetTowards.magnitude">
<polygon fill="white" stroke="black" points="718.5,-396.5 718.5,-437.5 897.5,-437.5 897.5,-396.5 718.5,-396.5"/>
<text text-anchor="start" x="726.5" y="-425.5" font-family="Helvetica,sans-Serif" font-size="10.00">commandParsing.turtleCommand</text>
<text text-anchor="start" x="726.5" y="-414.5" font-family="Helvetica,sans-Serif" font-size="10.00">Parsing.turtleAttributeSetters.</text>
<text text-anchor="middle" x="808" y="-403.5" font-family="Helvetica,sans-Serif" font-size="10.00">SetTowards.magnitude</text>
</a>
</g>
</g>
<!-- Node2&#45;&gt;Node4 -->
<g id="edge3" class="edge"><title>Node2&#45;&gt;Node4</title>
<path fill="none" stroke="midnightblue" d="M679.791,-418.767C689.105,-418.637 698.616,-418.505 708.035,-418.375"/>
<polygon fill="midnightblue" stroke="midnightblue" points="708.255,-421.872 718.205,-418.233 708.158,-414.873 708.255,-421.872"/>
</g>
<!-- Node5&#45;&gt;Node2 -->
<g id="edge5" class="edge"><title>Node5&#45;&gt;Node2</title>
<path fill="none" stroke="midnightblue" d="M406.351,-360.602C439.923,-371.52 481.319,-384.982 516.208,-396.328"/>
<polygon fill="midnightblue" stroke="midnightblue" points="515.271,-399.704 525.864,-399.468 517.436,-393.047 515.271,-399.704"/>
</g>
<!-- Node7 -->
<g id="node7" class="node"><title>Node7</title>
<g id="a_node7"><a xlink:href="../../d0/d77/classworkspace_state_1_1_location.html#ae445cb48bedcd80659a847365a6a3de4" target="_top" xlink:title="workspaceState.Location.generate\lLocationString">
<polygon fill="white" stroke="black" points="498.5,-351 498.5,-381 681.5,-381 681.5,-351 498.5,-351"/>
<text text-anchor="start" x="506.5" y="-369" font-family="Helvetica,sans-Serif" font-size="10.00">workspaceState.Location.generate</text>
<text text-anchor="middle" x="590" y="-358" font-family="Helvetica,sans-Serif" font-size="10.00">LocationString</text>
</a>
</g>
</g>
<!-- Node6&#45;&gt;Node7 -->
<g id="edge7" class="edge"><title>Node6&#45;&gt;Node7</title>
<path fill="none" stroke="midnightblue" d="M381.308,-259.617C405.169,-272.999 436.139,-291.364 462,-310 479.13,-322.344 479.365,-331.072 498,-341 502.293,-343.287 506.814,-345.38 511.452,-347.293"/>
<polygon fill="midnightblue" stroke="midnightblue" points="510.512,-350.68 521.103,-350.971 513.005,-344.139 510.512,-350.68"/>
</g>
<!-- Node9 -->
<g id="node9" class="node"><title>Node9</title>
<g id="a_node9"><a xlink:href="../../d1/d01/classworkspace_state_1_1_turtle.html#ac6697327d46a4fde63526e973948d6f7" target="_top" xlink:title="workspaceState.Turtle.get\lHeading">
<polygon fill="white" stroke="black" points="520,-302 520,-332 660,-332 660,-302 520,-302"/>
<text text-anchor="start" x="528" y="-320" font-family="Helvetica,sans-Serif" font-size="10.00">workspaceState.Turtle.get</text>
<text text-anchor="middle" x="590" y="-309" font-family="Helvetica,sans-Serif" font-size="10.00">Heading</text>
</a>
</g>
</g>
<!-- Node6&#45;&gt;Node9 -->
<g id="edge9" class="edge"><title>Node6&#45;&gt;Node9</title>
<path fill="none" stroke="midnightblue" d="M400.506,-259.603C429.589,-269.783 465.521,-281.996 498,-292 505.878,-294.427 514.174,-296.865 522.42,-299.217"/>
<polygon fill="midnightblue" stroke="midnightblue" points="521.474,-302.586 532.049,-301.932 523.374,-295.849 521.474,-302.586"/>
</g>
<!-- Node10 -->
<g id="node10" class="node"><title>Node10</title>
<g id="a_node10"><a xlink:href="../../d1/d01/classworkspace_state_1_1_turtle.html#a2b5e77b78036091a65abb5f4959b5ef7" target="_top" xlink:title="workspaceState.Turtle.getID">
<polygon fill="white" stroke="black" points="515,-263.5 515,-282.5 665,-282.5 665,-263.5 515,-263.5"/>
<text text-anchor="middle" x="590" y="-270.5" font-family="Helvetica,sans-Serif" font-size="10.00">workspaceState.Turtle.getID</text>
</a>
</g>
</g>
<!-- Node6&#45;&gt;Node10 -->
<g id="edge10" class="edge"><title>Node6&#45;&gt;Node10</title>
<path fill="none" stroke="midnightblue" d="M462.037,-255.452C478.335,-257.705 494.725,-259.97 510.063,-262.09"/>
<polygon fill="midnightblue" stroke="midnightblue" points="509.593,-265.558 519.978,-263.46 510.551,-258.624 509.593,-265.558"/>
</g>
<!-- Node11 -->
<g id="node11" class="node"><title>Node11</title>
<g id="a_node11"><a xlink:href="../../d1/d01/classworkspace_state_1_1_turtle.html#a9bb3d15f12d9d4e03332ea9817f76882" target="_top" xlink:title="workspaceState.Turtle.get\lLocation">
<polygon fill="white" stroke="black" points="520,-214 520,-244 660,-244 660,-214 520,-214"/>
<text text-anchor="start" x="528" y="-232" font-family="Helvetica,sans-Serif" font-size="10.00">workspaceState.Turtle.get</text>
<text text-anchor="middle" x="590" y="-221" font-family="Helvetica,sans-Serif" font-size="10.00">Location</text>
</a>
</g>
</g>
<!-- Node6&#45;&gt;Node11 -->
<g id="edge11" class="edge"><title>Node6&#45;&gt;Node11</title>
<path fill="none" stroke="midnightblue" d="M462.037,-234.161C478.179,-233.505 494.413,-232.845 509.624,-232.227"/>
<polygon fill="midnightblue" stroke="midnightblue" points="510.129,-235.709 519.978,-231.806 509.844,-228.715 510.129,-235.709"/>
</g>
<!-- Node12 -->
<g id="node12" class="node"><title>Node12</title>
<g id="a_node12"><a xlink:href="../../d1/d01/classworkspace_state_1_1_turtle.html#a5c09e19002f9ed4c61ce538fff3da4ff" target="_top" xlink:title="workspaceState.Turtle.get\lOpacity">
<polygon fill="white" stroke="black" points="520,-165 520,-195 660,-195 660,-165 520,-165"/>
<text text-anchor="start" x="528" y="-183" font-family="Helvetica,sans-Serif" font-size="10.00">workspaceState.Turtle.get</text>
<text text-anchor="middle" x="590" y="-172" font-family="Helvetica,sans-Serif" font-size="10.00">Opacity</text>
</a>
</g>
</g>
<!-- Node6&#45;&gt;Node12 -->
<g id="edge12" class="edge"><title>Node6&#45;&gt;Node12</title>
<path fill="none" stroke="midnightblue" d="M428.694,-218.447C457.221,-211.605 488.706,-204.054 516.166,-197.468"/>
<polygon fill="midnightblue" stroke="midnightblue" points="517.179,-200.825 526.087,-195.089 515.547,-194.018 517.179,-200.825"/>
</g>
<!-- Node13 -->
<g id="node13" class="node"><title>Node13</title>
<g id="a_node13"><a xlink:href="../../da/de7/classworkspace_state_1_1_shape.html#aace6051dd26034446492ecac6ff16099" target="_top" xlink:title="workspaceState.Shape.getPath">
<polygon fill="white" stroke="black" points="506.5,-126.5 506.5,-145.5 673.5,-145.5 673.5,-126.5 506.5,-126.5"/>
<text text-anchor="middle" x="590" y="-133.5" font-family="Helvetica,sans-Serif" font-size="10.00">workspaceState.Shape.getPath</text>
</a>
</g>
</g>
<!-- Node6&#45;&gt;Node13 -->
<g id="edge13" class="edge"><title>Node6&#45;&gt;Node13</title>
<path fill="none" stroke="midnightblue" d="M445.86,-218.475C451.522,-215.706 456.953,-212.564 462,-209 485.561,-192.361 474.101,-171.151 498,-155 500.965,-152.996 504.099,-151.197 507.35,-149.582"/>
<polygon fill="midnightblue" stroke="midnightblue" points="508.994,-152.685 516.781,-145.502 506.214,-146.26 508.994,-152.685"/>
</g>
<!-- Node14 -->
<g id="node14" class="node"><title>Node14</title>
<g id="a_node14"><a xlink:href="../../d1/d01/classworkspace_state_1_1_turtle.html#a8d9dd9cb3503c6d0aa45efca91816f71" target="_top" xlink:title="workspaceState.Turtle.get\lShape">
<polygon fill="white" stroke="black" points="520,-77 520,-107 660,-107 660,-77 520,-77"/>
<text text-anchor="start" x="528" y="-95" font-family="Helvetica,sans-Serif" font-size="10.00">workspaceState.Turtle.get</text>
<text text-anchor="middle" x="590" y="-84" font-family="Helvetica,sans-Serif" font-size="10.00">Shape</text>
</a>
</g>
</g>
<!-- Node6&#45;&gt;Node14 -->
<g id="edge14" class="edge"><title>Node6&#45;&gt;Node14</title>
<path fill="none" stroke="midnightblue" d="M449.056,-218.405C453.653,-215.642 458.004,-212.522 462,-209 494.941,-179.969 465.368,-146.378 498,-117 501.858,-113.526 506.156,-110.53 510.725,-107.945"/>
<polygon fill="midnightblue" stroke="midnightblue" points="512.383,-111.03 519.801,-103.465 509.284,-104.753 512.383,-111.03"/>
</g>
<!-- Node8 -->
<g id="node8" class="node"><title>Node8</title>
<g id="a_node8"><a xlink:href="../../d0/d77/classworkspace_state_1_1_location.html#ad4e68a97bd0ea67236551c1183fdcd6f" target="_top" xlink:title="workspaceState.Location.add">
<polygon fill="white" stroke="black" points="729,-356.5 729,-375.5 887,-375.5 887,-356.5 729,-356.5"/>
<text text-anchor="middle" x="808" y="-363.5" font-family="Helvetica,sans-Serif" font-size="10.00">workspaceState.Location.add</text>
</a>
</g>
</g>
<!-- Node7&#45;&gt;Node8 -->
<g id="edge8" class="edge"><title>Node7&#45;&gt;Node8</title>
<path fill="none" stroke="midnightblue" d="M681.665,-366C693.931,-366 706.504,-366 718.728,-366"/>
<polygon fill="midnightblue" stroke="midnightblue" points="718.9,-369.5 728.9,-366 718.9,-362.5 718.9,-369.5"/>
</g>
<!-- Node18 -->
<g id="node18" class="node"><title>Node18</title>
<g id="a_node18"><a xlink:href="../../d0/d77/classworkspace_state_1_1_location.html#a31253ea7c01289f9c53d8353739de0a1" target="_top" xlink:title="workspaceState.Location.getX">
<polygon fill="white" stroke="black" points="509.5,-38.5 509.5,-57.5 670.5,-57.5 670.5,-38.5 509.5,-38.5"/>
<text text-anchor="middle" x="590" y="-45.5" font-family="Helvetica,sans-Serif" font-size="10.00">workspaceState.Location.getX</text>
</a>
</g>
</g>
<!-- Node17&#45;&gt;Node18 -->
<g id="edge18" class="edge"><title>Node17&#45;&gt;Node18</title>
<path fill="none" stroke="midnightblue" d="M431.812,-48C453.672,-48 477.098,-48 499.014,-48"/>
<polygon fill="midnightblue" stroke="midnightblue" points="499.301,-51.5001 509.301,-48 499.301,-44.5001 499.301,-51.5001"/>
</g>
<!-- Node19 -->
<g id="node19" class="node"><title>Node19</title>
<g id="a_node19"><a xlink:href="../../d0/d77/classworkspace_state_1_1_location.html#a944e143017d77d851ea8265bba48917c" target="_top" xlink:title="workspaceState.Location.getY">
<polygon fill="white" stroke="black" points="509.5,-0.5 509.5,-19.5 670.5,-19.5 670.5,-0.5 509.5,-0.5"/>
<text text-anchor="middle" x="590" y="-7.5" font-family="Helvetica,sans-Serif" font-size="10.00">workspaceState.Location.getY</text>
</a>
</g>
</g>
<!-- Node17&#45;&gt;Node19 -->
<g id="edge19" class="edge"><title>Node17&#45;&gt;Node19</title>
<path fill="none" stroke="midnightblue" d="M431.812,-34.2811C459.88,-29.9454 490.527,-25.2112 517.247,-21.0839"/>
<polygon fill="midnightblue" stroke="midnightblue" points="517.933,-24.5195 527.281,-19.5338 516.864,-17.6015 517.933,-24.5195"/>
</g>
</g>
</svg>
