<?xml version="1.0" encoding="UTF-8" standalone="no"?>
<!DOCTYPE svg PUBLIC "-//W3C//DTD SVG 1.1//EN"
 "http://www.w3.org/Graphics/SVG/1.1/DTD/svg11.dtd">
<!-- Generated by graphviz version 2.36.0 (20140111.2315)
 -->
<!-- Title: gui.componentdrawers.PreviousCommandsDrawer Pages: 1 -->
<svg width="192pt" height="164pt"
 viewBox="0.00 0.00 192.00 164.00" xmlns="http://www.w3.org/2000/svg" xmlns:xlink="http://www.w3.org/1999/xlink">
<g id="graph0" class="graph" transform="scale(1 1) rotate(0) translate(4 160)">
<title>gui.componentdrawers.PreviousCommandsDrawer</title>
<polygon fill="white" stroke="none" points="-4,4 -4,-160 188,-160 188,4 -4,4"/>
<!-- Node1 -->
<g id="node1" class="node"><title>Node1</title>
<polygon fill="#bfbfbf" stroke="black" points="7,-1 7,-31 177,-31 177,-1 7,-1"/>
<text text-anchor="start" x="15" y="-19" font-family="Helvetica,sans-Serif" font-size="10.00">gui.componentdrawers.Previous</text>
<text text-anchor="middle" x="92" y="-8" font-family="Helvetica,sans-Serif" font-size="10.00">CommandsDrawer</text>
</g>
<!-- Node2 -->
<g id="node2" class="node"><title>Node2</title>
<g id="a_node2"><a xlink:href="../../d0/dda/classgui_1_1componentdrawers_1_1_component_drawer.html" target="_top" xlink:title="gui.componentdrawers.Component\lDrawer">
<polygon fill="white" stroke="black" points="-0.5,-69 -0.5,-99 184.5,-99 184.5,-69 -0.5,-69"/>
<text text-anchor="start" x="7.5" y="-87" font-family="Helvetica,sans-Serif" font-size="10.00">gui.componentdrawers.Component</text>
<text text-anchor="middle" x="92" y="-76" font-family="Helvetica,sans-Serif" font-size="10.00">Drawer</text>
</a>
</g>
</g>
<!-- Node2&#45;&gt;Node1 -->
<g id="edge1" class="edge"><title>Node2&#45;&gt;Node1</title>
<path fill="none" stroke="midnightblue" d="M92,-58.5322C92,-49.3606 92,-39.2449 92,-31.2931"/>
<polygon fill="midnightblue" stroke="midnightblue" points="88.5001,-58.6789 92,-68.679 95.5001,-58.679 88.5001,-58.6789"/>
</g>
<!-- Node3 -->
<g id="node3" class="node"><title>Node3</title>
<polygon fill="white" stroke="#bfbfbf" points="72,-136.5 72,-155.5 112,-155.5 112,-136.5 72,-136.5"/>
<text text-anchor="middle" x="92" y="-143.5" font-family="Helvetica,sans-Serif" font-size="10.00">Pane</text>
</g>
<!-- Node3&#45;&gt;Node2 -->
<g id="edge2" class="edge"><title>Node3&#45;&gt;Node2</title>
<path fill="none" stroke="midnightblue" d="M92,-126.371C92,-117.585 92,-107.272 92,-99.1408"/>
<polygon fill="midnightblue" stroke="midnightblue" points="88.5001,-126.403 92,-136.403 95.5001,-126.403 88.5001,-126.403"/>
</g>
</g>
</svg>
