<?xml version="1.0" encoding="UTF-8" standalone="no"?>
<!DOCTYPE svg PUBLIC "-//W3C//DTD SVG 1.1//EN"
 "http://www.w3.org/Graphics/SVG/1.1/DTD/svg11.dtd">
<!-- Generated by graphviz version 2.36.0 (20140111.2315)
 -->
<!-- Title: gui.buttonfeatures.ClearWorkspaceButtonFeature Pages: 1 -->
<svg width="148pt" height="164pt"
 viewBox="0.00 0.00 148.00 164.00" xmlns="http://www.w3.org/2000/svg" xmlns:xlink="http://www.w3.org/1999/xlink">
<g id="graph0" class="graph" transform="scale(1 1) rotate(0) translate(4 160)">
<title>gui.buttonfeatures.ClearWorkspaceButtonFeature</title>
<polygon fill="white" stroke="none" points="-4,4 -4,-160 144,-160 144,4 -4,4"/>
<!-- Node1 -->
<g id="node1" class="node"><title>Node1</title>
<polygon fill="#bfbfbf" stroke="black" points="2,-1 2,-31 138,-31 138,-1 2,-1"/>
<text text-anchor="start" x="10" y="-19" font-family="Helvetica,sans-Serif" font-size="10.00">gui.buttonfeatures.Clear</text>
<text text-anchor="middle" x="70" y="-8" font-family="Helvetica,sans-Serif" font-size="10.00">WorkspaceButtonFeature</text>
</g>
<!-- Node2 -->
<g id="node2" class="node"><title>Node2</title>
<g id="a_node2"><a xlink:href="../../d0/d42/classgui_1_1buttonfeatures_1_1_button_feature.html" target="_top" xlink:title="gui.buttonfeatures.Button\lFeature">
<polygon fill="white" stroke="black" points="0,-69 0,-99 140,-99 140,-69 0,-69"/>
<text text-anchor="start" x="8" y="-87" font-family="Helvetica,sans-Serif" font-size="10.00">gui.buttonfeatures.Button</text>
<text text-anchor="middle" x="70" y="-76" font-family="Helvetica,sans-Serif" font-size="10.00">Feature</text>
</a>
</g>
</g>
<!-- Node2&#45;&gt;Node1 -->
<g id="edge1" class="edge"><title>Node2&#45;&gt;Node1</title>
<path fill="none" stroke="midnightblue" d="M70,-58.5322C70,-49.3606 70,-39.2449 70,-31.2931"/>
<polygon fill="midnightblue" stroke="midnightblue" points="66.5001,-58.6789 70,-68.679 73.5001,-58.679 66.5001,-58.6789"/>
</g>
<!-- Node3 -->
<g id="node3" class="node"><title>Node3</title>
<polygon fill="white" stroke="#bfbfbf" points="45.5,-136.5 45.5,-155.5 94.5,-155.5 94.5,-136.5 45.5,-136.5"/>
<text text-anchor="middle" x="70" y="-143.5" font-family="Helvetica,sans-Serif" font-size="10.00">Button</text>
</g>
<!-- Node3&#45;&gt;Node2 -->
<g id="edge2" class="edge"><title>Node3&#45;&gt;Node2</title>
<path fill="none" stroke="midnightblue" d="M70,-126.371C70,-117.585 70,-107.272 70,-99.1408"/>
<polygon fill="midnightblue" stroke="midnightblue" points="66.5001,-126.403 70,-136.403 73.5001,-126.403 66.5001,-126.403"/>
</g>
</g>
</svg>
