<?xml version="1.0" encoding="UTF-8" standalone="no"?>
<!DOCTYPE svg PUBLIC "-//W3C//DTD SVG 1.1//EN"
 "http://www.w3.org/Graphics/SVG/1.1/DTD/svg11.dtd">
<!-- Generated by graphviz version 2.36.0 (20140111.2315)
 -->
<!-- Title: commandParsing.turtleCommandParsing.turtleMovement.Home.getDestinationHeading Pages: 1 -->
<svg width="600pt" height="87pt"
 viewBox="0.00 0.00 600.00 87.00" xmlns="http://www.w3.org/2000/svg" xmlns:xlink="http://www.w3.org/1999/xlink">
<g id="graph0" class="graph" transform="scale(1 1) rotate(0) translate(4 83)">
<title>commandParsing.turtleCommandParsing.turtleMovement.Home.getDestinationHeading</title>
<polygon fill="white" stroke="none" points="-4,4 -4,-83 596,-83 596,4 -4,4"/>
<!-- Node1 -->
<g id="node1" class="node"><title>Node1</title>
<polygon fill="#bfbfbf" stroke="black" points="0,-18.5 0,-59.5 182,-59.5 182,-18.5 0,-18.5"/>
<text text-anchor="start" x="8" y="-47.5" font-family="Helvetica,sans-Serif" font-size="10.00">commandParsing.turtleCommand</text>
<text text-anchor="start" x="8" y="-36.5" font-family="Helvetica,sans-Serif" font-size="10.00">Parsing.turtleMovement.Home.get</text>
<text text-anchor="middle" x="91" y="-25.5" font-family="Helvetica,sans-Serif" font-size="10.00">DestinationHeading</text>
</g>
<!-- Node2 -->
<g id="node2" class="node"><title>Node2</title>
<g id="a_node2"><a xlink:href="../../d1/d01/classworkspace_state_1_1_turtle.html#ac6697327d46a4fde63526e973948d6f7" target="_top" xlink:title="workspaceState.Turtle.get\lHeading">
<polygon fill="white" stroke="black" points="242,-49 242,-79 382,-79 382,-49 242,-49"/>
<text text-anchor="start" x="250" y="-67" font-family="Helvetica,sans-Serif" font-size="10.00">workspaceState.Turtle.get</text>
<text text-anchor="middle" x="312" y="-56" font-family="Helvetica,sans-Serif" font-size="10.00">Heading</text>
</a>
</g>
</g>
<!-- Node1&#45;&gt;Node2 -->
<g id="edge1" class="edge"><title>Node1&#45;&gt;Node2</title>
<path fill="none" stroke="midnightblue" d="M182.024,-49.2767C198.379,-51.1437 215.333,-53.0791 231.363,-54.909"/>
<polygon fill="midnightblue" stroke="midnightblue" points="231.415,-58.4376 241.748,-56.0945 232.209,-51.4828 231.415,-58.4376"/>
</g>
<!-- Node3 -->
<g id="node3" class="node"><title>Node3</title>
<g id="a_node3"><a xlink:href="../../db/d1f/classworkspace_state_1_1_turtle_collection.html#adb957aceb9e490922ee0604c86f0bc79" target="_top" xlink:title="workspaceState.TurtleCollection.get\lLastActiveTurtle">
<polygon fill="white" stroke="black" points="218.5,-0 218.5,-30 405.5,-30 405.5,-0 218.5,-0"/>
<text text-anchor="start" x="226.5" y="-18" font-family="Helvetica,sans-Serif" font-size="10.00">workspaceState.TurtleCollection.get</text>
<text text-anchor="middle" x="312" y="-7" font-family="Helvetica,sans-Serif" font-size="10.00">LastActiveTurtle</text>
</a>
</g>
</g>
<!-- Node1&#45;&gt;Node3 -->
<g id="edge2" class="edge"><title>Node1&#45;&gt;Node3</title>
<path fill="none" stroke="midnightblue" d="M182.024,-29.1344C190.767,-28.1762 199.681,-27.1993 208.534,-26.2292"/>
<polygon fill="midnightblue" stroke="midnightblue" points="208.931,-29.7067 218.49,-25.1381 208.168,-22.7484 208.931,-29.7067"/>
</g>
<!-- Node4 -->
<g id="node4" class="node"><title>Node4</title>
<g id="a_node4"><a xlink:href="../../d1/d01/classworkspace_state_1_1_turtle.html#a2b5e77b78036091a65abb5f4959b5ef7" target="_top" xlink:title="workspaceState.Turtle.getID">
<polygon fill="white" stroke="black" points="442,-5.5 442,-24.5 592,-24.5 592,-5.5 442,-5.5"/>
<text text-anchor="middle" x="517" y="-12.5" font-family="Helvetica,sans-Serif" font-size="10.00">workspaceState.Turtle.getID</text>
</a>
</g>
</g>
<!-- Node3&#45;&gt;Node4 -->
<g id="edge3" class="edge"><title>Node3&#45;&gt;Node4</title>
<path fill="none" stroke="midnightblue" d="M405.589,-15C414.308,-15 423.115,-15 431.75,-15"/>
<polygon fill="midnightblue" stroke="midnightblue" points="431.792,-18.5001 441.792,-15 431.792,-11.5001 431.792,-18.5001"/>
</g>
</g>
</svg>
