<?xml version="1.0" encoding="UTF-8" standalone="no"?>
<!DOCTYPE svg PUBLIC "-//W3C//DTD SVG 1.1//EN"
 "http://www.w3.org/Graphics/SVG/1.1/DTD/svg11.dtd">
<!-- Generated by graphviz version 2.36.0 (20140111.2315)
 -->
<!-- Title: workspaceState.Palette.addToPalette Pages: 1 -->
<svg width="594pt" height="136pt"
 viewBox="0.00 0.00 594.00 136.00" xmlns="http://www.w3.org/2000/svg" xmlns:xlink="http://www.w3.org/1999/xlink">
<g id="graph0" class="graph" transform="scale(1 1) rotate(0) translate(4 132)">
<title>workspaceState.Palette.addToPalette</title>
<polygon fill="white" stroke="none" points="-4,4 -4,-132 590,-132 590,4 -4,4"/>
<!-- Node1 -->
<g id="node1" class="node"><title>Node1</title>
<polygon fill="#bfbfbf" stroke="black" points="0,-49 0,-79 150,-79 150,-49 0,-49"/>
<text text-anchor="start" x="8" y="-67" font-family="Helvetica,sans-Serif" font-size="10.00">workspaceState.Palette.add</text>
<text text-anchor="middle" x="75" y="-56" font-family="Helvetica,sans-Serif" font-size="10.00">ToPalette</text>
</g>
<!-- Node2 -->
<g id="node2" class="node"><title>Node2</title>
<g id="a_node2"><a xlink:href="../../d5/daa/classworkspace_state_1_1_workspace_state.html#af8607d4dc9508705cbfe0fe6b6ca9ccf" target="_top" xlink:title="workspaceState.Workspace\lState.addDefaultColorsToPalette">
<polygon fill="white" stroke="black" points="208.5,-98 208.5,-128 379.5,-128 379.5,-98 208.5,-98"/>
<text text-anchor="start" x="216.5" y="-116" font-family="Helvetica,sans-Serif" font-size="10.00">workspaceState.Workspace</text>
<text text-anchor="middle" x="294" y="-105" font-family="Helvetica,sans-Serif" font-size="10.00">State.addDefaultColorsToPalette</text>
</a>
</g>
</g>
<!-- Node1&#45;&gt;Node2 -->
<g id="edge1" class="edge"><title>Node1&#45;&gt;Node2</title>
<path fill="none" stroke="midnightblue" d="M152.429,-81.2581C176.608,-86.718 203.122,-92.705 226.544,-97.9938"/>
<polygon fill="midnightblue" stroke="midnightblue" points="153.107,-77.8233 142.582,-79.0346 151.565,-84.6513 153.107,-77.8233"/>
</g>
<!-- Node4 -->
<g id="node4" class="node"><title>Node4</title>
<g id="a_node4"><a xlink:href="../../d5/daa/classworkspace_state_1_1_workspace_state.html#a717cc5358b8caf7b3f9c9a6e93dab0d4" target="_top" xlink:title="workspaceState.Workspace\lState.addDefaultShapesToPalette">
<polygon fill="white" stroke="black" points="205.5,-49 205.5,-79 382.5,-79 382.5,-49 205.5,-49"/>
<text text-anchor="start" x="213.5" y="-67" font-family="Helvetica,sans-Serif" font-size="10.00">workspaceState.Workspace</text>
<text text-anchor="middle" x="294" y="-56" font-family="Helvetica,sans-Serif" font-size="10.00">State.addDefaultShapesToPalette</text>
</a>
</g>
</g>
<!-- Node1&#45;&gt;Node4 -->
<g id="edge3" class="edge"><title>Node1&#45;&gt;Node4</title>
<path fill="none" stroke="midnightblue" d="M160.217,-64C175.04,-64 190.499,-64 205.411,-64"/>
<polygon fill="midnightblue" stroke="midnightblue" points="160.072,-60.5001 150.072,-64 160.072,-67.5001 160.072,-60.5001"/>
</g>
<!-- Node5 -->
<g id="node5" class="node"><title>Node5</title>
<g id="a_node5"><a xlink:href="../../dd/dff/classcommand_parsing_1_1color_commandparsing_1_1_set_palette.html#aaa1cbd8f43c86a2d29b299be7fc543bd" target="_top" xlink:title="commandParsing.colorCommandparsing.\lSetPalette.operateOnComponents">
<polygon fill="white" stroke="black" points="186.5,-0 186.5,-30 401.5,-30 401.5,-0 186.5,-0"/>
<text text-anchor="start" x="194.5" y="-18" font-family="Helvetica,sans-Serif" font-size="10.00">commandParsing.colorCommandparsing.</text>
<text text-anchor="middle" x="294" y="-7" font-family="Helvetica,sans-Serif" font-size="10.00">SetPalette.operateOnComponents</text>
</a>
</g>
</g>
<!-- Node1&#45;&gt;Node5 -->
<g id="edge5" class="edge"><title>Node1&#45;&gt;Node5</title>
<path fill="none" stroke="midnightblue" d="M152.429,-46.7419C176.608,-41.282 203.122,-35.295 226.544,-30.0062"/>
<polygon fill="midnightblue" stroke="midnightblue" points="151.565,-43.3487 142.582,-48.9654 153.107,-50.1767 151.565,-43.3487"/>
</g>
<!-- Node3 -->
<g id="node3" class="node"><title>Node3</title>
<g id="a_node3"><a xlink:href="../../d5/daa/classworkspace_state_1_1_workspace_state.html#aa63996cb9b12bb0b34cfd3fcd714e0ac" target="_top" xlink:title="workspaceState.Workspace\lState.WorkspaceState">
<polygon fill="white" stroke="black" points="438.5,-73 438.5,-103 585.5,-103 585.5,-73 438.5,-73"/>
<text text-anchor="start" x="446.5" y="-91" font-family="Helvetica,sans-Serif" font-size="10.00">workspaceState.Workspace</text>
<text text-anchor="middle" x="512" y="-80" font-family="Helvetica,sans-Serif" font-size="10.00">State.WorkspaceState</text>
</a>
</g>
</g>
<!-- Node2&#45;&gt;Node3 -->
<g id="edge2" class="edge"><title>Node2&#45;&gt;Node3</title>
<path fill="none" stroke="midnightblue" d="M389.823,-102.025C406.108,-100.14 422.799,-98.2084 438.385,-96.4045"/>
<polygon fill="midnightblue" stroke="midnightblue" points="389.28,-98.5645 379.749,-103.191 390.085,-105.518 389.28,-98.5645"/>
</g>
<!-- Node4&#45;&gt;Node3 -->
<g id="edge4" class="edge"><title>Node4&#45;&gt;Node3</title>
<path fill="none" stroke="midnightblue" d="M392.571,-74.8413C407.913,-76.5458 423.537,-78.2819 438.191,-79.9101"/>
<polygon fill="midnightblue" stroke="midnightblue" points="392.869,-71.3529 382.544,-73.7271 392.096,-78.3101 392.869,-71.3529"/>
</g>
</g>
</svg>
