<?xml version="1.0" encoding="UTF-8" standalone="no"?>
<!DOCTYPE svg PUBLIC "-//W3C//DTD SVG 1.1//EN"
 "http://www.w3.org/Graphics/SVG/1.1/DTD/svg11.dtd">
<!-- Generated by graphviz version 2.36.0 (20140111.2315)
 -->
<!-- Title: workspaceState.Palette.getKeysByValue Pages: 1 -->
<svg width="334pt" height="48pt"
 viewBox="0.00 0.00 334.00 48.00" xmlns="http://www.w3.org/2000/svg" xmlns:xlink="http://www.w3.org/1999/xlink">
<g id="graph0" class="graph" transform="scale(1 1) rotate(0) translate(4 44)">
<title>workspaceState.Palette.getKeysByValue</title>
<polygon fill="white" stroke="none" points="-4,4 -4,-44 330,-44 330,4 -4,4"/>
<!-- Node1 -->
<g id="node1" class="node"><title>Node1</title>
<polygon fill="#bfbfbf" stroke="black" points="0,-5 0,-35 148,-35 148,-5 0,-5"/>
<text text-anchor="start" x="8" y="-23" font-family="Helvetica,sans-Serif" font-size="10.00">workspaceState.Palette.get</text>
<text text-anchor="middle" x="74" y="-12" font-family="Helvetica,sans-Serif" font-size="10.00">KeysByValue</text>
</g>
<!-- Node2 -->
<g id="node2" class="node"><title>Node2</title>
<g id="a_node2"><a xlink:href="../../d2/df5/classworkspace_state_1_1_palette.html#adc6106e9638954d1cf7ac16dbb4362cf" target="_top" xlink:title="workspaceState.Palette\l\&lt; workspaceState::Shape\l \&gt;::getIndexFromItem">
<polygon fill="white" stroke="black" points="184.5,0.5 184.5,-40.5 325.5,-40.5 325.5,0.5 184.5,0.5"/>
<text text-anchor="start" x="192.5" y="-28.5" font-family="Helvetica,sans-Serif" font-size="10.00">workspaceState.Palette</text>
<text text-anchor="start" x="192.5" y="-17.5" font-family="Helvetica,sans-Serif" font-size="10.00">&lt; workspaceState::Shape</text>
<text text-anchor="middle" x="255" y="-6.5" font-family="Helvetica,sans-Serif" font-size="10.00"> &gt;::getIndexFromItem</text>
</a>
</g>
</g>
<!-- Node1&#45;&gt;Node2 -->
<g id="edge1" class="edge"><title>Node1&#45;&gt;Node2</title>
<path fill="none" stroke="midnightblue" d="M158.255,-20C166.984,-20 175.793,-20 184.347,-20"/>
<polygon fill="midnightblue" stroke="midnightblue" points="158.064,-16.5001 148.064,-20 158.064,-23.5001 158.064,-16.5001"/>
</g>
</g>
</svg>
