<?xml version="1.0" encoding="UTF-8" standalone="no"?>
<!DOCTYPE svg PUBLIC "-//W3C//DTD SVG 1.1//EN"
 "http://www.w3.org/Graphics/SVG/1.1/DTD/svg11.dtd">
<!-- Generated by graphviz version 2.36.0 (20140111.2315)
 -->
<!-- Title: workspaceState.Palette.getFromPalette Pages: 1 -->
<svg width="408pt" height="337pt"
 viewBox="0.00 0.00 408.00 337.00" xmlns="http://www.w3.org/2000/svg" xmlns:xlink="http://www.w3.org/1999/xlink">
<g id="graph0" class="graph" transform="scale(1 1) rotate(0) translate(4 333)">
<title>workspaceState.Palette.getFromPalette</title>
<polygon fill="white" stroke="none" points="-4,4 -4,-333 404,-333 404,4 -4,4"/>
<!-- Node1 -->
<g id="node1" class="node"><title>Node1</title>
<polygon fill="#bfbfbf" stroke="black" points="0,-146 0,-176 148,-176 148,-146 0,-146"/>
<text text-anchor="start" x="8" y="-164" font-family="Helvetica,sans-Serif" font-size="10.00">workspaceState.Palette.get</text>
<text text-anchor="middle" x="74" y="-153" font-family="Helvetica,sans-Serif" font-size="10.00">FromPalette</text>
</g>
<!-- Node2 -->
<g id="node2" class="node"><title>Node2</title>
<g id="a_node2"><a xlink:href="../../db/d21/classtests_1_1command_tests_1_1turtle_query_tests_1_1_get_pen_color_tests.html#a5aeab527041ba3cc9ea7ecdadca5d551" target="_top" xlink:title="tests.commandTests.turtle\lQueryTests.GetPenColorTests.Get\lPenColorAfterSettingPenColorTest">
<polygon fill="white" stroke="black" points="202.5,-287.5 202.5,-328.5 381.5,-328.5 381.5,-287.5 202.5,-287.5"/>
<text text-anchor="start" x="210.5" y="-316.5" font-family="Helvetica,sans-Serif" font-size="10.00">tests.commandTests.turtle</text>
<text text-anchor="start" x="210.5" y="-305.5" font-family="Helvetica,sans-Serif" font-size="10.00">QueryTests.GetPenColorTests.Get</text>
<text text-anchor="middle" x="292" y="-294.5" font-family="Helvetica,sans-Serif" font-size="10.00">PenColorAfterSettingPenColorTest</text>
</a>
</g>
</g>
<!-- Node1&#45;&gt;Node2 -->
<g id="edge1" class="edge"><title>Node1&#45;&gt;Node2</title>
<path fill="none" stroke="midnightblue" d="M91.0525,-184.525C110.201,-210.829 144.612,-252.892 184,-277 190.433,-280.938 197.39,-284.395 204.561,-287.427"/>
<polygon fill="midnightblue" stroke="midnightblue" points="93.8135,-182.368 85.1587,-176.257 88.1135,-186.432 93.8135,-182.368"/>
</g>
<!-- Node3 -->
<g id="node3" class="node"><title>Node3</title>
<g id="a_node3"><a xlink:href="../../db/d21/classtests_1_1command_tests_1_1turtle_query_tests_1_1_get_pen_color_tests.html#a6f603fbcf3392994537c770883d1d96e" target="_top" xlink:title="tests.commandTests.turtle\lQueryTests.GetPenColorTests.Get\lPenColorTest">
<polygon fill="white" stroke="black" points="204,-227.5 204,-268.5 380,-268.5 380,-227.5 204,-227.5"/>
<text text-anchor="start" x="212" y="-256.5" font-family="Helvetica,sans-Serif" font-size="10.00">tests.commandTests.turtle</text>
<text text-anchor="start" x="212" y="-245.5" font-family="Helvetica,sans-Serif" font-size="10.00">QueryTests.GetPenColorTests.Get</text>
<text text-anchor="middle" x="292" y="-234.5" font-family="Helvetica,sans-Serif" font-size="10.00">PenColorTest</text>
</a>
</g>
</g>
<!-- Node1&#45;&gt;Node3 -->
<g id="edge2" class="edge"><title>Node1&#45;&gt;Node3</title>
<path fill="none" stroke="midnightblue" d="M109.645,-180.975C130.68,-192.549 158.339,-206.801 184,-217 193.436,-220.75 203.501,-224.266 213.542,-227.486"/>
<polygon fill="midnightblue" stroke="midnightblue" points="111.209,-177.841 100.769,-176.035 107.805,-183.957 111.209,-177.841"/>
</g>
<!-- Node4 -->
<g id="node4" class="node"><title>Node4</title>
<g id="a_node4"><a xlink:href="../../da/d45/classcommand_parsing_1_1turtle_command_parsing_1_1turtle_attribute_setters_1_1_set_pen_color.html#a605196faee611476d77f7d08efd07a75" target="_top" xlink:title="commandParsing.turtleCommand\lParsing.turtleAttributeSetters.\lSetPenColor.operateOnComponents">
<polygon fill="white" stroke="black" points="196.5,-167.5 196.5,-208.5 387.5,-208.5 387.5,-167.5 196.5,-167.5"/>
<text text-anchor="start" x="204.5" y="-196.5" font-family="Helvetica,sans-Serif" font-size="10.00">commandParsing.turtleCommand</text>
<text text-anchor="start" x="204.5" y="-185.5" font-family="Helvetica,sans-Serif" font-size="10.00">Parsing.turtleAttributeSetters.</text>
<text text-anchor="middle" x="292" y="-174.5" font-family="Helvetica,sans-Serif" font-size="10.00">SetPenColor.operateOnComponents</text>
</a>
</g>
</g>
<!-- Node1&#45;&gt;Node4 -->
<g id="edge3" class="edge"><title>Node1&#45;&gt;Node4</title>
<path fill="none" stroke="midnightblue" d="M158.385,-171.423C170.742,-172.968 183.552,-174.569 196.122,-176.14"/>
<polygon fill="midnightblue" stroke="midnightblue" points="158.485,-167.908 148.128,-170.141 157.616,-174.854 158.485,-167.908"/>
</g>
<!-- Node5 -->
<g id="node5" class="node"><title>Node5</title>
<g id="a_node5"><a xlink:href="../../d7/dac/classcommand_parsing_1_1color_commandparsing_1_1_set_background.html#acaba7fc291b384f18df5b26155f9142b" target="_top" xlink:title="commandParsing.colorCommandparsing.\lSetBackground.operateOnComponents">
<polygon fill="white" stroke="black" points="184.5,-119 184.5,-149 399.5,-149 399.5,-119 184.5,-119"/>
<text text-anchor="start" x="192.5" y="-137" font-family="Helvetica,sans-Serif" font-size="10.00">commandParsing.colorCommandparsing.</text>
<text text-anchor="middle" x="292" y="-126" font-family="Helvetica,sans-Serif" font-size="10.00">SetBackground.operateOnComponents</text>
</a>
</g>
</g>
<!-- Node1&#45;&gt;Node5 -->
<g id="edge4" class="edge"><title>Node1&#45;&gt;Node5</title>
<path fill="none" stroke="midnightblue" d="M158.067,-150.617C166.633,-149.546 175.42,-148.448 184.196,-147.35"/>
<polygon fill="midnightblue" stroke="midnightblue" points="157.616,-147.146 148.128,-151.859 158.485,-154.092 157.616,-147.146"/>
</g>
<!-- Node6 -->
<g id="node6" class="node"><title>Node6</title>
<g id="a_node6"><a xlink:href="../../d6/d35/classtests_1_1command_tests_1_1color_command_tests_1_1_set_palette_tests.html#adf2ba5d5a4bfd4139ddca3af022862e5" target="_top" xlink:title="tests.commandTests.color\lCommandTests.SetPaletteTests.\lSetPaletteAfterSetPaletteTest">
<polygon fill="white" stroke="black" points="207,-59.5 207,-100.5 377,-100.5 377,-59.5 207,-59.5"/>
<text text-anchor="start" x="215" y="-88.5" font-family="Helvetica,sans-Serif" font-size="10.00">tests.commandTests.color</text>
<text text-anchor="start" x="215" y="-77.5" font-family="Helvetica,sans-Serif" font-size="10.00">CommandTests.SetPaletteTests.</text>
<text text-anchor="middle" x="292" y="-66.5" font-family="Helvetica,sans-Serif" font-size="10.00">SetPaletteAfterSetPaletteTest</text>
</a>
</g>
</g>
<!-- Node1&#45;&gt;Node6 -->
<g id="edge5" class="edge"><title>Node1&#45;&gt;Node6</title>
<path fill="none" stroke="midnightblue" d="M113.114,-141.284C133.745,-131.095 159.881,-118.954 184,-110 192.953,-106.676 202.444,-103.516 211.93,-100.581"/>
<polygon fill="midnightblue" stroke="midnightblue" points="111.432,-138.212 104.048,-145.81 114.559,-144.474 111.432,-138.212"/>
</g>
<!-- Node7 -->
<g id="node7" class="node"><title>Node7</title>
<g id="a_node7"><a xlink:href="../../d6/d35/classtests_1_1command_tests_1_1color_command_tests_1_1_set_palette_tests.html#ae7f1b16038ca080d5ef32a818cf198c7" target="_top" xlink:title="tests.commandTests.color\lCommandTests.SetPaletteTests.\lSetPaletteTest">
<polygon fill="white" stroke="black" points="207,0.5 207,-40.5 377,-40.5 377,0.5 207,0.5"/>
<text text-anchor="start" x="215" y="-28.5" font-family="Helvetica,sans-Serif" font-size="10.00">tests.commandTests.color</text>
<text text-anchor="start" x="215" y="-17.5" font-family="Helvetica,sans-Serif" font-size="10.00">CommandTests.SetPaletteTests.</text>
<text text-anchor="middle" x="292" y="-6.5" font-family="Helvetica,sans-Serif" font-size="10.00">SetPaletteTest</text>
</a>
</g>
</g>
<!-- Node1&#45;&gt;Node7 -->
<g id="edge6" class="edge"><title>Node1&#45;&gt;Node7</title>
<path fill="none" stroke="midnightblue" d="M91.813,-137.715C111.244,-112.47 145.525,-72.7465 184,-50 191.141,-45.7781 198.902,-42.1281 206.873,-38.977"/>
<polygon fill="midnightblue" stroke="midnightblue" points="88.8005,-135.897 85.5768,-145.99 94.3907,-140.11 88.8005,-135.897"/>
</g>
</g>
</svg>
