<?xml version="1.0" encoding="UTF-8" standalone="no"?>
<!DOCTYPE svg PUBLIC "-//W3C//DTD SVG 1.1//EN"
 "http://www.w3.org/Graphics/SVG/1.1/DTD/svg11.dtd">
<!-- Generated by graphviz version 2.36.0 (20140111.2315)
 -->
<!-- Title: gui.factories.ObjectFactory.generateObject Pages: 1 -->
<!--zoomable 38 -->
<svg id="main" version="1.1" xmlns="http://www.w3.org/2000/svg" xmlns:xlink="http://www.w3.org/1999/xlink" xml:space="preserve" onload="init(evt)">
<style type="text/css"><![CDATA[
.edge:hover path { stroke: red; }
.edge:hover polygon { stroke: red; fill: red; }
]]></style>
<script type="text/javascript"><![CDATA[
var edges = document.getElementsByTagName('g');
if (edges && edges.length) {
  for (var i=0;i<edges.length;i++) {
    if (edges[i].id.substr(0,4)=='edge') {
      edges[i].setAttribute('class','edge');
    }
  }
}
]]></script>
        <defs>
                <circle id="rim" cx="0" cy="0" r="7"/>
                <circle id="rim2" cx="0" cy="0" r="3.5"/>
                <g id="zoomPlus">
                        <use xlink:href="#rim" fill="#404040">
                                <set attributeName="fill" to="#808080" begin="zoomplus.mouseover" end="zoomplus.mouseout"/>
                        </use>
                        <path d="M-4,0h8M0,-4v8" fill="none" stroke="white" stroke-width="1.5" pointer-events="none"/>
                </g>
                <g id="zoomMin">
                        <use xlink:href="#rim" fill="#404040">
                                <set attributeName="fill" to="#808080" begin="zoomminus.mouseover" end="zoomminus.mouseout"/>
                        </use>
                        <path d="M-4,0h8" fill="none" stroke="white" stroke-width="1.5" pointer-events="none"/>
                </g>
                <g id="dirArrow">
                        <path fill="none" stroke="white" stroke-width="1.5" d="M0,-3.0v7 M-2.5,-0.5L0,-3.0L2.5,-0.5"/>
                </g>
               <g id="resetDef">
                       <use xlink:href="#rim2" fill="#404040">
                               <set attributeName="fill" to="#808080" begin="reset.mouseover" end="reset.mouseout"/>
                       </use>
               </g>
        </defs>

<script type="text/javascript">
var viewWidth = 1590;
var viewHeight = 38;
var sectionId = 'dynsection-1';
</script>
<script xlink:href="../../svgpan.js"/>
<svg id="graph" class="graph">
<g id="viewport">
<title>gui.factories.ObjectFactory.generateObject</title>
<polygon fill="white" stroke="none" points="-4,4 -4,-34 1586,-34 1586,4 -4,4"/>
<!-- Node1 -->
<g id="node1" class="node"><title>Node1</title>
<polygon fill="#bfbfbf" stroke="black" points="0,-0 0,-30 188,-30 188,-0 0,-0"/>
<text text-anchor="start" x="8" y="-18" font-family="Helvetica,sans-Serif" font-size="10.00">gui.factories.ObjectFactory.generate</text>
<text text-anchor="middle" x="94" y="-7" font-family="Helvetica,sans-Serif" font-size="10.00">Object</text>
</g>
<!-- Node2 -->
<g id="node2" class="node"><title>Node2</title>
<g id="a_node2"><a xlink:href="../../db/db2/classgui_1_1mainclasses_1_1_drawable_object_parser.html#ac93f66a3adf4230d9c365f8628083a3c" target="_top" xlink:title="gui.mainclasses.Drawable\lObjectParser.parseNodeToDraw">
<polygon fill="white" stroke="black" points="224,-0 224,-30 390,-30 390,-0 224,-0"/>
<text text-anchor="start" x="232" y="-18" font-family="Helvetica,sans-Serif" font-size="10.00">gui.mainclasses.Drawable</text>
<text text-anchor="middle" x="307" y="-7" font-family="Helvetica,sans-Serif" font-size="10.00">ObjectParser.parseNodeToDraw</text>
</a>
</g>
</g>
<!-- Node1&#45;&gt;Node2 -->
<g id="edge1" class="edge"><title>Node1&#45;&gt;Node2</title>
<path fill="none" stroke="midnightblue" d="M198.259,-15C206.879,-15 215.52,-15 223.95,-15"/>
<polygon fill="midnightblue" stroke="midnightblue" points="198.162,-11.5001 188.162,-15 198.162,-18.5001 198.162,-11.5001"/>
</g>
<!-- Node3 -->
<g id="node3" class="node"><title>Node3</title>
<g id="a_node3"><a xlink:href="../../db/db2/classgui_1_1mainclasses_1_1_drawable_object_parser.html#af82adbaff13327029a151db1a0a0acdb" target="_top" xlink:title="gui.mainclasses.Drawable\lObjectParser.parseDrawableObject">
<polygon fill="white" stroke="black" points="426,-0 426,-30 608,-30 608,-0 426,-0"/>
<text text-anchor="start" x="434" y="-18" font-family="Helvetica,sans-Serif" font-size="10.00">gui.mainclasses.Drawable</text>
<text text-anchor="middle" x="517" y="-7" font-family="Helvetica,sans-Serif" font-size="10.00">ObjectParser.parseDrawableObject</text>
</a>
</g>
</g>
<!-- Node2&#45;&gt;Node3 -->
<g id="edge2" class="edge"><title>Node2&#45;&gt;Node3</title>
<path fill="none" stroke="midnightblue" d="M400.431,-15C408.867,-15 417.406,-15 425.822,-15"/>
<polygon fill="midnightblue" stroke="midnightblue" points="400.207,-11.5001 390.207,-15 400.207,-18.5001 400.207,-11.5001"/>
</g>
<!-- Node4 -->
<g id="node4" class="node"><title>Node4</title>
<g id="a_node4"><a xlink:href="../../d8/df2/classgui_1_1mainclasses_1_1workspace_1_1_workspace.html#a3aa7429441a5bca58fe2c0b94f25645d" target="_top" xlink:title="gui.mainclasses.workspace.\lWorkspace.parseDrawableObject">
<polygon fill="white" stroke="black" points="644.5,-0 644.5,-30 817.5,-30 817.5,-0 644.5,-0"/>
<text text-anchor="start" x="652.5" y="-18" font-family="Helvetica,sans-Serif" font-size="10.00">gui.mainclasses.workspace.</text>
<text text-anchor="middle" x="731" y="-7" font-family="Helvetica,sans-Serif" font-size="10.00">Workspace.parseDrawableObject</text>
</a>
</g>
</g>
<!-- Node3&#45;&gt;Node4 -->
<g id="edge3" class="edge"><title>Node3&#45;&gt;Node4</title>
<path fill="none" stroke="midnightblue" d="M618.345,-15C627.006,-15 635.718,-15 644.248,-15"/>
<polygon fill="midnightblue" stroke="midnightblue" points="618.215,-11.5001 608.214,-15 618.214,-18.5001 618.215,-11.5001"/>
</g>
<!-- Node5 -->
<g id="node5" class="node"><title>Node5</title>
<g id="a_node5"><a xlink:href="../../d5/d3d/classgui_1_1mainclasses_1_1_g_u_i_controller.html#a32ce7160aef646c8557283e20135d34c" target="_top" xlink:title="gui.mainclasses.GUIController.draw\lDrawableObjects">
<polygon fill="white" stroke="black" points="854.5,-0 854.5,-30 1039.5,-30 1039.5,-0 854.5,-0"/>
<text text-anchor="start" x="862.5" y="-18" font-family="Helvetica,sans-Serif" font-size="10.00">gui.mainclasses.GUIController.draw</text>
<text text-anchor="middle" x="947" y="-7" font-family="Helvetica,sans-Serif" font-size="10.00">DrawableObjects</text>
</a>
</g>
</g>
<!-- Node4&#45;&gt;Node5 -->
<g id="edge4" class="edge"><title>Node4&#45;&gt;Node5</title>
<path fill="none" stroke="midnightblue" d="M827.506,-15C836.419,-15 845.441,-15 854.318,-15"/>
<polygon fill="midnightblue" stroke="midnightblue" points="827.501,-11.5001 817.501,-15 827.501,-18.5001 827.501,-11.5001"/>
</g>
<!-- Node6 -->
<g id="node6" class="node"><title>Node6</title>
<g id="a_node6"><a xlink:href="../../da/de1/class_control_1_1_slogo_control.html#ac59ba1076929dce517c40f9d492f56b2" target="_top" xlink:title="Control.SlogoControl.draw\lDrawableObjects">
<polygon fill="white" stroke="black" points="1076.5,-0 1076.5,-30 1217.5,-30 1217.5,-0 1076.5,-0"/>
<text text-anchor="start" x="1084.5" y="-18" font-family="Helvetica,sans-Serif" font-size="10.00">Control.SlogoControl.draw</text>
<text text-anchor="middle" x="1147" y="-7" font-family="Helvetica,sans-Serif" font-size="10.00">DrawableObjects</text>
</a>
</g>
</g>
<!-- Node5&#45;&gt;Node6 -->
<g id="edge5" class="edge"><title>Node5&#45;&gt;Node6</title>
<path fill="none" stroke="midnightblue" d="M1049.9,-15C1058.88,-15 1067.83,-15 1076.46,-15"/>
<polygon fill="midnightblue" stroke="midnightblue" points="1049.75,-11.5001 1039.75,-15 1049.75,-18.5001 1049.75,-11.5001"/>
</g>
<!-- Node7 -->
<g id="node7" class="node"><title>Node7</title>
<g id="a_node7"><a xlink:href="../../da/de1/class_control_1_1_slogo_control.html#a3c55ba4e1dadbf4fbcd647017109fa9a" target="_top" xlink:title="Control.SlogoControl.parse\lCommandString">
<polygon fill="white" stroke="black" points="1254,-0 1254,-30 1400,-30 1400,-0 1254,-0"/>
<text text-anchor="start" x="1262" y="-18" font-family="Helvetica,sans-Serif" font-size="10.00">Control.SlogoControl.parse</text>
<text text-anchor="middle" x="1327" y="-7" font-family="Helvetica,sans-Serif" font-size="10.00">CommandString</text>
</a>
</g>
</g>
<!-- Node6&#45;&gt;Node7 -->
<g id="edge6" class="edge"><title>Node6&#45;&gt;Node7</title>
<path fill="none" stroke="midnightblue" d="M1227.72,-15C1236.41,-15 1245.23,-15 1253.82,-15"/>
<polygon fill="midnightblue" stroke="midnightblue" points="1227.58,-11.5001 1217.58,-15 1227.58,-18.5001 1227.58,-11.5001"/>
</g>
<!-- Node8 -->
<g id="node8" class="node"><title>Node8</title>
<g id="a_node8"><a xlink:href="../../da/de1/class_control_1_1_slogo_control.html#a3c3830d88ed47944348f1f82c56d0d58" target="_top" xlink:title="Control.SlogoControl.Slogo\lControl">
<polygon fill="white" stroke="black" points="1436,-0 1436,-30 1582,-30 1582,-0 1436,-0"/>
<text text-anchor="start" x="1444" y="-18" font-family="Helvetica,sans-Serif" font-size="10.00">Control.SlogoControl.Slogo</text>
<text text-anchor="middle" x="1509" y="-7" font-family="Helvetica,sans-Serif" font-size="10.00">Control</text>
</a>
</g>
</g>
<!-- Node7&#45;&gt;Node8 -->
<g id="edge7" class="edge"><title>Node7&#45;&gt;Node8</title>
<path fill="none" stroke="midnightblue" d="M1410.44,-15C1418.91,-15 1427.46,-15 1435.81,-15"/>
<polygon fill="midnightblue" stroke="midnightblue" points="1410.18,-11.5001 1400.18,-15 1410.18,-18.5001 1410.18,-11.5001"/>
</g>
</g>
</svg>
        <g id="navigator" transform="translate(0 0)" fill="#404254">
                <rect fill="#f2f5e9" fill-opacity="0.5" stroke="#606060" stroke-width=".5" x="0" y="0" width="60" height="60"/>
                <use id="zoomplus" xlink:href="#zoomPlus" x="17" y="9" onmousedown="handleZoom(evt,'in')"/>
                <use id="zoomminus" xlink:href="#zoomMin" x="42" y="9" onmousedown="handleZoom(evt,'out')"/>
                <use id="reset" xlink:href="#resetDef" x="30" y="36" onmousedown="handleReset()"/>
                <g id="arrowUp" xlink:href="#dirArrow" transform="translate(30 24)" onmousedown="handlePan(0,-1)">
                  <use xlink:href="#rim" fill="#404040">
                        <set attributeName="fill" to="#808080" begin="arrowUp.mouseover" end="arrowUp.mouseout"/>
                  </use>
                  <path fill="none" stroke="white" stroke-width="1.5" d="M0,-3.0v7 M-2.5,-0.5L0,-3.0L2.5,-0.5"/>
                </g>
                <g id="arrowRight" xlink:href="#dirArrow" transform="rotate(90) translate(36 -43)" onmousedown="handlePan(1,0)">
                  <use xlink:href="#rim" fill="#404040">
                        <set attributeName="fill" to="#808080" begin="arrowRight.mouseover" end="arrowRight.mouseout"/>
                  </use>
                  <path fill="none" stroke="white" stroke-width="1.5" d="M0,-3.0v7 M-2.5,-0.5L0,-3.0L2.5,-0.5"/>
                </g>
                <g id="arrowDown" xlink:href="#dirArrow" transform="rotate(180) translate(-30 -48)" onmousedown="handlePan(0,1)">
                  <use xlink:href="#rim" fill="#404040">
                        <set attributeName="fill" to="#808080" begin="arrowDown.mouseover" end="arrowDown.mouseout"/>
                  </use>
                  <path fill="none" stroke="white" stroke-width="1.5" d="M0,-3.0v7 M-2.5,-0.5L0,-3.0L2.5,-0.5"/>
                </g>
                <g id="arrowLeft" xlink:href="#dirArrow" transform="rotate(270) translate(-36 17)" onmousedown="handlePan(-1,0)">
                  <use xlink:href="#rim" fill="#404040">
                        <set attributeName="fill" to="#808080" begin="arrowLeft.mouseover" end="arrowLeft.mouseout"/>
                  </use>
                  <path fill="none" stroke="white" stroke-width="1.5" d="M0,-3.0v7 M-2.5,-0.5L0,-3.0L2.5,-0.5"/>
                </g>
        </g>
        <svg viewBox="0 0 15 15" width="100%" height="30px" preserveAspectRatio="xMaxYMin meet">
         <g id="arrow_out" transform="scale(0.3 0.3)">
          <a xlink:href="classgui_1_1factories_1_1_object_factory_aae1042d4fe6455bf3dbeb6fea18df24a_icgraph_org.svg" target="_base">
           <rect id="button" ry="5" rx="5" y="6" x="6" height="38" width="38"
                fill="#f2f5e9" fill-opacity="0.5" stroke="#606060" stroke-width="1.0"/>
           <path id="arrow"
             d="M 11.500037,31.436501 C 11.940474,20.09759 22.043105,11.32322 32.158766,21.979434 L 37.068811,17.246167 C 37.068811,17.246167 37.088388,32 37.088388,32 L 22.160133,31.978069 C 22.160133,31.978069 26.997745,27.140456 26.997745,27.140456 C 18.528582,18.264221 13.291696,25.230495 11.500037,31.436501 z"
             style="fill:#404040;"/>
          </a>
         </g>
        </svg>
</svg>
