<?xml version="1.0" encoding="UTF-8" standalone="no"?>
<!DOCTYPE svg PUBLIC "-//W3C//DTD SVG 1.1//EN"
 "http://www.w3.org/Graphics/SVG/1.1/DTD/svg11.dtd">
<!-- Generated by graphviz version 2.36.0 (20140111.2315)
 -->
<!-- Title: commandParsing.structuralCommandParsing.DoTimes.initializeLoopVariableParameters Pages: 1 -->
<!--zoomable 493 -->
<svg id="main" version="1.1" xmlns="http://www.w3.org/2000/svg" xmlns:xlink="http://www.w3.org/1999/xlink" xml:space="preserve" onload="init(evt)">
<style type="text/css"><![CDATA[
.edge:hover path { stroke: red; }
.edge:hover polygon { stroke: red; fill: red; }
]]></style>
<script type="text/javascript"><![CDATA[
var edges = document.getElementsByTagName('g');
if (edges && edges.length) {
  for (var i=0;i<edges.length;i++) {
    if (edges[i].id.substr(0,4)=='edge') {
      edges[i].setAttribute('class','edge');
    }
  }
}
]]></script>
        <defs>
                <circle id="rim" cx="0" cy="0" r="7"/>
                <circle id="rim2" cx="0" cy="0" r="3.5"/>
                <g id="zoomPlus">
                        <use xlink:href="#rim" fill="#404040">
                                <set attributeName="fill" to="#808080" begin="zoomplus.mouseover" end="zoomplus.mouseout"/>
                        </use>
                        <path d="M-4,0h8M0,-4v8" fill="none" stroke="white" stroke-width="1.5" pointer-events="none"/>
                </g>
                <g id="zoomMin">
                        <use xlink:href="#rim" fill="#404040">
                                <set attributeName="fill" to="#808080" begin="zoomminus.mouseover" end="zoomminus.mouseout"/>
                        </use>
                        <path d="M-4,0h8" fill="none" stroke="white" stroke-width="1.5" pointer-events="none"/>
                </g>
                <g id="dirArrow">
                        <path fill="none" stroke="white" stroke-width="1.5" d="M0,-3.0v7 M-2.5,-0.5L0,-3.0L2.5,-0.5"/>
                </g>
               <g id="resetDef">
                       <use xlink:href="#rim2" fill="#404040">
                               <set attributeName="fill" to="#808080" begin="reset.mouseover" end="reset.mouseout"/>
                       </use>
               </g>
        </defs>

<script type="text/javascript">
var viewWidth = 1188;
var viewHeight = 493;
var sectionId = 'dynsection-2';
</script>
<script xlink:href="../../svgpan.js"/>
<svg id="graph" class="graph">
<g id="viewport">
<title>commandParsing.structuralCommandParsing.DoTimes.initializeLoopVariableParameters</title>
<polygon fill="white" stroke="none" points="-4,4 -4,-489 1184,-489 1184,4 -4,4"/>
<!-- Node1 -->
<g id="node1" class="node"><title>Node1</title>
<polygon fill="#bfbfbf" stroke="black" points="0,-108.5 0,-149.5 188,-149.5 188,-108.5 0,-108.5"/>
<text text-anchor="start" x="8" y="-137.5" font-family="Helvetica,sans-Serif" font-size="10.00">commandParsing.structural</text>
<text text-anchor="start" x="8" y="-126.5" font-family="Helvetica,sans-Serif" font-size="10.00">CommandParsing.DoTimes.initialize</text>
<text text-anchor="middle" x="94" y="-115.5" font-family="Helvetica,sans-Serif" font-size="10.00">LoopVariableParameters</text>
</g>
<!-- Node2 -->
<g id="node2" class="node"><title>Node2</title>
<g id="a_node2"><a xlink:href="../../d0/dfe/classcommand_parsing_1_1structural_command_parsing_1_1_recurring_command.html#ab7f44ef8841353bf8a5e112541e16a75" target="_top" xlink:title="commandParsing.structural\lCommandParsing.RecurringCommand.basic\lLoopVariableInitialization">
<polygon fill="white" stroke="black" points="227.5,-181.5 227.5,-222.5 454.5,-222.5 454.5,-181.5 227.5,-181.5"/>
<text text-anchor="start" x="235.5" y="-210.5" font-family="Helvetica,sans-Serif" font-size="10.00">commandParsing.structural</text>
<text text-anchor="start" x="235.5" y="-199.5" font-family="Helvetica,sans-Serif" font-size="10.00">CommandParsing.RecurringCommand.basic</text>
<text text-anchor="middle" x="341" y="-188.5" font-family="Helvetica,sans-Serif" font-size="10.00">LoopVariableInitialization</text>
</a>
</g>
</g>
<!-- Node1&#45;&gt;Node2 -->
<g id="edge1" class="edge"><title>Node1&#45;&gt;Node2</title>
<path fill="none" stroke="midnightblue" d="M163.898,-149.529C194.297,-158.586 230.181,-169.278 261.599,-178.64"/>
<polygon fill="midnightblue" stroke="midnightblue" points="260.612,-181.998 271.195,-181.499 262.611,-175.289 260.612,-181.998"/>
</g>
<!-- Node14 -->
<g id="node14" class="node"><title>Node14</title>
<g id="a_node14"><a xlink:href="../../de/dcc/classcommand_parsing_1_1structural_command_parsing_1_1_structural_command.html#a2994b759fcea15db18c7784af0fcae8c" target="_top" xlink:title="commandParsing.structural\lCommandParsing.StructuralCommand.check\lForClosingBrace">
<polygon fill="white" stroke="black" points="224.5,-108.5 224.5,-149.5 457.5,-149.5 457.5,-108.5 224.5,-108.5"/>
<text text-anchor="start" x="232.5" y="-137.5" font-family="Helvetica,sans-Serif" font-size="10.00">commandParsing.structural</text>
<text text-anchor="start" x="232.5" y="-126.5" font-family="Helvetica,sans-Serif" font-size="10.00">CommandParsing.StructuralCommand.check</text>
<text text-anchor="middle" x="341" y="-115.5" font-family="Helvetica,sans-Serif" font-size="10.00">ForClosingBrace</text>
</a>
</g>
</g>
<!-- Node1&#45;&gt;Node14 -->
<g id="edge13" class="edge"><title>Node1&#45;&gt;Node14</title>
<path fill="none" stroke="midnightblue" d="M188.323,-129C196.779,-129 205.432,-129 214.107,-129"/>
<polygon fill="midnightblue" stroke="midnightblue" points="214.292,-132.5 224.292,-129 214.292,-125.5 214.292,-132.5"/>
</g>
<!-- Node16 -->
<g id="node16" class="node"><title>Node16</title>
<g id="a_node16"><a xlink:href="../../de/dcc/classcommand_parsing_1_1structural_command_parsing_1_1_structural_command.html#a3f1054710afe4826d31938f0a74af315" target="_top" xlink:title="commandParsing.structural\lCommandParsing.StructuralCommand.check\lForOpeningBrace">
<polygon fill="white" stroke="black" points="224.5,-48.5 224.5,-89.5 457.5,-89.5 457.5,-48.5 224.5,-48.5"/>
<text text-anchor="start" x="232.5" y="-77.5" font-family="Helvetica,sans-Serif" font-size="10.00">commandParsing.structural</text>
<text text-anchor="start" x="232.5" y="-66.5" font-family="Helvetica,sans-Serif" font-size="10.00">CommandParsing.StructuralCommand.check</text>
<text text-anchor="middle" x="341" y="-55.5" font-family="Helvetica,sans-Serif" font-size="10.00">ForOpeningBrace</text>
</a>
</g>
</g>
<!-- Node1&#45;&gt;Node16 -->
<g id="edge15" class="edge"><title>Node1&#45;&gt;Node16</title>
<path fill="none" stroke="midnightblue" d="M178.972,-108.435C200.692,-103.116 224.211,-97.3566 246.389,-91.925"/>
<polygon fill="midnightblue" stroke="midnightblue" points="247.257,-95.3161 256.137,-89.5378 245.592,-88.517 247.257,-95.3161"/>
</g>
<!-- Node18 -->
<g id="node18" class="node"><title>Node18</title>
<g id="a_node18"><a xlink:href="../../de/dcc/classcommand_parsing_1_1structural_command_parsing_1_1_structural_command.html#ad1fbabc1ceb2acecc6523f53819ad301" target="_top" xlink:title="commandParsing.structural\lCommandParsing.StructuralCommand.get\lVariable">
<polygon fill="white" stroke="black" points="230.5,-378.5 230.5,-419.5 451.5,-419.5 451.5,-378.5 230.5,-378.5"/>
<text text-anchor="start" x="238.5" y="-407.5" font-family="Helvetica,sans-Serif" font-size="10.00">commandParsing.structural</text>
<text text-anchor="start" x="238.5" y="-396.5" font-family="Helvetica,sans-Serif" font-size="10.00">CommandParsing.StructuralCommand.get</text>
<text text-anchor="middle" x="341" y="-385.5" font-family="Helvetica,sans-Serif" font-size="10.00">Variable</text>
</a>
</g>
</g>
<!-- Node1&#45;&gt;Node18 -->
<g id="edge17" class="edge"><title>Node1&#45;&gt;Node18</title>
<path fill="none" stroke="midnightblue" d="M113.818,-149.738C157.285,-197.64 264.725,-316.044 314.246,-370.618"/>
<polygon fill="midnightblue" stroke="midnightblue" points="311.806,-373.138 321.118,-378.191 316.99,-368.434 311.806,-373.138"/>
</g>
<!-- Node22 -->
<g id="node22" class="node"><title>Node22</title>
<g id="a_node22"><a xlink:href="../../d3/de0/classtranslator_1_1_translator.html#aeb9508fb69ae1c82eec49d2b1d4ee77b" target="_top" xlink:title="translator.Translator.matches\lVariablePattern">
<polygon fill="white" stroke="black" points="263,-0 263,-30 419,-30 419,-0 263,-0"/>
<text text-anchor="start" x="271" y="-18" font-family="Helvetica,sans-Serif" font-size="10.00">translator.Translator.matches</text>
<text text-anchor="middle" x="341" y="-7" font-family="Helvetica,sans-Serif" font-size="10.00">VariablePattern</text>
</a>
</g>
</g>
<!-- Node1&#45;&gt;Node22 -->
<g id="edge22" class="edge"><title>Node1&#45;&gt;Node22</title>
<path fill="none" stroke="midnightblue" d="M118.427,-108.2C143.007,-87.5019 183.619,-56.3875 224,-39 233.137,-35.0656 242.964,-31.7611 252.892,-28.989"/>
<polygon fill="midnightblue" stroke="midnightblue" points="254.043,-32.3058 262.833,-26.3907 252.273,-25.5333 254.043,-32.3058"/>
</g>
<!-- Node3 -->
<g id="node3" class="node"><title>Node3</title>
<g id="a_node3"><a xlink:href="../../d7/d17/classcommand_parsing_1_1_command_parser.html#a663a439263fd1c59baab79f31742f1d7" target="_top" xlink:title="commandParsing.CommandParser.accumulate\lComponents">
<polygon fill="white" stroke="black" points="494,-187 494,-217 736,-217 736,-187 494,-187"/>
<text text-anchor="start" x="502" y="-205" font-family="Helvetica,sans-Serif" font-size="10.00">commandParsing.CommandParser.accumulate</text>
<text text-anchor="middle" x="615" y="-194" font-family="Helvetica,sans-Serif" font-size="10.00">Components</text>
</a>
</g>
</g>
<!-- Node2&#45;&gt;Node3 -->
<g id="edge2" class="edge"><title>Node2&#45;&gt;Node3</title>
<path fill="none" stroke="midnightblue" d="M454.596,-202C464.142,-202 473.846,-202 483.513,-202"/>
<polygon fill="midnightblue" stroke="midnightblue" points="483.565,-205.5 493.565,-202 483.565,-198.5 483.565,-205.5"/>
</g>
<!-- Node8 -->
<g id="node8" class="node"><title>Node8</title>
<g id="a_node8"><a xlink:href="../../dd/d73/classworkspace_state_1_1_user_defined_variable_collection.html#a093eadfb9434e9c2ae29c48d5d9e7bd7" target="_top" xlink:title="workspaceState.UserDefined\lVariableCollection.storeVariable">
<polygon fill="white" stroke="black" points="531.5,-138 531.5,-168 698.5,-168 698.5,-138 531.5,-138"/>
<text text-anchor="start" x="539.5" y="-156" font-family="Helvetica,sans-Serif" font-size="10.00">workspaceState.UserDefined</text>
<text text-anchor="middle" x="615" y="-145" font-family="Helvetica,sans-Serif" font-size="10.00">VariableCollection.storeVariable</text>
</a>
</g>
</g>
<!-- Node2&#45;&gt;Node8 -->
<g id="edge7" class="edge"><title>Node2&#45;&gt;Node8</title>
<path fill="none" stroke="midnightblue" d="M454.596,-181.716C476.802,-177.716 499.866,-173.561 521.323,-169.695"/>
<polygon fill="midnightblue" stroke="midnightblue" points="522.166,-173.1 531.387,-167.882 520.925,-166.211 522.166,-173.1"/>
</g>
<!-- Node10 -->
<g id="node10" class="node"><title>Node10</title>
<g id="a_node10"><a xlink:href="../../d5/dc4/interfacecommand_parsing_1_1drawable_obect_generation_interfaces_1_1_user_defined_variable_generator.html#a0a6cea3a0e31a571a77c07065fd68e5b" target="_top" xlink:title="commandParsing.drawableObect\lGenerationInterfaces.UserDefined\lVariableGenerator.generateDrawableObject\lRepresentingVariable">
<polygon fill="white" stroke="black" points="503,-236 503,-288 727,-288 727,-236 503,-236"/>
<text text-anchor="start" x="511" y="-276" font-family="Helvetica,sans-Serif" font-size="10.00">commandParsing.drawableObect</text>
<text text-anchor="start" x="511" y="-265" font-family="Helvetica,sans-Serif" font-size="10.00">GenerationInterfaces.UserDefined</text>
<text text-anchor="start" x="511" y="-254" font-family="Helvetica,sans-Serif" font-size="10.00">VariableGenerator.generateDrawableObject</text>
<text text-anchor="middle" x="615" y="-243" font-family="Helvetica,sans-Serif" font-size="10.00">RepresentingVariable</text>
</a>
</g>
</g>
<!-- Node2&#45;&gt;Node10 -->
<g id="edge9" class="edge"><title>Node2&#45;&gt;Node10</title>
<path fill="none" stroke="midnightblue" d="M435.226,-222.565C453.692,-226.638 473.328,-230.969 492.571,-235.214"/>
<polygon fill="midnightblue" stroke="midnightblue" points="492.07,-238.688 502.589,-237.424 493.578,-231.852 492.07,-238.688"/>
</g>
<!-- Node13 -->
<g id="node13" class="node"><title>Node13</title>
<g id="a_node13"><a xlink:href="../../dd/d73/classworkspace_state_1_1_user_defined_variable_collection.html#a0b0c4d5c4c1130ab60e39a818fd013d3" target="_top" xlink:title="workspaceState.UserDefined\lVariableCollection.fetchWorkspace\lVariable">
<polygon fill="white" stroke="black" points="525.5,-307.5 525.5,-348.5 704.5,-348.5 704.5,-307.5 525.5,-307.5"/>
<text text-anchor="start" x="533.5" y="-336.5" font-family="Helvetica,sans-Serif" font-size="10.00">workspaceState.UserDefined</text>
<text text-anchor="start" x="533.5" y="-325.5" font-family="Helvetica,sans-Serif" font-size="10.00">VariableCollection.fetchWorkspace</text>
<text text-anchor="middle" x="615" y="-314.5" font-family="Helvetica,sans-Serif" font-size="10.00">Variable</text>
</a>
</g>
</g>
<!-- Node2&#45;&gt;Node13 -->
<g id="edge12" class="edge"><title>Node2&#45;&gt;Node13</title>
<path fill="none" stroke="midnightblue" d="M369.153,-222.577C398.515,-243.941 447.393,-276.981 494,-297 501.02,-300.015 508.401,-302.791 515.909,-305.334"/>
<polygon fill="midnightblue" stroke="midnightblue" points="514.875,-308.679 525.467,-308.433 517.034,-302.02 514.875,-308.679"/>
</g>
<!-- Node4 -->
<g id="node4" class="node"><title>Node4</title>
<g id="a_node4"><a xlink:href="../../d7/d17/classcommand_parsing_1_1_command_parser.html#a9bf6e09b0ad06b6f217ad0ad040f8e93" target="_top" xlink:title="commandParsing.CommandParser.create\lParser">
<polygon fill="white" stroke="black" points="772,-231 772,-261 988,-261 988,-231 772,-231"/>
<text text-anchor="start" x="780" y="-249" font-family="Helvetica,sans-Serif" font-size="10.00">commandParsing.CommandParser.create</text>
<text text-anchor="middle" x="880" y="-238" font-family="Helvetica,sans-Serif" font-size="10.00">Parser</text>
</a>
</g>
</g>
<!-- Node3&#45;&gt;Node4 -->
<g id="edge3" class="edge"><title>Node3&#45;&gt;Node4</title>
<path fill="none" stroke="midnightblue" d="M705.774,-217.019C729.447,-220.98 755.132,-225.277 779.293,-229.319"/>
<polygon fill="midnightblue" stroke="midnightblue" points="778.744,-232.776 789.184,-230.974 779.899,-225.872 778.744,-232.776"/>
</g>
<!-- Node5 -->
<g id="node5" class="node"><title>Node5</title>
<g id="a_node5"><a xlink:href="../../d7/d17/classcommand_parsing_1_1_command_parser.html#ac5bad35b74ad1aac039e96f2e3a99e82" target="_top" xlink:title="commandParsing.CommandParser.is\lStringParsableAsCommand">
<polygon fill="white" stroke="black" points="783.5,-143 783.5,-173 976.5,-173 976.5,-143 783.5,-143"/>
<text text-anchor="start" x="791.5" y="-161" font-family="Helvetica,sans-Serif" font-size="10.00">commandParsing.CommandParser.is</text>
<text text-anchor="middle" x="880" y="-150" font-family="Helvetica,sans-Serif" font-size="10.00">StringParsableAsCommand</text>
</a>
</g>
</g>
<!-- Node3&#45;&gt;Node5 -->
<g id="edge4" class="edge"><title>Node3&#45;&gt;Node5</title>
<path fill="none" stroke="midnightblue" d="M705.774,-186.981C729.447,-183.02 755.132,-178.723 779.293,-174.681"/>
<polygon fill="midnightblue" stroke="midnightblue" points="779.899,-178.128 789.184,-173.026 778.744,-171.224 779.899,-178.128"/>
</g>
<!-- Node7 -->
<g id="node7" class="node"><title>Node7</title>
<g id="a_node7"><a xlink:href="../../d7/d17/classcommand_parsing_1_1_command_parser.html#ae5a2f506ca01f7fa355a64e4831fbae3" target="_top" xlink:title="commandParsing.CommandParser.parse">
<polygon fill="white" stroke="black" points="774,-192.5 774,-211.5 986,-211.5 986,-192.5 774,-192.5"/>
<text text-anchor="middle" x="880" y="-199.5" font-family="Helvetica,sans-Serif" font-size="10.00">commandParsing.CommandParser.parse</text>
</a>
</g>
</g>
<!-- Node3&#45;&gt;Node7 -->
<g id="edge6" class="edge"><title>Node3&#45;&gt;Node7</title>
<path fill="none" stroke="midnightblue" d="M736.34,-202C745.381,-202 754.493,-202 763.503,-202"/>
<polygon fill="midnightblue" stroke="midnightblue" points="763.623,-205.5 773.623,-202 763.623,-198.5 763.623,-205.5"/>
</g>
<!-- Node6 -->
<g id="node6" class="node"><title>Node6</title>
<g id="a_node6"><a xlink:href="../../d3/de0/classtranslator_1_1_translator.html#ad62364674b153e6fb5c67b328700d6e2" target="_top" xlink:title="translator.Translator.matches\lCommandPattern">
<polygon fill="white" stroke="black" points="1024,-143 1024,-173 1180,-173 1180,-143 1024,-143"/>
<text text-anchor="start" x="1032" y="-161" font-family="Helvetica,sans-Serif" font-size="10.00">translator.Translator.matches</text>
<text text-anchor="middle" x="1102" y="-150" font-family="Helvetica,sans-Serif" font-size="10.00">CommandPattern</text>
</a>
</g>
</g>
<!-- Node5&#45;&gt;Node6 -->
<g id="edge5" class="edge"><title>Node5&#45;&gt;Node6</title>
<path fill="none" stroke="midnightblue" d="M976.535,-158C988.856,-158 1001.42,-158 1013.6,-158"/>
<polygon fill="midnightblue" stroke="midnightblue" points="1013.73,-161.5 1023.73,-158 1013.73,-154.5 1013.73,-161.5"/>
</g>
<!-- Node9 -->
<g id="node9" class="node"><title>Node9</title>
<g id="a_node9"><a xlink:href="../../d9/da1/classgui_1_1variableslist_1_1_workspace_variable.html#adb4b0d1dfaf6d63d871b7499006a7a01" target="_top" xlink:title="gui.variableslist.Workspace\lVariable.addValue">
<polygon fill="white" stroke="black" points="808,-94 808,-124 952,-124 952,-94 808,-94"/>
<text text-anchor="start" x="816" y="-112" font-family="Helvetica,sans-Serif" font-size="10.00">gui.variableslist.Workspace</text>
<text text-anchor="middle" x="880" y="-101" font-family="Helvetica,sans-Serif" font-size="10.00">Variable.addValue</text>
</a>
</g>
</g>
<!-- Node8&#45;&gt;Node9 -->
<g id="edge8" class="edge"><title>Node8&#45;&gt;Node9</title>
<path fill="none" stroke="midnightblue" d="M698.854,-139.139C730.374,-133.865 766.235,-127.866 797.618,-122.615"/>
<polygon fill="midnightblue" stroke="midnightblue" points="798.353,-126.041 807.639,-120.939 797.198,-119.137 798.353,-126.041"/>
</g>
<!-- Node11 -->
<g id="node11" class="node"><title>Node11</title>
<g id="a_node11"><a xlink:href="../../d9/da1/classgui_1_1variableslist_1_1_workspace_variable.html#ae407fad5ec45549a9e1ef6343a909fe7" target="_top" xlink:title="gui.variableslist.Workspace\lVariable.getMyName">
<polygon fill="white" stroke="black" points="808,-280 808,-310 952,-310 952,-280 808,-280"/>
<text text-anchor="start" x="816" y="-298" font-family="Helvetica,sans-Serif" font-size="10.00">gui.variableslist.Workspace</text>
<text text-anchor="middle" x="880" y="-287" font-family="Helvetica,sans-Serif" font-size="10.00">Variable.getMyName</text>
</a>
</g>
</g>
<!-- Node10&#45;&gt;Node11 -->
<g id="edge10" class="edge"><title>Node10&#45;&gt;Node11</title>
<path fill="none" stroke="midnightblue" d="M727.154,-275.947C750.861,-278.922 775.472,-282.01 797.804,-284.812"/>
<polygon fill="midnightblue" stroke="midnightblue" points="797.535,-288.305 807.893,-286.078 798.406,-281.36 797.535,-288.305"/>
</g>
<!-- Node12 -->
<g id="node12" class="node"><title>Node12</title>
<g id="a_node12"><a xlink:href="../../d9/da1/classgui_1_1variableslist_1_1_workspace_variable.html#a0fc16dab06a0aaedc76f6612f305cd6f" target="_top" xlink:title="gui.variableslist.Workspace\lVariable.getMyValue">
<polygon fill="white" stroke="black" points="808,-329 808,-359 952,-359 952,-329 808,-329"/>
<text text-anchor="start" x="816" y="-347" font-family="Helvetica,sans-Serif" font-size="10.00">gui.variableslist.Workspace</text>
<text text-anchor="middle" x="880" y="-336" font-family="Helvetica,sans-Serif" font-size="10.00">Variable.getMyValue</text>
</a>
</g>
</g>
<!-- Node10&#45;&gt;Node12 -->
<g id="edge11" class="edge"><title>Node10&#45;&gt;Node12</title>
<path fill="none" stroke="midnightblue" d="M710.444,-288.008C719.183,-291.109 727.821,-294.447 736,-298 752.99,-305.38 754.79,-312.15 772,-319 780.33,-322.316 789.209,-325.257 798.153,-327.849"/>
<polygon fill="midnightblue" stroke="midnightblue" points="797.29,-331.241 807.861,-330.525 799.151,-324.493 797.29,-331.241"/>
</g>
<!-- Node15 -->
<g id="node15" class="node"><title>Node15</title>
<g id="a_node15"><a xlink:href="../../d3/de0/classtranslator_1_1_translator.html#abd79378932d164889d2d90c7783f1493" target="_top" xlink:title="translator.Translator.matches\lListEndPattern">
<polygon fill="white" stroke="black" points="537,-89 537,-119 693,-119 693,-89 537,-89"/>
<text text-anchor="start" x="545" y="-107" font-family="Helvetica,sans-Serif" font-size="10.00">translator.Translator.matches</text>
<text text-anchor="middle" x="615" y="-96" font-family="Helvetica,sans-Serif" font-size="10.00">ListEndPattern</text>
</a>
</g>
</g>
<!-- Node14&#45;&gt;Node15 -->
<g id="edge14" class="edge"><title>Node14&#45;&gt;Node15</title>
<path fill="none" stroke="midnightblue" d="M457.747,-118.361C480.944,-116.229 504.945,-114.023 526.969,-111.999"/>
<polygon fill="midnightblue" stroke="midnightblue" points="527.301,-115.484 536.939,-111.083 526.66,-108.513 527.301,-115.484"/>
</g>
<!-- Node17 -->
<g id="node17" class="node"><title>Node17</title>
<g id="a_node17"><a xlink:href="../../d3/de0/classtranslator_1_1_translator.html#a87328fef942490ca02d2ebabaec35c47" target="_top" xlink:title="translator.Translator.matches\lListStartPattern">
<polygon fill="white" stroke="black" points="537,-40 537,-70 693,-70 693,-40 537,-40"/>
<text text-anchor="start" x="545" y="-58" font-family="Helvetica,sans-Serif" font-size="10.00">translator.Translator.matches</text>
<text text-anchor="middle" x="615" y="-47" font-family="Helvetica,sans-Serif" font-size="10.00">ListStartPattern</text>
</a>
</g>
</g>
<!-- Node16&#45;&gt;Node17 -->
<g id="edge16" class="edge"><title>Node16&#45;&gt;Node17</title>
<path fill="none" stroke="midnightblue" d="M457.747,-63.0424C480.839,-61.8539 504.729,-60.6243 526.671,-59.4949"/>
<polygon fill="midnightblue" stroke="midnightblue" points="527.132,-62.9759 536.939,-58.9664 526.772,-55.9851 527.132,-62.9759"/>
</g>
<!-- Node18&#45;&gt;Node4 -->
<g id="edge18" class="edge"><title>Node18&#45;&gt;Node4</title>
<path fill="none" stroke="midnightblue" d="M451.563,-393.013C560.171,-386.176 713.537,-373.734 736,-357 769.229,-332.245 740.36,-297.755 772,-271 774.007,-269.302 776.109,-267.715 778.288,-266.231"/>
<polygon fill="midnightblue" stroke="midnightblue" points="780.253,-269.135 787.048,-261.006 776.667,-263.123 780.253,-269.135"/>
</g>
<!-- Node19 -->
<g id="node19" class="node"><title>Node19</title>
<g id="a_node19"><a xlink:href="../../d8/df5/classcommand_parsing_1_1variable_command_parsing_1_1_variable.html#a27d54a36396edb245209c4da57476d2a" target="_top" xlink:title="commandParsing.variableCommand\lParsing.Variable.parse">
<polygon fill="white" stroke="black" points="519.5,-455 519.5,-485 710.5,-485 710.5,-455 519.5,-455"/>
<text text-anchor="start" x="527.5" y="-473" font-family="Helvetica,sans-Serif" font-size="10.00">commandParsing.variableCommand</text>
<text text-anchor="middle" x="615" y="-462" font-family="Helvetica,sans-Serif" font-size="10.00">Parsing.Variable.parse</text>
</a>
</g>
</g>
<!-- Node18&#45;&gt;Node19 -->
<g id="edge19" class="edge"><title>Node18&#45;&gt;Node19</title>
<path fill="none" stroke="midnightblue" d="M405.25,-419.509C432.416,-427.961 464.612,-437.508 494,-445 504.499,-447.677 515.568,-450.278 526.566,-452.727"/>
<polygon fill="midnightblue" stroke="midnightblue" points="526.11,-456.21 536.627,-454.932 527.608,-449.372 526.11,-456.21"/>
</g>
<!-- Node21 -->
<g id="node21" class="node"><title>Node21</title>
<g id="a_node21"><a xlink:href="../../d8/df5/classcommand_parsing_1_1variable_command_parsing_1_1_variable.html#ace69a3f2eb01d0f9ad830fe133d2e10b" target="_top" xlink:title="commandParsing.variableCommand\lParsing.Variable.getVariableName">
<polygon fill="white" stroke="black" points="519.5,-406 519.5,-436 710.5,-436 710.5,-406 519.5,-406"/>
<text text-anchor="start" x="527.5" y="-424" font-family="Helvetica,sans-Serif" font-size="10.00">commandParsing.variableCommand</text>
<text text-anchor="middle" x="615" y="-413" font-family="Helvetica,sans-Serif" font-size="10.00">Parsing.Variable.getVariableName</text>
</a>
</g>
</g>
<!-- Node18&#45;&gt;Node21 -->
<g id="edge21" class="edge"><title>Node18&#45;&gt;Node21</title>
<path fill="none" stroke="midnightblue" d="M451.849,-407.885C470.846,-409.421 490.55,-411.015 509.403,-412.54"/>
<polygon fill="midnightblue" stroke="midnightblue" points="509.226,-416.037 519.476,-413.355 509.791,-409.06 509.226,-416.037"/>
</g>
<!-- Node20 -->
<g id="node20" class="node"><title>Node20</title>
<g id="a_node20"><a xlink:href="../../dd/d73/classworkspace_state_1_1_user_defined_variable_collection.html#a5def0190a604962200573bd46f2e262c" target="_top" xlink:title="workspaceState.UserDefined\lVariableCollection.fetchVariable">
<polygon fill="white" stroke="black" points="796.5,-455 796.5,-485 963.5,-485 963.5,-455 796.5,-455"/>
<text text-anchor="start" x="804.5" y="-473" font-family="Helvetica,sans-Serif" font-size="10.00">workspaceState.UserDefined</text>
<text text-anchor="middle" x="880" y="-462" font-family="Helvetica,sans-Serif" font-size="10.00">VariableCollection.fetchVariable</text>
</a>
</g>
</g>
<!-- Node19&#45;&gt;Node20 -->
<g id="edge20" class="edge"><title>Node19&#45;&gt;Node20</title>
<path fill="none" stroke="midnightblue" d="M710.577,-470C735.17,-470 761.636,-470 786.139,-470"/>
<polygon fill="midnightblue" stroke="midnightblue" points="786.145,-473.5 796.145,-470 786.145,-466.5 786.145,-473.5"/>
</g>
</g>
</svg>
        <g id="navigator" transform="translate(0 0)" fill="#404254">
                <rect fill="#f2f5e9" fill-opacity="0.5" stroke="#606060" stroke-width=".5" x="0" y="0" width="60" height="60"/>
                <use id="zoomplus" xlink:href="#zoomPlus" x="17" y="9" onmousedown="handleZoom(evt,'in')"/>
                <use id="zoomminus" xlink:href="#zoomMin" x="42" y="9" onmousedown="handleZoom(evt,'out')"/>
                <use id="reset" xlink:href="#resetDef" x="30" y="36" onmousedown="handleReset()"/>
                <g id="arrowUp" xlink:href="#dirArrow" transform="translate(30 24)" onmousedown="handlePan(0,-1)">
                  <use xlink:href="#rim" fill="#404040">
                        <set attributeName="fill" to="#808080" begin="arrowUp.mouseover" end="arrowUp.mouseout"/>
                  </use>
                  <path fill="none" stroke="white" stroke-width="1.5" d="M0,-3.0v7 M-2.5,-0.5L0,-3.0L2.5,-0.5"/>
                </g>
                <g id="arrowRight" xlink:href="#dirArrow" transform="rotate(90) translate(36 -43)" onmousedown="handlePan(1,0)">
                  <use xlink:href="#rim" fill="#404040">
                        <set attributeName="fill" to="#808080" begin="arrowRight.mouseover" end="arrowRight.mouseout"/>
                  </use>
                  <path fill="none" stroke="white" stroke-width="1.5" d="M0,-3.0v7 M-2.5,-0.5L0,-3.0L2.5,-0.5"/>
                </g>
                <g id="arrowDown" xlink:href="#dirArrow" transform="rotate(180) translate(-30 -48)" onmousedown="handlePan(0,1)">
                  <use xlink:href="#rim" fill="#404040">
                        <set attributeName="fill" to="#808080" begin="arrowDown.mouseover" end="arrowDown.mouseout"/>
                  </use>
                  <path fill="none" stroke="white" stroke-width="1.5" d="M0,-3.0v7 M-2.5,-0.5L0,-3.0L2.5,-0.5"/>
                </g>
                <g id="arrowLeft" xlink:href="#dirArrow" transform="rotate(270) translate(-36 17)" onmousedown="handlePan(-1,0)">
                  <use xlink:href="#rim" fill="#404040">
                        <set attributeName="fill" to="#808080" begin="arrowLeft.mouseover" end="arrowLeft.mouseout"/>
                  </use>
                  <path fill="none" stroke="white" stroke-width="1.5" d="M0,-3.0v7 M-2.5,-0.5L0,-3.0L2.5,-0.5"/>
                </g>
        </g>
        <svg viewBox="0 0 15 15" width="100%" height="30px" preserveAspectRatio="xMaxYMin meet">
         <g id="arrow_out" transform="scale(0.3 0.3)">
          <a xlink:href="classcommand_parsing_1_1structural_command_parsing_1_1_do_times_afb2baa6c526f8693dacb3da8d19648f7_cgraph_org.svg" target="_base">
           <rect id="button" ry="5" rx="5" y="6" x="6" height="38" width="38"
                fill="#f2f5e9" fill-opacity="0.5" stroke="#606060" stroke-width="1.0"/>
           <path id="arrow"
             d="M 11.500037,31.436501 C 11.940474,20.09759 22.043105,11.32322 32.158766,21.979434 L 37.068811,17.246167 C 37.068811,17.246167 37.088388,32 37.088388,32 L 22.160133,31.978069 C 22.160133,31.978069 26.997745,27.140456 26.997745,27.140456 C 18.528582,18.264221 13.291696,25.230495 11.500037,31.436501 z"
             style="fill:#404040;"/>
          </a>
         </g>
        </svg>
</svg>
