<?xml version="1.0" encoding="UTF-8" standalone="no"?>
<!DOCTYPE svg PUBLIC "-//W3C//DTD SVG 1.1//EN"
 "http://www.w3.org/Graphics/SVG/1.1/DTD/svg11.dtd">
<!-- Generated by graphviz version 2.36.0 (20140111.2315)
 -->
<!-- Title: commandParsing.drawableObectGenerationInterfaces.UserDefinedVariableGenerator.generateDrawableObjectRepresentingVariable Pages: 1 -->
<svg width="786pt" height="324pt"
 viewBox="0.00 0.00 786.00 324.00" xmlns="http://www.w3.org/2000/svg" xmlns:xlink="http://www.w3.org/1999/xlink">
<g id="graph0" class="graph" transform="scale(1 1) rotate(0) translate(4 320)">
<title>commandParsing.drawableObectGenerationInterfaces.UserDefinedVariableGenerator.generateDrawableObjectRepresentingVariable</title>
<polygon fill="white" stroke="none" points="-4,4 -4,-320 782,-320 782,4 -4,4"/>
<!-- Node1 -->
<g id="node1" class="node"><title>Node1</title>
<polygon fill="#bfbfbf" stroke="black" points="0,-92 0,-144 224,-144 224,-92 0,-92"/>
<text text-anchor="start" x="8" y="-132" font-family="Helvetica,sans-Serif" font-size="10.00">commandParsing.drawableObect</text>
<text text-anchor="start" x="8" y="-121" font-family="Helvetica,sans-Serif" font-size="10.00">GenerationInterfaces.UserDefined</text>
<text text-anchor="start" x="8" y="-110" font-family="Helvetica,sans-Serif" font-size="10.00">VariableGenerator.generateDrawableObject</text>
<text text-anchor="middle" x="112" y="-99" font-family="Helvetica,sans-Serif" font-size="10.00">RepresentingVariable</text>
</g>
<!-- Node2 -->
<g id="node2" class="node"><title>Node2</title>
<g id="a_node2"><a xlink:href="../../d0/dfe/classcommand_parsing_1_1structural_command_parsing_1_1_recurring_command.html#ab7f44ef8841353bf8a5e112541e16a75" target="_top" xlink:title="commandParsing.structural\lCommandParsing.RecurringCommand.basic\lLoopVariableInitialization">
<polygon fill="white" stroke="black" points="272.5,-217.5 272.5,-258.5 499.5,-258.5 499.5,-217.5 272.5,-217.5"/>
<text text-anchor="start" x="280.5" y="-246.5" font-family="Helvetica,sans-Serif" font-size="10.00">commandParsing.structural</text>
<text text-anchor="start" x="280.5" y="-235.5" font-family="Helvetica,sans-Serif" font-size="10.00">CommandParsing.RecurringCommand.basic</text>
<text text-anchor="middle" x="386" y="-224.5" font-family="Helvetica,sans-Serif" font-size="10.00">LoopVariableInitialization</text>
</a>
</g>
</g>
<!-- Node1&#45;&gt;Node2 -->
<g id="edge1" class="edge"><title>Node1&#45;&gt;Node2</title>
<path fill="none" stroke="midnightblue" d="M157.549,-149.841C185.767,-168.751 223.672,-191.907 260,-207 269.292,-210.86 279.179,-214.321 289.165,-217.404"/>
<polygon fill="midnightblue" stroke="midnightblue" points="159.356,-146.837 149.115,-144.122 155.427,-152.631 159.356,-146.837"/>
</g>
<!-- Node5 -->
<g id="node5" class="node"><title>Node5</title>
<g id="a_node5"><a xlink:href="../../d0/dfe/classcommand_parsing_1_1structural_command_parsing_1_1_recurring_command.html#af97967b7330c654969ecd32fc31b1f8e" target="_top" xlink:title="commandParsing.structural\lCommandParsing.RecurringCommand.increment\lLoopVariable">
<polygon fill="white" stroke="black" points="260.5,-157.5 260.5,-198.5 511.5,-198.5 511.5,-157.5 260.5,-157.5"/>
<text text-anchor="start" x="268.5" y="-186.5" font-family="Helvetica,sans-Serif" font-size="10.00">commandParsing.structural</text>
<text text-anchor="start" x="268.5" y="-175.5" font-family="Helvetica,sans-Serif" font-size="10.00">CommandParsing.RecurringCommand.increment</text>
<text text-anchor="middle" x="386" y="-164.5" font-family="Helvetica,sans-Serif" font-size="10.00">LoopVariable</text>
</a>
</g>
</g>
<!-- Node1&#45;&gt;Node5 -->
<g id="edge4" class="edge"><title>Node1&#45;&gt;Node5</title>
<path fill="none" stroke="midnightblue" d="M233.822,-144.652C253.235,-148.934 273.067,-153.309 291.707,-157.421"/>
<polygon fill="midnightblue" stroke="midnightblue" points="234.544,-141.227 224.025,-142.491 233.036,-148.063 234.544,-141.227"/>
</g>
<!-- Node7 -->
<g id="node7" class="node"><title>Node7</title>
<g id="a_node7"><a xlink:href="../../d3/d78/classcommand_parsing_1_1structural_command_parsing_1_1_for.html#a6b84827c7c254153b5a8171a10a4ba8c" target="_top" xlink:title="commandParsing.structural\lCommandParsing.For.initializeLoop\lVariableParameters">
<polygon fill="white" stroke="black" points="294.5,-97.5 294.5,-138.5 477.5,-138.5 477.5,-97.5 294.5,-97.5"/>
<text text-anchor="start" x="302.5" y="-126.5" font-family="Helvetica,sans-Serif" font-size="10.00">commandParsing.structural</text>
<text text-anchor="start" x="302.5" y="-115.5" font-family="Helvetica,sans-Serif" font-size="10.00">CommandParsing.For.initializeLoop</text>
<text text-anchor="middle" x="386" y="-104.5" font-family="Helvetica,sans-Serif" font-size="10.00">VariableParameters</text>
</a>
</g>
</g>
<!-- Node1&#45;&gt;Node7 -->
<g id="edge6" class="edge"><title>Node1&#45;&gt;Node7</title>
<path fill="none" stroke="midnightblue" d="M234.207,-118C254.388,-118 275.009,-118 294.263,-118"/>
<polygon fill="midnightblue" stroke="midnightblue" points="234.025,-114.5 224.025,-118 234.025,-121.5 234.025,-114.5"/>
</g>
<!-- Node8 -->
<g id="node8" class="node"><title>Node8</title>
<g id="a_node8"><a xlink:href="../../d9/dd9/classcommand_parsing_1_1variable_command_parsing_1_1_make_variable.html#aff148a4ca342ca23dca6794736562010" target="_top" xlink:title="commandParsing.variableCommand\lParsing.MakeVariable.parse">
<polygon fill="white" stroke="black" points="290.5,-49 290.5,-79 481.5,-79 481.5,-49 290.5,-49"/>
<text text-anchor="start" x="298.5" y="-67" font-family="Helvetica,sans-Serif" font-size="10.00">commandParsing.variableCommand</text>
<text text-anchor="middle" x="386" y="-56" font-family="Helvetica,sans-Serif" font-size="10.00">Parsing.MakeVariable.parse</text>
</a>
</g>
</g>
<!-- Node1&#45;&gt;Node8 -->
<g id="edge7" class="edge"><title>Node1&#45;&gt;Node8</title>
<path fill="none" stroke="midnightblue" d="M234.061,-93.1774C242.837,-91.4137 251.553,-89.6727 260,-88 274.849,-85.0595 290.701,-81.9742 305.956,-79.0323"/>
<polygon fill="midnightblue" stroke="midnightblue" points="233.251,-89.7703 224.139,-95.176 234.633,-96.6324 233.251,-89.7703"/>
</g>
<!-- Node9 -->
<g id="node9" class="node"><title>Node9</title>
<g id="a_node9"><a xlink:href="../../d3/d58/classcommand_parsing_1_1user_command_parsing_1_1_make_user_instruction.html#ae874a4712e6685abea7e05c70b4bb7b7" target="_top" xlink:title="commandParsing.userCommand\lParsing.MakeUserInstruction.parse">
<polygon fill="white" stroke="black" points="295,-0 295,-30 477,-30 477,-0 295,-0"/>
<text text-anchor="start" x="303" y="-18" font-family="Helvetica,sans-Serif" font-size="10.00">commandParsing.userCommand</text>
<text text-anchor="middle" x="386" y="-7" font-family="Helvetica,sans-Serif" font-size="10.00">Parsing.MakeUserInstruction.parse</text>
</a>
</g>
</g>
<!-- Node1&#45;&gt;Node9 -->
<g id="edge8" class="edge"><title>Node1&#45;&gt;Node9</title>
<path fill="none" stroke="midnightblue" d="M162.292,-86.6272C190.042,-70.2372 225.881,-51.1232 260,-39 271.036,-35.0787 282.86,-31.7524 294.673,-28.9427"/>
<polygon fill="midnightblue" stroke="midnightblue" points="160.364,-83.7025 153.58,-91.8405 163.958,-89.7093 160.364,-83.7025"/>
</g>
<!-- Node3 -->
<g id="node3" class="node"><title>Node3</title>
<g id="a_node3"><a xlink:href="../../d7/d10/classcommand_parsing_1_1structural_command_parsing_1_1_do_times.html#afb2baa6c526f8693dacb3da8d19648f7" target="_top" xlink:title="commandParsing.structural\lCommandParsing.DoTimes.initialize\lLoopVariableParameters">
<polygon fill="white" stroke="black" points="569,-274.5 569,-315.5 757,-315.5 757,-274.5 569,-274.5"/>
<text text-anchor="start" x="577" y="-303.5" font-family="Helvetica,sans-Serif" font-size="10.00">commandParsing.structural</text>
<text text-anchor="start" x="577" y="-292.5" font-family="Helvetica,sans-Serif" font-size="10.00">CommandParsing.DoTimes.initialize</text>
<text text-anchor="middle" x="663" y="-281.5" font-family="Helvetica,sans-Serif" font-size="10.00">LoopVariableParameters</text>
</a>
</g>
</g>
<!-- Node2&#45;&gt;Node3 -->
<g id="edge2" class="edge"><title>Node2&#45;&gt;Node3</title>
<path fill="none" stroke="midnightblue" d="M496.147,-260.623C520.203,-265.609 545.47,-270.846 568.826,-275.687"/>
<polygon fill="midnightblue" stroke="midnightblue" points="496.784,-257.181 486.281,-258.578 495.363,-264.035 496.784,-257.181"/>
</g>
<!-- Node4 -->
<g id="node4" class="node"><title>Node4</title>
<g id="a_node4"><a xlink:href="../../d8/d8f/classcommand_parsing_1_1structural_command_parsing_1_1_repeat.html#abb20eafb2f42a9286c20ec3af2b41925" target="_top" xlink:title="commandParsing.structural\lCommandParsing.Repeat.initialize\lLoopVariableParameters">
<polygon fill="white" stroke="black" points="573.5,-214.5 573.5,-255.5 752.5,-255.5 752.5,-214.5 573.5,-214.5"/>
<text text-anchor="start" x="581.5" y="-243.5" font-family="Helvetica,sans-Serif" font-size="10.00">commandParsing.structural</text>
<text text-anchor="start" x="581.5" y="-232.5" font-family="Helvetica,sans-Serif" font-size="10.00">CommandParsing.Repeat.initialize</text>
<text text-anchor="middle" x="663" y="-221.5" font-family="Helvetica,sans-Serif" font-size="10.00">LoopVariableParameters</text>
</a>
</g>
</g>
<!-- Node2&#45;&gt;Node4 -->
<g id="edge3" class="edge"><title>Node2&#45;&gt;Node4</title>
<path fill="none" stroke="midnightblue" d="M509.737,-236.661C531.07,-236.428 552.882,-236.19 573.088,-235.97"/>
<polygon fill="midnightblue" stroke="midnightblue" points="509.608,-233.162 499.646,-236.771 509.684,-240.162 509.608,-233.162"/>
</g>
<!-- Node6 -->
<g id="node6" class="node"><title>Node6</title>
<g id="a_node6"><a xlink:href="../../d0/dfe/classcommand_parsing_1_1structural_command_parsing_1_1_recurring_command.html#a60a1b93f2283ed1f1d5957146b10619b" target="_top" xlink:title="commandParsing.structural\lCommandParsing.RecurringCommand.parse">
<polygon fill="white" stroke="black" points="548.5,-163 548.5,-193 777.5,-193 777.5,-163 548.5,-163"/>
<text text-anchor="start" x="556.5" y="-181" font-family="Helvetica,sans-Serif" font-size="10.00">commandParsing.structural</text>
<text text-anchor="middle" x="663" y="-170" font-family="Helvetica,sans-Serif" font-size="10.00">CommandParsing.RecurringCommand.parse</text>
</a>
</g>
</g>
<!-- Node5&#45;&gt;Node6 -->
<g id="edge5" class="edge"><title>Node5&#45;&gt;Node6</title>
<path fill="none" stroke="midnightblue" d="M521.674,-178C530.587,-178 539.516,-178 548.311,-178"/>
<polygon fill="midnightblue" stroke="midnightblue" points="521.626,-174.5 511.626,-178 521.626,-181.5 521.626,-174.5"/>
</g>
</g>
</svg>
