<?xml version="1.0" encoding="UTF-8" standalone="no"?>
<!DOCTYPE svg PUBLIC "-//W3C//DTD SVG 1.1//EN"
 "http://www.w3.org/Graphics/SVG/1.1/DTD/svg11.dtd">
<!-- Generated by graphviz version 2.36.0 (20140111.2315)
 -->
<!-- Title: gui.componentdrawers.significantcommands.tabs.SavedCommandsTab Pages: 1 -->
<svg width="355pt" height="200pt"
 viewBox="0.00 0.00 355.00 200.00" xmlns="http://www.w3.org/2000/svg" xmlns:xlink="http://www.w3.org/1999/xlink">
<g id="graph0" class="graph" transform="scale(1 1) rotate(0) translate(4 196)">
<title>gui.componentdrawers.significantcommands.tabs.SavedCommandsTab</title>
<polygon fill="white" stroke="none" points="-4,4 -4,-196 351,-196 351,4 -4,4"/>
<!-- Node1 -->
<g id="node1" class="node"><title>Node1</title>
<polygon fill="#bfbfbf" stroke="black" points="0,-1 0,-31 258,-31 258,-1 0,-1"/>
<text text-anchor="start" x="8" y="-19" font-family="Helvetica,sans-Serif" font-size="10.00">gui.componentdrawers.significantcommands.tabs.</text>
<text text-anchor="middle" x="129" y="-8" font-family="Helvetica,sans-Serif" font-size="10.00">SavedCommandsTab</text>
</g>
<!-- Node2 -->
<g id="node2" class="node"><title>Node2</title>
<polygon fill="white" stroke="#bfbfbf" points="77,-86.5 77,-105.5 109,-105.5 109,-86.5 77,-86.5"/>
<text text-anchor="middle" x="93" y="-93.5" font-family="Helvetica,sans-Serif" font-size="10.00">Tab</text>
</g>
<!-- Node2&#45;&gt;Node1 -->
<g id="edge1" class="edge"><title>Node2&#45;&gt;Node1</title>
<path fill="none" stroke="midnightblue" d="M101.36,-76.8856C107.778,-62.9816 116.514,-44.054 122.434,-31.227"/>
<polygon fill="midnightblue" stroke="midnightblue" points="98.003,-75.8083 96.9902,-86.3546 104.359,-78.7417 98.003,-75.8083"/>
</g>
<!-- Node3 -->
<g id="node3" class="node"><title>Node3</title>
<g id="a_node3"><a xlink:href="../../d1/de9/classgui_1_1nonbuttonfeatures_1_1_saved_commands_feature.html" target="_top" xlink:title="gui.nonbuttonfeatures.Saved\lCommandsFeature">
<polygon fill="white" stroke="black" points="127,-81 127,-111 283,-111 283,-81 127,-81"/>
<text text-anchor="start" x="135" y="-99" font-family="Helvetica,sans-Serif" font-size="10.00">gui.nonbuttonfeatures.Saved</text>
<text text-anchor="middle" x="205" y="-88" font-family="Helvetica,sans-Serif" font-size="10.00">CommandsFeature</text>
</a>
</g>
</g>
<!-- Node3&#45;&gt;Node1 -->
<g id="edge2" class="edge"><title>Node3&#45;&gt;Node1</title>
<path fill="none" stroke="#9a32cd" stroke-dasharray="5,2" d="M183.801,-73.2427C170.71,-59.8075 154.289,-42.9542 142.851,-31.2157"/>
<polygon fill="#9a32cd" stroke="#9a32cd" points="181.575,-75.9738 191.06,-80.6936 186.589,-71.0887 181.575,-75.9738"/>
<text text-anchor="middle" x="198.5" y="-53.5" font-family="Helvetica,sans-Serif" font-size="10.00"> myFeature</text>
</g>
<!-- Node4 -->
<g id="node4" class="node"><title>Node4</title>
<polygon fill="white" stroke="#bfbfbf" points="73,-161 73,-191 191,-191 191,-161 73,-161"/>
<text text-anchor="start" x="81" y="-179" font-family="Helvetica,sans-Serif" font-size="10.00">javafx::scene::control</text>
<text text-anchor="middle" x="132" y="-168" font-family="Helvetica,sans-Serif" font-size="10.00">::ListView&lt; String &gt;</text>
</g>
<!-- Node4&#45;&gt;Node3 -->
<g id="edge3" class="edge"><title>Node4&#45;&gt;Node3</title>
<path fill="none" stroke="midnightblue" d="M152.363,-153.243C164.937,-139.808 180.71,-122.954 191.696,-111.216"/>
<polygon fill="midnightblue" stroke="midnightblue" points="149.667,-151.001 145.389,-160.694 154.778,-155.784 149.667,-151.001"/>
</g>
<!-- Node5 -->
<g id="node5" class="node"><title>Node5</title>
<polygon fill="white" stroke="#bfbfbf" points="209,-166.5 209,-185.5 347,-185.5 347,-166.5 209,-166.5"/>
<text text-anchor="middle" x="278" y="-173.5" font-family="Helvetica,sans-Serif" font-size="10.00">ObservableList&lt; String &gt;</text>
</g>
<!-- Node5&#45;&gt;Node3 -->
<g id="edge4" class="edge"><title>Node5&#45;&gt;Node3</title>
<path fill="none" stroke="#9a32cd" stroke-dasharray="5,2" d="M262.925,-158.893C249.784,-144.852 230.908,-124.683 218.315,-111.227"/>
<polygon fill="#9a32cd" stroke="#9a32cd" points="260.52,-161.445 269.909,-166.355 265.631,-156.662 260.52,-161.445"/>
<text text-anchor="middle" x="282" y="-133.5" font-family="Helvetica,sans-Serif" font-size="10.00"> myCommands</text>
</g>
</g>
</svg>
