<?xml version="1.0" encoding="UTF-8" standalone="no"?>
<!DOCTYPE svg PUBLIC "-//W3C//DTD SVG 1.1//EN"
 "http://www.w3.org/Graphics/SVG/1.1/DTD/svg11.dtd">
<!-- Generated by graphviz version 2.36.0 (20140111.2315)
 -->
<!-- Title: commandParsing.exceptions.SLOGOException.generateErrorMessage Pages: 1 -->
<svg width="636pt" height="817pt"
 viewBox="0.00 0.00 636.00 817.00" xmlns="http://www.w3.org/2000/svg" xmlns:xlink="http://www.w3.org/1999/xlink">
<g id="graph0" class="graph" transform="scale(1 1) rotate(0) translate(4 813)">
<title>commandParsing.exceptions.SLOGOException.generateErrorMessage</title>
<polygon fill="white" stroke="none" points="-4,4 -4,-813 632,-813 632,4 -4,4"/>
<!-- Node1 -->
<g id="node1" class="node"><title>Node1</title>
<polygon fill="#bfbfbf" stroke="black" points="0,-395 0,-425 210,-425 210,-395 0,-395"/>
<text text-anchor="start" x="8" y="-413" font-family="Helvetica,sans-Serif" font-size="10.00">commandParsing.exceptions.</text>
<text text-anchor="middle" x="105" y="-402" font-family="Helvetica,sans-Serif" font-size="10.00">SLOGOException.generateErrorMessage</text>
</g>
<!-- Node2 -->
<g id="node2" class="node"><title>Node2</title>
<g id="a_node2"><a xlink:href="../../da/de1/class_control_1_1_slogo_control.html#a3c55ba4e1dadbf4fbcd647017109fa9a" target="_top" xlink:title="Control.SlogoControl.parse\lCommandString">
<polygon fill="white" stroke="black" points="273,-779 273,-809 419,-809 419,-779 273,-779"/>
<text text-anchor="start" x="281" y="-797" font-family="Helvetica,sans-Serif" font-size="10.00">Control.SlogoControl.parse</text>
<text text-anchor="middle" x="346" y="-786" font-family="Helvetica,sans-Serif" font-size="10.00">CommandString</text>
</a>
</g>
</g>
<!-- Node1&#45;&gt;Node2 -->
<g id="edge1" class="edge"><title>Node1&#45;&gt;Node2</title>
<path fill="none" stroke="midnightblue" d="M108.104,-435.224C114.967,-500.782 142.642,-677.769 246,-769 253.708,-775.804 263.006,-780.808 272.776,-784.479"/>
<polygon fill="midnightblue" stroke="midnightblue" points="111.562,-434.617 107.111,-425.003 104.594,-435.294 111.562,-434.617"/>
</g>
<!-- Node4 -->
<g id="node4" class="node"><title>Node4</title>
<g id="a_node4"><a xlink:href="../../d6/d37/classtests_1_1command_tests_1_1boolean_command_tests_1_1_greater_than_tests.html#a4c2e40f7734ad34b2e6442e497e0ef83" target="_top" xlink:title="tests.commandTests.boolean\lCommandTests.GreaterThanTests.\lSyntaxErrorParseTest">
<polygon fill="white" stroke="black" points="255.5,-719.5 255.5,-760.5 436.5,-760.5 436.5,-719.5 255.5,-719.5"/>
<text text-anchor="start" x="263.5" y="-748.5" font-family="Helvetica,sans-Serif" font-size="10.00">tests.commandTests.boolean</text>
<text text-anchor="start" x="263.5" y="-737.5" font-family="Helvetica,sans-Serif" font-size="10.00">CommandTests.GreaterThanTests.</text>
<text text-anchor="middle" x="346" y="-726.5" font-family="Helvetica,sans-Serif" font-size="10.00">SyntaxErrorParseTest</text>
</a>
</g>
</g>
<!-- Node1&#45;&gt;Node4 -->
<g id="edge3" class="edge"><title>Node1&#45;&gt;Node4</title>
<path fill="none" stroke="midnightblue" d="M110.672,-435.341C122.574,-492.7 159.43,-633.352 246,-709 250.475,-712.911 255.442,-716.329 260.699,-719.315"/>
<polygon fill="midnightblue" stroke="midnightblue" points="114.064,-434.451 108.675,-425.328 107.199,-435.82 114.064,-434.451"/>
</g>
<!-- Node5 -->
<g id="node5" class="node"><title>Node5</title>
<g id="a_node5"><a xlink:href="../../dc/dbe/classtests_1_1command_tests_1_1boolean_command_tests_1_1_less_than_tests.html#a8df0e581da61d6617a802ef85aa33b31" target="_top" xlink:title="tests.commandTests.boolean\lCommandTests.LessThanTests.Syntax\lErrorParseTest">
<polygon fill="white" stroke="black" points="246.5,-659.5 246.5,-700.5 445.5,-700.5 445.5,-659.5 246.5,-659.5"/>
<text text-anchor="start" x="254.5" y="-688.5" font-family="Helvetica,sans-Serif" font-size="10.00">tests.commandTests.boolean</text>
<text text-anchor="start" x="254.5" y="-677.5" font-family="Helvetica,sans-Serif" font-size="10.00">CommandTests.LessThanTests.Syntax</text>
<text text-anchor="middle" x="346" y="-666.5" font-family="Helvetica,sans-Serif" font-size="10.00">ErrorParseTest</text>
</a>
</g>
</g>
<!-- Node1&#45;&gt;Node5 -->
<g id="edge4" class="edge"><title>Node1&#45;&gt;Node5</title>
<path fill="none" stroke="midnightblue" d="M113.75,-434.858C130.134,-483.336 172.911,-590.835 246,-649 250.932,-652.925 256.367,-656.357 262.073,-659.356"/>
<polygon fill="midnightblue" stroke="midnightblue" points="117.017,-433.589 110.568,-425.183 110.368,-435.776 117.017,-433.589"/>
</g>
<!-- Node6 -->
<g id="node6" class="node"><title>Node6</title>
<g id="a_node6"><a xlink:href="../../da/d7a/classtests_1_1command_tests_1_1boolean_command_tests_1_1_not_equal_tests.html#aedd3796bf07de9fa26781ab54b5f824b" target="_top" xlink:title="tests.commandTests.boolean\lCommandTests.NotEqualTests.Syntax\lErrorParseTest">
<polygon fill="white" stroke="black" points="247.5,-599.5 247.5,-640.5 444.5,-640.5 444.5,-599.5 247.5,-599.5"/>
<text text-anchor="start" x="255.5" y="-628.5" font-family="Helvetica,sans-Serif" font-size="10.00">tests.commandTests.boolean</text>
<text text-anchor="start" x="255.5" y="-617.5" font-family="Helvetica,sans-Serif" font-size="10.00">CommandTests.NotEqualTests.Syntax</text>
<text text-anchor="middle" x="346" y="-606.5" font-family="Helvetica,sans-Serif" font-size="10.00">ErrorParseTest</text>
</a>
</g>
</g>
<!-- Node1&#45;&gt;Node6 -->
<g id="edge5" class="edge"><title>Node1&#45;&gt;Node6</title>
<path fill="none" stroke="midnightblue" d="M118.539,-434.188C139.677,-472.619 186.032,-547.509 246,-589 251.702,-592.945 257.928,-596.405 264.392,-599.436"/>
<polygon fill="midnightblue" stroke="midnightblue" points="121.543,-432.385 113.715,-425.245 115.382,-435.708 121.543,-432.385"/>
</g>
<!-- Node7 -->
<g id="node7" class="node"><title>Node7</title>
<g id="a_node7"><a xlink:href="../../d1/d30/classtests_1_1command_tests_1_1boolean_command_tests_1_1_not_tests.html#a135e0d0a9250efc1f491a24bd1d559e3" target="_top" xlink:title="tests.commandTests.boolean\lCommandTests.NotTests.SyntaxError\lParseTest">
<polygon fill="white" stroke="black" points="249,-539.5 249,-580.5 443,-580.5 443,-539.5 249,-539.5"/>
<text text-anchor="start" x="257" y="-568.5" font-family="Helvetica,sans-Serif" font-size="10.00">tests.commandTests.boolean</text>
<text text-anchor="start" x="257" y="-557.5" font-family="Helvetica,sans-Serif" font-size="10.00">CommandTests.NotTests.SyntaxError</text>
<text text-anchor="middle" x="346" y="-546.5" font-family="Helvetica,sans-Serif" font-size="10.00">ParseTest</text>
</a>
</g>
</g>
<!-- Node1&#45;&gt;Node7 -->
<g id="edge6" class="edge"><title>Node1&#45;&gt;Node7</title>
<path fill="none" stroke="midnightblue" d="M127.029,-432.733C152.744,-459.295 198.712,-502.922 246,-529 253.018,-532.87 260.588,-536.332 268.305,-539.41"/>
<polygon fill="midnightblue" stroke="midnightblue" points="129.462,-430.213 120.024,-425.4 124.4,-435.048 129.462,-430.213"/>
</g>
<!-- Node8 -->
<g id="node8" class="node"><title>Node8</title>
<g id="a_node8"><a xlink:href="../../d3/d4d/classtests_1_1command_tests_1_1double_input_float_tests_1_1_power_tests.html#a97ce55c03d90ab182fc93af51317e644" target="_top" xlink:title="tests.commandTests.double\lInputFloatTests.PowerTests.Syntax\lErrorParseTest">
<polygon fill="white" stroke="black" points="256.5,-479.5 256.5,-520.5 435.5,-520.5 435.5,-479.5 256.5,-479.5"/>
<text text-anchor="start" x="264.5" y="-508.5" font-family="Helvetica,sans-Serif" font-size="10.00">tests.commandTests.double</text>
<text text-anchor="start" x="264.5" y="-497.5" font-family="Helvetica,sans-Serif" font-size="10.00">InputFloatTests.PowerTests.Syntax</text>
<text text-anchor="middle" x="346" y="-486.5" font-family="Helvetica,sans-Serif" font-size="10.00">ErrorParseTest</text>
</a>
</g>
</g>
<!-- Node1&#45;&gt;Node8 -->
<g id="edge7" class="edge"><title>Node1&#45;&gt;Node8</title>
<path fill="none" stroke="midnightblue" d="M148.636,-429.217C176.158,-441.31 212.88,-456.867 246,-469 255.724,-472.562 266.074,-476.088 276.279,-479.414"/>
<polygon fill="midnightblue" stroke="midnightblue" points="149.867,-425.934 139.305,-425.095 147.038,-432.337 149.867,-425.934"/>
</g>
<!-- Node9 -->
<g id="node9" class="node"><title>Node9</title>
<g id="a_node9"><a xlink:href="../../df/db7/classtests_1_1command_tests_1_1double_input_float_tests_1_1_remainder_tests.html#a0c9e2291645a1c9f32ded2085db46102" target="_top" xlink:title="tests.commandTests.double\lInputFloatTests.RemainderTests.\lSyntaxErrorParseTest">
<polygon fill="white" stroke="black" points="261.5,-419.5 261.5,-460.5 430.5,-460.5 430.5,-419.5 261.5,-419.5"/>
<text text-anchor="start" x="269.5" y="-448.5" font-family="Helvetica,sans-Serif" font-size="10.00">tests.commandTests.double</text>
<text text-anchor="start" x="269.5" y="-437.5" font-family="Helvetica,sans-Serif" font-size="10.00">InputFloatTests.RemainderTests.</text>
<text text-anchor="middle" x="346" y="-426.5" font-family="Helvetica,sans-Serif" font-size="10.00">SyntaxErrorParseTest</text>
</a>
</g>
</g>
<!-- Node1&#45;&gt;Node9 -->
<g id="edge8" class="edge"><title>Node1&#45;&gt;Node9</title>
<path fill="none" stroke="midnightblue" d="M220.196,-424.334C234.053,-426.074 248.004,-427.825 261.304,-429.494"/>
<polygon fill="midnightblue" stroke="midnightblue" points="220.492,-420.844 210.134,-423.071 219.62,-427.789 220.492,-420.844"/>
</g>
<!-- Node10 -->
<g id="node10" class="node"><title>Node10</title>
<g id="a_node10"><a xlink:href="../../d5/d47/classtests_1_1command_tests_1_1double_input_float_tests_1_1_sum_tests.html#ae744bed0f1ae6ad35e36915de6a6ad6c" target="_top" xlink:title="tests.commandTests.double\lInputFloatTests.SumTests.Syntax\lErrorParseTest">
<polygon fill="white" stroke="black" points="259.5,-359.5 259.5,-400.5 432.5,-400.5 432.5,-359.5 259.5,-359.5"/>
<text text-anchor="start" x="267.5" y="-388.5" font-family="Helvetica,sans-Serif" font-size="10.00">tests.commandTests.double</text>
<text text-anchor="start" x="267.5" y="-377.5" font-family="Helvetica,sans-Serif" font-size="10.00">InputFloatTests.SumTests.Syntax</text>
<text text-anchor="middle" x="346" y="-366.5" font-family="Helvetica,sans-Serif" font-size="10.00">ErrorParseTest</text>
</a>
</g>
</g>
<!-- Node1&#45;&gt;Node10 -->
<g id="edge9" class="edge"><title>Node1&#45;&gt;Node10</title>
<path fill="none" stroke="midnightblue" d="M220.214,-395.664C233.431,-394.004 246.736,-392.334 259.478,-390.735"/>
<polygon fill="midnightblue" stroke="midnightblue" points="219.62,-392.211 210.134,-396.929 220.492,-399.156 219.62,-392.211"/>
</g>
<!-- Node11 -->
<g id="node11" class="node"><title>Node11</title>
<g id="a_node11"><a xlink:href="../../d2/d3d/classtests_1_1command_tests_1_1double_input_float_tests_1_1_quotient_tests.html#af87f25e31c10115de94f84597f7e70fa" target="_top" xlink:title="tests.commandTests.double\lInputFloatTests.QuotientTests.\lSyntaxErrorParseTest">
<polygon fill="white" stroke="black" points="266.5,-299.5 266.5,-340.5 425.5,-340.5 425.5,-299.5 266.5,-299.5"/>
<text text-anchor="start" x="274.5" y="-328.5" font-family="Helvetica,sans-Serif" font-size="10.00">tests.commandTests.double</text>
<text text-anchor="start" x="274.5" y="-317.5" font-family="Helvetica,sans-Serif" font-size="10.00">InputFloatTests.QuotientTests.</text>
<text text-anchor="middle" x="346" y="-306.5" font-family="Helvetica,sans-Serif" font-size="10.00">SyntaxErrorParseTest</text>
</a>
</g>
</g>
<!-- Node1&#45;&gt;Node11 -->
<g id="edge10" class="edge"><title>Node1&#45;&gt;Node11</title>
<path fill="none" stroke="midnightblue" d="M147.739,-390.673C175.321,-378.261 212.442,-362.233 246,-350 254.943,-346.74 264.426,-343.544 273.843,-340.525"/>
<polygon fill="midnightblue" stroke="midnightblue" points="146.069,-387.588 138.403,-394.901 148.956,-393.964 146.069,-387.588"/>
</g>
<!-- Node12 -->
<g id="node12" class="node"><title>Node12</title>
<g id="a_node12"><a xlink:href="../../d2/dd9/classtests_1_1command_tests_1_1boolean_command_tests_1_1_equal_tests.html#a09be00f674dd5f11d99b3789a61cc9c5" target="_top" xlink:title="tests.commandTests.boolean\lCommandTests.EqualTests.Syntax\lErrorParseTest">
<polygon fill="white" stroke="black" points="256,-239.5 256,-280.5 436,-280.5 436,-239.5 256,-239.5"/>
<text text-anchor="start" x="264" y="-268.5" font-family="Helvetica,sans-Serif" font-size="10.00">tests.commandTests.boolean</text>
<text text-anchor="start" x="264" y="-257.5" font-family="Helvetica,sans-Serif" font-size="10.00">CommandTests.EqualTests.Syntax</text>
<text text-anchor="middle" x="346" y="-246.5" font-family="Helvetica,sans-Serif" font-size="10.00">ErrorParseTest</text>
</a>
</g>
</g>
<!-- Node1&#45;&gt;Node12 -->
<g id="edge11" class="edge"><title>Node1&#45;&gt;Node12</title>
<path fill="none" stroke="midnightblue" d="M126.537,-387.422C152.092,-360.597 198.223,-316.19 246,-290 252.378,-286.504 259.216,-283.363 266.208,-280.552"/>
<polygon fill="midnightblue" stroke="midnightblue" points="123.885,-385.133 119.589,-394.818 128.987,-389.926 123.885,-385.133"/>
</g>
<!-- Node13 -->
<g id="node13" class="node"><title>Node13</title>
<g id="a_node13"><a xlink:href="../../d6/db3/classtests_1_1command_tests_1_1double_input_float_tests_1_1_product_tests.html#a706fc2539512c4bea99f89d6ce08c918" target="_top" xlink:title="tests.commandTests.double\lInputFloatTests.ProductTests.Syntax\lErrorParseTest">
<polygon fill="white" stroke="black" points="252,-179.5 252,-220.5 440,-220.5 440,-179.5 252,-179.5"/>
<text text-anchor="start" x="260" y="-208.5" font-family="Helvetica,sans-Serif" font-size="10.00">tests.commandTests.double</text>
<text text-anchor="start" x="260" y="-197.5" font-family="Helvetica,sans-Serif" font-size="10.00">InputFloatTests.ProductTests.Syntax</text>
<text text-anchor="middle" x="346" y="-186.5" font-family="Helvetica,sans-Serif" font-size="10.00">ErrorParseTest</text>
</a>
</g>
</g>
<!-- Node1&#45;&gt;Node13 -->
<g id="edge12" class="edge"><title>Node1&#45;&gt;Node13</title>
<path fill="none" stroke="midnightblue" d="M118.302,-385.9C139.255,-347.25 185.538,-271.542 246,-230 251.181,-226.44 256.795,-223.293 262.629,-220.513"/>
<polygon fill="midnightblue" stroke="midnightblue" points="115.13,-384.412 113.528,-394.885 121.311,-387.697 115.13,-384.412"/>
</g>
<!-- Node14 -->
<g id="node14" class="node"><title>Node14</title>
<g id="a_node14"><a xlink:href="../../db/dac/classtests_1_1command_tests_1_1boolean_command_tests_1_1_and_tests.html#add09d1f231f97b29aba88e400fbc7d2a" target="_top" xlink:title="tests.commandTests.boolean\lCommandTests.AndTests.SyntaxError\lParseTest">
<polygon fill="white" stroke="black" points="248,-119.5 248,-160.5 444,-160.5 444,-119.5 248,-119.5"/>
<text text-anchor="start" x="256" y="-148.5" font-family="Helvetica,sans-Serif" font-size="10.00">tests.commandTests.boolean</text>
<text text-anchor="start" x="256" y="-137.5" font-family="Helvetica,sans-Serif" font-size="10.00">CommandTests.AndTests.SyntaxError</text>
<text text-anchor="middle" x="346" y="-126.5" font-family="Helvetica,sans-Serif" font-size="10.00">ParseTest</text>
</a>
</g>
</g>
<!-- Node1&#45;&gt;Node14 -->
<g id="edge13" class="edge"><title>Node1&#45;&gt;Node14</title>
<path fill="none" stroke="midnightblue" d="M113.673,-384.98C129.92,-336.196 172.467,-228.075 246,-170 250.51,-166.438 255.439,-163.298 260.613,-160.53"/>
<polygon fill="midnightblue" stroke="midnightblue" points="110.271,-384.125 110.519,-394.717 116.93,-386.282 110.271,-384.125"/>
</g>
<!-- Node15 -->
<g id="node15" class="node"><title>Node15</title>
<g id="a_node15"><a xlink:href="../../da/dad/classtests_1_1command_tests_1_1double_input_float_tests_1_1_difference_tests.html#a9012ef76dd950db57e8383f3f2499d6d" target="_top" xlink:title="tests.commandTests.double\lInputFloatTests.DifferenceTests.\lSyntaxErrorParseTest">
<polygon fill="white" stroke="black" points="262.5,-59.5 262.5,-100.5 429.5,-100.5 429.5,-59.5 262.5,-59.5"/>
<text text-anchor="start" x="270.5" y="-88.5" font-family="Helvetica,sans-Serif" font-size="10.00">tests.commandTests.double</text>
<text text-anchor="start" x="270.5" y="-77.5" font-family="Helvetica,sans-Serif" font-size="10.00">InputFloatTests.DifferenceTests.</text>
<text text-anchor="middle" x="346" y="-66.5" font-family="Helvetica,sans-Serif" font-size="10.00">SyntaxErrorParseTest</text>
</a>
</g>
</g>
<!-- Node1&#45;&gt;Node15 -->
<g id="edge14" class="edge"><title>Node1&#45;&gt;Node15</title>
<path fill="none" stroke="midnightblue" d="M110.514,-384.923C122.17,-327.517 158.688,-185.687 246,-110 250.885,-105.765 256.354,-102.128 262.146,-99.0043"/>
<polygon fill="midnightblue" stroke="midnightblue" points="107.042,-384.445 108.564,-394.93 113.912,-385.785 107.042,-384.445"/>
</g>
<!-- Node16 -->
<g id="node16" class="node"><title>Node16</title>
<g id="a_node16"><a xlink:href="../../d1/d3b/classtests_1_1command_tests_1_1boolean_command_tests_1_1_or_tests.html#abdeb7a734f4c4480d6569cefb3eb75f5" target="_top" xlink:title="tests.commandTests.boolean\lCommandTests.OrTests.SyntaxError\lParseTest">
<polygon fill="white" stroke="black" points="252,0.5 252,-40.5 440,-40.5 440,0.5 252,0.5"/>
<text text-anchor="start" x="260" y="-28.5" font-family="Helvetica,sans-Serif" font-size="10.00">tests.commandTests.boolean</text>
<text text-anchor="start" x="260" y="-17.5" font-family="Helvetica,sans-Serif" font-size="10.00">CommandTests.OrTests.SyntaxError</text>
<text text-anchor="middle" x="346" y="-6.5" font-family="Helvetica,sans-Serif" font-size="10.00">ParseTest</text>
</a>
</g>
</g>
<!-- Node1&#45;&gt;Node16 -->
<g id="edge15" class="edge"><title>Node1&#45;&gt;Node16</title>
<path fill="none" stroke="midnightblue" d="M108.379,-384.532C115.867,-319.101 144.841,-143.687 246,-50 249.821,-46.4611 254.047,-43.3389 258.537,-40.5846"/>
<polygon fill="midnightblue" stroke="midnightblue" points="104.87,-384.431 107.286,-394.747 111.831,-385.176 104.87,-384.431"/>
</g>
<!-- Node3 -->
<g id="node3" class="node"><title>Node3</title>
<g id="a_node3"><a xlink:href="../../da/de1/class_control_1_1_slogo_control.html#a3c3830d88ed47944348f1f82c56d0d58" target="_top" xlink:title="Control.SlogoControl.Slogo\lControl">
<polygon fill="white" stroke="black" points="482,-779 482,-809 628,-809 628,-779 482,-779"/>
<text text-anchor="start" x="490" y="-797" font-family="Helvetica,sans-Serif" font-size="10.00">Control.SlogoControl.Slogo</text>
<text text-anchor="middle" x="555" y="-786" font-family="Helvetica,sans-Serif" font-size="10.00">Control</text>
</a>
</g>
</g>
<!-- Node2&#45;&gt;Node3 -->
<g id="edge2" class="edge"><title>Node2&#45;&gt;Node3</title>
<path fill="none" stroke="midnightblue" d="M429.229,-794C446.608,-794 464.824,-794 481.8,-794"/>
<polygon fill="midnightblue" stroke="midnightblue" points="429.108,-790.5 419.108,-794 429.108,-797.5 429.108,-790.5"/>
</g>
</g>
</svg>
