<?xml version="1.0" encoding="UTF-8" standalone="no"?>
<!DOCTYPE svg PUBLIC "-//W3C//DTD SVG 1.1//EN"
 "http://www.w3.org/Graphics/SVG/1.1/DTD/svg11.dtd">
<!-- Generated by graphviz version 2.36.0 (20140111.2315)
 -->
<!-- Title: commandParsing.structuralCommandParsing.StructuralCommand Pages: 1 -->
<svg width="870pt" height="424pt"
 viewBox="0.00 0.00 870.00 424.00" xmlns="http://www.w3.org/2000/svg" xmlns:xlink="http://www.w3.org/1999/xlink">
<g id="graph0" class="graph" transform="scale(1 1) rotate(0) translate(4 420)">
<title>commandParsing.structuralCommandParsing.StructuralCommand</title>
<polygon fill="white" stroke="none" points="-4,4 -4,-420 866,-420 866,4 -4,4"/>
<!-- Node1 -->
<g id="node1" class="node"><title>Node1</title>
<polygon fill="#bfbfbf" stroke="black" points="220,-103 220,-133 422,-133 422,-103 220,-103"/>
<text text-anchor="start" x="228" y="-121" font-family="Helvetica,sans-Serif" font-size="10.00">commandParsing.structural</text>
<text text-anchor="middle" x="321" y="-110" font-family="Helvetica,sans-Serif" font-size="10.00">CommandParsing.StructuralCommand</text>
</g>
<!-- Node3 -->
<g id="node3" class="node"><title>Node3</title>
<g id="a_node3"><a xlink:href="../../da/df9/classcommand_parsing_1_1structural_command_parsing_1_1_multiple_turtle_command.html" target="_top" xlink:title="commandParsing.structural\lCommandParsing.MultipleTurtleCommand">
<polygon fill="white" stroke="black" points="458.5,-312 458.5,-342 675.5,-342 675.5,-312 458.5,-312"/>
<text text-anchor="start" x="466.5" y="-330" font-family="Helvetica,sans-Serif" font-size="10.00">commandParsing.structural</text>
<text text-anchor="middle" x="567" y="-319" font-family="Helvetica,sans-Serif" font-size="10.00">CommandParsing.MultipleTurtleCommand</text>
</a>
</g>
</g>
<!-- Node1&#45;&gt;Node3 -->
<g id="edge2" class="edge"><title>Node1&#45;&gt;Node3</title>
<path fill="none" stroke="midnightblue" d="M347.247,-139.626C396.776,-182.05 505.566,-275.235 548.283,-311.825"/>
<polygon fill="midnightblue" stroke="midnightblue" points="349.42,-136.878 339.548,-133.031 344.866,-142.194 349.42,-136.878"/>
</g>
<!-- Node7 -->
<g id="node7" class="node"><title>Node7</title>
<g id="a_node7"><a xlink:href="../../d0/dfe/classcommand_parsing_1_1structural_command_parsing_1_1_recurring_command.html" target="_top" xlink:title="commandParsing.structural\lCommandParsing.RecurringCommand">
<polygon fill="white" stroke="black" points="467.5,-179 467.5,-209 666.5,-209 666.5,-179 467.5,-179"/>
<text text-anchor="start" x="475.5" y="-197" font-family="Helvetica,sans-Serif" font-size="10.00">commandParsing.structural</text>
<text text-anchor="middle" x="567" y="-186" font-family="Helvetica,sans-Serif" font-size="10.00">CommandParsing.RecurringCommand</text>
</a>
</g>
</g>
<!-- Node1&#45;&gt;Node7 -->
<g id="edge6" class="edge"><title>Node1&#45;&gt;Node7</title>
<path fill="none" stroke="midnightblue" d="M380.003,-136.066C421.927,-149.125 477.915,-166.564 517.477,-178.886"/>
<polygon fill="midnightblue" stroke="midnightblue" points="380.795,-132.647 370.207,-133.015 378.713,-139.331 380.795,-132.647"/>
</g>
<!-- Node11 -->
<g id="node11" class="node"><title>Node11</title>
<g id="a_node11"><a xlink:href="../../dd/d10/classcommand_parsing_1_1structural_command_parsing_1_1_structural_command_on_boolean_switch.html" target="_top" xlink:title="commandParsing.structural\lCommandParsing.StructuralCommand\lOnBooleanSwitch">
<polygon fill="white" stroke="black" points="466,-97.5 466,-138.5 668,-138.5 668,-97.5 466,-97.5"/>
<text text-anchor="start" x="474" y="-126.5" font-family="Helvetica,sans-Serif" font-size="10.00">commandParsing.structural</text>
<text text-anchor="start" x="474" y="-115.5" font-family="Helvetica,sans-Serif" font-size="10.00">CommandParsing.StructuralCommand</text>
<text text-anchor="middle" x="567" y="-104.5" font-family="Helvetica,sans-Serif" font-size="10.00">OnBooleanSwitch</text>
</a>
</g>
</g>
<!-- Node1&#45;&gt;Node11 -->
<g id="edge10" class="edge"><title>Node1&#45;&gt;Node11</title>
<path fill="none" stroke="midnightblue" d="M432.432,-118C443.514,-118 454.725,-118 465.695,-118"/>
<polygon fill="midnightblue" stroke="midnightblue" points="432.3,-114.5 422.3,-118 432.3,-121.5 432.3,-114.5"/>
</g>
<!-- Node14 -->
<g id="node14" class="node"><title>Node14</title>
<g id="a_node14"><a xlink:href="../../d3/d58/classcommand_parsing_1_1user_command_parsing_1_1_make_user_instruction.html" target="_top" xlink:title="commandParsing.userCommand\lParsing.MakeUserInstruction">
<polygon fill="white" stroke="black" points="480,-49 480,-79 654,-79 654,-49 480,-49"/>
<text text-anchor="start" x="488" y="-67" font-family="Helvetica,sans-Serif" font-size="10.00">commandParsing.userCommand</text>
<text text-anchor="middle" x="567" y="-56" font-family="Helvetica,sans-Serif" font-size="10.00">Parsing.MakeUserInstruction</text>
</a>
</g>
</g>
<!-- Node1&#45;&gt;Node14 -->
<g id="edge13" class="edge"><title>Node1&#45;&gt;Node14</title>
<path fill="none" stroke="midnightblue" d="M400.026,-100.732C431.532,-93.7592 467.557,-85.7867 497.974,-79.0549"/>
<polygon fill="midnightblue" stroke="midnightblue" points="398.975,-97.3798 389.968,-102.958 400.488,-104.214 398.975,-97.3798"/>
</g>
<!-- Node15 -->
<g id="node15" class="node"><title>Node15</title>
<g id="a_node15"><a xlink:href="../../d9/dd9/classcommand_parsing_1_1variable_command_parsing_1_1_make_variable.html" target="_top" xlink:title="commandParsing.variableCommand\lParsing.MakeVariable">
<polygon fill="white" stroke="black" points="471.5,-0 471.5,-30 662.5,-30 662.5,-0 471.5,-0"/>
<text text-anchor="start" x="479.5" y="-18" font-family="Helvetica,sans-Serif" font-size="10.00">commandParsing.variableCommand</text>
<text text-anchor="middle" x="567" y="-7" font-family="Helvetica,sans-Serif" font-size="10.00">Parsing.MakeVariable</text>
</a>
</g>
</g>
<!-- Node1&#45;&gt;Node15 -->
<g id="edge14" class="edge"><title>Node1&#45;&gt;Node15</title>
<path fill="none" stroke="midnightblue" d="M351.573,-97.2153C378.251,-79.3643 419.154,-54.1766 458,-39 466.677,-35.61 475.942,-32.6431 485.262,-30.0606"/>
<polygon fill="midnightblue" stroke="midnightblue" points="349.408,-94.4545 343.094,-102.963 353.335,-100.249 349.408,-94.4545"/>
</g>
<!-- Node2 -->
<g id="node2" class="node"><title>Node2</title>
<g id="a_node2"><a xlink:href="../../d7/d17/classcommand_parsing_1_1_command_parser.html" target="_top" xlink:title="commandParsing.CommandParser">
<polygon fill="white" stroke="black" points="0.5,-108.5 0.5,-127.5 183.5,-127.5 183.5,-108.5 0.5,-108.5"/>
<text text-anchor="middle" x="92" y="-115.5" font-family="Helvetica,sans-Serif" font-size="10.00">commandParsing.CommandParser</text>
</a>
</g>
</g>
<!-- Node2&#45;&gt;Node1 -->
<g id="edge1" class="edge"><title>Node2&#45;&gt;Node1</title>
<path fill="none" stroke="midnightblue" d="M193.768,-118C202.398,-118 211.127,-118 219.753,-118"/>
<polygon fill="midnightblue" stroke="midnightblue" points="193.695,-114.5 183.695,-118 193.695,-121.5 193.695,-114.5"/>
</g>
<!-- Node4 -->
<g id="node4" class="node"><title>Node4</title>
<g id="a_node4"><a xlink:href="../../d7/d50/classcommand_parsing_1_1structural_command_parsing_1_1_ask.html" target="_top" xlink:title="commandParsing.structural\lCommandParsing.Ask">
<polygon fill="white" stroke="black" points="712.5,-386 712.5,-416 861.5,-416 861.5,-386 712.5,-386"/>
<text text-anchor="start" x="720.5" y="-404" font-family="Helvetica,sans-Serif" font-size="10.00">commandParsing.structural</text>
<text text-anchor="middle" x="787" y="-393" font-family="Helvetica,sans-Serif" font-size="10.00">CommandParsing.Ask</text>
</a>
</g>
</g>
<!-- Node3&#45;&gt;Node4 -->
<g id="edge3" class="edge"><title>Node3&#45;&gt;Node4</title>
<path fill="none" stroke="midnightblue" d="M621.777,-345.33C648.839,-354.547 682.153,-365.88 712,-376 721.503,-379.222 731.696,-382.671 741.385,-385.945"/>
<polygon fill="midnightblue" stroke="midnightblue" points="622.702,-341.948 612.108,-342.037 620.445,-348.574 622.702,-341.948"/>
</g>
<!-- Node5 -->
<g id="node5" class="node"><title>Node5</title>
<g id="a_node5"><a xlink:href="../../d7/d78/classcommand_parsing_1_1structural_command_parsing_1_1_ask_with.html" target="_top" xlink:title="commandParsing.structural\lCommandParsing.AskWith">
<polygon fill="white" stroke="black" points="712.5,-337 712.5,-367 861.5,-367 861.5,-337 712.5,-337"/>
<text text-anchor="start" x="720.5" y="-355" font-family="Helvetica,sans-Serif" font-size="10.00">commandParsing.structural</text>
<text text-anchor="middle" x="787" y="-344" font-family="Helvetica,sans-Serif" font-size="10.00">CommandParsing.AskWith</text>
</a>
</g>
</g>
<!-- Node3&#45;&gt;Node5 -->
<g id="edge4" class="edge"><title>Node3&#45;&gt;Node5</title>
<path fill="none" stroke="midnightblue" d="M685.922,-340.523C694.936,-341.557 703.869,-342.581 712.471,-343.568"/>
<polygon fill="midnightblue" stroke="midnightblue" points="686.056,-337.016 675.723,-339.354 685.259,-343.97 686.056,-337.016"/>
</g>
<!-- Node6 -->
<g id="node6" class="node"><title>Node6</title>
<g id="a_node6"><a xlink:href="../../db/da0/classcommand_parsing_1_1structural_command_parsing_1_1_tell.html" target="_top" xlink:title="commandParsing.structural\lCommandParsing.Tell">
<polygon fill="white" stroke="black" points="712.5,-288 712.5,-318 861.5,-318 861.5,-288 712.5,-288"/>
<text text-anchor="start" x="720.5" y="-306" font-family="Helvetica,sans-Serif" font-size="10.00">commandParsing.structural</text>
<text text-anchor="middle" x="787" y="-295" font-family="Helvetica,sans-Serif" font-size="10.00">CommandParsing.Tell</text>
</a>
</g>
</g>
<!-- Node3&#45;&gt;Node6 -->
<g id="edge5" class="edge"><title>Node3&#45;&gt;Node6</title>
<path fill="none" stroke="midnightblue" d="M685.922,-314.018C694.936,-313.025 703.869,-312.042 712.471,-311.095"/>
<polygon fill="midnightblue" stroke="midnightblue" points="685.28,-310.567 675.723,-315.141 686.046,-317.525 685.28,-310.567"/>
</g>
<!-- Node8 -->
<g id="node8" class="node"><title>Node8</title>
<g id="a_node8"><a xlink:href="../../d7/d10/classcommand_parsing_1_1structural_command_parsing_1_1_do_times.html" target="_top" xlink:title="commandParsing.structural\lCommandParsing.DoTimes">
<polygon fill="white" stroke="black" points="712.5,-239 712.5,-269 861.5,-269 861.5,-239 712.5,-239"/>
<text text-anchor="start" x="720.5" y="-257" font-family="Helvetica,sans-Serif" font-size="10.00">commandParsing.structural</text>
<text text-anchor="middle" x="787" y="-246" font-family="Helvetica,sans-Serif" font-size="10.00">CommandParsing.DoTimes</text>
</a>
</g>
</g>
<!-- Node7&#45;&gt;Node8 -->
<g id="edge7" class="edge"><title>Node7&#45;&gt;Node8</title>
<path fill="none" stroke="midnightblue" d="M632.688,-211.804C664.051,-220.436 701.313,-230.692 731.248,-238.931"/>
<polygon fill="midnightblue" stroke="midnightblue" points="633.3,-208.342 622.729,-209.063 631.442,-215.091 633.3,-208.342"/>
</g>
<!-- Node9 -->
<g id="node9" class="node"><title>Node9</title>
<g id="a_node9"><a xlink:href="../../d3/d78/classcommand_parsing_1_1structural_command_parsing_1_1_for.html" target="_top" xlink:title="commandParsing.structural\lCommandParsing.For">
<polygon fill="white" stroke="black" points="712.5,-190 712.5,-220 861.5,-220 861.5,-190 712.5,-190"/>
<text text-anchor="start" x="720.5" y="-208" font-family="Helvetica,sans-Serif" font-size="10.00">commandParsing.structural</text>
<text text-anchor="middle" x="787" y="-197" font-family="Helvetica,sans-Serif" font-size="10.00">CommandParsing.For</text>
</a>
</g>
</g>
<!-- Node7&#45;&gt;Node9 -->
<g id="edge8" class="edge"><title>Node7&#45;&gt;Node9</title>
<path fill="none" stroke="midnightblue" d="M676.875,-199.494C688.892,-200.1 700.911,-200.706 712.347,-201.284"/>
<polygon fill="midnightblue" stroke="midnightblue" points="676.958,-195.994 666.795,-198.985 676.605,-202.985 676.958,-195.994"/>
</g>
<!-- Node10 -->
<g id="node10" class="node"><title>Node10</title>
<g id="a_node10"><a xlink:href="../../d8/d8f/classcommand_parsing_1_1structural_command_parsing_1_1_repeat.html" target="_top" xlink:title="commandParsing.structural\lCommandParsing.Repeat">
<polygon fill="white" stroke="black" points="712.5,-141 712.5,-171 861.5,-171 861.5,-141 712.5,-141"/>
<text text-anchor="start" x="720.5" y="-159" font-family="Helvetica,sans-Serif" font-size="10.00">commandParsing.structural</text>
<text text-anchor="middle" x="787" y="-148" font-family="Helvetica,sans-Serif" font-size="10.00">CommandParsing.Repeat</text>
</a>
</g>
</g>
<!-- Node7&#45;&gt;Node10 -->
<g id="edge9" class="edge"><title>Node7&#45;&gt;Node10</title>
<path fill="none" stroke="midnightblue" d="M664.176,-177.235C680.364,-174.414 696.934,-171.525 712.433,-168.824"/>
<polygon fill="midnightblue" stroke="midnightblue" points="663.41,-173.816 654.159,-178.981 664.612,-180.712 663.41,-173.816"/>
</g>
<!-- Node12 -->
<g id="node12" class="node"><title>Node12</title>
<g id="a_node12"><a xlink:href="../../d3/d0e/classcommand_parsing_1_1structural_command_parsing_1_1_if.html" target="_top" xlink:title="commandParsing.structural\lCommandParsing.If">
<polygon fill="white" stroke="black" points="712.5,-92 712.5,-122 861.5,-122 861.5,-92 712.5,-92"/>
<text text-anchor="start" x="720.5" y="-110" font-family="Helvetica,sans-Serif" font-size="10.00">commandParsing.structural</text>
<text text-anchor="middle" x="787" y="-99" font-family="Helvetica,sans-Serif" font-size="10.00">CommandParsing.If</text>
</a>
</g>
</g>
<!-- Node11&#45;&gt;Node12 -->
<g id="edge11" class="edge"><title>Node11&#45;&gt;Node12</title>
<path fill="none" stroke="midnightblue" d="M678.207,-112.439C689.755,-111.856 701.285,-111.275 712.278,-110.72"/>
<polygon fill="midnightblue" stroke="midnightblue" points="677.878,-108.951 668.068,-112.951 678.231,-115.942 677.878,-108.951"/>
</g>
<!-- Node13 -->
<g id="node13" class="node"><title>Node13</title>
<g id="a_node13"><a xlink:href="../../d5/dd6/classcommand_parsing_1_1structural_command_parsing_1_1_if_else.html" target="_top" xlink:title="commandParsing.structural\lCommandParsing.IfElse">
<polygon fill="white" stroke="black" points="712.5,-43 712.5,-73 861.5,-73 861.5,-43 712.5,-43"/>
<text text-anchor="start" x="720.5" y="-61" font-family="Helvetica,sans-Serif" font-size="10.00">commandParsing.structural</text>
<text text-anchor="middle" x="787" y="-50" font-family="Helvetica,sans-Serif" font-size="10.00">CommandParsing.IfElse</text>
</a>
</g>
</g>
<!-- Node11&#45;&gt;Node13 -->
<g id="edge12" class="edge"><title>Node11&#45;&gt;Node13</title>
<path fill="none" stroke="midnightblue" d="M652.38,-94.776C678.892,-87.4792 707.454,-79.6181 731.339,-73.0443"/>
<polygon fill="midnightblue" stroke="midnightblue" points="651.431,-91.4071 642.718,-97.4353 653.289,-98.1562 651.431,-91.4071"/>
</g>
</g>
</svg>
