<?xml version="1.0" encoding="UTF-8" standalone="no"?>
<!DOCTYPE svg PUBLIC "-//W3C//DTD SVG 1.1//EN"
 "http://www.w3.org/Graphics/SVG/1.1/DTD/svg11.dtd">
<!-- Generated by graphviz version 2.36.0 (20140111.2315)
 -->
<!-- Title: drawableobject.DrawableObject.getType Pages: 1 -->
<!--zoomable 2007 -->
<svg id="main" version="1.1" xmlns="http://www.w3.org/2000/svg" xmlns:xlink="http://www.w3.org/1999/xlink" xml:space="preserve" onload="init(evt)">
<style type="text/css"><![CDATA[
.edge:hover path { stroke: red; }
.edge:hover polygon { stroke: red; fill: red; }
]]></style>
<script type="text/javascript"><![CDATA[
var edges = document.getElementsByTagName('g');
if (edges && edges.length) {
  for (var i=0;i<edges.length;i++) {
    if (edges[i].id.substr(0,4)=='edge') {
      edges[i].setAttribute('class','edge');
    }
  }
}
]]></script>
        <defs>
                <circle id="rim" cx="0" cy="0" r="7"/>
                <circle id="rim2" cx="0" cy="0" r="3.5"/>
                <g id="zoomPlus">
                        <use xlink:href="#rim" fill="#404040">
                                <set attributeName="fill" to="#808080" begin="zoomplus.mouseover" end="zoomplus.mouseout"/>
                        </use>
                        <path d="M-4,0h8M0,-4v8" fill="none" stroke="white" stroke-width="1.5" pointer-events="none"/>
                </g>
                <g id="zoomMin">
                        <use xlink:href="#rim" fill="#404040">
                                <set attributeName="fill" to="#808080" begin="zoomminus.mouseover" end="zoomminus.mouseout"/>
                        </use>
                        <path d="M-4,0h8" fill="none" stroke="white" stroke-width="1.5" pointer-events="none"/>
                </g>
                <g id="dirArrow">
                        <path fill="none" stroke="white" stroke-width="1.5" d="M0,-3.0v7 M-2.5,-0.5L0,-3.0L2.5,-0.5"/>
                </g>
               <g id="resetDef">
                       <use xlink:href="#rim2" fill="#404040">
                               <set attributeName="fill" to="#808080" begin="reset.mouseover" end="reset.mouseout"/>
                       </use>
               </g>
        </defs>

<script type="text/javascript">
var viewWidth = 492;
var viewHeight = 2007;
var sectionId = 'dynsection-3';
</script>
<script xlink:href="../../svgpan.js"/>
<svg id="graph" class="graph">
<g id="viewport">
<title>drawableobject.DrawableObject.getType</title>
<polygon fill="white" stroke="none" points="-4,4 -4,-2003 488,-2003 488,4 -4,4"/>
<!-- Node1 -->
<g id="node1" class="node"><title>Node1</title>
<polygon fill="#bfbfbf" stroke="black" points="0,-984.5 0,-1003.5 206,-1003.5 206,-984.5 0,-984.5"/>
<text text-anchor="middle" x="103" y="-991.5" font-family="Helvetica,sans-Serif" font-size="10.00">drawableobject.DrawableObject.getType</text>
</g>
<!-- Node2 -->
<g id="node2" class="node"><title>Node2</title>
<g id="a_node2"><a xlink:href="../../da/d40/classtests_1_1command_tests_1_1double_input_float_tests_1_1_set_position_tests.html#ad4a7a8d40a6e6534d4c4ff25910e2a2b" target="_top" xlink:title="tests.commandTests.double\lInputFloatTests.SetPositionTests.\lBasicGOTOHomeTest">
<polygon fill="white" stroke="black" points="277,-1957.5 277,-1998.5 449,-1998.5 449,-1957.5 277,-1957.5"/>
<text text-anchor="start" x="285" y="-1986.5" font-family="Helvetica,sans-Serif" font-size="10.00">tests.commandTests.double</text>
<text text-anchor="start" x="285" y="-1975.5" font-family="Helvetica,sans-Serif" font-size="10.00">InputFloatTests.SetPositionTests.</text>
<text text-anchor="middle" x="363" y="-1964.5" font-family="Helvetica,sans-Serif" font-size="10.00">BasicGOTOHomeTest</text>
</a>
</g>
</g>
<!-- Node1&#45;&gt;Node2 -->
<g id="edge1" class="edge"><title>Node1&#45;&gt;Node2</title>
<path fill="none" stroke="midnightblue" d="M103.998,-1013.73C104.389,-1137.15 112.539,-1802.6 242,-1947 251.336,-1957.41 263.668,-1964.54 276.871,-1969.37"/>
<polygon fill="midnightblue" stroke="midnightblue" points="107.498,-1013.5 103.98,-1003.51 100.498,-1013.51 107.498,-1013.5"/>
</g>
<!-- Node3 -->
<g id="node3" class="node"><title>Node3</title>
<g id="a_node3"><a xlink:href="../../da/d40/classtests_1_1command_tests_1_1double_input_float_tests_1_1_set_position_tests.html#a6c9bff0d1ba06aad62c460a106f26b2c" target="_top" xlink:title="tests.commandTests.double\lInputFloatTests.SetPositionTests.\lBasicGOTOTest">
<polygon fill="white" stroke="black" points="277,-1897.5 277,-1938.5 449,-1938.5 449,-1897.5 277,-1897.5"/>
<text text-anchor="start" x="285" y="-1926.5" font-family="Helvetica,sans-Serif" font-size="10.00">tests.commandTests.double</text>
<text text-anchor="start" x="285" y="-1915.5" font-family="Helvetica,sans-Serif" font-size="10.00">InputFloatTests.SetPositionTests.</text>
<text text-anchor="middle" x="363" y="-1904.5" font-family="Helvetica,sans-Serif" font-size="10.00">BasicGOTOTest</text>
</a>
</g>
</g>
<!-- Node1&#45;&gt;Node3 -->
<g id="edge2" class="edge"><title>Node1&#45;&gt;Node3</title>
<path fill="none" stroke="midnightblue" d="M104.193,-1013.99C105.755,-1133.61 119.731,-1753.95 242,-1888 251.407,-1898.31 263.773,-1905.32 276.989,-1910.04"/>
<polygon fill="midnightblue" stroke="midnightblue" points="107.69,-1013.7 104.074,-1003.74 100.69,-1013.78 107.69,-1013.7"/>
</g>
<!-- Node4 -->
<g id="node4" class="node"><title>Node4</title>
<g id="a_node4"><a xlink:href="../../d7/df6/classtests_1_1command_tests_1_1inputless_command_tests_1_1_home_tests.html#aef85cb2b1a20534309898296eb020f37" target="_top" xlink:title="tests.commandTests.inputless\lCommandTests.HomeTests.BasicHomeTest">
<polygon fill="white" stroke="black" points="251,-1849 251,-1879 475,-1879 475,-1849 251,-1849"/>
<text text-anchor="start" x="259" y="-1867" font-family="Helvetica,sans-Serif" font-size="10.00">tests.commandTests.inputless</text>
<text text-anchor="middle" x="363" y="-1856" font-family="Helvetica,sans-Serif" font-size="10.00">CommandTests.HomeTests.BasicHomeTest</text>
</a>
</g>
</g>
<!-- Node1&#45;&gt;Node4 -->
<g id="edge3" class="edge"><title>Node1&#45;&gt;Node4</title>
<path fill="none" stroke="midnightblue" d="M104.306,-1013.68C106.509,-1128.89 123.485,-1715.21 242,-1839 245.606,-1842.77 249.62,-1846.04 253.932,-1848.88"/>
<polygon fill="midnightblue" stroke="midnightblue" points="107.803,-1013.45 104.128,-1003.51 100.804,-1013.57 107.803,-1013.45"/>
</g>
<!-- Node5 -->
<g id="node5" class="node"><title>Node5</title>
<g id="a_node5"><a xlink:href="../../dd/d96/classtests_1_1command_tests_1_1inputless_command_tests_1_1_clear_screen_tests.html#a607f982d50c547cc6a91c491b73bb401" target="_top" xlink:title="tests.commandTests.inputless\lCommandTests.ClearScreenTests.Clear\lScreeenTest">
<polygon fill="white" stroke="black" points="261,-1789.5 261,-1830.5 465,-1830.5 465,-1789.5 261,-1789.5"/>
<text text-anchor="start" x="269" y="-1818.5" font-family="Helvetica,sans-Serif" font-size="10.00">tests.commandTests.inputless</text>
<text text-anchor="start" x="269" y="-1807.5" font-family="Helvetica,sans-Serif" font-size="10.00">CommandTests.ClearScreenTests.Clear</text>
<text text-anchor="middle" x="363" y="-1796.5" font-family="Helvetica,sans-Serif" font-size="10.00">ScreeenTest</text>
</a>
</g>
</g>
<!-- Node1&#45;&gt;Node5 -->
<g id="edge4" class="edge"><title>Node1&#45;&gt;Node5</title>
<path fill="none" stroke="midnightblue" d="M104.659,-1013.57C108.753,-1123.38 134.173,-1662.32 242,-1779 247.476,-1784.93 253.923,-1789.78 260.939,-1793.75"/>
<polygon fill="midnightblue" stroke="midnightblue" points="108.156,-1013.43 104.302,-1003.56 101.161,-1013.68 108.156,-1013.43"/>
</g>
<!-- Node6 -->
<g id="node6" class="node"><title>Node6</title>
<g id="a_node6"><a xlink:href="../../d5/d6b/classtests_1_1command_tests_1_1variable_command_tests_1_1_make_variable_tests.html#ab5eb37bd6c4ea2ca691df1a68a9b9e3b" target="_top" xlink:title="tests.commandTests.variable\lCommandTests.MakeVariableTests.\lComplexMakeTest">
<polygon fill="white" stroke="black" points="270.5,-1729.5 270.5,-1770.5 455.5,-1770.5 455.5,-1729.5 270.5,-1729.5"/>
<text text-anchor="start" x="278.5" y="-1758.5" font-family="Helvetica,sans-Serif" font-size="10.00">tests.commandTests.variable</text>
<text text-anchor="start" x="278.5" y="-1747.5" font-family="Helvetica,sans-Serif" font-size="10.00">CommandTests.MakeVariableTests.</text>
<text text-anchor="middle" x="363" y="-1736.5" font-family="Helvetica,sans-Serif" font-size="10.00">ComplexMakeTest</text>
</a>
</g>
</g>
<!-- Node1&#45;&gt;Node6 -->
<g id="edge5" class="edge"><title>Node1&#45;&gt;Node6</title>
<path fill="none" stroke="midnightblue" d="M104.974,-1013.69C110.566,-1118.72 141.92,-1612.22 242,-1719 249.872,-1727.4 259.695,-1733.64 270.31,-1738.26"/>
<polygon fill="midnightblue" stroke="midnightblue" points="108.462,-1013.36 104.452,-1003.56 101.471,-1013.72 108.462,-1013.36"/>
</g>
<!-- Node7 -->
<g id="node7" class="node"><title>Node7</title>
<g id="a_node7"><a xlink:href="../../d4/d7d/classtests_1_1command_tests_1_1multiple_turtle_command_tests_1_1_ask_tests.html#a2b6aad6a6c126cc588781c15ba1ea64e" target="_top" xlink:title="tests.commandTests.multiple\lTurtleCommandTests.AskTests.Complicated\lAskTests">
<polygon fill="white" stroke="black" points="251,-1669.5 251,-1710.5 475,-1710.5 475,-1669.5 251,-1669.5"/>
<text text-anchor="start" x="259" y="-1698.5" font-family="Helvetica,sans-Serif" font-size="10.00">tests.commandTests.multiple</text>
<text text-anchor="start" x="259" y="-1687.5" font-family="Helvetica,sans-Serif" font-size="10.00">TurtleCommandTests.AskTests.Complicated</text>
<text text-anchor="middle" x="363" y="-1676.5" font-family="Helvetica,sans-Serif" font-size="10.00">AskTests</text>
</a>
</g>
</g>
<!-- Node1&#45;&gt;Node7 -->
<g id="edge6" class="edge"><title>Node1&#45;&gt;Node7</title>
<path fill="none" stroke="midnightblue" d="M105.337,-1013.97C112.461,-1114.39 149.174,-1563.32 242,-1660 245.346,-1663.49 249.032,-1666.59 252.97,-1669.35"/>
<polygon fill="midnightblue" stroke="midnightblue" points="108.81,-1013.45 104.628,-1003.72 101.827,-1013.94 108.81,-1013.45"/>
</g>
<!-- Node8 -->
<g id="node8" class="node"><title>Node8</title>
<g id="a_node8"><a xlink:href="../../df/da6/classtests_1_1command_tests_1_1recurring_command_tests_1_1_do_times_tests.html#aa5f316dc50207be97d1b3f2f5d6d3254" target="_top" xlink:title="tests.commandTests.recurring\lCommandTests.DoTimesTests.DoTimesTest">
<polygon fill="white" stroke="black" points="251,-1621 251,-1651 475,-1651 475,-1621 251,-1621"/>
<text text-anchor="start" x="259" y="-1639" font-family="Helvetica,sans-Serif" font-size="10.00">tests.commandTests.recurring</text>
<text text-anchor="middle" x="363" y="-1628" font-family="Helvetica,sans-Serif" font-size="10.00">CommandTests.DoTimesTests.DoTimesTest</text>
</a>
</g>
</g>
<!-- Node1&#45;&gt;Node8 -->
<g id="edge7" class="edge"><title>Node1&#45;&gt;Node8</title>
<path fill="none" stroke="midnightblue" d="M105.621,-1014.08C113.806,-1110.39 153.725,-1524.01 242,-1611 245.865,-1614.81 250.151,-1618.11 254.735,-1620.96"/>
<polygon fill="midnightblue" stroke="midnightblue" points="109.095,-1013.62 104.779,-1003.95 102.12,-1014.2 109.095,-1013.62"/>
</g>
<!-- Node9 -->
<g id="node9" class="node"><title>Node9</title>
<g id="a_node9"><a xlink:href="../../de/dd0/classtests_1_1command_tests_1_1boolean_conditional_commands_1_1_if_else_tests.html#a448522c0bedf2730d8d7459d23710664" target="_top" xlink:title="tests.commandTests.boolean\lConditionalCommands.IfElseTests.\lFalseTest">
<polygon fill="white" stroke="black" points="273,-1561.5 273,-1602.5 453,-1602.5 453,-1561.5 273,-1561.5"/>
<text text-anchor="start" x="281" y="-1590.5" font-family="Helvetica,sans-Serif" font-size="10.00">tests.commandTests.boolean</text>
<text text-anchor="start" x="281" y="-1579.5" font-family="Helvetica,sans-Serif" font-size="10.00">ConditionalCommands.IfElseTests.</text>
<text text-anchor="middle" x="363" y="-1568.5" font-family="Helvetica,sans-Serif" font-size="10.00">FalseTest</text>
</a>
</g>
</g>
<!-- Node1&#45;&gt;Node9 -->
<g id="edge8" class="edge"><title>Node1&#45;&gt;Node9</title>
<path fill="none" stroke="midnightblue" d="M106.174,-1013.78C116.444,-1103.68 162.926,-1472.73 242,-1552 250.644,-1560.67 261.388,-1566.96 272.868,-1571.51"/>
<polygon fill="midnightblue" stroke="midnightblue" points="109.65,-1013.37 105.055,-1003.82 102.694,-1014.15 109.65,-1013.37"/>
</g>
<!-- Node10 -->
<g id="node10" class="node"><title>Node10</title>
<g id="a_node10"><a xlink:href="../../d6/ddd/classtests_1_1command_tests_1_1recurring_command_tests_1_1_for_tests.html#a99599260bfaf1a677515f92b245c48ef" target="_top" xlink:title="tests.commandTests.recurring\lCommandTests.ForTests.ForTest">
<polygon fill="white" stroke="black" points="278,-1513 278,-1543 448,-1543 448,-1513 278,-1513"/>
<text text-anchor="start" x="286" y="-1531" font-family="Helvetica,sans-Serif" font-size="10.00">tests.commandTests.recurring</text>
<text text-anchor="middle" x="363" y="-1520" font-family="Helvetica,sans-Serif" font-size="10.00">CommandTests.ForTests.ForTest</text>
</a>
</g>
</g>
<!-- Node1&#45;&gt;Node10 -->
<g id="edge9" class="edge"><title>Node1&#45;&gt;Node10</title>
<path fill="none" stroke="midnightblue" d="M106.622,-1013.98C118.237,-1099.44 167.783,-1433.06 242,-1503 251.99,-1512.41 264.563,-1518.67 277.784,-1522.76"/>
<polygon fill="midnightblue" stroke="midnightblue" points="110.057,-1013.26 105.262,-1003.82 103.119,-1014.19 110.057,-1013.26"/>
</g>
<!-- Node11 -->
<g id="node11" class="node"><title>Node11</title>
<g id="a_node11"><a xlink:href="../../da/d40/classtests_1_1command_tests_1_1double_input_float_tests_1_1_set_position_tests.html#a8c4797609035e29187628a04f92640e6" target="_top" xlink:title="tests.commandTests.double\lInputFloatTests.SetPositionTests.\lGOTOAfterMovingAndRotatingPenDownTest">
<polygon fill="white" stroke="black" points="252,-1453.5 252,-1494.5 474,-1494.5 474,-1453.5 252,-1453.5"/>
<text text-anchor="start" x="260" y="-1482.5" font-family="Helvetica,sans-Serif" font-size="10.00">tests.commandTests.double</text>
<text text-anchor="start" x="260" y="-1471.5" font-family="Helvetica,sans-Serif" font-size="10.00">InputFloatTests.SetPositionTests.</text>
<text text-anchor="middle" x="363" y="-1460.5" font-family="Helvetica,sans-Serif" font-size="10.00">GOTOAfterMovingAndRotatingPenDownTest</text>
</a>
</g>
</g>
<!-- Node1&#45;&gt;Node11 -->
<g id="edge10" class="edge"><title>Node1&#45;&gt;Node11</title>
<path fill="none" stroke="midnightblue" d="M103.725,-1013.65C103.87,-1083.3 114.106,-1320.78 242,-1443 246.122,-1446.94 250.677,-1450.4 255.531,-1453.43"/>
<polygon fill="midnightblue" stroke="midnightblue" points="107.225,-1013.64 103.776,-1003.62 100.225,-1013.61 107.225,-1013.64"/>
</g>
<!-- Node12 -->
<g id="node12" class="node"><title>Node12</title>
<g id="a_node12"><a xlink:href="../../da/d40/classtests_1_1command_tests_1_1double_input_float_tests_1_1_set_position_tests.html#ad2cc6a193cde42f03dce72b7ca24c8b7" target="_top" xlink:title="tests.commandTests.double\lInputFloatTests.SetPositionTests.\lGOTOAfterMovingAndRotatingPenUpTest">
<polygon fill="white" stroke="black" points="258.5,-1393.5 258.5,-1434.5 467.5,-1434.5 467.5,-1393.5 258.5,-1393.5"/>
<text text-anchor="start" x="266.5" y="-1422.5" font-family="Helvetica,sans-Serif" font-size="10.00">tests.commandTests.double</text>
<text text-anchor="start" x="266.5" y="-1411.5" font-family="Helvetica,sans-Serif" font-size="10.00">InputFloatTests.SetPositionTests.</text>
<text text-anchor="middle" x="363" y="-1400.5" font-family="Helvetica,sans-Serif" font-size="10.00">GOTOAfterMovingAndRotatingPenUpTest</text>
</a>
</g>
</g>
<!-- Node1&#45;&gt;Node12 -->
<g id="edge11" class="edge"><title>Node1&#45;&gt;Node12</title>
<path fill="none" stroke="midnightblue" d="M104.807,-1013.88C108.512,-1077.76 129.055,-1279.59 242,-1383 246.92,-1387.5 252.408,-1391.37 258.254,-1394.69"/>
<polygon fill="midnightblue" stroke="midnightblue" points="108.289,-1013.43 104.293,-1003.62 101.298,-1013.78 108.289,-1013.43"/>
</g>
<!-- Node13 -->
<g id="node13" class="node"><title>Node13</title>
<g id="a_node13"><a xlink:href="../../d7/df6/classtests_1_1command_tests_1_1inputless_command_tests_1_1_home_tests.html#afcc925796f701630a22527f2a96c4729" target="_top" xlink:title="tests.commandTests.inputless\lCommandTests.HomeTests.HomeAfter\lMovingAndRotatingPenDownTest">
<polygon fill="white" stroke="black" points="261.5,-1333.5 261.5,-1374.5 464.5,-1374.5 464.5,-1333.5 261.5,-1333.5"/>
<text text-anchor="start" x="269.5" y="-1362.5" font-family="Helvetica,sans-Serif" font-size="10.00">tests.commandTests.inputless</text>
<text text-anchor="start" x="269.5" y="-1351.5" font-family="Helvetica,sans-Serif" font-size="10.00">CommandTests.HomeTests.HomeAfter</text>
<text text-anchor="middle" x="363" y="-1340.5" font-family="Helvetica,sans-Serif" font-size="10.00">MovingAndRotatingPenDownTest</text>
</a>
</g>
</g>
<!-- Node1&#45;&gt;Node13 -->
<g id="edge12" class="edge"><title>Node1&#45;&gt;Node13</title>
<path fill="none" stroke="midnightblue" d="M106.234,-1013.78C113.778,-1070.98 143.617,-1237.88 242,-1323 247.858,-1328.07 254.442,-1332.32 261.431,-1335.9"/>
<polygon fill="midnightblue" stroke="midnightblue" points="109.675,-1013.08 104.977,-1003.59 102.727,-1013.94 109.675,-1013.08"/>
</g>
<!-- Node14 -->
<g id="node14" class="node"><title>Node14</title>
<g id="a_node14"><a xlink:href="../../d7/df6/classtests_1_1command_tests_1_1inputless_command_tests_1_1_home_tests.html#ac10c51ce63994861bf97231280a3959c" target="_top" xlink:title="tests.commandTests.inputless\lCommandTests.HomeTests.HomeAfter\lMovingAndRotatingPenUpTest">
<polygon fill="white" stroke="black" points="261.5,-1273.5 261.5,-1314.5 464.5,-1314.5 464.5,-1273.5 261.5,-1273.5"/>
<text text-anchor="start" x="269.5" y="-1302.5" font-family="Helvetica,sans-Serif" font-size="10.00">tests.commandTests.inputless</text>
<text text-anchor="start" x="269.5" y="-1291.5" font-family="Helvetica,sans-Serif" font-size="10.00">CommandTests.HomeTests.HomeAfter</text>
<text text-anchor="middle" x="363" y="-1280.5" font-family="Helvetica,sans-Serif" font-size="10.00">MovingAndRotatingPenUpTest</text>
</a>
</g>
</g>
<!-- Node1&#45;&gt;Node14 -->
<g id="edge13" class="edge"><title>Node1&#45;&gt;Node14</title>
<path fill="none" stroke="midnightblue" d="M108.166,-1013.44C119.861,-1063.13 157.793,-1195.63 242,-1263 247.88,-1267.7 254.396,-1271.7 261.263,-1275.1"/>
<polygon fill="midnightblue" stroke="midnightblue" points="111.572,-1012.63 105.954,-1003.65 104.744,-1014.17 111.572,-1012.63"/>
</g>
<!-- Node15 -->
<g id="node15" class="node"><title>Node15</title>
<g id="a_node15"><a xlink:href="../../d7/d98/classtests_1_1command_tests_1_1single_input_float_tests_1_1_right_tests.html#a3a6b433a84b6ba93f066e3549e5d1e0d" target="_top" xlink:title="tests.commandTests.single\lInputFloatTests.RightTests.Integer\lParsingTest">
<polygon fill="white" stroke="black" points="275,-1213.5 275,-1254.5 451,-1254.5 451,-1213.5 275,-1213.5"/>
<text text-anchor="start" x="283" y="-1242.5" font-family="Helvetica,sans-Serif" font-size="10.00">tests.commandTests.single</text>
<text text-anchor="start" x="283" y="-1231.5" font-family="Helvetica,sans-Serif" font-size="10.00">InputFloatTests.RightTests.Integer</text>
<text text-anchor="middle" x="363" y="-1220.5" font-family="Helvetica,sans-Serif" font-size="10.00">ParsingTest</text>
</a>
</g>
</g>
<!-- Node1&#45;&gt;Node15 -->
<g id="edge14" class="edge"><title>Node1&#45;&gt;Node15</title>
<path fill="none" stroke="midnightblue" d="M111.077,-1013.18C127.384,-1054.61 171.683,-1152.8 242,-1203 251.894,-1210.06 263.267,-1215.52 274.982,-1219.73"/>
<polygon fill="midnightblue" stroke="midnightblue" points="114.299,-1011.8 107.456,-1003.72 107.762,-1014.31 114.299,-1011.8"/>
</g>
<!-- Node16 -->
<g id="node16" class="node"><title>Node16</title>
<g id="a_node16"><a xlink:href="../../d5/d82/classtests_1_1command_tests_1_1single_input_float_tests_1_1_left_tests.html#a166f527d8bebc25f9316c9720d4dc401" target="_top" xlink:title="tests.commandTests.single\lInputFloatTests.LeftTests.Integer\lParsingTest">
<polygon fill="white" stroke="black" points="278,-1153.5 278,-1194.5 448,-1194.5 448,-1153.5 278,-1153.5"/>
<text text-anchor="start" x="286" y="-1182.5" font-family="Helvetica,sans-Serif" font-size="10.00">tests.commandTests.single</text>
<text text-anchor="start" x="286" y="-1171.5" font-family="Helvetica,sans-Serif" font-size="10.00">InputFloatTests.LeftTests.Integer</text>
<text text-anchor="middle" x="363" y="-1160.5" font-family="Helvetica,sans-Serif" font-size="10.00">ParsingTest</text>
</a>
</g>
</g>
<!-- Node1&#45;&gt;Node16 -->
<g id="edge15" class="edge"><title>Node1&#45;&gt;Node16</title>
<path fill="none" stroke="midnightblue" d="M115.821,-1012.51C137.087,-1044.25 184.935,-1108.93 242,-1143 252.993,-1149.56 265.358,-1154.75 277.863,-1158.85"/>
<polygon fill="midnightblue" stroke="midnightblue" points="118.508,-1010.22 110.094,-1003.79 112.657,-1014.07 118.508,-1010.22"/>
</g>
<!-- Node17 -->
<g id="node17" class="node"><title>Node17</title>
<g id="a_node17"><a xlink:href="../../dd/d37/classtests_1_1command_tests_1_1single_input_float_tests_1_1_forward_tests.html#a2b01efc578f2ffe237935420b252a13a" target="_top" xlink:title="tests.commandTests.single\lInputFloatTests.ForwardTests.Integer\lParsingTest">
<polygon fill="white" stroke="black" points="268.5,-1093.5 268.5,-1134.5 457.5,-1134.5 457.5,-1093.5 268.5,-1093.5"/>
<text text-anchor="start" x="276.5" y="-1122.5" font-family="Helvetica,sans-Serif" font-size="10.00">tests.commandTests.single</text>
<text text-anchor="start" x="276.5" y="-1111.5" font-family="Helvetica,sans-Serif" font-size="10.00">InputFloatTests.ForwardTests.Integer</text>
<text text-anchor="middle" x="363" y="-1100.5" font-family="Helvetica,sans-Serif" font-size="10.00">ParsingTest</text>
</a>
</g>
</g>
<!-- Node1&#45;&gt;Node17 -->
<g id="edge16" class="edge"><title>Node1&#45;&gt;Node17</title>
<path fill="none" stroke="midnightblue" d="M124.025,-1009.88C149.877,-1029.66 196.916,-1063.25 242,-1083 250.869,-1086.88 260.329,-1090.36 269.896,-1093.45"/>
<polygon fill="midnightblue" stroke="midnightblue" points="125.85,-1006.87 115.802,-1003.51 121.56,-1012.4 125.85,-1006.87"/>
</g>
<!-- Node18 -->
<g id="node18" class="node"><title>Node18</title>
<g id="a_node18"><a xlink:href="../../d6/d12/classtests_1_1command_tests_1_1single_input_float_tests_1_1_backward_tests.html#a34376ecd3774a0e8403c326ffcd9c975" target="_top" xlink:title="tests.commandTests.single\lInputFloatTests.BackwardTests.\lIntegerParsingTest">
<polygon fill="white" stroke="black" points="281,-1033.5 281,-1074.5 445,-1074.5 445,-1033.5 281,-1033.5"/>
<text text-anchor="start" x="289" y="-1062.5" font-family="Helvetica,sans-Serif" font-size="10.00">tests.commandTests.single</text>
<text text-anchor="start" x="289" y="-1051.5" font-family="Helvetica,sans-Serif" font-size="10.00">InputFloatTests.BackwardTests.</text>
<text text-anchor="middle" x="363" y="-1040.5" font-family="Helvetica,sans-Serif" font-size="10.00">IntegerParsingTest</text>
</a>
</g>
</g>
<!-- Node1&#45;&gt;Node18 -->
<g id="edge17" class="edge"><title>Node1&#45;&gt;Node18</title>
<path fill="none" stroke="midnightblue" d="M154.658,-1005.78C190.612,-1014.14 239.635,-1025.54 280.986,-1035.16"/>
<polygon fill="midnightblue" stroke="midnightblue" points="155.414,-1002.36 144.881,-1003.51 153.828,-1009.18 155.414,-1002.36"/>
</g>
<!-- Node19 -->
<g id="node19" class="node"><title>Node19</title>
<g id="a_node19"><a xlink:href="../../df/dde/classtests_1_1command_tests_1_1user_defined_command_tests_1_1_make_user_instruction_tests.html#a43b4b411c31260c575955a7939330f46" target="_top" xlink:title="tests.commandTests.userDefined\lCommandTests.MakeUserInstruction\lTests.MakeCommandTestWithPreviousVariables">
<polygon fill="white" stroke="black" points="242,-973.5 242,-1014.5 484,-1014.5 484,-973.5 242,-973.5"/>
<text text-anchor="start" x="250" y="-1002.5" font-family="Helvetica,sans-Serif" font-size="10.00">tests.commandTests.userDefined</text>
<text text-anchor="start" x="250" y="-991.5" font-family="Helvetica,sans-Serif" font-size="10.00">CommandTests.MakeUserInstruction</text>
<text text-anchor="middle" x="363" y="-980.5" font-family="Helvetica,sans-Serif" font-size="10.00">Tests.MakeCommandTestWithPreviousVariables</text>
</a>
</g>
</g>
<!-- Node1&#45;&gt;Node19 -->
<g id="edge18" class="edge"><title>Node1&#45;&gt;Node19</title>
<path fill="none" stroke="midnightblue" d="M216.532,-994C224.935,-994 233.432,-994 241.879,-994"/>
<polygon fill="midnightblue" stroke="midnightblue" points="216.339,-990.5 206.339,-994 216.339,-997.5 216.339,-990.5"/>
</g>
<!-- Node20 -->
<g id="node20" class="node"><title>Node20</title>
<g id="a_node20"><a xlink:href="../../d5/d6b/classtests_1_1command_tests_1_1variable_command_tests_1_1_make_variable_tests.html#a60c68761715a7d772de6698b71957c95" target="_top" xlink:title="tests.commandTests.variable\lCommandTests.MakeVariableTests.\lMakeTest">
<polygon fill="white" stroke="black" points="270.5,-913.5 270.5,-954.5 455.5,-954.5 455.5,-913.5 270.5,-913.5"/>
<text text-anchor="start" x="278.5" y="-942.5" font-family="Helvetica,sans-Serif" font-size="10.00">tests.commandTests.variable</text>
<text text-anchor="start" x="278.5" y="-931.5" font-family="Helvetica,sans-Serif" font-size="10.00">CommandTests.MakeVariableTests.</text>
<text text-anchor="middle" x="363" y="-920.5" font-family="Helvetica,sans-Serif" font-size="10.00">MakeTest</text>
</a>
</g>
</g>
<!-- Node1&#45;&gt;Node20 -->
<g id="edge19" class="edge"><title>Node1&#45;&gt;Node20</title>
<path fill="none" stroke="midnightblue" d="M154.998,-982.14C188.846,-974.268 234.166,-963.729 273.771,-954.518"/>
<polygon fill="midnightblue" stroke="midnightblue" points="153.828,-978.819 144.881,-984.493 155.414,-985.637 153.828,-978.819"/>
</g>
<!-- Node21 -->
<g id="node21" class="node"><title>Node21</title>
<g id="a_node21"><a xlink:href="../../de/d22/classtests_1_1command_tests_1_1inputless_command_tests_1_1_make_turtle_test.html#ab56121f76e6b159a70ad8e21a1f6ffc4" target="_top" xlink:title="tests.commandTests.inputless\lCommandTests.MakeTurtleTest.Make\lTurtleIncrementsIDTester">
<polygon fill="white" stroke="black" points="267,-853.5 267,-894.5 459,-894.5 459,-853.5 267,-853.5"/>
<text text-anchor="start" x="275" y="-882.5" font-family="Helvetica,sans-Serif" font-size="10.00">tests.commandTests.inputless</text>
<text text-anchor="start" x="275" y="-871.5" font-family="Helvetica,sans-Serif" font-size="10.00">CommandTests.MakeTurtleTest.Make</text>
<text text-anchor="middle" x="363" y="-860.5" font-family="Helvetica,sans-Serif" font-size="10.00">TurtleIncrementsIDTester</text>
</a>
</g>
</g>
<!-- Node1&#45;&gt;Node21 -->
<g id="edge20" class="edge"><title>Node1&#45;&gt;Node21</title>
<path fill="none" stroke="midnightblue" d="M123.632,-978.132C149.352,-958.091 196.542,-923.836 242,-904 249.971,-900.522 258.424,-897.393 267.006,-894.591"/>
<polygon fill="midnightblue" stroke="midnightblue" points="121.446,-975.398 115.766,-984.342 125.784,-980.893 121.446,-975.398"/>
</g>
<!-- Node22 -->
<g id="node22" class="node"><title>Node22</title>
<g id="a_node22"><a xlink:href="../../de/d22/classtests_1_1command_tests_1_1inputless_command_tests_1_1_make_turtle_test.html#a8fdacc9285f1c96a4c5953a1f2e44840" target="_top" xlink:title="tests.commandTests.inputless\lCommandTests.MakeTurtleTest.Make\lTurtleTester">
<polygon fill="white" stroke="black" points="267,-793.5 267,-834.5 459,-834.5 459,-793.5 267,-793.5"/>
<text text-anchor="start" x="275" y="-822.5" font-family="Helvetica,sans-Serif" font-size="10.00">tests.commandTests.inputless</text>
<text text-anchor="start" x="275" y="-811.5" font-family="Helvetica,sans-Serif" font-size="10.00">CommandTests.MakeTurtleTest.Make</text>
<text text-anchor="middle" x="363" y="-800.5" font-family="Helvetica,sans-Serif" font-size="10.00">TurtleTester</text>
</a>
</g>
</g>
<!-- Node1&#45;&gt;Node22 -->
<g id="edge21" class="edge"><title>Node1&#45;&gt;Node22</title>
<path fill="none" stroke="midnightblue" d="M115.762,-975.319C136.937,-943.291 184.652,-878.066 242,-844 249.754,-839.394 258.194,-835.491 266.886,-832.186"/>
<polygon fill="midnightblue" stroke="midnightblue" points="112.559,-973.826 110.061,-984.122 118.435,-977.631 112.559,-973.826"/>
</g>
<!-- Node23 -->
<g id="node23" class="node"><title>Node23</title>
<g id="a_node23"><a xlink:href="../../d5/d6b/classtests_1_1command_tests_1_1variable_command_tests_1_1_make_variable_tests.html#aa7a8a3fdce7d87721520fc5b1a00c0b4" target="_top" xlink:title="tests.commandTests.variable\lCommandTests.MakeVariableTests.\lManyMakeTest">
<polygon fill="white" stroke="black" points="270.5,-733.5 270.5,-774.5 455.5,-774.5 455.5,-733.5 270.5,-733.5"/>
<text text-anchor="start" x="278.5" y="-762.5" font-family="Helvetica,sans-Serif" font-size="10.00">tests.commandTests.variable</text>
<text text-anchor="start" x="278.5" y="-751.5" font-family="Helvetica,sans-Serif" font-size="10.00">CommandTests.MakeVariableTests.</text>
<text text-anchor="middle" x="363" y="-740.5" font-family="Helvetica,sans-Serif" font-size="10.00">ManyMakeTest</text>
</a>
</g>
</g>
<!-- Node1&#45;&gt;Node23 -->
<g id="edge22" class="edge"><title>Node1&#45;&gt;Node23</title>
<path fill="none" stroke="midnightblue" d="M111.021,-974.69C127.216,-932.974 171.307,-834.17 242,-784 250.581,-777.91 260.274,-773.052 270.338,-769.178"/>
<polygon fill="midnightblue" stroke="midnightblue" points="107.682,-973.624 107.426,-984.216 114.231,-976.095 107.682,-973.624"/>
</g>
<!-- Node24 -->
<g id="node24" class="node"><title>Node24</title>
<g id="a_node24"><a xlink:href="../../d8/da3/classtests_1_1command_tests_1_1multiple_turtle_command_tests_1_1_ask_with_tests.html#a240881e86ec4ad319cc420ce196b0351" target="_top" xlink:title="tests.commandTests.multiple\lTurtleCommandTests.AskWithTests.\lMultipleTurtleAskWithTests">
<polygon fill="white" stroke="black" points="271,-673.5 271,-714.5 455,-714.5 455,-673.5 271,-673.5"/>
<text text-anchor="start" x="279" y="-702.5" font-family="Helvetica,sans-Serif" font-size="10.00">tests.commandTests.multiple</text>
<text text-anchor="start" x="279" y="-691.5" font-family="Helvetica,sans-Serif" font-size="10.00">TurtleCommandTests.AskWithTests.</text>
<text text-anchor="middle" x="363" y="-680.5" font-family="Helvetica,sans-Serif" font-size="10.00">MultipleTurtleAskWithTests</text>
</a>
</g>
</g>
<!-- Node1&#45;&gt;Node24 -->
<g id="edge23" class="edge"><title>Node1&#45;&gt;Node24</title>
<path fill="none" stroke="midnightblue" d="M108.112,-974.455C119.679,-924.492 157.332,-791.305 242,-724 250.573,-717.185 260.493,-711.895 270.883,-707.792"/>
<polygon fill="midnightblue" stroke="midnightblue" points="104.677,-973.778 105.926,-984.299 111.511,-975.296 104.677,-973.778"/>
</g>
<!-- Node25 -->
<g id="node25" class="node"><title>Node25</title>
<g id="a_node25"><a xlink:href="../../d8/da3/classtests_1_1command_tests_1_1multiple_turtle_command_tests_1_1_ask_with_tests.html#ace302d80756057ceb2241cbe8d85d690" target="_top" xlink:title="tests.commandTests.multiple\lTurtleCommandTests.AskWithTests.\lMultipleTurtlesWithConditionAskWithTests">
<polygon fill="white" stroke="black" points="257.5,-613.5 257.5,-654.5 468.5,-654.5 468.5,-613.5 257.5,-613.5"/>
<text text-anchor="start" x="265.5" y="-642.5" font-family="Helvetica,sans-Serif" font-size="10.00">tests.commandTests.multiple</text>
<text text-anchor="start" x="265.5" y="-631.5" font-family="Helvetica,sans-Serif" font-size="10.00">TurtleCommandTests.AskWithTests.</text>
<text text-anchor="middle" x="363" y="-620.5" font-family="Helvetica,sans-Serif" font-size="10.00">MultipleTurtlesWithConditionAskWithTests</text>
</a>
</g>
</g>
<!-- Node1&#45;&gt;Node25 -->
<g id="edge24" class="edge"><title>Node1&#45;&gt;Node25</title>
<path fill="none" stroke="midnightblue" d="M106.182,-974.122C113.584,-916.653 143.076,-749.002 242,-664 246.723,-659.941 251.917,-656.417 257.412,-653.359"/>
<polygon fill="midnightblue" stroke="midnightblue" points="102.669,-974.021 104.951,-984.367 109.619,-974.856 102.669,-974.021"/>
</g>
<!-- Node26 -->
<g id="node26" class="node"><title>Node26</title>
<g id="a_node26"><a xlink:href="../../d0/db8/classtests_1_1command_tests_1_1recurring_command_tests_1_1_repeat_tests.html#a5e8690fdaf2c7910f6c3c81d5570736a" target="_top" xlink:title="tests.commandTests.recurring\lCommandTests.RepeatTests.RepeatTest">
<polygon fill="white" stroke="black" points="260,-565 260,-595 466,-595 466,-565 260,-565"/>
<text text-anchor="start" x="268" y="-583" font-family="Helvetica,sans-Serif" font-size="10.00">tests.commandTests.recurring</text>
<text text-anchor="middle" x="363" y="-572" font-family="Helvetica,sans-Serif" font-size="10.00">CommandTests.RepeatTests.RepeatTest</text>
</a>
</g>
</g>
<!-- Node1&#45;&gt;Node26 -->
<g id="edge25" class="edge"><title>Node1&#45;&gt;Node26</title>
<path fill="none" stroke="midnightblue" d="M104.54,-974.209C107.43,-909.83 125.769,-704.724 242,-604 247.379,-599.339 253.405,-595.487 259.816,-592.311"/>
<polygon fill="midnightblue" stroke="midnightblue" points="101.041,-974.107 104.168,-984.23 108.036,-974.367 101.041,-974.107"/>
</g>
<!-- Node27 -->
<g id="node27" class="node"><title>Node27</title>
<g id="a_node27"><a xlink:href="../../d1/d22/classtests_1_1command_tests_1_1color_command_tests_1_1_set_background_tests.html#a3daef0777fd1a883b79138c5e3a0f518" target="_top" xlink:title="tests.commandTests.color\lCommandTests.SetBackgroundTests.\lSetBackgroundTest">
<polygon fill="white" stroke="black" points="266,-505.5 266,-546.5 460,-546.5 460,-505.5 266,-505.5"/>
<text text-anchor="start" x="274" y="-534.5" font-family="Helvetica,sans-Serif" font-size="10.00">tests.commandTests.color</text>
<text text-anchor="start" x="274" y="-523.5" font-family="Helvetica,sans-Serif" font-size="10.00">CommandTests.SetBackgroundTests.</text>
<text text-anchor="middle" x="363" y="-512.5" font-family="Helvetica,sans-Serif" font-size="10.00">SetBackgroundTest</text>
</a>
</g>
</g>
<!-- Node1&#45;&gt;Node27 -->
<g id="edge26" class="edge"><title>Node1&#45;&gt;Node27</title>
<path fill="none" stroke="midnightblue" d="M103.871,-973.911C104.573,-904.717 116.615,-674.05 242,-556 248.958,-549.449 257.122,-544.27 265.864,-540.182"/>
<polygon fill="midnightblue" stroke="midnightblue" points="100.37,-974.237 103.843,-984.246 107.37,-974.256 100.37,-974.237"/>
</g>
<!-- Node28 -->
<g id="node28" class="node"><title>Node28</title>
<g id="a_node28"><a xlink:href="../../dd/d5d/classtests_1_1command_tests_1_1single_input_float_tests_1_1_set_heading.html#a5e3a626c7a3f62fe1144dec3053248f4" target="_top" xlink:title="tests.commandTests.single\lInputFloatTests.SetHeading.Set\lHeadingNoInitialHeading">
<polygon fill="white" stroke="black" points="279.5,-445.5 279.5,-486.5 446.5,-486.5 446.5,-445.5 279.5,-445.5"/>
<text text-anchor="start" x="287.5" y="-474.5" font-family="Helvetica,sans-Serif" font-size="10.00">tests.commandTests.single</text>
<text text-anchor="start" x="287.5" y="-463.5" font-family="Helvetica,sans-Serif" font-size="10.00">InputFloatTests.SetHeading.Set</text>
<text text-anchor="middle" x="363" y="-452.5" font-family="Helvetica,sans-Serif" font-size="10.00">HeadingNoInitialHeading</text>
</a>
</g>
</g>
<!-- Node1&#45;&gt;Node28 -->
<g id="edge27" class="edge"><title>Node1&#45;&gt;Node28</title>
<path fill="none" stroke="midnightblue" d="M106.757,-974.521C118.93,-891.189 170.451,-565.758 242,-496 252.302,-485.956 265.431,-479.114 279.202,-474.487"/>
<polygon fill="midnightblue" stroke="midnightblue" points="103.291,-974.033 105.329,-984.43 110.22,-975.031 103.291,-974.033"/>
</g>
<!-- Node29 -->
<g id="node29" class="node"><title>Node29</title>
<g id="a_node29"><a xlink:href="../../dd/d5d/classtests_1_1command_tests_1_1single_input_float_tests_1_1_set_heading.html#a4b00690279d171214dedc415f5bfe36c" target="_top" xlink:title="tests.commandTests.single\lInputFloatTests.SetHeading.Set\lHeadingWithPreviousHeading">
<polygon fill="white" stroke="black" points="279.5,-385.5 279.5,-426.5 446.5,-426.5 446.5,-385.5 279.5,-385.5"/>
<text text-anchor="start" x="287.5" y="-414.5" font-family="Helvetica,sans-Serif" font-size="10.00">tests.commandTests.single</text>
<text text-anchor="start" x="287.5" y="-403.5" font-family="Helvetica,sans-Serif" font-size="10.00">InputFloatTests.SetHeading.Set</text>
<text text-anchor="middle" x="363" y="-392.5" font-family="Helvetica,sans-Serif" font-size="10.00">HeadingWithPreviousHeading</text>
</a>
</g>
</g>
<!-- Node1&#45;&gt;Node29 -->
<g id="edge28" class="edge"><title>Node1&#45;&gt;Node29</title>
<path fill="none" stroke="midnightblue" d="M106.174,-974.219C116.444,-884.324 162.926,-515.275 242,-436 252.237,-425.737 265.418,-418.801 279.279,-414.15"/>
<polygon fill="midnightblue" stroke="midnightblue" points="102.694,-973.849 105.055,-984.177 109.65,-974.63 102.694,-973.849"/>
</g>
<!-- Node30 -->
<g id="node30" class="node"><title>Node30</title>
<g id="a_node30"><a xlink:href="../../d4/d7d/classtests_1_1command_tests_1_1multiple_turtle_command_tests_1_1_ask_tests.html#a5a4f933f1ab15a1df2f6025de737eaec" target="_top" xlink:title="tests.commandTests.multiple\lTurtleCommandTests.AskTests.Simple\lAskTests">
<polygon fill="white" stroke="black" points="264.5,-325.5 264.5,-366.5 461.5,-366.5 461.5,-325.5 264.5,-325.5"/>
<text text-anchor="start" x="272.5" y="-354.5" font-family="Helvetica,sans-Serif" font-size="10.00">tests.commandTests.multiple</text>
<text text-anchor="start" x="272.5" y="-343.5" font-family="Helvetica,sans-Serif" font-size="10.00">TurtleCommandTests.AskTests.Simple</text>
<text text-anchor="middle" x="363" y="-332.5" font-family="Helvetica,sans-Serif" font-size="10.00">AskTests</text>
</a>
</g>
</g>
<!-- Node1&#45;&gt;Node30 -->
<g id="edge29" class="edge"><title>Node1&#45;&gt;Node30</title>
<path fill="none" stroke="midnightblue" d="M105.689,-973.964C114.188,-877.832 155.346,-464.873 242,-376 248.446,-369.389 256.113,-364.152 264.408,-360.014"/>
<polygon fill="midnightblue" stroke="midnightblue" points="102.189,-973.809 104.813,-984.074 109.163,-974.413 102.189,-973.809"/>
</g>
<!-- Node31 -->
<g id="node31" class="node"><title>Node31</title>
<g id="a_node31"><a xlink:href="../../d8/da3/classtests_1_1command_tests_1_1multiple_turtle_command_tests_1_1_ask_with_tests.html#a3c211ef3037b2fb12fe3e369cfae74d8" target="_top" xlink:title="tests.commandTests.multiple\lTurtleCommandTests.AskWithTests.\lSimpleAskWithTests">
<polygon fill="white" stroke="black" points="271,-265.5 271,-306.5 455,-306.5 455,-265.5 271,-265.5"/>
<text text-anchor="start" x="279" y="-294.5" font-family="Helvetica,sans-Serif" font-size="10.00">tests.commandTests.multiple</text>
<text text-anchor="start" x="279" y="-283.5" font-family="Helvetica,sans-Serif" font-size="10.00">TurtleCommandTests.AskWithTests.</text>
<text text-anchor="middle" x="363" y="-272.5" font-family="Helvetica,sans-Serif" font-size="10.00">SimpleAskWithTests</text>
</a>
</g>
</g>
<!-- Node1&#45;&gt;Node31 -->
<g id="edge30" class="edge"><title>Node1&#45;&gt;Node31</title>
<path fill="none" stroke="midnightblue" d="M105.261,-973.988C112.065,-872.386 147.647,-414.617 242,-316 250.017,-307.621 259.991,-301.442 270.739,-296.908"/>
<polygon fill="midnightblue" stroke="midnightblue" points="101.759,-973.901 104.601,-984.107 108.745,-974.356 101.759,-973.901"/>
</g>
<!-- Node32 -->
<g id="node32" class="node"><title>Node32</title>
<g id="a_node32"><a xlink:href="../../d3/d7b/classtests_1_1command_tests_1_1multiple_turtle_command_tests_1_1_tell_tests.html#a34e1bf417818e254247d153d3bb0ffbf" target="_top" xlink:title="tests.commandTests.multiple\lTurtleCommandTests.TellTests.Simple\lTellTests">
<polygon fill="white" stroke="black" points="266,-205.5 266,-246.5 460,-246.5 460,-205.5 266,-205.5"/>
<text text-anchor="start" x="274" y="-234.5" font-family="Helvetica,sans-Serif" font-size="10.00">tests.commandTests.multiple</text>
<text text-anchor="start" x="274" y="-223.5" font-family="Helvetica,sans-Serif" font-size="10.00">TurtleCommandTests.TellTests.Simple</text>
<text text-anchor="middle" x="363" y="-212.5" font-family="Helvetica,sans-Serif" font-size="10.00">TellTests</text>
</a>
</g>
</g>
<!-- Node1&#45;&gt;Node32 -->
<g id="edge31" class="edge"><title>Node1&#45;&gt;Node32</title>
<path fill="none" stroke="midnightblue" d="M104.89,-974.269C110.079,-867.994 139.835,-364.499 242,-256 248.772,-248.808 256.985,-243.232 265.902,-238.924"/>
<polygon fill="midnightblue" stroke="midnightblue" points="101.393,-974.112 104.418,-984.266 108.385,-974.442 101.393,-974.112"/>
</g>
<!-- Node33 -->
<g id="node33" class="node"><title>Node33</title>
<g id="a_node33"><a xlink:href="../../d8/dcc/classtests_1_1command_tests_1_1inputless_command_tests_1_1_clear_stamps_test.html#ae7d3640d990fa8bdffe17607e256acf9" target="_top" xlink:title="tests.commandTests.inputless\lCommandTests.ClearStampsTest.StampTest">
<polygon fill="white" stroke="black" points="248.5,-157 248.5,-187 477.5,-187 477.5,-157 248.5,-157"/>
<text text-anchor="start" x="256.5" y="-175" font-family="Helvetica,sans-Serif" font-size="10.00">tests.commandTests.inputless</text>
<text text-anchor="middle" x="363" y="-164" font-family="Helvetica,sans-Serif" font-size="10.00">CommandTests.ClearStampsTest.StampTest</text>
</a>
</g>
</g>
<!-- Node1&#45;&gt;Node33 -->
<g id="edge32" class="edge"><title>Node1&#45;&gt;Node33</title>
<path fill="none" stroke="midnightblue" d="M104.496,-974.367C107.715,-863.016 129.241,-311.748 242,-196 245.262,-192.652 248.849,-189.702 252.682,-187.107"/>
<polygon fill="midnightblue" stroke="midnightblue" points="100.993,-974.405 104.219,-984.497 107.991,-974.596 100.993,-974.405"/>
</g>
<!-- Node34 -->
<g id="node34" class="node"><title>Node34</title>
<g id="a_node34"><a xlink:href="../../d3/ded/classtests_1_1command_tests_1_1inputless_command_tests_1_1_stamp_tests.html#a8a982387e5d4976b4b09e61e45a7680c" target="_top" xlink:title="tests.commandTests.inputless\lCommandTests.StampTests.StampTest">
<polygon fill="white" stroke="black" points="261,-108 261,-138 465,-138 465,-108 261,-108"/>
<text text-anchor="start" x="269" y="-126" font-family="Helvetica,sans-Serif" font-size="10.00">tests.commandTests.inputless</text>
<text text-anchor="middle" x="363" y="-115" font-family="Helvetica,sans-Serif" font-size="10.00">CommandTests.StampTests.StampTest</text>
</a>
</g>
</g>
<!-- Node1&#45;&gt;Node34 -->
<g id="edge33" class="edge"><title>Node1&#45;&gt;Node34</title>
<path fill="none" stroke="midnightblue" d="M104.302,-974.3C106.484,-858.95 123.36,-271.941 242,-148 247.445,-142.312 253.822,-137.746 260.749,-134.096"/>
<polygon fill="midnightblue" stroke="midnightblue" points="100.8,-974.418 104.126,-984.478 107.799,-974.54 100.8,-974.418"/>
</g>
<!-- Node35 -->
<g id="node35" class="node"><title>Node35</title>
<g id="a_node35"><a xlink:href="../../d0/daa/classtests_1_1command_tests_1_1boolean_conditional_commands_1_1_if_tests.html#a81f66c4424ed40f2aada715ef51244bd" target="_top" xlink:title="tests.commandTests.boolean\lConditionalCommands.IfTests.TrueTest">
<polygon fill="white" stroke="black" points="263.5,-59 263.5,-89 462.5,-89 462.5,-59 263.5,-59"/>
<text text-anchor="start" x="271.5" y="-77" font-family="Helvetica,sans-Serif" font-size="10.00">tests.commandTests.boolean</text>
<text text-anchor="middle" x="363" y="-66" font-family="Helvetica,sans-Serif" font-size="10.00">ConditionalCommands.IfTests.TrueTest</text>
</a>
</g>
</g>
<!-- Node1&#45;&gt;Node35 -->
<g id="edge34" class="edge"><title>Node1&#45;&gt;Node35</title>
<path fill="none" stroke="midnightblue" d="M104.111,-974.293C105.194,-855.064 116.846,-230.892 242,-99 248.079,-92.5937 255.341,-87.6075 263.242,-83.7493"/>
<polygon fill="midnightblue" stroke="midnightblue" points="100.61,-974.461 104.034,-984.487 107.609,-974.514 100.61,-974.461"/>
</g>
<!-- Node36 -->
<g id="node36" class="node"><title>Node36</title>
<g id="a_node36"><a xlink:href="../../de/dd0/classtests_1_1command_tests_1_1boolean_conditional_commands_1_1_if_else_tests.html#ab72bba57dfa24c125aebcedbaaab10d2" target="_top" xlink:title="tests.commandTests.boolean\lConditionalCommands.IfElseTests.\lTrueTest">
<polygon fill="white" stroke="black" points="273,0.5 273,-40.5 453,-40.5 453,0.5 273,0.5"/>
<text text-anchor="start" x="281" y="-28.5" font-family="Helvetica,sans-Serif" font-size="10.00">tests.commandTests.boolean</text>
<text text-anchor="start" x="281" y="-17.5" font-family="Helvetica,sans-Serif" font-size="10.00">ConditionalCommands.IfElseTests.</text>
<text text-anchor="middle" x="363" y="-6.5" font-family="Helvetica,sans-Serif" font-size="10.00">TrueTest</text>
</a>
</g>
</g>
<!-- Node1&#45;&gt;Node36 -->
<g id="edge35" class="edge"><title>Node1&#45;&gt;Node36</title>
<path fill="none" stroke="midnightblue" d="M104.014,-974.061C104.508,-850.722 113.215,-192.327 242,-50 250.429,-40.6848 261.272,-34.0604 272.985,-29.3833"/>
<polygon fill="midnightblue" stroke="midnightblue" points="100.513,-974.283 103.988,-984.292 107.513,-974.301 100.513,-974.283"/>
</g>
</g>
</svg>
        <g id="navigator" transform="translate(0 0)" fill="#404254">
                <rect fill="#f2f5e9" fill-opacity="0.5" stroke="#606060" stroke-width=".5" x="0" y="0" width="60" height="60"/>
                <use id="zoomplus" xlink:href="#zoomPlus" x="17" y="9" onmousedown="handleZoom(evt,'in')"/>
                <use id="zoomminus" xlink:href="#zoomMin" x="42" y="9" onmousedown="handleZoom(evt,'out')"/>
                <use id="reset" xlink:href="#resetDef" x="30" y="36" onmousedown="handleReset()"/>
                <g id="arrowUp" xlink:href="#dirArrow" transform="translate(30 24)" onmousedown="handlePan(0,-1)">
                  <use xlink:href="#rim" fill="#404040">
                        <set attributeName="fill" to="#808080" begin="arrowUp.mouseover" end="arrowUp.mouseout"/>
                  </use>
                  <path fill="none" stroke="white" stroke-width="1.5" d="M0,-3.0v7 M-2.5,-0.5L0,-3.0L2.5,-0.5"/>
                </g>
                <g id="arrowRight" xlink:href="#dirArrow" transform="rotate(90) translate(36 -43)" onmousedown="handlePan(1,0)">
                  <use xlink:href="#rim" fill="#404040">
                        <set attributeName="fill" to="#808080" begin="arrowRight.mouseover" end="arrowRight.mouseout"/>
                  </use>
                  <path fill="none" stroke="white" stroke-width="1.5" d="M0,-3.0v7 M-2.5,-0.5L0,-3.0L2.5,-0.5"/>
                </g>
                <g id="arrowDown" xlink:href="#dirArrow" transform="rotate(180) translate(-30 -48)" onmousedown="handlePan(0,1)">
                  <use xlink:href="#rim" fill="#404040">
                        <set attributeName="fill" to="#808080" begin="arrowDown.mouseover" end="arrowDown.mouseout"/>
                  </use>
                  <path fill="none" stroke="white" stroke-width="1.5" d="M0,-3.0v7 M-2.5,-0.5L0,-3.0L2.5,-0.5"/>
                </g>
                <g id="arrowLeft" xlink:href="#dirArrow" transform="rotate(270) translate(-36 17)" onmousedown="handlePan(-1,0)">
                  <use xlink:href="#rim" fill="#404040">
                        <set attributeName="fill" to="#808080" begin="arrowLeft.mouseover" end="arrowLeft.mouseout"/>
                  </use>
                  <path fill="none" stroke="white" stroke-width="1.5" d="M0,-3.0v7 M-2.5,-0.5L0,-3.0L2.5,-0.5"/>
                </g>
        </g>
        <svg viewBox="0 0 15 15" width="100%" height="30px" preserveAspectRatio="xMaxYMin meet">
         <g id="arrow_out" transform="scale(0.3 0.3)">
          <a xlink:href="classdrawableobject_1_1_drawable_object_ae43eaaba923d744c2f5894a0d9afee5f_icgraph_org.svg" target="_base">
           <rect id="button" ry="5" rx="5" y="6" x="6" height="38" width="38"
                fill="#f2f5e9" fill-opacity="0.5" stroke="#606060" stroke-width="1.0"/>
           <path id="arrow"
             d="M 11.500037,31.436501 C 11.940474,20.09759 22.043105,11.32322 32.158766,21.979434 L 37.068811,17.246167 C 37.068811,17.246167 37.088388,32 37.088388,32 L 22.160133,31.978069 C 22.160133,31.978069 26.997745,27.140456 26.997745,27.140456 C 18.528582,18.264221 13.291696,25.230495 11.500037,31.436501 z"
             style="fill:#404040;"/>
          </a>
         </g>
        </svg>
</svg>
