<?xml version="1.0" encoding="UTF-8" standalone="no"?>
<!DOCTYPE svg PUBLIC "-//W3C//DTD SVG 1.1//EN"
 "http://www.w3.org/Graphics/SVG/1.1/DTD/svg11.dtd">
<!-- Generated by graphviz version 2.36.0 (20140111.2315)
 -->
<!-- Title: gui.factories.userdefinedcommands.DisplayedUserCommand.getMyContent Pages: 1 -->
<svg width="762pt" height="48pt"
 viewBox="0.00 0.00 762.00 48.00" xmlns="http://www.w3.org/2000/svg" xmlns:xlink="http://www.w3.org/1999/xlink">
<g id="graph0" class="graph" transform="scale(1 1) rotate(0) translate(4 44)">
<title>gui.factories.userdefinedcommands.DisplayedUserCommand.getMyContent</title>
<polygon fill="white" stroke="none" points="-4,4 -4,-44 758,-44 758,4 -4,4"/>
<!-- Node1 -->
<g id="node1" class="node"><title>Node1</title>
<polygon fill="#bfbfbf" stroke="black" points="0,-5 0,-35 206,-35 206,-5 0,-5"/>
<text text-anchor="start" x="8" y="-23" font-family="Helvetica,sans-Serif" font-size="10.00">gui.factories.userdefinedcommands.</text>
<text text-anchor="middle" x="103" y="-12" font-family="Helvetica,sans-Serif" font-size="10.00">DisplayedUserCommand.getMyContent</text>
</g>
<!-- Node2 -->
<g id="node2" class="node"><title>Node2</title>
<g id="a_node2"><a xlink:href="../../de/d51/classgui_1_1nonbuttonfeatures_1_1tableviews_1_1_user_defined_commands_feature.html#ab93818a1f86fa09c23c5f2c749869a31" target="_top" xlink:title="gui.nonbuttonfeatures.tableviews.\lUserDefinedCommandsFeature.showCommand\lContent">
<polygon fill="white" stroke="black" points="242.5,0.5 242.5,-40.5 487.5,-40.5 487.5,0.5 242.5,0.5"/>
<text text-anchor="start" x="250.5" y="-28.5" font-family="Helvetica,sans-Serif" font-size="10.00">gui.nonbuttonfeatures.tableviews.</text>
<text text-anchor="start" x="250.5" y="-17.5" font-family="Helvetica,sans-Serif" font-size="10.00">UserDefinedCommandsFeature.showCommand</text>
<text text-anchor="middle" x="365" y="-6.5" font-family="Helvetica,sans-Serif" font-size="10.00">Content</text>
</a>
</g>
</g>
<!-- Node1&#45;&gt;Node2 -->
<g id="edge1" class="edge"><title>Node1&#45;&gt;Node2</title>
<path fill="none" stroke="midnightblue" d="M216.165,-20C224.864,-20 233.671,-20 242.427,-20"/>
<polygon fill="midnightblue" stroke="midnightblue" points="216.013,-16.5001 206.013,-20 216.013,-23.5001 216.013,-16.5001"/>
</g>
<!-- Node3 -->
<g id="node3" class="node"><title>Node3</title>
<g id="a_node3"><a xlink:href="../../de/d51/classgui_1_1nonbuttonfeatures_1_1tableviews_1_1_user_defined_commands_feature.html#a175eb81c8a336944ba7a7c86be4491fc" target="_top" xlink:title="gui.nonbuttonfeatures.tableviews.\lUserDefinedCommandsFeature.UserDefined\lCommandsFeature">
<polygon fill="white" stroke="black" points="524,0.5 524,-40.5 754,-40.5 754,0.5 524,0.5"/>
<text text-anchor="start" x="532" y="-28.5" font-family="Helvetica,sans-Serif" font-size="10.00">gui.nonbuttonfeatures.tableviews.</text>
<text text-anchor="start" x="532" y="-17.5" font-family="Helvetica,sans-Serif" font-size="10.00">UserDefinedCommandsFeature.UserDefined</text>
<text text-anchor="middle" x="639" y="-6.5" font-family="Helvetica,sans-Serif" font-size="10.00">CommandsFeature</text>
</a>
</g>
</g>
<!-- Node2&#45;&gt;Node3 -->
<g id="edge2" class="edge"><title>Node2&#45;&gt;Node3</title>
<path fill="none" stroke="midnightblue" d="M497.852,-20C506.533,-20 515.236,-20 523.821,-20"/>
<polygon fill="midnightblue" stroke="midnightblue" points="497.68,-16.5001 487.68,-20 497.68,-23.5001 497.68,-16.5001"/>
</g>
</g>
</svg>
