<?xml version="1.0" encoding="UTF-8" standalone="no"?>
<!DOCTYPE svg PUBLIC "-//W3C//DTD SVG 1.1//EN"
 "http://www.w3.org/Graphics/SVG/1.1/DTD/svg11.dtd">
<!-- Generated by graphviz version 2.36.0 (20140111.2315)
 -->
<!-- Title: drawableobject.DrawableObject.getParent Pages: 1 -->
<svg width="472pt" height="2007pt"
 viewBox="0.00 0.00 472.00 2007.00" xmlns="http://www.w3.org/2000/svg" xmlns:xlink="http://www.w3.org/1999/xlink">
<g id="graph0" class="graph" transform="scale(1 1) rotate(0) translate(4 2003)">
<title>drawableobject.DrawableObject.getParent</title>
<polygon fill="white" stroke="none" points="-4,4 -4,-2003 468,-2003 468,4 -4,4"/>
<!-- Node1 -->
<g id="node1" class="node"><title>Node1</title>
<polygon fill="#bfbfbf" stroke="black" points="0.5,-979 0.5,-1009 185.5,-1009 185.5,-979 0.5,-979"/>
<text text-anchor="start" x="8.5" y="-997" font-family="Helvetica,sans-Serif" font-size="10.00">drawableobject.DrawableObject.get</text>
<text text-anchor="middle" x="93" y="-986" font-family="Helvetica,sans-Serif" font-size="10.00">Parent</text>
</g>
<!-- Node2 -->
<g id="node2" class="node"><title>Node2</title>
<g id="a_node2"><a xlink:href="../../da/d40/classtests_1_1command_tests_1_1double_input_float_tests_1_1_set_position_tests.html#ad4a7a8d40a6e6534d4c4ff25910e2a2b" target="_top" xlink:title="tests.commandTests.double\lInputFloatTests.SetPositionTests.\lBasicGOTOHomeTest">
<polygon fill="white" stroke="black" points="257,-1957.5 257,-1998.5 429,-1998.5 429,-1957.5 257,-1957.5"/>
<text text-anchor="start" x="265" y="-1986.5" font-family="Helvetica,sans-Serif" font-size="10.00">tests.commandTests.double</text>
<text text-anchor="start" x="265" y="-1975.5" font-family="Helvetica,sans-Serif" font-size="10.00">InputFloatTests.SetPositionTests.</text>
<text text-anchor="middle" x="343" y="-1964.5" font-family="Helvetica,sans-Serif" font-size="10.00">BasicGOTOHomeTest</text>
</a>
</g>
</g>
<!-- Node1&#45;&gt;Node2 -->
<g id="edge1" class="edge"><title>Node1&#45;&gt;Node2</title>
<path fill="none" stroke="midnightblue" d="M93.7326,-1019.56C92.8255,-1156.68 95.3747,-1804.29 222,-1947 231.283,-1957.46 243.588,-1964.61 256.782,-1969.45"/>
<polygon fill="midnightblue" stroke="midnightblue" points="97.235,-1019.25 93.8146,-1009.22 90.2352,-1019.2 97.235,-1019.25"/>
</g>
<!-- Node3 -->
<g id="node3" class="node"><title>Node3</title>
<g id="a_node3"><a xlink:href="../../da/d40/classtests_1_1command_tests_1_1double_input_float_tests_1_1_set_position_tests.html#a6c9bff0d1ba06aad62c460a106f26b2c" target="_top" xlink:title="tests.commandTests.double\lInputFloatTests.SetPositionTests.\lBasicGOTOTest">
<polygon fill="white" stroke="black" points="257,-1897.5 257,-1938.5 429,-1938.5 429,-1897.5 257,-1897.5"/>
<text text-anchor="start" x="265" y="-1926.5" font-family="Helvetica,sans-Serif" font-size="10.00">tests.commandTests.double</text>
<text text-anchor="start" x="265" y="-1915.5" font-family="Helvetica,sans-Serif" font-size="10.00">InputFloatTests.SetPositionTests.</text>
<text text-anchor="middle" x="343" y="-1904.5" font-family="Helvetica,sans-Serif" font-size="10.00">BasicGOTOTest</text>
</a>
</g>
</g>
<!-- Node1&#45;&gt;Node3 -->
<g id="edge2" class="edge"><title>Node1&#45;&gt;Node3</title>
<path fill="none" stroke="midnightblue" d="M93.9635,-1019.65C94.3048,-1151.87 102.47,-1755.51 222,-1888 231.35,-1898.36 243.688,-1905.4 256.894,-1910.13"/>
<polygon fill="midnightblue" stroke="midnightblue" points="97.4631,-1019.31 93.951,-1009.31 90.4631,-1019.31 97.4631,-1019.31"/>
</g>
<!-- Node4 -->
<g id="node4" class="node"><title>Node4</title>
<g id="a_node4"><a xlink:href="../../d7/df6/classtests_1_1command_tests_1_1inputless_command_tests_1_1_home_tests.html#aef85cb2b1a20534309898296eb020f37" target="_top" xlink:title="tests.commandTests.inputless\lCommandTests.HomeTests.BasicHomeTest">
<polygon fill="white" stroke="black" points="231,-1849 231,-1879 455,-1879 455,-1849 231,-1849"/>
<text text-anchor="start" x="239" y="-1867" font-family="Helvetica,sans-Serif" font-size="10.00">tests.commandTests.inputless</text>
<text text-anchor="middle" x="343" y="-1856" font-family="Helvetica,sans-Serif" font-size="10.00">CommandTests.HomeTests.BasicHomeTest</text>
</a>
</g>
</g>
<!-- Node1&#45;&gt;Node4 -->
<g id="edge3" class="edge"><title>Node1&#45;&gt;Node4</title>
<path fill="none" stroke="midnightblue" d="M94.1005,-1019.53C95.1407,-1147.38 106.292,-1716.74 222,-1839 225.584,-1842.79 229.581,-1846.08 233.879,-1848.93"/>
<polygon fill="midnightblue" stroke="midnightblue" points="97.5982,-1019.16 94.0314,-1009.19 90.5984,-1019.21 97.5982,-1019.16"/>
</g>
<!-- Node5 -->
<g id="node5" class="node"><title>Node5</title>
<g id="a_node5"><a xlink:href="../../dd/d96/classtests_1_1command_tests_1_1inputless_command_tests_1_1_clear_screen_tests.html#a607f982d50c547cc6a91c491b73bb401" target="_top" xlink:title="tests.commandTests.inputless\lCommandTests.ClearScreenTests.Clear\lScreeenTest">
<polygon fill="white" stroke="black" points="241,-1789.5 241,-1830.5 445,-1830.5 445,-1789.5 241,-1789.5"/>
<text text-anchor="start" x="249" y="-1818.5" font-family="Helvetica,sans-Serif" font-size="10.00">tests.commandTests.inputless</text>
<text text-anchor="start" x="249" y="-1807.5" font-family="Helvetica,sans-Serif" font-size="10.00">CommandTests.ClearScreenTests.Clear</text>
<text text-anchor="middle" x="343" y="-1796.5" font-family="Helvetica,sans-Serif" font-size="10.00">ScreeenTest</text>
</a>
</g>
</g>
<!-- Node1&#45;&gt;Node5 -->
<g id="edge4" class="edge"><title>Node1&#45;&gt;Node5</title>
<path fill="none" stroke="midnightblue" d="M94.5398,-1019.54C97.6385,-1141.56 116.947,-1663.9 222,-1779 227.44,-1784.96 233.861,-1789.84 240.859,-1793.83"/>
<polygon fill="midnightblue" stroke="midnightblue" points="98.0333,-1019.23 94.2949,-1009.31 91.0353,-1019.39 98.0333,-1019.23"/>
</g>
<!-- Node6 -->
<g id="node6" class="node"><title>Node6</title>
<g id="a_node6"><a xlink:href="../../d5/d6b/classtests_1_1command_tests_1_1variable_command_tests_1_1_make_variable_tests.html#ab5eb37bd6c4ea2ca691df1a68a9b9e3b" target="_top" xlink:title="tests.commandTests.variable\lCommandTests.MakeVariableTests.\lComplexMakeTest">
<polygon fill="white" stroke="black" points="250.5,-1729.5 250.5,-1770.5 435.5,-1770.5 435.5,-1729.5 250.5,-1729.5"/>
<text text-anchor="start" x="258.5" y="-1758.5" font-family="Helvetica,sans-Serif" font-size="10.00">tests.commandTests.variable</text>
<text text-anchor="start" x="258.5" y="-1747.5" font-family="Helvetica,sans-Serif" font-size="10.00">CommandTests.MakeVariableTests.</text>
<text text-anchor="middle" x="343" y="-1736.5" font-family="Helvetica,sans-Serif" font-size="10.00">ComplexMakeTest</text>
</a>
</g>
</g>
<!-- Node1&#45;&gt;Node6 -->
<g id="edge5" class="edge"><title>Node1&#45;&gt;Node6</title>
<path fill="none" stroke="midnightblue" d="M94.8968,-1019.06C99.5334,-1134.45 124.477,-1613.55 222,-1719 229.816,-1727.45 239.606,-1733.72 250.204,-1738.36"/>
<polygon fill="midnightblue" stroke="midnightblue" points="98.3937,-1018.91 94.5097,-1009.05 91.3989,-1019.18 98.3937,-1018.91"/>
</g>
<!-- Node7 -->
<g id="node7" class="node"><title>Node7</title>
<g id="a_node7"><a xlink:href="../../d4/d7d/classtests_1_1command_tests_1_1multiple_turtle_command_tests_1_1_ask_tests.html#a2b6aad6a6c126cc588781c15ba1ea64e" target="_top" xlink:title="tests.commandTests.multiple\lTurtleCommandTests.AskTests.Complicated\lAskTests">
<polygon fill="white" stroke="black" points="231,-1669.5 231,-1710.5 455,-1710.5 455,-1669.5 231,-1669.5"/>
<text text-anchor="start" x="239" y="-1698.5" font-family="Helvetica,sans-Serif" font-size="10.00">tests.commandTests.multiple</text>
<text text-anchor="start" x="239" y="-1687.5" font-family="Helvetica,sans-Serif" font-size="10.00">TurtleCommandTests.AskTests.Complicated</text>
<text text-anchor="middle" x="343" y="-1676.5" font-family="Helvetica,sans-Serif" font-size="10.00">AskTests</text>
</a>
</g>
</g>
<!-- Node1&#45;&gt;Node7 -->
<g id="edge6" class="edge"><title>Node1&#45;&gt;Node7</title>
<path fill="none" stroke="midnightblue" d="M95.3267,-1019.46C101.585,-1129.71 131.727,-1564.61 222,-1660 225.321,-1663.51 228.985,-1666.63 232.907,-1669.41"/>
<polygon fill="midnightblue" stroke="midnightblue" points="98.8105,-1019.07 94.7649,-1009.28 91.8211,-1019.46 98.8105,-1019.07"/>
</g>
<!-- Node8 -->
<g id="node8" class="node"><title>Node8</title>
<g id="a_node8"><a xlink:href="../../df/da6/classtests_1_1command_tests_1_1recurring_command_tests_1_1_do_times_tests.html#aa5f316dc50207be97d1b3f2f5d6d3254" target="_top" xlink:title="tests.commandTests.recurring\lCommandTests.DoTimesTests.DoTimesTest">
<polygon fill="white" stroke="black" points="231,-1621 231,-1651 455,-1651 455,-1621 231,-1621"/>
<text text-anchor="start" x="239" y="-1639" font-family="Helvetica,sans-Serif" font-size="10.00">tests.commandTests.recurring</text>
<text text-anchor="middle" x="343" y="-1628" font-family="Helvetica,sans-Serif" font-size="10.00">CommandTests.DoTimesTests.DoTimesTest</text>
</a>
</g>
</g>
<!-- Node1&#45;&gt;Node8 -->
<g id="edge7" class="edge"><title>Node1&#45;&gt;Node8</title>
<path fill="none" stroke="midnightblue" d="M95.6403,-1019.34C102.969,-1124.5 136.203,-1525.13 222,-1611 225.76,-1614.76 229.931,-1618.03 234.395,-1620.86"/>
<polygon fill="midnightblue" stroke="midnightblue" points="99.1111,-1018.79 94.9411,-1009.05 92.1272,-1019.26 99.1111,-1018.79"/>
</g>
<!-- Node9 -->
<g id="node9" class="node"><title>Node9</title>
<g id="a_node9"><a xlink:href="../../de/dd0/classtests_1_1command_tests_1_1boolean_conditional_commands_1_1_if_else_tests.html#a448522c0bedf2730d8d7459d23710664" target="_top" xlink:title="tests.commandTests.boolean\lConditionalCommands.IfElseTests.\lFalseTest">
<polygon fill="white" stroke="black" points="253,-1561.5 253,-1602.5 433,-1602.5 433,-1561.5 253,-1561.5"/>
<text text-anchor="start" x="261" y="-1590.5" font-family="Helvetica,sans-Serif" font-size="10.00">tests.commandTests.boolean</text>
<text text-anchor="start" x="261" y="-1579.5" font-family="Helvetica,sans-Serif" font-size="10.00">ConditionalCommands.IfElseTests.</text>
<text text-anchor="middle" x="343" y="-1568.5" font-family="Helvetica,sans-Serif" font-size="10.00">FalseTest</text>
</a>
</g>
</g>
<!-- Node1&#45;&gt;Node9 -->
<g id="edge8" class="edge"><title>Node1&#45;&gt;Node9</title>
<path fill="none" stroke="midnightblue" d="M96.3377,-1019.34C105.931,-1117.88 145.442,-1473.93 222,-1552 230.571,-1560.74 241.274,-1567.07 252.735,-1571.64"/>
<polygon fill="midnightblue" stroke="midnightblue" points="99.797,-1018.75 95.3614,-1009.13 92.8287,-1019.41 99.797,-1018.75"/>
</g>
<!-- Node10 -->
<g id="node10" class="node"><title>Node10</title>
<g id="a_node10"><a xlink:href="../../d6/ddd/classtests_1_1command_tests_1_1recurring_command_tests_1_1_for_tests.html#a99599260bfaf1a677515f92b245c48ef" target="_top" xlink:title="tests.commandTests.recurring\lCommandTests.ForTests.ForTest">
<polygon fill="white" stroke="black" points="258,-1513 258,-1543 428,-1543 428,-1513 258,-1513"/>
<text text-anchor="start" x="266" y="-1531" font-family="Helvetica,sans-Serif" font-size="10.00">tests.commandTests.recurring</text>
<text text-anchor="middle" x="343" y="-1520" font-family="Helvetica,sans-Serif" font-size="10.00">CommandTests.ForTests.ForTest</text>
</a>
</g>
</g>
<!-- Node1&#45;&gt;Node10 -->
<g id="edge9" class="edge"><title>Node1&#45;&gt;Node10</title>
<path fill="none" stroke="midnightblue" d="M96.831,-1019.29C107.762,-1112.38 150.224,-1434.11 222,-1503 231.979,-1512.58 244.627,-1518.9 257.945,-1523.01"/>
<polygon fill="midnightblue" stroke="midnightblue" points="100.279,-1018.64 95.6543,-1009.1 93.325,-1019.44 100.279,-1018.64"/>
</g>
<!-- Node11 -->
<g id="node11" class="node"><title>Node11</title>
<g id="a_node11"><a xlink:href="../../da/d40/classtests_1_1command_tests_1_1double_input_float_tests_1_1_set_position_tests.html#a8c4797609035e29187628a04f92640e6" target="_top" xlink:title="tests.commandTests.double\lInputFloatTests.SetPositionTests.\lGOTOAfterMovingAndRotatingPenDownTest">
<polygon fill="white" stroke="black" points="232,-1453.5 232,-1494.5 454,-1494.5 454,-1453.5 232,-1453.5"/>
<text text-anchor="start" x="240" y="-1482.5" font-family="Helvetica,sans-Serif" font-size="10.00">tests.commandTests.double</text>
<text text-anchor="start" x="240" y="-1471.5" font-family="Helvetica,sans-Serif" font-size="10.00">InputFloatTests.SetPositionTests.</text>
<text text-anchor="middle" x="343" y="-1460.5" font-family="Helvetica,sans-Serif" font-size="10.00">GOTOAfterMovingAndRotatingPenDownTest</text>
</a>
</g>
</g>
<!-- Node1&#45;&gt;Node11 -->
<g id="edge10" class="edge"><title>Node1&#45;&gt;Node11</title>
<path fill="none" stroke="midnightblue" d="M93.1353,-1019.03C91.9603,-1094.71 99.2222,-1323.24 222,-1443 226.005,-1446.91 230.434,-1450.34 235.16,-1453.35"/>
<polygon fill="midnightblue" stroke="midnightblue" points="96.6349,-1019.08 93.3571,-1009.01 89.6366,-1018.93 96.6349,-1019.08"/>
</g>
<!-- Node12 -->
<g id="node12" class="node"><title>Node12</title>
<g id="a_node12"><a xlink:href="../../da/d40/classtests_1_1command_tests_1_1double_input_float_tests_1_1_set_position_tests.html#ad2cc6a193cde42f03dce72b7ca24c8b7" target="_top" xlink:title="tests.commandTests.double\lInputFloatTests.SetPositionTests.\lGOTOAfterMovingAndRotatingPenUpTest">
<polygon fill="white" stroke="black" points="238.5,-1393.5 238.5,-1434.5 447.5,-1434.5 447.5,-1393.5 238.5,-1393.5"/>
<text text-anchor="start" x="246.5" y="-1422.5" font-family="Helvetica,sans-Serif" font-size="10.00">tests.commandTests.double</text>
<text text-anchor="start" x="246.5" y="-1411.5" font-family="Helvetica,sans-Serif" font-size="10.00">InputFloatTests.SetPositionTests.</text>
<text text-anchor="middle" x="343" y="-1400.5" font-family="Helvetica,sans-Serif" font-size="10.00">GOTOAfterMovingAndRotatingPenUpTest</text>
</a>
</g>
</g>
<!-- Node1&#45;&gt;Node12 -->
<g id="edge11" class="edge"><title>Node1&#45;&gt;Node12</title>
<path fill="none" stroke="midnightblue" d="M94.4354,-1019.36C97.0518,-1088.51 114.148,-1281.95 222,-1383 226.946,-1387.63 232.492,-1391.6 238.415,-1394.98"/>
<polygon fill="midnightblue" stroke="midnightblue" points="97.9338,-1019.25 94.1281,-1009.36 90.9371,-1019.46 97.9338,-1019.25"/>
</g>
<!-- Node13 -->
<g id="node13" class="node"><title>Node13</title>
<g id="a_node13"><a xlink:href="../../d7/df6/classtests_1_1command_tests_1_1inputless_command_tests_1_1_home_tests.html#afcc925796f701630a22527f2a96c4729" target="_top" xlink:title="tests.commandTests.inputless\lCommandTests.HomeTests.HomeAfter\lMovingAndRotatingPenDownTest">
<polygon fill="white" stroke="black" points="241.5,-1333.5 241.5,-1374.5 444.5,-1374.5 444.5,-1333.5 241.5,-1333.5"/>
<text text-anchor="start" x="249.5" y="-1362.5" font-family="Helvetica,sans-Serif" font-size="10.00">tests.commandTests.inputless</text>
<text text-anchor="start" x="249.5" y="-1351.5" font-family="Helvetica,sans-Serif" font-size="10.00">CommandTests.HomeTests.HomeAfter</text>
<text text-anchor="middle" x="343" y="-1340.5" font-family="Helvetica,sans-Serif" font-size="10.00">MovingAndRotatingPenDownTest</text>
</a>
</g>
</g>
<!-- Node1&#45;&gt;Node13 -->
<g id="edge12" class="edge"><title>Node1&#45;&gt;Node13</title>
<path fill="none" stroke="midnightblue" d="M96.1505,-1019.14C102.803,-1080.72 128.63,-1240.06 222,-1323 227.791,-1328.14 234.327,-1332.45 241.283,-1336.06"/>
<polygon fill="midnightblue" stroke="midnightblue" points="99.6286,-1018.75 95.1492,-1009.15 92.6635,-1019.45 99.6286,-1018.75"/>
</g>
<!-- Node14 -->
<g id="node14" class="node"><title>Node14</title>
<g id="a_node14"><a xlink:href="../../d7/df6/classtests_1_1command_tests_1_1inputless_command_tests_1_1_home_tests.html#ac10c51ce63994861bf97231280a3959c" target="_top" xlink:title="tests.commandTests.inputless\lCommandTests.HomeTests.HomeAfter\lMovingAndRotatingPenUpTest">
<polygon fill="white" stroke="black" points="241.5,-1273.5 241.5,-1314.5 444.5,-1314.5 444.5,-1273.5 241.5,-1273.5"/>
<text text-anchor="start" x="249.5" y="-1302.5" font-family="Helvetica,sans-Serif" font-size="10.00">tests.commandTests.inputless</text>
<text text-anchor="start" x="249.5" y="-1291.5" font-family="Helvetica,sans-Serif" font-size="10.00">CommandTests.HomeTests.HomeAfter</text>
<text text-anchor="middle" x="343" y="-1280.5" font-family="Helvetica,sans-Serif" font-size="10.00">MovingAndRotatingPenUpTest</text>
</a>
</g>
</g>
<!-- Node1&#45;&gt;Node14 -->
<g id="edge13" class="edge"><title>Node1&#45;&gt;Node14</title>
<path fill="none" stroke="midnightblue" d="M98.5913,-1019.24C109.679,-1072.72 143.057,-1197.88 222,-1263 227.893,-1267.86 234.458,-1271.97 241.398,-1275.44"/>
<polygon fill="midnightblue" stroke="midnightblue" points="101.988,-1018.38 96.6093,-1009.25 95.1222,-1019.74 101.988,-1018.38"/>
</g>
<!-- Node15 -->
<g id="node15" class="node"><title>Node15</title>
<g id="a_node15"><a xlink:href="../../d7/d98/classtests_1_1command_tests_1_1single_input_float_tests_1_1_right_tests.html#a3a6b433a84b6ba93f066e3549e5d1e0d" target="_top" xlink:title="tests.commandTests.single\lInputFloatTests.RightTests.Integer\lParsingTest">
<polygon fill="white" stroke="black" points="255,-1213.5 255,-1254.5 431,-1254.5 431,-1213.5 255,-1213.5"/>
<text text-anchor="start" x="263" y="-1242.5" font-family="Helvetica,sans-Serif" font-size="10.00">tests.commandTests.single</text>
<text text-anchor="start" x="263" y="-1231.5" font-family="Helvetica,sans-Serif" font-size="10.00">InputFloatTests.RightTests.Integer</text>
<text text-anchor="middle" x="343" y="-1220.5" font-family="Helvetica,sans-Serif" font-size="10.00">ParsingTest</text>
</a>
</g>
</g>
<!-- Node1&#45;&gt;Node15 -->
<g id="edge14" class="edge"><title>Node1&#45;&gt;Node15</title>
<path fill="none" stroke="midnightblue" d="M102.116,-1018.75C117.882,-1062.84 156.929,-1154.85 222,-1203 231.773,-1210.23 243.077,-1215.78 254.76,-1220.04"/>
<polygon fill="midnightblue" stroke="midnightblue" points="105.359,-1017.42 98.7723,-1009.12 98.7457,-1019.71 105.359,-1017.42"/>
</g>
<!-- Node16 -->
<g id="node16" class="node"><title>Node16</title>
<g id="a_node16"><a xlink:href="../../d5/d82/classtests_1_1command_tests_1_1single_input_float_tests_1_1_left_tests.html#a166f527d8bebc25f9316c9720d4dc401" target="_top" xlink:title="tests.commandTests.single\lInputFloatTests.LeftTests.Integer\lParsingTest">
<polygon fill="white" stroke="black" points="258,-1153.5 258,-1194.5 428,-1194.5 428,-1153.5 258,-1153.5"/>
<text text-anchor="start" x="266" y="-1182.5" font-family="Helvetica,sans-Serif" font-size="10.00">tests.commandTests.single</text>
<text text-anchor="start" x="266" y="-1171.5" font-family="Helvetica,sans-Serif" font-size="10.00">InputFloatTests.LeftTests.Integer</text>
<text text-anchor="middle" x="343" y="-1160.5" font-family="Helvetica,sans-Serif" font-size="10.00">ParsingTest</text>
</a>
</g>
</g>
<!-- Node1&#45;&gt;Node16 -->
<g id="edge15" class="edge"><title>Node1&#45;&gt;Node16</title>
<path fill="none" stroke="midnightblue" d="M107.972,-1018C128.603,-1051.25 170.401,-1110.87 222,-1143 232.959,-1149.82 245.373,-1155.15 257.958,-1159.31"/>
<polygon fill="midnightblue" stroke="midnightblue" points="110.909,-1016.09 102.724,-1009.36 104.927,-1019.72 110.909,-1016.09"/>
</g>
<!-- Node17 -->
<g id="node17" class="node"><title>Node17</title>
<g id="a_node17"><a xlink:href="../../dd/d37/classtests_1_1command_tests_1_1single_input_float_tests_1_1_forward_tests.html#a2b01efc578f2ffe237935420b252a13a" target="_top" xlink:title="tests.commandTests.single\lInputFloatTests.ForwardTests.Integer\lParsingTest">
<polygon fill="white" stroke="black" points="248.5,-1093.5 248.5,-1134.5 437.5,-1134.5 437.5,-1093.5 248.5,-1093.5"/>
<text text-anchor="start" x="256.5" y="-1122.5" font-family="Helvetica,sans-Serif" font-size="10.00">tests.commandTests.single</text>
<text text-anchor="start" x="256.5" y="-1111.5" font-family="Helvetica,sans-Serif" font-size="10.00">InputFloatTests.ForwardTests.Integer</text>
<text text-anchor="middle" x="343" y="-1100.5" font-family="Helvetica,sans-Serif" font-size="10.00">ParsingTest</text>
</a>
</g>
</g>
<!-- Node1&#45;&gt;Node17 -->
<g id="edge16" class="edge"><title>Node1&#45;&gt;Node17</title>
<path fill="none" stroke="midnightblue" d="M119.187,-1015.6C143.872,-1035.73 183.322,-1065.25 222,-1083 230.507,-1086.9 239.588,-1090.38 248.802,-1093.45"/>
<polygon fill="midnightblue" stroke="midnightblue" points="121.341,-1012.84 111.405,-1009.16 116.879,-1018.23 121.341,-1012.84"/>
</g>
<!-- Node18 -->
<g id="node18" class="node"><title>Node18</title>
<g id="a_node18"><a xlink:href="../../d6/d12/classtests_1_1command_tests_1_1single_input_float_tests_1_1_backward_tests.html#a34376ecd3774a0e8403c326ffcd9c975" target="_top" xlink:title="tests.commandTests.single\lInputFloatTests.BackwardTests.\lIntegerParsingTest">
<polygon fill="white" stroke="black" points="261,-1033.5 261,-1074.5 425,-1074.5 425,-1033.5 261,-1033.5"/>
<text text-anchor="start" x="269" y="-1062.5" font-family="Helvetica,sans-Serif" font-size="10.00">tests.commandTests.single</text>
<text text-anchor="start" x="269" y="-1051.5" font-family="Helvetica,sans-Serif" font-size="10.00">InputFloatTests.BackwardTests.</text>
<text text-anchor="middle" x="343" y="-1040.5" font-family="Helvetica,sans-Serif" font-size="10.00">IntegerParsingTest</text>
</a>
</g>
</g>
<!-- Node1&#45;&gt;Node18 -->
<g id="edge17" class="edge"><title>Node1&#45;&gt;Node18</title>
<path fill="none" stroke="midnightblue" d="M166.133,-1011.45C195.829,-1018.64 230.366,-1026.99 260.933,-1034.39"/>
<polygon fill="midnightblue" stroke="midnightblue" points="166.803,-1008.01 156.261,-1009.06 165.157,-1014.82 166.803,-1008.01"/>
</g>
<!-- Node19 -->
<g id="node19" class="node"><title>Node19</title>
<g id="a_node19"><a xlink:href="../../df/dde/classtests_1_1command_tests_1_1user_defined_command_tests_1_1_make_user_instruction_tests.html#a43b4b411c31260c575955a7939330f46" target="_top" xlink:title="tests.commandTests.userDefined\lCommandTests.MakeUserInstruction\lTests.MakeCommandTestWithPreviousVariables">
<polygon fill="white" stroke="black" points="222,-973.5 222,-1014.5 464,-1014.5 464,-973.5 222,-973.5"/>
<text text-anchor="start" x="230" y="-1002.5" font-family="Helvetica,sans-Serif" font-size="10.00">tests.commandTests.userDefined</text>
<text text-anchor="start" x="230" y="-991.5" font-family="Helvetica,sans-Serif" font-size="10.00">CommandTests.MakeUserInstruction</text>
<text text-anchor="middle" x="343" y="-980.5" font-family="Helvetica,sans-Serif" font-size="10.00">Tests.MakeCommandTestWithPreviousVariables</text>
</a>
</g>
</g>
<!-- Node1&#45;&gt;Node19 -->
<g id="edge18" class="edge"><title>Node1&#45;&gt;Node19</title>
<path fill="none" stroke="midnightblue" d="M195.905,-994C204.386,-994 213.01,-994 221.611,-994"/>
<polygon fill="midnightblue" stroke="midnightblue" points="195.641,-990.5 185.641,-994 195.641,-997.5 195.641,-990.5"/>
</g>
<!-- Node20 -->
<g id="node20" class="node"><title>Node20</title>
<g id="a_node20"><a xlink:href="../../d5/d6b/classtests_1_1command_tests_1_1variable_command_tests_1_1_make_variable_tests.html#a60c68761715a7d772de6698b71957c95" target="_top" xlink:title="tests.commandTests.variable\lCommandTests.MakeVariableTests.\lMakeTest">
<polygon fill="white" stroke="black" points="250.5,-913.5 250.5,-954.5 435.5,-954.5 435.5,-913.5 250.5,-913.5"/>
<text text-anchor="start" x="258.5" y="-942.5" font-family="Helvetica,sans-Serif" font-size="10.00">tests.commandTests.variable</text>
<text text-anchor="start" x="258.5" y="-931.5" font-family="Helvetica,sans-Serif" font-size="10.00">CommandTests.MakeVariableTests.</text>
<text text-anchor="middle" x="343" y="-920.5" font-family="Helvetica,sans-Serif" font-size="10.00">MakeTest</text>
</a>
</g>
</g>
<!-- Node1&#45;&gt;Node20 -->
<g id="edge19" class="edge"><title>Node1&#45;&gt;Node20</title>
<path fill="none" stroke="midnightblue" d="M166.142,-976.546C194.64,-969.652 227.594,-961.679 257.22,-954.511"/>
<polygon fill="midnightblue" stroke="midnightblue" points="165.157,-973.183 156.261,-978.937 166.803,-979.987 165.157,-973.183"/>
</g>
<!-- Node21 -->
<g id="node21" class="node"><title>Node21</title>
<g id="a_node21"><a xlink:href="../../de/d22/classtests_1_1command_tests_1_1inputless_command_tests_1_1_make_turtle_test.html#ab56121f76e6b159a70ad8e21a1f6ffc4" target="_top" xlink:title="tests.commandTests.inputless\lCommandTests.MakeTurtleTest.Make\lTurtleIncrementsIDTester">
<polygon fill="white" stroke="black" points="247,-853.5 247,-894.5 439,-894.5 439,-853.5 247,-853.5"/>
<text text-anchor="start" x="255" y="-882.5" font-family="Helvetica,sans-Serif" font-size="10.00">tests.commandTests.inputless</text>
<text text-anchor="start" x="255" y="-871.5" font-family="Helvetica,sans-Serif" font-size="10.00">CommandTests.MakeTurtleTest.Make</text>
<text text-anchor="middle" x="343" y="-860.5" font-family="Helvetica,sans-Serif" font-size="10.00">TurtleIncrementsIDTester</text>
</a>
</g>
</g>
<!-- Node1&#45;&gt;Node21 -->
<g id="edge20" class="edge"><title>Node1&#45;&gt;Node21</title>
<path fill="none" stroke="midnightblue" d="M118.693,-972.427C143.294,-951.997 182.935,-921.864 222,-904 229.909,-900.383 238.32,-897.16 246.874,-894.296"/>
<polygon fill="midnightblue" stroke="midnightblue" points="116.341,-969.831 110.949,-978.951 120.852,-975.184 116.341,-969.831"/>
</g>
<!-- Node22 -->
<g id="node22" class="node"><title>Node22</title>
<g id="a_node22"><a xlink:href="../../de/d22/classtests_1_1command_tests_1_1inputless_command_tests_1_1_make_turtle_test.html#a8fdacc9285f1c96a4c5953a1f2e44840" target="_top" xlink:title="tests.commandTests.inputless\lCommandTests.MakeTurtleTest.Make\lTurtleTester">
<polygon fill="white" stroke="black" points="247,-793.5 247,-834.5 439,-834.5 439,-793.5 247,-793.5"/>
<text text-anchor="start" x="255" y="-822.5" font-family="Helvetica,sans-Serif" font-size="10.00">tests.commandTests.inputless</text>
<text text-anchor="start" x="255" y="-811.5" font-family="Helvetica,sans-Serif" font-size="10.00">CommandTests.MakeTurtleTest.Make</text>
<text text-anchor="middle" x="343" y="-800.5" font-family="Helvetica,sans-Serif" font-size="10.00">TurtleTester</text>
</a>
</g>
</g>
<!-- Node1&#45;&gt;Node22 -->
<g id="edge21" class="edge"><title>Node1&#45;&gt;Node22</title>
<path fill="none" stroke="midnightblue" d="M107.582,-970.299C128.01,-936.856 169.862,-876.302 222,-844 229.667,-839.25 238.048,-835.251 246.703,-831.884"/>
<polygon fill="midnightblue" stroke="midnightblue" points="104.528,-968.588 102.398,-978.967 110.535,-972.181 104.528,-968.588"/>
</g>
<!-- Node23 -->
<g id="node23" class="node"><title>Node23</title>
<g id="a_node23"><a xlink:href="../../d5/d6b/classtests_1_1command_tests_1_1variable_command_tests_1_1_make_variable_tests.html#aa7a8a3fdce7d87721520fc5b1a00c0b4" target="_top" xlink:title="tests.commandTests.variable\lCommandTests.MakeVariableTests.\lManyMakeTest">
<polygon fill="white" stroke="black" points="250.5,-733.5 250.5,-774.5 435.5,-774.5 435.5,-733.5 250.5,-733.5"/>
<text text-anchor="start" x="258.5" y="-762.5" font-family="Helvetica,sans-Serif" font-size="10.00">tests.commandTests.variable</text>
<text text-anchor="start" x="258.5" y="-751.5" font-family="Helvetica,sans-Serif" font-size="10.00">CommandTests.MakeVariableTests.</text>
<text text-anchor="middle" x="343" y="-740.5" font-family="Helvetica,sans-Serif" font-size="10.00">ManyMakeTest</text>
</a>
</g>
</g>
<!-- Node1&#45;&gt;Node23 -->
<g id="edge22" class="edge"><title>Node1&#45;&gt;Node23</title>
<path fill="none" stroke="midnightblue" d="M102.044,-969.082C117.695,-924.703 156.565,-832.131 222,-784 230.563,-777.702 240.301,-772.717 250.439,-768.774"/>
<polygon fill="midnightblue" stroke="midnightblue" points="98.6526,-968.183 98.7263,-978.778 105.276,-970.45 98.6526,-968.183"/>
</g>
<!-- Node24 -->
<g id="node24" class="node"><title>Node24</title>
<g id="a_node24"><a xlink:href="../../d8/da3/classtests_1_1command_tests_1_1multiple_turtle_command_tests_1_1_ask_with_tests.html#a240881e86ec4ad319cc420ce196b0351" target="_top" xlink:title="tests.commandTests.multiple\lTurtleCommandTests.AskWithTests.\lMultipleTurtleAskWithTests">
<polygon fill="white" stroke="black" points="251,-673.5 251,-714.5 435,-714.5 435,-673.5 251,-673.5"/>
<text text-anchor="start" x="259" y="-702.5" font-family="Helvetica,sans-Serif" font-size="10.00">tests.commandTests.multiple</text>
<text text-anchor="start" x="259" y="-691.5" font-family="Helvetica,sans-Serif" font-size="10.00">TurtleCommandTests.AskWithTests.</text>
<text text-anchor="middle" x="343" y="-680.5" font-family="Helvetica,sans-Serif" font-size="10.00">MultipleTurtleAskWithTests</text>
</a>
</g>
</g>
<!-- Node1&#45;&gt;Node24 -->
<g id="edge23" class="edge"><title>Node1&#45;&gt;Node24</title>
<path fill="none" stroke="midnightblue" d="M98.4447,-969.001C109.32,-915.444 142.422,-789.217 222,-724 230.554,-716.99 240.522,-711.586 250.991,-707.426"/>
<polygon fill="midnightblue" stroke="midnightblue" points="94.9752,-968.508 96.5056,-978.992 101.847,-969.842 94.9752,-968.508"/>
</g>
<!-- Node25 -->
<g id="node25" class="node"><title>Node25</title>
<g id="a_node25"><a xlink:href="../../d8/da3/classtests_1_1command_tests_1_1multiple_turtle_command_tests_1_1_ask_with_tests.html#ace302d80756057ceb2241cbe8d85d690" target="_top" xlink:title="tests.commandTests.multiple\lTurtleCommandTests.AskWithTests.\lMultipleTurtlesWithConditionAskWithTests">
<polygon fill="white" stroke="black" points="237.5,-613.5 237.5,-654.5 448.5,-654.5 448.5,-613.5 237.5,-613.5"/>
<text text-anchor="start" x="245.5" y="-642.5" font-family="Helvetica,sans-Serif" font-size="10.00">tests.commandTests.multiple</text>
<text text-anchor="start" x="245.5" y="-631.5" font-family="Helvetica,sans-Serif" font-size="10.00">TurtleCommandTests.AskWithTests.</text>
<text text-anchor="middle" x="343" y="-620.5" font-family="Helvetica,sans-Serif" font-size="10.00">MultipleTurtlesWithConditionAskWithTests</text>
</a>
</g>
</g>
<!-- Node1&#45;&gt;Node25 -->
<g id="edge24" class="edge"><title>Node1&#45;&gt;Node25</title>
<path fill="none" stroke="midnightblue" d="M96.0845,-968.736C102.587,-906.876 128.101,-746.836 222,-664 226.67,-659.88 231.822,-656.309 237.287,-653.214"/>
<polygon fill="midnightblue" stroke="midnightblue" points="92.5923,-968.487 95.1081,-978.779 99.5594,-969.165 92.5923,-968.487"/>
</g>
<!-- Node26 -->
<g id="node26" class="node"><title>Node26</title>
<g id="a_node26"><a xlink:href="../../d0/db8/classtests_1_1command_tests_1_1recurring_command_tests_1_1_repeat_tests.html#a5e8690fdaf2c7910f6c3c81d5570736a" target="_top" xlink:title="tests.commandTests.recurring\lCommandTests.RepeatTests.RepeatTest">
<polygon fill="white" stroke="black" points="240,-565 240,-595 446,-595 446,-565 240,-565"/>
<text text-anchor="start" x="248" y="-583" font-family="Helvetica,sans-Serif" font-size="10.00">tests.commandTests.recurring</text>
<text text-anchor="middle" x="343" y="-572" font-family="Helvetica,sans-Serif" font-size="10.00">CommandTests.RepeatTests.RepeatTest</text>
</a>
</g>
</g>
<!-- Node1&#45;&gt;Node26 -->
<g id="edge25" class="edge"><title>Node1&#45;&gt;Node26</title>
<path fill="none" stroke="midnightblue" d="M94.1076,-968.738C95.8635,-899.009 110.918,-702.519 222,-604 227.404,-599.207 233.49,-595.264 239.98,-592.029"/>
<polygon fill="midnightblue" stroke="midnightblue" points="90.607,-968.745 93.9273,-978.806 97.6059,-968.87 90.607,-968.745"/>
</g>
<!-- Node27 -->
<g id="node27" class="node"><title>Node27</title>
<g id="a_node27"><a xlink:href="../../d1/d22/classtests_1_1command_tests_1_1color_command_tests_1_1_set_background_tests.html#a3daef0777fd1a883b79138c5e3a0f518" target="_top" xlink:title="tests.commandTests.color\lCommandTests.SetBackgroundTests.\lSetBackgroundTest">
<polygon fill="white" stroke="black" points="246,-505.5 246,-546.5 440,-546.5 440,-505.5 246,-505.5"/>
<text text-anchor="start" x="254" y="-534.5" font-family="Helvetica,sans-Serif" font-size="10.00">tests.commandTests.color</text>
<text text-anchor="start" x="254" y="-523.5" font-family="Helvetica,sans-Serif" font-size="10.00">CommandTests.SetBackgroundTests.</text>
<text text-anchor="middle" x="343" y="-512.5" font-family="Helvetica,sans-Serif" font-size="10.00">SetBackgroundTest</text>
</a>
</g>
</g>
<!-- Node1&#45;&gt;Node27 -->
<g id="edge26" class="edge"><title>Node1&#45;&gt;Node27</title>
<path fill="none" stroke="midnightblue" d="M93.3019,-968.56C92.7078,-893.614 101.679,-671.678 222,-556 228.889,-549.377 237.009,-544.15 245.723,-540.034"/>
<polygon fill="midnightblue" stroke="midnightblue" points="89.8074,-968.959 93.4553,-978.906 96.8066,-968.855 89.8074,-968.959"/>
</g>
<!-- Node28 -->
<g id="node28" class="node"><title>Node28</title>
<g id="a_node28"><a xlink:href="../../dd/d5d/classtests_1_1command_tests_1_1single_input_float_tests_1_1_set_heading.html#a5e3a626c7a3f62fe1144dec3053248f4" target="_top" xlink:title="tests.commandTests.single\lInputFloatTests.SetHeading.Set\lHeadingNoInitialHeading">
<polygon fill="white" stroke="black" points="259.5,-445.5 259.5,-486.5 426.5,-486.5 426.5,-445.5 259.5,-445.5"/>
<text text-anchor="start" x="267.5" y="-474.5" font-family="Helvetica,sans-Serif" font-size="10.00">tests.commandTests.single</text>
<text text-anchor="start" x="267.5" y="-463.5" font-family="Helvetica,sans-Serif" font-size="10.00">InputFloatTests.SetHeading.Set</text>
<text text-anchor="middle" x="343" y="-452.5" font-family="Helvetica,sans-Serif" font-size="10.00">HeadingNoInitialHeading</text>
</a>
</g>
</g>
<!-- Node1&#45;&gt;Node28 -->
<g id="edge27" class="edge"><title>Node1&#45;&gt;Node28</title>
<path fill="none" stroke="midnightblue" d="M97.0779,-968.737C108.73,-877.179 153.004,-564.542 222,-496 232.284,-485.784 245.487,-478.87 259.355,-474.226"/>
<polygon fill="midnightblue" stroke="midnightblue" points="93.5906,-968.417 95.8192,-978.775 100.536,-969.288 93.5906,-968.417"/>
</g>
<!-- Node29 -->
<g id="node29" class="node"><title>Node29</title>
<g id="a_node29"><a xlink:href="../../dd/d5d/classtests_1_1command_tests_1_1single_input_float_tests_1_1_set_heading.html#a4b00690279d171214dedc415f5bfe36c" target="_top" xlink:title="tests.commandTests.single\lInputFloatTests.SetHeading.Set\lHeadingWithPreviousHeading">
<polygon fill="white" stroke="black" points="259.5,-385.5 259.5,-426.5 426.5,-426.5 426.5,-385.5 259.5,-385.5"/>
<text text-anchor="start" x="267.5" y="-414.5" font-family="Helvetica,sans-Serif" font-size="10.00">tests.commandTests.single</text>
<text text-anchor="start" x="267.5" y="-403.5" font-family="Helvetica,sans-Serif" font-size="10.00">InputFloatTests.SetHeading.Set</text>
<text text-anchor="middle" x="343" y="-392.5" font-family="Helvetica,sans-Serif" font-size="10.00">HeadingWithPreviousHeading</text>
</a>
</g>
</g>
<!-- Node1&#45;&gt;Node29 -->
<g id="edge28" class="edge"><title>Node1&#45;&gt;Node29</title>
<path fill="none" stroke="midnightblue" d="M96.3377,-968.658C105.931,-870.117 145.442,-514.065 222,-436 232.225,-425.574 245.484,-418.57 259.445,-413.906"/>
<polygon fill="midnightblue" stroke="midnightblue" points="92.8287,-968.585 95.3614,-978.873 99.797,-969.251 92.8287,-968.585"/>
</g>
<!-- Node30 -->
<g id="node30" class="node"><title>Node30</title>
<g id="a_node30"><a xlink:href="../../d4/d7d/classtests_1_1command_tests_1_1multiple_turtle_command_tests_1_1_ask_tests.html#a5a4f933f1ab15a1df2f6025de737eaec" target="_top" xlink:title="tests.commandTests.multiple\lTurtleCommandTests.AskTests.Simple\lAskTests">
<polygon fill="white" stroke="black" points="244.5,-325.5 244.5,-366.5 441.5,-366.5 441.5,-325.5 244.5,-325.5"/>
<text text-anchor="start" x="252.5" y="-354.5" font-family="Helvetica,sans-Serif" font-size="10.00">tests.commandTests.multiple</text>
<text text-anchor="start" x="252.5" y="-343.5" font-family="Helvetica,sans-Serif" font-size="10.00">TurtleCommandTests.AskTests.Simple</text>
<text text-anchor="middle" x="343" y="-332.5" font-family="Helvetica,sans-Serif" font-size="10.00">AskTests</text>
</a>
</g>
</g>
<!-- Node1&#45;&gt;Node30 -->
<g id="edge29" class="edge"><title>Node1&#45;&gt;Node30</title>
<path fill="none" stroke="midnightblue" d="M95.7254,-968.713C103.395,-863.739 137.803,-463.699 222,-376 228.395,-369.339 236.027,-364.069 244.301,-359.911"/>
<polygon fill="midnightblue" stroke="midnightblue" points="92.2133,-968.76 94.9924,-978.984 99.1955,-969.258 92.2133,-968.76"/>
</g>
<!-- Node31 -->
<g id="node31" class="node"><title>Node31</title>
<g id="a_node31"><a xlink:href="../../d8/da3/classtests_1_1command_tests_1_1multiple_turtle_command_tests_1_1_ask_with_tests.html#a3c211ef3037b2fb12fe3e369cfae74d8" target="_top" xlink:title="tests.commandTests.multiple\lTurtleCommandTests.AskWithTests.\lSimpleAskWithTests">
<polygon fill="white" stroke="black" points="251,-265.5 251,-306.5 435,-306.5 435,-265.5 251,-265.5"/>
<text text-anchor="start" x="259" y="-294.5" font-family="Helvetica,sans-Serif" font-size="10.00">tests.commandTests.multiple</text>
<text text-anchor="start" x="259" y="-283.5" font-family="Helvetica,sans-Serif" font-size="10.00">TurtleCommandTests.AskWithTests.</text>
<text text-anchor="middle" x="343" y="-272.5" font-family="Helvetica,sans-Serif" font-size="10.00">SimpleAskWithTests</text>
</a>
</g>
</g>
<!-- Node1&#45;&gt;Node31 -->
<g id="edge30" class="edge"><title>Node1&#45;&gt;Node31</title>
<path fill="none" stroke="midnightblue" d="M95.2375,-968.446C101.159,-856.829 130.218,-413.304 222,-316 230.031,-307.486 240.081,-301.238 250.926,-296.676"/>
<polygon fill="midnightblue" stroke="midnightblue" points="91.7262,-968.578 94.7076,-978.745 98.7169,-968.938 91.7262,-968.578"/>
</g>
<!-- Node32 -->
<g id="node32" class="node"><title>Node32</title>
<g id="a_node32"><a xlink:href="../../d3/d7b/classtests_1_1command_tests_1_1multiple_turtle_command_tests_1_1_tell_tests.html#a34e1bf417818e254247d153d3bb0ffbf" target="_top" xlink:title="tests.commandTests.multiple\lTurtleCommandTests.TellTests.Simple\lTellTests">
<polygon fill="white" stroke="black" points="246,-205.5 246,-246.5 440,-246.5 440,-205.5 246,-205.5"/>
<text text-anchor="start" x="254" y="-234.5" font-family="Helvetica,sans-Serif" font-size="10.00">tests.commandTests.multiple</text>
<text text-anchor="start" x="254" y="-223.5" font-family="Helvetica,sans-Serif" font-size="10.00">TurtleCommandTests.TellTests.Simple</text>
<text text-anchor="middle" x="343" y="-212.5" font-family="Helvetica,sans-Serif" font-size="10.00">TellTests</text>
</a>
</g>
</g>
<!-- Node1&#45;&gt;Node32 -->
<g id="edge31" class="edge"><title>Node1&#45;&gt;Node32</title>
<path fill="none" stroke="midnightblue" d="M94.7958,-968.858C99.0058,-852.007 122.416,-363.159 222,-256 228.725,-248.764 236.907,-243.16 245.806,-238.835"/>
<polygon fill="midnightblue" stroke="midnightblue" points="91.2935,-968.864 94.4464,-978.979 98.2894,-969.106 91.2935,-968.864"/>
</g>
<!-- Node33 -->
<g id="node33" class="node"><title>Node33</title>
<g id="a_node33"><a xlink:href="../../d8/dcc/classtests_1_1command_tests_1_1inputless_command_tests_1_1_clear_stamps_test.html#ae7d3640d990fa8bdffe17607e256acf9" target="_top" xlink:title="tests.commandTests.inputless\lCommandTests.ClearStampsTest.StampTest">
<polygon fill="white" stroke="black" points="228.5,-157 228.5,-187 457.5,-187 457.5,-157 228.5,-157"/>
<text text-anchor="start" x="236.5" y="-175" font-family="Helvetica,sans-Serif" font-size="10.00">tests.commandTests.inputless</text>
<text text-anchor="middle" x="343" y="-164" font-family="Helvetica,sans-Serif" font-size="10.00">CommandTests.ClearStampsTest.StampTest</text>
</a>
</g>
</g>
<!-- Node1&#45;&gt;Node33 -->
<g id="edge32" class="edge"><title>Node1&#45;&gt;Node33</title>
<path fill="none" stroke="midnightblue" d="M94.327,-968.683C96.4502,-845.526 111.972,-310.331 222,-196 225.241,-192.632 228.811,-189.666 232.63,-187.057"/>
<polygon fill="midnightblue" stroke="midnightblue" points="90.8275,-968.631 94.1691,-978.685 97.8266,-968.742 90.8275,-968.631"/>
</g>
<!-- Node34 -->
<g id="node34" class="node"><title>Node34</title>
<g id="a_node34"><a xlink:href="../../d3/ded/classtests_1_1command_tests_1_1inputless_command_tests_1_1_stamp_tests.html#a8a982387e5d4976b4b09e61e45a7680c" target="_top" xlink:title="tests.commandTests.inputless\lCommandTests.StampTests.StampTest">
<polygon fill="white" stroke="black" points="241,-108 241,-138 445,-138 445,-108 241,-108"/>
<text text-anchor="start" x="249" y="-126" font-family="Helvetica,sans-Serif" font-size="10.00">tests.commandTests.inputless</text>
<text text-anchor="middle" x="343" y="-115" font-family="Helvetica,sans-Serif" font-size="10.00">CommandTests.StampTests.StampTest</text>
</a>
</g>
</g>
<!-- Node1&#45;&gt;Node34 -->
<g id="edge33" class="edge"><title>Node1&#45;&gt;Node34</title>
<path fill="none" stroke="midnightblue" d="M94.0957,-968.439C95.1127,-840.437 106.169,-270.412 222,-148 227.485,-142.203 233.938,-137.569 240.957,-133.88"/>
<polygon fill="midnightblue" stroke="midnightblue" points="90.5936,-968.774 94.0285,-978.797 97.5934,-968.82 90.5936,-968.774"/>
</g>
<!-- Node35 -->
<g id="node35" class="node"><title>Node35</title>
<g id="a_node35"><a xlink:href="../../d0/daa/classtests_1_1command_tests_1_1boolean_conditional_commands_1_1_if_tests.html#a81f66c4424ed40f2aada715ef51244bd" target="_top" xlink:title="tests.commandTests.boolean\lConditionalCommands.IfTests.TrueTest">
<polygon fill="white" stroke="black" points="243.5,-59 243.5,-89 442.5,-89 442.5,-59 243.5,-59"/>
<text text-anchor="start" x="251.5" y="-77" font-family="Helvetica,sans-Serif" font-size="10.00">tests.commandTests.boolean</text>
<text text-anchor="middle" x="343" y="-66" font-family="Helvetica,sans-Serif" font-size="10.00">ConditionalCommands.IfTests.TrueTest</text>
</a>
</g>
</g>
<!-- Node1&#45;&gt;Node35 -->
<g id="edge34" class="edge"><title>Node1&#45;&gt;Node35</title>
<path fill="none" stroke="midnightblue" d="M93.8636,-968.66C93.6883,-836.714 99.6177,-229.391 222,-99 228.117,-92.483 235.456,-87.4315 243.453,-83.54"/>
<polygon fill="midnightblue" stroke="midnightblue" points="90.3643,-968.971 93.8917,-978.962 97.3643,-968.952 90.3643,-968.971"/>
</g>
<!-- Node36 -->
<g id="node36" class="node"><title>Node36</title>
<g id="a_node36"><a xlink:href="../../de/dd0/classtests_1_1command_tests_1_1boolean_conditional_commands_1_1_if_else_tests.html#ab72bba57dfa24c125aebcedbaaab10d2" target="_top" xlink:title="tests.commandTests.boolean\lConditionalCommands.IfElseTests.\lTrueTest">
<polygon fill="white" stroke="black" points="253,0.5 253,-40.5 433,-40.5 433,0.5 253,0.5"/>
<text text-anchor="start" x="261" y="-28.5" font-family="Helvetica,sans-Serif" font-size="10.00">tests.commandTests.boolean</text>
<text text-anchor="start" x="261" y="-17.5" font-family="Helvetica,sans-Serif" font-size="10.00">ConditionalCommands.IfElseTests.</text>
<text text-anchor="middle" x="343" y="-6.5" font-family="Helvetica,sans-Serif" font-size="10.00">TrueTest</text>
</a>
</g>
</g>
<!-- Node1&#45;&gt;Node36 -->
<g id="edge35" class="edge"><title>Node1&#45;&gt;Node36</title>
<path fill="none" stroke="midnightblue" d="M93.7509,-968.666C92.9398,-832.741 95.9082,-190.814 222,-50 230.38,-40.6411 241.197,-33.993 252.899,-29.3054"/>
<polygon fill="midnightblue" stroke="midnightblue" points="90.2527,-968.934 93.8257,-978.908 97.2525,-968.883 90.2527,-968.934"/>
</g>
</g>
</svg>
