<?xml version="1.0" encoding="UTF-8" standalone="no"?>
<!DOCTYPE svg PUBLIC "-//W3C//DTD SVG 1.1//EN"
 "http://www.w3.org/Graphics/SVG/1.1/DTD/svg11.dtd">
<!-- Generated by graphviz version 2.36.0 (20140111.2315)
 -->
<!-- Title: gui.nonbuttonfeatures.SetTurtleScreenColorFeature Pages: 1 -->
<svg width="158pt" height="164pt"
 viewBox="0.00 0.00 158.00 164.00" xmlns="http://www.w3.org/2000/svg" xmlns:xlink="http://www.w3.org/1999/xlink">
<g id="graph0" class="graph" transform="scale(1 1) rotate(0) translate(4 160)">
<title>gui.nonbuttonfeatures.SetTurtleScreenColorFeature</title>
<polygon fill="white" stroke="none" points="-4,4 -4,-160 154,-160 154,4 -4,4"/>
<!-- Node1 -->
<g id="node1" class="node"><title>Node1</title>
<polygon fill="#bfbfbf" stroke="black" points="3.5,-1 3.5,-31 146.5,-31 146.5,-1 3.5,-1"/>
<text text-anchor="start" x="11.5" y="-19" font-family="Helvetica,sans-Serif" font-size="10.00">gui.nonbuttonfeatures.Set</text>
<text text-anchor="middle" x="75" y="-8" font-family="Helvetica,sans-Serif" font-size="10.00">TurtleScreenColorFeature</text>
</g>
<!-- Node2 -->
<g id="node2" class="node"><title>Node2</title>
<g id="a_node2"><a xlink:href="../../df/de1/classgui_1_1nonbuttonfeatures_1_1_color_picker_feature.html" target="_top" xlink:title="gui.nonbuttonfeatures.Color\lPickerFeature">
<polygon fill="white" stroke="black" points="-0.5,-69 -0.5,-99 150.5,-99 150.5,-69 -0.5,-69"/>
<text text-anchor="start" x="7.5" y="-87" font-family="Helvetica,sans-Serif" font-size="10.00">gui.nonbuttonfeatures.Color</text>
<text text-anchor="middle" x="75" y="-76" font-family="Helvetica,sans-Serif" font-size="10.00">PickerFeature</text>
</a>
</g>
</g>
<!-- Node2&#45;&gt;Node1 -->
<g id="edge1" class="edge"><title>Node2&#45;&gt;Node1</title>
<path fill="none" stroke="midnightblue" d="M75,-58.5322C75,-49.3606 75,-39.2449 75,-31.2931"/>
<polygon fill="midnightblue" stroke="midnightblue" points="71.5001,-58.6789 75,-68.679 78.5001,-58.679 71.5001,-58.6789"/>
</g>
<!-- Node3 -->
<g id="node3" class="node"><title>Node3</title>
<polygon fill="white" stroke="#bfbfbf" points="40,-136.5 40,-155.5 110,-155.5 110,-136.5 40,-136.5"/>
<text text-anchor="middle" x="75" y="-143.5" font-family="Helvetica,sans-Serif" font-size="10.00">ColorPicker</text>
</g>
<!-- Node3&#45;&gt;Node2 -->
<g id="edge2" class="edge"><title>Node3&#45;&gt;Node2</title>
<path fill="none" stroke="midnightblue" d="M75,-126.371C75,-117.585 75,-107.272 75,-99.1408"/>
<polygon fill="midnightblue" stroke="midnightblue" points="71.5001,-126.403 75,-136.403 78.5001,-126.403 71.5001,-126.403"/>
</g>
</g>
</svg>
