<?xml version="1.0" encoding="UTF-8" standalone="no"?>
<!DOCTYPE svg PUBLIC "-//W3C//DTD SVG 1.1//EN"
 "http://www.w3.org/Graphics/SVG/1.1/DTD/svg11.dtd">
<!-- Generated by graphviz version 2.36.0 (20140111.2315)
 -->
<!-- Title: gui.factories.LineFactory.parseStringToPoints Pages: 1 -->
<svg width="598pt" height="38pt"
 viewBox="0.00 0.00 598.00 38.00" xmlns="http://www.w3.org/2000/svg" xmlns:xlink="http://www.w3.org/1999/xlink">
<g id="graph0" class="graph" transform="scale(1 1) rotate(0) translate(4 34)">
<title>gui.factories.LineFactory.parseStringToPoints</title>
<polygon fill="white" stroke="none" points="-4,4 -4,-34 594,-34 594,4 -4,4"/>
<!-- Node1 -->
<g id="node1" class="node"><title>Node1</title>
<polygon fill="#bfbfbf" stroke="black" points="0.5,-0 0.5,-30 161.5,-30 161.5,-0 0.5,-0"/>
<text text-anchor="start" x="8.5" y="-18" font-family="Helvetica,sans-Serif" font-size="10.00">gui.factories.LineFactory.parse</text>
<text text-anchor="middle" x="81" y="-7" font-family="Helvetica,sans-Serif" font-size="10.00">StringToPoints</text>
</g>
<!-- Node2 -->
<g id="node2" class="node"><title>Node2</title>
<g id="a_node2"><a xlink:href="../../d9/db1/classgui_1_1factories_1_1_line_factory.html#ae85d2251f95d36e5a88dd6beca11f6e9" target="_top" xlink:title="gui.factories.LineFactory.generate\lLines">
<polygon fill="white" stroke="black" points="198.5,-0 198.5,-30 375.5,-30 375.5,-0 198.5,-0"/>
<text text-anchor="start" x="206.5" y="-18" font-family="Helvetica,sans-Serif" font-size="10.00">gui.factories.LineFactory.generate</text>
<text text-anchor="middle" x="287" y="-7" font-family="Helvetica,sans-Serif" font-size="10.00">Lines</text>
</a>
</g>
</g>
<!-- Node1&#45;&gt;Node2 -->
<g id="edge1" class="edge"><title>Node1&#45;&gt;Node2</title>
<path fill="none" stroke="midnightblue" d="M171.923,-15C180.651,-15 189.499,-15 198.205,-15"/>
<polygon fill="midnightblue" stroke="midnightblue" points="171.748,-11.5001 161.748,-15 171.748,-18.5001 171.748,-11.5001"/>
</g>
<!-- Node3 -->
<g id="node3" class="node"><title>Node3</title>
<g id="a_node3"><a xlink:href="../../d9/db1/classgui_1_1factories_1_1_line_factory.html#aa231c6ad19768eadffdee89b51f96e11" target="_top" xlink:title="gui.factories.LineFactory.generate\lObject">
<polygon fill="white" stroke="black" points="412.5,-0 412.5,-30 589.5,-30 589.5,-0 412.5,-0"/>
<text text-anchor="start" x="420.5" y="-18" font-family="Helvetica,sans-Serif" font-size="10.00">gui.factories.LineFactory.generate</text>
<text text-anchor="middle" x="501" y="-7" font-family="Helvetica,sans-Serif" font-size="10.00">Object</text>
</a>
</g>
</g>
<!-- Node2&#45;&gt;Node3 -->
<g id="edge2" class="edge"><title>Node2&#45;&gt;Node3</title>
<path fill="none" stroke="midnightblue" d="M386.01,-15C394.783,-15 403.629,-15 412.307,-15"/>
<polygon fill="midnightblue" stroke="midnightblue" points="385.759,-11.5001 375.759,-15 385.759,-18.5001 385.759,-11.5001"/>
</g>
</g>
</svg>
