<?xml version="1.0" encoding="UTF-8" standalone="no"?>
<!DOCTYPE svg PUBLIC "-//W3C//DTD SVG 1.1//EN"
 "http://www.w3.org/Graphics/SVG/1.1/DTD/svg11.dtd">
<!-- Generated by graphviz version 2.36.0 (20140111.2315)
 -->
<!-- Title: gui.factories.LineFactory.generateLines Pages: 1 -->
<svg width="392pt" height="136pt"
 viewBox="0.00 0.00 392.00 136.00" xmlns="http://www.w3.org/2000/svg" xmlns:xlink="http://www.w3.org/1999/xlink">
<g id="graph0" class="graph" transform="scale(1 1) rotate(0) translate(4 132)">
<title>gui.factories.LineFactory.generateLines</title>
<polygon fill="white" stroke="none" points="-4,4 -4,-132 388,-132 388,4 -4,4"/>
<!-- Node1 -->
<g id="node1" class="node"><title>Node1</title>
<polygon fill="#bfbfbf" stroke="black" points="0.5,-49 0.5,-79 177.5,-79 177.5,-49 0.5,-49"/>
<text text-anchor="start" x="8.5" y="-67" font-family="Helvetica,sans-Serif" font-size="10.00">gui.factories.LineFactory.generate</text>
<text text-anchor="middle" x="89" y="-56" font-family="Helvetica,sans-Serif" font-size="10.00">Lines</text>
</g>
<!-- Node2 -->
<g id="node2" class="node"><title>Node2</title>
<g id="a_node2"><a xlink:href="../../d4/d9b/classgui_1_1turtlescreenwrap_1_1_coordinate_changer.html#a4b6834129da347abd82e9f84a69d0662" target="_top" xlink:title="gui.turtlescreenwrap.Coordinate\lChanger.convX">
<polygon fill="white" stroke="black" points="214,-98 214,-128 384,-128 384,-98 214,-98"/>
<text text-anchor="start" x="222" y="-116" font-family="Helvetica,sans-Serif" font-size="10.00">gui.turtlescreenwrap.Coordinate</text>
<text text-anchor="middle" x="299" y="-105" font-family="Helvetica,sans-Serif" font-size="10.00">Changer.convX</text>
</a>
</g>
</g>
<!-- Node1&#45;&gt;Node2 -->
<g id="edge1" class="edge"><title>Node1&#45;&gt;Node2</title>
<path fill="none" stroke="midnightblue" d="M153.82,-79.0346C176.182,-84.3024 201.471,-90.2601 224.557,-95.6984"/>
<polygon fill="midnightblue" stroke="midnightblue" points="223.764,-99.1075 234.3,-97.9938 225.369,-92.294 223.764,-99.1075"/>
</g>
<!-- Node3 -->
<g id="node3" class="node"><title>Node3</title>
<g id="a_node3"><a xlink:href="../../d4/d9b/classgui_1_1turtlescreenwrap_1_1_coordinate_changer.html#a26ee7cc089d708666b8eab5c37406a7c" target="_top" xlink:title="gui.turtlescreenwrap.Coordinate\lChanger.convY">
<polygon fill="white" stroke="black" points="214,-49 214,-79 384,-79 384,-49 214,-49"/>
<text text-anchor="start" x="222" y="-67" font-family="Helvetica,sans-Serif" font-size="10.00">gui.turtlescreenwrap.Coordinate</text>
<text text-anchor="middle" x="299" y="-56" font-family="Helvetica,sans-Serif" font-size="10.00">Changer.convY</text>
</a>
</g>
</g>
<!-- Node1&#45;&gt;Node3 -->
<g id="edge2" class="edge"><title>Node1&#45;&gt;Node3</title>
<path fill="none" stroke="midnightblue" d="M177.608,-64C186.226,-64 194.999,-64 203.68,-64"/>
<polygon fill="midnightblue" stroke="midnightblue" points="203.815,-67.5001 213.815,-64 203.815,-60.5001 203.815,-67.5001"/>
</g>
<!-- Node4 -->
<g id="node4" class="node"><title>Node4</title>
<g id="a_node4"><a xlink:href="../../d9/db1/classgui_1_1factories_1_1_line_factory.html#a82873f81013c65c70155a83a2c2d09a0" target="_top" xlink:title="gui.factories.LineFactory.parse\lStringToPoints">
<polygon fill="white" stroke="black" points="218.5,-0 218.5,-30 379.5,-30 379.5,-0 218.5,-0"/>
<text text-anchor="start" x="226.5" y="-18" font-family="Helvetica,sans-Serif" font-size="10.00">gui.factories.LineFactory.parse</text>
<text text-anchor="middle" x="299" y="-7" font-family="Helvetica,sans-Serif" font-size="10.00">StringToPoints</text>
</a>
</g>
</g>
<!-- Node1&#45;&gt;Node4 -->
<g id="edge3" class="edge"><title>Node1&#45;&gt;Node4</title>
<path fill="none" stroke="midnightblue" d="M153.82,-48.9654C176.182,-43.6976 201.471,-37.7399 224.557,-32.3016"/>
<polygon fill="midnightblue" stroke="midnightblue" points="225.369,-35.706 234.3,-30.0062 223.764,-28.8925 225.369,-35.706"/>
</g>
</g>
</svg>
