<?xml version="1.0" encoding="UTF-8" standalone="no"?>
<!DOCTYPE svg PUBLIC "-//W3C//DTD SVG 1.1//EN"
 "http://www.w3.org/Graphics/SVG/1.1/DTD/svg11.dtd">
<!-- Generated by graphviz version 2.36.0 (20140111.2315)
 -->
<!-- Title: commandParsing.turtleCommandParsing.MakeTurtle.parse Pages: 1 -->
<svg width="910pt" height="361pt"
 viewBox="0.00 0.00 910.00 361.00" xmlns="http://www.w3.org/2000/svg" xmlns:xlink="http://www.w3.org/1999/xlink">
<g id="graph0" class="graph" transform="scale(1 1) rotate(0) translate(4 357)">
<title>commandParsing.turtleCommandParsing.MakeTurtle.parse</title>
<polygon fill="white" stroke="none" points="-4,4 -4,-357 906,-357 906,4 -4,4"/>
<!-- Node1 -->
<g id="node1" class="node"><title>Node1</title>
<polygon fill="#bfbfbf" stroke="black" points="0.5,-159 0.5,-189 179.5,-189 179.5,-159 0.5,-159"/>
<text text-anchor="start" x="8.5" y="-177" font-family="Helvetica,sans-Serif" font-size="10.00">commandParsing.turtleCommand</text>
<text text-anchor="middle" x="90" y="-166" font-family="Helvetica,sans-Serif" font-size="10.00">Parsing.MakeTurtle.parse</text>
</g>
<!-- Node2 -->
<g id="node2" class="node"><title>Node2</title>
<g id="a_node2"><a xlink:href="../../db/d1f/classworkspace_state_1_1_turtle_collection.html#af419bef3394c00e4313fd549fbcbd9a8" target="_top" xlink:title="workspaceState.TurtleCollection.add\lTurtle">
<polygon fill="white" stroke="black" points="241.5,-268 241.5,-298 430.5,-298 430.5,-268 241.5,-268"/>
<text text-anchor="start" x="249.5" y="-286" font-family="Helvetica,sans-Serif" font-size="10.00">workspaceState.TurtleCollection.add</text>
<text text-anchor="middle" x="336" y="-275" font-family="Helvetica,sans-Serif" font-size="10.00">Turtle</text>
</a>
</g>
</g>
<!-- Node1&#45;&gt;Node2 -->
<g id="edge1" class="edge"><title>Node1&#45;&gt;Node2</title>
<path fill="none" stroke="midnightblue" d="M124.671,-189.042C168.303,-208.533 244.424,-242.538 292.137,-263.852"/>
<polygon fill="midnightblue" stroke="midnightblue" points="290.725,-267.055 301.283,-267.938 293.58,-260.663 290.725,-267.055"/>
</g>
<!-- Node4 -->
<g id="node4" class="node"><title>Node4</title>
<g id="a_node4"><a xlink:href="../../df/d64/interfacecommand_parsing_1_1drawable_obect_generation_interfaces_1_1_turtle_generator.html#ad2df4af6c11d2ec038868c5520be6acd" target="_top" xlink:title="commandParsing.drawableObect\lGenerationInterfaces.TurtleGenerator.generate\lDrawableObjectRepresentingTurtle">
<polygon fill="white" stroke="black" points="216,-153.5 216,-194.5 456,-194.5 456,-153.5 216,-153.5"/>
<text text-anchor="start" x="224" y="-182.5" font-family="Helvetica,sans-Serif" font-size="10.00">commandParsing.drawableObect</text>
<text text-anchor="start" x="224" y="-171.5" font-family="Helvetica,sans-Serif" font-size="10.00">GenerationInterfaces.TurtleGenerator.generate</text>
<text text-anchor="middle" x="336" y="-160.5" font-family="Helvetica,sans-Serif" font-size="10.00">DrawableObjectRepresentingTurtle</text>
</a>
</g>
</g>
<!-- Node1&#45;&gt;Node4 -->
<g id="edge3" class="edge"><title>Node1&#45;&gt;Node4</title>
<path fill="none" stroke="midnightblue" d="M179.78,-174C188.202,-174 196.854,-174 205.556,-174"/>
<polygon fill="midnightblue" stroke="midnightblue" points="205.784,-177.5 215.784,-174 205.784,-170.5 205.784,-177.5"/>
</g>
<!-- Node13 -->
<g id="node13" class="node"><title>Node13</title>
<g id="a_node13"><a xlink:href="../../db/d1f/classworkspace_state_1_1_turtle_collection.html#ae03078f5b9aa6fc7a83f65631683048b" target="_top" xlink:title="workspaceState.TurtleCollection.get\lLastAddedTurtle">
<polygon fill="white" stroke="black" points="242.5,-105 242.5,-135 429.5,-135 429.5,-105 242.5,-105"/>
<text text-anchor="start" x="250.5" y="-123" font-family="Helvetica,sans-Serif" font-size="10.00">workspaceState.TurtleCollection.get</text>
<text text-anchor="middle" x="336" y="-112" font-family="Helvetica,sans-Serif" font-size="10.00">LastAddedTurtle</text>
</a>
</g>
</g>
<!-- Node1&#45;&gt;Node13 -->
<g id="edge12" class="edge"><title>Node1&#45;&gt;Node13</title>
<path fill="none" stroke="midnightblue" d="M151.615,-158.981C172.033,-154.048 194.97,-148.643 216,-144 226.478,-141.687 237.496,-139.344 248.423,-137.076"/>
<polygon fill="midnightblue" stroke="midnightblue" points="249.328,-140.463 258.415,-135.016 247.915,-133.607 249.328,-140.463"/>
</g>
<!-- Node3 -->
<g id="node3" class="node"><title>Node3</title>
<g id="a_node3"><a xlink:href="../../db/d1f/classworkspace_state_1_1_turtle_collection.html#a2a83ac80ea6d84c1b032f2df8ac2fb0d" target="_top" xlink:title="workspaceState.TurtleCollection.generate\lValidTurtleID">
<polygon fill="white" stroke="black" points="492.5,-323 492.5,-353 707.5,-353 707.5,-323 492.5,-323"/>
<text text-anchor="start" x="500.5" y="-341" font-family="Helvetica,sans-Serif" font-size="10.00">workspaceState.TurtleCollection.generate</text>
<text text-anchor="middle" x="600" y="-330" font-family="Helvetica,sans-Serif" font-size="10.00">ValidTurtleID</text>
</a>
</g>
</g>
<!-- Node2&#45;&gt;Node3 -->
<g id="edge2" class="edge"><title>Node2&#45;&gt;Node3</title>
<path fill="none" stroke="midnightblue" d="M408.593,-298.029C442.24,-305.092 482.521,-313.548 517.351,-320.86"/>
<polygon fill="midnightblue" stroke="midnightblue" points="516.988,-324.36 527.494,-322.989 518.426,-317.509 516.988,-324.36"/>
</g>
<!-- Node5 -->
<g id="node5" class="node"><title>Node5</title>
<g id="a_node5"><a xlink:href="../../d0/d77/classworkspace_state_1_1_location.html#ae445cb48bedcd80659a847365a6a3de4" target="_top" xlink:title="workspaceState.Location.generate\lLocationString">
<polygon fill="white" stroke="black" points="508.5,-274 508.5,-304 691.5,-304 691.5,-274 508.5,-274"/>
<text text-anchor="start" x="516.5" y="-292" font-family="Helvetica,sans-Serif" font-size="10.00">workspaceState.Location.generate</text>
<text text-anchor="middle" x="600" y="-281" font-family="Helvetica,sans-Serif" font-size="10.00">LocationString</text>
</a>
</g>
</g>
<!-- Node4&#45;&gt;Node5 -->
<g id="edge4" class="edge"><title>Node4&#45;&gt;Node5</title>
<path fill="none" stroke="midnightblue" d="M366.237,-194.538C396.44,-214.879 445.579,-245.577 492,-264 498.583,-266.612 505.507,-268.993 512.534,-271.154"/>
<polygon fill="midnightblue" stroke="midnightblue" points="511.579,-274.521 522.159,-273.966 513.542,-267.802 511.579,-274.521"/>
</g>
<!-- Node7 -->
<g id="node7" class="node"><title>Node7</title>
<g id="a_node7"><a xlink:href="../../d1/d01/classworkspace_state_1_1_turtle.html#ac6697327d46a4fde63526e973948d6f7" target="_top" xlink:title="workspaceState.Turtle.get\lHeading">
<polygon fill="white" stroke="black" points="530,-225 530,-255 670,-255 670,-225 530,-225"/>
<text text-anchor="start" x="538" y="-243" font-family="Helvetica,sans-Serif" font-size="10.00">workspaceState.Turtle.get</text>
<text text-anchor="middle" x="600" y="-232" font-family="Helvetica,sans-Serif" font-size="10.00">Heading</text>
</a>
</g>
</g>
<!-- Node4&#45;&gt;Node7 -->
<g id="edge6" class="edge"><title>Node4&#45;&gt;Node7</title>
<path fill="none" stroke="midnightblue" d="M412.965,-194.565C438.085,-201.24 466.205,-208.576 492,-215 502.1,-217.515 512.756,-220.094 523.271,-222.595"/>
<polygon fill="midnightblue" stroke="midnightblue" points="522.75,-226.068 533.287,-224.964 524.361,-219.256 522.75,-226.068"/>
</g>
<!-- Node8 -->
<g id="node8" class="node"><title>Node8</title>
<g id="a_node8"><a xlink:href="../../d1/d01/classworkspace_state_1_1_turtle.html#a2b5e77b78036091a65abb5f4959b5ef7" target="_top" xlink:title="workspaceState.Turtle.getID">
<polygon fill="white" stroke="black" points="525,-186.5 525,-205.5 675,-205.5 675,-186.5 525,-186.5"/>
<text text-anchor="middle" x="600" y="-193.5" font-family="Helvetica,sans-Serif" font-size="10.00">workspaceState.Turtle.getID</text>
</a>
</g>
</g>
<!-- Node4&#45;&gt;Node8 -->
<g id="edge7" class="edge"><title>Node4&#45;&gt;Node8</title>
<path fill="none" stroke="midnightblue" d="M456.117,-184.002C475.849,-185.659 495.943,-187.346 514.59,-188.912"/>
<polygon fill="midnightblue" stroke="midnightblue" points="514.53,-192.419 524.788,-189.768 515.116,-185.444 514.53,-192.419"/>
</g>
<!-- Node9 -->
<g id="node9" class="node"><title>Node9</title>
<g id="a_node9"><a xlink:href="../../d1/d01/classworkspace_state_1_1_turtle.html#a9bb3d15f12d9d4e03332ea9817f76882" target="_top" xlink:title="workspaceState.Turtle.get\lLocation">
<polygon fill="white" stroke="black" points="530,-137 530,-167 670,-167 670,-137 530,-137"/>
<text text-anchor="start" x="538" y="-155" font-family="Helvetica,sans-Serif" font-size="10.00">workspaceState.Turtle.get</text>
<text text-anchor="middle" x="600" y="-144" font-family="Helvetica,sans-Serif" font-size="10.00">Location</text>
</a>
</g>
</g>
<!-- Node4&#45;&gt;Node9 -->
<g id="edge8" class="edge"><title>Node4&#45;&gt;Node9</title>
<path fill="none" stroke="midnightblue" d="M456.117,-163.998C477.742,-162.182 499.802,-160.33 519.915,-158.641"/>
<polygon fill="midnightblue" stroke="midnightblue" points="520.258,-162.124 529.93,-157.8 519.673,-155.149 520.258,-162.124"/>
</g>
<!-- Node10 -->
<g id="node10" class="node"><title>Node10</title>
<g id="a_node10"><a xlink:href="../../d1/d01/classworkspace_state_1_1_turtle.html#a5c09e19002f9ed4c61ce538fff3da4ff" target="_top" xlink:title="workspaceState.Turtle.get\lOpacity">
<polygon fill="white" stroke="black" points="530,-88 530,-118 670,-118 670,-88 530,-88"/>
<text text-anchor="start" x="538" y="-106" font-family="Helvetica,sans-Serif" font-size="10.00">workspaceState.Turtle.get</text>
<text text-anchor="middle" x="600" y="-95" font-family="Helvetica,sans-Serif" font-size="10.00">Opacity</text>
</a>
</g>
</g>
<!-- Node4&#45;&gt;Node10 -->
<g id="edge9" class="edge"><title>Node4&#45;&gt;Node10</title>
<path fill="none" stroke="midnightblue" d="M426.59,-153.417C436.596,-150.527 446.573,-147.378 456,-144 472.657,-138.031 475.266,-132.749 492,-127 500.953,-123.924 510.466,-121.138 519.982,-118.644"/>
<polygon fill="midnightblue" stroke="midnightblue" points="521.035,-121.988 529.877,-116.152 519.325,-115.2 521.035,-121.988"/>
</g>
<!-- Node11 -->
<g id="node11" class="node"><title>Node11</title>
<g id="a_node11"><a xlink:href="../../da/de7/classworkspace_state_1_1_shape.html#aace6051dd26034446492ecac6ff16099" target="_top" xlink:title="workspaceState.Shape.getPath">
<polygon fill="white" stroke="black" points="516.5,-49.5 516.5,-68.5 683.5,-68.5 683.5,-49.5 516.5,-49.5"/>
<text text-anchor="middle" x="600" y="-56.5" font-family="Helvetica,sans-Serif" font-size="10.00">workspaceState.Shape.getPath</text>
</a>
</g>
</g>
<!-- Node4&#45;&gt;Node11 -->
<g id="edge10" class="edge"><title>Node4&#45;&gt;Node11</title>
<path fill="none" stroke="midnightblue" d="M441.392,-153.389C446.541,-150.637 451.453,-147.523 456,-144 482.413,-123.535 464.876,-97.5119 492,-78 496.595,-74.6948 501.582,-71.9032 506.807,-69.5505"/>
<polygon fill="midnightblue" stroke="midnightblue" points="508.404,-72.6838 516.434,-65.7731 505.847,-66.1674 508.404,-72.6838"/>
</g>
<!-- Node12 -->
<g id="node12" class="node"><title>Node12</title>
<g id="a_node12"><a xlink:href="../../d1/d01/classworkspace_state_1_1_turtle.html#a8d9dd9cb3503c6d0aa45efca91816f71" target="_top" xlink:title="workspaceState.Turtle.get\lShape">
<polygon fill="white" stroke="black" points="530,-0 530,-30 670,-30 670,-0 530,-0"/>
<text text-anchor="start" x="538" y="-18" font-family="Helvetica,sans-Serif" font-size="10.00">workspaceState.Turtle.get</text>
<text text-anchor="middle" x="600" y="-7" font-family="Helvetica,sans-Serif" font-size="10.00">Shape</text>
</a>
</g>
</g>
<!-- Node4&#45;&gt;Node12 -->
<g id="edge11" class="edge"><title>Node4&#45;&gt;Node12</title>
<path fill="none" stroke="midnightblue" d="M443.501,-153.428C447.953,-150.656 452.153,-147.528 456,-144 492.046,-110.937 455.667,-72.7475 492,-40 500.083,-32.715 509.875,-27.4353 520.215,-23.6288"/>
<polygon fill="midnightblue" stroke="midnightblue" points="521.385,-26.9291 529.831,-20.532 519.239,-20.2661 521.385,-26.9291"/>
</g>
<!-- Node6 -->
<g id="node6" class="node"><title>Node6</title>
<g id="a_node6"><a xlink:href="../../d0/d77/classworkspace_state_1_1_location.html#ad4e68a97bd0ea67236551c1183fdcd6f" target="_top" xlink:title="workspaceState.Location.add">
<polygon fill="white" stroke="black" points="744,-279.5 744,-298.5 902,-298.5 902,-279.5 744,-279.5"/>
<text text-anchor="middle" x="823" y="-286.5" font-family="Helvetica,sans-Serif" font-size="10.00">workspaceState.Location.add</text>
</a>
</g>
</g>
<!-- Node5&#45;&gt;Node6 -->
<g id="edge5" class="edge"><title>Node5&#45;&gt;Node6</title>
<path fill="none" stroke="midnightblue" d="M691.527,-289C705.531,-289 719.979,-289 733.928,-289"/>
<polygon fill="midnightblue" stroke="midnightblue" points="733.984,-292.5 743.984,-289 733.984,-285.5 733.984,-292.5"/>
</g>
</g>
</svg>
