<?xml version="1.0" encoding="UTF-8" standalone="no"?>
<!DOCTYPE svg PUBLIC "-//W3C//DTD SVG 1.1//EN"
 "http://www.w3.org/Graphics/SVG/1.1/DTD/svg11.dtd">
<!-- Generated by graphviz version 2.36.0 (20140111.2315)
 -->
<!-- Title: commandParsing.turtleQueryParsing.Heading.parse Pages: 1 -->
<svg width="576pt" height="87pt"
 viewBox="0.00 0.00 576.00 87.00" xmlns="http://www.w3.org/2000/svg" xmlns:xlink="http://www.w3.org/1999/xlink">
<g id="graph0" class="graph" transform="scale(1 1) rotate(0) translate(4 83)">
<title>commandParsing.turtleQueryParsing.Heading.parse</title>
<polygon fill="white" stroke="none" points="-4,4 -4,-83 572,-83 572,4 -4,4"/>
<!-- Node1 -->
<g id="node1" class="node"><title>Node1</title>
<polygon fill="#bfbfbf" stroke="black" points="0.5,-24 0.5,-54 157.5,-54 157.5,-24 0.5,-24"/>
<text text-anchor="start" x="8.5" y="-42" font-family="Helvetica,sans-Serif" font-size="10.00">commandParsing.turtleQuery</text>
<text text-anchor="middle" x="79" y="-31" font-family="Helvetica,sans-Serif" font-size="10.00">Parsing.Heading.parse</text>
</g>
<!-- Node2 -->
<g id="node2" class="node"><title>Node2</title>
<g id="a_node2"><a xlink:href="../../d1/d01/classworkspace_state_1_1_turtle.html#ac6697327d46a4fde63526e973948d6f7" target="_top" xlink:title="workspaceState.Turtle.get\lHeading">
<polygon fill="white" stroke="black" points="218,-49 218,-79 358,-79 358,-49 218,-49"/>
<text text-anchor="start" x="226" y="-67" font-family="Helvetica,sans-Serif" font-size="10.00">workspaceState.Turtle.get</text>
<text text-anchor="middle" x="288" y="-56" font-family="Helvetica,sans-Serif" font-size="10.00">Heading</text>
</a>
</g>
</g>
<!-- Node1&#45;&gt;Node2 -->
<g id="edge1" class="edge"><title>Node1&#45;&gt;Node2</title>
<path fill="none" stroke="midnightblue" d="M157.668,-48.3802C174.009,-50.3537 191.267,-52.438 207.668,-54.4188"/>
<polygon fill="midnightblue" stroke="midnightblue" points="207.405,-57.9124 217.753,-55.6368 208.245,-50.9629 207.405,-57.9124"/>
</g>
<!-- Node3 -->
<g id="node3" class="node"><title>Node3</title>
<g id="a_node3"><a xlink:href="../../db/d1f/classworkspace_state_1_1_turtle_collection.html#adb957aceb9e490922ee0604c86f0bc79" target="_top" xlink:title="workspaceState.TurtleCollection.get\lLastActiveTurtle">
<polygon fill="white" stroke="black" points="194.5,-0 194.5,-30 381.5,-30 381.5,-0 194.5,-0"/>
<text text-anchor="start" x="202.5" y="-18" font-family="Helvetica,sans-Serif" font-size="10.00">workspaceState.TurtleCollection.get</text>
<text text-anchor="middle" x="288" y="-7" font-family="Helvetica,sans-Serif" font-size="10.00">LastActiveTurtle</text>
</a>
</g>
</g>
<!-- Node1&#45;&gt;Node3 -->
<g id="edge2" class="edge"><title>Node1&#45;&gt;Node3</title>
<path fill="none" stroke="midnightblue" d="M157.668,-29.995C166.337,-28.9899 175.264,-27.9549 184.184,-26.9207"/>
<polygon fill="midnightblue" stroke="midnightblue" points="184.707,-30.3835 194.238,-25.755 183.901,-23.4301 184.707,-30.3835"/>
</g>
<!-- Node4 -->
<g id="node4" class="node"><title>Node4</title>
<g id="a_node4"><a xlink:href="../../d1/d01/classworkspace_state_1_1_turtle.html#a2b5e77b78036091a65abb5f4959b5ef7" target="_top" xlink:title="workspaceState.Turtle.getID">
<polygon fill="white" stroke="black" points="418,-5.5 418,-24.5 568,-24.5 568,-5.5 418,-5.5"/>
<text text-anchor="middle" x="493" y="-12.5" font-family="Helvetica,sans-Serif" font-size="10.00">workspaceState.Turtle.getID</text>
</a>
</g>
</g>
<!-- Node3&#45;&gt;Node4 -->
<g id="edge3" class="edge"><title>Node3&#45;&gt;Node4</title>
<path fill="none" stroke="midnightblue" d="M381.589,-15C390.308,-15 399.115,-15 407.75,-15"/>
<polygon fill="midnightblue" stroke="midnightblue" points="407.792,-18.5001 417.792,-15 407.792,-11.5001 407.792,-18.5001"/>
</g>
</g>
</svg>
