<?xml version="1.0" encoding="UTF-8" standalone="no"?>
<!DOCTYPE svg PUBLIC "-//W3C//DTD SVG 1.1//EN"
 "http://www.w3.org/Graphics/SVG/1.1/DTD/svg11.dtd">
<!-- Generated by graphviz version 2.36.0 (20140111.2315)
 -->
<!-- Title: gui.nonbuttonfeatures.tableviews.colorindex.ColorIndexFeature Pages: 1 -->
<svg width="236pt" height="108pt"
 viewBox="0.00 0.00 236.00 108.00" xmlns="http://www.w3.org/2000/svg" xmlns:xlink="http://www.w3.org/1999/xlink">
<g id="graph0" class="graph" transform="scale(1 1) rotate(0) translate(4 104)">
<title>gui.nonbuttonfeatures.tableviews.colorindex.ColorIndexFeature</title>
<polygon fill="white" stroke="none" points="-4,4 -4,-104 232,-104 232,4 -4,4"/>
<!-- Node1 -->
<g id="node1" class="node"><title>Node1</title>
<polygon fill="#bfbfbf" stroke="black" points="-1,-1 -1,-31 229,-31 229,-1 -1,-1"/>
<text text-anchor="start" x="7" y="-19" font-family="Helvetica,sans-Serif" font-size="10.00">gui.nonbuttonfeatures.tableviews.colorindex.</text>
<text text-anchor="middle" x="114" y="-8" font-family="Helvetica,sans-Serif" font-size="10.00">ColorIndexFeature</text>
</g>
<!-- Node2 -->
<g id="node2" class="node"><title>Node2</title>
<polygon fill="white" stroke="#bfbfbf" points="43.5,-69 43.5,-99 184.5,-99 184.5,-69 43.5,-69"/>
<text text-anchor="start" x="51.5" y="-87" font-family="Helvetica,sans-Serif" font-size="10.00">javafx::scene::control</text>
<text text-anchor="middle" x="114" y="-76" font-family="Helvetica,sans-Serif" font-size="10.00">::TableView&lt; ColorIndex &gt;</text>
</g>
<!-- Node2&#45;&gt;Node1 -->
<g id="edge1" class="edge"><title>Node2&#45;&gt;Node1</title>
<path fill="none" stroke="midnightblue" d="M114,-58.5322C114,-49.3606 114,-39.2449 114,-31.2931"/>
<polygon fill="midnightblue" stroke="midnightblue" points="110.5,-58.6789 114,-68.679 117.5,-58.679 110.5,-58.6789"/>
</g>
</g>
</svg>
