<?xml version="1.0" encoding="UTF-8" standalone="no"?>
<!DOCTYPE svg PUBLIC "-//W3C//DTD SVG 1.1//EN"
 "http://www.w3.org/Graphics/SVG/1.1/DTD/svg11.dtd">
<!-- Generated by graphviz version 2.36.0 (20140111.2315)
 -->
<!-- Title: workspaceState.UserDefinedCommandCollection.Command.getParameters Pages: 1 -->
<svg width="740pt" height="159pt"
 viewBox="0.00 0.00 740.00 159.00" xmlns="http://www.w3.org/2000/svg" xmlns:xlink="http://www.w3.org/1999/xlink">
<g id="graph0" class="graph" transform="scale(1 1) rotate(0) translate(4 155)">
<title>workspaceState.UserDefinedCommandCollection.Command.getParameters</title>
<polygon fill="white" stroke="none" points="-4,4 -4,-155 736,-155 736,4 -4,4"/>
<!-- Node1 -->
<g id="node1" class="node"><title>Node1</title>
<polygon fill="#bfbfbf" stroke="black" points="0.5,-66 0.5,-96 241.5,-96 241.5,-66 0.5,-66"/>
<text text-anchor="start" x="8.5" y="-84" font-family="Helvetica,sans-Serif" font-size="10.00">workspaceState.UserDefined</text>
<text text-anchor="middle" x="121" y="-73" font-family="Helvetica,sans-Serif" font-size="10.00">CommandCollection.Command.getParameters</text>
</g>
<!-- Node2 -->
<g id="node2" class="node"><title>Node2</title>
<g id="a_node2"><a xlink:href="../../de/d9e/classcommand_parsing_1_1user_command_parsing_1_1_user_instruction.html#a0e5dae1883f162efa064de96a540ec47" target="_top" xlink:title="commandParsing.userCommand\lParsing.UserInstruction.accumulate\lComponents">
<polygon fill="white" stroke="black" points="303,-109.5 303,-150.5 489,-150.5 489,-109.5 303,-109.5"/>
<text text-anchor="start" x="311" y="-138.5" font-family="Helvetica,sans-Serif" font-size="10.00">commandParsing.userCommand</text>
<text text-anchor="start" x="311" y="-127.5" font-family="Helvetica,sans-Serif" font-size="10.00">Parsing.UserInstruction.accumulate</text>
<text text-anchor="middle" x="396" y="-116.5" font-family="Helvetica,sans-Serif" font-size="10.00">Components</text>
</a>
</g>
</g>
<!-- Node1&#45;&gt;Node2 -->
<g id="edge1" class="edge"><title>Node1&#45;&gt;Node2</title>
<path fill="none" stroke="midnightblue" d="M215.616,-97.8029C243.814,-102.864 274.73,-108.413 302.833,-113.457"/>
<polygon fill="midnightblue" stroke="midnightblue" points="216.225,-94.3564 205.764,-96.0346 214.989,-101.246 216.225,-94.3564"/>
</g>
<!-- Node3 -->
<g id="node3" class="node"><title>Node3</title>
<g id="a_node3"><a xlink:href="../../de/d9e/classcommand_parsing_1_1user_command_parsing_1_1_user_instruction.html#a6b14be9849056a39530c989dde2da904" target="_top" xlink:title="commandParsing.userCommand\lParsing.UserInstruction.parse">
<polygon fill="white" stroke="black" points="554,-115 554,-145 728,-145 728,-115 554,-115"/>
<text text-anchor="start" x="562" y="-133" font-family="Helvetica,sans-Serif" font-size="10.00">commandParsing.userCommand</text>
<text text-anchor="middle" x="641" y="-122" font-family="Helvetica,sans-Serif" font-size="10.00">Parsing.UserInstruction.parse</text>
</a>
</g>
</g>
<!-- Node1&#45;&gt;Node3 -->
<g id="edge6" class="edge"><title>Node1&#45;&gt;Node3</title>
<path fill="none" stroke="midnightblue" d="M251.951,-81.2739C328.549,-82.9328 427.167,-87.667 514,-100 538.044,-103.415 564.226,-109.288 586.463,-114.937"/>
<polygon fill="midnightblue" stroke="midnightblue" points="251.839,-77.771 241.77,-81.0686 251.698,-84.7696 251.839,-77.771"/>
</g>
<!-- Node4 -->
<g id="node4" class="node"><title>Node4</title>
<g id="a_node4"><a xlink:href="../../da/dca/interfacecommand_parsing_1_1drawable_obect_generation_interfaces_1_1_user_defined_command_generator.html#ac81cc65aa45853102af451a42227ffba" target="_top" xlink:title="commandParsing.drawableObect\lGenerationInterfaces.UserDefined\lCommandGenerator.generateDrawableObject\lRepresentingCommand">
<polygon fill="white" stroke="black" points="278,-0 278,-52 514,-52 514,-0 278,-0"/>
<text text-anchor="start" x="286" y="-40" font-family="Helvetica,sans-Serif" font-size="10.00">commandParsing.drawableObect</text>
<text text-anchor="start" x="286" y="-29" font-family="Helvetica,sans-Serif" font-size="10.00">GenerationInterfaces.UserDefined</text>
<text text-anchor="start" x="286" y="-18" font-family="Helvetica,sans-Serif" font-size="10.00">CommandGenerator.generateDrawableObject</text>
<text text-anchor="middle" x="396" y="-7" font-family="Helvetica,sans-Serif" font-size="10.00">RepresentingCommand</text>
</a>
</g>
</g>
<!-- Node1&#45;&gt;Node4 -->
<g id="edge4" class="edge"><title>Node1&#45;&gt;Node4</title>
<path fill="none" stroke="midnightblue" d="M206.472,-63.9817C229.067,-59.4297 253.898,-54.4271 277.912,-49.5892"/>
<polygon fill="midnightblue" stroke="midnightblue" points="205.71,-60.5649 196.598,-65.971 207.093,-67.427 205.71,-60.5649"/>
</g>
<!-- Node2&#45;&gt;Node3 -->
<g id="edge2" class="edge"><title>Node2&#45;&gt;Node3</title>
<path fill="none" stroke="midnightblue" d="M499.24,-123.326C517.416,-123.182 536.181,-123.243 553.853,-123.511"/>
<polygon fill="midnightblue" stroke="midnightblue" points="499.178,-119.826 489.214,-123.427 499.249,-126.826 499.178,-119.826"/>
</g>
<!-- Node3&#45;&gt;Node2 -->
<g id="edge3" class="edge"><title>Node3&#45;&gt;Node2</title>
<path fill="none" stroke="midnightblue" d="M543.683,-136.619C525.74,-136.808 507.03,-136.792 489.214,-136.573"/>
<polygon fill="midnightblue" stroke="midnightblue" points="543.899,-140.117 553.853,-136.489 543.809,-133.118 543.899,-140.117"/>
</g>
<!-- Node5 -->
<g id="node5" class="node"><title>Node5</title>
<g id="a_node5"><a xlink:href="../../d3/d58/classcommand_parsing_1_1user_command_parsing_1_1_make_user_instruction.html#ae874a4712e6685abea7e05c70b4bb7b7" target="_top" xlink:title="commandParsing.userCommand\lParsing.MakeUserInstruction.parse">
<polygon fill="white" stroke="black" points="550,-11 550,-41 732,-41 732,-11 550,-11"/>
<text text-anchor="start" x="558" y="-29" font-family="Helvetica,sans-Serif" font-size="10.00">commandParsing.userCommand</text>
<text text-anchor="middle" x="641" y="-18" font-family="Helvetica,sans-Serif" font-size="10.00">Parsing.MakeUserInstruction.parse</text>
</a>
</g>
</g>
<!-- Node4&#45;&gt;Node5 -->
<g id="edge5" class="edge"><title>Node4&#45;&gt;Node5</title>
<path fill="none" stroke="midnightblue" d="M524.37,-26C533.002,-26 541.594,-26 549.972,-26"/>
<polygon fill="midnightblue" stroke="midnightblue" points="524.229,-22.5001 514.229,-26 524.229,-29.5001 524.229,-22.5001"/>
</g>
</g>
</svg>
