<?xml version="1.0" encoding="UTF-8" standalone="no"?>
<!DOCTYPE svg PUBLIC "-//W3C//DTD SVG 1.1//EN"
 "http://www.w3.org/Graphics/SVG/1.1/DTD/svg11.dtd">
<!-- Generated by graphviz version 2.36.0 (20140111.2315)
 -->
<!-- Title: workspaceState.UserDefinedCommandCollection.Command.equals Pages: 1 -->
<svg width="466pt" height="38pt"
 viewBox="0.00 0.00 466.00 38.00" xmlns="http://www.w3.org/2000/svg" xmlns:xlink="http://www.w3.org/1999/xlink">
<g id="graph0" class="graph" transform="scale(1 1) rotate(0) translate(4 34)">
<title>workspaceState.UserDefinedCommandCollection.Command.equals</title>
<polygon fill="white" stroke="none" points="-4,4 -4,-34 462,-34 462,4 -4,4"/>
<!-- Node1 -->
<g id="node1" class="node"><title>Node1</title>
<polygon fill="#bfbfbf" stroke="black" points="0.5,-0 0.5,-30 201.5,-30 201.5,-0 0.5,-0"/>
<text text-anchor="start" x="8.5" y="-18" font-family="Helvetica,sans-Serif" font-size="10.00">workspaceState.UserDefined</text>
<text text-anchor="middle" x="101" y="-7" font-family="Helvetica,sans-Serif" font-size="10.00">CommandCollection.Command.equals</text>
</g>
<!-- Node2 -->
<g id="node2" class="node"><title>Node2</title>
<g id="a_node2"><a xlink:href="../../d1/d88/classworkspace_state_1_1_user_defined_command_collection_1_1_command.html#a80b2d29f8d8d2ec72cabf221130b970a" target="_top" xlink:title="workspaceState.UserDefined\lCommandCollection.Command.Command">
<polygon fill="white" stroke="black" points="238,-0 238,-30 458,-30 458,-0 238,-0"/>
<text text-anchor="start" x="246" y="-18" font-family="Helvetica,sans-Serif" font-size="10.00">workspaceState.UserDefined</text>
<text text-anchor="middle" x="348" y="-7" font-family="Helvetica,sans-Serif" font-size="10.00">CommandCollection.Command.Command</text>
</a>
</g>
</g>
<!-- Node1&#45;&gt;Node2 -->
<g id="edge1" class="edge"><title>Node1&#45;&gt;Node2</title>
<path fill="none" stroke="midnightblue" d="M201.651,-15C210.221,-15 218.945,-15 227.648,-15"/>
<polygon fill="midnightblue" stroke="midnightblue" points="227.845,-18.5001 237.845,-15 227.845,-11.5001 227.845,-18.5001"/>
</g>
</g>
</svg>
