<?xml version="1.0" encoding="UTF-8" standalone="no"?>
<!DOCTYPE svg PUBLIC "-//W3C//DTD SVG 1.1//EN"
 "http://www.w3.org/Graphics/SVG/1.1/DTD/svg11.dtd">
<!-- Generated by graphviz version 2.36.0 (20140111.2315)
 -->
<!-- Title: workspaceState.UserDefinedCommandCollection.Command.equals Pages: 1 -->
<svg width="488pt" height="109pt"
 viewBox="0.00 0.00 488.00 109.00" xmlns="http://www.w3.org/2000/svg" xmlns:xlink="http://www.w3.org/1999/xlink">
<g id="graph0" class="graph" transform="scale(1 1) rotate(0) translate(4 105)">
<title>workspaceState.UserDefinedCommandCollection.Command.equals</title>
<polygon fill="white" stroke="none" points="-4,4 -4,-105 484,-105 484,4 -4,4"/>
<!-- Node1 -->
<g id="node1" class="node"><title>Node1</title>
<polygon fill="#bfbfbf" stroke="black" points="0.5,-35 0.5,-65 201.5,-65 201.5,-35 0.5,-35"/>
<text text-anchor="start" x="8.5" y="-53" font-family="Helvetica,sans-Serif" font-size="10.00">workspaceState.UserDefined</text>
<text text-anchor="middle" x="101" y="-42" font-family="Helvetica,sans-Serif" font-size="10.00">CommandCollection.Command.equals</text>
</g>
<!-- Node2 -->
<g id="node2" class="node"><title>Node2</title>
<g id="a_node2"><a xlink:href="../../df/dde/classtests_1_1command_tests_1_1user_defined_command_tests_1_1_make_user_instruction_tests.html#aeff560cfcbaecd0222009883a57dead3" target="_top" xlink:title="tests.commandTests.userDefined\lCommandTests.MakeUserInstruction\lTests.MakeCommandTest">
<polygon fill="white" stroke="black" points="263,-59.5 263,-100.5 455,-100.5 455,-59.5 263,-59.5"/>
<text text-anchor="start" x="271" y="-88.5" font-family="Helvetica,sans-Serif" font-size="10.00">tests.commandTests.userDefined</text>
<text text-anchor="start" x="271" y="-77.5" font-family="Helvetica,sans-Serif" font-size="10.00">CommandTests.MakeUserInstruction</text>
<text text-anchor="middle" x="359" y="-66.5" font-family="Helvetica,sans-Serif" font-size="10.00">Tests.MakeCommandTest</text>
</a>
</g>
</g>
<!-- Node1&#45;&gt;Node2 -->
<g id="edge1" class="edge"><title>Node1&#45;&gt;Node2</title>
<path fill="none" stroke="midnightblue" d="M211.66,-62.8508C228.663,-64.8433 246.107,-66.8875 262.757,-68.8388"/>
<polygon fill="midnightblue" stroke="midnightblue" points="212.049,-59.3725 201.709,-61.6847 211.234,-66.3249 212.049,-59.3725"/>
</g>
<!-- Node3 -->
<g id="node3" class="node"><title>Node3</title>
<g id="a_node3"><a xlink:href="../../df/dde/classtests_1_1command_tests_1_1user_defined_command_tests_1_1_make_user_instruction_tests.html#a43b4b411c31260c575955a7939330f46" target="_top" xlink:title="tests.commandTests.userDefined\lCommandTests.MakeUserInstruction\lTests.MakeCommandTestWithPreviousVariables">
<polygon fill="white" stroke="black" points="238,0.5 238,-40.5 480,-40.5 480,0.5 238,0.5"/>
<text text-anchor="start" x="246" y="-28.5" font-family="Helvetica,sans-Serif" font-size="10.00">tests.commandTests.userDefined</text>
<text text-anchor="start" x="246" y="-17.5" font-family="Helvetica,sans-Serif" font-size="10.00">CommandTests.MakeUserInstruction</text>
<text text-anchor="middle" x="359" y="-6.5" font-family="Helvetica,sans-Serif" font-size="10.00">Tests.MakeCommandTestWithPreviousVariables</text>
</a>
</g>
</g>
<!-- Node1&#45;&gt;Node3 -->
<g id="edge2" class="edge"><title>Node1&#45;&gt;Node3</title>
<path fill="none" stroke="midnightblue" d="M211.73,-37.141C220.318,-36.1346 229.018,-35.115 237.672,-34.101"/>
<polygon fill="midnightblue" stroke="midnightblue" points="211.234,-33.6751 201.709,-38.3153 212.049,-40.6275 211.234,-33.6751"/>
</g>
</g>
</svg>
