<?xml version="1.0" encoding="UTF-8" standalone="no"?>
<!DOCTYPE svg PUBLIC "-//W3C//DTD SVG 1.1//EN"
 "http://www.w3.org/Graphics/SVG/1.1/DTD/svg11.dtd">
<!-- Generated by graphviz version 2.36.0 (20140111.2315)
 -->
<!-- Title: workspaceState.UserDefinedCommandCollection.Command.getCommandIterator Pages: 1 -->
<svg width="676pt" height="48pt"
 viewBox="0.00 0.00 676.00 48.00" xmlns="http://www.w3.org/2000/svg" xmlns:xlink="http://www.w3.org/1999/xlink">
<g id="graph0" class="graph" transform="scale(1 1) rotate(0) translate(4 44)">
<title>workspaceState.UserDefinedCommandCollection.Command.getCommandIterator</title>
<polygon fill="white" stroke="none" points="-4,4 -4,-44 672,-44 672,4 -4,4"/>
<!-- Node1 -->
<g id="node1" class="node"><title>Node1</title>
<polygon fill="#bfbfbf" stroke="black" points="0,0.5 0,-40.5 236,-40.5 236,0.5 0,0.5"/>
<text text-anchor="start" x="8" y="-28.5" font-family="Helvetica,sans-Serif" font-size="10.00">workspaceState.UserDefined</text>
<text text-anchor="start" x="8" y="-17.5" font-family="Helvetica,sans-Serif" font-size="10.00">CommandCollection.Command.getCommand</text>
<text text-anchor="middle" x="118" y="-6.5" font-family="Helvetica,sans-Serif" font-size="10.00">Iterator</text>
</g>
<!-- Node2 -->
<g id="node2" class="node"><title>Node2</title>
<g id="a_node2"><a xlink:href="../../de/d9e/classcommand_parsing_1_1user_command_parsing_1_1_user_instruction.html#a6b14be9849056a39530c989dde2da904" target="_top" xlink:title="commandParsing.userCommand\lParsing.UserInstruction.parse">
<polygon fill="white" stroke="black" points="272,-5 272,-35 446,-35 446,-5 272,-5"/>
<text text-anchor="start" x="280" y="-23" font-family="Helvetica,sans-Serif" font-size="10.00">commandParsing.userCommand</text>
<text text-anchor="middle" x="359" y="-12" font-family="Helvetica,sans-Serif" font-size="10.00">Parsing.UserInstruction.parse</text>
</a>
</g>
</g>
<!-- Node1&#45;&gt;Node2 -->
<g id="edge1" class="edge"><title>Node1&#45;&gt;Node2</title>
<path fill="none" stroke="midnightblue" d="M246.225,-20C254.882,-20 263.484,-20 271.849,-20"/>
<polygon fill="midnightblue" stroke="midnightblue" points="246.05,-16.5001 236.049,-20 246.049,-23.5001 246.05,-16.5001"/>
</g>
<!-- Node3 -->
<g id="node3" class="node"><title>Node3</title>
<g id="a_node3"><a xlink:href="../../de/d9e/classcommand_parsing_1_1user_command_parsing_1_1_user_instruction.html#a0e5dae1883f162efa064de96a540ec47" target="_top" xlink:title="commandParsing.userCommand\lParsing.UserInstruction.accumulate\lComponents">
<polygon fill="white" stroke="black" points="482,0.5 482,-40.5 668,-40.5 668,0.5 482,0.5"/>
<text text-anchor="start" x="490" y="-28.5" font-family="Helvetica,sans-Serif" font-size="10.00">commandParsing.userCommand</text>
<text text-anchor="start" x="490" y="-17.5" font-family="Helvetica,sans-Serif" font-size="10.00">Parsing.UserInstruction.accumulate</text>
<text text-anchor="middle" x="575" y="-6.5" font-family="Helvetica,sans-Serif" font-size="10.00">Components</text>
</a>
</g>
</g>
<!-- Node2&#45;&gt;Node3 -->
<g id="edge2" class="edge"><title>Node2&#45;&gt;Node3</title>
<path fill="none" stroke="midnightblue" d="M456.362,-13.2797C464.81,-13.2324 473.347,-13.2416 481.759,-13.3074"/>
<polygon fill="midnightblue" stroke="midnightblue" points="456.087,-9.78182 446.117,-13.3656 456.146,-16.7816 456.087,-9.78182"/>
</g>
<!-- Node3&#45;&gt;Node2 -->
<g id="edge3" class="edge"><title>Node3&#45;&gt;Node2</title>
<path fill="none" stroke="midnightblue" d="M471.73,-26.7441C463.159,-26.7654 454.548,-26.7288 446.117,-26.6344"/>
<polygon fill="midnightblue" stroke="midnightblue" points="471.778,-30.244 481.759,-26.6926 471.742,-23.2441 471.778,-30.244"/>
</g>
</g>
</svg>
