<?xml version="1.0" encoding="UTF-8" standalone="no"?>
<!DOCTYPE svg PUBLIC "-//W3C//DTD SVG 1.1//EN"
 "http://www.w3.org/Graphics/SVG/1.1/DTD/svg11.dtd">
<!-- Generated by graphviz version 2.36.0 (20140111.2315)
 -->
<!-- Title: commandParsing.structuralCommandParsing.Tell.parse Pages: 1 -->
<!--zoomable 543 -->
<svg id="main" version="1.1" xmlns="http://www.w3.org/2000/svg" xmlns:xlink="http://www.w3.org/1999/xlink" xml:space="preserve" onload="init(evt)">
<style type="text/css"><![CDATA[
.edge:hover path { stroke: red; }
.edge:hover polygon { stroke: red; fill: red; }
]]></style>
<script type="text/javascript"><![CDATA[
var edges = document.getElementsByTagName('g');
if (edges && edges.length) {
  for (var i=0;i<edges.length;i++) {
    if (edges[i].id.substr(0,4)=='edge') {
      edges[i].setAttribute('class','edge');
    }
  }
}
]]></script>
        <defs>
                <circle id="rim" cx="0" cy="0" r="7"/>
                <circle id="rim2" cx="0" cy="0" r="3.5"/>
                <g id="zoomPlus">
                        <use xlink:href="#rim" fill="#404040">
                                <set attributeName="fill" to="#808080" begin="zoomplus.mouseover" end="zoomplus.mouseout"/>
                        </use>
                        <path d="M-4,0h8M0,-4v8" fill="none" stroke="white" stroke-width="1.5" pointer-events="none"/>
                </g>
                <g id="zoomMin">
                        <use xlink:href="#rim" fill="#404040">
                                <set attributeName="fill" to="#808080" begin="zoomminus.mouseover" end="zoomminus.mouseout"/>
                        </use>
                        <path d="M-4,0h8" fill="none" stroke="white" stroke-width="1.5" pointer-events="none"/>
                </g>
                <g id="dirArrow">
                        <path fill="none" stroke="white" stroke-width="1.5" d="M0,-3.0v7 M-2.5,-0.5L0,-3.0L2.5,-0.5"/>
                </g>
               <g id="resetDef">
                       <use xlink:href="#rim2" fill="#404040">
                               <set attributeName="fill" to="#808080" begin="reset.mouseover" end="reset.mouseout"/>
                       </use>
               </g>
        </defs>

<script type="text/javascript">
var viewWidth = 1186;
var viewHeight = 543;
var sectionId = 'dynsection-2';
</script>
<script xlink:href="../../svgpan.js"/>
<svg id="graph" class="graph">
<g id="viewport">
<title>commandParsing.structuralCommandParsing.Tell.parse</title>
<polygon fill="white" stroke="none" points="-4,4 -4,-539 1182,-539 1182,4 -4,4"/>
<!-- Node1 -->
<g id="node1" class="node"><title>Node1</title>
<polygon fill="#bfbfbf" stroke="black" points="0.5,-411 0.5,-441 149.5,-441 149.5,-411 0.5,-411"/>
<text text-anchor="start" x="8.5" y="-429" font-family="Helvetica,sans-Serif" font-size="10.00">commandParsing.structural</text>
<text text-anchor="middle" x="75" y="-418" font-family="Helvetica,sans-Serif" font-size="10.00">CommandParsing.Tell.parse</text>
</g>
<!-- Node2 -->
<g id="node2" class="node"><title>Node2</title>
<g id="a_node2"><a xlink:href="../../db/d1f/classworkspace_state_1_1_turtle_collection.html#af5ea0db23f1a5f2bf51f4743faf45943" target="_top" xlink:title="workspaceState.TurtleCollection.clear\lActiveTurtles">
<polygon fill="white" stroke="black" points="224,-505 224,-535 418,-535 418,-505 224,-505"/>
<text text-anchor="start" x="232" y="-523" font-family="Helvetica,sans-Serif" font-size="10.00">workspaceState.TurtleCollection.clear</text>
<text text-anchor="middle" x="321" y="-512" font-family="Helvetica,sans-Serif" font-size="10.00">ActiveTurtles</text>
</a>
</g>
</g>
<!-- Node1&#45;&gt;Node2 -->
<g id="edge1" class="edge"><title>Node1&#45;&gt;Node2</title>
<path fill="none" stroke="midnightblue" d="M95.0657,-441.118C116.104,-457.015 151.562,-481.55 186,-495 195.01,-498.519 204.56,-501.552 214.246,-504.164"/>
<polygon fill="midnightblue" stroke="midnightblue" points="213.409,-507.562 223.963,-506.638 215.136,-500.778 213.409,-507.562"/>
</g>
<!-- Node3 -->
<g id="node3" class="node"><title>Node3</title>
<g id="a_node3"><a xlink:href="../../da/df9/classcommand_parsing_1_1structural_command_parsing_1_1_multiple_turtle_command.html#ad35c079e09e09ce568822527d45dbe7e" target="_top" xlink:title="commandParsing.structural\lCommandParsing.MultipleTurtleCommand.determine\lTurtlesToActivate">
<polygon fill="white" stroke="black" points="186.5,-445.5 186.5,-486.5 455.5,-486.5 455.5,-445.5 186.5,-445.5"/>
<text text-anchor="start" x="194.5" y="-474.5" font-family="Helvetica,sans-Serif" font-size="10.00">commandParsing.structural</text>
<text text-anchor="start" x="194.5" y="-463.5" font-family="Helvetica,sans-Serif" font-size="10.00">CommandParsing.MultipleTurtleCommand.determine</text>
<text text-anchor="middle" x="321" y="-452.5" font-family="Helvetica,sans-Serif" font-size="10.00">TurtlesToActivate</text>
</a>
</g>
</g>
<!-- Node1&#45;&gt;Node3 -->
<g id="edge2" class="edge"><title>Node1&#45;&gt;Node3</title>
<path fill="none" stroke="midnightblue" d="M149.539,-438.056C160.721,-439.889 172.551,-441.828 184.557,-443.796"/>
<polygon fill="midnightblue" stroke="midnightblue" points="184.239,-447.291 194.673,-445.455 185.371,-440.383 184.239,-447.291"/>
</g>
<!-- Node6 -->
<g id="node6" class="node"><title>Node6</title>
<g id="a_node6"><a xlink:href="../../de/dcc/classcommand_parsing_1_1structural_command_parsing_1_1_structural_command.html#aaba2d63efc66bac087cb3b36e2a65a41" target="_top" xlink:title="commandParsing.structural\lCommandParsing.StructuralCommand.extract\lCommandsBetweenBraces">
<polygon fill="white" stroke="black" points="201.5,-366.5 201.5,-407.5 440.5,-407.5 440.5,-366.5 201.5,-366.5"/>
<text text-anchor="start" x="209.5" y="-395.5" font-family="Helvetica,sans-Serif" font-size="10.00">commandParsing.structural</text>
<text text-anchor="start" x="209.5" y="-384.5" font-family="Helvetica,sans-Serif" font-size="10.00">CommandParsing.StructuralCommand.extract</text>
<text text-anchor="middle" x="321" y="-373.5" font-family="Helvetica,sans-Serif" font-size="10.00">CommandsBetweenBraces</text>
</a>
</g>
</g>
<!-- Node1&#45;&gt;Node6 -->
<g id="edge5" class="edge"><title>Node1&#45;&gt;Node6</title>
<path fill="none" stroke="midnightblue" d="M149.539,-414.246C162.878,-412.114 177.14,-409.834 191.523,-407.535"/>
<polygon fill="midnightblue" stroke="midnightblue" points="192.167,-410.977 201.489,-405.942 191.062,-404.065 192.167,-410.977"/>
</g>
<!-- Node10 -->
<g id="node10" class="node"><title>Node10</title>
<g id="a_node10"><a xlink:href="../../da/df9/classcommand_parsing_1_1structural_command_parsing_1_1_multiple_turtle_command.html#ac35b7854cdc1ab7dcdbc9809a6db903c" target="_top" xlink:title="commandParsing.structural\lCommandParsing.MultipleTurtleCommand.make\lAndActivateGivenTurtles">
<polygon fill="white" stroke="black" points="197.5,-188.5 197.5,-229.5 444.5,-229.5 444.5,-188.5 197.5,-188.5"/>
<text text-anchor="start" x="205.5" y="-217.5" font-family="Helvetica,sans-Serif" font-size="10.00">commandParsing.structural</text>
<text text-anchor="start" x="205.5" y="-206.5" font-family="Helvetica,sans-Serif" font-size="10.00">CommandParsing.MultipleTurtleCommand.make</text>
<text text-anchor="middle" x="321" y="-195.5" font-family="Helvetica,sans-Serif" font-size="10.00">AndActivateGivenTurtles</text>
</a>
</g>
</g>
<!-- Node1&#45;&gt;Node10 -->
<g id="edge10" class="edge"><title>Node1&#45;&gt;Node10</title>
<path fill="none" stroke="midnightblue" d="M93.1576,-410.741C133.913,-374.495 237.006,-282.811 289.001,-236.569"/>
<polygon fill="midnightblue" stroke="midnightblue" points="291.443,-239.081 296.59,-229.82 286.791,-233.85 291.443,-239.081"/>
</g>
<!-- Node4 -->
<g id="node4" class="node"><title>Node4</title>
<g id="a_node4"><a xlink:href="../../d7/d17/classcommand_parsing_1_1_command_parser.html#a9bf6e09b0ad06b6f217ad0ad040f8e93" target="_top" xlink:title="commandParsing.CommandParser.create\lParser">
<polygon fill="white" stroke="black" points="504,-505 504,-535 720,-535 720,-505 504,-505"/>
<text text-anchor="start" x="512" y="-523" font-family="Helvetica,sans-Serif" font-size="10.00">commandParsing.CommandParser.create</text>
<text text-anchor="middle" x="612" y="-512" font-family="Helvetica,sans-Serif" font-size="10.00">Parser</text>
</a>
</g>
</g>
<!-- Node3&#45;&gt;Node4 -->
<g id="edge3" class="edge"><title>Node3&#45;&gt;Node4</title>
<path fill="none" stroke="midnightblue" d="M432.083,-486.569C461.207,-492.011 492.311,-497.823 520.28,-503.049"/>
<polygon fill="midnightblue" stroke="midnightblue" points="519.96,-506.55 530.433,-504.946 521.246,-499.669 519.96,-506.55"/>
</g>
<!-- Node5 -->
<g id="node5" class="node"><title>Node5</title>
<g id="a_node5"><a xlink:href="../../d7/d17/classcommand_parsing_1_1_command_parser.html#ae5a2f506ca01f7fa355a64e4831fbae3" target="_top" xlink:title="commandParsing.CommandParser.parse">
<polygon fill="white" stroke="black" points="506,-466.5 506,-485.5 718,-485.5 718,-466.5 506,-466.5"/>
<text text-anchor="middle" x="612" y="-473.5" font-family="Helvetica,sans-Serif" font-size="10.00">commandParsing.CommandParser.parse</text>
</a>
</g>
</g>
<!-- Node3&#45;&gt;Node5 -->
<g id="edge4" class="edge"><title>Node3&#45;&gt;Node5</title>
<path fill="none" stroke="midnightblue" d="M455.503,-470.619C468.938,-471.084 482.501,-471.554 495.724,-472.011"/>
<polygon fill="midnightblue" stroke="midnightblue" points="495.645,-475.51 505.761,-472.358 495.888,-468.515 495.645,-475.51"/>
</g>
<!-- Node7 -->
<g id="node7" class="node"><title>Node7</title>
<g id="a_node7"><a xlink:href="../../de/dcc/classcommand_parsing_1_1structural_command_parsing_1_1_structural_command.html#a3f1054710afe4826d31938f0a74af315" target="_top" xlink:title="commandParsing.structural\lCommandParsing.StructuralCommand.check\lForOpeningBrace">
<polygon fill="white" stroke="black" points="495.5,-406.5 495.5,-447.5 728.5,-447.5 728.5,-406.5 495.5,-406.5"/>
<text text-anchor="start" x="503.5" y="-435.5" font-family="Helvetica,sans-Serif" font-size="10.00">commandParsing.structural</text>
<text text-anchor="start" x="503.5" y="-424.5" font-family="Helvetica,sans-Serif" font-size="10.00">CommandParsing.StructuralCommand.check</text>
<text text-anchor="middle" x="612" y="-413.5" font-family="Helvetica,sans-Serif" font-size="10.00">ForOpeningBrace</text>
</a>
</g>
</g>
<!-- Node6&#45;&gt;Node7 -->
<g id="edge6" class="edge"><title>Node6&#45;&gt;Node7</title>
<path fill="none" stroke="midnightblue" d="M440.798,-403.443C455.472,-405.474 470.51,-407.555 485.282,-409.6"/>
<polygon fill="midnightblue" stroke="midnightblue" points="485.073,-413.104 495.459,-411.008 486.033,-406.17 485.073,-413.104"/>
</g>
<!-- Node8 -->
<g id="node8" class="node"><title>Node8</title>
<g id="a_node8"><a xlink:href="../../d3/de0/classtranslator_1_1_translator.html#a87328fef942490ca02d2ebabaec35c47" target="_top" xlink:title="translator.Translator.matches\lListStartPattern">
<polygon fill="white" stroke="black" points="798,-387 798,-417 954,-417 954,-387 798,-387"/>
<text text-anchor="start" x="806" y="-405" font-family="Helvetica,sans-Serif" font-size="10.00">translator.Translator.matches</text>
<text text-anchor="middle" x="876" y="-394" font-family="Helvetica,sans-Serif" font-size="10.00">ListStartPattern</text>
</a>
</g>
</g>
<!-- Node6&#45;&gt;Node8 -->
<g id="edge9" class="edge"><title>Node6&#45;&gt;Node8</title>
<path fill="none" stroke="midnightblue" d="M440.869,-389.568C522.721,-391.417 633.963,-394.091 732,-397 750.018,-397.535 769.31,-398.168 787.707,-398.801"/>
<polygon fill="midnightblue" stroke="midnightblue" points="787.707,-402.303 797.822,-399.152 787.949,-395.307 787.707,-402.303"/>
</g>
<!-- Node9 -->
<g id="node9" class="node"><title>Node9</title>
<g id="a_node9"><a xlink:href="../../d3/de0/classtranslator_1_1_translator.html#abd79378932d164889d2d90c7783f1493" target="_top" xlink:title="translator.Translator.matches\lListEndPattern">
<polygon fill="white" stroke="black" points="534,-319 534,-349 690,-349 690,-319 534,-319"/>
<text text-anchor="start" x="542" y="-337" font-family="Helvetica,sans-Serif" font-size="10.00">translator.Translator.matches</text>
<text text-anchor="middle" x="612" y="-326" font-family="Helvetica,sans-Serif" font-size="10.00">ListEndPattern</text>
</a>
</g>
</g>
<!-- Node6&#45;&gt;Node9 -->
<g id="edge8" class="edge"><title>Node6&#45;&gt;Node9</title>
<path fill="none" stroke="midnightblue" d="M434.149,-366.433C463.824,-360.991 495.418,-355.197 523.569,-350.034"/>
<polygon fill="midnightblue" stroke="midnightblue" points="524.57,-353.409 533.774,-348.162 523.307,-346.524 524.57,-353.409"/>
</g>
<!-- Node7&#45;&gt;Node8 -->
<g id="edge7" class="edge"><title>Node7&#45;&gt;Node8</title>
<path fill="none" stroke="midnightblue" d="M728.68,-415.962C748.55,-414.066 768.896,-412.124 787.857,-410.315"/>
<polygon fill="midnightblue" stroke="midnightblue" points="788.313,-413.788 797.935,-409.353 787.648,-406.819 788.313,-413.788"/>
</g>
<!-- Node11 -->
<g id="node11" class="node"><title>Node11</title>
<g id="a_node11"><a xlink:href="../../db/d1f/classworkspace_state_1_1_turtle_collection.html#a79a25f886bf29b5b691520b4cd3fa682" target="_top" xlink:title="workspaceState.TurtleCollection.activate\lTurtle">
<polygon fill="white" stroke="black" points="507.5,-270 507.5,-300 716.5,-300 716.5,-270 507.5,-270"/>
<text text-anchor="start" x="515.5" y="-288" font-family="Helvetica,sans-Serif" font-size="10.00">workspaceState.TurtleCollection.activate</text>
<text text-anchor="middle" x="612" y="-277" font-family="Helvetica,sans-Serif" font-size="10.00">Turtle</text>
</a>
</g>
</g>
<!-- Node10&#45;&gt;Node11 -->
<g id="edge11" class="edge"><title>Node10&#45;&gt;Node11</title>
<path fill="none" stroke="midnightblue" d="M385.821,-229.538C417.563,-239.396 456.615,-250.992 492,-260 502.494,-262.671 513.561,-265.276 524.55,-267.733"/>
<polygon fill="midnightblue" stroke="midnightblue" points="524.081,-271.214 534.6,-269.946 525.587,-264.378 524.081,-271.214"/>
</g>
<!-- Node12 -->
<g id="node12" class="node"><title>Node12</title>
<g id="a_node12"><a xlink:href="../../db/d1f/classworkspace_state_1_1_turtle_collection.html#af419bef3394c00e4313fd549fbcbd9a8" target="_top" xlink:title="workspaceState.TurtleCollection.add\lTurtle">
<polygon fill="white" stroke="black" points="517.5,-221 517.5,-251 706.5,-251 706.5,-221 517.5,-221"/>
<text text-anchor="start" x="525.5" y="-239" font-family="Helvetica,sans-Serif" font-size="10.00">workspaceState.TurtleCollection.add</text>
<text text-anchor="middle" x="612" y="-228" font-family="Helvetica,sans-Serif" font-size="10.00">Turtle</text>
</a>
</g>
</g>
<!-- Node10&#45;&gt;Node12 -->
<g id="edge12" class="edge"><title>Node10&#45;&gt;Node12</title>
<path fill="none" stroke="midnightblue" d="M444.562,-220.45C465.356,-222.393 486.77,-224.394 507.028,-226.286"/>
<polygon fill="midnightblue" stroke="midnightblue" points="506.906,-229.79 517.189,-227.236 507.558,-222.821 506.906,-229.79"/>
</g>
<!-- Node14 -->
<g id="node14" class="node"><title>Node14</title>
<g id="a_node14"><a xlink:href="../../df/d64/interfacecommand_parsing_1_1drawable_obect_generation_interfaces_1_1_turtle_generator.html#ad2df4af6c11d2ec038868c5520be6acd" target="_top" xlink:title="commandParsing.drawableObect\lGenerationInterfaces.TurtleGenerator.generate\lDrawableObjectRepresentingTurtle">
<polygon fill="white" stroke="black" points="492,-161.5 492,-202.5 732,-202.5 732,-161.5 492,-161.5"/>
<text text-anchor="start" x="500" y="-190.5" font-family="Helvetica,sans-Serif" font-size="10.00">commandParsing.drawableObect</text>
<text text-anchor="start" x="500" y="-179.5" font-family="Helvetica,sans-Serif" font-size="10.00">GenerationInterfaces.TurtleGenerator.generate</text>
<text text-anchor="middle" x="612" y="-168.5" font-family="Helvetica,sans-Serif" font-size="10.00">DrawableObjectRepresentingTurtle</text>
</a>
</g>
</g>
<!-- Node10&#45;&gt;Node14 -->
<g id="edge14" class="edge"><title>Node10&#45;&gt;Node14</title>
<path fill="none" stroke="midnightblue" d="M444.562,-197.55C456.821,-196.404 469.296,-195.239 481.623,-194.087"/>
<polygon fill="midnightblue" stroke="midnightblue" points="482.303,-197.539 491.934,-193.124 481.652,-190.569 482.303,-197.539"/>
</g>
<!-- Node23 -->
<g id="node23" class="node"><title>Node23</title>
<g id="a_node23"><a xlink:href="../../db/d1f/classworkspace_state_1_1_turtle_collection.html#ae03078f5b9aa6fc7a83f65631683048b" target="_top" xlink:title="workspaceState.TurtleCollection.get\lLastAddedTurtle">
<polygon fill="white" stroke="black" points="518.5,-113 518.5,-143 705.5,-143 705.5,-113 518.5,-113"/>
<text text-anchor="start" x="526.5" y="-131" font-family="Helvetica,sans-Serif" font-size="10.00">workspaceState.TurtleCollection.get</text>
<text text-anchor="middle" x="612" y="-120" font-family="Helvetica,sans-Serif" font-size="10.00">LastAddedTurtle</text>
</a>
</g>
</g>
<!-- Node10&#45;&gt;Node23 -->
<g id="edge23" class="edge"><title>Node10&#45;&gt;Node23</title>
<path fill="none" stroke="midnightblue" d="M377.362,-188.492C410.343,-176.765 453.207,-162.372 492,-152 500.822,-149.641 510.066,-147.393 519.338,-145.287"/>
<polygon fill="midnightblue" stroke="midnightblue" points="520.385,-148.639 529.39,-143.057 518.869,-141.806 520.385,-148.639"/>
</g>
<!-- Node24 -->
<g id="node24" class="node"><title>Node24</title>
<g id="a_node24"><a xlink:href="../../db/d1f/classworkspace_state_1_1_turtle_collection.html#add93f937daadc46dc1e3e4e80f58566f" target="_top" xlink:title="workspaceState.TurtleCollection.has\lTurtleWithID">
<polygon fill="white" stroke="black" points="518,-64 518,-94 706,-94 706,-64 518,-64"/>
<text text-anchor="start" x="526" y="-82" font-family="Helvetica,sans-Serif" font-size="10.00">workspaceState.TurtleCollection.has</text>
<text text-anchor="middle" x="612" y="-71" font-family="Helvetica,sans-Serif" font-size="10.00">TurtleWithID</text>
</a>
</g>
</g>
<!-- Node10&#45;&gt;Node24 -->
<g id="edge24" class="edge"><title>Node10&#45;&gt;Node24</title>
<path fill="none" stroke="midnightblue" d="M348.346,-188.33C380.45,-164.183 437.214,-124.773 492,-103 497.521,-100.806 503.268,-98.8042 509.126,-96.9788"/>
<polygon fill="midnightblue" stroke="midnightblue" points="510.452,-100.238 519.068,-94.0707 508.487,-93.5191 510.452,-100.238"/>
</g>
<!-- Node13 -->
<g id="node13" class="node"><title>Node13</title>
<g id="a_node13"><a xlink:href="../../db/d1f/classworkspace_state_1_1_turtle_collection.html#a2a83ac80ea6d84c1b032f2df8ac2fb0d" target="_top" xlink:title="workspaceState.TurtleCollection.generate\lValidTurtleID">
<polygon fill="white" stroke="black" points="768.5,-323 768.5,-353 983.5,-353 983.5,-323 768.5,-323"/>
<text text-anchor="start" x="776.5" y="-341" font-family="Helvetica,sans-Serif" font-size="10.00">workspaceState.TurtleCollection.generate</text>
<text text-anchor="middle" x="876" y="-330" font-family="Helvetica,sans-Serif" font-size="10.00">ValidTurtleID</text>
</a>
</g>
</g>
<!-- Node12&#45;&gt;Node13 -->
<g id="edge13" class="edge"><title>Node12&#45;&gt;Node13</title>
<path fill="none" stroke="midnightblue" d="M706.773,-247.557C715.693,-250.79 724.277,-254.867 732,-260 755.716,-275.762 744.527,-296.878 768,-313 770.919,-315.005 773.977,-316.85 777.139,-318.549"/>
<polygon fill="midnightblue" stroke="midnightblue" points="775.767,-321.773 786.295,-322.959 778.804,-315.466 775.767,-321.773"/>
</g>
<!-- Node15 -->
<g id="node15" class="node"><title>Node15</title>
<g id="a_node15"><a xlink:href="../../d0/d77/classworkspace_state_1_1_location.html#ae445cb48bedcd80659a847365a6a3de4" target="_top" xlink:title="workspaceState.Location.generate\lLocationString">
<polygon fill="white" stroke="black" points="784.5,-274 784.5,-304 967.5,-304 967.5,-274 784.5,-274"/>
<text text-anchor="start" x="792.5" y="-292" font-family="Helvetica,sans-Serif" font-size="10.00">workspaceState.Location.generate</text>
<text text-anchor="middle" x="876" y="-281" font-family="Helvetica,sans-Serif" font-size="10.00">LocationString</text>
</a>
</g>
</g>
<!-- Node14&#45;&gt;Node15 -->
<g id="edge15" class="edge"><title>Node14&#45;&gt;Node15</title>
<path fill="none" stroke="midnightblue" d="M717.567,-202.531C722.61,-205.038 727.458,-207.848 732,-211 755.396,-227.233 744.527,-247.878 768,-264 770.919,-266.005 773.977,-267.85 777.139,-269.549"/>
<polygon fill="midnightblue" stroke="midnightblue" points="775.767,-272.773 786.295,-273.959 778.804,-266.466 775.767,-272.773"/>
</g>
<!-- Node17 -->
<g id="node17" class="node"><title>Node17</title>
<g id="a_node17"><a xlink:href="../../d1/d01/classworkspace_state_1_1_turtle.html#ac6697327d46a4fde63526e973948d6f7" target="_top" xlink:title="workspaceState.Turtle.get\lHeading">
<polygon fill="white" stroke="black" points="806,-225 806,-255 946,-255 946,-225 806,-225"/>
<text text-anchor="start" x="814" y="-243" font-family="Helvetica,sans-Serif" font-size="10.00">workspaceState.Turtle.get</text>
<text text-anchor="middle" x="876" y="-232" font-family="Helvetica,sans-Serif" font-size="10.00">Heading</text>
</a>
</g>
</g>
<!-- Node14&#45;&gt;Node17 -->
<g id="edge17" class="edge"><title>Node14&#45;&gt;Node17</title>
<path fill="none" stroke="midnightblue" d="M705.74,-202.53C735.631,-209.147 768.436,-216.41 797.141,-222.764"/>
<polygon fill="midnightblue" stroke="midnightblue" points="796.592,-226.227 807.112,-224.971 798.105,-219.393 796.592,-226.227"/>
</g>
<!-- Node18 -->
<g id="node18" class="node"><title>Node18</title>
<g id="a_node18"><a xlink:href="../../d1/d01/classworkspace_state_1_1_turtle.html#a2b5e77b78036091a65abb5f4959b5ef7" target="_top" xlink:title="workspaceState.Turtle.getID">
<polygon fill="white" stroke="black" points="801,-186.5 801,-205.5 951,-205.5 951,-186.5 801,-186.5"/>
<text text-anchor="middle" x="876" y="-193.5" font-family="Helvetica,sans-Serif" font-size="10.00">workspaceState.Turtle.getID</text>
</a>
</g>
</g>
<!-- Node14&#45;&gt;Node18 -->
<g id="edge18" class="edge"><title>Node14&#45;&gt;Node18</title>
<path fill="none" stroke="midnightblue" d="M732.117,-188.365C751.849,-189.419 771.943,-190.493 790.59,-191.49"/>
<polygon fill="midnightblue" stroke="midnightblue" points="790.616,-194.996 800.788,-192.034 790.989,-188.006 790.616,-194.996"/>
</g>
<!-- Node19 -->
<g id="node19" class="node"><title>Node19</title>
<g id="a_node19"><a xlink:href="../../d1/d01/classworkspace_state_1_1_turtle.html#a9bb3d15f12d9d4e03332ea9817f76882" target="_top" xlink:title="workspaceState.Turtle.get\lLocation">
<polygon fill="white" stroke="black" points="806,-137 806,-167 946,-167 946,-137 806,-137"/>
<text text-anchor="start" x="814" y="-155" font-family="Helvetica,sans-Serif" font-size="10.00">workspaceState.Turtle.get</text>
<text text-anchor="middle" x="876" y="-144" font-family="Helvetica,sans-Serif" font-size="10.00">Location</text>
</a>
</g>
</g>
<!-- Node14&#45;&gt;Node19 -->
<g id="edge19" class="edge"><title>Node14&#45;&gt;Node19</title>
<path fill="none" stroke="midnightblue" d="M732.117,-168.361C753.742,-165.885 775.802,-163.359 795.915,-161.056"/>
<polygon fill="midnightblue" stroke="midnightblue" points="796.393,-164.524 805.93,-159.909 795.597,-157.569 796.393,-164.524"/>
</g>
<!-- Node20 -->
<g id="node20" class="node"><title>Node20</title>
<g id="a_node20"><a xlink:href="../../d1/d01/classworkspace_state_1_1_turtle.html#a5c09e19002f9ed4c61ce538fff3da4ff" target="_top" xlink:title="workspaceState.Turtle.get\lOpacity">
<polygon fill="white" stroke="black" points="806,-88 806,-118 946,-118 946,-88 806,-88"/>
<text text-anchor="start" x="814" y="-106" font-family="Helvetica,sans-Serif" font-size="10.00">workspaceState.Turtle.get</text>
<text text-anchor="middle" x="876" y="-95" font-family="Helvetica,sans-Serif" font-size="10.00">Opacity</text>
</a>
</g>
</g>
<!-- Node14&#45;&gt;Node20 -->
<g id="edge20" class="edge"><title>Node14&#45;&gt;Node20</title>
<path fill="none" stroke="midnightblue" d="M707.939,-161.4C716.21,-158.609 724.34,-155.485 732,-152 749.731,-143.933 750.165,-134.833 768,-127 776.89,-123.096 786.484,-119.795 796.15,-117.011"/>
<polygon fill="midnightblue" stroke="midnightblue" points="797.076,-120.387 805.815,-114.397 795.248,-113.629 797.076,-120.387"/>
</g>
<!-- Node21 -->
<g id="node21" class="node"><title>Node21</title>
<g id="a_node21"><a xlink:href="../../da/de7/classworkspace_state_1_1_shape.html#aace6051dd26034446492ecac6ff16099" target="_top" xlink:title="workspaceState.Shape.getPath">
<polygon fill="white" stroke="black" points="792.5,-49.5 792.5,-68.5 959.5,-68.5 959.5,-49.5 792.5,-49.5"/>
<text text-anchor="middle" x="876" y="-56.5" font-family="Helvetica,sans-Serif" font-size="10.00">workspaceState.Shape.getPath</text>
</a>
</g>
</g>
<!-- Node14&#45;&gt;Node21 -->
<g id="edge21" class="edge"><title>Node14&#45;&gt;Node21</title>
<path fill="none" stroke="midnightblue" d="M717.875,-161.484C722.869,-158.706 727.619,-155.561 732,-152 760.382,-128.932 738.815,-100.043 768,-78 772.564,-74.5531 777.547,-71.6562 782.786,-69.2272"/>
<polygon fill="midnightblue" stroke="midnightblue" points="784.483,-72.3175 792.458,-65.3427 781.874,-65.8218 784.483,-72.3175"/>
</g>
<!-- Node22 -->
<g id="node22" class="node"><title>Node22</title>
<g id="a_node22"><a xlink:href="../../d1/d01/classworkspace_state_1_1_turtle.html#a8d9dd9cb3503c6d0aa45efca91816f71" target="_top" xlink:title="workspaceState.Turtle.get\lShape">
<polygon fill="white" stroke="black" points="806,-0 806,-30 946,-30 946,-0 806,-0"/>
<text text-anchor="start" x="814" y="-18" font-family="Helvetica,sans-Serif" font-size="10.00">workspaceState.Turtle.get</text>
<text text-anchor="middle" x="876" y="-7" font-family="Helvetica,sans-Serif" font-size="10.00">Shape</text>
</a>
</g>
</g>
<!-- Node14&#45;&gt;Node22 -->
<g id="edge22" class="edge"><title>Node14&#45;&gt;Node22</title>
<path fill="none" stroke="midnightblue" d="M719.869,-161.361C724.194,-158.604 728.27,-155.498 732,-152 770.137,-116.231 729.553,-75.4355 768,-40 776.055,-32.5761 785.88,-27.2248 796.275,-23.3898"/>
<polygon fill="midnightblue" stroke="midnightblue" points="797.5,-26.6724 805.948,-20.2783 795.357,-20.0087 797.5,-26.6724"/>
</g>
<!-- Node16 -->
<g id="node16" class="node"><title>Node16</title>
<g id="a_node16"><a xlink:href="../../d0/d77/classworkspace_state_1_1_location.html#ad4e68a97bd0ea67236551c1183fdcd6f" target="_top" xlink:title="workspaceState.Location.add">
<polygon fill="white" stroke="black" points="1020,-279.5 1020,-298.5 1178,-298.5 1178,-279.5 1020,-279.5"/>
<text text-anchor="middle" x="1099" y="-286.5" font-family="Helvetica,sans-Serif" font-size="10.00">workspaceState.Location.add</text>
</a>
</g>
</g>
<!-- Node15&#45;&gt;Node16 -->
<g id="edge16" class="edge"><title>Node15&#45;&gt;Node16</title>
<path fill="none" stroke="midnightblue" d="M967.527,-289C981.531,-289 995.979,-289 1009.93,-289"/>
<polygon fill="midnightblue" stroke="midnightblue" points="1009.98,-292.5 1019.98,-289 1009.98,-285.5 1009.98,-292.5"/>
</g>
</g>
</svg>
        <g id="navigator" transform="translate(0 0)" fill="#404254">
                <rect fill="#f2f5e9" fill-opacity="0.5" stroke="#606060" stroke-width=".5" x="0" y="0" width="60" height="60"/>
                <use id="zoomplus" xlink:href="#zoomPlus" x="17" y="9" onmousedown="handleZoom(evt,'in')"/>
                <use id="zoomminus" xlink:href="#zoomMin" x="42" y="9" onmousedown="handleZoom(evt,'out')"/>
                <use id="reset" xlink:href="#resetDef" x="30" y="36" onmousedown="handleReset()"/>
                <g id="arrowUp" xlink:href="#dirArrow" transform="translate(30 24)" onmousedown="handlePan(0,-1)">
                  <use xlink:href="#rim" fill="#404040">
                        <set attributeName="fill" to="#808080" begin="arrowUp.mouseover" end="arrowUp.mouseout"/>
                  </use>
                  <path fill="none" stroke="white" stroke-width="1.5" d="M0,-3.0v7 M-2.5,-0.5L0,-3.0L2.5,-0.5"/>
                </g>
                <g id="arrowRight" xlink:href="#dirArrow" transform="rotate(90) translate(36 -43)" onmousedown="handlePan(1,0)">
                  <use xlink:href="#rim" fill="#404040">
                        <set attributeName="fill" to="#808080" begin="arrowRight.mouseover" end="arrowRight.mouseout"/>
                  </use>
                  <path fill="none" stroke="white" stroke-width="1.5" d="M0,-3.0v7 M-2.5,-0.5L0,-3.0L2.5,-0.5"/>
                </g>
                <g id="arrowDown" xlink:href="#dirArrow" transform="rotate(180) translate(-30 -48)" onmousedown="handlePan(0,1)">
                  <use xlink:href="#rim" fill="#404040">
                        <set attributeName="fill" to="#808080" begin="arrowDown.mouseover" end="arrowDown.mouseout"/>
                  </use>
                  <path fill="none" stroke="white" stroke-width="1.5" d="M0,-3.0v7 M-2.5,-0.5L0,-3.0L2.5,-0.5"/>
                </g>
                <g id="arrowLeft" xlink:href="#dirArrow" transform="rotate(270) translate(-36 17)" onmousedown="handlePan(-1,0)">
                  <use xlink:href="#rim" fill="#404040">
                        <set attributeName="fill" to="#808080" begin="arrowLeft.mouseover" end="arrowLeft.mouseout"/>
                  </use>
                  <path fill="none" stroke="white" stroke-width="1.5" d="M0,-3.0v7 M-2.5,-0.5L0,-3.0L2.5,-0.5"/>
                </g>
        </g>
        <svg viewBox="0 0 15 15" width="100%" height="30px" preserveAspectRatio="xMaxYMin meet">
         <g id="arrow_out" transform="scale(0.3 0.3)">
          <a xlink:href="classcommand_parsing_1_1structural_command_parsing_1_1_tell_aaab258a057ef8d0fd8ff6980e59dc719_cgraph_org.svg" target="_base">
           <rect id="button" ry="5" rx="5" y="6" x="6" height="38" width="38"
                fill="#f2f5e9" fill-opacity="0.5" stroke="#606060" stroke-width="1.0"/>
           <path id="arrow"
             d="M 11.500037,31.436501 C 11.940474,20.09759 22.043105,11.32322 32.158766,21.979434 L 37.068811,17.246167 C 37.068811,17.246167 37.088388,32 37.088388,32 L 22.160133,31.978069 C 22.160133,31.978069 26.997745,27.140456 26.997745,27.140456 C 18.528582,18.264221 13.291696,25.230495 11.500037,31.436501 z"
             style="fill:#404040;"/>
          </a>
         </g>
        </svg>
</svg>
