<?xml version="1.0" encoding="UTF-8" standalone="no"?>
<!DOCTYPE svg PUBLIC "-//W3C//DTD SVG 1.1//EN"
 "http://www.w3.org/Graphics/SVG/1.1/DTD/svg11.dtd">
<!-- Generated by graphviz version 2.36.0 (20140111.2315)
 -->
<!-- Title: XML.workspaceparams.WorkspaceScreenParameters Pages: 1 -->
<svg width="188pt" height="108pt"
 viewBox="0.00 0.00 188.00 108.00" xmlns="http://www.w3.org/2000/svg" xmlns:xlink="http://www.w3.org/1999/xlink">
<g id="graph0" class="graph" transform="scale(1 1) rotate(0) translate(4 104)">
<title>XML.workspaceparams.WorkspaceScreenParameters</title>
<polygon fill="white" stroke="none" points="-4,4 -4,-104 184,-104 184,4 -4,4"/>
<!-- Node1 -->
<g id="node1" class="node"><title>Node1</title>
<polygon fill="#bfbfbf" stroke="black" points="0,-1 0,-31 180,-31 180,-1 0,-1"/>
<text text-anchor="start" x="8" y="-19" font-family="Helvetica,sans-Serif" font-size="10.00">XML.workspaceparams.Workspace</text>
<text text-anchor="middle" x="90" y="-8" font-family="Helvetica,sans-Serif" font-size="10.00">ScreenParameters</text>
</g>
<!-- Node2 -->
<g id="node2" class="node"><title>Node2</title>
<polygon fill="white" stroke="#bfbfbf" points="29,-80.5 29,-99.5 151,-99.5 151,-80.5 29,-80.5"/>
<text text-anchor="middle" x="90" y="-87.5" font-family="Helvetica,sans-Serif" font-size="10.00">Map&lt; String, String &gt;</text>
</g>
<!-- Node2&#45;&gt;Node1 -->
<g id="edge1" class="edge"><title>Node2&#45;&gt;Node1</title>
<path fill="none" stroke="#9a32cd" stroke-dasharray="5,2" d="M90,-70.0846C90,-57.9148 90,-42.3538 90,-31.2316"/>
<polygon fill="#9a32cd" stroke="#9a32cd" points="86.5001,-70.4579 90,-80.4579 93.5001,-70.4579 86.5001,-70.4579"/>
<text text-anchor="middle" x="109.5" y="-53.5" font-family="Helvetica,sans-Serif" font-size="10.00"> myMap</text>
</g>
</g>
</svg>
