<?xml version="1.0" encoding="UTF-8" standalone="no"?>
<!DOCTYPE svg PUBLIC "-//W3C//DTD SVG 1.1//EN"
 "http://www.w3.org/Graphics/SVG/1.1/DTD/svg11.dtd">
<!-- Generated by graphviz version 2.36.0 (20140111.2315)
 -->
<!-- Title: commandParsing.structuralCommandParsing.MultipleTurtleCommand Pages: 1 -->
<svg width="870pt" height="136pt"
 viewBox="0.00 0.00 870.00 136.00" xmlns="http://www.w3.org/2000/svg" xmlns:xlink="http://www.w3.org/1999/xlink">
<g id="graph0" class="graph" transform="scale(1 1) rotate(0) translate(4 132)">
<title>commandParsing.structuralCommandParsing.MultipleTurtleCommand</title>
<polygon fill="white" stroke="none" points="-4,4 -4,-132 866,-132 866,4 -4,4"/>
<!-- Node1 -->
<g id="node1" class="node"><title>Node1</title>
<polygon fill="#bfbfbf" stroke="black" points="458.5,-49 458.5,-79 675.5,-79 675.5,-49 458.5,-49"/>
<text text-anchor="start" x="466.5" y="-67" font-family="Helvetica,sans-Serif" font-size="10.00">commandParsing.structural</text>
<text text-anchor="middle" x="567" y="-56" font-family="Helvetica,sans-Serif" font-size="10.00">CommandParsing.MultipleTurtleCommand</text>
</g>
<!-- Node5 -->
<g id="node5" class="node"><title>Node5</title>
<g id="a_node5"><a xlink:href="../../d7/d50/classcommand_parsing_1_1structural_command_parsing_1_1_ask.html" target="_top" xlink:title="commandParsing.structural\lCommandParsing.Ask">
<polygon fill="white" stroke="black" points="712.5,-98 712.5,-128 861.5,-128 861.5,-98 712.5,-98"/>
<text text-anchor="start" x="720.5" y="-116" font-family="Helvetica,sans-Serif" font-size="10.00">commandParsing.structural</text>
<text text-anchor="middle" x="787" y="-105" font-family="Helvetica,sans-Serif" font-size="10.00">CommandParsing.Ask</text>
</a>
</g>
</g>
<!-- Node1&#45;&gt;Node5 -->
<g id="edge4" class="edge"><title>Node1&#45;&gt;Node5</title>
<path fill="none" stroke="midnightblue" d="M644.781,-81.2581C669.072,-86.718 695.708,-92.705 719.238,-97.9938"/>
<polygon fill="midnightblue" stroke="midnightblue" points="645.413,-77.8129 634.889,-79.0346 643.878,-84.6425 645.413,-77.8129"/>
</g>
<!-- Node6 -->
<g id="node6" class="node"><title>Node6</title>
<g id="a_node6"><a xlink:href="../../d7/d78/classcommand_parsing_1_1structural_command_parsing_1_1_ask_with.html" target="_top" xlink:title="commandParsing.structural\lCommandParsing.AskWith">
<polygon fill="white" stroke="black" points="712.5,-49 712.5,-79 861.5,-79 861.5,-49 712.5,-49"/>
<text text-anchor="start" x="720.5" y="-67" font-family="Helvetica,sans-Serif" font-size="10.00">commandParsing.structural</text>
<text text-anchor="middle" x="787" y="-56" font-family="Helvetica,sans-Serif" font-size="10.00">CommandParsing.AskWith</text>
</a>
</g>
</g>
<!-- Node1&#45;&gt;Node6 -->
<g id="edge5" class="edge"><title>Node1&#45;&gt;Node6</title>
<path fill="none" stroke="midnightblue" d="M685.922,-64C694.936,-64 703.869,-64 712.471,-64"/>
<polygon fill="midnightblue" stroke="midnightblue" points="685.723,-60.5001 675.723,-64 685.723,-67.5001 685.723,-60.5001"/>
</g>
<!-- Node7 -->
<g id="node7" class="node"><title>Node7</title>
<g id="a_node7"><a xlink:href="../../db/da0/classcommand_parsing_1_1structural_command_parsing_1_1_tell.html" target="_top" xlink:title="commandParsing.structural\lCommandParsing.Tell">
<polygon fill="white" stroke="black" points="712.5,-0 712.5,-30 861.5,-30 861.5,-0 712.5,-0"/>
<text text-anchor="start" x="720.5" y="-18" font-family="Helvetica,sans-Serif" font-size="10.00">commandParsing.structural</text>
<text text-anchor="middle" x="787" y="-7" font-family="Helvetica,sans-Serif" font-size="10.00">CommandParsing.Tell</text>
</a>
</g>
</g>
<!-- Node1&#45;&gt;Node7 -->
<g id="edge6" class="edge"><title>Node1&#45;&gt;Node7</title>
<path fill="none" stroke="midnightblue" d="M644.781,-46.7419C669.072,-41.282 695.708,-35.295 719.238,-30.0062"/>
<polygon fill="midnightblue" stroke="midnightblue" points="643.878,-43.3575 634.889,-48.9654 645.413,-50.1871 643.878,-43.3575"/>
</g>
<!-- Node2 -->
<g id="node2" class="node"><title>Node2</title>
<g id="a_node2"><a xlink:href="../../de/dcc/classcommand_parsing_1_1structural_command_parsing_1_1_structural_command.html" target="_top" xlink:title="commandParsing.structural\lCommandParsing.StructuralCommand">
<polygon fill="white" stroke="black" points="220,-74 220,-104 422,-104 422,-74 220,-74"/>
<text text-anchor="start" x="228" y="-92" font-family="Helvetica,sans-Serif" font-size="10.00">commandParsing.structural</text>
<text text-anchor="middle" x="321" y="-81" font-family="Helvetica,sans-Serif" font-size="10.00">CommandParsing.StructuralCommand</text>
</a>
</g>
</g>
<!-- Node2&#45;&gt;Node1 -->
<g id="edge1" class="edge"><title>Node2&#45;&gt;Node1</title>
<path fill="none" stroke="midnightblue" d="M432.338,-77.6949C440.928,-76.8147 449.596,-75.9266 458.169,-75.0482"/>
<polygon fill="midnightblue" stroke="midnightblue" points="431.892,-74.2222 422.3,-78.7233 432.605,-81.1857 431.892,-74.2222"/>
</g>
<!-- Node3 -->
<g id="node3" class="node"><title>Node3</title>
<g id="a_node3"><a xlink:href="../../d7/d17/classcommand_parsing_1_1_command_parser.html" target="_top" xlink:title="commandParsing.CommandParser">
<polygon fill="white" stroke="black" points="0.5,-79.5 0.5,-98.5 183.5,-98.5 183.5,-79.5 0.5,-79.5"/>
<text text-anchor="middle" x="92" y="-86.5" font-family="Helvetica,sans-Serif" font-size="10.00">commandParsing.CommandParser</text>
</a>
</g>
</g>
<!-- Node3&#45;&gt;Node2 -->
<g id="edge2" class="edge"><title>Node3&#45;&gt;Node2</title>
<path fill="none" stroke="midnightblue" d="M193.768,-89C202.398,-89 211.127,-89 219.753,-89"/>
<polygon fill="midnightblue" stroke="midnightblue" points="193.695,-85.5001 183.695,-89 193.695,-92.5001 193.695,-85.5001"/>
</g>
<!-- Node4 -->
<g id="node4" class="node"><title>Node4</title>
<g id="a_node4"><a xlink:href="../../df/d64/interfacecommand_parsing_1_1drawable_obect_generation_interfaces_1_1_turtle_generator.html" target="_top" xlink:title="commandParsing.drawableObect\lGenerationInterfaces.TurtleGenerator">
<polygon fill="white" stroke="black" points="224,-25 224,-55 418,-55 418,-25 224,-25"/>
<text text-anchor="start" x="232" y="-43" font-family="Helvetica,sans-Serif" font-size="10.00">commandParsing.drawableObect</text>
<text text-anchor="middle" x="321" y="-32" font-family="Helvetica,sans-Serif" font-size="10.00">GenerationInterfaces.TurtleGenerator</text>
</a>
</g>
</g>
<!-- Node4&#45;&gt;Node1 -->
<g id="edge3" class="edge"><title>Node4&#45;&gt;Node1</title>
<path fill="none" stroke="midnightblue" d="M428.056,-50.4318C438.087,-51.4184 448.263,-52.4193 458.309,-53.4074"/>
<polygon fill="midnightblue" stroke="midnightblue" points="428.38,-46.9468 418.085,-49.451 427.694,-53.9131 428.38,-46.9468"/>
</g>
</g>
</svg>
