<?xml version="1.0" encoding="UTF-8" standalone="no"?>
<!DOCTYPE svg PUBLIC "-//W3C//DTD SVG 1.1//EN"
 "http://www.w3.org/Graphics/SVG/1.1/DTD/svg11.dtd">
<!-- Generated by graphviz version 2.36.0 (20140111.2315)
 -->
<!-- Title: workspaceState.UserDefinedVariableCollection.storeVariable Pages: 1 -->
<svg width="664pt" height="286pt"
 viewBox="0.00 0.00 664.00 286.00" xmlns="http://www.w3.org/2000/svg" xmlns:xlink="http://www.w3.org/1999/xlink">
<g id="graph0" class="graph" transform="scale(1 1) rotate(0) translate(4 282)">
<title>workspaceState.UserDefinedVariableCollection.storeVariable</title>
<polygon fill="white" stroke="none" points="-4,4 -4,-282 660,-282 660,4 -4,4"/>
<!-- Node1 -->
<g id="node1" class="node"><title>Node1</title>
<polygon fill="#bfbfbf" stroke="black" points="0.5,-98 0.5,-128 167.5,-128 167.5,-98 0.5,-98"/>
<text text-anchor="start" x="8.5" y="-116" font-family="Helvetica,sans-Serif" font-size="10.00">workspaceState.UserDefined</text>
<text text-anchor="middle" x="84" y="-105" font-family="Helvetica,sans-Serif" font-size="10.00">VariableCollection.storeVariable</text>
</g>
<!-- Node2 -->
<g id="node2" class="node"><title>Node2</title>
<g id="a_node2"><a xlink:href="../../d0/dfe/classcommand_parsing_1_1structural_command_parsing_1_1_recurring_command.html#ab7f44ef8841353bf8a5e112541e16a75" target="_top" xlink:title="commandParsing.structural\lCommandParsing.RecurringCommand.basic\lLoopVariableInitialization">
<polygon fill="white" stroke="black" points="204.5,-206.5 204.5,-247.5 431.5,-247.5 431.5,-206.5 204.5,-206.5"/>
<text text-anchor="start" x="212.5" y="-235.5" font-family="Helvetica,sans-Serif" font-size="10.00">commandParsing.structural</text>
<text text-anchor="start" x="212.5" y="-224.5" font-family="Helvetica,sans-Serif" font-size="10.00">CommandParsing.RecurringCommand.basic</text>
<text text-anchor="middle" x="318" y="-213.5" font-family="Helvetica,sans-Serif" font-size="10.00">LoopVariableInitialization</text>
</a>
</g>
</g>
<!-- Node1&#45;&gt;Node2 -->
<g id="edge1" class="edge"><title>Node1&#45;&gt;Node2</title>
<path fill="none" stroke="midnightblue" d="M110.259,-134.483C133.328,-153.124 169.063,-179.621 204,-196 212.289,-199.886 221.155,-203.363 230.14,-206.456"/>
<polygon fill="midnightblue" stroke="midnightblue" points="112.31,-131.639 102.358,-128.004 107.872,-137.052 112.31,-131.639"/>
</g>
<!-- Node5 -->
<g id="node5" class="node"><title>Node5</title>
<g id="a_node5"><a xlink:href="../../d3/d78/classcommand_parsing_1_1structural_command_parsing_1_1_for.html#a6b84827c7c254153b5a8171a10a4ba8c" target="_top" xlink:title="commandParsing.structural\lCommandParsing.For.initializeLoop\lVariableParameters">
<polygon fill="white" stroke="black" points="226.5,-146.5 226.5,-187.5 409.5,-187.5 409.5,-146.5 226.5,-146.5"/>
<text text-anchor="start" x="234.5" y="-175.5" font-family="Helvetica,sans-Serif" font-size="10.00">commandParsing.structural</text>
<text text-anchor="start" x="234.5" y="-164.5" font-family="Helvetica,sans-Serif" font-size="10.00">CommandParsing.For.initializeLoop</text>
<text text-anchor="middle" x="318" y="-153.5" font-family="Helvetica,sans-Serif" font-size="10.00">VariableParameters</text>
</a>
</g>
</g>
<!-- Node1&#45;&gt;Node5 -->
<g id="edge4" class="edge"><title>Node1&#45;&gt;Node5</title>
<path fill="none" stroke="midnightblue" d="M159.591,-130.362C181.663,-135.499 206.038,-141.173 228.88,-146.489"/>
<polygon fill="midnightblue" stroke="midnightblue" points="160.158,-126.9 149.625,-128.042 158.571,-133.718 160.158,-126.9"/>
</g>
<!-- Node6 -->
<g id="node6" class="node"><title>Node6</title>
<g id="a_node6"><a xlink:href="../../d9/dd9/classcommand_parsing_1_1variable_command_parsing_1_1_make_variable.html#aff148a4ca342ca23dca6794736562010" target="_top" xlink:title="commandParsing.variableCommand\lParsing.MakeVariable.parse">
<polygon fill="white" stroke="black" points="222.5,-98 222.5,-128 413.5,-128 413.5,-98 222.5,-98"/>
<text text-anchor="start" x="230.5" y="-116" font-family="Helvetica,sans-Serif" font-size="10.00">commandParsing.variableCommand</text>
<text text-anchor="middle" x="318" y="-105" font-family="Helvetica,sans-Serif" font-size="10.00">Parsing.MakeVariable.parse</text>
</a>
</g>
</g>
<!-- Node1&#45;&gt;Node6 -->
<g id="edge5" class="edge"><title>Node1&#45;&gt;Node6</title>
<path fill="none" stroke="midnightblue" d="M177.836,-113C192.507,-113 207.692,-113 222.401,-113"/>
<polygon fill="midnightblue" stroke="midnightblue" points="177.775,-109.5 167.775,-113 177.775,-116.5 177.775,-109.5"/>
</g>
<!-- Node7 -->
<g id="node7" class="node"><title>Node7</title>
<g id="a_node7"><a xlink:href="../../de/d9e/classcommand_parsing_1_1user_command_parsing_1_1_user_instruction.html#a6b14be9849056a39530c989dde2da904" target="_top" xlink:title="commandParsing.userCommand\lParsing.UserInstruction.parse">
<polygon fill="white" stroke="black" points="231,-49 231,-79 405,-79 405,-49 231,-49"/>
<text text-anchor="start" x="239" y="-67" font-family="Helvetica,sans-Serif" font-size="10.00">commandParsing.userCommand</text>
<text text-anchor="middle" x="318" y="-56" font-family="Helvetica,sans-Serif" font-size="10.00">Parsing.UserInstruction.parse</text>
</a>
</g>
</g>
<!-- Node1&#45;&gt;Node7 -->
<g id="edge6" class="edge"><title>Node1&#45;&gt;Node7</title>
<path fill="none" stroke="midnightblue" d="M166.023,-95.8873C192.058,-90.3885 220.687,-84.342 245.95,-79.0062"/>
<polygon fill="midnightblue" stroke="midnightblue" points="165.245,-92.4744 156.184,-97.9654 166.692,-99.3233 165.245,-92.4744"/>
</g>
<!-- Node9 -->
<g id="node9" class="node"><title>Node9</title>
<g id="a_node9"><a xlink:href="../../d3/d58/classcommand_parsing_1_1user_command_parsing_1_1_make_user_instruction.html#ae874a4712e6685abea7e05c70b4bb7b7" target="_top" xlink:title="commandParsing.userCommand\lParsing.MakeUserInstruction.parse">
<polygon fill="white" stroke="black" points="227,-0 227,-30 409,-30 409,-0 227,-0"/>
<text text-anchor="start" x="235" y="-18" font-family="Helvetica,sans-Serif" font-size="10.00">commandParsing.userCommand</text>
<text text-anchor="middle" x="318" y="-7" font-family="Helvetica,sans-Serif" font-size="10.00">Parsing.MakeUserInstruction.parse</text>
</a>
</g>
</g>
<!-- Node1&#45;&gt;Node9 -->
<g id="edge9" class="edge"><title>Node1&#45;&gt;Node9</title>
<path fill="none" stroke="midnightblue" d="M112.796,-91.8101C136.007,-75.1057 170.581,-52.4566 204,-39 212.465,-35.5915 221.49,-32.6364 230.61,-30.0813"/>
<polygon fill="midnightblue" stroke="midnightblue" points="110.489,-89.1614 104.483,-97.8895 114.621,-94.8118 110.489,-89.1614"/>
</g>
<!-- Node3 -->
<g id="node3" class="node"><title>Node3</title>
<g id="a_node3"><a xlink:href="../../d8/d8f/classcommand_parsing_1_1structural_command_parsing_1_1_repeat.html#abb20eafb2f42a9286c20ec3af2b41925" target="_top" xlink:title="commandParsing.structural\lCommandParsing.Repeat.initialize\lLoopVariableParameters">
<polygon fill="white" stroke="black" points="472.5,-236.5 472.5,-277.5 651.5,-277.5 651.5,-236.5 472.5,-236.5"/>
<text text-anchor="start" x="480.5" y="-265.5" font-family="Helvetica,sans-Serif" font-size="10.00">commandParsing.structural</text>
<text text-anchor="start" x="480.5" y="-254.5" font-family="Helvetica,sans-Serif" font-size="10.00">CommandParsing.Repeat.initialize</text>
<text text-anchor="middle" x="562" y="-243.5" font-family="Helvetica,sans-Serif" font-size="10.00">LoopVariableParameters</text>
</a>
</g>
</g>
<!-- Node2&#45;&gt;Node3 -->
<g id="edge2" class="edge"><title>Node2&#45;&gt;Node3</title>
<path fill="none" stroke="midnightblue" d="M442.033,-242.252C452.218,-243.515 462.384,-244.775 472.242,-245.997"/>
<polygon fill="midnightblue" stroke="midnightblue" points="442.207,-238.747 431.852,-240.99 441.346,-245.694 442.207,-238.747"/>
</g>
<!-- Node4 -->
<g id="node4" class="node"><title>Node4</title>
<g id="a_node4"><a xlink:href="../../d7/d10/classcommand_parsing_1_1structural_command_parsing_1_1_do_times.html#afb2baa6c526f8693dacb3da8d19648f7" target="_top" xlink:title="commandParsing.structural\lCommandParsing.DoTimes.initialize\lLoopVariableParameters">
<polygon fill="white" stroke="black" points="468,-176.5 468,-217.5 656,-217.5 656,-176.5 468,-176.5"/>
<text text-anchor="start" x="476" y="-205.5" font-family="Helvetica,sans-Serif" font-size="10.00">commandParsing.structural</text>
<text text-anchor="start" x="476" y="-194.5" font-family="Helvetica,sans-Serif" font-size="10.00">CommandParsing.DoTimes.initialize</text>
<text text-anchor="middle" x="562" y="-183.5" font-family="Helvetica,sans-Serif" font-size="10.00">LoopVariableParameters</text>
</a>
</g>
</g>
<!-- Node2&#45;&gt;Node4 -->
<g id="edge3" class="edge"><title>Node2&#45;&gt;Node4</title>
<path fill="none" stroke="midnightblue" d="M442.056,-211.745C450.752,-210.667 459.434,-209.591 467.922,-208.539"/>
<polygon fill="midnightblue" stroke="midnightblue" points="441.346,-208.306 431.852,-213.01 442.207,-215.253 441.346,-208.306"/>
</g>
<!-- Node8 -->
<g id="node8" class="node"><title>Node8</title>
<g id="a_node8"><a xlink:href="../../de/d9e/classcommand_parsing_1_1user_command_parsing_1_1_user_instruction.html#a0e5dae1883f162efa064de96a540ec47" target="_top" xlink:title="commandParsing.userCommand\lParsing.UserInstruction.accumulate\lComponents">
<polygon fill="white" stroke="black" points="469,-43.5 469,-84.5 655,-84.5 655,-43.5 469,-43.5"/>
<text text-anchor="start" x="477" y="-72.5" font-family="Helvetica,sans-Serif" font-size="10.00">commandParsing.userCommand</text>
<text text-anchor="start" x="477" y="-61.5" font-family="Helvetica,sans-Serif" font-size="10.00">Parsing.UserInstruction.accumulate</text>
<text text-anchor="middle" x="562" y="-50.5" font-family="Helvetica,sans-Serif" font-size="10.00">Components</text>
</a>
</g>
</g>
<!-- Node7&#45;&gt;Node8 -->
<g id="edge7" class="edge"><title>Node7&#45;&gt;Node8</title>
<path fill="none" stroke="midnightblue" d="M415.273,-57.3769C432.883,-57.1939 451.222,-57.2088 468.712,-57.4218"/>
<polygon fill="midnightblue" stroke="midnightblue" points="414.956,-53.8805 405.002,-57.5075 415.045,-60.88 414.956,-53.8805"/>
</g>
<!-- Node8&#45;&gt;Node7 -->
<g id="edge8" class="edge"><title>Node8&#45;&gt;Node7</title>
<path fill="none" stroke="midnightblue" d="M458.328,-70.6807C440.565,-70.816 422.264,-70.7532 405.002,-70.4925"/>
<polygon fill="midnightblue" stroke="midnightblue" points="458.747,-74.1768 468.712,-70.5782 458.678,-67.1772 458.747,-74.1768"/>
</g>
</g>
</svg>
