<?xml version="1.0" encoding="UTF-8" standalone="no"?>
<!DOCTYPE svg PUBLIC "-//W3C//DTD SVG 1.1//EN"
 "http://www.w3.org/Graphics/SVG/1.1/DTD/svg11.dtd">
<!-- Generated by graphviz version 2.36.0 (20140111.2315)
 -->
<!-- Title: workspaceState.UserDefinedVariableCollection.fetchVariable Pages: 1 -->
<svg width="944pt" height="512pt"
 viewBox="0.00 0.00 944.00 512.00" xmlns="http://www.w3.org/2000/svg" xmlns:xlink="http://www.w3.org/1999/xlink">
<g id="graph0" class="graph" transform="scale(1 1) rotate(0) translate(4 508)">
<title>workspaceState.UserDefinedVariableCollection.fetchVariable</title>
<polygon fill="white" stroke="none" points="-4,4 -4,-508 940,-508 940,4 -4,4"/>
<!-- Node1 -->
<g id="node1" class="node"><title>Node1</title>
<polygon fill="#bfbfbf" stroke="black" points="0.5,-258 0.5,-288 167.5,-288 167.5,-258 0.5,-258"/>
<text text-anchor="start" x="8.5" y="-276" font-family="Helvetica,sans-Serif" font-size="10.00">workspaceState.UserDefined</text>
<text text-anchor="middle" x="84" y="-265" font-family="Helvetica,sans-Serif" font-size="10.00">VariableCollection.fetchVariable</text>
</g>
<!-- Node2 -->
<g id="node2" class="node"><title>Node2</title>
<g id="a_node2"><a xlink:href="../../de/d9e/classcommand_parsing_1_1user_command_parsing_1_1_user_instruction.html#a0e5dae1883f162efa064de96a540ec47" target="_top" xlink:title="commandParsing.userCommand\lParsing.UserInstruction.accumulate\lComponents">
<polygon fill="white" stroke="black" points="232,-462.5 232,-503.5 418,-503.5 418,-462.5 232,-462.5"/>
<text text-anchor="start" x="240" y="-491.5" font-family="Helvetica,sans-Serif" font-size="10.00">commandParsing.userCommand</text>
<text text-anchor="start" x="240" y="-480.5" font-family="Helvetica,sans-Serif" font-size="10.00">Parsing.UserInstruction.accumulate</text>
<text text-anchor="middle" x="325" y="-469.5" font-family="Helvetica,sans-Serif" font-size="10.00">Components</text>
</a>
</g>
</g>
<!-- Node1&#45;&gt;Node2 -->
<g id="edge1" class="edge"><title>Node1&#45;&gt;Node2</title>
<path fill="none" stroke="midnightblue" d="M94.532,-297.741C110.849,-336.718 147.899,-412.08 204,-452 212.415,-457.988 221.894,-462.82 231.74,-466.72"/>
<polygon fill="midnightblue" stroke="midnightblue" points="97.6666,-296.158 90.6554,-288.215 91.1828,-298.796 97.6666,-296.158"/>
</g>
<!-- Node4 -->
<g id="node4" class="node"><title>Node4</title>
<g id="a_node4"><a xlink:href="../../d5/d6b/classtests_1_1command_tests_1_1variable_command_tests_1_1_make_variable_tests.html#ab5eb37bd6c4ea2ca691df1a68a9b9e3b" target="_top" xlink:title="tests.commandTests.variable\lCommandTests.MakeVariableTests.\lComplexMakeTest">
<polygon fill="white" stroke="black" points="232.5,-402.5 232.5,-443.5 417.5,-443.5 417.5,-402.5 232.5,-402.5"/>
<text text-anchor="start" x="240.5" y="-431.5" font-family="Helvetica,sans-Serif" font-size="10.00">tests.commandTests.variable</text>
<text text-anchor="start" x="240.5" y="-420.5" font-family="Helvetica,sans-Serif" font-size="10.00">CommandTests.MakeVariableTests.</text>
<text text-anchor="middle" x="325" y="-409.5" font-family="Helvetica,sans-Serif" font-size="10.00">ComplexMakeTest</text>
</a>
</g>
</g>
<!-- Node1&#45;&gt;Node4 -->
<g id="edge4" class="edge"><title>Node1&#45;&gt;Node4</title>
<path fill="none" stroke="midnightblue" d="M102.133,-296.528C123.117,-323.626 161.194,-367.542 204,-392 212.781,-397.017 222.382,-401.237 232.207,-404.783"/>
<polygon fill="midnightblue" stroke="midnightblue" points="104.771,-294.215 95.936,-288.367 99.196,-298.448 104.771,-294.215"/>
</g>
<!-- Node5 -->
<g id="node5" class="node"><title>Node5</title>
<g id="a_node5"><a xlink:href="../../d0/dfe/classcommand_parsing_1_1structural_command_parsing_1_1_recurring_command.html#a3e23bd2241166fa5aa8b4168ea3c13f0" target="_top" xlink:title="commandParsing.structural\lCommandParsing.RecurringCommand.loop\lVariableIsIncrementable">
<polygon fill="white" stroke="black" points="214,-342.5 214,-383.5 436,-383.5 436,-342.5 214,-342.5"/>
<text text-anchor="start" x="222" y="-371.5" font-family="Helvetica,sans-Serif" font-size="10.00">commandParsing.structural</text>
<text text-anchor="start" x="222" y="-360.5" font-family="Helvetica,sans-Serif" font-size="10.00">CommandParsing.RecurringCommand.loop</text>
<text text-anchor="middle" x="325" y="-349.5" font-family="Helvetica,sans-Serif" font-size="10.00">VariableIsIncrementable</text>
</a>
</g>
</g>
<!-- Node1&#45;&gt;Node5 -->
<g id="edge5" class="edge"><title>Node1&#45;&gt;Node5</title>
<path fill="none" stroke="midnightblue" d="M120.493,-293.027C143.709,-305.511 175.003,-321.2 204,-332 214.183,-335.793 225.018,-339.295 235.852,-342.475"/>
<polygon fill="midnightblue" stroke="midnightblue" points="122.156,-289.947 111.699,-288.243 118.811,-296.096 122.156,-289.947"/>
</g>
<!-- Node7 -->
<g id="node7" class="node"><title>Node7</title>
<g id="a_node7"><a xlink:href="../../df/dde/classtests_1_1command_tests_1_1user_defined_command_tests_1_1_make_user_instruction_tests.html#aeff560cfcbaecd0222009883a57dead3" target="_top" xlink:title="tests.commandTests.userDefined\lCommandTests.MakeUserInstruction\lTests.MakeCommandTest">
<polygon fill="white" stroke="black" points="229,-282.5 229,-323.5 421,-323.5 421,-282.5 229,-282.5"/>
<text text-anchor="start" x="237" y="-311.5" font-family="Helvetica,sans-Serif" font-size="10.00">tests.commandTests.userDefined</text>
<text text-anchor="start" x="237" y="-300.5" font-family="Helvetica,sans-Serif" font-size="10.00">CommandTests.MakeUserInstruction</text>
<text text-anchor="middle" x="325" y="-289.5" font-family="Helvetica,sans-Serif" font-size="10.00">Tests.MakeCommandTest</text>
</a>
</g>
</g>
<!-- Node1&#45;&gt;Node7 -->
<g id="edge7" class="edge"><title>Node1&#45;&gt;Node7</title>
<path fill="none" stroke="midnightblue" d="M177.861,-284.656C194.537,-286.749 211.942,-288.934 228.686,-291.036"/>
<polygon fill="midnightblue" stroke="midnightblue" points="177.943,-281.139 167.585,-283.366 177.071,-288.085 177.943,-281.139"/>
</g>
<!-- Node8 -->
<g id="node8" class="node"><title>Node8</title>
<g id="a_node8"><a xlink:href="../../df/dde/classtests_1_1command_tests_1_1user_defined_command_tests_1_1_make_user_instruction_tests.html#a43b4b411c31260c575955a7939330f46" target="_top" xlink:title="tests.commandTests.userDefined\lCommandTests.MakeUserInstruction\lTests.MakeCommandTestWithPreviousVariables">
<polygon fill="white" stroke="black" points="204,-222.5 204,-263.5 446,-263.5 446,-222.5 204,-222.5"/>
<text text-anchor="start" x="212" y="-251.5" font-family="Helvetica,sans-Serif" font-size="10.00">tests.commandTests.userDefined</text>
<text text-anchor="start" x="212" y="-240.5" font-family="Helvetica,sans-Serif" font-size="10.00">CommandTests.MakeUserInstruction</text>
<text text-anchor="middle" x="325" y="-229.5" font-family="Helvetica,sans-Serif" font-size="10.00">Tests.MakeCommandTestWithPreviousVariables</text>
</a>
</g>
</g>
<!-- Node1&#45;&gt;Node8 -->
<g id="edge8" class="edge"><title>Node1&#45;&gt;Node8</title>
<path fill="none" stroke="midnightblue" d="M177.603,-261.376C186.223,-260.294 195.041,-259.187 203.863,-258.08"/>
<polygon fill="midnightblue" stroke="midnightblue" points="177.071,-257.915 167.585,-262.634 177.943,-264.861 177.071,-257.915"/>
</g>
<!-- Node9 -->
<g id="node9" class="node"><title>Node9</title>
<g id="a_node9"><a xlink:href="../../d5/d6b/classtests_1_1command_tests_1_1variable_command_tests_1_1_make_variable_tests.html#a60c68761715a7d772de6698b71957c95" target="_top" xlink:title="tests.commandTests.variable\lCommandTests.MakeVariableTests.\lMakeTest">
<polygon fill="white" stroke="black" points="232.5,-162.5 232.5,-203.5 417.5,-203.5 417.5,-162.5 232.5,-162.5"/>
<text text-anchor="start" x="240.5" y="-191.5" font-family="Helvetica,sans-Serif" font-size="10.00">tests.commandTests.variable</text>
<text text-anchor="start" x="240.5" y="-180.5" font-family="Helvetica,sans-Serif" font-size="10.00">CommandTests.MakeVariableTests.</text>
<text text-anchor="middle" x="325" y="-169.5" font-family="Helvetica,sans-Serif" font-size="10.00">MakeTest</text>
</a>
</g>
</g>
<!-- Node1&#45;&gt;Node9 -->
<g id="edge9" class="edge"><title>Node1&#45;&gt;Node9</title>
<path fill="none" stroke="midnightblue" d="M119.512,-253.025C142.787,-240.204 174.516,-223.963 204,-213 213.158,-209.595 222.852,-206.452 232.601,-203.587"/>
<polygon fill="midnightblue" stroke="midnightblue" points="117.745,-250.002 110.715,-257.929 121.153,-256.116 117.745,-250.002"/>
</g>
<!-- Node10 -->
<g id="node10" class="node"><title>Node10</title>
<g id="a_node10"><a xlink:href="../../d5/d6b/classtests_1_1command_tests_1_1variable_command_tests_1_1_make_variable_tests.html#aa7a8a3fdce7d87721520fc5b1a00c0b4" target="_top" xlink:title="tests.commandTests.variable\lCommandTests.MakeVariableTests.\lManyMakeTest">
<polygon fill="white" stroke="black" points="232.5,-102.5 232.5,-143.5 417.5,-143.5 417.5,-102.5 232.5,-102.5"/>
<text text-anchor="start" x="240.5" y="-131.5" font-family="Helvetica,sans-Serif" font-size="10.00">tests.commandTests.variable</text>
<text text-anchor="start" x="240.5" y="-120.5" font-family="Helvetica,sans-Serif" font-size="10.00">CommandTests.MakeVariableTests.</text>
<text text-anchor="middle" x="325" y="-109.5" font-family="Helvetica,sans-Serif" font-size="10.00">ManyMakeTest</text>
</a>
</g>
</g>
<!-- Node1&#45;&gt;Node10 -->
<g id="edge10" class="edge"><title>Node1&#45;&gt;Node10</title>
<path fill="none" stroke="midnightblue" d="M101.72,-249.649C122.558,-222.3 160.739,-177.614 204,-153 212.773,-148.009 222.369,-143.839 232.19,-140.358"/>
<polygon fill="midnightblue" stroke="midnightblue" points="98.7591,-247.765 95.5801,-257.871 104.368,-251.953 98.7591,-247.765"/>
</g>
<!-- Node11 -->
<g id="node11" class="node"><title>Node11</title>
<g id="a_node11"><a xlink:href="../../d8/df5/classcommand_parsing_1_1variable_command_parsing_1_1_variable.html#a27d54a36396edb245209c4da57476d2a" target="_top" xlink:title="commandParsing.variableCommand\lParsing.Variable.parse">
<polygon fill="white" stroke="black" points="229.5,-54 229.5,-84 420.5,-84 420.5,-54 229.5,-54"/>
<text text-anchor="start" x="237.5" y="-72" font-family="Helvetica,sans-Serif" font-size="10.00">commandParsing.variableCommand</text>
<text text-anchor="middle" x="325" y="-61" font-family="Helvetica,sans-Serif" font-size="10.00">Parsing.Variable.parse</text>
</a>
</g>
</g>
<!-- Node1&#45;&gt;Node11 -->
<g id="edge11" class="edge"><title>Node1&#45;&gt;Node11</title>
<path fill="none" stroke="midnightblue" d="M93.9016,-248.595C109.629,-209.139 146.234,-131.847 204,-93 211.757,-87.7833 220.393,-83.6509 229.376,-80.3841"/>
<polygon fill="midnightblue" stroke="midnightblue" points="90.6115,-247.399 90.2688,-257.989 97.1403,-249.924 90.6115,-247.399"/>
</g>
<!-- Node3 -->
<g id="node3" class="node"><title>Node3</title>
<g id="a_node3"><a xlink:href="../../de/d9e/classcommand_parsing_1_1user_command_parsing_1_1_user_instruction.html#a6b14be9849056a39530c989dde2da904" target="_top" xlink:title="commandParsing.userCommand\lParsing.UserInstruction.parse">
<polygon fill="white" stroke="black" points="510,-468 510,-498 684,-498 684,-468 510,-468"/>
<text text-anchor="start" x="518" y="-486" font-family="Helvetica,sans-Serif" font-size="10.00">commandParsing.userCommand</text>
<text text-anchor="middle" x="597" y="-475" font-family="Helvetica,sans-Serif" font-size="10.00">Parsing.UserInstruction.parse</text>
</a>
</g>
</g>
<!-- Node2&#45;&gt;Node3 -->
<g id="edge2" class="edge"><title>Node2&#45;&gt;Node3</title>
<path fill="none" stroke="midnightblue" d="M428.344,-476.429C455.166,-476.13 483.818,-476.206 509.709,-476.657"/>
<polygon fill="midnightblue" stroke="midnightblue" points="428.117,-472.931 418.164,-476.562 428.208,-479.931 428.117,-472.931"/>
</g>
<!-- Node3&#45;&gt;Node2 -->
<g id="edge3" class="edge"><title>Node3&#45;&gt;Node2</title>
<path fill="none" stroke="midnightblue" d="M499.66,-489.498C473.139,-489.853 444.443,-489.833 418.164,-489.438"/>
<polygon fill="midnightblue" stroke="midnightblue" points="499.764,-492.997 509.709,-489.343 499.656,-485.997 499.764,-492.997"/>
</g>
<!-- Node6 -->
<g id="node6" class="node"><title>Node6</title>
<g id="a_node6"><a xlink:href="../../d0/dfe/classcommand_parsing_1_1structural_command_parsing_1_1_recurring_command.html#a60a1b93f2283ed1f1d5957146b10619b" target="_top" xlink:title="commandParsing.structural\lCommandParsing.RecurringCommand.parse">
<polygon fill="white" stroke="black" points="482.5,-348 482.5,-378 711.5,-378 711.5,-348 482.5,-348"/>
<text text-anchor="start" x="490.5" y="-366" font-family="Helvetica,sans-Serif" font-size="10.00">commandParsing.structural</text>
<text text-anchor="middle" x="597" y="-355" font-family="Helvetica,sans-Serif" font-size="10.00">CommandParsing.RecurringCommand.parse</text>
</a>
</g>
</g>
<!-- Node5&#45;&gt;Node6 -->
<g id="edge6" class="edge"><title>Node5&#45;&gt;Node6</title>
<path fill="none" stroke="midnightblue" d="M446.214,-363C458.18,-363 470.302,-363 482.199,-363"/>
<polygon fill="midnightblue" stroke="midnightblue" points="446.209,-359.5 436.209,-363 446.209,-366.5 446.209,-359.5"/>
</g>
<!-- Node12 -->
<g id="node12" class="node"><title>Node12</title>
<g id="a_node12"><a xlink:href="../../de/dcc/classcommand_parsing_1_1structural_command_parsing_1_1_structural_command.html#ad1fbabc1ceb2acecc6523f53819ad301" target="_top" xlink:title="commandParsing.structural\lCommandParsing.StructuralCommand.get\lVariable">
<polygon fill="white" stroke="black" points="486.5,-48.5 486.5,-89.5 707.5,-89.5 707.5,-48.5 486.5,-48.5"/>
<text text-anchor="start" x="494.5" y="-77.5" font-family="Helvetica,sans-Serif" font-size="10.00">commandParsing.structural</text>
<text text-anchor="start" x="494.5" y="-66.5" font-family="Helvetica,sans-Serif" font-size="10.00">CommandParsing.StructuralCommand.get</text>
<text text-anchor="middle" x="597" y="-55.5" font-family="Helvetica,sans-Serif" font-size="10.00">Variable</text>
</a>
</g>
</g>
<!-- Node11&#45;&gt;Node12 -->
<g id="edge12" class="edge"><title>Node11&#45;&gt;Node12</title>
<path fill="none" stroke="midnightblue" d="M431.062,-69C449.138,-69 467.968,-69 486.166,-69"/>
<polygon fill="midnightblue" stroke="midnightblue" points="430.812,-65.5001 420.812,-69 430.812,-72.5001 430.812,-65.5001"/>
</g>
<!-- Node13 -->
<g id="node13" class="node"><title>Node13</title>
<g id="a_node13"><a xlink:href="../../d7/d10/classcommand_parsing_1_1structural_command_parsing_1_1_do_times.html#afb2baa6c526f8693dacb3da8d19648f7" target="_top" xlink:title="commandParsing.structural\lCommandParsing.DoTimes.initialize\lLoopVariableParameters">
<polygon fill="white" stroke="black" points="748,-108.5 748,-149.5 936,-149.5 936,-108.5 748,-108.5"/>
<text text-anchor="start" x="756" y="-137.5" font-family="Helvetica,sans-Serif" font-size="10.00">commandParsing.structural</text>
<text text-anchor="start" x="756" y="-126.5" font-family="Helvetica,sans-Serif" font-size="10.00">CommandParsing.DoTimes.initialize</text>
<text text-anchor="middle" x="842" y="-115.5" font-family="Helvetica,sans-Serif" font-size="10.00">LoopVariableParameters</text>
</a>
</g>
</g>
<!-- Node12&#45;&gt;Node13 -->
<g id="edge13" class="edge"><title>Node12&#45;&gt;Node13</title>
<path fill="none" stroke="midnightblue" d="M691.254,-92.0256C713.169,-97.4368 736.382,-103.168 757.822,-108.462"/>
<polygon fill="midnightblue" stroke="midnightblue" points="691.834,-88.5639 681.287,-89.5647 690.156,-95.3598 691.834,-88.5639"/>
</g>
<!-- Node14 -->
<g id="node14" class="node"><title>Node14</title>
<g id="a_node14"><a xlink:href="../../d3/d78/classcommand_parsing_1_1structural_command_parsing_1_1_for.html#a6b84827c7c254153b5a8171a10a4ba8c" target="_top" xlink:title="commandParsing.structural\lCommandParsing.For.initializeLoop\lVariableParameters">
<polygon fill="white" stroke="black" points="750.5,-48.5 750.5,-89.5 933.5,-89.5 933.5,-48.5 750.5,-48.5"/>
<text text-anchor="start" x="758.5" y="-77.5" font-family="Helvetica,sans-Serif" font-size="10.00">commandParsing.structural</text>
<text text-anchor="start" x="758.5" y="-66.5" font-family="Helvetica,sans-Serif" font-size="10.00">CommandParsing.For.initializeLoop</text>
<text text-anchor="middle" x="842" y="-55.5" font-family="Helvetica,sans-Serif" font-size="10.00">VariableParameters</text>
</a>
</g>
</g>
<!-- Node12&#45;&gt;Node14 -->
<g id="edge14" class="edge"><title>Node12&#45;&gt;Node14</title>
<path fill="none" stroke="midnightblue" d="M717.788,-69C728.714,-69 739.659,-69 750.268,-69"/>
<polygon fill="midnightblue" stroke="midnightblue" points="717.77,-65.5001 707.77,-69 717.77,-72.5001 717.77,-65.5001"/>
</g>
<!-- Node15 -->
<g id="node15" class="node"><title>Node15</title>
<g id="a_node15"><a xlink:href="../../d3/d58/classcommand_parsing_1_1user_command_parsing_1_1_make_user_instruction.html#ae874a4712e6685abea7e05c70b4bb7b7" target="_top" xlink:title="commandParsing.userCommand\lParsing.MakeUserInstruction.parse">
<polygon fill="white" stroke="black" points="751,-0 751,-30 933,-30 933,-0 751,-0"/>
<text text-anchor="start" x="759" y="-18" font-family="Helvetica,sans-Serif" font-size="10.00">commandParsing.userCommand</text>
<text text-anchor="middle" x="842" y="-7" font-family="Helvetica,sans-Serif" font-size="10.00">Parsing.MakeUserInstruction.parse</text>
</a>
</g>
</g>
<!-- Node12&#45;&gt;Node15 -->
<g id="edge15" class="edge"><title>Node12&#45;&gt;Node15</title>
<path fill="none" stroke="midnightblue" d="M700.631,-46.1931C725.166,-40.741 750.752,-35.0551 773.257,-30.0541"/>
<polygon fill="midnightblue" stroke="midnightblue" points="699.564,-42.8448 690.561,-48.4309 701.082,-49.6781 699.564,-42.8448"/>
</g>
</g>
</svg>
