<?xml version="1.0" encoding="UTF-8" standalone="no"?>
<!DOCTYPE svg PUBLIC "-//W3C//DTD SVG 1.1//EN"
 "http://www.w3.org/Graphics/SVG/1.1/DTD/svg11.dtd">
<!-- Generated by graphviz version 2.36.0 (20140111.2315)
 -->
<!-- Title: workspaceState.UserDefinedVariableCollection.fetchWorkspaceVariable Pages: 1 -->
<svg width="742pt" height="275pt"
 viewBox="0.00 0.00 742.00 275.00" xmlns="http://www.w3.org/2000/svg" xmlns:xlink="http://www.w3.org/1999/xlink">
<g id="graph0" class="graph" transform="scale(1 1) rotate(0) translate(4 271)">
<title>workspaceState.UserDefinedVariableCollection.fetchWorkspaceVariable</title>
<polygon fill="white" stroke="none" points="-4,4 -4,-271 738,-271 738,4 -4,4"/>
<!-- Node1 -->
<g id="node1" class="node"><title>Node1</title>
<polygon fill="#bfbfbf" stroke="black" points="0.5,-78.5 0.5,-119.5 179.5,-119.5 179.5,-78.5 0.5,-78.5"/>
<text text-anchor="start" x="8.5" y="-107.5" font-family="Helvetica,sans-Serif" font-size="10.00">workspaceState.UserDefined</text>
<text text-anchor="start" x="8.5" y="-96.5" font-family="Helvetica,sans-Serif" font-size="10.00">VariableCollection.fetchWorkspace</text>
<text text-anchor="middle" x="90" y="-85.5" font-family="Helvetica,sans-Serif" font-size="10.00">Variable</text>
</g>
<!-- Node2 -->
<g id="node2" class="node"><title>Node2</title>
<g id="a_node2"><a xlink:href="../../d0/dfe/classcommand_parsing_1_1structural_command_parsing_1_1_recurring_command.html#ab7f44ef8841353bf8a5e112541e16a75" target="_top" xlink:title="commandParsing.structural\lCommandParsing.RecurringCommand.basic\lLoopVariableInitialization">
<polygon fill="white" stroke="black" points="228.5,-168.5 228.5,-209.5 455.5,-209.5 455.5,-168.5 228.5,-168.5"/>
<text text-anchor="start" x="236.5" y="-197.5" font-family="Helvetica,sans-Serif" font-size="10.00">commandParsing.structural</text>
<text text-anchor="start" x="236.5" y="-186.5" font-family="Helvetica,sans-Serif" font-size="10.00">CommandParsing.RecurringCommand.basic</text>
<text text-anchor="middle" x="342" y="-175.5" font-family="Helvetica,sans-Serif" font-size="10.00">LoopVariableInitialization</text>
</a>
</g>
</g>
<!-- Node1&#45;&gt;Node2 -->
<g id="edge1" class="edge"><title>Node1&#45;&gt;Node2</title>
<path fill="none" stroke="midnightblue" d="M138.725,-124.254C161.644,-135.67 189.772,-148.662 216,-158 226.637,-161.787 237.942,-165.287 249.237,-168.464"/>
<polygon fill="midnightblue" stroke="midnightblue" points="140.072,-121.014 129.567,-119.639 136.922,-127.265 140.072,-121.014"/>
</g>
<!-- Node5 -->
<g id="node5" class="node"><title>Node5</title>
<g id="a_node5"><a xlink:href="../../d0/dfe/classcommand_parsing_1_1structural_command_parsing_1_1_recurring_command.html#af97967b7330c654969ecd32fc31b1f8e" target="_top" xlink:title="commandParsing.structural\lCommandParsing.RecurringCommand.increment\lLoopVariable">
<polygon fill="white" stroke="black" points="216.5,-108.5 216.5,-149.5 467.5,-149.5 467.5,-108.5 216.5,-108.5"/>
<text text-anchor="start" x="224.5" y="-137.5" font-family="Helvetica,sans-Serif" font-size="10.00">commandParsing.structural</text>
<text text-anchor="start" x="224.5" y="-126.5" font-family="Helvetica,sans-Serif" font-size="10.00">CommandParsing.RecurringCommand.increment</text>
<text text-anchor="middle" x="342" y="-115.5" font-family="Helvetica,sans-Serif" font-size="10.00">LoopVariable</text>
</a>
</g>
</g>
<!-- Node1&#45;&gt;Node5 -->
<g id="edge4" class="edge"><title>Node1&#45;&gt;Node5</title>
<path fill="none" stroke="midnightblue" d="M189.893,-110.867C198.529,-111.903 207.339,-112.961 216.149,-114.018"/>
<polygon fill="midnightblue" stroke="midnightblue" points="190.19,-107.378 179.845,-109.661 189.356,-114.328 190.19,-107.378"/>
</g>
<!-- Node7 -->
<g id="node7" class="node"><title>Node7</title>
<g id="a_node7"><a xlink:href="../../d3/d78/classcommand_parsing_1_1structural_command_parsing_1_1_for.html#a6b84827c7c254153b5a8171a10a4ba8c" target="_top" xlink:title="commandParsing.structural\lCommandParsing.For.initializeLoop\lVariableParameters">
<polygon fill="white" stroke="black" points="250.5,-48.5 250.5,-89.5 433.5,-89.5 433.5,-48.5 250.5,-48.5"/>
<text text-anchor="start" x="258.5" y="-77.5" font-family="Helvetica,sans-Serif" font-size="10.00">commandParsing.structural</text>
<text text-anchor="start" x="258.5" y="-66.5" font-family="Helvetica,sans-Serif" font-size="10.00">CommandParsing.For.initializeLoop</text>
<text text-anchor="middle" x="342" y="-55.5" font-family="Helvetica,sans-Serif" font-size="10.00">VariableParameters</text>
</a>
</g>
</g>
<!-- Node1&#45;&gt;Node7 -->
<g id="edge6" class="edge"><title>Node1&#45;&gt;Node7</title>
<path fill="none" stroke="midnightblue" d="M189.864,-87.1363C209.81,-84.7428 230.685,-82.2378 250.333,-79.8801"/>
<polygon fill="midnightblue" stroke="midnightblue" points="189.356,-83.672 179.845,-88.3387 190.19,-90.6222 189.356,-83.672"/>
</g>
<!-- Node8 -->
<g id="node8" class="node"><title>Node8</title>
<g id="a_node8"><a xlink:href="../../d3/d58/classcommand_parsing_1_1user_command_parsing_1_1_make_user_instruction.html#ae874a4712e6685abea7e05c70b4bb7b7" target="_top" xlink:title="commandParsing.userCommand\lParsing.MakeUserInstruction.parse">
<polygon fill="white" stroke="black" points="251,-0 251,-30 433,-30 433,-0 251,-0"/>
<text text-anchor="start" x="259" y="-18" font-family="Helvetica,sans-Serif" font-size="10.00">commandParsing.userCommand</text>
<text text-anchor="middle" x="342" y="-7" font-family="Helvetica,sans-Serif" font-size="10.00">Parsing.MakeUserInstruction.parse</text>
</a>
</g>
</g>
<!-- Node1&#45;&gt;Node8 -->
<g id="edge7" class="edge"><title>Node1&#45;&gt;Node8</title>
<path fill="none" stroke="midnightblue" d="M136.346,-73.738C159.571,-61.7108 188.654,-48.0199 216,-39 227.122,-35.3314 238.997,-32.1531 250.836,-29.4194"/>
<polygon fill="midnightblue" stroke="midnightblue" points="134.649,-70.6758 127.424,-78.4249 137.904,-76.8727 134.649,-70.6758"/>
</g>
<!-- Node3 -->
<g id="node3" class="node"><title>Node3</title>
<g id="a_node3"><a xlink:href="../../d8/d8f/classcommand_parsing_1_1structural_command_parsing_1_1_repeat.html#abb20eafb2f42a9286c20ec3af2b41925" target="_top" xlink:title="commandParsing.structural\lCommandParsing.Repeat.initialize\lLoopVariableParameters">
<polygon fill="white" stroke="black" points="529.5,-225.5 529.5,-266.5 708.5,-266.5 708.5,-225.5 529.5,-225.5"/>
<text text-anchor="start" x="537.5" y="-254.5" font-family="Helvetica,sans-Serif" font-size="10.00">commandParsing.structural</text>
<text text-anchor="start" x="537.5" y="-243.5" font-family="Helvetica,sans-Serif" font-size="10.00">CommandParsing.Repeat.initialize</text>
<text text-anchor="middle" x="619" y="-232.5" font-family="Helvetica,sans-Serif" font-size="10.00">LoopVariableParameters</text>
</a>
</g>
</g>
<!-- Node2&#45;&gt;Node3 -->
<g id="edge2" class="edge"><title>Node2&#45;&gt;Node3</title>
<path fill="none" stroke="midnightblue" d="M452.377,-211.671C477.928,-216.967 504.834,-222.544 529.356,-227.627"/>
<polygon fill="midnightblue" stroke="midnightblue" points="452.784,-208.181 442.281,-209.578 451.363,-215.035 452.784,-208.181"/>
</g>
<!-- Node4 -->
<g id="node4" class="node"><title>Node4</title>
<g id="a_node4"><a xlink:href="../../d7/d10/classcommand_parsing_1_1structural_command_parsing_1_1_do_times.html#afb2baa6c526f8693dacb3da8d19648f7" target="_top" xlink:title="commandParsing.structural\lCommandParsing.DoTimes.initialize\lLoopVariableParameters">
<polygon fill="white" stroke="black" points="525,-165.5 525,-206.5 713,-206.5 713,-165.5 525,-165.5"/>
<text text-anchor="start" x="533" y="-194.5" font-family="Helvetica,sans-Serif" font-size="10.00">commandParsing.structural</text>
<text text-anchor="start" x="533" y="-183.5" font-family="Helvetica,sans-Serif" font-size="10.00">CommandParsing.DoTimes.initialize</text>
<text text-anchor="middle" x="619" y="-172.5" font-family="Helvetica,sans-Serif" font-size="10.00">LoopVariableParameters</text>
</a>
</g>
</g>
<!-- Node2&#45;&gt;Node4 -->
<g id="edge3" class="edge"><title>Node2&#45;&gt;Node4</title>
<path fill="none" stroke="midnightblue" d="M465.667,-187.662C485.525,-187.445 505.799,-187.224 524.809,-187.017"/>
<polygon fill="midnightblue" stroke="midnightblue" points="465.608,-184.162 455.646,-187.771 465.684,-191.162 465.608,-184.162"/>
</g>
<!-- Node6 -->
<g id="node6" class="node"><title>Node6</title>
<g id="a_node6"><a xlink:href="../../d0/dfe/classcommand_parsing_1_1structural_command_parsing_1_1_recurring_command.html#a60a1b93f2283ed1f1d5957146b10619b" target="_top" xlink:title="commandParsing.structural\lCommandParsing.RecurringCommand.parse">
<polygon fill="white" stroke="black" points="504.5,-114 504.5,-144 733.5,-144 733.5,-114 504.5,-114"/>
<text text-anchor="start" x="512.5" y="-132" font-family="Helvetica,sans-Serif" font-size="10.00">commandParsing.structural</text>
<text text-anchor="middle" x="619" y="-121" font-family="Helvetica,sans-Serif" font-size="10.00">CommandParsing.RecurringCommand.parse</text>
</a>
</g>
</g>
<!-- Node5&#45;&gt;Node6 -->
<g id="edge5" class="edge"><title>Node5&#45;&gt;Node6</title>
<path fill="none" stroke="midnightblue" d="M477.674,-129C486.587,-129 495.516,-129 504.311,-129"/>
<polygon fill="midnightblue" stroke="midnightblue" points="477.626,-125.5 467.626,-129 477.626,-132.5 477.626,-125.5"/>
</g>
</g>
</svg>
