<?xml version="1.0" encoding="UTF-8" standalone="no"?>
<!DOCTYPE svg PUBLIC "-//W3C//DTD SVG 1.1//EN"
 "http://www.w3.org/Graphics/SVG/1.1/DTD/svg11.dtd">
<!-- Generated by graphviz version 2.36.0 (20140111.2315)
 -->
<!-- Title: workspaceState.UserDefinedVariableCollection.incrementVariable Pages: 1 -->
<svg width="754pt" height="48pt"
 viewBox="0.00 0.00 754.00 48.00" xmlns="http://www.w3.org/2000/svg" xmlns:xlink="http://www.w3.org/1999/xlink">
<g id="graph0" class="graph" transform="scale(1 1) rotate(0) translate(4 44)">
<title>workspaceState.UserDefinedVariableCollection.incrementVariable</title>
<polygon fill="white" stroke="none" points="-4,4 -4,-44 750,-44 750,4 -4,4"/>
<!-- Node1 -->
<g id="node1" class="node"><title>Node1</title>
<polygon fill="#bfbfbf" stroke="black" points="0.5,-5 0.5,-35 191.5,-35 191.5,-5 0.5,-5"/>
<text text-anchor="start" x="8.5" y="-23" font-family="Helvetica,sans-Serif" font-size="10.00">workspaceState.UserDefined</text>
<text text-anchor="middle" x="96" y="-12" font-family="Helvetica,sans-Serif" font-size="10.00">VariableCollection.incrementVariable</text>
</g>
<!-- Node2 -->
<g id="node2" class="node"><title>Node2</title>
<g id="a_node2"><a xlink:href="../../d0/dfe/classcommand_parsing_1_1structural_command_parsing_1_1_recurring_command.html#af97967b7330c654969ecd32fc31b1f8e" target="_top" xlink:title="commandParsing.structural\lCommandParsing.RecurringCommand.increment\lLoopVariable">
<polygon fill="white" stroke="black" points="228.5,0.5 228.5,-40.5 479.5,-40.5 479.5,0.5 228.5,0.5"/>
<text text-anchor="start" x="236.5" y="-28.5" font-family="Helvetica,sans-Serif" font-size="10.00">commandParsing.structural</text>
<text text-anchor="start" x="236.5" y="-17.5" font-family="Helvetica,sans-Serif" font-size="10.00">CommandParsing.RecurringCommand.increment</text>
<text text-anchor="middle" x="354" y="-6.5" font-family="Helvetica,sans-Serif" font-size="10.00">LoopVariable</text>
</a>
</g>
</g>
<!-- Node1&#45;&gt;Node2 -->
<g id="edge1" class="edge"><title>Node1&#45;&gt;Node2</title>
<path fill="none" stroke="midnightblue" d="M201.782,-20C210.524,-20 219.416,-20 228.287,-20"/>
<polygon fill="midnightblue" stroke="midnightblue" points="201.598,-16.5001 191.598,-20 201.598,-23.5001 201.598,-16.5001"/>
</g>
<!-- Node3 -->
<g id="node3" class="node"><title>Node3</title>
<g id="a_node3"><a xlink:href="../../d0/dfe/classcommand_parsing_1_1structural_command_parsing_1_1_recurring_command.html#a60a1b93f2283ed1f1d5957146b10619b" target="_top" xlink:title="commandParsing.structural\lCommandParsing.RecurringCommand.parse">
<polygon fill="white" stroke="black" points="516.5,-5 516.5,-35 745.5,-35 745.5,-5 516.5,-5"/>
<text text-anchor="start" x="524.5" y="-23" font-family="Helvetica,sans-Serif" font-size="10.00">commandParsing.structural</text>
<text text-anchor="middle" x="631" y="-12" font-family="Helvetica,sans-Serif" font-size="10.00">CommandParsing.RecurringCommand.parse</text>
</a>
</g>
</g>
<!-- Node2&#45;&gt;Node3 -->
<g id="edge2" class="edge"><title>Node2&#45;&gt;Node3</title>
<path fill="none" stroke="midnightblue" d="M489.674,-20C498.587,-20 507.516,-20 516.311,-20"/>
<polygon fill="midnightblue" stroke="midnightblue" points="489.626,-16.5001 479.626,-20 489.626,-23.5001 489.626,-16.5001"/>
</g>
</g>
</svg>
