<?xml version="1.0" encoding="UTF-8" standalone="no"?>
<!DOCTYPE svg PUBLIC "-//W3C//DTD SVG 1.1//EN"
 "http://www.w3.org/Graphics/SVG/1.1/DTD/svg11.dtd">
<!-- Generated by graphviz version 2.36.0 (20140111.2315)
 -->
<!-- Title: workspaceState.UserDefinedCommandCollection Pages: 1 -->
<svg width="244pt" height="120pt"
 viewBox="0.00 0.00 244.00 120.00" xmlns="http://www.w3.org/2000/svg" xmlns:xlink="http://www.w3.org/1999/xlink">
<g id="graph0" class="graph" transform="scale(1 1) rotate(0) translate(4 116)">
<title>workspaceState.UserDefinedCommandCollection</title>
<polygon fill="white" stroke="none" points="-4,4 -4,-116 240,-116 240,4 -4,4"/>
<!-- Node1 -->
<g id="node1" class="node"><title>Node1</title>
<polygon fill="#bfbfbf" stroke="black" points="40.5,-1 40.5,-31 195.5,-31 195.5,-1 40.5,-1"/>
<text text-anchor="start" x="48.5" y="-19" font-family="Helvetica,sans-Serif" font-size="10.00">workspaceState.UserDefined</text>
<text text-anchor="middle" x="118" y="-8" font-family="Helvetica,sans-Serif" font-size="10.00">CommandCollection</text>
</g>
<!-- Node2 -->
<g id="node2" class="node"><title>Node2</title>
<polygon fill="white" stroke="#bfbfbf" points="-0.5,-81 -0.5,-111 236.5,-111 236.5,-81 -0.5,-81"/>
<text text-anchor="start" x="7.5" y="-99" font-family="Helvetica,sans-Serif" font-size="10.00">Map&lt; String, workspaceState.</text>
<text text-anchor="middle" x="118" y="-88" font-family="Helvetica,sans-Serif" font-size="10.00">UserDefinedCommandCollection.Command &gt;</text>
</g>
<!-- Node2&#45;&gt;Node1 -->
<g id="edge1" class="edge"><title>Node2&#45;&gt;Node1</title>
<path fill="none" stroke="#9a32cd" stroke-dasharray="5,2" d="M118,-70.5644C118,-57.6243 118,-42.1862 118,-31.2157"/>
<polygon fill="#9a32cd" stroke="#9a32cd" points="114.5,-70.6936 118,-80.6936 121.5,-70.6936 114.5,-70.6936"/>
<text text-anchor="middle" x="154.5" y="-53.5" font-family="Helvetica,sans-Serif" font-size="10.00"> commandMap</text>
</g>
</g>
</svg>
