<?xml version="1.0" encoding="UTF-8" standalone="no"?>
<!DOCTYPE svg PUBLIC "-//W3C//DTD SVG 1.1//EN"
 "http://www.w3.org/Graphics/SVG/1.1/DTD/svg11.dtd">
<!-- Generated by graphviz version 2.36.0 (20140111.2315)
 -->
<!-- Title: commandParsing.drawableObectGenerationInterfaces.TurtleGenerator Pages: 1 -->
<!--zoomable 785 -->
<svg id="main" version="1.1" xmlns="http://www.w3.org/2000/svg" xmlns:xlink="http://www.w3.org/1999/xlink" xml:space="preserve" onload="init(evt)">
<style type="text/css"><![CDATA[
.edge:hover path { stroke: red; }
.edge:hover polygon { stroke: red; fill: red; }
]]></style>
<script type="text/javascript"><![CDATA[
var edges = document.getElementsByTagName('g');
if (edges && edges.length) {
  for (var i=0;i<edges.length;i++) {
    if (edges[i].id.substr(0,4)=='edge') {
      edges[i].setAttribute('class','edge');
    }
  }
}
]]></script>
        <defs>
                <circle id="rim" cx="0" cy="0" r="7"/>
                <circle id="rim2" cx="0" cy="0" r="3.5"/>
                <g id="zoomPlus">
                        <use xlink:href="#rim" fill="#404040">
                                <set attributeName="fill" to="#808080" begin="zoomplus.mouseover" end="zoomplus.mouseout"/>
                        </use>
                        <path d="M-4,0h8M0,-4v8" fill="none" stroke="white" stroke-width="1.5" pointer-events="none"/>
                </g>
                <g id="zoomMin">
                        <use xlink:href="#rim" fill="#404040">
                                <set attributeName="fill" to="#808080" begin="zoomminus.mouseover" end="zoomminus.mouseout"/>
                        </use>
                        <path d="M-4,0h8" fill="none" stroke="white" stroke-width="1.5" pointer-events="none"/>
                </g>
                <g id="dirArrow">
                        <path fill="none" stroke="white" stroke-width="1.5" d="M0,-3.0v7 M-2.5,-0.5L0,-3.0L2.5,-0.5"/>
                </g>
               <g id="resetDef">
                       <use xlink:href="#rim2" fill="#404040">
                               <set attributeName="fill" to="#808080" begin="reset.mouseover" end="reset.mouseout"/>
                       </use>
               </g>
        </defs>

<script type="text/javascript">
var viewWidth = 888;
var viewHeight = 785;
var sectionId = 'dynsection-0';
</script>
<script xlink:href="../../svgpan.js"/>
<svg id="graph" class="graph">
<g id="viewport">
<title>commandParsing.drawableObectGenerationInterfaces.TurtleGenerator</title>
<polygon fill="white" stroke="none" points="-4,4 -4,-781 884,-781 884,4 -4,4"/>
<!-- Node1 -->
<g id="node1" class="node"><title>Node1</title>
<polygon fill="#bfbfbf" stroke="black" points="0,-407 0,-437 194,-437 194,-407 0,-407"/>
<text text-anchor="start" x="8" y="-425" font-family="Helvetica,sans-Serif" font-size="10.00">commandParsing.drawableObect</text>
<text text-anchor="middle" x="97" y="-414" font-family="Helvetica,sans-Serif" font-size="10.00">GenerationInterfaces.TurtleGenerator</text>
</g>
<!-- Node2 -->
<g id="node2" class="node"><title>Node2</title>
<g id="a_node2"><a xlink:href="../../da/df9/classcommand_parsing_1_1structural_command_parsing_1_1_multiple_turtle_command.html" target="_top" xlink:title="commandParsing.structural\lCommandParsing.MultipleTurtleCommand">
<polygon fill="white" stroke="black" points="230.5,-698 230.5,-728 447.5,-728 447.5,-698 230.5,-698"/>
<text text-anchor="start" x="238.5" y="-716" font-family="Helvetica,sans-Serif" font-size="10.00">commandParsing.structural</text>
<text text-anchor="middle" x="339" y="-705" font-family="Helvetica,sans-Serif" font-size="10.00">CommandParsing.MultipleTurtleCommand</text>
</a>
</g>
</g>
<!-- Node1&#45;&gt;Node2 -->
<g id="edge1" class="edge"><title>Node1&#45;&gt;Node2</title>
<path fill="none" stroke="midnightblue" d="M102.948,-447.134C114.795,-500.363 149.968,-624.748 230,-688 234.907,-691.878 240.309,-695.175 246.001,-697.975"/>
<polygon fill="midnightblue" stroke="midnightblue" points="106.336,-446.238 100.824,-437.19 99.4899,-447.7 106.336,-446.238"/>
</g>
<!-- Node6 -->
<g id="node6" class="node"><title>Node6</title>
<g id="a_node6"><a xlink:href="../../de/d58/classcommand_parsing_1_1turtle_command_parsing_1_1_clear_stamps.html" target="_top" xlink:title="commandParsing.turtleCommand\lParsing.ClearStamps">
<polygon fill="white" stroke="black" points="249.5,-649 249.5,-679 428.5,-679 428.5,-649 249.5,-649"/>
<text text-anchor="start" x="257.5" y="-667" font-family="Helvetica,sans-Serif" font-size="10.00">commandParsing.turtleCommand</text>
<text text-anchor="middle" x="339" y="-656" font-family="Helvetica,sans-Serif" font-size="10.00">Parsing.ClearStamps</text>
</a>
</g>
</g>
<!-- Node1&#45;&gt;Node6 -->
<g id="edge5" class="edge"><title>Node1&#45;&gt;Node6</title>
<path fill="none" stroke="midnightblue" d="M105.863,-446.908C121.618,-492.567 161.535,-589.511 230,-639 235.927,-643.284 242.474,-646.848 249.327,-649.809"/>
<polygon fill="midnightblue" stroke="midnightblue" points="109.113,-445.59 102.62,-437.219 102.475,-447.813 109.113,-445.59"/>
</g>
<!-- Node7 -->
<g id="node7" class="node"><title>Node7</title>
<g id="a_node7"><a xlink:href="../../d0/dc1/classcommand_parsing_1_1turtle_command_parsing_1_1_make_turtle.html" target="_top" xlink:title="commandParsing.turtleCommand\lParsing.MakeTurtle">
<polygon fill="white" stroke="black" points="249.5,-600 249.5,-630 428.5,-630 428.5,-600 249.5,-600"/>
<text text-anchor="start" x="257.5" y="-618" font-family="Helvetica,sans-Serif" font-size="10.00">commandParsing.turtleCommand</text>
<text text-anchor="middle" x="339" y="-607" font-family="Helvetica,sans-Serif" font-size="10.00">Parsing.MakeTurtle</text>
</a>
</g>
</g>
<!-- Node1&#45;&gt;Node7 -->
<g id="edge6" class="edge"><title>Node1&#45;&gt;Node7</title>
<path fill="none" stroke="midnightblue" d="M110.06,-446.228C129.812,-483.283 172.669,-553.563 230,-590 236.091,-593.871 242.715,-597.145 249.585,-599.913"/>
<polygon fill="midnightblue" stroke="midnightblue" points="113.049,-444.389 105.325,-437.137 106.841,-447.623 113.049,-444.389"/>
</g>
<!-- Node8 -->
<g id="node8" class="node"><title>Node8</title>
<g id="a_node8"><a xlink:href="../../d7/dd2/classcommand_parsing_1_1turtle_command_parsing_1_1_stamp.html" target="_top" xlink:title="commandParsing.turtleCommand\lParsing.Stamp">
<polygon fill="white" stroke="black" points="249.5,-551 249.5,-581 428.5,-581 428.5,-551 249.5,-551"/>
<text text-anchor="start" x="257.5" y="-569" font-family="Helvetica,sans-Serif" font-size="10.00">commandParsing.turtleCommand</text>
<text text-anchor="middle" x="339" y="-558" font-family="Helvetica,sans-Serif" font-size="10.00">Parsing.Stamp</text>
</a>
</g>
</g>
<!-- Node1&#45;&gt;Node8 -->
<g id="edge7" class="edge"><title>Node1&#45;&gt;Node8</title>
<path fill="none" stroke="midnightblue" d="M116.778,-444.877C140.351,-472.036 183.386,-516.699 230,-541 237.424,-544.87 245.443,-548.147 253.641,-550.92"/>
<polygon fill="midnightblue" stroke="midnightblue" points="119.257,-442.39 110.105,-437.052 113.931,-446.932 119.257,-442.39"/>
</g>
<!-- Node9 -->
<g id="node9" class="node"><title>Node9</title>
<g id="a_node9"><a xlink:href="../../d1/de7/classcommand_parsing_1_1turtle_command_parsing_1_1turtle_attribute_setters_1_1_hide_turtle.html" target="_top" xlink:title="commandParsing.turtleCommand\lParsing.turtleAttributeSetters.\lHideTurtle">
<polygon fill="white" stroke="black" points="249.5,-491.5 249.5,-532.5 428.5,-532.5 428.5,-491.5 249.5,-491.5"/>
<text text-anchor="start" x="257.5" y="-520.5" font-family="Helvetica,sans-Serif" font-size="10.00">commandParsing.turtleCommand</text>
<text text-anchor="start" x="257.5" y="-509.5" font-family="Helvetica,sans-Serif" font-size="10.00">Parsing.turtleAttributeSetters.</text>
<text text-anchor="middle" x="339" y="-498.5" font-family="Helvetica,sans-Serif" font-size="10.00">HideTurtle</text>
</a>
</g>
</g>
<!-- Node1&#45;&gt;Node9 -->
<g id="edge8" class="edge"><title>Node1&#45;&gt;Node9</title>
<path fill="none" stroke="midnightblue" d="M137.554,-441.438C163.466,-453.731 198.288,-469.427 230,-481 240.079,-484.678 250.812,-488.207 261.453,-491.48"/>
<polygon fill="midnightblue" stroke="midnightblue" points="138.964,-438.232 128.432,-437.076 135.944,-444.548 138.964,-438.232"/>
</g>
<!-- Node10 -->
<g id="node10" class="node"><title>Node10</title>
<g id="a_node10"><a xlink:href="../../d1/d76/classcommand_parsing_1_1turtle_command_parsing_1_1turtle_attribute_setters_1_1_set_heading.html" target="_top" xlink:title="commandParsing.turtleCommand\lParsing.turtleAttributeSetters.\lSetHeading">
<polygon fill="white" stroke="black" points="249.5,-431.5 249.5,-472.5 428.5,-472.5 428.5,-431.5 249.5,-431.5"/>
<text text-anchor="start" x="257.5" y="-460.5" font-family="Helvetica,sans-Serif" font-size="10.00">commandParsing.turtleCommand</text>
<text text-anchor="start" x="257.5" y="-449.5" font-family="Helvetica,sans-Serif" font-size="10.00">Parsing.turtleAttributeSetters.</text>
<text text-anchor="middle" x="339" y="-438.5" font-family="Helvetica,sans-Serif" font-size="10.00">SetHeading</text>
</a>
</g>
</g>
<!-- Node1&#45;&gt;Node10 -->
<g id="edge9" class="edge"><title>Node1&#45;&gt;Node10</title>
<path fill="none" stroke="midnightblue" d="M204.499,-435.312C219.407,-437.176 234.596,-439.075 249.131,-440.891"/>
<polygon fill="midnightblue" stroke="midnightblue" points="204.591,-431.797 194.234,-434.029 203.723,-438.743 204.591,-431.797"/>
</g>
<!-- Node11 -->
<g id="node11" class="node"><title>Node11</title>
<g id="a_node11"><a xlink:href="../../d9/db7/classcommand_parsing_1_1turtle_command_parsing_1_1turtle_attribute_setters_1_1_set_shape.html" target="_top" xlink:title="commandParsing.turtleCommand\lParsing.turtleAttributeSetters.\lSetShape">
<polygon fill="white" stroke="black" points="249.5,-371.5 249.5,-412.5 428.5,-412.5 428.5,-371.5 249.5,-371.5"/>
<text text-anchor="start" x="257.5" y="-400.5" font-family="Helvetica,sans-Serif" font-size="10.00">commandParsing.turtleCommand</text>
<text text-anchor="start" x="257.5" y="-389.5" font-family="Helvetica,sans-Serif" font-size="10.00">Parsing.turtleAttributeSetters.</text>
<text text-anchor="middle" x="339" y="-378.5" font-family="Helvetica,sans-Serif" font-size="10.00">SetShape</text>
</a>
</g>
</g>
<!-- Node1&#45;&gt;Node11 -->
<g id="edge10" class="edge"><title>Node1&#45;&gt;Node11</title>
<path fill="none" stroke="midnightblue" d="M204.499,-408.688C219.407,-406.824 234.596,-404.925 249.131,-403.109"/>
<polygon fill="midnightblue" stroke="midnightblue" points="203.723,-405.257 194.234,-409.971 204.591,-412.203 203.723,-405.257"/>
</g>
<!-- Node12 -->
<g id="node12" class="node"><title>Node12</title>
<g id="a_node12"><a xlink:href="../../da/d63/classcommand_parsing_1_1turtle_command_parsing_1_1turtle_attribute_setters_1_1_set_towards.html" target="_top" xlink:title="commandParsing.turtleCommand\lParsing.turtleAttributeSetters.\lSetTowards">
<polygon fill="white" stroke="black" points="249.5,-311.5 249.5,-352.5 428.5,-352.5 428.5,-311.5 249.5,-311.5"/>
<text text-anchor="start" x="257.5" y="-340.5" font-family="Helvetica,sans-Serif" font-size="10.00">commandParsing.turtleCommand</text>
<text text-anchor="start" x="257.5" y="-329.5" font-family="Helvetica,sans-Serif" font-size="10.00">Parsing.turtleAttributeSetters.</text>
<text text-anchor="middle" x="339" y="-318.5" font-family="Helvetica,sans-Serif" font-size="10.00">SetTowards</text>
</a>
</g>
</g>
<!-- Node1&#45;&gt;Node12 -->
<g id="edge11" class="edge"><title>Node1&#45;&gt;Node12</title>
<path fill="none" stroke="midnightblue" d="M136.715,-402.471C162.676,-389.86 197.869,-373.685 230,-362 239.144,-358.675 248.836,-355.504 258.513,-352.554"/>
<polygon fill="midnightblue" stroke="midnightblue" points="135.031,-399.399 127.591,-406.942 138.111,-405.685 135.031,-399.399"/>
</g>
<!-- Node13 -->
<g id="node13" class="node"><title>Node13</title>
<g id="a_node13"><a xlink:href="../../d6/daa/classcommand_parsing_1_1turtle_command_parsing_1_1turtle_attribute_setters_1_1_show_turtle.html" target="_top" xlink:title="commandParsing.turtleCommand\lParsing.turtleAttributeSetters.\lShowTurtle">
<polygon fill="white" stroke="black" points="249.5,-251.5 249.5,-292.5 428.5,-292.5 428.5,-251.5 249.5,-251.5"/>
<text text-anchor="start" x="257.5" y="-280.5" font-family="Helvetica,sans-Serif" font-size="10.00">commandParsing.turtleCommand</text>
<text text-anchor="start" x="257.5" y="-269.5" font-family="Helvetica,sans-Serif" font-size="10.00">Parsing.turtleAttributeSetters.</text>
<text text-anchor="middle" x="339" y="-258.5" font-family="Helvetica,sans-Serif" font-size="10.00">ShowTurtle</text>
</a>
</g>
</g>
<!-- Node1&#45;&gt;Node13 -->
<g id="edge12" class="edge"><title>Node1&#45;&gt;Node13</title>
<path fill="none" stroke="midnightblue" d="M117.299,-398.832C141.09,-371.734 184.05,-327.365 230,-302 236.389,-298.473 243.223,-295.336 250.236,-292.55"/>
<polygon fill="midnightblue" stroke="midnightblue" points="114.437,-396.791 110.549,-406.646 119.734,-401.367 114.437,-396.791"/>
</g>
<!-- Node14 -->
<g id="node14" class="node"><title>Node14</title>
<g id="a_node14"><a xlink:href="../../d6/d37/classcommand_parsing_1_1turtle_command_parsing_1_1turtle_movement_1_1_move.html" target="_top" xlink:title="commandParsing.turtleCommand\lParsing.turtleMovement.Move">
<polygon fill="white" stroke="black" points="249.5,-203 249.5,-233 428.5,-233 428.5,-203 249.5,-203"/>
<text text-anchor="start" x="257.5" y="-221" font-family="Helvetica,sans-Serif" font-size="10.00">commandParsing.turtleCommand</text>
<text text-anchor="middle" x="339" y="-210" font-family="Helvetica,sans-Serif" font-size="10.00">Parsing.turtleMovement.Move</text>
</a>
</g>
</g>
<!-- Node1&#45;&gt;Node14 -->
<g id="edge13" class="edge"><title>Node1&#45;&gt;Node14</title>
<path fill="none" stroke="midnightblue" d="M108.746,-397.67C127.421,-358.368 169.722,-281.351 230,-242 236.031,-238.063 242.613,-234.764 249.455,-232.001"/>
<polygon fill="midnightblue" stroke="midnightblue" points="105.542,-396.259 104.51,-406.803 111.892,-399.204 105.542,-396.259"/>
</g>
<!-- Node17 -->
<g id="node17" class="node"><title>Node17</title>
<g id="a_node17"><a xlink:href="../../d9/dab/classcommand_parsing_1_1turtle_command_parsing_1_1turtle_movement_1_1_move_to_location.html" target="_top" xlink:title="commandParsing.turtleCommand\lParsing.turtleMovement.MoveToLocation">
<polygon fill="white" stroke="black" points="234.5,-152 234.5,-182 443.5,-182 443.5,-152 234.5,-152"/>
<text text-anchor="start" x="242.5" y="-170" font-family="Helvetica,sans-Serif" font-size="10.00">commandParsing.turtleCommand</text>
<text text-anchor="middle" x="339" y="-159" font-family="Helvetica,sans-Serif" font-size="10.00">Parsing.turtleMovement.MoveToLocation</text>
</a>
</g>
</g>
<!-- Node1&#45;&gt;Node17 -->
<g id="edge16" class="edge"><title>Node1&#45;&gt;Node17</title>
<path fill="none" stroke="midnightblue" d="M105.149,-397.295C120.116,-350.126 159.348,-247.209 230,-194 236.33,-189.233 243.402,-185.3 250.817,-182.057"/>
<polygon fill="midnightblue" stroke="midnightblue" points="101.76,-396.408 102.167,-406.995 108.451,-398.466 101.76,-396.408"/>
</g>
<!-- Node21 -->
<g id="node21" class="node"><title>Node21</title>
<g id="a_node21"><a xlink:href="../../dd/d66/classcommand_parsing_1_1turtle_command_parsing_1_1turtle_movement_1_1_rotate.html" target="_top" xlink:title="commandParsing.turtleCommand\lParsing.turtleMovement.Rotate">
<polygon fill="white" stroke="black" points="249.5,-49 249.5,-79 428.5,-79 428.5,-49 249.5,-49"/>
<text text-anchor="start" x="257.5" y="-67" font-family="Helvetica,sans-Serif" font-size="10.00">commandParsing.turtleCommand</text>
<text text-anchor="middle" x="339" y="-56" font-family="Helvetica,sans-Serif" font-size="10.00">Parsing.turtleMovement.Rotate</text>
</a>
</g>
</g>
<!-- Node1&#45;&gt;Node21 -->
<g id="edge20" class="edge"><title>Node1&#45;&gt;Node21</title>
<path fill="none" stroke="midnightblue" d="M105.103,-397.287C120.867,-345.644 162.781,-224.348 230,-143 252.493,-115.78 286.349,-93.0329 310.146,-79.0436"/>
<polygon fill="midnightblue" stroke="midnightblue" points="101.731,-396.349 102.218,-406.933 108.437,-398.355 101.731,-396.349"/>
</g>
<!-- Node3 -->
<g id="node3" class="node"><title>Node3</title>
<g id="a_node3"><a xlink:href="../../d7/d50/classcommand_parsing_1_1structural_command_parsing_1_1_ask.html" target="_top" xlink:title="commandParsing.structural\lCommandParsing.Ask">
<polygon fill="white" stroke="black" points="499.5,-747 499.5,-777 648.5,-777 648.5,-747 499.5,-747"/>
<text text-anchor="start" x="507.5" y="-765" font-family="Helvetica,sans-Serif" font-size="10.00">commandParsing.structural</text>
<text text-anchor="middle" x="574" y="-754" font-family="Helvetica,sans-Serif" font-size="10.00">CommandParsing.Ask</text>
</a>
</g>
</g>
<!-- Node2&#45;&gt;Node3 -->
<g id="edge2" class="edge"><title>Node2&#45;&gt;Node3</title>
<path fill="none" stroke="midnightblue" d="M421.372,-730.113C447.52,-735.611 476.272,-741.658 501.644,-746.994"/>
<polygon fill="midnightblue" stroke="midnightblue" points="421.997,-726.668 411.491,-728.035 420.557,-733.518 421.997,-726.668"/>
</g>
<!-- Node4 -->
<g id="node4" class="node"><title>Node4</title>
<g id="a_node4"><a xlink:href="../../d7/d78/classcommand_parsing_1_1structural_command_parsing_1_1_ask_with.html" target="_top" xlink:title="commandParsing.structural\lCommandParsing.AskWith">
<polygon fill="white" stroke="black" points="499.5,-698 499.5,-728 648.5,-728 648.5,-698 499.5,-698"/>
<text text-anchor="start" x="507.5" y="-716" font-family="Helvetica,sans-Serif" font-size="10.00">commandParsing.structural</text>
<text text-anchor="middle" x="574" y="-705" font-family="Helvetica,sans-Serif" font-size="10.00">CommandParsing.AskWith</text>
</a>
</g>
</g>
<!-- Node2&#45;&gt;Node4 -->
<g id="edge3" class="edge"><title>Node2&#45;&gt;Node4</title>
<path fill="none" stroke="midnightblue" d="M457.923,-713C472.063,-713 486.175,-713 499.426,-713"/>
<polygon fill="midnightblue" stroke="midnightblue" points="457.634,-709.5 447.634,-713 457.634,-716.5 457.634,-709.5"/>
</g>
<!-- Node5 -->
<g id="node5" class="node"><title>Node5</title>
<g id="a_node5"><a xlink:href="../../db/da0/classcommand_parsing_1_1structural_command_parsing_1_1_tell.html" target="_top" xlink:title="commandParsing.structural\lCommandParsing.Tell">
<polygon fill="white" stroke="black" points="499.5,-649 499.5,-679 648.5,-679 648.5,-649 499.5,-649"/>
<text text-anchor="start" x="507.5" y="-667" font-family="Helvetica,sans-Serif" font-size="10.00">commandParsing.structural</text>
<text text-anchor="middle" x="574" y="-656" font-family="Helvetica,sans-Serif" font-size="10.00">CommandParsing.Tell</text>
</a>
</g>
</g>
<!-- Node2&#45;&gt;Node5 -->
<g id="edge4" class="edge"><title>Node2&#45;&gt;Node5</title>
<path fill="none" stroke="midnightblue" d="M421.372,-695.887C447.52,-690.389 476.272,-684.342 501.644,-679.006"/>
<polygon fill="midnightblue" stroke="midnightblue" points="420.557,-692.482 411.491,-697.965 421.997,-699.332 420.557,-692.482"/>
</g>
<!-- Node15 -->
<g id="node15" class="node"><title>Node15</title>
<g id="a_node15"><a xlink:href="../../d9/d5e/classcommand_parsing_1_1turtle_command_parsing_1_1turtle_movement_1_1_backward.html" target="_top" xlink:title="commandParsing.turtleCommand\lParsing.turtleMovement.Backward">
<polygon fill="white" stroke="black" points="484.5,-255 484.5,-285 663.5,-285 663.5,-255 484.5,-255"/>
<text text-anchor="start" x="492.5" y="-273" font-family="Helvetica,sans-Serif" font-size="10.00">commandParsing.turtleCommand</text>
<text text-anchor="middle" x="574" y="-262" font-family="Helvetica,sans-Serif" font-size="10.00">Parsing.turtleMovement.Backward</text>
</a>
</g>
</g>
<!-- Node14&#45;&gt;Node15 -->
<g id="edge14" class="edge"><title>Node14&#45;&gt;Node15</title>
<path fill="none" stroke="midnightblue" d="M417.481,-235.201C427.745,-237.485 438.127,-239.797 448,-242 466.775,-246.189 487.134,-250.744 505.862,-254.939"/>
<polygon fill="midnightblue" stroke="midnightblue" points="418.219,-231.78 407.698,-233.025 416.699,-238.613 418.219,-231.78"/>
</g>
<!-- Node16 -->
<g id="node16" class="node"><title>Node16</title>
<g id="a_node16"><a xlink:href="../../da/d78/classcommand_parsing_1_1turtle_command_parsing_1_1turtle_movement_1_1_forward.html" target="_top" xlink:title="commandParsing.turtleCommand\lParsing.turtleMovement.Forward">
<polygon fill="white" stroke="black" points="484.5,-206 484.5,-236 663.5,-236 663.5,-206 484.5,-206"/>
<text text-anchor="start" x="492.5" y="-224" font-family="Helvetica,sans-Serif" font-size="10.00">commandParsing.turtleCommand</text>
<text text-anchor="middle" x="574" y="-213" font-family="Helvetica,sans-Serif" font-size="10.00">Parsing.turtleMovement.Forward</text>
</a>
</g>
</g>
<!-- Node14&#45;&gt;Node16 -->
<g id="edge15" class="edge"><title>Node14&#45;&gt;Node16</title>
<path fill="none" stroke="midnightblue" d="M439.113,-219.276C454.19,-219.47 469.664,-219.669 484.495,-219.86"/>
<polygon fill="midnightblue" stroke="midnightblue" points="438.796,-215.772 428.752,-219.143 438.706,-222.771 438.796,-215.772"/>
</g>
<!-- Node18 -->
<g id="node18" class="node"><title>Node18</title>
<g id="a_node18"><a xlink:href="../../d4/d74/classcommand_parsing_1_1turtle_command_parsing_1_1turtle_attribute_setters_1_1_set_position.html" target="_top" xlink:title="commandParsing.turtleCommand\lParsing.turtleAttributeSetters.\lSetPosition">
<polygon fill="white" stroke="black" points="484.5,-146.5 484.5,-187.5 663.5,-187.5 663.5,-146.5 484.5,-146.5"/>
<text text-anchor="start" x="492.5" y="-175.5" font-family="Helvetica,sans-Serif" font-size="10.00">commandParsing.turtleCommand</text>
<text text-anchor="start" x="492.5" y="-164.5" font-family="Helvetica,sans-Serif" font-size="10.00">Parsing.turtleAttributeSetters.</text>
<text text-anchor="middle" x="574" y="-153.5" font-family="Helvetica,sans-Serif" font-size="10.00">SetPosition</text>
</a>
</g>
</g>
<!-- Node17&#45;&gt;Node18 -->
<g id="edge17" class="edge"><title>Node17&#45;&gt;Node18</title>
<path fill="none" stroke="midnightblue" d="M453.796,-167C464.06,-167 474.351,-167 484.352,-167"/>
<polygon fill="midnightblue" stroke="midnightblue" points="453.554,-163.5 443.554,-167 453.554,-170.5 453.554,-163.5"/>
</g>
<!-- Node19 -->
<g id="node19" class="node"><title>Node19</title>
<g id="a_node19"><a xlink:href="../../dd/d8a/classcommand_parsing_1_1turtle_command_parsing_1_1turtle_movement_1_1_home.html" target="_top" xlink:title="commandParsing.turtleCommand\lParsing.turtleMovement.Home">
<polygon fill="white" stroke="black" points="484.5,-98 484.5,-128 663.5,-128 663.5,-98 484.5,-98"/>
<text text-anchor="start" x="492.5" y="-116" font-family="Helvetica,sans-Serif" font-size="10.00">commandParsing.turtleCommand</text>
<text text-anchor="middle" x="574" y="-105" font-family="Helvetica,sans-Serif" font-size="10.00">Parsing.turtleMovement.Home</text>
</a>
</g>
</g>
<!-- Node17&#45;&gt;Node19 -->
<g id="edge18" class="edge"><title>Node17&#45;&gt;Node19</title>
<path fill="none" stroke="midnightblue" d="M414.899,-149.641C444.892,-142.69 479.12,-134.758 508.041,-128.055"/>
<polygon fill="midnightblue" stroke="midnightblue" points="413.855,-146.291 404.903,-151.958 415.436,-153.11 413.855,-146.291"/>
</g>
<!-- Node20 -->
<g id="node20" class="node"><title>Node20</title>
<g id="a_node20"><a xlink:href="../../dd/dc5/classcommand_parsing_1_1turtle_command_parsing_1_1_clear_screen.html" target="_top" xlink:title="commandParsing.turtleCommand\lParsing.ClearScreen">
<polygon fill="white" stroke="black" points="700.5,-98 700.5,-128 879.5,-128 879.5,-98 700.5,-98"/>
<text text-anchor="start" x="708.5" y="-116" font-family="Helvetica,sans-Serif" font-size="10.00">commandParsing.turtleCommand</text>
<text text-anchor="middle" x="790" y="-105" font-family="Helvetica,sans-Serif" font-size="10.00">Parsing.ClearScreen</text>
</a>
</g>
</g>
<!-- Node19&#45;&gt;Node20 -->
<g id="edge19" class="edge"><title>Node19&#45;&gt;Node20</title>
<path fill="none" stroke="midnightblue" d="M673.645,-113C682.596,-113 691.625,-113 700.48,-113"/>
<polygon fill="midnightblue" stroke="midnightblue" points="673.587,-109.5 663.587,-113 673.587,-116.5 673.587,-109.5"/>
</g>
<!-- Node22 -->
<g id="node22" class="node"><title>Node22</title>
<g id="a_node22"><a xlink:href="../../d8/dfc/classcommand_parsing_1_1turtle_command_parsing_1_1turtle_movement_1_1_left.html" target="_top" xlink:title="commandParsing.turtleCommand\lParsing.turtleMovement.Left">
<polygon fill="white" stroke="black" points="484.5,-49 484.5,-79 663.5,-79 663.5,-49 484.5,-49"/>
<text text-anchor="start" x="492.5" y="-67" font-family="Helvetica,sans-Serif" font-size="10.00">commandParsing.turtleCommand</text>
<text text-anchor="middle" x="574" y="-56" font-family="Helvetica,sans-Serif" font-size="10.00">Parsing.turtleMovement.Left</text>
</a>
</g>
</g>
<!-- Node21&#45;&gt;Node22 -->
<g id="edge21" class="edge"><title>Node21&#45;&gt;Node22</title>
<path fill="none" stroke="midnightblue" d="M439.113,-64C454.19,-64 469.664,-64 484.495,-64"/>
<polygon fill="midnightblue" stroke="midnightblue" points="438.752,-60.5001 428.752,-64 438.752,-67.5001 438.752,-60.5001"/>
</g>
<!-- Node23 -->
<g id="node23" class="node"><title>Node23</title>
<g id="a_node23"><a xlink:href="../../d0/dea/classcommand_parsing_1_1turtle_command_parsing_1_1turtle_movement_1_1_right.html" target="_top" xlink:title="commandParsing.turtleCommand\lParsing.turtleMovement.Right">
<polygon fill="white" stroke="black" points="484.5,-0 484.5,-30 663.5,-30 663.5,-0 484.5,-0"/>
<text text-anchor="start" x="492.5" y="-18" font-family="Helvetica,sans-Serif" font-size="10.00">commandParsing.turtleCommand</text>
<text text-anchor="middle" x="574" y="-7" font-family="Helvetica,sans-Serif" font-size="10.00">Parsing.turtleMovement.Right</text>
</a>
</g>
</g>
<!-- Node21&#45;&gt;Node23 -->
<g id="edge22" class="edge"><title>Node21&#45;&gt;Node23</title>
<path fill="none" stroke="midnightblue" d="M421.372,-46.8873C447.52,-41.3885 476.272,-35.342 501.644,-30.0062"/>
<polygon fill="midnightblue" stroke="midnightblue" points="420.557,-43.4822 411.491,-48.9654 421.997,-50.3324 420.557,-43.4822"/>
</g>
</g>
</svg>
        <g id="navigator" transform="translate(0 0)" fill="#404254">
                <rect fill="#f2f5e9" fill-opacity="0.5" stroke="#606060" stroke-width=".5" x="0" y="0" width="60" height="60"/>
                <use id="zoomplus" xlink:href="#zoomPlus" x="17" y="9" onmousedown="handleZoom(evt,'in')"/>
                <use id="zoomminus" xlink:href="#zoomMin" x="42" y="9" onmousedown="handleZoom(evt,'out')"/>
                <use id="reset" xlink:href="#resetDef" x="30" y="36" onmousedown="handleReset()"/>
                <g id="arrowUp" xlink:href="#dirArrow" transform="translate(30 24)" onmousedown="handlePan(0,-1)">
                  <use xlink:href="#rim" fill="#404040">
                        <set attributeName="fill" to="#808080" begin="arrowUp.mouseover" end="arrowUp.mouseout"/>
                  </use>
                  <path fill="none" stroke="white" stroke-width="1.5" d="M0,-3.0v7 M-2.5,-0.5L0,-3.0L2.5,-0.5"/>
                </g>
                <g id="arrowRight" xlink:href="#dirArrow" transform="rotate(90) translate(36 -43)" onmousedown="handlePan(1,0)">
                  <use xlink:href="#rim" fill="#404040">
                        <set attributeName="fill" to="#808080" begin="arrowRight.mouseover" end="arrowRight.mouseout"/>
                  </use>
                  <path fill="none" stroke="white" stroke-width="1.5" d="M0,-3.0v7 M-2.5,-0.5L0,-3.0L2.5,-0.5"/>
                </g>
                <g id="arrowDown" xlink:href="#dirArrow" transform="rotate(180) translate(-30 -48)" onmousedown="handlePan(0,1)">
                  <use xlink:href="#rim" fill="#404040">
                        <set attributeName="fill" to="#808080" begin="arrowDown.mouseover" end="arrowDown.mouseout"/>
                  </use>
                  <path fill="none" stroke="white" stroke-width="1.5" d="M0,-3.0v7 M-2.5,-0.5L0,-3.0L2.5,-0.5"/>
                </g>
                <g id="arrowLeft" xlink:href="#dirArrow" transform="rotate(270) translate(-36 17)" onmousedown="handlePan(-1,0)">
                  <use xlink:href="#rim" fill="#404040">
                        <set attributeName="fill" to="#808080" begin="arrowLeft.mouseover" end="arrowLeft.mouseout"/>
                  </use>
                  <path fill="none" stroke="white" stroke-width="1.5" d="M0,-3.0v7 M-2.5,-0.5L0,-3.0L2.5,-0.5"/>
                </g>
        </g>
        <svg viewBox="0 0 15 15" width="100%" height="30px" preserveAspectRatio="xMaxYMin meet">
         <g id="arrow_out" transform="scale(0.3 0.3)">
          <a xlink:href="interfacecommand_parsing_1_1drawable_obect_generation_interfaces_1_1_turtle_generator__inherit__graph_org.svg" target="_base">
           <rect id="button" ry="5" rx="5" y="6" x="6" height="38" width="38"
                fill="#f2f5e9" fill-opacity="0.5" stroke="#606060" stroke-width="1.0"/>
           <path id="arrow"
             d="M 11.500037,31.436501 C 11.940474,20.09759 22.043105,11.32322 32.158766,21.979434 L 37.068811,17.246167 C 37.068811,17.246167 37.088388,32 37.088388,32 L 22.160133,31.978069 C 22.160133,31.978069 26.997745,27.140456 26.997745,27.140456 C 18.528582,18.264221 13.291696,25.230495 11.500037,31.436501 z"
             style="fill:#404040;"/>
          </a>
         </g>
        </svg>
</svg>
