<?xml version="1.0" encoding="UTF-8" standalone="no"?>
<!DOCTYPE svg PUBLIC "-//W3C//DTD SVG 1.1//EN"
 "http://www.w3.org/Graphics/SVG/1.1/DTD/svg11.dtd">
<!-- Generated by graphviz version 2.36.0 (20140111.2315)
 -->
<!-- Title: commandParsing.turtleCommandParsing.turtleMovement.Forward Pages: 1 -->
<svg width="1080pt" height="136pt"
 viewBox="0.00 0.00 1080.00 136.00" xmlns="http://www.w3.org/2000/svg" xmlns:xlink="http://www.w3.org/1999/xlink">
<g id="graph0" class="graph" transform="scale(1 1) rotate(0) translate(4 132)">
<title>commandParsing.turtleCommandParsing.turtleMovement.Forward</title>
<polygon fill="white" stroke="none" points="-4,4 -4,-132 1076,-132 1076,4 -4,4"/>
<!-- Node1 -->
<g id="node1" class="node"><title>Node1</title>
<polygon fill="#bfbfbf" stroke="black" points="892.5,-49 892.5,-79 1071.5,-79 1071.5,-49 892.5,-49"/>
<text text-anchor="start" x="900.5" y="-67" font-family="Helvetica,sans-Serif" font-size="10.00">commandParsing.turtleCommand</text>
<text text-anchor="middle" x="982" y="-56" font-family="Helvetica,sans-Serif" font-size="10.00">Parsing.turtleMovement.Forward</text>
</g>
<!-- Node2 -->
<g id="node2" class="node"><title>Node2</title>
<g id="a_node2"><a xlink:href="../../d6/d37/classcommand_parsing_1_1turtle_command_parsing_1_1turtle_movement_1_1_move.html" target="_top" xlink:title="commandParsing.turtleCommand\lParsing.turtleMovement.Move">
<polygon fill="white" stroke="black" points="676.5,-49 676.5,-79 855.5,-79 855.5,-49 676.5,-49"/>
<text text-anchor="start" x="684.5" y="-67" font-family="Helvetica,sans-Serif" font-size="10.00">commandParsing.turtleCommand</text>
<text text-anchor="middle" x="766" y="-56" font-family="Helvetica,sans-Serif" font-size="10.00">Parsing.turtleMovement.Move</text>
</a>
</g>
</g>
<!-- Node2&#45;&gt;Node1 -->
<g id="edge1" class="edge"><title>Node2&#45;&gt;Node1</title>
<path fill="none" stroke="midnightblue" d="M865.645,-64C874.596,-64 883.625,-64 892.48,-64"/>
<polygon fill="midnightblue" stroke="midnightblue" points="865.587,-60.5001 855.587,-64 865.587,-67.5001 865.587,-60.5001"/>
</g>
<!-- Node3 -->
<g id="node3" class="node"><title>Node3</title>
<g id="a_node3"><a xlink:href="../../d3/d00/classcommand_parsing_1_1float_command_parsing_1_1_one_input_float_command_parser.html" target="_top" xlink:title="commandParsing.floatCommand\lParsing.OneInputFloatCommandParser">
<polygon fill="white" stroke="black" points="438.5,-98 438.5,-128 639.5,-128 639.5,-98 438.5,-98"/>
<text text-anchor="start" x="446.5" y="-116" font-family="Helvetica,sans-Serif" font-size="10.00">commandParsing.floatCommand</text>
<text text-anchor="middle" x="539" y="-105" font-family="Helvetica,sans-Serif" font-size="10.00">Parsing.OneInputFloatCommandParser</text>
</a>
</g>
</g>
<!-- Node3&#45;&gt;Node2 -->
<g id="edge2" class="edge"><title>Node3&#45;&gt;Node2</title>
<path fill="none" stroke="midnightblue" d="M618.912,-95.8146C644.073,-90.3353 671.701,-84.3185 696.094,-79.0062"/>
<polygon fill="midnightblue" stroke="midnightblue" points="618.063,-92.4176 609.037,-97.9654 619.552,-99.2572 618.063,-92.4176"/>
</g>
<!-- Node4 -->
<g id="node4" class="node"><title>Node4</title>
<g id="a_node4"><a xlink:href="../../d9/d8d/classcommand_parsing_1_1float_command_parsing_1_1_float_input_command_parser.html" target="_top" xlink:title="commandParsing.floatCommand\lParsing.FloatInputCommandParser">
<polygon fill="white" stroke="black" points="220,-98 220,-128 402,-128 402,-98 220,-98"/>
<text text-anchor="start" x="228" y="-116" font-family="Helvetica,sans-Serif" font-size="10.00">commandParsing.floatCommand</text>
<text text-anchor="middle" x="311" y="-105" font-family="Helvetica,sans-Serif" font-size="10.00">Parsing.FloatInputCommandParser</text>
</a>
</g>
</g>
<!-- Node4&#45;&gt;Node3 -->
<g id="edge3" class="edge"><title>Node4&#45;&gt;Node3</title>
<path fill="none" stroke="midnightblue" d="M412.324,-113C420.916,-113 429.607,-113 438.195,-113"/>
<polygon fill="midnightblue" stroke="midnightblue" points="412.296,-109.5 402.296,-113 412.295,-116.5 412.296,-109.5"/>
</g>
<!-- Node5 -->
<g id="node5" class="node"><title>Node5</title>
<g id="a_node5"><a xlink:href="../../d7/d17/classcommand_parsing_1_1_command_parser.html" target="_top" xlink:title="commandParsing.CommandParser">
<polygon fill="white" stroke="black" points="0.5,-103.5 0.5,-122.5 183.5,-122.5 183.5,-103.5 0.5,-103.5"/>
<text text-anchor="middle" x="92" y="-110.5" font-family="Helvetica,sans-Serif" font-size="10.00">commandParsing.CommandParser</text>
</a>
</g>
</g>
<!-- Node5&#45;&gt;Node4 -->
<g id="edge4" class="edge"><title>Node5&#45;&gt;Node4</title>
<path fill="none" stroke="midnightblue" d="M193.92,-113C202.603,-113 211.352,-113 219.941,-113"/>
<polygon fill="midnightblue" stroke="midnightblue" points="193.77,-109.5 183.77,-113 193.77,-116.5 193.77,-109.5"/>
</g>
<!-- Node6 -->
<g id="node6" class="node"><title>Node6</title>
<g id="a_node6"><a xlink:href="../../d7/d23/interfacecommand_parsing_1_1drawable_obect_generation_interfaces_1_1_line_generator.html" target="_top" xlink:title="commandParsing.drawableObect\lGenerationInterfaces.LineGenerator">
<polygon fill="white" stroke="black" points="445,-49 445,-79 633,-79 633,-49 445,-49"/>
<text text-anchor="start" x="453" y="-67" font-family="Helvetica,sans-Serif" font-size="10.00">commandParsing.drawableObect</text>
<text text-anchor="middle" x="539" y="-56" font-family="Helvetica,sans-Serif" font-size="10.00">GenerationInterfaces.LineGenerator</text>
</a>
</g>
</g>
<!-- Node6&#45;&gt;Node2 -->
<g id="edge5" class="edge"><title>Node6&#45;&gt;Node2</title>
<path fill="none" stroke="midnightblue" d="M643.229,-64C654.265,-64 665.42,-64 676.267,-64"/>
<polygon fill="midnightblue" stroke="midnightblue" points="643.14,-60.5001 633.14,-64 643.14,-67.5001 643.14,-60.5001"/>
</g>
<!-- Node7 -->
<g id="node7" class="node"><title>Node7</title>
<g id="a_node7"><a xlink:href="../../df/d64/interfacecommand_parsing_1_1drawable_obect_generation_interfaces_1_1_turtle_generator.html" target="_top" xlink:title="commandParsing.drawableObect\lGenerationInterfaces.TurtleGenerator">
<polygon fill="white" stroke="black" points="442,-0 442,-30 636,-30 636,-0 442,-0"/>
<text text-anchor="start" x="450" y="-18" font-family="Helvetica,sans-Serif" font-size="10.00">commandParsing.drawableObect</text>
<text text-anchor="middle" x="539" y="-7" font-family="Helvetica,sans-Serif" font-size="10.00">GenerationInterfaces.TurtleGenerator</text>
</a>
</g>
</g>
<!-- Node7&#45;&gt;Node2 -->
<g id="edge6" class="edge"><title>Node7&#45;&gt;Node2</title>
<path fill="none" stroke="midnightblue" d="M618.912,-32.1854C644.073,-37.6647 671.701,-43.6815 696.094,-48.9938"/>
<polygon fill="midnightblue" stroke="midnightblue" points="619.552,-28.7428 609.037,-30.0346 618.063,-35.5824 619.552,-28.7428"/>
</g>
</g>
</svg>
