<?xml version="1.0" encoding="UTF-8" standalone="no"?>
<!DOCTYPE svg PUBLIC "-//W3C//DTD SVG 1.1//EN"
 "http://www.w3.org/Graphics/SVG/1.1/DTD/svg11.dtd">
<!-- Generated by graphviz version 2.36.0 (20140111.2315)
 -->
<!-- Title: commandParsing.userCommandParsing.MakeUserInstruction.parse Pages: 1 -->
<svg width="948pt" height="794pt"
 viewBox="0.00 0.00 948.00 794.17" xmlns="http://www.w3.org/2000/svg" xmlns:xlink="http://www.w3.org/1999/xlink">
<g id="graph0" class="graph" transform="scale(1 1) rotate(0) translate(4 790.172)">
<title>commandParsing.userCommandParsing.MakeUserInstruction.parse</title>
<polygon fill="white" stroke="none" points="-4,4 -4,-790.172 944,-790.172 944,4 -4,4"/>
<!-- Node1 -->
<g id="node1" class="node"><title>Node1</title>
<polygon fill="#bfbfbf" stroke="black" points="0,-284 0,-314 182,-314 182,-284 0,-284"/>
<text text-anchor="start" x="8" y="-302" font-family="Helvetica,sans-Serif" font-size="10.00">commandParsing.userCommand</text>
<text text-anchor="middle" x="91" y="-291" font-family="Helvetica,sans-Serif" font-size="10.00">Parsing.MakeUserInstruction.parse</text>
</g>
<!-- Node2 -->
<g id="node2" class="node"><title>Node2</title>
<g id="a_node2"><a xlink:href="../../d7/d17/classcommand_parsing_1_1_command_parser.html#a9bf6e09b0ad06b6f217ad0ad040f8e93" target="_top" xlink:title="commandParsing.CommandParser.create\lParser">
<polygon fill="white" stroke="black" points="507,-236 507,-266 723,-266 723,-236 507,-236"/>
<text text-anchor="start" x="515" y="-254" font-family="Helvetica,sans-Serif" font-size="10.00">commandParsing.CommandParser.create</text>
<text text-anchor="middle" x="615" y="-243" font-family="Helvetica,sans-Serif" font-size="10.00">Parser</text>
</a>
</g>
</g>
<!-- Node1&#45;&gt;Node2 -->
<g id="edge1" class="edge"><title>Node1&#45;&gt;Node2</title>
<path fill="none" stroke="midnightblue" d="M182.032,-290.721C269.072,-282.718 401.408,-270.549 496.662,-261.79"/>
<polygon fill="midnightblue" stroke="midnightblue" points="496.994,-265.274 506.632,-260.873 496.353,-258.303 496.994,-265.274"/>
</g>
<!-- Node3 -->
<g id="node3" class="node"><title>Node3</title>
<g id="a_node3"><a xlink:href="../../de/dcc/classcommand_parsing_1_1structural_command_parsing_1_1_structural_command.html#aaba2d63efc66bac087cb3b36e2a65a41" target="_top" xlink:title="commandParsing.structural\lCommandParsing.StructuralCommand.extract\lCommandsBetweenBraces">
<polygon fill="white" stroke="black" points="218.5,-698.5 218.5,-739.5 457.5,-739.5 457.5,-698.5 218.5,-698.5"/>
<text text-anchor="start" x="226.5" y="-727.5" font-family="Helvetica,sans-Serif" font-size="10.00">commandParsing.structural</text>
<text text-anchor="start" x="226.5" y="-716.5" font-family="Helvetica,sans-Serif" font-size="10.00">CommandParsing.StructuralCommand.extract</text>
<text text-anchor="middle" x="338" y="-705.5" font-family="Helvetica,sans-Serif" font-size="10.00">CommandsBetweenBraces</text>
</a>
</g>
</g>
<!-- Node1&#45;&gt;Node3 -->
<g id="edge2" class="edge"><title>Node1&#45;&gt;Node3</title>
<path fill="none" stroke="midnightblue" d="M95.2524,-314.186C106.094,-362.266 144.536,-514.033 218,-617 239.44,-647.05 271.576,-673.896 297.05,-692.495"/>
<polygon fill="midnightblue" stroke="midnightblue" points="295.24,-695.503 305.408,-698.479 299.314,-689.812 295.24,-695.503"/>
</g>
<!-- Node7 -->
<g id="node7" class="node"><title>Node7</title>
<g id="a_node7"><a xlink:href="../../d2/d58/classworkspace_state_1_1_user_defined_command_collection.html#a1d4a2ef01acd52de48f327ecc6fc0664" target="_top" xlink:title="workspaceState.UserDefined\lCommandCollection.fetchUserDefined\lCommand">
<polygon fill="white" stroke="black" points="238,-495.5 238,-536.5 438,-536.5 438,-495.5 238,-495.5"/>
<text text-anchor="start" x="246" y="-524.5" font-family="Helvetica,sans-Serif" font-size="10.00">workspaceState.UserDefined</text>
<text text-anchor="start" x="246" y="-513.5" font-family="Helvetica,sans-Serif" font-size="10.00">CommandCollection.fetchUserDefined</text>
<text text-anchor="middle" x="338" y="-502.5" font-family="Helvetica,sans-Serif" font-size="10.00">Command</text>
</a>
</g>
</g>
<!-- Node1&#45;&gt;Node7 -->
<g id="edge7" class="edge"><title>Node1&#45;&gt;Node7</title>
<path fill="none" stroke="midnightblue" d="M97.7572,-314.003C112.2,-349.569 153.495,-439.423 218,-485 221.337,-487.358 224.841,-489.537 228.467,-491.55"/>
<polygon fill="midnightblue" stroke="midnightblue" points="227.205,-494.834 237.709,-496.22 230.362,-488.586 227.205,-494.834"/>
</g>
<!-- Node8 -->
<g id="node8" class="node"><title>Node8</title>
<g id="a_node8"><a xlink:href="../../dd/d73/classworkspace_state_1_1_user_defined_variable_collection.html#a0b0c4d5c4c1130ab60e39a818fd013d3" target="_top" xlink:title="workspaceState.UserDefined\lVariableCollection.fetchWorkspace\lVariable">
<polygon fill="white" stroke="black" points="248.5,-435.5 248.5,-476.5 427.5,-476.5 427.5,-435.5 248.5,-435.5"/>
<text text-anchor="start" x="256.5" y="-464.5" font-family="Helvetica,sans-Serif" font-size="10.00">workspaceState.UserDefined</text>
<text text-anchor="start" x="256.5" y="-453.5" font-family="Helvetica,sans-Serif" font-size="10.00">VariableCollection.fetchWorkspace</text>
<text text-anchor="middle" x="338" y="-442.5" font-family="Helvetica,sans-Serif" font-size="10.00">Variable</text>
</a>
</g>
</g>
<!-- Node1&#45;&gt;Node8 -->
<g id="edge8" class="edge"><title>Node1&#45;&gt;Node8</title>
<path fill="none" stroke="midnightblue" d="M102.948,-314.403C122.765,-341.112 167.263,-395.942 218,-425 224.643,-428.805 231.76,-432.152 239.088,-435.095"/>
<polygon fill="midnightblue" stroke="midnightblue" points="237.871,-438.376 248.463,-438.611 240.329,-431.822 237.871,-438.376"/>
</g>
<!-- Node9 -->
<g id="node9" class="node"><title>Node9</title>
<g id="a_node9"><a xlink:href="../../da/dca/interfacecommand_parsing_1_1drawable_obect_generation_interfaces_1_1_user_defined_command_generator.html#ac81cc65aa45853102af451a42227ffba" target="_top" xlink:title="commandParsing.drawableObect\lGenerationInterfaces.UserDefined\lCommandGenerator.generateDrawableObject\lRepresentingCommand">
<polygon fill="white" stroke="black" points="220,-556 220,-608 456,-608 456,-556 220,-556"/>
<text text-anchor="start" x="228" y="-596" font-family="Helvetica,sans-Serif" font-size="10.00">commandParsing.drawableObect</text>
<text text-anchor="start" x="228" y="-585" font-family="Helvetica,sans-Serif" font-size="10.00">GenerationInterfaces.UserDefined</text>
<text text-anchor="start" x="228" y="-574" font-family="Helvetica,sans-Serif" font-size="10.00">CommandGenerator.generateDrawableObject</text>
<text text-anchor="middle" x="338" y="-563" font-family="Helvetica,sans-Serif" font-size="10.00">RepresentingCommand</text>
</a>
</g>
</g>
<!-- Node1&#45;&gt;Node9 -->
<g id="edge9" class="edge"><title>Node1&#45;&gt;Node9</title>
<path fill="none" stroke="midnightblue" d="M95.4217,-314.302C105.841,-357.329 141.26,-480.435 218,-545 220.25,-546.893 222.598,-548.69 225.024,-550.395"/>
<polygon fill="midnightblue" stroke="midnightblue" points="223.248,-553.413 233.56,-555.845 227.015,-547.513 223.248,-553.413"/>
</g>
<!-- Node14 -->
<g id="node14" class="node"><title>Node14</title>
<g id="a_node14"><a xlink:href="../../d5/dc4/interfacecommand_parsing_1_1drawable_obect_generation_interfaces_1_1_user_defined_variable_generator.html#a0a6cea3a0e31a571a77c07065fd68e5b" target="_top" xlink:title="commandParsing.drawableObect\lGenerationInterfaces.UserDefined\lVariableGenerator.generateDrawableObject\lRepresentingVariable">
<polygon fill="white" stroke="black" points="226,-364 226,-416 450,-416 450,-364 226,-364"/>
<text text-anchor="start" x="234" y="-404" font-family="Helvetica,sans-Serif" font-size="10.00">commandParsing.drawableObect</text>
<text text-anchor="start" x="234" y="-393" font-family="Helvetica,sans-Serif" font-size="10.00">GenerationInterfaces.UserDefined</text>
<text text-anchor="start" x="234" y="-382" font-family="Helvetica,sans-Serif" font-size="10.00">VariableGenerator.generateDrawableObject</text>
<text text-anchor="middle" x="338" y="-371" font-family="Helvetica,sans-Serif" font-size="10.00">RepresentingVariable</text>
</a>
</g>
</g>
<!-- Node1&#45;&gt;Node14 -->
<g id="edge14" class="edge"><title>Node1&#45;&gt;Node14</title>
<path fill="none" stroke="midnightblue" d="M124.522,-314.039C149.747,-325.434 185.733,-341.105 218,-353 225.137,-355.631 232.558,-358.237 240.05,-360.775"/>
<polygon fill="midnightblue" stroke="midnightblue" points="238.969,-364.104 249.562,-363.951 241.185,-357.464 238.969,-364.104"/>
</g>
<!-- Node17 -->
<g id="node17" class="node"><title>Node17</title>
<g id="a_node17"><a xlink:href="../../de/dcc/classcommand_parsing_1_1structural_command_parsing_1_1_structural_command.html#ad1fbabc1ceb2acecc6523f53819ad301" target="_top" xlink:title="commandParsing.structural\lCommandParsing.StructuralCommand.get\lVariable">
<polygon fill="white" stroke="black" points="227.5,-303.5 227.5,-344.5 448.5,-344.5 448.5,-303.5 227.5,-303.5"/>
<text text-anchor="start" x="235.5" y="-332.5" font-family="Helvetica,sans-Serif" font-size="10.00">commandParsing.structural</text>
<text text-anchor="start" x="235.5" y="-321.5" font-family="Helvetica,sans-Serif" font-size="10.00">CommandParsing.StructuralCommand.get</text>
<text text-anchor="middle" x="338" y="-310.5" font-family="Helvetica,sans-Serif" font-size="10.00">Variable</text>
</a>
</g>
</g>
<!-- Node1&#45;&gt;Node17 -->
<g id="edge17" class="edge"><title>Node1&#45;&gt;Node17</title>
<path fill="none" stroke="midnightblue" d="M182.185,-308.203C193.697,-309.377 205.62,-310.594 217.504,-311.807"/>
<polygon fill="midnightblue" stroke="midnightblue" points="217.165,-315.29 227.468,-312.823 217.875,-308.326 217.165,-315.29"/>
</g>
<!-- Node21 -->
<g id="node21" class="node"><title>Node21</title>
<g id="a_node21"><a xlink:href="../../d7/d17/classcommand_parsing_1_1_command_parser.html#ac5bad35b74ad1aac039e96f2e3a99e82" target="_top" xlink:title="commandParsing.CommandParser.is\lStringParsableAsCommand">
<polygon fill="white" stroke="black" points="241.5,-157 241.5,-187 434.5,-187 434.5,-157 241.5,-157"/>
<text text-anchor="start" x="249.5" y="-175" font-family="Helvetica,sans-Serif" font-size="10.00">commandParsing.CommandParser.is</text>
<text text-anchor="middle" x="338" y="-164" font-family="Helvetica,sans-Serif" font-size="10.00">StringParsableAsCommand</text>
</a>
</g>
</g>
<!-- Node1&#45;&gt;Node21 -->
<g id="edge22" class="edge"><title>Node1&#45;&gt;Node21</title>
<path fill="none" stroke="midnightblue" d="M105.848,-283.672C127.446,-260.78 171.523,-218.003 218,-196 222.411,-193.912 226.998,-192.005 231.692,-190.264"/>
<polygon fill="midnightblue" stroke="midnightblue" points="233.132,-193.47 241.458,-186.918 230.863,-186.848 233.132,-193.47"/>
</g>
<!-- Node23 -->
<g id="node23" class="node"><title>Node23</title>
<g id="a_node23"><a xlink:href="../../de/dcc/classcommand_parsing_1_1structural_command_parsing_1_1_structural_command.html#a4758d97862a38c414f90ca079a0d8d04" target="_top" xlink:title="commandParsing.structural\lCommandParsing.StructuralCommand.parse\lCommandsBetweenBraces">
<polygon fill="white" stroke="black" points="222,-205.5 222,-246.5 454,-246.5 454,-205.5 222,-205.5"/>
<text text-anchor="start" x="230" y="-234.5" font-family="Helvetica,sans-Serif" font-size="10.00">commandParsing.structural</text>
<text text-anchor="start" x="230" y="-223.5" font-family="Helvetica,sans-Serif" font-size="10.00">CommandParsing.StructuralCommand.parse</text>
<text text-anchor="middle" x="338" y="-212.5" font-family="Helvetica,sans-Serif" font-size="10.00">CommandsBetweenBraces</text>
</a>
</g>
</g>
<!-- Node1&#45;&gt;Node23 -->
<g id="edge24" class="edge"><title>Node1&#45;&gt;Node23</title>
<path fill="none" stroke="midnightblue" d="M141.647,-283.941C164.834,-276.931 192.818,-268.5 218,-261 230.582,-257.253 243.919,-253.305 256.939,-249.466"/>
<polygon fill="midnightblue" stroke="midnightblue" points="258.212,-252.739 266.816,-246.556 256.234,-246.025 258.212,-252.739"/>
</g>
<!-- Node25 -->
<g id="node25" class="node"><title>Node25</title>
<g id="a_node25"><a xlink:href="../../d2/d58/classworkspace_state_1_1_user_defined_command_collection.html#af9c8f65861771ad9c664c55d8c1b6af6" target="_top" xlink:title="workspaceState.UserDefined\lCommandCollection.storeUserDefined\lCommand">
<polygon fill="white" stroke="black" points="238,-97.5 238,-138.5 438,-138.5 438,-97.5 238,-97.5"/>
<text text-anchor="start" x="246" y="-126.5" font-family="Helvetica,sans-Serif" font-size="10.00">workspaceState.UserDefined</text>
<text text-anchor="start" x="246" y="-115.5" font-family="Helvetica,sans-Serif" font-size="10.00">CommandCollection.storeUserDefined</text>
<text text-anchor="middle" x="338" y="-104.5" font-family="Helvetica,sans-Serif" font-size="10.00">Command</text>
</a>
</g>
</g>
<!-- Node1&#45;&gt;Node25 -->
<g id="edge27" class="edge"><title>Node1&#45;&gt;Node25</title>
<path fill="none" stroke="midnightblue" d="M100.133,-283.735C117.44,-252.797 161.038,-182.621 218,-147 221.402,-144.873 224.948,-142.902 228.6,-141.075"/>
<polygon fill="midnightblue" stroke="midnightblue" points="230.239,-144.174 237.871,-136.826 227.322,-137.811 230.239,-144.174"/>
</g>
<!-- Node26 -->
<g id="node26" class="node"><title>Node26</title>
<g id="a_node26"><a xlink:href="../../dd/d73/classworkspace_state_1_1_user_defined_variable_collection.html#a093eadfb9434e9c2ae29c48d5d9e7bd7" target="_top" xlink:title="workspaceState.UserDefined\lVariableCollection.storeVariable">
<polygon fill="white" stroke="black" points="254.5,-49 254.5,-79 421.5,-79 421.5,-49 254.5,-49"/>
<text text-anchor="start" x="262.5" y="-67" font-family="Helvetica,sans-Serif" font-size="10.00">workspaceState.UserDefined</text>
<text text-anchor="middle" x="338" y="-56" font-family="Helvetica,sans-Serif" font-size="10.00">VariableCollection.storeVariable</text>
</a>
</g>
</g>
<!-- Node1&#45;&gt;Node26 -->
<g id="edge28" class="edge"><title>Node1&#45;&gt;Node26</title>
<path fill="none" stroke="midnightblue" d="M96.3308,-283.807C108.385,-244.457 146.249,-138.764 218,-88 226.065,-82.2941 235.166,-77.8731 244.654,-74.4578"/>
<polygon fill="midnightblue" stroke="midnightblue" points="245.801,-77.7653 254.246,-71.3673 243.655,-71.1026 245.801,-77.7653"/>
</g>
<!-- Node28 -->
<g id="node28" class="node"><title>Node28</title>
<g id="a_node28"><a xlink:href="../../dd/d73/classworkspace_state_1_1_user_defined_variable_collection.html#ad59409573d56664cf5b12ca5ef64613c" target="_top" xlink:title="workspaceState.UserDefined\lVariableCollection.variableExists">
<polygon fill="white" stroke="black" points="253,-0 253,-30 423,-30 423,-0 253,-0"/>
<text text-anchor="start" x="261" y="-18" font-family="Helvetica,sans-Serif" font-size="10.00">workspaceState.UserDefined</text>
<text text-anchor="middle" x="338" y="-7" font-family="Helvetica,sans-Serif" font-size="10.00">VariableCollection.variableExists</text>
</a>
</g>
</g>
<!-- Node1&#45;&gt;Node28 -->
<g id="edge30" class="edge"><title>Node1&#45;&gt;Node28</title>
<path fill="none" stroke="midnightblue" d="M94.5562,-283.733C102.992,-238.419 134.342,-103.83 218,-39 225.542,-33.1553 234.138,-28.6273 243.18,-25.133"/>
<polygon fill="midnightblue" stroke="midnightblue" points="244.415,-28.4096 252.738,-21.8539 242.144,-21.7884 244.415,-28.4096"/>
</g>
<!-- Node4 -->
<g id="node4" class="node"><title>Node4</title>
<g id="a_node4"><a xlink:href="../../de/dcc/classcommand_parsing_1_1structural_command_parsing_1_1_structural_command.html#a3f1054710afe4826d31938f0a74af315" target="_top" xlink:title="commandParsing.structural\lCommandParsing.StructuralCommand.check\lForOpeningBrace">
<polygon fill="white" stroke="black" points="498.5,-725.5 498.5,-766.5 731.5,-766.5 731.5,-725.5 498.5,-725.5"/>
<text text-anchor="start" x="506.5" y="-754.5" font-family="Helvetica,sans-Serif" font-size="10.00">commandParsing.structural</text>
<text text-anchor="start" x="506.5" y="-743.5" font-family="Helvetica,sans-Serif" font-size="10.00">CommandParsing.StructuralCommand.check</text>
<text text-anchor="middle" x="615" y="-732.5" font-family="Helvetica,sans-Serif" font-size="10.00">ForOpeningBrace</text>
</a>
</g>
</g>
<!-- Node3&#45;&gt;Node4 -->
<g id="edge3" class="edge"><title>Node3&#45;&gt;Node4</title>
<path fill="none" stroke="midnightblue" d="M457.62,-730.646C467.76,-731.642 478.039,-732.651 488.231,-733.652"/>
<polygon fill="midnightblue" stroke="midnightblue" points="488.092,-737.155 498.386,-734.649 488.776,-730.188 488.092,-737.155"/>
</g>
<!-- Node5 -->
<g id="node5" class="node"><title>Node5</title>
<g id="a_node5"><a xlink:href="../../d3/de0/classtranslator_1_1_translator.html#a87328fef942490ca02d2ebabaec35c47" target="_top" xlink:title="translator.Translator.matches\lListStartPattern">
<polygon fill="white" stroke="black" points="778,-755 778,-785 934,-785 934,-755 778,-755"/>
<text text-anchor="start" x="786" y="-773" font-family="Helvetica,sans-Serif" font-size="10.00">translator.Translator.matches</text>
<text text-anchor="middle" x="856" y="-762" font-family="Helvetica,sans-Serif" font-size="10.00">ListStartPattern</text>
</a>
</g>
</g>
<!-- Node3&#45;&gt;Node5 -->
<g id="edge6" class="edge"><title>Node3&#45;&gt;Node5</title>
<path fill="none" stroke="midnightblue" d="M382.978,-739.527C413.409,-752.563 455.248,-768.214 494,-775 586.43,-791.185 694.213,-786.73 767.781,-780.241"/>
<polygon fill="midnightblue" stroke="midnightblue" points="768.29,-783.709 777.93,-779.313 767.653,-776.738 768.29,-783.709"/>
</g>
<!-- Node6 -->
<g id="node6" class="node"><title>Node6</title>
<g id="a_node6"><a xlink:href="../../d3/de0/classtranslator_1_1_translator.html#abd79378932d164889d2d90c7783f1493" target="_top" xlink:title="translator.Translator.matches\lListEndPattern">
<polygon fill="white" stroke="black" points="537,-677 537,-707 693,-707 693,-677 537,-677"/>
<text text-anchor="start" x="545" y="-695" font-family="Helvetica,sans-Serif" font-size="10.00">translator.Translator.matches</text>
<text text-anchor="middle" x="615" y="-684" font-family="Helvetica,sans-Serif" font-size="10.00">ListEndPattern</text>
</a>
</g>
</g>
<!-- Node3&#45;&gt;Node6 -->
<g id="edge5" class="edge"><title>Node3&#45;&gt;Node6</title>
<path fill="none" stroke="midnightblue" d="M457.62,-707.354C480.711,-705.087 504.526,-702.748 526.393,-700.601"/>
<polygon fill="midnightblue" stroke="midnightblue" points="527.015,-704.057 536.625,-699.597 526.331,-697.091 527.015,-704.057"/>
</g>
<!-- Node4&#45;&gt;Node5 -->
<g id="edge4" class="edge"><title>Node4&#45;&gt;Node5</title>
<path fill="none" stroke="midnightblue" d="M731.65,-757.613C743.722,-758.826 755.847,-760.043 767.531,-761.216"/>
<polygon fill="midnightblue" stroke="midnightblue" points="767.373,-764.718 777.672,-762.235 768.072,-757.753 767.373,-764.718"/>
</g>
<!-- Node10 -->
<g id="node10" class="node"><title>Node10</title>
<g id="a_node10"><a xlink:href="../../d1/d88/classworkspace_state_1_1_user_defined_command_collection_1_1_command.html#a85b0fd4ce0107f90dd7639011fe08905" target="_top" xlink:title="workspaceState.UserDefined\lCommandCollection.Command.getCommands">
<polygon fill="white" stroke="black" points="494.5,-481 494.5,-511 735.5,-511 735.5,-481 494.5,-481"/>
<text text-anchor="start" x="502.5" y="-499" font-family="Helvetica,sans-Serif" font-size="10.00">workspaceState.UserDefined</text>
<text text-anchor="middle" x="615" y="-488" font-family="Helvetica,sans-Serif" font-size="10.00">CommandCollection.Command.getCommands</text>
</a>
</g>
</g>
<!-- Node9&#45;&gt;Node10 -->
<g id="edge10" class="edge"><title>Node9&#45;&gt;Node10</title>
<path fill="none" stroke="midnightblue" d="M432.639,-555.899C441.352,-552.574 449.932,-548.939 458,-545 475.504,-536.453 476.075,-527.625 494,-520 499.071,-517.843 504.346,-515.877 509.732,-514.084"/>
<polygon fill="midnightblue" stroke="midnightblue" points="511.014,-517.351 519.527,-511.043 508.939,-510.666 511.014,-517.351"/>
</g>
<!-- Node11 -->
<g id="node11" class="node"><title>Node11</title>
<g id="a_node11"><a xlink:href="../../d1/d88/classworkspace_state_1_1_user_defined_command_collection_1_1_command.html#ac4894b06d31aba0cc62de99d9e71fc7e" target="_top" xlink:title="workspaceState.UserDefined\lCommandCollection.Command.getName">
<polygon fill="white" stroke="black" points="507.5,-628 507.5,-658 722.5,-658 722.5,-628 507.5,-628"/>
<text text-anchor="start" x="515.5" y="-646" font-family="Helvetica,sans-Serif" font-size="10.00">workspaceState.UserDefined</text>
<text text-anchor="middle" x="615" y="-635" font-family="Helvetica,sans-Serif" font-size="10.00">CommandCollection.Command.getName</text>
</a>
</g>
</g>
<!-- Node9&#45;&gt;Node11 -->
<g id="edge11" class="edge"><title>Node9&#45;&gt;Node11</title>
<path fill="none" stroke="midnightblue" d="M449.846,-608.068C464.679,-611.462 479.701,-614.85 494,-618 505.889,-620.619 518.457,-623.316 530.806,-625.925"/>
<polygon fill="midnightblue" stroke="midnightblue" points="530.14,-629.361 540.647,-627.995 531.582,-622.511 530.14,-629.361"/>
</g>
<!-- Node12 -->
<g id="node12" class="node"><title>Node12</title>
<g id="a_node12"><a xlink:href="../../d1/d88/classworkspace_state_1_1_user_defined_command_collection_1_1_command.html#aef5822fd036cde06800b67d8a7ada3ad" target="_top" xlink:title="workspaceState.UserDefined\lCommandCollection.Command.getParameters">
<polygon fill="white" stroke="black" points="494.5,-579 494.5,-609 735.5,-609 735.5,-579 494.5,-579"/>
<text text-anchor="start" x="502.5" y="-597" font-family="Helvetica,sans-Serif" font-size="10.00">workspaceState.UserDefined</text>
<text text-anchor="middle" x="615" y="-586" font-family="Helvetica,sans-Serif" font-size="10.00">CommandCollection.Command.getParameters</text>
</a>
</g>
</g>
<!-- Node9&#45;&gt;Node12 -->
<g id="edge12" class="edge"><title>Node9&#45;&gt;Node12</title>
<path fill="none" stroke="midnightblue" d="M456.024,-587.106C465.364,-587.514 474.832,-587.927 484.253,-588.338"/>
<polygon fill="midnightblue" stroke="midnightblue" points="484.304,-591.844 494.447,-588.783 484.609,-584.85 484.304,-591.844"/>
</g>
<!-- Node13 -->
<g id="node13" class="node"><title>Node13</title>
<g id="a_node13"><a xlink:href="../../d3/de0/classtranslator_1_1_translator.html#a0430b0b90dd30008f898f78e78e3a976" target="_top" xlink:title="translator.Translator.reverse\lTranslate">
<polygon fill="white" stroke="black" points="540,-530 540,-560 690,-560 690,-530 540,-530"/>
<text text-anchor="start" x="548" y="-548" font-family="Helvetica,sans-Serif" font-size="10.00">translator.Translator.reverse</text>
<text text-anchor="middle" x="615" y="-537" font-family="Helvetica,sans-Serif" font-size="10.00">Translate</text>
</a>
</g>
</g>
<!-- Node9&#45;&gt;Node13 -->
<g id="edge13" class="edge"><title>Node9&#45;&gt;Node13</title>
<path fill="none" stroke="midnightblue" d="M456.024,-566.255C480.728,-562.931 506.335,-559.486 529.557,-556.361"/>
<polygon fill="midnightblue" stroke="midnightblue" points="530.255,-559.799 539.699,-554.997 529.321,-552.862 530.255,-559.799"/>
</g>
<!-- Node15 -->
<g id="node15" class="node"><title>Node15</title>
<g id="a_node15"><a xlink:href="../../d9/da1/classgui_1_1variableslist_1_1_workspace_variable.html#ae407fad5ec45549a9e1ef6343a909fe7" target="_top" xlink:title="gui.variableslist.Workspace\lVariable.getMyName">
<polygon fill="white" stroke="black" points="543,-383 543,-413 687,-413 687,-383 543,-383"/>
<text text-anchor="start" x="551" y="-401" font-family="Helvetica,sans-Serif" font-size="10.00">gui.variableslist.Workspace</text>
<text text-anchor="middle" x="615" y="-390" font-family="Helvetica,sans-Serif" font-size="10.00">Variable.getMyName</text>
</a>
</g>
</g>
<!-- Node14&#45;&gt;Node15 -->
<g id="edge15" class="edge"><title>Node14&#45;&gt;Node15</title>
<path fill="none" stroke="midnightblue" d="M450.06,-393.231C477.696,-394.035 506.813,-394.882 532.714,-395.635"/>
<polygon fill="midnightblue" stroke="midnightblue" points="532.751,-399.138 542.848,-395.93 532.954,-392.141 532.751,-399.138"/>
</g>
<!-- Node16 -->
<g id="node16" class="node"><title>Node16</title>
<g id="a_node16"><a xlink:href="../../d9/da1/classgui_1_1variableslist_1_1_workspace_variable.html#a0fc16dab06a0aaedc76f6612f305cd6f" target="_top" xlink:title="gui.variableslist.Workspace\lVariable.getMyValue">
<polygon fill="white" stroke="black" points="543,-432 543,-462 687,-462 687,-432 543,-432"/>
<text text-anchor="start" x="551" y="-450" font-family="Helvetica,sans-Serif" font-size="10.00">gui.variableslist.Workspace</text>
<text text-anchor="middle" x="615" y="-439" font-family="Helvetica,sans-Serif" font-size="10.00">Variable.getMyValue</text>
</a>
</g>
</g>
<!-- Node14&#45;&gt;Node16 -->
<g id="edge16" class="edge"><title>Node14&#45;&gt;Node16</title>
<path fill="none" stroke="midnightblue" d="M450.06,-413.02C477.696,-418.748 506.813,-424.783 532.714,-430.152"/>
<polygon fill="midnightblue" stroke="midnightblue" points="532.346,-433.65 542.848,-432.252 533.767,-426.795 532.346,-433.65"/>
</g>
<!-- Node17&#45;&gt;Node2 -->
<g id="edge18" class="edge"><title>Node17&#45;&gt;Node2</title>
<path fill="none" stroke="midnightblue" d="M412.627,-303.406C427.71,-298.89 443.426,-293.967 458,-289 474.249,-283.462 477.521,-279.813 494,-275 502.224,-272.598 510.834,-270.358 519.505,-268.287"/>
<polygon fill="midnightblue" stroke="midnightblue" points="520.349,-271.684 529.304,-266.022 518.772,-264.864 520.349,-271.684"/>
</g>
<!-- Node18 -->
<g id="node18" class="node"><title>Node18</title>
<g id="a_node18"><a xlink:href="../../d8/df5/classcommand_parsing_1_1variable_command_parsing_1_1_variable.html#ace69a3f2eb01d0f9ad830fe133d2e10b" target="_top" xlink:title="commandParsing.variableCommand\lParsing.Variable.getVariableName">
<polygon fill="white" stroke="black" points="519.5,-334 519.5,-364 710.5,-364 710.5,-334 519.5,-334"/>
<text text-anchor="start" x="527.5" y="-352" font-family="Helvetica,sans-Serif" font-size="10.00">commandParsing.variableCommand</text>
<text text-anchor="middle" x="615" y="-341" font-family="Helvetica,sans-Serif" font-size="10.00">Parsing.Variable.getVariableName</text>
</a>
</g>
</g>
<!-- Node17&#45;&gt;Node18 -->
<g id="edge19" class="edge"><title>Node17&#45;&gt;Node18</title>
<path fill="none" stroke="midnightblue" d="M448.873,-333.988C468.747,-335.795 489.424,-337.675 509.15,-339.468"/>
<polygon fill="midnightblue" stroke="midnightblue" points="509.094,-342.977 519.37,-340.397 509.728,-336.006 509.094,-342.977"/>
</g>
<!-- Node19 -->
<g id="node19" class="node"><title>Node19</title>
<g id="a_node19"><a xlink:href="../../d8/df5/classcommand_parsing_1_1variable_command_parsing_1_1_variable.html#a27d54a36396edb245209c4da57476d2a" target="_top" xlink:title="commandParsing.variableCommand\lParsing.Variable.parse">
<polygon fill="white" stroke="black" points="519.5,-285 519.5,-315 710.5,-315 710.5,-285 519.5,-285"/>
<text text-anchor="start" x="527.5" y="-303" font-family="Helvetica,sans-Serif" font-size="10.00">commandParsing.variableCommand</text>
<text text-anchor="middle" x="615" y="-292" font-family="Helvetica,sans-Serif" font-size="10.00">Parsing.Variable.parse</text>
</a>
</g>
</g>
<!-- Node17&#45;&gt;Node19 -->
<g id="edge20" class="edge"><title>Node17&#45;&gt;Node19</title>
<path fill="none" stroke="midnightblue" d="M448.873,-314.411C468.747,-312.677 489.424,-310.872 509.15,-309.151"/>
<polygon fill="midnightblue" stroke="midnightblue" points="509.712,-312.615 519.37,-308.259 509.103,-305.641 509.712,-312.615"/>
</g>
<!-- Node20 -->
<g id="node20" class="node"><title>Node20</title>
<g id="a_node20"><a xlink:href="../../dd/d73/classworkspace_state_1_1_user_defined_variable_collection.html#a5def0190a604962200573bd46f2e262c" target="_top" xlink:title="workspaceState.UserDefined\lVariableCollection.fetchVariable">
<polygon fill="white" stroke="black" points="772.5,-285 772.5,-315 939.5,-315 939.5,-285 772.5,-285"/>
<text text-anchor="start" x="780.5" y="-303" font-family="Helvetica,sans-Serif" font-size="10.00">workspaceState.UserDefined</text>
<text text-anchor="middle" x="856" y="-292" font-family="Helvetica,sans-Serif" font-size="10.00">VariableCollection.fetchVariable</text>
</a>
</g>
</g>
<!-- Node19&#45;&gt;Node20 -->
<g id="edge21" class="edge"><title>Node19&#45;&gt;Node20</title>
<path fill="none" stroke="midnightblue" d="M710.802,-300C727.639,-300 745.16,-300 761.947,-300"/>
<polygon fill="midnightblue" stroke="midnightblue" points="762.292,-303.5 772.292,-300 762.292,-296.5 762.292,-303.5"/>
</g>
<!-- Node22 -->
<g id="node22" class="node"><title>Node22</title>
<g id="a_node22"><a xlink:href="../../d3/de0/classtranslator_1_1_translator.html#ad62364674b153e6fb5c67b328700d6e2" target="_top" xlink:title="translator.Translator.matches\lCommandPattern">
<polygon fill="white" stroke="black" points="537,-148 537,-178 693,-178 693,-148 537,-148"/>
<text text-anchor="start" x="545" y="-166" font-family="Helvetica,sans-Serif" font-size="10.00">translator.Translator.matches</text>
<text text-anchor="middle" x="615" y="-155" font-family="Helvetica,sans-Serif" font-size="10.00">CommandPattern</text>
</a>
</g>
</g>
<!-- Node21&#45;&gt;Node22 -->
<g id="edge23" class="edge"><title>Node21&#45;&gt;Node22</title>
<path fill="none" stroke="midnightblue" d="M434.796,-168.865C464.608,-167.889 497.309,-166.819 526.522,-165.863"/>
<polygon fill="midnightblue" stroke="midnightblue" points="526.819,-169.355 536.699,-165.53 526.59,-162.359 526.819,-169.355"/>
</g>
<!-- Node23&#45;&gt;Node2 -->
<g id="edge25" class="edge"><title>Node23&#45;&gt;Node2</title>
<path fill="none" stroke="midnightblue" d="M454.031,-236.457C468.125,-237.739 482.543,-239.049 496.67,-240.334"/>
<polygon fill="midnightblue" stroke="midnightblue" points="496.621,-243.844 506.897,-241.263 497.255,-236.872 496.621,-243.844"/>
</g>
<!-- Node24 -->
<g id="node24" class="node"><title>Node24</title>
<g id="a_node24"><a xlink:href="../../d7/d17/classcommand_parsing_1_1_command_parser.html#ae5a2f506ca01f7fa355a64e4831fbae3" target="_top" xlink:title="commandParsing.CommandParser.parse">
<polygon fill="white" stroke="black" points="509,-197.5 509,-216.5 721,-216.5 721,-197.5 509,-197.5"/>
<text text-anchor="middle" x="615" y="-204.5" font-family="Helvetica,sans-Serif" font-size="10.00">commandParsing.CommandParser.parse</text>
</a>
</g>
</g>
<!-- Node23&#45;&gt;Node24 -->
<g id="edge26" class="edge"><title>Node23&#45;&gt;Node24</title>
<path fill="none" stroke="midnightblue" d="M454.031,-218.052C468.74,-217.036 483.802,-215.996 498.518,-214.979"/>
<polygon fill="midnightblue" stroke="midnightblue" points="498.907,-218.46 508.642,-214.279 498.425,-211.477 498.907,-218.46"/>
</g>
<!-- Node27 -->
<g id="node27" class="node"><title>Node27</title>
<g id="a_node27"><a xlink:href="../../d9/da1/classgui_1_1variableslist_1_1_workspace_variable.html#adb4b0d1dfaf6d63d871b7499006a7a01" target="_top" xlink:title="gui.variableslist.Workspace\lVariable.addValue">
<polygon fill="white" stroke="black" points="543,-49 543,-79 687,-79 687,-49 543,-49"/>
<text text-anchor="start" x="551" y="-67" font-family="Helvetica,sans-Serif" font-size="10.00">gui.variableslist.Workspace</text>
<text text-anchor="middle" x="615" y="-56" font-family="Helvetica,sans-Serif" font-size="10.00">Variable.addValue</text>
</a>
</g>
</g>
<!-- Node26&#45;&gt;Node27 -->
<g id="edge29" class="edge"><title>Node26&#45;&gt;Node27</title>
<path fill="none" stroke="midnightblue" d="M421.509,-64C456.644,-64 497.514,-64 532.534,-64"/>
<polygon fill="midnightblue" stroke="midnightblue" points="532.722,-67.5001 542.722,-64 532.722,-60.5001 532.722,-67.5001"/>
</g>
</g>
</svg>
