<?xml version="1.0" encoding="UTF-8" standalone="no"?>
<!DOCTYPE svg PUBLIC "-//W3C//DTD SVG 1.1//EN"
 "http://www.w3.org/Graphics/SVG/1.1/DTD/svg11.dtd">
<!-- Generated by graphviz version 2.36.0 (20140111.2315)
 -->
<!-- Title: commandParsing.SetLanguage.parse Pages: 1 -->
<svg width="766pt" height="185pt"
 viewBox="0.00 0.00 766.00 185.00" xmlns="http://www.w3.org/2000/svg" xmlns:xlink="http://www.w3.org/1999/xlink">
<g id="graph0" class="graph" transform="scale(1 1) rotate(0) translate(4 181)">
<title>commandParsing.SetLanguage.parse</title>
<polygon fill="white" stroke="none" points="-4,4 -4,-181 762,-181 762,4 -4,4"/>
<!-- Node1 -->
<g id="node1" class="node"><title>Node1</title>
<polygon fill="#bfbfbf" stroke="black" points="0.5,-78.5 0.5,-97.5 197.5,-97.5 197.5,-78.5 0.5,-78.5"/>
<text text-anchor="middle" x="99" y="-85.5" font-family="Helvetica,sans-Serif" font-size="10.00">commandParsing.SetLanguage.parse</text>
</g>
<!-- Node2 -->
<g id="node2" class="node"><title>Node2</title>
<g id="a_node2"><a xlink:href="../../d3/de0/classtranslator_1_1_translator.html#a5bb5ff750024d44ef3ced7efc65cabfa" target="_top" xlink:title="translator.Translator.create\lMappingsGivenLanguage">
<polygon fill="white" stroke="black" points="234.5,-73 234.5,-103 379.5,-103 379.5,-73 234.5,-73"/>
<text text-anchor="start" x="242.5" y="-91" font-family="Helvetica,sans-Serif" font-size="10.00">translator.Translator.create</text>
<text text-anchor="middle" x="307" y="-80" font-family="Helvetica,sans-Serif" font-size="10.00">MappingsGivenLanguage</text>
</a>
</g>
</g>
<!-- Node1&#45;&gt;Node2 -->
<g id="edge1" class="edge"><title>Node1&#45;&gt;Node2</title>
<path fill="none" stroke="midnightblue" d="M197.571,-88C206.465,-88 215.414,-88 224.151,-88"/>
<polygon fill="midnightblue" stroke="midnightblue" points="224.293,-91.5001 234.293,-88 224.293,-84.5001 224.293,-91.5001"/>
</g>
<!-- Node3 -->
<g id="node3" class="node"><title>Node3</title>
<g id="a_node3"><a xlink:href="../../d3/de0/classtranslator_1_1_translator.html#aa3489cc3e82cdd3045a9ae5f324c1364" target="_top" xlink:title="translator.Translator.build\lDictionaryOfCommandsToEnglish">
<polygon fill="white" stroke="black" points="416,-147 416,-177 590,-177 590,-147 416,-147"/>
<text text-anchor="start" x="424" y="-165" font-family="Helvetica,sans-Serif" font-size="10.00">translator.Translator.build</text>
<text text-anchor="middle" x="503" y="-154" font-family="Helvetica,sans-Serif" font-size="10.00">DictionaryOfCommandsToEnglish</text>
</a>
</g>
</g>
<!-- Node2&#45;&gt;Node3 -->
<g id="edge2" class="edge"><title>Node2&#45;&gt;Node3</title>
<path fill="none" stroke="midnightblue" d="M338.237,-103.126C359.626,-113.475 389.159,-127.068 416,-137 422.368,-139.357 429.067,-141.637 435.797,-143.798"/>
<polygon fill="midnightblue" stroke="midnightblue" points="435.057,-147.233 445.646,-146.874 437.144,-140.552 435.057,-147.233"/>
</g>
<!-- Node4 -->
<g id="node4" class="node"><title>Node4</title>
<g id="a_node4"><a xlink:href="../../d3/de0/classtranslator_1_1_translator.html#a493ea832263fd904551261076f06658d" target="_top" xlink:title="translator.Translator.build\lMapOfCommandPaths">
<polygon fill="white" stroke="black" points="434.5,-98 434.5,-128 571.5,-128 571.5,-98 434.5,-98"/>
<text text-anchor="start" x="442.5" y="-116" font-family="Helvetica,sans-Serif" font-size="10.00">translator.Translator.build</text>
<text text-anchor="middle" x="503" y="-105" font-family="Helvetica,sans-Serif" font-size="10.00">MapOfCommandPaths</text>
</a>
</g>
</g>
<!-- Node2&#45;&gt;Node4 -->
<g id="edge3" class="edge"><title>Node2&#45;&gt;Node4</title>
<path fill="none" stroke="midnightblue" d="M379.687,-97.238C394.245,-99.1141 409.621,-101.095 424.373,-102.997"/>
<polygon fill="midnightblue" stroke="midnightblue" points="424.104,-106.491 434.469,-104.298 424.999,-99.5481 424.104,-106.491"/>
</g>
<!-- Node7 -->
<g id="node7" class="node"><title>Node7</title>
<g id="a_node7"><a xlink:href="../../d3/de0/classtranslator_1_1_translator.html#ad1d67540ff22bb2d33585767a78fcf60" target="_top" xlink:title="translator.Translator.map\lLanguageToClassPath">
<polygon fill="white" stroke="black" points="435,-49 435,-79 571,-79 571,-49 435,-49"/>
<text text-anchor="start" x="443" y="-67" font-family="Helvetica,sans-Serif" font-size="10.00">translator.Translator.map</text>
<text text-anchor="middle" x="503" y="-56" font-family="Helvetica,sans-Serif" font-size="10.00">LanguageToClassPath</text>
</a>
</g>
</g>
<!-- Node2&#45;&gt;Node7 -->
<g id="edge6" class="edge"><title>Node2&#45;&gt;Node7</title>
<path fill="none" stroke="midnightblue" d="M379.687,-79.1315C394.333,-77.3196 409.806,-75.4054 424.64,-73.5703"/>
<polygon fill="midnightblue" stroke="midnightblue" points="425.295,-77.0161 434.789,-72.3147 424.435,-70.069 425.295,-77.0161"/>
</g>
<!-- Node8 -->
<g id="node8" class="node"><title>Node8</title>
<g id="a_node8"><a xlink:href="../../d3/de0/classtranslator_1_1_translator.html#aaf98e6084c26cd5714d7e2a19eee8167" target="_top" xlink:title="translator.Translator.create\lReverseMapping">
<polygon fill="white" stroke="black" points="430.5,-0 430.5,-30 575.5,-30 575.5,-0 430.5,-0"/>
<text text-anchor="start" x="438.5" y="-18" font-family="Helvetica,sans-Serif" font-size="10.00">translator.Translator.create</text>
<text text-anchor="middle" x="503" y="-7" font-family="Helvetica,sans-Serif" font-size="10.00">ReverseMapping</text>
</a>
</g>
</g>
<!-- Node2&#45;&gt;Node8 -->
<g id="edge7" class="edge"><title>Node2&#45;&gt;Node8</title>
<path fill="none" stroke="midnightblue" d="M339.2,-72.7851C360.525,-62.7219 389.599,-49.6538 416,-40 422.475,-37.6321 429.288,-35.3345 436.127,-33.1537"/>
<polygon fill="midnightblue" stroke="midnightblue" points="437.616,-36.3561 446.128,-30.0478 435.54,-29.6711 437.616,-36.3561"/>
</g>
<!-- Node5 -->
<g id="node5" class="node"><title>Node5</title>
<g id="a_node5"><a xlink:href="../../d3/de0/classtranslator_1_1_translator.html#a1f98bdb6fe8a0b55cb19673a079dfdc7" target="_top" xlink:title="translator.Translator.find\lCommandName">
<polygon fill="white" stroke="black" points="626.5,-122 626.5,-152 757.5,-152 757.5,-122 626.5,-122"/>
<text text-anchor="start" x="634.5" y="-140" font-family="Helvetica,sans-Serif" font-size="10.00">translator.Translator.find</text>
<text text-anchor="middle" x="692" y="-129" font-family="Helvetica,sans-Serif" font-size="10.00">CommandName</text>
</a>
</g>
</g>
<!-- Node4&#45;&gt;Node5 -->
<g id="edge4" class="edge"><title>Node4&#45;&gt;Node5</title>
<path fill="none" stroke="midnightblue" d="M571.511,-121.665C586.047,-123.53 601.492,-125.512 616.283,-127.411"/>
<polygon fill="midnightblue" stroke="midnightblue" points="616.036,-130.908 626.4,-128.709 616.927,-123.964 616.036,-130.908"/>
</g>
<!-- Node6 -->
<g id="node6" class="node"><title>Node6</title>
<g id="a_node6"><a xlink:href="../../d3/de0/classtranslator_1_1_translator.html#a0271c7134aab7c2eb5a2a718ea765ad2" target="_top" xlink:title="translator.Translator.clip\lPathName">
<polygon fill="white" stroke="black" points="627,-73 627,-103 757,-103 757,-73 627,-73"/>
<text text-anchor="start" x="635" y="-91" font-family="Helvetica,sans-Serif" font-size="10.00">translator.Translator.clip</text>
<text text-anchor="middle" x="692" y="-80" font-family="Helvetica,sans-Serif" font-size="10.00">PathName</text>
</a>
</g>
</g>
<!-- Node4&#45;&gt;Node6 -->
<g id="edge5" class="edge"><title>Node4&#45;&gt;Node6</title>
<path fill="none" stroke="midnightblue" d="M571.511,-103.974C586.132,-102.02 601.673,-99.9422 616.543,-97.9542"/>
<polygon fill="midnightblue" stroke="midnightblue" points="617.263,-101.389 626.711,-96.5948 616.335,-94.4509 617.263,-101.389"/>
</g>
</g>
</svg>
