<?xml version="1.0" encoding="UTF-8" standalone="no"?>
<!DOCTYPE svg PUBLIC "-//W3C//DTD SVG 1.1//EN"
 "http://www.w3.org/Graphics/SVG/1.1/DTD/svg11.dtd">
<!-- Generated by graphviz version 2.36.0 (20140111.2315)
 -->
<!-- Title: translator.Translator Pages: 1 -->
<svg width="215pt" height="150pt"
 viewBox="0.00 0.00 215.00 150.00" xmlns="http://www.w3.org/2000/svg" xmlns:xlink="http://www.w3.org/1999/xlink">
<g id="graph0" class="graph" transform="scale(1 1) rotate(0) translate(4 146)">
<title>translator.Translator</title>
<polygon fill="white" stroke="none" points="-4,4 -4,-146 211,-146 211,4 -4,4"/>
<!-- Node1 -->
<g id="node1" class="node"><title>Node1</title>
<polygon fill="#bfbfbf" stroke="black" points="5,-0.5 5,-19.5 117,-19.5 117,-0.5 5,-0.5"/>
<text text-anchor="middle" x="61" y="-7.5" font-family="Helvetica,sans-Serif" font-size="10.00">translator.Translator</text>
</g>
<!-- Node2 -->
<g id="node2" class="node"><title>Node2</title>
<polygon fill="white" stroke="#bfbfbf" points="0,-122.5 0,-141.5 122,-141.5 122,-122.5 0,-122.5"/>
<text text-anchor="middle" x="61" y="-129.5" font-family="Helvetica,sans-Serif" font-size="10.00">Map&lt; String, String &gt;</text>
</g>
<!-- Node2&#45;&gt;Node1 -->
<g id="edge1" class="edge"><title>Node2&#45;&gt;Node1</title>
<path fill="none" stroke="#9a32cd" stroke-dasharray="5,2" d="M61,-112.145C61,-85.7231 61,-38.7637 61,-19.5519"/>
<polygon fill="#9a32cd" stroke="#9a32cd" points="57.5001,-112.37 61,-122.37 64.5001,-112.37 57.5001,-112.37"/>
<text text-anchor="middle" x="134" y="-96" font-family="Helvetica,sans-Serif" font-size="10.00"> dictionaryOfClassNameToPath</text>
<text text-anchor="middle" x="134" y="-85" font-family="Helvetica,sans-Serif" font-size="10.00">reverseMapping</text>
<text text-anchor="start" x="61" y="-74" font-family="Helvetica,sans-Serif" font-size="10.00">dictionaryOfLanguageToClass</text>
<text text-anchor="middle" x="134" y="-63" font-family="Helvetica,sans-Serif" font-size="10.00">Path</text>
<text text-anchor="middle" x="134" y="-52" font-family="Helvetica,sans-Serif" font-size="10.00">syntaxDictionary</text>
<text text-anchor="middle" x="134" y="-41" font-family="Helvetica,sans-Serif" font-size="10.00">dictionaryLanguageToEnglish</text>
</g>
</g>
</svg>
