<?xml version="1.0" encoding="UTF-8" standalone="no"?>
<!DOCTYPE svg PUBLIC "-//W3C//DTD SVG 1.1//EN"
 "http://www.w3.org/Graphics/SVG/1.1/DTD/svg11.dtd">
<!-- Generated by graphviz version 2.36.0 (20140111.2315)
 -->
<!-- Title: gui.nonbuttonfeatures.ColorPickerFeature Pages: 1 -->
<svg width="450pt" height="87pt"
 viewBox="0.00 0.00 450.00 87.00" xmlns="http://www.w3.org/2000/svg" xmlns:xlink="http://www.w3.org/1999/xlink">
<g id="graph0" class="graph" transform="scale(1 1) rotate(0) translate(4 83)">
<title>gui.nonbuttonfeatures.ColorPickerFeature</title>
<polygon fill="white" stroke="none" points="-4,4 -4,-83 446,-83 446,4 -4,4"/>
<!-- Node1 -->
<g id="node1" class="node"><title>Node1</title>
<polygon fill="#bfbfbf" stroke="black" points="106.5,-24 106.5,-54 257.5,-54 257.5,-24 106.5,-24"/>
<text text-anchor="start" x="114.5" y="-42" font-family="Helvetica,sans-Serif" font-size="10.00">gui.nonbuttonfeatures.Color</text>
<text text-anchor="middle" x="182" y="-31" font-family="Helvetica,sans-Serif" font-size="10.00">PickerFeature</text>
</g>
<!-- Node3 -->
<g id="node3" class="node"><title>Node3</title>
<g id="a_node3"><a xlink:href="../../d7/dcb/classgui_1_1nonbuttonfeatures_1_1pen_1_1_pen_color_picker_feature.html" target="_top" xlink:title="gui.nonbuttonfeatures.pen.\lPenColorPickerFeature">
<polygon fill="white" stroke="black" points="294.5,-49 294.5,-79 441.5,-79 441.5,-49 294.5,-49"/>
<text text-anchor="start" x="302.5" y="-67" font-family="Helvetica,sans-Serif" font-size="10.00">gui.nonbuttonfeatures.pen.</text>
<text text-anchor="middle" x="368" y="-56" font-family="Helvetica,sans-Serif" font-size="10.00">PenColorPickerFeature</text>
</a>
</g>
</g>
<!-- Node1&#45;&gt;Node3 -->
<g id="edge2" class="edge"><title>Node1&#45;&gt;Node3</title>
<path fill="none" stroke="midnightblue" d="M267.62,-50.4973C276.57,-51.7133 285.612,-52.9419 294.407,-54.1369"/>
<polygon fill="midnightblue" stroke="midnightblue" points="267.955,-47.0107 257.575,-49.1324 267.012,-53.947 267.955,-47.0107"/>
</g>
<!-- Node4 -->
<g id="node4" class="node"><title>Node4</title>
<g id="a_node4"><a xlink:href="../../d5/d17/classgui_1_1nonbuttonfeatures_1_1_set_turtle_screen_color_feature.html" target="_top" xlink:title="gui.nonbuttonfeatures.Set\lTurtleScreenColorFeature">
<polygon fill="white" stroke="black" points="296.5,-0 296.5,-30 439.5,-30 439.5,-0 296.5,-0"/>
<text text-anchor="start" x="304.5" y="-18" font-family="Helvetica,sans-Serif" font-size="10.00">gui.nonbuttonfeatures.Set</text>
<text text-anchor="middle" x="368" y="-7" font-family="Helvetica,sans-Serif" font-size="10.00">TurtleScreenColorFeature</text>
</a>
</g>
</g>
<!-- Node1&#45;&gt;Node4 -->
<g id="edge3" class="edge"><title>Node1&#45;&gt;Node4</title>
<path fill="none" stroke="midnightblue" d="M267.59,-27.9666C277.256,-26.7058 287.031,-25.4307 296.486,-24.1975"/>
<polygon fill="midnightblue" stroke="midnightblue" points="267.038,-24.5088 257.575,-29.2729 267.943,-31.45 267.038,-24.5088"/>
</g>
<!-- Node2 -->
<g id="node2" class="node"><title>Node2</title>
<polygon fill="white" stroke="#bfbfbf" points="0,-29.5 0,-48.5 70,-48.5 70,-29.5 0,-29.5"/>
<text text-anchor="middle" x="35" y="-36.5" font-family="Helvetica,sans-Serif" font-size="10.00">ColorPicker</text>
</g>
<!-- Node2&#45;&gt;Node1 -->
<g id="edge1" class="edge"><title>Node2&#45;&gt;Node1</title>
<path fill="none" stroke="midnightblue" d="M80.4437,-39C88.6744,-39 97.4755,-39 106.32,-39"/>
<polygon fill="midnightblue" stroke="midnightblue" points="80.363,-35.5001 70.363,-39 80.3629,-42.5001 80.363,-35.5001"/>
</g>
</g>
</svg>
