<?xml version="1.0" encoding="UTF-8" standalone="no"?>
<!DOCTYPE svg PUBLIC "-//W3C//DTD SVG 1.1//EN"
 "http://www.w3.org/Graphics/SVG/1.1/DTD/svg11.dtd">
<!-- Generated by graphviz version 2.36.0 (20140111.2315)
 -->
<!-- Title: commandParsing.turtleQueryParsing.YCoordinate.parse Pages: 1 -->
<svg width="588pt" height="87pt"
 viewBox="0.00 0.00 588.00 87.00" xmlns="http://www.w3.org/2000/svg" xmlns:xlink="http://www.w3.org/1999/xlink">
<g id="graph0" class="graph" transform="scale(1 1) rotate(0) translate(4 83)">
<title>commandParsing.turtleQueryParsing.YCoordinate.parse</title>
<polygon fill="white" stroke="none" points="-4,4 -4,-83 584,-83 584,4 -4,4"/>
<!-- Node1 -->
<g id="node1" class="node"><title>Node1</title>
<polygon fill="#bfbfbf" stroke="black" points="0.5,-24 0.5,-54 157.5,-54 157.5,-24 0.5,-24"/>
<text text-anchor="start" x="8.5" y="-42" font-family="Helvetica,sans-Serif" font-size="10.00">commandParsing.turtleQuery</text>
<text text-anchor="middle" x="79" y="-31" font-family="Helvetica,sans-Serif" font-size="10.00">Parsing.YCoordinate.parse</text>
</g>
<!-- Node2 -->
<g id="node2" class="node"><title>Node2</title>
<g id="a_node2"><a xlink:href="../../db/d1f/classworkspace_state_1_1_turtle_collection.html#adb957aceb9e490922ee0604c86f0bc79" target="_top" xlink:title="workspaceState.TurtleCollection.get\lLastActiveTurtle">
<polygon fill="white" stroke="black" points="194.5,-49 194.5,-79 381.5,-79 381.5,-49 194.5,-49"/>
<text text-anchor="start" x="202.5" y="-67" font-family="Helvetica,sans-Serif" font-size="10.00">workspaceState.TurtleCollection.get</text>
<text text-anchor="middle" x="288" y="-56" font-family="Helvetica,sans-Serif" font-size="10.00">LastActiveTurtle</text>
</a>
</g>
</g>
<!-- Node1&#45;&gt;Node2 -->
<g id="edge1" class="edge"><title>Node1&#45;&gt;Node2</title>
<path fill="none" stroke="midnightblue" d="M157.668,-48.3802C166.337,-49.4271 175.264,-50.5053 184.184,-51.5826"/>
<polygon fill="midnightblue" stroke="midnightblue" points="183.89,-55.0725 194.238,-52.7968 184.73,-48.123 183.89,-55.0725"/>
</g>
<!-- Node4 -->
<g id="node4" class="node"><title>Node4</title>
<g id="a_node4"><a xlink:href="../../d1/d01/classworkspace_state_1_1_turtle.html#ae1d625d5fe2e7bf5d03320e361e19f41" target="_top" xlink:title="workspaceState.Turtle.get\lTurtleYLocation">
<polygon fill="white" stroke="black" points="218,-0 218,-30 358,-30 358,-0 218,-0"/>
<text text-anchor="start" x="226" y="-18" font-family="Helvetica,sans-Serif" font-size="10.00">workspaceState.Turtle.get</text>
<text text-anchor="middle" x="288" y="-7" font-family="Helvetica,sans-Serif" font-size="10.00">TurtleYLocation</text>
</a>
</g>
</g>
<!-- Node1&#45;&gt;Node4 -->
<g id="edge3" class="edge"><title>Node1&#45;&gt;Node4</title>
<path fill="none" stroke="midnightblue" d="M157.668,-29.995C174.009,-28.1004 191.267,-26.0995 207.668,-24.198"/>
<polygon fill="midnightblue" stroke="midnightblue" points="208.222,-27.6572 217.753,-23.0287 207.416,-20.7038 208.222,-27.6572"/>
</g>
<!-- Node3 -->
<g id="node3" class="node"><title>Node3</title>
<g id="a_node3"><a xlink:href="../../d1/d01/classworkspace_state_1_1_turtle.html#a2b5e77b78036091a65abb5f4959b5ef7" target="_top" xlink:title="workspaceState.Turtle.getID">
<polygon fill="white" stroke="black" points="424,-54.5 424,-73.5 574,-73.5 574,-54.5 424,-54.5"/>
<text text-anchor="middle" x="499" y="-61.5" font-family="Helvetica,sans-Serif" font-size="10.00">workspaceState.Turtle.getID</text>
</a>
</g>
</g>
<!-- Node2&#45;&gt;Node3 -->
<g id="edge2" class="edge"><title>Node2&#45;&gt;Node3</title>
<path fill="none" stroke="midnightblue" d="M381.583,-64C392.34,-64 403.267,-64 413.901,-64"/>
<polygon fill="midnightblue" stroke="midnightblue" points="413.992,-67.5001 423.992,-64 413.992,-60.5001 413.992,-67.5001"/>
</g>
<!-- Node5 -->
<g id="node5" class="node"><title>Node5</title>
<g id="a_node5"><a xlink:href="../../d0/d77/classworkspace_state_1_1_location.html#a944e143017d77d851ea8265bba48917c" target="_top" xlink:title="workspaceState.Location.getY">
<polygon fill="white" stroke="black" points="418.5,-5.5 418.5,-24.5 579.5,-24.5 579.5,-5.5 418.5,-5.5"/>
<text text-anchor="middle" x="499" y="-12.5" font-family="Helvetica,sans-Serif" font-size="10.00">workspaceState.Location.getY</text>
</a>
</g>
</g>
<!-- Node4&#45;&gt;Node5 -->
<g id="edge4" class="edge"><title>Node4&#45;&gt;Node5</title>
<path fill="none" stroke="midnightblue" d="M358.014,-15C373.965,-15 391.168,-15 407.872,-15"/>
<polygon fill="midnightblue" stroke="midnightblue" points="408.192,-18.5001 418.192,-15 408.192,-11.5001 408.192,-18.5001"/>
</g>
</g>
</svg>
