<?xml version="1.0" encoding="UTF-8" standalone="no"?>
<!DOCTYPE svg PUBLIC "-//W3C//DTD SVG 1.1//EN"
 "http://www.w3.org/Graphics/SVG/1.1/DTD/svg11.dtd">
<!-- Generated by graphviz version 2.36.0 (20140111.2315)
 -->
<!-- Title: gui.factories.userdefinedcommands.UserDefinedCommandFactory.generateObject Pages: 1 -->
<svg width="492pt" height="38pt"
 viewBox="0.00 0.00 492.00 38.00" xmlns="http://www.w3.org/2000/svg" xmlns:xlink="http://www.w3.org/1999/xlink">
<g id="graph0" class="graph" transform="scale(1 1) rotate(0) translate(4 34)">
<title>gui.factories.userdefinedcommands.UserDefinedCommandFactory.generateObject</title>
<polygon fill="white" stroke="none" points="-4,4 -4,-34 488,-34 488,4 -4,4"/>
<!-- Node1 -->
<g id="node1" class="node"><title>Node1</title>
<polygon fill="#bfbfbf" stroke="black" points="0,-0 0,-30 236,-30 236,-0 0,-0"/>
<text text-anchor="start" x="8" y="-18" font-family="Helvetica,sans-Serif" font-size="10.00">gui.factories.userdefinedcommands.</text>
<text text-anchor="middle" x="118" y="-7" font-family="Helvetica,sans-Serif" font-size="10.00">UserDefinedCommandFactory.generateObject</text>
</g>
<!-- Node2 -->
<g id="node2" class="node"><title>Node2</title>
<g id="a_node2"><a xlink:href="../../da/d5b/classgui_1_1factories_1_1userdefinedcommands_1_1_user_defined_command_factory.html#a487c921b01b70c3e14f7a150541e21e6" target="_top" xlink:title="gui.factories.userdefinedcommands.\lUserDefinedCommandFactory.refreshList">
<polygon fill="white" stroke="black" points="272,-0 272,-30 484,-30 484,-0 272,-0"/>
<text text-anchor="start" x="280" y="-18" font-family="Helvetica,sans-Serif" font-size="10.00">gui.factories.userdefinedcommands.</text>
<text text-anchor="middle" x="378" y="-7" font-family="Helvetica,sans-Serif" font-size="10.00">UserDefinedCommandFactory.refreshList</text>
</a>
</g>
</g>
<!-- Node1&#45;&gt;Node2 -->
<g id="edge1" class="edge"><title>Node1&#45;&gt;Node2</title>
<path fill="none" stroke="midnightblue" d="M236.298,-15C244.721,-15 253.211,-15 261.622,-15"/>
<polygon fill="midnightblue" stroke="midnightblue" points="261.834,-18.5001 271.834,-15 261.834,-11.5001 261.834,-18.5001"/>
</g>
</g>
</svg>
