<?xml version="1.0" encoding="UTF-8" standalone="no"?>
<!DOCTYPE svg PUBLIC "-//W3C//DTD SVG 1.1//EN"
 "http://www.w3.org/Graphics/SVG/1.1/DTD/svg11.dtd">
<!-- Generated by graphviz version 2.36.0 (20140111.2315)
 -->
<!-- Title: gui.factories.userdefinedcommands.UserDefinedCommandFactory.refreshList Pages: 1 -->
<svg width="492pt" height="38pt"
 viewBox="0.00 0.00 492.00 38.00" xmlns="http://www.w3.org/2000/svg" xmlns:xlink="http://www.w3.org/1999/xlink">
<g id="graph0" class="graph" transform="scale(1 1) rotate(0) translate(4 34)">
<title>gui.factories.userdefinedcommands.UserDefinedCommandFactory.refreshList</title>
<polygon fill="white" stroke="none" points="-4,4 -4,-34 488,-34 488,4 -4,4"/>
<!-- Node1 -->
<g id="node1" class="node"><title>Node1</title>
<polygon fill="#bfbfbf" stroke="black" points="0,-0 0,-30 212,-30 212,-0 0,-0"/>
<text text-anchor="start" x="8" y="-18" font-family="Helvetica,sans-Serif" font-size="10.00">gui.factories.userdefinedcommands.</text>
<text text-anchor="middle" x="106" y="-7" font-family="Helvetica,sans-Serif" font-size="10.00">UserDefinedCommandFactory.refreshList</text>
</g>
<!-- Node2 -->
<g id="node2" class="node"><title>Node2</title>
<g id="a_node2"><a xlink:href="../../da/d5b/classgui_1_1factories_1_1userdefinedcommands_1_1_user_defined_command_factory.html#aed743fab143735beb7b0745cbe8d659a" target="_top" xlink:title="gui.factories.userdefinedcommands.\lUserDefinedCommandFactory.generateObject">
<polygon fill="white" stroke="black" points="248,-0 248,-30 484,-30 484,-0 248,-0"/>
<text text-anchor="start" x="256" y="-18" font-family="Helvetica,sans-Serif" font-size="10.00">gui.factories.userdefinedcommands.</text>
<text text-anchor="middle" x="366" y="-7" font-family="Helvetica,sans-Serif" font-size="10.00">UserDefinedCommandFactory.generateObject</text>
</a>
</g>
</g>
<!-- Node1&#45;&gt;Node2 -->
<g id="edge1" class="edge"><title>Node1&#45;&gt;Node2</title>
<path fill="none" stroke="midnightblue" d="M222.518,-15C230.926,-15 239.411,-15 247.828,-15"/>
<polygon fill="midnightblue" stroke="midnightblue" points="222.311,-11.5001 212.311,-15 222.311,-18.5001 222.311,-11.5001"/>
</g>
</g>
</svg>
