<?xml version="1.0" encoding="UTF-8" standalone="no"?>
<!DOCTYPE svg PUBLIC "-//W3C//DTD SVG 1.1//EN"
 "http://www.w3.org/Graphics/SVG/1.1/DTD/svg11.dtd">
<!-- Generated by graphviz version 2.36.0 (20140111.2315)
 -->
<!-- Title: gui.factories.WorkspaceVariableFactory Pages: 1 -->
<svg width="343pt" height="120pt"
 viewBox="0.00 0.00 343.00 120.00" xmlns="http://www.w3.org/2000/svg" xmlns:xlink="http://www.w3.org/1999/xlink">
<g id="graph0" class="graph" transform="scale(1 1) rotate(0) translate(4 116)">
<title>gui.factories.WorkspaceVariableFactory</title>
<polygon fill="white" stroke="none" points="-4,4 -4,-116 339,-116 339,4 -4,4"/>
<!-- Node1 -->
<g id="node1" class="node"><title>Node1</title>
<polygon fill="#bfbfbf" stroke="black" points="75.5,-1 75.5,-31 242.5,-31 242.5,-1 75.5,-1"/>
<text text-anchor="start" x="83.5" y="-19" font-family="Helvetica,sans-Serif" font-size="10.00">gui.factories.WorkspaceVariable</text>
<text text-anchor="middle" x="159" y="-8" font-family="Helvetica,sans-Serif" font-size="10.00">Factory</text>
</g>
<!-- Node2 -->
<g id="node2" class="node"><title>Node2</title>
<g id="a_node2"><a xlink:href="../../d1/d60/classgui_1_1factories_1_1_object_factory.html" target="_top" xlink:title="gui.factories.ObjectFactory">
<polygon fill="white" stroke="black" points="-0.5,-86.5 -0.5,-105.5 142.5,-105.5 142.5,-86.5 -0.5,-86.5"/>
<text text-anchor="middle" x="71" y="-93.5" font-family="Helvetica,sans-Serif" font-size="10.00">gui.factories.ObjectFactory</text>
</a>
</g>
</g>
<!-- Node2&#45;&gt;Node1 -->
<g id="edge1" class="edge"><title>Node2&#45;&gt;Node1</title>
<path fill="none" stroke="midnightblue" d="M88.2913,-79.6736C104.16,-65.6082 127.484,-44.9342 142.949,-31.227"/>
<polygon fill="midnightblue" stroke="midnightblue" points="85.9157,-77.1023 80.7538,-86.3546 90.5589,-82.3407 85.9157,-77.1023"/>
</g>
<!-- Node3 -->
<g id="node3" class="node"><title>Node3</title>
<polygon fill="white" stroke="#bfbfbf" points="160.5,-81 160.5,-111 335.5,-111 335.5,-81 160.5,-81"/>
<text text-anchor="start" x="168.5" y="-99" font-family="Helvetica,sans-Serif" font-size="10.00">ObservableList&lt; gui.variableslist.</text>
<text text-anchor="middle" x="248" y="-88" font-family="Helvetica,sans-Serif" font-size="10.00">WorkspaceVariable &gt;</text>
</g>
<!-- Node3&#45;&gt;Node1 -->
<g id="edge2" class="edge"><title>Node3&#45;&gt;Node1</title>
<path fill="none" stroke="#9a32cd" stroke-dasharray="5,2" d="M224.03,-73.9924C208.565,-60.4394 188.865,-43.1736 175.22,-31.2157"/>
<polygon fill="#9a32cd" stroke="#9a32cd" points="221.849,-76.7347 231.676,-80.6936 226.462,-71.4703 221.849,-76.7347"/>
<text text-anchor="middle" x="248.5" y="-53.5" font-family="Helvetica,sans-Serif" font-size="10.00"> myVariablesList</text>
</g>
</g>
</svg>
