<?xml version="1.0" encoding="UTF-8" standalone="no"?>
<!DOCTYPE svg PUBLIC "-//W3C//DTD SVG 1.1//EN"
 "http://www.w3.org/Graphics/SVG/1.1/DTD/svg11.dtd">
<!-- Generated by graphviz version 2.36.0 (20140111.2315)
 -->
<!-- Title: gui.mainclasses.TextGenerator Pages: 1 -->
<svg width="256pt" height="96pt"
 viewBox="0.00 0.00 256.00 96.00" xmlns="http://www.w3.org/2000/svg" xmlns:xlink="http://www.w3.org/1999/xlink">
<g id="graph0" class="graph" transform="scale(1 1) rotate(0) translate(4 92)">
<title>gui.mainclasses.TextGenerator</title>
<polygon fill="white" stroke="none" points="-4,4 -4,-92 252,-92 252,4 -4,4"/>
<!-- Node1 -->
<g id="node1" class="node"><title>Node1</title>
<polygon fill="#bfbfbf" stroke="black" points="27,-0.5 27,-19.5 191,-19.5 191,-0.5 27,-0.5"/>
<text text-anchor="middle" x="109" y="-7.5" font-family="Helvetica,sans-Serif" font-size="10.00">gui.mainclasses.TextGenerator</text>
</g>
<!-- Node2 -->
<g id="node2" class="node"><title>Node2</title>
<polygon fill="white" stroke="#bfbfbf" points="-0.5,-68.5 -0.5,-87.5 92.5,-87.5 92.5,-68.5 -0.5,-68.5"/>
<text text-anchor="middle" x="46" y="-75.5" font-family="Helvetica,sans-Serif" font-size="10.00">ResourceBundle</text>
</g>
<!-- Node2&#45;&gt;Node1 -->
<g id="edge1" class="edge"><title>Node2&#45;&gt;Node1</title>
<path fill="none" stroke="#9a32cd" stroke-dasharray="5,2" d="M42.4859,-58.4568C42.1442,-51.5188 43.0265,-43.8981 47,-38 52.7725,-29.4316 61.9026,-23.5636 71.3998,-19.5519"/>
<polygon fill="#9a32cd" stroke="#9a32cd" points="39.0237,-58.9756 43.762,-68.4518 45.9673,-58.089 39.0237,-58.9756"/>
<text text-anchor="middle" x="99" y="-41.5" font-family="Helvetica,sans-Serif" font-size="10.00"> myLanguagesBundle</text>
</g>
<!-- Node3 -->
<g id="node3" class="node"><title>Node3</title>
<polygon fill="white" stroke="#bfbfbf" points="110.5,-68.5 110.5,-87.5 235.5,-87.5 235.5,-68.5 110.5,-68.5"/>
<text text-anchor="middle" x="173" y="-75.5" font-family="Helvetica,sans-Serif" font-size="10.00">Map&lt; String, Locale &gt;</text>
</g>
<!-- Node3&#45;&gt;Node1 -->
<g id="edge2" class="edge"><title>Node3&#45;&gt;Node1</title>
<path fill="none" stroke="#9a32cd" stroke-dasharray="5,2" d="M165.171,-58.9903C161.534,-51.9276 156.736,-44.0773 151,-38 143.979,-30.5615 134.507,-24.2438 126.335,-19.5942"/>
<polygon fill="#9a32cd" stroke="#9a32cd" points="162.212,-60.9223 169.641,-68.4761 168.544,-57.9382 162.212,-60.9223"/>
<text text-anchor="middle" x="204" y="-41.5" font-family="Helvetica,sans-Serif" font-size="10.00"> supportedLocales</text>
</g>
</g>
</svg>
