<?xml version="1.0" encoding="UTF-8" standalone="no"?>
<!DOCTYPE svg PUBLIC "-//W3C//DTD SVG 1.1//EN"
 "http://www.w3.org/Graphics/SVG/1.1/DTD/svg11.dtd">
<!-- Generated by graphviz version 2.36.0 (20140111.2315)
 -->
<!-- Title: gui.componentdrawers.significantcommands.tabs.SavedCommandsTab.getCommands Pages: 1 -->
<svg width="484pt" height="38pt"
 viewBox="0.00 0.00 484.00 38.00" xmlns="http://www.w3.org/2000/svg" xmlns:xlink="http://www.w3.org/1999/xlink">
<g id="graph0" class="graph" transform="scale(1 1) rotate(0) translate(4 34)">
<title>gui.componentdrawers.significantcommands.tabs.SavedCommandsTab.getCommands</title>
<polygon fill="white" stroke="none" points="-4,4 -4,-34 480,-34 480,4 -4,4"/>
<!-- Node1 -->
<g id="node1" class="node"><title>Node1</title>
<polygon fill="#bfbfbf" stroke="black" points="0,-0 0,-30 258,-30 258,-0 0,-0"/>
<text text-anchor="start" x="8" y="-18" font-family="Helvetica,sans-Serif" font-size="10.00">gui.componentdrawers.significantcommands.tabs.</text>
<text text-anchor="middle" x="129" y="-7" font-family="Helvetica,sans-Serif" font-size="10.00">SavedCommandsTab.getCommands</text>
</g>
<!-- Node2 -->
<g id="node2" class="node"><title>Node2</title>
<g id="a_node2"><a xlink:href="../../d1/de9/classgui_1_1nonbuttonfeatures_1_1_saved_commands_feature.html#af4f654f8f5d586255d210506bf7730df" target="_top" xlink:title="gui.nonbuttonfeatures.Saved\lCommandsFeature.getCommands">
<polygon fill="white" stroke="black" points="294,-0 294,-30 476,-30 476,-0 294,-0"/>
<text text-anchor="start" x="302" y="-18" font-family="Helvetica,sans-Serif" font-size="10.00">gui.nonbuttonfeatures.Saved</text>
<text text-anchor="middle" x="385" y="-7" font-family="Helvetica,sans-Serif" font-size="10.00">CommandsFeature.getCommands</text>
</a>
</g>
</g>
<!-- Node1&#45;&gt;Node2 -->
<g id="edge1" class="edge"><title>Node1&#45;&gt;Node2</title>
<path fill="none" stroke="midnightblue" d="M258.116,-15C266.706,-15 275.289,-15 283.709,-15"/>
<polygon fill="midnightblue" stroke="midnightblue" points="283.886,-18.5001 293.886,-15 283.886,-11.5001 283.886,-18.5001"/>
</g>
</g>
</svg>
