<?xml version="1.0" encoding="UTF-8" standalone="no"?>
<!DOCTYPE svg PUBLIC "-//W3C//DTD SVG 1.1//EN"
 "http://www.w3.org/Graphics/SVG/1.1/DTD/svg11.dtd">
<!-- Generated by graphviz version 2.36.0 (20140111.2315)
 -->
<!-- Title: gui.nonbuttonfeatures.pen.PenColorPickerFeature Pages: 1 -->
<svg width="1590pt" height="406pt"
 viewBox="0.00 0.00 1590.00 406.00" xmlns="http://www.w3.org/2000/svg" xmlns:xlink="http://www.w3.org/1999/xlink">
<g id="graph0" class="graph" transform="scale(1 1) rotate(0) translate(4 402)">
<title>gui.nonbuttonfeatures.pen.PenColorPickerFeature</title>
<polygon fill="white" stroke="none" points="-4,4 -4,-402 1586,-402 1586,4 -4,4"/>
<!-- Node1 -->
<g id="node1" class="node"><title>Node1</title>
<polygon fill="#bfbfbf" stroke="black" points="1145.5,-235 1145.5,-265 1292.5,-265 1292.5,-235 1145.5,-235"/>
<text text-anchor="start" x="1153.5" y="-253" font-family="Helvetica,sans-Serif" font-size="10.00">gui.nonbuttonfeatures.pen.</text>
<text text-anchor="middle" x="1219" y="-242" font-family="Helvetica,sans-Serif" font-size="10.00">PenColorPickerFeature</text>
</g>
<!-- Node2 -->
<g id="node2" class="node"><title>Node2</title>
<g id="a_node2"><a xlink:href="../../df/de1/classgui_1_1nonbuttonfeatures_1_1_color_picker_feature.html" target="_top" xlink:title="gui.nonbuttonfeatures.Color\lPickerFeature">
<polygon fill="white" stroke="black" points="855.5,-241 855.5,-271 1006.5,-271 1006.5,-241 855.5,-241"/>
<text text-anchor="start" x="863.5" y="-259" font-family="Helvetica,sans-Serif" font-size="10.00">gui.nonbuttonfeatures.Color</text>
<text text-anchor="middle" x="931" y="-248" font-family="Helvetica,sans-Serif" font-size="10.00">PickerFeature</text>
</a>
</g>
</g>
<!-- Node2&#45;&gt;Node1 -->
<g id="edge1" class="edge"><title>Node2&#45;&gt;Node1</title>
<path fill="none" stroke="midnightblue" d="M1016.96,-254.218C1057.73,-253.362 1106.08,-252.348 1145.15,-251.528"/>
<polygon fill="midnightblue" stroke="midnightblue" points="1016.69,-250.722 1006.77,-254.431 1016.84,-257.721 1016.69,-250.722"/>
</g>
<!-- Node3 -->
<g id="node3" class="node"><title>Node3</title>
<polygon fill="white" stroke="#bfbfbf" points="565,-251.5 565,-270.5 635,-270.5 635,-251.5 565,-251.5"/>
<text text-anchor="middle" x="600" y="-258.5" font-family="Helvetica,sans-Serif" font-size="10.00">ColorPicker</text>
</g>
<!-- Node3&#45;&gt;Node2 -->
<g id="edge2" class="edge"><title>Node3&#45;&gt;Node2</title>
<path fill="none" stroke="midnightblue" d="M645.522,-260.323C699.341,-259.505 790.723,-258.117 855.377,-257.134"/>
<polygon fill="midnightblue" stroke="midnightblue" points="645.223,-256.827 635.278,-260.479 645.33,-263.827 645.223,-256.827"/>
</g>
<!-- Node4 -->
<g id="node4" class="node"><title>Node4</title>
<g id="a_node4"><a xlink:href="../../d8/df2/classgui_1_1mainclasses_1_1workspace_1_1_workspace.html" target="_top" xlink:title="gui.mainclasses.workspace.\lWorkspace">
<polygon fill="white" stroke="black" points="856.5,-126 856.5,-156 1005.5,-156 1005.5,-126 856.5,-126"/>
<text text-anchor="start" x="864.5" y="-144" font-family="Helvetica,sans-Serif" font-size="10.00">gui.mainclasses.workspace.</text>
<text text-anchor="middle" x="931" y="-133" font-family="Helvetica,sans-Serif" font-size="10.00">Workspace</text>
</a>
</g>
</g>
<!-- Node4&#45;&gt;Node1 -->
<g id="edge3" class="edge"><title>Node4&#45;&gt;Node1</title>
<path fill="none" stroke="#9a32cd" stroke-dasharray="5,2" d="M972.409,-160.521C1011.19,-178.769 1071.72,-205.982 1126,-225 1136.15,-228.557 1147.08,-231.92 1157.74,-234.957"/>
<polygon fill="#9a32cd" stroke="#9a32cd" points="973.571,-157.199 963.035,-156.086 970.577,-163.526 973.571,-157.199"/>
<text text-anchor="middle" x="1070" y="-221" font-family="Helvetica,sans-Serif" font-size="10.00"> myWorkspace</text>
</g>
<!-- Node17 -->
<g id="node17" class="node"><title>Node17</title>
<g id="a_node17"><a xlink:href="../../dd/d25/classgui_1_1factories_1_1turtlefactory_1_1_turtle_nodes.html" target="_top" xlink:title="gui.factories.turtlefactory.\lTurtleNodes">
<polygon fill="white" stroke="black" points="1150,-96 1150,-126 1288,-126 1288,-96 1150,-96"/>
<text text-anchor="start" x="1158" y="-114" font-family="Helvetica,sans-Serif" font-size="10.00">gui.factories.turtlefactory.</text>
<text text-anchor="middle" x="1219" y="-103" font-family="Helvetica,sans-Serif" font-size="10.00">TurtleNodes</text>
</a>
</g>
</g>
<!-- Node4&#45;&gt;Node17 -->
<g id="edge19" class="edge"><title>Node4&#45;&gt;Node17</title>
<path fill="none" stroke="#9a32cd" stroke-dasharray="5,2" d="M977.88,-122.459C994.622,-116.607 1013.89,-110.91 1032,-108 1070.58,-101.798 1114.25,-102.129 1149.57,-104.203"/>
<polygon fill="#9a32cd" stroke="#9a32cd" points="976.559,-119.215 968.342,-125.903 978.936,-125.799 976.559,-119.215"/>
<text text-anchor="middle" x="1070" y="-111" font-family="Helvetica,sans-Serif" font-size="10.00"> myWorkspace</text>
</g>
<!-- Node5 -->
<g id="node5" class="node"><title>Node5</title>
<polygon fill="white" stroke="#bfbfbf" points="584,-175.5 584,-194.5 616,-194.5 616,-175.5 584,-175.5"/>
<text text-anchor="middle" x="600" y="-182.5" font-family="Helvetica,sans-Serif" font-size="10.00">Tab</text>
</g>
<!-- Node5&#45;&gt;Node4 -->
<g id="edge4" class="edge"><title>Node5&#45;&gt;Node4</title>
<path fill="none" stroke="midnightblue" d="M626.204,-182C668.407,-176.933 756.026,-166.231 830,-156 838.521,-154.822 847.444,-153.545 856.302,-152.25"/>
<polygon fill="midnightblue" stroke="midnightblue" points="625.533,-178.555 616.02,-183.219 626.365,-185.505 625.533,-178.555"/>
</g>
<!-- Node6 -->
<g id="node6" class="node"><title>Node6</title>
<g id="a_node6"><a xlink:href="../../d0/d23/classgui_1_1mainclasses_1_1workspace_1_1_workspace_data_holder.html" target="_top" xlink:title="gui.mainclasses.workspace.\lWorkspaceDataHolder">
<polygon fill="white" stroke="black" points="525.5,-126 525.5,-156 674.5,-156 674.5,-126 525.5,-126"/>
<text text-anchor="start" x="533.5" y="-144" font-family="Helvetica,sans-Serif" font-size="10.00">gui.mainclasses.workspace.</text>
<text text-anchor="middle" x="600" y="-133" font-family="Helvetica,sans-Serif" font-size="10.00">WorkspaceDataHolder</text>
</a>
</g>
</g>
<!-- Node6&#45;&gt;Node4 -->
<g id="edge5" class="edge"><title>Node6&#45;&gt;Node4</title>
<path fill="none" stroke="#9a32cd" stroke-dasharray="5,2" d="M684.877,-141C737.82,-141 805.564,-141 856.412,-141"/>
<polygon fill="#9a32cd" stroke="#9a32cd" points="684.834,-137.5 674.834,-141 684.834,-144.5 684.834,-137.5"/>
<text text-anchor="middle" x="773" y="-144" font-family="Helvetica,sans-Serif" font-size="10.00"> myDataHolder</text>
</g>
<!-- Node7 -->
<g id="node7" class="node"><title>Node7</title>
<polygon fill="white" stroke="#bfbfbf" points="0.5,-223 0.5,-253 319.5,-253 319.5,-223 0.5,-223"/>
<text text-anchor="start" x="8.5" y="-241" font-family="Helvetica,sans-Serif" font-size="10.00">ObservableList&lt; gui.nonbuttonfeatures.tableviews.imageindex.</text>
<text text-anchor="middle" x="160" y="-230" font-family="Helvetica,sans-Serif" font-size="10.00">ImageIndex &gt;</text>
</g>
<!-- Node7&#45;&gt;Node6 -->
<g id="edge6" class="edge"><title>Node7&#45;&gt;Node6</title>
<path fill="none" stroke="#9a32cd" stroke-dasharray="5,2" d="M267.177,-221.325C284.82,-218.548 302.926,-215.696 320,-213 392.896,-201.491 419.581,-223.008 484,-187 494.73,-181.002 491.567,-172.501 502,-166 509.232,-161.494 517.25,-157.797 525.487,-154.764"/>
<polygon fill="#9a32cd" stroke="#9a32cd" points="266.188,-217.937 256.854,-222.949 267.276,-224.852 266.188,-217.937"/>
<text text-anchor="middle" x="411" y="-214" font-family="Helvetica,sans-Serif" font-size="10.00"> myImageIndexList</text>
</g>
<!-- Node8 -->
<g id="node8" class="node"><title>Node8</title>
<polygon fill="white" stroke="#bfbfbf" points="4,-174 4,-204 316,-204 316,-174 4,-174"/>
<text text-anchor="start" x="12" y="-192" font-family="Helvetica,sans-Serif" font-size="10.00">ObservableList&lt; gui.nonbuttonfeatures.tableviews.colorindex.</text>
<text text-anchor="middle" x="160" y="-181" font-family="Helvetica,sans-Serif" font-size="10.00">ColorIndex &gt;</text>
</g>
<!-- Node8&#45;&gt;Node6 -->
<g id="edge7" class="edge"><title>Node8&#45;&gt;Node6</title>
<path fill="none" stroke="#9a32cd" stroke-dasharray="5,2" d="M326.401,-172.997C377.01,-167.859 432.821,-161.951 484,-156 497.4,-154.442 511.663,-152.672 525.419,-150.908"/>
<polygon fill="#9a32cd" stroke="#9a32cd" points="325.948,-169.525 316.351,-174.014 326.653,-176.489 325.948,-169.525"/>
<text text-anchor="middle" x="411" y="-175" font-family="Helvetica,sans-Serif" font-size="10.00"> myColorIndexList</text>
</g>
<!-- Node9 -->
<g id="node9" class="node"><title>Node9</title>
<polygon fill="white" stroke="#bfbfbf" points="72.5,-125 72.5,-155 247.5,-155 247.5,-125 72.5,-125"/>
<text text-anchor="start" x="80.5" y="-143" font-family="Helvetica,sans-Serif" font-size="10.00">ObservableList&lt; gui.variableslist.</text>
<text text-anchor="middle" x="160" y="-132" font-family="Helvetica,sans-Serif" font-size="10.00">WorkspaceVariable &gt;</text>
</g>
<!-- Node9&#45;&gt;Node6 -->
<g id="edge8" class="edge"><title>Node9&#45;&gt;Node6</title>
<path fill="none" stroke="#9a32cd" stroke-dasharray="5,2" d="M257.71,-140.221C338.457,-140.405 451.85,-140.664 525.374,-140.832"/>
<polygon fill="#9a32cd" stroke="#9a32cd" points="257.543,-136.721 247.535,-140.198 257.527,-143.72 257.543,-136.721"/>
<text text-anchor="middle" x="411" y="-144" font-family="Helvetica,sans-Serif" font-size="10.00"> myVariablesList</text>
</g>
<!-- Node10 -->
<g id="node10" class="node"><title>Node10</title>
<polygon fill="white" stroke="#bfbfbf" points="91,-86.5 91,-105.5 229,-105.5 229,-86.5 91,-86.5"/>
<text text-anchor="middle" x="160" y="-93.5" font-family="Helvetica,sans-Serif" font-size="10.00">ObservableList&lt; String &gt;</text>
</g>
<!-- Node10&#45;&gt;Node6 -->
<g id="edge9" class="edge"><title>Node10&#45;&gt;Node6</title>
<path fill="none" stroke="#9a32cd" stroke-dasharray="5,2" d="M239.33,-97.0288C304.963,-98.7459 400.98,-103.254 484,-115 502.747,-117.652 522.961,-121.783 541.134,-125.976"/>
<polygon fill="#9a32cd" stroke="#9a32cd" points="239.147,-93.5233 229.064,-96.7765 238.975,-100.521 239.147,-93.5233"/>
<text text-anchor="middle" x="411" y="-129" font-family="Helvetica,sans-Serif" font-size="10.00"> myPreviousCommandsList</text>
<text text-anchor="middle" x="411" y="-118" font-family="Helvetica,sans-Serif" font-size="10.00">mySavedCommandsList</text>
</g>
<!-- Node11 -->
<g id="node11" class="node"><title>Node11</title>
<polygon fill="white" stroke="#bfbfbf" points="23.5,-37 23.5,-67 296.5,-67 296.5,-37 23.5,-37"/>
<text text-anchor="start" x="31.5" y="-55" font-family="Helvetica,sans-Serif" font-size="10.00">ObservableList&lt; gui.factories.userdefinedcommands.</text>
<text text-anchor="middle" x="160" y="-44" font-family="Helvetica,sans-Serif" font-size="10.00">DisplayedUserCommand &gt;</text>
</g>
<!-- Node11&#45;&gt;Node6 -->
<g id="edge10" class="edge"><title>Node11&#45;&gt;Node6</title>
<path fill="none" stroke="#9a32cd" stroke-dasharray="5,2" d="M306.806,-40.9829C365.746,-43.0633 431.988,-54.2736 484,-87 496.84,-95.0788 489.776,-107.017 502,-116 509.007,-121.149 516.977,-125.241 525.266,-128.491"/>
<polygon fill="#9a32cd" stroke="#9a32cd" points="306.745,-37.48 296.655,-40.7111 306.557,-44.4775 306.745,-37.48"/>
<text text-anchor="middle" x="411" y="-90" font-family="Helvetica,sans-Serif" font-size="10.00"> myUserDefinedCommandList</text>
</g>
<!-- Node12 -->
<g id="node12" class="node"><title>Node12</title>
<polygon fill="white" stroke="#bfbfbf" points="502.5,-77 502.5,-107 697.5,-107 697.5,-77 502.5,-77"/>
<text text-anchor="start" x="510.5" y="-95" font-family="Helvetica,sans-Serif" font-size="10.00">Map&lt; String, gui.componentdrawers.</text>
<text text-anchor="middle" x="600" y="-84" font-family="Helvetica,sans-Serif" font-size="10.00">ComponentDrawer &gt;</text>
</g>
<!-- Node12&#45;&gt;Node4 -->
<g id="edge11" class="edge"><title>Node12&#45;&gt;Node4</title>
<path fill="none" stroke="#9a32cd" stroke-dasharray="5,2" d="M707.854,-107.831C746.358,-113.544 790.133,-120.05 830,-126 838.508,-127.27 847.422,-128.603 856.276,-129.929"/>
<polygon fill="#9a32cd" stroke="#9a32cd" points="708.07,-104.325 697.665,-106.319 707.043,-111.249 708.07,-104.325"/>
<text text-anchor="middle" x="773" y="-129" font-family="Helvetica,sans-Serif" font-size="10.00"> myComponentDrawers</text>
</g>
<!-- Node13 -->
<g id="node13" class="node"><title>Node13</title>
<g id="a_node13"><a xlink:href="../../dd/d4c/classgui_1_1componentdrawers_1_1_turtle_screen_drawer.html" target="_top" xlink:title="gui.componentdrawers.Turtle\lScreenDrawer">
<polygon fill="white" stroke="black" points="1426.5,-223 1426.5,-253 1581.5,-253 1581.5,-223 1426.5,-223"/>
<text text-anchor="start" x="1434.5" y="-241" font-family="Helvetica,sans-Serif" font-size="10.00">gui.componentdrawers.Turtle</text>
<text text-anchor="middle" x="1504" y="-230" font-family="Helvetica,sans-Serif" font-size="10.00">ScreenDrawer</text>
</a>
</g>
</g>
<!-- Node13&#45;&gt;Node4 -->
<g id="edge12" class="edge"><title>Node13&#45;&gt;Node4</title>
<path fill="none" stroke="#9a32cd" stroke-dasharray="5,2" d="M1455.45,-219.297C1417.28,-205.086 1362,-186.284 1312,-176 1255.38,-164.354 1099.39,-152.323 1005.8,-145.842"/>
<polygon fill="#9a32cd" stroke="#9a32cd" points="1454.67,-222.741 1465.26,-222.988 1457.13,-216.19 1454.67,-222.741"/>
<text text-anchor="middle" x="1219" y="-179" font-family="Helvetica,sans-Serif" font-size="10.00"> myTurtleScreenDrawer</text>
</g>
<!-- Node14 -->
<g id="node14" class="node"><title>Node14</title>
<g id="a_node14"><a xlink:href="../../d0/dda/classgui_1_1componentdrawers_1_1_component_drawer.html" target="_top" xlink:title="gui.componentdrawers.Component\lDrawer">
<polygon fill="white" stroke="black" points="1126.5,-333 1126.5,-363 1311.5,-363 1311.5,-333 1126.5,-333"/>
<text text-anchor="start" x="1134.5" y="-351" font-family="Helvetica,sans-Serif" font-size="10.00">gui.componentdrawers.Component</text>
<text text-anchor="middle" x="1219" y="-340" font-family="Helvetica,sans-Serif" font-size="10.00">Drawer</text>
</a>
</g>
</g>
<!-- Node14&#45;&gt;Node13 -->
<g id="edge13" class="edge"><title>Node14&#45;&gt;Node13</title>
<path fill="none" stroke="midnightblue" d="M1287.97,-330.149C1296.09,-327.833 1304.25,-325.422 1312,-323 1355.2,-309.5 1366.61,-307.313 1408,-289 1432.14,-278.321 1458.51,-263.934 1477.32,-253.164"/>
<polygon fill="midnightblue" stroke="midnightblue" points="1286.78,-326.847 1278.1,-332.922 1288.68,-333.586 1286.78,-326.847"/>
</g>
<!-- Node15 -->
<g id="node15" class="node"><title>Node15</title>
<polygon fill="white" stroke="#bfbfbf" points="911,-338.5 911,-357.5 951,-357.5 951,-338.5 911,-338.5"/>
<text text-anchor="middle" x="931" y="-345.5" font-family="Helvetica,sans-Serif" font-size="10.00">Pane</text>
</g>
<!-- Node15&#45;&gt;Node13 -->
<g id="edge17" class="edge"><title>Node15&#45;&gt;Node13</title>
<path fill="none" stroke="#9a32cd" stroke-dasharray="5,2" d="M961.274,-356.016C1025.83,-372.366 1184.79,-405.322 1312,-372 1388.8,-351.882 1459.96,-284.021 1489.1,-253.317"/>
<polygon fill="#9a32cd" stroke="#9a32cd" points="961.95,-352.575 951.391,-353.454 960.193,-359.351 961.95,-352.575"/>
<text text-anchor="middle" x="1219" y="-390" font-family="Helvetica,sans-Serif" font-size="10.00"> myGrid</text>
</g>
<!-- Node15&#45;&gt;Node14 -->
<g id="edge14" class="edge"><title>Node15&#45;&gt;Node14</title>
<path fill="none" stroke="midnightblue" d="M961.21,-348C999.711,-348 1069.23,-348 1126.24,-348"/>
<polygon fill="midnightblue" stroke="midnightblue" points="961.209,-344.5 951.209,-348 961.209,-351.5 961.209,-344.5"/>
</g>
<!-- Node16 -->
<g id="node16" class="node"><title>Node16</title>
<g id="a_node16"><a xlink:href="../../dd/d6a/classgui_1_1nonbuttonfeatures_1_1_turtle_screen_feature.html" target="_top" xlink:title="gui.nonbuttonfeatures.Turtle\lScreenFeature">
<polygon fill="white" stroke="black" points="1143,-284 1143,-314 1295,-314 1295,-284 1143,-284"/>
<text text-anchor="start" x="1151" y="-302" font-family="Helvetica,sans-Serif" font-size="10.00">gui.nonbuttonfeatures.Turtle</text>
<text text-anchor="middle" x="1219" y="-291" font-family="Helvetica,sans-Serif" font-size="10.00">ScreenFeature</text>
</a>
</g>
</g>
<!-- Node15&#45;&gt;Node16 -->
<g id="edge16" class="edge"><title>Node15&#45;&gt;Node16</title>
<path fill="none" stroke="midnightblue" d="M961.115,-343.012C1003.4,-335.767 1083.25,-322.087 1142.75,-311.893"/>
<polygon fill="midnightblue" stroke="midnightblue" points="960.475,-339.57 951.209,-344.709 961.657,-346.47 960.475,-339.57"/>
</g>
<!-- Node16&#45;&gt;Node13 -->
<g id="edge15" class="edge"><title>Node16&#45;&gt;Node13</title>
<path fill="none" stroke="#9a32cd" stroke-dasharray="5,2" d="M1299.52,-281.86C1341.56,-272.799 1392.69,-261.776 1433.19,-253.048"/>
<polygon fill="#9a32cd" stroke="#9a32cd" points="1298.63,-278.471 1289.59,-284 1300.11,-285.314 1298.63,-278.471"/>
<text text-anchor="middle" x="1369" y="-277" font-family="Helvetica,sans-Serif" font-size="10.00"> myTurtleScreen</text>
</g>
<!-- Node17&#45;&gt;Node4 -->
<g id="edge23" class="edge"><title>Node17&#45;&gt;Node4</title>
<path fill="none" stroke="#9a32cd" stroke-dasharray="5,2" d="M1139.85,-119.198C1098.01,-123.586 1046.78,-128.96 1005.65,-133.274"/>
<polygon fill="#9a32cd" stroke="#9a32cd" points="1140.41,-122.658 1149.99,-118.134 1139.68,-115.696 1140.41,-122.658"/>
<text text-anchor="middle" x="1070" y="-134" font-family="Helvetica,sans-Serif" font-size="10.00"> myTurtleNodes</text>
</g>
<!-- Node17&#45;&gt;Node13 -->
<g id="edge18" class="edge"><title>Node17&#45;&gt;Node13</title>
<path fill="none" stroke="#9a32cd" stroke-dasharray="5,2" d="M1298.23,-113.03C1333.39,-116.613 1374.43,-124.651 1408,-142 1445.49,-161.379 1477.23,-200.967 1492.77,-222.765"/>
<polygon fill="#9a32cd" stroke="#9a32cd" points="1298.28,-109.52 1288,-112.094 1297.64,-116.491 1298.28,-109.52"/>
<text text-anchor="middle" x="1369" y="-145" font-family="Helvetica,sans-Serif" font-size="10.00"> myTurtleNodes</text>
</g>
<!-- Node18 -->
<g id="node18" class="node"><title>Node18</title>
<polygon fill="white" stroke="#bfbfbf" points="848,-58 848,-88 1014,-88 1014,-58 848,-58"/>
<text text-anchor="start" x="856" y="-76" font-family="Helvetica,sans-Serif" font-size="10.00">List&lt; gui.factories.turtlefactory.</text>
<text text-anchor="middle" x="931" y="-65" font-family="Helvetica,sans-Serif" font-size="10.00">TurtleNode &gt;</text>
</g>
<!-- Node18&#45;&gt;Node17 -->
<g id="edge20" class="edge"><title>Node18&#45;&gt;Node17</title>
<path fill="none" stroke="#9a32cd" stroke-dasharray="5,2" d="M1024.39,-78.7585C1051.42,-81.0139 1080.96,-84.0358 1108,-88 1122.48,-90.1226 1137.91,-92.9756 1152.5,-95.9488"/>
<polygon fill="#9a32cd" stroke="#9a32cd" points="1024.42,-75.2493 1014.17,-77.9313 1023.86,-82.2265 1024.42,-75.2493"/>
<text text-anchor="middle" x="1070" y="-91" font-family="Helvetica,sans-Serif" font-size="10.00"> myTurtleNodes</text>
</g>
<!-- Node19 -->
<g id="node19" class="node"><title>Node19</title>
<polygon fill="white" stroke="#bfbfbf" points="1198.5,-196.5 1198.5,-215.5 1239.5,-215.5 1239.5,-196.5 1198.5,-196.5"/>
<text text-anchor="middle" x="1219" y="-203.5" font-family="Helvetica,sans-Serif" font-size="10.00">Color</text>
</g>
<!-- Node19&#45;&gt;Node13 -->
<g id="edge21" class="edge"><title>Node19&#45;&gt;Node13</title>
<path fill="none" stroke="#9a32cd" stroke-dasharray="5,2" d="M1249.93,-209.384C1291.52,-214.087 1368.22,-222.76 1426.33,-229.33"/>
<polygon fill="#9a32cd" stroke="#9a32cd" points="1250.23,-205.896 1239.9,-208.25 1249.44,-212.852 1250.23,-205.896"/>
<text text-anchor="middle" x="1369" y="-230" font-family="Helvetica,sans-Serif" font-size="10.00"> myScreenColor</text>
</g>
<!-- Node20 -->
<g id="node20" class="node"><title>Node20</title>
<g id="a_node20"><a xlink:href="../../d1/d60/classgui_1_1factories_1_1_object_factory.html" target="_top" xlink:title="gui.factories.ObjectFactory">
<polygon fill="white" stroke="black" points="528.5,-38.5 528.5,-57.5 671.5,-57.5 671.5,-38.5 528.5,-38.5"/>
<text text-anchor="middle" x="600" y="-45.5" font-family="Helvetica,sans-Serif" font-size="10.00">gui.factories.ObjectFactory</text>
</a>
</g>
</g>
<!-- Node20&#45;&gt;Node4 -->
<g id="edge22" class="edge"><title>Node20&#45;&gt;Node4</title>
<path fill="none" stroke="#9a32cd" stroke-dasharray="5,2" d="M678.204,-59.1875C723.173,-66.8499 780.575,-78.6165 830,-95 855.032,-103.298 882.135,-116.016 901.803,-125.979"/>
<polygon fill="#9a32cd" stroke="#9a32cd" points="678.664,-55.7158 668.223,-57.5192 677.51,-62.6201 678.664,-55.7158"/>
<text text-anchor="middle" x="773" y="-98" font-family="Helvetica,sans-Serif" font-size="10.00"> myObjectFactories</text>
</g>
<!-- Node21 -->
<g id="node21" class="node"><title>Node21</title>
<g id="a_node21"><a xlink:href="../../da/d55/interface_control_1_1_slogo_graphics.html" target="_top" xlink:title="Control.SlogoGraphics">
<polygon fill="white" stroke="black" points="538.5,-0.5 538.5,-19.5 661.5,-19.5 661.5,-0.5 538.5,-0.5"/>
<text text-anchor="middle" x="600" y="-7.5" font-family="Helvetica,sans-Serif" font-size="10.00">Control.SlogoGraphics</text>
</a>
</g>
</g>
<!-- Node21&#45;&gt;Node4 -->
<g id="edge24" class="edge"><title>Node21&#45;&gt;Node4</title>
<path fill="none" stroke="#9a32cd" stroke-dasharray="5,2" d="M671.936,-5.96985C721.36,-6.89411 786.049,-16.0319 830,-52 846.67,-65.6422 833.645,-80.94 848,-97 859.09,-109.407 874.53,-118.953 889.025,-125.932"/>
<polygon fill="#9a32cd" stroke="#9a32cd" points="671.661,-2.46773 661.635,-5.89059 671.607,-9.46752 671.661,-2.46773"/>
<text text-anchor="middle" x="773" y="-55" font-family="Helvetica,sans-Serif" font-size="10.00"> myControl</text>
</g>
<!-- Node22 -->
<g id="node22" class="node"><title>Node22</title>
<polygon fill="white" stroke="#bfbfbf" points="564,-213.5 564,-232.5 636,-232.5 636,-213.5 564,-213.5"/>
<text text-anchor="middle" x="600" y="-220.5" font-family="Helvetica,sans-Serif" font-size="10.00">BorderPane</text>
</g>
<!-- Node22&#45;&gt;Node4 -->
<g id="edge25" class="edge"><title>Node22&#45;&gt;Node4</title>
<path fill="none" stroke="#9a32cd" stroke-dasharray="5,2" d="M645.899,-214.216C662.296,-211.005 680.988,-207.342 698,-204 756.673,-192.475 772.444,-194.204 830,-178 851.382,-171.98 874.691,-163.474 893.423,-156.135"/>
<polygon fill="#9a32cd" stroke="#9a32cd" points="645.163,-210.793 636.022,-216.149 646.508,-217.663 645.163,-210.793"/>
<text text-anchor="middle" x="773" y="-204" font-family="Helvetica,sans-Serif" font-size="10.00"> myPane</text>
</g>
</g>
</svg>
