<?xml version="1.0" encoding="UTF-8" standalone="no"?>
<!DOCTYPE svg PUBLIC "-//W3C//DTD SVG 1.1//EN"
 "http://www.w3.org/Graphics/SVG/1.1/DTD/svg11.dtd">
<!-- Generated by graphviz version 2.36.0 (20140111.2315)
 -->
<!-- Title: workspaceState.TurtleCollection Pages: 1 -->
<svg width="174pt" height="130pt"
 viewBox="0.00 0.00 174.00 130.00" xmlns="http://www.w3.org/2000/svg" xmlns:xlink="http://www.w3.org/1999/xlink">
<g id="graph0" class="graph" transform="scale(1 1) rotate(0) translate(4 126)">
<title>workspaceState.TurtleCollection</title>
<polygon fill="white" stroke="none" points="-4,4 -4,-126 170,-126 170,4 -4,4"/>
<!-- Node1 -->
<g id="node1" class="node"><title>Node1</title>
<polygon fill="#bfbfbf" stroke="black" points="-1,-0.5 -1,-19.5 167,-19.5 167,-0.5 -1,-0.5"/>
<text text-anchor="middle" x="83" y="-7.5" font-family="Helvetica,sans-Serif" font-size="10.00">workspaceState.TurtleCollection</text>
</g>
<!-- Node2 -->
<g id="node2" class="node"><title>Node2</title>
<polygon fill="white" stroke="#bfbfbf" points="-0.5,-91 -0.5,-121 166.5,-121 166.5,-91 -0.5,-91"/>
<text text-anchor="start" x="7.5" y="-109" font-family="Helvetica,sans-Serif" font-size="10.00">Map&lt; Integer, workspaceState.</text>
<text text-anchor="middle" x="83" y="-98" font-family="Helvetica,sans-Serif" font-size="10.00">Turtle &gt;</text>
</g>
<!-- Node2&#45;&gt;Node1 -->
<g id="edge1" class="edge"><title>Node2&#45;&gt;Node1</title>
<path fill="none" stroke="#9a32cd" stroke-dasharray="5,2" d="M83,-80.4905C83,-60.5261 83,-33.4774 83,-19.7589"/>
<polygon fill="#9a32cd" stroke="#9a32cd" points="79.5001,-80.7234 83,-90.7234 86.5001,-80.7235 79.5001,-80.7234"/>
<text text-anchor="middle" x="115" y="-63.5" font-family="Helvetica,sans-Serif" font-size="10.00"> turtles</text>
<text text-anchor="middle" x="115" y="-52.5" font-family="Helvetica,sans-Serif" font-size="10.00">activeTurtles</text>
<text text-anchor="middle" x="115" y="-41.5" font-family="Helvetica,sans-Serif" font-size="10.00">turtleStamps</text>
</g>
</g>
</svg>
