<?xml version="1.0" encoding="UTF-8" standalone="no"?>
<!DOCTYPE svg PUBLIC "-//W3C//DTD SVG 1.1//EN"
 "http://www.w3.org/Graphics/SVG/1.1/DTD/svg11.dtd">
<!-- Generated by graphviz version 2.36.0 (20140111.2315)
 -->
<!-- Title: gui.menus.FileMenu.FileMenu Pages: 1 -->
<svg width="876pt" height="690pt"
 viewBox="0.00 0.00 876.00 689.51" xmlns="http://www.w3.org/2000/svg" xmlns:xlink="http://www.w3.org/1999/xlink">
<g id="graph0" class="graph" transform="scale(1 1) rotate(0) translate(4 685.506)">
<title>gui.menus.FileMenu.FileMenu</title>
<polygon fill="white" stroke="none" points="-4,4 -4,-685.506 872,-685.506 872,4 -4,4"/>
<!-- Node1 -->
<g id="node1" class="node"><title>Node1</title>
<polygon fill="#bfbfbf" stroke="black" points="0.5,-328.5 0.5,-347.5 155.5,-347.5 155.5,-328.5 0.5,-328.5"/>
<text text-anchor="middle" x="78" y="-335.5" font-family="Helvetica,sans-Serif" font-size="10.00">gui.menus.FileMenu.FileMenu</text>
</g>
<!-- Node2 -->
<g id="node2" class="node"><title>Node2</title>
<g id="a_node2"><a xlink:href="../../d1/dea/classgui_1_1menus_1_1_file_menu.html#a74457f2750f6a40c52c28de3c6842fd1" target="_top" xlink:title="gui.menus.FileMenu.addTurtle\lToWorkspace">
<polygon fill="white" stroke="black" points="210,-597 210,-627 368,-627 368,-597 210,-597"/>
<text text-anchor="start" x="218" y="-615" font-family="Helvetica,sans-Serif" font-size="10.00">gui.menus.FileMenu.addTurtle</text>
<text text-anchor="middle" x="289" y="-604" font-family="Helvetica,sans-Serif" font-size="10.00">ToWorkspace</text>
</a>
</g>
</g>
<!-- Node1&#45;&gt;Node2 -->
<g id="edge1" class="edge"><title>Node1&#45;&gt;Node2</title>
<path fill="none" stroke="midnightblue" d="M80.5823,-347.593C87.0854,-383.948 115.137,-514.588 192,-582 196.457,-585.909 201.421,-589.309 206.678,-592.266"/>
<polygon fill="midnightblue" stroke="midnightblue" points="205.259,-595.47 215.766,-596.836 208.404,-589.217 205.259,-595.47"/>
</g>
<!-- Node3 -->
<g id="node3" class="node"><title>Node3</title>
<g id="a_node3"><a xlink:href="../../d3/db0/classgui_1_1mainclasses_1_1workspace_1_1_workspace_manager.html#a4863a19ac83bbd4dea5582dcecf3553d" target="_top" xlink:title="gui.mainclasses.workspace.\lWorkspaceManager.getActiveWorkspace">
<polygon fill="white" stroke="black" points="422,-641 422,-671 630,-671 630,-641 422,-641"/>
<text text-anchor="start" x="430" y="-659" font-family="Helvetica,sans-Serif" font-size="10.00">gui.mainclasses.workspace.</text>
<text text-anchor="middle" x="526" y="-648" font-family="Helvetica,sans-Serif" font-size="10.00">WorkspaceManager.getActiveWorkspace</text>
</a>
</g>
</g>
<!-- Node1&#45;&gt;Node3 -->
<g id="edge12" class="edge"><title>Node1&#45;&gt;Node3</title>
<path fill="none" stroke="midnightblue" d="M79.1845,-347.646C80.5762,-390.257 92.3806,-562.728 192,-636 266.749,-690.979 378.363,-684.976 451.423,-672.786"/>
<polygon fill="midnightblue" stroke="midnightblue" points="452.22,-676.2 461.468,-671.031 451.015,-669.305 452.22,-676.2"/>
</g>
<!-- Node4 -->
<g id="node4" class="node"><title>Node4</title>
<g id="a_node4"><a xlink:href="../../d8/df2/classgui_1_1mainclasses_1_1workspace_1_1_workspace.html#a1c6c6c0599097fbf5e9a660ec0ac3702" target="_top" xlink:title="gui.mainclasses.workspace.\lWorkspace.parseCommandString">
<polygon fill="white" stroke="black" points="438,-592 438,-622 614,-622 614,-592 438,-592"/>
<text text-anchor="start" x="446" y="-610" font-family="Helvetica,sans-Serif" font-size="10.00">gui.mainclasses.workspace.</text>
<text text-anchor="middle" x="526" y="-599" font-family="Helvetica,sans-Serif" font-size="10.00">Workspace.parseCommandString</text>
</a>
</g>
</g>
<!-- Node1&#45;&gt;Node4 -->
<g id="edge28" class="edge"><title>Node1&#45;&gt;Node4</title>
<path fill="none" stroke="midnightblue" d="M81.1074,-347.94C88.911,-382.119 119.543,-495.586 192,-548 201.663,-554.99 333.232,-576.878 428.051,-591.935"/>
<polygon fill="midnightblue" stroke="midnightblue" points="427.548,-595.399 437.973,-593.507 428.644,-588.485 427.548,-595.399"/>
</g>
<!-- Node6 -->
<g id="node6" class="node"><title>Node6</title>
<g id="a_node6"><a xlink:href="../../d3/db0/classgui_1_1mainclasses_1_1workspace_1_1_workspace_manager.html#a5886a46ecdbed6403279af669228d661" target="_top" xlink:title="gui.mainclasses.workspace.\lWorkspaceManager.addWorkspace">
<polygon fill="white" stroke="black" points="198.5,-509 198.5,-539 379.5,-539 379.5,-509 198.5,-509"/>
<text text-anchor="start" x="206.5" y="-527" font-family="Helvetica,sans-Serif" font-size="10.00">gui.mainclasses.workspace.</text>
<text text-anchor="middle" x="289" y="-516" font-family="Helvetica,sans-Serif" font-size="10.00">WorkspaceManager.addWorkspace</text>
</a>
</g>
</g>
<!-- Node1&#45;&gt;Node6 -->
<g id="edge5" class="edge"><title>Node1&#45;&gt;Node6</title>
<path fill="none" stroke="midnightblue" d="M83.2897,-347.718C95.8466,-375.04 135.253,-453.196 192,-494 197.848,-498.205 204.304,-501.834 211.02,-504.963"/>
<polygon fill="midnightblue" stroke="midnightblue" points="209.736,-508.22 220.307,-508.927 212.484,-501.782 209.736,-508.22"/>
</g>
<!-- Node8 -->
<g id="node8" class="node"><title>Node8</title>
<g id="a_node8"><a xlink:href="../../d0/d49/classgui_1_1mainclasses_1_1_text_generator.html#afef308a2abfb8f1503d2b276407833e6" target="_top" xlink:title="gui.mainclasses.TextGenerator.get">
<polygon fill="white" stroke="black" points="435,-455.5 435,-474.5 617,-474.5 617,-455.5 435,-455.5"/>
<text text-anchor="middle" x="526" y="-462.5" font-family="Helvetica,sans-Serif" font-size="10.00">gui.mainclasses.TextGenerator.get</text>
</a>
</g>
</g>
<!-- Node1&#45;&gt;Node8 -->
<g id="edge11" class="edge"><title>Node1&#45;&gt;Node8</title>
<path fill="none" stroke="midnightblue" d="M84.2313,-347.727C98.0008,-372.166 137.944,-435.903 192,-460 283.922,-500.978 404.793,-488.542 472.749,-476.384"/>
<polygon fill="midnightblue" stroke="midnightblue" points="473.591,-479.788 482.785,-474.522 472.314,-472.905 473.591,-479.788"/>
</g>
<!-- Node10 -->
<g id="node10" class="node"><title>Node10</title>
<g id="a_node10"><a xlink:href="../../d1/dea/classgui_1_1menus_1_1_file_menu.html#a5d282d9883fea642633ddf27638b173c" target="_top" xlink:title="gui.menus.FileMenu.create\lFileChooser">
<polygon fill="white" stroke="black" points="216.5,-421 216.5,-451 361.5,-451 361.5,-421 216.5,-421"/>
<text text-anchor="start" x="224.5" y="-439" font-family="Helvetica,sans-Serif" font-size="10.00">gui.menus.FileMenu.create</text>
<text text-anchor="middle" x="289" y="-428" font-family="Helvetica,sans-Serif" font-size="10.00">FileChooser</text>
</a>
</g>
</g>
<!-- Node1&#45;&gt;Node10 -->
<g id="edge9" class="edge"><title>Node1&#45;&gt;Node10</title>
<path fill="none" stroke="midnightblue" d="M91.1268,-347.718C111.047,-363.232 152.445,-393.612 192,-411 197.639,-413.479 203.576,-415.753 209.618,-417.831"/>
<polygon fill="midnightblue" stroke="midnightblue" points="208.579,-421.174 219.171,-420.937 210.743,-414.517 208.579,-421.174"/>
</g>
<!-- Node11 -->
<g id="node11" class="node"><title>Node11</title>
<g id="a_node11"><a xlink:href="../../d8/df2/classgui_1_1mainclasses_1_1workspace_1_1_workspace.html#a08c5cd52f90ae1ab55db152986cd6d45" target="_top" xlink:title="gui.mainclasses.workspace.\lWorkspace.getDataHolder">
<polygon fill="white" stroke="black" points="214.5,-372 214.5,-402 363.5,-402 363.5,-372 214.5,-372"/>
<text text-anchor="start" x="222.5" y="-390" font-family="Helvetica,sans-Serif" font-size="10.00">gui.mainclasses.workspace.</text>
<text text-anchor="middle" x="289" y="-379" font-family="Helvetica,sans-Serif" font-size="10.00">Workspace.getDataHolder</text>
</a>
</g>
</g>
<!-- Node1&#45;&gt;Node11 -->
<g id="edge13" class="edge"><title>Node1&#45;&gt;Node11</title>
<path fill="none" stroke="midnightblue" d="M119.793,-347.564C146.485,-353.822 182.142,-362.182 213.757,-369.594"/>
<polygon fill="midnightblue" stroke="midnightblue" points="213.328,-373.088 223.863,-371.963 214.926,-366.273 213.328,-373.088"/>
</g>
<!-- Node12 -->
<g id="node12" class="node"><title>Node12</title>
<g id="a_node12"><a xlink:href="../../d9/dcd/class_x_m_l_1_1readers_1_1_saved_workspace_x_m_l_reader.html#a3b65db348100a29d05cfada79b37cac5" target="_top" xlink:title="XML.readers.SavedWorkspace\lXMLReader.getInitialPenCommands">
<polygon fill="white" stroke="black" points="196.5,-323 196.5,-353 381.5,-353 381.5,-323 196.5,-323"/>
<text text-anchor="start" x="204.5" y="-341" font-family="Helvetica,sans-Serif" font-size="10.00">XML.readers.SavedWorkspace</text>
<text text-anchor="middle" x="289" y="-330" font-family="Helvetica,sans-Serif" font-size="10.00">XMLReader.getInitialPenCommands</text>
</a>
</g>
</g>
<!-- Node1&#45;&gt;Node12 -->
<g id="edge14" class="edge"><title>Node1&#45;&gt;Node12</title>
<path fill="none" stroke="midnightblue" d="M155.637,-338C165.598,-338 175.923,-338 186.213,-338"/>
<polygon fill="midnightblue" stroke="midnightblue" points="186.477,-341.5 196.477,-338 186.477,-334.5 186.477,-341.5"/>
</g>
<!-- Node14 -->
<g id="node14" class="node"><title>Node14</title>
<g id="a_node14"><a xlink:href="../../d9/dcd/class_x_m_l_1_1readers_1_1_saved_workspace_x_m_l_reader.html#af8b1293a74da5d9169447580d93e7e0e" target="_top" xlink:title="XML.readers.SavedWorkspace\lXMLReader.getScreenParameters">
<polygon fill="white" stroke="black" points="201,-274 201,-304 377,-304 377,-274 201,-274"/>
<text text-anchor="start" x="209" y="-292" font-family="Helvetica,sans-Serif" font-size="10.00">XML.readers.SavedWorkspace</text>
<text text-anchor="middle" x="289" y="-281" font-family="Helvetica,sans-Serif" font-size="10.00">XMLReader.getScreenParameters</text>
</a>
</g>
</g>
<!-- Node1&#45;&gt;Node14 -->
<g id="edge16" class="edge"><title>Node1&#45;&gt;Node14</title>
<path fill="none" stroke="midnightblue" d="M119.793,-328.436C146.485,-322.178 182.142,-313.818 213.757,-306.406"/>
<polygon fill="midnightblue" stroke="midnightblue" points="214.926,-309.727 223.863,-304.037 213.328,-302.912 214.926,-309.727"/>
</g>
<!-- Node16 -->
<g id="node16" class="node"><title>Node16</title>
<g id="a_node16"><a xlink:href="../../d8/df2/classgui_1_1mainclasses_1_1workspace_1_1_workspace.html#a7932ca3506bb6ed22fec1770863c4858" target="_top" xlink:title="gui.mainclasses.workspace.\lWorkspace.getScreenParams">
<polygon fill="white" stroke="black" points="211,-225 211,-255 367,-255 367,-225 211,-225"/>
<text text-anchor="start" x="219" y="-243" font-family="Helvetica,sans-Serif" font-size="10.00">gui.mainclasses.workspace.</text>
<text text-anchor="middle" x="289" y="-232" font-family="Helvetica,sans-Serif" font-size="10.00">Workspace.getScreenParams</text>
</a>
</g>
</g>
<!-- Node1&#45;&gt;Node16 -->
<g id="edge18" class="edge"><title>Node1&#45;&gt;Node16</title>
<path fill="none" stroke="midnightblue" d="M90.7625,-328.348C110.494,-312.624 152.039,-281.482 192,-264 196.748,-261.923 201.709,-260.002 206.769,-258.23"/>
<polygon fill="midnightblue" stroke="midnightblue" points="208.181,-261.45 216.588,-255.002 205.995,-254.8 208.181,-261.45"/>
</g>
<!-- Node18 -->
<g id="node18" class="node"><title>Node18</title>
<g id="a_node18"><a xlink:href="../../d9/dcd/class_x_m_l_1_1readers_1_1_saved_workspace_x_m_l_reader.html#acde38d76ee5d2d2aca516d2cd40603e0" target="_top" xlink:title="XML.readers.SavedWorkspace\lXMLReader.getUserDefinedCommands">
<polygon fill="white" stroke="black" points="425,-184 425,-214 627,-214 627,-184 425,-184"/>
<text text-anchor="start" x="433" y="-202" font-family="Helvetica,sans-Serif" font-size="10.00">XML.readers.SavedWorkspace</text>
<text text-anchor="middle" x="526" y="-191" font-family="Helvetica,sans-Serif" font-size="10.00">XMLReader.getUserDefinedCommands</text>
</a>
</g>
</g>
<!-- Node1&#45;&gt;Node18 -->
<g id="edge21" class="edge"><title>Node1&#45;&gt;Node18</title>
<path fill="none" stroke="midnightblue" d="M84.2573,-328.301C98.088,-303.917 138.163,-240.206 192,-215 261.055,-182.669 347.221,-179.376 414.601,-183.797"/>
<polygon fill="midnightblue" stroke="midnightblue" points="414.598,-187.306 424.824,-184.536 415.103,-180.324 414.598,-187.306"/>
</g>
<!-- Node19 -->
<g id="node19" class="node"><title>Node19</title>
<g id="a_node19"><a xlink:href="../../d9/dcd/class_x_m_l_1_1readers_1_1_saved_workspace_x_m_l_reader.html#a695e4dc29b20bbb0b50d024333897073" target="_top" xlink:title="XML.readers.SavedWorkspace\lXMLReader.getWorkspaceDataHolder">
<polygon fill="white" stroke="black" points="192.5,-137 192.5,-167 385.5,-167 385.5,-137 192.5,-137"/>
<text text-anchor="start" x="200.5" y="-155" font-family="Helvetica,sans-Serif" font-size="10.00">XML.readers.SavedWorkspace</text>
<text text-anchor="middle" x="289" y="-144" font-family="Helvetica,sans-Serif" font-size="10.00">XMLReader.getWorkspaceDataHolder</text>
</a>
</g>
</g>
<!-- Node1&#45;&gt;Node19 -->
<g id="edge22" class="edge"><title>Node1&#45;&gt;Node19</title>
<path fill="none" stroke="midnightblue" d="M83.2897,-328.282C95.8466,-300.96 135.253,-222.804 192,-182 197.848,-177.795 204.304,-174.166 211.02,-171.037"/>
<polygon fill="midnightblue" stroke="midnightblue" points="212.484,-174.218 220.307,-167.073 209.736,-167.78 212.484,-174.218"/>
</g>
<!-- Node20 -->
<g id="node20" class="node"><title>Node20</title>
<g id="a_node20"><a xlink:href="../../d9/dcd/class_x_m_l_1_1readers_1_1_saved_workspace_x_m_l_reader.html#a9a7c25ef72700c59aaebe2035c8c5de2" target="_top" xlink:title="XML.readers.SavedWorkspace\lXMLReader.getWorkspaceVariables">
<polygon fill="white" stroke="black" points="435,-86 435,-116 617,-116 617,-86 435,-86"/>
<text text-anchor="start" x="443" y="-104" font-family="Helvetica,sans-Serif" font-size="10.00">XML.readers.SavedWorkspace</text>
<text text-anchor="middle" x="526" y="-93" font-family="Helvetica,sans-Serif" font-size="10.00">XMLReader.getWorkspaceVariables</text>
</a>
</g>
</g>
<!-- Node1&#45;&gt;Node20 -->
<g id="edge27" class="edge"><title>Node1&#45;&gt;Node20</title>
<path fill="none" stroke="midnightblue" d="M80.8119,-328.234C87.8034,-293.631 116.501,-176.305 192,-127 229.15,-102.739 340.876,-98.1927 424.745,-98.4603"/>
<polygon fill="midnightblue" stroke="midnightblue" points="424.809,-101.961 434.828,-98.5158 424.848,-94.9607 424.809,-101.961"/>
</g>
<!-- Node23 -->
<g id="node23" class="node"><title>Node23</title>
<g id="a_node23"><a xlink:href="../../d0/d49/classgui_1_1mainclasses_1_1_text_generator.html#a149c17d3fd9309bcab210887f0ccde82" target="_top" xlink:title="gui.mainclasses.TextGenerator.set\lLanguage">
<polygon fill="white" stroke="black" points="198.5,-49 198.5,-79 379.5,-79 379.5,-49 198.5,-49"/>
<text text-anchor="start" x="206.5" y="-67" font-family="Helvetica,sans-Serif" font-size="10.00">gui.mainclasses.TextGenerator.set</text>
<text text-anchor="middle" x="289" y="-56" font-family="Helvetica,sans-Serif" font-size="10.00">Language</text>
</a>
</g>
</g>
<!-- Node1&#45;&gt;Node23 -->
<g id="edge29" class="edge"><title>Node1&#45;&gt;Node23</title>
<path fill="none" stroke="midnightblue" d="M80.5823,-328.407C87.0854,-292.052 115.137,-161.412 192,-94 196.457,-90.0907 201.421,-86.6907 206.678,-83.7337"/>
<polygon fill="midnightblue" stroke="midnightblue" points="208.404,-86.7834 215.766,-79.1636 205.259,-80.5297 208.404,-86.7834"/>
</g>
<!-- Node25 -->
<g id="node25" class="node"><title>Node25</title>
<g id="a_node25"><a xlink:href="../../d0/d4c/class_x_m_l_1_1writers_1_1_saved_workspace_x_m_l_writer.html#abfbdb3b98dac3e45eb83e5f6a1943165" target="_top" xlink:title="XML.writers.SavedWorkspace\lXMLWriter.writeFile">
<polygon fill="white" stroke="black" points="211.5,-0 211.5,-30 366.5,-30 366.5,-0 211.5,-0"/>
<text text-anchor="start" x="219.5" y="-18" font-family="Helvetica,sans-Serif" font-size="10.00">XML.writers.SavedWorkspace</text>
<text text-anchor="middle" x="289" y="-7" font-family="Helvetica,sans-Serif" font-size="10.00">XMLWriter.writeFile</text>
</a>
</g>
</g>
<!-- Node1&#45;&gt;Node25 -->
<g id="edge31" class="edge"><title>Node1&#45;&gt;Node25</title>
<path fill="none" stroke="midnightblue" d="M79.5406,-328.477C82.4219,-287.092 99.5559,-121.268 192,-39 195.176,-36.1733 198.636,-33.6689 202.294,-31.4508"/>
<polygon fill="midnightblue" stroke="midnightblue" points="203.939,-34.54 211.15,-26.778 200.673,-28.3489 203.939,-34.54"/>
</g>
<!-- Node2&#45;&gt;Node3 -->
<g id="edge2" class="edge"><title>Node2&#45;&gt;Node3</title>
<path fill="none" stroke="midnightblue" d="M368.252,-626.651C389.556,-630.64 412.806,-634.993 434.719,-639.096"/>
<polygon fill="midnightblue" stroke="midnightblue" points="434.208,-642.561 444.681,-640.962 435.496,-635.681 434.208,-642.561"/>
</g>
<!-- Node2&#45;&gt;Node4 -->
<g id="edge3" class="edge"><title>Node2&#45;&gt;Node4</title>
<path fill="none" stroke="midnightblue" d="M368.252,-610.335C387.239,-609.931 407.772,-609.494 427.527,-609.074"/>
<polygon fill="midnightblue" stroke="midnightblue" points="427.851,-612.568 437.774,-608.856 427.702,-605.569 427.851,-612.568"/>
</g>
<!-- Node5 -->
<g id="node5" class="node"><title>Node5</title>
<g id="a_node5"><a xlink:href="../../da/d55/interface_control_1_1_slogo_graphics.html#a05813100446932183f367405e6c73d67" target="_top" xlink:title="Control.SlogoGraphics.parse\lCommandString">
<polygon fill="white" stroke="black" points="690.5,-592 690.5,-622 843.5,-622 843.5,-592 690.5,-592"/>
<text text-anchor="start" x="698.5" y="-610" font-family="Helvetica,sans-Serif" font-size="10.00">Control.SlogoGraphics.parse</text>
<text text-anchor="middle" x="767" y="-599" font-family="Helvetica,sans-Serif" font-size="10.00">CommandString</text>
</a>
</g>
</g>
<!-- Node4&#45;&gt;Node5 -->
<g id="edge4" class="edge"><title>Node4&#45;&gt;Node5</title>
<path fill="none" stroke="midnightblue" d="M614.299,-607C635.826,-607 658.859,-607 680.308,-607"/>
<polygon fill="midnightblue" stroke="midnightblue" points="680.368,-610.5 690.368,-607 680.368,-603.5 680.368,-610.5"/>
</g>
<!-- Node7 -->
<g id="node7" class="node"><title>Node7</title>
<g id="a_node7"><a xlink:href="../../da/d55/interface_control_1_1_slogo_graphics.html#af3615631e22f23ebbed236a95b6207ff" target="_top" xlink:title="Control.SlogoGraphics.create\lWorkspaceState">
<polygon fill="white" stroke="black" points="447.5,-543 447.5,-573 604.5,-573 604.5,-543 447.5,-543"/>
<text text-anchor="start" x="455.5" y="-561" font-family="Helvetica,sans-Serif" font-size="10.00">Control.SlogoGraphics.create</text>
<text text-anchor="middle" x="526" y="-550" font-family="Helvetica,sans-Serif" font-size="10.00">WorkspaceState</text>
</a>
</g>
</g>
<!-- Node6&#45;&gt;Node7 -->
<g id="edge6" class="edge"><title>Node6&#45;&gt;Node7</title>
<path fill="none" stroke="midnightblue" d="M379.514,-536.951C398.425,-539.687 418.363,-542.572 437.21,-545.298"/>
<polygon fill="midnightblue" stroke="midnightblue" points="436.855,-548.783 447.253,-546.752 437.857,-541.856 436.855,-548.783"/>
</g>
<!-- Node6&#45;&gt;Node8 -->
<g id="edge7" class="edge"><title>Node6&#45;&gt;Node8</title>
<path fill="none" stroke="midnightblue" d="M337.713,-508.93C368.572,-499.301 405.886,-487.915 422,-484 433.206,-481.277 445.182,-478.738 456.858,-476.457"/>
<polygon fill="midnightblue" stroke="midnightblue" points="457.846,-479.832 467.014,-474.522 456.536,-472.956 457.846,-479.832"/>
</g>
<!-- Node9 -->
<g id="node9" class="node"><title>Node9</title>
<g id="a_node9"><a xlink:href="../../da/d55/interface_control_1_1_slogo_graphics.html#a15527d6f44f87f4bd8063275ef06dfc2" target="_top" xlink:title="Control.SlogoGraphics.set\lActiveWorkspaceState">
<polygon fill="white" stroke="black" points="455.5,-494 455.5,-524 596.5,-524 596.5,-494 455.5,-494"/>
<text text-anchor="start" x="463.5" y="-512" font-family="Helvetica,sans-Serif" font-size="10.00">Control.SlogoGraphics.set</text>
<text text-anchor="middle" x="526" y="-501" font-family="Helvetica,sans-Serif" font-size="10.00">ActiveWorkspaceState</text>
</a>
</g>
</g>
<!-- Node6&#45;&gt;Node9 -->
<g id="edge8" class="edge"><title>Node6&#45;&gt;Node9</title>
<path fill="none" stroke="midnightblue" d="M379.514,-518.286C401.139,-516.906 424.106,-515.44 445.25,-514.09"/>
<polygon fill="midnightblue" stroke="midnightblue" points="445.712,-517.568 455.468,-513.438 445.266,-510.582 445.712,-517.568"/>
</g>
<!-- Node10&#45;&gt;Node8 -->
<g id="edge10" class="edge"><title>Node10&#45;&gt;Node8</title>
<path fill="none" stroke="midnightblue" d="M361.785,-444.859C385.749,-447.816 412.718,-451.144 437.728,-454.23"/>
<polygon fill="midnightblue" stroke="midnightblue" points="437.587,-457.739 447.94,-455.491 438.444,-450.792 437.587,-457.739"/>
</g>
<!-- Node13 -->
<g id="node13" class="node"><title>Node13</title>
<g id="a_node13"><a xlink:href="../../d9/d08/class_x_m_l_1_1workspaceparams_1_1_workspace_pen_commands.html#ac71a48b2bab79bd8f68af16d7f19934c" target="_top" xlink:title="XML.workspaceparams.Workspace\lPenCommands.addCommand">
<polygon fill="white" stroke="black" points="436,-323 436,-353 616,-353 616,-323 436,-323"/>
<text text-anchor="start" x="444" y="-341" font-family="Helvetica,sans-Serif" font-size="10.00">XML.workspaceparams.Workspace</text>
<text text-anchor="middle" x="526" y="-330" font-family="Helvetica,sans-Serif" font-size="10.00">PenCommands.addCommand</text>
</a>
</g>
</g>
<!-- Node12&#45;&gt;Node13 -->
<g id="edge15" class="edge"><title>Node12&#45;&gt;Node13</title>
<path fill="none" stroke="midnightblue" d="M381.53,-338C395.98,-338 410.982,-338 425.601,-338"/>
<polygon fill="midnightblue" stroke="midnightblue" points="425.649,-341.5 435.649,-338 425.649,-334.5 425.649,-341.5"/>
</g>
<!-- Node15 -->
<g id="node15" class="node"><title>Node15</title>
<g id="a_node15"><a xlink:href="../../dd/d08/class_x_m_l_1_1workspaceparams_1_1_workspace_screen_parameters.html#a5eb367f82065dcbb61f1bfab175312cd" target="_top" xlink:title="XML.workspaceparams.Workspace\lScreenParameters.put">
<polygon fill="white" stroke="black" points="677,-255 677,-285 857,-285 857,-255 677,-255"/>
<text text-anchor="start" x="685" y="-273" font-family="Helvetica,sans-Serif" font-size="10.00">XML.workspaceparams.Workspace</text>
<text text-anchor="middle" x="767" y="-262" font-family="Helvetica,sans-Serif" font-size="10.00">ScreenParameters.put</text>
</a>
</g>
</g>
<!-- Node14&#45;&gt;Node15 -->
<g id="edge17" class="edge"><title>Node14&#45;&gt;Node15</title>
<path fill="none" stroke="midnightblue" d="M377.029,-285.526C458.75,-282.264 580.915,-277.388 666.472,-273.973"/>
<polygon fill="midnightblue" stroke="midnightblue" points="666.867,-277.46 676.72,-273.564 666.588,-270.465 666.867,-277.46"/>
</g>
<!-- Node17 -->
<g id="node17" class="node"><title>Node17</title>
<g id="a_node17"><a xlink:href="../../dd/d4c/classgui_1_1componentdrawers_1_1_turtle_screen_drawer.html#acb19cf73023088f555bd5e2e6d2ce986" target="_top" xlink:title="gui.componentdrawers.Turtle\lScreenDrawer.getScreenParams">
<polygon fill="white" stroke="black" points="440,-233 440,-263 612,-263 612,-233 440,-233"/>
<text text-anchor="start" x="448" y="-251" font-family="Helvetica,sans-Serif" font-size="10.00">gui.componentdrawers.Turtle</text>
<text text-anchor="middle" x="526" y="-240" font-family="Helvetica,sans-Serif" font-size="10.00">ScreenDrawer.getScreenParams</text>
</a>
</g>
</g>
<!-- Node16&#45;&gt;Node17 -->
<g id="edge19" class="edge"><title>Node16&#45;&gt;Node17</title>
<path fill="none" stroke="midnightblue" d="M367.273,-242.631C387.277,-243.312 409.05,-244.053 429.852,-244.761"/>
<polygon fill="midnightblue" stroke="midnightblue" points="429.861,-248.263 439.974,-245.105 430.099,-241.267 429.861,-248.263"/>
</g>
<!-- Node17&#45;&gt;Node15 -->
<g id="edge20" class="edge"><title>Node17&#45;&gt;Node15</title>
<path fill="none" stroke="midnightblue" d="M612.272,-255.849C629.918,-257.474 648.65,-259.198 666.745,-260.864"/>
<polygon fill="midnightblue" stroke="midnightblue" points="666.442,-264.35 676.721,-261.782 667.084,-257.38 666.442,-264.35"/>
</g>
<!-- Node19&#45;&gt;Node18 -->
<g id="edge24" class="edge"><title>Node19&#45;&gt;Node18</title>
<path fill="none" stroke="midnightblue" d="M365.002,-167C388.85,-171.77 415.397,-177.079 439.904,-181.981"/>
<polygon fill="midnightblue" stroke="midnightblue" points="439.413,-185.452 449.905,-183.981 440.786,-178.588 439.413,-185.452"/>
</g>
<!-- Node19&#45;&gt;Node20 -->
<g id="edge23" class="edge"><title>Node19&#45;&gt;Node20</title>
<path fill="none" stroke="midnightblue" d="M359.237,-136.974C386.486,-131.06 417.928,-124.237 446.054,-118.133"/>
<polygon fill="midnightblue" stroke="midnightblue" points="446.822,-121.548 455.852,-116.006 445.338,-114.707 446.822,-121.548"/>
</g>
<!-- Node21 -->
<g id="node21" class="node"><title>Node21</title>
<g id="a_node21"><a xlink:href="../../d9/dcd/class_x_m_l_1_1readers_1_1_saved_workspace_x_m_l_reader.html#a3c00dbb87febfa20c2d63038732e5342" target="_top" xlink:title="XML.readers.SavedWorkspace\lXMLReader.getSavedCommands">
<polygon fill="white" stroke="black" points="439.5,-135 439.5,-165 612.5,-165 612.5,-135 439.5,-135"/>
<text text-anchor="start" x="447.5" y="-153" font-family="Helvetica,sans-Serif" font-size="10.00">XML.readers.SavedWorkspace</text>
<text text-anchor="middle" x="526" y="-142" font-family="Helvetica,sans-Serif" font-size="10.00">XMLReader.getSavedCommands</text>
</a>
</g>
</g>
<!-- Node19&#45;&gt;Node21 -->
<g id="edge25" class="edge"><title>Node19&#45;&gt;Node21</title>
<path fill="none" stroke="midnightblue" d="M385.583,-151.187C399.899,-151.065 414.664,-150.939 428.989,-150.817"/>
<polygon fill="midnightblue" stroke="midnightblue" points="429.359,-154.314 439.328,-150.729 429.299,-147.314 429.359,-154.314"/>
</g>
<!-- Node22 -->
<g id="node22" class="node"><title>Node22</title>
<g id="a_node22"><a xlink:href="../../d9/dcd/class_x_m_l_1_1readers_1_1_saved_workspace_x_m_l_reader.html#a7c56ac523e52ff9fdf07b4b4982f1701" target="_top" xlink:title="XML.readers.SavedWorkspace\lXMLReader.getStringListFromElements">
<polygon fill="white" stroke="black" points="666.5,-135 666.5,-165 867.5,-165 867.5,-135 666.5,-135"/>
<text text-anchor="start" x="674.5" y="-153" font-family="Helvetica,sans-Serif" font-size="10.00">XML.readers.SavedWorkspace</text>
<text text-anchor="middle" x="767" y="-142" font-family="Helvetica,sans-Serif" font-size="10.00">XMLReader.getStringListFromElements</text>
</a>
</g>
</g>
<!-- Node21&#45;&gt;Node22 -->
<g id="edge26" class="edge"><title>Node21&#45;&gt;Node22</title>
<path fill="none" stroke="midnightblue" d="M612.609,-150C626.757,-150 641.596,-150 656.238,-150"/>
<polygon fill="midnightblue" stroke="midnightblue" points="656.333,-153.5 666.333,-150 656.333,-146.5 656.333,-153.5"/>
</g>
<!-- Node24 -->
<g id="node24" class="node"><title>Node24</title>
<g id="a_node24"><a xlink:href="../../d0/d49/classgui_1_1mainclasses_1_1_text_generator.html#a4e3abbae3a290468b086857ad39b77bd" target="_top" xlink:title="gui.mainclasses.TextGenerator.get\lResourceBundle">
<polygon fill="white" stroke="black" points="435,-37 435,-67 617,-67 617,-37 435,-37"/>
<text text-anchor="start" x="443" y="-55" font-family="Helvetica,sans-Serif" font-size="10.00">gui.mainclasses.TextGenerator.get</text>
<text text-anchor="middle" x="526" y="-44" font-family="Helvetica,sans-Serif" font-size="10.00">ResourceBundle</text>
</a>
</g>
</g>
<!-- Node23&#45;&gt;Node24 -->
<g id="edge30" class="edge"><title>Node23&#45;&gt;Node24</title>
<path fill="none" stroke="midnightblue" d="M379.514,-59.4291C394.268,-58.6757 409.648,-57.8903 424.646,-57.1244"/>
<polygon fill="midnightblue" stroke="midnightblue" points="425.148,-60.6035 434.957,-56.598 424.791,-53.6126 425.148,-60.6035"/>
</g>
</g>
</svg>
