<?xml version="1.0" encoding="UTF-8" standalone="no"?>
<!DOCTYPE svg PUBLIC "-//W3C//DTD SVG 1.1//EN"
 "http://www.w3.org/Graphics/SVG/1.1/DTD/svg11.dtd">
<!-- Generated by graphviz version 2.36.0 (20140111.2315)
 -->
<!-- Title: gui.nonbuttonfeatures.SavedCommandsFeature.getCommands Pages: 1 -->
<svg width="484pt" height="38pt"
 viewBox="0.00 0.00 484.00 38.00" xmlns="http://www.w3.org/2000/svg" xmlns:xlink="http://www.w3.org/1999/xlink">
<g id="graph0" class="graph" transform="scale(1 1) rotate(0) translate(4 34)">
<title>gui.nonbuttonfeatures.SavedCommandsFeature.getCommands</title>
<polygon fill="white" stroke="none" points="-4,4 -4,-34 480,-34 480,4 -4,4"/>
<!-- Node1 -->
<g id="node1" class="node"><title>Node1</title>
<polygon fill="#bfbfbf" stroke="black" points="0,-0 0,-30 182,-30 182,-0 0,-0"/>
<text text-anchor="start" x="8" y="-18" font-family="Helvetica,sans-Serif" font-size="10.00">gui.nonbuttonfeatures.Saved</text>
<text text-anchor="middle" x="91" y="-7" font-family="Helvetica,sans-Serif" font-size="10.00">CommandsFeature.getCommands</text>
</g>
<!-- Node2 -->
<g id="node2" class="node"><title>Node2</title>
<g id="a_node2"><a xlink:href="../../dd/d6c/classgui_1_1componentdrawers_1_1significantcommands_1_1tabs_1_1_saved_commands_tab.html#a461410a967db128930d2876958480c0c" target="_top" xlink:title="gui.componentdrawers.significantcommands.tabs.\lSavedCommandsTab.getCommands">
<polygon fill="white" stroke="black" points="218,-0 218,-30 476,-30 476,-0 218,-0"/>
<text text-anchor="start" x="226" y="-18" font-family="Helvetica,sans-Serif" font-size="10.00">gui.componentdrawers.significantcommands.tabs.</text>
<text text-anchor="middle" x="347" y="-7" font-family="Helvetica,sans-Serif" font-size="10.00">SavedCommandsTab.getCommands</text>
</a>
</g>
</g>
<!-- Node1&#45;&gt;Node2 -->
<g id="edge1" class="edge"><title>Node1&#45;&gt;Node2</title>
<path fill="none" stroke="midnightblue" d="M192.383,-15C200.751,-15 209.28,-15 217.817,-15"/>
<polygon fill="midnightblue" stroke="midnightblue" points="192.266,-11.5001 182.266,-15 192.266,-18.5001 192.266,-11.5001"/>
</g>
</g>
</svg>
