<?xml version="1.0" encoding="UTF-8" standalone="no"?>
<!DOCTYPE svg PUBLIC "-//W3C//DTD SVG 1.1//EN"
 "http://www.w3.org/Graphics/SVG/1.1/DTD/svg11.dtd">
<!-- Generated by graphviz version 2.36.0 (20140111.2315)
 -->
<!-- Title: gui.nonbuttonfeatures.SavedCommandsFeature.loadCommands Pages: 1 -->
<svg width="490pt" height="38pt"
 viewBox="0.00 0.00 490.00 38.00" xmlns="http://www.w3.org/2000/svg" xmlns:xlink="http://www.w3.org/1999/xlink">
<g id="graph0" class="graph" transform="scale(1 1) rotate(0) translate(4 34)">
<title>gui.nonbuttonfeatures.SavedCommandsFeature.loadCommands</title>
<polygon fill="white" stroke="none" points="-4,4 -4,-34 486,-34 486,4 -4,4"/>
<!-- Node1 -->
<g id="node1" class="node"><title>Node1</title>
<polygon fill="#bfbfbf" stroke="black" points="0.5,-0 0.5,-30 187.5,-30 187.5,-0 0.5,-0"/>
<text text-anchor="start" x="8.5" y="-18" font-family="Helvetica,sans-Serif" font-size="10.00">gui.nonbuttonfeatures.Saved</text>
<text text-anchor="middle" x="94" y="-7" font-family="Helvetica,sans-Serif" font-size="10.00">CommandsFeature.loadCommands</text>
</g>
<!-- Node2 -->
<g id="node2" class="node"><title>Node2</title>
<g id="a_node2"><a xlink:href="../../dd/d6c/classgui_1_1componentdrawers_1_1significantcommands_1_1tabs_1_1_saved_commands_tab.html#a751af8cd30f86ba77becf39b7f8eeb8a" target="_top" xlink:title="gui.componentdrawers.significantcommands.tabs.\lSavedCommandsTab.loadCommands">
<polygon fill="white" stroke="black" points="224,-0 224,-30 482,-30 482,-0 224,-0"/>
<text text-anchor="start" x="232" y="-18" font-family="Helvetica,sans-Serif" font-size="10.00">gui.componentdrawers.significantcommands.tabs.</text>
<text text-anchor="middle" x="353" y="-7" font-family="Helvetica,sans-Serif" font-size="10.00">SavedCommandsTab.loadCommands</text>
</a>
</g>
</g>
<!-- Node1&#45;&gt;Node2 -->
<g id="edge1" class="edge"><title>Node1&#45;&gt;Node2</title>
<path fill="none" stroke="midnightblue" d="M197.979,-15C206.408,-15 214.989,-15 223.571,-15"/>
<polygon fill="midnightblue" stroke="midnightblue" points="197.783,-11.5001 187.783,-15 197.783,-18.5001 197.783,-11.5001"/>
</g>
</g>
</svg>
