<?xml version="1.0" encoding="UTF-8" standalone="no"?>
<!DOCTYPE svg PUBLIC "-//W3C//DTD SVG 1.1//EN"
 "http://www.w3.org/Graphics/SVG/1.1/DTD/svg11.dtd">
<!-- Generated by graphviz version 2.36.0 (20140111.2315)
 -->
<!-- Title: gui.factories.turtlefactory.TurtleNode Pages: 1 -->
<svg width="1590pt" height="360pt"
 viewBox="0.00 0.00 1590.00 360.00" xmlns="http://www.w3.org/2000/svg" xmlns:xlink="http://www.w3.org/1999/xlink">
<g id="graph0" class="graph" transform="scale(1 1) rotate(0) translate(4 356)">
<title>gui.factories.turtlefactory.TurtleNode</title>
<polygon fill="white" stroke="none" points="-4,4 -4,-356 1586,-356 1586,4 -4,4"/>
<!-- Node1 -->
<g id="node1" class="node"><title>Node1</title>
<polygon fill="#bfbfbf" stroke="black" points="1150,-189 1150,-219 1288,-219 1288,-189 1150,-189"/>
<text text-anchor="start" x="1158" y="-207" font-family="Helvetica,sans-Serif" font-size="10.00">gui.factories.turtlefactory.</text>
<text text-anchor="middle" x="1219" y="-196" font-family="Helvetica,sans-Serif" font-size="10.00">TurtleNode</text>
</g>
<!-- Node2 -->
<g id="node2" class="node"><title>Node2</title>
<polygon fill="white" stroke="#bfbfbf" points="897,-194.5 897,-213.5 965,-213.5 965,-194.5 897,-194.5"/>
<text text-anchor="middle" x="931" y="-201.5" font-family="Helvetica,sans-Serif" font-size="10.00">ImageView</text>
</g>
<!-- Node2&#45;&gt;Node1 -->
<g id="edge1" class="edge"><title>Node2&#45;&gt;Node1</title>
<path fill="none" stroke="midnightblue" d="M975.1,-204C1021.43,-204 1095.73,-204 1149.97,-204"/>
<polygon fill="midnightblue" stroke="midnightblue" points="975.087,-200.5 965.087,-204 975.087,-207.5 975.087,-200.5"/>
</g>
<!-- Node3 -->
<g id="node3" class="node"><title>Node3</title>
<g id="a_node3"><a xlink:href="../../d8/df2/classgui_1_1mainclasses_1_1workspace_1_1_workspace.html" target="_top" xlink:title="gui.mainclasses.workspace.\lWorkspace">
<polygon fill="white" stroke="black" points="856.5,-93 856.5,-123 1005.5,-123 1005.5,-93 856.5,-93"/>
<text text-anchor="start" x="864.5" y="-111" font-family="Helvetica,sans-Serif" font-size="10.00">gui.mainclasses.workspace.</text>
<text text-anchor="middle" x="931" y="-100" font-family="Helvetica,sans-Serif" font-size="10.00">Workspace</text>
</a>
</g>
</g>
<!-- Node3&#45;&gt;Node1 -->
<g id="edge2" class="edge"><title>Node3&#45;&gt;Node1</title>
<path fill="none" stroke="#9a32cd" stroke-dasharray="5,2" d="M979.84,-126.806C1018.87,-141.832 1075.59,-162.958 1126,-179 1136.73,-182.413 1148.24,-185.777 1159.38,-188.876"/>
<polygon fill="#9a32cd" stroke="#9a32cd" points="980.903,-123.464 970.314,-123.124 978.379,-129.994 980.903,-123.464"/>
<text text-anchor="middle" x="1070" y="-176" font-family="Helvetica,sans-Serif" font-size="10.00"> myWorkspace</text>
</g>
<!-- Node16 -->
<g id="node16" class="node"><title>Node16</title>
<g id="a_node16"><a xlink:href="../../dd/d25/classgui_1_1factories_1_1turtlefactory_1_1_turtle_nodes.html" target="_top" xlink:title="gui.factories.turtlefactory.\lTurtleNodes">
<polygon fill="white" stroke="black" points="1150,-50 1150,-80 1288,-80 1288,-50 1150,-50"/>
<text text-anchor="start" x="1158" y="-68" font-family="Helvetica,sans-Serif" font-size="10.00">gui.factories.turtlefactory.</text>
<text text-anchor="middle" x="1219" y="-57" font-family="Helvetica,sans-Serif" font-size="10.00">TurtleNodes</text>
</a>
</g>
</g>
<!-- Node3&#45;&gt;Node16 -->
<g id="edge18" class="edge"><title>Node3&#45;&gt;Node16</title>
<path fill="none" stroke="#9a32cd" stroke-dasharray="5,2" d="M965.861,-87.9754C984.65,-78.0272 1008.84,-67.0705 1032,-62 1070.33,-53.6065 1114.18,-53.8561 1149.66,-56.4352"/>
<polygon fill="#9a32cd" stroke="#9a32cd" points="963.936,-85.0384 956.831,-92.898 967.286,-91.1844 963.936,-85.0384"/>
<text text-anchor="middle" x="1070" y="-65" font-family="Helvetica,sans-Serif" font-size="10.00"> myWorkspace</text>
</g>
<!-- Node4 -->
<g id="node4" class="node"><title>Node4</title>
<polygon fill="white" stroke="#bfbfbf" points="584,-213.5 584,-232.5 616,-232.5 616,-213.5 584,-213.5"/>
<text text-anchor="middle" x="600" y="-220.5" font-family="Helvetica,sans-Serif" font-size="10.00">Tab</text>
</g>
<!-- Node4&#45;&gt;Node3 -->
<g id="edge3" class="edge"><title>Node4&#45;&gt;Node3</title>
<path fill="none" stroke="midnightblue" d="M626.244,-221.078C669.484,-217.084 759.842,-205.646 830,-176 861.523,-162.68 893.444,-138.754 912.477,-123.128"/>
<polygon fill="midnightblue" stroke="midnightblue" points="625.728,-217.61 616.067,-221.959 626.332,-224.584 625.728,-217.61"/>
</g>
<!-- Node5 -->
<g id="node5" class="node"><title>Node5</title>
<g id="a_node5"><a xlink:href="../../d0/d23/classgui_1_1mainclasses_1_1workspace_1_1_workspace_data_holder.html" target="_top" xlink:title="gui.mainclasses.workspace.\lWorkspaceDataHolder">
<polygon fill="white" stroke="black" points="525.5,-164 525.5,-194 674.5,-194 674.5,-164 525.5,-164"/>
<text text-anchor="start" x="533.5" y="-182" font-family="Helvetica,sans-Serif" font-size="10.00">gui.mainclasses.workspace.</text>
<text text-anchor="middle" x="600" y="-171" font-family="Helvetica,sans-Serif" font-size="10.00">WorkspaceDataHolder</text>
</a>
</g>
</g>
<!-- Node5&#45;&gt;Node3 -->
<g id="edge4" class="edge"><title>Node5&#45;&gt;Node3</title>
<path fill="none" stroke="#9a32cd" stroke-dasharray="5,2" d="M684.651,-166.381C728.232,-159.213 782.255,-149.396 830,-138 847.807,-133.75 867.128,-128.183 883.998,-123.001"/>
<polygon fill="#9a32cd" stroke="#9a32cd" points="683.973,-162.945 674.665,-168.007 685.098,-169.854 683.973,-162.945"/>
<text text-anchor="middle" x="773" y="-164" font-family="Helvetica,sans-Serif" font-size="10.00"> myDataHolder</text>
</g>
<!-- Node6 -->
<g id="node6" class="node"><title>Node6</title>
<polygon fill="white" stroke="#bfbfbf" points="0.5,-261 0.5,-291 319.5,-291 319.5,-261 0.5,-261"/>
<text text-anchor="start" x="8.5" y="-279" font-family="Helvetica,sans-Serif" font-size="10.00">ObservableList&lt; gui.nonbuttonfeatures.tableviews.imageindex.</text>
<text text-anchor="middle" x="160" y="-268" font-family="Helvetica,sans-Serif" font-size="10.00">ImageIndex &gt;</text>
</g>
<!-- Node6&#45;&gt;Node5 -->
<g id="edge5" class="edge"><title>Node6&#45;&gt;Node5</title>
<path fill="none" stroke="#9a32cd" stroke-dasharray="5,2" d="M267.177,-259.325C284.82,-256.548 302.926,-253.696 320,-251 392.896,-239.491 419.581,-261.008 484,-225 494.73,-219.002 491.567,-210.501 502,-204 509.232,-199.494 517.25,-195.797 525.487,-192.764"/>
<polygon fill="#9a32cd" stroke="#9a32cd" points="266.188,-255.937 256.854,-260.949 267.276,-262.852 266.188,-255.937"/>
<text text-anchor="middle" x="411" y="-252" font-family="Helvetica,sans-Serif" font-size="10.00"> myImageIndexList</text>
</g>
<!-- Node7 -->
<g id="node7" class="node"><title>Node7</title>
<polygon fill="white" stroke="#bfbfbf" points="4,-212 4,-242 316,-242 316,-212 4,-212"/>
<text text-anchor="start" x="12" y="-230" font-family="Helvetica,sans-Serif" font-size="10.00">ObservableList&lt; gui.nonbuttonfeatures.tableviews.colorindex.</text>
<text text-anchor="middle" x="160" y="-219" font-family="Helvetica,sans-Serif" font-size="10.00">ColorIndex &gt;</text>
</g>
<!-- Node7&#45;&gt;Node5 -->
<g id="edge6" class="edge"><title>Node7&#45;&gt;Node5</title>
<path fill="none" stroke="#9a32cd" stroke-dasharray="5,2" d="M326.401,-210.997C377.01,-205.859 432.821,-199.951 484,-194 497.4,-192.442 511.663,-190.672 525.419,-188.908"/>
<polygon fill="#9a32cd" stroke="#9a32cd" points="325.948,-207.525 316.351,-212.014 326.653,-214.489 325.948,-207.525"/>
<text text-anchor="middle" x="411" y="-213" font-family="Helvetica,sans-Serif" font-size="10.00"> myColorIndexList</text>
</g>
<!-- Node8 -->
<g id="node8" class="node"><title>Node8</title>
<polygon fill="white" stroke="#bfbfbf" points="72.5,-163 72.5,-193 247.5,-193 247.5,-163 72.5,-163"/>
<text text-anchor="start" x="80.5" y="-181" font-family="Helvetica,sans-Serif" font-size="10.00">ObservableList&lt; gui.variableslist.</text>
<text text-anchor="middle" x="160" y="-170" font-family="Helvetica,sans-Serif" font-size="10.00">WorkspaceVariable &gt;</text>
</g>
<!-- Node8&#45;&gt;Node5 -->
<g id="edge7" class="edge"><title>Node8&#45;&gt;Node5</title>
<path fill="none" stroke="#9a32cd" stroke-dasharray="5,2" d="M257.71,-178.221C338.457,-178.405 451.85,-178.664 525.374,-178.832"/>
<polygon fill="#9a32cd" stroke="#9a32cd" points="257.543,-174.721 247.535,-178.198 257.527,-181.72 257.543,-174.721"/>
<text text-anchor="middle" x="411" y="-182" font-family="Helvetica,sans-Serif" font-size="10.00"> myVariablesList</text>
</g>
<!-- Node9 -->
<g id="node9" class="node"><title>Node9</title>
<polygon fill="white" stroke="#bfbfbf" points="91,-124.5 91,-143.5 229,-143.5 229,-124.5 91,-124.5"/>
<text text-anchor="middle" x="160" y="-131.5" font-family="Helvetica,sans-Serif" font-size="10.00">ObservableList&lt; String &gt;</text>
</g>
<!-- Node9&#45;&gt;Node5 -->
<g id="edge8" class="edge"><title>Node9&#45;&gt;Node5</title>
<path fill="none" stroke="#9a32cd" stroke-dasharray="5,2" d="M239.33,-135.029C304.963,-136.746 400.98,-141.254 484,-153 502.747,-155.652 522.961,-159.783 541.134,-163.976"/>
<polygon fill="#9a32cd" stroke="#9a32cd" points="239.147,-131.523 229.064,-134.776 238.975,-138.521 239.147,-131.523"/>
<text text-anchor="middle" x="411" y="-167" font-family="Helvetica,sans-Serif" font-size="10.00"> myPreviousCommandsList</text>
<text text-anchor="middle" x="411" y="-156" font-family="Helvetica,sans-Serif" font-size="10.00">mySavedCommandsList</text>
</g>
<!-- Node10 -->
<g id="node10" class="node"><title>Node10</title>
<polygon fill="white" stroke="#bfbfbf" points="23.5,-75 23.5,-105 296.5,-105 296.5,-75 23.5,-75"/>
<text text-anchor="start" x="31.5" y="-93" font-family="Helvetica,sans-Serif" font-size="10.00">ObservableList&lt; gui.factories.userdefinedcommands.</text>
<text text-anchor="middle" x="160" y="-82" font-family="Helvetica,sans-Serif" font-size="10.00">DisplayedUserCommand &gt;</text>
</g>
<!-- Node10&#45;&gt;Node5 -->
<g id="edge9" class="edge"><title>Node10&#45;&gt;Node5</title>
<path fill="none" stroke="#9a32cd" stroke-dasharray="5,2" d="M306.806,-78.9829C365.746,-81.0633 431.988,-92.2736 484,-125 496.84,-133.079 489.776,-145.017 502,-154 509.007,-159.149 516.977,-163.241 525.266,-166.491"/>
<polygon fill="#9a32cd" stroke="#9a32cd" points="306.745,-75.48 296.655,-78.7111 306.557,-82.4775 306.745,-75.48"/>
<text text-anchor="middle" x="411" y="-128" font-family="Helvetica,sans-Serif" font-size="10.00"> myUserDefinedCommandList</text>
</g>
<!-- Node11 -->
<g id="node11" class="node"><title>Node11</title>
<polygon fill="white" stroke="#bfbfbf" points="502.5,-115 502.5,-145 697.5,-145 697.5,-115 502.5,-115"/>
<text text-anchor="start" x="510.5" y="-133" font-family="Helvetica,sans-Serif" font-size="10.00">Map&lt; String, gui.componentdrawers.</text>
<text text-anchor="middle" x="600" y="-122" font-family="Helvetica,sans-Serif" font-size="10.00">ComponentDrawer &gt;</text>
</g>
<!-- Node11&#45;&gt;Node3 -->
<g id="edge10" class="edge"><title>Node11&#45;&gt;Node3</title>
<path fill="none" stroke="#9a32cd" stroke-dasharray="5,2" d="M708.162,-122.834C756.682,-119.59 812.809,-115.836 856.467,-112.917"/>
<polygon fill="#9a32cd" stroke="#9a32cd" points="707.676,-119.359 697.931,-123.518 708.143,-126.343 707.676,-119.359"/>
<text text-anchor="middle" x="773" y="-126" font-family="Helvetica,sans-Serif" font-size="10.00"> myComponentDrawers</text>
</g>
<!-- Node12 -->
<g id="node12" class="node"><title>Node12</title>
<g id="a_node12"><a xlink:href="../../dd/d4c/classgui_1_1componentdrawers_1_1_turtle_screen_drawer.html" target="_top" xlink:title="gui.componentdrawers.Turtle\lScreenDrawer">
<polygon fill="white" stroke="black" points="1426.5,-177 1426.5,-207 1581.5,-207 1581.5,-177 1426.5,-177"/>
<text text-anchor="start" x="1434.5" y="-195" font-family="Helvetica,sans-Serif" font-size="10.00">gui.componentdrawers.Turtle</text>
<text text-anchor="middle" x="1504" y="-184" font-family="Helvetica,sans-Serif" font-size="10.00">ScreenDrawer</text>
</a>
</g>
</g>
<!-- Node12&#45;&gt;Node3 -->
<g id="edge11" class="edge"><title>Node12&#45;&gt;Node3</title>
<path fill="none" stroke="#9a32cd" stroke-dasharray="5,2" d="M1456.26,-173.101C1418.12,-158.594 1362.48,-139.492 1312,-130 1255.34,-119.346 1099.36,-112.994 1005.79,-110.03"/>
<polygon fill="#9a32cd" stroke="#9a32cd" points="1455.46,-176.543 1466.05,-176.87 1457.97,-170.01 1455.46,-176.543"/>
<text text-anchor="middle" x="1219" y="-133" font-family="Helvetica,sans-Serif" font-size="10.00"> myTurtleScreenDrawer</text>
</g>
<!-- Node13 -->
<g id="node13" class="node"><title>Node13</title>
<g id="a_node13"><a xlink:href="../../d0/dda/classgui_1_1componentdrawers_1_1_component_drawer.html" target="_top" xlink:title="gui.componentdrawers.Component\lDrawer">
<polygon fill="white" stroke="black" points="1126.5,-287 1126.5,-317 1311.5,-317 1311.5,-287 1126.5,-287"/>
<text text-anchor="start" x="1134.5" y="-305" font-family="Helvetica,sans-Serif" font-size="10.00">gui.componentdrawers.Component</text>
<text text-anchor="middle" x="1219" y="-294" font-family="Helvetica,sans-Serif" font-size="10.00">Drawer</text>
</a>
</g>
</g>
<!-- Node13&#45;&gt;Node12 -->
<g id="edge12" class="edge"><title>Node13&#45;&gt;Node12</title>
<path fill="none" stroke="midnightblue" d="M1287.97,-284.149C1296.09,-281.833 1304.25,-279.422 1312,-277 1355.2,-263.5 1366.61,-261.313 1408,-243 1432.14,-232.321 1458.51,-217.934 1477.32,-207.164"/>
<polygon fill="midnightblue" stroke="midnightblue" points="1286.78,-280.847 1278.1,-286.922 1288.68,-287.586 1286.78,-280.847"/>
</g>
<!-- Node14 -->
<g id="node14" class="node"><title>Node14</title>
<polygon fill="white" stroke="#bfbfbf" points="911,-292.5 911,-311.5 951,-311.5 951,-292.5 911,-292.5"/>
<text text-anchor="middle" x="931" y="-299.5" font-family="Helvetica,sans-Serif" font-size="10.00">Pane</text>
</g>
<!-- Node14&#45;&gt;Node12 -->
<g id="edge16" class="edge"><title>Node14&#45;&gt;Node12</title>
<path fill="none" stroke="#9a32cd" stroke-dasharray="5,2" d="M961.274,-310.016C1025.83,-326.366 1184.79,-359.322 1312,-326 1388.8,-305.882 1459.96,-238.021 1489.1,-207.317"/>
<polygon fill="#9a32cd" stroke="#9a32cd" points="961.95,-306.575 951.391,-307.454 960.193,-313.351 961.95,-306.575"/>
<text text-anchor="middle" x="1219" y="-344" font-family="Helvetica,sans-Serif" font-size="10.00"> myGrid</text>
</g>
<!-- Node14&#45;&gt;Node13 -->
<g id="edge13" class="edge"><title>Node14&#45;&gt;Node13</title>
<path fill="none" stroke="midnightblue" d="M961.21,-302C999.711,-302 1069.23,-302 1126.24,-302"/>
<polygon fill="midnightblue" stroke="midnightblue" points="961.209,-298.5 951.209,-302 961.209,-305.5 961.209,-298.5"/>
</g>
<!-- Node15 -->
<g id="node15" class="node"><title>Node15</title>
<g id="a_node15"><a xlink:href="../../dd/d6a/classgui_1_1nonbuttonfeatures_1_1_turtle_screen_feature.html" target="_top" xlink:title="gui.nonbuttonfeatures.Turtle\lScreenFeature">
<polygon fill="white" stroke="black" points="1143,-238 1143,-268 1295,-268 1295,-238 1143,-238"/>
<text text-anchor="start" x="1151" y="-256" font-family="Helvetica,sans-Serif" font-size="10.00">gui.nonbuttonfeatures.Turtle</text>
<text text-anchor="middle" x="1219" y="-245" font-family="Helvetica,sans-Serif" font-size="10.00">ScreenFeature</text>
</a>
</g>
</g>
<!-- Node14&#45;&gt;Node15 -->
<g id="edge15" class="edge"><title>Node14&#45;&gt;Node15</title>
<path fill="none" stroke="midnightblue" d="M961.115,-297.012C1003.4,-289.767 1083.25,-276.087 1142.75,-265.893"/>
<polygon fill="midnightblue" stroke="midnightblue" points="960.475,-293.57 951.209,-298.709 961.657,-300.47 960.475,-293.57"/>
</g>
<!-- Node15&#45;&gt;Node12 -->
<g id="edge14" class="edge"><title>Node15&#45;&gt;Node12</title>
<path fill="none" stroke="#9a32cd" stroke-dasharray="5,2" d="M1299.52,-235.86C1341.56,-226.799 1392.69,-215.776 1433.19,-207.048"/>
<polygon fill="#9a32cd" stroke="#9a32cd" points="1298.63,-232.471 1289.59,-238 1300.11,-239.314 1298.63,-232.471"/>
<text text-anchor="middle" x="1369" y="-231" font-family="Helvetica,sans-Serif" font-size="10.00"> myTurtleScreen</text>
</g>
<!-- Node16&#45;&gt;Node3 -->
<g id="edge22" class="edge"><title>Node16&#45;&gt;Node3</title>
<path fill="none" stroke="#9a32cd" stroke-dasharray="5,2" d="M1139.85,-76.7503C1098.01,-83.0402 1046.78,-90.7425 1005.65,-96.9264"/>
<polygon fill="#9a32cd" stroke="#9a32cd" points="1140.62,-80.1729 1149.99,-75.2249 1139.58,-73.2507 1140.62,-80.1729"/>
<text text-anchor="middle" x="1070" y="-96" font-family="Helvetica,sans-Serif" font-size="10.00"> myTurtleNodes</text>
</g>
<!-- Node16&#45;&gt;Node12 -->
<g id="edge17" class="edge"><title>Node16&#45;&gt;Node12</title>
<path fill="none" stroke="#9a32cd" stroke-dasharray="5,2" d="M1298.23,-67.0297C1333.39,-70.6126 1374.43,-78.6513 1408,-96 1445.49,-115.379 1477.23,-154.967 1492.77,-176.765"/>
<polygon fill="#9a32cd" stroke="#9a32cd" points="1298.28,-63.5196 1288,-66.0942 1297.64,-70.4906 1298.28,-63.5196"/>
<text text-anchor="middle" x="1369" y="-99" font-family="Helvetica,sans-Serif" font-size="10.00"> myTurtleNodes</text>
</g>
<!-- Node17 -->
<g id="node17" class="node"><title>Node17</title>
<polygon fill="white" stroke="#bfbfbf" points="848,-12 848,-42 1014,-42 1014,-12 848,-12"/>
<text text-anchor="start" x="856" y="-30" font-family="Helvetica,sans-Serif" font-size="10.00">List&lt; gui.factories.turtlefactory.</text>
<text text-anchor="middle" x="931" y="-19" font-family="Helvetica,sans-Serif" font-size="10.00">TurtleNode &gt;</text>
</g>
<!-- Node17&#45;&gt;Node16 -->
<g id="edge19" class="edge"><title>Node17&#45;&gt;Node16</title>
<path fill="none" stroke="#9a32cd" stroke-dasharray="5,2" d="M1024.62,-22.016C1051.65,-22.0447 1081.14,-23.5253 1108,-28 1133.64,-32.2712 1161.37,-41.6329 1182.57,-49.8703"/>
<polygon fill="#9a32cd" stroke="#9a32cd" points="1024.37,-18.5173 1014.39,-22.0729 1024.41,-25.5172 1024.37,-18.5173"/>
<text text-anchor="middle" x="1070" y="-31" font-family="Helvetica,sans-Serif" font-size="10.00"> myTurtleNodes</text>
</g>
<!-- Node18 -->
<g id="node18" class="node"><title>Node18</title>
<polygon fill="white" stroke="#bfbfbf" points="1198.5,-150.5 1198.5,-169.5 1239.5,-169.5 1239.5,-150.5 1198.5,-150.5"/>
<text text-anchor="middle" x="1219" y="-157.5" font-family="Helvetica,sans-Serif" font-size="10.00">Color</text>
</g>
<!-- Node18&#45;&gt;Node12 -->
<g id="edge20" class="edge"><title>Node18&#45;&gt;Node12</title>
<path fill="none" stroke="#9a32cd" stroke-dasharray="5,2" d="M1249.93,-163.384C1291.52,-168.087 1368.22,-176.76 1426.33,-183.33"/>
<polygon fill="#9a32cd" stroke="#9a32cd" points="1250.23,-159.896 1239.9,-162.25 1249.44,-166.852 1250.23,-159.896"/>
<text text-anchor="middle" x="1369" y="-184" font-family="Helvetica,sans-Serif" font-size="10.00"> myScreenColor</text>
</g>
<!-- Node19 -->
<g id="node19" class="node"><title>Node19</title>
<g id="a_node19"><a xlink:href="../../d1/d60/classgui_1_1factories_1_1_object_factory.html" target="_top" xlink:title="gui.factories.ObjectFactory">
<polygon fill="white" stroke="black" points="528.5,-76.5 528.5,-95.5 671.5,-95.5 671.5,-76.5 528.5,-76.5"/>
<text text-anchor="middle" x="600" y="-83.5" font-family="Helvetica,sans-Serif" font-size="10.00">gui.factories.ObjectFactory</text>
</a>
</g>
</g>
<!-- Node19&#45;&gt;Node3 -->
<g id="edge21" class="edge"><title>Node19&#45;&gt;Node3</title>
<path fill="none" stroke="#9a32cd" stroke-dasharray="5,2" d="M681.707,-91.198C725.572,-94.0455 780.767,-97.6645 830,-101 838.508,-101.576 847.423,-102.189 856.277,-102.802"/>
<polygon fill="#9a32cd" stroke="#9a32cd" points="681.876,-87.7017 671.671,-90.5471 681.423,-94.687 681.876,-87.7017"/>
<text text-anchor="middle" x="773" y="-104" font-family="Helvetica,sans-Serif" font-size="10.00"> myObjectFactories</text>
</g>
<!-- Node20 -->
<g id="node20" class="node"><title>Node20</title>
<g id="a_node20"><a xlink:href="../../da/d55/interface_control_1_1_slogo_graphics.html" target="_top" xlink:title="Control.SlogoGraphics">
<polygon fill="white" stroke="black" points="538.5,-38.5 538.5,-57.5 661.5,-57.5 661.5,-38.5 538.5,-38.5"/>
<text text-anchor="middle" x="600" y="-45.5" font-family="Helvetica,sans-Serif" font-size="10.00">Control.SlogoGraphics</text>
</a>
</g>
</g>
<!-- Node20&#45;&gt;Node3 -->
<g id="edge23" class="edge"><title>Node20&#45;&gt;Node3</title>
<path fill="none" stroke="#9a32cd" stroke-dasharray="5,2" d="M671.746,-54.8467C717.238,-59.9197 777.452,-67.8874 830,-79 847.685,-82.74 866.813,-87.9832 883.557,-92.9845"/>
<polygon fill="#9a32cd" stroke="#9a32cd" points="672.009,-51.3546 661.687,-53.7452 671.247,-58.313 672.009,-51.3546"/>
<text text-anchor="middle" x="773" y="-82" font-family="Helvetica,sans-Serif" font-size="10.00"> myControl</text>
</g>
<!-- Node21 -->
<g id="node21" class="node"><title>Node21</title>
<polygon fill="white" stroke="#bfbfbf" points="564,-0.5 564,-19.5 636,-19.5 636,-0.5 564,-0.5"/>
<text text-anchor="middle" x="600" y="-7.5" font-family="Helvetica,sans-Serif" font-size="10.00">BorderPane</text>
</g>
<!-- Node21&#45;&gt;Node3 -->
<g id="edge24" class="edge"><title>Node21&#45;&gt;Node3</title>
<path fill="none" stroke="#9a32cd" stroke-dasharray="5,2" d="M646.434,-11.8326C693.629,-14.9449 768.967,-23.3426 830,-46 860.449,-57.3035 891.65,-78.4829 910.924,-92.9101"/>
<polygon fill="#9a32cd" stroke="#9a32cd" points="646.421,-8.32543 636.228,-11.2132 645.997,-15.3126 646.421,-8.32543"/>
<text text-anchor="middle" x="773" y="-49" font-family="Helvetica,sans-Serif" font-size="10.00"> myPane</text>
</g>
</g>
</svg>
