<?xml version="1.0" encoding="UTF-8" standalone="no"?>
<!DOCTYPE svg PUBLIC "-//W3C//DTD SVG 1.1//EN"
 "http://www.w3.org/Graphics/SVG/1.1/DTD/svg11.dtd">
<!-- Generated by graphviz version 2.36.0 (20140111.2315)
 -->
<!-- Title: commandParsing.floatCommandParsing.FloatInputCommandParser Pages: 1 -->
<svg width="1346pt" height="1490pt"
 viewBox="0.00 0.00 1346.00 1490.00" xmlns="http://www.w3.org/2000/svg" xmlns:xlink="http://www.w3.org/1999/xlink">
<g id="graph0" class="graph" transform="scale(1 1) rotate(0) translate(4 1486)">
<title>commandParsing.floatCommandParsing.FloatInputCommandParser</title>
<polygon fill="white" stroke="none" points="-4,4 -4,-1486 1342,-1486 1342,4 -4,4"/>
<!-- Node1 -->
<g id="node1" class="node"><title>Node1</title>
<polygon fill="#bfbfbf" stroke="black" points="220,-1084 220,-1114 402,-1114 402,-1084 220,-1084"/>
<text text-anchor="start" x="228" y="-1102" font-family="Helvetica,sans-Serif" font-size="10.00">commandParsing.floatCommand</text>
<text text-anchor="middle" x="311" y="-1091" font-family="Helvetica,sans-Serif" font-size="10.00">Parsing.FloatInputCommandParser</text>
</g>
<!-- Node3 -->
<g id="node3" class="node"><title>Node3</title>
<g id="a_node3"><a xlink:href="../../dd/dff/classcommand_parsing_1_1color_commandparsing_1_1_set_palette.html" target="_top" xlink:title="commandParsing.colorCommandparsing.\lSetPalette">
<polygon fill="white" stroke="black" points="438.5,-1133 438.5,-1163 653.5,-1163 653.5,-1133 438.5,-1133"/>
<text text-anchor="start" x="446.5" y="-1151" font-family="Helvetica,sans-Serif" font-size="10.00">commandParsing.colorCommandparsing.</text>
<text text-anchor="middle" x="546" y="-1140" font-family="Helvetica,sans-Serif" font-size="10.00">SetPalette</text>
</a>
</g>
</g>
<!-- Node1&#45;&gt;Node3 -->
<g id="edge2" class="edge"><title>Node1&#45;&gt;Node3</title>
<path fill="none" stroke="midnightblue" d="M393.372,-1116.11C419.52,-1121.61 448.272,-1127.66 473.644,-1132.99"/>
<polygon fill="midnightblue" stroke="midnightblue" points="393.997,-1112.67 383.491,-1114.03 392.557,-1119.52 393.997,-1112.67"/>
</g>
<!-- Node4 -->
<g id="node4" class="node"><title>Node4</title>
<g id="a_node4"><a xlink:href="../../d3/d00/classcommand_parsing_1_1float_command_parsing_1_1_one_input_float_command_parser.html" target="_top" xlink:title="commandParsing.floatCommand\lParsing.OneInputFloatCommandParser">
<polygon fill="white" stroke="black" points="445.5,-1084 445.5,-1114 646.5,-1114 646.5,-1084 445.5,-1084"/>
<text text-anchor="start" x="453.5" y="-1102" font-family="Helvetica,sans-Serif" font-size="10.00">commandParsing.floatCommand</text>
<text text-anchor="middle" x="546" y="-1091" font-family="Helvetica,sans-Serif" font-size="10.00">Parsing.OneInputFloatCommandParser</text>
</a>
</g>
</g>
<!-- Node1&#45;&gt;Node4 -->
<g id="edge3" class="edge"><title>Node1&#45;&gt;Node4</title>
<path fill="none" stroke="midnightblue" d="M412.158,-1099C423.202,-1099 434.445,-1099 445.481,-1099"/>
<polygon fill="midnightblue" stroke="midnightblue" points="412.084,-1095.5 402.084,-1099 412.084,-1102.5 412.084,-1095.5"/>
</g>
<!-- Node24 -->
<g id="node24" class="node"><title>Node24</title>
<g id="a_node24"><a xlink:href="../../d7/d99/classcommand_parsing_1_1float_command_parsing_1_1_two_input_float_command_parser.html" target="_top" xlink:title="commandParsing.floatCommand\lParsing.TwoInputFloatCommandParser">
<polygon fill="white" stroke="black" points="447,-380 447,-410 645,-410 645,-380 447,-380"/>
<text text-anchor="start" x="455" y="-398" font-family="Helvetica,sans-Serif" font-size="10.00">commandParsing.floatCommand</text>
<text text-anchor="middle" x="546" y="-387" font-family="Helvetica,sans-Serif" font-size="10.00">Parsing.TwoInputFloatCommandParser</text>
</a>
</g>
</g>
<!-- Node1&#45;&gt;Node24 -->
<g id="edge23" class="edge"><title>Node1&#45;&gt;Node24</title>
<path fill="none" stroke="midnightblue" d="M320.214,-1074.18C357.493,-961.544 510.247,-500.006 539.973,-410.188"/>
<polygon fill="midnightblue" stroke="midnightblue" points="316.794,-1073.38 316.974,-1083.97 323.439,-1075.58 316.794,-1073.38"/>
</g>
<!-- Node2 -->
<g id="node2" class="node"><title>Node2</title>
<g id="a_node2"><a xlink:href="../../d7/d17/classcommand_parsing_1_1_command_parser.html" target="_top" xlink:title="commandParsing.CommandParser">
<polygon fill="white" stroke="black" points="0.5,-1089.5 0.5,-1108.5 183.5,-1108.5 183.5,-1089.5 0.5,-1089.5"/>
<text text-anchor="middle" x="92" y="-1096.5" font-family="Helvetica,sans-Serif" font-size="10.00">commandParsing.CommandParser</text>
</a>
</g>
</g>
<!-- Node2&#45;&gt;Node1 -->
<g id="edge1" class="edge"><title>Node2&#45;&gt;Node1</title>
<path fill="none" stroke="midnightblue" d="M193.92,-1099C202.603,-1099 211.352,-1099 219.941,-1099"/>
<polygon fill="midnightblue" stroke="midnightblue" points="193.77,-1095.5 183.77,-1099 193.77,-1102.5 193.77,-1095.5"/>
</g>
<!-- Node5 -->
<g id="node5" class="node"><title>Node5</title>
<g id="a_node5"><a xlink:href="../../d8/d04/classcommand_parsing_1_1boolean_command_parsing_1_1_not.html" target="_top" xlink:title="commandParsing.booleanCommand\lParsing.Not">
<polygon fill="white" stroke="black" points="702.5,-1452 702.5,-1482 893.5,-1482 893.5,-1452 702.5,-1452"/>
<text text-anchor="start" x="710.5" y="-1470" font-family="Helvetica,sans-Serif" font-size="10.00">commandParsing.booleanCommand</text>
<text text-anchor="middle" x="798" y="-1459" font-family="Helvetica,sans-Serif" font-size="10.00">Parsing.Not</text>
</a>
</g>
</g>
<!-- Node4&#45;&gt;Node5 -->
<g id="edge4" class="edge"><title>Node4&#45;&gt;Node5</title>
<path fill="none" stroke="midnightblue" d="M650.786,-1120.67C651.897,-1121.73 652.97,-1122.84 654,-1124 748.534,-1230.27 595.466,-1335.73 690,-1442 693.677,-1446.13 697.894,-1449.65 702.481,-1452.64"/>
<polygon fill="midnightblue" stroke="midnightblue" points="652.904,-1117.88 642.93,-1114.3 648.497,-1123.32 652.904,-1117.88"/>
</g>
<!-- Node6 -->
<g id="node6" class="node"><title>Node6</title>
<g id="a_node6"><a xlink:href="../../d7/dac/classcommand_parsing_1_1color_commandparsing_1_1_set_background.html" target="_top" xlink:title="commandParsing.colorCommandparsing.\lSetBackground">
<polygon fill="white" stroke="black" points="690.5,-1403 690.5,-1433 905.5,-1433 905.5,-1403 690.5,-1403"/>
<text text-anchor="start" x="698.5" y="-1421" font-family="Helvetica,sans-Serif" font-size="10.00">commandParsing.colorCommandparsing.</text>
<text text-anchor="middle" x="798" y="-1410" font-family="Helvetica,sans-Serif" font-size="10.00">SetBackground</text>
</a>
</g>
</g>
<!-- Node4&#45;&gt;Node6 -->
<g id="edge5" class="edge"><title>Node4&#45;&gt;Node6</title>
<path fill="none" stroke="midnightblue" d="M650.272,-1120.25C651.565,-1121.44 652.81,-1122.69 654,-1124 735.08,-1213.31 608.92,-1303.69 690,-1393 693.462,-1396.81 697.384,-1400.1 701.631,-1402.93"/>
<polygon fill="midnightblue" stroke="midnightblue" points="652.402,-1117.47 642.369,-1114.07 648.09,-1122.99 652.402,-1117.47"/>
</g>
<!-- Node7 -->
<g id="node7" class="node"><title>Node7</title>
<g id="a_node7"><a xlink:href="../../d1/d8a/classcommand_parsing_1_1math_command_parsing_1_1_arc_tangent.html" target="_top" xlink:title="commandParsing.mathCommand\lParsing.ArcTangent">
<polygon fill="white" stroke="black" points="708.5,-1354 708.5,-1384 887.5,-1384 887.5,-1354 708.5,-1354"/>
<text text-anchor="start" x="716.5" y="-1372" font-family="Helvetica,sans-Serif" font-size="10.00">commandParsing.mathCommand</text>
<text text-anchor="middle" x="798" y="-1361" font-family="Helvetica,sans-Serif" font-size="10.00">Parsing.ArcTangent</text>
</a>
</g>
</g>
<!-- Node4&#45;&gt;Node7 -->
<g id="edge6" class="edge"><title>Node4&#45;&gt;Node7</title>
<path fill="none" stroke="midnightblue" d="M650.219,-1120.3C651.529,-1121.47 652.791,-1122.71 654,-1124 721.661,-1196.38 622.339,-1271.62 690,-1344 695.276,-1349.64 701.561,-1354.13 708.403,-1357.68"/>
<polygon fill="midnightblue" stroke="midnightblue" points="652.305,-1117.49 642.237,-1114.19 648.052,-1123.05 652.305,-1117.49"/>
</g>
<!-- Node8 -->
<g id="node8" class="node"><title>Node8</title>
<g id="a_node8"><a xlink:href="../../df/d1a/classcommand_parsing_1_1math_command_parsing_1_1_cosine.html" target="_top" xlink:title="commandParsing.mathCommand\lParsing.Cosine">
<polygon fill="white" stroke="black" points="708.5,-1305 708.5,-1335 887.5,-1335 887.5,-1305 708.5,-1305"/>
<text text-anchor="start" x="716.5" y="-1323" font-family="Helvetica,sans-Serif" font-size="10.00">commandParsing.mathCommand</text>
<text text-anchor="middle" x="798" y="-1312" font-family="Helvetica,sans-Serif" font-size="10.00">Parsing.Cosine</text>
</a>
</g>
</g>
<!-- Node4&#45;&gt;Node8 -->
<g id="edge7" class="edge"><title>Node4&#45;&gt;Node8</title>
<path fill="none" stroke="midnightblue" d="M649.99,-1120.25C651.377,-1121.44 652.716,-1122.69 654,-1124 708.31,-1179.52 635.69,-1239.48 690,-1295 695.336,-1300.45 701.617,-1304.82 708.417,-1308.29"/>
<polygon fill="midnightblue" stroke="midnightblue" points="651.69,-1117.16 641.552,-1114.08 647.56,-1122.81 651.69,-1117.16"/>
</g>
<!-- Node9 -->
<g id="node9" class="node"><title>Node9</title>
<g id="a_node9"><a xlink:href="../../d5/de2/classcommand_parsing_1_1math_command_parsing_1_1_minus.html" target="_top" xlink:title="commandParsing.mathCommand\lParsing.Minus">
<polygon fill="white" stroke="black" points="708.5,-1256 708.5,-1286 887.5,-1286 887.5,-1256 708.5,-1256"/>
<text text-anchor="start" x="716.5" y="-1274" font-family="Helvetica,sans-Serif" font-size="10.00">commandParsing.mathCommand</text>
<text text-anchor="middle" x="798" y="-1263" font-family="Helvetica,sans-Serif" font-size="10.00">Parsing.Minus</text>
</a>
</g>
</g>
<!-- Node4&#45;&gt;Node9 -->
<g id="edge8" class="edge"><title>Node4&#45;&gt;Node9</title>
<path fill="none" stroke="midnightblue" d="M649.288,-1119.95C650.918,-1121.23 652.492,-1122.58 654,-1124 695.106,-1162.81 648.894,-1207.19 690,-1246 695.41,-1251.11 701.654,-1255.24 708.354,-1258.57"/>
<polygon fill="midnightblue" stroke="midnightblue" points="650.949,-1116.85 640.703,-1114.15 647.03,-1122.65 650.949,-1116.85"/>
</g>
<!-- Node10 -->
<g id="node10" class="node"><title>Node10</title>
<g id="a_node10"><a xlink:href="../../d1/d8b/classcommand_parsing_1_1math_command_parsing_1_1_natural_log.html" target="_top" xlink:title="commandParsing.mathCommand\lParsing.NaturalLog">
<polygon fill="white" stroke="black" points="708.5,-1207 708.5,-1237 887.5,-1237 887.5,-1207 708.5,-1207"/>
<text text-anchor="start" x="716.5" y="-1225" font-family="Helvetica,sans-Serif" font-size="10.00">commandParsing.mathCommand</text>
<text text-anchor="middle" x="798" y="-1214" font-family="Helvetica,sans-Serif" font-size="10.00">Parsing.NaturalLog</text>
</a>
</g>
</g>
<!-- Node4&#45;&gt;Node10 -->
<g id="edge9" class="edge"><title>Node4&#45;&gt;Node10</title>
<path fill="none" stroke="midnightblue" d="M647.362,-1119.26C649.657,-1120.74 651.876,-1122.31 654,-1124 682.33,-1146.5 661.67,-1174.5 690,-1197 695.602,-1201.45 701.86,-1205.13 708.459,-1208.17"/>
<polygon fill="midnightblue" stroke="midnightblue" points="648.592,-1115.94 638.162,-1114.08 645.154,-1122.04 648.592,-1115.94"/>
</g>
<!-- Node11 -->
<g id="node11" class="node"><title>Node11</title>
<g id="a_node11"><a xlink:href="../../d3/d90/classcommand_parsing_1_1math_command_parsing_1_1_random.html" target="_top" xlink:title="commandParsing.mathCommand\lParsing.Random">
<polygon fill="white" stroke="black" points="708.5,-1158 708.5,-1188 887.5,-1188 887.5,-1158 708.5,-1158"/>
<text text-anchor="start" x="716.5" y="-1176" font-family="Helvetica,sans-Serif" font-size="10.00">commandParsing.mathCommand</text>
<text text-anchor="middle" x="798" y="-1165" font-family="Helvetica,sans-Serif" font-size="10.00">Parsing.Random</text>
</a>
</g>
</g>
<!-- Node4&#45;&gt;Node11 -->
<g id="edge10" class="edge"><title>Node4&#45;&gt;Node11</title>
<path fill="none" stroke="midnightblue" d="M635.895,-1117.14C642.106,-1119.21 648.199,-1121.49 654,-1124 671.645,-1131.64 672.355,-1140.36 690,-1148 698.84,-1151.83 708.356,-1155.12 717.938,-1157.94"/>
<polygon fill="midnightblue" stroke="midnightblue" points="636.651,-1113.71 626.062,-1114.06 634.562,-1120.39 636.651,-1113.71"/>
</g>
<!-- Node12 -->
<g id="node12" class="node"><title>Node12</title>
<g id="a_node12"><a xlink:href="../../d7/d6d/classcommand_parsing_1_1math_command_parsing_1_1_sine.html" target="_top" xlink:title="commandParsing.mathCommand\lParsing.Sine">
<polygon fill="white" stroke="black" points="708.5,-1109 708.5,-1139 887.5,-1139 887.5,-1109 708.5,-1109"/>
<text text-anchor="start" x="716.5" y="-1127" font-family="Helvetica,sans-Serif" font-size="10.00">commandParsing.mathCommand</text>
<text text-anchor="middle" x="798" y="-1116" font-family="Helvetica,sans-Serif" font-size="10.00">Parsing.Sine</text>
</a>
</g>
</g>
<!-- Node4&#45;&gt;Node12 -->
<g id="edge11" class="edge"><title>Node4&#45;&gt;Node12</title>
<path fill="none" stroke="midnightblue" d="M656.644,-1109.96C673.926,-1111.69 691.606,-1113.46 708.334,-1115.13"/>
<polygon fill="midnightblue" stroke="midnightblue" points="656.824,-1106.46 646.525,-1108.95 656.127,-1113.43 656.824,-1106.46"/>
</g>
<!-- Node13 -->
<g id="node13" class="node"><title>Node13</title>
<g id="a_node13"><a xlink:href="../../d0/da5/classcommand_parsing_1_1math_command_parsing_1_1_tangent.html" target="_top" xlink:title="commandParsing.mathCommand\lParsing.Tangent">
<polygon fill="white" stroke="black" points="708.5,-1060 708.5,-1090 887.5,-1090 887.5,-1060 708.5,-1060"/>
<text text-anchor="start" x="716.5" y="-1078" font-family="Helvetica,sans-Serif" font-size="10.00">commandParsing.mathCommand</text>
<text text-anchor="middle" x="798" y="-1067" font-family="Helvetica,sans-Serif" font-size="10.00">Parsing.Tangent</text>
</a>
</g>
</g>
<!-- Node4&#45;&gt;Node13 -->
<g id="edge12" class="edge"><title>Node4&#45;&gt;Node13</title>
<path fill="none" stroke="midnightblue" d="M656.644,-1088.47C673.926,-1086.82 691.606,-1085.12 708.334,-1083.51"/>
<polygon fill="midnightblue" stroke="midnightblue" points="656.145,-1085.01 646.525,-1089.45 656.814,-1091.97 656.145,-1085.01"/>
</g>
<!-- Node14 -->
<g id="node14" class="node"><title>Node14</title>
<g id="a_node14"><a xlink:href="../../d1/d76/classcommand_parsing_1_1turtle_command_parsing_1_1turtle_attribute_setters_1_1_set_heading.html" target="_top" xlink:title="commandParsing.turtleCommand\lParsing.turtleAttributeSetters.\lSetHeading">
<polygon fill="white" stroke="black" points="708.5,-1000.5 708.5,-1041.5 887.5,-1041.5 887.5,-1000.5 708.5,-1000.5"/>
<text text-anchor="start" x="716.5" y="-1029.5" font-family="Helvetica,sans-Serif" font-size="10.00">commandParsing.turtleCommand</text>
<text text-anchor="start" x="716.5" y="-1018.5" font-family="Helvetica,sans-Serif" font-size="10.00">Parsing.turtleAttributeSetters.</text>
<text text-anchor="middle" x="798" y="-1007.5" font-family="Helvetica,sans-Serif" font-size="10.00">SetHeading</text>
</a>
</g>
</g>
<!-- Node4&#45;&gt;Node14 -->
<g id="edge13" class="edge"><title>Node4&#45;&gt;Node14</title>
<path fill="none" stroke="midnightblue" d="M598.352,-1080.49C625.468,-1070.95 659.385,-1059.38 690,-1050 699.293,-1047.15 709.083,-1044.3 718.813,-1041.55"/>
<polygon fill="midnightblue" stroke="midnightblue" points="596.95,-1077.28 588.688,-1083.91 599.283,-1083.88 596.95,-1077.28"/>
</g>
<!-- Node15 -->
<g id="node15" class="node"><title>Node15</title>
<g id="a_node15"><a xlink:href="../../da/d45/classcommand_parsing_1_1turtle_command_parsing_1_1turtle_attribute_setters_1_1_set_pen_color.html" target="_top" xlink:title="commandParsing.turtleCommand\lParsing.turtleAttributeSetters.\lSetPenColor">
<polygon fill="white" stroke="black" points="708.5,-940.5 708.5,-981.5 887.5,-981.5 887.5,-940.5 708.5,-940.5"/>
<text text-anchor="start" x="716.5" y="-969.5" font-family="Helvetica,sans-Serif" font-size="10.00">commandParsing.turtleCommand</text>
<text text-anchor="start" x="716.5" y="-958.5" font-family="Helvetica,sans-Serif" font-size="10.00">Parsing.turtleAttributeSetters.</text>
<text text-anchor="middle" x="798" y="-947.5" font-family="Helvetica,sans-Serif" font-size="10.00">SetPenColor</text>
</a>
</g>
</g>
<!-- Node4&#45;&gt;Node15 -->
<g id="edge14" class="edge"><title>Node4&#45;&gt;Node15</title>
<path fill="none" stroke="midnightblue" d="M570.514,-1076.77C597.424,-1052.46 643.77,-1013.91 690,-991 697.087,-987.488 704.649,-984.331 712.352,-981.506"/>
<polygon fill="midnightblue" stroke="midnightblue" points="567.82,-1074.5 562.808,-1083.83 572.547,-1079.66 567.82,-1074.5"/>
</g>
<!-- Node16 -->
<g id="node16" class="node"><title>Node16</title>
<g id="a_node16"><a xlink:href="../../d8/d64/classcommand_parsing_1_1turtle_command_parsing_1_1turtle_attribute_setters_1_1_set_pen_size.html" target="_top" xlink:title="commandParsing.turtleCommand\lParsing.turtleAttributeSetters.\lSetPenSize">
<polygon fill="white" stroke="black" points="708.5,-880.5 708.5,-921.5 887.5,-921.5 887.5,-880.5 708.5,-880.5"/>
<text text-anchor="start" x="716.5" y="-909.5" font-family="Helvetica,sans-Serif" font-size="10.00">commandParsing.turtleCommand</text>
<text text-anchor="start" x="716.5" y="-898.5" font-family="Helvetica,sans-Serif" font-size="10.00">Parsing.turtleAttributeSetters.</text>
<text text-anchor="middle" x="798" y="-887.5" font-family="Helvetica,sans-Serif" font-size="10.00">SetPenSize</text>
</a>
</g>
</g>
<!-- Node4&#45;&gt;Node16 -->
<g id="edge15" class="edge"><title>Node4&#45;&gt;Node16</title>
<path fill="none" stroke="midnightblue" d="M560.971,-1074.83C583.43,-1038.16 631.074,-968.727 690,-931 695.768,-927.307 701.994,-924.061 708.44,-921.21"/>
<polygon fill="midnightblue" stroke="midnightblue" points="557.713,-1073.46 555.564,-1083.84 563.714,-1077.07 557.713,-1073.46"/>
</g>
<!-- Node17 -->
<g id="node17" class="node"><title>Node17</title>
<g id="a_node17"><a xlink:href="../../d9/db7/classcommand_parsing_1_1turtle_command_parsing_1_1turtle_attribute_setters_1_1_set_shape.html" target="_top" xlink:title="commandParsing.turtleCommand\lParsing.turtleAttributeSetters.\lSetShape">
<polygon fill="white" stroke="black" points="708.5,-820.5 708.5,-861.5 887.5,-861.5 887.5,-820.5 708.5,-820.5"/>
<text text-anchor="start" x="716.5" y="-849.5" font-family="Helvetica,sans-Serif" font-size="10.00">commandParsing.turtleCommand</text>
<text text-anchor="start" x="716.5" y="-838.5" font-family="Helvetica,sans-Serif" font-size="10.00">Parsing.turtleAttributeSetters.</text>
<text text-anchor="middle" x="798" y="-827.5" font-family="Helvetica,sans-Serif" font-size="10.00">SetShape</text>
</a>
</g>
</g>
<!-- Node4&#45;&gt;Node17 -->
<g id="edge16" class="edge"><title>Node4&#45;&gt;Node17</title>
<path fill="none" stroke="midnightblue" d="M555.621,-1074.12C573.216,-1027.07 617.809,-924.973 690,-871 695.64,-866.783 701.847,-863.159 708.344,-860.045"/>
<polygon fill="midnightblue" stroke="midnightblue" points="552.227,-1073.21 552.092,-1083.8 558.804,-1075.6 552.227,-1073.21"/>
</g>
<!-- Node18 -->
<g id="node18" class="node"><title>Node18</title>
<g id="a_node18"><a xlink:href="../../d6/d37/classcommand_parsing_1_1turtle_command_parsing_1_1turtle_movement_1_1_move.html" target="_top" xlink:title="commandParsing.turtleCommand\lParsing.turtleMovement.Move">
<polygon fill="white" stroke="black" points="708.5,-772 708.5,-802 887.5,-802 887.5,-772 708.5,-772"/>
<text text-anchor="start" x="716.5" y="-790" font-family="Helvetica,sans-Serif" font-size="10.00">commandParsing.turtleCommand</text>
<text text-anchor="middle" x="798" y="-779" font-family="Helvetica,sans-Serif" font-size="10.00">Parsing.turtleMovement.Move</text>
</a>
</g>
</g>
<!-- Node4&#45;&gt;Node18 -->
<g id="edge17" class="edge"><title>Node4&#45;&gt;Node18</title>
<path fill="none" stroke="midnightblue" d="M551.819,-1074.06C564.074,-1017.72 601.91,-880.117 690,-811 695.617,-806.593 701.884,-802.962 708.49,-799.975"/>
<polygon fill="midnightblue" stroke="midnightblue" points="548.382,-1073.4 549.762,-1083.91 555.234,-1074.83 548.382,-1073.4"/>
</g>
<!-- Node21 -->
<g id="node21" class="node"><title>Node21</title>
<g id="a_node21"><a xlink:href="../../dd/d66/classcommand_parsing_1_1turtle_command_parsing_1_1turtle_movement_1_1_rotate.html" target="_top" xlink:title="commandParsing.turtleCommand\lParsing.turtleMovement.Rotate">
<polygon fill="white" stroke="black" points="708.5,-723 708.5,-753 887.5,-753 887.5,-723 708.5,-723"/>
<text text-anchor="start" x="716.5" y="-741" font-family="Helvetica,sans-Serif" font-size="10.00">commandParsing.turtleCommand</text>
<text text-anchor="middle" x="798" y="-730" font-family="Helvetica,sans-Serif" font-size="10.00">Parsing.turtleMovement.Rotate</text>
</a>
</g>
</g>
<!-- Node4&#45;&gt;Node21 -->
<g id="edge20" class="edge"><title>Node4&#45;&gt;Node21</title>
<path fill="none" stroke="midnightblue" d="M549.948,-1073.43C558.667,-1010.11 590.308,-845.133 690,-762 695.556,-757.367 701.82,-753.58 708.46,-750.491"/>
<polygon fill="midnightblue" stroke="midnightblue" points="546.431,-1073.33 548.615,-1083.7 553.373,-1074.23 546.431,-1073.33"/>
</g>
<!-- Node19 -->
<g id="node19" class="node"><title>Node19</title>
<g id="a_node19"><a xlink:href="../../d9/d5e/classcommand_parsing_1_1turtle_command_parsing_1_1turtle_movement_1_1_backward.html" target="_top" xlink:title="commandParsing.turtleCommand\lParsing.turtleMovement.Backward">
<polygon fill="white" stroke="black" points="942.5,-821 942.5,-851 1121.5,-851 1121.5,-821 942.5,-821"/>
<text text-anchor="start" x="950.5" y="-839" font-family="Helvetica,sans-Serif" font-size="10.00">commandParsing.turtleCommand</text>
<text text-anchor="middle" x="1032" y="-828" font-family="Helvetica,sans-Serif" font-size="10.00">Parsing.turtleMovement.Backward</text>
</a>
</g>
</g>
<!-- Node18&#45;&gt;Node19 -->
<g id="edge18" class="edge"><title>Node18&#45;&gt;Node19</title>
<path fill="none" stroke="midnightblue" d="M880.023,-804.113C906.058,-809.611 934.687,-815.658 959.95,-820.994"/>
<polygon fill="midnightblue" stroke="midnightblue" points="880.692,-800.677 870.184,-802.035 879.245,-807.526 880.692,-800.677"/>
</g>
<!-- Node20 -->
<g id="node20" class="node"><title>Node20</title>
<g id="a_node20"><a xlink:href="../../da/d78/classcommand_parsing_1_1turtle_command_parsing_1_1turtle_movement_1_1_forward.html" target="_top" xlink:title="commandParsing.turtleCommand\lParsing.turtleMovement.Forward">
<polygon fill="white" stroke="black" points="942.5,-772 942.5,-802 1121.5,-802 1121.5,-772 942.5,-772"/>
<text text-anchor="start" x="950.5" y="-790" font-family="Helvetica,sans-Serif" font-size="10.00">commandParsing.turtleCommand</text>
<text text-anchor="middle" x="1032" y="-779" font-family="Helvetica,sans-Serif" font-size="10.00">Parsing.turtleMovement.Forward</text>
</a>
</g>
</g>
<!-- Node18&#45;&gt;Node20 -->
<g id="edge19" class="edge"><title>Node18&#45;&gt;Node20</title>
<path fill="none" stroke="midnightblue" d="M897.861,-787C912.639,-787 927.797,-787 942.347,-787"/>
<polygon fill="midnightblue" stroke="midnightblue" points="897.702,-783.5 887.702,-787 897.702,-790.5 897.702,-783.5"/>
</g>
<!-- Node22 -->
<g id="node22" class="node"><title>Node22</title>
<g id="a_node22"><a xlink:href="../../d8/dfc/classcommand_parsing_1_1turtle_command_parsing_1_1turtle_movement_1_1_left.html" target="_top" xlink:title="commandParsing.turtleCommand\lParsing.turtleMovement.Left">
<polygon fill="white" stroke="black" points="942.5,-723 942.5,-753 1121.5,-753 1121.5,-723 942.5,-723"/>
<text text-anchor="start" x="950.5" y="-741" font-family="Helvetica,sans-Serif" font-size="10.00">commandParsing.turtleCommand</text>
<text text-anchor="middle" x="1032" y="-730" font-family="Helvetica,sans-Serif" font-size="10.00">Parsing.turtleMovement.Left</text>
</a>
</g>
</g>
<!-- Node21&#45;&gt;Node22 -->
<g id="edge21" class="edge"><title>Node21&#45;&gt;Node22</title>
<path fill="none" stroke="midnightblue" d="M897.861,-738C912.639,-738 927.797,-738 942.347,-738"/>
<polygon fill="midnightblue" stroke="midnightblue" points="897.702,-734.5 887.702,-738 897.702,-741.5 897.702,-734.5"/>
</g>
<!-- Node23 -->
<g id="node23" class="node"><title>Node23</title>
<g id="a_node23"><a xlink:href="../../d0/dea/classcommand_parsing_1_1turtle_command_parsing_1_1turtle_movement_1_1_right.html" target="_top" xlink:title="commandParsing.turtleCommand\lParsing.turtleMovement.Right">
<polygon fill="white" stroke="black" points="942.5,-674 942.5,-704 1121.5,-704 1121.5,-674 942.5,-674"/>
<text text-anchor="start" x="950.5" y="-692" font-family="Helvetica,sans-Serif" font-size="10.00">commandParsing.turtleCommand</text>
<text text-anchor="middle" x="1032" y="-681" font-family="Helvetica,sans-Serif" font-size="10.00">Parsing.turtleMovement.Right</text>
</a>
</g>
</g>
<!-- Node21&#45;&gt;Node23 -->
<g id="edge22" class="edge"><title>Node21&#45;&gt;Node23</title>
<path fill="none" stroke="midnightblue" d="M880.023,-720.887C906.058,-715.389 934.687,-709.342 959.95,-704.006"/>
<polygon fill="midnightblue" stroke="midnightblue" points="879.245,-717.474 870.184,-722.965 880.692,-724.323 879.245,-717.474"/>
</g>
<!-- Node25 -->
<g id="node25" class="node"><title>Node25</title>
<g id="a_node25"><a xlink:href="../../d2/dd5/classcommand_parsing_1_1boolean_command_parsing_1_1_and.html" target="_top" xlink:title="commandParsing.booleanCommand\lParsing.And">
<polygon fill="white" stroke="black" points="702.5,-674 702.5,-704 893.5,-704 893.5,-674 702.5,-674"/>
<text text-anchor="start" x="710.5" y="-692" font-family="Helvetica,sans-Serif" font-size="10.00">commandParsing.booleanCommand</text>
<text text-anchor="middle" x="798" y="-681" font-family="Helvetica,sans-Serif" font-size="10.00">Parsing.And</text>
</a>
</g>
</g>
<!-- Node24&#45;&gt;Node25 -->
<g id="edge24" class="edge"><title>Node24&#45;&gt;Node25</title>
<path fill="none" stroke="midnightblue" d="M552.843,-420.059C566.713,-473.717 606.864,-600.028 690,-664 694.989,-667.839 700.47,-671.104 706.233,-673.879"/>
<polygon fill="midnightblue" stroke="midnightblue" points="556.162,-418.903 550.346,-410.048 549.371,-420.598 556.162,-418.903"/>
</g>
<!-- Node26 -->
<g id="node26" class="node"><title>Node26</title>
<g id="a_node26"><a xlink:href="../../d7/d4f/classcommand_parsing_1_1boolean_command_parsing_1_1_equal.html" target="_top" xlink:title="commandParsing.booleanCommand\lParsing.Equal">
<polygon fill="white" stroke="black" points="702.5,-625 702.5,-655 893.5,-655 893.5,-625 702.5,-625"/>
<text text-anchor="start" x="710.5" y="-643" font-family="Helvetica,sans-Serif" font-size="10.00">commandParsing.booleanCommand</text>
<text text-anchor="middle" x="798" y="-632" font-family="Helvetica,sans-Serif" font-size="10.00">Parsing.Equal</text>
</a>
</g>
</g>
<!-- Node24&#45;&gt;Node26 -->
<g id="edge25" class="edge"><title>Node24&#45;&gt;Node26</title>
<path fill="none" stroke="midnightblue" d="M555.797,-419.633C573.56,-465.669 618.244,-564.637 690,-615 695.543,-618.891 701.607,-622.183 707.939,-624.968"/>
<polygon fill="midnightblue" stroke="midnightblue" points="559.023,-418.269 552.228,-410.141 552.471,-420.733 559.023,-418.269"/>
</g>
<!-- Node27 -->
<g id="node27" class="node"><title>Node27</title>
<g id="a_node27"><a xlink:href="../../d9/dfe/classcommand_parsing_1_1boolean_command_parsing_1_1_greater_than.html" target="_top" xlink:title="commandParsing.booleanCommand\lParsing.GreaterThan">
<polygon fill="white" stroke="black" points="702.5,-576 702.5,-606 893.5,-606 893.5,-576 702.5,-576"/>
<text text-anchor="start" x="710.5" y="-594" font-family="Helvetica,sans-Serif" font-size="10.00">commandParsing.booleanCommand</text>
<text text-anchor="middle" x="798" y="-583" font-family="Helvetica,sans-Serif" font-size="10.00">Parsing.GreaterThan</text>
</a>
</g>
</g>
<!-- Node24&#45;&gt;Node27 -->
<g id="edge26" class="edge"><title>Node24&#45;&gt;Node27</title>
<path fill="none" stroke="midnightblue" d="M560.05,-418.881C581.826,-456.366 629.242,-528.587 690,-566 696.335,-569.901 703.223,-573.194 710.349,-575.973"/>
<polygon fill="midnightblue" stroke="midnightblue" points="563.063,-417.1 555.073,-410.142 556.98,-420.564 563.063,-417.1"/>
</g>
<!-- Node28 -->
<g id="node28" class="node"><title>Node28</title>
<g id="a_node28"><a xlink:href="../../d9/dbc/classcommand_parsing_1_1boolean_command_parsing_1_1_less_than.html" target="_top" xlink:title="commandParsing.booleanCommand\lParsing.LessThan">
<polygon fill="white" stroke="black" points="702.5,-527 702.5,-557 893.5,-557 893.5,-527 702.5,-527"/>
<text text-anchor="start" x="710.5" y="-545" font-family="Helvetica,sans-Serif" font-size="10.00">commandParsing.booleanCommand</text>
<text text-anchor="middle" x="798" y="-534" font-family="Helvetica,sans-Serif" font-size="10.00">Parsing.LessThan</text>
</a>
</g>
</g>
<!-- Node24&#45;&gt;Node28 -->
<g id="edge27" class="edge"><title>Node24&#45;&gt;Node28</title>
<path fill="none" stroke="midnightblue" d="M567.304,-418.04C593.062,-445.793 640.163,-491.815 690,-517 697.662,-520.872 705.936,-524.155 714.371,-526.937"/>
<polygon fill="midnightblue" stroke="midnightblue" points="569.647,-415.416 560.318,-410.394 564.479,-420.137 569.647,-415.416"/>
</g>
<!-- Node29 -->
<g id="node29" class="node"><title>Node29</title>
<g id="a_node29"><a xlink:href="../../dc/dfd/classcommand_parsing_1_1boolean_command_parsing_1_1_not_equal.html" target="_top" xlink:title="commandParsing.booleanCommand\lParsing.NotEqual">
<polygon fill="white" stroke="black" points="702.5,-478 702.5,-508 893.5,-508 893.5,-478 702.5,-478"/>
<text text-anchor="start" x="710.5" y="-496" font-family="Helvetica,sans-Serif" font-size="10.00">commandParsing.booleanCommand</text>
<text text-anchor="middle" x="798" y="-485" font-family="Helvetica,sans-Serif" font-size="10.00">Parsing.NotEqual</text>
</a>
</g>
</g>
<!-- Node24&#45;&gt;Node29 -->
<g id="edge28" class="edge"><title>Node24&#45;&gt;Node29</title>
<path fill="none" stroke="midnightblue" d="M580.685,-415.156C609.017,-431.375 651.026,-453.74 690,-468 700.212,-471.736 711.18,-475.048 722.063,-477.94"/>
<polygon fill="midnightblue" stroke="midnightblue" points="582.397,-412.103 571.989,-410.124 578.891,-418.161 582.397,-412.103"/>
</g>
<!-- Node30 -->
<g id="node30" class="node"><title>Node30</title>
<g id="a_node30"><a xlink:href="../../d5/dbb/classcommand_parsing_1_1boolean_command_parsing_1_1_or.html" target="_top" xlink:title="commandParsing.booleanCommand\lParsing.Or">
<polygon fill="white" stroke="black" points="702.5,-429 702.5,-459 893.5,-459 893.5,-429 702.5,-429"/>
<text text-anchor="start" x="710.5" y="-447" font-family="Helvetica,sans-Serif" font-size="10.00">commandParsing.booleanCommand</text>
<text text-anchor="middle" x="798" y="-436" font-family="Helvetica,sans-Serif" font-size="10.00">Parsing.Or</text>
</a>
</g>
</g>
<!-- Node24&#45;&gt;Node30 -->
<g id="edge29" class="edge"><title>Node24&#45;&gt;Node30</title>
<path fill="none" stroke="midnightblue" d="M633.569,-411.967C661.821,-417.505 692.974,-423.611 720.438,-428.994"/>
<polygon fill="midnightblue" stroke="midnightblue" points="634.194,-408.523 623.707,-410.035 632.847,-415.393 634.194,-408.523"/>
</g>
<!-- Node31 -->
<g id="node31" class="node"><title>Node31</title>
<g id="a_node31"><a xlink:href="../../d5/d42/classcommand_parsing_1_1math_command_parsing_1_1_difference.html" target="_top" xlink:title="commandParsing.mathCommand\lParsing.Difference">
<polygon fill="white" stroke="black" points="708.5,-380 708.5,-410 887.5,-410 887.5,-380 708.5,-380"/>
<text text-anchor="start" x="716.5" y="-398" font-family="Helvetica,sans-Serif" font-size="10.00">commandParsing.mathCommand</text>
<text text-anchor="middle" x="798" y="-387" font-family="Helvetica,sans-Serif" font-size="10.00">Parsing.Difference</text>
</a>
</g>
</g>
<!-- Node24&#45;&gt;Node31 -->
<g id="edge30" class="edge"><title>Node24&#45;&gt;Node31</title>
<path fill="none" stroke="midnightblue" d="M655.396,-395C673.009,-395 691.069,-395 708.144,-395"/>
<polygon fill="midnightblue" stroke="midnightblue" points="655.089,-391.5 645.089,-395 655.089,-398.5 655.089,-391.5"/>
</g>
<!-- Node32 -->
<g id="node32" class="node"><title>Node32</title>
<g id="a_node32"><a xlink:href="../../d6/d5c/classcommand_parsing_1_1math_command_parsing_1_1_power.html" target="_top" xlink:title="commandParsing.mathCommand\lParsing.Power">
<polygon fill="white" stroke="black" points="708.5,-331 708.5,-361 887.5,-361 887.5,-331 708.5,-331"/>
<text text-anchor="start" x="716.5" y="-349" font-family="Helvetica,sans-Serif" font-size="10.00">commandParsing.mathCommand</text>
<text text-anchor="middle" x="798" y="-338" font-family="Helvetica,sans-Serif" font-size="10.00">Parsing.Power</text>
</a>
</g>
</g>
<!-- Node24&#45;&gt;Node32 -->
<g id="edge31" class="edge"><title>Node24&#45;&gt;Node32</title>
<path fill="none" stroke="midnightblue" d="M633.569,-378.033C661.821,-372.495 692.974,-366.389 720.438,-361.006"/>
<polygon fill="midnightblue" stroke="midnightblue" points="632.847,-374.607 623.707,-379.965 634.194,-381.477 632.847,-374.607"/>
</g>
<!-- Node33 -->
<g id="node33" class="node"><title>Node33</title>
<g id="a_node33"><a xlink:href="../../df/d1a/classcommand_parsing_1_1math_command_parsing_1_1_product.html" target="_top" xlink:title="commandParsing.mathCommand\lParsing.Product">
<polygon fill="white" stroke="black" points="708.5,-282 708.5,-312 887.5,-312 887.5,-282 708.5,-282"/>
<text text-anchor="start" x="716.5" y="-300" font-family="Helvetica,sans-Serif" font-size="10.00">commandParsing.mathCommand</text>
<text text-anchor="middle" x="798" y="-289" font-family="Helvetica,sans-Serif" font-size="10.00">Parsing.Product</text>
</a>
</g>
</g>
<!-- Node24&#45;&gt;Node33 -->
<g id="edge32" class="edge"><title>Node24&#45;&gt;Node33</title>
<path fill="none" stroke="midnightblue" d="M580.102,-374.752C608.395,-358.218 650.654,-335.322 690,-321 699.213,-317.646 709.05,-314.671 718.886,-312.057"/>
<polygon fill="midnightblue" stroke="midnightblue" points="578.256,-371.777 571.428,-379.878 581.818,-377.803 578.256,-371.777"/>
</g>
<!-- Node34 -->
<g id="node34" class="node"><title>Node34</title>
<g id="a_node34"><a xlink:href="../../db/d56/classcommand_parsing_1_1math_command_parsing_1_1_quotient.html" target="_top" xlink:title="commandParsing.mathCommand\lParsing.Quotient">
<polygon fill="white" stroke="black" points="708.5,-233 708.5,-263 887.5,-263 887.5,-233 708.5,-233"/>
<text text-anchor="start" x="716.5" y="-251" font-family="Helvetica,sans-Serif" font-size="10.00">commandParsing.mathCommand</text>
<text text-anchor="middle" x="798" y="-240" font-family="Helvetica,sans-Serif" font-size="10.00">Parsing.Quotient</text>
</a>
</g>
</g>
<!-- Node24&#45;&gt;Node34 -->
<g id="edge33" class="edge"><title>Node24&#45;&gt;Node34</title>
<path fill="none" stroke="midnightblue" d="M566.819,-372.138C592.407,-344.126 639.663,-297.285 690,-272 696.89,-268.539 704.278,-265.572 711.834,-263.031"/>
<polygon fill="midnightblue" stroke="midnightblue" points="563.975,-370.066 559.893,-379.843 569.181,-374.746 563.975,-370.066"/>
</g>
<!-- Node35 -->
<g id="node35" class="node"><title>Node35</title>
<g id="a_node35"><a xlink:href="../../d8/d03/classcommand_parsing_1_1math_command_parsing_1_1_remainder.html" target="_top" xlink:title="commandParsing.mathCommand\lParsing.Remainder">
<polygon fill="white" stroke="black" points="708.5,-184 708.5,-214 887.5,-214 887.5,-184 708.5,-184"/>
<text text-anchor="start" x="716.5" y="-202" font-family="Helvetica,sans-Serif" font-size="10.00">commandParsing.mathCommand</text>
<text text-anchor="middle" x="798" y="-191" font-family="Helvetica,sans-Serif" font-size="10.00">Parsing.Remainder</text>
</a>
</g>
</g>
<!-- Node24&#45;&gt;Node35 -->
<g id="edge34" class="edge"><title>Node24&#45;&gt;Node35</title>
<path fill="none" stroke="midnightblue" d="M559.974,-370.915C581.646,-333.123 628.92,-260.358 690,-223 695.766,-219.474 701.99,-216.464 708.434,-213.895"/>
<polygon fill="midnightblue" stroke="midnightblue" points="556.87,-369.294 555.023,-379.727 562.973,-372.723 556.87,-369.294"/>
</g>
<!-- Node36 -->
<g id="node36" class="node"><title>Node36</title>
<g id="a_node36"><a xlink:href="../../dc/db9/classcommand_parsing_1_1math_command_parsing_1_1_sum.html" target="_top" xlink:title="commandParsing.mathCommand\lParsing.Sum">
<polygon fill="white" stroke="black" points="708.5,-135 708.5,-165 887.5,-165 887.5,-135 708.5,-135"/>
<text text-anchor="start" x="716.5" y="-153" font-family="Helvetica,sans-Serif" font-size="10.00">commandParsing.mathCommand</text>
<text text-anchor="middle" x="798" y="-142" font-family="Helvetica,sans-Serif" font-size="10.00">Parsing.Sum</text>
</a>
</g>
</g>
<!-- Node24&#45;&gt;Node36 -->
<g id="edge35" class="edge"><title>Node24&#45;&gt;Node36</title>
<path fill="none" stroke="midnightblue" d="M555.723,-370.197C573.361,-323.854 617.843,-224.279 690,-174 695.701,-170.027 701.952,-166.7 708.48,-163.914"/>
<polygon fill="midnightblue" stroke="midnightblue" points="552.374,-369.161 552.181,-379.754 558.938,-371.593 552.374,-369.161"/>
</g>
<!-- Node37 -->
<g id="node37" class="node"><title>Node37</title>
<g id="a_node37"><a xlink:href="../../da/d63/classcommand_parsing_1_1turtle_command_parsing_1_1turtle_attribute_setters_1_1_set_towards.html" target="_top" xlink:title="commandParsing.turtleCommand\lParsing.turtleAttributeSetters.\lSetTowards">
<polygon fill="white" stroke="black" points="708.5,-75.5 708.5,-116.5 887.5,-116.5 887.5,-75.5 708.5,-75.5"/>
<text text-anchor="start" x="716.5" y="-104.5" font-family="Helvetica,sans-Serif" font-size="10.00">commandParsing.turtleCommand</text>
<text text-anchor="start" x="716.5" y="-93.5" font-family="Helvetica,sans-Serif" font-size="10.00">Parsing.turtleAttributeSetters.</text>
<text text-anchor="middle" x="798" y="-82.5" font-family="Helvetica,sans-Serif" font-size="10.00">SetTowards</text>
</a>
</g>
</g>
<!-- Node24&#45;&gt;Node37 -->
<g id="edge36" class="edge"><title>Node24&#45;&gt;Node37</title>
<path fill="none" stroke="midnightblue" d="M553.089,-369.692C567.333,-316.057 608.007,-190.521 690,-125 695.563,-120.554 701.753,-116.788 708.273,-113.598"/>
<polygon fill="midnightblue" stroke="midnightblue" points="549.613,-369.153 550.516,-379.71 556.393,-370.895 549.613,-369.153"/>
</g>
<!-- Node38 -->
<g id="node38" class="node"><title>Node38</title>
<g id="a_node38"><a xlink:href="../../d9/dab/classcommand_parsing_1_1turtle_command_parsing_1_1turtle_movement_1_1_move_to_location.html" target="_top" xlink:title="commandParsing.turtleCommand\lParsing.turtleMovement.MoveToLocation">
<polygon fill="white" stroke="black" points="693.5,-27 693.5,-57 902.5,-57 902.5,-27 693.5,-27"/>
<text text-anchor="start" x="701.5" y="-45" font-family="Helvetica,sans-Serif" font-size="10.00">commandParsing.turtleCommand</text>
<text text-anchor="middle" x="798" y="-34" font-family="Helvetica,sans-Serif" font-size="10.00">Parsing.turtleMovement.MoveToLocation</text>
</a>
</g>
</g>
<!-- Node24&#45;&gt;Node38 -->
<g id="edge37" class="edge"><title>Node24&#45;&gt;Node38</title>
<path fill="none" stroke="midnightblue" d="M550.214,-369.596C559.485,-307.432 592.182,-146.85 690,-66 694.109,-62.6039 698.599,-59.6636 703.338,-57.12"/>
<polygon fill="midnightblue" stroke="midnightblue" points="546.721,-369.299 548.788,-379.691 553.652,-370.278 546.721,-369.299"/>
</g>
<!-- Node39 -->
<g id="node39" class="node"><title>Node39</title>
<g id="a_node39"><a xlink:href="../../d4/d74/classcommand_parsing_1_1turtle_command_parsing_1_1turtle_attribute_setters_1_1_set_position.html" target="_top" xlink:title="commandParsing.turtleCommand\lParsing.turtleAttributeSetters.\lSetPosition">
<polygon fill="white" stroke="black" points="942.5,-48.5 942.5,-89.5 1121.5,-89.5 1121.5,-48.5 942.5,-48.5"/>
<text text-anchor="start" x="950.5" y="-77.5" font-family="Helvetica,sans-Serif" font-size="10.00">commandParsing.turtleCommand</text>
<text text-anchor="start" x="950.5" y="-66.5" font-family="Helvetica,sans-Serif" font-size="10.00">Parsing.turtleAttributeSetters.</text>
<text text-anchor="middle" x="1032" y="-55.5" font-family="Helvetica,sans-Serif" font-size="10.00">SetPosition</text>
</a>
</g>
</g>
<!-- Node38&#45;&gt;Node39 -->
<g id="edge38" class="edge"><title>Node38&#45;&gt;Node39</title>
<path fill="none" stroke="midnightblue" d="M912.987,-55.2658C922.795,-56.4071 932.621,-57.5507 942.186,-58.6639"/>
<polygon fill="midnightblue" stroke="midnightblue" points="913.123,-51.7581 902.786,-54.0785 912.314,-58.7111 913.123,-51.7581"/>
</g>
<!-- Node40 -->
<g id="node40" class="node"><title>Node40</title>
<g id="a_node40"><a xlink:href="../../dd/d8a/classcommand_parsing_1_1turtle_command_parsing_1_1turtle_movement_1_1_home.html" target="_top" xlink:title="commandParsing.turtleCommand\lParsing.turtleMovement.Home">
<polygon fill="white" stroke="black" points="942.5,-0 942.5,-30 1121.5,-30 1121.5,-0 942.5,-0"/>
<text text-anchor="start" x="950.5" y="-18" font-family="Helvetica,sans-Serif" font-size="10.00">commandParsing.turtleCommand</text>
<text text-anchor="middle" x="1032" y="-7" font-family="Helvetica,sans-Serif" font-size="10.00">Parsing.turtleMovement.Home</text>
</a>
</g>
</g>
<!-- Node38&#45;&gt;Node40 -->
<g id="edge39" class="edge"><title>Node38&#45;&gt;Node40</title>
<path fill="none" stroke="midnightblue" d="M912.987,-28.7342C922.795,-27.5929 932.621,-26.4493 942.186,-25.3361"/>
<polygon fill="midnightblue" stroke="midnightblue" points="912.314,-25.2889 902.786,-29.9215 913.123,-32.2419 912.314,-25.2889"/>
</g>
<!-- Node41 -->
<g id="node41" class="node"><title>Node41</title>
<g id="a_node41"><a xlink:href="../../dd/dc5/classcommand_parsing_1_1turtle_command_parsing_1_1_clear_screen.html" target="_top" xlink:title="commandParsing.turtleCommand\lParsing.ClearScreen">
<polygon fill="white" stroke="black" points="1158.5,-0 1158.5,-30 1337.5,-30 1337.5,-0 1158.5,-0"/>
<text text-anchor="start" x="1166.5" y="-18" font-family="Helvetica,sans-Serif" font-size="10.00">commandParsing.turtleCommand</text>
<text text-anchor="middle" x="1248" y="-7" font-family="Helvetica,sans-Serif" font-size="10.00">Parsing.ClearScreen</text>
</a>
</g>
</g>
<!-- Node40&#45;&gt;Node41 -->
<g id="edge40" class="edge"><title>Node40&#45;&gt;Node41</title>
<path fill="none" stroke="midnightblue" d="M1131.65,-15C1140.6,-15 1149.62,-15 1158.48,-15"/>
<polygon fill="midnightblue" stroke="midnightblue" points="1131.59,-11.5001 1121.59,-15 1131.59,-18.5001 1131.59,-11.5001"/>
</g>
</g>
</svg>
