<?xml version="1.0" encoding="UTF-8" standalone="no"?>
<!DOCTYPE svg PUBLIC "-//W3C//DTD SVG 1.1//EN"
 "http://www.w3.org/Graphics/SVG/1.1/DTD/svg11.dtd">
<!-- Generated by graphviz version 2.36.0 (20140111.2315)
 -->
<!-- Title: commandParsing.structuralCommandParsing.If.parse Pages: 1 -->
<svg width="914pt" height="338pt"
 viewBox="0.00 0.00 914.00 338.00" xmlns="http://www.w3.org/2000/svg" xmlns:xlink="http://www.w3.org/1999/xlink">
<g id="graph0" class="graph" transform="scale(1 1) rotate(0) translate(4 334)">
<title>commandParsing.structuralCommandParsing.If.parse</title>
<polygon fill="white" stroke="none" points="-4,4 -4,-334 910,-334 910,4 -4,4"/>
<!-- Node1 -->
<g id="node1" class="node"><title>Node1</title>
<polygon fill="#bfbfbf" stroke="black" points="0.5,-156 0.5,-186 149.5,-186 149.5,-156 0.5,-156"/>
<text text-anchor="start" x="8.5" y="-174" font-family="Helvetica,sans-Serif" font-size="10.00">commandParsing.structural</text>
<text text-anchor="middle" x="75" y="-163" font-family="Helvetica,sans-Serif" font-size="10.00">CommandParsing.If.parse</text>
</g>
<!-- Node2 -->
<g id="node2" class="node"><title>Node2</title>
<g id="a_node2"><a xlink:href="../../d7/d17/classcommand_parsing_1_1_command_parser.html#a663a439263fd1c59baab79f31742f1d7" target="_top" xlink:title="commandParsing.CommandParser.accumulate\lComponents">
<polygon fill="white" stroke="black" points="186,-240 186,-270 428,-270 428,-240 186,-240"/>
<text text-anchor="start" x="194" y="-258" font-family="Helvetica,sans-Serif" font-size="10.00">commandParsing.CommandParser.accumulate</text>
<text text-anchor="middle" x="307" y="-247" font-family="Helvetica,sans-Serif" font-size="10.00">Components</text>
</a>
</g>
</g>
<!-- Node1&#45;&gt;Node2 -->
<g id="edge1" class="edge"><title>Node1&#45;&gt;Node2</title>
<path fill="none" stroke="midnightblue" d="M99.5359,-186.202C121.201,-199.559 154.637,-218.592 186,-230 193.464,-232.715 201.303,-235.17 209.248,-237.382"/>
<polygon fill="midnightblue" stroke="midnightblue" points="208.411,-240.781 218.974,-239.963 210.206,-234.015 208.411,-240.781"/>
</g>
<!-- Node7 -->
<g id="node7" class="node"><title>Node7</title>
<g id="a_node7"><a xlink:href="../../dd/d10/classcommand_parsing_1_1structural_command_parsing_1_1_structural_command_on_boolean_switch.html#ae7f31654d460fec0f2dd0c0a515ffd82" target="_top" xlink:title="commandParsing.structural\lCommandParsing.StructuralCommand\lOnBooleanSwitch.evaluateBooleanExpression">
<polygon fill="white" stroke="black" points="189.5,-180.5 189.5,-221.5 424.5,-221.5 424.5,-180.5 189.5,-180.5"/>
<text text-anchor="start" x="197.5" y="-209.5" font-family="Helvetica,sans-Serif" font-size="10.00">commandParsing.structural</text>
<text text-anchor="start" x="197.5" y="-198.5" font-family="Helvetica,sans-Serif" font-size="10.00">CommandParsing.StructuralCommand</text>
<text text-anchor="middle" x="307" y="-187.5" font-family="Helvetica,sans-Serif" font-size="10.00">OnBooleanSwitch.evaluateBooleanExpression</text>
</a>
</g>
</g>
<!-- Node1&#45;&gt;Node7 -->
<g id="edge6" class="edge"><title>Node1&#45;&gt;Node7</title>
<path fill="none" stroke="midnightblue" d="M149.722,-180.616C159.183,-181.85 169.073,-183.14 179.085,-184.446"/>
<polygon fill="midnightblue" stroke="midnightblue" points="178.757,-187.933 189.126,-185.756 179.663,-180.991 178.757,-187.933"/>
</g>
<!-- Node8 -->
<g id="node8" class="node"><title>Node8</title>
<g id="a_node8"><a xlink:href="../../de/dcc/classcommand_parsing_1_1structural_command_parsing_1_1_structural_command.html#aaba2d63efc66bac087cb3b36e2a65a41" target="_top" xlink:title="commandParsing.structural\lCommandParsing.StructuralCommand.extract\lCommandsBetweenBraces">
<polygon fill="white" stroke="black" points="187.5,-60.5 187.5,-101.5 426.5,-101.5 426.5,-60.5 187.5,-60.5"/>
<text text-anchor="start" x="195.5" y="-89.5" font-family="Helvetica,sans-Serif" font-size="10.00">commandParsing.structural</text>
<text text-anchor="start" x="195.5" y="-78.5" font-family="Helvetica,sans-Serif" font-size="10.00">CommandParsing.StructuralCommand.extract</text>
<text text-anchor="middle" x="307" y="-67.5" font-family="Helvetica,sans-Serif" font-size="10.00">CommandsBetweenBraces</text>
</a>
</g>
</g>
<!-- Node1&#45;&gt;Node8 -->
<g id="edge7" class="edge"><title>Node1&#45;&gt;Node8</title>
<path fill="none" stroke="midnightblue" d="M99.6101,-155.817C121.325,-142.42 154.793,-123.182 186,-111 191.776,-108.745 197.776,-106.617 203.876,-104.617"/>
<polygon fill="midnightblue" stroke="midnightblue" points="205.039,-107.92 213.525,-101.577 202.936,-101.243 205.039,-107.92"/>
</g>
<!-- Node12 -->
<g id="node12" class="node"><title>Node12</title>
<g id="a_node12"><a xlink:href="../../de/dcc/classcommand_parsing_1_1structural_command_parsing_1_1_structural_command.html#aca1700d80302bd0af8325ba9e2e13d21" target="_top" xlink:title="commandParsing.structural\lCommandParsing.StructuralCommand.ignore\lUntilClosingBrace">
<polygon fill="white" stroke="black" points="189.5,-120.5 189.5,-161.5 424.5,-161.5 424.5,-120.5 189.5,-120.5"/>
<text text-anchor="start" x="197.5" y="-149.5" font-family="Helvetica,sans-Serif" font-size="10.00">commandParsing.structural</text>
<text text-anchor="start" x="197.5" y="-138.5" font-family="Helvetica,sans-Serif" font-size="10.00">CommandParsing.StructuralCommand.ignore</text>
<text text-anchor="middle" x="307" y="-127.5" font-family="Helvetica,sans-Serif" font-size="10.00">UntilClosingBrace</text>
</a>
</g>
</g>
<!-- Node1&#45;&gt;Node12 -->
<g id="edge12" class="edge"><title>Node1&#45;&gt;Node12</title>
<path fill="none" stroke="midnightblue" d="M149.722,-161.384C159.183,-160.15 169.073,-158.86 179.085,-157.554"/>
<polygon fill="midnightblue" stroke="midnightblue" points="179.663,-161.009 189.126,-156.244 178.757,-154.067 179.663,-161.009"/>
</g>
<!-- Node14 -->
<g id="node14" class="node"><title>Node14</title>
<g id="a_node14"><a xlink:href="../../de/dcc/classcommand_parsing_1_1structural_command_parsing_1_1_structural_command.html#a4758d97862a38c414f90ca079a0d8d04" target="_top" xlink:title="commandParsing.structural\lCommandParsing.StructuralCommand.parse\lCommandsBetweenBraces">
<polygon fill="white" stroke="black" points="191,-288.5 191,-329.5 423,-329.5 423,-288.5 191,-288.5"/>
<text text-anchor="start" x="199" y="-317.5" font-family="Helvetica,sans-Serif" font-size="10.00">commandParsing.structural</text>
<text text-anchor="start" x="199" y="-306.5" font-family="Helvetica,sans-Serif" font-size="10.00">CommandParsing.StructuralCommand.parse</text>
<text text-anchor="middle" x="307" y="-295.5" font-family="Helvetica,sans-Serif" font-size="10.00">CommandsBetweenBraces</text>
</a>
</g>
</g>
<!-- Node1&#45;&gt;Node14 -->
<g id="edge17" class="edge"><title>Node1&#45;&gt;Node14</title>
<path fill="none" stroke="midnightblue" d="M87.0138,-186.113C105.007,-209.67 143.037,-254.934 186,-279 189.484,-280.951 193.094,-282.777 196.795,-284.486"/>
<polygon fill="midnightblue" stroke="midnightblue" points="195.589,-287.777 206.159,-288.497 198.345,-281.342 195.589,-287.777"/>
</g>
<!-- Node15 -->
<g id="node15" class="node"><title>Node15</title>
<g id="a_node15"><a xlink:href="../../de/dcc/classcommand_parsing_1_1structural_command_parsing_1_1_structural_command.html#ad861cf67c4b947673d265abe95dc2871" target="_top" xlink:title="commandParsing.structural\lCommandParsing.StructuralCommand.set\lEnclosedCommandsToEmptyList">
<polygon fill="white" stroke="black" points="197,-0.5 197,-41.5 417,-41.5 417,-0.5 197,-0.5"/>
<text text-anchor="start" x="205" y="-29.5" font-family="Helvetica,sans-Serif" font-size="10.00">commandParsing.structural</text>
<text text-anchor="start" x="205" y="-18.5" font-family="Helvetica,sans-Serif" font-size="10.00">CommandParsing.StructuralCommand.set</text>
<text text-anchor="middle" x="307" y="-7.5" font-family="Helvetica,sans-Serif" font-size="10.00">EnclosedCommandsToEmptyList</text>
</a>
</g>
</g>
<!-- Node1&#45;&gt;Node15 -->
<g id="edge20" class="edge"><title>Node1&#45;&gt;Node15</title>
<path fill="none" stroke="midnightblue" d="M85.4965,-155.85C102.421,-130.154 140.344,-78.1764 186,-51 189.186,-49.1036 192.488,-47.3265 195.876,-45.6612"/>
<polygon fill="midnightblue" stroke="midnightblue" points="197.365,-48.8293 205.024,-41.5095 194.472,-42.455 197.365,-48.8293"/>
</g>
<!-- Node3 -->
<g id="node3" class="node"><title>Node3</title>
<g id="a_node3"><a xlink:href="../../d7/d17/classcommand_parsing_1_1_command_parser.html#a9bf6e09b0ad06b6f217ad0ad040f8e93" target="_top" xlink:title="commandParsing.CommandParser.create\lParser">
<polygon fill="white" stroke="black" points="481,-253 481,-283 697,-283 697,-253 481,-253"/>
<text text-anchor="start" x="489" y="-271" font-family="Helvetica,sans-Serif" font-size="10.00">commandParsing.CommandParser.create</text>
<text text-anchor="middle" x="589" y="-260" font-family="Helvetica,sans-Serif" font-size="10.00">Parser</text>
</a>
</g>
</g>
<!-- Node2&#45;&gt;Node3 -->
<g id="edge2" class="edge"><title>Node2&#45;&gt;Node3</title>
<path fill="none" stroke="midnightblue" d="M428.37,-260.589C442.444,-261.242 456.788,-261.908 470.818,-262.559"/>
<polygon fill="midnightblue" stroke="midnightblue" points="470.819,-266.063 480.97,-263.031 471.144,-259.071 470.819,-266.063"/>
</g>
<!-- Node4 -->
<g id="node4" class="node"><title>Node4</title>
<g id="a_node4"><a xlink:href="../../d7/d17/classcommand_parsing_1_1_command_parser.html#ac5bad35b74ad1aac039e96f2e3a99e82" target="_top" xlink:title="commandParsing.CommandParser.is\lStringParsableAsCommand">
<polygon fill="white" stroke="black" points="492.5,-204 492.5,-234 685.5,-234 685.5,-204 492.5,-204"/>
<text text-anchor="start" x="500.5" y="-222" font-family="Helvetica,sans-Serif" font-size="10.00">commandParsing.CommandParser.is</text>
<text text-anchor="middle" x="589" y="-211" font-family="Helvetica,sans-Serif" font-size="10.00">StringParsableAsCommand</text>
</a>
</g>
</g>
<!-- Node2&#45;&gt;Node4 -->
<g id="edge3" class="edge"><title>Node2&#45;&gt;Node4</title>
<path fill="none" stroke="midnightblue" d="M424.718,-239.993C443.797,-237.54 463.47,-235.011 482.265,-232.594"/>
<polygon fill="midnightblue" stroke="midnightblue" points="482.833,-236.05 492.305,-231.304 481.941,-229.107 482.833,-236.05"/>
</g>
<!-- Node6 -->
<g id="node6" class="node"><title>Node6</title>
<g id="a_node6"><a xlink:href="../../d7/d17/classcommand_parsing_1_1_command_parser.html#ae5a2f506ca01f7fa355a64e4831fbae3" target="_top" xlink:title="commandParsing.CommandParser.parse">
<polygon fill="white" stroke="black" points="483,-302.5 483,-321.5 695,-321.5 695,-302.5 483,-302.5"/>
<text text-anchor="middle" x="589" y="-309.5" font-family="Helvetica,sans-Serif" font-size="10.00">commandParsing.CommandParser.parse</text>
</a>
</g>
</g>
<!-- Node2&#45;&gt;Node6 -->
<g id="edge5" class="edge"><title>Node2&#45;&gt;Node6</title>
<path fill="none" stroke="midnightblue" d="M391.656,-270.063C403.915,-272.753 416.335,-275.747 428,-279 444.386,-283.57 447.531,-287.738 464,-292 476.995,-295.363 490.911,-298.265 504.553,-300.733"/>
<polygon fill="midnightblue" stroke="midnightblue" points="503.968,-304.184 514.421,-302.455 505.171,-297.288 503.968,-304.184"/>
</g>
<!-- Node5 -->
<g id="node5" class="node"><title>Node5</title>
<g id="a_node5"><a xlink:href="../../d3/de0/classtranslator_1_1_translator.html#ad62364674b153e6fb5c67b328700d6e2" target="_top" xlink:title="translator.Translator.matches\lCommandPattern">
<polygon fill="white" stroke="black" points="750,-204 750,-234 906,-234 906,-204 750,-204"/>
<text text-anchor="start" x="758" y="-222" font-family="Helvetica,sans-Serif" font-size="10.00">translator.Translator.matches</text>
<text text-anchor="middle" x="828" y="-211" font-family="Helvetica,sans-Serif" font-size="10.00">CommandPattern</text>
</a>
</g>
</g>
<!-- Node4&#45;&gt;Node5 -->
<g id="edge4" class="edge"><title>Node4&#45;&gt;Node5</title>
<path fill="none" stroke="midnightblue" d="M685.714,-219C703.541,-219 722.083,-219 739.643,-219"/>
<polygon fill="midnightblue" stroke="midnightblue" points="739.856,-222.5 749.856,-219 739.856,-215.5 739.856,-222.5"/>
</g>
<!-- Node9 -->
<g id="node9" class="node"><title>Node9</title>
<g id="a_node9"><a xlink:href="../../de/dcc/classcommand_parsing_1_1structural_command_parsing_1_1_structural_command.html#a3f1054710afe4826d31938f0a74af315" target="_top" xlink:title="commandParsing.structural\lCommandParsing.StructuralCommand.check\lForOpeningBrace">
<polygon fill="white" stroke="black" points="472.5,-56.5 472.5,-97.5 705.5,-97.5 705.5,-56.5 472.5,-56.5"/>
<text text-anchor="start" x="480.5" y="-85.5" font-family="Helvetica,sans-Serif" font-size="10.00">commandParsing.structural</text>
<text text-anchor="start" x="480.5" y="-74.5" font-family="Helvetica,sans-Serif" font-size="10.00">CommandParsing.StructuralCommand.check</text>
<text text-anchor="middle" x="589" y="-63.5" font-family="Helvetica,sans-Serif" font-size="10.00">ForOpeningBrace</text>
</a>
</g>
</g>
<!-- Node8&#45;&gt;Node9 -->
<g id="edge8" class="edge"><title>Node8&#45;&gt;Node9</title>
<path fill="none" stroke="midnightblue" d="M426.745,-79.3036C438.389,-79.1373 450.233,-78.9681 461.946,-78.8008"/>
<polygon fill="midnightblue" stroke="midnightblue" points="462.247,-82.2969 472.196,-78.6543 462.147,-75.2976 462.247,-82.2969"/>
</g>
<!-- Node10 -->
<g id="node10" class="node"><title>Node10</title>
<g id="a_node10"><a xlink:href="../../d3/de0/classtranslator_1_1_translator.html#a87328fef942490ca02d2ebabaec35c47" target="_top" xlink:title="translator.Translator.matches\lListStartPattern">
<polygon fill="white" stroke="black" points="750,-62 750,-92 906,-92 906,-62 750,-62"/>
<text text-anchor="start" x="758" y="-80" font-family="Helvetica,sans-Serif" font-size="10.00">translator.Translator.matches</text>
<text text-anchor="middle" x="828" y="-69" font-family="Helvetica,sans-Serif" font-size="10.00">ListStartPattern</text>
</a>
</g>
</g>
<!-- Node8&#45;&gt;Node10 -->
<g id="edge10" class="edge"><title>Node8&#45;&gt;Node10</title>
<path fill="none" stroke="midnightblue" d="M386.422,-60.4691C411.07,-54.9463 438.507,-49.7458 464,-47 574.472,-35.101 603.823,-32.6237 714,-47 733.02,-49.4818 753.396,-54.2193 771.535,-59.2089"/>
<polygon fill="midnightblue" stroke="midnightblue" points="770.783,-62.6338 781.359,-61.9942 772.693,-55.8992 770.783,-62.6338"/>
</g>
<!-- Node11 -->
<g id="node11" class="node"><title>Node11</title>
<g id="a_node11"><a xlink:href="../../d3/de0/classtranslator_1_1_translator.html#abd79378932d164889d2d90c7783f1493" target="_top" xlink:title="translator.Translator.matches\lListEndPattern">
<polygon fill="white" stroke="black" points="750,-133 750,-163 906,-163 906,-133 750,-133"/>
<text text-anchor="start" x="758" y="-151" font-family="Helvetica,sans-Serif" font-size="10.00">translator.Translator.matches</text>
<text text-anchor="middle" x="828" y="-140" font-family="Helvetica,sans-Serif" font-size="10.00">ListEndPattern</text>
</a>
</g>
</g>
<!-- Node8&#45;&gt;Node11 -->
<g id="edge11" class="edge"><title>Node8&#45;&gt;Node11</title>
<path fill="none" stroke="midnightblue" d="M426.738,-100.582C439.307,-102.489 451.909,-104.332 464,-106 557.936,-118.955 665.927,-131.1 739.537,-138.964"/>
<polygon fill="midnightblue" stroke="midnightblue" points="739.376,-142.467 749.691,-140.045 740.117,-135.506 739.376,-142.467"/>
</g>
<!-- Node9&#45;&gt;Node10 -->
<g id="edge9" class="edge"><title>Node9&#45;&gt;Node10</title>
<path fill="none" stroke="midnightblue" d="M705.723,-77C717.148,-77 728.608,-77 739.677,-77"/>
<polygon fill="midnightblue" stroke="midnightblue" points="739.72,-80.5001 749.72,-77 739.72,-73.5001 739.72,-80.5001"/>
</g>
<!-- Node12&#45;&gt;Node9 -->
<g id="edge13" class="edge"><title>Node12&#45;&gt;Node9</title>
<path fill="none" stroke="midnightblue" d="M397.749,-120.486C426.635,-113.883 458.813,-106.529 488.366,-99.7736"/>
<polygon fill="midnightblue" stroke="midnightblue" points="489.31,-103.148 498.279,-97.5077 487.75,-96.324 489.31,-103.148"/>
</g>
<!-- Node13 -->
<g id="node13" class="node"><title>Node13</title>
<g id="a_node13"><a xlink:href="../../de/dcc/classcommand_parsing_1_1structural_command_parsing_1_1_structural_command.html#a277f37ab3033f12c95cf3c79f4c13805" target="_top" xlink:title="commandParsing.structural\lCommandParsing.StructuralCommand.findBrace">
<polygon fill="white" stroke="black" points="464,-155 464,-185 714,-185 714,-155 464,-155"/>
<text text-anchor="start" x="472" y="-173" font-family="Helvetica,sans-Serif" font-size="10.00">commandParsing.structural</text>
<text text-anchor="middle" x="589" y="-162" font-family="Helvetica,sans-Serif" font-size="10.00">CommandParsing.StructuralCommand.findBrace</text>
</a>
</g>
</g>
<!-- Node12&#45;&gt;Node13 -->
<g id="edge14" class="edge"><title>Node12&#45;&gt;Node13</title>
<path fill="none" stroke="midnightblue" d="M424.718,-153.089C434.295,-154.081 444.023,-155.088 453.714,-156.092"/>
<polygon fill="midnightblue" stroke="midnightblue" points="453.484,-159.587 463.792,-157.136 454.205,-152.624 453.484,-159.587"/>
</g>
<!-- Node13&#45;&gt;Node10 -->
<g id="edge16" class="edge"><title>Node13&#45;&gt;Node10</title>
<path fill="none" stroke="midnightblue" d="M628.342,-154.955C669.473,-138.814 734.861,-113.156 779.29,-95.7217"/>
<polygon fill="midnightblue" stroke="midnightblue" points="780.683,-98.9349 788.714,-92.0238 778.126,-92.4186 780.683,-98.9349"/>
</g>
<!-- Node13&#45;&gt;Node11 -->
<g id="edge15" class="edge"><title>Node13&#45;&gt;Node11</title>
<path fill="none" stroke="midnightblue" d="M714.053,-158.485C722.732,-157.679 731.371,-156.877 739.783,-156.096"/>
<polygon fill="midnightblue" stroke="midnightblue" points="740.286,-159.565 749.92,-155.155 739.639,-152.594 740.286,-159.565"/>
</g>
<!-- Node14&#45;&gt;Node3 -->
<g id="edge18" class="edge"><title>Node14&#45;&gt;Node3</title>
<path fill="none" stroke="midnightblue" d="M423.099,-292.146C440.373,-289.617 458.17,-287.011 475.391,-284.489"/>
<polygon fill="midnightblue" stroke="midnightblue" points="476.069,-287.927 485.456,-283.015 475.055,-281.001 476.069,-287.927"/>
</g>
<!-- Node14&#45;&gt;Node6 -->
<g id="edge19" class="edge"><title>Node14&#45;&gt;Node6</title>
<path fill="none" stroke="midnightblue" d="M423.099,-310.233C439.462,-310.409 456.294,-310.589 472.662,-310.764"/>
<polygon fill="midnightblue" stroke="midnightblue" points="472.748,-314.265 482.785,-310.873 472.823,-307.266 472.748,-314.265"/>
</g>
</g>
</svg>
