<?xml version="1.0" encoding="UTF-8" standalone="no"?>
<!DOCTYPE svg PUBLIC "-//W3C//DTD SVG 1.1//EN"
 "http://www.w3.org/Graphics/SVG/1.1/DTD/svg11.dtd">
<!-- Generated by graphviz version 2.36.0 (20140111.2315)
 -->
<!-- Title: gui.factories.turtlefactory.TurtleNodes.getActiveNodes Pages: 1 -->
<svg width="798pt" height="97pt"
 viewBox="0.00 0.00 798.00 97.00" xmlns="http://www.w3.org/2000/svg" xmlns:xlink="http://www.w3.org/1999/xlink">
<g id="graph0" class="graph" transform="scale(1 1) rotate(0) translate(4 93)">
<title>gui.factories.turtlefactory.TurtleNodes.getActiveNodes</title>
<polygon fill="white" stroke="none" points="-4,4 -4,-93 794,-93 794,4 -4,4"/>
<!-- Node1 -->
<g id="node1" class="node"><title>Node1</title>
<polygon fill="#bfbfbf" stroke="black" points="0,-32 0,-62 152,-62 152,-32 0,-32"/>
<text text-anchor="start" x="8" y="-50" font-family="Helvetica,sans-Serif" font-size="10.00">gui.factories.turtlefactory.</text>
<text text-anchor="middle" x="76" y="-39" font-family="Helvetica,sans-Serif" font-size="10.00">TurtleNodes.getActiveNodes</text>
</g>
<!-- Node2 -->
<g id="node2" class="node"><title>Node2</title>
<g id="a_node2"><a xlink:href="../../d8/df2/classgui_1_1mainclasses_1_1workspace_1_1_workspace.html#a01dff18cc9fa51688c0ba996b3ff9b6a" target="_top" xlink:title="gui.mainclasses.workspace.\lWorkspace.moveActiveTurtles">
<polygon fill="white" stroke="black" points="198,-59 198,-89 356,-89 356,-59 198,-59"/>
<text text-anchor="start" x="206" y="-77" font-family="Helvetica,sans-Serif" font-size="10.00">gui.mainclasses.workspace.</text>
<text text-anchor="middle" x="277" y="-66" font-family="Helvetica,sans-Serif" font-size="10.00">Workspace.moveActiveTurtles</text>
</a>
</g>
</g>
<!-- Node1&#45;&gt;Node2 -->
<g id="edge1" class="edge"><title>Node1&#45;&gt;Node2</title>
<path fill="none" stroke="midnightblue" d="M162.434,-58.5916C174.139,-60.1797 186.109,-61.8037 197.678,-63.3734"/>
<polygon fill="midnightblue" stroke="midnightblue" points="162.613,-55.0839 152.233,-57.2075 161.672,-62.0203 162.613,-55.0839"/>
</g>
<!-- Node5 -->
<g id="node5" class="node"><title>Node5</title>
<g id="a_node5"><a xlink:href="../../d8/df2/classgui_1_1mainclasses_1_1workspace_1_1_workspace.html#afe27c5d2bffafe1e1092a0319331cc33" target="_top" xlink:title="gui.mainclasses.workspace.\lWorkspace.notifyOfTurtleSelection\lChange">
<polygon fill="white" stroke="black" points="188.5,0.5 188.5,-40.5 365.5,-40.5 365.5,0.5 188.5,0.5"/>
<text text-anchor="start" x="196.5" y="-28.5" font-family="Helvetica,sans-Serif" font-size="10.00">gui.mainclasses.workspace.</text>
<text text-anchor="start" x="196.5" y="-17.5" font-family="Helvetica,sans-Serif" font-size="10.00">Workspace.notifyOfTurtleSelection</text>
<text text-anchor="middle" x="277" y="-6.5" font-family="Helvetica,sans-Serif" font-size="10.00">Change</text>
</a>
</g>
</g>
<!-- Node1&#45;&gt;Node5 -->
<g id="edge4" class="edge"><title>Node1&#45;&gt;Node5</title>
<path fill="none" stroke="midnightblue" d="M162.269,-35.4309C170.888,-34.2614 179.653,-33.0722 188.297,-31.8994"/>
<polygon fill="midnightblue" stroke="midnightblue" points="161.672,-31.9797 152.233,-36.7925 162.613,-38.9161 161.672,-31.9797"/>
</g>
<!-- Node3 -->
<g id="node3" class="node"><title>Node3</title>
<g id="a_node3"><a xlink:href="../../d5/d3d/classgui_1_1mainclasses_1_1_g_u_i_controller.html#af8e32f667f89b5d6c80f282c2947fe84" target="_top" xlink:title="gui.mainclasses.GUIController.move\lActiveTurtlesInActiveWorkspace">
<polygon fill="white" stroke="black" points="402.5,-59 402.5,-89 591.5,-89 591.5,-59 402.5,-59"/>
<text text-anchor="start" x="410.5" y="-77" font-family="Helvetica,sans-Serif" font-size="10.00">gui.mainclasses.GUIController.move</text>
<text text-anchor="middle" x="497" y="-66" font-family="Helvetica,sans-Serif" font-size="10.00">ActiveTurtlesInActiveWorkspace</text>
</a>
</g>
</g>
<!-- Node2&#45;&gt;Node3 -->
<g id="edge2" class="edge"><title>Node2&#45;&gt;Node3</title>
<path fill="none" stroke="midnightblue" d="M366.418,-74C378.289,-74 390.499,-74 402.455,-74"/>
<polygon fill="midnightblue" stroke="midnightblue" points="366.087,-70.5001 356.087,-74 366.087,-77.5001 366.087,-70.5001"/>
</g>
<!-- Node4 -->
<g id="node4" class="node"><title>Node4</title>
<g id="a_node4"><a xlink:href="../../d5/d3d/classgui_1_1mainclasses_1_1_g_u_i_controller.html#aa8f2d03270ced2e768ccad9c0c925b3f" target="_top" xlink:title="gui.mainclasses.GUIController.\lGUIController">
<polygon fill="white" stroke="black" points="628,-59 628,-89 790,-89 790,-59 628,-59"/>
<text text-anchor="start" x="636" y="-77" font-family="Helvetica,sans-Serif" font-size="10.00">gui.mainclasses.GUIController.</text>
<text text-anchor="middle" x="709" y="-66" font-family="Helvetica,sans-Serif" font-size="10.00">GUIController</text>
</a>
</g>
</g>
<!-- Node3&#45;&gt;Node4 -->
<g id="edge3" class="edge"><title>Node3&#45;&gt;Node4</title>
<path fill="none" stroke="midnightblue" d="M601.823,-74C610.515,-74 619.218,-74 627.694,-74"/>
<polygon fill="midnightblue" stroke="midnightblue" points="601.638,-70.5001 591.638,-74 601.638,-77.5001 601.638,-70.5001"/>
</g>
<!-- Node6 -->
<g id="node6" class="node"><title>Node6</title>
<g id="a_node6"><a xlink:href="../../d1/d95/classgui_1_1factories_1_1turtlefactory_1_1_turtle_node.html#a8a90adc42503d132ce9c45b10844e32b" target="_top" xlink:title="gui.factories.turtlefactory.\lTurtleNode.selectTurtle">
<polygon fill="white" stroke="black" points="428,-5 428,-35 566,-35 566,-5 428,-5"/>
<text text-anchor="start" x="436" y="-23" font-family="Helvetica,sans-Serif" font-size="10.00">gui.factories.turtlefactory.</text>
<text text-anchor="middle" x="497" y="-12" font-family="Helvetica,sans-Serif" font-size="10.00">TurtleNode.selectTurtle</text>
</a>
</g>
</g>
<!-- Node5&#45;&gt;Node6 -->
<g id="edge5" class="edge"><title>Node5&#45;&gt;Node6</title>
<path fill="none" stroke="midnightblue" d="M375.989,-20C393.519,-20 411.432,-20 427.89,-20"/>
<polygon fill="midnightblue" stroke="midnightblue" points="375.727,-16.5001 365.727,-20 375.727,-23.5001 375.727,-16.5001"/>
</g>
<!-- Node7 -->
<g id="node7" class="node"><title>Node7</title>
<g id="a_node7"><a xlink:href="../../d1/d95/classgui_1_1factories_1_1turtlefactory_1_1_turtle_node.html#aeae66bb4bbd0ee69922deaf346872467" target="_top" xlink:title="gui.factories.turtlefactory.\lTurtleNode.TurtleNode">
<polygon fill="white" stroke="black" points="640,-5 640,-35 778,-35 778,-5 640,-5"/>
<text text-anchor="start" x="648" y="-23" font-family="Helvetica,sans-Serif" font-size="10.00">gui.factories.turtlefactory.</text>
<text text-anchor="middle" x="709" y="-12" font-family="Helvetica,sans-Serif" font-size="10.00">TurtleNode.TurtleNode</text>
</a>
</g>
</g>
<!-- Node6&#45;&gt;Node7 -->
<g id="edge6" class="edge"><title>Node6&#45;&gt;Node7</title>
<path fill="none" stroke="midnightblue" d="M576.287,-20C597.152,-20 619.525,-20 639.802,-20"/>
<polygon fill="midnightblue" stroke="midnightblue" points="576.181,-16.5001 566.181,-20 576.181,-23.5001 576.181,-16.5001"/>
</g>
</g>
</svg>
