<?xml version="1.0" encoding="UTF-8" standalone="no"?>
<!DOCTYPE svg PUBLIC "-//W3C//DTD SVG 1.1//EN"
 "http://www.w3.org/Graphics/SVG/1.1/DTD/svg11.dtd">
<!-- Generated by graphviz version 2.36.0 (20140111.2315)
 -->
<!-- Title: commandParsing.turtleCommandParsing.ClearStamps.parse Pages: 1 -->
<svg width="650pt" height="147pt"
 viewBox="0.00 0.00 650.00 147.00" xmlns="http://www.w3.org/2000/svg" xmlns:xlink="http://www.w3.org/1999/xlink">
<g id="graph0" class="graph" transform="scale(1 1) rotate(0) translate(4 143)">
<title>commandParsing.turtleCommandParsing.ClearStamps.parse</title>
<polygon fill="white" stroke="none" points="-4,4 -4,-143 646,-143 646,4 -4,4"/>
<!-- Node1 -->
<g id="node1" class="node"><title>Node1</title>
<polygon fill="#bfbfbf" stroke="black" points="0.5,-49 0.5,-79 179.5,-79 179.5,-49 0.5,-49"/>
<text text-anchor="start" x="8.5" y="-67" font-family="Helvetica,sans-Serif" font-size="10.00">commandParsing.turtleCommand</text>
<text text-anchor="middle" x="90" y="-56" font-family="Helvetica,sans-Serif" font-size="10.00">Parsing.ClearStamps.parse</text>
</g>
<!-- Node2 -->
<g id="node2" class="node"><title>Node2</title>
<g id="a_node2"><a xlink:href="../../df/d64/interfacecommand_parsing_1_1drawable_obect_generation_interfaces_1_1_turtle_generator.html#aff15a6ded04a3d45860669b8cab3638e" target="_top" xlink:title="commandParsing.drawableObect\lGenerationInterfaces.TurtleGenerator.generate\lDrawableObjectRepresentingTurtleDeletion">
<polygon fill="white" stroke="black" points="216,-97.5 216,-138.5 456,-138.5 456,-97.5 216,-97.5"/>
<text text-anchor="start" x="224" y="-126.5" font-family="Helvetica,sans-Serif" font-size="10.00">commandParsing.drawableObect</text>
<text text-anchor="start" x="224" y="-115.5" font-family="Helvetica,sans-Serif" font-size="10.00">GenerationInterfaces.TurtleGenerator.generate</text>
<text text-anchor="middle" x="336" y="-104.5" font-family="Helvetica,sans-Serif" font-size="10.00">DrawableObjectRepresentingTurtleDeletion</text>
</a>
</g>
</g>
<!-- Node1&#45;&gt;Node2 -->
<g id="edge1" class="edge"><title>Node1&#45;&gt;Node2</title>
<path fill="none" stroke="midnightblue" d="M158.968,-79.042C181.749,-84.0837 207.679,-89.8225 232.504,-95.3165"/>
<polygon fill="midnightblue" stroke="midnightblue" points="231.802,-98.7457 242.322,-97.4893 233.314,-91.911 231.802,-98.7457"/>
</g>
<!-- Node4 -->
<g id="node4" class="node"><title>Node4</title>
<g id="a_node4"><a xlink:href="../../db/d1f/classworkspace_state_1_1_turtle_collection.html#a02fe2eb9079781bdcbaf343c6d133edb" target="_top" xlink:title="workspaceState.TurtleCollection.get\lStamps">
<polygon fill="white" stroke="black" points="242.5,-49 242.5,-79 429.5,-79 429.5,-49 242.5,-49"/>
<text text-anchor="start" x="250.5" y="-67" font-family="Helvetica,sans-Serif" font-size="10.00">workspaceState.TurtleCollection.get</text>
<text text-anchor="middle" x="336" y="-56" font-family="Helvetica,sans-Serif" font-size="10.00">Stamps</text>
</a>
</g>
</g>
<!-- Node1&#45;&gt;Node4 -->
<g id="edge3" class="edge"><title>Node1&#45;&gt;Node4</title>
<path fill="none" stroke="midnightblue" d="M179.78,-64C196.752,-64 214.652,-64 232.025,-64"/>
<polygon fill="midnightblue" stroke="midnightblue" points="232.182,-67.5001 242.182,-64 232.182,-60.5001 232.182,-67.5001"/>
</g>
<!-- Node5 -->
<g id="node5" class="node"><title>Node5</title>
<g id="a_node5"><a xlink:href="../../db/d1f/classworkspace_state_1_1_turtle_collection.html#a907bd2adcd304bb05f592974ccbaeb75" target="_top" xlink:title="workspaceState.TurtleCollection.remove\lAllStamps">
<polygon fill="white" stroke="black" points="232,-0 232,-30 440,-30 440,-0 232,-0"/>
<text text-anchor="start" x="240" y="-18" font-family="Helvetica,sans-Serif" font-size="10.00">workspaceState.TurtleCollection.remove</text>
<text text-anchor="middle" x="336" y="-7" font-family="Helvetica,sans-Serif" font-size="10.00">AllStamps</text>
</a>
</g>
</g>
<!-- Node1&#45;&gt;Node5 -->
<g id="edge4" class="edge"><title>Node1&#45;&gt;Node5</title>
<path fill="none" stroke="midnightblue" d="M165.866,-48.9654C192.566,-43.6035 222.825,-37.5269 250.293,-32.0108"/>
<polygon fill="midnightblue" stroke="midnightblue" points="251.16,-35.4066 260.275,-30.0062 249.782,-28.5437 251.16,-35.4066"/>
</g>
<!-- Node3 -->
<g id="node3" class="node"><title>Node3</title>
<g id="a_node3"><a xlink:href="../../d1/d01/classworkspace_state_1_1_turtle.html#a2b5e77b78036091a65abb5f4959b5ef7" target="_top" xlink:title="workspaceState.Turtle.getID">
<polygon fill="white" stroke="black" points="492,-108.5 492,-127.5 642,-127.5 642,-108.5 492,-108.5"/>
<text text-anchor="middle" x="567" y="-115.5" font-family="Helvetica,sans-Serif" font-size="10.00">workspaceState.Turtle.getID</text>
</a>
</g>
</g>
<!-- Node2&#45;&gt;Node3 -->
<g id="edge2" class="edge"><title>Node2&#45;&gt;Node3</title>
<path fill="none" stroke="midnightblue" d="M456.195,-118C464.849,-118 473.466,-118 481.85,-118"/>
<polygon fill="midnightblue" stroke="midnightblue" points="481.947,-121.5 491.947,-118 481.947,-114.5 481.947,-121.5"/>
</g>
</g>
</svg>
