<?xml version="1.0" encoding="UTF-8" standalone="no"?>
<!DOCTYPE svg PUBLIC "-//W3C//DTD SVG 1.1//EN"
 "http://www.w3.org/Graphics/SVG/1.1/DTD/svg11.dtd">
<!-- Generated by graphviz version 2.36.0 (20140111.2315)
 -->
<!-- Title: gui.factories.ColorPaletteEntryFactory Pages: 1 -->
<svg width="578pt" height="77pt"
 viewBox="0.00 0.00 578.00 77.00" xmlns="http://www.w3.org/2000/svg" xmlns:xlink="http://www.w3.org/1999/xlink">
<g id="graph0" class="graph" transform="scale(1 1) rotate(0) translate(4 73)">
<title>gui.factories.ColorPaletteEntryFactory</title>
<polygon fill="white" stroke="none" points="-4,4 -4,-73 574,-73 574,4 -4,4"/>
<!-- Node1 -->
<g id="node1" class="node"><title>Node1</title>
<polygon fill="#bfbfbf" stroke="black" points="434,-22 434,-52 570,-52 570,-22 434,-22"/>
<text text-anchor="start" x="442" y="-40" font-family="Helvetica,sans-Serif" font-size="10.00">gui.factories.ColorPalette</text>
<text text-anchor="middle" x="502" y="-29" font-family="Helvetica,sans-Serif" font-size="10.00">EntryFactory</text>
</g>
<!-- Node2 -->
<g id="node2" class="node"><title>Node2</title>
<g id="a_node2"><a xlink:href="../../d1/d60/classgui_1_1factories_1_1_object_factory.html" target="_top" xlink:title="gui.factories.ObjectFactory">
<polygon fill="white" stroke="black" points="84.5,-49.5 84.5,-68.5 227.5,-68.5 227.5,-49.5 84.5,-49.5"/>
<text text-anchor="middle" x="156" y="-56.5" font-family="Helvetica,sans-Serif" font-size="10.00">gui.factories.ObjectFactory</text>
</a>
</g>
</g>
<!-- Node2&#45;&gt;Node1 -->
<g id="edge1" class="edge"><title>Node2&#45;&gt;Node1</title>
<path fill="none" stroke="midnightblue" d="M237.989,-53.8205C297.586,-50.009 377.659,-44.8881 433.741,-41.3015"/>
<polygon fill="midnightblue" stroke="midnightblue" points="237.616,-50.3371 227.86,-54.4683 238.063,-57.3228 237.616,-50.3371"/>
</g>
<!-- Node3 -->
<g id="node3" class="node"><title>Node3</title>
<polygon fill="white" stroke="#bfbfbf" points="0,-0 0,-30 312,-30 312,-0 0,-0"/>
<text text-anchor="start" x="8" y="-18" font-family="Helvetica,sans-Serif" font-size="10.00">ObservableList&lt; gui.nonbuttonfeatures.tableviews.colorindex.</text>
<text text-anchor="middle" x="156" y="-7" font-family="Helvetica,sans-Serif" font-size="10.00">ColorIndex &gt;</text>
</g>
<!-- Node3&#45;&gt;Node1 -->
<g id="edge2" class="edge"><title>Node3&#45;&gt;Node1</title>
<path fill="none" stroke="#9a32cd" stroke-dasharray="5,2" d="M322.289,-20.9073C353.445,-22.5169 385.74,-24.5221 416,-27 421.776,-27.4729 427.764,-28.0339 433.767,-28.645"/>
<polygon fill="#9a32cd" stroke="#9a32cd" points="322.382,-17.4076 312.218,-20.3985 322.028,-24.3987 322.382,-17.4076"/>
<text text-anchor="middle" x="373" y="-30" font-family="Helvetica,sans-Serif" font-size="10.00"> myColorIndexList</text>
</g>
</g>
</svg>
