<?xml version="1.0" encoding="UTF-8" standalone="no"?>
<!DOCTYPE svg PUBLIC "-//W3C//DTD SVG 1.1//EN"
 "http://www.w3.org/Graphics/SVG/1.1/DTD/svg11.dtd">
<!-- Generated by graphviz version 2.36.0 (20140111.2315)
 -->
<!-- Title: gui.factories.turtlefactory.TurtleFactory.generateObject Pages: 1 -->
<!--zoomable 209 -->
<svg id="main" version="1.1" xmlns="http://www.w3.org/2000/svg" xmlns:xlink="http://www.w3.org/1999/xlink" xml:space="preserve" onload="init(evt)">
<style type="text/css"><![CDATA[
.edge:hover path { stroke: red; }
.edge:hover polygon { stroke: red; fill: red; }
]]></style>
<script type="text/javascript"><![CDATA[
var edges = document.getElementsByTagName('g');
if (edges && edges.length) {
  for (var i=0;i<edges.length;i++) {
    if (edges[i].id.substr(0,4)=='edge') {
      edges[i].setAttribute('class','edge');
    }
  }
}
]]></script>
        <defs>
                <circle id="rim" cx="0" cy="0" r="7"/>
                <circle id="rim2" cx="0" cy="0" r="3.5"/>
                <g id="zoomPlus">
                        <use xlink:href="#rim" fill="#404040">
                                <set attributeName="fill" to="#808080" begin="zoomplus.mouseover" end="zoomplus.mouseout"/>
                        </use>
                        <path d="M-4,0h8M0,-4v8" fill="none" stroke="white" stroke-width="1.5" pointer-events="none"/>
                </g>
                <g id="zoomMin">
                        <use xlink:href="#rim" fill="#404040">
                                <set attributeName="fill" to="#808080" begin="zoomminus.mouseover" end="zoomminus.mouseout"/>
                        </use>
                        <path d="M-4,0h8" fill="none" stroke="white" stroke-width="1.5" pointer-events="none"/>
                </g>
                <g id="dirArrow">
                        <path fill="none" stroke="white" stroke-width="1.5" d="M0,-3.0v7 M-2.5,-0.5L0,-3.0L2.5,-0.5"/>
                </g>
               <g id="resetDef">
                       <use xlink:href="#rim2" fill="#404040">
                               <set attributeName="fill" to="#808080" begin="reset.mouseover" end="reset.mouseout"/>
                       </use>
               </g>
        </defs>

<script type="text/javascript">
var viewWidth = 756;
var viewHeight = 209;
var sectionId = 'dynsection-2';
</script>
<script xlink:href="../../svgpan.js"/>
<svg id="graph" class="graph">
<g id="viewport">
<title>gui.factories.turtlefactory.TurtleFactory.generateObject</title>
<polygon fill="white" stroke="none" points="-4,4 -4,-205 752,-205 752,4 -4,4"/>
<!-- Node1 -->
<g id="node1" class="node"><title>Node1</title>
<polygon fill="#bfbfbf" stroke="black" points="0,-122 0,-152 152,-152 152,-122 0,-122"/>
<text text-anchor="start" x="8" y="-140" font-family="Helvetica,sans-Serif" font-size="10.00">gui.factories.turtlefactory.</text>
<text text-anchor="middle" x="76" y="-129" font-family="Helvetica,sans-Serif" font-size="10.00">TurtleFactory.generateObject</text>
</g>
<!-- Node2 -->
<g id="node2" class="node"><title>Node2</title>
<g id="a_node2"><a xlink:href="../../dd/d25/classgui_1_1factories_1_1turtlefactory_1_1_turtle_nodes.html#a77cf69f23445c8fbda77692022bb689c" target="_top" xlink:title="gui.factories.turtlefactory.\lTurtleNodes.addTurtleNode">
<polygon fill="white" stroke="black" points="189.5,-171 189.5,-201 334.5,-201 334.5,-171 189.5,-171"/>
<text text-anchor="start" x="197.5" y="-189" font-family="Helvetica,sans-Serif" font-size="10.00">gui.factories.turtlefactory.</text>
<text text-anchor="middle" x="262" y="-178" font-family="Helvetica,sans-Serif" font-size="10.00">TurtleNodes.addTurtleNode</text>
</a>
</g>
</g>
<!-- Node1&#45;&gt;Node2 -->
<g id="edge1" class="edge"><title>Node1&#45;&gt;Node2</title>
<path fill="none" stroke="midnightblue" d="M133.457,-152.035C152.884,-157.208 174.811,-163.048 194.935,-168.407"/>
<polygon fill="midnightblue" stroke="midnightblue" points="194.086,-171.803 204.65,-170.994 195.888,-165.038 194.086,-171.803"/>
</g>
<!-- Node3 -->
<g id="node3" class="node"><title>Node3</title>
<g id="a_node3"><a xlink:href="../../dd/d25/classgui_1_1factories_1_1turtlefactory_1_1_turtle_nodes.html#a827d2974ee57fec482adc23026aac216" target="_top" xlink:title="gui.factories.turtlefactory.\lTurtleNodes.getTurtleWithID">
<polygon fill="white" stroke="black" points="188.5,-122 188.5,-152 335.5,-152 335.5,-122 188.5,-122"/>
<text text-anchor="start" x="196.5" y="-140" font-family="Helvetica,sans-Serif" font-size="10.00">gui.factories.turtlefactory.</text>
<text text-anchor="middle" x="262" y="-129" font-family="Helvetica,sans-Serif" font-size="10.00">TurtleNodes.getTurtleWithID</text>
</a>
</g>
</g>
<!-- Node1&#45;&gt;Node3 -->
<g id="edge2" class="edge"><title>Node1&#45;&gt;Node3</title>
<path fill="none" stroke="midnightblue" d="M152.105,-137C160.676,-137 169.449,-137 178.114,-137"/>
<polygon fill="midnightblue" stroke="midnightblue" points="178.216,-140.5 188.216,-137 178.216,-133.5 178.216,-140.5"/>
</g>
<!-- Node4 -->
<g id="node4" class="node"><title>Node4</title>
<g id="a_node4"><a xlink:href="../../d1/d95/classgui_1_1factories_1_1turtlefactory_1_1_turtle_node.html#a6e2a02d271815ab5516bde6eb8d4d361" target="_top" xlink:title="gui.factories.turtlefactory.\lTurtleNode.updatePosition">
<polygon fill="white" stroke="black" points="191,-73 191,-103 333,-103 333,-73 191,-73"/>
<text text-anchor="start" x="199" y="-91" font-family="Helvetica,sans-Serif" font-size="10.00">gui.factories.turtlefactory.</text>
<text text-anchor="middle" x="262" y="-80" font-family="Helvetica,sans-Serif" font-size="10.00">TurtleNode.updatePosition</text>
</a>
</g>
</g>
<!-- Node1&#45;&gt;Node4 -->
<g id="edge3" class="edge"><title>Node1&#45;&gt;Node4</title>
<path fill="none" stroke="midnightblue" d="M133.457,-121.965C152.884,-116.792 174.811,-110.952 194.935,-105.593"/>
<polygon fill="midnightblue" stroke="midnightblue" points="195.888,-108.962 204.65,-103.006 194.086,-102.197 195.888,-108.962"/>
</g>
<!-- Node5 -->
<g id="node5" class="node"><title>Node5</title>
<g id="a_node5"><a xlink:href="../../d1/d95/classgui_1_1factories_1_1turtlefactory_1_1_turtle_node.html#aeea99dc4ec97b6f73d146213912391a2" target="_top" xlink:title="gui.factories.turtlefactory.\lTurtleNode.parseStringToPoints">
<polygon fill="white" stroke="black" points="374.5,-147 374.5,-177 539.5,-177 539.5,-147 374.5,-147"/>
<text text-anchor="start" x="382.5" y="-165" font-family="Helvetica,sans-Serif" font-size="10.00">gui.factories.turtlefactory.</text>
<text text-anchor="middle" x="457" y="-154" font-family="Helvetica,sans-Serif" font-size="10.00">TurtleNode.parseStringToPoints</text>
</a>
</g>
</g>
<!-- Node4&#45;&gt;Node5 -->
<g id="edge4" class="edge"><title>Node4&#45;&gt;Node5</title>
<path fill="none" stroke="midnightblue" d="M312.789,-103.116C320.695,-106.065 328.674,-109.38 336,-113 353.239,-121.519 354.591,-128.833 372,-137 376.993,-139.343 382.257,-141.523 387.614,-143.54"/>
<polygon fill="midnightblue" stroke="midnightblue" points="386.725,-146.939 397.32,-146.995 389.072,-140.344 386.725,-146.939"/>
</g>
<!-- Node6 -->
<g id="node6" class="node"><title>Node6</title>
<g id="a_node6"><a xlink:href="../../d2/d8c/classgui_1_1turtlescreenwrap_1_1_tesselation_mapper.html#accb8e9b832acd2b297b33650dbef962d" target="_top" xlink:title="gui.turtlescreenwrap.Tesselation\lMapper.map">
<polygon fill="white" stroke="black" points="372,-98 372,-128 542,-128 542,-98 372,-98"/>
<text text-anchor="start" x="380" y="-116" font-family="Helvetica,sans-Serif" font-size="10.00">gui.turtlescreenwrap.Tesselation</text>
<text text-anchor="middle" x="457" y="-105" font-family="Helvetica,sans-Serif" font-size="10.00">Mapper.map</text>
</a>
</g>
</g>
<!-- Node4&#45;&gt;Node6 -->
<g id="edge5" class="edge"><title>Node4&#45;&gt;Node6</title>
<path fill="none" stroke="midnightblue" d="M333.223,-97.0963C342.503,-98.2983 352.133,-99.5457 361.733,-100.789"/>
<polygon fill="midnightblue" stroke="midnightblue" points="361.345,-104.268 371.711,-102.082 362.244,-97.3261 361.345,-104.268"/>
</g>
<!-- Node9 -->
<g id="node9" class="node"><title>Node9</title>
<g id="a_node9"><a xlink:href="../../d4/d9b/classgui_1_1turtlescreenwrap_1_1_coordinate_changer.html#a4b6834129da347abd82e9f84a69d0662" target="_top" xlink:title="gui.turtlescreenwrap.Coordinate\lChanger.convX">
<polygon fill="white" stroke="black" points="372,-49 372,-79 542,-79 542,-49 372,-49"/>
<text text-anchor="start" x="380" y="-67" font-family="Helvetica,sans-Serif" font-size="10.00">gui.turtlescreenwrap.Coordinate</text>
<text text-anchor="middle" x="457" y="-56" font-family="Helvetica,sans-Serif" font-size="10.00">Changer.convX</text>
</a>
</g>
</g>
<!-- Node4&#45;&gt;Node9 -->
<g id="edge8" class="edge"><title>Node4&#45;&gt;Node9</title>
<path fill="none" stroke="midnightblue" d="M333.223,-79.2676C342.503,-78.1137 352.133,-76.9161 361.733,-75.7223"/>
<polygon fill="midnightblue" stroke="midnightblue" points="362.22,-79.1888 371.711,-74.4815 361.356,-72.2423 362.22,-79.1888"/>
</g>
<!-- Node10 -->
<g id="node10" class="node"><title>Node10</title>
<g id="a_node10"><a xlink:href="../../d4/d9b/classgui_1_1turtlescreenwrap_1_1_coordinate_changer.html#a26ee7cc089d708666b8eab5c37406a7c" target="_top" xlink:title="gui.turtlescreenwrap.Coordinate\lChanger.convY">
<polygon fill="white" stroke="black" points="372,-0 372,-30 542,-30 542,-0 372,-0"/>
<text text-anchor="start" x="380" y="-18" font-family="Helvetica,sans-Serif" font-size="10.00">gui.turtlescreenwrap.Coordinate</text>
<text text-anchor="middle" x="457" y="-7" font-family="Helvetica,sans-Serif" font-size="10.00">Changer.convY</text>
</a>
</g>
</g>
<!-- Node4&#45;&gt;Node10 -->
<g id="edge9" class="edge"><title>Node4&#45;&gt;Node10</title>
<path fill="none" stroke="midnightblue" d="M294.524,-72.859C316.062,-62.8279 345.41,-49.7679 372,-40 378.429,-37.6382 385.195,-35.3341 391.98,-33.1402"/>
<polygon fill="midnightblue" stroke="midnightblue" points="393.413,-36.358 401.897,-30.0111 391.307,-29.6824 393.413,-36.358"/>
</g>
<!-- Node7 -->
<g id="node7" class="node"><title>Node7</title>
<g id="a_node7"><a xlink:href="../../d2/d8c/classgui_1_1turtlescreenwrap_1_1_tesselation_mapper.html#aabbaac2b93b3b79c2f4d88ac0849ab6f" target="_top" xlink:title="gui.turtlescreenwrap.Tesselation\lMapper.checkOffScreen">
<polygon fill="white" stroke="black" points="578,-122 578,-152 748,-152 748,-122 578,-122"/>
<text text-anchor="start" x="586" y="-140" font-family="Helvetica,sans-Serif" font-size="10.00">gui.turtlescreenwrap.Tesselation</text>
<text text-anchor="middle" x="663" y="-129" font-family="Helvetica,sans-Serif" font-size="10.00">Mapper.checkOffScreen</text>
</a>
</g>
</g>
<!-- Node6&#45;&gt;Node7 -->
<g id="edge6" class="edge"><title>Node6&#45;&gt;Node7</title>
<path fill="none" stroke="midnightblue" d="M542.152,-122.9C550.593,-123.893 559.202,-124.906 567.739,-125.91"/>
<polygon fill="midnightblue" stroke="midnightblue" points="567.371,-129.391 577.712,-127.084 568.189,-122.439 567.371,-129.391"/>
</g>
<!-- Node8 -->
<g id="node8" class="node"><title>Node8</title>
<g id="a_node8"><a xlink:href="../../d2/d8c/classgui_1_1turtlescreenwrap_1_1_tesselation_mapper.html#aa9ff2f06fa612f2250c8a94a084f9c99" target="_top" xlink:title="gui.turtlescreenwrap.Tesselation\lMapper.getDummyOrigin">
<polygon fill="white" stroke="black" points="578,-73 578,-103 748,-103 748,-73 578,-73"/>
<text text-anchor="start" x="586" y="-91" font-family="Helvetica,sans-Serif" font-size="10.00">gui.turtlescreenwrap.Tesselation</text>
<text text-anchor="middle" x="663" y="-80" font-family="Helvetica,sans-Serif" font-size="10.00">Mapper.getDummyOrigin</text>
</a>
</g>
</g>
<!-- Node6&#45;&gt;Node8 -->
<g id="edge7" class="edge"><title>Node6&#45;&gt;Node8</title>
<path fill="none" stroke="midnightblue" d="M542.152,-102.687C550.593,-101.653 559.202,-100.598 567.739,-99.5516"/>
<polygon fill="midnightblue" stroke="midnightblue" points="568.212,-103.02 577.712,-98.3294 567.36,-96.0719 568.212,-103.02"/>
</g>
</g>
</svg>
        <g id="navigator" transform="translate(0 0)" fill="#404254">
                <rect fill="#f2f5e9" fill-opacity="0.5" stroke="#606060" stroke-width=".5" x="0" y="0" width="60" height="60"/>
                <use id="zoomplus" xlink:href="#zoomPlus" x="17" y="9" onmousedown="handleZoom(evt,'in')"/>
                <use id="zoomminus" xlink:href="#zoomMin" x="42" y="9" onmousedown="handleZoom(evt,'out')"/>
                <use id="reset" xlink:href="#resetDef" x="30" y="36" onmousedown="handleReset()"/>
                <g id="arrowUp" xlink:href="#dirArrow" transform="translate(30 24)" onmousedown="handlePan(0,-1)">
                  <use xlink:href="#rim" fill="#404040">
                        <set attributeName="fill" to="#808080" begin="arrowUp.mouseover" end="arrowUp.mouseout"/>
                  </use>
                  <path fill="none" stroke="white" stroke-width="1.5" d="M0,-3.0v7 M-2.5,-0.5L0,-3.0L2.5,-0.5"/>
                </g>
                <g id="arrowRight" xlink:href="#dirArrow" transform="rotate(90) translate(36 -43)" onmousedown="handlePan(1,0)">
                  <use xlink:href="#rim" fill="#404040">
                        <set attributeName="fill" to="#808080" begin="arrowRight.mouseover" end="arrowRight.mouseout"/>
                  </use>
                  <path fill="none" stroke="white" stroke-width="1.5" d="M0,-3.0v7 M-2.5,-0.5L0,-3.0L2.5,-0.5"/>
                </g>
                <g id="arrowDown" xlink:href="#dirArrow" transform="rotate(180) translate(-30 -48)" onmousedown="handlePan(0,1)">
                  <use xlink:href="#rim" fill="#404040">
                        <set attributeName="fill" to="#808080" begin="arrowDown.mouseover" end="arrowDown.mouseout"/>
                  </use>
                  <path fill="none" stroke="white" stroke-width="1.5" d="M0,-3.0v7 M-2.5,-0.5L0,-3.0L2.5,-0.5"/>
                </g>
                <g id="arrowLeft" xlink:href="#dirArrow" transform="rotate(270) translate(-36 17)" onmousedown="handlePan(-1,0)">
                  <use xlink:href="#rim" fill="#404040">
                        <set attributeName="fill" to="#808080" begin="arrowLeft.mouseover" end="arrowLeft.mouseout"/>
                  </use>
                  <path fill="none" stroke="white" stroke-width="1.5" d="M0,-3.0v7 M-2.5,-0.5L0,-3.0L2.5,-0.5"/>
                </g>
        </g>
        <svg viewBox="0 0 15 15" width="100%" height="30px" preserveAspectRatio="xMaxYMin meet">
         <g id="arrow_out" transform="scale(0.3 0.3)">
          <a xlink:href="classgui_1_1factories_1_1turtlefactory_1_1_turtle_factory_a68a8fca83dc5ca127be73f046950ef54_cgraph_org.svg" target="_base">
           <rect id="button" ry="5" rx="5" y="6" x="6" height="38" width="38"
                fill="#f2f5e9" fill-opacity="0.5" stroke="#606060" stroke-width="1.0"/>
           <path id="arrow"
             d="M 11.500037,31.436501 C 11.940474,20.09759 22.043105,11.32322 32.158766,21.979434 L 37.068811,17.246167 C 37.068811,17.246167 37.088388,32 37.088388,32 L 22.160133,31.978069 C 22.160133,31.978069 26.997745,27.140456 26.997745,27.140456 C 18.528582,18.264221 13.291696,25.230495 11.500037,31.436501 z"
             style="fill:#404040;"/>
          </a>
         </g>
        </svg>
</svg>
