<?xml version="1.0" encoding="UTF-8" standalone="no"?>
<!DOCTYPE svg PUBLIC "-//W3C//DTD SVG 1.1//EN"
 "http://www.w3.org/Graphics/SVG/1.1/DTD/svg11.dtd">
<!-- Generated by graphviz version 2.36.0 (20140111.2315)
 -->
<!-- Title: gui.componentdrawers.TurtleScreenDrawer.getScreenParams Pages: 1 -->
<svg width="396pt" height="38pt"
 viewBox="0.00 0.00 396.00 38.00" xmlns="http://www.w3.org/2000/svg" xmlns:xlink="http://www.w3.org/1999/xlink">
<g id="graph0" class="graph" transform="scale(1 1) rotate(0) translate(4 34)">
<title>gui.componentdrawers.TurtleScreenDrawer.getScreenParams</title>
<polygon fill="white" stroke="none" points="-4,4 -4,-34 392,-34 392,4 -4,4"/>
<!-- Node1 -->
<g id="node1" class="node"><title>Node1</title>
<polygon fill="#bfbfbf" stroke="black" points="0,-0 0,-30 172,-30 172,-0 0,-0"/>
<text text-anchor="start" x="8" y="-18" font-family="Helvetica,sans-Serif" font-size="10.00">gui.componentdrawers.Turtle</text>
<text text-anchor="middle" x="86" y="-7" font-family="Helvetica,sans-Serif" font-size="10.00">ScreenDrawer.getScreenParams</text>
</g>
<!-- Node2 -->
<g id="node2" class="node"><title>Node2</title>
<g id="a_node2"><a xlink:href="../../dd/d08/class_x_m_l_1_1workspaceparams_1_1_workspace_screen_parameters.html#a5eb367f82065dcbb61f1bfab175312cd" target="_top" xlink:title="XML.workspaceparams.Workspace\lScreenParameters.put">
<polygon fill="white" stroke="black" points="208,-0 208,-30 388,-30 388,-0 208,-0"/>
<text text-anchor="start" x="216" y="-18" font-family="Helvetica,sans-Serif" font-size="10.00">XML.workspaceparams.Workspace</text>
<text text-anchor="middle" x="298" y="-7" font-family="Helvetica,sans-Serif" font-size="10.00">ScreenParameters.put</text>
</a>
</g>
</g>
<!-- Node1&#45;&gt;Node2 -->
<g id="edge1" class="edge"><title>Node1&#45;&gt;Node2</title>
<path fill="none" stroke="midnightblue" d="M172.112,-15C180.438,-15 188.936,-15 197.388,-15"/>
<polygon fill="midnightblue" stroke="midnightblue" points="197.66,-18.5001 207.66,-15 197.66,-11.5001 197.66,-18.5001"/>
</g>
</g>
</svg>
