<?xml version="1.0" encoding="UTF-8" standalone="no"?>
<!DOCTYPE svg PUBLIC "-//W3C//DTD SVG 1.1//EN"
 "http://www.w3.org/Graphics/SVG/1.1/DTD/svg11.dtd">
<!-- Generated by graphviz version 2.36.0 (20140111.2315)
 -->
<!-- Title: gui.componentdrawers.TurtleScreenDrawer.initializeGridPane Pages: 1 -->
<svg width="368pt" height="87pt"
 viewBox="0.00 0.00 368.00 87.00" xmlns="http://www.w3.org/2000/svg" xmlns:xlink="http://www.w3.org/1999/xlink">
<g id="graph0" class="graph" transform="scale(1 1) rotate(0) translate(4 83)">
<title>gui.componentdrawers.TurtleScreenDrawer.initializeGridPane</title>
<polygon fill="white" stroke="none" points="-4,4 -4,-83 364,-83 364,4 -4,4"/>
<!-- Node1 -->
<g id="node1" class="node"><title>Node1</title>
<polygon fill="#bfbfbf" stroke="black" points="0.5,-24 0.5,-54 167.5,-54 167.5,-24 0.5,-24"/>
<text text-anchor="start" x="8.5" y="-42" font-family="Helvetica,sans-Serif" font-size="10.00">gui.componentdrawers.Turtle</text>
<text text-anchor="middle" x="84" y="-31" font-family="Helvetica,sans-Serif" font-size="10.00">ScreenDrawer.initializeGridPane</text>
</g>
<!-- Node2 -->
<g id="node2" class="node"><title>Node2</title>
<g id="a_node2"><a xlink:href="../../dd/d4c/classgui_1_1componentdrawers_1_1_turtle_screen_drawer.html#af0ffb1e9d615dd3a87f2679e694ebacc" target="_top" xlink:title="gui.componentdrawers.Turtle\lScreenDrawer.makeColLine">
<polygon fill="white" stroke="black" points="204.5,-49 204.5,-79 359.5,-79 359.5,-49 204.5,-49"/>
<text text-anchor="start" x="212.5" y="-67" font-family="Helvetica,sans-Serif" font-size="10.00">gui.componentdrawers.Turtle</text>
<text text-anchor="middle" x="282" y="-56" font-family="Helvetica,sans-Serif" font-size="10.00">ScreenDrawer.makeColLine</text>
</a>
</g>
</g>
<!-- Node1&#45;&gt;Node2 -->
<g id="edge1" class="edge"><title>Node1&#45;&gt;Node2</title>
<path fill="none" stroke="midnightblue" d="M167.554,-49.5298C176.447,-50.6642 185.515,-51.8208 194.453,-52.9609"/>
<polygon fill="midnightblue" stroke="midnightblue" points="194.112,-56.4456 204.475,-54.2391 194.998,-49.5019 194.112,-56.4456"/>
</g>
<!-- Node3 -->
<g id="node3" class="node"><title>Node3</title>
<g id="a_node3"><a xlink:href="../../dd/d4c/classgui_1_1componentdrawers_1_1_turtle_screen_drawer.html#a7d6332d7c91df12e7d2019a338972973" target="_top" xlink:title="gui.componentdrawers.Turtle\lScreenDrawer.makeRowLine">
<polygon fill="white" stroke="black" points="204.5,-0 204.5,-30 359.5,-30 359.5,-0 204.5,-0"/>
<text text-anchor="start" x="212.5" y="-18" font-family="Helvetica,sans-Serif" font-size="10.00">gui.componentdrawers.Turtle</text>
<text text-anchor="middle" x="282" y="-7" font-family="Helvetica,sans-Serif" font-size="10.00">ScreenDrawer.makeRowLine</text>
</a>
</g>
</g>
<!-- Node1&#45;&gt;Node3 -->
<g id="edge2" class="edge"><title>Node1&#45;&gt;Node3</title>
<path fill="none" stroke="midnightblue" d="M167.554,-28.8914C176.447,-27.8024 185.515,-26.6921 194.453,-25.5975"/>
<polygon fill="midnightblue" stroke="midnightblue" points="194.974,-29.06 204.475,-24.3705 194.123,-22.1119 194.974,-29.06"/>
</g>
</g>
</svg>
