<?xml version="1.0" encoding="UTF-8" standalone="no"?>
<!DOCTYPE svg PUBLIC "-//W3C//DTD SVG 1.1//EN"
 "http://www.w3.org/Graphics/SVG/1.1/DTD/svg11.dtd">
<!-- Generated by graphviz version 2.36.0 (20140111.2315)
 -->
<!-- Title: gui.componentdrawers.TurtleScreenDrawer.toggleGrid Pages: 1 -->
<svg width="390pt" height="98pt"
 viewBox="0.00 0.00 390.00 98.00" xmlns="http://www.w3.org/2000/svg" xmlns:xlink="http://www.w3.org/1999/xlink">
<g id="graph0" class="graph" transform="scale(1 1) rotate(0) translate(4 94)">
<title>gui.componentdrawers.TurtleScreenDrawer.toggleGrid</title>
<polygon fill="white" stroke="none" points="-4,4 -4,-94 386,-94 386,4 -4,4"/>
<!-- Node1 -->
<g id="node1" class="node"><title>Node1</title>
<polygon fill="#bfbfbf" stroke="black" points="0.5,-27 0.5,-57 155.5,-57 155.5,-27 0.5,-27"/>
<text text-anchor="start" x="8.5" y="-45" font-family="Helvetica,sans-Serif" font-size="10.00">gui.componentdrawers.Turtle</text>
<text text-anchor="middle" x="78" y="-34" font-family="Helvetica,sans-Serif" font-size="10.00">ScreenDrawer.toggleGrid</text>
</g>
<!-- Node2 -->
<g id="node2" class="node"><title>Node2</title>
<g id="a_node2"><a xlink:href="../../da/da4/classgui_1_1buttonfeatures_1_1_toggle_grid_button_feature.html#ad14fbfbde09d20fbce7e1fd2f223b984" target="_top" xlink:title="gui.buttonfeatures.Toggle\lGridButtonFeature.ToggleGridButton\lFeature">
<polygon fill="white" stroke="black" points="192.5,-48.5 192.5,-89.5 381.5,-89.5 381.5,-48.5 192.5,-48.5"/>
<text text-anchor="start" x="200.5" y="-77.5" font-family="Helvetica,sans-Serif" font-size="10.00">gui.buttonfeatures.Toggle</text>
<text text-anchor="start" x="200.5" y="-66.5" font-family="Helvetica,sans-Serif" font-size="10.00">GridButtonFeature.ToggleGridButton</text>
<text text-anchor="middle" x="287" y="-55.5" font-family="Helvetica,sans-Serif" font-size="10.00">Feature</text>
</a>
</g>
</g>
<!-- Node1&#45;&gt;Node2 -->
<g id="edge1" class="edge"><title>Node1&#45;&gt;Node2</title>
<path fill="none" stroke="midnightblue" d="M165.888,-53.3332C174.57,-54.4657 183.412,-55.619 192.162,-56.7602"/>
<polygon fill="midnightblue" stroke="midnightblue" points="166.154,-49.8383 155.785,-52.0154 165.248,-56.7795 166.154,-49.8383"/>
</g>
<!-- Node3 -->
<g id="node3" class="node"><title>Node3</title>
<g id="a_node3"><a xlink:href="../../dd/d6a/classgui_1_1nonbuttonfeatures_1_1_turtle_screen_feature.html#af86e64e7942db0261c89054295de761f" target="_top" xlink:title="gui.nonbuttonfeatures.Turtle\lScreenFeature.TurtleScreenFeature">
<polygon fill="white" stroke="black" points="194.5,-0 194.5,-30 379.5,-30 379.5,-0 194.5,-0"/>
<text text-anchor="start" x="202.5" y="-18" font-family="Helvetica,sans-Serif" font-size="10.00">gui.nonbuttonfeatures.Turtle</text>
<text text-anchor="middle" x="287" y="-7" font-family="Helvetica,sans-Serif" font-size="10.00">ScreenFeature.TurtleScreenFeature</text>
</a>
</g>
</g>
<!-- Node1&#45;&gt;Node3 -->
<g id="edge2" class="edge"><title>Node1&#45;&gt;Node3</title>
<path fill="none" stroke="midnightblue" d="M165.883,-30.6675C175.27,-29.443 184.845,-28.1942 194.287,-26.9626"/>
<polygon fill="midnightblue" stroke="midnightblue" points="165.248,-27.2205 155.785,-31.9846 166.154,-34.1617 165.248,-27.2205"/>
</g>
</g>
</svg>
