<?xml version="1.0" encoding="UTF-8" standalone="no"?>
<!DOCTYPE svg PUBLIC "-//W3C//DTD SVG 1.1//EN"
 "http://www.w3.org/Graphics/SVG/1.1/DTD/svg11.dtd">
<!-- Generated by graphviz version 2.36.0 (20140111.2315)
 -->
<!-- Title: gui.componentdrawers.TurtleScreenDrawer.getScreenParams Pages: 1 -->
<svg width="564pt" height="38pt"
 viewBox="0.00 0.00 564.00 38.00" xmlns="http://www.w3.org/2000/svg" xmlns:xlink="http://www.w3.org/1999/xlink">
<g id="graph0" class="graph" transform="scale(1 1) rotate(0) translate(4 34)">
<title>gui.componentdrawers.TurtleScreenDrawer.getScreenParams</title>
<polygon fill="white" stroke="none" points="-4,4 -4,-34 560,-34 560,4 -4,4"/>
<!-- Node1 -->
<g id="node1" class="node"><title>Node1</title>
<polygon fill="#bfbfbf" stroke="black" points="0,-0 0,-30 172,-30 172,-0 0,-0"/>
<text text-anchor="start" x="8" y="-18" font-family="Helvetica,sans-Serif" font-size="10.00">gui.componentdrawers.Turtle</text>
<text text-anchor="middle" x="86" y="-7" font-family="Helvetica,sans-Serif" font-size="10.00">ScreenDrawer.getScreenParams</text>
</g>
<!-- Node2 -->
<g id="node2" class="node"><title>Node2</title>
<g id="a_node2"><a xlink:href="../../d8/df2/classgui_1_1mainclasses_1_1workspace_1_1_workspace.html#a7932ca3506bb6ed22fec1770863c4858" target="_top" xlink:title="gui.mainclasses.workspace.\lWorkspace.getScreenParams">
<polygon fill="white" stroke="black" points="208,-0 208,-30 364,-30 364,-0 208,-0"/>
<text text-anchor="start" x="216" y="-18" font-family="Helvetica,sans-Serif" font-size="10.00">gui.mainclasses.workspace.</text>
<text text-anchor="middle" x="286" y="-7" font-family="Helvetica,sans-Serif" font-size="10.00">Workspace.getScreenParams</text>
</a>
</g>
</g>
<!-- Node1&#45;&gt;Node2 -->
<g id="edge1" class="edge"><title>Node1&#45;&gt;Node2</title>
<path fill="none" stroke="midnightblue" d="M182.161,-15C190.744,-15 199.365,-15 207.766,-15"/>
<polygon fill="midnightblue" stroke="midnightblue" points="182.119,-11.5001 172.119,-15 182.119,-18.5001 182.119,-11.5001"/>
</g>
<!-- Node3 -->
<g id="node3" class="node"><title>Node3</title>
<g id="a_node3"><a xlink:href="../../d1/dea/classgui_1_1menus_1_1_file_menu.html#ae040d0be1f3ff61aae358d2d6894619e" target="_top" xlink:title="gui.menus.FileMenu.FileMenu">
<polygon fill="white" stroke="black" points="400.5,-5.5 400.5,-24.5 555.5,-24.5 555.5,-5.5 400.5,-5.5"/>
<text text-anchor="middle" x="478" y="-12.5" font-family="Helvetica,sans-Serif" font-size="10.00">gui.menus.FileMenu.FileMenu</text>
</a>
</g>
</g>
<!-- Node2&#45;&gt;Node3 -->
<g id="edge2" class="edge"><title>Node2&#45;&gt;Node3</title>
<path fill="none" stroke="midnightblue" d="M374.15,-15C382.841,-15 391.619,-15 400.193,-15"/>
<polygon fill="midnightblue" stroke="midnightblue" points="374.006,-11.5001 364.006,-15 374.006,-18.5001 374.006,-11.5001"/>
</g>
</g>
</svg>
