<?xml version="1.0" encoding="UTF-8" standalone="no"?>
<!DOCTYPE svg PUBLIC "-//W3C//DTD SVG 1.1//EN"
 "http://www.w3.org/Graphics/SVG/1.1/DTD/svg11.dtd">
<!-- Generated by graphviz version 2.36.0 (20140111.2315)
 -->
<!-- Title: gui.componentdrawers.TurtleScreenDrawer.makeColLine Pages: 1 -->
<svg width="584pt" height="38pt"
 viewBox="0.00 0.00 584.00 38.00" xmlns="http://www.w3.org/2000/svg" xmlns:xlink="http://www.w3.org/1999/xlink">
<g id="graph0" class="graph" transform="scale(1 1) rotate(0) translate(4 34)">
<title>gui.componentdrawers.TurtleScreenDrawer.makeColLine</title>
<polygon fill="white" stroke="none" points="-4,4 -4,-34 580,-34 580,4 -4,4"/>
<!-- Node1 -->
<g id="node1" class="node"><title>Node1</title>
<polygon fill="#bfbfbf" stroke="black" points="0.5,-0 0.5,-30 155.5,-30 155.5,-0 0.5,-0"/>
<text text-anchor="start" x="8.5" y="-18" font-family="Helvetica,sans-Serif" font-size="10.00">gui.componentdrawers.Turtle</text>
<text text-anchor="middle" x="78" y="-7" font-family="Helvetica,sans-Serif" font-size="10.00">ScreenDrawer.makeColLine</text>
</g>
<!-- Node2 -->
<g id="node2" class="node"><title>Node2</title>
<g id="a_node2"><a xlink:href="../../dd/d4c/classgui_1_1componentdrawers_1_1_turtle_screen_drawer.html#a83f12c302421ec33a85eacc4ede2c402" target="_top" xlink:title="gui.componentdrawers.Turtle\lScreenDrawer.initializeGridPane">
<polygon fill="white" stroke="black" points="192.5,-0 192.5,-30 359.5,-30 359.5,-0 192.5,-0"/>
<text text-anchor="start" x="200.5" y="-18" font-family="Helvetica,sans-Serif" font-size="10.00">gui.componentdrawers.Turtle</text>
<text text-anchor="middle" x="276" y="-7" font-family="Helvetica,sans-Serif" font-size="10.00">ScreenDrawer.initializeGridPane</text>
</a>
</g>
</g>
<!-- Node1&#45;&gt;Node2 -->
<g id="edge1" class="edge"><title>Node1&#45;&gt;Node2</title>
<path fill="none" stroke="midnightblue" d="M165.857,-15C174.639,-15 183.541,-15 192.278,-15"/>
<polygon fill="midnightblue" stroke="midnightblue" points="165.621,-11.5001 155.621,-15 165.621,-18.5001 165.621,-11.5001"/>
</g>
<!-- Node3 -->
<g id="node3" class="node"><title>Node3</title>
<g id="a_node3"><a xlink:href="../../dd/d4c/classgui_1_1componentdrawers_1_1_turtle_screen_drawer.html#aa743f077632a96e52896052f429de525" target="_top" xlink:title="gui.componentdrawers.Turtle\lScreenDrawer.TurtleScreenDrawer">
<polygon fill="white" stroke="black" points="396.5,-0 396.5,-30 575.5,-30 575.5,-0 396.5,-0"/>
<text text-anchor="start" x="404.5" y="-18" font-family="Helvetica,sans-Serif" font-size="10.00">gui.componentdrawers.Turtle</text>
<text text-anchor="middle" x="486" y="-7" font-family="Helvetica,sans-Serif" font-size="10.00">ScreenDrawer.TurtleScreenDrawer</text>
</a>
</g>
</g>
<!-- Node2&#45;&gt;Node3 -->
<g id="edge2" class="edge"><title>Node2&#45;&gt;Node3</title>
<path fill="none" stroke="midnightblue" d="M369.539,-15C378.48,-15 387.537,-15 396.439,-15"/>
<polygon fill="midnightblue" stroke="midnightblue" points="369.506,-11.5001 359.506,-15 369.506,-18.5001 369.506,-11.5001"/>
</g>
</g>
</svg>
