<?xml version="1.0" encoding="UTF-8" standalone="no"?>
<!DOCTYPE svg PUBLIC "-//W3C//DTD SVG 1.1//EN"
 "http://www.w3.org/Graphics/SVG/1.1/DTD/svg11.dtd">
<!-- Generated by graphviz version 2.36.0 (20140111.2315)
 -->
<!-- Title: gui.componentdrawers.TurtleScreenDrawer.TurtleScreenDrawer Pages: 1 -->
<svg width="598pt" height="101pt"
 viewBox="0.00 0.00 598.00 101.00" xmlns="http://www.w3.org/2000/svg" xmlns:xlink="http://www.w3.org/1999/xlink">
<g id="graph0" class="graph" transform="scale(1 1) rotate(0) translate(4 97)">
<title>gui.componentdrawers.TurtleScreenDrawer.TurtleScreenDrawer</title>
<polygon fill="white" stroke="none" points="-4,4 -4,-97 594,-97 594,4 -4,4"/>
<!-- Node1 -->
<g id="node1" class="node"><title>Node1</title>
<polygon fill="#bfbfbf" stroke="black" points="0.5,-46 0.5,-76 179.5,-76 179.5,-46 0.5,-46"/>
<text text-anchor="start" x="8.5" y="-64" font-family="Helvetica,sans-Serif" font-size="10.00">gui.componentdrawers.Turtle</text>
<text text-anchor="middle" x="90" y="-53" font-family="Helvetica,sans-Serif" font-size="10.00">ScreenDrawer.TurtleScreenDrawer</text>
</g>
<!-- Node2 -->
<g id="node2" class="node"><title>Node2</title>
<g id="a_node2"><a xlink:href="../../d0/d49/classgui_1_1mainclasses_1_1_text_generator.html#afef308a2abfb8f1503d2b276407833e6" target="_top" xlink:title="gui.mainclasses.TextGenerator.get">
<polygon fill="white" stroke="black" points="216,-73.5 216,-92.5 398,-92.5 398,-73.5 216,-73.5"/>
<text text-anchor="middle" x="307" y="-80.5" font-family="Helvetica,sans-Serif" font-size="10.00">gui.mainclasses.TextGenerator.get</text>
</a>
</g>
</g>
<!-- Node1&#45;&gt;Node2 -->
<g id="edge1" class="edge"><title>Node1&#45;&gt;Node2</title>
<path fill="none" stroke="midnightblue" d="M179.69,-70.0753C188.253,-70.9515 196.981,-71.8446 205.647,-72.7313"/>
<polygon fill="midnightblue" stroke="midnightblue" points="205.473,-76.2317 215.777,-73.7679 206.185,-69.268 205.473,-76.2317"/>
</g>
<!-- Node3 -->
<g id="node3" class="node"><title>Node3</title>
<g id="a_node3"><a xlink:href="../../dd/d4c/classgui_1_1componentdrawers_1_1_turtle_screen_drawer.html#a83f12c302421ec33a85eacc4ede2c402" target="_top" xlink:title="gui.componentdrawers.Turtle\lScreenDrawer.initializeGridPane">
<polygon fill="white" stroke="black" points="223.5,-24 223.5,-54 390.5,-54 390.5,-24 223.5,-24"/>
<text text-anchor="start" x="231.5" y="-42" font-family="Helvetica,sans-Serif" font-size="10.00">gui.componentdrawers.Turtle</text>
<text text-anchor="middle" x="307" y="-31" font-family="Helvetica,sans-Serif" font-size="10.00">ScreenDrawer.initializeGridPane</text>
</a>
</g>
</g>
<!-- Node1&#45;&gt;Node3 -->
<g id="edge2" class="edge"><title>Node1&#45;&gt;Node3</title>
<path fill="none" stroke="midnightblue" d="M179.69,-51.9247C190.76,-50.792 202.105,-49.6311 213.235,-48.4922"/>
<polygon fill="midnightblue" stroke="midnightblue" points="213.79,-51.9538 223.382,-47.4539 213.078,-44.9901 213.79,-51.9538"/>
</g>
<!-- Node4 -->
<g id="node4" class="node"><title>Node4</title>
<g id="a_node4"><a xlink:href="../../dd/d4c/classgui_1_1componentdrawers_1_1_turtle_screen_drawer.html#a7d6332d7c91df12e7d2019a338972973" target="_top" xlink:title="gui.componentdrawers.Turtle\lScreenDrawer.makeRowLine">
<polygon fill="white" stroke="black" points="434.5,-49 434.5,-79 589.5,-79 589.5,-49 434.5,-49"/>
<text text-anchor="start" x="442.5" y="-67" font-family="Helvetica,sans-Serif" font-size="10.00">gui.componentdrawers.Turtle</text>
<text text-anchor="middle" x="512" y="-56" font-family="Helvetica,sans-Serif" font-size="10.00">ScreenDrawer.makeRowLine</text>
</a>
</g>
</g>
<!-- Node3&#45;&gt;Node4 -->
<g id="edge3" class="edge"><title>Node3&#45;&gt;Node4</title>
<path fill="none" stroke="midnightblue" d="M390.568,-49.1685C401.661,-50.5347 413.068,-51.9394 424.231,-53.3142"/>
<polygon fill="midnightblue" stroke="midnightblue" points="424.046,-56.8178 434.399,-54.5664 424.902,-49.8703 424.046,-56.8178"/>
</g>
<!-- Node5 -->
<g id="node5" class="node"><title>Node5</title>
<g id="a_node5"><a xlink:href="../../dd/d4c/classgui_1_1componentdrawers_1_1_turtle_screen_drawer.html#af0ffb1e9d615dd3a87f2679e694ebacc" target="_top" xlink:title="gui.componentdrawers.Turtle\lScreenDrawer.makeColLine">
<polygon fill="white" stroke="black" points="434.5,-0 434.5,-30 589.5,-30 589.5,-0 434.5,-0"/>
<text text-anchor="start" x="442.5" y="-18" font-family="Helvetica,sans-Serif" font-size="10.00">gui.componentdrawers.Turtle</text>
<text text-anchor="middle" x="512" y="-7" font-family="Helvetica,sans-Serif" font-size="10.00">ScreenDrawer.makeColLine</text>
</a>
</g>
</g>
<!-- Node3&#45;&gt;Node5 -->
<g id="edge4" class="edge"><title>Node3&#45;&gt;Node5</title>
<path fill="none" stroke="midnightblue" d="M390.568,-29.2383C401.661,-27.9267 413.068,-26.5782 424.231,-25.2584"/>
<polygon fill="midnightblue" stroke="midnightblue" points="424.879,-28.7062 434.399,-24.0563 424.057,-21.7547 424.879,-28.7062"/>
</g>
</g>
</svg>
