<?xml version="1.0" encoding="UTF-8" standalone="no"?>
<!DOCTYPE svg PUBLIC "-//W3C//DTD SVG 1.1//EN"
 "http://www.w3.org/Graphics/SVG/1.1/DTD/svg11.dtd">
<!-- Generated by graphviz version 2.36.0 (20140111.2315)
 -->
<!-- Title: commandParsing.drawableObectGenerationInterfaces.LineGenerator Pages: 1 -->
<svg width="874pt" height="195pt"
 viewBox="0.00 0.00 874.00 195.00" xmlns="http://www.w3.org/2000/svg" xmlns:xlink="http://www.w3.org/1999/xlink">
<g id="graph0" class="graph" transform="scale(1 1) rotate(0) translate(4 191)">
<title>commandParsing.drawableObectGenerationInterfaces.LineGenerator</title>
<polygon fill="white" stroke="none" points="-4,4 -4,-191 870,-191 870,4 -4,4"/>
<!-- Node1 -->
<g id="node1" class="node"><title>Node1</title>
<polygon fill="#bfbfbf" stroke="black" points="0,-81 0,-111 188,-111 188,-81 0,-81"/>
<text text-anchor="start" x="8" y="-99" font-family="Helvetica,sans-Serif" font-size="10.00">commandParsing.drawableObect</text>
<text text-anchor="middle" x="94" y="-88" font-family="Helvetica,sans-Serif" font-size="10.00">GenerationInterfaces.LineGenerator</text>
</g>
<!-- Node2 -->
<g id="node2" class="node"><title>Node2</title>
<g id="a_node2"><a xlink:href="../../d6/d37/classcommand_parsing_1_1turtle_command_parsing_1_1turtle_movement_1_1_move.html" target="_top" xlink:title="commandParsing.turtleCommand\lParsing.turtleMovement.Move">
<polygon fill="white" stroke="black" points="239.5,-108 239.5,-138 418.5,-138 418.5,-108 239.5,-108"/>
<text text-anchor="start" x="247.5" y="-126" font-family="Helvetica,sans-Serif" font-size="10.00">commandParsing.turtleCommand</text>
<text text-anchor="middle" x="329" y="-115" font-family="Helvetica,sans-Serif" font-size="10.00">Parsing.turtleMovement.Move</text>
</a>
</g>
</g>
<!-- Node1&#45;&gt;Node2 -->
<g id="edge1" class="edge"><title>Node1&#45;&gt;Node2</title>
<path fill="none" stroke="midnightblue" d="M198.037,-107.94C211.772,-109.532 225.76,-111.152 239.223,-112.712"/>
<polygon fill="midnightblue" stroke="midnightblue" points="198.429,-104.462 188.092,-106.788 197.623,-111.415 198.429,-104.462"/>
</g>
<!-- Node5 -->
<g id="node5" class="node"><title>Node5</title>
<g id="a_node5"><a xlink:href="../../d9/dab/classcommand_parsing_1_1turtle_command_parsing_1_1turtle_movement_1_1_move_to_location.html" target="_top" xlink:title="commandParsing.turtleCommand\lParsing.turtleMovement.MoveToLocation">
<polygon fill="white" stroke="black" points="224.5,-54 224.5,-84 433.5,-84 433.5,-54 224.5,-54"/>
<text text-anchor="start" x="232.5" y="-72" font-family="Helvetica,sans-Serif" font-size="10.00">commandParsing.turtleCommand</text>
<text text-anchor="middle" x="329" y="-61" font-family="Helvetica,sans-Serif" font-size="10.00">Parsing.turtleMovement.MoveToLocation</text>
</a>
</g>
</g>
<!-- Node1&#45;&gt;Node5 -->
<g id="edge4" class="edge"><title>Node1&#45;&gt;Node5</title>
<path fill="none" stroke="midnightblue" d="M198.215,-84.0395C206.887,-83.0346 215.658,-82.0182 224.333,-81.0129"/>
<polygon fill="midnightblue" stroke="midnightblue" points="197.623,-80.5846 188.092,-85.2125 198.429,-87.538 197.623,-80.5846"/>
</g>
<!-- Node3 -->
<g id="node3" class="node"><title>Node3</title>
<g id="a_node3"><a xlink:href="../../d9/d5e/classcommand_parsing_1_1turtle_command_parsing_1_1turtle_movement_1_1_backward.html" target="_top" xlink:title="commandParsing.turtleCommand\lParsing.turtleMovement.Backward">
<polygon fill="white" stroke="black" points="470.5,-157 470.5,-187 649.5,-187 649.5,-157 470.5,-157"/>
<text text-anchor="start" x="478.5" y="-175" font-family="Helvetica,sans-Serif" font-size="10.00">commandParsing.turtleCommand</text>
<text text-anchor="middle" x="560" y="-164" font-family="Helvetica,sans-Serif" font-size="10.00">Parsing.turtleMovement.Backward</text>
</a>
</g>
</g>
<!-- Node2&#45;&gt;Node3 -->
<g id="edge2" class="edge"><title>Node2&#45;&gt;Node3</title>
<path fill="none" stroke="midnightblue" d="M410.315,-140.185C435.923,-145.665 464.042,-151.682 488.869,-156.994"/>
<polygon fill="midnightblue" stroke="midnightblue" points="410.775,-136.705 400.264,-138.035 409.31,-143.55 410.775,-136.705"/>
</g>
<!-- Node4 -->
<g id="node4" class="node"><title>Node4</title>
<g id="a_node4"><a xlink:href="../../da/d78/classcommand_parsing_1_1turtle_command_parsing_1_1turtle_movement_1_1_forward.html" target="_top" xlink:title="commandParsing.turtleCommand\lParsing.turtleMovement.Forward">
<polygon fill="white" stroke="black" points="470.5,-108 470.5,-138 649.5,-138 649.5,-108 470.5,-108"/>
<text text-anchor="start" x="478.5" y="-126" font-family="Helvetica,sans-Serif" font-size="10.00">commandParsing.turtleCommand</text>
<text text-anchor="middle" x="560" y="-115" font-family="Helvetica,sans-Serif" font-size="10.00">Parsing.turtleMovement.Forward</text>
</a>
</g>
</g>
<!-- Node2&#45;&gt;Node4 -->
<g id="edge3" class="edge"><title>Node2&#45;&gt;Node4</title>
<path fill="none" stroke="midnightblue" d="M428.573,-123C442.45,-123 456.644,-123 470.321,-123"/>
<polygon fill="midnightblue" stroke="midnightblue" points="428.537,-119.5 418.537,-123 428.537,-126.5 428.537,-119.5"/>
</g>
<!-- Node6 -->
<g id="node6" class="node"><title>Node6</title>
<g id="a_node6"><a xlink:href="../../d4/d74/classcommand_parsing_1_1turtle_command_parsing_1_1turtle_attribute_setters_1_1_set_position.html" target="_top" xlink:title="commandParsing.turtleCommand\lParsing.turtleAttributeSetters.\lSetPosition">
<polygon fill="white" stroke="black" points="470.5,-48.5 470.5,-89.5 649.5,-89.5 649.5,-48.5 470.5,-48.5"/>
<text text-anchor="start" x="478.5" y="-77.5" font-family="Helvetica,sans-Serif" font-size="10.00">commandParsing.turtleCommand</text>
<text text-anchor="start" x="478.5" y="-66.5" font-family="Helvetica,sans-Serif" font-size="10.00">Parsing.turtleAttributeSetters.</text>
<text text-anchor="middle" x="560" y="-55.5" font-family="Helvetica,sans-Serif" font-size="10.00">SetPosition</text>
</a>
</g>
</g>
<!-- Node5&#45;&gt;Node6 -->
<g id="edge5" class="edge"><title>Node5&#45;&gt;Node6</title>
<path fill="none" stroke="midnightblue" d="M443.804,-69C452.694,-69 461.591,-69 470.278,-69"/>
<polygon fill="midnightblue" stroke="midnightblue" points="443.78,-65.5001 433.78,-69 443.78,-72.5001 443.78,-65.5001"/>
</g>
<!-- Node7 -->
<g id="node7" class="node"><title>Node7</title>
<g id="a_node7"><a xlink:href="../../dd/d8a/classcommand_parsing_1_1turtle_command_parsing_1_1turtle_movement_1_1_home.html" target="_top" xlink:title="commandParsing.turtleCommand\lParsing.turtleMovement.Home">
<polygon fill="white" stroke="black" points="470.5,-0 470.5,-30 649.5,-30 649.5,-0 470.5,-0"/>
<text text-anchor="start" x="478.5" y="-18" font-family="Helvetica,sans-Serif" font-size="10.00">commandParsing.turtleCommand</text>
<text text-anchor="middle" x="560" y="-7" font-family="Helvetica,sans-Serif" font-size="10.00">Parsing.turtleMovement.Home</text>
</a>
</g>
</g>
<!-- Node5&#45;&gt;Node7 -->
<g id="edge6" class="edge"><title>Node5&#45;&gt;Node7</title>
<path fill="none" stroke="midnightblue" d="M403.613,-51.6414C433.091,-44.6902 466.732,-36.7575 495.156,-30.0549"/>
<polygon fill="midnightblue" stroke="midnightblue" points="402.719,-48.2562 393.789,-53.958 404.326,-55.0694 402.719,-48.2562"/>
</g>
<!-- Node8 -->
<g id="node8" class="node"><title>Node8</title>
<g id="a_node8"><a xlink:href="../../dd/dc5/classcommand_parsing_1_1turtle_command_parsing_1_1_clear_screen.html" target="_top" xlink:title="commandParsing.turtleCommand\lParsing.ClearScreen">
<polygon fill="white" stroke="black" points="686.5,-0 686.5,-30 865.5,-30 865.5,-0 686.5,-0"/>
<text text-anchor="start" x="694.5" y="-18" font-family="Helvetica,sans-Serif" font-size="10.00">commandParsing.turtleCommand</text>
<text text-anchor="middle" x="776" y="-7" font-family="Helvetica,sans-Serif" font-size="10.00">Parsing.ClearScreen</text>
</a>
</g>
</g>
<!-- Node7&#45;&gt;Node8 -->
<g id="edge7" class="edge"><title>Node7&#45;&gt;Node8</title>
<path fill="none" stroke="midnightblue" d="M659.645,-15C668.596,-15 677.625,-15 686.48,-15"/>
<polygon fill="midnightblue" stroke="midnightblue" points="659.587,-11.5001 649.587,-15 659.587,-18.5001 659.587,-11.5001"/>
</g>
</g>
</svg>
