<?xml version="1.0" encoding="UTF-8" standalone="no"?>
<!DOCTYPE svg PUBLIC "-//W3C//DTD SVG 1.1//EN"
 "http://www.w3.org/Graphics/SVG/1.1/DTD/svg11.dtd">
<!-- Generated by graphviz version 2.36.0 (20140111.2315)
 -->
<!-- Title: gui.nonbuttonfeatures.SavedCommandsFeature Pages: 1 -->
<svg width="282pt" height="120pt"
 viewBox="0.00 0.00 282.00 120.00" xmlns="http://www.w3.org/2000/svg" xmlns:xlink="http://www.w3.org/1999/xlink">
<g id="graph0" class="graph" transform="scale(1 1) rotate(0) translate(4 116)">
<title>gui.nonbuttonfeatures.SavedCommandsFeature</title>
<polygon fill="white" stroke="none" points="-4,4 -4,-116 278,-116 278,4 -4,4"/>
<!-- Node1 -->
<g id="node1" class="node"><title>Node1</title>
<polygon fill="#bfbfbf" stroke="black" points="54,-1 54,-31 210,-31 210,-1 54,-1"/>
<text text-anchor="start" x="62" y="-19" font-family="Helvetica,sans-Serif" font-size="10.00">gui.nonbuttonfeatures.Saved</text>
<text text-anchor="middle" x="132" y="-8" font-family="Helvetica,sans-Serif" font-size="10.00">CommandsFeature</text>
</g>
<!-- Node2 -->
<g id="node2" class="node"><title>Node2</title>
<polygon fill="white" stroke="#bfbfbf" points="0,-81 0,-111 118,-111 118,-81 0,-81"/>
<text text-anchor="start" x="8" y="-99" font-family="Helvetica,sans-Serif" font-size="10.00">javafx::scene::control</text>
<text text-anchor="middle" x="59" y="-88" font-family="Helvetica,sans-Serif" font-size="10.00">::ListView&lt; String &gt;</text>
</g>
<!-- Node2&#45;&gt;Node1 -->
<g id="edge1" class="edge"><title>Node2&#45;&gt;Node1</title>
<path fill="none" stroke="midnightblue" d="M79.3626,-73.2427C91.9365,-59.8075 107.71,-42.9542 118.696,-31.2157"/>
<polygon fill="midnightblue" stroke="midnightblue" points="76.6671,-71.0007 72.3893,-80.6936 81.778,-75.784 76.6671,-71.0007"/>
</g>
<!-- Node3 -->
<g id="node3" class="node"><title>Node3</title>
<polygon fill="white" stroke="#bfbfbf" points="136,-86.5 136,-105.5 274,-105.5 274,-86.5 136,-86.5"/>
<text text-anchor="middle" x="205" y="-93.5" font-family="Helvetica,sans-Serif" font-size="10.00">ObservableList&lt; String &gt;</text>
</g>
<!-- Node3&#45;&gt;Node1 -->
<g id="edge2" class="edge"><title>Node3&#45;&gt;Node1</title>
<path fill="none" stroke="#9a32cd" stroke-dasharray="5,2" d="M189.925,-78.8928C176.784,-64.8519 157.908,-44.6827 145.315,-31.227"/>
<polygon fill="#9a32cd" stroke="#9a32cd" points="187.52,-81.445 196.909,-86.3546 192.631,-76.6618 187.52,-81.445"/>
<text text-anchor="middle" x="209" y="-53.5" font-family="Helvetica,sans-Serif" font-size="10.00"> myCommands</text>
</g>
</g>
</svg>
