<?xml version="1.0" encoding="UTF-8" standalone="no"?>
<!DOCTYPE svg PUBLIC "-//W3C//DTD SVG 1.1//EN"
 "http://www.w3.org/Graphics/SVG/1.1/DTD/svg11.dtd">
<!-- Generated by graphviz version 2.36.0 (20140111.2315)
 -->
<!-- Title: commandParsing.userCommandParsing.MakeUserInstruction Pages: 1 -->
<!--zoomable 330 -->
<svg id="main" version="1.1" xmlns="http://www.w3.org/2000/svg" xmlns:xlink="http://www.w3.org/1999/xlink" xml:space="preserve" onload="init(evt)">
<style type="text/css"><![CDATA[
.edge:hover path { stroke: red; }
.edge:hover polygon { stroke: red; fill: red; }
]]></style>
<script type="text/javascript"><![CDATA[
var edges = document.getElementsByTagName('g');
if (edges && edges.length) {
  for (var i=0;i<edges.length;i++) {
    if (edges[i].id.substr(0,4)=='edge') {
      edges[i].setAttribute('class','edge');
    }
  }
}
]]></script>
        <defs>
                <circle id="rim" cx="0" cy="0" r="7"/>
                <circle id="rim2" cx="0" cy="0" r="3.5"/>
                <g id="zoomPlus">
                        <use xlink:href="#rim" fill="#404040">
                                <set attributeName="fill" to="#808080" begin="zoomplus.mouseover" end="zoomplus.mouseout"/>
                        </use>
                        <path d="M-4,0h8M0,-4v8" fill="none" stroke="white" stroke-width="1.5" pointer-events="none"/>
                </g>
                <g id="zoomMin">
                        <use xlink:href="#rim" fill="#404040">
                                <set attributeName="fill" to="#808080" begin="zoomminus.mouseover" end="zoomminus.mouseout"/>
                        </use>
                        <path d="M-4,0h8" fill="none" stroke="white" stroke-width="1.5" pointer-events="none"/>
                </g>
                <g id="dirArrow">
                        <path fill="none" stroke="white" stroke-width="1.5" d="M0,-3.0v7 M-2.5,-0.5L0,-3.0L2.5,-0.5"/>
                </g>
               <g id="resetDef">
                       <use xlink:href="#rim2" fill="#404040">
                               <set attributeName="fill" to="#808080" begin="reset.mouseover" end="reset.mouseout"/>
                       </use>
               </g>
        </defs>

<script type="text/javascript">
var viewWidth = 1736;
var viewHeight = 330;
var sectionId = 'dynsection-1';
</script>
<script xlink:href="../../svgpan.js"/>
<svg id="graph" class="graph">
<g id="viewport">
<title>commandParsing.userCommandParsing.MakeUserInstruction</title>
<polygon fill="white" stroke="none" points="-4,4 -4,-326 1732,-326 1732,4 -4,4"/>
<!-- Node1 -->
<g id="node1" class="node"><title>Node1</title>
<polygon fill="#bfbfbf" stroke="black" points="1554,-94 1554,-124 1728,-124 1728,-94 1554,-94"/>
<text text-anchor="start" x="1562" y="-112" font-family="Helvetica,sans-Serif" font-size="10.00">commandParsing.userCommand</text>
<text text-anchor="middle" x="1641" y="-101" font-family="Helvetica,sans-Serif" font-size="10.00">Parsing.MakeUserInstruction</text>
</g>
<!-- Node2 -->
<g id="node2" class="node"><title>Node2</title>
<g id="a_node2"><a xlink:href="../../de/dcc/classcommand_parsing_1_1structural_command_parsing_1_1_structural_command.html" target="_top" xlink:title="commandParsing.structural\lCommandParsing.StructuralCommand">
<polygon fill="white" stroke="black" points="1314,-168 1314,-198 1516,-198 1516,-168 1314,-168"/>
<text text-anchor="start" x="1322" y="-186" font-family="Helvetica,sans-Serif" font-size="10.00">commandParsing.structural</text>
<text text-anchor="middle" x="1415" y="-175" font-family="Helvetica,sans-Serif" font-size="10.00">CommandParsing.StructuralCommand</text>
</a>
</g>
</g>
<!-- Node2&#45;&gt;Node1 -->
<g id="edge1" class="edge"><title>Node2&#45;&gt;Node1</title>
<path fill="none" stroke="midnightblue" d="M1490.75,-165.408C1505.85,-161.376 1521.52,-156.838 1536,-152 1560.09,-143.952 1586.53,-132.989 1606.73,-124.147"/>
<polygon fill="midnightblue" stroke="midnightblue" points="1489.72,-162.06 1480.94,-167.983 1491.5,-168.83 1489.72,-162.06"/>
</g>
<!-- Node3 -->
<g id="node3" class="node"><title>Node3</title>
<g id="a_node3"><a xlink:href="../../d7/d17/classcommand_parsing_1_1_command_parser.html" target="_top" xlink:title="commandParsing.CommandParser">
<polygon fill="white" stroke="black" points="992.5,-187.5 992.5,-206.5 1175.5,-206.5 1175.5,-187.5 992.5,-187.5"/>
<text text-anchor="middle" x="1084" y="-194.5" font-family="Helvetica,sans-Serif" font-size="10.00">commandParsing.CommandParser</text>
</a>
</g>
</g>
<!-- Node3&#45;&gt;Node2 -->
<g id="edge2" class="edge"><title>Node3&#45;&gt;Node2</title>
<path fill="none" stroke="midnightblue" d="M1185.97,-192.703C1226.64,-190.973 1273.42,-188.982 1313.99,-187.256"/>
<polygon fill="midnightblue" stroke="midnightblue" points="1185.61,-189.215 1175.77,-193.137 1185.91,-196.209 1185.61,-189.215"/>
</g>
<!-- Node4 -->
<g id="node4" class="node"><title>Node4</title>
<polygon fill="white" stroke="#bfbfbf" points="719.5,-204.5 719.5,-223.5 808.5,-223.5 808.5,-204.5 719.5,-204.5"/>
<text text-anchor="middle" x="764" y="-211.5" font-family="Helvetica,sans-Serif" font-size="10.00">List&lt; Double &gt;</text>
</g>
<!-- Node4&#45;&gt;Node3 -->
<g id="edge3" class="edge"><title>Node4&#45;&gt;Node3</title>
<path fill="none" stroke="#9a32cd" stroke-dasharray="5,2" d="M818.61,-211.134C866.047,-208.598 936.254,-204.845 992.401,-201.843"/>
<polygon fill="#9a32cd" stroke="#9a32cd" points="818.349,-207.643 808.55,-211.672 818.722,-214.633 818.349,-207.643"/>
<text text-anchor="middle" x="915" y="-212" font-family="Helvetica,sans-Serif" font-size="10.00"> expressionComponents</text>
</g>
<!-- Node5 -->
<g id="node5" class="node"><title>Node5</title>
<g id="a_node5"><a xlink:href="../../d5/daa/classworkspace_state_1_1_workspace_state.html" target="_top" xlink:title="workspaceState.Workspace\lState">
<polygon fill="white" stroke="black" points="690.5,-155 690.5,-185 837.5,-185 837.5,-155 690.5,-155"/>
<text text-anchor="start" x="698.5" y="-173" font-family="Helvetica,sans-Serif" font-size="10.00">workspaceState.Workspace</text>
<text text-anchor="middle" x="764" y="-162" font-family="Helvetica,sans-Serif" font-size="10.00">State</text>
</a>
</g>
</g>
<!-- Node5&#45;&gt;Node3 -->
<g id="edge4" class="edge"><title>Node5&#45;&gt;Node3</title>
<path fill="none" stroke="#9a32cd" stroke-dasharray="5,2" d="M847.719,-177.023C892.054,-180.788 946.759,-185.432 992.259,-189.296"/>
<polygon fill="#9a32cd" stroke="#9a32cd" points="847.817,-173.519 837.557,-176.161 847.225,-180.494 847.817,-173.519"/>
<text text-anchor="middle" x="915" y="-191" font-family="Helvetica,sans-Serif" font-size="10.00"> workspace</text>
</g>
<!-- Node6 -->
<g id="node6" class="node"><title>Node6</title>
<g id="a_node6"><a xlink:href="../../db/d1f/classworkspace_state_1_1_turtle_collection.html" target="_top" xlink:title="workspaceState.TurtleCollection">
<polygon fill="white" stroke="black" points="420,-277.5 420,-296.5 588,-296.5 588,-277.5 420,-277.5"/>
<text text-anchor="middle" x="504" y="-284.5" font-family="Helvetica,sans-Serif" font-size="10.00">workspaceState.TurtleCollection</text>
</a>
</g>
</g>
<!-- Node6&#45;&gt;Node5 -->
<g id="edge5" class="edge"><title>Node6&#45;&gt;Node5</title>
<path fill="none" stroke="#9a32cd" stroke-dasharray="5,2" d="M552.808,-274.667C564.397,-271.426 576.702,-267.773 588,-264 626.045,-251.294 642.399,-258.068 672,-231 685.201,-218.928 676.534,-206.776 690,-195 694.437,-191.12 699.505,-187.835 704.857,-185.055"/>
<polygon fill="#9a32cd" stroke="#9a32cd" points="551.566,-271.378 542.85,-277.402 553.42,-278.128 551.566,-271.378"/>
<text text-anchor="middle" x="639" y="-262" font-family="Helvetica,sans-Serif" font-size="10.00"> turtles</text>
</g>
<!-- Node7 -->
<g id="node7" class="node"><title>Node7</title>
<polygon fill="white" stroke="#bfbfbf" points="35.5,-274 35.5,-304 202.5,-304 202.5,-274 35.5,-274"/>
<text text-anchor="start" x="43.5" y="-292" font-family="Helvetica,sans-Serif" font-size="10.00">Map&lt; Integer, workspaceState.</text>
<text text-anchor="middle" x="119" y="-281" font-family="Helvetica,sans-Serif" font-size="10.00">Turtle &gt;</text>
</g>
<!-- Node7&#45;&gt;Node6 -->
<g id="edge6" class="edge"><title>Node7&#45;&gt;Node6</title>
<path fill="none" stroke="#9a32cd" stroke-dasharray="5,2" d="M212.989,-288.514C276.13,-288.185 358.905,-287.752 419.854,-287.434"/>
<polygon fill="#9a32cd" stroke="#9a32cd" points="212.615,-285.016 202.634,-288.568 212.652,-292.016 212.615,-285.016"/>
<text text-anchor="middle" x="329" y="-314" font-family="Helvetica,sans-Serif" font-size="10.00"> turtles</text>
<text text-anchor="middle" x="329" y="-303" font-family="Helvetica,sans-Serif" font-size="10.00">activeTurtles</text>
<text text-anchor="middle" x="329" y="-292" font-family="Helvetica,sans-Serif" font-size="10.00">turtleStamps</text>
</g>
<!-- Node8 -->
<g id="node8" class="node"><title>Node8</title>
<g id="a_node8"><a xlink:href="../../d2/df5/classworkspace_state_1_1_palette.html" target="_top" xlink:title="workspaceState.Palette\l\&lt; workspaceState.Shape \&gt;">
<polygon fill="white" stroke="black" points="429.5,-225 429.5,-255 578.5,-255 578.5,-225 429.5,-225"/>
<text text-anchor="start" x="437.5" y="-243" font-family="Helvetica,sans-Serif" font-size="10.00">workspaceState.Palette</text>
<text text-anchor="middle" x="504" y="-232" font-family="Helvetica,sans-Serif" font-size="10.00">&lt; workspaceState.Shape &gt;</text>
</a>
</g>
</g>
<!-- Node8&#45;&gt;Node5 -->
<g id="edge7" class="edge"><title>Node8&#45;&gt;Node5</title>
<path fill="none" stroke="#9a32cd" stroke-dasharray="5,2" d="M577.996,-222.517C607.304,-215.27 641.345,-206.565 672,-198 686.328,-193.997 701.829,-189.348 715.907,-185.002"/>
<polygon fill="#9a32cd" stroke="#9a32cd" points="577.123,-219.127 568.249,-224.917 578.796,-225.924 577.123,-219.127"/>
<text text-anchor="middle" x="639" y="-219" font-family="Helvetica,sans-Serif" font-size="10.00"> shapePalette</text>
</g>
<!-- Node9 -->
<g id="node9" class="node"><title>Node9</title>
<g id="a_node9"><a xlink:href="../../dd/d73/classworkspace_state_1_1_user_defined_variable_collection.html" target="_top" xlink:title="workspaceState.UserDefined\lVariableCollection">
<polygon fill="white" stroke="black" points="426.5,-176 426.5,-206 581.5,-206 581.5,-176 426.5,-176"/>
<text text-anchor="start" x="434.5" y="-194" font-family="Helvetica,sans-Serif" font-size="10.00">workspaceState.UserDefined</text>
<text text-anchor="middle" x="504" y="-183" font-family="Helvetica,sans-Serif" font-size="10.00">VariableCollection</text>
</a>
</g>
</g>
<!-- Node9&#45;&gt;Node5 -->
<g id="edge8" class="edge"><title>Node9&#45;&gt;Node5</title>
<path fill="none" stroke="#9a32cd" stroke-dasharray="5,2" d="M591.921,-183.925C623.823,-181.328 659.581,-178.418 690.125,-175.932"/>
<polygon fill="#9a32cd" stroke="#9a32cd" points="591.393,-180.456 581.71,-184.756 591.961,-187.433 591.393,-180.456"/>
<text text-anchor="middle" x="639" y="-186" font-family="Helvetica,sans-Serif" font-size="10.00"> variables</text>
</g>
<!-- Node10 -->
<g id="node10" class="node"><title>Node10</title>
<polygon fill="white" stroke="#bfbfbf" points="39.5,-225 39.5,-255 198.5,-255 198.5,-225 39.5,-225"/>
<text text-anchor="start" x="47.5" y="-243" font-family="Helvetica,sans-Serif" font-size="10.00">Map&lt; String, gui.variableslist.</text>
<text text-anchor="middle" x="119" y="-232" font-family="Helvetica,sans-Serif" font-size="10.00">WorkspaceVariable &gt;</text>
</g>
<!-- Node10&#45;&gt;Node9 -->
<g id="edge9" class="edge"><title>Node10&#45;&gt;Node9</title>
<path fill="none" stroke="#9a32cd" stroke-dasharray="5,2" d="M208.945,-229.909C264.493,-223.45 337.472,-214.68 402,-206 409.906,-204.937 418.153,-203.783 426.378,-202.605"/>
<polygon fill="#9a32cd" stroke="#9a32cd" points="208.312,-226.459 198.782,-231.088 209.118,-233.413 208.312,-226.459"/>
<text text-anchor="middle" x="329" y="-227" font-family="Helvetica,sans-Serif" font-size="10.00"> variableMap</text>
</g>
<!-- Node11 -->
<g id="node11" class="node"><title>Node11</title>
<g id="a_node11"><a xlink:href="../../d9/da1/classgui_1_1variableslist_1_1_workspace_variable.html" target="_top" xlink:title="gui.variableslist.Workspace\lVariable">
<polygon fill="white" stroke="black" points="47,-176 47,-206 191,-206 191,-176 47,-176"/>
<text text-anchor="start" x="55" y="-194" font-family="Helvetica,sans-Serif" font-size="10.00">gui.variableslist.Workspace</text>
<text text-anchor="middle" x="119" y="-183" font-family="Helvetica,sans-Serif" font-size="10.00">Variable</text>
</a>
</g>
</g>
<!-- Node11&#45;&gt;Node9 -->
<g id="edge10" class="edge"><title>Node11&#45;&gt;Node9</title>
<path fill="none" stroke="#9a32cd" stroke-dasharray="5,2" d="M201.162,-191C267.654,-191 361.086,-191 426.327,-191"/>
<polygon fill="#9a32cd" stroke="#9a32cd" points="201.142,-187.5 191.142,-191 201.142,-194.5 201.142,-187.5"/>
<text text-anchor="middle" x="329" y="-194" font-family="Helvetica,sans-Serif" font-size="10.00"> defaultVar</text>
</g>
<!-- Node12 -->
<g id="node12" class="node"><title>Node12</title>
<g id="a_node12"><a xlink:href="../../d2/d58/classworkspace_state_1_1_user_defined_command_collection.html" target="_top" xlink:title="workspaceState.UserDefined\lCommandCollection">
<polygon fill="white" stroke="black" points="426.5,-127 426.5,-157 581.5,-157 581.5,-127 426.5,-127"/>
<text text-anchor="start" x="434.5" y="-145" font-family="Helvetica,sans-Serif" font-size="10.00">workspaceState.UserDefined</text>
<text text-anchor="middle" x="504" y="-134" font-family="Helvetica,sans-Serif" font-size="10.00">CommandCollection</text>
</a>
</g>
</g>
<!-- Node12&#45;&gt;Node5 -->
<g id="edge11" class="edge"><title>Node12&#45;&gt;Node5</title>
<path fill="none" stroke="#9a32cd" stroke-dasharray="5,2" d="M591.921,-151.433C623.823,-154.896 659.581,-158.776 690.125,-162.091"/>
<polygon fill="#9a32cd" stroke="#9a32cd" points="592.029,-147.925 581.71,-150.325 591.274,-154.884 592.029,-147.925"/>
<text text-anchor="middle" x="639" y="-163" font-family="Helvetica,sans-Serif" font-size="10.00"> commands</text>
</g>
<!-- Node13 -->
<g id="node13" class="node"><title>Node13</title>
<polygon fill="white" stroke="#bfbfbf" points="0.5,-127 0.5,-157 237.5,-157 237.5,-127 0.5,-127"/>
<text text-anchor="start" x="8.5" y="-145" font-family="Helvetica,sans-Serif" font-size="10.00">Map&lt; String, workspaceState.</text>
<text text-anchor="middle" x="119" y="-134" font-family="Helvetica,sans-Serif" font-size="10.00">UserDefinedCommandCollection.Command &gt;</text>
</g>
<!-- Node13&#45;&gt;Node12 -->
<g id="edge12" class="edge"><title>Node13&#45;&gt;Node12</title>
<path fill="none" stroke="#9a32cd" stroke-dasharray="5,2" d="M247.683,-142C306.827,-142 375.141,-142 426.215,-142"/>
<polygon fill="#9a32cd" stroke="#9a32cd" points="247.516,-138.5 237.515,-142 247.515,-145.5 247.516,-138.5"/>
<text text-anchor="middle" x="329" y="-145" font-family="Helvetica,sans-Serif" font-size="10.00"> commandMap</text>
</g>
<!-- Node14 -->
<g id="node14" class="node"><title>Node14</title>
<g id="a_node14"><a xlink:href="../../d3/de0/classtranslator_1_1_translator.html" target="_top" xlink:title="translator.Translator">
<polygon fill="white" stroke="black" points="448,-88.5 448,-107.5 560,-107.5 560,-88.5 448,-88.5"/>
<text text-anchor="middle" x="504" y="-95.5" font-family="Helvetica,sans-Serif" font-size="10.00">translator.Translator</text>
</a>
</g>
</g>
<!-- Node14&#45;&gt;Node5 -->
<g id="edge13" class="edge"><title>Node14&#45;&gt;Node5</title>
<path fill="none" stroke="#9a32cd" stroke-dasharray="5,2" d="M557.637,-109.79C567.728,-112.123 578.202,-114.596 588,-117 625.481,-126.196 635.044,-127.882 672,-139 687.983,-143.808 705.364,-149.59 720.613,-154.852"/>
<polygon fill="#9a32cd" stroke="#9a32cd" points="558.241,-106.337 547.711,-107.51 556.674,-113.16 558.241,-106.337"/>
<text text-anchor="middle" x="639" y="-142" font-family="Helvetica,sans-Serif" font-size="10.00"> translator</text>
</g>
<!-- Node15 -->
<g id="node15" class="node"><title>Node15</title>
<polygon fill="white" stroke="#bfbfbf" points="58,-43.5 58,-62.5 180,-62.5 180,-43.5 58,-43.5"/>
<text text-anchor="middle" x="119" y="-50.5" font-family="Helvetica,sans-Serif" font-size="10.00">Map&lt; String, String &gt;</text>
</g>
<!-- Node15&#45;&gt;Node14 -->
<g id="edge14" class="edge"><title>Node15&#45;&gt;Node14</title>
<path fill="none" stroke="#9a32cd" stroke-dasharray="5,2" d="M190.327,-52.7993C247.772,-53.8131 330.809,-57.9751 402,-72 410.274,-73.6299 411.894,-75.6768 420,-78 432.966,-81.7159 447.202,-85.3172 460.166,-88.4158"/>
<polygon fill="#9a32cd" stroke="#9a32cd" points="190.316,-49.2988 180.265,-52.6493 190.211,-56.2981 190.316,-49.2988"/>
<text text-anchor="middle" x="329" y="-130" font-family="Helvetica,sans-Serif" font-size="10.00"> dictionaryOfClassNameToPath</text>
<text text-anchor="middle" x="329" y="-119" font-family="Helvetica,sans-Serif" font-size="10.00">reverseMapping</text>
<text text-anchor="start" x="256" y="-108" font-family="Helvetica,sans-Serif" font-size="10.00">dictionaryOfLanguageToClass</text>
<text text-anchor="middle" x="329" y="-97" font-family="Helvetica,sans-Serif" font-size="10.00">Path</text>
<text text-anchor="middle" x="329" y="-86" font-family="Helvetica,sans-Serif" font-size="10.00">syntaxDictionary</text>
<text text-anchor="middle" x="329" y="-75" font-family="Helvetica,sans-Serif" font-size="10.00">dictionaryLanguageToEnglish</text>
</g>
<!-- Node16 -->
<g id="node16" class="node"><title>Node16</title>
<g id="a_node16"><a xlink:href="../../d2/df5/classworkspace_state_1_1_palette.html" target="_top" xlink:title="workspaceState.Palette\l\&lt; Color \&gt;">
<polygon fill="white" stroke="black" points="439.5,-39 439.5,-69 568.5,-69 568.5,-39 439.5,-39"/>
<text text-anchor="start" x="447.5" y="-57" font-family="Helvetica,sans-Serif" font-size="10.00">workspaceState.Palette</text>
<text text-anchor="middle" x="504" y="-46" font-family="Helvetica,sans-Serif" font-size="10.00">&lt; Color &gt;</text>
</a>
</g>
</g>
<!-- Node16&#45;&gt;Node5 -->
<g id="edge15" class="edge"><title>Node16&#45;&gt;Node5</title>
<path fill="none" stroke="#9a32cd" stroke-dasharray="5,2" d="M565.777,-72.0835C573.272,-74.3791 580.819,-76.7221 588,-79 625.511,-90.8983 636.802,-89.4009 672,-107 698.811,-120.406 726.738,-140.867 744.465,-154.808"/>
<polygon fill="#9a32cd" stroke="#9a32cd" points="566.576,-68.668 555.99,-69.1025 564.536,-75.3643 566.576,-68.668"/>
<text text-anchor="middle" x="639" y="-110" font-family="Helvetica,sans-Serif" font-size="10.00"> colorPalette</text>
</g>
<!-- Node17 -->
<g id="node17" class="node"><title>Node17</title>
<polygon fill="white" stroke="#bfbfbf" points="1042,-139.5 1042,-158.5 1126,-158.5 1126,-139.5 1042,-139.5"/>
<text text-anchor="middle" x="1084" y="-146.5" font-family="Helvetica,sans-Serif" font-size="10.00">List&lt; String &gt;</text>
</g>
<!-- Node17&#45;&gt;Node1 -->
<g id="edge19" class="edge"><title>Node17&#45;&gt;Node1</title>
<path fill="none" stroke="#9a32cd" stroke-dasharray="5,2" d="M1136.52,-145.287C1231.95,-138.409 1437.12,-123.622 1553.95,-115.202"/>
<polygon fill="#9a32cd" stroke="#9a32cd" points="1135.98,-141.816 1126.26,-146.026 1136.49,-148.798 1135.98,-141.816"/>
<text text-anchor="middle" x="1415" y="-136" font-family="Helvetica,sans-Serif" font-size="10.00"> parameters</text>
</g>
<!-- Node17&#45;&gt;Node2 -->
<g id="edge16" class="edge"><title>Node17&#45;&gt;Node2</title>
<path fill="none" stroke="#9a32cd" stroke-dasharray="5,2" d="M1136,-154.27C1183.27,-159.156 1254.94,-166.562 1313.67,-172.632"/>
<polygon fill="#9a32cd" stroke="#9a32cd" points="1136.31,-150.784 1126,-153.237 1135.59,-157.747 1136.31,-150.784"/>
<text text-anchor="middle" x="1245" y="-174" font-family="Helvetica,sans-Serif" font-size="10.00"> enclosedCommands</text>
</g>
<!-- Node18 -->
<g id="node18" class="node"><title>Node18</title>
<g id="a_node18"><a xlink:href="../../da/dca/interfacecommand_parsing_1_1drawable_obect_generation_interfaces_1_1_user_defined_command_generator.html" target="_top" xlink:title="commandParsing.drawableObect\lGenerationInterfaces.UserDefined\lCommandGenerator">
<polygon fill="white" stroke="black" points="1325.5,-60.5 1325.5,-101.5 1504.5,-101.5 1504.5,-60.5 1325.5,-60.5"/>
<text text-anchor="start" x="1333.5" y="-89.5" font-family="Helvetica,sans-Serif" font-size="10.00">commandParsing.drawableObect</text>
<text text-anchor="start" x="1333.5" y="-78.5" font-family="Helvetica,sans-Serif" font-size="10.00">GenerationInterfaces.UserDefined</text>
<text text-anchor="middle" x="1415" y="-67.5" font-family="Helvetica,sans-Serif" font-size="10.00">CommandGenerator</text>
</a>
</g>
</g>
<!-- Node18&#45;&gt;Node1 -->
<g id="edge17" class="edge"><title>Node18&#45;&gt;Node1</title>
<path fill="none" stroke="midnightblue" d="M1514.52,-93.3144C1527.65,-94.9565 1541.04,-96.6299 1553.94,-98.2427"/>
<polygon fill="midnightblue" stroke="midnightblue" points="1514.89,-89.8338 1504.53,-92.0663 1514.02,-96.7797 1514.89,-89.8338"/>
</g>
<!-- Node19 -->
<g id="node19" class="node"><title>Node19</title>
<g id="a_node19"><a xlink:href="../../d5/dc4/interfacecommand_parsing_1_1drawable_obect_generation_interfaces_1_1_user_defined_variable_generator.html" target="_top" xlink:title="commandParsing.drawableObect\lGenerationInterfaces.UserDefined\lVariableGenerator">
<polygon fill="white" stroke="black" points="1325.5,-0.5 1325.5,-41.5 1504.5,-41.5 1504.5,-0.5 1325.5,-0.5"/>
<text text-anchor="start" x="1333.5" y="-29.5" font-family="Helvetica,sans-Serif" font-size="10.00">commandParsing.drawableObect</text>
<text text-anchor="start" x="1333.5" y="-18.5" font-family="Helvetica,sans-Serif" font-size="10.00">GenerationInterfaces.UserDefined</text>
<text text-anchor="middle" x="1415" y="-7.5" font-family="Helvetica,sans-Serif" font-size="10.00">VariableGenerator</text>
</a>
</g>
</g>
<!-- Node19&#45;&gt;Node1 -->
<g id="edge18" class="edge"><title>Node19&#45;&gt;Node1</title>
<path fill="none" stroke="midnightblue" d="M1498.9,-44.8392C1504.72,-46.8282 1510.47,-48.889 1516,-51 1549.31,-63.7079 1586.15,-81.4364 1610.96,-93.9391"/>
<polygon fill="midnightblue" stroke="midnightblue" points="1499.65,-41.4022 1489.06,-41.5633 1497.44,-48.0436 1499.65,-41.4022"/>
</g>
</g>
</svg>
        <g id="navigator" transform="translate(0 0)" fill="#404254">
                <rect fill="#f2f5e9" fill-opacity="0.5" stroke="#606060" stroke-width=".5" x="0" y="0" width="60" height="60"/>
                <use id="zoomplus" xlink:href="#zoomPlus" x="17" y="9" onmousedown="handleZoom(evt,'in')"/>
                <use id="zoomminus" xlink:href="#zoomMin" x="42" y="9" onmousedown="handleZoom(evt,'out')"/>
                <use id="reset" xlink:href="#resetDef" x="30" y="36" onmousedown="handleReset()"/>
                <g id="arrowUp" xlink:href="#dirArrow" transform="translate(30 24)" onmousedown="handlePan(0,-1)">
                  <use xlink:href="#rim" fill="#404040">
                        <set attributeName="fill" to="#808080" begin="arrowUp.mouseover" end="arrowUp.mouseout"/>
                  </use>
                  <path fill="none" stroke="white" stroke-width="1.5" d="M0,-3.0v7 M-2.5,-0.5L0,-3.0L2.5,-0.5"/>
                </g>
                <g id="arrowRight" xlink:href="#dirArrow" transform="rotate(90) translate(36 -43)" onmousedown="handlePan(1,0)">
                  <use xlink:href="#rim" fill="#404040">
                        <set attributeName="fill" to="#808080" begin="arrowRight.mouseover" end="arrowRight.mouseout"/>
                  </use>
                  <path fill="none" stroke="white" stroke-width="1.5" d="M0,-3.0v7 M-2.5,-0.5L0,-3.0L2.5,-0.5"/>
                </g>
                <g id="arrowDown" xlink:href="#dirArrow" transform="rotate(180) translate(-30 -48)" onmousedown="handlePan(0,1)">
                  <use xlink:href="#rim" fill="#404040">
                        <set attributeName="fill" to="#808080" begin="arrowDown.mouseover" end="arrowDown.mouseout"/>
                  </use>
                  <path fill="none" stroke="white" stroke-width="1.5" d="M0,-3.0v7 M-2.5,-0.5L0,-3.0L2.5,-0.5"/>
                </g>
                <g id="arrowLeft" xlink:href="#dirArrow" transform="rotate(270) translate(-36 17)" onmousedown="handlePan(-1,0)">
                  <use xlink:href="#rim" fill="#404040">
                        <set attributeName="fill" to="#808080" begin="arrowLeft.mouseover" end="arrowLeft.mouseout"/>
                  </use>
                  <path fill="none" stroke="white" stroke-width="1.5" d="M0,-3.0v7 M-2.5,-0.5L0,-3.0L2.5,-0.5"/>
                </g>
        </g>
        <svg viewBox="0 0 15 15" width="100%" height="30px" preserveAspectRatio="xMaxYMin meet">
         <g id="arrow_out" transform="scale(0.3 0.3)">
          <a xlink:href="classcommand_parsing_1_1user_command_parsing_1_1_make_user_instruction__coll__graph_org.svg" target="_base">
           <rect id="button" ry="5" rx="5" y="6" x="6" height="38" width="38"
                fill="#f2f5e9" fill-opacity="0.5" stroke="#606060" stroke-width="1.0"/>
           <path id="arrow"
             d="M 11.500037,31.436501 C 11.940474,20.09759 22.043105,11.32322 32.158766,21.979434 L 37.068811,17.246167 C 37.068811,17.246167 37.088388,32 37.088388,32 L 22.160133,31.978069 C 22.160133,31.978069 26.997745,27.140456 26.997745,27.140456 C 18.528582,18.264221 13.291696,25.230495 11.500037,31.436501 z"
             style="fill:#404040;"/>
          </a>
         </g>
        </svg>
</svg>
