<?xml version="1.0" encoding="UTF-8" standalone="no"?>
<!DOCTYPE svg PUBLIC "-//W3C//DTD SVG 1.1//EN"
 "http://www.w3.org/Graphics/SVG/1.1/DTD/svg11.dtd">
<!-- Generated by graphviz version 2.36.0 (20140111.2315)
 -->
<!-- Title: commandParsing.turtleCommandParsing.MakeTurtle Pages: 1 -->
<svg width="418pt" height="77pt"
 viewBox="0.00 0.00 418.00 77.00" xmlns="http://www.w3.org/2000/svg" xmlns:xlink="http://www.w3.org/1999/xlink">
<g id="graph0" class="graph" transform="scale(1 1) rotate(0) translate(4 73)">
<title>commandParsing.turtleCommandParsing.MakeTurtle</title>
<polygon fill="white" stroke="none" points="-4,4 -4,-73 414,-73 414,4 -4,4"/>
<!-- Node1 -->
<g id="node1" class="node"><title>Node1</title>
<polygon fill="#bfbfbf" stroke="black" points="230.5,-22 230.5,-52 409.5,-52 409.5,-22 230.5,-22"/>
<text text-anchor="start" x="238.5" y="-40" font-family="Helvetica,sans-Serif" font-size="10.00">commandParsing.turtleCommand</text>
<text text-anchor="middle" x="320" y="-29" font-family="Helvetica,sans-Serif" font-size="10.00">Parsing.MakeTurtle</text>
</g>
<!-- Node2 -->
<g id="node2" class="node"><title>Node2</title>
<g id="a_node2"><a xlink:href="../../d7/d17/classcommand_parsing_1_1_command_parser.html" target="_top" xlink:title="commandParsing.CommandParser">
<polygon fill="white" stroke="black" points="5.5,-49.5 5.5,-68.5 188.5,-68.5 188.5,-49.5 5.5,-49.5"/>
<text text-anchor="middle" x="97" y="-56.5" font-family="Helvetica,sans-Serif" font-size="10.00">commandParsing.CommandParser</text>
</a>
</g>
</g>
<!-- Node2&#45;&gt;Node1 -->
<g id="edge1" class="edge"><title>Node2&#45;&gt;Node1</title>
<path fill="none" stroke="midnightblue" d="M198.637,-48.9819C209.233,-47.927 219.952,-46.86 230.399,-45.82"/>
<polygon fill="midnightblue" stroke="midnightblue" points="198.131,-45.5148 188.527,-49.9883 198.824,-52.4804 198.131,-45.5148"/>
</g>
<!-- Node3 -->
<g id="node3" class="node"><title>Node3</title>
<g id="a_node3"><a xlink:href="../../df/d64/interfacecommand_parsing_1_1drawable_obect_generation_interfaces_1_1_turtle_generator.html" target="_top" xlink:title="commandParsing.drawableObect\lGenerationInterfaces.TurtleGenerator">
<polygon fill="white" stroke="black" points="0,-0 0,-30 194,-30 194,-0 0,-0"/>
<text text-anchor="start" x="8" y="-18" font-family="Helvetica,sans-Serif" font-size="10.00">commandParsing.drawableObect</text>
<text text-anchor="middle" x="97" y="-7" font-family="Helvetica,sans-Serif" font-size="10.00">GenerationInterfaces.TurtleGenerator</text>
</a>
</g>
</g>
<!-- Node3&#45;&gt;Node1 -->
<g id="edge2" class="edge"><title>Node3&#45;&gt;Node1</title>
<path fill="none" stroke="midnightblue" d="M204.441,-25.5959C213.111,-26.459 221.814,-27.3254 230.337,-28.1738"/>
<polygon fill="midnightblue" stroke="midnightblue" points="204.588,-22.0934 194.291,-24.5855 203.895,-29.059 204.588,-22.0934"/>
</g>
</g>
</svg>
