<?xml version="1.0" encoding="UTF-8" standalone="no"?>
<!DOCTYPE svg PUBLIC "-//W3C//DTD SVG 1.1//EN"
 "http://www.w3.org/Graphics/SVG/1.1/DTD/svg11.dtd">
<!-- Generated by graphviz version 2.36.0 (20140111.2315)
 -->
<!-- Title: commandParsing.turtleQueryParsing.IsShowing.parse Pages: 1 -->
<svg width="576pt" height="87pt"
 viewBox="0.00 0.00 576.00 87.00" xmlns="http://www.w3.org/2000/svg" xmlns:xlink="http://www.w3.org/1999/xlink">
<g id="graph0" class="graph" transform="scale(1 1) rotate(0) translate(4 83)">
<title>commandParsing.turtleQueryParsing.IsShowing.parse</title>
<polygon fill="white" stroke="none" points="-4,4 -4,-83 572,-83 572,4 -4,4"/>
<!-- Node1 -->
<g id="node1" class="node"><title>Node1</title>
<polygon fill="#bfbfbf" stroke="black" points="0.5,-24 0.5,-54 157.5,-54 157.5,-24 0.5,-24"/>
<text text-anchor="start" x="8.5" y="-42" font-family="Helvetica,sans-Serif" font-size="10.00">commandParsing.turtleQuery</text>
<text text-anchor="middle" x="79" y="-31" font-family="Helvetica,sans-Serif" font-size="10.00">Parsing.IsShowing.parse</text>
</g>
<!-- Node2 -->
<g id="node2" class="node"><title>Node2</title>
<g id="a_node2"><a xlink:href="../../db/d1f/classworkspace_state_1_1_turtle_collection.html#adb957aceb9e490922ee0604c86f0bc79" target="_top" xlink:title="workspaceState.TurtleCollection.get\lLastActiveTurtle">
<polygon fill="white" stroke="black" points="194.5,-49 194.5,-79 381.5,-79 381.5,-49 194.5,-49"/>
<text text-anchor="start" x="202.5" y="-67" font-family="Helvetica,sans-Serif" font-size="10.00">workspaceState.TurtleCollection.get</text>
<text text-anchor="middle" x="288" y="-56" font-family="Helvetica,sans-Serif" font-size="10.00">LastActiveTurtle</text>
</a>
</g>
</g>
<!-- Node1&#45;&gt;Node2 -->
<g id="edge1" class="edge"><title>Node1&#45;&gt;Node2</title>
<path fill="none" stroke="midnightblue" d="M157.668,-48.3802C166.337,-49.4271 175.264,-50.5053 184.184,-51.5826"/>
<polygon fill="midnightblue" stroke="midnightblue" points="183.89,-55.0725 194.238,-52.7968 184.73,-48.123 183.89,-55.0725"/>
</g>
<!-- Node4 -->
<g id="node4" class="node"><title>Node4</title>
<g id="a_node4"><a xlink:href="../../d1/d01/classworkspace_state_1_1_turtle.html#a312ee08877875a13f2f20739d19789d9" target="_top" xlink:title="workspaceState.Turtle.is\lTurtleShowing">
<polygon fill="white" stroke="black" points="222,-0 222,-30 354,-30 354,-0 222,-0"/>
<text text-anchor="start" x="230" y="-18" font-family="Helvetica,sans-Serif" font-size="10.00">workspaceState.Turtle.is</text>
<text text-anchor="middle" x="288" y="-7" font-family="Helvetica,sans-Serif" font-size="10.00">TurtleShowing</text>
</a>
</g>
</g>
<!-- Node1&#45;&gt;Node4 -->
<g id="edge3" class="edge"><title>Node1&#45;&gt;Node4</title>
<path fill="none" stroke="midnightblue" d="M157.668,-29.995C175.314,-27.9491 194.029,-25.7792 211.58,-23.7444"/>
<polygon fill="midnightblue" stroke="midnightblue" points="212.231,-27.1924 221.761,-22.5639 211.425,-20.239 212.231,-27.1924"/>
</g>
<!-- Node3 -->
<g id="node3" class="node"><title>Node3</title>
<g id="a_node3"><a xlink:href="../../d1/d01/classworkspace_state_1_1_turtle.html#a2b5e77b78036091a65abb5f4959b5ef7" target="_top" xlink:title="workspaceState.Turtle.getID">
<polygon fill="white" stroke="black" points="418,-54.5 418,-73.5 568,-73.5 568,-54.5 418,-54.5"/>
<text text-anchor="middle" x="493" y="-61.5" font-family="Helvetica,sans-Serif" font-size="10.00">workspaceState.Turtle.getID</text>
</a>
</g>
</g>
<!-- Node2&#45;&gt;Node3 -->
<g id="edge2" class="edge"><title>Node2&#45;&gt;Node3</title>
<path fill="none" stroke="midnightblue" d="M381.589,-64C390.308,-64 399.115,-64 407.75,-64"/>
<polygon fill="midnightblue" stroke="midnightblue" points="407.792,-67.5001 417.792,-64 407.792,-60.5001 407.792,-67.5001"/>
</g>
</g>
</svg>
