<?xml version="1.0" encoding="UTF-8" standalone="no"?>
<!DOCTYPE svg PUBLIC "-//W3C//DTD SVG 1.1//EN"
 "http://www.w3.org/Graphics/SVG/1.1/DTD/svg11.dtd">
<!-- Generated by graphviz version 2.36.0 (20140111.2315)
 -->
<!-- Title: gui.nonbuttonfeatures.pen.PenColorPickerFeature.PenColorPickerFeature Pages: 1 -->
<svg width="824pt" height="87pt"
 viewBox="0.00 0.00 824.00 87.00" xmlns="http://www.w3.org/2000/svg" xmlns:xlink="http://www.w3.org/1999/xlink">
<g id="graph0" class="graph" transform="scale(1 1) rotate(0) translate(4 83)">
<title>gui.nonbuttonfeatures.pen.PenColorPickerFeature.PenColorPickerFeature</title>
<polygon fill="white" stroke="none" points="-4,4 -4,-83 820,-83 820,4 -4,4"/>
<!-- Node1 -->
<g id="node1" class="node"><title>Node1</title>
<polygon fill="#bfbfbf" stroke="black" points="0,-18.5 0,-59.5 170,-59.5 170,-18.5 0,-18.5"/>
<text text-anchor="start" x="8" y="-47.5" font-family="Helvetica,sans-Serif" font-size="10.00">gui.nonbuttonfeatures.pen.</text>
<text text-anchor="start" x="8" y="-36.5" font-family="Helvetica,sans-Serif" font-size="10.00">PenColorPickerFeature.PenColor</text>
<text text-anchor="middle" x="85" y="-25.5" font-family="Helvetica,sans-Serif" font-size="10.00">PickerFeature</text>
</g>
<!-- Node2 -->
<g id="node2" class="node"><title>Node2</title>
<g id="a_node2"><a xlink:href="../../d7/dcb/classgui_1_1nonbuttonfeatures_1_1pen_1_1_pen_color_picker_feature.html#a3078379f2eb940905e5ef7001540562f" target="_top" xlink:title="gui.nonbuttonfeatures.pen.\lPenColorPickerFeature.changePenColor">
<polygon fill="white" stroke="black" points="206.5,-24 206.5,-54 411.5,-54 411.5,-24 206.5,-24"/>
<text text-anchor="start" x="214.5" y="-42" font-family="Helvetica,sans-Serif" font-size="10.00">gui.nonbuttonfeatures.pen.</text>
<text text-anchor="middle" x="309" y="-31" font-family="Helvetica,sans-Serif" font-size="10.00">PenColorPickerFeature.changePenColor</text>
</a>
</g>
</g>
<!-- Node1&#45;&gt;Node2 -->
<g id="edge1" class="edge"><title>Node1&#45;&gt;Node2</title>
<path fill="none" stroke="midnightblue" d="M170.245,-39C178.709,-39 187.393,-39 196.085,-39"/>
<polygon fill="midnightblue" stroke="midnightblue" points="196.279,-42.5001 206.279,-39 196.279,-35.5001 196.279,-42.5001"/>
</g>
<!-- Node3 -->
<g id="node3" class="node"><title>Node3</title>
<g id="a_node3"><a xlink:href="../../d8/df2/classgui_1_1mainclasses_1_1workspace_1_1_workspace.html#a1c6c6c0599097fbf5e9a660ec0ac3702" target="_top" xlink:title="gui.mainclasses.workspace.\lWorkspace.parseCommandString">
<polygon fill="white" stroke="black" points="449,-49 449,-79 625,-79 625,-49 449,-49"/>
<text text-anchor="start" x="457" y="-67" font-family="Helvetica,sans-Serif" font-size="10.00">gui.mainclasses.workspace.</text>
<text text-anchor="middle" x="537" y="-56" font-family="Helvetica,sans-Serif" font-size="10.00">Workspace.parseCommandString</text>
</a>
</g>
</g>
<!-- Node2&#45;&gt;Node3 -->
<g id="edge2" class="edge"><title>Node2&#45;&gt;Node3</title>
<path fill="none" stroke="midnightblue" d="M411.761,-50.2567C420.784,-51.2549 429.904,-52.2637 438.887,-53.2574"/>
<polygon fill="midnightblue" stroke="midnightblue" points="438.634,-56.7507 448.958,-54.3715 439.404,-49.7931 438.634,-56.7507"/>
</g>
<!-- Node5 -->
<g id="node5" class="node"><title>Node5</title>
<g id="a_node5"><a xlink:href="../../d7/dcb/classgui_1_1nonbuttonfeatures_1_1pen_1_1_pen_color_picker_feature.html#a64373e303cc9bd7a3937ddd0d0312adb" target="_top" xlink:title="gui.nonbuttonfeatures.pen.\lPenColorPickerFeature.getRGBStr">
<polygon fill="white" stroke="black" points="448.5,-0 448.5,-30 625.5,-30 625.5,-0 448.5,-0"/>
<text text-anchor="start" x="456.5" y="-18" font-family="Helvetica,sans-Serif" font-size="10.00">gui.nonbuttonfeatures.pen.</text>
<text text-anchor="middle" x="537" y="-7" font-family="Helvetica,sans-Serif" font-size="10.00">PenColorPickerFeature.getRGBStr</text>
</a>
</g>
</g>
<!-- Node2&#45;&gt;Node5 -->
<g id="edge4" class="edge"><title>Node2&#45;&gt;Node5</title>
<path fill="none" stroke="midnightblue" d="M411.761,-28.1936C420.518,-27.2635 429.367,-26.3238 438.094,-25.3971"/>
<polygon fill="midnightblue" stroke="midnightblue" points="438.694,-28.8531 448.269,-24.3166 437.955,-21.8923 438.694,-28.8531"/>
</g>
<!-- Node4 -->
<g id="node4" class="node"><title>Node4</title>
<g id="a_node4"><a xlink:href="../../da/d55/interface_control_1_1_slogo_graphics.html#a05813100446932183f367405e6c73d67" target="_top" xlink:title="Control.SlogoGraphics.parse\lCommandString">
<polygon fill="white" stroke="black" points="662.5,-49 662.5,-79 815.5,-79 815.5,-49 662.5,-49"/>
<text text-anchor="start" x="670.5" y="-67" font-family="Helvetica,sans-Serif" font-size="10.00">Control.SlogoGraphics.parse</text>
<text text-anchor="middle" x="739" y="-56" font-family="Helvetica,sans-Serif" font-size="10.00">CommandString</text>
</a>
</g>
</g>
<!-- Node3&#45;&gt;Node4 -->
<g id="edge3" class="edge"><title>Node3&#45;&gt;Node4</title>
<path fill="none" stroke="midnightblue" d="M625.141,-64C634.166,-64 643.333,-64 652.341,-64"/>
<polygon fill="midnightblue" stroke="midnightblue" points="652.429,-67.5001 662.429,-64 652.429,-60.5001 652.429,-67.5001"/>
</g>
</g>
</svg>
