<?xml version="1.0" encoding="UTF-8" standalone="no"?>
<!DOCTYPE svg PUBLIC "-//W3C//DTD SVG 1.1//EN"
 "http://www.w3.org/Graphics/SVG/1.1/DTD/svg11.dtd">
<!-- Generated by graphviz version 2.36.0 (20140111.2315)
 -->
<!-- Title: gui.nonbuttonfeatures.pen.PenColorPickerFeature.getRGBStr Pages: 1 -->
<svg width="634pt" height="48pt"
 viewBox="0.00 0.00 634.00 48.00" xmlns="http://www.w3.org/2000/svg" xmlns:xlink="http://www.w3.org/1999/xlink">
<g id="graph0" class="graph" transform="scale(1 1) rotate(0) translate(4 44)">
<title>gui.nonbuttonfeatures.pen.PenColorPickerFeature.getRGBStr</title>
<polygon fill="white" stroke="none" points="-4,4 -4,-44 630,-44 630,4 -4,4"/>
<!-- Node1 -->
<g id="node1" class="node"><title>Node1</title>
<polygon fill="#bfbfbf" stroke="black" points="0.5,-5 0.5,-35 177.5,-35 177.5,-5 0.5,-5"/>
<text text-anchor="start" x="8.5" y="-23" font-family="Helvetica,sans-Serif" font-size="10.00">gui.nonbuttonfeatures.pen.</text>
<text text-anchor="middle" x="89" y="-12" font-family="Helvetica,sans-Serif" font-size="10.00">PenColorPickerFeature.getRGBStr</text>
</g>
<!-- Node2 -->
<g id="node2" class="node"><title>Node2</title>
<g id="a_node2"><a xlink:href="../../d7/dcb/classgui_1_1nonbuttonfeatures_1_1pen_1_1_pen_color_picker_feature.html#a3078379f2eb940905e5ef7001540562f" target="_top" xlink:title="gui.nonbuttonfeatures.pen.\lPenColorPickerFeature.changePenColor">
<polygon fill="white" stroke="black" points="214.5,-5 214.5,-35 419.5,-35 419.5,-5 214.5,-5"/>
<text text-anchor="start" x="222.5" y="-23" font-family="Helvetica,sans-Serif" font-size="10.00">gui.nonbuttonfeatures.pen.</text>
<text text-anchor="middle" x="317" y="-12" font-family="Helvetica,sans-Serif" font-size="10.00">PenColorPickerFeature.changePenColor</text>
</a>
</g>
</g>
<!-- Node1&#45;&gt;Node2 -->
<g id="edge1" class="edge"><title>Node1&#45;&gt;Node2</title>
<path fill="none" stroke="midnightblue" d="M187.939,-20C196.719,-20 205.623,-20 214.433,-20"/>
<polygon fill="midnightblue" stroke="midnightblue" points="187.701,-16.5001 177.701,-20 187.701,-23.5001 187.701,-16.5001"/>
</g>
<!-- Node3 -->
<g id="node3" class="node"><title>Node3</title>
<g id="a_node3"><a xlink:href="../../d7/dcb/classgui_1_1nonbuttonfeatures_1_1pen_1_1_pen_color_picker_feature.html#a81a0f1a6c8a7bc72f47d734988577ad9" target="_top" xlink:title="gui.nonbuttonfeatures.pen.\lPenColorPickerFeature.PenColor\lPickerFeature">
<polygon fill="white" stroke="black" points="456,0.5 456,-40.5 626,-40.5 626,0.5 456,0.5"/>
<text text-anchor="start" x="464" y="-28.5" font-family="Helvetica,sans-Serif" font-size="10.00">gui.nonbuttonfeatures.pen.</text>
<text text-anchor="start" x="464" y="-17.5" font-family="Helvetica,sans-Serif" font-size="10.00">PenColorPickerFeature.PenColor</text>
<text text-anchor="middle" x="541" y="-6.5" font-family="Helvetica,sans-Serif" font-size="10.00">PickerFeature</text>
</a>
</g>
</g>
<!-- Node2&#45;&gt;Node3 -->
<g id="edge2" class="edge"><title>Node2&#45;&gt;Node3</title>
<path fill="none" stroke="midnightblue" d="M429.813,-20C438.54,-20 447.259,-20 455.756,-20"/>
<polygon fill="midnightblue" stroke="midnightblue" points="429.579,-16.5001 419.579,-20 429.579,-23.5001 429.579,-16.5001"/>
</g>
</g>
</svg>
