<?xml version="1.0" encoding="UTF-8" standalone="no"?>
<!DOCTYPE svg PUBLIC "-//W3C//DTD SVG 1.1//EN"
 "http://www.w3.org/Graphics/SVG/1.1/DTD/svg11.dtd">
<!-- Generated by graphviz version 2.36.0 (20140111.2315)
 -->
<!-- Title: gui.mainclasses.workspace.Workspace Pages: 1 -->
<svg width="1590pt" height="323pt"
 viewBox="0.00 0.00 1590.00 323.00" xmlns="http://www.w3.org/2000/svg" xmlns:xlink="http://www.w3.org/1999/xlink">
<g id="graph0" class="graph" transform="scale(1 1) rotate(0) translate(4 319)">
<title>gui.mainclasses.workspace.Workspace</title>
<polygon fill="white" stroke="none" points="-4,4 -4,-319 1586,-319 1586,4 -4,4"/>
<!-- Node1 -->
<g id="node1" class="node"><title>Node1</title>
<polygon fill="#bfbfbf" stroke="black" points="856.5,-93 856.5,-123 1005.5,-123 1005.5,-93 856.5,-93"/>
<text text-anchor="start" x="864.5" y="-111" font-family="Helvetica,sans-Serif" font-size="10.00">gui.mainclasses.workspace.</text>
<text text-anchor="middle" x="931" y="-100" font-family="Helvetica,sans-Serif" font-size="10.00">Workspace</text>
</g>
<!-- Node14 -->
<g id="node14" class="node"><title>Node14</title>
<g id="a_node14"><a xlink:href="../../dd/d25/classgui_1_1factories_1_1turtlefactory_1_1_turtle_nodes.html" target="_top" xlink:title="gui.factories.turtlefactory.\lTurtleNodes">
<polygon fill="white" stroke="black" points="1150,-116 1150,-146 1288,-146 1288,-116 1150,-116"/>
<text text-anchor="start" x="1158" y="-134" font-family="Helvetica,sans-Serif" font-size="10.00">gui.factories.turtlefactory.</text>
<text text-anchor="middle" x="1219" y="-123" font-family="Helvetica,sans-Serif" font-size="10.00">TurtleNodes</text>
</a>
</g>
</g>
<!-- Node1&#45;&gt;Node14 -->
<g id="edge16" class="edge"><title>Node1&#45;&gt;Node14</title>
<path fill="none" stroke="#9a32cd" stroke-dasharray="5,2" d="M1015.65,-118.416C1021.18,-118.988 1026.67,-119.523 1032,-120 1070.99,-123.489 1114.67,-126.137 1149.9,-127.96"/>
<polygon fill="#9a32cd" stroke="#9a32cd" points="1015.99,-114.933 1005.67,-117.351 1015.24,-121.893 1015.99,-114.933"/>
<text text-anchor="middle" x="1070" y="-129" font-family="Helvetica,sans-Serif" font-size="10.00"> myWorkspace</text>
</g>
<!-- Node2 -->
<g id="node2" class="node"><title>Node2</title>
<polygon fill="white" stroke="#bfbfbf" points="584,-213.5 584,-232.5 616,-232.5 616,-213.5 584,-213.5"/>
<text text-anchor="middle" x="600" y="-220.5" font-family="Helvetica,sans-Serif" font-size="10.00">Tab</text>
</g>
<!-- Node2&#45;&gt;Node1 -->
<g id="edge1" class="edge"><title>Node2&#45;&gt;Node1</title>
<path fill="none" stroke="midnightblue" d="M626.299,-223.595C671.034,-223.467 765.46,-217.788 830,-176 841.493,-168.559 837.66,-159.975 848,-151 861.11,-139.62 877.753,-130.188 892.614,-123.087"/>
<polygon fill="midnightblue" stroke="midnightblue" points="626.068,-220.093 616.045,-223.527 626.021,-227.093 626.068,-220.093"/>
</g>
<!-- Node3 -->
<g id="node3" class="node"><title>Node3</title>
<g id="a_node3"><a xlink:href="../../d0/d23/classgui_1_1mainclasses_1_1workspace_1_1_workspace_data_holder.html" target="_top" xlink:title="gui.mainclasses.workspace.\lWorkspaceDataHolder">
<polygon fill="white" stroke="black" points="525.5,-164 525.5,-194 674.5,-194 674.5,-164 525.5,-164"/>
<text text-anchor="start" x="533.5" y="-182" font-family="Helvetica,sans-Serif" font-size="10.00">gui.mainclasses.workspace.</text>
<text text-anchor="middle" x="600" y="-171" font-family="Helvetica,sans-Serif" font-size="10.00">WorkspaceDataHolder</text>
</a>
</g>
</g>
<!-- Node3&#45;&gt;Node1 -->
<g id="edge2" class="edge"><title>Node3&#45;&gt;Node1</title>
<path fill="none" stroke="#9a32cd" stroke-dasharray="5,2" d="M684.651,-166.381C728.232,-159.213 782.255,-149.396 830,-138 847.807,-133.75 867.128,-128.183 883.998,-123.001"/>
<polygon fill="#9a32cd" stroke="#9a32cd" points="683.973,-162.945 674.665,-168.007 685.098,-169.854 683.973,-162.945"/>
<text text-anchor="middle" x="773" y="-164" font-family="Helvetica,sans-Serif" font-size="10.00"> myDataHolder</text>
</g>
<!-- Node4 -->
<g id="node4" class="node"><title>Node4</title>
<polygon fill="white" stroke="#bfbfbf" points="0.5,-261 0.5,-291 319.5,-291 319.5,-261 0.5,-261"/>
<text text-anchor="start" x="8.5" y="-279" font-family="Helvetica,sans-Serif" font-size="10.00">ObservableList&lt; gui.nonbuttonfeatures.tableviews.imageindex.</text>
<text text-anchor="middle" x="160" y="-268" font-family="Helvetica,sans-Serif" font-size="10.00">ImageIndex &gt;</text>
</g>
<!-- Node4&#45;&gt;Node3 -->
<g id="edge3" class="edge"><title>Node4&#45;&gt;Node3</title>
<path fill="none" stroke="#9a32cd" stroke-dasharray="5,2" d="M267.177,-259.325C284.82,-256.548 302.926,-253.696 320,-251 392.896,-239.491 419.581,-261.008 484,-225 494.73,-219.002 491.567,-210.501 502,-204 509.232,-199.494 517.25,-195.797 525.487,-192.764"/>
<polygon fill="#9a32cd" stroke="#9a32cd" points="266.188,-255.937 256.854,-260.949 267.276,-262.852 266.188,-255.937"/>
<text text-anchor="middle" x="411" y="-252" font-family="Helvetica,sans-Serif" font-size="10.00"> myImageIndexList</text>
</g>
<!-- Node5 -->
<g id="node5" class="node"><title>Node5</title>
<polygon fill="white" stroke="#bfbfbf" points="4,-212 4,-242 316,-242 316,-212 4,-212"/>
<text text-anchor="start" x="12" y="-230" font-family="Helvetica,sans-Serif" font-size="10.00">ObservableList&lt; gui.nonbuttonfeatures.tableviews.colorindex.</text>
<text text-anchor="middle" x="160" y="-219" font-family="Helvetica,sans-Serif" font-size="10.00">ColorIndex &gt;</text>
</g>
<!-- Node5&#45;&gt;Node3 -->
<g id="edge4" class="edge"><title>Node5&#45;&gt;Node3</title>
<path fill="none" stroke="#9a32cd" stroke-dasharray="5,2" d="M326.401,-210.997C377.01,-205.859 432.821,-199.951 484,-194 497.4,-192.442 511.663,-190.672 525.419,-188.908"/>
<polygon fill="#9a32cd" stroke="#9a32cd" points="325.948,-207.525 316.351,-212.014 326.653,-214.489 325.948,-207.525"/>
<text text-anchor="middle" x="411" y="-213" font-family="Helvetica,sans-Serif" font-size="10.00"> myColorIndexList</text>
</g>
<!-- Node6 -->
<g id="node6" class="node"><title>Node6</title>
<polygon fill="white" stroke="#bfbfbf" points="72.5,-163 72.5,-193 247.5,-193 247.5,-163 72.5,-163"/>
<text text-anchor="start" x="80.5" y="-181" font-family="Helvetica,sans-Serif" font-size="10.00">ObservableList&lt; gui.variableslist.</text>
<text text-anchor="middle" x="160" y="-170" font-family="Helvetica,sans-Serif" font-size="10.00">WorkspaceVariable &gt;</text>
</g>
<!-- Node6&#45;&gt;Node3 -->
<g id="edge5" class="edge"><title>Node6&#45;&gt;Node3</title>
<path fill="none" stroke="#9a32cd" stroke-dasharray="5,2" d="M257.71,-178.221C338.457,-178.405 451.85,-178.664 525.374,-178.832"/>
<polygon fill="#9a32cd" stroke="#9a32cd" points="257.543,-174.721 247.535,-178.198 257.527,-181.72 257.543,-174.721"/>
<text text-anchor="middle" x="411" y="-182" font-family="Helvetica,sans-Serif" font-size="10.00"> myVariablesList</text>
</g>
<!-- Node7 -->
<g id="node7" class="node"><title>Node7</title>
<polygon fill="white" stroke="#bfbfbf" points="91,-124.5 91,-143.5 229,-143.5 229,-124.5 91,-124.5"/>
<text text-anchor="middle" x="160" y="-131.5" font-family="Helvetica,sans-Serif" font-size="10.00">ObservableList&lt; String &gt;</text>
</g>
<!-- Node7&#45;&gt;Node3 -->
<g id="edge6" class="edge"><title>Node7&#45;&gt;Node3</title>
<path fill="none" stroke="#9a32cd" stroke-dasharray="5,2" d="M239.33,-135.029C304.963,-136.746 400.98,-141.254 484,-153 502.747,-155.652 522.961,-159.783 541.134,-163.976"/>
<polygon fill="#9a32cd" stroke="#9a32cd" points="239.147,-131.523 229.064,-134.776 238.975,-138.521 239.147,-131.523"/>
<text text-anchor="middle" x="411" y="-167" font-family="Helvetica,sans-Serif" font-size="10.00"> myPreviousCommandsList</text>
<text text-anchor="middle" x="411" y="-156" font-family="Helvetica,sans-Serif" font-size="10.00">mySavedCommandsList</text>
</g>
<!-- Node8 -->
<g id="node8" class="node"><title>Node8</title>
<polygon fill="white" stroke="#bfbfbf" points="23.5,-75 23.5,-105 296.5,-105 296.5,-75 23.5,-75"/>
<text text-anchor="start" x="31.5" y="-93" font-family="Helvetica,sans-Serif" font-size="10.00">ObservableList&lt; gui.factories.userdefinedcommands.</text>
<text text-anchor="middle" x="160" y="-82" font-family="Helvetica,sans-Serif" font-size="10.00">DisplayedUserCommand &gt;</text>
</g>
<!-- Node8&#45;&gt;Node3 -->
<g id="edge7" class="edge"><title>Node8&#45;&gt;Node3</title>
<path fill="none" stroke="#9a32cd" stroke-dasharray="5,2" d="M306.806,-78.9829C365.746,-81.0633 431.988,-92.2736 484,-125 496.84,-133.079 489.776,-145.017 502,-154 509.007,-159.149 516.977,-163.241 525.266,-166.491"/>
<polygon fill="#9a32cd" stroke="#9a32cd" points="306.745,-75.48 296.655,-78.7111 306.557,-82.4775 306.745,-75.48"/>
<text text-anchor="middle" x="411" y="-128" font-family="Helvetica,sans-Serif" font-size="10.00"> myUserDefinedCommandList</text>
</g>
<!-- Node9 -->
<g id="node9" class="node"><title>Node9</title>
<polygon fill="white" stroke="#bfbfbf" points="502.5,-115 502.5,-145 697.5,-145 697.5,-115 502.5,-115"/>
<text text-anchor="start" x="510.5" y="-133" font-family="Helvetica,sans-Serif" font-size="10.00">Map&lt; String, gui.componentdrawers.</text>
<text text-anchor="middle" x="600" y="-122" font-family="Helvetica,sans-Serif" font-size="10.00">ComponentDrawer &gt;</text>
</g>
<!-- Node9&#45;&gt;Node1 -->
<g id="edge8" class="edge"><title>Node9&#45;&gt;Node1</title>
<path fill="none" stroke="#9a32cd" stroke-dasharray="5,2" d="M708.162,-122.834C756.682,-119.59 812.809,-115.836 856.467,-112.917"/>
<polygon fill="#9a32cd" stroke="#9a32cd" points="707.676,-119.359 697.931,-123.518 708.143,-126.343 707.676,-119.359"/>
<text text-anchor="middle" x="773" y="-126" font-family="Helvetica,sans-Serif" font-size="10.00"> myComponentDrawers</text>
</g>
<!-- Node10 -->
<g id="node10" class="node"><title>Node10</title>
<g id="a_node10"><a xlink:href="../../dd/d4c/classgui_1_1componentdrawers_1_1_turtle_screen_drawer.html" target="_top" xlink:title="gui.componentdrawers.Turtle\lScreenDrawer">
<polygon fill="white" stroke="black" points="1426.5,-179 1426.5,-209 1581.5,-209 1581.5,-179 1426.5,-179"/>
<text text-anchor="start" x="1434.5" y="-197" font-family="Helvetica,sans-Serif" font-size="10.00">gui.componentdrawers.Turtle</text>
<text text-anchor="middle" x="1504" y="-186" font-family="Helvetica,sans-Serif" font-size="10.00">ScreenDrawer</text>
</a>
</g>
</g>
<!-- Node10&#45;&gt;Node1 -->
<g id="edge9" class="edge"><title>Node10&#45;&gt;Node1</title>
<path fill="none" stroke="#9a32cd" stroke-dasharray="5,2" d="M1473.79,-172.965C1437.81,-148.497 1373.83,-109.595 1312,-95 1207.76,-70.3929 1083.01,-82.1992 1005.62,-94.1464"/>
<polygon fill="#9a32cd" stroke="#9a32cd" points="1472.1,-176.05 1482.32,-178.851 1476.08,-170.289 1472.1,-176.05"/>
<text text-anchor="middle" x="1219" y="-98" font-family="Helvetica,sans-Serif" font-size="10.00"> myTurtleScreenDrawer</text>
</g>
<!-- Node11 -->
<g id="node11" class="node"><title>Node11</title>
<g id="a_node11"><a xlink:href="../../d0/dda/classgui_1_1componentdrawers_1_1_component_drawer.html" target="_top" xlink:title="gui.componentdrawers.Component\lDrawer">
<polygon fill="white" stroke="black" points="1126.5,-253 1126.5,-283 1311.5,-283 1311.5,-253 1126.5,-253"/>
<text text-anchor="start" x="1134.5" y="-271" font-family="Helvetica,sans-Serif" font-size="10.00">gui.componentdrawers.Component</text>
<text text-anchor="middle" x="1219" y="-260" font-family="Helvetica,sans-Serif" font-size="10.00">Drawer</text>
</a>
</g>
</g>
<!-- Node11&#45;&gt;Node10 -->
<g id="edge10" class="edge"><title>Node11&#45;&gt;Node10</title>
<path fill="none" stroke="midnightblue" d="M1299.72,-250.75C1333.3,-243.122 1372.69,-233.691 1408,-224 1424.35,-219.513 1442.1,-214.065 1457.79,-209.05"/>
<polygon fill="midnightblue" stroke="midnightblue" points="1298.94,-247.338 1289.96,-252.955 1300.48,-254.166 1298.94,-247.338"/>
</g>
<!-- Node12 -->
<g id="node12" class="node"><title>Node12</title>
<polygon fill="white" stroke="#bfbfbf" points="911,-258.5 911,-277.5 951,-277.5 951,-258.5 911,-258.5"/>
<text text-anchor="middle" x="931" y="-265.5" font-family="Helvetica,sans-Serif" font-size="10.00">Pane</text>
</g>
<!-- Node12&#45;&gt;Node10 -->
<g id="edge14" class="edge"><title>Node12&#45;&gt;Node10</title>
<path fill="none" stroke="#9a32cd" stroke-dasharray="5,2" d="M961.084,-275.228C1025.27,-290.011 1183.53,-320.039 1312,-292 1379.36,-277.298 1449.11,-232.666 1482.62,-209.04"/>
<polygon fill="#9a32cd" stroke="#9a32cd" points="961.798,-271.8 951.262,-272.913 960.192,-278.614 961.798,-271.8"/>
<text text-anchor="middle" x="1219" y="-307" font-family="Helvetica,sans-Serif" font-size="10.00"> myGrid</text>
</g>
<!-- Node12&#45;&gt;Node11 -->
<g id="edge11" class="edge"><title>Node12&#45;&gt;Node11</title>
<path fill="none" stroke="midnightblue" d="M961.21,-268C999.711,-268 1069.23,-268 1126.24,-268"/>
<polygon fill="midnightblue" stroke="midnightblue" points="961.209,-264.5 951.209,-268 961.209,-271.5 961.209,-264.5"/>
</g>
<!-- Node13 -->
<g id="node13" class="node"><title>Node13</title>
<g id="a_node13"><a xlink:href="../../dd/d6a/classgui_1_1nonbuttonfeatures_1_1_turtle_screen_feature.html" target="_top" xlink:title="gui.nonbuttonfeatures.Turtle\lScreenFeature">
<polygon fill="white" stroke="black" points="1143,-204 1143,-234 1295,-234 1295,-204 1143,-204"/>
<text text-anchor="start" x="1151" y="-222" font-family="Helvetica,sans-Serif" font-size="10.00">gui.nonbuttonfeatures.Turtle</text>
<text text-anchor="middle" x="1219" y="-211" font-family="Helvetica,sans-Serif" font-size="10.00">ScreenFeature</text>
</a>
</g>
</g>
<!-- Node12&#45;&gt;Node13 -->
<g id="edge13" class="edge"><title>Node12&#45;&gt;Node13</title>
<path fill="none" stroke="midnightblue" d="M961.115,-263.012C1003.4,-255.767 1083.25,-242.087 1142.75,-231.893"/>
<polygon fill="midnightblue" stroke="midnightblue" points="960.475,-259.57 951.209,-264.709 961.657,-266.47 960.475,-259.57"/>
</g>
<!-- Node13&#45;&gt;Node10 -->
<g id="edge12" class="edge"><title>Node13&#45;&gt;Node10</title>
<path fill="none" stroke="#9a32cd" stroke-dasharray="5,2" d="M1305.23,-211.471C1343.65,-208.077 1388.69,-204.098 1426.07,-200.796"/>
<polygon fill="#9a32cd" stroke="#9a32cd" points="1304.75,-208 1295.1,-212.366 1305.37,-214.972 1304.75,-208"/>
<text text-anchor="middle" x="1369" y="-212" font-family="Helvetica,sans-Serif" font-size="10.00"> myTurtleScreen</text>
</g>
<!-- Node14&#45;&gt;Node1 -->
<g id="edge20" class="edge"><title>Node14&#45;&gt;Node1</title>
<path fill="none" stroke="#9a32cd" stroke-dasharray="5,2" d="M1150.2,-113.822C1136.33,-110.983 1121.76,-108.484 1108,-107 1074.42,-103.379 1065.78,-106.831 1032,-107 1023.49,-107.043 1014.58,-107.105 1005.72,-107.179"/>
<polygon fill="#9a32cd" stroke="#9a32cd" points="1149.64,-117.283 1160.15,-115.94 1151.1,-110.436 1149.64,-117.283"/>
<text text-anchor="middle" x="1070" y="-110" font-family="Helvetica,sans-Serif" font-size="10.00"> myTurtleNodes</text>
</g>
<!-- Node14&#45;&gt;Node10 -->
<g id="edge15" class="edge"><title>Node14&#45;&gt;Node10</title>
<path fill="none" stroke="#9a32cd" stroke-dasharray="5,2" d="M1298.73,-141.087C1332.61,-146.172 1372.51,-153.158 1408,-162 1426.41,-166.586 1446.36,-173.068 1463.21,-179"/>
<polygon fill="#9a32cd" stroke="#9a32cd" points="1298.82,-137.563 1288.42,-139.57 1297.8,-144.488 1298.82,-137.563"/>
<text text-anchor="middle" x="1369" y="-165" font-family="Helvetica,sans-Serif" font-size="10.00"> myTurtleNodes</text>
</g>
<!-- Node15 -->
<g id="node15" class="node"><title>Node15</title>
<polygon fill="white" stroke="#bfbfbf" points="848,-161 848,-191 1014,-191 1014,-161 848,-161"/>
<text text-anchor="start" x="856" y="-179" font-family="Helvetica,sans-Serif" font-size="10.00">List&lt; gui.factories.turtlefactory.</text>
<text text-anchor="middle" x="931" y="-168" font-family="Helvetica,sans-Serif" font-size="10.00">TurtleNode &gt;</text>
</g>
<!-- Node15&#45;&gt;Node14 -->
<g id="edge17" class="edge"><title>Node15&#45;&gt;Node14</title>
<path fill="none" stroke="#9a32cd" stroke-dasharray="5,2" d="M1024.29,-161.479C1065.08,-155.061 1112.19,-147.649 1149.74,-141.741"/>
<polygon fill="#9a32cd" stroke="#9a32cd" points="1023.67,-158.033 1014.34,-163.045 1024.76,-164.948 1023.67,-158.033"/>
<text text-anchor="middle" x="1070" y="-164" font-family="Helvetica,sans-Serif" font-size="10.00"> myTurtleNodes</text>
</g>
<!-- Node16 -->
<g id="node16" class="node"><title>Node16</title>
<polygon fill="white" stroke="#bfbfbf" points="1198.5,-165.5 1198.5,-184.5 1239.5,-184.5 1239.5,-165.5 1198.5,-165.5"/>
<text text-anchor="middle" x="1219" y="-172.5" font-family="Helvetica,sans-Serif" font-size="10.00">Color</text>
</g>
<!-- Node16&#45;&gt;Node10 -->
<g id="edge18" class="edge"><title>Node16&#45;&gt;Node10</title>
<path fill="none" stroke="#9a32cd" stroke-dasharray="5,2" d="M1249.64,-174.994C1286.74,-175.206 1352.17,-176.302 1408,-181 1413.97,-181.503 1420.14,-182.121 1426.34,-182.812"/>
<polygon fill="#9a32cd" stroke="#9a32cd" points="1249.54,-171.494 1239.52,-174.955 1249.51,-178.494 1249.54,-171.494"/>
<text text-anchor="middle" x="1369" y="-184" font-family="Helvetica,sans-Serif" font-size="10.00"> myScreenColor</text>
</g>
<!-- Node17 -->
<g id="node17" class="node"><title>Node17</title>
<g id="a_node17"><a xlink:href="../../d1/d60/classgui_1_1factories_1_1_object_factory.html" target="_top" xlink:title="gui.factories.ObjectFactory">
<polygon fill="white" stroke="black" points="528.5,-76.5 528.5,-95.5 671.5,-95.5 671.5,-76.5 528.5,-76.5"/>
<text text-anchor="middle" x="600" y="-83.5" font-family="Helvetica,sans-Serif" font-size="10.00">gui.factories.ObjectFactory</text>
</a>
</g>
</g>
<!-- Node17&#45;&gt;Node1 -->
<g id="edge19" class="edge"><title>Node17&#45;&gt;Node1</title>
<path fill="none" stroke="#9a32cd" stroke-dasharray="5,2" d="M681.707,-91.198C725.572,-94.0455 780.767,-97.6645 830,-101 838.508,-101.576 847.423,-102.189 856.277,-102.802"/>
<polygon fill="#9a32cd" stroke="#9a32cd" points="681.876,-87.7017 671.671,-90.5471 681.423,-94.687 681.876,-87.7017"/>
<text text-anchor="middle" x="773" y="-104" font-family="Helvetica,sans-Serif" font-size="10.00"> myObjectFactories</text>
</g>
<!-- Node18 -->
<g id="node18" class="node"><title>Node18</title>
<g id="a_node18"><a xlink:href="../../da/d55/interface_control_1_1_slogo_graphics.html" target="_top" xlink:title="Control.SlogoGraphics">
<polygon fill="white" stroke="black" points="538.5,-38.5 538.5,-57.5 661.5,-57.5 661.5,-38.5 538.5,-38.5"/>
<text text-anchor="middle" x="600" y="-45.5" font-family="Helvetica,sans-Serif" font-size="10.00">Control.SlogoGraphics</text>
</a>
</g>
</g>
<!-- Node18&#45;&gt;Node1 -->
<g id="edge21" class="edge"><title>Node18&#45;&gt;Node1</title>
<path fill="none" stroke="#9a32cd" stroke-dasharray="5,2" d="M671.746,-54.8467C717.238,-59.9197 777.452,-67.8874 830,-79 847.685,-82.74 866.813,-87.9832 883.557,-92.9845"/>
<polygon fill="#9a32cd" stroke="#9a32cd" points="672.009,-51.3546 661.687,-53.7452 671.247,-58.313 672.009,-51.3546"/>
<text text-anchor="middle" x="773" y="-82" font-family="Helvetica,sans-Serif" font-size="10.00"> myControl</text>
</g>
<!-- Node19 -->
<g id="node19" class="node"><title>Node19</title>
<polygon fill="white" stroke="#bfbfbf" points="564,-0.5 564,-19.5 636,-19.5 636,-0.5 564,-0.5"/>
<text text-anchor="middle" x="600" y="-7.5" font-family="Helvetica,sans-Serif" font-size="10.00">BorderPane</text>
</g>
<!-- Node19&#45;&gt;Node1 -->
<g id="edge22" class="edge"><title>Node19&#45;&gt;Node1</title>
<path fill="none" stroke="#9a32cd" stroke-dasharray="5,2" d="M646.434,-11.8326C693.629,-14.9449 768.967,-23.3426 830,-46 860.449,-57.3035 891.65,-78.4829 910.924,-92.9101"/>
<polygon fill="#9a32cd" stroke="#9a32cd" points="646.421,-8.32543 636.228,-11.2132 645.997,-15.3126 646.421,-8.32543"/>
<text text-anchor="middle" x="773" y="-49" font-family="Helvetica,sans-Serif" font-size="10.00"> myPane</text>
</g>
</g>
</svg>
