<?xml version="1.0" encoding="UTF-8" standalone="no"?>
<!DOCTYPE svg PUBLIC "-//W3C//DTD SVG 1.1//EN"
 "http://www.w3.org/Graphics/SVG/1.1/DTD/svg11.dtd">
<!-- Generated by graphviz version 2.36.0 (20140111.2315)
 -->
<!-- Title: workspaceState.Turtle Pages: 1 -->
<svg width="422pt" height="164pt"
 viewBox="0.00 0.00 422.00 164.00" xmlns="http://www.w3.org/2000/svg" xmlns:xlink="http://www.w3.org/1999/xlink">
<g id="graph0" class="graph" transform="scale(1 1) rotate(0) translate(4 160)">
<title>workspaceState.Turtle</title>
<polygon fill="white" stroke="none" points="-4,4 -4,-160 418,-160 418,4 -4,4"/>
<!-- Node1 -->
<g id="node1" class="node"><title>Node1</title>
<polygon fill="#bfbfbf" stroke="black" points="135,-0.5 135,-19.5 257,-19.5 257,-0.5 135,-0.5"/>
<text text-anchor="middle" x="196" y="-7.5" font-family="Helvetica,sans-Serif" font-size="10.00">workspaceState.Turtle</text>
</g>
<!-- Node2 -->
<g id="node2" class="node"><title>Node2</title>
<g id="a_node2"><a xlink:href="../../de/dc6/classworkspace_state_1_1_pen.html" target="_top" xlink:title="workspaceState.Pen">
<polygon fill="white" stroke="black" points="0,-68.5 0,-87.5 114,-87.5 114,-68.5 0,-68.5"/>
<text text-anchor="middle" x="57" y="-75.5" font-family="Helvetica,sans-Serif" font-size="10.00">workspaceState.Pen</text>
</a>
</g>
</g>
<!-- Node2&#45;&gt;Node1 -->
<g id="edge1" class="edge"><title>Node2&#45;&gt;Node1</title>
<path fill="none" stroke="#9a32cd" stroke-dasharray="5,2" d="M84.3059,-64.0346C111.972,-50.898 153.992,-30.9463 177.824,-19.6305"/>
<polygon fill="#9a32cd" stroke="#9a32cd" points="82.704,-60.9207 75.1718,-68.3717 85.7065,-67.244 82.704,-60.9207"/>
<text text-anchor="middle" x="150" y="-41.5" font-family="Helvetica,sans-Serif" font-size="10.00"> pen</text>
</g>
<!-- Node3 -->
<g id="node3" class="node"><title>Node3</title>
<polygon fill="white" stroke="#bfbfbf" points="36.5,-136.5 36.5,-155.5 77.5,-155.5 77.5,-136.5 36.5,-136.5"/>
<text text-anchor="middle" x="57" y="-143.5" font-family="Helvetica,sans-Serif" font-size="10.00">Color</text>
</g>
<!-- Node3&#45;&gt;Node2 -->
<g id="edge2" class="edge"><title>Node3&#45;&gt;Node2</title>
<path fill="none" stroke="#9a32cd" stroke-dasharray="5,2" d="M57,-126.041C57,-113.472 57,-97.5631 57,-87.8411"/>
<polygon fill="#9a32cd" stroke="#9a32cd" points="53.5001,-126.372 57,-136.372 60.5001,-126.372 53.5001,-126.372"/>
<text text-anchor="middle" x="87.5" y="-109.5" font-family="Helvetica,sans-Serif" font-size="10.00"> myPenColor</text>
</g>
<!-- Node4 -->
<g id="node4" class="node"><title>Node4</title>
<g id="a_node4"><a xlink:href="../../da/de7/classworkspace_state_1_1_shape.html" target="_top" xlink:title="workspaceState.Shape">
<polygon fill="white" stroke="black" points="132.5,-68.5 132.5,-87.5 259.5,-87.5 259.5,-68.5 132.5,-68.5"/>
<text text-anchor="middle" x="196" y="-75.5" font-family="Helvetica,sans-Serif" font-size="10.00">workspaceState.Shape</text>
</a>
</g>
</g>
<!-- Node4&#45;&gt;Node1 -->
<g id="edge3" class="edge"><title>Node4&#45;&gt;Node1</title>
<path fill="none" stroke="#9a32cd" stroke-dasharray="5,2" d="M196,-58.0413C196,-45.4724 196,-29.5631 196,-19.8411"/>
<polygon fill="#9a32cd" stroke="#9a32cd" points="192.5,-58.3716 196,-68.3717 199.5,-58.3717 192.5,-58.3716"/>
<text text-anchor="middle" x="212.5" y="-41.5" font-family="Helvetica,sans-Serif" font-size="10.00"> shape</text>
</g>
<!-- Node5 -->
<g id="node5" class="node"><title>Node5</title>
<g id="a_node5"><a xlink:href="../../d0/d77/classworkspace_state_1_1_location.html" target="_top" xlink:title="workspaceState.Location">
<polygon fill="white" stroke="black" points="277.5,-68.5 277.5,-87.5 414.5,-87.5 414.5,-68.5 277.5,-68.5"/>
<text text-anchor="middle" x="346" y="-75.5" font-family="Helvetica,sans-Serif" font-size="10.00">workspaceState.Location</text>
</a>
</g>
</g>
<!-- Node5&#45;&gt;Node1 -->
<g id="edge4" class="edge"><title>Node5&#45;&gt;Node1</title>
<path fill="none" stroke="#9a32cd" stroke-dasharray="5,2" d="M316.923,-64.2063C287.074,-51.0724 241.445,-30.9957 215.615,-19.6305"/>
<polygon fill="#9a32cd" stroke="#9a32cd" points="315.827,-67.5478 326.39,-68.3717 318.647,-61.1406 315.827,-67.5478"/>
<text text-anchor="middle" x="314.5" y="-41.5" font-family="Helvetica,sans-Serif" font-size="10.00"> myLocation</text>
</g>
</g>
</svg>
