<?xml version="1.0" encoding="UTF-8" standalone="no"?>
<!DOCTYPE svg PUBLIC "-//W3C//DTD SVG 1.1//EN"
 "http://www.w3.org/Graphics/SVG/1.1/DTD/svg11.dtd">
<!-- Generated by graphviz version 2.36.0 (20140111.2315)
 -->
<!-- Title: commandParsing.structuralCommandParsing.StructuralCommand.ignoreUntilClosingBrace Pages: 1 -->
<svg width="722pt" height="98pt"
 viewBox="0.00 0.00 722.00 98.00" xmlns="http://www.w3.org/2000/svg" xmlns:xlink="http://www.w3.org/1999/xlink">
<g id="graph0" class="graph" transform="scale(1 1) rotate(0) translate(4 94)">
<title>commandParsing.structuralCommandParsing.StructuralCommand.ignoreUntilClosingBrace</title>
<polygon fill="white" stroke="none" points="-4,4 -4,-94 718,-94 718,4 -4,4"/>
<!-- Node1 -->
<g id="node1" class="node"><title>Node1</title>
<polygon fill="#bfbfbf" stroke="black" points="0.5,-21.5 0.5,-62.5 235.5,-62.5 235.5,-21.5 0.5,-21.5"/>
<text text-anchor="start" x="8.5" y="-50.5" font-family="Helvetica,sans-Serif" font-size="10.00">commandParsing.structural</text>
<text text-anchor="start" x="8.5" y="-39.5" font-family="Helvetica,sans-Serif" font-size="10.00">CommandParsing.StructuralCommand.ignore</text>
<text text-anchor="middle" x="118" y="-28.5" font-family="Helvetica,sans-Serif" font-size="10.00">UntilClosingBrace</text>
</g>
<!-- Node2 -->
<g id="node2" class="node"><title>Node2</title>
<g id="a_node2"><a xlink:href="../../de/dcc/classcommand_parsing_1_1structural_command_parsing_1_1_structural_command.html#a3f1054710afe4826d31938f0a74af315" target="_top" xlink:title="commandParsing.structural\lCommandParsing.StructuralCommand.check\lForOpeningBrace">
<polygon fill="white" stroke="black" points="280.5,-48.5 280.5,-89.5 513.5,-89.5 513.5,-48.5 280.5,-48.5"/>
<text text-anchor="start" x="288.5" y="-77.5" font-family="Helvetica,sans-Serif" font-size="10.00">commandParsing.structural</text>
<text text-anchor="start" x="288.5" y="-66.5" font-family="Helvetica,sans-Serif" font-size="10.00">CommandParsing.StructuralCommand.check</text>
<text text-anchor="middle" x="397" y="-55.5" font-family="Helvetica,sans-Serif" font-size="10.00">ForOpeningBrace</text>
</a>
</g>
</g>
<!-- Node1&#45;&gt;Node2 -->
<g id="edge1" class="edge"><title>Node1&#45;&gt;Node2</title>
<path fill="none" stroke="midnightblue" d="M235.67,-53.3722C247.106,-54.4868 258.745,-55.6214 270.266,-56.7443"/>
<polygon fill="midnightblue" stroke="midnightblue" points="270.059,-60.2407 280.351,-57.7274 270.738,-53.2737 270.059,-60.2407"/>
</g>
<!-- Node4 -->
<g id="node4" class="node"><title>Node4</title>
<g id="a_node4"><a xlink:href="../../de/dcc/classcommand_parsing_1_1structural_command_parsing_1_1_structural_command.html#a277f37ab3033f12c95cf3c79f4c13805" target="_top" xlink:title="commandParsing.structural\lCommandParsing.StructuralCommand.findBrace">
<polygon fill="white" stroke="black" points="272,-0 272,-30 522,-30 522,-0 272,-0"/>
<text text-anchor="start" x="280" y="-18" font-family="Helvetica,sans-Serif" font-size="10.00">commandParsing.structural</text>
<text text-anchor="middle" x="397" y="-7" font-family="Helvetica,sans-Serif" font-size="10.00">CommandParsing.StructuralCommand.findBrace</text>
</a>
</g>
</g>
<!-- Node1&#45;&gt;Node4 -->
<g id="edge3" class="edge"><title>Node1&#45;&gt;Node4</title>
<path fill="none" stroke="midnightblue" d="M235.67,-30.6278C244.278,-29.7888 253.001,-28.9385 261.703,-28.0903"/>
<polygon fill="midnightblue" stroke="midnightblue" points="262.286,-31.5502 271.899,-27.0965 261.606,-24.5832 262.286,-31.5502"/>
</g>
<!-- Node3 -->
<g id="node3" class="node"><title>Node3</title>
<g id="a_node3"><a xlink:href="../../d3/de0/classtranslator_1_1_translator.html#a87328fef942490ca02d2ebabaec35c47" target="_top" xlink:title="translator.Translator.matches\lListStartPattern">
<polygon fill="white" stroke="black" points="558,-51 558,-81 714,-81 714,-51 558,-51"/>
<text text-anchor="start" x="566" y="-69" font-family="Helvetica,sans-Serif" font-size="10.00">translator.Translator.matches</text>
<text text-anchor="middle" x="636" y="-58" font-family="Helvetica,sans-Serif" font-size="10.00">ListStartPattern</text>
</a>
</g>
</g>
<!-- Node2&#45;&gt;Node3 -->
<g id="edge2" class="edge"><title>Node2&#45;&gt;Node3</title>
<path fill="none" stroke="midnightblue" d="M513.723,-67.5352C525.148,-67.3905 536.608,-67.2455 547.677,-67.1054"/>
<polygon fill="midnightblue" stroke="midnightblue" points="547.765,-70.6046 557.72,-66.9782 547.677,-63.6052 547.765,-70.6046"/>
</g>
<!-- Node4&#45;&gt;Node3 -->
<g id="edge5" class="edge"><title>Node4&#45;&gt;Node3</title>
<path fill="none" stroke="midnightblue" d="M478.48,-30.0501C492.99,-32.9132 507.962,-35.9658 522,-39 535.643,-41.9488 550.168,-45.2764 564.101,-48.5625"/>
<polygon fill="midnightblue" stroke="midnightblue" points="563.582,-52.0366 574.12,-50.942 565.199,-45.226 563.582,-52.0366"/>
</g>
<!-- Node5 -->
<g id="node5" class="node"><title>Node5</title>
<g id="a_node5"><a xlink:href="../../d3/de0/classtranslator_1_1_translator.html#abd79378932d164889d2d90c7783f1493" target="_top" xlink:title="translator.Translator.matches\lListEndPattern">
<polygon fill="white" stroke="black" points="558,-0 558,-30 714,-30 714,-0 558,-0"/>
<text text-anchor="start" x="566" y="-18" font-family="Helvetica,sans-Serif" font-size="10.00">translator.Translator.matches</text>
<text text-anchor="middle" x="636" y="-7" font-family="Helvetica,sans-Serif" font-size="10.00">ListEndPattern</text>
</a>
</g>
</g>
<!-- Node4&#45;&gt;Node5 -->
<g id="edge4" class="edge"><title>Node4&#45;&gt;Node5</title>
<path fill="none" stroke="midnightblue" d="M522.053,-15C530.732,-15 539.371,-15 547.783,-15"/>
<polygon fill="midnightblue" stroke="midnightblue" points="547.92,-18.5001 557.92,-15 547.92,-11.5001 547.92,-18.5001"/>
</g>
</g>
</svg>
