<?xml version="1.0" encoding="UTF-8" standalone="no"?>
<!DOCTYPE svg PUBLIC "-//W3C//DTD SVG 1.1//EN"
 "http://www.w3.org/Graphics/SVG/1.1/DTD/svg11.dtd">
<!-- Generated by graphviz version 2.36.0 (20140111.2315)
 -->
<!-- Title: commandParsing.structuralCommandParsing.StructuralCommand.getVariable Pages: 1 -->
<svg width="686pt" height="136pt"
 viewBox="0.00 0.00 686.00 136.00" xmlns="http://www.w3.org/2000/svg" xmlns:xlink="http://www.w3.org/1999/xlink">
<g id="graph0" class="graph" transform="scale(1 1) rotate(0) translate(4 132)">
<title>commandParsing.structuralCommandParsing.StructuralCommand.getVariable</title>
<polygon fill="white" stroke="none" points="-4,4 -4,-132 682,-132 682,4 -4,4"/>
<!-- Node1 -->
<g id="node1" class="node"><title>Node1</title>
<polygon fill="#bfbfbf" stroke="black" points="0.5,-43.5 0.5,-84.5 221.5,-84.5 221.5,-43.5 0.5,-43.5"/>
<text text-anchor="start" x="8.5" y="-72.5" font-family="Helvetica,sans-Serif" font-size="10.00">commandParsing.structural</text>
<text text-anchor="start" x="8.5" y="-61.5" font-family="Helvetica,sans-Serif" font-size="10.00">CommandParsing.StructuralCommand.get</text>
<text text-anchor="middle" x="111" y="-50.5" font-family="Helvetica,sans-Serif" font-size="10.00">Variable</text>
</g>
<!-- Node2 -->
<g id="node2" class="node"><title>Node2</title>
<g id="a_node2"><a xlink:href="../../d7/d17/classcommand_parsing_1_1_command_parser.html#a9bf6e09b0ad06b6f217ad0ad040f8e93" target="_top" xlink:title="commandParsing.CommandParser.create\lParser">
<polygon fill="white" stroke="black" points="258,-98 258,-128 474,-128 474,-98 258,-98"/>
<text text-anchor="start" x="266" y="-116" font-family="Helvetica,sans-Serif" font-size="10.00">commandParsing.CommandParser.create</text>
<text text-anchor="middle" x="366" y="-105" font-family="Helvetica,sans-Serif" font-size="10.00">Parser</text>
</a>
</g>
</g>
<!-- Node1&#45;&gt;Node2 -->
<g id="edge1" class="edge"><title>Node1&#45;&gt;Node2</title>
<path fill="none" stroke="midnightblue" d="M218.195,-84.5674C238.002,-88.4035 258.49,-92.3716 277.649,-96.0823"/>
<polygon fill="midnightblue" stroke="midnightblue" points="277.053,-99.5318 287.537,-97.9972 278.385,-92.6595 277.053,-99.5318"/>
</g>
<!-- Node3 -->
<g id="node3" class="node"><title>Node3</title>
<g id="a_node3"><a xlink:href="../../d8/df5/classcommand_parsing_1_1variable_command_parsing_1_1_variable.html#ace69a3f2eb01d0f9ad830fe133d2e10b" target="_top" xlink:title="commandParsing.variableCommand\lParsing.Variable.getVariableName">
<polygon fill="white" stroke="black" points="270.5,-49 270.5,-79 461.5,-79 461.5,-49 270.5,-49"/>
<text text-anchor="start" x="278.5" y="-67" font-family="Helvetica,sans-Serif" font-size="10.00">commandParsing.variableCommand</text>
<text text-anchor="middle" x="366" y="-56" font-family="Helvetica,sans-Serif" font-size="10.00">Parsing.Variable.getVariableName</text>
</a>
</g>
</g>
<!-- Node1&#45;&gt;Node3 -->
<g id="edge2" class="edge"><title>Node1&#45;&gt;Node3</title>
<path fill="none" stroke="midnightblue" d="M221.866,-64C234.598,-64 247.559,-64 260.221,-64"/>
<polygon fill="midnightblue" stroke="midnightblue" points="260.301,-67.5001 270.301,-64 260.301,-60.5001 260.301,-67.5001"/>
</g>
<!-- Node4 -->
<g id="node4" class="node"><title>Node4</title>
<g id="a_node4"><a xlink:href="../../d8/df5/classcommand_parsing_1_1variable_command_parsing_1_1_variable.html#a27d54a36396edb245209c4da57476d2a" target="_top" xlink:title="commandParsing.variableCommand\lParsing.Variable.parse">
<polygon fill="white" stroke="black" points="270.5,-0 270.5,-30 461.5,-30 461.5,-0 270.5,-0"/>
<text text-anchor="start" x="278.5" y="-18" font-family="Helvetica,sans-Serif" font-size="10.00">commandParsing.variableCommand</text>
<text text-anchor="middle" x="366" y="-7" font-family="Helvetica,sans-Serif" font-size="10.00">Parsing.Variable.parse</text>
</a>
</g>
</g>
<!-- Node1&#45;&gt;Node4 -->
<g id="edge3" class="edge"><title>Node1&#45;&gt;Node4</title>
<path fill="none" stroke="midnightblue" d="M218.195,-43.4326C238.002,-39.5965 258.49,-35.6284 277.649,-31.9177"/>
<polygon fill="midnightblue" stroke="midnightblue" points="278.385,-35.3405 287.537,-30.0028 277.053,-28.4682 278.385,-35.3405"/>
</g>
<!-- Node5 -->
<g id="node5" class="node"><title>Node5</title>
<g id="a_node5"><a xlink:href="../../dd/d73/classworkspace_state_1_1_user_defined_variable_collection.html#a5def0190a604962200573bd46f2e262c" target="_top" xlink:title="workspaceState.UserDefined\lVariableCollection.fetchVariable">
<polygon fill="white" stroke="black" points="510.5,-0 510.5,-30 677.5,-30 677.5,-0 510.5,-0"/>
<text text-anchor="start" x="518.5" y="-18" font-family="Helvetica,sans-Serif" font-size="10.00">workspaceState.UserDefined</text>
<text text-anchor="middle" x="594" y="-7" font-family="Helvetica,sans-Serif" font-size="10.00">VariableCollection.fetchVariable</text>
</a>
</g>
</g>
<!-- Node4&#45;&gt;Node5 -->
<g id="edge4" class="edge"><title>Node4&#45;&gt;Node5</title>
<path fill="none" stroke="midnightblue" d="M461.535,-15C474.324,-15 487.438,-15 500.196,-15"/>
<polygon fill="midnightblue" stroke="midnightblue" points="500.339,-18.5001 510.339,-15 500.339,-11.5001 500.339,-18.5001"/>
</g>
</g>
</svg>
