<?xml version="1.0" encoding="UTF-8" standalone="no"?>
<!DOCTYPE svg PUBLIC "-//W3C//DTD SVG 1.1//EN"
 "http://www.w3.org/Graphics/SVG/1.1/DTD/svg11.dtd">
<!-- Generated by graphviz version 2.36.0 (20140111.2315)
 -->
<!-- Title: commandParsing.structuralCommandParsing.StructuralCommand.extractCommandsBetweenBraces Pages: 1 -->
<svg width="514pt" height="332pt"
 viewBox="0.00 0.00 514.00 332.00" xmlns="http://www.w3.org/2000/svg" xmlns:xlink="http://www.w3.org/1999/xlink">
<g id="graph0" class="graph" transform="scale(1 1) rotate(0) translate(4 328)">
<title>commandParsing.structuralCommandParsing.StructuralCommand.extractCommandsBetweenBraces</title>
<polygon fill="white" stroke="none" points="-4,4 -4,-328 510,-328 510,4 -4,4"/>
<!-- Node1 -->
<g id="node1" class="node"><title>Node1</title>
<polygon fill="#bfbfbf" stroke="black" points="0.5,-141.5 0.5,-182.5 239.5,-182.5 239.5,-141.5 0.5,-141.5"/>
<text text-anchor="start" x="8.5" y="-170.5" font-family="Helvetica,sans-Serif" font-size="10.00">commandParsing.structural</text>
<text text-anchor="start" x="8.5" y="-159.5" font-family="Helvetica,sans-Serif" font-size="10.00">CommandParsing.StructuralCommand.extract</text>
<text text-anchor="middle" x="120" y="-148.5" font-family="Helvetica,sans-Serif" font-size="10.00">CommandsBetweenBraces</text>
</g>
<!-- Node2 -->
<g id="node2" class="node"><title>Node2</title>
<g id="a_node2"><a xlink:href="../../d7/d50/classcommand_parsing_1_1structural_command_parsing_1_1_ask.html#aa19ad64684414b0ef6112ac7e75e992d" target="_top" xlink:title="commandParsing.structural\lCommandParsing.Ask.parse">
<polygon fill="white" stroke="black" points="315,-294 315,-324 467,-324 467,-294 315,-294"/>
<text text-anchor="start" x="323" y="-312" font-family="Helvetica,sans-Serif" font-size="10.00">commandParsing.structural</text>
<text text-anchor="middle" x="391" y="-301" font-family="Helvetica,sans-Serif" font-size="10.00">CommandParsing.Ask.parse</text>
</a>
</g>
</g>
<!-- Node1&#45;&gt;Node2 -->
<g id="edge1" class="edge"><title>Node1&#45;&gt;Node2</title>
<path fill="none" stroke="midnightblue" d="M148.294,-189.909C177.356,-217.971 225.974,-260.366 276,-284 288.091,-289.712 301.526,-294.141 314.806,-297.568"/>
<polygon fill="midnightblue" stroke="midnightblue" points="150.578,-187.248 140.984,-182.753 145.681,-192.25 150.578,-187.248"/>
</g>
<!-- Node3 -->
<g id="node3" class="node"><title>Node3</title>
<g id="a_node3"><a xlink:href="../../d5/dd6/classcommand_parsing_1_1structural_command_parsing_1_1_if_else.html#a00f4fac4f783a99448a471dd359c8e8e" target="_top" xlink:title="commandParsing.structural\lCommandParsing.IfElse.parse">
<polygon fill="white" stroke="black" points="311.5,-245 311.5,-275 470.5,-275 470.5,-245 311.5,-245"/>
<text text-anchor="start" x="319.5" y="-263" font-family="Helvetica,sans-Serif" font-size="10.00">commandParsing.structural</text>
<text text-anchor="middle" x="391" y="-252" font-family="Helvetica,sans-Serif" font-size="10.00">CommandParsing.IfElse.parse</text>
</a>
</g>
</g>
<!-- Node1&#45;&gt;Node3 -->
<g id="edge2" class="edge"><title>Node1&#45;&gt;Node3</title>
<path fill="none" stroke="midnightblue" d="M167.568,-187.301C197.767,-202.855 238.359,-222.191 276,-235 287.317,-238.851 299.473,-242.255 311.48,-245.214"/>
<polygon fill="midnightblue" stroke="midnightblue" points="169.031,-184.117 158.545,-182.607 165.801,-190.327 169.031,-184.117"/>
</g>
<!-- Node4 -->
<g id="node4" class="node"><title>Node4</title>
<g id="a_node4"><a xlink:href="../../db/da0/classcommand_parsing_1_1structural_command_parsing_1_1_tell.html#aaab258a057ef8d0fd8ff6980e59dc719" target="_top" xlink:title="commandParsing.structural\lCommandParsing.Tell.parse">
<polygon fill="white" stroke="black" points="316.5,-196 316.5,-226 465.5,-226 465.5,-196 316.5,-196"/>
<text text-anchor="start" x="324.5" y="-214" font-family="Helvetica,sans-Serif" font-size="10.00">commandParsing.structural</text>
<text text-anchor="middle" x="391" y="-203" font-family="Helvetica,sans-Serif" font-size="10.00">CommandParsing.Tell.parse</text>
</a>
</g>
</g>
<!-- Node1&#45;&gt;Node4 -->
<g id="edge3" class="edge"><title>Node1&#45;&gt;Node4</title>
<path fill="none" stroke="midnightblue" d="M243.762,-184.362C268.589,-188.884 293.954,-193.505 316.438,-197.6"/>
<polygon fill="midnightblue" stroke="midnightblue" points="244.376,-180.916 233.911,-182.567 243.122,-187.803 244.376,-180.916"/>
</g>
<!-- Node5 -->
<g id="node5" class="node"><title>Node5</title>
<g id="a_node5"><a xlink:href="../../d3/d0e/classcommand_parsing_1_1structural_command_parsing_1_1_if.html#a89fd19125688d38678f4faff6ad679ed" target="_top" xlink:title="commandParsing.structural\lCommandParsing.If.parse">
<polygon fill="white" stroke="black" points="316.5,-147 316.5,-177 465.5,-177 465.5,-147 316.5,-147"/>
<text text-anchor="start" x="324.5" y="-165" font-family="Helvetica,sans-Serif" font-size="10.00">commandParsing.structural</text>
<text text-anchor="middle" x="391" y="-154" font-family="Helvetica,sans-Serif" font-size="10.00">CommandParsing.If.parse</text>
</a>
</g>
</g>
<!-- Node1&#45;&gt;Node5 -->
<g id="edge4" class="edge"><title>Node1&#45;&gt;Node5</title>
<path fill="none" stroke="midnightblue" d="M249.871,-162C272.674,-162 295.693,-162 316.3,-162"/>
<polygon fill="midnightblue" stroke="midnightblue" points="249.77,-158.5 239.77,-162 249.77,-165.5 249.77,-158.5"/>
</g>
<!-- Node6 -->
<g id="node6" class="node"><title>Node6</title>
<g id="a_node6"><a xlink:href="../../d7/d78/classcommand_parsing_1_1structural_command_parsing_1_1_ask_with.html#a934aa5eda34ccd0b9703e578753031fb" target="_top" xlink:title="commandParsing.structural\lCommandParsing.AskWith.parse">
<polygon fill="white" stroke="black" points="305,-98 305,-128 477,-128 477,-98 305,-98"/>
<text text-anchor="start" x="313" y="-116" font-family="Helvetica,sans-Serif" font-size="10.00">commandParsing.structural</text>
<text text-anchor="middle" x="391" y="-105" font-family="Helvetica,sans-Serif" font-size="10.00">CommandParsing.AskWith.parse</text>
</a>
</g>
</g>
<!-- Node1&#45;&gt;Node6 -->
<g id="edge5" class="edge"><title>Node1&#45;&gt;Node6</title>
<path fill="none" stroke="midnightblue" d="M243.809,-139.63C265.432,-135.691 287.461,-131.678 307.638,-128.003"/>
<polygon fill="midnightblue" stroke="midnightblue" points="243.122,-136.197 233.911,-141.433 244.376,-143.084 243.122,-136.197"/>
</g>
<!-- Node7 -->
<g id="node7" class="node"><title>Node7</title>
<g id="a_node7"><a xlink:href="../../d0/dfe/classcommand_parsing_1_1structural_command_parsing_1_1_recurring_command.html#a60a1b93f2283ed1f1d5957146b10619b" target="_top" xlink:title="commandParsing.structural\lCommandParsing.RecurringCommand.parse">
<polygon fill="white" stroke="black" points="276.5,-49 276.5,-79 505.5,-79 505.5,-49 276.5,-49"/>
<text text-anchor="start" x="284.5" y="-67" font-family="Helvetica,sans-Serif" font-size="10.00">commandParsing.structural</text>
<text text-anchor="middle" x="391" y="-56" font-family="Helvetica,sans-Serif" font-size="10.00">CommandParsing.RecurringCommand.parse</text>
</a>
</g>
</g>
<!-- Node1&#45;&gt;Node7 -->
<g id="edge6" class="edge"><title>Node1&#45;&gt;Node7</title>
<path fill="none" stroke="midnightblue" d="M167.568,-136.699C197.767,-121.145 238.359,-101.809 276,-89 287.029,-85.2466 298.856,-81.918 310.564,-79.0128"/>
<polygon fill="midnightblue" stroke="midnightblue" points="165.801,-133.673 158.545,-141.393 169.031,-139.883 165.801,-133.673"/>
</g>
<!-- Node8 -->
<g id="node8" class="node"><title>Node8</title>
<g id="a_node8"><a xlink:href="../../d3/d58/classcommand_parsing_1_1user_command_parsing_1_1_make_user_instruction.html#ae874a4712e6685abea7e05c70b4bb7b7" target="_top" xlink:title="commandParsing.userCommand\lParsing.MakeUserInstruction.parse">
<polygon fill="white" stroke="black" points="300,-0 300,-30 482,-30 482,-0 300,-0"/>
<text text-anchor="start" x="308" y="-18" font-family="Helvetica,sans-Serif" font-size="10.00">commandParsing.userCommand</text>
<text text-anchor="middle" x="391" y="-7" font-family="Helvetica,sans-Serif" font-size="10.00">Parsing.MakeUserInstruction.parse</text>
</a>
</g>
</g>
<!-- Node1&#45;&gt;Node8 -->
<g id="edge7" class="edge"><title>Node1&#45;&gt;Node8</title>
<path fill="none" stroke="midnightblue" d="M148.294,-134.091C177.356,-106.029 225.974,-63.6339 276,-40 284.244,-36.1052 293.112,-32.8072 302.131,-30.0165"/>
<polygon fill="midnightblue" stroke="midnightblue" points="145.681,-131.75 140.984,-141.247 150.578,-136.752 145.681,-131.75"/>
</g>
</g>
</svg>
