<?xml version="1.0" encoding="UTF-8" standalone="no"?>
<!DOCTYPE svg PUBLIC "-//W3C//DTD SVG 1.1//EN"
 "http://www.w3.org/Graphics/SVG/1.1/DTD/svg11.dtd">
<!-- Generated by graphviz version 2.36.0 (20140111.2315)
 -->
<!-- Title: commandParsing.structuralCommandParsing.StructuralCommand.setEnclosedCommandsToEmptyList Pages: 1 -->
<svg width="414pt" height="48pt"
 viewBox="0.00 0.00 414.00 48.00" xmlns="http://www.w3.org/2000/svg" xmlns:xlink="http://www.w3.org/1999/xlink">
<g id="graph0" class="graph" transform="scale(1 1) rotate(0) translate(4 44)">
<title>commandParsing.structuralCommandParsing.StructuralCommand.setEnclosedCommandsToEmptyList</title>
<polygon fill="white" stroke="none" points="-4,4 -4,-44 410,-44 410,4 -4,4"/>
<!-- Node1 -->
<g id="node1" class="node"><title>Node1</title>
<polygon fill="#bfbfbf" stroke="black" points="0,0.5 0,-40.5 220,-40.5 220,0.5 0,0.5"/>
<text text-anchor="start" x="8" y="-28.5" font-family="Helvetica,sans-Serif" font-size="10.00">commandParsing.structural</text>
<text text-anchor="start" x="8" y="-17.5" font-family="Helvetica,sans-Serif" font-size="10.00">CommandParsing.StructuralCommand.set</text>
<text text-anchor="middle" x="110" y="-6.5" font-family="Helvetica,sans-Serif" font-size="10.00">EnclosedCommandsToEmptyList</text>
</g>
<!-- Node2 -->
<g id="node2" class="node"><title>Node2</title>
<g id="a_node2"><a xlink:href="../../d3/d0e/classcommand_parsing_1_1structural_command_parsing_1_1_if.html#a89fd19125688d38678f4faff6ad679ed" target="_top" xlink:title="commandParsing.structural\lCommandParsing.If.parse">
<polygon fill="white" stroke="black" points="256.5,-5 256.5,-35 405.5,-35 405.5,-5 256.5,-5"/>
<text text-anchor="start" x="264.5" y="-23" font-family="Helvetica,sans-Serif" font-size="10.00">commandParsing.structural</text>
<text text-anchor="middle" x="331" y="-12" font-family="Helvetica,sans-Serif" font-size="10.00">CommandParsing.If.parse</text>
</a>
</g>
</g>
<!-- Node1&#45;&gt;Node2 -->
<g id="edge1" class="edge"><title>Node1&#45;&gt;Node2</title>
<path fill="none" stroke="midnightblue" d="M230.187,-20C239.031,-20 247.789,-20 256.23,-20"/>
<polygon fill="midnightblue" stroke="midnightblue" points="230.179,-16.5001 220.179,-20 230.179,-23.5001 230.179,-16.5001"/>
</g>
</g>
</svg>
