<?xml version="1.0" encoding="UTF-8" standalone="no"?>
<!DOCTYPE svg PUBLIC "-//W3C//DTD SVG 1.1//EN"
 "http://www.w3.org/Graphics/SVG/1.1/DTD/svg11.dtd">
<!-- Generated by graphviz version 2.36.0 (20140111.2315)
 -->
<!-- Title: commandParsing.structuralCommandParsing.StructuralCommand.extractCommandsBetweenBraces Pages: 1 -->
<svg width="710pt" height="137pt"
 viewBox="0.00 0.00 710.00 137.00" xmlns="http://www.w3.org/2000/svg" xmlns:xlink="http://www.w3.org/1999/xlink">
<g id="graph0" class="graph" transform="scale(1 1) rotate(0) translate(4 133)">
<title>commandParsing.structuralCommandParsing.StructuralCommand.extractCommandsBetweenBraces</title>
<polygon fill="white" stroke="none" points="-4,4 -4,-133 706,-133 706,4 -4,4"/>
<!-- Node1 -->
<g id="node1" class="node"><title>Node1</title>
<polygon fill="#bfbfbf" stroke="black" points="0.5,-38.5 0.5,-79.5 239.5,-79.5 239.5,-38.5 0.5,-38.5"/>
<text text-anchor="start" x="8.5" y="-67.5" font-family="Helvetica,sans-Serif" font-size="10.00">commandParsing.structural</text>
<text text-anchor="start" x="8.5" y="-56.5" font-family="Helvetica,sans-Serif" font-size="10.00">CommandParsing.StructuralCommand.extract</text>
<text text-anchor="middle" x="120" y="-45.5" font-family="Helvetica,sans-Serif" font-size="10.00">CommandsBetweenBraces</text>
</g>
<!-- Node2 -->
<g id="node2" class="node"><title>Node2</title>
<g id="a_node2"><a xlink:href="../../de/dcc/classcommand_parsing_1_1structural_command_parsing_1_1_structural_command.html#a3f1054710afe4826d31938f0a74af315" target="_top" xlink:title="commandParsing.structural\lCommandParsing.StructuralCommand.check\lForOpeningBrace">
<polygon fill="white" stroke="black" points="276.5,-87.5 276.5,-128.5 509.5,-128.5 509.5,-87.5 276.5,-87.5"/>
<text text-anchor="start" x="284.5" y="-116.5" font-family="Helvetica,sans-Serif" font-size="10.00">commandParsing.structural</text>
<text text-anchor="start" x="284.5" y="-105.5" font-family="Helvetica,sans-Serif" font-size="10.00">CommandParsing.StructuralCommand.check</text>
<text text-anchor="middle" x="393" y="-94.5" font-family="Helvetica,sans-Serif" font-size="10.00">ForOpeningBrace</text>
</a>
</g>
</g>
<!-- Node1&#45;&gt;Node2 -->
<g id="edge1" class="edge"><title>Node1&#45;&gt;Node2</title>
<path fill="none" stroke="midnightblue" d="M234.75,-79.5674C245.954,-81.5931 257.36,-83.6556 268.654,-85.6975"/>
<polygon fill="midnightblue" stroke="midnightblue" points="268.077,-89.15 278.541,-87.4852 269.323,-82.2617 268.077,-89.15"/>
</g>
<!-- Node3 -->
<g id="node3" class="node"><title>Node3</title>
<g id="a_node3"><a xlink:href="../../d3/de0/classtranslator_1_1_translator.html#a87328fef942490ca02d2ebabaec35c47" target="_top" xlink:title="translator.Translator.matches\lListStartPattern">
<polygon fill="white" stroke="black" points="546,-68 546,-98 702,-98 702,-68 546,-68"/>
<text text-anchor="start" x="554" y="-86" font-family="Helvetica,sans-Serif" font-size="10.00">translator.Translator.matches</text>
<text text-anchor="middle" x="624" y="-75" font-family="Helvetica,sans-Serif" font-size="10.00">ListStartPattern</text>
</a>
</g>
</g>
<!-- Node1&#45;&gt;Node3 -->
<g id="edge4" class="edge"><title>Node1&#45;&gt;Node3</title>
<path fill="none" stroke="midnightblue" d="M239.649,-64.6725C330.513,-69.0166 453.788,-74.9102 535.742,-78.8283"/>
<polygon fill="midnightblue" stroke="midnightblue" points="535.62,-82.3264 545.775,-79.308 535.954,-75.3343 535.62,-82.3264"/>
</g>
<!-- Node4 -->
<g id="node4" class="node"><title>Node4</title>
<g id="a_node4"><a xlink:href="../../d3/de0/classtranslator_1_1_translator.html#abd79378932d164889d2d90c7783f1493" target="_top" xlink:title="translator.Translator.matches\lListEndPattern">
<polygon fill="white" stroke="black" points="315,-0 315,-30 471,-30 471,-0 315,-0"/>
<text text-anchor="start" x="323" y="-18" font-family="Helvetica,sans-Serif" font-size="10.00">translator.Translator.matches</text>
<text text-anchor="middle" x="393" y="-7" font-family="Helvetica,sans-Serif" font-size="10.00">ListEndPattern</text>
</a>
</g>
</g>
<!-- Node1&#45;&gt;Node4 -->
<g id="edge3" class="edge"><title>Node1&#45;&gt;Node4</title>
<path fill="none" stroke="midnightblue" d="M239.865,-39.701C261.741,-36.149 284.205,-32.5017 304.929,-29.137"/>
<polygon fill="midnightblue" stroke="midnightblue" points="305.643,-32.567 314.953,-27.5095 304.521,-25.6575 305.643,-32.567"/>
</g>
<!-- Node2&#45;&gt;Node3 -->
<g id="edge2" class="edge"><title>Node2&#45;&gt;Node3</title>
<path fill="none" stroke="midnightblue" d="M509.506,-95.3901C518.375,-94.422 527.235,-93.4547 535.874,-92.5116"/>
<polygon fill="midnightblue" stroke="midnightblue" points="536.341,-95.9815 545.902,-91.4168 535.581,-89.0228 536.341,-95.9815"/>
</g>
</g>
</svg>
