<?xml version="1.0" encoding="UTF-8" standalone="no"?>
<!DOCTYPE svg PUBLIC "-//W3C//DTD SVG 1.1//EN"
 "http://www.w3.org/Graphics/SVG/1.1/DTD/svg11.dtd">
<!-- Generated by graphviz version 2.36.0 (20140111.2315)
 -->
<!-- Title: commandParsing.structuralCommandParsing.StructuralCommand.parseCommandsBetweenBraces Pages: 1 -->
<!--zoomable 283 -->
<svg id="main" version="1.1" xmlns="http://www.w3.org/2000/svg" xmlns:xlink="http://www.w3.org/1999/xlink" xml:space="preserve" onload="init(evt)">
<style type="text/css"><![CDATA[
.edge:hover path { stroke: red; }
.edge:hover polygon { stroke: red; fill: red; }
]]></style>
<script type="text/javascript"><![CDATA[
var edges = document.getElementsByTagName('g');
if (edges && edges.length) {
  for (var i=0;i<edges.length;i++) {
    if (edges[i].id.substr(0,4)=='edge') {
      edges[i].setAttribute('class','edge');
    }
  }
}
]]></script>
        <defs>
                <circle id="rim" cx="0" cy="0" r="7"/>
                <circle id="rim2" cx="0" cy="0" r="3.5"/>
                <g id="zoomPlus">
                        <use xlink:href="#rim" fill="#404040">
                                <set attributeName="fill" to="#808080" begin="zoomplus.mouseover" end="zoomplus.mouseout"/>
                        </use>
                        <path d="M-4,0h8M0,-4v8" fill="none" stroke="white" stroke-width="1.5" pointer-events="none"/>
                </g>
                <g id="zoomMin">
                        <use xlink:href="#rim" fill="#404040">
                                <set attributeName="fill" to="#808080" begin="zoomminus.mouseover" end="zoomminus.mouseout"/>
                        </use>
                        <path d="M-4,0h8" fill="none" stroke="white" stroke-width="1.5" pointer-events="none"/>
                </g>
                <g id="dirArrow">
                        <path fill="none" stroke="white" stroke-width="1.5" d="M0,-3.0v7 M-2.5,-0.5L0,-3.0L2.5,-0.5"/>
                </g>
               <g id="resetDef">
                       <use xlink:href="#rim2" fill="#404040">
                               <set attributeName="fill" to="#808080" begin="reset.mouseover" end="reset.mouseout"/>
                       </use>
               </g>
        </defs>

<script type="text/javascript">
var viewWidth = 506;
var viewHeight = 283;
var sectionId = 'dynsection-15';
</script>
<script xlink:href="../../svgpan.js"/>
<svg id="graph" class="graph">
<g id="viewport">
<title>commandParsing.structuralCommandParsing.StructuralCommand.parseCommandsBetweenBraces</title>
<polygon fill="white" stroke="none" points="-4,4 -4,-279 502,-279 502,4 -4,4"/>
<!-- Node1 -->
<g id="node1" class="node"><title>Node1</title>
<polygon fill="#bfbfbf" stroke="black" points="0,-116.5 0,-157.5 232,-157.5 232,-116.5 0,-116.5"/>
<text text-anchor="start" x="8" y="-145.5" font-family="Helvetica,sans-Serif" font-size="10.00">commandParsing.structural</text>
<text text-anchor="start" x="8" y="-134.5" font-family="Helvetica,sans-Serif" font-size="10.00">CommandParsing.StructuralCommand.parse</text>
<text text-anchor="middle" x="116" y="-123.5" font-family="Helvetica,sans-Serif" font-size="10.00">CommandsBetweenBraces</text>
</g>
<!-- Node2 -->
<g id="node2" class="node"><title>Node2</title>
<g id="a_node2"><a xlink:href="../../d7/d50/classcommand_parsing_1_1structural_command_parsing_1_1_ask.html#aa19ad64684414b0ef6112ac7e75e992d" target="_top" xlink:title="commandParsing.structural\lCommandParsing.Ask.parse">
<polygon fill="white" stroke="black" points="307,-245 307,-275 459,-275 459,-245 307,-245"/>
<text text-anchor="start" x="315" y="-263" font-family="Helvetica,sans-Serif" font-size="10.00">commandParsing.structural</text>
<text text-anchor="middle" x="383" y="-252" font-family="Helvetica,sans-Serif" font-size="10.00">CommandParsing.Ask.parse</text>
</a>
</g>
</g>
<!-- Node1&#45;&gt;Node2 -->
<g id="edge1" class="edge"><title>Node1&#45;&gt;Node2</title>
<path fill="none" stroke="midnightblue" d="M150.609,-163.916C179.964,-186.131 224.563,-216.851 268,-235 280.246,-240.117 293.688,-244.251 306.913,-247.572"/>
<polygon fill="midnightblue" stroke="midnightblue" points="152.444,-160.912 142.378,-157.607 148.185,-166.468 152.444,-160.912"/>
</g>
<!-- Node3 -->
<g id="node3" class="node"><title>Node3</title>
<g id="a_node3"><a xlink:href="../../d5/dd6/classcommand_parsing_1_1structural_command_parsing_1_1_if_else.html#a00f4fac4f783a99448a471dd359c8e8e" target="_top" xlink:title="commandParsing.structural\lCommandParsing.IfElse.parse">
<polygon fill="white" stroke="black" points="303.5,-196 303.5,-226 462.5,-226 462.5,-196 303.5,-196"/>
<text text-anchor="start" x="311.5" y="-214" font-family="Helvetica,sans-Serif" font-size="10.00">commandParsing.structural</text>
<text text-anchor="middle" x="383" y="-203" font-family="Helvetica,sans-Serif" font-size="10.00">CommandParsing.IfElse.parse</text>
</a>
</g>
</g>
<!-- Node1&#45;&gt;Node3 -->
<g id="edge2" class="edge"><title>Node1&#45;&gt;Node3</title>
<path fill="none" stroke="midnightblue" d="M185.418,-160.77C211.144,-169.293 240.757,-178.612 268,-186 281.004,-189.527 294.945,-192.908 308.458,-195.982"/>
<polygon fill="midnightblue" stroke="midnightblue" points="186.356,-157.393 175.762,-157.548 184.14,-164.033 186.356,-157.393"/>
</g>
<!-- Node4 -->
<g id="node4" class="node"><title>Node4</title>
<g id="a_node4"><a xlink:href="../../d3/d0e/classcommand_parsing_1_1structural_command_parsing_1_1_if.html#a89fd19125688d38678f4faff6ad679ed" target="_top" xlink:title="commandParsing.structural\lCommandParsing.If.parse">
<polygon fill="white" stroke="black" points="308.5,-147 308.5,-177 457.5,-177 457.5,-147 308.5,-147"/>
<text text-anchor="start" x="316.5" y="-165" font-family="Helvetica,sans-Serif" font-size="10.00">commandParsing.structural</text>
<text text-anchor="middle" x="383" y="-154" font-family="Helvetica,sans-Serif" font-size="10.00">CommandParsing.If.parse</text>
</a>
</g>
</g>
<!-- Node1&#45;&gt;Node4 -->
<g id="edge3" class="edge"><title>Node1&#45;&gt;Node4</title>
<path fill="none" stroke="midnightblue" d="M242.106,-148.802C264.76,-150.94 287.702,-153.104 308.274,-155.045"/>
<polygon fill="midnightblue" stroke="midnightblue" points="242.361,-145.311 232.077,-147.856 241.704,-152.28 242.361,-145.311"/>
</g>
<!-- Node5 -->
<g id="node5" class="node"><title>Node5</title>
<g id="a_node5"><a xlink:href="../../d7/d78/classcommand_parsing_1_1structural_command_parsing_1_1_ask_with.html#a934aa5eda34ccd0b9703e578753031fb" target="_top" xlink:title="commandParsing.structural\lCommandParsing.AskWith.parse">
<polygon fill="white" stroke="black" points="297,-98 297,-128 469,-128 469,-98 297,-98"/>
<text text-anchor="start" x="305" y="-116" font-family="Helvetica,sans-Serif" font-size="10.00">commandParsing.structural</text>
<text text-anchor="middle" x="383" y="-105" font-family="Helvetica,sans-Serif" font-size="10.00">CommandParsing.AskWith.parse</text>
</a>
</g>
</g>
<!-- Node1&#45;&gt;Node5 -->
<g id="edge4" class="edge"><title>Node1&#45;&gt;Node5</title>
<path fill="none" stroke="midnightblue" d="M242.071,-125.673C260.66,-123.989 279.443,-122.288 296.953,-120.702"/>
<polygon fill="midnightblue" stroke="midnightblue" points="241.72,-122.19 232.077,-126.578 242.352,-129.162 241.72,-122.19"/>
</g>
<!-- Node6 -->
<g id="node6" class="node"><title>Node6</title>
<g id="a_node6"><a xlink:href="../../d0/dfe/classcommand_parsing_1_1structural_command_parsing_1_1_recurring_command.html#a60a1b93f2283ed1f1d5957146b10619b" target="_top" xlink:title="commandParsing.structural\lCommandParsing.RecurringCommand.parse">
<polygon fill="white" stroke="black" points="268.5,-49 268.5,-79 497.5,-79 497.5,-49 268.5,-49"/>
<text text-anchor="start" x="276.5" y="-67" font-family="Helvetica,sans-Serif" font-size="10.00">commandParsing.structural</text>
<text text-anchor="middle" x="383" y="-56" font-family="Helvetica,sans-Serif" font-size="10.00">CommandParsing.RecurringCommand.parse</text>
</a>
</g>
</g>
<!-- Node1&#45;&gt;Node6 -->
<g id="edge5" class="edge"><title>Node1&#45;&gt;Node6</title>
<path fill="none" stroke="midnightblue" d="M186.791,-113.34C212.206,-105.116 241.259,-96.1661 268,-89 281.113,-85.486 295.171,-82.0989 308.78,-79.0131"/>
<polygon fill="midnightblue" stroke="midnightblue" points="185.666,-110.026 177.242,-116.452 187.834,-116.682 185.666,-110.026"/>
</g>
<!-- Node7 -->
<g id="node7" class="node"><title>Node7</title>
<g id="a_node7"><a xlink:href="../../d3/d58/classcommand_parsing_1_1user_command_parsing_1_1_make_user_instruction.html#ae874a4712e6685abea7e05c70b4bb7b7" target="_top" xlink:title="commandParsing.userCommand\lParsing.MakeUserInstruction.parse">
<polygon fill="white" stroke="black" points="292,-0 292,-30 474,-30 474,-0 292,-0"/>
<text text-anchor="start" x="300" y="-18" font-family="Helvetica,sans-Serif" font-size="10.00">commandParsing.userCommand</text>
<text text-anchor="middle" x="383" y="-7" font-family="Helvetica,sans-Serif" font-size="10.00">Parsing.MakeUserInstruction.parse</text>
</a>
</g>
</g>
<!-- Node1&#45;&gt;Node7 -->
<g id="edge6" class="edge"><title>Node1&#45;&gt;Node7</title>
<path fill="none" stroke="midnightblue" d="M150.921,-110.174C180.307,-88.2112 224.783,-57.9387 268,-40 277.263,-36.1549 287.207,-32.8621 297.221,-30.0518"/>
<polygon fill="midnightblue" stroke="midnightblue" points="148.537,-107.589 142.676,-116.415 152.762,-113.17 148.537,-107.589"/>
</g>
</g>
</svg>
        <g id="navigator" transform="translate(0 0)" fill="#404254">
                <rect fill="#f2f5e9" fill-opacity="0.5" stroke="#606060" stroke-width=".5" x="0" y="0" width="60" height="60"/>
                <use id="zoomplus" xlink:href="#zoomPlus" x="17" y="9" onmousedown="handleZoom(evt,'in')"/>
                <use id="zoomminus" xlink:href="#zoomMin" x="42" y="9" onmousedown="handleZoom(evt,'out')"/>
                <use id="reset" xlink:href="#resetDef" x="30" y="36" onmousedown="handleReset()"/>
                <g id="arrowUp" xlink:href="#dirArrow" transform="translate(30 24)" onmousedown="handlePan(0,-1)">
                  <use xlink:href="#rim" fill="#404040">
                        <set attributeName="fill" to="#808080" begin="arrowUp.mouseover" end="arrowUp.mouseout"/>
                  </use>
                  <path fill="none" stroke="white" stroke-width="1.5" d="M0,-3.0v7 M-2.5,-0.5L0,-3.0L2.5,-0.5"/>
                </g>
                <g id="arrowRight" xlink:href="#dirArrow" transform="rotate(90) translate(36 -43)" onmousedown="handlePan(1,0)">
                  <use xlink:href="#rim" fill="#404040">
                        <set attributeName="fill" to="#808080" begin="arrowRight.mouseover" end="arrowRight.mouseout"/>
                  </use>
                  <path fill="none" stroke="white" stroke-width="1.5" d="M0,-3.0v7 M-2.5,-0.5L0,-3.0L2.5,-0.5"/>
                </g>
                <g id="arrowDown" xlink:href="#dirArrow" transform="rotate(180) translate(-30 -48)" onmousedown="handlePan(0,1)">
                  <use xlink:href="#rim" fill="#404040">
                        <set attributeName="fill" to="#808080" begin="arrowDown.mouseover" end="arrowDown.mouseout"/>
                  </use>
                  <path fill="none" stroke="white" stroke-width="1.5" d="M0,-3.0v7 M-2.5,-0.5L0,-3.0L2.5,-0.5"/>
                </g>
                <g id="arrowLeft" xlink:href="#dirArrow" transform="rotate(270) translate(-36 17)" onmousedown="handlePan(-1,0)">
                  <use xlink:href="#rim" fill="#404040">
                        <set attributeName="fill" to="#808080" begin="arrowLeft.mouseover" end="arrowLeft.mouseout"/>
                  </use>
                  <path fill="none" stroke="white" stroke-width="1.5" d="M0,-3.0v7 M-2.5,-0.5L0,-3.0L2.5,-0.5"/>
                </g>
        </g>
        <svg viewBox="0 0 15 15" width="100%" height="30px" preserveAspectRatio="xMaxYMin meet">
         <g id="arrow_out" transform="scale(0.3 0.3)">
          <a xlink:href="classcommand_parsing_1_1structural_command_parsing_1_1_structural_command_a4758d97862a38c414f90ca079a0d8d04_icgraph_org.svg" target="_base">
           <rect id="button" ry="5" rx="5" y="6" x="6" height="38" width="38"
                fill="#f2f5e9" fill-opacity="0.5" stroke="#606060" stroke-width="1.0"/>
           <path id="arrow"
             d="M 11.500037,31.436501 C 11.940474,20.09759 22.043105,11.32322 32.158766,21.979434 L 37.068811,17.246167 C 37.068811,17.246167 37.088388,32 37.088388,32 L 22.160133,31.978069 C 22.160133,31.978069 26.997745,27.140456 26.997745,27.140456 C 18.528582,18.264221 13.291696,25.230495 11.500037,31.436501 z"
             style="fill:#404040;"/>
          </a>
         </g>
        </svg>
</svg>
