<?xml version="1.0" encoding="UTF-8" standalone="no"?>
<!DOCTYPE svg PUBLIC "-//W3C//DTD SVG 1.1//EN"
 "http://www.w3.org/Graphics/SVG/1.1/DTD/svg11.dtd">
<!-- Generated by graphviz version 2.36.0 (20140111.2315)
 -->
<!-- Title: gui.factories.PaneFactory Pages: 1 -->
<!--zoomable 305 -->
<svg id="main" version="1.1" xmlns="http://www.w3.org/2000/svg" xmlns:xlink="http://www.w3.org/1999/xlink" xml:space="preserve" onload="init(evt)">
<style type="text/css"><![CDATA[
.edge:hover path { stroke: red; }
.edge:hover polygon { stroke: red; fill: red; }
]]></style>
<script type="text/javascript"><![CDATA[
var edges = document.getElementsByTagName('g');
if (edges && edges.length) {
  for (var i=0;i<edges.length;i++) {
    if (edges[i].id.substr(0,4)=='edge') {
      edges[i].setAttribute('class','edge');
    }
  }
}
]]></script>
        <defs>
                <circle id="rim" cx="0" cy="0" r="7"/>
                <circle id="rim2" cx="0" cy="0" r="3.5"/>
                <g id="zoomPlus">
                        <use xlink:href="#rim" fill="#404040">
                                <set attributeName="fill" to="#808080" begin="zoomplus.mouseover" end="zoomplus.mouseout"/>
                        </use>
                        <path d="M-4,0h8M0,-4v8" fill="none" stroke="white" stroke-width="1.5" pointer-events="none"/>
                </g>
                <g id="zoomMin">
                        <use xlink:href="#rim" fill="#404040">
                                <set attributeName="fill" to="#808080" begin="zoomminus.mouseover" end="zoomminus.mouseout"/>
                        </use>
                        <path d="M-4,0h8" fill="none" stroke="white" stroke-width="1.5" pointer-events="none"/>
                </g>
                <g id="dirArrow">
                        <path fill="none" stroke="white" stroke-width="1.5" d="M0,-3.0v7 M-2.5,-0.5L0,-3.0L2.5,-0.5"/>
                </g>
               <g id="resetDef">
                       <use xlink:href="#rim2" fill="#404040">
                               <set attributeName="fill" to="#808080" begin="reset.mouseover" end="reset.mouseout"/>
                       </use>
               </g>
        </defs>

<script type="text/javascript">
var viewWidth = 1840;
var viewHeight = 305;
var sectionId = 'dynsection-1';
</script>
<script xlink:href="../../svgpan.js"/>
<svg id="graph" class="graph">
<g id="viewport">
<title>gui.factories.PaneFactory</title>
<polygon fill="white" stroke="none" points="-4,4 -4,-301.076 1836,-301.076 1836,4 -4,4"/>
<!-- Node1 -->
<g id="node1" class="node"><title>Node1</title>
<polygon fill="#bfbfbf" stroke="black" points="1696,-244.576 1696,-263.576 1832,-263.576 1832,-244.576 1696,-244.576"/>
<text text-anchor="middle" x="1764" y="-251.576" font-family="Helvetica,sans-Serif" font-size="10.00">gui.factories.PaneFactory</text>
</g>
<!-- Node2 -->
<g id="node2" class="node"><title>Node2</title>
<g id="a_node2"><a xlink:href="../../d1/d60/classgui_1_1factories_1_1_object_factory.html" target="_top" xlink:title="gui.factories.ObjectFactory">
<polygon fill="white" stroke="black" points="528.5,-277.576 528.5,-296.576 671.5,-296.576 671.5,-277.576 528.5,-277.576"/>
<text text-anchor="middle" x="600" y="-284.576" font-family="Helvetica,sans-Serif" font-size="10.00">gui.factories.ObjectFactory</text>
</a>
</g>
</g>
<!-- Node2&#45;&gt;Node1 -->
<g id="edge1" class="edge"><title>Node2&#45;&gt;Node1</title>
<path fill="none" stroke="midnightblue" d="M681.586,-290.892C748.179,-293.716 845.207,-297.076 930,-297.076 930,-297.076 930,-297.076 1505,-297.076 1585.83,-297.076 1678.99,-276.287 1728.25,-263.619"/>
<polygon fill="midnightblue" stroke="midnightblue" points="681.718,-287.394 671.577,-290.462 681.417,-294.388 681.718,-287.394"/>
</g>
<!-- Node8 -->
<g id="node8" class="node"><title>Node8</title>
<g id="a_node8"><a xlink:href="../../d8/df2/classgui_1_1mainclasses_1_1workspace_1_1_workspace.html" target="_top" xlink:title="gui.mainclasses.workspace.\lWorkspace">
<polygon fill="white" stroke="black" points="856.5,-170.076 856.5,-200.076 1005.5,-200.076 1005.5,-170.076 856.5,-170.076"/>
<text text-anchor="start" x="864.5" y="-188.076" font-family="Helvetica,sans-Serif" font-size="10.00">gui.mainclasses.workspace.</text>
<text text-anchor="middle" x="931" y="-177.076" font-family="Helvetica,sans-Serif" font-size="10.00">Workspace</text>
</a>
</g>
</g>
<!-- Node2&#45;&gt;Node8 -->
<g id="edge19" class="edge"><title>Node2&#45;&gt;Node8</title>
<path fill="none" stroke="#9a32cd" stroke-dasharray="5,2" d="M670.24,-275.874C726.724,-266.183 801.643,-251.905 830,-240.076 838.874,-236.374 839.731,-232.982 848,-228.076 864.59,-218.233 883.644,-208.17 899.207,-200.255"/>
<polygon fill="#9a32cd" stroke="#9a32cd" points="669.551,-272.441 660.279,-277.569 670.725,-279.342 669.551,-272.441"/>
<text text-anchor="middle" x="773" y="-271.076" font-family="Helvetica,sans-Serif" font-size="10.00"> myObjectFactories</text>
</g>
<!-- Node3 -->
<g id="node3" class="node"><title>Node3</title>
<g id="a_node3"><a xlink:href="../../dd/d4c/classgui_1_1componentdrawers_1_1_turtle_screen_drawer.html" target="_top" xlink:title="gui.componentdrawers.Turtle\lScreenDrawer">
<polygon fill="white" stroke="black" points="1426.5,-137.076 1426.5,-167.076 1581.5,-167.076 1581.5,-137.076 1426.5,-137.076"/>
<text text-anchor="start" x="1434.5" y="-155.076" font-family="Helvetica,sans-Serif" font-size="10.00">gui.componentdrawers.Turtle</text>
<text text-anchor="middle" x="1504" y="-144.076" font-family="Helvetica,sans-Serif" font-size="10.00">ScreenDrawer</text>
</a>
</g>
</g>
<!-- Node3&#45;&gt;Node1 -->
<g id="edge2" class="edge"><title>Node3&#45;&gt;Node1</title>
<path fill="none" stroke="#9a32cd" stroke-dasharray="5,2" d="M1552.61,-170.899C1607.69,-192.676 1696.24,-227.684 1738.73,-244.48"/>
<polygon fill="#9a32cd" stroke="#9a32cd" points="1553.66,-167.548 1543.07,-167.126 1551.08,-174.058 1553.66,-167.548"/>
<text text-anchor="middle" x="1639" y="-222.076" font-family="Helvetica,sans-Serif" font-size="10.00"> myTurtleScreen</text>
</g>
<!-- Node3&#45;&gt;Node8 -->
<g id="edge18" class="edge"><title>Node3&#45;&gt;Node8</title>
<path fill="none" stroke="#9a32cd" stroke-dasharray="5,2" d="M1416.29,-151.707C1339.8,-151.963 1225.36,-153.762 1126,-161.076 1086.06,-164.016 1041.72,-169.345 1005.53,-174.235"/>
<polygon fill="#9a32cd" stroke="#9a32cd" points="1416.36,-155.207 1426.35,-151.682 1416.35,-148.207 1416.36,-155.207"/>
<text text-anchor="middle" x="1219" y="-164.076" font-family="Helvetica,sans-Serif" font-size="10.00"> myTurtleScreenDrawer</text>
</g>
<!-- Node4 -->
<g id="node4" class="node"><title>Node4</title>
<g id="a_node4"><a xlink:href="../../d0/dda/classgui_1_1componentdrawers_1_1_component_drawer.html" target="_top" xlink:title="gui.componentdrawers.Component\lDrawer">
<polygon fill="white" stroke="black" points="1126.5,-85.076 1126.5,-115.076 1311.5,-115.076 1311.5,-85.076 1126.5,-85.076"/>
<text text-anchor="start" x="1134.5" y="-103.076" font-family="Helvetica,sans-Serif" font-size="10.00">gui.componentdrawers.Component</text>
<text text-anchor="middle" x="1219" y="-92.076" font-family="Helvetica,sans-Serif" font-size="10.00">Drawer</text>
</a>
</g>
</g>
<!-- Node4&#45;&gt;Node3 -->
<g id="edge3" class="edge"><title>Node4&#45;&gt;Node3</title>
<path fill="none" stroke="midnightblue" d="M1312.11,-117.001C1348.99,-123.777 1390.99,-131.494 1426.18,-137.961"/>
<polygon fill="midnightblue" stroke="midnightblue" points="1312.32,-113.481 1301.86,-115.117 1311.06,-120.366 1312.32,-113.481"/>
</g>
<!-- Node5 -->
<g id="node5" class="node"><title>Node5</title>
<polygon fill="white" stroke="#bfbfbf" points="911,-41.576 911,-60.576 951,-60.576 951,-41.576 911,-41.576"/>
<text text-anchor="middle" x="931" y="-48.576" font-family="Helvetica,sans-Serif" font-size="10.00">Pane</text>
</g>
<!-- Node5&#45;&gt;Node3 -->
<g id="edge7" class="edge"><title>Node5&#45;&gt;Node3</title>
<path fill="none" stroke="#9a32cd" stroke-dasharray="5,2" d="M960.926,-41.0945C1025.41,-20.3924 1185.26,22.2935 1312,-15.076 1388.72,-37.6959 1459.92,-105.986 1489.09,-136.754"/>
<polygon fill="#9a32cd" stroke="#9a32cd" points="959.476,-37.8868 951.065,-44.33 961.658,-44.538 959.476,-37.8868"/>
<text text-anchor="middle" x="1219" y="-18.076" font-family="Helvetica,sans-Serif" font-size="10.00"> myGrid</text>
</g>
<!-- Node5&#45;&gt;Node4 -->
<g id="edge4" class="edge"><title>Node5&#45;&gt;Node4</title>
<path fill="none" stroke="midnightblue" d="M961.189,-56.0769C1000.58,-62.826 1072.48,-75.1437 1130.2,-85.033"/>
<polygon fill="midnightblue" stroke="midnightblue" points="961.657,-52.6061 951.209,-54.3671 960.475,-59.5056 961.657,-52.6061"/>
</g>
<!-- Node6 -->
<g id="node6" class="node"><title>Node6</title>
<g id="a_node6"><a xlink:href="../../dd/d6a/classgui_1_1nonbuttonfeatures_1_1_turtle_screen_feature.html" target="_top" xlink:title="gui.nonbuttonfeatures.Turtle\lScreenFeature">
<polygon fill="white" stroke="black" points="1143,-36.076 1143,-66.076 1295,-66.076 1295,-36.076 1143,-36.076"/>
<text text-anchor="start" x="1151" y="-54.076" font-family="Helvetica,sans-Serif" font-size="10.00">gui.nonbuttonfeatures.Turtle</text>
<text text-anchor="middle" x="1219" y="-43.076" font-family="Helvetica,sans-Serif" font-size="10.00">ScreenFeature</text>
</a>
</g>
</g>
<!-- Node5&#45;&gt;Node6 -->
<g id="edge6" class="edge"><title>Node5&#45;&gt;Node6</title>
<path fill="none" stroke="midnightblue" d="M961.385,-51.076C1003.74,-51.076 1083.37,-51.076 1142.75,-51.076"/>
<polygon fill="midnightblue" stroke="midnightblue" points="961.209,-47.5761 951.209,-51.076 961.209,-54.5761 961.209,-47.5761"/>
</g>
<!-- Node6&#45;&gt;Node3 -->
<g id="edge5" class="edge"><title>Node6&#45;&gt;Node3</title>
<path fill="none" stroke="#9a32cd" stroke-dasharray="5,2" d="M1289.86,-68.7787C1297.35,-70.8327 1304.85,-72.9537 1312,-75.076 1355.12,-87.8705 1366.27,-90.3079 1408,-107.076 1430.35,-116.057 1454.91,-127.741 1473.46,-136.952"/>
<polygon fill="#9a32cd" stroke="#9a32cd" points="1290.61,-65.3551 1280.04,-66.1227 1288.78,-72.1123 1290.61,-65.3551"/>
<text text-anchor="middle" x="1369" y="-110.076" font-family="Helvetica,sans-Serif" font-size="10.00"> myTurtleScreen</text>
</g>
<!-- Node7 -->
<g id="node7" class="node"><title>Node7</title>
<g id="a_node7"><a xlink:href="../../dd/d25/classgui_1_1factories_1_1turtlefactory_1_1_turtle_nodes.html" target="_top" xlink:title="gui.factories.turtlefactory.\lTurtleNodes">
<polygon fill="white" stroke="black" points="1150,-182.076 1150,-212.076 1288,-212.076 1288,-182.076 1150,-182.076"/>
<text text-anchor="start" x="1158" y="-200.076" font-family="Helvetica,sans-Serif" font-size="10.00">gui.factories.turtlefactory.</text>
<text text-anchor="middle" x="1219" y="-189.076" font-family="Helvetica,sans-Serif" font-size="10.00">TurtleNodes</text>
</a>
</g>
</g>
<!-- Node7&#45;&gt;Node3 -->
<g id="edge8" class="edge"><title>Node7&#45;&gt;Node3</title>
<path fill="none" stroke="#9a32cd" stroke-dasharray="5,2" d="M1298.13,-184.653C1338.14,-178.29 1386.68,-170.572 1426.47,-164.245"/>
<polygon fill="#9a32cd" stroke="#9a32cd" points="1297.47,-181.213 1288.15,-186.24 1298.57,-188.126 1297.47,-181.213"/>
<text text-anchor="middle" x="1369" y="-182.076" font-family="Helvetica,sans-Serif" font-size="10.00"> myTurtleNodes</text>
</g>
<!-- Node7&#45;&gt;Node8 -->
<g id="edge20" class="edge"><title>Node7&#45;&gt;Node8</title>
<path fill="none" stroke="#9a32cd" stroke-dasharray="5,2" d="M1139.8,-199.148C1106.54,-199.492 1067.35,-199.189 1032,-197.076 1023.45,-196.565 1014.51,-195.809 1005.64,-194.922"/>
<polygon fill="#9a32cd" stroke="#9a32cd" points="1139.96,-202.646 1149.92,-199.021 1139.88,-195.647 1139.96,-202.646"/>
<text text-anchor="middle" x="1070" y="-203.076" font-family="Helvetica,sans-Serif" font-size="10.00"> myTurtleNodes</text>
</g>
<!-- Node8&#45;&gt;Node7 -->
<g id="edge9" class="edge"><title>Node8&#45;&gt;Node7</title>
<path fill="none" stroke="#9a32cd" stroke-dasharray="5,2" d="M1015.84,-183.946C1045.03,-183.979 1077.98,-184.493 1108,-186.076 1121.51,-186.788 1135.92,-187.943 1149.72,-189.241"/>
<polygon fill="#9a32cd" stroke="#9a32cd" points="1015.69,-180.446 1005.69,-183.954 1015.69,-187.446 1015.69,-180.446"/>
<text text-anchor="middle" x="1070" y="-189.076" font-family="Helvetica,sans-Serif" font-size="10.00"> myWorkspace</text>
</g>
<!-- Node9 -->
<g id="node9" class="node"><title>Node9</title>
<polygon fill="white" stroke="#bfbfbf" points="584,-191.576 584,-210.576 616,-210.576 616,-191.576 584,-191.576"/>
<text text-anchor="middle" x="600" y="-198.576" font-family="Helvetica,sans-Serif" font-size="10.00">Tab</text>
</g>
<!-- Node9&#45;&gt;Node8 -->
<g id="edge10" class="edge"><title>Node9&#45;&gt;Node8</title>
<path fill="none" stroke="midnightblue" d="M626.718,-199.825C675.534,-197.451 783.259,-192.212 856.264,-188.662"/>
<polygon fill="midnightblue" stroke="midnightblue" points="626.245,-196.344 616.427,-200.326 626.585,-203.336 626.245,-196.344"/>
</g>
<!-- Node10 -->
<g id="node10" class="node"><title>Node10</title>
<g id="a_node10"><a xlink:href="../../d0/d23/classgui_1_1mainclasses_1_1workspace_1_1_workspace_data_holder.html" target="_top" xlink:title="gui.mainclasses.workspace.\lWorkspaceDataHolder">
<polygon fill="white" stroke="black" points="525.5,-142.076 525.5,-172.076 674.5,-172.076 674.5,-142.076 525.5,-142.076"/>
<text text-anchor="start" x="533.5" y="-160.076" font-family="Helvetica,sans-Serif" font-size="10.00">gui.mainclasses.workspace.</text>
<text text-anchor="middle" x="600" y="-149.076" font-family="Helvetica,sans-Serif" font-size="10.00">WorkspaceDataHolder</text>
</a>
</g>
</g>
<!-- Node10&#45;&gt;Node8 -->
<g id="edge11" class="edge"><title>Node10&#45;&gt;Node8</title>
<path fill="none" stroke="#9a32cd" stroke-dasharray="5,2" d="M684.961,-163.901C728.284,-167.458 781.982,-171.923 830,-176.076 838.51,-176.812 847.425,-177.596 856.28,-178.382"/>
<polygon fill="#9a32cd" stroke="#9a32cd" points="685.003,-160.393 674.75,-163.064 684.43,-167.369 685.003,-160.393"/>
<text text-anchor="middle" x="773" y="-179.076" font-family="Helvetica,sans-Serif" font-size="10.00"> myDataHolder</text>
</g>
<!-- Node11 -->
<g id="node11" class="node"><title>Node11</title>
<polygon fill="white" stroke="#bfbfbf" points="0.5,-239.076 0.5,-269.076 319.5,-269.076 319.5,-239.076 0.5,-239.076"/>
<text text-anchor="start" x="8.5" y="-257.076" font-family="Helvetica,sans-Serif" font-size="10.00">ObservableList&lt; gui.nonbuttonfeatures.tableviews.imageindex.</text>
<text text-anchor="middle" x="160" y="-246.076" font-family="Helvetica,sans-Serif" font-size="10.00">ImageIndex &gt;</text>
</g>
<!-- Node11&#45;&gt;Node10 -->
<g id="edge12" class="edge"><title>Node11&#45;&gt;Node10</title>
<path fill="none" stroke="#9a32cd" stroke-dasharray="5,2" d="M267.177,-237.401C284.82,-234.624 302.926,-231.772 320,-229.076 392.896,-217.567 419.581,-239.084 484,-203.076 494.73,-197.078 491.567,-188.577 502,-182.076 509.232,-177.57 517.25,-173.873 525.487,-170.84"/>
<polygon fill="#9a32cd" stroke="#9a32cd" points="266.188,-234.013 256.854,-239.025 267.276,-240.928 266.188,-234.013"/>
<text text-anchor="middle" x="411" y="-230.076" font-family="Helvetica,sans-Serif" font-size="10.00"> myImageIndexList</text>
</g>
<!-- Node12 -->
<g id="node12" class="node"><title>Node12</title>
<polygon fill="white" stroke="#bfbfbf" points="4,-190.076 4,-220.076 316,-220.076 316,-190.076 4,-190.076"/>
<text text-anchor="start" x="12" y="-208.076" font-family="Helvetica,sans-Serif" font-size="10.00">ObservableList&lt; gui.nonbuttonfeatures.tableviews.colorindex.</text>
<text text-anchor="middle" x="160" y="-197.076" font-family="Helvetica,sans-Serif" font-size="10.00">ColorIndex &gt;</text>
</g>
<!-- Node12&#45;&gt;Node10 -->
<g id="edge13" class="edge"><title>Node12&#45;&gt;Node10</title>
<path fill="none" stroke="#9a32cd" stroke-dasharray="5,2" d="M326.401,-189.073C377.01,-183.935 432.821,-178.027 484,-172.076 497.4,-170.518 511.663,-168.748 525.419,-166.984"/>
<polygon fill="#9a32cd" stroke="#9a32cd" points="325.948,-185.601 316.351,-190.09 326.653,-192.565 325.948,-185.601"/>
<text text-anchor="middle" x="411" y="-191.076" font-family="Helvetica,sans-Serif" font-size="10.00"> myColorIndexList</text>
</g>
<!-- Node13 -->
<g id="node13" class="node"><title>Node13</title>
<polygon fill="white" stroke="#bfbfbf" points="72.5,-141.076 72.5,-171.076 247.5,-171.076 247.5,-141.076 72.5,-141.076"/>
<text text-anchor="start" x="80.5" y="-159.076" font-family="Helvetica,sans-Serif" font-size="10.00">ObservableList&lt; gui.variableslist.</text>
<text text-anchor="middle" x="160" y="-148.076" font-family="Helvetica,sans-Serif" font-size="10.00">WorkspaceVariable &gt;</text>
</g>
<!-- Node13&#45;&gt;Node10 -->
<g id="edge14" class="edge"><title>Node13&#45;&gt;Node10</title>
<path fill="none" stroke="#9a32cd" stroke-dasharray="5,2" d="M257.71,-156.297C338.457,-156.481 451.85,-156.74 525.374,-156.908"/>
<polygon fill="#9a32cd" stroke="#9a32cd" points="257.543,-152.796 247.535,-156.274 257.527,-159.796 257.543,-152.796"/>
<text text-anchor="middle" x="411" y="-160.076" font-family="Helvetica,sans-Serif" font-size="10.00"> myVariablesList</text>
</g>
<!-- Node14 -->
<g id="node14" class="node"><title>Node14</title>
<polygon fill="white" stroke="#bfbfbf" points="91,-102.576 91,-121.576 229,-121.576 229,-102.576 91,-102.576"/>
<text text-anchor="middle" x="160" y="-109.576" font-family="Helvetica,sans-Serif" font-size="10.00">ObservableList&lt; String &gt;</text>
</g>
<!-- Node14&#45;&gt;Node10 -->
<g id="edge15" class="edge"><title>Node14&#45;&gt;Node10</title>
<path fill="none" stroke="#9a32cd" stroke-dasharray="5,2" d="M239.33,-113.105C304.963,-114.822 400.98,-119.33 484,-131.076 502.747,-133.728 522.961,-137.859 541.134,-142.052"/>
<polygon fill="#9a32cd" stroke="#9a32cd" points="239.147,-109.599 229.064,-112.852 238.975,-116.597 239.147,-109.599"/>
<text text-anchor="middle" x="411" y="-145.076" font-family="Helvetica,sans-Serif" font-size="10.00"> myPreviousCommandsList</text>
<text text-anchor="middle" x="411" y="-134.076" font-family="Helvetica,sans-Serif" font-size="10.00">mySavedCommandsList</text>
</g>
<!-- Node15 -->
<g id="node15" class="node"><title>Node15</title>
<polygon fill="white" stroke="#bfbfbf" points="23.5,-53.076 23.5,-83.076 296.5,-83.076 296.5,-53.076 23.5,-53.076"/>
<text text-anchor="start" x="31.5" y="-71.076" font-family="Helvetica,sans-Serif" font-size="10.00">ObservableList&lt; gui.factories.userdefinedcommands.</text>
<text text-anchor="middle" x="160" y="-60.076" font-family="Helvetica,sans-Serif" font-size="10.00">DisplayedUserCommand &gt;</text>
</g>
<!-- Node15&#45;&gt;Node10 -->
<g id="edge16" class="edge"><title>Node15&#45;&gt;Node10</title>
<path fill="none" stroke="#9a32cd" stroke-dasharray="5,2" d="M306.806,-57.0588C365.746,-59.1393 431.988,-70.3496 484,-103.076 496.84,-111.155 489.776,-123.093 502,-132.076 509.007,-137.225 516.977,-141.317 525.266,-144.567"/>
<polygon fill="#9a32cd" stroke="#9a32cd" points="306.745,-53.556 296.655,-56.787 306.557,-60.5535 306.745,-53.556"/>
<text text-anchor="middle" x="411" y="-106.076" font-family="Helvetica,sans-Serif" font-size="10.00"> myUserDefinedCommandList</text>
</g>
<!-- Node16 -->
<g id="node16" class="node"><title>Node16</title>
<polygon fill="white" stroke="#bfbfbf" points="502.5,-93.076 502.5,-123.076 697.5,-123.076 697.5,-93.076 502.5,-93.076"/>
<text text-anchor="start" x="510.5" y="-111.076" font-family="Helvetica,sans-Serif" font-size="10.00">Map&lt; String, gui.componentdrawers.</text>
<text text-anchor="middle" x="600" y="-100.076" font-family="Helvetica,sans-Serif" font-size="10.00">ComponentDrawer &gt;</text>
</g>
<!-- Node16&#45;&gt;Node8 -->
<g id="edge17" class="edge"><title>Node16&#45;&gt;Node8</title>
<path fill="none" stroke="#9a32cd" stroke-dasharray="5,2" d="M703.769,-124.905C743.464,-132.165 789.093,-141.444 830,-152.076 849.464,-157.135 870.664,-163.939 888.515,-170.055"/>
<polygon fill="#9a32cd" stroke="#9a32cd" points="704.275,-121.44 693.811,-123.103 703.028,-128.328 704.275,-121.44"/>
<text text-anchor="middle" x="773" y="-155.076" font-family="Helvetica,sans-Serif" font-size="10.00"> myComponentDrawers</text>
</g>
<!-- Node17 -->
<g id="node17" class="node"><title>Node17</title>
<g id="a_node17"><a xlink:href="../../da/d55/interface_control_1_1_slogo_graphics.html" target="_top" xlink:title="Control.SlogoGraphics">
<polygon fill="white" stroke="black" points="538.5,-54.576 538.5,-73.576 661.5,-73.576 661.5,-54.576 538.5,-54.576"/>
<text text-anchor="middle" x="600" y="-61.576" font-family="Helvetica,sans-Serif" font-size="10.00">Control.SlogoGraphics</text>
</a>
</g>
</g>
<!-- Node17&#45;&gt;Node8 -->
<g id="edge21" class="edge"><title>Node17&#45;&gt;Node8</title>
<path fill="none" stroke="#9a32cd" stroke-dasharray="5,2" d="M671.535,-71.2924C718.1,-77.9287 779.59,-90.3371 830,-113.076 862.371,-127.678 894.808,-153.617 913.614,-170.051"/>
<polygon fill="#9a32cd" stroke="#9a32cd" points="671.919,-67.8123 661.536,-69.923 670.969,-74.7476 671.919,-67.8123"/>
<text text-anchor="middle" x="773" y="-116.076" font-family="Helvetica,sans-Serif" font-size="10.00"> myControl</text>
</g>
<!-- Node18 -->
<g id="node18" class="node"><title>Node18</title>
<polygon fill="white" stroke="#bfbfbf" points="564,-229.576 564,-248.576 636,-248.576 636,-229.576 564,-229.576"/>
<text text-anchor="middle" x="600" y="-236.576" font-family="Helvetica,sans-Serif" font-size="10.00">BorderPane</text>
</g>
<!-- Node18&#45;&gt;Node8 -->
<g id="edge22" class="edge"><title>Node18&#45;&gt;Node8</title>
<path fill="none" stroke="#9a32cd" stroke-dasharray="5,2" d="M646.063,-233.829C692.364,-228.192 766.452,-218.489 830,-207.076 841.373,-205.034 853.417,-202.61 865.059,-200.131"/>
<polygon fill="#9a32cd" stroke="#9a32cd" points="645.56,-230.364 636.051,-235.037 646.398,-237.314 645.56,-230.364"/>
<text text-anchor="middle" x="773" y="-228.076" font-family="Helvetica,sans-Serif" font-size="10.00"> myPane</text>
</g>
<!-- Node19 -->
<g id="node19" class="node"><title>Node19</title>
<polygon fill="white" stroke="#bfbfbf" points="848,-238.076 848,-268.076 1014,-268.076 1014,-238.076 848,-238.076"/>
<text text-anchor="start" x="856" y="-256.076" font-family="Helvetica,sans-Serif" font-size="10.00">List&lt; gui.factories.turtlefactory.</text>
<text text-anchor="middle" x="931" y="-245.076" font-family="Helvetica,sans-Serif" font-size="10.00">TurtleNode &gt;</text>
</g>
<!-- Node19&#45;&gt;Node7 -->
<g id="edge23" class="edge"><title>Node19&#45;&gt;Node7</title>
<path fill="none" stroke="#9a32cd" stroke-dasharray="5,2" d="M1018.61,-236.117C1060.72,-227.872 1110.6,-218.106 1149.93,-210.404"/>
<polygon fill="#9a32cd" stroke="#9a32cd" points="1017.78,-232.713 1008.64,-238.069 1019.13,-239.582 1017.78,-232.713"/>
<text text-anchor="middle" x="1070" y="-237.076" font-family="Helvetica,sans-Serif" font-size="10.00"> myTurtleNodes</text>
</g>
<!-- Node20 -->
<g id="node20" class="node"><title>Node20</title>
<polygon fill="white" stroke="#bfbfbf" points="1198.5,-231.576 1198.5,-250.576 1239.5,-250.576 1239.5,-231.576 1198.5,-231.576"/>
<text text-anchor="middle" x="1219" y="-238.576" font-family="Helvetica,sans-Serif" font-size="10.00">Color</text>
</g>
<!-- Node20&#45;&gt;Node3 -->
<g id="edge24" class="edge"><title>Node20&#45;&gt;Node3</title>
<path fill="none" stroke="#9a32cd" stroke-dasharray="5,2" d="M1249.77,-235.078C1267.83,-231.321 1291.32,-226.228 1312,-221.076 1355.01,-210.363 1366.29,-209.075 1408,-194.076 1429.72,-186.265 1453.47,-175.765 1471.79,-167.218"/>
<polygon fill="#9a32cd" stroke="#9a32cd" points="1248.91,-231.681 1239.82,-237.126 1250.32,-238.537 1248.91,-231.681"/>
<text text-anchor="middle" x="1369" y="-220.076" font-family="Helvetica,sans-Serif" font-size="10.00"> myScreenColor</text>
</g>
</g>
</svg>
        <g id="navigator" transform="translate(0 0)" fill="#404254">
                <rect fill="#f2f5e9" fill-opacity="0.5" stroke="#606060" stroke-width=".5" x="0" y="0" width="60" height="60"/>
                <use id="zoomplus" xlink:href="#zoomPlus" x="17" y="9" onmousedown="handleZoom(evt,'in')"/>
                <use id="zoomminus" xlink:href="#zoomMin" x="42" y="9" onmousedown="handleZoom(evt,'out')"/>
                <use id="reset" xlink:href="#resetDef" x="30" y="36" onmousedown="handleReset()"/>
                <g id="arrowUp" xlink:href="#dirArrow" transform="translate(30 24)" onmousedown="handlePan(0,-1)">
                  <use xlink:href="#rim" fill="#404040">
                        <set attributeName="fill" to="#808080" begin="arrowUp.mouseover" end="arrowUp.mouseout"/>
                  </use>
                  <path fill="none" stroke="white" stroke-width="1.5" d="M0,-3.0v7 M-2.5,-0.5L0,-3.0L2.5,-0.5"/>
                </g>
                <g id="arrowRight" xlink:href="#dirArrow" transform="rotate(90) translate(36 -43)" onmousedown="handlePan(1,0)">
                  <use xlink:href="#rim" fill="#404040">
                        <set attributeName="fill" to="#808080" begin="arrowRight.mouseover" end="arrowRight.mouseout"/>
                  </use>
                  <path fill="none" stroke="white" stroke-width="1.5" d="M0,-3.0v7 M-2.5,-0.5L0,-3.0L2.5,-0.5"/>
                </g>
                <g id="arrowDown" xlink:href="#dirArrow" transform="rotate(180) translate(-30 -48)" onmousedown="handlePan(0,1)">
                  <use xlink:href="#rim" fill="#404040">
                        <set attributeName="fill" to="#808080" begin="arrowDown.mouseover" end="arrowDown.mouseout"/>
                  </use>
                  <path fill="none" stroke="white" stroke-width="1.5" d="M0,-3.0v7 M-2.5,-0.5L0,-3.0L2.5,-0.5"/>
                </g>
                <g id="arrowLeft" xlink:href="#dirArrow" transform="rotate(270) translate(-36 17)" onmousedown="handlePan(-1,0)">
                  <use xlink:href="#rim" fill="#404040">
                        <set attributeName="fill" to="#808080" begin="arrowLeft.mouseover" end="arrowLeft.mouseout"/>
                  </use>
                  <path fill="none" stroke="white" stroke-width="1.5" d="M0,-3.0v7 M-2.5,-0.5L0,-3.0L2.5,-0.5"/>
                </g>
        </g>
        <svg viewBox="0 0 15 15" width="100%" height="30px" preserveAspectRatio="xMaxYMin meet">
         <g id="arrow_out" transform="scale(0.3 0.3)">
          <a xlink:href="classgui_1_1factories_1_1_pane_factory__coll__graph_org.svg" target="_base">
           <rect id="button" ry="5" rx="5" y="6" x="6" height="38" width="38"
                fill="#f2f5e9" fill-opacity="0.5" stroke="#606060" stroke-width="1.0"/>
           <path id="arrow"
             d="M 11.500037,31.436501 C 11.940474,20.09759 22.043105,11.32322 32.158766,21.979434 L 37.068811,17.246167 C 37.068811,17.246167 37.088388,32 37.088388,32 L 22.160133,31.978069 C 22.160133,31.978069 26.997745,27.140456 26.997745,27.140456 C 18.528582,18.264221 13.291696,25.230495 11.500037,31.436501 z"
             style="fill:#404040;"/>
          </a>
         </g>
        </svg>
</svg>
