<?xml version="1.0" encoding="UTF-8" standalone="no"?>
<!DOCTYPE svg PUBLIC "-//W3C//DTD SVG 1.1//EN"
 "http://www.w3.org/Graphics/SVG/1.1/DTD/svg11.dtd">
<!-- Generated by graphviz version 2.36.0 (20140111.2315)
 -->
<!-- Title: gui.factories.ShapePaletteEntryFactory Pages: 1 -->
<svg width="598pt" height="77pt"
 viewBox="0.00 0.00 598.00 77.00" xmlns="http://www.w3.org/2000/svg" xmlns:xlink="http://www.w3.org/1999/xlink">
<g id="graph0" class="graph" transform="scale(1 1) rotate(0) translate(4 73)">
<title>gui.factories.ShapePaletteEntryFactory</title>
<polygon fill="white" stroke="none" points="-4,4 -4,-73 594,-73 594,4 -4,4"/>
<!-- Node1 -->
<g id="node1" class="node"><title>Node1</title>
<polygon fill="#bfbfbf" stroke="black" points="448,-22 448,-52 590,-52 590,-22 448,-22"/>
<text text-anchor="start" x="456" y="-40" font-family="Helvetica,sans-Serif" font-size="10.00">gui.factories.ShapePalette</text>
<text text-anchor="middle" x="519" y="-29" font-family="Helvetica,sans-Serif" font-size="10.00">EntryFactory</text>
</g>
<!-- Node2 -->
<g id="node2" class="node"><title>Node2</title>
<g id="a_node2"><a xlink:href="../../d1/d60/classgui_1_1factories_1_1_object_factory.html" target="_top" xlink:title="gui.factories.ObjectFactory">
<polygon fill="white" stroke="black" points="88.5,-49.5 88.5,-68.5 231.5,-68.5 231.5,-49.5 88.5,-49.5"/>
<text text-anchor="middle" x="160" y="-56.5" font-family="Helvetica,sans-Serif" font-size="10.00">gui.factories.ObjectFactory</text>
</a>
</g>
</g>
<!-- Node2&#45;&gt;Node1 -->
<g id="edge1" class="edge"><title>Node2&#45;&gt;Node1</title>
<path fill="none" stroke="midnightblue" d="M241.678,-54.0282C303.754,-50.2028 388.666,-44.9702 447.919,-41.3187"/>
<polygon fill="midnightblue" stroke="midnightblue" points="241.297,-50.545 231.532,-54.6535 241.728,-57.5317 241.297,-50.545"/>
</g>
<!-- Node3 -->
<g id="node3" class="node"><title>Node3</title>
<polygon fill="white" stroke="#bfbfbf" points="0.5,-0 0.5,-30 319.5,-30 319.5,-0 0.5,-0"/>
<text text-anchor="start" x="8.5" y="-18" font-family="Helvetica,sans-Serif" font-size="10.00">ObservableList&lt; gui.nonbuttonfeatures.tableviews.imageindex.</text>
<text text-anchor="middle" x="160" y="-7" font-family="Helvetica,sans-Serif" font-size="10.00">ImageIndex &gt;</text>
</g>
<!-- Node3&#45;&gt;Node1 -->
<g id="edge2" class="edge"><title>Node3&#45;&gt;Node1</title>
<path fill="none" stroke="#9a32cd" stroke-dasharray="5,2" d="M329.963,-20.7635C363.154,-22.3962 397.691,-24.4467 430,-27 435.825,-27.4603 441.859,-28.0043 447.913,-28.597"/>
<polygon fill="#9a32cd" stroke="#9a32cd" points="329.867,-17.2549 319.71,-20.2701 329.53,-24.2468 329.867,-17.2549"/>
<text text-anchor="middle" x="384" y="-30" font-family="Helvetica,sans-Serif" font-size="10.00"> myImageIndexList</text>
</g>
</g>
</svg>
