<?xml version="1.0" encoding="UTF-8" standalone="no"?>
<!DOCTYPE svg PUBLIC "-//W3C//DTD SVG 1.1//EN"
 "http://www.w3.org/Graphics/SVG/1.1/DTD/svg11.dtd">
<!-- Generated by graphviz version 2.36.0 (20140111.2315)
 -->
<!-- Title: XML.XMLParser Pages: 1 -->
<svg width="390pt" height="268pt"
 viewBox="0.00 0.00 390.00 268.00" xmlns="http://www.w3.org/2000/svg" xmlns:xlink="http://www.w3.org/1999/xlink">
<g id="graph0" class="graph" transform="scale(1 1) rotate(0) translate(4 264)">
<title>XML.XMLParser</title>
<polygon fill="white" stroke="none" points="-4,4 -4,-264 386,-264 386,4 -4,4"/>
<!-- Node1 -->
<g id="node1" class="node"><title>Node1</title>
<polygon fill="#bfbfbf" stroke="black" points="292.5,-126.5 292.5,-145.5 381.5,-145.5 381.5,-126.5 292.5,-126.5"/>
<text text-anchor="middle" x="337" y="-133.5" font-family="Helvetica,sans-Serif" font-size="10.00">XML.XMLParser</text>
</g>
<!-- Node2 -->
<g id="node2" class="node"><title>Node2</title>
<polygon fill="white" stroke="#bfbfbf" points="45.5,-240.5 45.5,-259.5 134.5,-259.5 134.5,-240.5 45.5,-240.5"/>
<text text-anchor="middle" x="90" y="-247.5" font-family="Helvetica,sans-Serif" font-size="10.00">DefaultHandler</text>
</g>
<!-- Node2&#45;&gt;Node1 -->
<g id="edge1" class="edge"><title>Node2&#45;&gt;Node1</title>
<path fill="none" stroke="midnightblue" d="M145.221,-249.51C183.663,-246.91 235.115,-238.69 274,-215 302.289,-197.765 322.739,-162.597 331.403,-145.609"/>
<polygon fill="midnightblue" stroke="midnightblue" points="144.531,-246.043 134.744,-250.102 144.926,-253.032 144.531,-246.043"/>
</g>
<!-- Node3 -->
<g id="node3" class="node"><title>Node3</title>
<polygon fill="white" stroke="#bfbfbf" points="57,-202.5 57,-221.5 123,-221.5 123,-202.5 57,-202.5"/>
<text text-anchor="middle" x="90" y="-209.5" font-family="Helvetica,sans-Serif" font-size="10.00">SAXParser</text>
</g>
<!-- Node3&#45;&gt;Node1 -->
<g id="edge2" class="edge"><title>Node3&#45;&gt;Node1</title>
<path fill="none" stroke="#9a32cd" stroke-dasharray="5,2" d="M133.404,-209.077C171.415,-205.316 228.095,-196.846 274,-178 293.484,-170.001 313.136,-155.307 324.942,-145.594"/>
<polygon fill="#9a32cd" stroke="#9a32cd" points="132.839,-205.615 123.203,-210.018 133.482,-212.585 132.839,-205.615"/>
<text text-anchor="middle" x="236" y="-203" font-family="Helvetica,sans-Serif" font-size="10.00"> saxParser</text>
</g>
<!-- Node4 -->
<g id="node4" class="node"><title>Node4</title>
<polygon fill="white" stroke="#bfbfbf" points="67.5,-164.5 67.5,-183.5 112.5,-183.5 112.5,-164.5 67.5,-164.5"/>
<text text-anchor="middle" x="90" y="-171.5" font-family="Helvetica,sans-Serif" font-size="10.00">Stage</text>
</g>
<!-- Node4&#45;&gt;Node1 -->
<g id="edge3" class="edge"><title>Node4&#45;&gt;Node1</title>
<path fill="none" stroke="#9a32cd" stroke-dasharray="5,2" d="M122.596,-171.118C159.204,-167.527 221.253,-160.664 274,-151 282.279,-149.483 291.106,-147.545 299.427,-145.569"/>
<polygon fill="#9a32cd" stroke="#9a32cd" points="122.151,-167.644 112.532,-172.085 122.821,-174.612 122.151,-167.644"/>
<text text-anchor="middle" x="236" y="-166" font-family="Helvetica,sans-Serif" font-size="10.00"> stage</text>
</g>
<!-- Node5 -->
<g id="node5" class="node"><title>Node5</title>
<polygon fill="white" stroke="#bfbfbf" points="54.5,-126.5 54.5,-145.5 125.5,-145.5 125.5,-126.5 54.5,-126.5"/>
<text text-anchor="middle" x="90" y="-133.5" font-family="Helvetica,sans-Serif" font-size="10.00">FileChooser</text>
</g>
<!-- Node5&#45;&gt;Node1 -->
<g id="edge4" class="edge"><title>Node5&#45;&gt;Node1</title>
<path fill="none" stroke="#9a32cd" stroke-dasharray="5,2" d="M135.8,-136C180.247,-136 247.933,-136 292.072,-136"/>
<polygon fill="#9a32cd" stroke="#9a32cd" points="135.583,-132.5 125.583,-136 135.583,-139.5 135.583,-132.5"/>
<text text-anchor="middle" x="236" y="-139" font-family="Helvetica,sans-Serif" font-size="10.00"> chooser</text>
</g>
<!-- Node6 -->
<g id="node6" class="node"><title>Node6</title>
<polygon fill="white" stroke="#bfbfbf" points="0.5,-77 0.5,-107 179.5,-107 179.5,-77 0.5,-77"/>
<text text-anchor="start" x="8.5" y="-95" font-family="Helvetica,sans-Serif" font-size="10.00">Queue&lt; drawableobject.Drawable</text>
<text text-anchor="middle" x="90" y="-84" font-family="Helvetica,sans-Serif" font-size="10.00">Object &gt;</text>
</g>
<!-- Node6&#45;&gt;Node1 -->
<g id="edge5" class="edge"><title>Node6&#45;&gt;Node1</title>
<path fill="none" stroke="#9a32cd" stroke-dasharray="5,2" d="M189.659,-106.149C217.051,-110.48 246.749,-115.553 274,-121 282.036,-122.606 290.607,-124.537 298.732,-126.471"/>
<polygon fill="#9a32cd" stroke="#9a32cd" points="190.102,-102.676 179.681,-104.587 189.02,-109.592 190.102,-102.676"/>
<text text-anchor="middle" x="236" y="-124" font-family="Helvetica,sans-Serif" font-size="10.00"> objectQueue</text>
</g>
<!-- Node7 -->
<g id="node7" class="node"><title>Node7</title>
<polygon fill="white" stroke="#bfbfbf" points="29,-38.5 29,-57.5 151,-57.5 151,-38.5 29,-38.5"/>
<text text-anchor="middle" x="90" y="-45.5" font-family="Helvetica,sans-Serif" font-size="10.00">Map&lt; String, String &gt;</text>
</g>
<!-- Node7&#45;&gt;Node1 -->
<g id="edge6" class="edge"><title>Node7&#45;&gt;Node1</title>
<path fill="none" stroke="#9a32cd" stroke-dasharray="5,2" d="M161.241,-58.559C196.238,-65.4729 238.54,-76.3879 274,-93 292.979,-101.891 312.453,-116.465 324.39,-126.146"/>
<polygon fill="#9a32cd" stroke="#9a32cd" points="161.583,-55.0612 151.104,-56.6268 160.272,-61.9374 161.583,-55.0612"/>
<text text-anchor="middle" x="236" y="-96" font-family="Helvetica,sans-Serif" font-size="10.00"> rawParameters</text>
</g>
<!-- Node8 -->
<g id="node8" class="node"><title>Node8</title>
<polygon fill="white" stroke="#bfbfbf" points="39.5,-0.5 39.5,-19.5 140.5,-19.5 140.5,-0.5 39.5,-0.5"/>
<text text-anchor="middle" x="90" y="-7.5" font-family="Helvetica,sans-Serif" font-size="10.00">SAXParserFactory</text>
</g>
<!-- Node8&#45;&gt;Node1 -->
<g id="edge7" class="edge"><title>Node8&#45;&gt;Node1</title>
<path fill="none" stroke="#9a32cd" stroke-dasharray="5,2" d="M150.994,-13.3838C188.95,-17.9836 237.552,-28.6168 274,-53 302.553,-72.1016 323.012,-108.902 331.561,-126.359"/>
<polygon fill="#9a32cd" stroke="#9a32cd" points="150.912,-9.85384 140.59,-12.24 150.147,-16.8119 150.912,-9.85384"/>
<text text-anchor="middle" x="236" y="-56" font-family="Helvetica,sans-Serif" font-size="10.00"> docFactory</text>
</g>
</g>
</svg>
