<?xml version="1.0" encoding="UTF-8" standalone="no"?>
<!DOCTYPE svg PUBLIC "-//W3C//DTD SVG 1.1//EN"
 "http://www.w3.org/Graphics/SVG/1.1/DTD/svg11.dtd">
<!-- Generated by graphviz version 2.36.0 (20140111.2315)
 -->
<!-- Title: gui.componentdrawers.significantcommands.SignificantCommandsDrawer.addTabs Pages: 1 -->
<svg width="646pt" height="38pt"
 viewBox="0.00 0.00 646.00 38.00" xmlns="http://www.w3.org/2000/svg" xmlns:xlink="http://www.w3.org/1999/xlink">
<g id="graph0" class="graph" transform="scale(1 1) rotate(0) translate(4 34)">
<title>gui.componentdrawers.significantcommands.SignificantCommandsDrawer.addTabs</title>
<polygon fill="white" stroke="none" points="-4,4 -4,-34 642,-34 642,4 -4,4"/>
<!-- Node1 -->
<g id="node1" class="node"><title>Node1</title>
<polygon fill="#bfbfbf" stroke="black" points="0,-0 0,-30 234,-30 234,-0 0,-0"/>
<text text-anchor="start" x="8" y="-18" font-family="Helvetica,sans-Serif" font-size="10.00">gui.componentdrawers.significantcommands.</text>
<text text-anchor="middle" x="117" y="-7" font-family="Helvetica,sans-Serif" font-size="10.00">SignificantCommandsDrawer.addTabs</text>
</g>
<!-- Node2 -->
<g id="node2" class="node"><title>Node2</title>
<g id="a_node2"><a xlink:href="../../d4/dd2/classgui_1_1mainclasses_1_1_feature_builder.html#a158ad9534f6b1334bdd1953bf76e32b8" target="_top" xlink:title="gui.mainclasses.FeatureBuilder.init">
<polygon fill="white" stroke="black" points="270,-5.5 270,-24.5 452,-24.5 452,-5.5 270,-5.5"/>
<text text-anchor="middle" x="361" y="-12.5" font-family="Helvetica,sans-Serif" font-size="10.00">gui.mainclasses.FeatureBuilder.init</text>
</a>
</g>
</g>
<!-- Node1&#45;&gt;Node2 -->
<g id="edge1" class="edge"><title>Node1&#45;&gt;Node2</title>
<path fill="none" stroke="midnightblue" d="M244.176,-15C252.807,-15 261.403,-15 269.787,-15"/>
<polygon fill="midnightblue" stroke="midnightblue" points="244.038,-11.5001 234.038,-15 244.038,-18.5001 244.038,-11.5001"/>
</g>
<!-- Node3 -->
<g id="node3" class="node"><title>Node3</title>
<g id="a_node3"><a xlink:href="../../d8/df2/classgui_1_1mainclasses_1_1workspace_1_1_workspace.html#a2a722f3db714ab95c3784b2cc26837d4" target="_top" xlink:title="gui.mainclasses.workspace.\lWorkspace.Workspace">
<polygon fill="white" stroke="black" points="488.5,-0 488.5,-30 637.5,-30 637.5,-0 488.5,-0"/>
<text text-anchor="start" x="496.5" y="-18" font-family="Helvetica,sans-Serif" font-size="10.00">gui.mainclasses.workspace.</text>
<text text-anchor="middle" x="563" y="-7" font-family="Helvetica,sans-Serif" font-size="10.00">Workspace.Workspace</text>
</a>
</g>
</g>
<!-- Node2&#45;&gt;Node3 -->
<g id="edge2" class="edge"><title>Node2&#45;&gt;Node3</title>
<path fill="none" stroke="midnightblue" d="M462.32,-15C471.077,-15 479.832,-15 488.314,-15"/>
<polygon fill="midnightblue" stroke="midnightblue" points="462.054,-11.5001 452.054,-15 462.054,-18.5001 462.054,-11.5001"/>
</g>
</g>
</svg>
