<?xml version="1.0" encoding="UTF-8" standalone="no"?>
<!DOCTYPE svg PUBLIC "-//W3C//DTD SVG 1.1//EN"
 "http://www.w3.org/Graphics/SVG/1.1/DTD/svg11.dtd">
<!-- Generated by graphviz version 2.36.0 (20140111.2315)
 -->
<!-- Title: commandParsing.variableCommandParsing.MakeVariable.parse Pages: 1 -->
<svg width="922pt" height="278pt"
 viewBox="0.00 0.00 922.00 278.00" xmlns="http://www.w3.org/2000/svg" xmlns:xlink="http://www.w3.org/1999/xlink">
<g id="graph0" class="graph" transform="scale(1 1) rotate(0) translate(4 274)">
<title>commandParsing.variableCommandParsing.MakeVariable.parse</title>
<polygon fill="white" stroke="none" points="-4,4 -4,-274 918,-274 918,4 -4,4"/>
<!-- Node1 -->
<g id="node1" class="node"><title>Node1</title>
<polygon fill="#bfbfbf" stroke="black" points="0.5,-109 0.5,-139 191.5,-139 191.5,-109 0.5,-109"/>
<text text-anchor="start" x="8.5" y="-127" font-family="Helvetica,sans-Serif" font-size="10.00">commandParsing.variableCommand</text>
<text text-anchor="middle" x="96" y="-116" font-family="Helvetica,sans-Serif" font-size="10.00">Parsing.MakeVariable.parse</text>
</g>
<!-- Node2 -->
<g id="node2" class="node"><title>Node2</title>
<g id="a_node2"><a xlink:href="../../d7/d17/classcommand_parsing_1_1_command_parser.html#a663a439263fd1c59baab79f31742f1d7" target="_top" xlink:title="commandParsing.CommandParser.accumulate\lComponents">
<polygon fill="white" stroke="black" points="228,-177 228,-207 470,-207 470,-177 228,-177"/>
<text text-anchor="start" x="236" y="-195" font-family="Helvetica,sans-Serif" font-size="10.00">commandParsing.CommandParser.accumulate</text>
<text text-anchor="middle" x="349" y="-184" font-family="Helvetica,sans-Serif" font-size="10.00">Components</text>
</a>
</g>
</g>
<!-- Node1&#45;&gt;Node2 -->
<g id="edge1" class="edge"><title>Node1&#45;&gt;Node2</title>
<path fill="none" stroke="midnightblue" d="M152.394,-139.007C190.805,-149.413 242.116,-163.314 282.549,-174.268"/>
<polygon fill="midnightblue" stroke="midnightblue" points="281.747,-177.677 292.314,-176.914 283.578,-170.921 281.747,-177.677"/>
</g>
<!-- Node3 -->
<g id="node3" class="node"><title>Node3</title>
<g id="a_node3"><a xlink:href="../../d7/d17/classcommand_parsing_1_1_command_parser.html#a9bf6e09b0ad06b6f217ad0ad040f8e93" target="_top" xlink:title="commandParsing.CommandParser.create\lParser">
<polygon fill="white" stroke="black" points="506,-240 506,-270 722,-270 722,-240 506,-240"/>
<text text-anchor="start" x="514" y="-258" font-family="Helvetica,sans-Serif" font-size="10.00">commandParsing.CommandParser.create</text>
<text text-anchor="middle" x="614" y="-247" font-family="Helvetica,sans-Serif" font-size="10.00">Parser</text>
</a>
</g>
</g>
<!-- Node1&#45;&gt;Node3 -->
<g id="edge6" class="edge"><title>Node1&#45;&gt;Node3</title>
<path fill="none" stroke="midnightblue" d="M112.773,-139.249C135.91,-160.574 181.383,-198.634 228,-216 313.857,-247.985 417.498,-256.959 495.61,-258.363"/>
<polygon fill="midnightblue" stroke="midnightblue" points="495.925,-261.868 505.973,-258.508 496.023,-254.868 495.925,-261.868"/>
</g>
<!-- Node7 -->
<g id="node7" class="node"><title>Node7</title>
<g id="a_node7"><a xlink:href="../../d5/dc4/interfacecommand_parsing_1_1drawable_obect_generation_interfaces_1_1_user_defined_variable_generator.html#a0a6cea3a0e31a571a77c07065fd68e5b" target="_top" xlink:title="commandParsing.drawableObect\lGenerationInterfaces.UserDefined\lVariableGenerator.generateDrawableObject\lRepresentingVariable">
<polygon fill="white" stroke="black" points="237,-98 237,-150 461,-150 461,-98 237,-98"/>
<text text-anchor="start" x="245" y="-138" font-family="Helvetica,sans-Serif" font-size="10.00">commandParsing.drawableObect</text>
<text text-anchor="start" x="245" y="-127" font-family="Helvetica,sans-Serif" font-size="10.00">GenerationInterfaces.UserDefined</text>
<text text-anchor="start" x="245" y="-116" font-family="Helvetica,sans-Serif" font-size="10.00">VariableGenerator.generateDrawableObject</text>
<text text-anchor="middle" x="349" y="-105" font-family="Helvetica,sans-Serif" font-size="10.00">RepresentingVariable</text>
</a>
</g>
</g>
<!-- Node1&#45;&gt;Node7 -->
<g id="edge7" class="edge"><title>Node1&#45;&gt;Node7</title>
<path fill="none" stroke="midnightblue" d="M191.535,-124C202.928,-124 214.684,-124 226.395,-124"/>
<polygon fill="midnightblue" stroke="midnightblue" points="226.665,-127.5 236.665,-124 226.665,-120.5 226.665,-127.5"/>
</g>
<!-- Node10 -->
<g id="node10" class="node"><title>Node10</title>
<g id="a_node10"><a xlink:href="../../d3/de0/classtranslator_1_1_translator.html#aeb9508fb69ae1c82eec49d2b1d4ee77b" target="_top" xlink:title="translator.Translator.matches\lVariablePattern">
<polygon fill="white" stroke="black" points="271,-49 271,-79 427,-79 427,-49 271,-49"/>
<text text-anchor="start" x="279" y="-67" font-family="Helvetica,sans-Serif" font-size="10.00">translator.Translator.matches</text>
<text text-anchor="middle" x="349" y="-56" font-family="Helvetica,sans-Serif" font-size="10.00">VariablePattern</text>
</a>
</g>
</g>
<!-- Node1&#45;&gt;Node10 -->
<g id="edge10" class="edge"><title>Node1&#45;&gt;Node10</title>
<path fill="none" stroke="midnightblue" d="M148.425,-108.962C172.492,-102.158 201.608,-94.2574 228,-88 238.525,-85.5045 249.611,-83.0524 260.617,-80.725"/>
<polygon fill="midnightblue" stroke="midnightblue" points="261.609,-84.0934 270.684,-78.625 260.18,-77.2409 261.609,-84.0934"/>
</g>
<!-- Node11 -->
<g id="node11" class="node"><title>Node11</title>
<g id="a_node11"><a xlink:href="../../dd/d73/classworkspace_state_1_1_user_defined_variable_collection.html#a093eadfb9434e9c2ae29c48d5d9e7bd7" target="_top" xlink:title="workspaceState.UserDefined\lVariableCollection.storeVariable">
<polygon fill="white" stroke="black" points="265.5,-0 265.5,-30 432.5,-30 432.5,-0 265.5,-0"/>
<text text-anchor="start" x="273.5" y="-18" font-family="Helvetica,sans-Serif" font-size="10.00">workspaceState.UserDefined</text>
<text text-anchor="middle" x="349" y="-7" font-family="Helvetica,sans-Serif" font-size="10.00">VariableCollection.storeVariable</text>
</a>
</g>
</g>
<!-- Node1&#45;&gt;Node11 -->
<g id="edge11" class="edge"><title>Node1&#45;&gt;Node11</title>
<path fill="none" stroke="midnightblue" d="M115.262,-108.897C139.49,-89.659 184.306,-56.7812 228,-39 236.763,-35.4338 246.109,-32.3821 255.569,-29.7738"/>
<polygon fill="midnightblue" stroke="midnightblue" points="256.647,-33.1101 265.449,-27.2131 254.891,-26.3339 256.647,-33.1101"/>
</g>
<!-- Node2&#45;&gt;Node3 -->
<g id="edge2" class="edge"><title>Node2&#45;&gt;Node3</title>
<path fill="none" stroke="midnightblue" d="M411.09,-207.022C439.87,-214.063 474.683,-222.527 506,-230 516.442,-232.492 527.464,-235.096 538.305,-237.643"/>
<polygon fill="midnightblue" stroke="midnightblue" points="537.655,-241.085 548.19,-239.961 539.253,-234.27 537.655,-241.085"/>
</g>
<!-- Node4 -->
<g id="node4" class="node"><title>Node4</title>
<g id="a_node4"><a xlink:href="../../d7/d17/classcommand_parsing_1_1_command_parser.html#ac5bad35b74ad1aac039e96f2e3a99e82" target="_top" xlink:title="commandParsing.CommandParser.is\lStringParsableAsCommand">
<polygon fill="white" stroke="black" points="517.5,-191 517.5,-221 710.5,-221 710.5,-191 517.5,-191"/>
<text text-anchor="start" x="525.5" y="-209" font-family="Helvetica,sans-Serif" font-size="10.00">commandParsing.CommandParser.is</text>
<text text-anchor="middle" x="614" y="-198" font-family="Helvetica,sans-Serif" font-size="10.00">StringParsableAsCommand</text>
</a>
</g>
</g>
<!-- Node2&#45;&gt;Node4 -->
<g id="edge3" class="edge"><title>Node2&#45;&gt;Node4</title>
<path fill="none" stroke="midnightblue" d="M470.34,-198.406C482.597,-199.058 494.985,-199.718 507.073,-200.361"/>
<polygon fill="midnightblue" stroke="midnightblue" points="506.975,-203.861 517.147,-200.898 507.347,-196.871 506.975,-203.861"/>
</g>
<!-- Node6 -->
<g id="node6" class="node"><title>Node6</title>
<g id="a_node6"><a xlink:href="../../d7/d17/classcommand_parsing_1_1_command_parser.html#ae5a2f506ca01f7fa355a64e4831fbae3" target="_top" xlink:title="commandParsing.CommandParser.parse">
<polygon fill="white" stroke="black" points="508,-152.5 508,-171.5 720,-171.5 720,-152.5 508,-152.5"/>
<text text-anchor="middle" x="614" y="-159.5" font-family="Helvetica,sans-Serif" font-size="10.00">commandParsing.CommandParser.parse</text>
</a>
</g>
</g>
<!-- Node2&#45;&gt;Node6 -->
<g id="edge5" class="edge"><title>Node2&#45;&gt;Node6</title>
<path fill="none" stroke="midnightblue" d="M470.34,-178.273C486.761,-176.4 503.415,-174.5 519.27,-172.692"/>
<polygon fill="midnightblue" stroke="midnightblue" points="520.023,-176.128 529.562,-171.518 519.23,-169.174 520.023,-176.128"/>
</g>
<!-- Node5 -->
<g id="node5" class="node"><title>Node5</title>
<g id="a_node5"><a xlink:href="../../d3/de0/classtranslator_1_1_translator.html#ad62364674b153e6fb5c67b328700d6e2" target="_top" xlink:title="translator.Translator.matches\lCommandPattern">
<polygon fill="white" stroke="black" points="758,-191 758,-221 914,-221 914,-191 758,-191"/>
<text text-anchor="start" x="766" y="-209" font-family="Helvetica,sans-Serif" font-size="10.00">translator.Translator.matches</text>
<text text-anchor="middle" x="836" y="-198" font-family="Helvetica,sans-Serif" font-size="10.00">CommandPattern</text>
</a>
</g>
</g>
<!-- Node4&#45;&gt;Node5 -->
<g id="edge4" class="edge"><title>Node4&#45;&gt;Node5</title>
<path fill="none" stroke="midnightblue" d="M710.535,-206C722.856,-206 735.423,-206 747.604,-206"/>
<polygon fill="midnightblue" stroke="midnightblue" points="747.731,-209.5 757.731,-206 747.731,-202.5 747.731,-209.5"/>
</g>
<!-- Node8 -->
<g id="node8" class="node"><title>Node8</title>
<g id="a_node8"><a xlink:href="../../d9/da1/classgui_1_1variableslist_1_1_workspace_variable.html#ae407fad5ec45549a9e1ef6343a909fe7" target="_top" xlink:title="gui.variableslist.Workspace\lVariable.getMyName">
<polygon fill="white" stroke="black" points="542,-103 542,-133 686,-133 686,-103 542,-103"/>
<text text-anchor="start" x="550" y="-121" font-family="Helvetica,sans-Serif" font-size="10.00">gui.variableslist.Workspace</text>
<text text-anchor="middle" x="614" y="-110" font-family="Helvetica,sans-Serif" font-size="10.00">Variable.getMyName</text>
</a>
</g>
</g>
<!-- Node7&#45;&gt;Node8 -->
<g id="edge8" class="edge"><title>Node7&#45;&gt;Node8</title>
<path fill="none" stroke="midnightblue" d="M461.154,-121.464C484.861,-120.923 509.472,-120.362 531.804,-119.852"/>
<polygon fill="midnightblue" stroke="midnightblue" points="531.975,-123.349 541.893,-119.622 531.815,-116.351 531.975,-123.349"/>
</g>
<!-- Node9 -->
<g id="node9" class="node"><title>Node9</title>
<g id="a_node9"><a xlink:href="../../d9/da1/classgui_1_1variableslist_1_1_workspace_variable.html#a0fc16dab06a0aaedc76f6612f305cd6f" target="_top" xlink:title="gui.variableslist.Workspace\lVariable.getMyValue">
<polygon fill="white" stroke="black" points="542,-54 542,-84 686,-84 686,-54 542,-54"/>
<text text-anchor="start" x="550" y="-72" font-family="Helvetica,sans-Serif" font-size="10.00">gui.variableslist.Workspace</text>
<text text-anchor="middle" x="614" y="-61" font-family="Helvetica,sans-Serif" font-size="10.00">Variable.getMyValue</text>
</a>
</g>
</g>
<!-- Node7&#45;&gt;Node9 -->
<g id="edge9" class="edge"><title>Node7&#45;&gt;Node9</title>
<path fill="none" stroke="midnightblue" d="M461.154,-100.755C484.861,-95.7971 509.472,-90.6503 531.804,-85.9802"/>
<polygon fill="midnightblue" stroke="midnightblue" points="532.821,-89.3433 541.893,-83.8703 531.388,-82.4915 532.821,-89.3433"/>
</g>
<!-- Node12 -->
<g id="node12" class="node"><title>Node12</title>
<g id="a_node12"><a xlink:href="../../d9/da1/classgui_1_1variableslist_1_1_workspace_variable.html#adb4b0d1dfaf6d63d871b7499006a7a01" target="_top" xlink:title="gui.variableslist.Workspace\lVariable.addValue">
<polygon fill="white" stroke="black" points="542,-0 542,-30 686,-30 686,-0 542,-0"/>
<text text-anchor="start" x="550" y="-18" font-family="Helvetica,sans-Serif" font-size="10.00">gui.variableslist.Workspace</text>
<text text-anchor="middle" x="614" y="-7" font-family="Helvetica,sans-Serif" font-size="10.00">Variable.addValue</text>
</a>
</g>
</g>
<!-- Node11&#45;&gt;Node12 -->
<g id="edge12" class="edge"><title>Node11&#45;&gt;Node12</title>
<path fill="none" stroke="midnightblue" d="M432.854,-15C464.374,-15 500.235,-15 531.618,-15"/>
<polygon fill="midnightblue" stroke="midnightblue" points="531.639,-18.5001 541.639,-15 531.639,-11.5001 531.639,-18.5001"/>
</g>
</g>
</svg>
