<?xml version="1.0" encoding="UTF-8" standalone="no"?>
<!DOCTYPE svg PUBLIC "-//W3C//DTD SVG 1.1//EN"
 "http://www.w3.org/Graphics/SVG/1.1/DTD/svg11.dtd">
<!-- Generated by graphviz version 2.36.0 (20140111.2315)
 -->
<!-- Title: gui.componentdrawers.ComponentDrawer Pages: 1 -->
<!--zoomable 332 -->
<svg id="main" version="1.1" xmlns="http://www.w3.org/2000/svg" xmlns:xlink="http://www.w3.org/1999/xlink" xml:space="preserve" onload="init(evt)">
<style type="text/css"><![CDATA[
.edge:hover path { stroke: red; }
.edge:hover polygon { stroke: red; fill: red; }
]]></style>
<script type="text/javascript"><![CDATA[
var edges = document.getElementsByTagName('g');
if (edges && edges.length) {
  for (var i=0;i<edges.length;i++) {
    if (edges[i].id.substr(0,4)=='edge') {
      edges[i].setAttribute('class','edge');
    }
  }
}
]]></script>
        <defs>
                <circle id="rim" cx="0" cy="0" r="7"/>
                <circle id="rim2" cx="0" cy="0" r="3.5"/>
                <g id="zoomPlus">
                        <use xlink:href="#rim" fill="#404040">
                                <set attributeName="fill" to="#808080" begin="zoomplus.mouseover" end="zoomplus.mouseout"/>
                        </use>
                        <path d="M-4,0h8M0,-4v8" fill="none" stroke="white" stroke-width="1.5" pointer-events="none"/>
                </g>
                <g id="zoomMin">
                        <use xlink:href="#rim" fill="#404040">
                                <set attributeName="fill" to="#808080" begin="zoomminus.mouseover" end="zoomminus.mouseout"/>
                        </use>
                        <path d="M-4,0h8" fill="none" stroke="white" stroke-width="1.5" pointer-events="none"/>
                </g>
                <g id="dirArrow">
                        <path fill="none" stroke="white" stroke-width="1.5" d="M0,-3.0v7 M-2.5,-0.5L0,-3.0L2.5,-0.5"/>
                </g>
               <g id="resetDef">
                       <use xlink:href="#rim2" fill="#404040">
                               <set attributeName="fill" to="#808080" begin="reset.mouseover" end="reset.mouseout"/>
                       </use>
               </g>
        </defs>

<script type="text/javascript">
var viewWidth = 540;
var viewHeight = 332;
var sectionId = 'dynsection-0';
</script>
<script xlink:href="../../svgpan.js"/>
<svg id="graph" class="graph">
<g id="viewport">
<title>gui.componentdrawers.ComponentDrawer</title>
<polygon fill="white" stroke="none" points="-4,4 -4,-328 536,-328 536,4 -4,4"/>
<!-- Node1 -->
<g id="node1" class="node"><title>Node1</title>
<polygon fill="#bfbfbf" stroke="black" points="76.5,-147 76.5,-177 261.5,-177 261.5,-147 76.5,-147"/>
<text text-anchor="start" x="84.5" y="-165" font-family="Helvetica,sans-Serif" font-size="10.00">gui.componentdrawers.Component</text>
<text text-anchor="middle" x="169" y="-154" font-family="Helvetica,sans-Serif" font-size="10.00">Drawer</text>
</g>
<!-- Node3 -->
<g id="node3" class="node"><title>Node3</title>
<g id="a_node3"><a xlink:href="../../d8/d70/classgui_1_1componentdrawers_1_1_command_line_drawer.html" target="_top" xlink:title="gui.componentdrawers.Command\lLineDrawer">
<polygon fill="white" stroke="black" points="325.5,-294 325.5,-324 504.5,-324 504.5,-294 325.5,-294"/>
<text text-anchor="start" x="333.5" y="-312" font-family="Helvetica,sans-Serif" font-size="10.00">gui.componentdrawers.Command</text>
<text text-anchor="middle" x="415" y="-301" font-family="Helvetica,sans-Serif" font-size="10.00">LineDrawer</text>
</a>
</g>
</g>
<!-- Node1&#45;&gt;Node3 -->
<g id="edge2" class="edge"><title>Node1&#45;&gt;Node3</title>
<path fill="none" stroke="midnightblue" d="M187.508,-185.158C209.942,-213.105 251.527,-259.4 298,-284 306.558,-288.53 315.883,-292.239 325.406,-295.276"/>
<polygon fill="midnightblue" stroke="midnightblue" points="190.113,-182.808 181.176,-177.118 184.613,-187.139 190.113,-182.808"/>
</g>
<!-- Node4 -->
<g id="node4" class="node"><title>Node4</title>
<g id="a_node4"><a xlink:href="../../d8/d2e/classgui_1_1componentdrawers_1_1_error_drawer.html" target="_top" xlink:title="gui.componentdrawers.Error\lDrawer">
<polygon fill="white" stroke="black" points="339,-245 339,-275 491,-275 491,-245 339,-245"/>
<text text-anchor="start" x="347" y="-263" font-family="Helvetica,sans-Serif" font-size="10.00">gui.componentdrawers.Error</text>
<text text-anchor="middle" x="415" y="-252" font-family="Helvetica,sans-Serif" font-size="10.00">Drawer</text>
</a>
</g>
</g>
<!-- Node1&#45;&gt;Node4 -->
<g id="edge3" class="edge"><title>Node1&#45;&gt;Node4</title>
<path fill="none" stroke="midnightblue" d="M199.99,-182.63C225.133,-199.041 262.519,-221.43 298,-235 310.892,-239.931 324.982,-243.993 338.759,-247.303"/>
<polygon fill="midnightblue" stroke="midnightblue" points="201.901,-179.698 191.63,-177.099 198.038,-185.536 201.901,-179.698"/>
</g>
<!-- Node5 -->
<g id="node5" class="node"><title>Node5</title>
<g id="a_node5"><a xlink:href="../../d0/d17/classgui_1_1componentdrawers_1_1optionsholder_1_1_options_holder_drawer.html" target="_top" xlink:title="gui.componentdrawers.optionsholder.\lOptionsHolderDrawer">
<polygon fill="white" stroke="black" points="316.5,-196 316.5,-226 513.5,-226 513.5,-196 316.5,-196"/>
<text text-anchor="start" x="324.5" y="-214" font-family="Helvetica,sans-Serif" font-size="10.00">gui.componentdrawers.optionsholder.</text>
<text text-anchor="middle" x="415" y="-203" font-family="Helvetica,sans-Serif" font-size="10.00">OptionsHolderDrawer</text>
</a>
</g>
</g>
<!-- Node1&#45;&gt;Node5 -->
<g id="edge4" class="edge"><title>Node1&#45;&gt;Node5</title>
<path fill="none" stroke="midnightblue" d="M254.852,-179.04C282.331,-184.558 312.588,-190.634 339.275,-195.994"/>
<polygon fill="midnightblue" stroke="midnightblue" points="255.36,-175.572 244.866,-177.035 253.981,-182.435 255.36,-175.572"/>
</g>
<!-- Node6 -->
<g id="node6" class="node"><title>Node6</title>
<g id="a_node6"><a xlink:href="../../d9/dec/classgui_1_1componentdrawers_1_1_previous_commands_drawer.html" target="_top" xlink:title="gui.componentdrawers.Previous\lCommandsDrawer">
<polygon fill="white" stroke="black" points="330,-147 330,-177 500,-177 500,-147 330,-147"/>
<text text-anchor="start" x="338" y="-165" font-family="Helvetica,sans-Serif" font-size="10.00">gui.componentdrawers.Previous</text>
<text text-anchor="middle" x="415" y="-154" font-family="Helvetica,sans-Serif" font-size="10.00">CommandsDrawer</text>
</a>
</g>
</g>
<!-- Node1&#45;&gt;Node6 -->
<g id="edge5" class="edge"><title>Node1&#45;&gt;Node6</title>
<path fill="none" stroke="midnightblue" d="M271.633,-162C291.058,-162 311.192,-162 329.989,-162"/>
<polygon fill="midnightblue" stroke="midnightblue" points="271.551,-158.5 261.551,-162 271.551,-165.5 271.551,-158.5"/>
</g>
<!-- Node7 -->
<g id="node7" class="node"><title>Node7</title>
<g id="a_node7"><a xlink:href="../../db/d27/classgui_1_1componentdrawers_1_1significantcommands_1_1_significant_commands_drawer.html" target="_top" xlink:title="gui.componentdrawers.significantcommands.\lSignificantCommandsDrawer">
<polygon fill="white" stroke="black" points="298,-98 298,-128 532,-128 532,-98 298,-98"/>
<text text-anchor="start" x="306" y="-116" font-family="Helvetica,sans-Serif" font-size="10.00">gui.componentdrawers.significantcommands.</text>
<text text-anchor="middle" x="415" y="-105" font-family="Helvetica,sans-Serif" font-size="10.00">SignificantCommandsDrawer</text>
</a>
</g>
</g>
<!-- Node1&#45;&gt;Node7 -->
<g id="edge6" class="edge"><title>Node1&#45;&gt;Node7</title>
<path fill="none" stroke="midnightblue" d="M254.852,-144.96C282.331,-139.442 312.588,-133.366 339.275,-128.006"/>
<polygon fill="midnightblue" stroke="midnightblue" points="253.981,-141.565 244.866,-146.965 255.36,-148.428 253.981,-141.565"/>
</g>
<!-- Node8 -->
<g id="node8" class="node"><title>Node8</title>
<g id="a_node8"><a xlink:href="../../dd/d4c/classgui_1_1componentdrawers_1_1_turtle_screen_drawer.html" target="_top" xlink:title="gui.componentdrawers.Turtle\lScreenDrawer">
<polygon fill="white" stroke="black" points="337.5,-49 337.5,-79 492.5,-79 492.5,-49 337.5,-49"/>
<text text-anchor="start" x="345.5" y="-67" font-family="Helvetica,sans-Serif" font-size="10.00">gui.componentdrawers.Turtle</text>
<text text-anchor="middle" x="415" y="-56" font-family="Helvetica,sans-Serif" font-size="10.00">ScreenDrawer</text>
</a>
</g>
</g>
<!-- Node1&#45;&gt;Node8 -->
<g id="edge7" class="edge"><title>Node1&#45;&gt;Node8</title>
<path fill="none" stroke="midnightblue" d="M199.466,-141.292C224.568,-124.572 262.168,-101.655 298,-88 310.491,-83.2397 324.118,-79.3495 337.497,-76.1945"/>
<polygon fill="midnightblue" stroke="midnightblue" points="197.458,-138.424 191.131,-146.922 201.377,-144.225 197.458,-138.424"/>
</g>
<!-- Node9 -->
<g id="node9" class="node"><title>Node9</title>
<g id="a_node9"><a xlink:href="../../d8/d55/classgui_1_1componentdrawers_1_1_workspace_variables_drawer.html" target="_top" xlink:title="gui.componentdrawers.Workspace\lVariablesDrawer">
<polygon fill="white" stroke="black" points="325,-0 325,-30 505,-30 505,-0 325,-0"/>
<text text-anchor="start" x="333" y="-18" font-family="Helvetica,sans-Serif" font-size="10.00">gui.componentdrawers.Workspace</text>
<text text-anchor="middle" x="415" y="-7" font-family="Helvetica,sans-Serif" font-size="10.00">VariablesDrawer</text>
</a>
</g>
</g>
<!-- Node1&#45;&gt;Node9 -->
<g id="edge8" class="edge"><title>Node1&#45;&gt;Node9</title>
<path fill="none" stroke="midnightblue" d="M187.431,-138.586C209.788,-110.342 251.294,-63.5983 298,-39 306.37,-34.5917 315.478,-30.9928 324.787,-28.0546"/>
<polygon fill="midnightblue" stroke="midnightblue" points="184.49,-136.667 181.123,-146.712 190.02,-140.959 184.49,-136.667"/>
</g>
<!-- Node2 -->
<g id="node2" class="node"><title>Node2</title>
<polygon fill="white" stroke="#bfbfbf" points="0,-152.5 0,-171.5 40,-171.5 40,-152.5 0,-152.5"/>
<text text-anchor="middle" x="20" y="-159.5" font-family="Helvetica,sans-Serif" font-size="10.00">Pane</text>
</g>
<!-- Node2&#45;&gt;Node1 -->
<g id="edge1" class="edge"><title>Node2&#45;&gt;Node1</title>
<path fill="none" stroke="midnightblue" d="M50.4703,-162C58.262,-162 67.0992,-162 76.3453,-162"/>
<polygon fill="midnightblue" stroke="midnightblue" points="50.2177,-158.5 40.2177,-162 50.2176,-165.5 50.2177,-158.5"/>
</g>
</g>
</svg>
        <g id="navigator" transform="translate(0 0)" fill="#404254">
                <rect fill="#f2f5e9" fill-opacity="0.5" stroke="#606060" stroke-width=".5" x="0" y="0" width="60" height="60"/>
                <use id="zoomplus" xlink:href="#zoomPlus" x="17" y="9" onmousedown="handleZoom(evt,'in')"/>
                <use id="zoomminus" xlink:href="#zoomMin" x="42" y="9" onmousedown="handleZoom(evt,'out')"/>
                <use id="reset" xlink:href="#resetDef" x="30" y="36" onmousedown="handleReset()"/>
                <g id="arrowUp" xlink:href="#dirArrow" transform="translate(30 24)" onmousedown="handlePan(0,-1)">
                  <use xlink:href="#rim" fill="#404040">
                        <set attributeName="fill" to="#808080" begin="arrowUp.mouseover" end="arrowUp.mouseout"/>
                  </use>
                  <path fill="none" stroke="white" stroke-width="1.5" d="M0,-3.0v7 M-2.5,-0.5L0,-3.0L2.5,-0.5"/>
                </g>
                <g id="arrowRight" xlink:href="#dirArrow" transform="rotate(90) translate(36 -43)" onmousedown="handlePan(1,0)">
                  <use xlink:href="#rim" fill="#404040">
                        <set attributeName="fill" to="#808080" begin="arrowRight.mouseover" end="arrowRight.mouseout"/>
                  </use>
                  <path fill="none" stroke="white" stroke-width="1.5" d="M0,-3.0v7 M-2.5,-0.5L0,-3.0L2.5,-0.5"/>
                </g>
                <g id="arrowDown" xlink:href="#dirArrow" transform="rotate(180) translate(-30 -48)" onmousedown="handlePan(0,1)">
                  <use xlink:href="#rim" fill="#404040">
                        <set attributeName="fill" to="#808080" begin="arrowDown.mouseover" end="arrowDown.mouseout"/>
                  </use>
                  <path fill="none" stroke="white" stroke-width="1.5" d="M0,-3.0v7 M-2.5,-0.5L0,-3.0L2.5,-0.5"/>
                </g>
                <g id="arrowLeft" xlink:href="#dirArrow" transform="rotate(270) translate(-36 17)" onmousedown="handlePan(-1,0)">
                  <use xlink:href="#rim" fill="#404040">
                        <set attributeName="fill" to="#808080" begin="arrowLeft.mouseover" end="arrowLeft.mouseout"/>
                  </use>
                  <path fill="none" stroke="white" stroke-width="1.5" d="M0,-3.0v7 M-2.5,-0.5L0,-3.0L2.5,-0.5"/>
                </g>
        </g>
        <svg viewBox="0 0 15 15" width="100%" height="30px" preserveAspectRatio="xMaxYMin meet">
         <g id="arrow_out" transform="scale(0.3 0.3)">
          <a xlink:href="classgui_1_1componentdrawers_1_1_component_drawer__inherit__graph_org.svg" target="_base">
           <rect id="button" ry="5" rx="5" y="6" x="6" height="38" width="38"
                fill="#f2f5e9" fill-opacity="0.5" stroke="#606060" stroke-width="1.0"/>
           <path id="arrow"
             d="M 11.500037,31.436501 C 11.940474,20.09759 22.043105,11.32322 32.158766,21.979434 L 37.068811,17.246167 C 37.068811,17.246167 37.088388,32 37.088388,32 L 22.160133,31.978069 C 22.160133,31.978069 26.997745,27.140456 26.997745,27.140456 C 18.528582,18.264221 13.291696,25.230495 11.500037,31.436501 z"
             style="fill:#404040;"/>
          </a>
         </g>
        </svg>
</svg>
