<?xml version="1.0" encoding="UTF-8" standalone="no"?>
<!DOCTYPE svg PUBLIC "-//W3C//DTD SVG 1.1//EN"
 "http://www.w3.org/Graphics/SVG/1.1/DTD/svg11.dtd">
<!-- Generated by graphviz version 2.36.0 (20140111.2315)
 -->
<!-- Title: gui.nonbuttonfeatures.pen.PenThicknessSliderFeature.setPenSize Pages: 1 -->
<svg width="456pt" height="48pt"
 viewBox="0.00 0.00 456.00 48.00" xmlns="http://www.w3.org/2000/svg" xmlns:xlink="http://www.w3.org/1999/xlink">
<g id="graph0" class="graph" transform="scale(1 1) rotate(0) translate(4 44)">
<title>gui.nonbuttonfeatures.pen.PenThicknessSliderFeature.setPenSize</title>
<polygon fill="white" stroke="none" points="-4,4 -4,-44 452,-44 452,4 -4,4"/>
<!-- Node1 -->
<g id="node1" class="node"><title>Node1</title>
<polygon fill="#bfbfbf" stroke="black" points="0,-5 0,-35 200,-35 200,-5 0,-5"/>
<text text-anchor="start" x="8" y="-23" font-family="Helvetica,sans-Serif" font-size="10.00">gui.nonbuttonfeatures.pen.</text>
<text text-anchor="middle" x="100" y="-12" font-family="Helvetica,sans-Serif" font-size="10.00">PenThicknessSliderFeature.setPenSize</text>
</g>
<!-- Node2 -->
<g id="node2" class="node"><title>Node2</title>
<g id="a_node2"><a xlink:href="../../df/da5/classgui_1_1nonbuttonfeatures_1_1pen_1_1_pen_thickness_slider_feature.html#ac21db0471ec55460007a5bc7f1dd5b40" target="_top" xlink:title="gui.nonbuttonfeatures.pen.\lPenThicknessSliderFeature.PenThickness\lSliderFeature">
<polygon fill="white" stroke="black" points="236,0.5 236,-40.5 448,-40.5 448,0.5 236,0.5"/>
<text text-anchor="start" x="244" y="-28.5" font-family="Helvetica,sans-Serif" font-size="10.00">gui.nonbuttonfeatures.pen.</text>
<text text-anchor="start" x="244" y="-17.5" font-family="Helvetica,sans-Serif" font-size="10.00">PenThicknessSliderFeature.PenThickness</text>
<text text-anchor="middle" x="342" y="-6.5" font-family="Helvetica,sans-Serif" font-size="10.00">SliderFeature</text>
</a>
</g>
</g>
<!-- Node1&#45;&gt;Node2 -->
<g id="edge1" class="edge"><title>Node1&#45;&gt;Node2</title>
<path fill="none" stroke="midnightblue" d="M210.251,-20C218.69,-20 227.201,-20 235.615,-20"/>
<polygon fill="midnightblue" stroke="midnightblue" points="210.003,-16.5001 200.003,-20 210.003,-23.5001 210.003,-16.5001"/>
</g>
</g>
</svg>
