<?xml version="1.0" encoding="UTF-8" standalone="no"?>
<!DOCTYPE svg PUBLIC "-//W3C//DTD SVG 1.1//EN"
 "http://www.w3.org/Graphics/SVG/1.1/DTD/svg11.dtd">
<!-- Generated by graphviz version 2.36.0 (20140111.2315)
 -->
<!-- Title: gui.nonbuttonfeatures.pen.PenThicknessSliderFeature.setPenSize Pages: 1 -->
<svg width="610pt" height="38pt"
 viewBox="0.00 0.00 610.00 38.00" xmlns="http://www.w3.org/2000/svg" xmlns:xlink="http://www.w3.org/1999/xlink">
<g id="graph0" class="graph" transform="scale(1 1) rotate(0) translate(4 34)">
<title>gui.nonbuttonfeatures.pen.PenThicknessSliderFeature.setPenSize</title>
<polygon fill="white" stroke="none" points="-4,4 -4,-34 606,-34 606,4 -4,4"/>
<!-- Node1 -->
<g id="node1" class="node"><title>Node1</title>
<polygon fill="#bfbfbf" stroke="black" points="0,-0 0,-30 200,-30 200,-0 0,-0"/>
<text text-anchor="start" x="8" y="-18" font-family="Helvetica,sans-Serif" font-size="10.00">gui.nonbuttonfeatures.pen.</text>
<text text-anchor="middle" x="100" y="-7" font-family="Helvetica,sans-Serif" font-size="10.00">PenThicknessSliderFeature.setPenSize</text>
</g>
<!-- Node2 -->
<g id="node2" class="node"><title>Node2</title>
<g id="a_node2"><a xlink:href="../../d8/df2/classgui_1_1mainclasses_1_1workspace_1_1_workspace.html#a1c6c6c0599097fbf5e9a660ec0ac3702" target="_top" xlink:title="gui.mainclasses.workspace.\lWorkspace.parseCommandString">
<polygon fill="white" stroke="black" points="236,-0 236,-30 412,-30 412,-0 236,-0"/>
<text text-anchor="start" x="244" y="-18" font-family="Helvetica,sans-Serif" font-size="10.00">gui.mainclasses.workspace.</text>
<text text-anchor="middle" x="324" y="-7" font-family="Helvetica,sans-Serif" font-size="10.00">Workspace.parseCommandString</text>
</a>
</g>
</g>
<!-- Node1&#45;&gt;Node2 -->
<g id="edge1" class="edge"><title>Node1&#45;&gt;Node2</title>
<path fill="none" stroke="midnightblue" d="M200.312,-15C208.766,-15 217.311,-15 225.749,-15"/>
<polygon fill="midnightblue" stroke="midnightblue" points="225.974,-18.5001 235.974,-15 225.974,-11.5001 225.974,-18.5001"/>
</g>
<!-- Node3 -->
<g id="node3" class="node"><title>Node3</title>
<g id="a_node3"><a xlink:href="../../da/d55/interface_control_1_1_slogo_graphics.html#a05813100446932183f367405e6c73d67" target="_top" xlink:title="Control.SlogoGraphics.parse\lCommandString">
<polygon fill="white" stroke="black" points="448.5,-0 448.5,-30 601.5,-30 601.5,-0 448.5,-0"/>
<text text-anchor="start" x="456.5" y="-18" font-family="Helvetica,sans-Serif" font-size="10.00">Control.SlogoGraphics.parse</text>
<text text-anchor="middle" x="525" y="-7" font-family="Helvetica,sans-Serif" font-size="10.00">CommandString</text>
</a>
</g>
</g>
<!-- Node2&#45;&gt;Node3 -->
<g id="edge2" class="edge"><title>Node2&#45;&gt;Node3</title>
<path fill="none" stroke="midnightblue" d="M412.284,-15C420.916,-15 429.673,-15 438.288,-15"/>
<polygon fill="midnightblue" stroke="midnightblue" points="438.322,-18.5001 448.322,-15 438.322,-11.5001 438.322,-18.5001"/>
</g>
</g>
</svg>
