<?xml version="1.0" encoding="UTF-8" standalone="no"?>
<!DOCTYPE svg PUBLIC "-//W3C//DTD SVG 1.1//EN"
 "http://www.w3.org/Graphics/SVG/1.1/DTD/svg11.dtd">
<!-- Generated by graphviz version 2.36.0 (20140111.2315)
 -->
<!-- Title: gui.nonbuttonfeatures.pen.PenThicknessSliderFeature.PenThicknessSliderFeature Pages: 1 -->
<svg width="858pt" height="146pt"
 viewBox="0.00 0.00 858.00 146.00" xmlns="http://www.w3.org/2000/svg" xmlns:xlink="http://www.w3.org/1999/xlink">
<g id="graph0" class="graph" transform="scale(1 1) rotate(0) translate(4 142)">
<title>gui.nonbuttonfeatures.pen.PenThicknessSliderFeature.PenThicknessSliderFeature</title>
<polygon fill="white" stroke="none" points="-4,4 -4,-142 854,-142 854,4 -4,4"/>
<!-- Node1 -->
<g id="node1" class="node"><title>Node1</title>
<polygon fill="#bfbfbf" stroke="black" points="0,-53.5 0,-94.5 212,-94.5 212,-53.5 0,-53.5"/>
<text text-anchor="start" x="8" y="-82.5" font-family="Helvetica,sans-Serif" font-size="10.00">gui.nonbuttonfeatures.pen.</text>
<text text-anchor="start" x="8" y="-71.5" font-family="Helvetica,sans-Serif" font-size="10.00">PenThicknessSliderFeature.PenThickness</text>
<text text-anchor="middle" x="106" y="-60.5" font-family="Helvetica,sans-Serif" font-size="10.00">SliderFeature</text>
</g>
<!-- Node2 -->
<g id="node2" class="node"><title>Node2</title>
<g id="a_node2"><a xlink:href="../../d0/dda/classgui_1_1componentdrawers_1_1_component_drawer.html#a7866683582ed9aebe665c7998d549fbb" target="_top" xlink:title="gui.componentdrawers.Component\lDrawer.drawShape">
<polygon fill="white" stroke="black" points="255.5,-108 255.5,-138 440.5,-138 440.5,-108 255.5,-108"/>
<text text-anchor="start" x="263.5" y="-126" font-family="Helvetica,sans-Serif" font-size="10.00">gui.componentdrawers.Component</text>
<text text-anchor="middle" x="348" y="-115" font-family="Helvetica,sans-Serif" font-size="10.00">Drawer.drawShape</text>
</a>
</g>
</g>
<!-- Node1&#45;&gt;Node2 -->
<g id="edge1" class="edge"><title>Node1&#45;&gt;Node2</title>
<path fill="none" stroke="midnightblue" d="M207.738,-94.5674C226.355,-98.3683 245.606,-102.299 263.637,-105.98"/>
<polygon fill="midnightblue" stroke="midnightblue" points="263.019,-109.426 273.517,-107.997 264.419,-102.567 263.019,-109.426"/>
</g>
<!-- Node3 -->
<g id="node3" class="node"><title>Node3</title>
<g id="a_node3"><a xlink:href="../../df/da5/classgui_1_1nonbuttonfeatures_1_1pen_1_1_pen_thickness_slider_feature.html#a28590dd5170b40217f2a9179df0f7f4f" target="_top" xlink:title="gui.nonbuttonfeatures.pen.\lPenThicknessSliderFeature.setPenSize">
<polygon fill="white" stroke="black" points="248,-59 248,-89 448,-89 448,-59 248,-59"/>
<text text-anchor="start" x="256" y="-77" font-family="Helvetica,sans-Serif" font-size="10.00">gui.nonbuttonfeatures.pen.</text>
<text text-anchor="middle" x="348" y="-66" font-family="Helvetica,sans-Serif" font-size="10.00">PenThicknessSliderFeature.setPenSize</text>
</a>
</g>
</g>
<!-- Node1&#45;&gt;Node3 -->
<g id="edge2" class="edge"><title>Node1&#45;&gt;Node3</title>
<path fill="none" stroke="midnightblue" d="M212.267,-74C220.684,-74 229.199,-74 237.643,-74"/>
<polygon fill="midnightblue" stroke="midnightblue" points="237.897,-77.5001 247.897,-74 237.897,-70.5001 237.897,-77.5001"/>
</g>
<!-- Node6 -->
<g id="node6" class="node"><title>Node6</title>
<g id="a_node6"><a xlink:href="../../df/da5/classgui_1_1nonbuttonfeatures_1_1pen_1_1_pen_thickness_slider_feature.html#a750b0afecf3176c608c82c6bd87b738a" target="_top" xlink:title="gui.nonbuttonfeatures.pen.\lPenThicknessSliderFeature.setSlider\lProperties">
<polygon fill="white" stroke="black" points="253.5,0.5 253.5,-40.5 442.5,-40.5 442.5,0.5 253.5,0.5"/>
<text text-anchor="start" x="261.5" y="-28.5" font-family="Helvetica,sans-Serif" font-size="10.00">gui.nonbuttonfeatures.pen.</text>
<text text-anchor="start" x="261.5" y="-17.5" font-family="Helvetica,sans-Serif" font-size="10.00">PenThicknessSliderFeature.setSlider</text>
<text text-anchor="middle" x="348" y="-6.5" font-family="Helvetica,sans-Serif" font-size="10.00">Properties</text>
</a>
</g>
</g>
<!-- Node1&#45;&gt;Node6 -->
<g id="edge5" class="edge"><title>Node1&#45;&gt;Node6</title>
<path fill="none" stroke="midnightblue" d="M198.418,-53.4309C213.996,-49.9259 230.256,-46.2675 246.062,-42.7109"/>
<polygon fill="midnightblue" stroke="midnightblue" points="246.848,-46.1218 255.836,-40.5119 245.311,-39.2925 246.848,-46.1218"/>
</g>
<!-- Node4 -->
<g id="node4" class="node"><title>Node4</title>
<g id="a_node4"><a xlink:href="../../d8/df2/classgui_1_1mainclasses_1_1workspace_1_1_workspace.html#a1c6c6c0599097fbf5e9a660ec0ac3702" target="_top" xlink:title="gui.mainclasses.workspace.\lWorkspace.parseCommandString">
<polygon fill="white" stroke="black" points="484,-59 484,-89 660,-89 660,-59 484,-59"/>
<text text-anchor="start" x="492" y="-77" font-family="Helvetica,sans-Serif" font-size="10.00">gui.mainclasses.workspace.</text>
<text text-anchor="middle" x="572" y="-66" font-family="Helvetica,sans-Serif" font-size="10.00">Workspace.parseCommandString</text>
</a>
</g>
</g>
<!-- Node3&#45;&gt;Node4 -->
<g id="edge3" class="edge"><title>Node3&#45;&gt;Node4</title>
<path fill="none" stroke="midnightblue" d="M448.312,-74C456.766,-74 465.311,-74 473.749,-74"/>
<polygon fill="midnightblue" stroke="midnightblue" points="473.974,-77.5001 483.974,-74 473.974,-70.5001 473.974,-77.5001"/>
</g>
<!-- Node5 -->
<g id="node5" class="node"><title>Node5</title>
<g id="a_node5"><a xlink:href="../../da/d55/interface_control_1_1_slogo_graphics.html#a05813100446932183f367405e6c73d67" target="_top" xlink:title="Control.SlogoGraphics.parse\lCommandString">
<polygon fill="white" stroke="black" points="696.5,-59 696.5,-89 849.5,-89 849.5,-59 696.5,-59"/>
<text text-anchor="start" x="704.5" y="-77" font-family="Helvetica,sans-Serif" font-size="10.00">Control.SlogoGraphics.parse</text>
<text text-anchor="middle" x="773" y="-66" font-family="Helvetica,sans-Serif" font-size="10.00">CommandString</text>
</a>
</g>
</g>
<!-- Node4&#45;&gt;Node5 -->
<g id="edge4" class="edge"><title>Node4&#45;&gt;Node5</title>
<path fill="none" stroke="midnightblue" d="M660.284,-74C668.916,-74 677.673,-74 686.288,-74"/>
<polygon fill="midnightblue" stroke="midnightblue" points="686.322,-77.5001 696.322,-74 686.322,-70.5001 686.322,-77.5001"/>
</g>
</g>
</svg>
