<?xml version="1.0" encoding="UTF-8" standalone="no"?>
<!DOCTYPE svg PUBLIC "-//W3C//DTD SVG 1.1//EN"
 "http://www.w3.org/Graphics/SVG/1.1/DTD/svg11.dtd">
<!-- Generated by graphviz version 2.36.0 (20140111.2315)
 -->
<!-- Title: /tmp/duke&#45;compsci308&#45;fall2014/slogo_team10/repository/src/XML Pages: 1 -->
<svg width="376pt" height="111pt"
 viewBox="0.00 0.00 376.00 111.00" xmlns="http://www.w3.org/2000/svg" xmlns:xlink="http://www.w3.org/1999/xlink">
<g id="graph0" class="graph" transform="scale(1 1) rotate(0) translate(4 107)">
<title>/tmp/duke&#45;compsci308&#45;fall2014/slogo_team10/repository/src/XML</title>
<polygon fill="white" stroke="none" points="-4,4 -4,-107 372,-107 372,4 -4,4"/>
<g id="clust1" class="cluster"><title>clusterdir_a35500699cfd5288bf11ce3fba33939b</title>
<g id="a_clust1"><a xlink:href="dir_a35500699cfd5288bf11ce3fba33939b.html" target="_top" xlink:title="src">
<polygon fill="#ddddee" stroke="black" points="8,-8 8,-95 360,-95 360,-8 8,-8"/>
<text text-anchor="middle" x="184" y="-83" font-family="Helvetica,sans-Serif" font-size="10.00">src</text>
</a>
</g>
</g>
<g id="clust2" class="cluster"><title>clusterdir_6c877f7b377e88208c88a8805740a571</title>
<g id="a_clust2"><a xlink:href="dir_6c877f7b377e88208c88a8805740a571.html" target="_top">
<polygon fill="#eeeeff" stroke="black" points="16,-16 16,-68 352,-68 352,-16 16,-16"/>
</a>
</g>
</g>
<!-- dir_6c877f7b377e88208c88a8805740a571 -->
<g id="node1" class="node"><title>dir_6c877f7b377e88208c88a8805740a571</title>
<text text-anchor="middle" x="317" y="-39.5" font-family="Helvetica,sans-Serif" font-size="10.00">XML</text>
</g>
<!-- dir_5160968e49bfd6c47dece4832f715165 -->
<g id="node2" class="node"><title>dir_5160968e49bfd6c47dece4832f715165</title>
<g id="a_node2"><a xlink:href="dir_5160968e49bfd6c47dece4832f715165.html" target="_top" xlink:title="readers">
<polygon fill="white" stroke="black" points="272,-60 218,-60 218,-24 272,-24 272,-60"/>
<text text-anchor="middle" x="245" y="-39.5" font-family="Helvetica,sans-Serif" font-size="10.00">readers</text>
</a>
</g>
</g>
<!-- dir_da6baa22d57a21b05048fe1970fe33d5 -->
<g id="node3" class="node"><title>dir_da6baa22d57a21b05048fe1970fe33d5</title>
<g id="a_node3"><a xlink:href="dir_da6baa22d57a21b05048fe1970fe33d5.html" target="_top" xlink:title="workspaceparams">
<polygon fill="white" stroke="black" points="200,-60 96,-60 96,-24 200,-24 200,-60"/>
<text text-anchor="middle" x="148" y="-39.5" font-family="Helvetica,sans-Serif" font-size="10.00">workspaceparams</text>
</a>
</g>
</g>
<!-- dir_540fd5d2070d0d7662a6be6de9634bc9 -->
<g id="node4" class="node"><title>dir_540fd5d2070d0d7662a6be6de9634bc9</title>
<g id="a_node4"><a xlink:href="dir_540fd5d2070d0d7662a6be6de9634bc9.html" target="_top" xlink:title="writers">
<polygon fill="white" stroke="black" points="78,-60 24,-60 24,-24 78,-24 78,-60"/>
<text text-anchor="middle" x="51" y="-39.5" font-family="Helvetica,sans-Serif" font-size="10.00">writers</text>
</a>
</g>
</g>
</g>
</svg>
