<?xml version="1.0" encoding="UTF-8" standalone="no"?>
<!DOCTYPE svg PUBLIC "-//W3C//DTD SVG 1.1//EN"
 "http://www.w3.org/Graphics/SVG/1.1/DTD/svg11.dtd">
<!-- Generated by graphviz version 2.36.0 (20140111.2315)
 -->
<!-- Title: /tmp/duke&#45;compsci308&#45;fall2014/slogo_team10/repository/src/tests Pages: 1 -->
<svg width="332pt" height="111pt"
 viewBox="0.00 0.00 332.00 111.00" xmlns="http://www.w3.org/2000/svg" xmlns:xlink="http://www.w3.org/1999/xlink">
<g id="graph0" class="graph" transform="scale(1 1) rotate(0) translate(4 107)">
<title>/tmp/duke&#45;compsci308&#45;fall2014/slogo_team10/repository/src/tests</title>
<polygon fill="white" stroke="none" points="-4,4 -4,-107 328,-107 328,4 -4,4"/>
<g id="clust1" class="cluster"><title>clusterdir_a35500699cfd5288bf11ce3fba33939b</title>
<g id="a_clust1"><a xlink:href="dir_a35500699cfd5288bf11ce3fba33939b.html" target="_top" xlink:title="src">
<polygon fill="#ddddee" stroke="black" points="8,-8 8,-95 316,-95 316,-8 8,-8"/>
<text text-anchor="middle" x="162" y="-83" font-family="Helvetica,sans-Serif" font-size="10.00">src</text>
</a>
</g>
</g>
<g id="clust2" class="cluster"><title>clusterdir_48a176e7d7d431c0c48580a5c982dfc1</title>
<g id="a_clust2"><a xlink:href="dir_48a176e7d7d431c0c48580a5c982dfc1.html" target="_top">
<polygon fill="#eeeeff" stroke="black" points="16,-16 16,-68 308,-68 308,-16 16,-16"/>
</a>
</g>
</g>
<!-- dir_48a176e7d7d431c0c48580a5c982dfc1 -->
<g id="node1" class="node"><title>dir_48a176e7d7d431c0c48580a5c982dfc1</title>
<text text-anchor="middle" x="273" y="-39.5" font-family="Helvetica,sans-Serif" font-size="10.00">tests</text>
</g>
<!-- dir_58639e56e200170bf3d23b0695beccb7 -->
<g id="node2" class="node"><title>dir_58639e56e200170bf3d23b0695beccb7</title>
<g id="a_node2"><a xlink:href="dir_58639e56e200170bf3d23b0695beccb7.html" target="_top" xlink:title="commandTests">
<polygon fill="white" stroke="red" points="227.25,-60 138.75,-60 138.75,-24 227.25,-24 227.25,-60"/>
<text text-anchor="middle" x="183" y="-39.5" font-family="Helvetica,sans-Serif" font-size="10.00">commandTests</text>
</a>
</g>
</g>
<!-- dir_aafd182450387c462f028b79802d2c43 -->
<g id="node3" class="node"><title>dir_aafd182450387c462f028b79802d2c43</title>
<g id="a_node3"><a xlink:href="dir_aafd182450387c462f028b79802d2c43.html" target="_top" xlink:title="screenWrapTests">
<polygon fill="white" stroke="black" points="120,-60 24,-60 24,-24 120,-24 120,-60"/>
<text text-anchor="middle" x="72" y="-39.5" font-family="Helvetica,sans-Serif" font-size="10.00">screenWrapTests</text>
</a>
</g>
</g>
</g>
</svg>
