<?xml version="1.0" encoding="UTF-8" standalone="no"?>
<!DOCTYPE svg PUBLIC "-//W3C//DTD SVG 1.1//EN"
 "http://www.w3.org/Graphics/SVG/1.1/DTD/svg11.dtd">
<!-- Generated by graphviz version 2.36.0 (20140111.2315)
 -->
<!-- Title: /tmp/duke&#45;compsci308&#45;fall2014/slogo_team10/repository/src/gui Pages: 1 -->
<svg width="916pt" height="111pt"
 viewBox="0.00 0.00 916.00 111.00" xmlns="http://www.w3.org/2000/svg" xmlns:xlink="http://www.w3.org/1999/xlink">
<g id="graph0" class="graph" transform="scale(1 1) rotate(0) translate(4 107)">
<title>/tmp/duke&#45;compsci308&#45;fall2014/slogo_team10/repository/src/gui</title>
<polygon fill="white" stroke="none" points="-4,4 -4,-107 912,-107 912,4 -4,4"/>
<g id="clust1" class="cluster"><title>clusterdir_a35500699cfd5288bf11ce3fba33939b</title>
<g id="a_clust1"><a xlink:href="dir_a35500699cfd5288bf11ce3fba33939b.html" target="_top" xlink:title="src">
<polygon fill="#ddddee" stroke="black" points="8,-8 8,-95 900,-95 900,-8 8,-8"/>
<text text-anchor="middle" x="454" y="-83" font-family="Helvetica,sans-Serif" font-size="10.00">src</text>
</a>
</g>
</g>
<g id="clust2" class="cluster"><title>clusterdir_be6fa2b1ed9bbaf7e279e69ad742e246</title>
<g id="a_clust2"><a xlink:href="dir_be6fa2b1ed9bbaf7e279e69ad742e246.html" target="_top">
<polygon fill="#eeeeff" stroke="black" points="16,-16 16,-68 892,-68 892,-16 16,-16"/>
</a>
</g>
</g>
<!-- dir_be6fa2b1ed9bbaf7e279e69ad742e246 -->
<g id="node1" class="node"><title>dir_be6fa2b1ed9bbaf7e279e69ad742e246</title>
<text text-anchor="middle" x="857" y="-39.5" font-family="Helvetica,sans-Serif" font-size="10.00">gui</text>
</g>
<!-- dir_19ef29dfd50f05b8907ad6019b736081 -->
<g id="node2" class="node"><title>dir_19ef29dfd50f05b8907ad6019b736081</title>
<g id="a_node2"><a xlink:href="dir_19ef29dfd50f05b8907ad6019b736081.html" target="_top" xlink:title="buttonfeatures">
<polygon fill="white" stroke="black" points="811.5,-60 724.5,-60 724.5,-24 811.5,-24 811.5,-60"/>
<text text-anchor="middle" x="768" y="-39.5" font-family="Helvetica,sans-Serif" font-size="10.00">buttonfeatures</text>
</a>
</g>
</g>
<!-- dir_23e7a6530c4ede1f2ecb60de39d51139 -->
<g id="node3" class="node"><title>dir_23e7a6530c4ede1f2ecb60de39d51139</title>
<g id="a_node3"><a xlink:href="dir_23e7a6530c4ede1f2ecb60de39d51139.html" target="_top" xlink:title="componentdrawers">
<polygon fill="white" stroke="red" points="705.25,-60 596.75,-60 596.75,-24 705.25,-24 705.25,-60"/>
<text text-anchor="middle" x="651" y="-39.5" font-family="Helvetica,sans-Serif" font-size="10.00">componentdrawers</text>
</a>
</g>
</g>
<!-- dir_d64521f8304174160ee79504603e2520 -->
<g id="node4" class="node"><title>dir_d64521f8304174160ee79504603e2520</title>
<g id="a_node4"><a xlink:href="dir_d64521f8304174160ee79504603e2520.html" target="_top" xlink:title="factories">
<polygon fill="white" stroke="red" points="577.5,-60 520.5,-60 520.5,-24 577.5,-24 577.5,-60"/>
<text text-anchor="middle" x="549" y="-39.5" font-family="Helvetica,sans-Serif" font-size="10.00">factories</text>
</a>
</g>
</g>
<!-- dir_b445e43d1f105f09da8ccb8d08a5fcb3 -->
<g id="node5" class="node"><title>dir_b445e43d1f105f09da8ccb8d08a5fcb3</title>
<g id="a_node5"><a xlink:href="dir_b445e43d1f105f09da8ccb8d08a5fcb3.html" target="_top" xlink:title="mainclasses">
<polygon fill="white" stroke="red" points="502,-60 426,-60 426,-24 502,-24 502,-60"/>
<text text-anchor="middle" x="464" y="-39.5" font-family="Helvetica,sans-Serif" font-size="10.00">mainclasses</text>
</a>
</g>
</g>
<!-- dir_c286d5b32ed08f81c15a928662200375 -->
<g id="node6" class="node"><title>dir_c286d5b32ed08f81c15a928662200375</title>
<g id="a_node6"><a xlink:href="dir_c286d5b32ed08f81c15a928662200375.html" target="_top" xlink:title="menus">
<polygon fill="white" stroke="black" points="408,-60 354,-60 354,-24 408,-24 408,-60"/>
<text text-anchor="middle" x="381" y="-39.5" font-family="Helvetica,sans-Serif" font-size="10.00">menus</text>
</a>
</g>
</g>
<!-- dir_ea7fea26c6d8cfc34edefd7290d3ced6 -->
<g id="node7" class="node"><title>dir_ea7fea26c6d8cfc34edefd7290d3ced6</title>
<g id="a_node7"><a xlink:href="dir_ea7fea26c6d8cfc34edefd7290d3ced6.html" target="_top" xlink:title="nonbuttonfeatures">
<polygon fill="white" stroke="red" points="335.5,-60 230.5,-60 230.5,-24 335.5,-24 335.5,-60"/>
<text text-anchor="middle" x="283" y="-39.5" font-family="Helvetica,sans-Serif" font-size="10.00">nonbuttonfeatures</text>
</a>
</g>
</g>
<!-- dir_19870000a81551b866e734725d561bb8 -->
<g id="node8" class="node"><title>dir_19870000a81551b866e734725d561bb8</title>
<g id="a_node8"><a xlink:href="dir_19870000a81551b866e734725d561bb8.html" target="_top" xlink:title="turtlescreenwrap">
<polygon fill="white" stroke="black" points="212.25,-60 115.75,-60 115.75,-24 212.25,-24 212.25,-60"/>
<text text-anchor="middle" x="164" y="-39.5" font-family="Helvetica,sans-Serif" font-size="10.00">turtlescreenwrap</text>
</a>
</g>
</g>
<!-- dir_a9bfbcd2e65d975585c7bcdfb93a6e1f -->
<g id="node9" class="node"><title>dir_a9bfbcd2e65d975585c7bcdfb93a6e1f</title>
<g id="a_node9"><a xlink:href="dir_a9bfbcd2e65d975585c7bcdfb93a6e1f.html" target="_top" xlink:title="variableslist">
<polygon fill="white" stroke="black" points="97.25,-60 24.75,-60 24.75,-24 97.25,-24 97.25,-60"/>
<text text-anchor="middle" x="61" y="-39.5" font-family="Helvetica,sans-Serif" font-size="10.00">variableslist</text>
</a>
</g>
</g>
</g>
</svg>
