<?xml version="1.0" encoding="UTF-8" standalone="no"?>
<!DOCTYPE svg PUBLIC "-//W3C//DTD SVG 1.1//EN"
 "http://www.w3.org/Graphics/SVG/1.1/DTD/svg11.dtd">
<!-- Generated by graphviz version 2.36.0 (20140111.2315)
 -->
<!-- Title: /tmp/duke&#45;compsci308&#45;fall2014/slogo_team10/repository/src Pages: 1 -->
<svg width="817pt" height="111pt"
 viewBox="0.00 0.00 817.00 111.00" xmlns="http://www.w3.org/2000/svg" xmlns:xlink="http://www.w3.org/1999/xlink">
<g id="graph0" class="graph" transform="scale(1 1) rotate(0) translate(4 107)">
<title>/tmp/duke&#45;compsci308&#45;fall2014/slogo_team10/repository/src</title>
<polygon fill="white" stroke="none" points="-4,4 -4,-107 813,-107 813,4 -4,4"/>
<g id="clust1" class="cluster"><title>clusterdir_e45c9ef6d1b479c61da184077a8b848c</title>
<g id="a_clust1"><a xlink:href="dir_e45c9ef6d1b479c61da184077a8b848c.html" target="_top" xlink:title="repository">
<polygon fill="#ddddee" stroke="black" points="8,-8 8,-95 801,-95 801,-8 8,-8"/>
<text text-anchor="middle" x="404.5" y="-83" font-family="Helvetica,sans-Serif" font-size="10.00">repository</text>
</a>
</g>
</g>
<g id="clust2" class="cluster"><title>clusterdir_a35500699cfd5288bf11ce3fba33939b</title>
<g id="a_clust2"><a xlink:href="dir_a35500699cfd5288bf11ce3fba33939b.html" target="_top">
<polygon fill="#eeeeff" stroke="black" points="16,-16 16,-68 793,-68 793,-16 16,-16"/>
</a>
</g>
</g>
<!-- dir_a35500699cfd5288bf11ce3fba33939b -->
<g id="node1" class="node"><title>dir_a35500699cfd5288bf11ce3fba33939b</title>
<text text-anchor="middle" x="758" y="-39.5" font-family="Helvetica,sans-Serif" font-size="10.00">src</text>
</g>
<!-- dir_e4c563b9fa97c8307daa2ed46d5ddd66 -->
<g id="node2" class="node"><title>dir_e4c563b9fa97c8307daa2ed46d5ddd66</title>
<g id="a_node2"><a xlink:href="dir_e4c563b9fa97c8307daa2ed46d5ddd66.html" target="_top" xlink:title="commandParsing">
<polygon fill="white" stroke="red" points="713,-60 613,-60 613,-24 713,-24 713,-60"/>
<text text-anchor="middle" x="663" y="-39.5" font-family="Helvetica,sans-Serif" font-size="10.00">commandParsing</text>
</a>
</g>
</g>
<!-- dir_300dd3449200d5d3ba7a9fa74c72e7d0 -->
<g id="node3" class="node"><title>dir_300dd3449200d5d3ba7a9fa74c72e7d0</title>
<g id="a_node3"><a xlink:href="dir_300dd3449200d5d3ba7a9fa74c72e7d0.html" target="_top" xlink:title="Control">
<polygon fill="white" stroke="black" points="595,-60 541,-60 541,-24 595,-24 595,-60"/>
<text text-anchor="middle" x="568" y="-39.5" font-family="Helvetica,sans-Serif" font-size="10.00">Control</text>
</a>
</g>
</g>
<!-- dir_6c03d3417b92838cc4b92fe112a0562c -->
<g id="node4" class="node"><title>dir_6c03d3417b92838cc4b92fe112a0562c</title>
<g id="a_node4"><a xlink:href="dir_6c03d3417b92838cc4b92fe112a0562c.html" target="_top" xlink:title="drawableobject">
<polygon fill="white" stroke="black" points="522.25,-60 433.75,-60 433.75,-24 522.25,-24 522.25,-60"/>
<text text-anchor="middle" x="478" y="-39.5" font-family="Helvetica,sans-Serif" font-size="10.00">drawableobject</text>
</a>
</g>
</g>
<!-- dir_be6fa2b1ed9bbaf7e279e69ad742e246 -->
<g id="node5" class="node"><title>dir_be6fa2b1ed9bbaf7e279e69ad742e246</title>
<g id="a_node5"><a xlink:href="dir_be6fa2b1ed9bbaf7e279e69ad742e246.html" target="_top" xlink:title="gui">
<polygon fill="white" stroke="red" points="415,-60 361,-60 361,-24 415,-24 415,-60"/>
<text text-anchor="middle" x="388" y="-39.5" font-family="Helvetica,sans-Serif" font-size="10.00">gui</text>
</a>
</g>
</g>
<!-- dir_48a176e7d7d431c0c48580a5c982dfc1 -->
<g id="node6" class="node"><title>dir_48a176e7d7d431c0c48580a5c982dfc1</title>
<g id="a_node6"><a xlink:href="dir_48a176e7d7d431c0c48580a5c982dfc1.html" target="_top" xlink:title="tests">
<polygon fill="white" stroke="red" points="343,-60 289,-60 289,-24 343,-24 343,-60"/>
<text text-anchor="middle" x="316" y="-39.5" font-family="Helvetica,sans-Serif" font-size="10.00">tests</text>
</a>
</g>
</g>
<!-- dir_2648621b95e6e40b3e4c9bad5d454c45 -->
<g id="node7" class="node"><title>dir_2648621b95e6e40b3e4c9bad5d454c45</title>
<g id="a_node7"><a xlink:href="dir_2648621b95e6e40b3e4c9bad5d454c45.html" target="_top" xlink:title="translator">
<polygon fill="white" stroke="black" points="270.25,-60 207.75,-60 207.75,-24 270.25,-24 270.25,-60"/>
<text text-anchor="middle" x="239" y="-39.5" font-family="Helvetica,sans-Serif" font-size="10.00">translator</text>
</a>
</g>
</g>
<!-- dir_aa5b9ae11a6c1b4dfa610a909721752b -->
<g id="node8" class="node"><title>dir_aa5b9ae11a6c1b4dfa610a909721752b</title>
<g id="a_node8"><a xlink:href="dir_aa5b9ae11a6c1b4dfa610a909721752b.html" target="_top" xlink:title="workspaceState">
<polygon fill="white" stroke="black" points="189.25,-60 96.75,-60 96.75,-24 189.25,-24 189.25,-60"/>
<text text-anchor="middle" x="143" y="-39.5" font-family="Helvetica,sans-Serif" font-size="10.00">workspaceState</text>
</a>
</g>
</g>
<!-- dir_6c877f7b377e88208c88a8805740a571 -->
<g id="node9" class="node"><title>dir_6c877f7b377e88208c88a8805740a571</title>
<g id="a_node9"><a xlink:href="dir_6c877f7b377e88208c88a8805740a571.html" target="_top" xlink:title="XML">
<polygon fill="white" stroke="red" points="78,-60 24,-60 24,-24 78,-24 78,-60"/>
<text text-anchor="middle" x="51" y="-39.5" font-family="Helvetica,sans-Serif" font-size="10.00">XML</text>
</a>
</g>
</g>
</g>
</svg>
