<?xml version="1.0" encoding="UTF-8" standalone="no"?>
<!DOCTYPE svg PUBLIC "-//W3C//DTD SVG 1.1//EN"
 "http://www.w3.org/Graphics/SVG/1.1/DTD/svg11.dtd">
<!-- Generated by graphviz version 2.36.0 (20140111.2315)
 -->
<!-- Title: Graphical Class Hierarchy Pages: 1 -->
<svg width="250pt" height="87pt"
 viewBox="0.00 0.00 250.00 87.00" xmlns="http://www.w3.org/2000/svg" xmlns:xlink="http://www.w3.org/1999/xlink">
<g id="graph0" class="graph" transform="scale(1 1) rotate(0) translate(4 83)">
<title>Graphical Class Hierarchy</title>
<polygon fill="white" stroke="none" points="-4,4 -4,-83 246,-83 246,4 -4,4"/>
<!-- Node1 -->
<g id="node1" class="node"><title>Node1</title>
<polygon fill="white" stroke="#bfbfbf" points="0,-29.5 0,-48.5 68,-48.5 68,-29.5 0,-29.5"/>
<text text-anchor="middle" x="34" y="-36.5" font-family="Helvetica,sans-Serif" font-size="10.00">ImageView</text>
</g>
<!-- Node2 -->
<g id="node2" class="node"><title>Node2</title>
<g id="a_node2"><a xlink:href="d6/d8e/classgui_1_1factories_1_1turtlefactory_1_1_null_node.html" target="_top" xlink:title="gui.factories.turtlefactory.\lNullNode">
<polygon fill="white" stroke="black" points="104,-49 104,-79 242,-79 242,-49 104,-49"/>
<text text-anchor="start" x="112" y="-67" font-family="Helvetica,sans-Serif" font-size="10.00">gui.factories.turtlefactory.</text>
<text text-anchor="middle" x="173" y="-56" font-family="Helvetica,sans-Serif" font-size="10.00">NullNode</text>
</a>
</g>
</g>
<!-- Node1&#45;&gt;Node2 -->
<g id="edge1" class="edge"><title>Node1&#45;&gt;Node2</title>
<path fill="none" stroke="midnightblue" d="M78.2138,-46.8857C86.4198,-48.3832 95.189,-49.9834 103.948,-51.5818"/>
<polygon fill="midnightblue" stroke="midnightblue" points="78.6298,-43.4039 68.1639,-45.0518 77.3731,-50.2902 78.6298,-43.4039"/>
</g>
<!-- Node3 -->
<g id="node3" class="node"><title>Node3</title>
<g id="a_node3"><a xlink:href="d1/d95/classgui_1_1factories_1_1turtlefactory_1_1_turtle_node.html" target="_top" xlink:title="gui.factories.turtlefactory.\lTurtleNode">
<polygon fill="white" stroke="black" points="104,-0 104,-30 242,-30 242,-0 104,-0"/>
<text text-anchor="start" x="112" y="-18" font-family="Helvetica,sans-Serif" font-size="10.00">gui.factories.turtlefactory.</text>
<text text-anchor="middle" x="173" y="-7" font-family="Helvetica,sans-Serif" font-size="10.00">TurtleNode</text>
</a>
</g>
</g>
<!-- Node1&#45;&gt;Node3 -->
<g id="edge2" class="edge"><title>Node1&#45;&gt;Node3</title>
<path fill="none" stroke="midnightblue" d="M78.2138,-31.4297C86.4198,-29.9922 95.189,-28.4559 103.948,-26.9214"/>
<polygon fill="midnightblue" stroke="midnightblue" points="77.4099,-28.0171 68.1639,-33.1903 78.6178,-34.9121 77.4099,-28.0171"/>
</g>
</g>
</svg>
