<?xml version="1.0" encoding="UTF-8" standalone="no"?>
<!DOCTYPE svg PUBLIC "-//W3C//DTD SVG 1.1//EN"
 "http://www.w3.org/Graphics/SVG/1.1/DTD/svg11.dtd">
<!-- Generated by graphviz version 2.36.0 (20140111.2315)
 -->
<!-- Title: Graphical Class Hierarchy Pages: 1 -->
<svg width="344pt" height="185pt"
 viewBox="0.00 0.00 344.00 185.00" xmlns="http://www.w3.org/2000/svg" xmlns:xlink="http://www.w3.org/1999/xlink">
<g id="graph0" class="graph" transform="scale(1 1) rotate(0) translate(4 181)">
<title>Graphical Class Hierarchy</title>
<polygon fill="white" stroke="none" points="-4,4 -4,-181 340,-181 340,4 -4,4"/>
<!-- Node1 -->
<g id="node1" class="node"><title>Node1</title>
<polygon fill="white" stroke="#bfbfbf" points="0,-78.5 0,-97.5 62,-97.5 62,-78.5 0,-78.5"/>
<text text-anchor="middle" x="31" y="-85.5" font-family="Helvetica,sans-Serif" font-size="10.00">TableView</text>
</g>
<!-- Node2 -->
<g id="node2" class="node"><title>Node2</title>
<g id="a_node2"><a xlink:href="dd/d14/classgui_1_1nonbuttonfeatures_1_1tableviews_1_1colorindex_1_1_color_index_feature.html" target="_top" xlink:title="gui.nonbuttonfeatures.tableviews.colorindex.\lColorIndexFeature">
<polygon fill="white" stroke="black" points="102,-147 102,-177 332,-177 332,-147 102,-147"/>
<text text-anchor="start" x="110" y="-165" font-family="Helvetica,sans-Serif" font-size="10.00">gui.nonbuttonfeatures.tableviews.colorindex.</text>
<text text-anchor="middle" x="217" y="-154" font-family="Helvetica,sans-Serif" font-size="10.00">ColorIndexFeature</text>
</a>
</g>
</g>
<!-- Node1&#45;&gt;Node2 -->
<g id="edge1" class="edge"><title>Node1&#45;&gt;Node2</title>
<path fill="none" stroke="midnightblue" d="M50.1098,-104.828C62.6577,-115.592 80.2427,-128.991 98,-137 106.59,-140.874 115.806,-144.159 125.163,-146.942"/>
<polygon fill="midnightblue" stroke="midnightblue" points="52.0927,-101.908 42.2873,-97.8952 47.4499,-107.147 52.0927,-101.908"/>
</g>
<!-- Node3 -->
<g id="node3" class="node"><title>Node3</title>
<g id="a_node3"><a xlink:href="d8/d08/classgui_1_1nonbuttonfeatures_1_1tableviews_1_1imageindex_1_1_image_index_feature.html" target="_top" xlink:title="gui.nonbuttonfeatures.tableviews.imageindex.\lImageIndexFeature">
<polygon fill="white" stroke="black" points="98.5,-98 98.5,-128 335.5,-128 335.5,-98 98.5,-98"/>
<text text-anchor="start" x="106.5" y="-116" font-family="Helvetica,sans-Serif" font-size="10.00">gui.nonbuttonfeatures.tableviews.imageindex.</text>
<text text-anchor="middle" x="217" y="-105" font-family="Helvetica,sans-Serif" font-size="10.00">ImageIndexFeature</text>
</a>
</g>
</g>
<!-- Node1&#45;&gt;Node3 -->
<g id="edge2" class="edge"><title>Node1&#45;&gt;Node3</title>
<path fill="none" stroke="midnightblue" d="M72.362,-93.484C82.3894,-94.8464 93.6271,-96.3732 105.283,-97.957"/>
<polygon fill="midnightblue" stroke="midnightblue" points="72.7641,-90.0065 62.3839,-92.1282 71.8216,-96.9428 72.7641,-90.0065"/>
</g>
<!-- Node4 -->
<g id="node4" class="node"><title>Node4</title>
<g id="a_node4"><a xlink:href="de/d51/classgui_1_1nonbuttonfeatures_1_1tableviews_1_1_user_defined_commands_feature.html" target="_top" xlink:title="gui.nonbuttonfeatures.tableviews.\lUserDefinedCommandsFeature">
<polygon fill="white" stroke="black" points="127.5,-49 127.5,-79 306.5,-79 306.5,-49 127.5,-49"/>
<text text-anchor="start" x="135.5" y="-67" font-family="Helvetica,sans-Serif" font-size="10.00">gui.nonbuttonfeatures.tableviews.</text>
<text text-anchor="middle" x="217" y="-56" font-family="Helvetica,sans-Serif" font-size="10.00">UserDefinedCommandsFeature</text>
</a>
</g>
</g>
<!-- Node1&#45;&gt;Node4 -->
<g id="edge3" class="edge"><title>Node1&#45;&gt;Node4</title>
<path fill="none" stroke="midnightblue" d="M72.5337,-82.713C88.7183,-80.602 108.036,-78.0823 127.171,-75.5864"/>
<polygon fill="midnightblue" stroke="midnightblue" points="71.8471,-79.2728 62.3839,-84.0369 72.7526,-86.214 71.8471,-79.2728"/>
</g>
<!-- Node5 -->
<g id="node5" class="node"><title>Node5</title>
<g id="a_node5"><a xlink:href="dc/da5/classgui_1_1nonbuttonfeatures_1_1tableviews_1_1variables_1_1_workspace_variables_feature.html" target="_top" xlink:title="gui.nonbuttonfeatures.tableviews.variables.\lWorkspaceVariablesFeature">
<polygon fill="white" stroke="black" points="105,-0 105,-30 329,-30 329,-0 105,-0"/>
<text text-anchor="start" x="113" y="-18" font-family="Helvetica,sans-Serif" font-size="10.00">gui.nonbuttonfeatures.tableviews.variables.</text>
<text text-anchor="middle" x="217" y="-7" font-family="Helvetica,sans-Serif" font-size="10.00">WorkspaceVariablesFeature</text>
</a>
</g>
</g>
<!-- Node1&#45;&gt;Node5 -->
<g id="edge4" class="edge"><title>Node1&#45;&gt;Node5</title>
<path fill="none" stroke="midnightblue" d="M50.168,-71.5281C62.7408,-60.9889 80.3317,-47.8645 98,-40 106.705,-36.1254 116.043,-32.8383 125.514,-30.0524"/>
<polygon fill="midnightblue" stroke="midnightblue" points="47.597,-69.1244 42.3261,-78.3151 52.178,-74.4173 47.597,-69.1244"/>
</g>
</g>
</svg>
