<?xml version="1.0" encoding="UTF-8" standalone="no"?>
<!DOCTYPE svg PUBLIC "-//W3C//DTD SVG 1.1//EN"
 "http://www.w3.org/Graphics/SVG/1.1/DTD/svg11.dtd">
<!-- Generated by graphviz version 2.36.0 (20140111.2315)
 -->
<!-- Title: Graphical Class Hierarchy Pages: 1 -->
<svg width="380pt" height="349pt"
 viewBox="0.00 0.00 380.00 349.00" xmlns="http://www.w3.org/2000/svg" xmlns:xlink="http://www.w3.org/1999/xlink">
<g id="graph0" class="graph" transform="scale(1 1) rotate(0) translate(4 345)">
<title>Graphical Class Hierarchy</title>
<polygon fill="white" stroke="none" points="-4,4 -4,-345 376,-345 376,4 -4,4"/>
<!-- Node1 -->
<g id="node1" class="node"><title>Node1</title>
<g id="a_node1"><a xlink:href="d1/d60/classgui_1_1factories_1_1_object_factory.html" target="_top" xlink:title="gui.factories.ObjectFactory">
<polygon fill="white" stroke="black" points="0.5,-174.5 0.5,-193.5 143.5,-193.5 143.5,-174.5 0.5,-174.5"/>
<text text-anchor="middle" x="72" y="-181.5" font-family="Helvetica,sans-Serif" font-size="10.00">gui.factories.ObjectFactory</text>
</a>
</g>
</g>
<!-- Node2 -->
<g id="node2" class="node"><title>Node2</title>
<g id="a_node2"><a xlink:href="d2/d09/classgui_1_1factories_1_1_color_palette_entry_factory.html" target="_top" xlink:title="gui.factories.ColorPalette\lEntryFactory">
<polygon fill="white" stroke="black" points="208,-311 208,-341 344,-341 344,-311 208,-311"/>
<text text-anchor="start" x="216" y="-329" font-family="Helvetica,sans-Serif" font-size="10.00">gui.factories.ColorPalette</text>
<text text-anchor="middle" x="276" y="-318" font-family="Helvetica,sans-Serif" font-size="10.00">EntryFactory</text>
</a>
</g>
</g>
<!-- Node1&#45;&gt;Node2 -->
<g id="edge1" class="edge"><title>Node1&#45;&gt;Node2</title>
<path fill="none" stroke="midnightblue" d="M84.5077,-202.077C101.961,-227.989 137.619,-275.384 180,-301 188.465,-306.117 197.971,-310.198 207.612,-313.451"/>
<polygon fill="midnightblue" stroke="midnightblue" points="87.3409,-200.015 78.9224,-193.582 81.4919,-203.861 87.3409,-200.015"/>
</g>
<!-- Node3 -->
<g id="node3" class="node"><title>Node3</title>
<g id="a_node3"><a xlink:href="df/d30/classgui_1_1factories_1_1_error_factory.html" target="_top" xlink:title="gui.factories.ErrorFactory">
<polygon fill="white" stroke="black" points="208,-272.5 208,-291.5 344,-291.5 344,-272.5 208,-272.5"/>
<text text-anchor="middle" x="276" y="-279.5" font-family="Helvetica,sans-Serif" font-size="10.00">gui.factories.ErrorFactory</text>
</a>
</g>
</g>
<!-- Node1&#45;&gt;Node3 -->
<g id="edge2" class="edge"><title>Node1&#45;&gt;Node3</title>
<path fill="none" stroke="midnightblue" d="M90.0224,-200.349C109.951,-218.532 144.739,-247.393 180,-263 188.767,-266.88 198.339,-269.975 207.924,-272.441"/>
<polygon fill="midnightblue" stroke="midnightblue" points="92.3735,-197.756 82.6691,-193.504 87.604,-202.88 92.3735,-197.756"/>
</g>
<!-- Node4 -->
<g id="node4" class="node"><title>Node4</title>
<g id="a_node4"><a xlink:href="d9/db1/classgui_1_1factories_1_1_line_factory.html" target="_top" xlink:title="gui.factories.LineFactory">
<polygon fill="white" stroke="black" points="210,-234.5 210,-253.5 342,-253.5 342,-234.5 210,-234.5"/>
<text text-anchor="middle" x="276" y="-241.5" font-family="Helvetica,sans-Serif" font-size="10.00">gui.factories.LineFactory</text>
</a>
</g>
</g>
<!-- Node1&#45;&gt;Node4 -->
<g id="edge3" class="edge"><title>Node1&#45;&gt;Node4</title>
<path fill="none" stroke="midnightblue" d="M104.174,-197.547C125.27,-206.314 153.935,-217.458 180,-225 192.522,-228.623 206.168,-231.794 219.111,-234.454"/>
<polygon fill="midnightblue" stroke="midnightblue" points="105.336,-194.238 94.7618,-193.584 102.62,-200.69 105.336,-194.238"/>
</g>
<!-- Node5 -->
<g id="node5" class="node"><title>Node5</title>
<g id="a_node5"><a xlink:href="d1/d1f/classgui_1_1factories_1_1_pane_factory.html" target="_top" xlink:title="gui.factories.PaneFactory">
<polygon fill="white" stroke="black" points="208,-196.5 208,-215.5 344,-215.5 344,-196.5 208,-196.5"/>
<text text-anchor="middle" x="276" y="-203.5" font-family="Helvetica,sans-Serif" font-size="10.00">gui.factories.PaneFactory</text>
</a>
</g>
</g>
<!-- Node1&#45;&gt;Node5 -->
<g id="edge4" class="edge"><title>Node1&#45;&gt;Node5</title>
<path fill="none" stroke="midnightblue" d="M153.783,-192.798C171.692,-194.749 190.486,-196.795 207.785,-198.68"/>
<polygon fill="midnightblue" stroke="midnightblue" points="153.97,-189.298 143.65,-191.695 153.212,-196.257 153.97,-189.298"/>
</g>
<!-- Node6 -->
<g id="node6" class="node"><title>Node6</title>
<g id="a_node6"><a xlink:href="d3/d7c/classgui_1_1factories_1_1_shape_palette_entry_factory.html" target="_top" xlink:title="gui.factories.ShapePalette\lEntryFactory">
<polygon fill="white" stroke="black" points="205,-147 205,-177 347,-177 347,-147 205,-147"/>
<text text-anchor="start" x="213" y="-165" font-family="Helvetica,sans-Serif" font-size="10.00">gui.factories.ShapePalette</text>
<text text-anchor="middle" x="276" y="-154" font-family="Helvetica,sans-Serif" font-size="10.00">EntryFactory</text>
</a>
</g>
</g>
<!-- Node1&#45;&gt;Node6 -->
<g id="edge5" class="edge"><title>Node1&#45;&gt;Node6</title>
<path fill="none" stroke="midnightblue" d="M153.992,-175.179C170.789,-173.35 188.356,-171.436 204.731,-169.653"/>
<polygon fill="midnightblue" stroke="midnightblue" points="153.212,-171.743 143.65,-176.305 153.97,-178.702 153.212,-171.743"/>
</g>
<!-- Node7 -->
<g id="node7" class="node"><title>Node7</title>
<g id="a_node7"><a xlink:href="df/d5f/classgui_1_1factories_1_1turtlefactory_1_1_turtle_factory.html" target="_top" xlink:title="gui.factories.turtlefactory.\lTurtleFactory">
<polygon fill="white" stroke="black" points="207,-98 207,-128 345,-128 345,-98 207,-98"/>
<text text-anchor="start" x="215" y="-116" font-family="Helvetica,sans-Serif" font-size="10.00">gui.factories.turtlefactory.</text>
<text text-anchor="middle" x="276" y="-105" font-family="Helvetica,sans-Serif" font-size="10.00">TurtleFactory</text>
</a>
</g>
</g>
<!-- Node1&#45;&gt;Node7 -->
<g id="edge6" class="edge"><title>Node1&#45;&gt;Node7</title>
<path fill="none" stroke="midnightblue" d="M101.899,-170.186C123.173,-160.36 152.976,-147.307 180,-138 190.401,-134.418 201.591,-131.054 212.513,-128.026"/>
<polygon fill="midnightblue" stroke="midnightblue" points="100.348,-167.047 92.7656,-174.448 103.308,-173.391 100.348,-167.047"/>
</g>
<!-- Node8 -->
<g id="node8" class="node"><title>Node8</title>
<g id="a_node8"><a xlink:href="da/d5b/classgui_1_1factories_1_1userdefinedcommands_1_1_user_defined_command_factory.html" target="_top" xlink:title="gui.factories.userdefinedcommands.\lUserDefinedCommandFactory">
<polygon fill="white" stroke="black" points="180.5,-49 180.5,-79 371.5,-79 371.5,-49 180.5,-49"/>
<text text-anchor="start" x="188.5" y="-67" font-family="Helvetica,sans-Serif" font-size="10.00">gui.factories.userdefinedcommands.</text>
<text text-anchor="middle" x="276" y="-56" font-family="Helvetica,sans-Serif" font-size="10.00">UserDefinedCommandFactory</text>
</a>
</g>
</g>
<!-- Node1&#45;&gt;Node8 -->
<g id="edge7" class="edge"><title>Node1&#45;&gt;Node8</title>
<path fill="none" stroke="midnightblue" d="M87.7851,-166.599C106.919,-145.185 142.302,-109.19 180,-89 187.216,-85.1351 195.067,-81.8407 203.059,-79.0386"/>
<polygon fill="midnightblue" stroke="midnightblue" points="85.0102,-164.455 81.0568,-174.284 90.2772,-169.066 85.0102,-164.455"/>
</g>
<!-- Node9 -->
<g id="node9" class="node"><title>Node9</title>
<g id="a_node9"><a xlink:href="df/d97/classgui_1_1factories_1_1_workspace_variable_factory.html" target="_top" xlink:title="gui.factories.WorkspaceVariable\lFactory">
<polygon fill="white" stroke="black" points="192.5,-0 192.5,-30 359.5,-30 359.5,-0 192.5,-0"/>
<text text-anchor="start" x="200.5" y="-18" font-family="Helvetica,sans-Serif" font-size="10.00">gui.factories.WorkspaceVariable</text>
<text text-anchor="middle" x="276" y="-7" font-family="Helvetica,sans-Serif" font-size="10.00">Factory</text>
</a>
</g>
</g>
<!-- Node1&#45;&gt;Node9 -->
<g id="edge8" class="edge"><title>Node1&#45;&gt;Node9</title>
<path fill="none" stroke="midnightblue" d="M81.8667,-164.855C97.2791,-133.747 132.015,-72.4451 180,-40 185.651,-36.1789 191.856,-32.9416 198.303,-30.1988"/>
<polygon fill="midnightblue" stroke="midnightblue" points="78.5706,-163.633 77.3894,-174.162 84.8786,-166.668 78.5706,-163.633"/>
</g>
</g>
</svg>
