<?xml version="1.0" encoding="UTF-8" standalone="no"?>
<!DOCTYPE svg PUBLIC "-//W3C//DTD SVG 1.1//EN"
 "http://www.w3.org/Graphics/SVG/1.1/DTD/svg11.dtd">
<!-- Generated by graphviz version 2.36.0 (20140111.2315)
 -->
<!-- Title: Graphical Class Hierarchy Pages: 1 -->
<svg width="268pt" height="136pt"
 viewBox="0.00 0.00 268.00 136.00" xmlns="http://www.w3.org/2000/svg" xmlns:xlink="http://www.w3.org/1999/xlink">
<g id="graph0" class="graph" transform="scale(1 1) rotate(0) translate(4 132)">
<title>Graphical Class Hierarchy</title>
<polygon fill="white" stroke="none" points="-4,4 -4,-132 264,-132 264,4 -4,4"/>
<!-- Node1 -->
<g id="node1" class="node"><title>Node1</title>
<polygon fill="white" stroke="#bfbfbf" points="0.5,-54.5 0.5,-73.5 55.5,-73.5 55.5,-54.5 0.5,-54.5"/>
<text text-anchor="middle" x="28" y="-61.5" font-family="Helvetica,sans-Serif" font-size="10.00">ListView</text>
</g>
<!-- Node2 -->
<g id="node2" class="node"><title>Node2</title>
<g id="a_node2"><a xlink:href="da/d12/classgui_1_1nonbuttonfeatures_1_1_error_display_feature.html" target="_top" xlink:title="gui.nonbuttonfeatures.Error\lDisplayFeature">
<polygon fill="white" stroke="black" points="101.5,-98 101.5,-128 250.5,-128 250.5,-98 101.5,-98"/>
<text text-anchor="start" x="109.5" y="-116" font-family="Helvetica,sans-Serif" font-size="10.00">gui.nonbuttonfeatures.Error</text>
<text text-anchor="middle" x="176" y="-105" font-family="Helvetica,sans-Serif" font-size="10.00">DisplayFeature</text>
</a>
</g>
</g>
<!-- Node1&#45;&gt;Node2 -->
<g id="edge1" class="edge"><title>Node1&#45;&gt;Node2</title>
<path fill="none" stroke="midnightblue" d="M62.3261,-77.2041C71.8597,-80.8428 82.297,-84.6952 92,-88 101.972,-91.3964 112.696,-94.8045 123.016,-97.9641"/>
<polygon fill="midnightblue" stroke="midnightblue" points="63.3763,-73.8579 52.7868,-73.5216 60.8553,-80.3882 63.3763,-73.8579"/>
</g>
<!-- Node3 -->
<g id="node3" class="node"><title>Node3</title>
<g id="a_node3"><a xlink:href="da/d9c/classgui_1_1nonbuttonfeatures_1_1_previous_commands_feature.html" target="_top" xlink:title="gui.nonbuttonfeatures.Previous\lCommandsFeature">
<polygon fill="white" stroke="black" points="92.5,-49 92.5,-79 259.5,-79 259.5,-49 92.5,-49"/>
<text text-anchor="start" x="100.5" y="-67" font-family="Helvetica,sans-Serif" font-size="10.00">gui.nonbuttonfeatures.Previous</text>
<text text-anchor="middle" x="176" y="-56" font-family="Helvetica,sans-Serif" font-size="10.00">CommandsFeature</text>
</a>
</g>
</g>
<!-- Node1&#45;&gt;Node3 -->
<g id="edge2" class="edge"><title>Node1&#45;&gt;Node3</title>
<path fill="none" stroke="midnightblue" d="M66.0524,-64C74.26,-64 83.2756,-64 92.4969,-64"/>
<polygon fill="midnightblue" stroke="midnightblue" points="65.7787,-60.5001 55.7787,-64 65.7786,-67.5001 65.7787,-60.5001"/>
</g>
<!-- Node4 -->
<g id="node4" class="node"><title>Node4</title>
<g id="a_node4"><a xlink:href="d1/de9/classgui_1_1nonbuttonfeatures_1_1_saved_commands_feature.html" target="_top" xlink:title="gui.nonbuttonfeatures.Saved\lCommandsFeature">
<polygon fill="white" stroke="black" points="98,-0 98,-30 254,-30 254,-0 98,-0"/>
<text text-anchor="start" x="106" y="-18" font-family="Helvetica,sans-Serif" font-size="10.00">gui.nonbuttonfeatures.Saved</text>
<text text-anchor="middle" x="176" y="-7" font-family="Helvetica,sans-Serif" font-size="10.00">CommandsFeature</text>
</a>
</g>
</g>
<!-- Node1&#45;&gt;Node4 -->
<g id="edge3" class="edge"><title>Node1&#45;&gt;Node4</title>
<path fill="none" stroke="midnightblue" d="M62.3261,-50.7959C71.8597,-47.1572 82.297,-43.3048 92,-40 101.972,-36.6036 112.696,-33.1955 123.016,-30.0359"/>
<polygon fill="midnightblue" stroke="midnightblue" points="60.8553,-47.6118 52.7868,-54.4784 63.3763,-54.1421 60.8553,-47.6118"/>
</g>
</g>
</svg>
