<?xml version="1.0" encoding="UTF-8" standalone="no"?>
<!DOCTYPE svg PUBLIC "-//W3C//DTD SVG 1.1//EN"
 "http://www.w3.org/Graphics/SVG/1.1/DTD/svg11.dtd">
<!-- Generated by graphviz version 2.36.0 (20140111.2315)
 -->
<!-- Title: Graphical Class Hierarchy Pages: 1 -->
<svg width="206pt" height="66pt"
 viewBox="0.00 0.00 206.00 66.00" xmlns="http://www.w3.org/2000/svg" xmlns:xlink="http://www.w3.org/1999/xlink">
<g id="graph0" class="graph" transform="scale(1 1) rotate(0) translate(4 62)">
<title>Graphical Class Hierarchy</title>
<polygon fill="white" stroke="none" points="-4,4 -4,-62 202,-62 202,4 -4,4"/>
<!-- Node1 -->
<g id="node1" class="node"><title>Node1</title>
<polygon fill="white" stroke="#bfbfbf" points="0.5,-19.5 0.5,-38.5 43.5,-38.5 43.5,-19.5 0.5,-19.5"/>
<text text-anchor="middle" x="22" y="-26.5" font-family="Helvetica,sans-Serif" font-size="10.00">Menu</text>
</g>
<!-- Node2 -->
<g id="node2" class="node"><title>Node2</title>
<g id="a_node2"><a xlink:href="d1/dea/classgui_1_1menus_1_1_file_menu.html" target="_top" xlink:title="gui.menus.FileMenu">
<polygon fill="white" stroke="black" points="83.5,-38.5 83.5,-57.5 194.5,-57.5 194.5,-38.5 83.5,-38.5"/>
<text text-anchor="middle" x="139" y="-45.5" font-family="Helvetica,sans-Serif" font-size="10.00">gui.menus.FileMenu</text>
</a>
</g>
</g>
<!-- Node1&#45;&gt;Node2 -->
<g id="edge1" class="edge"><title>Node1&#45;&gt;Node2</title>
<path fill="none" stroke="midnightblue" d="M53.6174,-34.0585C62.7016,-35.5594 72.9409,-37.2511 83.0735,-38.9252"/>
<polygon fill="midnightblue" stroke="midnightblue" points="53.9965,-30.5738 43.5597,-32.3968 52.8554,-37.4802 53.9965,-30.5738"/>
</g>
<!-- Node3 -->
<g id="node3" class="node"><title>Node3</title>
<g id="a_node3"><a xlink:href="dd/df0/classgui_1_1menus_1_1_help_menu.html" target="_top" xlink:title="gui.menus.HelpMenu">
<polygon fill="white" stroke="black" points="80,-0.5 80,-19.5 198,-19.5 198,-0.5 80,-0.5"/>
<text text-anchor="middle" x="139" y="-7.5" font-family="Helvetica,sans-Serif" font-size="10.00">gui.menus.HelpMenu</text>
</a>
</g>
</g>
<!-- Node1&#45;&gt;Node3 -->
<g id="edge2" class="edge"><title>Node1&#45;&gt;Node3</title>
<path fill="none" stroke="midnightblue" d="M53.7001,-23.9278C61.8813,-22.5761 70.9947,-21.0704 80.121,-19.5626"/>
<polygon fill="midnightblue" stroke="midnightblue" points="52.8554,-20.5198 43.5597,-25.6032 53.9965,-27.4262 52.8554,-20.5198"/>
</g>
</g>
</svg>
