<?xml version="1.0" encoding="UTF-8" standalone="no"?>
<!DOCTYPE svg PUBLIC "-//W3C//DTD SVG 1.1//EN"
 "http://www.w3.org/Graphics/SVG/1.1/DTD/svg11.dtd">
<!-- Generated by graphviz version 2.36.0 (20140111.2315)
 -->
<!-- Title: Graphical Class Hierarchy Pages: 1 -->
<svg width="444pt" height="38pt"
 viewBox="0.00 0.00 444.00 38.00" xmlns="http://www.w3.org/2000/svg" xmlns:xlink="http://www.w3.org/1999/xlink">
<g id="graph0" class="graph" transform="scale(1 1) rotate(0) translate(4 34)">
<title>Graphical Class Hierarchy</title>
<polygon fill="white" stroke="none" points="-4,4 -4,-34 440,-34 440,4 -4,4"/>
<!-- Node1 -->
<g id="node1" class="node"><title>Node1</title>
<polygon fill="white" stroke="#bfbfbf" points="0.5,-5.5 0.5,-24.5 67.5,-24.5 67.5,-5.5 0.5,-5.5"/>
<text text-anchor="middle" x="34" y="-12.5" font-family="Helvetica,sans-Serif" font-size="10.00">ChoiceBox</text>
</g>
<!-- Node2 -->
<g id="node2" class="node"><title>Node2</title>
<g id="a_node2"><a xlink:href="d6/da9/classgui_1_1nonbuttonfeatures_1_1pen_1_1_pen_choice_box.html" target="_top" xlink:title="gui.nonbuttonfeatures.pen.\lPenChoiceBox">
<polygon fill="white" stroke="black" points="104.5,-0 104.5,-30 251.5,-30 251.5,-0 104.5,-0"/>
<text text-anchor="start" x="112.5" y="-18" font-family="Helvetica,sans-Serif" font-size="10.00">gui.nonbuttonfeatures.pen.</text>
<text text-anchor="middle" x="178" y="-7" font-family="Helvetica,sans-Serif" font-size="10.00">PenChoiceBox</text>
</a>
</g>
</g>
<!-- Node1&#45;&gt;Node2 -->
<g id="edge1" class="edge"><title>Node1&#45;&gt;Node2</title>
<path fill="none" stroke="midnightblue" d="M77.8481,-15C86.257,-15 95.2946,-15 104.368,-15"/>
<polygon fill="midnightblue" stroke="midnightblue" points="77.5777,-11.5001 67.5777,-15 77.5776,-18.5001 77.5777,-11.5001"/>
</g>
<!-- Node3 -->
<g id="node3" class="node"><title>Node3</title>
<g id="a_node3"><a xlink:href="dc/d93/classgui_1_1nonbuttonfeatures_1_1pen_1_1_pen_up_or_down_feature.html" target="_top" xlink:title="gui.nonbuttonfeatures.pen.\lPenUpOrDownFeature">
<polygon fill="white" stroke="black" points="288.5,-0 288.5,-30 435.5,-30 435.5,-0 288.5,-0"/>
<text text-anchor="start" x="296.5" y="-18" font-family="Helvetica,sans-Serif" font-size="10.00">gui.nonbuttonfeatures.pen.</text>
<text text-anchor="middle" x="362" y="-7" font-family="Helvetica,sans-Serif" font-size="10.00">PenUpOrDownFeature</text>
</a>
</g>
</g>
<!-- Node2&#45;&gt;Node3 -->
<g id="edge2" class="edge"><title>Node2&#45;&gt;Node3</title>
<path fill="none" stroke="midnightblue" d="M261.994,-15C270.806,-15 279.72,-15 288.4,-15"/>
<polygon fill="midnightblue" stroke="midnightblue" points="261.716,-11.5001 251.716,-15 261.716,-18.5001 261.716,-11.5001"/>
</g>
</g>
</svg>
