<?xml version="1.0" encoding="UTF-8" standalone="no"?>
<!DOCTYPE svg PUBLIC "-//W3C//DTD SVG 1.1//EN"
 "http://www.w3.org/Graphics/SVG/1.1/DTD/svg11.dtd">
<!-- Generated by graphviz version 2.36.0 (20140111.2315)
 -->
<!-- Title: Graphical Class Hierarchy Pages: 1 -->
<svg width="592pt" height="258pt"
 viewBox="0.00 0.00 592.00 258.00" xmlns="http://www.w3.org/2000/svg" xmlns:xlink="http://www.w3.org/1999/xlink">
<g id="graph0" class="graph" transform="scale(1 1) rotate(0) translate(4 254)">
<title>Graphical Class Hierarchy</title>
<polygon fill="white" stroke="none" points="-4,4 -4,-254 588,-254 588,4 -4,4"/>
<!-- Node1 -->
<g id="node1" class="node"><title>Node1</title>
<polygon fill="white" stroke="#bfbfbf" points="0,-78.5 0,-97.5 32,-97.5 32,-78.5 0,-78.5"/>
<text text-anchor="middle" x="16" y="-85.5" font-family="Helvetica,sans-Serif" font-size="10.00">Tab</text>
</g>
<!-- Node2 -->
<g id="node2" class="node"><title>Node2</title>
<g id="a_node2"><a xlink:href="d1/dae/classgui_1_1componentdrawers_1_1optionsholder_1_1tabs_1_1_options_tab.html" target="_top" xlink:title="gui.componentdrawers.optionsholder.tabs.\lOptionsTab">
<polygon fill="white" stroke="black" points="86.5,-147 86.5,-177 307.5,-177 307.5,-147 86.5,-147"/>
<text text-anchor="start" x="94.5" y="-165" font-family="Helvetica,sans-Serif" font-size="10.00">gui.componentdrawers.optionsholder.tabs.</text>
<text text-anchor="middle" x="197" y="-154" font-family="Helvetica,sans-Serif" font-size="10.00">OptionsTab</text>
</a>
</g>
</g>
<!-- Node1&#45;&gt;Node2 -->
<g id="edge1" class="edge"><title>Node1&#45;&gt;Node2</title>
<path fill="none" stroke="midnightblue" d="M30.7311,-105.577C40.0826,-116.317 53.3841,-129.407 68,-137 75.4342,-140.862 83.3933,-144.13 91.5702,-146.895"/>
<polygon fill="midnightblue" stroke="midnightblue" points="33.2065,-103.079 24.1284,-97.6161 27.8186,-107.548 33.2065,-103.079"/>
</g>
<!-- Node7 -->
<g id="node7" class="node"><title>Node7</title>
<g id="a_node7"><a xlink:href="dd/d6c/classgui_1_1componentdrawers_1_1significantcommands_1_1tabs_1_1_saved_commands_tab.html" target="_top" xlink:title="gui.componentdrawers.significantcommands.tabs.\lSavedCommandsTab">
<polygon fill="white" stroke="black" points="68,-98 68,-128 326,-128 326,-98 68,-98"/>
<text text-anchor="start" x="76" y="-116" font-family="Helvetica,sans-Serif" font-size="10.00">gui.componentdrawers.significantcommands.tabs.</text>
<text text-anchor="middle" x="197" y="-105" font-family="Helvetica,sans-Serif" font-size="10.00">SavedCommandsTab</text>
</a>
</g>
</g>
<!-- Node1&#45;&gt;Node7 -->
<g id="edge6" class="edge"><title>Node1&#45;&gt;Node7</title>
<path fill="none" stroke="midnightblue" d="M42.4049,-91.5482C55.0813,-93.3186 71.3665,-95.5931 88.5736,-97.9963"/>
<polygon fill="midnightblue" stroke="midnightblue" points="42.6495,-88.0484 32.2614,-90.1315 41.6812,-94.9811 42.6495,-88.0484"/>
</g>
<!-- Node8 -->
<g id="node8" class="node"><title>Node8</title>
<g id="a_node8"><a xlink:href="dd/d48/classgui_1_1componentdrawers_1_1significantcommands_1_1tabs_1_1_user_defined_commands_tab.html" target="_top" xlink:title="gui.componentdrawers.significantcommands.tabs.\lUserDefinedCommandsTab">
<polygon fill="white" stroke="black" points="68,-49 68,-79 326,-79 326,-49 68,-49"/>
<text text-anchor="start" x="76" y="-67" font-family="Helvetica,sans-Serif" font-size="10.00">gui.componentdrawers.significantcommands.tabs.</text>
<text text-anchor="middle" x="197" y="-56" font-family="Helvetica,sans-Serif" font-size="10.00">UserDefinedCommandsTab</text>
</a>
</g>
</g>
<!-- Node1&#45;&gt;Node8 -->
<g id="edge7" class="edge"><title>Node1&#45;&gt;Node8</title>
<path fill="none" stroke="midnightblue" d="M42.3441,-84.6019C53.8893,-83.054 68.4368,-81.1034 83.9513,-79.0233"/>
<polygon fill="midnightblue" stroke="midnightblue" points="41.7076,-81.1558 32.2614,-85.9538 42.6379,-88.0938 41.7076,-81.1558"/>
</g>
<!-- Node9 -->
<g id="node9" class="node"><title>Node9</title>
<g id="a_node9"><a xlink:href="d8/df2/classgui_1_1mainclasses_1_1workspace_1_1_workspace.html" target="_top" xlink:title="gui.mainclasses.workspace.\lWorkspace">
<polygon fill="white" stroke="black" points="122.5,-0 122.5,-30 271.5,-30 271.5,-0 122.5,-0"/>
<text text-anchor="start" x="130.5" y="-18" font-family="Helvetica,sans-Serif" font-size="10.00">gui.mainclasses.workspace.</text>
<text text-anchor="middle" x="197" y="-7" font-family="Helvetica,sans-Serif" font-size="10.00">Workspace</text>
</a>
</g>
</g>
<!-- Node1&#45;&gt;Node9 -->
<g id="edge8" class="edge"><title>Node1&#45;&gt;Node9</title>
<path fill="none" stroke="midnightblue" d="M30.7117,-70.3858C40.0555,-59.63 53.3556,-46.5381 68,-39 84.6851,-30.4114 104.006,-24.8691 122.5,-21.3007"/>
<polygon fill="midnightblue" stroke="midnightblue" points="27.7926,-68.4236 24.1162,-78.3602 33.1867,-72.885 27.7926,-68.4236"/>
</g>
<!-- Node3 -->
<g id="node3" class="node"><title>Node3</title>
<g id="a_node3"><a xlink:href="d2/d6c/classgui_1_1componentdrawers_1_1optionsholder_1_1tabs_1_1_color_index_tab.html" target="_top" xlink:title="gui.componentdrawers.optionsholder.tabs.\lColorIndexTab">
<polygon fill="white" stroke="black" points="362.5,-220 362.5,-250 583.5,-250 583.5,-220 362.5,-220"/>
<text text-anchor="start" x="370.5" y="-238" font-family="Helvetica,sans-Serif" font-size="10.00">gui.componentdrawers.optionsholder.tabs.</text>
<text text-anchor="middle" x="473" y="-227" font-family="Helvetica,sans-Serif" font-size="10.00">ColorIndexTab</text>
</a>
</g>
</g>
<!-- Node2&#45;&gt;Node3 -->
<g id="edge2" class="edge"><title>Node2&#45;&gt;Node3</title>
<path fill="none" stroke="midnightblue" d="M256.418,-180.043C287.622,-189.44 326.762,-200.848 362,-210 375.174,-213.422 389.302,-216.828 402.896,-219.975"/>
<polygon fill="midnightblue" stroke="midnightblue" points="257.166,-176.612 246.581,-177.067 255.139,-183.312 257.166,-176.612"/>
</g>
<!-- Node4 -->
<g id="node4" class="node"><title>Node4</title>
<g id="a_node4"><a xlink:href="d6/de0/classgui_1_1componentdrawers_1_1optionsholder_1_1tabs_1_1_general_options_tab.html" target="_top" xlink:title="gui.componentdrawers.optionsholder.tabs.\lGeneralOptionsTab">
<polygon fill="white" stroke="black" points="362.5,-171 362.5,-201 583.5,-201 583.5,-171 362.5,-171"/>
<text text-anchor="start" x="370.5" y="-189" font-family="Helvetica,sans-Serif" font-size="10.00">gui.componentdrawers.optionsholder.tabs.</text>
<text text-anchor="middle" x="473" y="-178" font-family="Helvetica,sans-Serif" font-size="10.00">GeneralOptionsTab</text>
</a>
</g>
</g>
<!-- Node2&#45;&gt;Node4 -->
<g id="edge3" class="edge"><title>Node2&#45;&gt;Node4</title>
<path fill="none" stroke="midnightblue" d="M317.976,-172.509C332.651,-173.794 347.591,-175.103 362.108,-176.374"/>
<polygon fill="midnightblue" stroke="midnightblue" points="318.135,-169.009 307.868,-171.623 317.524,-175.983 318.135,-169.009"/>
</g>
<!-- Node5 -->
<g id="node5" class="node"><title>Node5</title>
<g id="a_node5"><a xlink:href="db/d0b/classgui_1_1componentdrawers_1_1optionsholder_1_1tabs_1_1_image_index_tab.html" target="_top" xlink:title="gui.componentdrawers.optionsholder.tabs.\lImageIndexTab">
<polygon fill="white" stroke="black" points="362.5,-122 362.5,-152 583.5,-152 583.5,-122 362.5,-122"/>
<text text-anchor="start" x="370.5" y="-140" font-family="Helvetica,sans-Serif" font-size="10.00">gui.componentdrawers.optionsholder.tabs.</text>
<text text-anchor="middle" x="473" y="-129" font-family="Helvetica,sans-Serif" font-size="10.00">ImageIndexTab</text>
</a>
</g>
</g>
<!-- Node2&#45;&gt;Node5 -->
<g id="edge4" class="edge"><title>Node2&#45;&gt;Node5</title>
<path fill="none" stroke="midnightblue" d="M317.976,-151.053C332.651,-149.714 347.591,-148.351 362.108,-147.027"/>
<polygon fill="midnightblue" stroke="midnightblue" points="317.508,-147.581 307.868,-151.976 318.144,-154.552 317.508,-147.581"/>
</g>
<!-- Node6 -->
<g id="node6" class="node"><title>Node6</title>
<g id="a_node6"><a xlink:href="dd/d82/classgui_1_1componentdrawers_1_1optionsholder_1_1tabs_1_1_pen_options_tab.html" target="_top" xlink:title="gui.componentdrawers.optionsholder.tabs.\lPenOptionsTab">
<polygon fill="white" stroke="black" points="362.5,-73 362.5,-103 583.5,-103 583.5,-73 362.5,-73"/>
<text text-anchor="start" x="370.5" y="-91" font-family="Helvetica,sans-Serif" font-size="10.00">gui.componentdrawers.optionsholder.tabs.</text>
<text text-anchor="middle" x="473" y="-80" font-family="Helvetica,sans-Serif" font-size="10.00">PenOptionsTab</text>
</a>
</g>
</g>
<!-- Node2&#45;&gt;Node6 -->
<g id="edge5" class="edge"><title>Node2&#45;&gt;Node6</title>
<path fill="none" stroke="midnightblue" d="M306.295,-144.043C313.049,-141.944 319.67,-139.605 326,-137 343.782,-129.681 344.332,-120.59 362,-113 370.997,-109.135 380.676,-105.826 390.427,-103.004"/>
<polygon fill="midnightblue" stroke="midnightblue" points="304.944,-140.791 296.323,-146.949 306.903,-147.511 304.944,-140.791"/>
</g>
</g>
</svg>
