<?xml version="1.0" encoding="UTF-8" standalone="no"?>
<!DOCTYPE svg PUBLIC "-//W3C//DTD SVG 1.1//EN"
 "http://www.w3.org/Graphics/SVG/1.1/DTD/svg11.dtd">
<!-- Generated by graphviz version 2.36.0 (20140111.2315)
 -->
<!-- Title: gui.menus.HelpMenu.HelpMenu Pages: 1 -->
<svg width="396pt" height="77pt"
 viewBox="0.00 0.00 396.00 77.00" xmlns="http://www.w3.org/2000/svg" xmlns:xlink="http://www.w3.org/1999/xlink">
<g id="graph0" class="graph" transform="scale(1 1) rotate(0) translate(4 73)">
<title>gui.menus.HelpMenu.HelpMenu</title>
<polygon fill="white" stroke="none" points="-4,4 -4,-73 392,-73 392,4 -4,4"/>
<!-- Node1 -->
<g id="node1" class="node"><title>Node1</title>
<polygon fill="#bfbfbf" stroke="black" points="0.5,-22.5 0.5,-41.5 169.5,-41.5 169.5,-22.5 0.5,-22.5"/>
<text text-anchor="middle" x="85" y="-29.5" font-family="Helvetica,sans-Serif" font-size="10.00">gui.menus.HelpMenu.HelpMenu</text>
</g>
<!-- Node2 -->
<g id="node2" class="node"><title>Node2</title>
<g id="a_node2"><a xlink:href="../../dd/df0/classgui_1_1menus_1_1_help_menu.html#afd40f1e168e3e4795081440f1b32d3ba" target="_top" xlink:title="gui.menus.HelpMenu.display\lHelpPage">
<polygon fill="white" stroke="black" points="220,-39 220,-69 374,-69 374,-39 220,-39"/>
<text text-anchor="start" x="228" y="-57" font-family="Helvetica,sans-Serif" font-size="10.00">gui.menus.HelpMenu.display</text>
<text text-anchor="middle" x="297" y="-46" font-family="Helvetica,sans-Serif" font-size="10.00">HelpPage</text>
</a>
</g>
</g>
<!-- Node1&#45;&gt;Node2 -->
<g id="edge1" class="edge"><title>Node1&#45;&gt;Node2</title>
<path fill="none" stroke="midnightblue" d="M169.601,-40.7582C182.817,-42.1427 196.506,-43.5768 209.78,-44.9675"/>
<polygon fill="midnightblue" stroke="midnightblue" points="209.526,-48.4599 219.836,-46.0209 210.255,-41.498 209.526,-48.4599"/>
</g>
<!-- Node3 -->
<g id="node3" class="node"><title>Node3</title>
<g id="a_node3"><a xlink:href="../../d0/d49/classgui_1_1mainclasses_1_1_text_generator.html#afef308a2abfb8f1503d2b276407833e6" target="_top" xlink:title="gui.mainclasses.TextGenerator.get">
<polygon fill="white" stroke="black" points="206,-0.5 206,-19.5 388,-19.5 388,-0.5 206,-0.5"/>
<text text-anchor="middle" x="297" y="-7.5" font-family="Helvetica,sans-Serif" font-size="10.00">gui.mainclasses.TextGenerator.get</text>
</a>
</g>
</g>
<!-- Node1&#45;&gt;Node3 -->
<g id="edge2" class="edge"><title>Node1&#45;&gt;Node3</title>
<path fill="none" stroke="midnightblue" d="M169.601,-23.2418C178.151,-22.3461 186.898,-21.4297 195.604,-20.5177"/>
<polygon fill="midnightblue" stroke="midnightblue" points="196.208,-23.9736 205.789,-19.4507 195.479,-17.0117 196.208,-23.9736"/>
</g>
</g>
</svg>
