<?xml version="1.0" encoding="UTF-8" standalone="no"?>
<!DOCTYPE svg PUBLIC "-//W3C//DTD SVG 1.1//EN"
 "http://www.w3.org/Graphics/SVG/1.1/DTD/svg11.dtd">
<!-- Generated by graphviz version 2.36.0 (20140111.2315)
 -->
<!-- Title: commandParsing.variableCommandParsing.Variable.parse Pages: 1 -->
<svg width="682pt" height="158pt"
 viewBox="0.00 0.00 682.00 158.00" xmlns="http://www.w3.org/2000/svg" xmlns:xlink="http://www.w3.org/1999/xlink">
<g id="graph0" class="graph" transform="scale(1 1) rotate(0) translate(4 154)">
<title>commandParsing.variableCommandParsing.Variable.parse</title>
<polygon fill="white" stroke="none" points="-4,4 -4,-154 678,-154 678,4 -4,4"/>
<!-- Node1 -->
<g id="node1" class="node"><title>Node1</title>
<polygon fill="#bfbfbf" stroke="black" points="0.5,-54 0.5,-84 191.5,-84 191.5,-54 0.5,-54"/>
<text text-anchor="start" x="8.5" y="-72" font-family="Helvetica,sans-Serif" font-size="10.00">commandParsing.variableCommand</text>
<text text-anchor="middle" x="96" y="-61" font-family="Helvetica,sans-Serif" font-size="10.00">Parsing.Variable.parse</text>
</g>
<!-- Node2 -->
<g id="node2" class="node"><title>Node2</title>
<g id="a_node2"><a xlink:href="../../de/dcc/classcommand_parsing_1_1structural_command_parsing_1_1_structural_command.html#ad1fbabc1ceb2acecc6523f53819ad301" target="_top" xlink:title="commandParsing.structural\lCommandParsing.StructuralCommand.get\lVariable">
<polygon fill="white" stroke="black" points="228.5,-48.5 228.5,-89.5 449.5,-89.5 449.5,-48.5 228.5,-48.5"/>
<text text-anchor="start" x="236.5" y="-77.5" font-family="Helvetica,sans-Serif" font-size="10.00">commandParsing.structural</text>
<text text-anchor="start" x="236.5" y="-66.5" font-family="Helvetica,sans-Serif" font-size="10.00">CommandParsing.StructuralCommand.get</text>
<text text-anchor="middle" x="339" y="-55.5" font-family="Helvetica,sans-Serif" font-size="10.00">Variable</text>
</a>
</g>
</g>
<!-- Node1&#45;&gt;Node2 -->
<g id="edge1" class="edge"><title>Node1&#45;&gt;Node2</title>
<path fill="none" stroke="midnightblue" d="M201.757,-69C210.499,-69 219.354,-69 228.132,-69"/>
<polygon fill="midnightblue" stroke="midnightblue" points="201.558,-65.5001 191.558,-69 201.558,-72.5001 201.558,-65.5001"/>
</g>
<!-- Node3 -->
<g id="node3" class="node"><title>Node3</title>
<g id="a_node3"><a xlink:href="../../d7/d10/classcommand_parsing_1_1structural_command_parsing_1_1_do_times.html#afb2baa6c526f8693dacb3da8d19648f7" target="_top" xlink:title="commandParsing.structural\lCommandParsing.DoTimes.initialize\lLoopVariableParameters">
<polygon fill="white" stroke="black" points="486,-108.5 486,-149.5 674,-149.5 674,-108.5 486,-108.5"/>
<text text-anchor="start" x="494" y="-137.5" font-family="Helvetica,sans-Serif" font-size="10.00">commandParsing.structural</text>
<text text-anchor="start" x="494" y="-126.5" font-family="Helvetica,sans-Serif" font-size="10.00">CommandParsing.DoTimes.initialize</text>
<text text-anchor="middle" x="580" y="-115.5" font-family="Helvetica,sans-Serif" font-size="10.00">LoopVariableParameters</text>
</a>
</g>
</g>
<!-- Node2&#45;&gt;Node3 -->
<g id="edge2" class="edge"><title>Node2&#45;&gt;Node3</title>
<path fill="none" stroke="midnightblue" d="M431.719,-92.0256C453.273,-97.4368 476.104,-103.168 497.191,-108.462"/>
<polygon fill="midnightblue" stroke="midnightblue" points="432.467,-88.605 421.916,-89.5647 430.763,-95.3943 432.467,-88.605"/>
</g>
<!-- Node4 -->
<g id="node4" class="node"><title>Node4</title>
<g id="a_node4"><a xlink:href="../../d3/d78/classcommand_parsing_1_1structural_command_parsing_1_1_for.html#a6b84827c7c254153b5a8171a10a4ba8c" target="_top" xlink:title="commandParsing.structural\lCommandParsing.For.initializeLoop\lVariableParameters">
<polygon fill="white" stroke="black" points="488.5,-48.5 488.5,-89.5 671.5,-89.5 671.5,-48.5 488.5,-48.5"/>
<text text-anchor="start" x="496.5" y="-77.5" font-family="Helvetica,sans-Serif" font-size="10.00">commandParsing.structural</text>
<text text-anchor="start" x="496.5" y="-66.5" font-family="Helvetica,sans-Serif" font-size="10.00">CommandParsing.For.initializeLoop</text>
<text text-anchor="middle" x="580" y="-55.5" font-family="Helvetica,sans-Serif" font-size="10.00">VariableParameters</text>
</a>
</g>
</g>
<!-- Node2&#45;&gt;Node4 -->
<g id="edge3" class="edge"><title>Node2&#45;&gt;Node4</title>
<path fill="none" stroke="midnightblue" d="M459.996,-69C469.486,-69 478.973,-69 488.216,-69"/>
<polygon fill="midnightblue" stroke="midnightblue" points="459.707,-65.5001 449.707,-69 459.707,-72.5001 459.707,-65.5001"/>
</g>
<!-- Node5 -->
<g id="node5" class="node"><title>Node5</title>
<g id="a_node5"><a xlink:href="../../d3/d58/classcommand_parsing_1_1user_command_parsing_1_1_make_user_instruction.html#ae874a4712e6685abea7e05c70b4bb7b7" target="_top" xlink:title="commandParsing.userCommand\lParsing.MakeUserInstruction.parse">
<polygon fill="white" stroke="black" points="489,-0 489,-30 671,-30 671,-0 489,-0"/>
<text text-anchor="start" x="497" y="-18" font-family="Helvetica,sans-Serif" font-size="10.00">commandParsing.userCommand</text>
<text text-anchor="middle" x="580" y="-7" font-family="Helvetica,sans-Serif" font-size="10.00">Parsing.MakeUserInstruction.parse</text>
</a>
</g>
</g>
<!-- Node2&#45;&gt;Node5 -->
<g id="edge4" class="edge"><title>Node2&#45;&gt;Node5</title>
<path fill="none" stroke="midnightblue" d="M440.942,-46.1931C465.072,-40.741 490.238,-35.0551 512.372,-30.0541"/>
<polygon fill="midnightblue" stroke="midnightblue" points="440.02,-42.813 431.037,-48.4309 441.563,-49.6409 440.02,-42.813"/>
</g>
</g>
</svg>
