<?xml version="1.0" encoding="UTF-8" standalone="no"?>
<!DOCTYPE svg PUBLIC "-//W3C//DTD SVG 1.1//EN"
 "http://www.w3.org/Graphics/SVG/1.1/DTD/svg11.dtd">
<!-- Generated by graphviz version 2.36.0 (20140111.2315)
 -->
<!-- Title: gui.buttonfeatures.ButtonFeature Pages: 1 -->
<svg width="452pt" height="136pt"
 viewBox="0.00 0.00 452.00 136.00" xmlns="http://www.w3.org/2000/svg" xmlns:xlink="http://www.w3.org/1999/xlink">
<g id="graph0" class="graph" transform="scale(1 1) rotate(0) translate(4 132)">
<title>gui.buttonfeatures.ButtonFeature</title>
<polygon fill="white" stroke="none" points="-4,4 -4,-132 448,-132 448,4 -4,4"/>
<!-- Node1 -->
<g id="node1" class="node"><title>Node1</title>
<polygon fill="#bfbfbf" stroke="black" points="86,-49 86,-79 226,-79 226,-49 86,-49"/>
<text text-anchor="start" x="94" y="-67" font-family="Helvetica,sans-Serif" font-size="10.00">gui.buttonfeatures.Button</text>
<text text-anchor="middle" x="156" y="-56" font-family="Helvetica,sans-Serif" font-size="10.00">Feature</text>
</g>
<!-- Node3 -->
<g id="node3" class="node"><title>Node3</title>
<g id="a_node3"><a xlink:href="../../d9/d24/classgui_1_1buttonfeatures_1_1_clear_workspace_button_feature.html" target="_top" xlink:title="gui.buttonfeatures.Clear\lWorkspaceButtonFeature">
<polygon fill="white" stroke="black" points="285,-98 285,-128 421,-128 421,-98 285,-98"/>
<text text-anchor="start" x="293" y="-116" font-family="Helvetica,sans-Serif" font-size="10.00">gui.buttonfeatures.Clear</text>
<text text-anchor="middle" x="353" y="-105" font-family="Helvetica,sans-Serif" font-size="10.00">WorkspaceButtonFeature</text>
</a>
</g>
</g>
<!-- Node1&#45;&gt;Node3 -->
<g id="edge2" class="edge"><title>Node1&#45;&gt;Node3</title>
<path fill="none" stroke="midnightblue" d="M226.551,-81.4768C248.043,-86.8775 271.515,-92.7755 292.282,-97.9938"/>
<polygon fill="midnightblue" stroke="midnightblue" points="227.383,-78.0773 216.832,-79.0346 225.677,-84.8662 227.383,-78.0773"/>
</g>
<!-- Node4 -->
<g id="node4" class="node"><title>Node4</title>
<g id="a_node4"><a xlink:href="../../dd/d11/classgui_1_1buttonfeatures_1_1_save_command_button_feature.html" target="_top" xlink:title="gui.buttonfeatures.SaveCommand\lButtonFeature">
<polygon fill="white" stroke="black" points="262,-49 262,-79 444,-79 444,-49 262,-49"/>
<text text-anchor="start" x="270" y="-67" font-family="Helvetica,sans-Serif" font-size="10.00">gui.buttonfeatures.SaveCommand</text>
<text text-anchor="middle" x="353" y="-56" font-family="Helvetica,sans-Serif" font-size="10.00">ButtonFeature</text>
</a>
</g>
</g>
<!-- Node1&#45;&gt;Node4 -->
<g id="edge3" class="edge"><title>Node1&#45;&gt;Node4</title>
<path fill="none" stroke="midnightblue" d="M236.225,-64C244.681,-64 253.326,-64 261.895,-64"/>
<polygon fill="midnightblue" stroke="midnightblue" points="236.024,-60.5001 226.024,-64 236.024,-67.5001 236.024,-60.5001"/>
</g>
<!-- Node5 -->
<g id="node5" class="node"><title>Node5</title>
<g id="a_node5"><a xlink:href="../../da/da4/classgui_1_1buttonfeatures_1_1_toggle_grid_button_feature.html" target="_top" xlink:title="gui.buttonfeatures.Toggle\lGridButtonFeature">
<polygon fill="white" stroke="black" points="284,-0 284,-30 422,-30 422,-0 284,-0"/>
<text text-anchor="start" x="292" y="-18" font-family="Helvetica,sans-Serif" font-size="10.00">gui.buttonfeatures.Toggle</text>
<text text-anchor="middle" x="353" y="-7" font-family="Helvetica,sans-Serif" font-size="10.00">GridButtonFeature</text>
</a>
</g>
</g>
<!-- Node1&#45;&gt;Node5 -->
<g id="edge4" class="edge"><title>Node1&#45;&gt;Node5</title>
<path fill="none" stroke="midnightblue" d="M226.551,-46.5232C248.043,-41.1225 271.515,-35.2245 292.282,-30.0062"/>
<polygon fill="midnightblue" stroke="midnightblue" points="225.677,-43.1338 216.832,-48.9654 227.383,-49.9227 225.677,-43.1338"/>
</g>
<!-- Node2 -->
<g id="node2" class="node"><title>Node2</title>
<polygon fill="white" stroke="#bfbfbf" points="0.5,-54.5 0.5,-73.5 49.5,-73.5 49.5,-54.5 0.5,-54.5"/>
<text text-anchor="middle" x="25" y="-61.5" font-family="Helvetica,sans-Serif" font-size="10.00">Button</text>
</g>
<!-- Node2&#45;&gt;Node1 -->
<g id="edge1" class="edge"><title>Node2&#45;&gt;Node1</title>
<path fill="none" stroke="midnightblue" d="M59.7775,-64C67.8904,-64 76.8494,-64 85.9299,-64"/>
<polygon fill="midnightblue" stroke="midnightblue" points="59.6606,-60.5001 49.6606,-64 59.6606,-67.5001 59.6606,-60.5001"/>
</g>
</g>
</svg>
