<?xml version="1.0" encoding="UTF-8" standalone="no"?>
<!DOCTYPE svg PUBLIC "-//W3C//DTD SVG 1.1//EN"
 "http://www.w3.org/Graphics/SVG/1.1/DTD/svg11.dtd">
<!-- Generated by graphviz version 2.36.0 (20140111.2315)
 -->
<!-- Title: gui.factories.PaneFactory.generateObject Pages: 1 -->
<svg width="598pt" height="87pt"
 viewBox="0.00 0.00 598.00 87.00" xmlns="http://www.w3.org/2000/svg" xmlns:xlink="http://www.w3.org/1999/xlink">
<g id="graph0" class="graph" transform="scale(1 1) rotate(0) translate(4 83)">
<title>gui.factories.PaneFactory.generateObject</title>
<polygon fill="white" stroke="none" points="-4,4 -4,-83 594,-83 594,4 -4,4"/>
<!-- Node1 -->
<g id="node1" class="node"><title>Node1</title>
<polygon fill="#bfbfbf" stroke="black" points="0.5,-24 0.5,-54 181.5,-54 181.5,-24 0.5,-24"/>
<text text-anchor="start" x="8.5" y="-42" font-family="Helvetica,sans-Serif" font-size="10.00">gui.factories.PaneFactory.generate</text>
<text text-anchor="middle" x="91" y="-31" font-family="Helvetica,sans-Serif" font-size="10.00">Object</text>
</g>
<!-- Node2 -->
<g id="node2" class="node"><title>Node2</title>
<g id="a_node2"><a xlink:href="../../dd/d4c/classgui_1_1componentdrawers_1_1_turtle_screen_drawer.html#ab5fc47200b00a26dff1c7389e062403a" target="_top" xlink:title="gui.componentdrawers.Turtle\lScreenDrawer.changeScreenColor">
<polygon fill="white" stroke="black" points="218,-49 218,-79 398,-79 398,-49 218,-49"/>
<text text-anchor="start" x="226" y="-67" font-family="Helvetica,sans-Serif" font-size="10.00">gui.componentdrawers.Turtle</text>
<text text-anchor="middle" x="308" y="-56" font-family="Helvetica,sans-Serif" font-size="10.00">ScreenDrawer.changeScreenColor</text>
</a>
</g>
</g>
<!-- Node1&#45;&gt;Node2 -->
<g id="edge1" class="edge"><title>Node1&#45;&gt;Node2</title>
<path fill="none" stroke="midnightblue" d="M181.623,-49.4212C190.235,-50.4227 199.006,-51.4425 207.704,-52.454"/>
<polygon fill="midnightblue" stroke="midnightblue" points="207.531,-55.9573 217.868,-53.6358 208.339,-49.0042 207.531,-55.9573"/>
</g>
<!-- Node3 -->
<g id="node3" class="node"><title>Node3</title>
<g id="a_node3"><a xlink:href="../../dd/d4c/classgui_1_1componentdrawers_1_1_turtle_screen_drawer.html#a98a234f52d457418150bc5c660db1e08" target="_top" xlink:title="gui.componentdrawers.Turtle\lScreenDrawer.resetScreen">
<polygon fill="white" stroke="black" points="230.5,-0 230.5,-30 385.5,-30 385.5,-0 230.5,-0"/>
<text text-anchor="start" x="238.5" y="-18" font-family="Helvetica,sans-Serif" font-size="10.00">gui.componentdrawers.Turtle</text>
<text text-anchor="middle" x="308" y="-7" font-family="Helvetica,sans-Serif" font-size="10.00">ScreenDrawer.resetScreen</text>
</a>
</g>
</g>
<!-- Node1&#45;&gt;Node3 -->
<g id="edge2" class="edge"><title>Node1&#45;&gt;Node3</title>
<path fill="none" stroke="midnightblue" d="M181.623,-28.9956C194.351,-27.5748 207.423,-26.1155 220.099,-24.7006"/>
<polygon fill="midnightblue" stroke="midnightblue" points="220.615,-28.1648 230.165,-23.5769 219.838,-21.208 220.615,-28.1648"/>
</g>
<!-- Node4 -->
<g id="node4" class="node"><title>Node4</title>
<g id="a_node4"><a xlink:href="../../dd/d25/classgui_1_1factories_1_1turtlefactory_1_1_turtle_nodes.html#a50d6a66a8d02df8bf329830fdfe65bd7" target="_top" xlink:title="gui.factories.turtlefactory.\lTurtleNodes.clearTurtleNodes">
<polygon fill="white" stroke="black" points="434.5,-0 434.5,-30 589.5,-30 589.5,-0 434.5,-0"/>
<text text-anchor="start" x="442.5" y="-18" font-family="Helvetica,sans-Serif" font-size="10.00">gui.factories.turtlefactory.</text>
<text text-anchor="middle" x="512" y="-7" font-family="Helvetica,sans-Serif" font-size="10.00">TurtleNodes.clearTurtleNodes</text>
</a>
</g>
</g>
<!-- Node3&#45;&gt;Node4 -->
<g id="edge3" class="edge"><title>Node3&#45;&gt;Node4</title>
<path fill="none" stroke="midnightblue" d="M385.656,-15C398.249,-15 411.38,-15 424.199,-15"/>
<polygon fill="midnightblue" stroke="midnightblue" points="424.397,-18.5001 434.397,-15 424.397,-11.5001 424.397,-18.5001"/>
</g>
</g>
</svg>
