<?xml version="1.0" encoding="UTF-8" standalone="no"?>
<!DOCTYPE svg PUBLIC "-//W3C//DTD SVG 1.1//EN"
 "http://www.w3.org/Graphics/SVG/1.1/DTD/svg11.dtd">
<!-- Generated by graphviz version 2.36.0 (20140111.2315)
 -->
<!-- Title: XML.XMLParser.XMLParser Pages: 1 -->
<svg width="334pt" height="77pt"
 viewBox="0.00 0.00 334.00 77.00" xmlns="http://www.w3.org/2000/svg" xmlns:xlink="http://www.w3.org/1999/xlink">
<g id="graph0" class="graph" transform="scale(1 1) rotate(0) translate(4 73)">
<title>XML.XMLParser.XMLParser</title>
<polygon fill="white" stroke="none" points="-4,4 -4,-73 330,-73 330,4 -4,4"/>
<!-- Node1 -->
<g id="node1" class="node"><title>Node1</title>
<polygon fill="#bfbfbf" stroke="black" points="0,-22.5 0,-41.5 140,-41.5 140,-22.5 0,-22.5"/>
<text text-anchor="middle" x="70" y="-29.5" font-family="Helvetica,sans-Serif" font-size="10.00">XML.XMLParser.XMLParser</text>
</g>
<!-- Node2 -->
<g id="node2" class="node"><title>Node2</title>
<g id="a_node2"><a xlink:href="../../dc/db8/class_x_m_l_1_1_x_m_l_parser.html#a7f41cfab2b1f13e0957bcbdcedc9da0d" target="_top" xlink:title="XML.XMLParser.configureFile\lChooser">
<polygon fill="white" stroke="black" points="176,-39 176,-69 326,-69 326,-39 176,-39"/>
<text text-anchor="start" x="184" y="-57" font-family="Helvetica,sans-Serif" font-size="10.00">XML.XMLParser.configureFile</text>
<text text-anchor="middle" x="251" y="-46" font-family="Helvetica,sans-Serif" font-size="10.00">Chooser</text>
</a>
</g>
</g>
<!-- Node1&#45;&gt;Node2 -->
<g id="edge1" class="edge"><title>Node1&#45;&gt;Node2</title>
<path fill="none" stroke="midnightblue" d="M140.206,-40.5058C148.621,-41.54 157.288,-42.6052 165.888,-43.6623"/>
<polygon fill="midnightblue" stroke="midnightblue" points="165.583,-47.151 175.935,-44.8971 166.437,-40.2032 165.583,-47.151"/>
</g>
<!-- Node3 -->
<g id="node3" class="node"><title>Node3</title>
<g id="a_node3"><a xlink:href="../../dc/db8/class_x_m_l_1_1_x_m_l_parser.html#a17ffb681657598ffa2e2cafaf946e601" target="_top" xlink:title="XML.XMLParser.parseFile">
<polygon fill="white" stroke="black" points="184.5,-0.5 184.5,-19.5 317.5,-19.5 317.5,-0.5 184.5,-0.5"/>
<text text-anchor="middle" x="251" y="-7.5" font-family="Helvetica,sans-Serif" font-size="10.00">XML.XMLParser.parseFile</text>
</a>
</g>
</g>
<!-- Node1&#45;&gt;Node3 -->
<g id="edge2" class="edge"><title>Node1&#45;&gt;Node3</title>
<path fill="none" stroke="midnightblue" d="M140.206,-23.4942C151.278,-22.1334 162.788,-20.7188 174.008,-19.3398"/>
<polygon fill="midnightblue" stroke="midnightblue" points="174.711,-22.7798 184.21,-18.086 173.857,-15.832 174.711,-22.7798"/>
</g>
</g>
</svg>
