<?xml version="1.0" encoding="UTF-8" standalone="no"?>
<!DOCTYPE svg PUBLIC "-//W3C//DTD SVG 1.1//EN"
 "http://www.w3.org/Graphics/SVG/1.1/DTD/svg11.dtd">
<!-- Generated by graphviz version 2.36.0 (20140111.2315)
 -->
<!-- Title: gui.nonbuttonfeatures.tableviews.UserDefinedCommandsFeature Pages: 1 -->
<svg width="218pt" height="108pt"
 viewBox="0.00 0.00 218.00 108.00" xmlns="http://www.w3.org/2000/svg" xmlns:xlink="http://www.w3.org/1999/xlink">
<g id="graph0" class="graph" transform="scale(1 1) rotate(0) translate(4 104)">
<title>gui.nonbuttonfeatures.tableviews.UserDefinedCommandsFeature</title>
<polygon fill="white" stroke="none" points="-4,4 -4,-104 214,-104 214,4 -4,4"/>
<!-- Node1 -->
<g id="node1" class="node"><title>Node1</title>
<polygon fill="#bfbfbf" stroke="black" points="15.5,-1 15.5,-31 194.5,-31 194.5,-1 15.5,-1"/>
<text text-anchor="start" x="23.5" y="-19" font-family="Helvetica,sans-Serif" font-size="10.00">gui.nonbuttonfeatures.tableviews.</text>
<text text-anchor="middle" x="105" y="-8" font-family="Helvetica,sans-Serif" font-size="10.00">UserDefinedCommandsFeature</text>
</g>
<!-- Node2 -->
<g id="node2" class="node"><title>Node2</title>
<polygon fill="white" stroke="#bfbfbf" points="0,-69 0,-99 210,-99 210,-69 0,-69"/>
<text text-anchor="start" x="8" y="-87" font-family="Helvetica,sans-Serif" font-size="10.00">javafx::scene::control</text>
<text text-anchor="middle" x="105" y="-76" font-family="Helvetica,sans-Serif" font-size="10.00">::TableView&lt; DisplayedUserCommand &gt;</text>
</g>
<!-- Node2&#45;&gt;Node1 -->
<g id="edge1" class="edge"><title>Node2&#45;&gt;Node1</title>
<path fill="none" stroke="midnightblue" d="M105,-58.5322C105,-49.3606 105,-39.2449 105,-31.2931"/>
<polygon fill="midnightblue" stroke="midnightblue" points="101.5,-58.6789 105,-68.679 108.5,-58.679 101.5,-58.6789"/>
</g>
</g>
</svg>
