<?xml version="1.0" encoding="UTF-8" standalone="no"?>
<!DOCTYPE svg PUBLIC "-//W3C//DTD SVG 1.1//EN"
 "http://www.w3.org/Graphics/SVG/1.1/DTD/svg11.dtd">
<!-- Generated by graphviz version 2.36.0 (20140111.2315)
 -->
<!-- Title: commandParsing.drawableObectGenerationInterfaces.ShapePaletteUpdateGenerator Pages: 1 -->
<svg width="222pt" height="118pt"
 viewBox="0.00 0.00 222.00 118.00" xmlns="http://www.w3.org/2000/svg" xmlns:xlink="http://www.w3.org/1999/xlink">
<g id="graph0" class="graph" transform="scale(1 1) rotate(0) translate(4 114)">
<title>commandParsing.drawableObectGenerationInterfaces.ShapePaletteUpdateGenerator</title>
<polygon fill="white" stroke="none" points="-4,4 -4,-114 218,-114 218,4 -4,4"/>
<!-- Node1 -->
<g id="node1" class="node"><title>Node1</title>
<polygon fill="#bfbfbf" stroke="black" points="15,-68.5 15,-109.5 199,-109.5 199,-68.5 15,-68.5"/>
<text text-anchor="start" x="23" y="-97.5" font-family="Helvetica,sans-Serif" font-size="10.00">commandParsing.drawableObect</text>
<text text-anchor="start" x="23" y="-86.5" font-family="Helvetica,sans-Serif" font-size="10.00">GenerationInterfaces.ShapePalette</text>
<text text-anchor="middle" x="107" y="-75.5" font-family="Helvetica,sans-Serif" font-size="10.00">UpdateGenerator</text>
</g>
<!-- Node2 -->
<g id="node2" class="node"><title>Node2</title>
<g id="a_node2"><a xlink:href="../../d4/d75/classcommand_parsing_1_1color_commandparsing_1_1_set_shape_palette.html" target="_top" xlink:title="commandParsing.colorCommandparsing.\lSetShapePalette">
<polygon fill="white" stroke="black" points="-0.5,-1 -0.5,-31 214.5,-31 214.5,-1 -0.5,-1"/>
<text text-anchor="start" x="7.5" y="-19" font-family="Helvetica,sans-Serif" font-size="10.00">commandParsing.colorCommandparsing.</text>
<text text-anchor="middle" x="107" y="-8" font-family="Helvetica,sans-Serif" font-size="10.00">SetShapePalette</text>
</a>
</g>
</g>
<!-- Node1&#45;&gt;Node2 -->
<g id="edge1" class="edge"><title>Node1&#45;&gt;Node2</title>
<path fill="none" stroke="midnightblue" d="M107,-58.0188C107,-48.6567 107,-38.7696 107,-31.0485"/>
<polygon fill="midnightblue" stroke="midnightblue" points="103.5,-58.2225 107,-68.2225 110.5,-58.2226 103.5,-58.2225"/>
</g>
</g>
</svg>
