<?xml version="1.0" encoding="UTF-8" standalone="no"?>
<!DOCTYPE svg PUBLIC "-//W3C//DTD SVG 1.1//EN"
 "http://www.w3.org/Graphics/SVG/1.1/DTD/svg11.dtd">
<!-- Generated by graphviz version 2.36.0 (20140111.2315)
 -->
<!-- Title: commandParsing.structuralCommandParsing.DoTimes Pages: 1 -->
<svg width="1950pt" height="291pt"
 viewBox="0.00 0.00 1950.00 291.00" xmlns="http://www.w3.org/2000/svg" xmlns:xlink="http://www.w3.org/1999/xlink">
<g id="graph0" class="graph" transform="scale(1 1) rotate(0) translate(4 287)">
<title>commandParsing.structuralCommandParsing.DoTimes</title>
<polygon fill="white" stroke="none" points="-4,4 -4,-287 1946,-287 1946,4 -4,4"/>
<!-- Node1 -->
<g id="node1" class="node"><title>Node1</title>
<polygon fill="#bfbfbf" stroke="black" points="1792.5,-83 1792.5,-113 1941.5,-113 1941.5,-83 1792.5,-83"/>
<text text-anchor="start" x="1800.5" y="-101" font-family="Helvetica,sans-Serif" font-size="10.00">commandParsing.structural</text>
<text text-anchor="middle" x="1867" y="-90" font-family="Helvetica,sans-Serif" font-size="10.00">CommandParsing.DoTimes</text>
</g>
<!-- Node2 -->
<g id="node2" class="node"><title>Node2</title>
<g id="a_node2"><a xlink:href="../../d0/dfe/classcommand_parsing_1_1structural_command_parsing_1_1_recurring_command.html" target="_top" xlink:title="commandParsing.structural\lCommandParsing.RecurringCommand">
<polygon fill="white" stroke="black" points="1554.5,-83 1554.5,-113 1753.5,-113 1753.5,-83 1554.5,-83"/>
<text text-anchor="start" x="1562.5" y="-101" font-family="Helvetica,sans-Serif" font-size="10.00">commandParsing.structural</text>
<text text-anchor="middle" x="1654" y="-90" font-family="Helvetica,sans-Serif" font-size="10.00">CommandParsing.RecurringCommand</text>
</a>
</g>
</g>
<!-- Node2&#45;&gt;Node1 -->
<g id="edge1" class="edge"><title>Node2&#45;&gt;Node1</title>
<path fill="none" stroke="midnightblue" d="M1763.76,-98C1773.4,-98 1783.01,-98 1792.26,-98"/>
<polygon fill="midnightblue" stroke="midnightblue" points="1763.7,-94.5001 1753.7,-98 1763.7,-101.5 1763.7,-94.5001"/>
</g>
<!-- Node3 -->
<g id="node3" class="node"><title>Node3</title>
<g id="a_node3"><a xlink:href="../../de/dcc/classcommand_parsing_1_1structural_command_parsing_1_1_structural_command.html" target="_top" xlink:title="commandParsing.structural\lCommandParsing.StructuralCommand">
<polygon fill="white" stroke="black" points="1314,-118 1314,-148 1516,-148 1516,-118 1314,-118"/>
<text text-anchor="start" x="1322" y="-136" font-family="Helvetica,sans-Serif" font-size="10.00">commandParsing.structural</text>
<text text-anchor="middle" x="1415" y="-125" font-family="Helvetica,sans-Serif" font-size="10.00">CommandParsing.StructuralCommand</text>
</a>
</g>
</g>
<!-- Node3&#45;&gt;Node2 -->
<g id="edge2" class="edge"><title>Node3&#45;&gt;Node2</title>
<path fill="none" stroke="midnightblue" d="M1526.28,-116.714C1535.64,-115.332 1545.07,-113.939 1554.33,-112.572"/>
<polygon fill="midnightblue" stroke="midnightblue" points="1525.55,-113.284 1516.17,-118.208 1526.57,-120.209 1525.55,-113.284"/>
</g>
<!-- Node4 -->
<g id="node4" class="node"><title>Node4</title>
<g id="a_node4"><a xlink:href="../../d7/d17/classcommand_parsing_1_1_command_parser.html" target="_top" xlink:title="commandParsing.CommandParser">
<polygon fill="white" stroke="black" points="992.5,-148.5 992.5,-167.5 1175.5,-167.5 1175.5,-148.5 992.5,-148.5"/>
<text text-anchor="middle" x="1084" y="-155.5" font-family="Helvetica,sans-Serif" font-size="10.00">commandParsing.CommandParser</text>
</a>
</g>
</g>
<!-- Node4&#45;&gt;Node3 -->
<g id="edge3" class="edge"><title>Node4&#45;&gt;Node3</title>
<path fill="none" stroke="midnightblue" d="M1185.97,-150.327C1226.64,-147.237 1273.42,-143.682 1313.99,-140.6"/>
<polygon fill="midnightblue" stroke="midnightblue" points="1185.48,-146.855 1175.77,-151.102 1186.01,-153.835 1185.48,-146.855"/>
</g>
<!-- Node5 -->
<g id="node5" class="node"><title>Node5</title>
<polygon fill="white" stroke="#bfbfbf" points="719.5,-165.5 719.5,-184.5 808.5,-184.5 808.5,-165.5 719.5,-165.5"/>
<text text-anchor="middle" x="764" y="-172.5" font-family="Helvetica,sans-Serif" font-size="10.00">List&lt; Double &gt;</text>
</g>
<!-- Node5&#45;&gt;Node4 -->
<g id="edge4" class="edge"><title>Node5&#45;&gt;Node4</title>
<path fill="none" stroke="#9a32cd" stroke-dasharray="5,2" d="M818.61,-172.134C866.047,-169.598 936.254,-165.845 992.401,-162.843"/>
<polygon fill="#9a32cd" stroke="#9a32cd" points="818.349,-168.643 808.55,-172.672 818.722,-175.633 818.349,-168.643"/>
<text text-anchor="middle" x="915" y="-173" font-family="Helvetica,sans-Serif" font-size="10.00"> expressionComponents</text>
</g>
<!-- Node6 -->
<g id="node6" class="node"><title>Node6</title>
<g id="a_node6"><a xlink:href="../../d5/daa/classworkspace_state_1_1_workspace_state.html" target="_top" xlink:title="workspaceState.Workspace\lState">
<polygon fill="white" stroke="black" points="690.5,-116 690.5,-146 837.5,-146 837.5,-116 690.5,-116"/>
<text text-anchor="start" x="698.5" y="-134" font-family="Helvetica,sans-Serif" font-size="10.00">workspaceState.Workspace</text>
<text text-anchor="middle" x="764" y="-123" font-family="Helvetica,sans-Serif" font-size="10.00">State</text>
</a>
</g>
</g>
<!-- Node6&#45;&gt;Node4 -->
<g id="edge5" class="edge"><title>Node6&#45;&gt;Node4</title>
<path fill="none" stroke="#9a32cd" stroke-dasharray="5,2" d="M847.719,-138.023C892.054,-141.788 946.759,-146.432 992.259,-150.296"/>
<polygon fill="#9a32cd" stroke="#9a32cd" points="847.817,-134.519 837.557,-137.161 847.225,-141.494 847.817,-134.519"/>
<text text-anchor="middle" x="915" y="-152" font-family="Helvetica,sans-Serif" font-size="10.00"> workspace</text>
</g>
<!-- Node7 -->
<g id="node7" class="node"><title>Node7</title>
<g id="a_node7"><a xlink:href="../../db/d1f/classworkspace_state_1_1_turtle_collection.html" target="_top" xlink:title="workspaceState.TurtleCollection">
<polygon fill="white" stroke="black" points="420,-238.5 420,-257.5 588,-257.5 588,-238.5 420,-238.5"/>
<text text-anchor="middle" x="504" y="-245.5" font-family="Helvetica,sans-Serif" font-size="10.00">workspaceState.TurtleCollection</text>
</a>
</g>
</g>
<!-- Node7&#45;&gt;Node6 -->
<g id="edge6" class="edge"><title>Node7&#45;&gt;Node6</title>
<path fill="none" stroke="#9a32cd" stroke-dasharray="5,2" d="M552.808,-235.667C564.397,-232.426 576.702,-228.773 588,-225 626.045,-212.294 642.399,-219.068 672,-192 685.201,-179.928 676.534,-167.776 690,-156 694.437,-152.12 699.505,-148.835 704.857,-146.055"/>
<polygon fill="#9a32cd" stroke="#9a32cd" points="551.566,-232.378 542.85,-238.402 553.42,-239.128 551.566,-232.378"/>
<text text-anchor="middle" x="639" y="-223" font-family="Helvetica,sans-Serif" font-size="10.00"> turtles</text>
</g>
<!-- Node8 -->
<g id="node8" class="node"><title>Node8</title>
<polygon fill="white" stroke="#bfbfbf" points="35.5,-235 35.5,-265 202.5,-265 202.5,-235 35.5,-235"/>
<text text-anchor="start" x="43.5" y="-253" font-family="Helvetica,sans-Serif" font-size="10.00">Map&lt; Integer, workspaceState.</text>
<text text-anchor="middle" x="119" y="-242" font-family="Helvetica,sans-Serif" font-size="10.00">Turtle &gt;</text>
</g>
<!-- Node8&#45;&gt;Node7 -->
<g id="edge7" class="edge"><title>Node8&#45;&gt;Node7</title>
<path fill="none" stroke="#9a32cd" stroke-dasharray="5,2" d="M212.989,-249.514C276.13,-249.185 358.905,-248.752 419.854,-248.434"/>
<polygon fill="#9a32cd" stroke="#9a32cd" points="212.615,-246.016 202.634,-249.568 212.652,-253.016 212.615,-246.016"/>
<text text-anchor="middle" x="329" y="-275" font-family="Helvetica,sans-Serif" font-size="10.00"> turtles</text>
<text text-anchor="middle" x="329" y="-264" font-family="Helvetica,sans-Serif" font-size="10.00">activeTurtles</text>
<text text-anchor="middle" x="329" y="-253" font-family="Helvetica,sans-Serif" font-size="10.00">turtleStamps</text>
</g>
<!-- Node9 -->
<g id="node9" class="node"><title>Node9</title>
<g id="a_node9"><a xlink:href="../../d2/df5/classworkspace_state_1_1_palette.html" target="_top" xlink:title="workspaceState.Palette\l\&lt; workspaceState.Shape \&gt;">
<polygon fill="white" stroke="black" points="429.5,-186 429.5,-216 578.5,-216 578.5,-186 429.5,-186"/>
<text text-anchor="start" x="437.5" y="-204" font-family="Helvetica,sans-Serif" font-size="10.00">workspaceState.Palette</text>
<text text-anchor="middle" x="504" y="-193" font-family="Helvetica,sans-Serif" font-size="10.00">&lt; workspaceState.Shape &gt;</text>
</a>
</g>
</g>
<!-- Node9&#45;&gt;Node6 -->
<g id="edge8" class="edge"><title>Node9&#45;&gt;Node6</title>
<path fill="none" stroke="#9a32cd" stroke-dasharray="5,2" d="M577.996,-183.517C607.304,-176.27 641.345,-167.565 672,-159 686.328,-154.997 701.829,-150.348 715.907,-146.002"/>
<polygon fill="#9a32cd" stroke="#9a32cd" points="577.123,-180.127 568.249,-185.917 578.796,-186.924 577.123,-180.127"/>
<text text-anchor="middle" x="639" y="-180" font-family="Helvetica,sans-Serif" font-size="10.00"> shapePalette</text>
</g>
<!-- Node10 -->
<g id="node10" class="node"><title>Node10</title>
<g id="a_node10"><a xlink:href="../../dd/d73/classworkspace_state_1_1_user_defined_variable_collection.html" target="_top" xlink:title="workspaceState.UserDefined\lVariableCollection">
<polygon fill="white" stroke="black" points="426.5,-137 426.5,-167 581.5,-167 581.5,-137 426.5,-137"/>
<text text-anchor="start" x="434.5" y="-155" font-family="Helvetica,sans-Serif" font-size="10.00">workspaceState.UserDefined</text>
<text text-anchor="middle" x="504" y="-144" font-family="Helvetica,sans-Serif" font-size="10.00">VariableCollection</text>
</a>
</g>
</g>
<!-- Node10&#45;&gt;Node6 -->
<g id="edge9" class="edge"><title>Node10&#45;&gt;Node6</title>
<path fill="none" stroke="#9a32cd" stroke-dasharray="5,2" d="M591.921,-144.925C623.823,-142.328 659.581,-139.418 690.125,-136.932"/>
<polygon fill="#9a32cd" stroke="#9a32cd" points="591.393,-141.456 581.71,-145.756 591.961,-148.433 591.393,-141.456"/>
<text text-anchor="middle" x="639" y="-147" font-family="Helvetica,sans-Serif" font-size="10.00"> variables</text>
</g>
<!-- Node11 -->
<g id="node11" class="node"><title>Node11</title>
<polygon fill="white" stroke="#bfbfbf" points="39.5,-186 39.5,-216 198.5,-216 198.5,-186 39.5,-186"/>
<text text-anchor="start" x="47.5" y="-204" font-family="Helvetica,sans-Serif" font-size="10.00">Map&lt; String, gui.variableslist.</text>
<text text-anchor="middle" x="119" y="-193" font-family="Helvetica,sans-Serif" font-size="10.00">WorkspaceVariable &gt;</text>
</g>
<!-- Node11&#45;&gt;Node10 -->
<g id="edge10" class="edge"><title>Node11&#45;&gt;Node10</title>
<path fill="none" stroke="#9a32cd" stroke-dasharray="5,2" d="M208.945,-190.909C264.493,-184.45 337.472,-175.68 402,-167 409.906,-165.937 418.153,-164.783 426.378,-163.605"/>
<polygon fill="#9a32cd" stroke="#9a32cd" points="208.312,-187.459 198.782,-192.088 209.118,-194.413 208.312,-187.459"/>
<text text-anchor="middle" x="329" y="-188" font-family="Helvetica,sans-Serif" font-size="10.00"> variableMap</text>
</g>
<!-- Node12 -->
<g id="node12" class="node"><title>Node12</title>
<g id="a_node12"><a xlink:href="../../d9/da1/classgui_1_1variableslist_1_1_workspace_variable.html" target="_top" xlink:title="gui.variableslist.Workspace\lVariable">
<polygon fill="white" stroke="black" points="47,-137 47,-167 191,-167 191,-137 47,-137"/>
<text text-anchor="start" x="55" y="-155" font-family="Helvetica,sans-Serif" font-size="10.00">gui.variableslist.Workspace</text>
<text text-anchor="middle" x="119" y="-144" font-family="Helvetica,sans-Serif" font-size="10.00">Variable</text>
</a>
</g>
</g>
<!-- Node12&#45;&gt;Node10 -->
<g id="edge11" class="edge"><title>Node12&#45;&gt;Node10</title>
<path fill="none" stroke="#9a32cd" stroke-dasharray="5,2" d="M201.162,-152C267.654,-152 361.086,-152 426.327,-152"/>
<polygon fill="#9a32cd" stroke="#9a32cd" points="201.142,-148.5 191.142,-152 201.142,-155.5 201.142,-148.5"/>
<text text-anchor="middle" x="329" y="-155" font-family="Helvetica,sans-Serif" font-size="10.00"> defaultVar</text>
</g>
<!-- Node13 -->
<g id="node13" class="node"><title>Node13</title>
<g id="a_node13"><a xlink:href="../../d2/d58/classworkspace_state_1_1_user_defined_command_collection.html" target="_top" xlink:title="workspaceState.UserDefined\lCommandCollection">
<polygon fill="white" stroke="black" points="426.5,-88 426.5,-118 581.5,-118 581.5,-88 426.5,-88"/>
<text text-anchor="start" x="434.5" y="-106" font-family="Helvetica,sans-Serif" font-size="10.00">workspaceState.UserDefined</text>
<text text-anchor="middle" x="504" y="-95" font-family="Helvetica,sans-Serif" font-size="10.00">CommandCollection</text>
</a>
</g>
</g>
<!-- Node13&#45;&gt;Node6 -->
<g id="edge12" class="edge"><title>Node13&#45;&gt;Node6</title>
<path fill="none" stroke="#9a32cd" stroke-dasharray="5,2" d="M591.921,-112.433C623.823,-115.896 659.581,-119.776 690.125,-123.091"/>
<polygon fill="#9a32cd" stroke="#9a32cd" points="592.029,-108.925 581.71,-111.325 591.274,-115.884 592.029,-108.925"/>
<text text-anchor="middle" x="639" y="-124" font-family="Helvetica,sans-Serif" font-size="10.00"> commands</text>
</g>
<!-- Node14 -->
<g id="node14" class="node"><title>Node14</title>
<polygon fill="white" stroke="#bfbfbf" points="0.5,-88 0.5,-118 237.5,-118 237.5,-88 0.5,-88"/>
<text text-anchor="start" x="8.5" y="-106" font-family="Helvetica,sans-Serif" font-size="10.00">Map&lt; String, workspaceState.</text>
<text text-anchor="middle" x="119" y="-95" font-family="Helvetica,sans-Serif" font-size="10.00">UserDefinedCommandCollection.Command &gt;</text>
</g>
<!-- Node14&#45;&gt;Node13 -->
<g id="edge13" class="edge"><title>Node14&#45;&gt;Node13</title>
<path fill="none" stroke="#9a32cd" stroke-dasharray="5,2" d="M247.683,-103C306.827,-103 375.141,-103 426.215,-103"/>
<polygon fill="#9a32cd" stroke="#9a32cd" points="247.516,-99.5001 237.515,-103 247.515,-106.5 247.516,-99.5001"/>
<text text-anchor="middle" x="329" y="-106" font-family="Helvetica,sans-Serif" font-size="10.00"> commandMap</text>
</g>
<!-- Node15 -->
<g id="node15" class="node"><title>Node15</title>
<g id="a_node15"><a xlink:href="../../d3/de0/classtranslator_1_1_translator.html" target="_top" xlink:title="translator.Translator">
<polygon fill="white" stroke="black" points="448,-49.5 448,-68.5 560,-68.5 560,-49.5 448,-49.5"/>
<text text-anchor="middle" x="504" y="-56.5" font-family="Helvetica,sans-Serif" font-size="10.00">translator.Translator</text>
</a>
</g>
</g>
<!-- Node15&#45;&gt;Node6 -->
<g id="edge14" class="edge"><title>Node15&#45;&gt;Node6</title>
<path fill="none" stroke="#9a32cd" stroke-dasharray="5,2" d="M557.637,-70.7895C567.728,-73.1233 578.202,-75.596 588,-78 625.481,-87.1958 635.044,-88.8816 672,-100 687.983,-104.808 705.364,-110.59 720.613,-115.852"/>
<polygon fill="#9a32cd" stroke="#9a32cd" points="558.241,-67.3373 547.711,-68.5097 556.674,-74.1596 558.241,-67.3373"/>
<text text-anchor="middle" x="639" y="-103" font-family="Helvetica,sans-Serif" font-size="10.00"> translator</text>
</g>
<!-- Node16 -->
<g id="node16" class="node"><title>Node16</title>
<polygon fill="white" stroke="#bfbfbf" points="58,-4.5 58,-23.5 180,-23.5 180,-4.5 58,-4.5"/>
<text text-anchor="middle" x="119" y="-11.5" font-family="Helvetica,sans-Serif" font-size="10.00">Map&lt; String, String &gt;</text>
</g>
<!-- Node16&#45;&gt;Node15 -->
<g id="edge15" class="edge"><title>Node16&#45;&gt;Node15</title>
<path fill="none" stroke="#9a32cd" stroke-dasharray="5,2" d="M190.327,-13.7993C247.772,-14.8131 330.809,-18.9751 402,-33 410.274,-34.6299 411.894,-36.6768 420,-39 432.966,-42.7159 447.202,-46.3172 460.166,-49.4158"/>
<polygon fill="#9a32cd" stroke="#9a32cd" points="190.316,-10.2988 180.265,-13.6493 190.211,-17.2981 190.316,-10.2988"/>
<text text-anchor="middle" x="329" y="-91" font-family="Helvetica,sans-Serif" font-size="10.00"> dictionaryOfClassNameToPath</text>
<text text-anchor="middle" x="329" y="-80" font-family="Helvetica,sans-Serif" font-size="10.00">reverseMapping</text>
<text text-anchor="start" x="256" y="-69" font-family="Helvetica,sans-Serif" font-size="10.00">dictionaryOfLanguageToClass</text>
<text text-anchor="middle" x="329" y="-58" font-family="Helvetica,sans-Serif" font-size="10.00">Path</text>
<text text-anchor="middle" x="329" y="-47" font-family="Helvetica,sans-Serif" font-size="10.00">syntaxDictionary</text>
<text text-anchor="middle" x="329" y="-36" font-family="Helvetica,sans-Serif" font-size="10.00">dictionaryLanguageToEnglish</text>
</g>
<!-- Node17 -->
<g id="node17" class="node"><title>Node17</title>
<g id="a_node17"><a xlink:href="../../d2/df5/classworkspace_state_1_1_palette.html" target="_top" xlink:title="workspaceState.Palette\l\&lt; Color \&gt;">
<polygon fill="white" stroke="black" points="439.5,-0 439.5,-30 568.5,-30 568.5,-0 439.5,-0"/>
<text text-anchor="start" x="447.5" y="-18" font-family="Helvetica,sans-Serif" font-size="10.00">workspaceState.Palette</text>
<text text-anchor="middle" x="504" y="-7" font-family="Helvetica,sans-Serif" font-size="10.00">&lt; Color &gt;</text>
</a>
</g>
</g>
<!-- Node17&#45;&gt;Node6 -->
<g id="edge16" class="edge"><title>Node17&#45;&gt;Node6</title>
<path fill="none" stroke="#9a32cd" stroke-dasharray="5,2" d="M565.777,-33.0835C573.272,-35.3791 580.819,-37.7221 588,-40 625.511,-51.8983 636.802,-50.4009 672,-68 698.811,-81.4056 726.738,-101.867 744.465,-115.808"/>
<polygon fill="#9a32cd" stroke="#9a32cd" points="566.576,-29.668 555.99,-30.1025 564.536,-36.3643 566.576,-29.668"/>
<text text-anchor="middle" x="639" y="-71" font-family="Helvetica,sans-Serif" font-size="10.00"> colorPalette</text>
</g>
<!-- Node18 -->
<g id="node18" class="node"><title>Node18</title>
<polygon fill="white" stroke="#bfbfbf" points="1042,-110.5 1042,-129.5 1126,-129.5 1126,-110.5 1042,-110.5"/>
<text text-anchor="middle" x="1084" y="-117.5" font-family="Helvetica,sans-Serif" font-size="10.00">List&lt; String &gt;</text>
</g>
<!-- Node18&#45;&gt;Node3 -->
<g id="edge17" class="edge"><title>Node18&#45;&gt;Node3</title>
<path fill="none" stroke="#9a32cd" stroke-dasharray="5,2" d="M1136.4,-121.452C1179.13,-122.72 1241.53,-124.712 1296,-127 1301.84,-127.245 1307.84,-127.51 1313.9,-127.788"/>
<polygon fill="#9a32cd" stroke="#9a32cd" points="1136.35,-117.949 1126.25,-121.153 1136.14,-124.946 1136.35,-117.949"/>
<text text-anchor="middle" x="1245" y="-130" font-family="Helvetica,sans-Serif" font-size="10.00"> enclosedCommands</text>
</g>
<!-- Node19 -->
<g id="node19" class="node"><title>Node19</title>
<g id="a_node19"><a xlink:href="../../d5/dc4/interfacecommand_parsing_1_1drawable_obect_generation_interfaces_1_1_user_defined_variable_generator.html" target="_top" xlink:title="commandParsing.drawableObect\lGenerationInterfaces.UserDefined\lVariableGenerator">
<polygon fill="white" stroke="black" points="1325.5,-58.5 1325.5,-99.5 1504.5,-99.5 1504.5,-58.5 1325.5,-58.5"/>
<text text-anchor="start" x="1333.5" y="-87.5" font-family="Helvetica,sans-Serif" font-size="10.00">commandParsing.drawableObect</text>
<text text-anchor="start" x="1333.5" y="-76.5" font-family="Helvetica,sans-Serif" font-size="10.00">GenerationInterfaces.UserDefined</text>
<text text-anchor="middle" x="1415" y="-65.5" font-family="Helvetica,sans-Serif" font-size="10.00">VariableGenerator</text>
</a>
</g>
</g>
<!-- Node19&#45;&gt;Node2 -->
<g id="edge18" class="edge"><title>Node19&#45;&gt;Node2</title>
<path fill="none" stroke="midnightblue" d="M1514.91,-86.9299C1527.89,-87.9704 1541.2,-89.0367 1554.17,-90.0771"/>
<polygon fill="midnightblue" stroke="midnightblue" points="1514.83,-83.4123 1504.59,-86.1019 1514.28,-90.3899 1514.83,-83.4123"/>
</g>
</g>
</svg>
