<?xml version="1.0" encoding="UTF-8" standalone="no"?>
<!DOCTYPE svg PUBLIC "-//W3C//DTD SVG 1.1//EN"
 "http://www.w3.org/Graphics/SVG/1.1/DTD/svg11.dtd">
<!-- Generated by graphviz version 2.36.0 (20140111.2315)
 -->
<!-- Title: gui.nonbuttonfeatures.tableviews.UserDefinedCommandsFeature.UserDefinedCommandsFeature Pages: 1 -->
<svg width="762pt" height="106pt"
 viewBox="0.00 0.00 762.00 106.00" xmlns="http://www.w3.org/2000/svg" xmlns:xlink="http://www.w3.org/1999/xlink">
<g id="graph0" class="graph" transform="scale(1 1) rotate(0) translate(4 102)">
<title>gui.nonbuttonfeatures.tableviews.UserDefinedCommandsFeature.UserDefinedCommandsFeature</title>
<polygon fill="white" stroke="none" points="-4,4 -4,-102 758,-102 758,4 -4,4"/>
<!-- Node1 -->
<g id="node1" class="node"><title>Node1</title>
<polygon fill="#bfbfbf" stroke="black" points="0,-42.5 0,-83.5 230,-83.5 230,-42.5 0,-42.5"/>
<text text-anchor="start" x="8" y="-71.5" font-family="Helvetica,sans-Serif" font-size="10.00">gui.nonbuttonfeatures.tableviews.</text>
<text text-anchor="start" x="8" y="-60.5" font-family="Helvetica,sans-Serif" font-size="10.00">UserDefinedCommandsFeature.UserDefined</text>
<text text-anchor="middle" x="115" y="-49.5" font-family="Helvetica,sans-Serif" font-size="10.00">CommandsFeature</text>
</g>
<!-- Node2 -->
<g id="node2" class="node"><title>Node2</title>
<g id="a_node2"><a xlink:href="../../d0/d49/classgui_1_1mainclasses_1_1_text_generator.html#afef308a2abfb8f1503d2b276407833e6" target="_top" xlink:title="gui.mainclasses.TextGenerator.get">
<polygon fill="white" stroke="black" points="298,-78.5 298,-97.5 480,-97.5 480,-78.5 298,-78.5"/>
<text text-anchor="middle" x="389" y="-85.5" font-family="Helvetica,sans-Serif" font-size="10.00">gui.mainclasses.TextGenerator.get</text>
</a>
</g>
</g>
<!-- Node1&#45;&gt;Node2 -->
<g id="edge1" class="edge"><title>Node1&#45;&gt;Node2</title>
<path fill="none" stroke="midnightblue" d="M230.17,-73.4936C249.272,-75.2492 268.963,-77.0591 287.683,-78.7797"/>
<polygon fill="midnightblue" stroke="midnightblue" points="287.395,-82.2679 297.674,-79.698 288.036,-75.2973 287.395,-82.2679"/>
</g>
<!-- Node3 -->
<g id="node3" class="node"><title>Node3</title>
<g id="a_node3"><a xlink:href="../../de/d51/classgui_1_1nonbuttonfeatures_1_1tableviews_1_1_user_defined_commands_feature.html#ab93818a1f86fa09c23c5f2c749869a31" target="_top" xlink:title="gui.nonbuttonfeatures.tableviews.\lUserDefinedCommandsFeature.showCommand\lContent">
<polygon fill="white" stroke="black" points="266.5,-18.5 266.5,-59.5 511.5,-59.5 511.5,-18.5 266.5,-18.5"/>
<text text-anchor="start" x="274.5" y="-47.5" font-family="Helvetica,sans-Serif" font-size="10.00">gui.nonbuttonfeatures.tableviews.</text>
<text text-anchor="start" x="274.5" y="-36.5" font-family="Helvetica,sans-Serif" font-size="10.00">UserDefinedCommandsFeature.showCommand</text>
<text text-anchor="middle" x="389" y="-25.5" font-family="Helvetica,sans-Serif" font-size="10.00">Content</text>
</a>
</g>
</g>
<!-- Node1&#45;&gt;Node3 -->
<g id="edge2" class="edge"><title>Node1&#45;&gt;Node3</title>
<path fill="none" stroke="midnightblue" d="M230.17,-52.9262C238.739,-52.1701 247.426,-51.4036 256.091,-50.639"/>
<polygon fill="midnightblue" stroke="midnightblue" points="256.591,-54.1086 266.244,-49.7432 255.975,-47.1357 256.591,-54.1086"/>
</g>
<!-- Node4 -->
<g id="node4" class="node"><title>Node4</title>
<g id="a_node4"><a xlink:href="../../d2/df7/classgui_1_1factories_1_1userdefinedcommands_1_1_displayed_user_command.html#ab59ba023f49548e7b4064b225f149960" target="_top" xlink:title="gui.factories.userdefinedcommands.\lDisplayedUserCommand.getMyName">
<polygon fill="white" stroke="black" points="552.5,-49 552.5,-79 749.5,-79 749.5,-49 552.5,-49"/>
<text text-anchor="start" x="560.5" y="-67" font-family="Helvetica,sans-Serif" font-size="10.00">gui.factories.userdefinedcommands.</text>
<text text-anchor="middle" x="651" y="-56" font-family="Helvetica,sans-Serif" font-size="10.00">DisplayedUserCommand.getMyName</text>
</a>
</g>
</g>
<!-- Node3&#45;&gt;Node4 -->
<g id="edge3" class="edge"><title>Node3&#45;&gt;Node4</title>
<path fill="none" stroke="midnightblue" d="M511.626,-50.6948C521.836,-51.6765 532.115,-52.6649 542.209,-53.6355"/>
<polygon fill="midnightblue" stroke="midnightblue" points="541.944,-57.1261 552.233,-54.5994 542.614,-50.1582 541.944,-57.1261"/>
</g>
<!-- Node5 -->
<g id="node5" class="node"><title>Node5</title>
<g id="a_node5"><a xlink:href="../../d2/df7/classgui_1_1factories_1_1userdefinedcommands_1_1_displayed_user_command.html#a757d125067f0e2ff32089a1eae96849a" target="_top" xlink:title="gui.factories.userdefinedcommands.\lDisplayedUserCommand.getMyContent">
<polygon fill="white" stroke="black" points="548,-0 548,-30 754,-30 754,-0 548,-0"/>
<text text-anchor="start" x="556" y="-18" font-family="Helvetica,sans-Serif" font-size="10.00">gui.factories.userdefinedcommands.</text>
<text text-anchor="middle" x="651" y="-7" font-family="Helvetica,sans-Serif" font-size="10.00">DisplayedUserCommand.getMyContent</text>
</a>
</g>
</g>
<!-- Node3&#45;&gt;Node5 -->
<g id="edge4" class="edge"><title>Node3&#45;&gt;Node5</title>
<path fill="none" stroke="midnightblue" d="M511.626,-27.773C520.366,-26.9663 529.156,-26.1549 537.837,-25.3535"/>
<polygon fill="midnightblue" stroke="midnightblue" points="538.334,-28.8226 547.97,-24.4182 537.69,-21.8522 538.334,-28.8226"/>
</g>
</g>
</svg>
