<?xml version="1.0" encoding="UTF-8" standalone="no"?>
<!DOCTYPE svg PUBLIC "-//W3C//DTD SVG 1.1//EN"
 "http://www.w3.org/Graphics/SVG/1.1/DTD/svg11.dtd">
<!-- Generated by graphviz version 2.36.0 (20140111.2315)
 -->
<!-- Title: commandParsing.structuralCommandParsing.StructuralCommandOnBooleanSwitch Pages: 1 -->
<svg width="854pt" height="87pt"
 viewBox="0.00 0.00 854.00 87.00" xmlns="http://www.w3.org/2000/svg" xmlns:xlink="http://www.w3.org/1999/xlink">
<g id="graph0" class="graph" transform="scale(1 1) rotate(0) translate(4 83)">
<title>commandParsing.structuralCommandParsing.StructuralCommandOnBooleanSwitch</title>
<polygon fill="white" stroke="none" points="-4,4 -4,-83 850,-83 850,4 -4,4"/>
<!-- Node1 -->
<g id="node1" class="node"><title>Node1</title>
<polygon fill="#bfbfbf" stroke="black" points="458,-18.5 458,-59.5 660,-59.5 660,-18.5 458,-18.5"/>
<text text-anchor="start" x="466" y="-47.5" font-family="Helvetica,sans-Serif" font-size="10.00">commandParsing.structural</text>
<text text-anchor="start" x="466" y="-36.5" font-family="Helvetica,sans-Serif" font-size="10.00">CommandParsing.StructuralCommand</text>
<text text-anchor="middle" x="559" y="-25.5" font-family="Helvetica,sans-Serif" font-size="10.00">OnBooleanSwitch</text>
</g>
<!-- Node4 -->
<g id="node4" class="node"><title>Node4</title>
<g id="a_node4"><a xlink:href="../../d3/d0e/classcommand_parsing_1_1structural_command_parsing_1_1_if.html" target="_top" xlink:title="commandParsing.structural\lCommandParsing.If">
<polygon fill="white" stroke="black" points="696.5,-49 696.5,-79 845.5,-79 845.5,-49 696.5,-49"/>
<text text-anchor="start" x="704.5" y="-67" font-family="Helvetica,sans-Serif" font-size="10.00">commandParsing.structural</text>
<text text-anchor="middle" x="771" y="-56" font-family="Helvetica,sans-Serif" font-size="10.00">CommandParsing.If</text>
</a>
</g>
</g>
<!-- Node1&#45;&gt;Node4 -->
<g id="edge3" class="edge"><title>Node1&#45;&gt;Node4</title>
<path fill="none" stroke="midnightblue" d="M670.138,-52.1117C679.041,-53.1716 687.894,-54.2255 696.442,-55.243"/>
<polygon fill="midnightblue" stroke="midnightblue" points="670.423,-48.621 660.08,-50.9143 669.596,-55.5719 670.423,-48.621"/>
</g>
<!-- Node5 -->
<g id="node5" class="node"><title>Node5</title>
<g id="a_node5"><a xlink:href="../../d5/dd6/classcommand_parsing_1_1structural_command_parsing_1_1_if_else.html" target="_top" xlink:title="commandParsing.structural\lCommandParsing.IfElse">
<polygon fill="white" stroke="black" points="696.5,-0 696.5,-30 845.5,-30 845.5,-0 696.5,-0"/>
<text text-anchor="start" x="704.5" y="-18" font-family="Helvetica,sans-Serif" font-size="10.00">commandParsing.structural</text>
<text text-anchor="middle" x="771" y="-7" font-family="Helvetica,sans-Serif" font-size="10.00">CommandParsing.IfElse</text>
</a>
</g>
</g>
<!-- Node1&#45;&gt;Node5 -->
<g id="edge4" class="edge"><title>Node1&#45;&gt;Node5</title>
<path fill="none" stroke="midnightblue" d="M670.138,-26.4127C679.041,-25.3953 687.894,-24.3835 696.442,-23.4067"/>
<polygon fill="midnightblue" stroke="midnightblue" points="669.618,-22.9494 660.08,-27.5623 670.412,-29.9041 669.618,-22.9494"/>
</g>
<!-- Node2 -->
<g id="node2" class="node"><title>Node2</title>
<g id="a_node2"><a xlink:href="../../de/dcc/classcommand_parsing_1_1structural_command_parsing_1_1_structural_command.html" target="_top" xlink:title="commandParsing.structural\lCommandParsing.StructuralCommand">
<polygon fill="white" stroke="black" points="220,-24 220,-54 422,-54 422,-24 220,-24"/>
<text text-anchor="start" x="228" y="-42" font-family="Helvetica,sans-Serif" font-size="10.00">commandParsing.structural</text>
<text text-anchor="middle" x="321" y="-31" font-family="Helvetica,sans-Serif" font-size="10.00">CommandParsing.StructuralCommand</text>
</a>
</g>
</g>
<!-- Node2&#45;&gt;Node1 -->
<g id="edge1" class="edge"><title>Node2&#45;&gt;Node1</title>
<path fill="none" stroke="midnightblue" d="M432.096,-39C440.656,-39 449.27,-39 457.76,-39"/>
<polygon fill="midnightblue" stroke="midnightblue" points="432.085,-35.5001 422.085,-39 432.085,-42.5001 432.085,-35.5001"/>
</g>
<!-- Node3 -->
<g id="node3" class="node"><title>Node3</title>
<g id="a_node3"><a xlink:href="../../d7/d17/classcommand_parsing_1_1_command_parser.html" target="_top" xlink:title="commandParsing.CommandParser">
<polygon fill="white" stroke="black" points="0.5,-29.5 0.5,-48.5 183.5,-48.5 183.5,-29.5 0.5,-29.5"/>
<text text-anchor="middle" x="92" y="-36.5" font-family="Helvetica,sans-Serif" font-size="10.00">commandParsing.CommandParser</text>
</a>
</g>
</g>
<!-- Node3&#45;&gt;Node2 -->
<g id="edge2" class="edge"><title>Node3&#45;&gt;Node2</title>
<path fill="none" stroke="midnightblue" d="M193.768,-39C202.398,-39 211.127,-39 219.753,-39"/>
<polygon fill="midnightblue" stroke="midnightblue" points="193.695,-35.5001 183.695,-39 193.695,-42.5001 193.695,-35.5001"/>
</g>
</g>
</svg>
