<?xml version="1.0" encoding="UTF-8" standalone="no"?>
<!DOCTYPE svg PUBLIC "-//W3C//DTD SVG 1.1//EN"
 "http://www.w3.org/Graphics/SVG/1.1/DTD/svg11.dtd">
<!-- Generated by graphviz version 2.36.0 (20140111.2315)
 -->
<!-- Title: commandParsing.exceptions.CompileTimeParsingException.generateErrorMessage Pages: 1 -->
<svg width="578pt" height="48pt"
 viewBox="0.00 0.00 578.00 48.00" xmlns="http://www.w3.org/2000/svg" xmlns:xlink="http://www.w3.org/1999/xlink">
<g id="graph0" class="graph" transform="scale(1 1) rotate(0) translate(4 44)">
<title>commandParsing.exceptions.CompileTimeParsingException.generateErrorMessage</title>
<polygon fill="white" stroke="none" points="-4,4 -4,-44 574,-44 574,4 -4,4"/>
<!-- Node1 -->
<g id="node1" class="node"><title>Node1</title>
<polygon fill="#bfbfbf" stroke="black" points="0,0.5 0,-40.5 206,-40.5 206,0.5 0,0.5"/>
<text text-anchor="start" x="8" y="-28.5" font-family="Helvetica,sans-Serif" font-size="10.00">commandParsing.exceptions.</text>
<text text-anchor="start" x="8" y="-17.5" font-family="Helvetica,sans-Serif" font-size="10.00">CompileTimeParsingException.generate</text>
<text text-anchor="middle" x="103" y="-6.5" font-family="Helvetica,sans-Serif" font-size="10.00">ErrorMessage</text>
</g>
<!-- Node2 -->
<g id="node2" class="node"><title>Node2</title>
<g id="a_node2"><a xlink:href="../../da/de1/class_control_1_1_slogo_control.html#a3c55ba4e1dadbf4fbcd647017109fa9a" target="_top" xlink:title="Control.SlogoControl.parse\lCommandString">
<polygon fill="white" stroke="black" points="242,-5 242,-35 388,-35 388,-5 242,-5"/>
<text text-anchor="start" x="250" y="-23" font-family="Helvetica,sans-Serif" font-size="10.00">Control.SlogoControl.parse</text>
<text text-anchor="middle" x="315" y="-12" font-family="Helvetica,sans-Serif" font-size="10.00">CommandString</text>
</a>
</g>
</g>
<!-- Node1&#45;&gt;Node2 -->
<g id="edge1" class="edge"><title>Node1&#45;&gt;Node2</title>
<path fill="none" stroke="midnightblue" d="M216.35,-20C224.956,-20 233.496,-20 241.736,-20"/>
<polygon fill="midnightblue" stroke="midnightblue" points="216.232,-16.5001 206.232,-20 216.232,-23.5001 216.232,-16.5001"/>
</g>
<!-- Node3 -->
<g id="node3" class="node"><title>Node3</title>
<g id="a_node3"><a xlink:href="../../da/de1/class_control_1_1_slogo_control.html#a3c3830d88ed47944348f1f82c56d0d58" target="_top" xlink:title="Control.SlogoControl.Slogo\lControl">
<polygon fill="white" stroke="black" points="424,-5 424,-35 570,-35 570,-5 424,-5"/>
<text text-anchor="start" x="432" y="-23" font-family="Helvetica,sans-Serif" font-size="10.00">Control.SlogoControl.Slogo</text>
<text text-anchor="middle" x="497" y="-12" font-family="Helvetica,sans-Serif" font-size="10.00">Control</text>
</a>
</g>
</g>
<!-- Node2&#45;&gt;Node3 -->
<g id="edge2" class="edge"><title>Node2&#45;&gt;Node3</title>
<path fill="none" stroke="midnightblue" d="M398.439,-20C406.906,-20 415.464,-20 423.808,-20"/>
<polygon fill="midnightblue" stroke="midnightblue" points="398.176,-16.5001 388.176,-20 398.176,-23.5001 398.176,-16.5001"/>
</g>
</g>
</svg>
