<?xml version="1.0" encoding="UTF-8" standalone="no"?>
<!DOCTYPE svg PUBLIC "-//W3C//DTD SVG 1.1//EN"
 "http://www.w3.org/Graphics/SVG/1.1/DTD/svg11.dtd">
<!-- Generated by graphviz version 2.36.0 (20140111.2315)
 -->
<!-- Title: commandParsing.exceptions.LanguageFileNotFoundException Pages: 1 -->
<svg width="180pt" height="164pt"
 viewBox="0.00 0.00 180.00 164.00" xmlns="http://www.w3.org/2000/svg" xmlns:xlink="http://www.w3.org/1999/xlink">
<g id="graph0" class="graph" transform="scale(1 1) rotate(0) translate(4 160)">
<title>commandParsing.exceptions.LanguageFileNotFoundException</title>
<polygon fill="white" stroke="none" points="-4,4 -4,-160 176,-160 176,4 -4,4"/>
<!-- Node1 -->
<g id="node1" class="node"><title>Node1</title>
<polygon fill="#bfbfbf" stroke="black" points="0,-1 0,-31 172,-31 172,-1 0,-1"/>
<text text-anchor="start" x="8" y="-19" font-family="Helvetica,sans-Serif" font-size="10.00">commandParsing.exceptions.</text>
<text text-anchor="middle" x="86" y="-8" font-family="Helvetica,sans-Serif" font-size="10.00">LanguageFileNotFoundException</text>
</g>
<!-- Node2 -->
<g id="node2" class="node"><title>Node2</title>
<g id="a_node2"><a xlink:href="../../d7/ddf/classcommand_parsing_1_1exceptions_1_1_s_l_o_g_o_exception.html" target="_top" xlink:title="commandParsing.exceptions.\lSLOGOException">
<polygon fill="white" stroke="black" points="7,-69 7,-99 165,-99 165,-69 7,-69"/>
<text text-anchor="start" x="15" y="-87" font-family="Helvetica,sans-Serif" font-size="10.00">commandParsing.exceptions.</text>
<text text-anchor="middle" x="86" y="-76" font-family="Helvetica,sans-Serif" font-size="10.00">SLOGOException</text>
</a>
</g>
</g>
<!-- Node2&#45;&gt;Node1 -->
<g id="edge1" class="edge"><title>Node2&#45;&gt;Node1</title>
<path fill="none" stroke="midnightblue" d="M86,-58.5322C86,-49.3606 86,-39.2449 86,-31.2931"/>
<polygon fill="midnightblue" stroke="midnightblue" points="82.5001,-58.6789 86,-68.679 89.5001,-58.679 82.5001,-58.6789"/>
</g>
<!-- Node3 -->
<g id="node3" class="node"><title>Node3</title>
<polygon fill="white" stroke="#bfbfbf" points="54.5,-136.5 54.5,-155.5 117.5,-155.5 117.5,-136.5 54.5,-136.5"/>
<text text-anchor="middle" x="86" y="-143.5" font-family="Helvetica,sans-Serif" font-size="10.00">Exception</text>
</g>
<!-- Node3&#45;&gt;Node2 -->
<g id="edge2" class="edge"><title>Node3&#45;&gt;Node2</title>
<path fill="none" stroke="midnightblue" d="M86,-126.371C86,-117.585 86,-107.272 86,-99.1408"/>
<polygon fill="midnightblue" stroke="midnightblue" points="82.5001,-126.403 86,-136.403 89.5001,-126.403 82.5001,-126.403"/>
</g>
</g>
</svg>
