<?xml version="1.0" encoding="UTF-8" standalone="no"?>
<!DOCTYPE svg PUBLIC "-//W3C//DTD SVG 1.1//EN"
 "http://www.w3.org/Graphics/SVG/1.1/DTD/svg11.dtd">
<!-- Generated by graphviz version 2.36.0 (20140111.2315)
 -->
<!-- Title: gui.componentdrawers.optionsholder.OptionsHolderDrawer Pages: 1 -->
<svg width="306pt" height="178pt"
 viewBox="0.00 0.00 306.00 178.00" xmlns="http://www.w3.org/2000/svg" xmlns:xlink="http://www.w3.org/1999/xlink">
<g id="graph0" class="graph" transform="scale(1 1) rotate(0) translate(4 174)">
<title>gui.componentdrawers.optionsholder.OptionsHolderDrawer</title>
<polygon fill="white" stroke="none" points="-4,4 -4,-174 302,-174 302,4 -4,4"/>
<!-- Node1 -->
<g id="node1" class="node"><title>Node1</title>
<polygon fill="#bfbfbf" stroke="black" points="97.5,-1 97.5,-31 294.5,-31 294.5,-1 97.5,-1"/>
<text text-anchor="start" x="105.5" y="-19" font-family="Helvetica,sans-Serif" font-size="10.00">gui.componentdrawers.optionsholder.</text>
<text text-anchor="middle" x="196" y="-8" font-family="Helvetica,sans-Serif" font-size="10.00">OptionsHolderDrawer</text>
</g>
<!-- Node2 -->
<g id="node2" class="node"><title>Node2</title>
<g id="a_node2"><a xlink:href="../../d0/dda/classgui_1_1componentdrawers_1_1_component_drawer.html" target="_top" xlink:title="gui.componentdrawers.Component\lDrawer">
<polygon fill="white" stroke="black" points="-0.5,-81 -0.5,-111 184.5,-111 184.5,-81 -0.5,-81"/>
<text text-anchor="start" x="7.5" y="-99" font-family="Helvetica,sans-Serif" font-size="10.00">gui.componentdrawers.Component</text>
<text text-anchor="middle" x="92" y="-88" font-family="Helvetica,sans-Serif" font-size="10.00">Drawer</text>
</a>
</g>
</g>
<!-- Node2&#45;&gt;Node1 -->
<g id="edge1" class="edge"><title>Node2&#45;&gt;Node1</title>
<path fill="none" stroke="midnightblue" d="M119.514,-74.3645C137.658,-60.7566 160.956,-43.2833 177.046,-31.2157"/>
<polygon fill="midnightblue" stroke="midnightblue" points="116.975,-71.8936 111.075,-80.6936 121.175,-77.4936 116.975,-71.8936"/>
</g>
<!-- Node3 -->
<g id="node3" class="node"><title>Node3</title>
<polygon fill="white" stroke="#bfbfbf" points="72,-150.5 72,-169.5 112,-169.5 112,-150.5 72,-150.5"/>
<text text-anchor="middle" x="92" y="-157.5" font-family="Helvetica,sans-Serif" font-size="10.00">Pane</text>
</g>
<!-- Node3&#45;&gt;Node2 -->
<g id="edge2" class="edge"><title>Node3&#45;&gt;Node2</title>
<path fill="none" stroke="midnightblue" d="M92,-140.183C92,-130.886 92,-119.851 92,-111.263"/>
<polygon fill="midnightblue" stroke="midnightblue" points="88.5001,-140.379 92,-150.379 95.5001,-140.379 88.5001,-140.379"/>
</g>
<!-- Node4 -->
<g id="node4" class="node"><title>Node4</title>
<polygon fill="white" stroke="#bfbfbf" points="203,-86.5 203,-105.5 259,-105.5 259,-86.5 203,-86.5"/>
<text text-anchor="middle" x="231" y="-93.5" font-family="Helvetica,sans-Serif" font-size="10.00">TabPane</text>
</g>
<!-- Node4&#45;&gt;Node1 -->
<g id="edge3" class="edge"><title>Node4&#45;&gt;Node1</title>
<path fill="none" stroke="#9a32cd" stroke-dasharray="5,2" d="M222.872,-76.8856C216.633,-62.9816 208.14,-44.054 202.384,-31.227"/>
<polygon fill="#9a32cd" stroke="#9a32cd" points="219.833,-78.6639 227.121,-86.3546 226.22,-75.7981 219.833,-78.6639"/>
<text text-anchor="middle" x="257" y="-53.5" font-family="Helvetica,sans-Serif" font-size="10.00"> myButtonHolder</text>
</g>
</g>
</svg>
