<?xml version="1.0" encoding="UTF-8" standalone="no"?>
<!DOCTYPE svg PUBLIC "-//W3C//DTD SVG 1.1//EN"
 "http://www.w3.org/Graphics/SVG/1.1/DTD/svg11.dtd">
<!-- Generated by graphviz version 2.36.0 (20140111.2315)
 -->
<!-- Title: XML.readers.SavedWorkspaceXMLReader.getWorkspaceDataHolder Pages: 1 -->
<!--zoomable 136 -->
<svg id="main" version="1.1" xmlns="http://www.w3.org/2000/svg" xmlns:xlink="http://www.w3.org/1999/xlink" xml:space="preserve" onload="init(evt)">
<style type="text/css"><![CDATA[
.edge:hover path { stroke: red; }
.edge:hover polygon { stroke: red; fill: red; }
]]></style>
<script type="text/javascript"><![CDATA[
var edges = document.getElementsByTagName('g');
if (edges && edges.length) {
  for (var i=0;i<edges.length;i++) {
    if (edges[i].id.substr(0,4)=='edge') {
      edges[i].setAttribute('class','edge');
    }
  }
}
]]></script>
        <defs>
                <circle id="rim" cx="0" cy="0" r="7"/>
                <circle id="rim2" cx="0" cy="0" r="3.5"/>
                <g id="zoomPlus">
                        <use xlink:href="#rim" fill="#404040">
                                <set attributeName="fill" to="#808080" begin="zoomplus.mouseover" end="zoomplus.mouseout"/>
                        </use>
                        <path d="M-4,0h8M0,-4v8" fill="none" stroke="white" stroke-width="1.5" pointer-events="none"/>
                </g>
                <g id="zoomMin">
                        <use xlink:href="#rim" fill="#404040">
                                <set attributeName="fill" to="#808080" begin="zoomminus.mouseover" end="zoomminus.mouseout"/>
                        </use>
                        <path d="M-4,0h8" fill="none" stroke="white" stroke-width="1.5" pointer-events="none"/>
                </g>
                <g id="dirArrow">
                        <path fill="none" stroke="white" stroke-width="1.5" d="M0,-3.0v7 M-2.5,-0.5L0,-3.0L2.5,-0.5"/>
                </g>
               <g id="resetDef">
                       <use xlink:href="#rim2" fill="#404040">
                               <set attributeName="fill" to="#808080" begin="reset.mouseover" end="reset.mouseout"/>
                       </use>
               </g>
        </defs>

<script type="text/javascript">
var viewWidth = 678;
var viewHeight = 136;
var sectionId = 'dynsection-9';
</script>
<script xlink:href="../../svgpan.js"/>
<svg id="graph" class="graph">
<g id="viewport">
<title>XML.readers.SavedWorkspaceXMLReader.getWorkspaceDataHolder</title>
<polygon fill="white" stroke="none" points="-4,4 -4,-132 674,-132 674,4 -4,4"/>
<!-- Node1 -->
<g id="node1" class="node"><title>Node1</title>
<polygon fill="#bfbfbf" stroke="black" points="0.5,-49 0.5,-79 193.5,-79 193.5,-49 0.5,-49"/>
<text text-anchor="start" x="8.5" y="-67" font-family="Helvetica,sans-Serif" font-size="10.00">XML.readers.SavedWorkspace</text>
<text text-anchor="middle" x="97" y="-56" font-family="Helvetica,sans-Serif" font-size="10.00">XMLReader.getWorkspaceDataHolder</text>
</g>
<!-- Node2 -->
<g id="node2" class="node"><title>Node2</title>
<g id="a_node2"><a xlink:href="../../d9/dcd/class_x_m_l_1_1readers_1_1_saved_workspace_x_m_l_reader.html#a3c00dbb87febfa20c2d63038732e5342" target="_top" xlink:title="XML.readers.SavedWorkspace\lXMLReader.getSavedCommands">
<polygon fill="white" stroke="black" points="244.5,-98 244.5,-128 417.5,-128 417.5,-98 244.5,-98"/>
<text text-anchor="start" x="252.5" y="-116" font-family="Helvetica,sans-Serif" font-size="10.00">XML.readers.SavedWorkspace</text>
<text text-anchor="middle" x="331" y="-105" font-family="Helvetica,sans-Serif" font-size="10.00">XMLReader.getSavedCommands</text>
</a>
</g>
</g>
<!-- Node1&#45;&gt;Node2 -->
<g id="edge1" class="edge"><title>Node1&#45;&gt;Node2</title>
<path fill="none" stroke="midnightblue" d="M169.184,-79.0346C194.46,-84.373 223.09,-90.4198 249.115,-95.9166"/>
<polygon fill="midnightblue" stroke="midnightblue" points="248.443,-99.3517 258.95,-97.9938 249.889,-92.5028 248.443,-99.3517"/>
</g>
<!-- Node4 -->
<g id="node4" class="node"><title>Node4</title>
<g id="a_node4"><a xlink:href="../../d9/dcd/class_x_m_l_1_1readers_1_1_saved_workspace_x_m_l_reader.html#acde38d76ee5d2d2aca516d2cd40603e0" target="_top" xlink:title="XML.readers.SavedWorkspace\lXMLReader.getUserDefinedCommands">
<polygon fill="white" stroke="black" points="230,-49 230,-79 432,-79 432,-49 230,-49"/>
<text text-anchor="start" x="238" y="-67" font-family="Helvetica,sans-Serif" font-size="10.00">XML.readers.SavedWorkspace</text>
<text text-anchor="middle" x="331" y="-56" font-family="Helvetica,sans-Serif" font-size="10.00">XMLReader.getUserDefinedCommands</text>
</a>
</g>
</g>
<!-- Node1&#45;&gt;Node4 -->
<g id="edge3" class="edge"><title>Node1&#45;&gt;Node4</title>
<path fill="none" stroke="midnightblue" d="M193.703,-64C202.225,-64 210.899,-64 219.532,-64"/>
<polygon fill="midnightblue" stroke="midnightblue" points="219.636,-67.5001 229.636,-64 219.635,-60.5001 219.636,-67.5001"/>
</g>
<!-- Node5 -->
<g id="node5" class="node"><title>Node5</title>
<g id="a_node5"><a xlink:href="../../d9/dcd/class_x_m_l_1_1readers_1_1_saved_workspace_x_m_l_reader.html#a9a7c25ef72700c59aaebe2035c8c5de2" target="_top" xlink:title="XML.readers.SavedWorkspace\lXMLReader.getWorkspaceVariables">
<polygon fill="white" stroke="black" points="240,-0 240,-30 422,-30 422,-0 240,-0"/>
<text text-anchor="start" x="248" y="-18" font-family="Helvetica,sans-Serif" font-size="10.00">XML.readers.SavedWorkspace</text>
<text text-anchor="middle" x="331" y="-7" font-family="Helvetica,sans-Serif" font-size="10.00">XMLReader.getWorkspaceVariables</text>
</a>
</g>
</g>
<!-- Node1&#45;&gt;Node5 -->
<g id="edge4" class="edge"><title>Node1&#45;&gt;Node5</title>
<path fill="none" stroke="midnightblue" d="M169.184,-48.9654C194.46,-43.627 223.09,-37.5802 249.115,-32.0834"/>
<polygon fill="midnightblue" stroke="midnightblue" points="249.889,-35.4972 258.95,-30.0062 248.443,-28.6483 249.889,-35.4972"/>
</g>
<!-- Node3 -->
<g id="node3" class="node"><title>Node3</title>
<g id="a_node3"><a xlink:href="../../d9/dcd/class_x_m_l_1_1readers_1_1_saved_workspace_x_m_l_reader.html#a7c56ac523e52ff9fdf07b4b4982f1701" target="_top" xlink:title="XML.readers.SavedWorkspace\lXMLReader.getStringListFromElements">
<polygon fill="white" stroke="black" points="468.5,-98 468.5,-128 669.5,-128 669.5,-98 468.5,-98"/>
<text text-anchor="start" x="476.5" y="-116" font-family="Helvetica,sans-Serif" font-size="10.00">XML.readers.SavedWorkspace</text>
<text text-anchor="middle" x="569" y="-105" font-family="Helvetica,sans-Serif" font-size="10.00">XMLReader.getStringListFromElements</text>
</a>
</g>
</g>
<!-- Node2&#45;&gt;Node3 -->
<g id="edge2" class="edge"><title>Node2&#45;&gt;Node3</title>
<path fill="none" stroke="midnightblue" d="M417.535,-113C430.675,-113 444.397,-113 457.977,-113"/>
<polygon fill="midnightblue" stroke="midnightblue" points="458.323,-116.5 468.323,-113 458.323,-109.5 458.323,-116.5"/>
</g>
</g>
</svg>
        <g id="navigator" transform="translate(0 0)" fill="#404254">
                <rect fill="#f2f5e9" fill-opacity="0.5" stroke="#606060" stroke-width=".5" x="0" y="0" width="60" height="60"/>
                <use id="zoomplus" xlink:href="#zoomPlus" x="17" y="9" onmousedown="handleZoom(evt,'in')"/>
                <use id="zoomminus" xlink:href="#zoomMin" x="42" y="9" onmousedown="handleZoom(evt,'out')"/>
                <use id="reset" xlink:href="#resetDef" x="30" y="36" onmousedown="handleReset()"/>
                <g id="arrowUp" xlink:href="#dirArrow" transform="translate(30 24)" onmousedown="handlePan(0,-1)">
                  <use xlink:href="#rim" fill="#404040">
                        <set attributeName="fill" to="#808080" begin="arrowUp.mouseover" end="arrowUp.mouseout"/>
                  </use>
                  <path fill="none" stroke="white" stroke-width="1.5" d="M0,-3.0v7 M-2.5,-0.5L0,-3.0L2.5,-0.5"/>
                </g>
                <g id="arrowRight" xlink:href="#dirArrow" transform="rotate(90) translate(36 -43)" onmousedown="handlePan(1,0)">
                  <use xlink:href="#rim" fill="#404040">
                        <set attributeName="fill" to="#808080" begin="arrowRight.mouseover" end="arrowRight.mouseout"/>
                  </use>
                  <path fill="none" stroke="white" stroke-width="1.5" d="M0,-3.0v7 M-2.5,-0.5L0,-3.0L2.5,-0.5"/>
                </g>
                <g id="arrowDown" xlink:href="#dirArrow" transform="rotate(180) translate(-30 -48)" onmousedown="handlePan(0,1)">
                  <use xlink:href="#rim" fill="#404040">
                        <set attributeName="fill" to="#808080" begin="arrowDown.mouseover" end="arrowDown.mouseout"/>
                  </use>
                  <path fill="none" stroke="white" stroke-width="1.5" d="M0,-3.0v7 M-2.5,-0.5L0,-3.0L2.5,-0.5"/>
                </g>
                <g id="arrowLeft" xlink:href="#dirArrow" transform="rotate(270) translate(-36 17)" onmousedown="handlePan(-1,0)">
                  <use xlink:href="#rim" fill="#404040">
                        <set attributeName="fill" to="#808080" begin="arrowLeft.mouseover" end="arrowLeft.mouseout"/>
                  </use>
                  <path fill="none" stroke="white" stroke-width="1.5" d="M0,-3.0v7 M-2.5,-0.5L0,-3.0L2.5,-0.5"/>
                </g>
        </g>
        <svg viewBox="0 0 15 15" width="100%" height="30px" preserveAspectRatio="xMaxYMin meet">
         <g id="arrow_out" transform="scale(0.3 0.3)">
          <a xlink:href="class_x_m_l_1_1readers_1_1_saved_workspace_x_m_l_reader_a695e4dc29b20bbb0b50d024333897073_cgraph_org.svg" target="_base">
           <rect id="button" ry="5" rx="5" y="6" x="6" height="38" width="38"
                fill="#f2f5e9" fill-opacity="0.5" stroke="#606060" stroke-width="1.0"/>
           <path id="arrow"
             d="M 11.500037,31.436501 C 11.940474,20.09759 22.043105,11.32322 32.158766,21.979434 L 37.068811,17.246167 C 37.068811,17.246167 37.088388,32 37.088388,32 L 22.160133,31.978069 C 22.160133,31.978069 26.997745,27.140456 26.997745,27.140456 C 18.528582,18.264221 13.291696,25.230495 11.500037,31.436501 z"
             style="fill:#404040;"/>
          </a>
         </g>
        </svg>
</svg>
