<?xml version="1.0" encoding="UTF-8" standalone="no"?>
<!DOCTYPE svg PUBLIC "-//W3C//DTD SVG 1.1//EN"
 "http://www.w3.org/Graphics/SVG/1.1/DTD/svg11.dtd">
<!-- Generated by graphviz version 2.36.0 (20140111.2315)
 -->
<!-- Title: XML.readers.SavedWorkspaceXMLReader.getWorkspaceVariables Pages: 1 -->
<svg width="612pt" height="60pt"
 viewBox="0.00 0.00 612.00 60.00" xmlns="http://www.w3.org/2000/svg" xmlns:xlink="http://www.w3.org/1999/xlink">
<g id="graph0" class="graph" transform="scale(1 1) rotate(0) translate(4 56)">
<title>XML.readers.SavedWorkspaceXMLReader.getWorkspaceVariables</title>
<polygon fill="white" stroke="none" points="-4,4 -4,-56 608,-56 608,4 -4,4"/>
<!-- Node1 -->
<g id="node1" class="node"><title>Node1</title>
<polygon fill="#bfbfbf" stroke="black" points="0,-22 0,-52 182,-52 182,-22 0,-22"/>
<text text-anchor="start" x="8" y="-40" font-family="Helvetica,sans-Serif" font-size="10.00">XML.readers.SavedWorkspace</text>
<text text-anchor="middle" x="91" y="-29" font-family="Helvetica,sans-Serif" font-size="10.00">XMLReader.getWorkspaceVariables</text>
</g>
<!-- Node2 -->
<g id="node2" class="node"><title>Node2</title>
<g id="a_node2"><a xlink:href="../../d1/dea/classgui_1_1menus_1_1_file_menu.html#ae040d0be1f3ff61aae358d2d6894619e" target="_top" xlink:title="gui.menus.FileMenu.FileMenu">
<polygon fill="white" stroke="black" points="448.5,-27.5 448.5,-46.5 603.5,-46.5 603.5,-27.5 448.5,-27.5"/>
<text text-anchor="middle" x="526" y="-34.5" font-family="Helvetica,sans-Serif" font-size="10.00">gui.menus.FileMenu.FileMenu</text>
</a>
</g>
</g>
<!-- Node1&#45;&gt;Node2 -->
<g id="edge1" class="edge"><title>Node1&#45;&gt;Node2</title>
<path fill="none" stroke="midnightblue" d="M192.346,-38.7366C201.023,-38.8431 209.666,-38.9339 218,-39 304.22,-39.6842 325.781,-39.7629 412,-39 423.772,-38.8958 436.233,-38.7306 448.414,-38.5387"/>
<polygon fill="midnightblue" stroke="midnightblue" points="192.206,-35.2346 182.162,-38.6047 192.116,-42.234 192.206,-35.2346"/>
</g>
<!-- Node3 -->
<g id="node3" class="node"><title>Node3</title>
<g id="a_node3"><a xlink:href="../../d9/dcd/class_x_m_l_1_1readers_1_1_saved_workspace_x_m_l_reader.html#a695e4dc29b20bbb0b50d024333897073" target="_top" xlink:title="XML.readers.SavedWorkspace\lXMLReader.getWorkspaceDataHolder">
<polygon fill="white" stroke="black" points="218.5,-0 218.5,-30 411.5,-30 411.5,-0 218.5,-0"/>
<text text-anchor="start" x="226.5" y="-18" font-family="Helvetica,sans-Serif" font-size="10.00">XML.readers.SavedWorkspace</text>
<text text-anchor="middle" x="315" y="-7" font-family="Helvetica,sans-Serif" font-size="10.00">XMLReader.getWorkspaceDataHolder</text>
</a>
</g>
</g>
<!-- Node1&#45;&gt;Node3 -->
<g id="edge2" class="edge"><title>Node1&#45;&gt;Node3</title>
<path fill="none" stroke="midnightblue" d="M192.388,-27.0516C201.03,-26.1952 209.759,-25.3302 218.362,-24.4776"/>
<polygon fill="midnightblue" stroke="midnightblue" points="191.902,-23.5826 182.296,-28.0518 192.592,-30.5484 191.902,-23.5826"/>
</g>
<!-- Node3&#45;&gt;Node2 -->
<g id="edge3" class="edge"><title>Node3&#45;&gt;Node2</title>
<path fill="none" stroke="midnightblue" d="M421.705,-26.1269C430.636,-27.067 439.556,-28.0058 448.202,-28.916"/>
<polygon fill="midnightblue" stroke="midnightblue" points="421.943,-22.6326 411.631,-25.0664 421.21,-29.5941 421.943,-22.6326"/>
</g>
</g>
</svg>
