<?xml version="1.0" encoding="UTF-8" standalone="no"?>
<!DOCTYPE svg PUBLIC "-//W3C//DTD SVG 1.1//EN"
 "http://www.w3.org/Graphics/SVG/1.1/DTD/svg11.dtd">
<!-- Generated by graphviz version 2.36.0 (20140111.2315)
 -->
<!-- Title: XML.readers.SavedWorkspaceXMLReader.getSavedCommands Pages: 1 -->
<svg width="420pt" height="38pt"
 viewBox="0.00 0.00 420.00 38.00" xmlns="http://www.w3.org/2000/svg" xmlns:xlink="http://www.w3.org/1999/xlink">
<g id="graph0" class="graph" transform="scale(1 1) rotate(0) translate(4 34)">
<title>XML.readers.SavedWorkspaceXMLReader.getSavedCommands</title>
<polygon fill="white" stroke="none" points="-4,4 -4,-34 416,-34 416,4 -4,4"/>
<!-- Node1 -->
<g id="node1" class="node"><title>Node1</title>
<polygon fill="#bfbfbf" stroke="black" points="0.5,-0 0.5,-30 173.5,-30 173.5,-0 0.5,-0"/>
<text text-anchor="start" x="8.5" y="-18" font-family="Helvetica,sans-Serif" font-size="10.00">XML.readers.SavedWorkspace</text>
<text text-anchor="middle" x="87" y="-7" font-family="Helvetica,sans-Serif" font-size="10.00">XMLReader.getSavedCommands</text>
</g>
<!-- Node2 -->
<g id="node2" class="node"><title>Node2</title>
<g id="a_node2"><a xlink:href="../../d9/dcd/class_x_m_l_1_1readers_1_1_saved_workspace_x_m_l_reader.html#a7c56ac523e52ff9fdf07b4b4982f1701" target="_top" xlink:title="XML.readers.SavedWorkspace\lXMLReader.getStringListFromElements">
<polygon fill="white" stroke="black" points="210.5,-0 210.5,-30 411.5,-30 411.5,-0 210.5,-0"/>
<text text-anchor="start" x="218.5" y="-18" font-family="Helvetica,sans-Serif" font-size="10.00">XML.readers.SavedWorkspace</text>
<text text-anchor="middle" x="311" y="-7" font-family="Helvetica,sans-Serif" font-size="10.00">XMLReader.getStringListFromElements</text>
</a>
</g>
</g>
<!-- Node1&#45;&gt;Node2 -->
<g id="edge1" class="edge"><title>Node1&#45;&gt;Node2</title>
<path fill="none" stroke="midnightblue" d="M173.513,-15C182.299,-15 191.31,-15 200.31,-15"/>
<polygon fill="midnightblue" stroke="midnightblue" points="200.453,-18.5001 210.453,-15 200.453,-11.5001 200.453,-18.5001"/>
</g>
</g>
</svg>
