<?xml version="1.0" encoding="UTF-8" standalone="no"?>
<!DOCTYPE svg PUBLIC "-//W3C//DTD SVG 1.1//EN"
 "http://www.w3.org/Graphics/SVG/1.1/DTD/svg11.dtd">
<!-- Generated by graphviz version 2.36.0 (20140111.2315)
 -->
<!-- Title: XML.readers.SavedWorkspaceXMLReader.getUserDefinedCommands Pages: 1 -->
<svg width="632pt" height="60pt"
 viewBox="0.00 0.00 632.00 60.00" xmlns="http://www.w3.org/2000/svg" xmlns:xlink="http://www.w3.org/1999/xlink">
<g id="graph0" class="graph" transform="scale(1 1) rotate(0) translate(4 56)">
<title>XML.readers.SavedWorkspaceXMLReader.getUserDefinedCommands</title>
<polygon fill="white" stroke="none" points="-4,4 -4,-56 628,-56 628,4 -4,4"/>
<!-- Node1 -->
<g id="node1" class="node"><title>Node1</title>
<polygon fill="#bfbfbf" stroke="black" points="0,-22 0,-52 202,-52 202,-22 0,-22"/>
<text text-anchor="start" x="8" y="-40" font-family="Helvetica,sans-Serif" font-size="10.00">XML.readers.SavedWorkspace</text>
<text text-anchor="middle" x="101" y="-29" font-family="Helvetica,sans-Serif" font-size="10.00">XMLReader.getUserDefinedCommands</text>
</g>
<!-- Node2 -->
<g id="node2" class="node"><title>Node2</title>
<g id="a_node2"><a xlink:href="../../d1/dea/classgui_1_1menus_1_1_file_menu.html#ae040d0be1f3ff61aae358d2d6894619e" target="_top" xlink:title="gui.menus.FileMenu.FileMenu">
<polygon fill="white" stroke="black" points="468.5,-27.5 468.5,-46.5 623.5,-46.5 623.5,-27.5 468.5,-27.5"/>
<text text-anchor="middle" x="546" y="-34.5" font-family="Helvetica,sans-Serif" font-size="10.00">gui.menus.FileMenu.FileMenu</text>
</a>
</g>
</g>
<!-- Node1&#45;&gt;Node2 -->
<g id="edge1" class="edge"><title>Node1&#45;&gt;Node2</title>
<path fill="none" stroke="midnightblue" d="M212.43,-38.7604C221.082,-38.8567 229.684,-38.9389 238,-39 324.22,-39.6339 345.781,-39.7629 432,-39 443.772,-38.8958 456.233,-38.7306 468.414,-38.5387"/>
<polygon fill="midnightblue" stroke="midnightblue" points="212.305,-35.2588 202.265,-38.6414 212.223,-42.2583 212.305,-35.2588"/>
</g>
<!-- Node3 -->
<g id="node3" class="node"><title>Node3</title>
<g id="a_node3"><a xlink:href="../../d9/dcd/class_x_m_l_1_1readers_1_1_saved_workspace_x_m_l_reader.html#a695e4dc29b20bbb0b50d024333897073" target="_top" xlink:title="XML.readers.SavedWorkspace\lXMLReader.getWorkspaceDataHolder">
<polygon fill="white" stroke="black" points="238.5,-0 238.5,-30 431.5,-30 431.5,-0 238.5,-0"/>
<text text-anchor="start" x="246.5" y="-18" font-family="Helvetica,sans-Serif" font-size="10.00">XML.readers.SavedWorkspace</text>
<text text-anchor="middle" x="335" y="-7" font-family="Helvetica,sans-Serif" font-size="10.00">XMLReader.getWorkspaceDataHolder</text>
</a>
</g>
</g>
<!-- Node1&#45;&gt;Node3 -->
<g id="edge2" class="edge"><title>Node1&#45;&gt;Node3</title>
<path fill="none" stroke="midnightblue" d="M212.256,-26.5447C220.958,-25.7195 229.704,-24.8901 238.296,-24.0754"/>
<polygon fill="midnightblue" stroke="midnightblue" points="211.697,-23.0819 202.072,-27.5104 212.358,-30.0506 211.697,-23.0819"/>
</g>
<!-- Node3&#45;&gt;Node2 -->
<g id="edge3" class="edge"><title>Node3&#45;&gt;Node2</title>
<path fill="none" stroke="midnightblue" d="M441.705,-26.1269C450.636,-27.067 459.556,-28.0058 468.202,-28.916"/>
<polygon fill="midnightblue" stroke="midnightblue" points="441.943,-22.6326 431.631,-25.0664 441.21,-29.5941 441.943,-22.6326"/>
</g>
</g>
</svg>
