<?xml version="1.0" encoding="UTF-8" standalone="no"?>
<!DOCTYPE svg PUBLIC "-//W3C//DTD SVG 1.1//EN"
 "http://www.w3.org/Graphics/SVG/1.1/DTD/svg11.dtd">
<!-- Generated by graphviz version 2.36.0 (20140111.2315)
 -->
<!-- Title: commandParsing.userCommandParsing.UserInstruction Pages: 1 -->
<svg width="1446pt" height="291pt"
 viewBox="0.00 0.00 1446.00 291.00" xmlns="http://www.w3.org/2000/svg" xmlns:xlink="http://www.w3.org/1999/xlink">
<g id="graph0" class="graph" transform="scale(1 1) rotate(0) translate(4 287)">
<title>commandParsing.userCommandParsing.UserInstruction</title>
<polygon fill="white" stroke="none" points="-4,4 -4,-287 1442,-287 1442,4 -4,4"/>
<!-- Node1 -->
<g id="node1" class="node"><title>Node1</title>
<polygon fill="#bfbfbf" stroke="black" points="1264,-97 1264,-127 1438,-127 1438,-97 1264,-97"/>
<text text-anchor="start" x="1272" y="-115" font-family="Helvetica,sans-Serif" font-size="10.00">commandParsing.userCommand</text>
<text text-anchor="middle" x="1351" y="-104" font-family="Helvetica,sans-Serif" font-size="10.00">Parsing.UserInstruction</text>
</g>
<!-- Node2 -->
<g id="node2" class="node"><title>Node2</title>
<g id="a_node2"><a xlink:href="../../d7/d17/classcommand_parsing_1_1_command_parser.html" target="_top" xlink:title="commandParsing.CommandParser">
<polygon fill="white" stroke="black" points="992.5,-122.5 992.5,-141.5 1175.5,-141.5 1175.5,-122.5 992.5,-122.5"/>
<text text-anchor="middle" x="1084" y="-129.5" font-family="Helvetica,sans-Serif" font-size="10.00">commandParsing.CommandParser</text>
</a>
</g>
</g>
<!-- Node2&#45;&gt;Node1 -->
<g id="edge1" class="edge"><title>Node2&#45;&gt;Node1</title>
<path fill="none" stroke="midnightblue" d="M1185.94,-124.382C1211.59,-122.446 1238.92,-120.384 1263.76,-118.509"/>
<polygon fill="midnightblue" stroke="midnightblue" points="1185.54,-120.902 1175.83,-125.145 1186.06,-127.883 1185.54,-120.902"/>
</g>
<!-- Node3 -->
<g id="node3" class="node"><title>Node3</title>
<polygon fill="white" stroke="#bfbfbf" points="719.5,-165.5 719.5,-184.5 808.5,-184.5 808.5,-165.5 719.5,-165.5"/>
<text text-anchor="middle" x="764" y="-172.5" font-family="Helvetica,sans-Serif" font-size="10.00">List&lt; Double &gt;</text>
</g>
<!-- Node3&#45;&gt;Node2 -->
<g id="edge2" class="edge"><title>Node3&#45;&gt;Node2</title>
<path fill="none" stroke="#9a32cd" stroke-dasharray="5,2" d="M818.699,-167.86C860.918,-162.233 921.217,-154.167 974,-147 986.966,-145.239 1000.8,-143.347 1014.1,-141.519"/>
<polygon fill="#9a32cd" stroke="#9a32cd" points="818.088,-164.41 808.638,-169.2 819.013,-171.349 818.088,-164.41"/>
<text text-anchor="middle" x="915" y="-166" font-family="Helvetica,sans-Serif" font-size="10.00"> expressionComponents</text>
</g>
<!-- Node4 -->
<g id="node4" class="node"><title>Node4</title>
<g id="a_node4"><a xlink:href="../../d5/daa/classworkspace_state_1_1_workspace_state.html" target="_top" xlink:title="workspaceState.Workspace\lState">
<polygon fill="white" stroke="black" points="690.5,-116 690.5,-146 837.5,-146 837.5,-116 690.5,-116"/>
<text text-anchor="start" x="698.5" y="-134" font-family="Helvetica,sans-Serif" font-size="10.00">workspaceState.Workspace</text>
<text text-anchor="middle" x="764" y="-123" font-family="Helvetica,sans-Serif" font-size="10.00">State</text>
</a>
</g>
</g>
<!-- Node4&#45;&gt;Node2 -->
<g id="edge3" class="edge"><title>Node4&#45;&gt;Node2</title>
<path fill="none" stroke="#9a32cd" stroke-dasharray="5,2" d="M847.719,-131.26C892.054,-131.4 946.759,-131.572 992.259,-131.715"/>
<polygon fill="#9a32cd" stroke="#9a32cd" points="847.568,-127.76 837.557,-131.228 847.546,-134.76 847.568,-127.76"/>
<text text-anchor="middle" x="915" y="-135" font-family="Helvetica,sans-Serif" font-size="10.00"> workspace</text>
</g>
<!-- Node5 -->
<g id="node5" class="node"><title>Node5</title>
<g id="a_node5"><a xlink:href="../../db/d1f/classworkspace_state_1_1_turtle_collection.html" target="_top" xlink:title="workspaceState.TurtleCollection">
<polygon fill="white" stroke="black" points="420,-238.5 420,-257.5 588,-257.5 588,-238.5 420,-238.5"/>
<text text-anchor="middle" x="504" y="-245.5" font-family="Helvetica,sans-Serif" font-size="10.00">workspaceState.TurtleCollection</text>
</a>
</g>
</g>
<!-- Node5&#45;&gt;Node4 -->
<g id="edge4" class="edge"><title>Node5&#45;&gt;Node4</title>
<path fill="none" stroke="#9a32cd" stroke-dasharray="5,2" d="M552.808,-235.667C564.397,-232.426 576.702,-228.773 588,-225 626.045,-212.294 642.399,-219.068 672,-192 685.201,-179.928 676.534,-167.776 690,-156 694.437,-152.12 699.505,-148.835 704.857,-146.055"/>
<polygon fill="#9a32cd" stroke="#9a32cd" points="551.566,-232.378 542.85,-238.402 553.42,-239.128 551.566,-232.378"/>
<text text-anchor="middle" x="639" y="-223" font-family="Helvetica,sans-Serif" font-size="10.00"> turtles</text>
</g>
<!-- Node6 -->
<g id="node6" class="node"><title>Node6</title>
<polygon fill="white" stroke="#bfbfbf" points="35.5,-235 35.5,-265 202.5,-265 202.5,-235 35.5,-235"/>
<text text-anchor="start" x="43.5" y="-253" font-family="Helvetica,sans-Serif" font-size="10.00">Map&lt; Integer, workspaceState.</text>
<text text-anchor="middle" x="119" y="-242" font-family="Helvetica,sans-Serif" font-size="10.00">Turtle &gt;</text>
</g>
<!-- Node6&#45;&gt;Node5 -->
<g id="edge5" class="edge"><title>Node6&#45;&gt;Node5</title>
<path fill="none" stroke="#9a32cd" stroke-dasharray="5,2" d="M212.989,-249.514C276.13,-249.185 358.905,-248.752 419.854,-248.434"/>
<polygon fill="#9a32cd" stroke="#9a32cd" points="212.615,-246.016 202.634,-249.568 212.652,-253.016 212.615,-246.016"/>
<text text-anchor="middle" x="329" y="-275" font-family="Helvetica,sans-Serif" font-size="10.00"> turtles</text>
<text text-anchor="middle" x="329" y="-264" font-family="Helvetica,sans-Serif" font-size="10.00">activeTurtles</text>
<text text-anchor="middle" x="329" y="-253" font-family="Helvetica,sans-Serif" font-size="10.00">turtleStamps</text>
</g>
<!-- Node7 -->
<g id="node7" class="node"><title>Node7</title>
<g id="a_node7"><a xlink:href="../../d2/df5/classworkspace_state_1_1_palette.html" target="_top" xlink:title="workspaceState.Palette\l\&lt; workspaceState.Shape \&gt;">
<polygon fill="white" stroke="black" points="429.5,-186 429.5,-216 578.5,-216 578.5,-186 429.5,-186"/>
<text text-anchor="start" x="437.5" y="-204" font-family="Helvetica,sans-Serif" font-size="10.00">workspaceState.Palette</text>
<text text-anchor="middle" x="504" y="-193" font-family="Helvetica,sans-Serif" font-size="10.00">&lt; workspaceState.Shape &gt;</text>
</a>
</g>
</g>
<!-- Node7&#45;&gt;Node4 -->
<g id="edge6" class="edge"><title>Node7&#45;&gt;Node4</title>
<path fill="none" stroke="#9a32cd" stroke-dasharray="5,2" d="M577.996,-183.517C607.304,-176.27 641.345,-167.565 672,-159 686.328,-154.997 701.829,-150.348 715.907,-146.002"/>
<polygon fill="#9a32cd" stroke="#9a32cd" points="577.123,-180.127 568.249,-185.917 578.796,-186.924 577.123,-180.127"/>
<text text-anchor="middle" x="639" y="-180" font-family="Helvetica,sans-Serif" font-size="10.00"> shapePalette</text>
</g>
<!-- Node8 -->
<g id="node8" class="node"><title>Node8</title>
<g id="a_node8"><a xlink:href="../../dd/d73/classworkspace_state_1_1_user_defined_variable_collection.html" target="_top" xlink:title="workspaceState.UserDefined\lVariableCollection">
<polygon fill="white" stroke="black" points="426.5,-137 426.5,-167 581.5,-167 581.5,-137 426.5,-137"/>
<text text-anchor="start" x="434.5" y="-155" font-family="Helvetica,sans-Serif" font-size="10.00">workspaceState.UserDefined</text>
<text text-anchor="middle" x="504" y="-144" font-family="Helvetica,sans-Serif" font-size="10.00">VariableCollection</text>
</a>
</g>
</g>
<!-- Node8&#45;&gt;Node4 -->
<g id="edge7" class="edge"><title>Node8&#45;&gt;Node4</title>
<path fill="none" stroke="#9a32cd" stroke-dasharray="5,2" d="M591.921,-144.925C623.823,-142.328 659.581,-139.418 690.125,-136.932"/>
<polygon fill="#9a32cd" stroke="#9a32cd" points="591.393,-141.456 581.71,-145.756 591.961,-148.433 591.393,-141.456"/>
<text text-anchor="middle" x="639" y="-147" font-family="Helvetica,sans-Serif" font-size="10.00"> variables</text>
</g>
<!-- Node9 -->
<g id="node9" class="node"><title>Node9</title>
<polygon fill="white" stroke="#bfbfbf" points="39.5,-186 39.5,-216 198.5,-216 198.5,-186 39.5,-186"/>
<text text-anchor="start" x="47.5" y="-204" font-family="Helvetica,sans-Serif" font-size="10.00">Map&lt; String, gui.variableslist.</text>
<text text-anchor="middle" x="119" y="-193" font-family="Helvetica,sans-Serif" font-size="10.00">WorkspaceVariable &gt;</text>
</g>
<!-- Node9&#45;&gt;Node8 -->
<g id="edge8" class="edge"><title>Node9&#45;&gt;Node8</title>
<path fill="none" stroke="#9a32cd" stroke-dasharray="5,2" d="M208.945,-190.909C264.493,-184.45 337.472,-175.68 402,-167 409.906,-165.937 418.153,-164.783 426.378,-163.605"/>
<polygon fill="#9a32cd" stroke="#9a32cd" points="208.312,-187.459 198.782,-192.088 209.118,-194.413 208.312,-187.459"/>
<text text-anchor="middle" x="329" y="-188" font-family="Helvetica,sans-Serif" font-size="10.00"> variableMap</text>
</g>
<!-- Node10 -->
<g id="node10" class="node"><title>Node10</title>
<g id="a_node10"><a xlink:href="../../d9/da1/classgui_1_1variableslist_1_1_workspace_variable.html" target="_top" xlink:title="gui.variableslist.Workspace\lVariable">
<polygon fill="white" stroke="black" points="47,-137 47,-167 191,-167 191,-137 47,-137"/>
<text text-anchor="start" x="55" y="-155" font-family="Helvetica,sans-Serif" font-size="10.00">gui.variableslist.Workspace</text>
<text text-anchor="middle" x="119" y="-144" font-family="Helvetica,sans-Serif" font-size="10.00">Variable</text>
</a>
</g>
</g>
<!-- Node10&#45;&gt;Node8 -->
<g id="edge9" class="edge"><title>Node10&#45;&gt;Node8</title>
<path fill="none" stroke="#9a32cd" stroke-dasharray="5,2" d="M201.162,-152C267.654,-152 361.086,-152 426.327,-152"/>
<polygon fill="#9a32cd" stroke="#9a32cd" points="201.142,-148.5 191.142,-152 201.142,-155.5 201.142,-148.5"/>
<text text-anchor="middle" x="329" y="-155" font-family="Helvetica,sans-Serif" font-size="10.00"> defaultVar</text>
</g>
<!-- Node11 -->
<g id="node11" class="node"><title>Node11</title>
<g id="a_node11"><a xlink:href="../../d2/d58/classworkspace_state_1_1_user_defined_command_collection.html" target="_top" xlink:title="workspaceState.UserDefined\lCommandCollection">
<polygon fill="white" stroke="black" points="426.5,-88 426.5,-118 581.5,-118 581.5,-88 426.5,-88"/>
<text text-anchor="start" x="434.5" y="-106" font-family="Helvetica,sans-Serif" font-size="10.00">workspaceState.UserDefined</text>
<text text-anchor="middle" x="504" y="-95" font-family="Helvetica,sans-Serif" font-size="10.00">CommandCollection</text>
</a>
</g>
</g>
<!-- Node11&#45;&gt;Node4 -->
<g id="edge10" class="edge"><title>Node11&#45;&gt;Node4</title>
<path fill="none" stroke="#9a32cd" stroke-dasharray="5,2" d="M591.921,-112.433C623.823,-115.896 659.581,-119.776 690.125,-123.091"/>
<polygon fill="#9a32cd" stroke="#9a32cd" points="592.029,-108.925 581.71,-111.325 591.274,-115.884 592.029,-108.925"/>
<text text-anchor="middle" x="639" y="-124" font-family="Helvetica,sans-Serif" font-size="10.00"> commands</text>
</g>
<!-- Node12 -->
<g id="node12" class="node"><title>Node12</title>
<polygon fill="white" stroke="#bfbfbf" points="0.5,-88 0.5,-118 237.5,-118 237.5,-88 0.5,-88"/>
<text text-anchor="start" x="8.5" y="-106" font-family="Helvetica,sans-Serif" font-size="10.00">Map&lt; String, workspaceState.</text>
<text text-anchor="middle" x="119" y="-95" font-family="Helvetica,sans-Serif" font-size="10.00">UserDefinedCommandCollection.Command &gt;</text>
</g>
<!-- Node12&#45;&gt;Node11 -->
<g id="edge11" class="edge"><title>Node12&#45;&gt;Node11</title>
<path fill="none" stroke="#9a32cd" stroke-dasharray="5,2" d="M247.683,-103C306.827,-103 375.141,-103 426.215,-103"/>
<polygon fill="#9a32cd" stroke="#9a32cd" points="247.516,-99.5001 237.515,-103 247.515,-106.5 247.516,-99.5001"/>
<text text-anchor="middle" x="329" y="-106" font-family="Helvetica,sans-Serif" font-size="10.00"> commandMap</text>
</g>
<!-- Node13 -->
<g id="node13" class="node"><title>Node13</title>
<g id="a_node13"><a xlink:href="../../d3/de0/classtranslator_1_1_translator.html" target="_top" xlink:title="translator.Translator">
<polygon fill="white" stroke="black" points="448,-49.5 448,-68.5 560,-68.5 560,-49.5 448,-49.5"/>
<text text-anchor="middle" x="504" y="-56.5" font-family="Helvetica,sans-Serif" font-size="10.00">translator.Translator</text>
</a>
</g>
</g>
<!-- Node13&#45;&gt;Node4 -->
<g id="edge12" class="edge"><title>Node13&#45;&gt;Node4</title>
<path fill="none" stroke="#9a32cd" stroke-dasharray="5,2" d="M557.637,-70.7895C567.728,-73.1233 578.202,-75.596 588,-78 625.481,-87.1958 635.044,-88.8816 672,-100 674.547,-100.766 697.13,-108.459 719.159,-115.988"/>
<polygon fill="#9a32cd" stroke="#9a32cd" points="558.241,-67.3373 547.711,-68.5097 556.674,-74.1596 558.241,-67.3373"/>
<text text-anchor="middle" x="639" y="-103" font-family="Helvetica,sans-Serif" font-size="10.00"> translator</text>
</g>
<!-- Node14 -->
<g id="node14" class="node"><title>Node14</title>
<polygon fill="white" stroke="#bfbfbf" points="58,-4.5 58,-23.5 180,-23.5 180,-4.5 58,-4.5"/>
<text text-anchor="middle" x="119" y="-11.5" font-family="Helvetica,sans-Serif" font-size="10.00">Map&lt; String, String &gt;</text>
</g>
<!-- Node14&#45;&gt;Node13 -->
<g id="edge13" class="edge"><title>Node14&#45;&gt;Node13</title>
<path fill="none" stroke="#9a32cd" stroke-dasharray="5,2" d="M190.327,-13.7993C247.772,-14.8131 330.809,-18.9751 402,-33 410.274,-34.6299 411.894,-36.6768 420,-39 432.966,-42.7159 447.202,-46.3172 460.166,-49.4158"/>
<polygon fill="#9a32cd" stroke="#9a32cd" points="190.316,-10.2988 180.265,-13.6493 190.211,-17.2981 190.316,-10.2988"/>
<text text-anchor="middle" x="329" y="-91" font-family="Helvetica,sans-Serif" font-size="10.00"> dictionaryOfClassNameToPath</text>
<text text-anchor="middle" x="329" y="-80" font-family="Helvetica,sans-Serif" font-size="10.00">reverseMapping</text>
<text text-anchor="start" x="256" y="-69" font-family="Helvetica,sans-Serif" font-size="10.00">dictionaryOfLanguageToClass</text>
<text text-anchor="middle" x="329" y="-58" font-family="Helvetica,sans-Serif" font-size="10.00">Path</text>
<text text-anchor="middle" x="329" y="-47" font-family="Helvetica,sans-Serif" font-size="10.00">syntaxDictionary</text>
<text text-anchor="middle" x="329" y="-36" font-family="Helvetica,sans-Serif" font-size="10.00">dictionaryLanguageToEnglish</text>
</g>
<!-- Node15 -->
<g id="node15" class="node"><title>Node15</title>
<g id="a_node15"><a xlink:href="../../d2/df5/classworkspace_state_1_1_palette.html" target="_top" xlink:title="workspaceState.Palette\l\&lt; Color \&gt;">
<polygon fill="white" stroke="black" points="439.5,-0 439.5,-30 568.5,-30 568.5,-0 439.5,-0"/>
<text text-anchor="start" x="447.5" y="-18" font-family="Helvetica,sans-Serif" font-size="10.00">workspaceState.Palette</text>
<text text-anchor="middle" x="504" y="-7" font-family="Helvetica,sans-Serif" font-size="10.00">&lt; Color &gt;</text>
</a>
</g>
</g>
<!-- Node15&#45;&gt;Node4 -->
<g id="edge14" class="edge"><title>Node15&#45;&gt;Node4</title>
<path fill="none" stroke="#9a32cd" stroke-dasharray="5,2" d="M578.824,-24.7502C610.568,-32.1502 646.219,-45.1549 672,-68 685.987,-80.3938 676.064,-93.549 690,-106 694.296,-109.838 699.208,-113.092 704.408,-115.85"/>
<polygon fill="#9a32cd" stroke="#9a32cd" points="579.188,-21.2475 568.672,-22.5392 577.698,-28.0872 579.188,-21.2475"/>
<text text-anchor="middle" x="639" y="-71" font-family="Helvetica,sans-Serif" font-size="10.00"> colorPalette</text>
</g>
<!-- Node16 -->
<g id="node16" class="node"><title>Node16</title>
<g id="a_node16"><a xlink:href="../../d1/d88/classworkspace_state_1_1_user_defined_command_collection_1_1_command.html" target="_top" xlink:title="workspaceState.UserDefined\lCommandCollection.Command">
<polygon fill="white" stroke="black" points="1000.5,-73 1000.5,-103 1167.5,-103 1167.5,-73 1000.5,-73"/>
<text text-anchor="start" x="1008.5" y="-91" font-family="Helvetica,sans-Serif" font-size="10.00">workspaceState.UserDefined</text>
<text text-anchor="middle" x="1084" y="-80" font-family="Helvetica,sans-Serif" font-size="10.00">CommandCollection.Command</text>
</a>
</g>
</g>
<!-- Node16&#45;&gt;Node1 -->
<g id="edge15" class="edge"><title>Node16&#45;&gt;Node1</title>
<path fill="none" stroke="#9a32cd" stroke-dasharray="5,2" d="M1177.91,-96.4146C1205.81,-98.9417 1236.3,-101.703 1263.75,-104.189"/>
<polygon fill="#9a32cd" stroke="#9a32cd" points="1178.03,-92.9114 1167.76,-95.495 1177.4,-99.8828 1178.03,-92.9114"/>
<text text-anchor="middle" x="1220" y="-106" font-family="Helvetica,sans-Serif" font-size="10.00"> command</text>
</g>
<!-- Node17 -->
<g id="node17" class="node"><title>Node17</title>
<polygon fill="white" stroke="#bfbfbf" points="722,-77.5 722,-96.5 806,-96.5 806,-77.5 722,-77.5"/>
<text text-anchor="middle" x="764" y="-84.5" font-family="Helvetica,sans-Serif" font-size="10.00">List&lt; String &gt;</text>
</g>
<!-- Node17&#45;&gt;Node16 -->
<g id="edge16" class="edge"><title>Node17&#45;&gt;Node16</title>
<path fill="none" stroke="#9a32cd" stroke-dasharray="5,2" d="M816.439,-87.1618C866.156,-87.3181 942.288,-87.5575 1000.48,-87.7405"/>
<polygon fill="#9a32cd" stroke="#9a32cd" points="816.258,-83.6613 806.247,-87.1297 816.236,-90.6612 816.258,-83.6613"/>
<text text-anchor="middle" x="915" y="-102" font-family="Helvetica,sans-Serif" font-size="10.00"> parameterList</text>
<text text-anchor="middle" x="915" y="-91" font-family="Helvetica,sans-Serif" font-size="10.00">commandStrings</text>
</g>
</g>
</svg>
