<?xml version="1.0" encoding="UTF-8" standalone="no"?>
<!DOCTYPE svg PUBLIC "-//W3C//DTD SVG 1.1//EN"
 "http://www.w3.org/Graphics/SVG/1.1/DTD/svg11.dtd">
<!-- Generated by graphviz version 2.36.0 (20140111.2315)
 -->
<!-- Title: commandParsing.floatCommandParsing.TwoInputFloatCommandParser Pages: 1 -->
<svg width="1322pt" height="712pt"
 viewBox="0.00 0.00 1322.00 712.00" xmlns="http://www.w3.org/2000/svg" xmlns:xlink="http://www.w3.org/1999/xlink">
<g id="graph0" class="graph" transform="scale(1 1) rotate(0) translate(4 708)">
<title>commandParsing.floatCommandParsing.TwoInputFloatCommandParser</title>
<polygon fill="white" stroke="none" points="-4,4 -4,-708 1318,-708 1318,4 -4,4"/>
<!-- Node1 -->
<g id="node1" class="node"><title>Node1</title>
<polygon fill="#bfbfbf" stroke="black" points="438,-355 438,-385 636,-385 636,-355 438,-355"/>
<text text-anchor="start" x="446" y="-373" font-family="Helvetica,sans-Serif" font-size="10.00">commandParsing.floatCommand</text>
<text text-anchor="middle" x="537" y="-362" font-family="Helvetica,sans-Serif" font-size="10.00">Parsing.TwoInputFloatCommandParser</text>
</g>
<!-- Node4 -->
<g id="node4" class="node"><title>Node4</title>
<g id="a_node4"><a xlink:href="../../d2/dd5/classcommand_parsing_1_1boolean_command_parsing_1_1_and.html" target="_top" xlink:title="commandParsing.booleanCommand\lParsing.And">
<polygon fill="white" stroke="black" points="681.5,-674 681.5,-704 872.5,-704 872.5,-674 681.5,-674"/>
<text text-anchor="start" x="689.5" y="-692" font-family="Helvetica,sans-Serif" font-size="10.00">commandParsing.booleanCommand</text>
<text text-anchor="middle" x="777" y="-681" font-family="Helvetica,sans-Serif" font-size="10.00">Parsing.And</text>
</a>
</g>
</g>
<!-- Node1&#45;&gt;Node4 -->
<g id="edge3" class="edge"><title>Node1&#45;&gt;Node4</title>
<path fill="none" stroke="midnightblue" d="M541.917,-395.312C552.155,-452.533 585.195,-592.425 672,-664 676.656,-667.839 681.807,-671.107 687.251,-673.886"/>
<polygon fill="midnightblue" stroke="midnightblue" points="545.344,-394.589 540.213,-385.319 538.444,-395.765 545.344,-394.589"/>
</g>
<!-- Node5 -->
<g id="node5" class="node"><title>Node5</title>
<g id="a_node5"><a xlink:href="../../d7/d4f/classcommand_parsing_1_1boolean_command_parsing_1_1_equal.html" target="_top" xlink:title="commandParsing.booleanCommand\lParsing.Equal">
<polygon fill="white" stroke="black" points="681.5,-625 681.5,-655 872.5,-655 872.5,-625 681.5,-625"/>
<text text-anchor="start" x="689.5" y="-643" font-family="Helvetica,sans-Serif" font-size="10.00">commandParsing.booleanCommand</text>
<text text-anchor="middle" x="777" y="-632" font-family="Helvetica,sans-Serif" font-size="10.00">Parsing.Equal</text>
</a>
</g>
</g>
<!-- Node1&#45;&gt;Node5 -->
<g id="edge4" class="edge"><title>Node1&#45;&gt;Node5</title>
<path fill="none" stroke="midnightblue" d="M544.283,-394.865C558.238,-444.794 596.692,-557.38 672,-615 677.088,-618.893 682.694,-622.191 688.585,-624.983"/>
<polygon fill="midnightblue" stroke="midnightblue" points="547.66,-393.945 541.673,-385.205 540.903,-395.771 547.66,-393.945"/>
</g>
<!-- Node6 -->
<g id="node6" class="node"><title>Node6</title>
<g id="a_node6"><a xlink:href="../../d9/dfe/classcommand_parsing_1_1boolean_command_parsing_1_1_greater_than.html" target="_top" xlink:title="commandParsing.booleanCommand\lParsing.GreaterThan">
<polygon fill="white" stroke="black" points="681.5,-576 681.5,-606 872.5,-606 872.5,-576 681.5,-576"/>
<text text-anchor="start" x="689.5" y="-594" font-family="Helvetica,sans-Serif" font-size="10.00">commandParsing.booleanCommand</text>
<text text-anchor="middle" x="777" y="-583" font-family="Helvetica,sans-Serif" font-size="10.00">Parsing.GreaterThan</text>
</a>
</g>
</g>
<!-- Node1&#45;&gt;Node6 -->
<g id="edge5" class="edge"><title>Node1&#45;&gt;Node6</title>
<path fill="none" stroke="midnightblue" d="M547.704,-394.522C565.629,-436.514 608.039,-521.912 672,-566 677.657,-569.899 683.851,-573.194 690.31,-575.977"/>
<polygon fill="midnightblue" stroke="midnightblue" points="550.843,-392.957 543.771,-385.068 544.38,-395.646 550.843,-392.957"/>
</g>
<!-- Node7 -->
<g id="node7" class="node"><title>Node7</title>
<g id="a_node7"><a xlink:href="../../d9/dbc/classcommand_parsing_1_1boolean_command_parsing_1_1_less_than.html" target="_top" xlink:title="commandParsing.booleanCommand\lParsing.LessThan">
<polygon fill="white" stroke="black" points="681.5,-527 681.5,-557 872.5,-557 872.5,-527 681.5,-527"/>
<text text-anchor="start" x="689.5" y="-545" font-family="Helvetica,sans-Serif" font-size="10.00">commandParsing.booleanCommand</text>
<text text-anchor="middle" x="777" y="-534" font-family="Helvetica,sans-Serif" font-size="10.00">Parsing.LessThan</text>
</a>
</g>
</g>
<!-- Node1&#45;&gt;Node7 -->
<g id="edge6" class="edge"><title>Node1&#45;&gt;Node7</title>
<path fill="none" stroke="midnightblue" d="M552.912,-393.78C574.849,-426.714 619.01,-485.683 672,-517 678.555,-520.874 685.677,-524.148 693.018,-526.915"/>
<polygon fill="midnightblue" stroke="midnightblue" points="555.723,-391.684 547.324,-385.226 549.863,-395.512 555.723,-391.684"/>
</g>
<!-- Node8 -->
<g id="node8" class="node"><title>Node8</title>
<g id="a_node8"><a xlink:href="../../dc/dfd/classcommand_parsing_1_1boolean_command_parsing_1_1_not_equal.html" target="_top" xlink:title="commandParsing.booleanCommand\lParsing.NotEqual">
<polygon fill="white" stroke="black" points="681.5,-478 681.5,-508 872.5,-508 872.5,-478 681.5,-478"/>
<text text-anchor="start" x="689.5" y="-496" font-family="Helvetica,sans-Serif" font-size="10.00">commandParsing.booleanCommand</text>
<text text-anchor="middle" x="777" y="-485" font-family="Helvetica,sans-Serif" font-size="10.00">Parsing.NotEqual</text>
</a>
</g>
</g>
<!-- Node1&#45;&gt;Node8 -->
<g id="edge7" class="edge"><title>Node1&#45;&gt;Node8</title>
<path fill="none" stroke="midnightblue" d="M561.597,-391.825C587.004,-414.17 629.521,-448.329 672,-468 680.341,-471.863 689.345,-475.166 698.443,-477.983"/>
<polygon fill="midnightblue" stroke="midnightblue" points="563.762,-389.067 553.971,-385.019 559.101,-394.289 563.762,-389.067"/>
</g>
<!-- Node9 -->
<g id="node9" class="node"><title>Node9</title>
<g id="a_node9"><a xlink:href="../../d5/dbb/classcommand_parsing_1_1boolean_command_parsing_1_1_or.html" target="_top" xlink:title="commandParsing.booleanCommand\lParsing.Or">
<polygon fill="white" stroke="black" points="681.5,-429 681.5,-459 872.5,-459 872.5,-429 681.5,-429"/>
<text text-anchor="start" x="689.5" y="-447" font-family="Helvetica,sans-Serif" font-size="10.00">commandParsing.booleanCommand</text>
<text text-anchor="middle" x="777" y="-436" font-family="Helvetica,sans-Serif" font-size="10.00">Parsing.Or</text>
</a>
</g>
</g>
<!-- Node1&#45;&gt;Node9 -->
<g id="edge8" class="edge"><title>Node1&#45;&gt;Node9</title>
<path fill="none" stroke="midnightblue" d="M584.874,-388.638C610.396,-398.405 642.668,-410.143 672,-419 683.733,-422.543 696.329,-425.92 708.563,-428.983"/>
<polygon fill="midnightblue" stroke="midnightblue" points="586.033,-385.334 575.443,-385.002 583.514,-391.865 586.033,-385.334"/>
</g>
<!-- Node10 -->
<g id="node10" class="node"><title>Node10</title>
<g id="a_node10"><a xlink:href="../../d5/d42/classcommand_parsing_1_1math_command_parsing_1_1_difference.html" target="_top" xlink:title="commandParsing.mathCommand\lParsing.Difference">
<polygon fill="white" stroke="black" points="687.5,-380 687.5,-410 866.5,-410 866.5,-380 687.5,-380"/>
<text text-anchor="start" x="695.5" y="-398" font-family="Helvetica,sans-Serif" font-size="10.00">commandParsing.mathCommand</text>
<text text-anchor="middle" x="777" y="-387" font-family="Helvetica,sans-Serif" font-size="10.00">Parsing.Difference</text>
</a>
</g>
</g>
<!-- Node1&#45;&gt;Node10 -->
<g id="edge9" class="edge"><title>Node1&#45;&gt;Node10</title>
<path fill="none" stroke="midnightblue" d="M646.137,-381.359C659.876,-382.802 673.81,-384.266 687.198,-385.672"/>
<polygon fill="midnightblue" stroke="midnightblue" points="646.489,-377.877 636.178,-380.313 645.757,-384.838 646.489,-377.877"/>
</g>
<!-- Node11 -->
<g id="node11" class="node"><title>Node11</title>
<g id="a_node11"><a xlink:href="../../d6/d5c/classcommand_parsing_1_1math_command_parsing_1_1_power.html" target="_top" xlink:title="commandParsing.mathCommand\lParsing.Power">
<polygon fill="white" stroke="black" points="687.5,-331 687.5,-361 866.5,-361 866.5,-331 687.5,-331"/>
<text text-anchor="start" x="695.5" y="-349" font-family="Helvetica,sans-Serif" font-size="10.00">commandParsing.mathCommand</text>
<text text-anchor="middle" x="777" y="-338" font-family="Helvetica,sans-Serif" font-size="10.00">Parsing.Power</text>
</a>
</g>
</g>
<!-- Node1&#45;&gt;Node11 -->
<g id="edge10" class="edge"><title>Node1&#45;&gt;Node11</title>
<path fill="none" stroke="midnightblue" d="M646.137,-359.095C659.876,-357.71 673.81,-356.305 687.198,-354.955"/>
<polygon fill="midnightblue" stroke="midnightblue" points="645.776,-355.614 636.178,-360.1 646.479,-362.579 645.776,-355.614"/>
</g>
<!-- Node12 -->
<g id="node12" class="node"><title>Node12</title>
<g id="a_node12"><a xlink:href="../../df/d1a/classcommand_parsing_1_1math_command_parsing_1_1_product.html" target="_top" xlink:title="commandParsing.mathCommand\lParsing.Product">
<polygon fill="white" stroke="black" points="687.5,-282 687.5,-312 866.5,-312 866.5,-282 687.5,-282"/>
<text text-anchor="start" x="695.5" y="-300" font-family="Helvetica,sans-Serif" font-size="10.00">commandParsing.mathCommand</text>
<text text-anchor="middle" x="777" y="-289" font-family="Helvetica,sans-Serif" font-size="10.00">Parsing.Product</text>
</a>
</g>
</g>
<!-- Node1&#45;&gt;Node12 -->
<g id="edge11" class="edge"><title>Node1&#45;&gt;Node12</title>
<path fill="none" stroke="midnightblue" d="M584.842,-351.255C610.355,-341.457 642.628,-329.723 672,-321 682.747,-317.808 694.223,-314.785 705.483,-312.028"/>
<polygon fill="midnightblue" stroke="midnightblue" points="583.476,-348.03 575.415,-354.905 586.004,-354.558 583.476,-348.03"/>
</g>
<!-- Node13 -->
<g id="node13" class="node"><title>Node13</title>
<g id="a_node13"><a xlink:href="../../db/d56/classcommand_parsing_1_1math_command_parsing_1_1_quotient.html" target="_top" xlink:title="commandParsing.mathCommand\lParsing.Quotient">
<polygon fill="white" stroke="black" points="687.5,-233 687.5,-263 866.5,-263 866.5,-233 687.5,-233"/>
<text text-anchor="start" x="695.5" y="-251" font-family="Helvetica,sans-Serif" font-size="10.00">commandParsing.mathCommand</text>
<text text-anchor="middle" x="777" y="-240" font-family="Helvetica,sans-Serif" font-size="10.00">Parsing.Quotient</text>
</a>
</g>
</g>
<!-- Node1&#45;&gt;Node13 -->
<g id="edge12" class="edge"><title>Node1&#45;&gt;Node13</title>
<path fill="none" stroke="midnightblue" d="M561.561,-348.097C586.939,-325.689 629.432,-291.478 672,-272 679.498,-268.569 687.532,-265.606 695.689,-263.051"/>
<polygon fill="midnightblue" stroke="midnightblue" points="559.055,-345.643 553.945,-354.924 563.727,-350.856 559.055,-345.643"/>
</g>
<!-- Node14 -->
<g id="node14" class="node"><title>Node14</title>
<g id="a_node14"><a xlink:href="../../d8/d03/classcommand_parsing_1_1math_command_parsing_1_1_remainder.html" target="_top" xlink:title="commandParsing.mathCommand\lParsing.Remainder">
<polygon fill="white" stroke="black" points="687.5,-184 687.5,-214 866.5,-214 866.5,-184 687.5,-184"/>
<text text-anchor="start" x="695.5" y="-202" font-family="Helvetica,sans-Serif" font-size="10.00">commandParsing.mathCommand</text>
<text text-anchor="middle" x="777" y="-191" font-family="Helvetica,sans-Serif" font-size="10.00">Parsing.Remainder</text>
</a>
</g>
</g>
<!-- Node1&#45;&gt;Node14 -->
<g id="edge13" class="edge"><title>Node1&#45;&gt;Node14</title>
<path fill="none" stroke="midnightblue" d="M552.872,-346.153C574.763,-313.14 618.868,-254.075 672,-223 677.918,-219.539 684.298,-216.577 690.883,-214.042"/>
<polygon fill="midnightblue" stroke="midnightblue" points="549.813,-344.437 547.298,-354.729 555.682,-348.252 549.813,-344.437"/>
</g>
<!-- Node15 -->
<g id="node15" class="node"><title>Node15</title>
<g id="a_node15"><a xlink:href="../../dc/db9/classcommand_parsing_1_1math_command_parsing_1_1_sum.html" target="_top" xlink:title="commandParsing.mathCommand\lParsing.Sum">
<polygon fill="white" stroke="black" points="687.5,-135 687.5,-165 866.5,-165 866.5,-135 687.5,-135"/>
<text text-anchor="start" x="695.5" y="-153" font-family="Helvetica,sans-Serif" font-size="10.00">commandParsing.mathCommand</text>
<text text-anchor="middle" x="777" y="-142" font-family="Helvetica,sans-Serif" font-size="10.00">Parsing.Sum</text>
</a>
</g>
</g>
<!-- Node1&#45;&gt;Node15 -->
<g id="edge14" class="edge"><title>Node1&#45;&gt;Node15</title>
<path fill="none" stroke="midnightblue" d="M547.662,-345.417C565.524,-303.332 607.839,-217.797 672,-174 677.05,-170.553 682.527,-167.595 688.236,-165.059"/>
<polygon fill="midnightblue" stroke="midnightblue" points="544.33,-344.314 543.744,-354.893 550.799,-346.989 544.33,-344.314"/>
</g>
<!-- Node16 -->
<g id="node16" class="node"><title>Node16</title>
<g id="a_node16"><a xlink:href="../../da/d63/classcommand_parsing_1_1turtle_command_parsing_1_1turtle_attribute_setters_1_1_set_towards.html" target="_top" xlink:title="commandParsing.turtleCommand\lParsing.turtleAttributeSetters.\lSetTowards">
<polygon fill="white" stroke="black" points="687.5,-75.5 687.5,-116.5 866.5,-116.5 866.5,-75.5 687.5,-75.5"/>
<text text-anchor="start" x="695.5" y="-104.5" font-family="Helvetica,sans-Serif" font-size="10.00">commandParsing.turtleCommand</text>
<text text-anchor="start" x="695.5" y="-93.5" font-family="Helvetica,sans-Serif" font-size="10.00">Parsing.turtleAttributeSetters.</text>
<text text-anchor="middle" x="777" y="-82.5" font-family="Helvetica,sans-Serif" font-size="10.00">SetTowards</text>
</a>
</g>
</g>
<!-- Node1&#45;&gt;Node16 -->
<g id="edge15" class="edge"><title>Node1&#45;&gt;Node16</title>
<path fill="none" stroke="midnightblue" d="M544.549,-345.048C558.897,-295.374 597.897,-183.844 672,-125 676.697,-121.27 681.845,-118.019 687.258,-115.186"/>
<polygon fill="midnightblue" stroke="midnightblue" points="541.106,-344.365 541.784,-354.938 547.847,-346.25 541.106,-344.365"/>
</g>
<!-- Node17 -->
<g id="node17" class="node"><title>Node17</title>
<g id="a_node17"><a xlink:href="../../d9/dab/classcommand_parsing_1_1turtle_command_parsing_1_1turtle_movement_1_1_move_to_location.html" target="_top" xlink:title="commandParsing.turtleCommand\lParsing.turtleMovement.MoveToLocation">
<polygon fill="white" stroke="black" points="672.5,-27 672.5,-57 881.5,-57 881.5,-27 672.5,-27"/>
<text text-anchor="start" x="680.5" y="-45" font-family="Helvetica,sans-Serif" font-size="10.00">commandParsing.turtleCommand</text>
<text text-anchor="middle" x="777" y="-34" font-family="Helvetica,sans-Serif" font-size="10.00">Parsing.turtleMovement.MoveToLocation</text>
</a>
</g>
</g>
<!-- Node1&#45;&gt;Node17 -->
<g id="edge16" class="edge"><title>Node1&#45;&gt;Node17</title>
<path fill="none" stroke="midnightblue" d="M541.457,-344.617C550.851,-285.904 582.45,-140.092 672,-66 676.14,-62.5744 680.677,-59.6169 685.468,-57.0655"/>
<polygon fill="midnightblue" stroke="midnightblue" points="537.945,-344.43 539.908,-354.841 544.866,-345.478 537.945,-344.43"/>
</g>
<!-- Node2 -->
<g id="node2" class="node"><title>Node2</title>
<g id="a_node2"><a xlink:href="../../d9/d8d/classcommand_parsing_1_1float_command_parsing_1_1_float_input_command_parser.html" target="_top" xlink:title="commandParsing.floatCommand\lParsing.FloatInputCommandParser">
<polygon fill="white" stroke="black" points="220,-355 220,-385 402,-385 402,-355 220,-355"/>
<text text-anchor="start" x="228" y="-373" font-family="Helvetica,sans-Serif" font-size="10.00">commandParsing.floatCommand</text>
<text text-anchor="middle" x="311" y="-362" font-family="Helvetica,sans-Serif" font-size="10.00">Parsing.FloatInputCommandParser</text>
</a>
</g>
</g>
<!-- Node2&#45;&gt;Node1 -->
<g id="edge1" class="edge"><title>Node2&#45;&gt;Node1</title>
<path fill="none" stroke="midnightblue" d="M412.158,-370C420.739,-370 429.413,-370 437.976,-370"/>
<polygon fill="midnightblue" stroke="midnightblue" points="412.141,-366.5 402.141,-370 412.141,-373.5 412.141,-366.5"/>
</g>
<!-- Node3 -->
<g id="node3" class="node"><title>Node3</title>
<g id="a_node3"><a xlink:href="../../d7/d17/classcommand_parsing_1_1_command_parser.html" target="_top" xlink:title="commandParsing.CommandParser">
<polygon fill="white" stroke="black" points="0.5,-360.5 0.5,-379.5 183.5,-379.5 183.5,-360.5 0.5,-360.5"/>
<text text-anchor="middle" x="92" y="-367.5" font-family="Helvetica,sans-Serif" font-size="10.00">commandParsing.CommandParser</text>
</a>
</g>
</g>
<!-- Node3&#45;&gt;Node2 -->
<g id="edge2" class="edge"><title>Node3&#45;&gt;Node2</title>
<path fill="none" stroke="midnightblue" d="M193.92,-370C202.603,-370 211.352,-370 219.941,-370"/>
<polygon fill="midnightblue" stroke="midnightblue" points="193.77,-366.5 183.77,-370 193.77,-373.5 193.77,-366.5"/>
</g>
<!-- Node18 -->
<g id="node18" class="node"><title>Node18</title>
<g id="a_node18"><a xlink:href="../../d4/d74/classcommand_parsing_1_1turtle_command_parsing_1_1turtle_attribute_setters_1_1_set_position.html" target="_top" xlink:title="commandParsing.turtleCommand\lParsing.turtleAttributeSetters.\lSetPosition">
<polygon fill="white" stroke="black" points="918.5,-48.5 918.5,-89.5 1097.5,-89.5 1097.5,-48.5 918.5,-48.5"/>
<text text-anchor="start" x="926.5" y="-77.5" font-family="Helvetica,sans-Serif" font-size="10.00">commandParsing.turtleCommand</text>
<text text-anchor="start" x="926.5" y="-66.5" font-family="Helvetica,sans-Serif" font-size="10.00">Parsing.turtleAttributeSetters.</text>
<text text-anchor="middle" x="1008" y="-55.5" font-family="Helvetica,sans-Serif" font-size="10.00">SetPosition</text>
</a>
</g>
</g>
<!-- Node17&#45;&gt;Node18 -->
<g id="edge17" class="edge"><title>Node17&#45;&gt;Node18</title>
<path fill="none" stroke="midnightblue" d="M891.804,-55.4179C900.694,-56.4662 909.591,-57.5151 918.278,-58.5394"/>
<polygon fill="midnightblue" stroke="midnightblue" points="892.121,-51.9311 881.78,-54.236 891.301,-58.883 892.121,-51.9311"/>
</g>
<!-- Node19 -->
<g id="node19" class="node"><title>Node19</title>
<g id="a_node19"><a xlink:href="../../dd/d8a/classcommand_parsing_1_1turtle_command_parsing_1_1turtle_movement_1_1_home.html" target="_top" xlink:title="commandParsing.turtleCommand\lParsing.turtleMovement.Home">
<polygon fill="white" stroke="black" points="918.5,-0 918.5,-30 1097.5,-30 1097.5,-0 918.5,-0"/>
<text text-anchor="start" x="926.5" y="-18" font-family="Helvetica,sans-Serif" font-size="10.00">commandParsing.turtleCommand</text>
<text text-anchor="middle" x="1008" y="-7" font-family="Helvetica,sans-Serif" font-size="10.00">Parsing.turtleMovement.Home</text>
</a>
</g>
</g>
<!-- Node17&#45;&gt;Node19 -->
<g id="edge18" class="edge"><title>Node17&#45;&gt;Node19</title>
<path fill="none" stroke="midnightblue" d="M891.804,-28.5821C900.694,-27.5338 909.591,-26.4849 918.278,-25.4606"/>
<polygon fill="midnightblue" stroke="midnightblue" points="891.301,-25.117 881.78,-29.764 892.121,-32.0689 891.301,-25.117"/>
</g>
<!-- Node20 -->
<g id="node20" class="node"><title>Node20</title>
<g id="a_node20"><a xlink:href="../../dd/dc5/classcommand_parsing_1_1turtle_command_parsing_1_1_clear_screen.html" target="_top" xlink:title="commandParsing.turtleCommand\lParsing.ClearScreen">
<polygon fill="white" stroke="black" points="1134.5,-0 1134.5,-30 1313.5,-30 1313.5,-0 1134.5,-0"/>
<text text-anchor="start" x="1142.5" y="-18" font-family="Helvetica,sans-Serif" font-size="10.00">commandParsing.turtleCommand</text>
<text text-anchor="middle" x="1224" y="-7" font-family="Helvetica,sans-Serif" font-size="10.00">Parsing.ClearScreen</text>
</a>
</g>
</g>
<!-- Node19&#45;&gt;Node20 -->
<g id="edge19" class="edge"><title>Node19&#45;&gt;Node20</title>
<path fill="none" stroke="midnightblue" d="M1107.65,-15C1116.6,-15 1125.62,-15 1134.48,-15"/>
<polygon fill="midnightblue" stroke="midnightblue" points="1107.59,-11.5001 1097.59,-15 1107.59,-18.5001 1107.59,-11.5001"/>
</g>
</g>
</svg>
