<?xml version="1.0" encoding="UTF-8" standalone="no"?>
<!DOCTYPE svg PUBLIC "-//W3C//DTD SVG 1.1//EN"
 "http://www.w3.org/Graphics/SVG/1.1/DTD/svg11.dtd">
<!-- Generated by graphviz version 2.36.0 (20140111.2315)
 -->
<!-- Title: workspaceState.Shape.getPath Pages: 1 -->
<!--zoomable 675 -->
<svg id="main" version="1.1" xmlns="http://www.w3.org/2000/svg" xmlns:xlink="http://www.w3.org/1999/xlink" xml:space="preserve" onload="init(evt)">
<style type="text/css"><![CDATA[
.edge:hover path { stroke: red; }
.edge:hover polygon { stroke: red; fill: red; }
]]></style>
<script type="text/javascript"><![CDATA[
var edges = document.getElementsByTagName('g');
if (edges && edges.length) {
  for (var i=0;i<edges.length;i++) {
    if (edges[i].id.substr(0,4)=='edge') {
      edges[i].setAttribute('class','edge');
    }
  }
}
]]></script>
        <defs>
                <circle id="rim" cx="0" cy="0" r="7"/>
                <circle id="rim2" cx="0" cy="0" r="3.5"/>
                <g id="zoomPlus">
                        <use xlink:href="#rim" fill="#404040">
                                <set attributeName="fill" to="#808080" begin="zoomplus.mouseover" end="zoomplus.mouseout"/>
                        </use>
                        <path d="M-4,0h8M0,-4v8" fill="none" stroke="white" stroke-width="1.5" pointer-events="none"/>
                </g>
                <g id="zoomMin">
                        <use xlink:href="#rim" fill="#404040">
                                <set attributeName="fill" to="#808080" begin="zoomminus.mouseover" end="zoomminus.mouseout"/>
                        </use>
                        <path d="M-4,0h8" fill="none" stroke="white" stroke-width="1.5" pointer-events="none"/>
                </g>
                <g id="dirArrow">
                        <path fill="none" stroke="white" stroke-width="1.5" d="M0,-3.0v7 M-2.5,-0.5L0,-3.0L2.5,-0.5"/>
                </g>
               <g id="resetDef">
                       <use xlink:href="#rim2" fill="#404040">
                               <set attributeName="fill" to="#808080" begin="reset.mouseover" end="reset.mouseout"/>
                       </use>
               </g>
        </defs>

<script type="text/javascript">
var viewWidth = 946;
var viewHeight = 675;
var sectionId = 'dynsection-2';
</script>
<script xlink:href="../../svgpan.js"/>
<svg id="graph" class="graph">
<g id="viewport">
<title>workspaceState.Shape.getPath</title>
<polygon fill="white" stroke="none" points="-4,4 -4,-671 942,-671 942,4 -4,4"/>
<!-- Node1 -->
<g id="node1" class="node"><title>Node1</title>
<polygon fill="#bfbfbf" stroke="black" points="0.5,-288.5 0.5,-307.5 167.5,-307.5 167.5,-288.5 0.5,-288.5"/>
<text text-anchor="middle" x="84" y="-295.5" font-family="Helvetica,sans-Serif" font-size="10.00">workspaceState.Shape.getPath</text>
</g>
<!-- Node2 -->
<g id="node2" class="node"><title>Node2</title>
<g id="a_node2"><a xlink:href="../../d3/d10/interfacecommand_parsing_1_1drawable_obect_generation_interfaces_1_1_shape_palette_update_generator.html#a428e73580c13f7802e9fef9cef6194e7" target="_top" xlink:title="commandParsing.drawableObect\lGenerationInterfaces.ShapePalette\lUpdateGenerator.generateDrawableObject\lRepresentingShapePaletteUpdate">
<polygon fill="white" stroke="black" points="213.5,-497 213.5,-549 434.5,-549 434.5,-497 213.5,-497"/>
<text text-anchor="start" x="221.5" y="-537" font-family="Helvetica,sans-Serif" font-size="10.00">commandParsing.drawableObect</text>
<text text-anchor="start" x="221.5" y="-526" font-family="Helvetica,sans-Serif" font-size="10.00">GenerationInterfaces.ShapePalette</text>
<text text-anchor="start" x="221.5" y="-515" font-family="Helvetica,sans-Serif" font-size="10.00">UpdateGenerator.generateDrawableObject</text>
<text text-anchor="middle" x="324" y="-504" font-family="Helvetica,sans-Serif" font-size="10.00">RepresentingShapePaletteUpdate</text>
</a>
</g>
</g>
<!-- Node1&#45;&gt;Node2 -->
<g id="edge1" class="edge"><title>Node1&#45;&gt;Node2</title>
<path fill="none" stroke="midnightblue" d="M102.585,-314.625C143.639,-353.436 246.048,-450.252 295.466,-496.97"/>
<polygon fill="midnightblue" stroke="midnightblue" points="104.898,-311.994 95.2266,-307.668 100.089,-317.081 104.898,-311.994"/>
</g>
<!-- Node4 -->
<g id="node4" class="node"><title>Node4</title>
<g id="a_node4"><a xlink:href="../../df/d64/interfacecommand_parsing_1_1drawable_obect_generation_interfaces_1_1_turtle_generator.html#ad2df4af6c11d2ec038868c5520be6acd" target="_top" xlink:title="commandParsing.drawableObect\lGenerationInterfaces.TurtleGenerator.generate\lDrawableObjectRepresentingTurtle">
<polygon fill="white" stroke="black" points="204,-307.5 204,-348.5 444,-348.5 444,-307.5 204,-307.5"/>
<text text-anchor="start" x="212" y="-336.5" font-family="Helvetica,sans-Serif" font-size="10.00">commandParsing.drawableObect</text>
<text text-anchor="start" x="212" y="-325.5" font-family="Helvetica,sans-Serif" font-size="10.00">GenerationInterfaces.TurtleGenerator.generate</text>
<text text-anchor="middle" x="324" y="-314.5" font-family="Helvetica,sans-Serif" font-size="10.00">DrawableObjectRepresentingTurtle</text>
</a>
</g>
</g>
<!-- Node1&#45;&gt;Node4 -->
<g id="edge3" class="edge"><title>Node1&#45;&gt;Node4</title>
<path fill="none" stroke="midnightblue" d="M170.765,-308.811C181.472,-310.16 192.569,-311.559 203.67,-312.958"/>
<polygon fill="midnightblue" stroke="midnightblue" points="170.991,-305.312 160.632,-307.533 170.115,-312.257 170.991,-305.312"/>
</g>
<!-- Node19 -->
<g id="node19" class="node"><title>Node19</title>
<g id="a_node19"><a xlink:href="../../dc/dfa/classtests_1_1command_tests_1_1color_command_tests_1_1_get_shape_tests.html#a807c38b796d6c163175a6c00def56503" target="_top" xlink:title="tests.commandTests.color\lCommandTests.GetShapeTests.Get\lShapeTest">
<polygon fill="white" stroke="black" points="231,-247.5 231,-288.5 417,-288.5 417,-247.5 231,-247.5"/>
<text text-anchor="start" x="239" y="-276.5" font-family="Helvetica,sans-Serif" font-size="10.00">tests.commandTests.color</text>
<text text-anchor="start" x="239" y="-265.5" font-family="Helvetica,sans-Serif" font-size="10.00">CommandTests.GetShapeTests.Get</text>
<text text-anchor="middle" x="324" y="-254.5" font-family="Helvetica,sans-Serif" font-size="10.00">ShapeTest</text>
</a>
</g>
</g>
<!-- Node1&#45;&gt;Node19 -->
<g id="edge18" class="edge"><title>Node1&#45;&gt;Node19</title>
<path fill="none" stroke="midnightblue" d="M170.716,-287.196C190.25,-284.733 211.085,-282.107 230.874,-279.613"/>
<polygon fill="midnightblue" stroke="midnightblue" points="170.115,-283.743 160.632,-288.467 170.991,-290.688 170.115,-283.743"/>
</g>
<!-- Node20 -->
<g id="node20" class="node"><title>Node20</title>
<g id="a_node20"><a xlink:href="../../d1/d01/classworkspace_state_1_1_turtle.html#a5b6169e270f90becab8fd423d545de8c" target="_top" xlink:title="workspaceState.Turtle.Turtle">
<polygon fill="white" stroke="black" points="249,-209.5 249,-228.5 399,-228.5 399,-209.5 249,-209.5"/>
<text text-anchor="middle" x="324" y="-216.5" font-family="Helvetica,sans-Serif" font-size="10.00">workspaceState.Turtle.Turtle</text>
</a>
</g>
</g>
<!-- Node1&#45;&gt;Node20 -->
<g id="edge19" class="edge"><title>Node1&#45;&gt;Node20</title>
<path fill="none" stroke="midnightblue" d="M108.973,-283.12C132.357,-269.292 169.364,-249.197 204,-238 218.234,-233.399 233.799,-229.886 248.842,-227.212"/>
<polygon fill="midnightblue" stroke="midnightblue" points="106.893,-280.286 100.126,-288.438 110.499,-286.286 106.893,-280.286"/>
</g>
<!-- Node3 -->
<g id="node3" class="node"><title>Node3</title>
<g id="a_node3"><a xlink:href="../../d4/d75/classcommand_parsing_1_1color_commandparsing_1_1_set_shape_palette.html#af3ab4a90e68f055229809889db8be77a" target="_top" xlink:title="commandParsing.colorCommandparsing.\lSetShapePalette.parse">
<polygon fill="white" stroke="black" points="497.5,-637 497.5,-667 712.5,-667 712.5,-637 497.5,-637"/>
<text text-anchor="start" x="505.5" y="-655" font-family="Helvetica,sans-Serif" font-size="10.00">commandParsing.colorCommandparsing.</text>
<text text-anchor="middle" x="605" y="-644" font-family="Helvetica,sans-Serif" font-size="10.00">SetShapePalette.parse</text>
</a>
</g>
</g>
<!-- Node2&#45;&gt;Node3 -->
<g id="edge2" class="edge"><title>Node2&#45;&gt;Node3</title>
<path fill="none" stroke="midnightblue" d="M363.906,-555.454C393.845,-578.787 437.212,-609.163 480,-627 489.324,-630.887 499.301,-634.184 509.395,-636.978"/>
<polygon fill="midnightblue" stroke="midnightblue" points="365.847,-552.527 355.829,-549.076 361.508,-558.021 365.847,-552.527"/>
</g>
<!-- Node5 -->
<g id="node5" class="node"><title>Node5</title>
<g id="a_node5"><a xlink:href="../../da/df9/classcommand_parsing_1_1structural_command_parsing_1_1_multiple_turtle_command.html#ac35b7854cdc1ab7dcdbc9809a6db903c" target="_top" xlink:title="commandParsing.structural\lCommandParsing.MultipleTurtleCommand.make\lAndActivateGivenTurtles">
<polygon fill="white" stroke="black" points="481.5,-577.5 481.5,-618.5 728.5,-618.5 728.5,-577.5 481.5,-577.5"/>
<text text-anchor="start" x="489.5" y="-606.5" font-family="Helvetica,sans-Serif" font-size="10.00">commandParsing.structural</text>
<text text-anchor="start" x="489.5" y="-595.5" font-family="Helvetica,sans-Serif" font-size="10.00">CommandParsing.MultipleTurtleCommand.make</text>
<text text-anchor="middle" x="605" y="-584.5" font-family="Helvetica,sans-Serif" font-size="10.00">AndActivateGivenTurtles</text>
</a>
</g>
</g>
<!-- Node4&#45;&gt;Node5 -->
<g id="edge4" class="edge"><title>Node4&#45;&gt;Node5</title>
<path fill="none" stroke="midnightblue" d="M349.216,-356.311C374.821,-387.113 415.389,-438.467 444,-487 463.8,-520.588 450.09,-541.988 480,-567 484.681,-570.915 489.788,-574.346 495.174,-577.353"/>
<polygon fill="midnightblue" stroke="midnightblue" points="351.833,-353.984 342.73,-348.563 346.465,-358.477 351.833,-353.984"/>
</g>
<!-- Node9 -->
<g id="node9" class="node"><title>Node9</title>
<g id="a_node9"><a xlink:href="../../d1/d76/classcommand_parsing_1_1turtle_command_parsing_1_1turtle_attribute_setters_1_1_set_heading.html#ae69dccc512c0e9f0fe5341003fd048ea" target="_top" xlink:title="commandParsing.turtleCommand\lParsing.turtleAttributeSetters.\lSetHeading.operateOnComponents">
<polygon fill="white" stroke="black" points="511,-517.5 511,-558.5 699,-558.5 699,-517.5 511,-517.5"/>
<text text-anchor="start" x="519" y="-546.5" font-family="Helvetica,sans-Serif" font-size="10.00">commandParsing.turtleCommand</text>
<text text-anchor="start" x="519" y="-535.5" font-family="Helvetica,sans-Serif" font-size="10.00">Parsing.turtleAttributeSetters.</text>
<text text-anchor="middle" x="605" y="-524.5" font-family="Helvetica,sans-Serif" font-size="10.00">SetHeading.operateOnComponents</text>
</a>
</g>
</g>
<!-- Node4&#45;&gt;Node9 -->
<g id="edge8" class="edge"><title>Node4&#45;&gt;Node9</title>
<path fill="none" stroke="midnightblue" d="M342.181,-357.285C367.267,-397.387 417.778,-468.761 480,-507 489.453,-512.809 499.943,-517.532 510.706,-521.371"/>
<polygon fill="midnightblue" stroke="midnightblue" points="345.007,-355.199 336.788,-348.514 339.044,-358.865 345.007,-355.199"/>
</g>
<!-- Node10 -->
<g id="node10" class="node"><title>Node10</title>
<g id="a_node10"><a xlink:href="../../dd/d66/classcommand_parsing_1_1turtle_command_parsing_1_1turtle_movement_1_1_rotate.html#a9638cfc1f990cd9e8d09196875e555ae" target="_top" xlink:title="commandParsing.turtleCommand\lParsing.turtleMovement.Rotate.operate\lOnComponents">
<polygon fill="white" stroke="black" points="502.5,-457.5 502.5,-498.5 707.5,-498.5 707.5,-457.5 502.5,-457.5"/>
<text text-anchor="start" x="510.5" y="-486.5" font-family="Helvetica,sans-Serif" font-size="10.00">commandParsing.turtleCommand</text>
<text text-anchor="start" x="510.5" y="-475.5" font-family="Helvetica,sans-Serif" font-size="10.00">Parsing.turtleMovement.Rotate.operate</text>
<text text-anchor="middle" x="605" y="-464.5" font-family="Helvetica,sans-Serif" font-size="10.00">OnComponents</text>
</a>
</g>
</g>
<!-- Node4&#45;&gt;Node10 -->
<g id="edge9" class="edge"><title>Node4&#45;&gt;Node10</title>
<path fill="none" stroke="midnightblue" d="M353.572,-355.834C382.958,-382.951 431.203,-423.436 480,-447 488.093,-450.908 496.729,-454.355 505.533,-457.39"/>
<polygon fill="midnightblue" stroke="midnightblue" points="355.855,-353.176 346.159,-348.906 351.076,-358.291 355.855,-353.176"/>
</g>
<!-- Node11 -->
<g id="node11" class="node"><title>Node11</title>
<g id="a_node11"><a xlink:href="../../d9/db7/classcommand_parsing_1_1turtle_command_parsing_1_1turtle_attribute_setters_1_1_set_shape.html#a0ba18906dd13ecd9788f2930fe2c5c4b" target="_top" xlink:title="commandParsing.turtleCommand\lParsing.turtleAttributeSetters.\lSetShape.operateOnComponents">
<polygon fill="white" stroke="black" points="515.5,-397.5 515.5,-438.5 694.5,-438.5 694.5,-397.5 515.5,-397.5"/>
<text text-anchor="start" x="523.5" y="-426.5" font-family="Helvetica,sans-Serif" font-size="10.00">commandParsing.turtleCommand</text>
<text text-anchor="start" x="523.5" y="-415.5" font-family="Helvetica,sans-Serif" font-size="10.00">Parsing.turtleAttributeSetters.</text>
<text text-anchor="middle" x="605" y="-404.5" font-family="Helvetica,sans-Serif" font-size="10.00">SetShape.operateOnComponents</text>
</a>
</g>
</g>
<!-- Node4&#45;&gt;Node11 -->
<g id="edge10" class="edge"><title>Node4&#45;&gt;Node11</title>
<path fill="none" stroke="midnightblue" d="M383.859,-352.293C412.574,-363.658 447.792,-376.884 480,-387 491.644,-390.657 504.008,-394.174 516.246,-397.442"/>
<polygon fill="midnightblue" stroke="midnightblue" points="384.969,-348.968 374.383,-348.517 382.378,-355.471 384.969,-348.968"/>
</g>
<!-- Node12 -->
<g id="node12" class="node"><title>Node12</title>
<g id="a_node12"><a xlink:href="../../d9/dab/classcommand_parsing_1_1turtle_command_parsing_1_1turtle_movement_1_1_move_to_location.html#a914c07518060cce52ab6782b8dcfeb81" target="_top" xlink:title="commandParsing.turtleCommand\lParsing.turtleMovement.MoveToLocation.operate\lOnComponents">
<polygon fill="white" stroke="black" points="480,-337.5 480,-378.5 730,-378.5 730,-337.5 480,-337.5"/>
<text text-anchor="start" x="488" y="-366.5" font-family="Helvetica,sans-Serif" font-size="10.00">commandParsing.turtleCommand</text>
<text text-anchor="start" x="488" y="-355.5" font-family="Helvetica,sans-Serif" font-size="10.00">Parsing.turtleMovement.MoveToLocation.operate</text>
<text text-anchor="middle" x="605" y="-344.5" font-family="Helvetica,sans-Serif" font-size="10.00">OnComponents</text>
</a>
</g>
</g>
<!-- Node4&#45;&gt;Node12 -->
<g id="edge11" class="edge"><title>Node4&#45;&gt;Node12</title>
<path fill="none" stroke="midnightblue" d="M454.167,-341.889C462.745,-342.811 471.374,-343.739 479.926,-344.659"/>
<polygon fill="midnightblue" stroke="midnightblue" points="454.447,-338.399 444.13,-340.81 453.699,-345.359 454.447,-338.399"/>
</g>
<!-- Node13 -->
<g id="node13" class="node"><title>Node13</title>
<g id="a_node13"><a xlink:href="../../da/d63/classcommand_parsing_1_1turtle_command_parsing_1_1turtle_attribute_setters_1_1_set_towards.html#a287e5a64e0179d1de65f2ebb4d5622a2" target="_top" xlink:title="commandParsing.turtleCommand\lParsing.turtleAttributeSetters.\lSetTowards.operateOnComponents">
<polygon fill="white" stroke="black" points="512,-277.5 512,-318.5 698,-318.5 698,-277.5 512,-277.5"/>
<text text-anchor="start" x="520" y="-306.5" font-family="Helvetica,sans-Serif" font-size="10.00">commandParsing.turtleCommand</text>
<text text-anchor="start" x="520" y="-295.5" font-family="Helvetica,sans-Serif" font-size="10.00">Parsing.turtleAttributeSetters.</text>
<text text-anchor="middle" x="605" y="-284.5" font-family="Helvetica,sans-Serif" font-size="10.00">SetTowards.operateOnComponents</text>
</a>
</g>
</g>
<!-- Node4&#45;&gt;Node13 -->
<g id="edge12" class="edge"><title>Node4&#45;&gt;Node13</title>
<path fill="none" stroke="midnightblue" d="M454.262,-314.101C473.698,-312.011 493.4,-309.892 511.849,-307.909"/>
<polygon fill="midnightblue" stroke="midnightblue" points="453.699,-310.641 444.13,-315.19 454.447,-317.601 453.699,-310.641"/>
</g>
<!-- Node14 -->
<g id="node14" class="node"><title>Node14</title>
<g id="a_node14"><a xlink:href="../../d6/d37/classcommand_parsing_1_1turtle_command_parsing_1_1turtle_movement_1_1_move.html#a82fa17cd8efe11bebcbfb1c7ae8fe7c7" target="_top" xlink:title="commandParsing.turtleCommand\lParsing.turtleMovement.Move.operate\lOnComponents">
<polygon fill="white" stroke="black" points="505,-217.5 505,-258.5 705,-258.5 705,-217.5 505,-217.5"/>
<text text-anchor="start" x="513" y="-246.5" font-family="Helvetica,sans-Serif" font-size="10.00">commandParsing.turtleCommand</text>
<text text-anchor="start" x="513" y="-235.5" font-family="Helvetica,sans-Serif" font-size="10.00">Parsing.turtleMovement.Move.operate</text>
<text text-anchor="middle" x="605" y="-224.5" font-family="Helvetica,sans-Serif" font-size="10.00">OnComponents</text>
</a>
</g>
</g>
<!-- Node4&#45;&gt;Node14 -->
<g id="edge13" class="edge"><title>Node4&#45;&gt;Node14</title>
<path fill="none" stroke="midnightblue" d="M428.791,-303.847C434.013,-301.739 439.114,-299.46 444,-297 462.35,-287.76 461.57,-277.08 480,-268 487.848,-264.134 496.226,-260.746 504.785,-257.782"/>
<polygon fill="midnightblue" stroke="midnightblue" points="427.383,-300.638 419.278,-307.461 429.869,-307.182 427.383,-300.638"/>
</g>
<!-- Node15 -->
<g id="node15" class="node"><title>Node15</title>
<g id="a_node15"><a xlink:href="../../d1/de7/classcommand_parsing_1_1turtle_command_parsing_1_1turtle_attribute_setters_1_1_hide_turtle.html#af7c45d61a317edddfeee3960e0a3b59e" target="_top" xlink:title="commandParsing.turtleCommand\lParsing.turtleAttributeSetters.\lHideTurtle.parse">
<polygon fill="white" stroke="black" points="515.5,-157.5 515.5,-198.5 694.5,-198.5 694.5,-157.5 515.5,-157.5"/>
<text text-anchor="start" x="523.5" y="-186.5" font-family="Helvetica,sans-Serif" font-size="10.00">commandParsing.turtleCommand</text>
<text text-anchor="start" x="523.5" y="-175.5" font-family="Helvetica,sans-Serif" font-size="10.00">Parsing.turtleAttributeSetters.</text>
<text text-anchor="middle" x="605" y="-164.5" font-family="Helvetica,sans-Serif" font-size="10.00">HideTurtle.parse</text>
</a>
</g>
</g>
<!-- Node4&#45;&gt;Node15 -->
<g id="edge14" class="edge"><title>Node4&#45;&gt;Node15</title>
<path fill="none" stroke="midnightblue" d="M437.864,-301.9C439.985,-300.357 442.035,-298.726 444,-297 476.061,-268.844 447.694,-235.874 480,-208 490.145,-199.246 502.421,-192.954 515.254,-188.45"/>
<polygon fill="midnightblue" stroke="midnightblue" points="435.839,-299.041 429.352,-307.418 439.647,-304.915 435.839,-299.041"/>
</g>
<!-- Node16 -->
<g id="node16" class="node"><title>Node16</title>
<g id="a_node16"><a xlink:href="../../d6/daa/classcommand_parsing_1_1turtle_command_parsing_1_1turtle_attribute_setters_1_1_show_turtle.html#a806202bb6da0c5999d8c7298f4ed948b" target="_top" xlink:title="commandParsing.turtleCommand\lParsing.turtleAttributeSetters.\lShowTurtle.parse">
<polygon fill="white" stroke="black" points="515.5,-97.5 515.5,-138.5 694.5,-138.5 694.5,-97.5 515.5,-97.5"/>
<text text-anchor="start" x="523.5" y="-126.5" font-family="Helvetica,sans-Serif" font-size="10.00">commandParsing.turtleCommand</text>
<text text-anchor="start" x="523.5" y="-115.5" font-family="Helvetica,sans-Serif" font-size="10.00">Parsing.turtleAttributeSetters.</text>
<text text-anchor="middle" x="605" y="-104.5" font-family="Helvetica,sans-Serif" font-size="10.00">ShowTurtle.parse</text>
</a>
</g>
</g>
<!-- Node4&#45;&gt;Node16 -->
<g id="edge15" class="edge"><title>Node4&#45;&gt;Node16</title>
<path fill="none" stroke="midnightblue" d="M439.446,-301.253C441.021,-299.902 442.541,-298.485 444,-297 491.744,-248.4 431.834,-196.181 480,-148 489.787,-138.21 502.186,-131.412 515.339,-126.729"/>
<polygon fill="midnightblue" stroke="midnightblue" points="437.043,-298.681 431.147,-307.483 441.246,-304.279 437.043,-298.681"/>
</g>
<!-- Node17 -->
<g id="node17" class="node"><title>Node17</title>
<g id="a_node17"><a xlink:href="../../d0/dc1/classcommand_parsing_1_1turtle_command_parsing_1_1_make_turtle.html#a6ed9fedb55ea99caa7a891b0c9bbd20a" target="_top" xlink:title="commandParsing.turtleCommand\lParsing.MakeTurtle.parse">
<polygon fill="white" stroke="black" points="515.5,-49 515.5,-79 694.5,-79 694.5,-49 515.5,-49"/>
<text text-anchor="start" x="523.5" y="-67" font-family="Helvetica,sans-Serif" font-size="10.00">commandParsing.turtleCommand</text>
<text text-anchor="middle" x="605" y="-56" font-family="Helvetica,sans-Serif" font-size="10.00">Parsing.MakeTurtle.parse</text>
</a>
</g>
</g>
<!-- Node4&#45;&gt;Node17 -->
<g id="edge16" class="edge"><title>Node4&#45;&gt;Node17</title>
<path fill="none" stroke="midnightblue" d="M440.128,-300.887C441.466,-299.646 442.758,-298.351 444,-297 507.783,-227.602 414.041,-155.333 480,-88 489.667,-78.1318 502.086,-71.667 515.316,-67.5283"/>
<polygon fill="midnightblue" stroke="midnightblue" points="437.594,-298.434 431.995,-307.428 441.981,-303.889 437.594,-298.434"/>
</g>
<!-- Node18 -->
<g id="node18" class="node"><title>Node18</title>
<g id="a_node18"><a xlink:href="../../d7/dd2/classcommand_parsing_1_1turtle_command_parsing_1_1_stamp.html#a05a3413c6b4195da962917a40ba016ed" target="_top" xlink:title="commandParsing.turtleCommand\lParsing.Stamp.parse">
<polygon fill="white" stroke="black" points="515.5,-0 515.5,-30 694.5,-30 694.5,-0 515.5,-0"/>
<text text-anchor="start" x="523.5" y="-18" font-family="Helvetica,sans-Serif" font-size="10.00">commandParsing.turtleCommand</text>
<text text-anchor="middle" x="605" y="-7" font-family="Helvetica,sans-Serif" font-size="10.00">Parsing.Stamp.parse</text>
</a>
</g>
</g>
<!-- Node4&#45;&gt;Node18 -->
<g id="edge17" class="edge"><title>Node4&#45;&gt;Node18</title>
<path fill="none" stroke="midnightblue" d="M440.268,-300.867C441.559,-299.631 442.805,-298.343 444,-297 520.975,-210.517 400.312,-122.989 480,-39 489.584,-28.8991 502.042,-22.3326 515.36,-18.1685"/>
<polygon fill="midnightblue" stroke="midnightblue" points="437.873,-298.306 432.407,-307.383 442.34,-303.695 437.873,-298.306"/>
</g>
<!-- Node6 -->
<g id="node6" class="node"><title>Node6</title>
<g id="a_node6"><a xlink:href="../../d7/d50/classcommand_parsing_1_1structural_command_parsing_1_1_ask.html#aa19ad64684414b0ef6112ac7e75e992d" target="_top" xlink:title="commandParsing.structural\lCommandParsing.Ask.parse">
<polygon fill="white" stroke="black" points="776,-632 776,-662 928,-662 928,-632 776,-632"/>
<text text-anchor="start" x="784" y="-650" font-family="Helvetica,sans-Serif" font-size="10.00">commandParsing.structural</text>
<text text-anchor="middle" x="852" y="-639" font-family="Helvetica,sans-Serif" font-size="10.00">CommandParsing.Ask.parse</text>
</a>
</g>
</g>
<!-- Node5&#45;&gt;Node6 -->
<g id="edge5" class="edge"><title>Node5&#45;&gt;Node6</title>
<path fill="none" stroke="midnightblue" d="M718.651,-620.53C738.088,-624.418 757.858,-628.372 775.986,-631.997"/>
<polygon fill="midnightblue" stroke="midnightblue" points="719.329,-617.097 708.837,-618.567 717.957,-623.961 719.329,-617.097"/>
</g>
<!-- Node7 -->
<g id="node7" class="node"><title>Node7</title>
<g id="a_node7"><a xlink:href="../../db/da0/classcommand_parsing_1_1structural_command_parsing_1_1_tell.html#aaab258a057ef8d0fd8ff6980e59dc719" target="_top" xlink:title="commandParsing.structural\lCommandParsing.Tell.parse">
<polygon fill="white" stroke="black" points="777.5,-583 777.5,-613 926.5,-613 926.5,-583 777.5,-583"/>
<text text-anchor="start" x="785.5" y="-601" font-family="Helvetica,sans-Serif" font-size="10.00">commandParsing.structural</text>
<text text-anchor="middle" x="852" y="-590" font-family="Helvetica,sans-Serif" font-size="10.00">CommandParsing.Tell.parse</text>
</a>
</g>
</g>
<!-- Node5&#45;&gt;Node7 -->
<g id="edge6" class="edge"><title>Node5&#45;&gt;Node7</title>
<path fill="none" stroke="midnightblue" d="M738.961,-598C752.143,-598 765.162,-598 777.402,-598"/>
<polygon fill="midnightblue" stroke="midnightblue" points="738.859,-594.5 728.859,-598 738.859,-601.5 738.859,-594.5"/>
</g>
<!-- Node8 -->
<g id="node8" class="node"><title>Node8</title>
<g id="a_node8"><a xlink:href="../../d7/d78/classcommand_parsing_1_1structural_command_parsing_1_1_ask_with.html#a934aa5eda34ccd0b9703e578753031fb" target="_top" xlink:title="commandParsing.structural\lCommandParsing.AskWith.parse">
<polygon fill="white" stroke="black" points="766,-534 766,-564 938,-564 938,-534 766,-534"/>
<text text-anchor="start" x="774" y="-552" font-family="Helvetica,sans-Serif" font-size="10.00">commandParsing.structural</text>
<text text-anchor="middle" x="852" y="-541" font-family="Helvetica,sans-Serif" font-size="10.00">CommandParsing.AskWith.parse</text>
</a>
</g>
</g>
<!-- Node5&#45;&gt;Node8 -->
<g id="edge7" class="edge"><title>Node5&#45;&gt;Node8</title>
<path fill="none" stroke="midnightblue" d="M718.651,-575.47C738.088,-571.582 757.858,-567.628 775.986,-564.003"/>
<polygon fill="midnightblue" stroke="midnightblue" points="717.957,-572.039 708.837,-577.433 719.329,-578.903 717.957,-572.039"/>
</g>
</g>
</svg>
        <g id="navigator" transform="translate(0 0)" fill="#404254">
                <rect fill="#f2f5e9" fill-opacity="0.5" stroke="#606060" stroke-width=".5" x="0" y="0" width="60" height="60"/>
                <use id="zoomplus" xlink:href="#zoomPlus" x="17" y="9" onmousedown="handleZoom(evt,'in')"/>
                <use id="zoomminus" xlink:href="#zoomMin" x="42" y="9" onmousedown="handleZoom(evt,'out')"/>
                <use id="reset" xlink:href="#resetDef" x="30" y="36" onmousedown="handleReset()"/>
                <g id="arrowUp" xlink:href="#dirArrow" transform="translate(30 24)" onmousedown="handlePan(0,-1)">
                  <use xlink:href="#rim" fill="#404040">
                        <set attributeName="fill" to="#808080" begin="arrowUp.mouseover" end="arrowUp.mouseout"/>
                  </use>
                  <path fill="none" stroke="white" stroke-width="1.5" d="M0,-3.0v7 M-2.5,-0.5L0,-3.0L2.5,-0.5"/>
                </g>
                <g id="arrowRight" xlink:href="#dirArrow" transform="rotate(90) translate(36 -43)" onmousedown="handlePan(1,0)">
                  <use xlink:href="#rim" fill="#404040">
                        <set attributeName="fill" to="#808080" begin="arrowRight.mouseover" end="arrowRight.mouseout"/>
                  </use>
                  <path fill="none" stroke="white" stroke-width="1.5" d="M0,-3.0v7 M-2.5,-0.5L0,-3.0L2.5,-0.5"/>
                </g>
                <g id="arrowDown" xlink:href="#dirArrow" transform="rotate(180) translate(-30 -48)" onmousedown="handlePan(0,1)">
                  <use xlink:href="#rim" fill="#404040">
                        <set attributeName="fill" to="#808080" begin="arrowDown.mouseover" end="arrowDown.mouseout"/>
                  </use>
                  <path fill="none" stroke="white" stroke-width="1.5" d="M0,-3.0v7 M-2.5,-0.5L0,-3.0L2.5,-0.5"/>
                </g>
                <g id="arrowLeft" xlink:href="#dirArrow" transform="rotate(270) translate(-36 17)" onmousedown="handlePan(-1,0)">
                  <use xlink:href="#rim" fill="#404040">
                        <set attributeName="fill" to="#808080" begin="arrowLeft.mouseover" end="arrowLeft.mouseout"/>
                  </use>
                  <path fill="none" stroke="white" stroke-width="1.5" d="M0,-3.0v7 M-2.5,-0.5L0,-3.0L2.5,-0.5"/>
                </g>
        </g>
        <svg viewBox="0 0 15 15" width="100%" height="30px" preserveAspectRatio="xMaxYMin meet">
         <g id="arrow_out" transform="scale(0.3 0.3)">
          <a xlink:href="classworkspace_state_1_1_shape_aace6051dd26034446492ecac6ff16099_icgraph_org.svg" target="_base">
           <rect id="button" ry="5" rx="5" y="6" x="6" height="38" width="38"
                fill="#f2f5e9" fill-opacity="0.5" stroke="#606060" stroke-width="1.0"/>
           <path id="arrow"
             d="M 11.500037,31.436501 C 11.940474,20.09759 22.043105,11.32322 32.158766,21.979434 L 37.068811,17.246167 C 37.068811,17.246167 37.088388,32 37.088388,32 L 22.160133,31.978069 C 22.160133,31.978069 26.997745,27.140456 26.997745,27.140456 C 18.528582,18.264221 13.291696,25.230495 11.500037,31.436501 z"
             style="fill:#404040;"/>
          </a>
         </g>
        </svg>
</svg>
