<?xml version="1.0" encoding="UTF-8" standalone="no"?>
<!DOCTYPE svg PUBLIC "-//W3C//DTD SVG 1.1//EN"
 "http://www.w3.org/Graphics/SVG/1.1/DTD/svg11.dtd">
<!-- Generated by graphviz version 2.36.0 (20140111.2315)
 -->
<!-- Title: commandParsing.userCommandParsing.MakeUserInstruction Pages: 1 -->
<!--zoomable 158 -->
<svg id="main" version="1.1" xmlns="http://www.w3.org/2000/svg" xmlns:xlink="http://www.w3.org/1999/xlink" xml:space="preserve" onload="init(evt)">
<style type="text/css"><![CDATA[
.edge:hover path { stroke: red; }
.edge:hover polygon { stroke: red; fill: red; }
]]></style>
<script type="text/javascript"><![CDATA[
var edges = document.getElementsByTagName('g');
if (edges && edges.length) {
  for (var i=0;i<edges.length;i++) {
    if (edges[i].id.substr(0,4)=='edge') {
      edges[i].setAttribute('class','edge');
    }
  }
}
]]></script>
        <defs>
                <circle id="rim" cx="0" cy="0" r="7"/>
                <circle id="rim2" cx="0" cy="0" r="3.5"/>
                <g id="zoomPlus">
                        <use xlink:href="#rim" fill="#404040">
                                <set attributeName="fill" to="#808080" begin="zoomplus.mouseover" end="zoomplus.mouseout"/>
                        </use>
                        <path d="M-4,0h8M0,-4v8" fill="none" stroke="white" stroke-width="1.5" pointer-events="none"/>
                </g>
                <g id="zoomMin">
                        <use xlink:href="#rim" fill="#404040">
                                <set attributeName="fill" to="#808080" begin="zoomminus.mouseover" end="zoomminus.mouseout"/>
                        </use>
                        <path d="M-4,0h8" fill="none" stroke="white" stroke-width="1.5" pointer-events="none"/>
                </g>
                <g id="dirArrow">
                        <path fill="none" stroke="white" stroke-width="1.5" d="M0,-3.0v7 M-2.5,-0.5L0,-3.0L2.5,-0.5"/>
                </g>
               <g id="resetDef">
                       <use xlink:href="#rim2" fill="#404040">
                               <set attributeName="fill" to="#808080" begin="reset.mouseover" end="reset.mouseout"/>
                       </use>
               </g>
        </defs>

<script type="text/javascript">
var viewWidth = 640;
var viewHeight = 158;
var sectionId = 'dynsection-0';
</script>
<script xlink:href="../../svgpan.js"/>
<svg id="graph" class="graph">
<g id="viewport">
<title>commandParsing.userCommandParsing.MakeUserInstruction</title>
<polygon fill="white" stroke="none" points="-4,4 -4,-154 636,-154 636,4 -4,4"/>
<!-- Node1 -->
<g id="node1" class="node"><title>Node1</title>
<polygon fill="#bfbfbf" stroke="black" points="458,-66 458,-96 632,-96 632,-66 458,-66"/>
<text text-anchor="start" x="466" y="-84" font-family="Helvetica,sans-Serif" font-size="10.00">commandParsing.userCommand</text>
<text text-anchor="middle" x="545" y="-73" font-family="Helvetica,sans-Serif" font-size="10.00">Parsing.MakeUserInstruction</text>
</g>
<!-- Node2 -->
<g id="node2" class="node"><title>Node2</title>
<g id="a_node2"><a xlink:href="../../de/dcc/classcommand_parsing_1_1structural_command_parsing_1_1_structural_command.html" target="_top" xlink:title="commandParsing.structural\lCommandParsing.StructuralCommand">
<polygon fill="white" stroke="black" points="220,-120 220,-150 422,-150 422,-120 220,-120"/>
<text text-anchor="start" x="228" y="-138" font-family="Helvetica,sans-Serif" font-size="10.00">commandParsing.structural</text>
<text text-anchor="middle" x="321" y="-127" font-family="Helvetica,sans-Serif" font-size="10.00">CommandParsing.StructuralCommand</text>
</a>
</g>
</g>
<!-- Node2&#45;&gt;Node1 -->
<g id="edge1" class="edge"><title>Node2&#45;&gt;Node1</title>
<path fill="none" stroke="midnightblue" d="M393.736,-117.551C422.224,-110.621 454.672,-102.728 482.108,-96.0549"/>
<polygon fill="midnightblue" stroke="midnightblue" points="392.729,-114.194 383.839,-119.958 394.383,-120.995 392.729,-114.194"/>
</g>
<!-- Node3 -->
<g id="node3" class="node"><title>Node3</title>
<g id="a_node3"><a xlink:href="../../d7/d17/classcommand_parsing_1_1_command_parser.html" target="_top" xlink:title="commandParsing.CommandParser">
<polygon fill="white" stroke="black" points="0.5,-125.5 0.5,-144.5 183.5,-144.5 183.5,-125.5 0.5,-125.5"/>
<text text-anchor="middle" x="92" y="-132.5" font-family="Helvetica,sans-Serif" font-size="10.00">commandParsing.CommandParser</text>
</a>
</g>
</g>
<!-- Node3&#45;&gt;Node2 -->
<g id="edge2" class="edge"><title>Node3&#45;&gt;Node2</title>
<path fill="none" stroke="midnightblue" d="M193.768,-135C202.398,-135 211.127,-135 219.753,-135"/>
<polygon fill="midnightblue" stroke="midnightblue" points="193.695,-131.5 183.695,-135 193.695,-138.5 193.695,-131.5"/>
</g>
<!-- Node4 -->
<g id="node4" class="node"><title>Node4</title>
<g id="a_node4"><a xlink:href="../../da/dca/interfacecommand_parsing_1_1drawable_obect_generation_interfaces_1_1_user_defined_command_generator.html" target="_top" xlink:title="commandParsing.drawableObect\lGenerationInterfaces.UserDefined\lCommandGenerator">
<polygon fill="white" stroke="black" points="231.5,-60.5 231.5,-101.5 410.5,-101.5 410.5,-60.5 231.5,-60.5"/>
<text text-anchor="start" x="239.5" y="-89.5" font-family="Helvetica,sans-Serif" font-size="10.00">commandParsing.drawableObect</text>
<text text-anchor="start" x="239.5" y="-78.5" font-family="Helvetica,sans-Serif" font-size="10.00">GenerationInterfaces.UserDefined</text>
<text text-anchor="middle" x="321" y="-67.5" font-family="Helvetica,sans-Serif" font-size="10.00">CommandGenerator</text>
</a>
</g>
</g>
<!-- Node4&#45;&gt;Node1 -->
<g id="edge3" class="edge"><title>Node4&#45;&gt;Node1</title>
<path fill="none" stroke="midnightblue" d="M420.996,-81C433.328,-81 445.86,-81 457.974,-81"/>
<polygon fill="midnightblue" stroke="midnightblue" points="420.697,-77.5001 410.697,-81 420.697,-84.5001 420.697,-77.5001"/>
</g>
<!-- Node5 -->
<g id="node5" class="node"><title>Node5</title>
<g id="a_node5"><a xlink:href="../../d5/dc4/interfacecommand_parsing_1_1drawable_obect_generation_interfaces_1_1_user_defined_variable_generator.html" target="_top" xlink:title="commandParsing.drawableObect\lGenerationInterfaces.UserDefined\lVariableGenerator">
<polygon fill="white" stroke="black" points="231.5,-0.5 231.5,-41.5 410.5,-41.5 410.5,-0.5 231.5,-0.5"/>
<text text-anchor="start" x="239.5" y="-29.5" font-family="Helvetica,sans-Serif" font-size="10.00">commandParsing.drawableObect</text>
<text text-anchor="start" x="239.5" y="-18.5" font-family="Helvetica,sans-Serif" font-size="10.00">GenerationInterfaces.UserDefined</text>
<text text-anchor="middle" x="321" y="-7.5" font-family="Helvetica,sans-Serif" font-size="10.00">VariableGenerator</text>
</a>
</g>
</g>
<!-- Node5&#45;&gt;Node1 -->
<g id="edge4" class="edge"><title>Node5&#45;&gt;Node1</title>
<path fill="none" stroke="midnightblue" d="M407.929,-44.224C434.927,-51.5208 464.013,-59.3819 488.336,-65.9557"/>
<polygon fill="midnightblue" stroke="midnightblue" points="408.656,-40.795 398.089,-41.5647 406.83,-47.5526 408.656,-40.795"/>
</g>
</g>
</svg>
        <g id="navigator" transform="translate(0 0)" fill="#404254">
                <rect fill="#f2f5e9" fill-opacity="0.5" stroke="#606060" stroke-width=".5" x="0" y="0" width="60" height="60"/>
                <use id="zoomplus" xlink:href="#zoomPlus" x="17" y="9" onmousedown="handleZoom(evt,'in')"/>
                <use id="zoomminus" xlink:href="#zoomMin" x="42" y="9" onmousedown="handleZoom(evt,'out')"/>
                <use id="reset" xlink:href="#resetDef" x="30" y="36" onmousedown="handleReset()"/>
                <g id="arrowUp" xlink:href="#dirArrow" transform="translate(30 24)" onmousedown="handlePan(0,-1)">
                  <use xlink:href="#rim" fill="#404040">
                        <set attributeName="fill" to="#808080" begin="arrowUp.mouseover" end="arrowUp.mouseout"/>
                  </use>
                  <path fill="none" stroke="white" stroke-width="1.5" d="M0,-3.0v7 M-2.5,-0.5L0,-3.0L2.5,-0.5"/>
                </g>
                <g id="arrowRight" xlink:href="#dirArrow" transform="rotate(90) translate(36 -43)" onmousedown="handlePan(1,0)">
                  <use xlink:href="#rim" fill="#404040">
                        <set attributeName="fill" to="#808080" begin="arrowRight.mouseover" end="arrowRight.mouseout"/>
                  </use>
                  <path fill="none" stroke="white" stroke-width="1.5" d="M0,-3.0v7 M-2.5,-0.5L0,-3.0L2.5,-0.5"/>
                </g>
                <g id="arrowDown" xlink:href="#dirArrow" transform="rotate(180) translate(-30 -48)" onmousedown="handlePan(0,1)">
                  <use xlink:href="#rim" fill="#404040">
                        <set attributeName="fill" to="#808080" begin="arrowDown.mouseover" end="arrowDown.mouseout"/>
                  </use>
                  <path fill="none" stroke="white" stroke-width="1.5" d="M0,-3.0v7 M-2.5,-0.5L0,-3.0L2.5,-0.5"/>
                </g>
                <g id="arrowLeft" xlink:href="#dirArrow" transform="rotate(270) translate(-36 17)" onmousedown="handlePan(-1,0)">
                  <use xlink:href="#rim" fill="#404040">
                        <set attributeName="fill" to="#808080" begin="arrowLeft.mouseover" end="arrowLeft.mouseout"/>
                  </use>
                  <path fill="none" stroke="white" stroke-width="1.5" d="M0,-3.0v7 M-2.5,-0.5L0,-3.0L2.5,-0.5"/>
                </g>
        </g>
        <svg viewBox="0 0 15 15" width="100%" height="30px" preserveAspectRatio="xMaxYMin meet">
         <g id="arrow_out" transform="scale(0.3 0.3)">
          <a xlink:href="classcommand_parsing_1_1user_command_parsing_1_1_make_user_instruction__inherit__graph_org.svg" target="_base">
           <rect id="button" ry="5" rx="5" y="6" x="6" height="38" width="38"
                fill="#f2f5e9" fill-opacity="0.5" stroke="#606060" stroke-width="1.0"/>
           <path id="arrow"
             d="M 11.500037,31.436501 C 11.940474,20.09759 22.043105,11.32322 32.158766,21.979434 L 37.068811,17.246167 C 37.068811,17.246167 37.088388,32 37.088388,32 L 22.160133,31.978069 C 22.160133,31.978069 26.997745,27.140456 26.997745,27.140456 C 18.528582,18.264221 13.291696,25.230495 11.500037,31.436501 z"
             style="fill:#404040;"/>
          </a>
         </g>
        </svg>
</svg>
