<?xml version="1.0" encoding="UTF-8" standalone="no"?>
<!DOCTYPE svg PUBLIC "-//W3C//DTD SVG 1.1//EN"
 "http://www.w3.org/Graphics/SVG/1.1/DTD/svg11.dtd">
<!-- Generated by graphviz version 2.36.0 (20140111.2315)
 -->
<!-- Title: gui.nonbuttonfeatures.PreviousCommandsFeature Pages: 1 -->
<svg width="912pt" height="126pt"
 viewBox="0.00 0.00 912.00 126.00" xmlns="http://www.w3.org/2000/svg" xmlns:xlink="http://www.w3.org/1999/xlink">
<g id="graph0" class="graph" transform="scale(1 1) rotate(0) translate(4 122)">
<title>gui.nonbuttonfeatures.PreviousCommandsFeature</title>
<polygon fill="white" stroke="none" points="-4,4 -4,-122 908,-122 908,4 -4,4"/>
<!-- Node1 -->
<g id="node1" class="node"><title>Node1</title>
<polygon fill="#bfbfbf" stroke="black" points="736.5,-39 736.5,-69 903.5,-69 903.5,-39 736.5,-39"/>
<text text-anchor="start" x="744.5" y="-57" font-family="Helvetica,sans-Serif" font-size="10.00">gui.nonbuttonfeatures.Previous</text>
<text text-anchor="middle" x="820" y="-46" font-family="Helvetica,sans-Serif" font-size="10.00">CommandsFeature</text>
</g>
<!-- Node2 -->
<g id="node2" class="node"><title>Node2</title>
<polygon fill="white" stroke="#bfbfbf" points="419,-88 419,-118 537,-118 537,-88 419,-88"/>
<text text-anchor="start" x="427" y="-106" font-family="Helvetica,sans-Serif" font-size="10.00">javafx::scene::control</text>
<text text-anchor="middle" x="478" y="-95" font-family="Helvetica,sans-Serif" font-size="10.00">::ListView&lt; String &gt;</text>
</g>
<!-- Node2&#45;&gt;Node1 -->
<g id="edge1" class="edge"><title>Node2&#45;&gt;Node1</title>
<path fill="none" stroke="midnightblue" d="M547.382,-93.3854C595.184,-86.6365 660.5,-77.3597 718,-69 723.964,-68.1328 730.126,-67.2314 736.328,-66.3202"/>
<polygon fill="midnightblue" stroke="midnightblue" points="546.869,-89.923 537.456,-94.7859 547.847,-96.8543 546.869,-89.923"/>
</g>
<!-- Node3 -->
<g id="node3" class="node"><title>Node3</title>
<g id="a_node3"><a xlink:href="../../d8/d70/classgui_1_1componentdrawers_1_1_command_line_drawer.html" target="_top" xlink:title="gui.componentdrawers.Command\lLineDrawer">
<polygon fill="white" stroke="black" points="388.5,-39 388.5,-69 567.5,-69 567.5,-39 388.5,-39"/>
<text text-anchor="start" x="396.5" y="-57" font-family="Helvetica,sans-Serif" font-size="10.00">gui.componentdrawers.Command</text>
<text text-anchor="middle" x="478" y="-46" font-family="Helvetica,sans-Serif" font-size="10.00">LineDrawer</text>
</a>
</g>
</g>
<!-- Node3&#45;&gt;Node1 -->
<g id="edge2" class="edge"><title>Node3&#45;&gt;Node1</title>
<path fill="none" stroke="#9a32cd" stroke-dasharray="5,2" d="M578.127,-54C628.402,-54 688.751,-54 736.466,-54"/>
<polygon fill="#9a32cd" stroke="#9a32cd" points="577.887,-50.5001 567.887,-54 577.887,-57.5001 577.887,-50.5001"/>
<text text-anchor="middle" x="652" y="-57" font-family="Helvetica,sans-Serif" font-size="10.00"> myCommandLineDrawer</text>
</g>
<!-- Node4 -->
<g id="node4" class="node"><title>Node4</title>
<g id="a_node4"><a xlink:href="../../d0/dda/classgui_1_1componentdrawers_1_1_component_drawer.html" target="_top" xlink:title="gui.componentdrawers.Component\lDrawer">
<polygon fill="white" stroke="black" points="78.5,-70 78.5,-100 263.5,-100 263.5,-70 78.5,-70"/>
<text text-anchor="start" x="86.5" y="-88" font-family="Helvetica,sans-Serif" font-size="10.00">gui.componentdrawers.Component</text>
<text text-anchor="middle" x="171" y="-77" font-family="Helvetica,sans-Serif" font-size="10.00">Drawer</text>
</a>
</g>
</g>
<!-- Node4&#45;&gt;Node3 -->
<g id="edge3" class="edge"><title>Node4&#45;&gt;Node3</title>
<path fill="none" stroke="midnightblue" d="M273.848,-74.6482C310.955,-70.8767 352.576,-66.6463 388.437,-63.0015"/>
<polygon fill="midnightblue" stroke="midnightblue" points="273.105,-71.2056 263.51,-75.699 273.813,-78.1698 273.105,-71.2056"/>
</g>
<!-- Node5 -->
<g id="node5" class="node"><title>Node5</title>
<polygon fill="white" stroke="#bfbfbf" points="0,-75.5 0,-94.5 40,-94.5 40,-75.5 0,-75.5"/>
<text text-anchor="middle" x="20" y="-82.5" font-family="Helvetica,sans-Serif" font-size="10.00">Pane</text>
</g>
<!-- Node5&#45;&gt;Node4 -->
<g id="edge4" class="edge"><title>Node5&#45;&gt;Node4</title>
<path fill="none" stroke="midnightblue" d="M50.4195,-85C58.7971,-85 68.3935,-85 78.4266,-85"/>
<polygon fill="midnightblue" stroke="midnightblue" points="50.1741,-81.5001 40.1741,-85 50.1741,-88.5001 50.1741,-81.5001"/>
</g>
<!-- Node6 -->
<g id="node6" class="node"><title>Node6</title>
<polygon fill="white" stroke="#bfbfbf" points="142,-31.5 142,-50.5 200,-50.5 200,-31.5 142,-31.5"/>
<text text-anchor="middle" x="171" y="-38.5" font-family="Helvetica,sans-Serif" font-size="10.00">TextArea</text>
</g>
<!-- Node6&#45;&gt;Node3 -->
<g id="edge5" class="edge"><title>Node6&#45;&gt;Node3</title>
<path fill="none" stroke="#9a32cd" stroke-dasharray="5,2" d="M210.219,-42.629C254.628,-44.5218 329.359,-47.7071 388.449,-50.2257"/>
<polygon fill="#9a32cd" stroke="#9a32cd" points="210.287,-39.1288 200.147,-42.1997 209.989,-46.1225 210.287,-39.1288"/>
<text text-anchor="middle" x="326" y="-53" font-family="Helvetica,sans-Serif" font-size="10.00"> myCommandLine</text>
</g>
<!-- Node7 -->
<g id="node7" class="node"><title>Node7</title>
<polygon fill="white" stroke="#bfbfbf" points="409,-0.5 409,-19.5 547,-19.5 547,-0.5 409,-0.5"/>
<text text-anchor="middle" x="478" y="-7.5" font-family="Helvetica,sans-Serif" font-size="10.00">ObservableList&lt; String &gt;</text>
</g>
<!-- Node7&#45;&gt;Node1 -->
<g id="edge6" class="edge"><title>Node7&#45;&gt;Node1</title>
<path fill="none" stroke="#9a32cd" stroke-dasharray="5,2" d="M557.108,-18.9445C603.83,-24.4277 664.359,-31.7637 718,-39 723.973,-39.8058 730.141,-40.6621 736.347,-41.5414"/>
<polygon fill="#9a32cd" stroke="#9a32cd" points="557.393,-15.4541 547.054,-17.7682 556.58,-22.4067 557.393,-15.4541"/>
<text text-anchor="middle" x="652" y="-42" font-family="Helvetica,sans-Serif" font-size="10.00"> myPreviousCommandsList</text>
</g>
</g>
</svg>
