<?xml version="1.0" encoding="UTF-8" standalone="no"?>
<!DOCTYPE svg PUBLIC "-//W3C//DTD SVG 1.1//EN"
 "http://www.w3.org/Graphics/SVG/1.1/DTD/svg11.dtd">
<!-- Generated by graphviz version 2.36.0 (20140111.2315)
 -->
<!-- Title: gui.componentdrawers.PreviousCommandsDrawer.PreviousCommandsDrawer Pages: 1 -->
<svg width="468pt" height="77pt"
 viewBox="0.00 0.00 468.00 77.00" xmlns="http://www.w3.org/2000/svg" xmlns:xlink="http://www.w3.org/1999/xlink">
<g id="graph0" class="graph" transform="scale(1 1) rotate(0) translate(4 73)">
<title>gui.componentdrawers.PreviousCommandsDrawer.PreviousCommandsDrawer</title>
<polygon fill="white" stroke="none" points="-4,4 -4,-73 464,-73 464,4 -4,4"/>
<!-- Node1 -->
<g id="node1" class="node"><title>Node1</title>
<polygon fill="#bfbfbf" stroke="black" points="0,-17 0,-47 238,-47 238,-17 0,-17"/>
<text text-anchor="start" x="8" y="-35" font-family="Helvetica,sans-Serif" font-size="10.00">gui.componentdrawers.Previous</text>
<text text-anchor="middle" x="119" y="-24" font-family="Helvetica,sans-Serif" font-size="10.00">CommandsDrawer.PreviousCommandsDrawer</text>
</g>
<!-- Node2 -->
<g id="node2" class="node"><title>Node2</title>
<g id="a_node2"><a xlink:href="../../d0/dda/classgui_1_1componentdrawers_1_1_component_drawer.html#a7866683582ed9aebe665c7998d549fbb" target="_top" xlink:title="gui.componentdrawers.Component\lDrawer.drawShape">
<polygon fill="white" stroke="black" points="274.5,-39 274.5,-69 459.5,-69 459.5,-39 274.5,-39"/>
<text text-anchor="start" x="282.5" y="-57" font-family="Helvetica,sans-Serif" font-size="10.00">gui.componentdrawers.Component</text>
<text text-anchor="middle" x="367" y="-46" font-family="Helvetica,sans-Serif" font-size="10.00">Drawer.drawShape</text>
</a>
</g>
</g>
<!-- Node1&#45;&gt;Node2 -->
<g id="edge1" class="edge"><title>Node1&#45;&gt;Node2</title>
<path fill="none" stroke="midnightblue" d="M238.316,-42.5811C246.986,-43.3565 255.687,-44.1347 264.247,-44.9001"/>
<polygon fill="midnightblue" stroke="midnightblue" points="263.948,-48.3872 274.22,-45.792 264.571,-41.4151 263.948,-48.3872"/>
</g>
<!-- Node3 -->
<g id="node3" class="node"><title>Node3</title>
<g id="a_node3"><a xlink:href="../../d0/d49/classgui_1_1mainclasses_1_1_text_generator.html#afef308a2abfb8f1503d2b276407833e6" target="_top" xlink:title="gui.mainclasses.TextGenerator.get">
<polygon fill="white" stroke="black" points="276,-0.5 276,-19.5 458,-19.5 458,-0.5 276,-0.5"/>
<text text-anchor="middle" x="367" y="-7.5" font-family="Helvetica,sans-Serif" font-size="10.00">gui.mainclasses.TextGenerator.get</text>
</a>
</g>
</g>
<!-- Node1&#45;&gt;Node3 -->
<g id="edge2" class="edge"><title>Node1&#45;&gt;Node3</title>
<path fill="none" stroke="midnightblue" d="M238.316,-21.4189C247.438,-20.6031 256.595,-19.7842 265.584,-18.9803"/>
<polygon fill="midnightblue" stroke="midnightblue" points="266.004,-22.4568 275.652,-18.0799 265.38,-15.4846 266.004,-22.4568"/>
</g>
</g>
</svg>
