<?xml version="1.0" encoding="UTF-8" standalone="no"?>
<!DOCTYPE svg PUBLIC "-//W3C//DTD SVG 1.1//EN"
 "http://www.w3.org/Graphics/SVG/1.1/DTD/svg11.dtd">
<!-- Generated by graphviz version 2.36.0 (20140111.2315)
 -->
<!-- Title: gui.componentdrawers.ErrorDrawer Pages: 1 -->
<svg width="313pt" height="178pt"
 viewBox="0.00 0.00 313.00 178.00" xmlns="http://www.w3.org/2000/svg" xmlns:xlink="http://www.w3.org/1999/xlink">
<g id="graph0" class="graph" transform="scale(1 1) rotate(0) translate(4 174)">
<title>gui.componentdrawers.ErrorDrawer</title>
<polygon fill="white" stroke="none" points="-4,4 -4,-174 309,-174 309,4 -4,4"/>
<!-- Node1 -->
<g id="node1" class="node"><title>Node1</title>
<polygon fill="#bfbfbf" stroke="black" points="137,-1 137,-31 289,-31 289,-1 137,-1"/>
<text text-anchor="start" x="145" y="-19" font-family="Helvetica,sans-Serif" font-size="10.00">gui.componentdrawers.Error</text>
<text text-anchor="middle" x="213" y="-8" font-family="Helvetica,sans-Serif" font-size="10.00">Drawer</text>
</g>
<!-- Node2 -->
<g id="node2" class="node"><title>Node2</title>
<g id="a_node2"><a xlink:href="../../d0/dda/classgui_1_1componentdrawers_1_1_component_drawer.html" target="_top" xlink:title="gui.componentdrawers.Component\lDrawer">
<polygon fill="white" stroke="black" points="-0.5,-81 -0.5,-111 184.5,-111 184.5,-81 -0.5,-81"/>
<text text-anchor="start" x="7.5" y="-99" font-family="Helvetica,sans-Serif" font-size="10.00">gui.componentdrawers.Component</text>
<text text-anchor="middle" x="92" y="-88" font-family="Helvetica,sans-Serif" font-size="10.00">Drawer</text>
</a>
</g>
</g>
<!-- Node2&#45;&gt;Node1 -->
<g id="edge1" class="edge"><title>Node2&#45;&gt;Node1</title>
<path fill="none" stroke="midnightblue" d="M122.348,-75.4368C143.793,-61.6129 172.028,-43.4118 191.251,-31.0201"/>
<polygon fill="midnightblue" stroke="midnightblue" points="120.421,-72.5149 113.912,-80.8748 124.214,-78.3984 120.421,-72.5149"/>
</g>
<!-- Node3 -->
<g id="node3" class="node"><title>Node3</title>
<polygon fill="white" stroke="#bfbfbf" points="72,-150.5 72,-169.5 112,-169.5 112,-150.5 72,-150.5"/>
<text text-anchor="middle" x="92" y="-157.5" font-family="Helvetica,sans-Serif" font-size="10.00">Pane</text>
</g>
<!-- Node3&#45;&gt;Node2 -->
<g id="edge2" class="edge"><title>Node3&#45;&gt;Node2</title>
<path fill="none" stroke="midnightblue" d="M92,-140.183C92,-130.886 92,-119.851 92,-111.263"/>
<polygon fill="midnightblue" stroke="midnightblue" points="88.5001,-140.379 92,-150.379 95.5001,-140.379 88.5001,-140.379"/>
</g>
<!-- Node4 -->
<g id="node4" class="node"><title>Node4</title>
<polygon fill="white" stroke="#bfbfbf" points="202.5,-86.5 202.5,-105.5 305.5,-105.5 305.5,-86.5 202.5,-86.5"/>
<text text-anchor="middle" x="254" y="-93.5" font-family="Helvetica,sans-Serif" font-size="10.00">ListView&lt; Label &gt;</text>
</g>
<!-- Node4&#45;&gt;Node1 -->
<g id="edge3" class="edge"><title>Node4&#45;&gt;Node1</title>
<path fill="none" stroke="#9a32cd" stroke-dasharray="5,2" d="M244.693,-77.2931C237.365,-63.3533 227.287,-44.1797 220.478,-31.227"/>
<polygon fill="#9a32cd" stroke="#9a32cd" points="241.705,-79.1315 249.456,-86.3546 247.901,-75.8745 241.705,-79.1315"/>
<text text-anchor="middle" x="263.5" y="-53.5" font-family="Helvetica,sans-Serif" font-size="10.00"> myListView</text>
</g>
</g>
</svg>
