<?xml version="1.0" encoding="UTF-8" standalone="no"?>
<!DOCTYPE svg PUBLIC "-//W3C//DTD SVG 1.1//EN"
 "http://www.w3.org/Graphics/SVG/1.1/DTD/svg11.dtd">
<!-- Generated by graphviz version 2.36.0 (20140111.2315)
 -->
<!-- Title: gui.componentdrawers.ComponentBuilder.build Pages: 1 -->
<svg width="650pt" height="136pt"
 viewBox="0.00 0.00 650.00 136.00" xmlns="http://www.w3.org/2000/svg" xmlns:xlink="http://www.w3.org/1999/xlink">
<g id="graph0" class="graph" transform="scale(1 1) rotate(0) translate(4 132)">
<title>gui.componentdrawers.ComponentBuilder.build</title>
<polygon fill="white" stroke="none" points="-4,4 -4,-132 646,-132 646,4 -4,4"/>
<!-- Node1 -->
<g id="node1" class="node"><title>Node1</title>
<polygon fill="#bfbfbf" stroke="black" points="0.5,-49 0.5,-79 185.5,-79 185.5,-49 0.5,-49"/>
<text text-anchor="start" x="8.5" y="-67" font-family="Helvetica,sans-Serif" font-size="10.00">gui.componentdrawers.Component</text>
<text text-anchor="middle" x="93" y="-56" font-family="Helvetica,sans-Serif" font-size="10.00">Builder.build</text>
</g>
<!-- Node2 -->
<g id="node2" class="node"><title>Node2</title>
<g id="a_node2"><a xlink:href="../../df/d64/classgui_1_1componentdrawers_1_1_component_builder.html#aa5d3aeb4fb2cace9278bf3d41cfcb7ac" target="_top" xlink:title="gui.componentdrawers.Component\lBuilder.buildLeftComponents">
<polygon fill="white" stroke="black" points="228.5,-98 228.5,-128 413.5,-128 413.5,-98 228.5,-98"/>
<text text-anchor="start" x="236.5" y="-116" font-family="Helvetica,sans-Serif" font-size="10.00">gui.componentdrawers.Component</text>
<text text-anchor="middle" x="321" y="-105" font-family="Helvetica,sans-Serif" font-size="10.00">Builder.buildLeftComponents</text>
</a>
</g>
</g>
<!-- Node1&#45;&gt;Node2 -->
<g id="edge1" class="edge"><title>Node1&#45;&gt;Node2</title>
<path fill="none" stroke="midnightblue" d="M163.343,-79.0346C187.857,-84.3494 215.609,-90.3665 240.872,-95.844"/>
<polygon fill="midnightblue" stroke="midnightblue" points="240.273,-99.2954 250.788,-97.9938 241.757,-92.4543 240.273,-99.2954"/>
</g>
<!-- Node4 -->
<g id="node4" class="node"><title>Node4</title>
<g id="a_node4"><a xlink:href="../../df/d64/classgui_1_1componentdrawers_1_1_component_builder.html#a2fbeb84a6579d755e17c7c3d9e7b1759" target="_top" xlink:title="gui.componentdrawers.Component\lBuilder.buildRightComponents">
<polygon fill="white" stroke="black" points="228.5,-49 228.5,-79 413.5,-79 413.5,-49 228.5,-49"/>
<text text-anchor="start" x="236.5" y="-67" font-family="Helvetica,sans-Serif" font-size="10.00">gui.componentdrawers.Component</text>
<text text-anchor="middle" x="321" y="-56" font-family="Helvetica,sans-Serif" font-size="10.00">Builder.buildRightComponents</text>
</a>
</g>
</g>
<!-- Node1&#45;&gt;Node4 -->
<g id="edge3" class="edge"><title>Node1&#45;&gt;Node4</title>
<path fill="none" stroke="midnightblue" d="M185.597,-64C196.26,-64 207.187,-64 217.98,-64"/>
<polygon fill="midnightblue" stroke="midnightblue" points="218.273,-67.5001 228.273,-64 218.272,-60.5001 218.273,-67.5001"/>
</g>
<!-- Node5 -->
<g id="node5" class="node"><title>Node5</title>
<g id="a_node5"><a xlink:href="../../df/d64/classgui_1_1componentdrawers_1_1_component_builder.html#ad7635b966d68577ecae3dc2113ef2ffb" target="_top" xlink:title="gui.componentdrawers.Component\lBuilder.createComponentsDrawerMap">
<polygon fill="white" stroke="black" points="222,-0 222,-30 420,-30 420,-0 222,-0"/>
<text text-anchor="start" x="230" y="-18" font-family="Helvetica,sans-Serif" font-size="10.00">gui.componentdrawers.Component</text>
<text text-anchor="middle" x="321" y="-7" font-family="Helvetica,sans-Serif" font-size="10.00">Builder.createComponentsDrawerMap</text>
</a>
</g>
</g>
<!-- Node1&#45;&gt;Node5 -->
<g id="edge5" class="edge"><title>Node1&#45;&gt;Node5</title>
<path fill="none" stroke="midnightblue" d="M163.343,-48.9654C187.857,-43.6506 215.609,-37.6335 240.872,-32.156"/>
<polygon fill="midnightblue" stroke="midnightblue" points="241.757,-35.5457 250.788,-30.0062 240.273,-28.7046 241.757,-35.5457"/>
</g>
<!-- Node3 -->
<g id="node3" class="node"><title>Node3</title>
<g id="a_node3"><a xlink:href="../../df/d64/classgui_1_1componentdrawers_1_1_component_builder.html#af3ba316f84ae822b52c9b080677d6fc2" target="_top" xlink:title="gui.componentdrawers.Component\lBuilder.addComponentsToBox">
<polygon fill="white" stroke="black" points="456.5,-73 456.5,-103 641.5,-103 641.5,-73 456.5,-73"/>
<text text-anchor="start" x="464.5" y="-91" font-family="Helvetica,sans-Serif" font-size="10.00">gui.componentdrawers.Component</text>
<text text-anchor="middle" x="549" y="-80" font-family="Helvetica,sans-Serif" font-size="10.00">Builder.addComponentsToBox</text>
</a>
</g>
</g>
<!-- Node2&#45;&gt;Node3 -->
<g id="edge2" class="edge"><title>Node2&#45;&gt;Node3</title>
<path fill="none" stroke="midnightblue" d="M413.597,-102.868C424.37,-101.676 435.413,-100.454 446.313,-99.2485"/>
<polygon fill="midnightblue" stroke="midnightblue" points="446.718,-102.725 456.273,-98.1468 445.948,-95.7676 446.718,-102.725"/>
</g>
<!-- Node4&#45;&gt;Node3 -->
<g id="edge4" class="edge"><title>Node4&#45;&gt;Node3</title>
<path fill="none" stroke="midnightblue" d="M413.597,-73.7271C424.37,-74.8712 435.413,-76.0438 446.313,-77.2014"/>
<polygon fill="midnightblue" stroke="midnightblue" points="445.959,-80.6834 456.273,-78.259 446.698,-73.7225 445.959,-80.6834"/>
</g>
</g>
</svg>
