<?xml version="1.0" encoding="UTF-8" standalone="no"?>
<!DOCTYPE svg PUBLIC "-//W3C//DTD SVG 1.1//EN"
 "http://www.w3.org/Graphics/SVG/1.1/DTD/svg11.dtd">
<!-- Generated by graphviz version 2.36.0 (20140111.2315)
 -->
<!-- Title: gui.componentdrawers.ComponentBuilder.addComponentsToBox Pages: 1 -->
<svg width="824pt" height="87pt"
 viewBox="0.00 0.00 824.00 87.00" xmlns="http://www.w3.org/2000/svg" xmlns:xlink="http://www.w3.org/1999/xlink">
<g id="graph0" class="graph" transform="scale(1 1) rotate(0) translate(4 83)">
<title>gui.componentdrawers.ComponentBuilder.addComponentsToBox</title>
<polygon fill="white" stroke="none" points="-4,4 -4,-83 820,-83 820,4 -4,4"/>
<!-- Node1 -->
<g id="node1" class="node"><title>Node1</title>
<polygon fill="#bfbfbf" stroke="black" points="0.5,-24 0.5,-54 185.5,-54 185.5,-24 0.5,-24"/>
<text text-anchor="start" x="8.5" y="-42" font-family="Helvetica,sans-Serif" font-size="10.00">gui.componentdrawers.Component</text>
<text text-anchor="middle" x="93" y="-31" font-family="Helvetica,sans-Serif" font-size="10.00">Builder.addComponentsToBox</text>
</g>
<!-- Node2 -->
<g id="node2" class="node"><title>Node2</title>
<g id="a_node2"><a xlink:href="../../df/d64/classgui_1_1componentdrawers_1_1_component_builder.html#aa5d3aeb4fb2cace9278bf3d41cfcb7ac" target="_top" xlink:title="gui.componentdrawers.Component\lBuilder.buildLeftComponents">
<polygon fill="white" stroke="black" points="222.5,-49 222.5,-79 407.5,-79 407.5,-49 222.5,-49"/>
<text text-anchor="start" x="230.5" y="-67" font-family="Helvetica,sans-Serif" font-size="10.00">gui.componentdrawers.Component</text>
<text text-anchor="middle" x="315" y="-56" font-family="Helvetica,sans-Serif" font-size="10.00">Builder.buildLeftComponents</text>
</a>
</g>
</g>
<!-- Node1&#45;&gt;Node2 -->
<g id="edge1" class="edge"><title>Node1&#45;&gt;Node2</title>
<path fill="none" stroke="midnightblue" d="M195.725,-50.5596C204.636,-51.5723 213.62,-52.5932 222.442,-53.5957"/>
<polygon fill="midnightblue" stroke="midnightblue" points="196.038,-47.0728 185.707,-49.4212 195.248,-54.028 196.038,-47.0728"/>
</g>
<!-- Node5 -->
<g id="node5" class="node"><title>Node5</title>
<g id="a_node5"><a xlink:href="../../df/d64/classgui_1_1componentdrawers_1_1_component_builder.html#a2fbeb84a6579d755e17c7c3d9e7b1759" target="_top" xlink:title="gui.componentdrawers.Component\lBuilder.buildRightComponents">
<polygon fill="white" stroke="black" points="222.5,-0 222.5,-30 407.5,-30 407.5,-0 222.5,-0"/>
<text text-anchor="start" x="230.5" y="-18" font-family="Helvetica,sans-Serif" font-size="10.00">gui.componentdrawers.Component</text>
<text text-anchor="middle" x="315" y="-7" font-family="Helvetica,sans-Serif" font-size="10.00">Builder.buildRightComponents</text>
</a>
</g>
</g>
<!-- Node1&#45;&gt;Node5 -->
<g id="edge4" class="edge"><title>Node1&#45;&gt;Node5</title>
<path fill="none" stroke="midnightblue" d="M195.725,-27.9028C204.636,-26.9306 213.62,-25.9505 222.442,-24.9882"/>
<polygon fill="midnightblue" stroke="midnightblue" points="195.268,-24.4317 185.707,-28.9956 196.027,-31.3904 195.268,-24.4317"/>
</g>
<!-- Node3 -->
<g id="node3" class="node"><title>Node3</title>
<g id="a_node3"><a xlink:href="../../df/d64/classgui_1_1componentdrawers_1_1_component_builder.html#a9acabbcdf7709d2bfd99bed03faa2096" target="_top" xlink:title="gui.componentdrawers.Component\lBuilder.build">
<polygon fill="white" stroke="black" points="444.5,-24 444.5,-54 629.5,-54 629.5,-24 444.5,-24"/>
<text text-anchor="start" x="452.5" y="-42" font-family="Helvetica,sans-Serif" font-size="10.00">gui.componentdrawers.Component</text>
<text text-anchor="middle" x="537" y="-31" font-family="Helvetica,sans-Serif" font-size="10.00">Builder.build</text>
</a>
</g>
</g>
<!-- Node2&#45;&gt;Node3 -->
<g id="edge2" class="edge"><title>Node2&#45;&gt;Node3</title>
<path fill="none" stroke="midnightblue" d="M417.725,-52.4404C426.636,-51.4277 435.62,-50.4068 444.442,-49.4043"/>
<polygon fill="midnightblue" stroke="midnightblue" points="417.248,-48.972 407.707,-53.5788 418.038,-55.9272 417.248,-48.972"/>
</g>
<!-- Node4 -->
<g id="node4" class="node"><title>Node4</title>
<g id="a_node4"><a xlink:href="../../d8/df2/classgui_1_1mainclasses_1_1workspace_1_1_workspace.html#a2a722f3db714ab95c3784b2cc26837d4" target="_top" xlink:title="gui.mainclasses.workspace.\lWorkspace.Workspace">
<polygon fill="white" stroke="black" points="666.5,-24 666.5,-54 815.5,-54 815.5,-24 666.5,-24"/>
<text text-anchor="start" x="674.5" y="-42" font-family="Helvetica,sans-Serif" font-size="10.00">gui.mainclasses.workspace.</text>
<text text-anchor="middle" x="741" y="-31" font-family="Helvetica,sans-Serif" font-size="10.00">Workspace.Workspace</text>
</a>
</g>
</g>
<!-- Node3&#45;&gt;Node4 -->
<g id="edge3" class="edge"><title>Node3&#45;&gt;Node4</title>
<path fill="none" stroke="midnightblue" d="M639.675,-39C648.66,-39 657.637,-39 666.323,-39"/>
<polygon fill="midnightblue" stroke="midnightblue" points="639.544,-35.5001 629.544,-39 639.544,-42.5001 639.544,-35.5001"/>
</g>
<!-- Node5&#45;&gt;Node3 -->
<g id="edge5" class="edge"><title>Node5&#45;&gt;Node3</title>
<path fill="none" stroke="midnightblue" d="M417.725,-26.0972C426.636,-27.0694 435.62,-28.0495 444.442,-29.0118"/>
<polygon fill="midnightblue" stroke="midnightblue" points="418.027,-22.6096 407.707,-25.0044 417.268,-29.5683 418.027,-22.6096"/>
</g>
</g>
</svg>
