<?xml version="1.0" encoding="UTF-8" standalone="no"?>
<!DOCTYPE svg PUBLIC "-//W3C//DTD SVG 1.1//EN"
 "http://www.w3.org/Graphics/SVG/1.1/DTD/svg11.dtd">
<!-- Generated by graphviz version 2.36.0 (20140111.2315)
 -->
<!-- Title: commandParsing.drawableObectGenerationInterfaces.TurtleGenerator.generateDrawableObjectRepresentingTurtleDeletion Pages: 1 -->
<svg width="464pt" height="48pt"
 viewBox="0.00 0.00 464.00 48.00" xmlns="http://www.w3.org/2000/svg" xmlns:xlink="http://www.w3.org/1999/xlink">
<g id="graph0" class="graph" transform="scale(1 1) rotate(0) translate(4 44)">
<title>commandParsing.drawableObectGenerationInterfaces.TurtleGenerator.generateDrawableObjectRepresentingTurtleDeletion</title>
<polygon fill="white" stroke="none" points="-4,4 -4,-44 460,-44 460,4 -4,4"/>
<!-- Node1 -->
<g id="node1" class="node"><title>Node1</title>
<polygon fill="#bfbfbf" stroke="black" points="0,0.5 0,-40.5 240,-40.5 240,0.5 0,0.5"/>
<text text-anchor="start" x="8" y="-28.5" font-family="Helvetica,sans-Serif" font-size="10.00">commandParsing.drawableObect</text>
<text text-anchor="start" x="8" y="-17.5" font-family="Helvetica,sans-Serif" font-size="10.00">GenerationInterfaces.TurtleGenerator.generate</text>
<text text-anchor="middle" x="120" y="-6.5" font-family="Helvetica,sans-Serif" font-size="10.00">DrawableObjectRepresentingTurtleDeletion</text>
</g>
<!-- Node2 -->
<g id="node2" class="node"><title>Node2</title>
<g id="a_node2"><a xlink:href="../../de/d58/classcommand_parsing_1_1turtle_command_parsing_1_1_clear_stamps.html#a0be3a3feace25c27d4f9b1316aa3dc12" target="_top" xlink:title="commandParsing.turtleCommand\lParsing.ClearStamps.parse">
<polygon fill="white" stroke="black" points="276.5,-5 276.5,-35 455.5,-35 455.5,-5 276.5,-5"/>
<text text-anchor="start" x="284.5" y="-23" font-family="Helvetica,sans-Serif" font-size="10.00">commandParsing.turtleCommand</text>
<text text-anchor="middle" x="366" y="-12" font-family="Helvetica,sans-Serif" font-size="10.00">Parsing.ClearStamps.parse</text>
</a>
</g>
</g>
<!-- Node1&#45;&gt;Node2 -->
<g id="edge1" class="edge"><title>Node1&#45;&gt;Node2</title>
<path fill="none" stroke="midnightblue" d="M250.162,-20C259.028,-20 267.843,-20 276.42,-20"/>
<polygon fill="midnightblue" stroke="midnightblue" points="250.141,-16.5001 240.141,-20 250.141,-23.5001 250.141,-16.5001"/>
</g>
</g>
</svg>
