<?xml version="1.0" encoding="UTF-8" standalone="no"?>
<!DOCTYPE svg PUBLIC "-//W3C//DTD SVG 1.1//EN"
 "http://www.w3.org/Graphics/SVG/1.1/DTD/svg11.dtd">
<!-- Generated by graphviz version 2.36.0 (20140111.2315)
 -->
<!-- Title: commandParsing.turtleCommandParsing.turtleMovement.Rotate.operateOnComponents Pages: 1 -->
<svg width="904pt" height="312pt"
 viewBox="0.00 0.00 904.00 312.00" xmlns="http://www.w3.org/2000/svg" xmlns:xlink="http://www.w3.org/1999/xlink">
<g id="graph0" class="graph" transform="scale(1 1) rotate(0) translate(4 308)">
<title>commandParsing.turtleCommandParsing.turtleMovement.Rotate.operateOnComponents</title>
<polygon fill="white" stroke="none" points="-4,4 -4,-308 900,-308 900,4 -4,4"/>
<!-- Node1 -->
<g id="node1" class="node"><title>Node1</title>
<polygon fill="#bfbfbf" stroke="black" points="0.5,-131.5 0.5,-172.5 205.5,-172.5 205.5,-131.5 0.5,-131.5"/>
<text text-anchor="start" x="8.5" y="-160.5" font-family="Helvetica,sans-Serif" font-size="10.00">commandParsing.turtleCommand</text>
<text text-anchor="start" x="8.5" y="-149.5" font-family="Helvetica,sans-Serif" font-size="10.00">Parsing.turtleMovement.Rotate.operate</text>
<text text-anchor="middle" x="103" y="-138.5" font-family="Helvetica,sans-Serif" font-size="10.00">OnComponents</text>
</g>
<!-- Node2 -->
<g id="node2" class="node"><title>Node2</title>
<g id="a_node2"><a xlink:href="../../dd/d66/classcommand_parsing_1_1turtle_command_parsing_1_1turtle_movement_1_1_rotate.html#a8ef08ebf27d841d40202a10b5c0d3d76" target="_top" xlink:title="commandParsing.turtleCommand\lParsing.turtleMovement.Rotate.amount\lToRotate">
<polygon fill="white" stroke="black" points="259.5,-191.5 259.5,-232.5 464.5,-232.5 464.5,-191.5 259.5,-191.5"/>
<text text-anchor="start" x="267.5" y="-220.5" font-family="Helvetica,sans-Serif" font-size="10.00">commandParsing.turtleCommand</text>
<text text-anchor="start" x="267.5" y="-209.5" font-family="Helvetica,sans-Serif" font-size="10.00">Parsing.turtleMovement.Rotate.amount</text>
<text text-anchor="middle" x="362" y="-198.5" font-family="Helvetica,sans-Serif" font-size="10.00">ToRotate</text>
</a>
</g>
</g>
<!-- Node1&#45;&gt;Node2 -->
<g id="edge1" class="edge"><title>Node1&#45;&gt;Node2</title>
<path fill="none" stroke="midnightblue" d="M192.085,-172.565C214.971,-177.908 239.761,-183.695 263.117,-189.148"/>
<polygon fill="midnightblue" stroke="midnightblue" points="262.496,-192.597 273.03,-191.462 264.087,-185.78 262.496,-192.597"/>
</g>
<!-- Node3 -->
<g id="node3" class="node"><title>Node3</title>
<g id="a_node3"><a xlink:href="../../df/d64/interfacecommand_parsing_1_1drawable_obect_generation_interfaces_1_1_turtle_generator.html#ad2df4af6c11d2ec038868c5520be6acd" target="_top" xlink:title="commandParsing.drawableObect\lGenerationInterfaces.TurtleGenerator.generate\lDrawableObjectRepresentingTurtle">
<polygon fill="white" stroke="black" points="242,-131.5 242,-172.5 482,-172.5 482,-131.5 242,-131.5"/>
<text text-anchor="start" x="250" y="-160.5" font-family="Helvetica,sans-Serif" font-size="10.00">commandParsing.drawableObect</text>
<text text-anchor="start" x="250" y="-149.5" font-family="Helvetica,sans-Serif" font-size="10.00">GenerationInterfaces.TurtleGenerator.generate</text>
<text text-anchor="middle" x="362" y="-138.5" font-family="Helvetica,sans-Serif" font-size="10.00">DrawableObjectRepresentingTurtle</text>
</a>
</g>
</g>
<!-- Node1&#45;&gt;Node3 -->
<g id="edge2" class="edge"><title>Node1&#45;&gt;Node3</title>
<path fill="none" stroke="midnightblue" d="M205.573,-152C214.145,-152 222.884,-152 231.629,-152"/>
<polygon fill="midnightblue" stroke="midnightblue" points="231.887,-155.5 241.887,-152 231.887,-148.5 231.887,-155.5"/>
</g>
<!-- Node12 -->
<g id="node12" class="node"><title>Node12</title>
<g id="a_node12"><a xlink:href="../../db/d1f/classworkspace_state_1_1_turtle_collection.html#a6c49b4d7d24c0ed82ea491185b023cf0" target="_top" xlink:title="workspaceState.TurtleCollection.get\lActiveTurtles">
<polygon fill="white" stroke="black" points="268.5,-83 268.5,-113 455.5,-113 455.5,-83 268.5,-83"/>
<text text-anchor="start" x="276.5" y="-101" font-family="Helvetica,sans-Serif" font-size="10.00">workspaceState.TurtleCollection.get</text>
<text text-anchor="middle" x="362" y="-90" font-family="Helvetica,sans-Serif" font-size="10.00">ActiveTurtles</text>
</a>
</g>
</g>
<!-- Node1&#45;&gt;Node12 -->
<g id="edge11" class="edge"><title>Node1&#45;&gt;Node12</title>
<path fill="none" stroke="midnightblue" d="M197.492,-131.476C212.372,-128.267 227.602,-125.017 242,-122 252.849,-119.727 264.263,-117.375 275.552,-115.072"/>
<polygon fill="midnightblue" stroke="midnightblue" points="276.321,-118.487 285.423,-113.065 274.926,-111.628 276.321,-118.487"/>
</g>
<!-- Node4 -->
<g id="node4" class="node"><title>Node4</title>
<g id="a_node4"><a xlink:href="../../d0/d77/classworkspace_state_1_1_location.html#ae445cb48bedcd80659a847365a6a3de4" target="_top" xlink:title="workspaceState.Location.generate\lLocationString">
<polygon fill="white" stroke="black" points="518.5,-274 518.5,-304 701.5,-304 701.5,-274 518.5,-274"/>
<text text-anchor="start" x="526.5" y="-292" font-family="Helvetica,sans-Serif" font-size="10.00">workspaceState.Location.generate</text>
<text text-anchor="middle" x="610" y="-281" font-family="Helvetica,sans-Serif" font-size="10.00">LocationString</text>
</a>
</g>
</g>
<!-- Node3&#45;&gt;Node4 -->
<g id="edge3" class="edge"><title>Node3&#45;&gt;Node4</title>
<path fill="none" stroke="midnightblue" d="M468.604,-172.633C473.349,-175.384 477.852,-178.491 482,-182 512.39,-207.703 487.883,-237.977 518,-264 519.953,-265.687 522.009,-267.261 524.15,-268.73"/>
<polygon fill="midnightblue" stroke="midnightblue" points="522.401,-271.762 532.781,-273.888 525.992,-265.754 522.401,-271.762"/>
</g>
<!-- Node6 -->
<g id="node6" class="node"><title>Node6</title>
<g id="a_node6"><a xlink:href="../../d1/d01/classworkspace_state_1_1_turtle.html#ac6697327d46a4fde63526e973948d6f7" target="_top" xlink:title="workspaceState.Turtle.get\lHeading">
<polygon fill="white" stroke="black" points="540,-225 540,-255 680,-255 680,-225 540,-225"/>
<text text-anchor="start" x="548" y="-243" font-family="Helvetica,sans-Serif" font-size="10.00">workspaceState.Turtle.get</text>
<text text-anchor="middle" x="610" y="-232" font-family="Helvetica,sans-Serif" font-size="10.00">Heading</text>
</a>
</g>
</g>
<!-- Node3&#45;&gt;Node6 -->
<g id="edge5" class="edge"><title>Node3&#45;&gt;Node6</title>
<path fill="none" stroke="midnightblue" d="M461.26,-172.559C468.443,-175.329 475.436,-178.461 482,-182 501.105,-192.3 499.005,-204.498 518,-215 521.979,-217.2 526.165,-219.216 530.465,-221.064"/>
<polygon fill="midnightblue" stroke="midnightblue" points="529.442,-224.423 540.029,-224.843 532.015,-217.913 529.442,-224.423"/>
</g>
<!-- Node7 -->
<g id="node7" class="node"><title>Node7</title>
<g id="a_node7"><a xlink:href="../../d1/d01/classworkspace_state_1_1_turtle.html#a2b5e77b78036091a65abb5f4959b5ef7" target="_top" xlink:title="workspaceState.Turtle.getID">
<polygon fill="white" stroke="black" points="535,-186.5 535,-205.5 685,-205.5 685,-186.5 535,-186.5"/>
<text text-anchor="middle" x="610" y="-193.5" font-family="Helvetica,sans-Serif" font-size="10.00">workspaceState.Turtle.getID</text>
</a>
</g>
</g>
<!-- Node3&#45;&gt;Node7 -->
<g id="edge6" class="edge"><title>Node3&#45;&gt;Node7</title>
<path fill="none" stroke="midnightblue" d="M477.717,-172.519C501.184,-176.716 525.055,-180.985 545.892,-184.712"/>
<polygon fill="midnightblue" stroke="midnightblue" points="545.402,-188.18 555.862,-186.496 546.634,-181.29 545.402,-188.18"/>
</g>
<!-- Node8 -->
<g id="node8" class="node"><title>Node8</title>
<g id="a_node8"><a xlink:href="../../d1/d01/classworkspace_state_1_1_turtle.html#a9bb3d15f12d9d4e03332ea9817f76882" target="_top" xlink:title="workspaceState.Turtle.get\lLocation">
<polygon fill="white" stroke="black" points="540,-137 540,-167 680,-167 680,-137 540,-137"/>
<text text-anchor="start" x="548" y="-155" font-family="Helvetica,sans-Serif" font-size="10.00">workspaceState.Turtle.get</text>
<text text-anchor="middle" x="610" y="-144" font-family="Helvetica,sans-Serif" font-size="10.00">Location</text>
</a>
</g>
</g>
<!-- Node3&#45;&gt;Node8 -->
<g id="edge7" class="edge"><title>Node3&#45;&gt;Node8</title>
<path fill="none" stroke="midnightblue" d="M482.037,-152C498.179,-152 514.413,-152 529.624,-152"/>
<polygon fill="midnightblue" stroke="midnightblue" points="529.978,-155.5 539.978,-152 529.978,-148.5 529.978,-155.5"/>
</g>
<!-- Node9 -->
<g id="node9" class="node"><title>Node9</title>
<g id="a_node9"><a xlink:href="../../d1/d01/classworkspace_state_1_1_turtle.html#a5c09e19002f9ed4c61ce538fff3da4ff" target="_top" xlink:title="workspaceState.Turtle.get\lOpacity">
<polygon fill="white" stroke="black" points="540,-88 540,-118 680,-118 680,-88 540,-88"/>
<text text-anchor="start" x="548" y="-106" font-family="Helvetica,sans-Serif" font-size="10.00">workspaceState.Turtle.get</text>
<text text-anchor="middle" x="610" y="-95" font-family="Helvetica,sans-Serif" font-size="10.00">Opacity</text>
</a>
</g>
</g>
<!-- Node3&#45;&gt;Node9 -->
<g id="edge8" class="edge"><title>Node3&#45;&gt;Node9</title>
<path fill="none" stroke="midnightblue" d="M466.257,-131.433C487.613,-127.179 509.784,-122.762 530.105,-118.715"/>
<polygon fill="midnightblue" stroke="midnightblue" points="530.796,-122.146 539.92,-116.76 529.429,-115.281 530.796,-122.146"/>
</g>
<!-- Node10 -->
<g id="node10" class="node"><title>Node10</title>
<g id="a_node10"><a xlink:href="../../da/de7/classworkspace_state_1_1_shape.html#aace6051dd26034446492ecac6ff16099" target="_top" xlink:title="workspaceState.Shape.getPath">
<polygon fill="white" stroke="black" points="526.5,-49.5 526.5,-68.5 693.5,-68.5 693.5,-49.5 526.5,-49.5"/>
<text text-anchor="middle" x="610" y="-56.5" font-family="Helvetica,sans-Serif" font-size="10.00">workspaceState.Shape.getPath</text>
</a>
</g>
</g>
<!-- Node3&#45;&gt;Node10 -->
<g id="edge9" class="edge"><title>Node3&#45;&gt;Node10</title>
<path fill="none" stroke="midnightblue" d="M464.268,-131.422C470.455,-128.666 476.425,-125.542 482,-122 503.327,-108.45 496.399,-91.1086 518,-78 521.471,-75.8936 525.138,-74.0178 528.93,-72.3474"/>
<polygon fill="midnightblue" stroke="midnightblue" points="530.516,-75.4865 538.571,-68.6046 527.982,-68.961 530.516,-75.4865"/>
</g>
<!-- Node11 -->
<g id="node11" class="node"><title>Node11</title>
<g id="a_node11"><a xlink:href="../../d1/d01/classworkspace_state_1_1_turtle.html#a8d9dd9cb3503c6d0aa45efca91816f71" target="_top" xlink:title="workspaceState.Turtle.get\lShape">
<polygon fill="white" stroke="black" points="540,-0 540,-30 680,-30 680,-0 540,-0"/>
<text text-anchor="start" x="548" y="-18" font-family="Helvetica,sans-Serif" font-size="10.00">workspaceState.Turtle.get</text>
<text text-anchor="middle" x="610" y="-7" font-family="Helvetica,sans-Serif" font-size="10.00">Shape</text>
</a>
</g>
</g>
<!-- Node3&#45;&gt;Node11 -->
<g id="edge10" class="edge"><title>Node3&#45;&gt;Node11</title>
<path fill="none" stroke="midnightblue" d="M468.604,-131.367C473.349,-128.616 477.852,-125.509 482,-122 512.39,-96.2971 487.883,-66.0229 518,-40 521.754,-36.7563 525.893,-33.9301 530.274,-31.4682"/>
<polygon fill="midnightblue" stroke="midnightblue" points="532.125,-34.4583 539.559,-26.909 529.04,-28.1749 532.125,-34.4583"/>
</g>
<!-- Node5 -->
<g id="node5" class="node"><title>Node5</title>
<g id="a_node5"><a xlink:href="../../d0/d77/classworkspace_state_1_1_location.html#ad4e68a97bd0ea67236551c1183fdcd6f" target="_top" xlink:title="workspaceState.Location.add">
<polygon fill="white" stroke="black" points="738,-279.5 738,-298.5 896,-298.5 896,-279.5 738,-279.5"/>
<text text-anchor="middle" x="817" y="-286.5" font-family="Helvetica,sans-Serif" font-size="10.00">workspaceState.Location.add</text>
</a>
</g>
</g>
<!-- Node4&#45;&gt;Node5 -->
<g id="edge4" class="edge"><title>Node4&#45;&gt;Node5</title>
<path fill="none" stroke="midnightblue" d="M701.513,-289C710.224,-289 719.053,-289 727.742,-289"/>
<polygon fill="midnightblue" stroke="midnightblue" points="727.863,-292.5 737.863,-289 727.863,-285.5 727.863,-292.5"/>
</g>
</g>
</svg>
