<?xml version="1.0" encoding="UTF-8" standalone="no"?>
<!DOCTYPE svg PUBLIC "-//W3C//DTD SVG 1.1//EN"
 "http://www.w3.org/Graphics/SVG/1.1/DTD/svg11.dtd">
<!-- Generated by graphviz version 2.36.0 (20140111.2315)
 -->
<!-- Title: commandParsing.turtleCommandParsing.turtleMovement.Rotate.amountToRotate Pages: 1 -->
<svg width="456pt" height="48pt"
 viewBox="0.00 0.00 456.00 48.00" xmlns="http://www.w3.org/2000/svg" xmlns:xlink="http://www.w3.org/1999/xlink">
<g id="graph0" class="graph" transform="scale(1 1) rotate(0) translate(4 44)">
<title>commandParsing.turtleCommandParsing.turtleMovement.Rotate.amountToRotate</title>
<polygon fill="white" stroke="none" points="-4,4 -4,-44 452,-44 452,4 -4,4"/>
<!-- Node1 -->
<g id="node1" class="node"><title>Node1</title>
<polygon fill="#bfbfbf" stroke="black" points="0.5,0.5 0.5,-40.5 205.5,-40.5 205.5,0.5 0.5,0.5"/>
<text text-anchor="start" x="8.5" y="-28.5" font-family="Helvetica,sans-Serif" font-size="10.00">commandParsing.turtleCommand</text>
<text text-anchor="start" x="8.5" y="-17.5" font-family="Helvetica,sans-Serif" font-size="10.00">Parsing.turtleMovement.Rotate.amount</text>
<text text-anchor="middle" x="103" y="-6.5" font-family="Helvetica,sans-Serif" font-size="10.00">ToRotate</text>
</g>
<!-- Node2 -->
<g id="node2" class="node"><title>Node2</title>
<g id="a_node2"><a xlink:href="../../dd/d66/classcommand_parsing_1_1turtle_command_parsing_1_1turtle_movement_1_1_rotate.html#a9638cfc1f990cd9e8d09196875e555ae" target="_top" xlink:title="commandParsing.turtleCommand\lParsing.turtleMovement.Rotate.operate\lOnComponents">
<polygon fill="white" stroke="black" points="242.5,0.5 242.5,-40.5 447.5,-40.5 447.5,0.5 242.5,0.5"/>
<text text-anchor="start" x="250.5" y="-28.5" font-family="Helvetica,sans-Serif" font-size="10.00">commandParsing.turtleCommand</text>
<text text-anchor="start" x="250.5" y="-17.5" font-family="Helvetica,sans-Serif" font-size="10.00">Parsing.turtleMovement.Rotate.operate</text>
<text text-anchor="middle" x="345" y="-6.5" font-family="Helvetica,sans-Serif" font-size="10.00">OnComponents</text>
</a>
</g>
</g>
<!-- Node1&#45;&gt;Node2 -->
<g id="edge1" class="edge"><title>Node1&#45;&gt;Node2</title>
<path fill="none" stroke="midnightblue" d="M215.784,-20C224.676,-20 233.628,-20 242.444,-20"/>
<polygon fill="midnightblue" stroke="midnightblue" points="215.782,-16.5001 205.782,-20 215.782,-23.5001 215.782,-16.5001"/>
</g>
</g>
</svg>
