<?xml version="1.0" encoding="UTF-8" standalone="no"?>
<!DOCTYPE svg PUBLIC "-//W3C//DTD SVG 1.1//EN"
 "http://www.w3.org/Graphics/SVG/1.1/DTD/svg11.dtd">
<!-- Generated by graphviz version 2.36.0 (20140111.2315)
 -->
<!-- Title: commandParsing.structuralCommandParsing.Tell Pages: 1 -->
<!--zoomable 299 -->
<svg id="main" version="1.1" xmlns="http://www.w3.org/2000/svg" xmlns:xlink="http://www.w3.org/1999/xlink" xml:space="preserve" onload="init(evt)">
<style type="text/css"><![CDATA[
.edge:hover path { stroke: red; }
.edge:hover polygon { stroke: red; fill: red; }
]]></style>
<script type="text/javascript"><![CDATA[
var edges = document.getElementsByTagName('g');
if (edges && edges.length) {
  for (var i=0;i<edges.length;i++) {
    if (edges[i].id.substr(0,4)=='edge') {
      edges[i].setAttribute('class','edge');
    }
  }
}
]]></script>
        <defs>
                <circle id="rim" cx="0" cy="0" r="7"/>
                <circle id="rim2" cx="0" cy="0" r="3.5"/>
                <g id="zoomPlus">
                        <use xlink:href="#rim" fill="#404040">
                                <set attributeName="fill" to="#808080" begin="zoomplus.mouseover" end="zoomplus.mouseout"/>
                        </use>
                        <path d="M-4,0h8M0,-4v8" fill="none" stroke="white" stroke-width="1.5" pointer-events="none"/>
                </g>
                <g id="zoomMin">
                        <use xlink:href="#rim" fill="#404040">
                                <set attributeName="fill" to="#808080" begin="zoomminus.mouseover" end="zoomminus.mouseout"/>
                        </use>
                        <path d="M-4,0h8" fill="none" stroke="white" stroke-width="1.5" pointer-events="none"/>
                </g>
                <g id="dirArrow">
                        <path fill="none" stroke="white" stroke-width="1.5" d="M0,-3.0v7 M-2.5,-0.5L0,-3.0L2.5,-0.5"/>
                </g>
               <g id="resetDef">
                       <use xlink:href="#rim2" fill="#404040">
                               <set attributeName="fill" to="#808080" begin="reset.mouseover" end="reset.mouseout"/>
                       </use>
               </g>
        </defs>

<script type="text/javascript">
var viewWidth = 2056;
var viewHeight = 299;
var sectionId = 'dynsection-1';
</script>
<script xlink:href="../../svgpan.js"/>
<svg id="graph" class="graph">
<g id="viewport">
<title>commandParsing.structuralCommandParsing.Tell</title>
<polygon fill="white" stroke="none" points="-4,4 -4,-295 2052,-295 2052,4 -4,4"/>
<!-- Node1 -->
<g id="node1" class="node"><title>Node1</title>
<polygon fill="#bfbfbf" stroke="black" points="1898.5,-55 1898.5,-85 2047.5,-85 2047.5,-55 1898.5,-55"/>
<text text-anchor="start" x="1906.5" y="-73" font-family="Helvetica,sans-Serif" font-size="10.00">commandParsing.structural</text>
<text text-anchor="middle" x="1973" y="-62" font-family="Helvetica,sans-Serif" font-size="10.00">CommandParsing.Tell</text>
</g>
<!-- Node2 -->
<g id="node2" class="node"><title>Node2</title>
<g id="a_node2"><a xlink:href="../../da/df9/classcommand_parsing_1_1structural_command_parsing_1_1_multiple_turtle_command.html" target="_top" xlink:title="commandParsing.structural\lCommandParsing.MultipleTurtleCommand">
<polygon fill="white" stroke="black" points="1642.5,-55 1642.5,-85 1859.5,-85 1859.5,-55 1642.5,-55"/>
<text text-anchor="start" x="1650.5" y="-73" font-family="Helvetica,sans-Serif" font-size="10.00">commandParsing.structural</text>
<text text-anchor="middle" x="1751" y="-62" font-family="Helvetica,sans-Serif" font-size="10.00">CommandParsing.MultipleTurtleCommand</text>
</a>
</g>
</g>
<!-- Node2&#45;&gt;Node1 -->
<g id="edge1" class="edge"><title>Node2&#45;&gt;Node1</title>
<path fill="none" stroke="midnightblue" d="M1869.84,-70C1879.52,-70 1889.12,-70 1898.33,-70"/>
<polygon fill="midnightblue" stroke="midnightblue" points="1869.74,-66.5001 1859.74,-70 1869.74,-73.5001 1869.74,-66.5001"/>
</g>
<!-- Node3 -->
<g id="node3" class="node"><title>Node3</title>
<g id="a_node3"><a xlink:href="../../de/dcc/classcommand_parsing_1_1structural_command_parsing_1_1_structural_command.html" target="_top" xlink:title="commandParsing.structural\lCommandParsing.StructuralCommand">
<polygon fill="white" stroke="black" points="1314,-126 1314,-156 1516,-156 1516,-126 1314,-126"/>
<text text-anchor="start" x="1322" y="-144" font-family="Helvetica,sans-Serif" font-size="10.00">commandParsing.structural</text>
<text text-anchor="middle" x="1415" y="-133" font-family="Helvetica,sans-Serif" font-size="10.00">CommandParsing.StructuralCommand</text>
</a>
</g>
</g>
<!-- Node3&#45;&gt;Node2 -->
<g id="edge2" class="edge"><title>Node3&#45;&gt;Node2</title>
<path fill="none" stroke="midnightblue" d="M1496.67,-123.851C1552.4,-112.004 1625.82,-96.3966 1679.27,-85.0356"/>
<polygon fill="midnightblue" stroke="midnightblue" points="1495.89,-120.44 1486.83,-125.943 1497.34,-127.287 1495.89,-120.44"/>
</g>
<!-- Node4 -->
<g id="node4" class="node"><title>Node4</title>
<g id="a_node4"><a xlink:href="../../d7/d17/classcommand_parsing_1_1_command_parser.html" target="_top" xlink:title="commandParsing.CommandParser">
<polygon fill="white" stroke="black" points="992.5,-156.5 992.5,-175.5 1175.5,-175.5 1175.5,-156.5 992.5,-156.5"/>
<text text-anchor="middle" x="1084" y="-163.5" font-family="Helvetica,sans-Serif" font-size="10.00">commandParsing.CommandParser</text>
</a>
</g>
</g>
<!-- Node4&#45;&gt;Node3 -->
<g id="edge3" class="edge"><title>Node4&#45;&gt;Node3</title>
<path fill="none" stroke="midnightblue" d="M1185.97,-158.327C1226.64,-155.237 1273.42,-151.682 1313.99,-148.6"/>
<polygon fill="midnightblue" stroke="midnightblue" points="1185.48,-154.855 1175.77,-159.102 1186.01,-161.835 1185.48,-154.855"/>
</g>
<!-- Node5 -->
<g id="node5" class="node"><title>Node5</title>
<polygon fill="white" stroke="#bfbfbf" points="719.5,-173.5 719.5,-192.5 808.5,-192.5 808.5,-173.5 719.5,-173.5"/>
<text text-anchor="middle" x="764" y="-180.5" font-family="Helvetica,sans-Serif" font-size="10.00">List&lt; Double &gt;</text>
</g>
<!-- Node5&#45;&gt;Node4 -->
<g id="edge4" class="edge"><title>Node5&#45;&gt;Node4</title>
<path fill="none" stroke="#9a32cd" stroke-dasharray="5,2" d="M818.61,-180.134C866.047,-177.598 936.254,-173.845 992.401,-170.843"/>
<polygon fill="#9a32cd" stroke="#9a32cd" points="818.349,-176.643 808.55,-180.672 818.722,-183.633 818.349,-176.643"/>
<text text-anchor="middle" x="915" y="-181" font-family="Helvetica,sans-Serif" font-size="10.00"> expressionComponents</text>
</g>
<!-- Node6 -->
<g id="node6" class="node"><title>Node6</title>
<g id="a_node6"><a xlink:href="../../d5/daa/classworkspace_state_1_1_workspace_state.html" target="_top" xlink:title="workspaceState.Workspace\lState">
<polygon fill="white" stroke="black" points="690.5,-124 690.5,-154 837.5,-154 837.5,-124 690.5,-124"/>
<text text-anchor="start" x="698.5" y="-142" font-family="Helvetica,sans-Serif" font-size="10.00">workspaceState.Workspace</text>
<text text-anchor="middle" x="764" y="-131" font-family="Helvetica,sans-Serif" font-size="10.00">State</text>
</a>
</g>
</g>
<!-- Node6&#45;&gt;Node4 -->
<g id="edge5" class="edge"><title>Node6&#45;&gt;Node4</title>
<path fill="none" stroke="#9a32cd" stroke-dasharray="5,2" d="M847.719,-146.023C892.054,-149.788 946.759,-154.432 992.259,-158.296"/>
<polygon fill="#9a32cd" stroke="#9a32cd" points="847.817,-142.519 837.557,-145.161 847.225,-149.494 847.817,-142.519"/>
<text text-anchor="middle" x="915" y="-160" font-family="Helvetica,sans-Serif" font-size="10.00"> workspace</text>
</g>
<!-- Node7 -->
<g id="node7" class="node"><title>Node7</title>
<g id="a_node7"><a xlink:href="../../db/d1f/classworkspace_state_1_1_turtle_collection.html" target="_top" xlink:title="workspaceState.TurtleCollection">
<polygon fill="white" stroke="black" points="420,-246.5 420,-265.5 588,-265.5 588,-246.5 420,-246.5"/>
<text text-anchor="middle" x="504" y="-253.5" font-family="Helvetica,sans-Serif" font-size="10.00">workspaceState.TurtleCollection</text>
</a>
</g>
</g>
<!-- Node7&#45;&gt;Node6 -->
<g id="edge6" class="edge"><title>Node7&#45;&gt;Node6</title>
<path fill="none" stroke="#9a32cd" stroke-dasharray="5,2" d="M552.808,-243.667C564.397,-240.426 576.702,-236.773 588,-233 626.045,-220.294 642.399,-227.068 672,-200 685.201,-187.928 676.534,-175.776 690,-164 694.437,-160.12 699.505,-156.835 704.857,-154.055"/>
<polygon fill="#9a32cd" stroke="#9a32cd" points="551.566,-240.378 542.85,-246.402 553.42,-247.128 551.566,-240.378"/>
<text text-anchor="middle" x="639" y="-231" font-family="Helvetica,sans-Serif" font-size="10.00"> turtles</text>
</g>
<!-- Node8 -->
<g id="node8" class="node"><title>Node8</title>
<polygon fill="white" stroke="#bfbfbf" points="35.5,-243 35.5,-273 202.5,-273 202.5,-243 35.5,-243"/>
<text text-anchor="start" x="43.5" y="-261" font-family="Helvetica,sans-Serif" font-size="10.00">Map&lt; Integer, workspaceState.</text>
<text text-anchor="middle" x="119" y="-250" font-family="Helvetica,sans-Serif" font-size="10.00">Turtle &gt;</text>
</g>
<!-- Node8&#45;&gt;Node7 -->
<g id="edge7" class="edge"><title>Node8&#45;&gt;Node7</title>
<path fill="none" stroke="#9a32cd" stroke-dasharray="5,2" d="M212.989,-257.514C276.13,-257.185 358.905,-256.752 419.854,-256.434"/>
<polygon fill="#9a32cd" stroke="#9a32cd" points="212.615,-254.016 202.634,-257.568 212.652,-261.016 212.615,-254.016"/>
<text text-anchor="middle" x="329" y="-283" font-family="Helvetica,sans-Serif" font-size="10.00"> turtles</text>
<text text-anchor="middle" x="329" y="-272" font-family="Helvetica,sans-Serif" font-size="10.00">activeTurtles</text>
<text text-anchor="middle" x="329" y="-261" font-family="Helvetica,sans-Serif" font-size="10.00">turtleStamps</text>
</g>
<!-- Node9 -->
<g id="node9" class="node"><title>Node9</title>
<g id="a_node9"><a xlink:href="../../d2/df5/classworkspace_state_1_1_palette.html" target="_top" xlink:title="workspaceState.Palette\l\&lt; workspaceState.Shape \&gt;">
<polygon fill="white" stroke="black" points="429.5,-194 429.5,-224 578.5,-224 578.5,-194 429.5,-194"/>
<text text-anchor="start" x="437.5" y="-212" font-family="Helvetica,sans-Serif" font-size="10.00">workspaceState.Palette</text>
<text text-anchor="middle" x="504" y="-201" font-family="Helvetica,sans-Serif" font-size="10.00">&lt; workspaceState.Shape &gt;</text>
</a>
</g>
</g>
<!-- Node9&#45;&gt;Node6 -->
<g id="edge8" class="edge"><title>Node9&#45;&gt;Node6</title>
<path fill="none" stroke="#9a32cd" stroke-dasharray="5,2" d="M577.996,-191.517C607.304,-184.27 641.345,-175.565 672,-167 686.328,-162.997 701.829,-158.348 715.907,-154.002"/>
<polygon fill="#9a32cd" stroke="#9a32cd" points="577.123,-188.127 568.249,-193.917 578.796,-194.924 577.123,-188.127"/>
<text text-anchor="middle" x="639" y="-188" font-family="Helvetica,sans-Serif" font-size="10.00"> shapePalette</text>
</g>
<!-- Node10 -->
<g id="node10" class="node"><title>Node10</title>
<g id="a_node10"><a xlink:href="../../dd/d73/classworkspace_state_1_1_user_defined_variable_collection.html" target="_top" xlink:title="workspaceState.UserDefined\lVariableCollection">
<polygon fill="white" stroke="black" points="426.5,-145 426.5,-175 581.5,-175 581.5,-145 426.5,-145"/>
<text text-anchor="start" x="434.5" y="-163" font-family="Helvetica,sans-Serif" font-size="10.00">workspaceState.UserDefined</text>
<text text-anchor="middle" x="504" y="-152" font-family="Helvetica,sans-Serif" font-size="10.00">VariableCollection</text>
</a>
</g>
</g>
<!-- Node10&#45;&gt;Node6 -->
<g id="edge9" class="edge"><title>Node10&#45;&gt;Node6</title>
<path fill="none" stroke="#9a32cd" stroke-dasharray="5,2" d="M591.921,-152.925C623.823,-150.328 659.581,-147.418 690.125,-144.932"/>
<polygon fill="#9a32cd" stroke="#9a32cd" points="591.393,-149.456 581.71,-153.756 591.961,-156.433 591.393,-149.456"/>
<text text-anchor="middle" x="639" y="-155" font-family="Helvetica,sans-Serif" font-size="10.00"> variables</text>
</g>
<!-- Node11 -->
<g id="node11" class="node"><title>Node11</title>
<polygon fill="white" stroke="#bfbfbf" points="39.5,-194 39.5,-224 198.5,-224 198.5,-194 39.5,-194"/>
<text text-anchor="start" x="47.5" y="-212" font-family="Helvetica,sans-Serif" font-size="10.00">Map&lt; String, gui.variableslist.</text>
<text text-anchor="middle" x="119" y="-201" font-family="Helvetica,sans-Serif" font-size="10.00">WorkspaceVariable &gt;</text>
</g>
<!-- Node11&#45;&gt;Node10 -->
<g id="edge10" class="edge"><title>Node11&#45;&gt;Node10</title>
<path fill="none" stroke="#9a32cd" stroke-dasharray="5,2" d="M208.945,-198.909C264.493,-192.45 337.472,-183.68 402,-175 409.906,-173.937 418.153,-172.783 426.378,-171.605"/>
<polygon fill="#9a32cd" stroke="#9a32cd" points="208.312,-195.459 198.782,-200.088 209.118,-202.413 208.312,-195.459"/>
<text text-anchor="middle" x="329" y="-196" font-family="Helvetica,sans-Serif" font-size="10.00"> variableMap</text>
</g>
<!-- Node12 -->
<g id="node12" class="node"><title>Node12</title>
<g id="a_node12"><a xlink:href="../../d9/da1/classgui_1_1variableslist_1_1_workspace_variable.html" target="_top" xlink:title="gui.variableslist.Workspace\lVariable">
<polygon fill="white" stroke="black" points="47,-145 47,-175 191,-175 191,-145 47,-145"/>
<text text-anchor="start" x="55" y="-163" font-family="Helvetica,sans-Serif" font-size="10.00">gui.variableslist.Workspace</text>
<text text-anchor="middle" x="119" y="-152" font-family="Helvetica,sans-Serif" font-size="10.00">Variable</text>
</a>
</g>
</g>
<!-- Node12&#45;&gt;Node10 -->
<g id="edge11" class="edge"><title>Node12&#45;&gt;Node10</title>
<path fill="none" stroke="#9a32cd" stroke-dasharray="5,2" d="M201.162,-160C267.654,-160 361.086,-160 426.327,-160"/>
<polygon fill="#9a32cd" stroke="#9a32cd" points="201.142,-156.5 191.142,-160 201.142,-163.5 201.142,-156.5"/>
<text text-anchor="middle" x="329" y="-163" font-family="Helvetica,sans-Serif" font-size="10.00"> defaultVar</text>
</g>
<!-- Node13 -->
<g id="node13" class="node"><title>Node13</title>
<g id="a_node13"><a xlink:href="../../d2/d58/classworkspace_state_1_1_user_defined_command_collection.html" target="_top" xlink:title="workspaceState.UserDefined\lCommandCollection">
<polygon fill="white" stroke="black" points="426.5,-96 426.5,-126 581.5,-126 581.5,-96 426.5,-96"/>
<text text-anchor="start" x="434.5" y="-114" font-family="Helvetica,sans-Serif" font-size="10.00">workspaceState.UserDefined</text>
<text text-anchor="middle" x="504" y="-103" font-family="Helvetica,sans-Serif" font-size="10.00">CommandCollection</text>
</a>
</g>
</g>
<!-- Node13&#45;&gt;Node6 -->
<g id="edge12" class="edge"><title>Node13&#45;&gt;Node6</title>
<path fill="none" stroke="#9a32cd" stroke-dasharray="5,2" d="M591.921,-120.433C623.823,-123.896 659.581,-127.776 690.125,-131.091"/>
<polygon fill="#9a32cd" stroke="#9a32cd" points="592.029,-116.925 581.71,-119.325 591.274,-123.884 592.029,-116.925"/>
<text text-anchor="middle" x="639" y="-132" font-family="Helvetica,sans-Serif" font-size="10.00"> commands</text>
</g>
<!-- Node14 -->
<g id="node14" class="node"><title>Node14</title>
<polygon fill="white" stroke="#bfbfbf" points="0.5,-96 0.5,-126 237.5,-126 237.5,-96 0.5,-96"/>
<text text-anchor="start" x="8.5" y="-114" font-family="Helvetica,sans-Serif" font-size="10.00">Map&lt; String, workspaceState.</text>
<text text-anchor="middle" x="119" y="-103" font-family="Helvetica,sans-Serif" font-size="10.00">UserDefinedCommandCollection.Command &gt;</text>
</g>
<!-- Node14&#45;&gt;Node13 -->
<g id="edge13" class="edge"><title>Node14&#45;&gt;Node13</title>
<path fill="none" stroke="#9a32cd" stroke-dasharray="5,2" d="M247.683,-111C306.827,-111 375.141,-111 426.215,-111"/>
<polygon fill="#9a32cd" stroke="#9a32cd" points="247.516,-107.5 237.515,-111 247.515,-114.5 247.516,-107.5"/>
<text text-anchor="middle" x="329" y="-114" font-family="Helvetica,sans-Serif" font-size="10.00"> commandMap</text>
</g>
<!-- Node15 -->
<g id="node15" class="node"><title>Node15</title>
<g id="a_node15"><a xlink:href="../../d3/de0/classtranslator_1_1_translator.html" target="_top" xlink:title="translator.Translator">
<polygon fill="white" stroke="black" points="448,-57.5 448,-76.5 560,-76.5 560,-57.5 448,-57.5"/>
<text text-anchor="middle" x="504" y="-64.5" font-family="Helvetica,sans-Serif" font-size="10.00">translator.Translator</text>
</a>
</g>
</g>
<!-- Node15&#45;&gt;Node6 -->
<g id="edge14" class="edge"><title>Node15&#45;&gt;Node6</title>
<path fill="none" stroke="#9a32cd" stroke-dasharray="5,2" d="M557.637,-78.7895C567.728,-81.1233 578.202,-83.596 588,-86 625.481,-95.1958 635.044,-96.8816 672,-108 687.983,-112.808 705.364,-118.59 720.613,-123.852"/>
<polygon fill="#9a32cd" stroke="#9a32cd" points="558.241,-75.3373 547.711,-76.5097 556.674,-82.1596 558.241,-75.3373"/>
<text text-anchor="middle" x="639" y="-111" font-family="Helvetica,sans-Serif" font-size="10.00"> translator</text>
</g>
<!-- Node16 -->
<g id="node16" class="node"><title>Node16</title>
<polygon fill="white" stroke="#bfbfbf" points="58,-12.5 58,-31.5 180,-31.5 180,-12.5 58,-12.5"/>
<text text-anchor="middle" x="119" y="-19.5" font-family="Helvetica,sans-Serif" font-size="10.00">Map&lt; String, String &gt;</text>
</g>
<!-- Node16&#45;&gt;Node15 -->
<g id="edge15" class="edge"><title>Node16&#45;&gt;Node15</title>
<path fill="none" stroke="#9a32cd" stroke-dasharray="5,2" d="M190.327,-21.7993C247.772,-22.8131 330.809,-26.9751 402,-41 410.274,-42.6299 411.894,-44.6768 420,-47 432.966,-50.7159 447.202,-54.3172 460.166,-57.4158"/>
<polygon fill="#9a32cd" stroke="#9a32cd" points="190.316,-18.2988 180.265,-21.6493 190.211,-25.2981 190.316,-18.2988"/>
<text text-anchor="middle" x="329" y="-99" font-family="Helvetica,sans-Serif" font-size="10.00"> dictionaryOfClassNameToPath</text>
<text text-anchor="middle" x="329" y="-88" font-family="Helvetica,sans-Serif" font-size="10.00">reverseMapping</text>
<text text-anchor="start" x="256" y="-77" font-family="Helvetica,sans-Serif" font-size="10.00">dictionaryOfLanguageToClass</text>
<text text-anchor="middle" x="329" y="-66" font-family="Helvetica,sans-Serif" font-size="10.00">Path</text>
<text text-anchor="middle" x="329" y="-55" font-family="Helvetica,sans-Serif" font-size="10.00">syntaxDictionary</text>
<text text-anchor="middle" x="329" y="-44" font-family="Helvetica,sans-Serif" font-size="10.00">dictionaryLanguageToEnglish</text>
</g>
<!-- Node17 -->
<g id="node17" class="node"><title>Node17</title>
<g id="a_node17"><a xlink:href="../../d2/df5/classworkspace_state_1_1_palette.html" target="_top" xlink:title="workspaceState.Palette\l\&lt; Color \&gt;">
<polygon fill="white" stroke="black" points="439.5,-8 439.5,-38 568.5,-38 568.5,-8 439.5,-8"/>
<text text-anchor="start" x="447.5" y="-26" font-family="Helvetica,sans-Serif" font-size="10.00">workspaceState.Palette</text>
<text text-anchor="middle" x="504" y="-15" font-family="Helvetica,sans-Serif" font-size="10.00">&lt; Color &gt;</text>
</a>
</g>
</g>
<!-- Node17&#45;&gt;Node6 -->
<g id="edge16" class="edge"><title>Node17&#45;&gt;Node6</title>
<path fill="none" stroke="#9a32cd" stroke-dasharray="5,2" d="M565.777,-41.0835C573.272,-43.3791 580.819,-45.7221 588,-48 625.511,-59.8983 636.802,-58.4009 672,-76 698.811,-89.4056 726.738,-109.867 744.465,-123.808"/>
<polygon fill="#9a32cd" stroke="#9a32cd" points="566.576,-37.668 555.99,-38.1025 564.536,-44.3643 566.576,-37.668"/>
<text text-anchor="middle" x="639" y="-79" font-family="Helvetica,sans-Serif" font-size="10.00"> colorPalette</text>
</g>
<!-- Node18 -->
<g id="node18" class="node"><title>Node18</title>
<polygon fill="white" stroke="#bfbfbf" points="1042,-118.5 1042,-137.5 1126,-137.5 1126,-118.5 1042,-118.5"/>
<text text-anchor="middle" x="1084" y="-125.5" font-family="Helvetica,sans-Serif" font-size="10.00">List&lt; String &gt;</text>
</g>
<!-- Node18&#45;&gt;Node3 -->
<g id="edge17" class="edge"><title>Node18&#45;&gt;Node3</title>
<path fill="none" stroke="#9a32cd" stroke-dasharray="5,2" d="M1136.4,-129.452C1179.13,-130.72 1241.53,-132.712 1296,-135 1301.84,-135.245 1307.84,-135.51 1313.9,-135.788"/>
<polygon fill="#9a32cd" stroke="#9a32cd" points="1136.35,-125.949 1126.25,-129.153 1136.14,-132.946 1136.35,-125.949"/>
<text text-anchor="middle" x="1245" y="-138" font-family="Helvetica,sans-Serif" font-size="10.00"> enclosedCommands</text>
</g>
<!-- Node19 -->
<g id="node19" class="node"><title>Node19</title>
<g id="a_node19"><a xlink:href="../../df/d64/interfacecommand_parsing_1_1drawable_obect_generation_interfaces_1_1_turtle_generator.html" target="_top" xlink:title="commandParsing.drawableObect\lGenerationInterfaces.TurtleGenerator">
<polygon fill="white" stroke="black" points="1318,-77 1318,-107 1512,-107 1512,-77 1318,-77"/>
<text text-anchor="start" x="1326" y="-95" font-family="Helvetica,sans-Serif" font-size="10.00">commandParsing.drawableObect</text>
<text text-anchor="middle" x="1415" y="-84" font-family="Helvetica,sans-Serif" font-size="10.00">GenerationInterfaces.TurtleGenerator</text>
</a>
</g>
</g>
<!-- Node19&#45;&gt;Node2 -->
<g id="edge18" class="edge"><title>Node19&#45;&gt;Node2</title>
<path fill="none" stroke="midnightblue" d="M1522.3,-84.9984C1560.58,-82.4766 1603.8,-79.6302 1642.21,-77.1001"/>
<polygon fill="midnightblue" stroke="midnightblue" points="1521.91,-81.5164 1512.16,-85.6662 1522.37,-88.5013 1521.91,-81.5164"/>
</g>
<!-- Node20 -->
<g id="node20" class="node"><title>Node20</title>
<polygon fill="white" stroke="#bfbfbf" points="1370.5,-38.5 1370.5,-57.5 1459.5,-57.5 1459.5,-38.5 1370.5,-38.5"/>
<text text-anchor="middle" x="1415" y="-45.5" font-family="Helvetica,sans-Serif" font-size="10.00">List&lt; Integer &gt;</text>
</g>
<!-- Node20&#45;&gt;Node2 -->
<g id="edge19" class="edge"><title>Node20&#45;&gt;Node2</title>
<path fill="none" stroke="#9a32cd" stroke-dasharray="5,2" d="M1469.81,-51.5441C1516.24,-54.6024 1584.72,-59.1133 1642.36,-62.9099"/>
<polygon fill="#9a32cd" stroke="#9a32cd" points="1469.87,-48.041 1459.66,-50.8761 1469.41,-55.0259 1469.87,-48.041"/>
<text text-anchor="middle" x="1579" y="-65" font-family="Helvetica,sans-Serif" font-size="10.00"> activeTurtleIDList</text>
</g>
<!-- Node21 -->
<g id="node21" class="node"><title>Node21</title>
<polygon fill="white" stroke="#bfbfbf" points="1334.5,-0.5 1334.5,-19.5 1495.5,-19.5 1495.5,-0.5 1334.5,-0.5"/>
<text text-anchor="middle" x="1415" y="-7.5" font-family="Helvetica,sans-Serif" font-size="10.00">List&lt; workspaceState.Turtle &gt;</text>
</g>
<!-- Node21&#45;&gt;Node2 -->
<g id="edge20" class="edge"><title>Node21&#45;&gt;Node2</title>
<path fill="none" stroke="#9a32cd" stroke-dasharray="5,2" d="M1495.72,-21.0058C1534.53,-26.684 1581.81,-34.0754 1624,-42 1644.26,-45.8056 1666.23,-50.4921 1686.07,-54.9349"/>
<polygon fill="#9a32cd" stroke="#9a32cd" points="1495.93,-17.4993 1485.53,-19.5254 1494.92,-24.4266 1495.93,-17.4993"/>
<text text-anchor="middle" x="1579" y="-45" font-family="Helvetica,sans-Serif" font-size="10.00"> savedListOfTurtles</text>
</g>
</g>
</svg>
        <g id="navigator" transform="translate(0 0)" fill="#404254">
                <rect fill="#f2f5e9" fill-opacity="0.5" stroke="#606060" stroke-width=".5" x="0" y="0" width="60" height="60"/>
                <use id="zoomplus" xlink:href="#zoomPlus" x="17" y="9" onmousedown="handleZoom(evt,'in')"/>
                <use id="zoomminus" xlink:href="#zoomMin" x="42" y="9" onmousedown="handleZoom(evt,'out')"/>
                <use id="reset" xlink:href="#resetDef" x="30" y="36" onmousedown="handleReset()"/>
                <g id="arrowUp" xlink:href="#dirArrow" transform="translate(30 24)" onmousedown="handlePan(0,-1)">
                  <use xlink:href="#rim" fill="#404040">
                        <set attributeName="fill" to="#808080" begin="arrowUp.mouseover" end="arrowUp.mouseout"/>
                  </use>
                  <path fill="none" stroke="white" stroke-width="1.5" d="M0,-3.0v7 M-2.5,-0.5L0,-3.0L2.5,-0.5"/>
                </g>
                <g id="arrowRight" xlink:href="#dirArrow" transform="rotate(90) translate(36 -43)" onmousedown="handlePan(1,0)">
                  <use xlink:href="#rim" fill="#404040">
                        <set attributeName="fill" to="#808080" begin="arrowRight.mouseover" end="arrowRight.mouseout"/>
                  </use>
                  <path fill="none" stroke="white" stroke-width="1.5" d="M0,-3.0v7 M-2.5,-0.5L0,-3.0L2.5,-0.5"/>
                </g>
                <g id="arrowDown" xlink:href="#dirArrow" transform="rotate(180) translate(-30 -48)" onmousedown="handlePan(0,1)">
                  <use xlink:href="#rim" fill="#404040">
                        <set attributeName="fill" to="#808080" begin="arrowDown.mouseover" end="arrowDown.mouseout"/>
                  </use>
                  <path fill="none" stroke="white" stroke-width="1.5" d="M0,-3.0v7 M-2.5,-0.5L0,-3.0L2.5,-0.5"/>
                </g>
                <g id="arrowLeft" xlink:href="#dirArrow" transform="rotate(270) translate(-36 17)" onmousedown="handlePan(-1,0)">
                  <use xlink:href="#rim" fill="#404040">
                        <set attributeName="fill" to="#808080" begin="arrowLeft.mouseover" end="arrowLeft.mouseout"/>
                  </use>
                  <path fill="none" stroke="white" stroke-width="1.5" d="M0,-3.0v7 M-2.5,-0.5L0,-3.0L2.5,-0.5"/>
                </g>
        </g>
        <svg viewBox="0 0 15 15" width="100%" height="30px" preserveAspectRatio="xMaxYMin meet">
         <g id="arrow_out" transform="scale(0.3 0.3)">
          <a xlink:href="classcommand_parsing_1_1structural_command_parsing_1_1_tell__coll__graph_org.svg" target="_base">
           <rect id="button" ry="5" rx="5" y="6" x="6" height="38" width="38"
                fill="#f2f5e9" fill-opacity="0.5" stroke="#606060" stroke-width="1.0"/>
           <path id="arrow"
             d="M 11.500037,31.436501 C 11.940474,20.09759 22.043105,11.32322 32.158766,21.979434 L 37.068811,17.246167 C 37.068811,17.246167 37.088388,32 37.088388,32 L 22.160133,31.978069 C 22.160133,31.978069 26.997745,27.140456 26.997745,27.140456 C 18.528582,18.264221 13.291696,25.230495 11.500037,31.436501 z"
             style="fill:#404040;"/>
          </a>
         </g>
        </svg>
</svg>
