<?xml version="1.0" encoding="UTF-8" standalone="no"?>
<!DOCTYPE svg PUBLIC "-//W3C//DTD SVG 1.1//EN"
 "http://www.w3.org/Graphics/SVG/1.1/DTD/svg11.dtd">
<!-- Generated by graphviz version 2.36.0 (20140111.2315)
 -->
<!-- Title: gui.nonbuttonfeatures.CommandLineFeature.CommandLineFeature Pages: 1 -->
<svg width="602pt" height="185pt"
 viewBox="0.00 0.00 602.00 185.00" xmlns="http://www.w3.org/2000/svg" xmlns:xlink="http://www.w3.org/1999/xlink">
<g id="graph0" class="graph" transform="scale(1 1) rotate(0) translate(4 181)">
<title>gui.nonbuttonfeatures.CommandLineFeature.CommandLineFeature</title>
<polygon fill="white" stroke="none" points="-4,4 -4,-181 598,-181 598,4 -4,4"/>
<!-- Node1 -->
<g id="node1" class="node"><title>Node1</title>
<polygon fill="#bfbfbf" stroke="black" points="0.5,-73 0.5,-103 181.5,-103 181.5,-73 0.5,-73"/>
<text text-anchor="start" x="8.5" y="-91" font-family="Helvetica,sans-Serif" font-size="10.00">gui.nonbuttonfeatures.Command</text>
<text text-anchor="middle" x="91" y="-80" font-family="Helvetica,sans-Serif" font-size="10.00">LineFeature.CommandLineFeature</text>
</g>
<!-- Node2 -->
<g id="node2" class="node"><title>Node2</title>
<g id="a_node2"><a xlink:href="../../d0/d64/classgui_1_1nonbuttonfeatures_1_1_command_line_feature.html#a3f213a77a7e44c4e75c4346a4faaccd9" target="_top" xlink:title="gui.nonbuttonfeatures.Command\lLineFeature.cleanCommand">
<polygon fill="white" stroke="black" points="223,-147 223,-177 399,-177 399,-147 223,-147"/>
<text text-anchor="start" x="231" y="-165" font-family="Helvetica,sans-Serif" font-size="10.00">gui.nonbuttonfeatures.Command</text>
<text text-anchor="middle" x="311" y="-154" font-family="Helvetica,sans-Serif" font-size="10.00">LineFeature.cleanCommand</text>
</a>
</g>
</g>
<!-- Node1&#45;&gt;Node2 -->
<g id="edge1" class="edge"><title>Node1&#45;&gt;Node2</title>
<path fill="none" stroke="midnightblue" d="M127.752,-103.066C152.777,-113.324 187.124,-126.833 218,-137 225.406,-139.439 233.202,-141.827 240.993,-144.1"/>
<polygon fill="midnightblue" stroke="midnightblue" points="240.253,-147.528 250.83,-146.913 242.178,-140.798 240.253,-147.528"/>
</g>
<!-- Node3 -->
<g id="node3" class="node"><title>Node3</title>
<g id="a_node3"><a xlink:href="../../d0/dda/classgui_1_1componentdrawers_1_1_component_drawer.html#a7866683582ed9aebe665c7998d549fbb" target="_top" xlink:title="gui.componentdrawers.Component\lDrawer.drawShape">
<polygon fill="white" stroke="black" points="218.5,-98 218.5,-128 403.5,-128 403.5,-98 218.5,-98"/>
<text text-anchor="start" x="226.5" y="-116" font-family="Helvetica,sans-Serif" font-size="10.00">gui.componentdrawers.Component</text>
<text text-anchor="middle" x="311" y="-105" font-family="Helvetica,sans-Serif" font-size="10.00">Drawer.drawShape</text>
</a>
</g>
</g>
<!-- Node1&#45;&gt;Node3 -->
<g id="edge2" class="edge"><title>Node1&#45;&gt;Node3</title>
<path fill="none" stroke="midnightblue" d="M181.613,-98.2767C190.401,-99.2845 199.363,-100.312 208.261,-101.333"/>
<polygon fill="midnightblue" stroke="midnightblue" points="207.932,-104.818 218.266,-102.48 208.73,-97.8634 207.932,-104.818"/>
</g>
<!-- Node4 -->
<g id="node4" class="node"><title>Node4</title>
<g id="a_node4"><a xlink:href="../../d8/df2/classgui_1_1mainclasses_1_1workspace_1_1_workspace.html#a1c6c6c0599097fbf5e9a660ec0ac3702" target="_top" xlink:title="gui.mainclasses.workspace.\lWorkspace.parseCommandString">
<polygon fill="white" stroke="black" points="223,-49 223,-79 399,-79 399,-49 223,-49"/>
<text text-anchor="start" x="231" y="-67" font-family="Helvetica,sans-Serif" font-size="10.00">gui.mainclasses.workspace.</text>
<text text-anchor="middle" x="311" y="-56" font-family="Helvetica,sans-Serif" font-size="10.00">Workspace.parseCommandString</text>
</a>
</g>
</g>
<!-- Node1&#45;&gt;Node4 -->
<g id="edge3" class="edge"><title>Node1&#45;&gt;Node4</title>
<path fill="none" stroke="midnightblue" d="M181.613,-78.1344C191.83,-77.0096 202.281,-75.8589 212.593,-74.7237"/>
<polygon fill="midnightblue" stroke="midnightblue" points="213.288,-78.1685 222.844,-73.5951 212.521,-71.2105 213.288,-78.1685"/>
</g>
<!-- Node6 -->
<g id="node6" class="node"><title>Node6</title>
<g id="a_node6"><a xlink:href="../../d8/d70/classgui_1_1componentdrawers_1_1_command_line_drawer.html#a08074f05635bafab1fbf64d7aedf0b72" target="_top" xlink:title="gui.componentdrawers.Command\lLineDrawer.setCommandLine">
<polygon fill="white" stroke="black" points="221.5,-0 221.5,-30 400.5,-30 400.5,-0 221.5,-0"/>
<text text-anchor="start" x="229.5" y="-18" font-family="Helvetica,sans-Serif" font-size="10.00">gui.componentdrawers.Command</text>
<text text-anchor="middle" x="311" y="-7" font-family="Helvetica,sans-Serif" font-size="10.00">LineDrawer.setCommandLine</text>
</a>
</g>
</g>
<!-- Node1&#45;&gt;Node6 -->
<g id="edge5" class="edge"><title>Node1&#45;&gt;Node6</title>
<path fill="none" stroke="midnightblue" d="M128.598,-72.961C153.564,-62.9742 187.505,-49.9252 218,-40 225.609,-37.5236 233.625,-35.091 241.623,-32.7739"/>
<polygon fill="midnightblue" stroke="midnightblue" points="242.68,-36.112 251.341,-30.0096 240.765,-29.3791 242.68,-36.112"/>
</g>
<!-- Node5 -->
<g id="node5" class="node"><title>Node5</title>
<g id="a_node5"><a xlink:href="../../da/d55/interface_control_1_1_slogo_graphics.html#a05813100446932183f367405e6c73d67" target="_top" xlink:title="Control.SlogoGraphics.parse\lCommandString">
<polygon fill="white" stroke="black" points="440.5,-49 440.5,-79 593.5,-79 593.5,-49 440.5,-49"/>
<text text-anchor="start" x="448.5" y="-67" font-family="Helvetica,sans-Serif" font-size="10.00">Control.SlogoGraphics.parse</text>
<text text-anchor="middle" x="517" y="-56" font-family="Helvetica,sans-Serif" font-size="10.00">CommandString</text>
</a>
</g>
</g>
<!-- Node4&#45;&gt;Node5 -->
<g id="edge4" class="edge"><title>Node4&#45;&gt;Node5</title>
<path fill="none" stroke="midnightblue" d="M399.106,-64C409.421,-64 419.944,-64 430.24,-64"/>
<polygon fill="midnightblue" stroke="midnightblue" points="430.444,-67.5001 440.444,-64 430.444,-60.5001 430.444,-67.5001"/>
</g>
</g>
</svg>
