<?xml version="1.0" encoding="UTF-8" standalone="no"?>
<!DOCTYPE svg PUBLIC "-//W3C//DTD SVG 1.1//EN"
 "http://www.w3.org/Graphics/SVG/1.1/DTD/svg11.dtd">
<!-- Generated by graphviz version 2.36.0 (20140111.2315)
 -->
<!-- Title: gui.variableslist.WorkspaceVariable.getMyValue Pages: 1 -->
<!--zoomable 324 -->
<svg id="main" version="1.1" xmlns="http://www.w3.org/2000/svg" xmlns:xlink="http://www.w3.org/1999/xlink" xml:space="preserve" onload="init(evt)">
<style type="text/css"><![CDATA[
.edge:hover path { stroke: red; }
.edge:hover polygon { stroke: red; fill: red; }
]]></style>
<script type="text/javascript"><![CDATA[
var edges = document.getElementsByTagName('g');
if (edges && edges.length) {
  for (var i=0;i<edges.length;i++) {
    if (edges[i].id.substr(0,4)=='edge') {
      edges[i].setAttribute('class','edge');
    }
  }
}
]]></script>
        <defs>
                <circle id="rim" cx="0" cy="0" r="7"/>
                <circle id="rim2" cx="0" cy="0" r="3.5"/>
                <g id="zoomPlus">
                        <use xlink:href="#rim" fill="#404040">
                                <set attributeName="fill" to="#808080" begin="zoomplus.mouseover" end="zoomplus.mouseout"/>
                        </use>
                        <path d="M-4,0h8M0,-4v8" fill="none" stroke="white" stroke-width="1.5" pointer-events="none"/>
                </g>
                <g id="zoomMin">
                        <use xlink:href="#rim" fill="#404040">
                                <set attributeName="fill" to="#808080" begin="zoomminus.mouseover" end="zoomminus.mouseout"/>
                        </use>
                        <path d="M-4,0h8" fill="none" stroke="white" stroke-width="1.5" pointer-events="none"/>
                </g>
                <g id="dirArrow">
                        <path fill="none" stroke="white" stroke-width="1.5" d="M0,-3.0v7 M-2.5,-0.5L0,-3.0L2.5,-0.5"/>
                </g>
               <g id="resetDef">
                       <use xlink:href="#rim2" fill="#404040">
                               <set attributeName="fill" to="#808080" begin="reset.mouseover" end="reset.mouseout"/>
                       </use>
               </g>
        </defs>

<script type="text/javascript">
var viewWidth = 966;
var viewHeight = 324;
var sectionId = 'dynsection-2';
</script>
<script xlink:href="../../svgpan.js"/>
<svg id="graph" class="graph">
<g id="viewport">
<title>gui.variableslist.WorkspaceVariable.getMyValue</title>
<polygon fill="white" stroke="none" points="-4,4 -4,-320 962,-320 962,4 -4,4"/>
<!-- Node1 -->
<g id="node1" class="node"><title>Node1</title>
<polygon fill="#bfbfbf" stroke="black" points="0,-103 0,-133 144,-133 144,-103 0,-103"/>
<text text-anchor="start" x="8" y="-121" font-family="Helvetica,sans-Serif" font-size="10.00">gui.variableslist.Workspace</text>
<text text-anchor="middle" x="72" y="-110" font-family="Helvetica,sans-Serif" font-size="10.00">Variable.getMyValue</text>
</g>
<!-- Node2 -->
<g id="node2" class="node"><title>Node2</title>
<g id="a_node2"><a xlink:href="../../d5/dc4/interfacecommand_parsing_1_1drawable_obect_generation_interfaces_1_1_user_defined_variable_generator.html#a0a6cea3a0e31a571a77c07065fd68e5b" target="_top" xlink:title="commandParsing.drawableObect\lGenerationInterfaces.UserDefined\lVariableGenerator.generateDrawableObject\lRepresentingVariable">
<polygon fill="white" stroke="black" points="180,-92 180,-144 404,-144 404,-92 180,-92"/>
<text text-anchor="start" x="188" y="-132" font-family="Helvetica,sans-Serif" font-size="10.00">commandParsing.drawableObect</text>
<text text-anchor="start" x="188" y="-121" font-family="Helvetica,sans-Serif" font-size="10.00">GenerationInterfaces.UserDefined</text>
<text text-anchor="start" x="188" y="-110" font-family="Helvetica,sans-Serif" font-size="10.00">VariableGenerator.generateDrawableObject</text>
<text text-anchor="middle" x="292" y="-99" font-family="Helvetica,sans-Serif" font-size="10.00">RepresentingVariable</text>
</a>
</g>
</g>
<!-- Node1&#45;&gt;Node2 -->
<g id="edge1" class="edge"><title>Node1&#45;&gt;Node2</title>
<path fill="none" stroke="midnightblue" d="M154.138,-118C162.49,-118 171.077,-118 179.682,-118"/>
<polygon fill="midnightblue" stroke="midnightblue" points="154.08,-114.5 144.08,-118 154.08,-121.5 154.08,-114.5"/>
</g>
<!-- Node3 -->
<g id="node3" class="node"><title>Node3</title>
<g id="a_node3"><a xlink:href="../../d0/dfe/classcommand_parsing_1_1structural_command_parsing_1_1_recurring_command.html#ab7f44ef8841353bf8a5e112541e16a75" target="_top" xlink:title="commandParsing.structural\lCommandParsing.RecurringCommand.basic\lLoopVariableInitialization">
<polygon fill="white" stroke="black" points="452.5,-217.5 452.5,-258.5 679.5,-258.5 679.5,-217.5 452.5,-217.5"/>
<text text-anchor="start" x="460.5" y="-246.5" font-family="Helvetica,sans-Serif" font-size="10.00">commandParsing.structural</text>
<text text-anchor="start" x="460.5" y="-235.5" font-family="Helvetica,sans-Serif" font-size="10.00">CommandParsing.RecurringCommand.basic</text>
<text text-anchor="middle" x="566" y="-224.5" font-family="Helvetica,sans-Serif" font-size="10.00">LoopVariableInitialization</text>
</a>
</g>
</g>
<!-- Node2&#45;&gt;Node3 -->
<g id="edge2" class="edge"><title>Node2&#45;&gt;Node3</title>
<path fill="none" stroke="midnightblue" d="M337.549,-149.841C365.767,-168.751 403.672,-191.907 440,-207 449.292,-210.86 459.179,-214.321 469.165,-217.404"/>
<polygon fill="midnightblue" stroke="midnightblue" points="339.356,-146.837 329.115,-144.122 335.427,-152.631 339.356,-146.837"/>
</g>
<!-- Node6 -->
<g id="node6" class="node"><title>Node6</title>
<g id="a_node6"><a xlink:href="../../d0/dfe/classcommand_parsing_1_1structural_command_parsing_1_1_recurring_command.html#af97967b7330c654969ecd32fc31b1f8e" target="_top" xlink:title="commandParsing.structural\lCommandParsing.RecurringCommand.increment\lLoopVariable">
<polygon fill="white" stroke="black" points="440.5,-157.5 440.5,-198.5 691.5,-198.5 691.5,-157.5 440.5,-157.5"/>
<text text-anchor="start" x="448.5" y="-186.5" font-family="Helvetica,sans-Serif" font-size="10.00">commandParsing.structural</text>
<text text-anchor="start" x="448.5" y="-175.5" font-family="Helvetica,sans-Serif" font-size="10.00">CommandParsing.RecurringCommand.increment</text>
<text text-anchor="middle" x="566" y="-164.5" font-family="Helvetica,sans-Serif" font-size="10.00">LoopVariable</text>
</a>
</g>
</g>
<!-- Node2&#45;&gt;Node6 -->
<g id="edge5" class="edge"><title>Node2&#45;&gt;Node6</title>
<path fill="none" stroke="midnightblue" d="M413.822,-144.652C433.235,-148.934 453.067,-153.309 471.707,-157.421"/>
<polygon fill="midnightblue" stroke="midnightblue" points="414.544,-141.227 404.025,-142.491 413.036,-148.063 414.544,-141.227"/>
</g>
<!-- Node8 -->
<g id="node8" class="node"><title>Node8</title>
<g id="a_node8"><a xlink:href="../../d3/d78/classcommand_parsing_1_1structural_command_parsing_1_1_for.html#a6b84827c7c254153b5a8171a10a4ba8c" target="_top" xlink:title="commandParsing.structural\lCommandParsing.For.initializeLoop\lVariableParameters">
<polygon fill="white" stroke="black" points="474.5,-97.5 474.5,-138.5 657.5,-138.5 657.5,-97.5 474.5,-97.5"/>
<text text-anchor="start" x="482.5" y="-126.5" font-family="Helvetica,sans-Serif" font-size="10.00">commandParsing.structural</text>
<text text-anchor="start" x="482.5" y="-115.5" font-family="Helvetica,sans-Serif" font-size="10.00">CommandParsing.For.initializeLoop</text>
<text text-anchor="middle" x="566" y="-104.5" font-family="Helvetica,sans-Serif" font-size="10.00">VariableParameters</text>
</a>
</g>
</g>
<!-- Node2&#45;&gt;Node8 -->
<g id="edge7" class="edge"><title>Node2&#45;&gt;Node8</title>
<path fill="none" stroke="midnightblue" d="M414.207,-118C434.388,-118 455.009,-118 474.263,-118"/>
<polygon fill="midnightblue" stroke="midnightblue" points="414.025,-114.5 404.025,-118 414.025,-121.5 414.025,-114.5"/>
</g>
<!-- Node9 -->
<g id="node9" class="node"><title>Node9</title>
<g id="a_node9"><a xlink:href="../../d9/dd9/classcommand_parsing_1_1variable_command_parsing_1_1_make_variable.html#aff148a4ca342ca23dca6794736562010" target="_top" xlink:title="commandParsing.variableCommand\lParsing.MakeVariable.parse">
<polygon fill="white" stroke="black" points="470.5,-49 470.5,-79 661.5,-79 661.5,-49 470.5,-49"/>
<text text-anchor="start" x="478.5" y="-67" font-family="Helvetica,sans-Serif" font-size="10.00">commandParsing.variableCommand</text>
<text text-anchor="middle" x="566" y="-56" font-family="Helvetica,sans-Serif" font-size="10.00">Parsing.MakeVariable.parse</text>
</a>
</g>
</g>
<!-- Node2&#45;&gt;Node9 -->
<g id="edge8" class="edge"><title>Node2&#45;&gt;Node9</title>
<path fill="none" stroke="midnightblue" d="M414.061,-93.1774C422.837,-91.4137 431.553,-89.6727 440,-88 454.849,-85.0595 470.701,-81.9742 485.956,-79.0323"/>
<polygon fill="midnightblue" stroke="midnightblue" points="413.251,-89.7703 404.139,-95.176 414.633,-96.6324 413.251,-89.7703"/>
</g>
<!-- Node10 -->
<g id="node10" class="node"><title>Node10</title>
<g id="a_node10"><a xlink:href="../../d3/d58/classcommand_parsing_1_1user_command_parsing_1_1_make_user_instruction.html#ae874a4712e6685abea7e05c70b4bb7b7" target="_top" xlink:title="commandParsing.userCommand\lParsing.MakeUserInstruction.parse">
<polygon fill="white" stroke="black" points="475,-0 475,-30 657,-30 657,-0 475,-0"/>
<text text-anchor="start" x="483" y="-18" font-family="Helvetica,sans-Serif" font-size="10.00">commandParsing.userCommand</text>
<text text-anchor="middle" x="566" y="-7" font-family="Helvetica,sans-Serif" font-size="10.00">Parsing.MakeUserInstruction.parse</text>
</a>
</g>
</g>
<!-- Node2&#45;&gt;Node10 -->
<g id="edge9" class="edge"><title>Node2&#45;&gt;Node10</title>
<path fill="none" stroke="midnightblue" d="M342.292,-86.6272C370.042,-70.2372 405.881,-51.1232 440,-39 451.036,-35.0787 462.86,-31.7524 474.673,-28.9427"/>
<polygon fill="midnightblue" stroke="midnightblue" points="340.364,-83.7025 333.58,-91.8405 343.958,-89.7093 340.364,-83.7025"/>
</g>
<!-- Node4 -->
<g id="node4" class="node"><title>Node4</title>
<g id="a_node4"><a xlink:href="../../d8/d8f/classcommand_parsing_1_1structural_command_parsing_1_1_repeat.html#abb20eafb2f42a9286c20ec3af2b41925" target="_top" xlink:title="commandParsing.structural\lCommandParsing.Repeat.initialize\lLoopVariableParameters">
<polygon fill="white" stroke="black" points="753.5,-274.5 753.5,-315.5 932.5,-315.5 932.5,-274.5 753.5,-274.5"/>
<text text-anchor="start" x="761.5" y="-303.5" font-family="Helvetica,sans-Serif" font-size="10.00">commandParsing.structural</text>
<text text-anchor="start" x="761.5" y="-292.5" font-family="Helvetica,sans-Serif" font-size="10.00">CommandParsing.Repeat.initialize</text>
<text text-anchor="middle" x="843" y="-281.5" font-family="Helvetica,sans-Serif" font-size="10.00">LoopVariableParameters</text>
</a>
</g>
</g>
<!-- Node3&#45;&gt;Node4 -->
<g id="edge3" class="edge"><title>Node3&#45;&gt;Node4</title>
<path fill="none" stroke="midnightblue" d="M676.377,-260.671C701.928,-265.967 728.834,-271.544 753.356,-276.627"/>
<polygon fill="midnightblue" stroke="midnightblue" points="676.784,-257.181 666.281,-258.578 675.363,-264.035 676.784,-257.181"/>
</g>
<!-- Node5 -->
<g id="node5" class="node"><title>Node5</title>
<g id="a_node5"><a xlink:href="../../d7/d10/classcommand_parsing_1_1structural_command_parsing_1_1_do_times.html#afb2baa6c526f8693dacb3da8d19648f7" target="_top" xlink:title="commandParsing.structural\lCommandParsing.DoTimes.initialize\lLoopVariableParameters">
<polygon fill="white" stroke="black" points="749,-214.5 749,-255.5 937,-255.5 937,-214.5 749,-214.5"/>
<text text-anchor="start" x="757" y="-243.5" font-family="Helvetica,sans-Serif" font-size="10.00">commandParsing.structural</text>
<text text-anchor="start" x="757" y="-232.5" font-family="Helvetica,sans-Serif" font-size="10.00">CommandParsing.DoTimes.initialize</text>
<text text-anchor="middle" x="843" y="-221.5" font-family="Helvetica,sans-Serif" font-size="10.00">LoopVariableParameters</text>
</a>
</g>
</g>
<!-- Node3&#45;&gt;Node5 -->
<g id="edge4" class="edge"><title>Node3&#45;&gt;Node5</title>
<path fill="none" stroke="midnightblue" d="M689.667,-236.662C709.525,-236.445 729.799,-236.224 748.809,-236.017"/>
<polygon fill="midnightblue" stroke="midnightblue" points="689.608,-233.162 679.646,-236.771 689.684,-240.162 689.608,-233.162"/>
</g>
<!-- Node7 -->
<g id="node7" class="node"><title>Node7</title>
<g id="a_node7"><a xlink:href="../../d0/dfe/classcommand_parsing_1_1structural_command_parsing_1_1_recurring_command.html#a60a1b93f2283ed1f1d5957146b10619b" target="_top" xlink:title="commandParsing.structural\lCommandParsing.RecurringCommand.parse">
<polygon fill="white" stroke="black" points="728.5,-163 728.5,-193 957.5,-193 957.5,-163 728.5,-163"/>
<text text-anchor="start" x="736.5" y="-181" font-family="Helvetica,sans-Serif" font-size="10.00">commandParsing.structural</text>
<text text-anchor="middle" x="843" y="-170" font-family="Helvetica,sans-Serif" font-size="10.00">CommandParsing.RecurringCommand.parse</text>
</a>
</g>
</g>
<!-- Node6&#45;&gt;Node7 -->
<g id="edge6" class="edge"><title>Node6&#45;&gt;Node7</title>
<path fill="none" stroke="midnightblue" d="M701.674,-178C710.587,-178 719.516,-178 728.311,-178"/>
<polygon fill="midnightblue" stroke="midnightblue" points="701.626,-174.5 691.626,-178 701.626,-181.5 701.626,-174.5"/>
</g>
</g>
</svg>
        <g id="navigator" transform="translate(0 0)" fill="#404254">
                <rect fill="#f2f5e9" fill-opacity="0.5" stroke="#606060" stroke-width=".5" x="0" y="0" width="60" height="60"/>
                <use id="zoomplus" xlink:href="#zoomPlus" x="17" y="9" onmousedown="handleZoom(evt,'in')"/>
                <use id="zoomminus" xlink:href="#zoomMin" x="42" y="9" onmousedown="handleZoom(evt,'out')"/>
                <use id="reset" xlink:href="#resetDef" x="30" y="36" onmousedown="handleReset()"/>
                <g id="arrowUp" xlink:href="#dirArrow" transform="translate(30 24)" onmousedown="handlePan(0,-1)">
                  <use xlink:href="#rim" fill="#404040">
                        <set attributeName="fill" to="#808080" begin="arrowUp.mouseover" end="arrowUp.mouseout"/>
                  </use>
                  <path fill="none" stroke="white" stroke-width="1.5" d="M0,-3.0v7 M-2.5,-0.5L0,-3.0L2.5,-0.5"/>
                </g>
                <g id="arrowRight" xlink:href="#dirArrow" transform="rotate(90) translate(36 -43)" onmousedown="handlePan(1,0)">
                  <use xlink:href="#rim" fill="#404040">
                        <set attributeName="fill" to="#808080" begin="arrowRight.mouseover" end="arrowRight.mouseout"/>
                  </use>
                  <path fill="none" stroke="white" stroke-width="1.5" d="M0,-3.0v7 M-2.5,-0.5L0,-3.0L2.5,-0.5"/>
                </g>
                <g id="arrowDown" xlink:href="#dirArrow" transform="rotate(180) translate(-30 -48)" onmousedown="handlePan(0,1)">
                  <use xlink:href="#rim" fill="#404040">
                        <set attributeName="fill" to="#808080" begin="arrowDown.mouseover" end="arrowDown.mouseout"/>
                  </use>
                  <path fill="none" stroke="white" stroke-width="1.5" d="M0,-3.0v7 M-2.5,-0.5L0,-3.0L2.5,-0.5"/>
                </g>
                <g id="arrowLeft" xlink:href="#dirArrow" transform="rotate(270) translate(-36 17)" onmousedown="handlePan(-1,0)">
                  <use xlink:href="#rim" fill="#404040">
                        <set attributeName="fill" to="#808080" begin="arrowLeft.mouseover" end="arrowLeft.mouseout"/>
                  </use>
                  <path fill="none" stroke="white" stroke-width="1.5" d="M0,-3.0v7 M-2.5,-0.5L0,-3.0L2.5,-0.5"/>
                </g>
        </g>
        <svg viewBox="0 0 15 15" width="100%" height="30px" preserveAspectRatio="xMaxYMin meet">
         <g id="arrow_out" transform="scale(0.3 0.3)">
          <a xlink:href="classgui_1_1variableslist_1_1_workspace_variable_a0fc16dab06a0aaedc76f6612f305cd6f_icgraph_org.svg" target="_base">
           <rect id="button" ry="5" rx="5" y="6" x="6" height="38" width="38"
                fill="#f2f5e9" fill-opacity="0.5" stroke="#606060" stroke-width="1.0"/>
           <path id="arrow"
             d="M 11.500037,31.436501 C 11.940474,20.09759 22.043105,11.32322 32.158766,21.979434 L 37.068811,17.246167 C 37.068811,17.246167 37.088388,32 37.088388,32 L 22.160133,31.978069 C 22.160133,31.978069 26.997745,27.140456 26.997745,27.140456 C 18.528582,18.264221 13.291696,25.230495 11.500037,31.436501 z"
             style="fill:#404040;"/>
          </a>
         </g>
        </svg>
</svg>
