<?xml version="1.0" encoding="UTF-8" standalone="no"?>
<!DOCTYPE svg PUBLIC "-//W3C//DTD SVG 1.1//EN"
 "http://www.w3.org/Graphics/SVG/1.1/DTD/svg11.dtd">
<!-- Generated by graphviz version 2.36.0 (20140111.2315)
 -->
<!-- Title: gui.variableslist.WorkspaceVariable.addValue Pages: 1 -->
<svg width="844pt" height="256pt"
 viewBox="0.00 0.00 844.00 256.00" xmlns="http://www.w3.org/2000/svg" xmlns:xlink="http://www.w3.org/1999/xlink">
<g id="graph0" class="graph" transform="scale(1 1) rotate(0) translate(4 252)">
<title>gui.variableslist.WorkspaceVariable.addValue</title>
<polygon fill="white" stroke="none" points="-4,4 -4,-252 840,-252 840,4 -4,4"/>
<!-- Node1 -->
<g id="node1" class="node"><title>Node1</title>
<polygon fill="#bfbfbf" stroke="black" points="0,-98 0,-128 144,-128 144,-98 0,-98"/>
<text text-anchor="start" x="8" y="-116" font-family="Helvetica,sans-Serif" font-size="10.00">gui.variableslist.Workspace</text>
<text text-anchor="middle" x="72" y="-105" font-family="Helvetica,sans-Serif" font-size="10.00">Variable.addValue</text>
</g>
<!-- Node2 -->
<g id="node2" class="node"><title>Node2</title>
<g id="a_node2"><a xlink:href="../../dd/d73/classworkspace_state_1_1_user_defined_variable_collection.html#a093eadfb9434e9c2ae29c48d5d9e7bd7" target="_top" xlink:title="workspaceState.UserDefined\lVariableCollection.storeVariable">
<polygon fill="white" stroke="black" points="180.5,-98 180.5,-128 347.5,-128 347.5,-98 180.5,-98"/>
<text text-anchor="start" x="188.5" y="-116" font-family="Helvetica,sans-Serif" font-size="10.00">workspaceState.UserDefined</text>
<text text-anchor="middle" x="264" y="-105" font-family="Helvetica,sans-Serif" font-size="10.00">VariableCollection.storeVariable</text>
</a>
</g>
</g>
<!-- Node1&#45;&gt;Node2 -->
<g id="edge1" class="edge"><title>Node1&#45;&gt;Node2</title>
<path fill="none" stroke="midnightblue" d="M154.088,-113C162.741,-113 171.552,-113 180.225,-113"/>
<polygon fill="midnightblue" stroke="midnightblue" points="154.019,-109.5 144.019,-113 154.019,-116.5 154.019,-109.5"/>
</g>
<!-- Node3 -->
<g id="node3" class="node"><title>Node3</title>
<g id="a_node3"><a xlink:href="../../d3/d78/classcommand_parsing_1_1structural_command_parsing_1_1_for.html#a6b84827c7c254153b5a8171a10a4ba8c" target="_top" xlink:title="commandParsing.structural\lCommandParsing.For.initializeLoop\lVariableParameters">
<polygon fill="white" stroke="black" points="406.5,-206.5 406.5,-247.5 589.5,-247.5 589.5,-206.5 406.5,-206.5"/>
<text text-anchor="start" x="414.5" y="-235.5" font-family="Helvetica,sans-Serif" font-size="10.00">commandParsing.structural</text>
<text text-anchor="start" x="414.5" y="-224.5" font-family="Helvetica,sans-Serif" font-size="10.00">CommandParsing.For.initializeLoop</text>
<text text-anchor="middle" x="498" y="-213.5" font-family="Helvetica,sans-Serif" font-size="10.00">VariableParameters</text>
</a>
</g>
</g>
<!-- Node2&#45;&gt;Node3 -->
<g id="edge2" class="edge"><title>Node2&#45;&gt;Node3</title>
<path fill="none" stroke="midnightblue" d="M290.259,-134.483C313.328,-153.124 349.063,-179.621 384,-196 392.289,-199.886 401.155,-203.363 410.14,-206.456"/>
<polygon fill="midnightblue" stroke="midnightblue" points="292.31,-131.639 282.358,-128.004 287.872,-137.052 292.31,-131.639"/>
</g>
<!-- Node4 -->
<g id="node4" class="node"><title>Node4</title>
<g id="a_node4"><a xlink:href="../../d0/dfe/classcommand_parsing_1_1structural_command_parsing_1_1_recurring_command.html#ab7f44ef8841353bf8a5e112541e16a75" target="_top" xlink:title="commandParsing.structural\lCommandParsing.RecurringCommand.basic\lLoopVariableInitialization">
<polygon fill="white" stroke="black" points="384.5,-146.5 384.5,-187.5 611.5,-187.5 611.5,-146.5 384.5,-146.5"/>
<text text-anchor="start" x="392.5" y="-175.5" font-family="Helvetica,sans-Serif" font-size="10.00">commandParsing.structural</text>
<text text-anchor="start" x="392.5" y="-164.5" font-family="Helvetica,sans-Serif" font-size="10.00">CommandParsing.RecurringCommand.basic</text>
<text text-anchor="middle" x="498" y="-153.5" font-family="Helvetica,sans-Serif" font-size="10.00">LoopVariableInitialization</text>
</a>
</g>
</g>
<!-- Node2&#45;&gt;Node4 -->
<g id="edge3" class="edge"><title>Node2&#45;&gt;Node4</title>
<path fill="none" stroke="midnightblue" d="M339.591,-130.362C361.663,-135.499 386.038,-141.173 408.88,-146.489"/>
<polygon fill="midnightblue" stroke="midnightblue" points="340.158,-126.9 329.625,-128.042 338.571,-133.718 340.158,-126.9"/>
</g>
<!-- Node7 -->
<g id="node7" class="node"><title>Node7</title>
<g id="a_node7"><a xlink:href="../../d3/d58/classcommand_parsing_1_1user_command_parsing_1_1_make_user_instruction.html#ae874a4712e6685abea7e05c70b4bb7b7" target="_top" xlink:title="commandParsing.userCommand\lParsing.MakeUserInstruction.parse">
<polygon fill="white" stroke="black" points="407,-98 407,-128 589,-128 589,-98 407,-98"/>
<text text-anchor="start" x="415" y="-116" font-family="Helvetica,sans-Serif" font-size="10.00">commandParsing.userCommand</text>
<text text-anchor="middle" x="498" y="-105" font-family="Helvetica,sans-Serif" font-size="10.00">Parsing.MakeUserInstruction.parse</text>
</a>
</g>
</g>
<!-- Node2&#45;&gt;Node7 -->
<g id="edge6" class="edge"><title>Node2&#45;&gt;Node7</title>
<path fill="none" stroke="midnightblue" d="M358.201,-113C374.219,-113 390.841,-113 406.779,-113"/>
<polygon fill="midnightblue" stroke="midnightblue" points="357.775,-109.5 347.775,-113 357.775,-116.5 357.775,-109.5"/>
</g>
<!-- Node8 -->
<g id="node8" class="node"><title>Node8</title>
<g id="a_node8"><a xlink:href="../../de/d9e/classcommand_parsing_1_1user_command_parsing_1_1_user_instruction.html#a6b14be9849056a39530c989dde2da904" target="_top" xlink:title="commandParsing.userCommand\lParsing.UserInstruction.parse">
<polygon fill="white" stroke="black" points="411,-49 411,-79 585,-79 585,-49 411,-49"/>
<text text-anchor="start" x="419" y="-67" font-family="Helvetica,sans-Serif" font-size="10.00">commandParsing.userCommand</text>
<text text-anchor="middle" x="498" y="-56" font-family="Helvetica,sans-Serif" font-size="10.00">Parsing.UserInstruction.parse</text>
</a>
</g>
</g>
<!-- Node2&#45;&gt;Node8 -->
<g id="edge7" class="edge"><title>Node2&#45;&gt;Node8</title>
<path fill="none" stroke="midnightblue" d="M346.023,-95.8873C372.058,-90.3885 400.687,-84.342 425.95,-79.0062"/>
<polygon fill="midnightblue" stroke="midnightblue" points="345.245,-92.4744 336.184,-97.9654 346.692,-99.3233 345.245,-92.4744"/>
</g>
<!-- Node10 -->
<g id="node10" class="node"><title>Node10</title>
<g id="a_node10"><a xlink:href="../../d9/dd9/classcommand_parsing_1_1variable_command_parsing_1_1_make_variable.html#aff148a4ca342ca23dca6794736562010" target="_top" xlink:title="commandParsing.variableCommand\lParsing.MakeVariable.parse">
<polygon fill="white" stroke="black" points="402.5,-0 402.5,-30 593.5,-30 593.5,-0 402.5,-0"/>
<text text-anchor="start" x="410.5" y="-18" font-family="Helvetica,sans-Serif" font-size="10.00">commandParsing.variableCommand</text>
<text text-anchor="middle" x="498" y="-7" font-family="Helvetica,sans-Serif" font-size="10.00">Parsing.MakeVariable.parse</text>
</a>
</g>
</g>
<!-- Node2&#45;&gt;Node10 -->
<g id="edge10" class="edge"><title>Node2&#45;&gt;Node10</title>
<path fill="none" stroke="midnightblue" d="M292.796,-91.8101C316.007,-75.1057 350.581,-52.4566 384,-39 392.465,-35.5915 401.49,-32.6364 410.61,-30.0813"/>
<polygon fill="midnightblue" stroke="midnightblue" points="290.489,-89.1614 284.483,-97.8895 294.621,-94.8118 290.489,-89.1614"/>
</g>
<!-- Node5 -->
<g id="node5" class="node"><title>Node5</title>
<g id="a_node5"><a xlink:href="../../d8/d8f/classcommand_parsing_1_1structural_command_parsing_1_1_repeat.html#abb20eafb2f42a9286c20ec3af2b41925" target="_top" xlink:title="commandParsing.structural\lCommandParsing.Repeat.initialize\lLoopVariableParameters">
<polygon fill="white" stroke="black" points="652.5,-184.5 652.5,-225.5 831.5,-225.5 831.5,-184.5 652.5,-184.5"/>
<text text-anchor="start" x="660.5" y="-213.5" font-family="Helvetica,sans-Serif" font-size="10.00">commandParsing.structural</text>
<text text-anchor="start" x="660.5" y="-202.5" font-family="Helvetica,sans-Serif" font-size="10.00">CommandParsing.Repeat.initialize</text>
<text text-anchor="middle" x="742" y="-191.5" font-family="Helvetica,sans-Serif" font-size="10.00">LoopVariableParameters</text>
</a>
</g>
</g>
<!-- Node4&#45;&gt;Node5 -->
<g id="edge4" class="edge"><title>Node4&#45;&gt;Node5</title>
<path fill="none" stroke="midnightblue" d="M622.033,-186.319C632.218,-187.919 642.384,-189.515 652.242,-191.063"/>
<polygon fill="midnightblue" stroke="midnightblue" points="622.274,-182.814 611.852,-184.721 621.188,-189.73 622.274,-182.814"/>
</g>
<!-- Node6 -->
<g id="node6" class="node"><title>Node6</title>
<g id="a_node6"><a xlink:href="../../d7/d10/classcommand_parsing_1_1structural_command_parsing_1_1_do_times.html#afb2baa6c526f8693dacb3da8d19648f7" target="_top" xlink:title="commandParsing.structural\lCommandParsing.DoTimes.initialize\lLoopVariableParameters">
<polygon fill="white" stroke="black" points="648,-124.5 648,-165.5 836,-165.5 836,-124.5 648,-124.5"/>
<text text-anchor="start" x="656" y="-153.5" font-family="Helvetica,sans-Serif" font-size="10.00">commandParsing.structural</text>
<text text-anchor="start" x="656" y="-142.5" font-family="Helvetica,sans-Serif" font-size="10.00">CommandParsing.DoTimes.initialize</text>
<text text-anchor="middle" x="742" y="-131.5" font-family="Helvetica,sans-Serif" font-size="10.00">LoopVariableParameters</text>
</a>
</g>
</g>
<!-- Node4&#45;&gt;Node6 -->
<g id="edge5" class="edge"><title>Node4&#45;&gt;Node6</title>
<path fill="none" stroke="midnightblue" d="M622.056,-155.813C630.752,-155.023 639.434,-154.233 647.922,-153.462"/>
<polygon fill="midnightblue" stroke="midnightblue" points="621.494,-152.35 611.852,-156.741 622.128,-159.321 621.494,-152.35"/>
</g>
<!-- Node9 -->
<g id="node9" class="node"><title>Node9</title>
<g id="a_node9"><a xlink:href="../../de/d9e/classcommand_parsing_1_1user_command_parsing_1_1_user_instruction.html#a0e5dae1883f162efa064de96a540ec47" target="_top" xlink:title="commandParsing.userCommand\lParsing.UserInstruction.accumulate\lComponents">
<polygon fill="white" stroke="black" points="649,-43.5 649,-84.5 835,-84.5 835,-43.5 649,-43.5"/>
<text text-anchor="start" x="657" y="-72.5" font-family="Helvetica,sans-Serif" font-size="10.00">commandParsing.userCommand</text>
<text text-anchor="start" x="657" y="-61.5" font-family="Helvetica,sans-Serif" font-size="10.00">Parsing.UserInstruction.accumulate</text>
<text text-anchor="middle" x="742" y="-50.5" font-family="Helvetica,sans-Serif" font-size="10.00">Components</text>
</a>
</g>
</g>
<!-- Node8&#45;&gt;Node9 -->
<g id="edge8" class="edge"><title>Node8&#45;&gt;Node9</title>
<path fill="none" stroke="midnightblue" d="M595.273,-57.3769C612.883,-57.1939 631.222,-57.2088 648.712,-57.4218"/>
<polygon fill="midnightblue" stroke="midnightblue" points="594.956,-53.8805 585.002,-57.5075 595.045,-60.88 594.956,-53.8805"/>
</g>
<!-- Node9&#45;&gt;Node8 -->
<g id="edge9" class="edge"><title>Node9&#45;&gt;Node8</title>
<path fill="none" stroke="midnightblue" d="M638.328,-70.6807C620.565,-70.816 602.264,-70.7532 585.002,-70.4925"/>
<polygon fill="midnightblue" stroke="midnightblue" points="638.747,-74.1768 648.712,-70.5782 638.678,-67.1772 638.747,-74.1768"/>
</g>
</g>
</svg>
