<?xml version="1.0" encoding="UTF-8" standalone="no"?>
<!DOCTYPE svg PUBLIC "-//W3C//DTD SVG 1.1//EN"
 "http://www.w3.org/Graphics/SVG/1.1/DTD/svg11.dtd">
<!-- Generated by graphviz version 2.36.0 (20140111.2315)
 -->
<!-- Title: commandParsing.structuralCommandParsing.Ask Pages: 1 -->
<svg width="870pt" height="87pt"
 viewBox="0.00 0.00 870.00 87.00" xmlns="http://www.w3.org/2000/svg" xmlns:xlink="http://www.w3.org/1999/xlink">
<g id="graph0" class="graph" transform="scale(1 1) rotate(0) translate(4 83)">
<title>commandParsing.structuralCommandParsing.Ask</title>
<polygon fill="white" stroke="none" points="-4,4 -4,-83 866,-83 866,4 -4,4"/>
<!-- Node1 -->
<g id="node1" class="node"><title>Node1</title>
<polygon fill="#bfbfbf" stroke="black" points="712.5,-24 712.5,-54 861.5,-54 861.5,-24 712.5,-24"/>
<text text-anchor="start" x="720.5" y="-42" font-family="Helvetica,sans-Serif" font-size="10.00">commandParsing.structural</text>
<text text-anchor="middle" x="787" y="-31" font-family="Helvetica,sans-Serif" font-size="10.00">CommandParsing.Ask</text>
</g>
<!-- Node2 -->
<g id="node2" class="node"><title>Node2</title>
<g id="a_node2"><a xlink:href="../../da/df9/classcommand_parsing_1_1structural_command_parsing_1_1_multiple_turtle_command.html" target="_top" xlink:title="commandParsing.structural\lCommandParsing.MultipleTurtleCommand">
<polygon fill="white" stroke="black" points="458.5,-24 458.5,-54 675.5,-54 675.5,-24 458.5,-24"/>
<text text-anchor="start" x="466.5" y="-42" font-family="Helvetica,sans-Serif" font-size="10.00">commandParsing.structural</text>
<text text-anchor="middle" x="567" y="-31" font-family="Helvetica,sans-Serif" font-size="10.00">CommandParsing.MultipleTurtleCommand</text>
</a>
</g>
</g>
<!-- Node2&#45;&gt;Node1 -->
<g id="edge1" class="edge"><title>Node2&#45;&gt;Node1</title>
<path fill="none" stroke="midnightblue" d="M685.922,-39C694.936,-39 703.869,-39 712.471,-39"/>
<polygon fill="midnightblue" stroke="midnightblue" points="685.723,-35.5001 675.723,-39 685.723,-42.5001 685.723,-35.5001"/>
</g>
<!-- Node3 -->
<g id="node3" class="node"><title>Node3</title>
<g id="a_node3"><a xlink:href="../../de/dcc/classcommand_parsing_1_1structural_command_parsing_1_1_structural_command.html" target="_top" xlink:title="commandParsing.structural\lCommandParsing.StructuralCommand">
<polygon fill="white" stroke="black" points="220,-49 220,-79 422,-79 422,-49 220,-49"/>
<text text-anchor="start" x="228" y="-67" font-family="Helvetica,sans-Serif" font-size="10.00">commandParsing.structural</text>
<text text-anchor="middle" x="321" y="-56" font-family="Helvetica,sans-Serif" font-size="10.00">CommandParsing.StructuralCommand</text>
</a>
</g>
</g>
<!-- Node3&#45;&gt;Node2 -->
<g id="edge2" class="edge"><title>Node3&#45;&gt;Node2</title>
<path fill="none" stroke="midnightblue" d="M432.338,-52.6949C440.928,-51.8147 449.596,-50.9266 458.169,-50.0482"/>
<polygon fill="midnightblue" stroke="midnightblue" points="431.892,-49.2222 422.3,-53.7233 432.605,-56.1857 431.892,-49.2222"/>
</g>
<!-- Node4 -->
<g id="node4" class="node"><title>Node4</title>
<g id="a_node4"><a xlink:href="../../d7/d17/classcommand_parsing_1_1_command_parser.html" target="_top" xlink:title="commandParsing.CommandParser">
<polygon fill="white" stroke="black" points="0.5,-54.5 0.5,-73.5 183.5,-73.5 183.5,-54.5 0.5,-54.5"/>
<text text-anchor="middle" x="92" y="-61.5" font-family="Helvetica,sans-Serif" font-size="10.00">commandParsing.CommandParser</text>
</a>
</g>
</g>
<!-- Node4&#45;&gt;Node3 -->
<g id="edge3" class="edge"><title>Node4&#45;&gt;Node3</title>
<path fill="none" stroke="midnightblue" d="M193.768,-64C202.398,-64 211.127,-64 219.753,-64"/>
<polygon fill="midnightblue" stroke="midnightblue" points="193.695,-60.5001 183.695,-64 193.695,-67.5001 193.695,-60.5001"/>
</g>
<!-- Node5 -->
<g id="node5" class="node"><title>Node5</title>
<g id="a_node5"><a xlink:href="../../df/d64/interfacecommand_parsing_1_1drawable_obect_generation_interfaces_1_1_turtle_generator.html" target="_top" xlink:title="commandParsing.drawableObect\lGenerationInterfaces.TurtleGenerator">
<polygon fill="white" stroke="black" points="224,-0 224,-30 418,-30 418,-0 224,-0"/>
<text text-anchor="start" x="232" y="-18" font-family="Helvetica,sans-Serif" font-size="10.00">commandParsing.drawableObect</text>
<text text-anchor="middle" x="321" y="-7" font-family="Helvetica,sans-Serif" font-size="10.00">GenerationInterfaces.TurtleGenerator</text>
</a>
</g>
</g>
<!-- Node5&#45;&gt;Node2 -->
<g id="edge4" class="edge"><title>Node5&#45;&gt;Node2</title>
<path fill="none" stroke="midnightblue" d="M428.056,-25.4318C438.087,-26.4184 448.263,-27.4193 458.309,-28.4074"/>
<polygon fill="midnightblue" stroke="midnightblue" points="428.38,-21.9468 418.085,-24.451 427.694,-28.9131 428.38,-21.9468"/>
</g>
</g>
</svg>
