<?xml version="1.0" encoding="UTF-8" standalone="no"?>
<!DOCTYPE svg PUBLIC "-//W3C//DTD SVG 1.1//EN"
 "http://www.w3.org/Graphics/SVG/1.1/DTD/svg11.dtd">
<!-- Generated by graphviz version 2.36.0 (20140111.2315)
 -->
<!-- Title: gui.componentdrawers.CommandLineDrawer.getCurrentCommand Pages: 1 -->
<svg width="672pt" height="38pt"
 viewBox="0.00 0.00 672.00 38.00" xmlns="http://www.w3.org/2000/svg" xmlns:xlink="http://www.w3.org/1999/xlink">
<g id="graph0" class="graph" transform="scale(1 1) rotate(0) translate(4 34)">
<title>gui.componentdrawers.CommandLineDrawer.getCurrentCommand</title>
<polygon fill="white" stroke="none" points="-4,4 -4,-34 668,-34 668,4 -4,4"/>
<!-- Node1 -->
<g id="node1" class="node"><title>Node1</title>
<polygon fill="#bfbfbf" stroke="black" points="0.5,-0 0.5,-30 179.5,-30 179.5,-0 0.5,-0"/>
<text text-anchor="start" x="8.5" y="-18" font-family="Helvetica,sans-Serif" font-size="10.00">gui.componentdrawers.Command</text>
<text text-anchor="middle" x="90" y="-7" font-family="Helvetica,sans-Serif" font-size="10.00">LineDrawer.getCurrentCommand</text>
</g>
<!-- Node2 -->
<g id="node2" class="node"><title>Node2</title>
<g id="a_node2"><a xlink:href="../../dd/d11/classgui_1_1buttonfeatures_1_1_save_command_button_feature.html#a5c5a00043f5b13347ae4ce993daa93fb" target="_top" xlink:title="gui.buttonfeatures.SaveCommand\lButtonFeature.saveCommand">
<polygon fill="white" stroke="black" points="216,-0 216,-30 398,-30 398,-0 216,-0"/>
<text text-anchor="start" x="224" y="-18" font-family="Helvetica,sans-Serif" font-size="10.00">gui.buttonfeatures.SaveCommand</text>
<text text-anchor="middle" x="307" y="-7" font-family="Helvetica,sans-Serif" font-size="10.00">ButtonFeature.saveCommand</text>
</a>
</g>
</g>
<!-- Node1&#45;&gt;Node2 -->
<g id="edge1" class="edge"><title>Node1&#45;&gt;Node2</title>
<path fill="none" stroke="midnightblue" d="M189.805,-15C198.462,-15 207.195,-15 215.777,-15"/>
<polygon fill="midnightblue" stroke="midnightblue" points="189.69,-11.5001 179.69,-15 189.69,-18.5001 189.69,-11.5001"/>
</g>
<!-- Node3 -->
<g id="node3" class="node"><title>Node3</title>
<g id="a_node3"><a xlink:href="../../dd/d11/classgui_1_1buttonfeatures_1_1_save_command_button_feature.html#a43c4de933c5d307618beae2c827fc6e6" target="_top" xlink:title="gui.buttonfeatures.SaveCommand\lButtonFeature.SaveCommandButtonFeature">
<polygon fill="white" stroke="black" points="434,-0 434,-30 664,-30 664,-0 434,-0"/>
<text text-anchor="start" x="442" y="-18" font-family="Helvetica,sans-Serif" font-size="10.00">gui.buttonfeatures.SaveCommand</text>
<text text-anchor="middle" x="549" y="-7" font-family="Helvetica,sans-Serif" font-size="10.00">ButtonFeature.SaveCommandButtonFeature</text>
</a>
</g>
</g>
<!-- Node2&#45;&gt;Node3 -->
<g id="edge2" class="edge"><title>Node2&#45;&gt;Node3</title>
<path fill="none" stroke="midnightblue" d="M408.29,-15C416.75,-15 425.344,-15 433.898,-15"/>
<polygon fill="midnightblue" stroke="midnightblue" points="408.05,-11.5001 398.05,-15 408.05,-18.5001 408.05,-11.5001"/>
</g>
</g>
</svg>
