<?xml version="1.0" encoding="UTF-8" standalone="no"?>
<!DOCTYPE svg PUBLIC "-//W3C//DTD SVG 1.1//EN"
 "http://www.w3.org/Graphics/SVG/1.1/DTD/svg11.dtd">
<!-- Generated by graphviz version 2.36.0 (20140111.2315)
 -->
<!-- Title: gui.componentdrawers.CommandLineDrawer.CommandLineDrawer Pages: 1 -->
<svg width="410pt" height="77pt"
 viewBox="0.00 0.00 410.00 77.00" xmlns="http://www.w3.org/2000/svg" xmlns:xlink="http://www.w3.org/1999/xlink">
<g id="graph0" class="graph" transform="scale(1 1) rotate(0) translate(4 73)">
<title>gui.componentdrawers.CommandLineDrawer.CommandLineDrawer</title>
<polygon fill="white" stroke="none" points="-4,4 -4,-73 406,-73 406,4 -4,4"/>
<!-- Node1 -->
<g id="node1" class="node"><title>Node1</title>
<polygon fill="#bfbfbf" stroke="black" points="0.5,-17 0.5,-47 179.5,-47 179.5,-17 0.5,-17"/>
<text text-anchor="start" x="8.5" y="-35" font-family="Helvetica,sans-Serif" font-size="10.00">gui.componentdrawers.Command</text>
<text text-anchor="middle" x="90" y="-24" font-family="Helvetica,sans-Serif" font-size="10.00">LineDrawer.CommandLineDrawer</text>
</g>
<!-- Node2 -->
<g id="node2" class="node"><title>Node2</title>
<g id="a_node2"><a xlink:href="../../d0/dda/classgui_1_1componentdrawers_1_1_component_drawer.html#a7866683582ed9aebe665c7998d549fbb" target="_top" xlink:title="gui.componentdrawers.Component\lDrawer.drawShape">
<polygon fill="white" stroke="black" points="216.5,-39 216.5,-69 401.5,-69 401.5,-39 216.5,-39"/>
<text text-anchor="start" x="224.5" y="-57" font-family="Helvetica,sans-Serif" font-size="10.00">gui.componentdrawers.Component</text>
<text text-anchor="middle" x="309" y="-46" font-family="Helvetica,sans-Serif" font-size="10.00">Drawer.drawShape</text>
</a>
</g>
</g>
<!-- Node1&#45;&gt;Node2 -->
<g id="edge1" class="edge"><title>Node1&#45;&gt;Node2</title>
<path fill="none" stroke="midnightblue" d="M179.575,-40.98C188.345,-41.8691 197.296,-42.7765 206.186,-43.6778"/>
<polygon fill="midnightblue" stroke="midnightblue" points="205.882,-47.1649 216.184,-44.6915 206.588,-40.2006 205.882,-47.1649"/>
</g>
<!-- Node3 -->
<g id="node3" class="node"><title>Node3</title>
<g id="a_node3"><a xlink:href="../../d0/d49/classgui_1_1mainclasses_1_1_text_generator.html#afef308a2abfb8f1503d2b276407833e6" target="_top" xlink:title="gui.mainclasses.TextGenerator.get">
<polygon fill="white" stroke="black" points="218,-0.5 218,-19.5 400,-19.5 400,-0.5 218,-0.5"/>
<text text-anchor="middle" x="309" y="-7.5" font-family="Helvetica,sans-Serif" font-size="10.00">gui.mainclasses.TextGenerator.get</text>
</a>
</g>
</g>
<!-- Node1&#45;&gt;Node3 -->
<g id="edge2" class="edge"><title>Node1&#45;&gt;Node3</title>
<path fill="none" stroke="midnightblue" d="M179.575,-23.02C188.87,-22.0777 198.367,-21.1149 207.78,-20.1605"/>
<polygon fill="midnightblue" stroke="midnightblue" points="208.352,-23.6206 217.948,-19.1297 207.646,-16.6563 208.352,-23.6206"/>
</g>
</g>
</svg>
