<?xml version="1.0" encoding="UTF-8" standalone="no"?>
<!DOCTYPE svg PUBLIC "-//W3C//DTD SVG 1.1//EN"
 "http://www.w3.org/Graphics/SVG/1.1/DTD/svg11.dtd">
<!-- Generated by graphviz version 2.36.0 (20140111.2315)
 -->
<!-- Title: gui.componentdrawers.significantcommands.SignificantCommandsDrawer Pages: 1 -->
<svg width="242pt" height="164pt"
 viewBox="0.00 0.00 242.00 164.00" xmlns="http://www.w3.org/2000/svg" xmlns:xlink="http://www.w3.org/1999/xlink">
<g id="graph0" class="graph" transform="scale(1 1) rotate(0) translate(4 160)">
<title>gui.componentdrawers.significantcommands.SignificantCommandsDrawer</title>
<polygon fill="white" stroke="none" points="-4,4 -4,-160 238,-160 238,4 -4,4"/>
<!-- Node1 -->
<g id="node1" class="node"><title>Node1</title>
<polygon fill="#bfbfbf" stroke="black" points="0,-1 0,-31 234,-31 234,-1 0,-1"/>
<text text-anchor="start" x="8" y="-19" font-family="Helvetica,sans-Serif" font-size="10.00">gui.componentdrawers.significantcommands.</text>
<text text-anchor="middle" x="117" y="-8" font-family="Helvetica,sans-Serif" font-size="10.00">SignificantCommandsDrawer</text>
</g>
<!-- Node2 -->
<g id="node2" class="node"><title>Node2</title>
<g id="a_node2"><a xlink:href="../../d0/dda/classgui_1_1componentdrawers_1_1_component_drawer.html" target="_top" xlink:title="gui.componentdrawers.Component\lDrawer">
<polygon fill="white" stroke="black" points="24.5,-69 24.5,-99 209.5,-99 209.5,-69 24.5,-69"/>
<text text-anchor="start" x="32.5" y="-87" font-family="Helvetica,sans-Serif" font-size="10.00">gui.componentdrawers.Component</text>
<text text-anchor="middle" x="117" y="-76" font-family="Helvetica,sans-Serif" font-size="10.00">Drawer</text>
</a>
</g>
</g>
<!-- Node2&#45;&gt;Node1 -->
<g id="edge1" class="edge"><title>Node2&#45;&gt;Node1</title>
<path fill="none" stroke="midnightblue" d="M117,-58.5322C117,-49.3606 117,-39.2449 117,-31.2931"/>
<polygon fill="midnightblue" stroke="midnightblue" points="113.5,-58.6789 117,-68.679 120.5,-58.679 113.5,-58.6789"/>
</g>
<!-- Node3 -->
<g id="node3" class="node"><title>Node3</title>
<polygon fill="white" stroke="#bfbfbf" points="97,-136.5 97,-155.5 137,-155.5 137,-136.5 97,-136.5"/>
<text text-anchor="middle" x="117" y="-143.5" font-family="Helvetica,sans-Serif" font-size="10.00">Pane</text>
</g>
<!-- Node3&#45;&gt;Node2 -->
<g id="edge2" class="edge"><title>Node3&#45;&gt;Node2</title>
<path fill="none" stroke="midnightblue" d="M117,-126.371C117,-117.585 117,-107.272 117,-99.1408"/>
<polygon fill="midnightblue" stroke="midnightblue" points="113.5,-126.403 117,-136.403 120.5,-126.403 113.5,-126.403"/>
</g>
</g>
</svg>
