<?xml version="1.0" encoding="UTF-8" standalone="no"?>
<!DOCTYPE svg PUBLIC "-//W3C//DTD SVG 1.1//EN"
 "http://www.w3.org/Graphics/SVG/1.1/DTD/svg11.dtd">
<!-- Generated by graphviz version 2.36.0 (20140111.2315)
 -->
<!-- Title: commandParsing.floatCommandParsing.FloatInputCommandParser.operateOnComponents Pages: 1 -->
<svg width="478pt" height="48pt"
 viewBox="0.00 0.00 478.00 48.00" xmlns="http://www.w3.org/2000/svg" xmlns:xlink="http://www.w3.org/1999/xlink">
<g id="graph0" class="graph" transform="scale(1 1) rotate(0) translate(4 44)">
<title>commandParsing.floatCommandParsing.FloatInputCommandParser.operateOnComponents</title>
<polygon fill="white" stroke="none" points="-4,4 -4,-44 474,-44 474,4 -4,4"/>
<!-- Node1 -->
<g id="node1" class="node"><title>Node1</title>
<polygon fill="#bfbfbf" stroke="black" points="0.5,0.5 0.5,-40.5 221.5,-40.5 221.5,0.5 0.5,0.5"/>
<text text-anchor="start" x="8.5" y="-28.5" font-family="Helvetica,sans-Serif" font-size="10.00">commandParsing.floatCommand</text>
<text text-anchor="start" x="8.5" y="-17.5" font-family="Helvetica,sans-Serif" font-size="10.00">Parsing.FloatInputCommandParser.operate</text>
<text text-anchor="middle" x="111" y="-6.5" font-family="Helvetica,sans-Serif" font-size="10.00">OnComponents</text>
</g>
<!-- Node2 -->
<g id="node2" class="node"><title>Node2</title>
<g id="a_node2"><a xlink:href="../../d9/d8d/classcommand_parsing_1_1float_command_parsing_1_1_float_input_command_parser.html#a6c371e5159eedf7001793eab06250e8a" target="_top" xlink:title="commandParsing.floatCommand\lParsing.FloatInputCommandParser.parse">
<polygon fill="white" stroke="black" points="258.5,-5 258.5,-35 469.5,-35 469.5,-5 258.5,-5"/>
<text text-anchor="start" x="266.5" y="-23" font-family="Helvetica,sans-Serif" font-size="10.00">commandParsing.floatCommand</text>
<text text-anchor="middle" x="364" y="-12" font-family="Helvetica,sans-Serif" font-size="10.00">Parsing.FloatInputCommandParser.parse</text>
</a>
</g>
</g>
<!-- Node1&#45;&gt;Node2 -->
<g id="edge1" class="edge"><title>Node1&#45;&gt;Node2</title>
<path fill="none" stroke="midnightblue" d="M232.004,-20C240.781,-20 249.595,-20 258.272,-20"/>
<polygon fill="midnightblue" stroke="midnightblue" points="231.727,-16.5001 221.727,-20 231.727,-23.5001 231.727,-16.5001"/>
</g>
</g>
</svg>
