<?xml version="1.0" encoding="UTF-8" standalone="no"?>
<!DOCTYPE svg PUBLIC "-//W3C//DTD SVG 1.1//EN"
 "http://www.w3.org/Graphics/SVG/1.1/DTD/svg11.dtd">
<!-- Generated by graphviz version 2.36.0 (20140111.2315)
 -->
<!-- Title: commandParsing.floatCommandParsing.FloatInputCommandParser.parse Pages: 1 -->
<!--zoomable 207 -->
<svg id="main" version="1.1" xmlns="http://www.w3.org/2000/svg" xmlns:xlink="http://www.w3.org/1999/xlink" xml:space="preserve" onload="init(evt)">
<style type="text/css"><![CDATA[
.edge:hover path { stroke: red; }
.edge:hover polygon { stroke: red; fill: red; }
]]></style>
<script type="text/javascript"><![CDATA[
var edges = document.getElementsByTagName('g');
if (edges && edges.length) {
  for (var i=0;i<edges.length;i++) {
    if (edges[i].id.substr(0,4)=='edge') {
      edges[i].setAttribute('class','edge');
    }
  }
}
]]></script>
        <defs>
                <circle id="rim" cx="0" cy="0" r="7"/>
                <circle id="rim2" cx="0" cy="0" r="3.5"/>
                <g id="zoomPlus">
                        <use xlink:href="#rim" fill="#404040">
                                <set attributeName="fill" to="#808080" begin="zoomplus.mouseover" end="zoomplus.mouseout"/>
                        </use>
                        <path d="M-4,0h8M0,-4v8" fill="none" stroke="white" stroke-width="1.5" pointer-events="none"/>
                </g>
                <g id="zoomMin">
                        <use xlink:href="#rim" fill="#404040">
                                <set attributeName="fill" to="#808080" begin="zoomminus.mouseover" end="zoomminus.mouseout"/>
                        </use>
                        <path d="M-4,0h8" fill="none" stroke="white" stroke-width="1.5" pointer-events="none"/>
                </g>
                <g id="dirArrow">
                        <path fill="none" stroke="white" stroke-width="1.5" d="M0,-3.0v7 M-2.5,-0.5L0,-3.0L2.5,-0.5"/>
                </g>
               <g id="resetDef">
                       <use xlink:href="#rim2" fill="#404040">
                               <set attributeName="fill" to="#808080" begin="reset.mouseover" end="reset.mouseout"/>
                       </use>
               </g>
        </defs>

<script type="text/javascript">
var viewWidth = 942;
var viewHeight = 207;
var sectionId = 'dynsection-4';
</script>
<script xlink:href="../../svgpan.js"/>
<svg id="graph" class="graph">
<g id="viewport">
<title>commandParsing.floatCommandParsing.FloatInputCommandParser.parse</title>
<polygon fill="white" stroke="none" points="-4,4 -4,-203 938,-203 938,4 -4,4"/>
<!-- Node1 -->
<g id="node1" class="node"><title>Node1</title>
<polygon fill="#bfbfbf" stroke="black" points="0.5,-66 0.5,-96 211.5,-96 211.5,-66 0.5,-66"/>
<text text-anchor="start" x="8.5" y="-84" font-family="Helvetica,sans-Serif" font-size="10.00">commandParsing.floatCommand</text>
<text text-anchor="middle" x="106" y="-73" font-family="Helvetica,sans-Serif" font-size="10.00">Parsing.FloatInputCommandParser.parse</text>
</g>
<!-- Node2 -->
<g id="node2" class="node"><title>Node2</title>
<g id="a_node2"><a xlink:href="../../d7/d17/classcommand_parsing_1_1_command_parser.html#a663a439263fd1c59baab79f31742f1d7" target="_top" xlink:title="commandParsing.CommandParser.accumulate\lComponents">
<polygon fill="white" stroke="black" points="248,-120 248,-150 490,-150 490,-120 248,-120"/>
<text text-anchor="start" x="256" y="-138" font-family="Helvetica,sans-Serif" font-size="10.00">commandParsing.CommandParser.accumulate</text>
<text text-anchor="middle" x="369" y="-127" font-family="Helvetica,sans-Serif" font-size="10.00">Components</text>
</a>
</g>
</g>
<!-- Node1&#45;&gt;Node2 -->
<g id="edge1" class="edge"><title>Node1&#45;&gt;Node2</title>
<path fill="none" stroke="midnightblue" d="M179.703,-96.042C212.514,-102.83 251.433,-110.883 285.348,-117.9"/>
<polygon fill="midnightblue" stroke="midnightblue" points="284.733,-121.346 295.235,-119.945 286.151,-114.492 284.733,-121.346"/>
</g>
<!-- Node7 -->
<g id="node7" class="node"><title>Node7</title>
<g id="a_node7"><a xlink:href="../../d9/d8d/classcommand_parsing_1_1float_command_parsing_1_1_float_input_command_parser.html#a68e31debdce50cadacd4a92b7ab319e9" target="_top" xlink:title="commandParsing.floatCommand\lParsing.FloatInputCommandParser.get\lNumberOfArguments">
<polygon fill="white" stroke="black" points="269,-60.5 269,-101.5 469,-101.5 469,-60.5 269,-60.5"/>
<text text-anchor="start" x="277" y="-89.5" font-family="Helvetica,sans-Serif" font-size="10.00">commandParsing.floatCommand</text>
<text text-anchor="start" x="277" y="-78.5" font-family="Helvetica,sans-Serif" font-size="10.00">Parsing.FloatInputCommandParser.get</text>
<text text-anchor="middle" x="369" y="-67.5" font-family="Helvetica,sans-Serif" font-size="10.00">NumberOfArguments</text>
</a>
</g>
</g>
<!-- Node1&#45;&gt;Node7 -->
<g id="edge6" class="edge"><title>Node1&#45;&gt;Node7</title>
<path fill="none" stroke="midnightblue" d="M211.655,-81C227.128,-81 243.105,-81 258.67,-81"/>
<polygon fill="midnightblue" stroke="midnightblue" points="258.83,-84.5001 268.83,-81 258.83,-77.5001 258.83,-84.5001"/>
</g>
<!-- Node8 -->
<g id="node8" class="node"><title>Node8</title>
<g id="a_node8"><a xlink:href="../../d9/d8d/classcommand_parsing_1_1float_command_parsing_1_1_float_input_command_parser.html#a90145bef2422abafaaf478721510ad7d" target="_top" xlink:title="commandParsing.floatCommand\lParsing.FloatInputCommandParser.operate\lOnComponents">
<polygon fill="white" stroke="black" points="258.5,-0.5 258.5,-41.5 479.5,-41.5 479.5,-0.5 258.5,-0.5"/>
<text text-anchor="start" x="266.5" y="-29.5" font-family="Helvetica,sans-Serif" font-size="10.00">commandParsing.floatCommand</text>
<text text-anchor="start" x="266.5" y="-18.5" font-family="Helvetica,sans-Serif" font-size="10.00">Parsing.FloatInputCommandParser.operate</text>
<text text-anchor="middle" x="369" y="-7.5" font-family="Helvetica,sans-Serif" font-size="10.00">OnComponents</text>
</a>
</g>
</g>
<!-- Node1&#45;&gt;Node8 -->
<g id="edge7" class="edge"><title>Node1&#45;&gt;Node8</title>
<path fill="none" stroke="midnightblue" d="M172.524,-65.9369C201.673,-59.2362 236.627,-51.2007 268.867,-43.7893"/>
<polygon fill="midnightblue" stroke="midnightblue" points="269.814,-47.1629 278.775,-41.5114 268.245,-40.3409 269.814,-47.1629"/>
</g>
<!-- Node3 -->
<g id="node3" class="node"><title>Node3</title>
<g id="a_node3"><a xlink:href="../../d7/d17/classcommand_parsing_1_1_command_parser.html#a9bf6e09b0ad06b6f217ad0ad040f8e93" target="_top" xlink:title="commandParsing.CommandParser.create\lParser">
<polygon fill="white" stroke="black" points="526,-169 526,-199 742,-199 742,-169 526,-169"/>
<text text-anchor="start" x="534" y="-187" font-family="Helvetica,sans-Serif" font-size="10.00">commandParsing.CommandParser.create</text>
<text text-anchor="middle" x="634" y="-176" font-family="Helvetica,sans-Serif" font-size="10.00">Parser</text>
</a>
</g>
</g>
<!-- Node2&#45;&gt;Node3 -->
<g id="edge2" class="edge"><title>Node2&#45;&gt;Node3</title>
<path fill="none" stroke="midnightblue" d="M450.696,-150.035C479.727,-155.444 512.663,-161.58 542.476,-167.134"/>
<polygon fill="midnightblue" stroke="midnightblue" points="541.985,-170.603 552.457,-168.994 543.267,-163.721 541.985,-170.603"/>
</g>
<!-- Node4 -->
<g id="node4" class="node"><title>Node4</title>
<g id="a_node4"><a xlink:href="../../d7/d17/classcommand_parsing_1_1_command_parser.html#ac5bad35b74ad1aac039e96f2e3a99e82" target="_top" xlink:title="commandParsing.CommandParser.is\lStringParsableAsCommand">
<polygon fill="white" stroke="black" points="537.5,-120 537.5,-150 730.5,-150 730.5,-120 537.5,-120"/>
<text text-anchor="start" x="545.5" y="-138" font-family="Helvetica,sans-Serif" font-size="10.00">commandParsing.CommandParser.is</text>
<text text-anchor="middle" x="634" y="-127" font-family="Helvetica,sans-Serif" font-size="10.00">StringParsableAsCommand</text>
</a>
</g>
</g>
<!-- Node2&#45;&gt;Node4 -->
<g id="edge3" class="edge"><title>Node2&#45;&gt;Node4</title>
<path fill="none" stroke="midnightblue" d="M490.34,-135C502.597,-135 514.985,-135 527.073,-135"/>
<polygon fill="midnightblue" stroke="midnightblue" points="527.147,-138.5 537.147,-135 527.147,-131.5 527.147,-138.5"/>
</g>
<!-- Node6 -->
<g id="node6" class="node"><title>Node6</title>
<g id="a_node6"><a xlink:href="../../d7/d17/classcommand_parsing_1_1_command_parser.html#ae5a2f506ca01f7fa355a64e4831fbae3" target="_top" xlink:title="commandParsing.CommandParser.parse">
<polygon fill="white" stroke="black" points="528,-81.5 528,-100.5 740,-100.5 740,-81.5 528,-81.5"/>
<text text-anchor="middle" x="634" y="-88.5" font-family="Helvetica,sans-Serif" font-size="10.00">commandParsing.CommandParser.parse</text>
</a>
</g>
</g>
<!-- Node2&#45;&gt;Node6 -->
<g id="edge5" class="edge"><title>Node2&#45;&gt;Node6</title>
<path fill="none" stroke="midnightblue" d="M459.774,-119.981C494.551,-114.163 533.672,-107.618 565.925,-102.222"/>
<polygon fill="midnightblue" stroke="midnightblue" points="566.856,-105.615 576.142,-100.512 565.701,-98.7105 566.856,-105.615"/>
</g>
<!-- Node5 -->
<g id="node5" class="node"><title>Node5</title>
<g id="a_node5"><a xlink:href="../../d3/de0/classtranslator_1_1_translator.html#ad62364674b153e6fb5c67b328700d6e2" target="_top" xlink:title="translator.Translator.matches\lCommandPattern">
<polygon fill="white" stroke="black" points="778,-120 778,-150 934,-150 934,-120 778,-120"/>
<text text-anchor="start" x="786" y="-138" font-family="Helvetica,sans-Serif" font-size="10.00">translator.Translator.matches</text>
<text text-anchor="middle" x="856" y="-127" font-family="Helvetica,sans-Serif" font-size="10.00">CommandPattern</text>
</a>
</g>
</g>
<!-- Node4&#45;&gt;Node5 -->
<g id="edge4" class="edge"><title>Node4&#45;&gt;Node5</title>
<path fill="none" stroke="midnightblue" d="M730.535,-135C742.856,-135 755.423,-135 767.604,-135"/>
<polygon fill="midnightblue" stroke="midnightblue" points="767.731,-138.5 777.731,-135 767.731,-131.5 767.731,-138.5"/>
</g>
</g>
</svg>
        <g id="navigator" transform="translate(0 0)" fill="#404254">
                <rect fill="#f2f5e9" fill-opacity="0.5" stroke="#606060" stroke-width=".5" x="0" y="0" width="60" height="60"/>
                <use id="zoomplus" xlink:href="#zoomPlus" x="17" y="9" onmousedown="handleZoom(evt,'in')"/>
                <use id="zoomminus" xlink:href="#zoomMin" x="42" y="9" onmousedown="handleZoom(evt,'out')"/>
                <use id="reset" xlink:href="#resetDef" x="30" y="36" onmousedown="handleReset()"/>
                <g id="arrowUp" xlink:href="#dirArrow" transform="translate(30 24)" onmousedown="handlePan(0,-1)">
                  <use xlink:href="#rim" fill="#404040">
                        <set attributeName="fill" to="#808080" begin="arrowUp.mouseover" end="arrowUp.mouseout"/>
                  </use>
                  <path fill="none" stroke="white" stroke-width="1.5" d="M0,-3.0v7 M-2.5,-0.5L0,-3.0L2.5,-0.5"/>
                </g>
                <g id="arrowRight" xlink:href="#dirArrow" transform="rotate(90) translate(36 -43)" onmousedown="handlePan(1,0)">
                  <use xlink:href="#rim" fill="#404040">
                        <set attributeName="fill" to="#808080" begin="arrowRight.mouseover" end="arrowRight.mouseout"/>
                  </use>
                  <path fill="none" stroke="white" stroke-width="1.5" d="M0,-3.0v7 M-2.5,-0.5L0,-3.0L2.5,-0.5"/>
                </g>
                <g id="arrowDown" xlink:href="#dirArrow" transform="rotate(180) translate(-30 -48)" onmousedown="handlePan(0,1)">
                  <use xlink:href="#rim" fill="#404040">
                        <set attributeName="fill" to="#808080" begin="arrowDown.mouseover" end="arrowDown.mouseout"/>
                  </use>
                  <path fill="none" stroke="white" stroke-width="1.5" d="M0,-3.0v7 M-2.5,-0.5L0,-3.0L2.5,-0.5"/>
                </g>
                <g id="arrowLeft" xlink:href="#dirArrow" transform="rotate(270) translate(-36 17)" onmousedown="handlePan(-1,0)">
                  <use xlink:href="#rim" fill="#404040">
                        <set attributeName="fill" to="#808080" begin="arrowLeft.mouseover" end="arrowLeft.mouseout"/>
                  </use>
                  <path fill="none" stroke="white" stroke-width="1.5" d="M0,-3.0v7 M-2.5,-0.5L0,-3.0L2.5,-0.5"/>
                </g>
        </g>
        <svg viewBox="0 0 15 15" width="100%" height="30px" preserveAspectRatio="xMaxYMin meet">
         <g id="arrow_out" transform="scale(0.3 0.3)">
          <a xlink:href="classcommand_parsing_1_1float_command_parsing_1_1_float_input_command_parser_a6c371e5159eedf7001793eab06250e8a_cgraph_org.svg" target="_base">
           <rect id="button" ry="5" rx="5" y="6" x="6" height="38" width="38"
                fill="#f2f5e9" fill-opacity="0.5" stroke="#606060" stroke-width="1.0"/>
           <path id="arrow"
             d="M 11.500037,31.436501 C 11.940474,20.09759 22.043105,11.32322 32.158766,21.979434 L 37.068811,17.246167 C 37.068811,17.246167 37.088388,32 37.088388,32 L 22.160133,31.978069 C 22.160133,31.978069 26.997745,27.140456 26.997745,27.140456 C 18.528582,18.264221 13.291696,25.230495 11.500037,31.436501 z"
             style="fill:#404040;"/>
          </a>
         </g>
        </svg>
</svg>
