<?xml version="1.0" encoding="UTF-8" standalone="no"?>
<!DOCTYPE svg PUBLIC "-//W3C//DTD SVG 1.1//EN"
 "http://www.w3.org/Graphics/SVG/1.1/DTD/svg11.dtd">
<!-- Generated by graphviz version 2.36.0 (20140111.2315)
 -->
<!-- Title: commandParsing.colorCommandparsing.SetShapePalette.parse Pages: 1 -->
<svg width="946pt" height="169pt"
 viewBox="0.00 0.00 946.00 169.00" xmlns="http://www.w3.org/2000/svg" xmlns:xlink="http://www.w3.org/1999/xlink">
<g id="graph0" class="graph" transform="scale(1 1) rotate(0) translate(4 165)">
<title>commandParsing.colorCommandparsing.SetShapePalette.parse</title>
<polygon fill="white" stroke="none" points="-4,4 -4,-165 942,-165 942,4 -4,4"/>
<!-- Node1 -->
<g id="node1" class="node"><title>Node1</title>
<polygon fill="#bfbfbf" stroke="black" points="0.5,-43 0.5,-73 215.5,-73 215.5,-43 0.5,-43"/>
<text text-anchor="start" x="8.5" y="-61" font-family="Helvetica,sans-Serif" font-size="10.00">commandParsing.colorCommandparsing.</text>
<text text-anchor="middle" x="108" y="-50" font-family="Helvetica,sans-Serif" font-size="10.00">SetShapePalette.parse</text>
</g>
<!-- Node2 -->
<g id="node2" class="node"><title>Node2</title>
<g id="a_node2"><a xlink:href="../../d7/d17/classcommand_parsing_1_1_command_parser.html#a663a439263fd1c59baab79f31742f1d7" target="_top" xlink:title="commandParsing.CommandParser.accumulate\lComponents">
<polygon fill="white" stroke="black" points="252,-76 252,-106 494,-106 494,-76 252,-76"/>
<text text-anchor="start" x="260" y="-94" font-family="Helvetica,sans-Serif" font-size="10.00">commandParsing.CommandParser.accumulate</text>
<text text-anchor="middle" x="373" y="-83" font-family="Helvetica,sans-Serif" font-size="10.00">Components</text>
</a>
</g>
</g>
<!-- Node1&#45;&gt;Node2 -->
<g id="edge1" class="edge"><title>Node1&#45;&gt;Node2</title>
<path fill="none" stroke="midnightblue" d="M215.593,-71.3748C224.387,-72.4782 233.334,-73.6009 242.271,-74.7223"/>
<polygon fill="midnightblue" stroke="midnightblue" points="241.99,-78.2143 252.348,-75.9866 242.862,-71.2688 241.99,-78.2143"/>
</g>
<!-- Node7 -->
<g id="node7" class="node"><title>Node7</title>
<g id="a_node7"><a xlink:href="../../d3/d10/interfacecommand_parsing_1_1drawable_obect_generation_interfaces_1_1_shape_palette_update_generator.html#a428e73580c13f7802e9fef9cef6194e7" target="_top" xlink:title="commandParsing.drawableObect\lGenerationInterfaces.ShapePalette\lUpdateGenerator.generateDrawableObject\lRepresentingShapePaletteUpdate">
<polygon fill="white" stroke="black" points="262.5,-0 262.5,-52 483.5,-52 483.5,-0 262.5,-0"/>
<text text-anchor="start" x="270.5" y="-40" font-family="Helvetica,sans-Serif" font-size="10.00">commandParsing.drawableObect</text>
<text text-anchor="start" x="270.5" y="-29" font-family="Helvetica,sans-Serif" font-size="10.00">GenerationInterfaces.ShapePalette</text>
<text text-anchor="start" x="270.5" y="-18" font-family="Helvetica,sans-Serif" font-size="10.00">UpdateGenerator.generateDrawableObject</text>
<text text-anchor="middle" x="373" y="-7" font-family="Helvetica,sans-Serif" font-size="10.00">RepresentingShapePaletteUpdate</text>
</a>
</g>
</g>
<!-- Node1&#45;&gt;Node7 -->
<g id="edge6" class="edge"><title>Node1&#45;&gt;Node7</title>
<path fill="none" stroke="midnightblue" d="M215.593,-45.0305C227.607,-43.5687 239.909,-42.0719 252.078,-40.5913"/>
<polygon fill="midnightblue" stroke="midnightblue" points="252.755,-44.0348 262.259,-39.3525 251.909,-37.0861 252.755,-44.0348"/>
</g>
<!-- Node3 -->
<g id="node3" class="node"><title>Node3</title>
<g id="a_node3"><a xlink:href="../../d7/d17/classcommand_parsing_1_1_command_parser.html#a9bf6e09b0ad06b6f217ad0ad040f8e93" target="_top" xlink:title="commandParsing.CommandParser.create\lParser">
<polygon fill="white" stroke="black" points="530,-131 530,-161 746,-161 746,-131 530,-131"/>
<text text-anchor="start" x="538" y="-149" font-family="Helvetica,sans-Serif" font-size="10.00">commandParsing.CommandParser.create</text>
<text text-anchor="middle" x="638" y="-138" font-family="Helvetica,sans-Serif" font-size="10.00">Parser</text>
</a>
</g>
</g>
<!-- Node2&#45;&gt;Node3 -->
<g id="edge2" class="edge"><title>Node2&#45;&gt;Node3</title>
<path fill="none" stroke="midnightblue" d="M445.866,-106.029C479.641,-113.092 520.076,-121.548 555.039,-128.86"/>
<polygon fill="midnightblue" stroke="midnightblue" points="554.716,-132.368 565.221,-130.989 556.149,-125.516 554.716,-132.368"/>
</g>
<!-- Node4 -->
<g id="node4" class="node"><title>Node4</title>
<g id="a_node4"><a xlink:href="../../d7/d17/classcommand_parsing_1_1_command_parser.html#ac5bad35b74ad1aac039e96f2e3a99e82" target="_top" xlink:title="commandParsing.CommandParser.is\lStringParsableAsCommand">
<polygon fill="white" stroke="black" points="541.5,-82 541.5,-112 734.5,-112 734.5,-82 541.5,-82"/>
<text text-anchor="start" x="549.5" y="-100" font-family="Helvetica,sans-Serif" font-size="10.00">commandParsing.CommandParser.is</text>
<text text-anchor="middle" x="638" y="-89" font-family="Helvetica,sans-Serif" font-size="10.00">StringParsableAsCommand</text>
</a>
</g>
</g>
<!-- Node2&#45;&gt;Node4 -->
<g id="edge3" class="edge"><title>Node2&#45;&gt;Node4</title>
<path fill="none" stroke="midnightblue" d="M494.34,-93.7454C506.597,-94.025 518.985,-94.3076 531.073,-94.5834"/>
<polygon fill="midnightblue" stroke="midnightblue" points="531.07,-98.0842 541.147,-94.8132 531.229,-91.086 531.07,-98.0842"/>
</g>
<!-- Node6 -->
<g id="node6" class="node"><title>Node6</title>
<g id="a_node6"><a xlink:href="../../d7/d17/classcommand_parsing_1_1_command_parser.html#ae5a2f506ca01f7fa355a64e4831fbae3" target="_top" xlink:title="commandParsing.CommandParser.parse">
<polygon fill="white" stroke="black" points="532,-43.5 532,-62.5 744,-62.5 744,-43.5 532,-43.5"/>
<text text-anchor="middle" x="638" y="-50.5" font-family="Helvetica,sans-Serif" font-size="10.00">commandParsing.CommandParser.parse</text>
</a>
</g>
</g>
<!-- Node2&#45;&gt;Node6 -->
<g id="edge5" class="edge"><title>Node2&#45;&gt;Node6</title>
<path fill="none" stroke="midnightblue" d="M477.945,-75.9814C505.704,-71.9706 535.178,-67.7119 561.114,-63.9645"/>
<polygon fill="midnightblue" stroke="midnightblue" points="561.847,-67.3951 571.244,-62.5009 560.846,-60.467 561.847,-67.3951"/>
</g>
<!-- Node5 -->
<g id="node5" class="node"><title>Node5</title>
<g id="a_node5"><a xlink:href="../../d3/de0/classtranslator_1_1_translator.html#ad62364674b153e6fb5c67b328700d6e2" target="_top" xlink:title="translator.Translator.matches\lCommandPattern">
<polygon fill="white" stroke="black" points="782,-82 782,-112 938,-112 938,-82 782,-82"/>
<text text-anchor="start" x="790" y="-100" font-family="Helvetica,sans-Serif" font-size="10.00">translator.Translator.matches</text>
<text text-anchor="middle" x="860" y="-89" font-family="Helvetica,sans-Serif" font-size="10.00">CommandPattern</text>
</a>
</g>
</g>
<!-- Node4&#45;&gt;Node5 -->
<g id="edge4" class="edge"><title>Node4&#45;&gt;Node5</title>
<path fill="none" stroke="midnightblue" d="M734.535,-97C746.856,-97 759.423,-97 771.604,-97"/>
<polygon fill="midnightblue" stroke="midnightblue" points="771.731,-100.5 781.731,-97 771.731,-93.5001 771.731,-100.5"/>
</g>
<!-- Node8 -->
<g id="node8" class="node"><title>Node8</title>
<g id="a_node8"><a xlink:href="../../da/de7/classworkspace_state_1_1_shape.html#aace6051dd26034446492ecac6ff16099" target="_top" xlink:title="workspaceState.Shape.getPath">
<polygon fill="white" stroke="black" points="554.5,-5.5 554.5,-24.5 721.5,-24.5 721.5,-5.5 554.5,-5.5"/>
<text text-anchor="middle" x="638" y="-12.5" font-family="Helvetica,sans-Serif" font-size="10.00">workspaceState.Shape.getPath</text>
</a>
</g>
</g>
<!-- Node7&#45;&gt;Node8 -->
<g id="edge7" class="edge"><title>Node7&#45;&gt;Node8</title>
<path fill="none" stroke="midnightblue" d="M483.631,-21.4147C503.795,-20.5713 524.665,-19.6984 544.272,-18.8784"/>
<polygon fill="midnightblue" stroke="midnightblue" points="544.555,-22.3697 554.4,-18.4548 544.262,-15.3758 544.555,-22.3697"/>
</g>
</g>
</svg>
