<?xml version="1.0" encoding="UTF-8" standalone="no"?>
<!DOCTYPE svg PUBLIC "-//W3C//DTD SVG 1.1//EN"
 "http://www.w3.org/Graphics/SVG/1.1/DTD/svg11.dtd">
<!-- Generated by graphviz version 2.36.0 (20140111.2315)
 -->
<!-- Title: Control.SlogoControl Pages: 1 -->
<svg width="271pt" height="84pt"
 viewBox="0.00 0.00 271.00 84.00" xmlns="http://www.w3.org/2000/svg" xmlns:xlink="http://www.w3.org/1999/xlink">
<g id="graph0" class="graph" transform="scale(1 1) rotate(0) translate(4 80)">
<title>Control.SlogoControl</title>
<polygon fill="white" stroke="none" points="-4,4 -4,-80 267,-80 267,4 -4,4"/>
<!-- Node1 -->
<g id="node1" class="node"><title>Node1</title>
<polygon fill="#bfbfbf" stroke="black" points="73,-0.5 73,-19.5 189,-19.5 189,-0.5 73,-0.5"/>
<text text-anchor="middle" x="131" y="-7.5" font-family="Helvetica,sans-Serif" font-size="10.00">Control.SlogoControl</text>
</g>
<!-- Node2 -->
<g id="node2" class="node"><title>Node2</title>
<g id="a_node2"><a xlink:href="../../da/d55/interface_control_1_1_slogo_graphics.html" target="_top" xlink:title="Control.SlogoGraphics">
<polygon fill="white" stroke="black" points="-0.5,-56.5 -0.5,-75.5 122.5,-75.5 122.5,-56.5 -0.5,-56.5"/>
<text text-anchor="middle" x="61" y="-63.5" font-family="Helvetica,sans-Serif" font-size="10.00">Control.SlogoGraphics</text>
</a>
</g>
</g>
<!-- Node2&#45;&gt;Node1 -->
<g id="edge1" class="edge"><title>Node2&#45;&gt;Node1</title>
<path fill="none" stroke="midnightblue" d="M80.3138,-50.1008C92.9117,-40.3824 108.928,-28.0269 119.549,-19.8339"/>
<polygon fill="midnightblue" stroke="midnightblue" points="78.0267,-47.4446 72.2467,-56.324 82.3024,-52.9871 78.0267,-47.4446"/>
</g>
<!-- Node3 -->
<g id="node3" class="node"><title>Node3</title>
<g id="a_node3"><a xlink:href="../../d5/ddf/interface_control_1_1_slogo_backend.html" target="_top" xlink:title="Control.SlogoBackend">
<polygon fill="white" stroke="black" points="141,-56.5 141,-75.5 263,-75.5 263,-56.5 141,-56.5"/>
<text text-anchor="middle" x="202" y="-63.5" font-family="Helvetica,sans-Serif" font-size="10.00">Control.SlogoBackend</text>
</a>
</g>
</g>
<!-- Node3&#45;&gt;Node1 -->
<g id="edge2" class="edge"><title>Node3&#45;&gt;Node1</title>
<path fill="none" stroke="midnightblue" d="M182.41,-50.1008C169.632,-40.3824 153.387,-28.0269 142.615,-19.8339"/>
<polygon fill="midnightblue" stroke="midnightblue" points="180.514,-53.0561 190.593,-56.324 184.752,-47.4844 180.514,-53.0561"/>
</g>
</g>
</svg>
