<?xml version="1.0" encoding="UTF-8" standalone="no"?>
<!DOCTYPE svg PUBLIC "-//W3C//DTD SVG 1.1//EN"
 "http://www.w3.org/Graphics/SVG/1.1/DTD/svg11.dtd">
<!-- Generated by graphviz version 2.36.0 (20140111.2315)
 -->
<!-- Title: gui.componentdrawers.TurtleScreenDrawer Pages: 1 -->
<svg width="1350pt" height="432pt"
 viewBox="0.00 0.00 1350.00 432.00" xmlns="http://www.w3.org/2000/svg" xmlns:xlink="http://www.w3.org/1999/xlink">
<g id="graph0" class="graph" transform="scale(1 1) rotate(0) translate(4 428)">
<title>gui.componentdrawers.TurtleScreenDrawer</title>
<polygon fill="white" stroke="none" points="-4,4 -4,-428 1346,-428 1346,4 -4,4"/>
<!-- Node1 -->
<g id="node1" class="node"><title>Node1</title>
<polygon fill="#bfbfbf" stroke="black" points="600.5,-76 600.5,-106 755.5,-106 755.5,-76 600.5,-76"/>
<text text-anchor="start" x="608.5" y="-94" font-family="Helvetica,sans-Serif" font-size="10.00">gui.componentdrawers.Turtle</text>
<text text-anchor="middle" x="678" y="-83" font-family="Helvetica,sans-Serif" font-size="10.00">ScreenDrawer</text>
</g>
<!-- Node6 -->
<g id="node6" class="node"><title>Node6</title>
<g id="a_node6"><a xlink:href="../../d8/df2/classgui_1_1mainclasses_1_1workspace_1_1_workspace.html" target="_top" xlink:title="gui.mainclasses.workspace.\lWorkspace">
<polygon fill="white" stroke="black" points="934.5,-186 934.5,-216 1083.5,-216 1083.5,-186 934.5,-186"/>
<text text-anchor="start" x="942.5" y="-204" font-family="Helvetica,sans-Serif" font-size="10.00">gui.mainclasses.workspace.</text>
<text text-anchor="middle" x="1009" y="-193" font-family="Helvetica,sans-Serif" font-size="10.00">Workspace</text>
</a>
</g>
</g>
<!-- Node1&#45;&gt;Node6 -->
<g id="edge16" class="edge"><title>Node1&#45;&gt;Node6</title>
<path fill="none" stroke="#9a32cd" stroke-dasharray="5,2" d="M765.751,-101.882C809.476,-109.176 862.693,-120.862 908,-139 937.963,-150.996 969.032,-171.801 988.429,-185.973"/>
<polygon fill="#9a32cd" stroke="#9a32cd" points="766.145,-98.4003 755.714,-100.256 765.026,-105.31 766.145,-98.4003"/>
<text text-anchor="middle" x="851" y="-142" font-family="Helvetica,sans-Serif" font-size="10.00"> myTurtleScreenDrawer</text>
</g>
<!-- Node2 -->
<g id="node2" class="node"><title>Node2</title>
<g id="a_node2"><a xlink:href="../../d0/dda/classgui_1_1componentdrawers_1_1_component_drawer.html" target="_top" xlink:title="gui.componentdrawers.Component\lDrawer">
<polygon fill="white" stroke="black" points="145.5,-88 145.5,-118 330.5,-118 330.5,-88 145.5,-88"/>
<text text-anchor="start" x="153.5" y="-106" font-family="Helvetica,sans-Serif" font-size="10.00">gui.componentdrawers.Component</text>
<text text-anchor="middle" x="238" y="-95" font-family="Helvetica,sans-Serif" font-size="10.00">Drawer</text>
</a>
</g>
</g>
<!-- Node2&#45;&gt;Node1 -->
<g id="edge1" class="edge"><title>Node2&#45;&gt;Node1</title>
<path fill="none" stroke="midnightblue" d="M340.551,-100.218C419.758,-98.0477 528.075,-95.0801 600.178,-93.1047"/>
<polygon fill="midnightblue" stroke="midnightblue" points="340.453,-96.7191 330.552,-100.492 340.645,-103.716 340.453,-96.7191"/>
</g>
<!-- Node3 -->
<g id="node3" class="node"><title>Node3</title>
<polygon fill="white" stroke="#bfbfbf" points="0,-93.5 0,-112.5 40,-112.5 40,-93.5 0,-93.5"/>
<text text-anchor="middle" x="20" y="-100.5" font-family="Helvetica,sans-Serif" font-size="10.00">Pane</text>
</g>
<!-- Node3&#45;&gt;Node1 -->
<g id="edge5" class="edge"><title>Node3&#45;&gt;Node1</title>
<path fill="none" stroke="#9a32cd" stroke-dasharray="5,2" d="M47.7713,-116.86C57.0852,-120.975 67.7671,-124.934 78,-127 288.97,-169.603 348.722,-139.908 562,-111 574.45,-109.312 587.615,-107.269 600.419,-105.142"/>
<polygon fill="#9a32cd" stroke="#9a32cd" points="49.1777,-113.653 38.6367,-112.587 46.2118,-119.994 49.1777,-113.653"/>
<text text-anchor="middle" x="238" y="-152" font-family="Helvetica,sans-Serif" font-size="10.00"> myGrid</text>
</g>
<!-- Node3&#45;&gt;Node2 -->
<g id="edge2" class="edge"><title>Node3&#45;&gt;Node2</title>
<path fill="none" stroke="midnightblue" d="M50.2229,-103C74.7293,-103 111.102,-103 145.255,-103"/>
<polygon fill="midnightblue" stroke="midnightblue" points="50.1686,-99.5001 40.1686,-103 50.1685,-106.5 50.1686,-99.5001"/>
</g>
<!-- Node4 -->
<g id="node4" class="node"><title>Node4</title>
<g id="a_node4"><a xlink:href="../../dd/d6a/classgui_1_1nonbuttonfeatures_1_1_turtle_screen_feature.html" target="_top" xlink:title="gui.nonbuttonfeatures.Turtle\lScreenFeature">
<polygon fill="white" stroke="black" points="162,-39 162,-69 314,-69 314,-39 162,-39"/>
<text text-anchor="start" x="170" y="-57" font-family="Helvetica,sans-Serif" font-size="10.00">gui.nonbuttonfeatures.Turtle</text>
<text text-anchor="middle" x="238" y="-46" font-family="Helvetica,sans-Serif" font-size="10.00">ScreenFeature</text>
</a>
</g>
</g>
<!-- Node3&#45;&gt;Node4 -->
<g id="edge4" class="edge"><title>Node3&#45;&gt;Node4</title>
<path fill="none" stroke="midnightblue" d="M48.8662,-89.0274C57.9656,-84.9428 68.2425,-80.8224 78,-78 104.817,-70.2429 134.945,-64.8839 161.705,-61.2331"/>
<polygon fill="midnightblue" stroke="midnightblue" points="47.1163,-85.9816 39.5349,-93.3825 50.0768,-92.3248 47.1163,-85.9816"/>
</g>
<!-- Node4&#45;&gt;Node1 -->
<g id="edge3" class="edge"><title>Node4&#45;&gt;Node1</title>
<path fill="none" stroke="#9a32cd" stroke-dasharray="5,2" d="M324.3,-60.5146C389.437,-65.5745 481.41,-72.9025 562,-80 574.387,-81.0909 587.519,-82.2986 600.31,-83.5026"/>
<polygon fill="#9a32cd" stroke="#9a32cd" points="324.323,-57.006 314.083,-59.7224 323.782,-63.985 324.323,-57.006"/>
<text text-anchor="middle" x="489" y="-83" font-family="Helvetica,sans-Serif" font-size="10.00"> myTurtleScreen</text>
</g>
<!-- Node5 -->
<g id="node5" class="node"><title>Node5</title>
<g id="a_node5"><a xlink:href="../../dd/d25/classgui_1_1factories_1_1turtlefactory_1_1_turtle_nodes.html" target="_top" xlink:title="gui.factories.turtlefactory.\lTurtleNodes">
<polygon fill="white" stroke="black" points="1204,-176 1204,-206 1342,-206 1342,-176 1204,-176"/>
<text text-anchor="start" x="1212" y="-194" font-family="Helvetica,sans-Serif" font-size="10.00">gui.factories.turtlefactory.</text>
<text text-anchor="middle" x="1273" y="-183" font-family="Helvetica,sans-Serif" font-size="10.00">TurtleNodes</text>
</a>
</g>
</g>
<!-- Node5&#45;&gt;Node1 -->
<g id="edge6" class="edge"><title>Node5&#45;&gt;Node1</title>
<path fill="none" stroke="#9a32cd" stroke-dasharray="5,2" d="M1211.86,-173.139C1140.2,-152.674 1016.52,-119.92 908,-104 857.569,-96.6019 800.319,-93.3519 755.677,-91.9514"/>
<polygon fill="#9a32cd" stroke="#9a32cd" points="1211.04,-176.545 1221.61,-175.942 1212.97,-169.817 1211.04,-176.545"/>
<text text-anchor="middle" x="1009" y="-145" font-family="Helvetica,sans-Serif" font-size="10.00"> myTurtleNodes</text>
</g>
<!-- Node5&#45;&gt;Node6 -->
<g id="edge18" class="edge"><title>Node5&#45;&gt;Node6</title>
<path fill="none" stroke="#9a32cd" stroke-dasharray="5,2" d="M1193.32,-180.528C1190.85,-180.331 1188.41,-180.153 1186,-180 1152.29,-177.853 1143.6,-176.51 1110,-180 1097.47,-181.301 1084.2,-183.496 1071.56,-185.989"/>
<polygon fill="#9a32cd" stroke="#9a32cd" points="1193.27,-184.038 1203.54,-181.446 1193.89,-177.066 1193.27,-184.038"/>
<text text-anchor="middle" x="1148" y="-183" font-family="Helvetica,sans-Serif" font-size="10.00"> myTurtleNodes</text>
</g>
<!-- Node6&#45;&gt;Node5 -->
<g id="edge7" class="edge"><title>Node6&#45;&gt;Node5</title>
<path fill="none" stroke="#9a32cd" stroke-dasharray="5,2" d="M1094.02,-197.793C1129.48,-196.44 1170.25,-194.884 1203.81,-193.603"/>
<polygon fill="#9a32cd" stroke="#9a32cd" points="1093.54,-194.309 1083.68,-198.188 1093.81,-201.304 1093.54,-194.309"/>
<text text-anchor="middle" x="1148" y="-200" font-family="Helvetica,sans-Serif" font-size="10.00"> myWorkspace</text>
</g>
<!-- Node7 -->
<g id="node7" class="node"><title>Node7</title>
<polygon fill="white" stroke="#bfbfbf" points="662,-346.5 662,-365.5 694,-365.5 694,-346.5 662,-346.5"/>
<text text-anchor="middle" x="678" y="-353.5" font-family="Helvetica,sans-Serif" font-size="10.00">Tab</text>
</g>
<!-- Node7&#45;&gt;Node6 -->
<g id="edge8" class="edge"><title>Node7&#45;&gt;Node6</title>
<path fill="none" stroke="midnightblue" d="M703.997,-360.676C750.884,-367.871 852.311,-375.715 908,-322 939.559,-291.56 896.604,-257.534 926,-225 929.083,-221.588 932.621,-218.651 936.46,-216.123"/>
<polygon fill="midnightblue" stroke="midnightblue" points="704.517,-357.215 694.08,-359.036 703.375,-364.121 704.517,-357.215"/>
</g>
<!-- Node8 -->
<g id="node8" class="node"><title>Node8</title>
<g id="a_node8"><a xlink:href="../../d0/d23/classgui_1_1mainclasses_1_1workspace_1_1_workspace_data_holder.html" target="_top" xlink:title="gui.mainclasses.workspace.\lWorkspaceDataHolder">
<polygon fill="white" stroke="black" points="603.5,-297 603.5,-327 752.5,-327 752.5,-297 603.5,-297"/>
<text text-anchor="start" x="611.5" y="-315" font-family="Helvetica,sans-Serif" font-size="10.00">gui.mainclasses.workspace.</text>
<text text-anchor="middle" x="678" y="-304" font-family="Helvetica,sans-Serif" font-size="10.00">WorkspaceDataHolder</text>
</a>
</g>
</g>
<!-- Node8&#45;&gt;Node6 -->
<g id="edge9" class="edge"><title>Node8&#45;&gt;Node6</title>
<path fill="none" stroke="#9a32cd" stroke-dasharray="5,2" d="M762.787,-311.735C809.857,-307.57 867.165,-295.326 908,-263 922.652,-251.401 911.786,-237.133 926,-225 930.062,-221.533 934.602,-218.567 939.407,-216.028"/>
<polygon fill="#9a32cd" stroke="#9a32cd" points="762.3,-308.262 752.601,-312.526 762.842,-315.241 762.3,-308.262"/>
<text text-anchor="middle" x="851" y="-310" font-family="Helvetica,sans-Serif" font-size="10.00"> myDataHolder</text>
</g>
<!-- Node9 -->
<g id="node9" class="node"><title>Node9</title>
<polygon fill="white" stroke="#bfbfbf" points="78.5,-394 78.5,-424 397.5,-424 397.5,-394 78.5,-394"/>
<text text-anchor="start" x="86.5" y="-412" font-family="Helvetica,sans-Serif" font-size="10.00">ObservableList&lt; gui.nonbuttonfeatures.tableviews.imageindex.</text>
<text text-anchor="middle" x="238" y="-401" font-family="Helvetica,sans-Serif" font-size="10.00">ImageIndex &gt;</text>
</g>
<!-- Node9&#45;&gt;Node8 -->
<g id="edge10" class="edge"><title>Node9&#45;&gt;Node8</title>
<path fill="none" stroke="#9a32cd" stroke-dasharray="5,2" d="M345.92,-392.386C363.333,-389.624 381.173,-386.759 398,-384 470.969,-372.035 496.784,-390.849 562,-356 572.259,-350.518 569.977,-342.904 580,-337 587.267,-332.719 595.263,-329.163 603.449,-326.211"/>
<polygon fill="#9a32cd" stroke="#9a32cd" points="345.058,-388.979 335.728,-393.999 346.152,-395.893 345.058,-388.979"/>
<text text-anchor="middle" x="489" y="-384" font-family="Helvetica,sans-Serif" font-size="10.00"> myImageIndexList</text>
</g>
<!-- Node10 -->
<g id="node10" class="node"><title>Node10</title>
<polygon fill="white" stroke="#bfbfbf" points="82,-345 82,-375 394,-375 394,-345 82,-345"/>
<text text-anchor="start" x="90" y="-363" font-family="Helvetica,sans-Serif" font-size="10.00">ObservableList&lt; gui.nonbuttonfeatures.tableviews.colorindex.</text>
<text text-anchor="middle" x="238" y="-352" font-family="Helvetica,sans-Serif" font-size="10.00">ColorIndex &gt;</text>
</g>
<!-- Node10&#45;&gt;Node8 -->
<g id="edge11" class="edge"><title>Node10&#45;&gt;Node8</title>
<path fill="none" stroke="#9a32cd" stroke-dasharray="5,2" d="M396.674,-343.921C449.274,-338.419 508.181,-332.108 562,-326 575.39,-324.48 589.648,-322.797 603.402,-321.14"/>
<polygon fill="#9a32cd" stroke="#9a32cd" points="396.168,-340.455 386.585,-344.975 396.895,-347.417 396.168,-340.455"/>
<text text-anchor="middle" x="489" y="-344" font-family="Helvetica,sans-Serif" font-size="10.00"> myColorIndexList</text>
</g>
<!-- Node11 -->
<g id="node11" class="node"><title>Node11</title>
<polygon fill="white" stroke="#bfbfbf" points="150.5,-296 150.5,-326 325.5,-326 325.5,-296 150.5,-296"/>
<text text-anchor="start" x="158.5" y="-314" font-family="Helvetica,sans-Serif" font-size="10.00">ObservableList&lt; gui.variableslist.</text>
<text text-anchor="middle" x="238" y="-303" font-family="Helvetica,sans-Serif" font-size="10.00">WorkspaceVariable &gt;</text>
</g>
<!-- Node11&#45;&gt;Node8 -->
<g id="edge12" class="edge"><title>Node11&#45;&gt;Node8</title>
<path fill="none" stroke="#9a32cd" stroke-dasharray="5,2" d="M335.71,-311.221C416.457,-311.405 529.85,-311.664 603.374,-311.832"/>
<polygon fill="#9a32cd" stroke="#9a32cd" points="335.543,-307.721 325.535,-311.198 335.527,-314.72 335.543,-307.721"/>
<text text-anchor="middle" x="489" y="-314" font-family="Helvetica,sans-Serif" font-size="10.00"> myVariablesList</text>
</g>
<!-- Node12 -->
<g id="node12" class="node"><title>Node12</title>
<polygon fill="white" stroke="#bfbfbf" points="169,-257.5 169,-276.5 307,-276.5 307,-257.5 169,-257.5"/>
<text text-anchor="middle" x="238" y="-264.5" font-family="Helvetica,sans-Serif" font-size="10.00">ObservableList&lt; String &gt;</text>
</g>
<!-- Node12&#45;&gt;Node8 -->
<g id="edge13" class="edge"><title>Node12&#45;&gt;Node8</title>
<path fill="none" stroke="#9a32cd" stroke-dasharray="5,2" d="M317.354,-267.541C383.001,-268.909 479.025,-273.041 562,-285 581.689,-287.838 602.969,-292.401 621.806,-296.976"/>
<polygon fill="#9a32cd" stroke="#9a32cd" points="317.15,-264.037 307.085,-267.345 317.016,-271.036 317.15,-264.037"/>
<text text-anchor="middle" x="489" y="-299" font-family="Helvetica,sans-Serif" font-size="10.00"> myPreviousCommandsList</text>
<text text-anchor="middle" x="489" y="-288" font-family="Helvetica,sans-Serif" font-size="10.00">mySavedCommandsList</text>
</g>
<!-- Node13 -->
<g id="node13" class="node"><title>Node13</title>
<polygon fill="white" stroke="#bfbfbf" points="101.5,-208 101.5,-238 374.5,-238 374.5,-208 101.5,-208"/>
<text text-anchor="start" x="109.5" y="-226" font-family="Helvetica,sans-Serif" font-size="10.00">ObservableList&lt; gui.factories.userdefinedcommands.</text>
<text text-anchor="middle" x="238" y="-215" font-family="Helvetica,sans-Serif" font-size="10.00">DisplayedUserCommand &gt;</text>
</g>
<!-- Node13&#45;&gt;Node8 -->
<g id="edge14" class="edge"><title>Node13&#45;&gt;Node8</title>
<path fill="none" stroke="#9a32cd" stroke-dasharray="5,2" d="M385.019,-211.074C443.993,-212.899 510.202,-223.973 562,-257 575.111,-265.36 567.54,-277.698 580,-287 586.968,-292.202 594.914,-296.326 603.19,-299.594"/>
<polygon fill="#9a32cd" stroke="#9a32cd" points="384.936,-207.571 374.86,-210.848 384.78,-214.57 384.936,-207.571"/>
<text text-anchor="middle" x="489" y="-260" font-family="Helvetica,sans-Serif" font-size="10.00"> myUserDefinedCommandList</text>
</g>
<!-- Node14 -->
<g id="node14" class="node"><title>Node14</title>
<polygon fill="white" stroke="#bfbfbf" points="580.5,-248 580.5,-278 775.5,-278 775.5,-248 580.5,-248"/>
<text text-anchor="start" x="588.5" y="-266" font-family="Helvetica,sans-Serif" font-size="10.00">Map&lt; String, gui.componentdrawers.</text>
<text text-anchor="middle" x="678" y="-255" font-family="Helvetica,sans-Serif" font-size="10.00">ComponentDrawer &gt;</text>
</g>
<!-- Node14&#45;&gt;Node6 -->
<g id="edge15" class="edge"><title>Node14&#45;&gt;Node6</title>
<path fill="none" stroke="#9a32cd" stroke-dasharray="5,2" d="M785.769,-249.214C824.443,-243.555 868.352,-236.355 908,-228 923.925,-224.644 941.087,-220.287 956.623,-216.055"/>
<polygon fill="#9a32cd" stroke="#9a32cd" points="784.929,-245.799 775.533,-250.694 785.931,-252.727 784.929,-245.799"/>
<text text-anchor="middle" x="851" y="-251" font-family="Helvetica,sans-Serif" font-size="10.00"> myComponentDrawers</text>
</g>
<!-- Node15 -->
<g id="node15" class="node"><title>Node15</title>
<g id="a_node15"><a xlink:href="../../d1/d60/classgui_1_1factories_1_1_object_factory.html" target="_top" xlink:title="gui.factories.ObjectFactory">
<polygon fill="white" stroke="black" points="606.5,-209.5 606.5,-228.5 749.5,-228.5 749.5,-209.5 606.5,-209.5"/>
<text text-anchor="middle" x="678" y="-216.5" font-family="Helvetica,sans-Serif" font-size="10.00">gui.factories.ObjectFactory</text>
</a>
</g>
</g>
<!-- Node15&#45;&gt;Node6 -->
<g id="edge17" class="edge"><title>Node15&#45;&gt;Node6</title>
<path fill="none" stroke="#9a32cd" stroke-dasharray="5,2" d="M759.691,-214.585C813.076,-211.665 882.529,-207.865 934.402,-205.027"/>
<polygon fill="#9a32cd" stroke="#9a32cd" points="759.373,-211.097 749.579,-215.139 759.755,-218.087 759.373,-211.097"/>
<text text-anchor="middle" x="851" y="-216" font-family="Helvetica,sans-Serif" font-size="10.00"> myObjectFactories</text>
</g>
<!-- Node16 -->
<g id="node16" class="node"><title>Node16</title>
<g id="a_node16"><a xlink:href="../../da/d55/interface_control_1_1_slogo_graphics.html" target="_top" xlink:title="Control.SlogoGraphics">
<polygon fill="white" stroke="black" points="616.5,-171.5 616.5,-190.5 739.5,-190.5 739.5,-171.5 616.5,-171.5"/>
<text text-anchor="middle" x="678" y="-178.5" font-family="Helvetica,sans-Serif" font-size="10.00">Control.SlogoGraphics</text>
</a>
</g>
</g>
<!-- Node16&#45;&gt;Node6 -->
<g id="edge19" class="edge"><title>Node16&#45;&gt;Node6</title>
<path fill="none" stroke="#9a32cd" stroke-dasharray="5,2" d="M749.801,-183.637C795.072,-185.512 855.025,-188.345 908,-192 916.521,-192.588 925.444,-193.28 934.302,-194.016"/>
<polygon fill="#9a32cd" stroke="#9a32cd" points="749.926,-180.14 739.791,-183.228 749.64,-187.134 749.926,-180.14"/>
<text text-anchor="middle" x="851" y="-195" font-family="Helvetica,sans-Serif" font-size="10.00"> myControl</text>
</g>
<!-- Node17 -->
<g id="node17" class="node"><title>Node17</title>
<polygon fill="white" stroke="#bfbfbf" points="642,-133.5 642,-152.5 714,-152.5 714,-133.5 642,-133.5"/>
<text text-anchor="middle" x="678" y="-140.5" font-family="Helvetica,sans-Serif" font-size="10.00">BorderPane</text>
</g>
<!-- Node17&#45;&gt;Node6 -->
<g id="edge20" class="edge"><title>Node17&#45;&gt;Node6</title>
<path fill="none" stroke="#9a32cd" stroke-dasharray="5,2" d="M724.269,-146.254C770.734,-150.125 844.95,-157.788 908,-171 926.45,-174.866 946.413,-180.542 963.615,-185.92"/>
<polygon fill="#9a32cd" stroke="#9a32cd" points="724.47,-142.759 714.22,-145.44 723.905,-149.736 724.47,-142.759"/>
<text text-anchor="middle" x="851" y="-174" font-family="Helvetica,sans-Serif" font-size="10.00"> myPane</text>
</g>
<!-- Node18 -->
<g id="node18" class="node"><title>Node18</title>
<polygon fill="white" stroke="#bfbfbf" points="926,-235 926,-265 1092,-265 1092,-235 926,-235"/>
<text text-anchor="start" x="934" y="-253" font-family="Helvetica,sans-Serif" font-size="10.00">List&lt; gui.factories.turtlefactory.</text>
<text text-anchor="middle" x="1009" y="-242" font-family="Helvetica,sans-Serif" font-size="10.00">TurtleNode &gt;</text>
</g>
<!-- Node18&#45;&gt;Node5 -->
<g id="edge21" class="edge"><title>Node18&#45;&gt;Node5</title>
<path fill="none" stroke="#9a32cd" stroke-dasharray="5,2" d="M1091.53,-232.875C1121.3,-226.496 1155.21,-219.082 1186,-212 1194.24,-210.105 1202.91,-208.055 1211.44,-206.004"/>
<polygon fill="#9a32cd" stroke="#9a32cd" points="1090.65,-229.483 1081.6,-234.996 1092.11,-236.329 1090.65,-229.483"/>
<text text-anchor="middle" x="1148" y="-232" font-family="Helvetica,sans-Serif" font-size="10.00"> myTurtleNodes</text>
</g>
<!-- Node19 -->
<g id="node19" class="node"><title>Node19</title>
<polygon fill="white" stroke="#bfbfbf" points="217.5,-0.5 217.5,-19.5 258.5,-19.5 258.5,-0.5 217.5,-0.5"/>
<text text-anchor="middle" x="238" y="-7.5" font-family="Helvetica,sans-Serif" font-size="10.00">Color</text>
</g>
<!-- Node19&#45;&gt;Node1 -->
<g id="edge22" class="edge"><title>Node19&#45;&gt;Node1</title>
<path fill="none" stroke="#9a32cd" stroke-dasharray="5,2" d="M268.689,-12.1297C326.009,-16.6612 455.65,-28.9554 562,-54 586.804,-59.8411 613.968,-68.4721 635.664,-75.9291"/>
<polygon fill="#9a32cd" stroke="#9a32cd" points="268.772,-8.62583 258.533,-11.3489 268.235,-15.6052 268.772,-8.62583"/>
<text text-anchor="middle" x="489" y="-57" font-family="Helvetica,sans-Serif" font-size="10.00"> myScreenColor</text>
</g>
</g>
</svg>
