<?xml version="1.0" encoding="UTF-8" standalone="no"?>
<!DOCTYPE svg PUBLIC "-//W3C//DTD SVG 1.1//EN"
 "http://www.w3.org/Graphics/SVG/1.1/DTD/svg11.dtd">
<!-- Generated by graphviz version 2.36.0 (20140111.2315)
 -->
<!-- Title: gui.turtlescreenwrap.TurtleScreenWrap.fragmentPoint2DPair Pages: 1 -->
<!--zoomable 597 -->
<svg id="main" version="1.1" xmlns="http://www.w3.org/2000/svg" xmlns:xlink="http://www.w3.org/1999/xlink" xml:space="preserve" onload="init(evt)">
<style type="text/css"><![CDATA[
.edge:hover path { stroke: red; }
.edge:hover polygon { stroke: red; fill: red; }
]]></style>
<script type="text/javascript"><![CDATA[
var edges = document.getElementsByTagName('g');
if (edges && edges.length) {
  for (var i=0;i<edges.length;i++) {
    if (edges[i].id.substr(0,4)=='edge') {
      edges[i].setAttribute('class','edge');
    }
  }
}
]]></script>
        <defs>
                <circle id="rim" cx="0" cy="0" r="7"/>
                <circle id="rim2" cx="0" cy="0" r="3.5"/>
                <g id="zoomPlus">
                        <use xlink:href="#rim" fill="#404040">
                                <set attributeName="fill" to="#808080" begin="zoomplus.mouseover" end="zoomplus.mouseout"/>
                        </use>
                        <path d="M-4,0h8M0,-4v8" fill="none" stroke="white" stroke-width="1.5" pointer-events="none"/>
                </g>
                <g id="zoomMin">
                        <use xlink:href="#rim" fill="#404040">
                                <set attributeName="fill" to="#808080" begin="zoomminus.mouseover" end="zoomminus.mouseout"/>
                        </use>
                        <path d="M-4,0h8" fill="none" stroke="white" stroke-width="1.5" pointer-events="none"/>
                </g>
                <g id="dirArrow">
                        <path fill="none" stroke="white" stroke-width="1.5" d="M0,-3.0v7 M-2.5,-0.5L0,-3.0L2.5,-0.5"/>
                </g>
               <g id="resetDef">
                       <use xlink:href="#rim2" fill="#404040">
                               <set attributeName="fill" to="#808080" begin="reset.mouseover" end="reset.mouseout"/>
                       </use>
               </g>
        </defs>

<script type="text/javascript">
var viewWidth = 442;
var viewHeight = 597;
var sectionId = 'dynsection-1';
</script>
<script xlink:href="../../svgpan.js"/>
<svg id="graph" class="graph">
<g id="viewport">
<title>gui.turtlescreenwrap.TurtleScreenWrap.fragmentPoint2DPair</title>
<polygon fill="white" stroke="none" points="-4,4 -4,-593 438,-593 438,4 -4,4"/>
<!-- Node1 -->
<g id="node1" class="node"><title>Node1</title>
<polygon fill="#bfbfbf" stroke="black" points="0,-277 0,-307 176,-307 176,-277 0,-277"/>
<text text-anchor="start" x="8" y="-295" font-family="Helvetica,sans-Serif" font-size="10.00">gui.turtlescreenwrap.Turtle</text>
<text text-anchor="middle" x="88" y="-284" font-family="Helvetica,sans-Serif" font-size="10.00">ScreenWrap.fragmentPoint2DPair</text>
</g>
<!-- Node2 -->
<g id="node2" class="node"><title>Node2</title>
<g id="a_node2"><a xlink:href="../../df/d1f/classtests_1_1screen_wrap_tests_1_1_turtle_screen_wrap_tests.html#a7b6f09ead374e3a569d64aaf38a0ee6d" target="_top" xlink:title="tests.screenWrapTests.Turtle\lScreenWrapTests.exitBottomLeftDiagonally">
<polygon fill="white" stroke="black" points="212.5,-559 212.5,-589 433.5,-589 433.5,-559 212.5,-559"/>
<text text-anchor="start" x="220.5" y="-577" font-family="Helvetica,sans-Serif" font-size="10.00">tests.screenWrapTests.Turtle</text>
<text text-anchor="middle" x="323" y="-566" font-family="Helvetica,sans-Serif" font-size="10.00">ScreenWrapTests.exitBottomLeftDiagonally</text>
</a>
</g>
</g>
<!-- Node1&#45;&gt;Node2 -->
<g id="edge1" class="edge"><title>Node1&#45;&gt;Node2</title>
<path fill="none" stroke="midnightblue" d="M93.5332,-317.348C104.221,-369.359 136.044,-488.334 212,-549 216.82,-552.85 222.12,-556.131 227.708,-558.925"/>
<polygon fill="midnightblue" stroke="midnightblue" points="96.924,-316.451 91.5651,-307.312 90.0548,-317.798 96.924,-316.451"/>
</g>
<!-- Node3 -->
<g id="node3" class="node"><title>Node3</title>
<g id="a_node3"><a xlink:href="../../df/d1f/classtests_1_1screen_wrap_tests_1_1_turtle_screen_wrap_tests.html#a00650f413c6293abeecbbc5f162bfefe" target="_top" xlink:title="tests.screenWrapTests.Turtle\lScreenWrapTests.exitBottomRight\lDiagonally">
<polygon fill="white" stroke="black" points="234,-499.5 234,-540.5 412,-540.5 412,-499.5 234,-499.5"/>
<text text-anchor="start" x="242" y="-528.5" font-family="Helvetica,sans-Serif" font-size="10.00">tests.screenWrapTests.Turtle</text>
<text text-anchor="start" x="242" y="-517.5" font-family="Helvetica,sans-Serif" font-size="10.00">ScreenWrapTests.exitBottomRight</text>
<text text-anchor="middle" x="323" y="-506.5" font-family="Helvetica,sans-Serif" font-size="10.00">Diagonally</text>
</a>
</g>
</g>
<!-- Node1&#45;&gt;Node3 -->
<g id="edge2" class="edge"><title>Node1&#45;&gt;Node3</title>
<path fill="none" stroke="midnightblue" d="M97.3985,-316.555C113.076,-358.642 150.854,-444.418 212,-490 218.666,-494.969 226.105,-499.115 233.884,-502.574"/>
<polygon fill="midnightblue" stroke="midnightblue" points="100.665,-315.294 93.9705,-307.082 94.0823,-317.676 100.665,-315.294"/>
</g>
<!-- Node4 -->
<g id="node4" class="node"><title>Node4</title>
<g id="a_node4"><a xlink:href="../../df/d1f/classtests_1_1screen_wrap_tests_1_1_turtle_screen_wrap_tests.html#a567edc540b0561af9828e1b8461f0e21" target="_top" xlink:title="tests.screenWrapTests.Turtle\lScreenWrapTests.exitBottomVertically">
<polygon fill="white" stroke="black" points="224.5,-451 224.5,-481 421.5,-481 421.5,-451 224.5,-451"/>
<text text-anchor="start" x="232.5" y="-469" font-family="Helvetica,sans-Serif" font-size="10.00">tests.screenWrapTests.Turtle</text>
<text text-anchor="middle" x="323" y="-458" font-family="Helvetica,sans-Serif" font-size="10.00">ScreenWrapTests.exitBottomVertically</text>
</a>
</g>
</g>
<!-- Node1&#45;&gt;Node4 -->
<g id="edge3" class="edge"><title>Node1&#45;&gt;Node4</title>
<path fill="none" stroke="midnightblue" d="M102.012,-316.126C121.382,-349.62 161.052,-409.617 212,-441 218.336,-444.903 225.215,-448.198 232.336,-450.98"/>
<polygon fill="midnightblue" stroke="midnightblue" points="104.843,-314.022 96.8778,-307.036 98.7479,-317.464 104.843,-314.022"/>
</g>
<!-- Node5 -->
<g id="node5" class="node"><title>Node5</title>
<g id="a_node5"><a xlink:href="../../df/d1f/classtests_1_1screen_wrap_tests_1_1_turtle_screen_wrap_tests.html#a9bb95a8580f478b494f193f7a076dc26" target="_top" xlink:title="tests.screenWrapTests.Turtle\lScreenWrapTests.exitLeftBottomDiagonally">
<polygon fill="white" stroke="black" points="212.5,-402 212.5,-432 433.5,-432 433.5,-402 212.5,-402"/>
<text text-anchor="start" x="220.5" y="-420" font-family="Helvetica,sans-Serif" font-size="10.00">tests.screenWrapTests.Turtle</text>
<text text-anchor="middle" x="323" y="-409" font-family="Helvetica,sans-Serif" font-size="10.00">ScreenWrapTests.exitLeftBottomDiagonally</text>
</a>
</g>
</g>
<!-- Node1&#45;&gt;Node5 -->
<g id="edge4" class="edge"><title>Node1&#45;&gt;Node5</title>
<path fill="none" stroke="midnightblue" d="M110.097,-314.391C133.012,-337.358 171.761,-372.411 212,-392 220.012,-395.9 228.651,-399.204 237.44,-402"/>
<polygon fill="midnightblue" stroke="midnightblue" points="112.453,-311.796 102.953,-307.106 107.455,-316.697 112.453,-311.796"/>
</g>
<!-- Node6 -->
<g id="node6" class="node"><title>Node6</title>
<g id="a_node6"><a xlink:href="../../df/d1f/classtests_1_1screen_wrap_tests_1_1_turtle_screen_wrap_tests.html#a2d6fdd923f6a332030f21ba77d598288" target="_top" xlink:title="tests.screenWrapTests.Turtle\lScreenWrapTests.exitLeftHorizontally">
<polygon fill="white" stroke="black" points="227,-353 227,-383 419,-383 419,-353 227,-353"/>
<text text-anchor="start" x="235" y="-371" font-family="Helvetica,sans-Serif" font-size="10.00">tests.screenWrapTests.Turtle</text>
<text text-anchor="middle" x="323" y="-360" font-family="Helvetica,sans-Serif" font-size="10.00">ScreenWrapTests.exitLeftHorizontally</text>
</a>
</g>
</g>
<!-- Node1&#45;&gt;Node6 -->
<g id="edge5" class="edge"><title>Node1&#45;&gt;Node6</title>
<path fill="none" stroke="midnightblue" d="M130.401,-311.23C153.956,-321.645 184.218,-334.154 212,-343 223.477,-346.654 235.787,-349.996 247.869,-352.964"/>
<polygon fill="midnightblue" stroke="midnightblue" points="131.628,-307.945 121.071,-307.06 128.772,-314.336 131.628,-307.945"/>
</g>
<!-- Node7 -->
<g id="node7" class="node"><title>Node7</title>
<g id="a_node7"><a xlink:href="../../df/d1f/classtests_1_1screen_wrap_tests_1_1_turtle_screen_wrap_tests.html#a08ce37429aff7988e44b90649df211d6" target="_top" xlink:title="tests.screenWrapTests.Turtle\lScreenWrapTests.exitLeftTopDiagonally">
<polygon fill="white" stroke="black" points="222.5,-304 222.5,-334 423.5,-334 423.5,-304 222.5,-304"/>
<text text-anchor="start" x="230.5" y="-322" font-family="Helvetica,sans-Serif" font-size="10.00">tests.screenWrapTests.Turtle</text>
<text text-anchor="middle" x="323" y="-311" font-family="Helvetica,sans-Serif" font-size="10.00">ScreenWrapTests.exitLeftTopDiagonally</text>
</a>
</g>
</g>
<!-- Node1&#45;&gt;Node7 -->
<g id="edge6" class="edge"><title>Node1&#45;&gt;Node7</title>
<path fill="none" stroke="midnightblue" d="M186.106,-303.253C198.122,-304.645 210.42,-306.07 222.471,-307.467"/>
<polygon fill="midnightblue" stroke="midnightblue" points="186.428,-299.767 176.092,-302.092 185.623,-306.72 186.428,-299.767"/>
</g>
<!-- Node8 -->
<g id="node8" class="node"><title>Node8</title>
<g id="a_node8"><a xlink:href="../../df/d1f/classtests_1_1screen_wrap_tests_1_1_turtle_screen_wrap_tests.html#ac86ad58070045f6e75e619d34b133cbe" target="_top" xlink:title="tests.screenWrapTests.Turtle\lScreenWrapTests.exitRightBOttom\lDiagonally">
<polygon fill="white" stroke="black" points="233.5,-244.5 233.5,-285.5 412.5,-285.5 412.5,-244.5 233.5,-244.5"/>
<text text-anchor="start" x="241.5" y="-273.5" font-family="Helvetica,sans-Serif" font-size="10.00">tests.screenWrapTests.Turtle</text>
<text text-anchor="start" x="241.5" y="-262.5" font-family="Helvetica,sans-Serif" font-size="10.00">ScreenWrapTests.exitRightBOttom</text>
<text text-anchor="middle" x="323" y="-251.5" font-family="Helvetica,sans-Serif" font-size="10.00">Diagonally</text>
</a>
</g>
</g>
<!-- Node1&#45;&gt;Node8 -->
<g id="edge7" class="edge"><title>Node1&#45;&gt;Node8</title>
<path fill="none" stroke="midnightblue" d="M186.288,-280.726C201.927,-278.914 218.041,-277.047 233.46,-275.26"/>
<polygon fill="midnightblue" stroke="midnightblue" points="185.623,-277.28 176.092,-281.908 186.428,-284.233 185.623,-277.28"/>
</g>
<!-- Node9 -->
<g id="node9" class="node"><title>Node9</title>
<g id="a_node9"><a xlink:href="../../df/d1f/classtests_1_1screen_wrap_tests_1_1_turtle_screen_wrap_tests.html#a15854787cfae755b696fae7a5c61feed" target="_top" xlink:title="tests.screenWrapTests.Turtle\lScreenWrapTests.exitRightHorizontally">
<polygon fill="white" stroke="black" points="224,-196 224,-226 422,-226 422,-196 224,-196"/>
<text text-anchor="start" x="232" y="-214" font-family="Helvetica,sans-Serif" font-size="10.00">tests.screenWrapTests.Turtle</text>
<text text-anchor="middle" x="323" y="-203" font-family="Helvetica,sans-Serif" font-size="10.00">ScreenWrapTests.exitRightHorizontally</text>
</a>
</g>
</g>
<!-- Node1&#45;&gt;Node9 -->
<g id="edge8" class="edge"><title>Node1&#45;&gt;Node9</title>
<path fill="none" stroke="midnightblue" d="M126.186,-272.162C150.143,-260.041 182.262,-245 212,-235 221.912,-231.667 232.485,-228.679 243.011,-226.037"/>
<polygon fill="midnightblue" stroke="midnightblue" points="124.406,-269.141 117.102,-276.816 127.598,-275.371 124.406,-269.141"/>
</g>
<!-- Node10 -->
<g id="node10" class="node"><title>Node10</title>
<g id="a_node10"><a xlink:href="../../df/d1f/classtests_1_1screen_wrap_tests_1_1_turtle_screen_wrap_tests.html#a83f756a9cbdd2a8c906c5270c13b6aff" target="_top" xlink:title="tests.screenWrapTests.Turtle\lScreenWrapTests.exitRightTopDiagonally">
<polygon fill="white" stroke="black" points="219.5,-147 219.5,-177 426.5,-177 426.5,-147 219.5,-147"/>
<text text-anchor="start" x="227.5" y="-165" font-family="Helvetica,sans-Serif" font-size="10.00">tests.screenWrapTests.Turtle</text>
<text text-anchor="middle" x="323" y="-154" font-family="Helvetica,sans-Serif" font-size="10.00">ScreenWrapTests.exitRightTopDiagonally</text>
</a>
</g>
</g>
<!-- Node1&#45;&gt;Node10 -->
<g id="edge9" class="edge"><title>Node1&#45;&gt;Node10</title>
<path fill="none" stroke="midnightblue" d="M109.122,-269.248C131.744,-245.123 170.74,-207.702 212,-187 219.702,-183.136 228.006,-179.861 236.477,-177.088"/>
<polygon fill="midnightblue" stroke="midnightblue" points="106.297,-267.149 102.098,-276.876 111.446,-271.89 106.297,-267.149"/>
</g>
<!-- Node11 -->
<g id="node11" class="node"><title>Node11</title>
<g id="a_node11"><a xlink:href="../../df/d1f/classtests_1_1screen_wrap_tests_1_1_turtle_screen_wrap_tests.html#a9b25b860fd3d50aaaf783cc87d8bf644" target="_top" xlink:title="tests.screenWrapTests.Turtle\lScreenWrapTests.exitTopLeftDiagonally">
<polygon fill="white" stroke="black" points="222.5,-98 222.5,-128 423.5,-128 423.5,-98 222.5,-98"/>
<text text-anchor="start" x="230.5" y="-116" font-family="Helvetica,sans-Serif" font-size="10.00">tests.screenWrapTests.Turtle</text>
<text text-anchor="middle" x="323" y="-105" font-family="Helvetica,sans-Serif" font-size="10.00">ScreenWrapTests.exitTopLeftDiagonally</text>
</a>
</g>
</g>
<!-- Node1&#45;&gt;Node11 -->
<g id="edge10" class="edge"><title>Node1&#45;&gt;Node11</title>
<path fill="none" stroke="midnightblue" d="M101.267,-268.033C120.179,-233.615 159.802,-170.738 212,-138 218.222,-134.098 224.981,-130.803 231.987,-128.02"/>
<polygon fill="midnightblue" stroke="midnightblue" points="98.133,-266.472 96.4886,-276.938 104.301,-269.781 98.133,-266.472"/>
</g>
<!-- Node12 -->
<g id="node12" class="node"><title>Node12</title>
<g id="a_node12"><a xlink:href="../../df/d1f/classtests_1_1screen_wrap_tests_1_1_turtle_screen_wrap_tests.html#a84f8307a9e2fa54ba4670a8f8c8f5d63" target="_top" xlink:title="tests.screenWrapTests.Turtle\lScreenWrapTests.exitTopRightDiagonally">
<polygon fill="white" stroke="black" points="219.5,-49 219.5,-79 426.5,-79 426.5,-49 219.5,-49"/>
<text text-anchor="start" x="227.5" y="-67" font-family="Helvetica,sans-Serif" font-size="10.00">tests.screenWrapTests.Turtle</text>
<text text-anchor="middle" x="323" y="-56" font-family="Helvetica,sans-Serif" font-size="10.00">ScreenWrapTests.exitTopRightDiagonally</text>
</a>
</g>
</g>
<!-- Node1&#45;&gt;Node12 -->
<g id="edge11" class="edge"><title>Node1&#45;&gt;Node12</title>
<path fill="none" stroke="midnightblue" d="M96.7929,-267.189C111.741,-223.854 148.701,-134.646 212,-89 217.401,-85.1054 223.307,-81.8042 229.49,-79.0077"/>
<polygon fill="midnightblue" stroke="midnightblue" points="93.3902,-266.329 93.5418,-276.923 100.03,-268.547 93.3902,-266.329"/>
</g>
<!-- Node13 -->
<g id="node13" class="node"><title>Node13</title>
<g id="a_node13"><a xlink:href="../../df/d1f/classtests_1_1screen_wrap_tests_1_1_turtle_screen_wrap_tests.html#aa462570f354601659fc671244c30d715" target="_top" xlink:title="tests.screenWrapTests.Turtle\lScreenWrapTests.exitTopVertically">
<polygon fill="white" stroke="black" points="235,-0 235,-30 411,-30 411,-0 235,-0"/>
<text text-anchor="start" x="243" y="-18" font-family="Helvetica,sans-Serif" font-size="10.00">tests.screenWrapTests.Turtle</text>
<text text-anchor="middle" x="323" y="-7" font-family="Helvetica,sans-Serif" font-size="10.00">ScreenWrapTests.exitTopVertically</text>
</a>
</g>
</g>
<!-- Node1&#45;&gt;Node13 -->
<g id="edge12" class="edge"><title>Node1&#45;&gt;Node13</title>
<path fill="none" stroke="midnightblue" d="M93.6904,-267.134C104.672,-216.115 137.015,-99.419 212,-40 218.83,-34.5875 226.61,-30.3012 234.802,-26.9132"/>
<polygon fill="midnightblue" stroke="midnightblue" points="90.2519,-266.479 91.6637,-276.98 97.1081,-267.891 90.2519,-266.479"/>
</g>
</g>
</svg>
        <g id="navigator" transform="translate(0 0)" fill="#404254">
                <rect fill="#f2f5e9" fill-opacity="0.5" stroke="#606060" stroke-width=".5" x="0" y="0" width="60" height="60"/>
                <use id="zoomplus" xlink:href="#zoomPlus" x="17" y="9" onmousedown="handleZoom(evt,'in')"/>
                <use id="zoomminus" xlink:href="#zoomMin" x="42" y="9" onmousedown="handleZoom(evt,'out')"/>
                <use id="reset" xlink:href="#resetDef" x="30" y="36" onmousedown="handleReset()"/>
                <g id="arrowUp" xlink:href="#dirArrow" transform="translate(30 24)" onmousedown="handlePan(0,-1)">
                  <use xlink:href="#rim" fill="#404040">
                        <set attributeName="fill" to="#808080" begin="arrowUp.mouseover" end="arrowUp.mouseout"/>
                  </use>
                  <path fill="none" stroke="white" stroke-width="1.5" d="M0,-3.0v7 M-2.5,-0.5L0,-3.0L2.5,-0.5"/>
                </g>
                <g id="arrowRight" xlink:href="#dirArrow" transform="rotate(90) translate(36 -43)" onmousedown="handlePan(1,0)">
                  <use xlink:href="#rim" fill="#404040">
                        <set attributeName="fill" to="#808080" begin="arrowRight.mouseover" end="arrowRight.mouseout"/>
                  </use>
                  <path fill="none" stroke="white" stroke-width="1.5" d="M0,-3.0v7 M-2.5,-0.5L0,-3.0L2.5,-0.5"/>
                </g>
                <g id="arrowDown" xlink:href="#dirArrow" transform="rotate(180) translate(-30 -48)" onmousedown="handlePan(0,1)">
                  <use xlink:href="#rim" fill="#404040">
                        <set attributeName="fill" to="#808080" begin="arrowDown.mouseover" end="arrowDown.mouseout"/>
                  </use>
                  <path fill="none" stroke="white" stroke-width="1.5" d="M0,-3.0v7 M-2.5,-0.5L0,-3.0L2.5,-0.5"/>
                </g>
                <g id="arrowLeft" xlink:href="#dirArrow" transform="rotate(270) translate(-36 17)" onmousedown="handlePan(-1,0)">
                  <use xlink:href="#rim" fill="#404040">
                        <set attributeName="fill" to="#808080" begin="arrowLeft.mouseover" end="arrowLeft.mouseout"/>
                  </use>
                  <path fill="none" stroke="white" stroke-width="1.5" d="M0,-3.0v7 M-2.5,-0.5L0,-3.0L2.5,-0.5"/>
                </g>
        </g>
        <svg viewBox="0 0 15 15" width="100%" height="30px" preserveAspectRatio="xMaxYMin meet">
         <g id="arrow_out" transform="scale(0.3 0.3)">
          <a xlink:href="classgui_1_1turtlescreenwrap_1_1_turtle_screen_wrap_a5ef2b5f6381070a4a78575ef1207dc44_icgraph_org.svg" target="_base">
           <rect id="button" ry="5" rx="5" y="6" x="6" height="38" width="38"
                fill="#f2f5e9" fill-opacity="0.5" stroke="#606060" stroke-width="1.0"/>
           <path id="arrow"
             d="M 11.500037,31.436501 C 11.940474,20.09759 22.043105,11.32322 32.158766,21.979434 L 37.068811,17.246167 C 37.068811,17.246167 37.088388,32 37.088388,32 L 22.160133,31.978069 C 22.160133,31.978069 26.997745,27.140456 26.997745,27.140456 C 18.528582,18.264221 13.291696,25.230495 11.500037,31.436501 z"
             style="fill:#404040;"/>
          </a>
         </g>
        </svg>
</svg>
