<?xml version="1.0" encoding="UTF-8" standalone="no"?>
<!DOCTYPE svg PUBLIC "-//W3C//DTD SVG 1.1//EN"
 "http://www.w3.org/Graphics/SVG/1.1/DTD/svg11.dtd">
<!-- Generated by graphviz version 2.36.0 (20140111.2315)
 -->
<!-- Title: gui.turtlescreenwrap.TurtleScreenWrap.fragmentPoint2DPair Pages: 1 -->
<!--zoomable 496 -->
<svg id="main" version="1.1" xmlns="http://www.w3.org/2000/svg" xmlns:xlink="http://www.w3.org/1999/xlink" xml:space="preserve" onload="init(evt)">
<style type="text/css"><![CDATA[
.edge:hover path { stroke: red; }
.edge:hover polygon { stroke: red; fill: red; }
]]></style>
<script type="text/javascript"><![CDATA[
var edges = document.getElementsByTagName('g');
if (edges && edges.length) {
  for (var i=0;i<edges.length;i++) {
    if (edges[i].id.substr(0,4)=='edge') {
      edges[i].setAttribute('class','edge');
    }
  }
}
]]></script>
        <defs>
                <circle id="rim" cx="0" cy="0" r="7"/>
                <circle id="rim2" cx="0" cy="0" r="3.5"/>
                <g id="zoomPlus">
                        <use xlink:href="#rim" fill="#404040">
                                <set attributeName="fill" to="#808080" begin="zoomplus.mouseover" end="zoomplus.mouseout"/>
                        </use>
                        <path d="M-4,0h8M0,-4v8" fill="none" stroke="white" stroke-width="1.5" pointer-events="none"/>
                </g>
                <g id="zoomMin">
                        <use xlink:href="#rim" fill="#404040">
                                <set attributeName="fill" to="#808080" begin="zoomminus.mouseover" end="zoomminus.mouseout"/>
                        </use>
                        <path d="M-4,0h8" fill="none" stroke="white" stroke-width="1.5" pointer-events="none"/>
                </g>
                <g id="dirArrow">
                        <path fill="none" stroke="white" stroke-width="1.5" d="M0,-3.0v7 M-2.5,-0.5L0,-3.0L2.5,-0.5"/>
                </g>
               <g id="resetDef">
                       <use xlink:href="#rim2" fill="#404040">
                               <set attributeName="fill" to="#808080" begin="reset.mouseover" end="reset.mouseout"/>
                       </use>
               </g>
        </defs>

<script type="text/javascript">
var viewWidth = 628;
var viewHeight = 496;
var sectionId = 'dynsection-0';
</script>
<script xlink:href="../../svgpan.js"/>
<svg id="graph" class="graph">
<g id="viewport">
<title>gui.turtlescreenwrap.TurtleScreenWrap.fragmentPoint2DPair</title>
<polygon fill="white" stroke="none" points="-4,4 -4,-491.849 624,-491.849 624,4 -4,4"/>
<!-- Node1 -->
<g id="node1" class="node"><title>Node1</title>
<polygon fill="#bfbfbf" stroke="black" points="0,-227.849 0,-257.849 176,-257.849 176,-227.849 0,-227.849"/>
<text text-anchor="start" x="8" y="-245.849" font-family="Helvetica,sans-Serif" font-size="10.00">gui.turtlescreenwrap.Turtle</text>
<text text-anchor="middle" x="88" y="-234.849" font-family="Helvetica,sans-Serif" font-size="10.00">ScreenWrap.fragmentPoint2DPair</text>
</g>
<!-- Node2 -->
<g id="node2" class="node"><title>Node2</title>
<g id="a_node2"><a xlink:href="../../d2/d8c/classgui_1_1turtlescreenwrap_1_1_tesselation_mapper.html#aabbaac2b93b3b79c2f4d88ac0849ab6f" target="_top" xlink:title="gui.turtlescreenwrap.Tesselation\lMapper.checkOffScreen">
<polygon fill="white" stroke="black" points="450,-364.849 450,-394.849 620,-394.849 620,-364.849 450,-364.849"/>
<text text-anchor="start" x="458" y="-382.849" font-family="Helvetica,sans-Serif" font-size="10.00">gui.turtlescreenwrap.Tesselation</text>
<text text-anchor="middle" x="535" y="-371.849" font-family="Helvetica,sans-Serif" font-size="10.00">Mapper.checkOffScreen</text>
</a>
</g>
</g>
<!-- Node1&#45;&gt;Node2 -->
<g id="edge1" class="edge"><title>Node1&#45;&gt;Node2</title>
<path fill="none" stroke="midnightblue" d="M99.3733,-258.122C118.232,-284.423 160.942,-337.584 212,-359.849 283.908,-391.207 373.517,-394.239 439.934,-390.554"/>
<polygon fill="midnightblue" stroke="midnightblue" points="440.207,-394.044 449.974,-389.936 439.777,-387.057 440.207,-394.044"/>
</g>
<!-- Node3 -->
<g id="node3" class="node"><title>Node3</title>
<g id="a_node3"><a xlink:href="../../d2/d04/classgui_1_1turtlescreenwrap_1_1_vertical_turtle_screen_wrap.html#a09a534d1bb5b5dd4b71354711ec0a7ac" target="_top" xlink:title="gui.turtlescreenwrap.Vertical\lTurtleScreenWrap.fragmentPoint2DPair">
<polygon fill="white" stroke="black" points="212.5,-320.849 212.5,-350.849 413.5,-350.849 413.5,-320.849 212.5,-320.849"/>
<text text-anchor="start" x="220.5" y="-338.849" font-family="Helvetica,sans-Serif" font-size="10.00">gui.turtlescreenwrap.Vertical</text>
<text text-anchor="middle" x="313" y="-327.849" font-family="Helvetica,sans-Serif" font-size="10.00">TurtleScreenWrap.fragmentPoint2DPair</text>
</a>
</g>
</g>
<!-- Node1&#45;&gt;Node3 -->
<g id="edge2" class="edge"><title>Node1&#45;&gt;Node3</title>
<path fill="none" stroke="midnightblue" d="M112.142,-258.048C136.22,-273.275 175.446,-296.461 212,-310.849 218.377,-313.36 225.084,-315.678 231.88,-317.807"/>
<polygon fill="midnightblue" stroke="midnightblue" points="231.288,-321.282 241.871,-320.789 233.29,-314.575 231.288,-321.282"/>
</g>
<!-- Node4 -->
<g id="node4" class="node"><title>Node4</title>
<g id="a_node4"><a xlink:href="../../d8/dec/classgui_1_1turtlescreenwrap_1_1_turtle_screen_wrap.html#adf59640dc25449e1fcd5d31f54dd1251" target="_top" xlink:title="gui.turtlescreenwrap.Turtle\lScreenWrap.getYmovement">
<polygon fill="white" stroke="black" points="460,-271.849 460,-301.849 610,-301.849 610,-271.849 460,-271.849"/>
<text text-anchor="start" x="468" y="-289.849" font-family="Helvetica,sans-Serif" font-size="10.00">gui.turtlescreenwrap.Turtle</text>
<text text-anchor="middle" x="535" y="-278.849" font-family="Helvetica,sans-Serif" font-size="10.00">ScreenWrap.getYmovement</text>
</a>
</g>
</g>
<!-- Node1&#45;&gt;Node4 -->
<g id="edge15" class="edge"><title>Node1&#45;&gt;Node4</title>
<path fill="none" stroke="midnightblue" d="M176.234,-244.474C241.859,-246.537 333.878,-251.22 414,-261.849 429.142,-263.858 445.227,-266.706 460.535,-269.764"/>
<polygon fill="midnightblue" stroke="midnightblue" points="459.966,-273.22 470.465,-271.798 461.37,-266.363 459.966,-273.22"/>
</g>
<!-- Node5 -->
<g id="node5" class="node"><title>Node5</title>
<g id="a_node5"><a xlink:href="../../d7/d9f/classgui_1_1turtlescreenwrap_1_1_horizontal_turtle_screen_wrap.html#a40b4c312a593132d0f3c1ab3f312ae6d" target="_top" xlink:title="gui.turtlescreenwrap.Horizontal\lTurtleScreenWrap.fragmentPoint2DPair">
<polygon fill="white" stroke="black" points="212.5,-271.849 212.5,-301.849 413.5,-301.849 413.5,-271.849 212.5,-271.849"/>
<text text-anchor="start" x="220.5" y="-289.849" font-family="Helvetica,sans-Serif" font-size="10.00">gui.turtlescreenwrap.Horizontal</text>
<text text-anchor="middle" x="313" y="-278.849" font-family="Helvetica,sans-Serif" font-size="10.00">TurtleScreenWrap.fragmentPoint2DPair</text>
</a>
</g>
</g>
<!-- Node1&#45;&gt;Node5 -->
<g id="edge5" class="edge"><title>Node1&#45;&gt;Node5</title>
<path fill="none" stroke="midnightblue" d="M165.12,-257.869C184.657,-261.723 205.811,-265.897 225.816,-269.845"/>
<polygon fill="midnightblue" stroke="midnightblue" points="225.356,-273.321 235.844,-271.823 226.711,-266.454 225.356,-273.321"/>
</g>
<!-- Node6 -->
<g id="node6" class="node"><title>Node6</title>
<g id="a_node6"><a xlink:href="../../d8/dec/classgui_1_1turtlescreenwrap_1_1_turtle_screen_wrap.html#a85b8832f97733eb375a95c304c180df1" target="_top" xlink:title="gui.turtlescreenwrap.Turtle\lScreenWrap.getXmovement">
<polygon fill="white" stroke="black" points="459.5,-85.8494 459.5,-115.849 610.5,-115.849 610.5,-85.8494 459.5,-85.8494"/>
<text text-anchor="start" x="467.5" y="-103.849" font-family="Helvetica,sans-Serif" font-size="10.00">gui.turtlescreenwrap.Turtle</text>
<text text-anchor="middle" x="535" y="-92.8494" font-family="Helvetica,sans-Serif" font-size="10.00">ScreenWrap.getXmovement</text>
</a>
</g>
</g>
<!-- Node1&#45;&gt;Node6 -->
<g id="edge14" class="edge"><title>Node1&#45;&gt;Node6</title>
<path fill="none" stroke="midnightblue" d="M92.1666,-227.674C101.701,-186.36 134.399,-71.9604 212,-26.8494 289.616,18.2705 327.627,-2.35893 414,-26.8494 449.863,-37.0181 485.525,-61.2778 508.533,-79.2638"/>
<polygon fill="midnightblue" stroke="midnightblue" points="506.419,-82.0548 516.415,-85.5687 510.792,-76.5887 506.419,-82.0548"/>
</g>
<!-- Node7 -->
<g id="node7" class="node"><title>Node7</title>
<g id="a_node7"><a xlink:href="../../d8/dec/classgui_1_1turtlescreenwrap_1_1_turtle_screen_wrap.html#a12eea89f671040d3f523c73077a66735" target="_top" xlink:title="gui.turtlescreenwrap.Turtle\lScreenWrap.getExitEdge">
<polygon fill="white" stroke="black" points="241.5,-408.849 241.5,-438.849 384.5,-438.849 384.5,-408.849 241.5,-408.849"/>
<text text-anchor="start" x="249.5" y="-426.849" font-family="Helvetica,sans-Serif" font-size="10.00">gui.turtlescreenwrap.Turtle</text>
<text text-anchor="middle" x="313" y="-415.849" font-family="Helvetica,sans-Serif" font-size="10.00">ScreenWrap.getExitEdge</text>
</a>
</g>
</g>
<!-- Node1&#45;&gt;Node7 -->
<g id="edge8" class="edge"><title>Node1&#45;&gt;Node7</title>
<path fill="none" stroke="midnightblue" d="M97.2868,-258.242C114.513,-288.772 157.19,-357.203 212,-393.849 218.463,-398.17 225.567,-401.886 232.916,-405.077"/>
<polygon fill="midnightblue" stroke="midnightblue" points="231.742,-408.377 242.327,-408.845 234.344,-401.878 231.742,-408.377"/>
</g>
<!-- Node8 -->
<g id="node8" class="node"><title>Node8</title>
<g id="a_node8"><a xlink:href="../../d8/dec/classgui_1_1turtlescreenwrap_1_1_turtle_screen_wrap.html#a8df7da044e7ee53086d715d9f2f6930a" target="_top" xlink:title="gui.turtlescreenwrap.Turtle\lScreenWrap.getFragments">
<polygon fill="white" stroke="black" points="241.5,-183.849 241.5,-213.849 384.5,-213.849 384.5,-183.849 241.5,-183.849"/>
<text text-anchor="start" x="249.5" y="-201.849" font-family="Helvetica,sans-Serif" font-size="10.00">gui.turtlescreenwrap.Turtle</text>
<text text-anchor="middle" x="313" y="-190.849" font-family="Helvetica,sans-Serif" font-size="10.00">ScreenWrap.getFragments</text>
</a>
</g>
</g>
<!-- Node1&#45;&gt;Node8 -->
<g id="edge10" class="edge"><title>Node1&#45;&gt;Node8</title>
<path fill="none" stroke="midnightblue" d="M165.12,-227.83C186.566,-223.599 209.96,-218.983 231.645,-214.704"/>
<polygon fill="midnightblue" stroke="midnightblue" points="232.342,-218.134 241.475,-212.765 230.986,-211.267 232.342,-218.134"/>
</g>
<!-- Node9 -->
<g id="node9" class="node"><title>Node9</title>
<g id="a_node9"><a xlink:href="../../d8/dec/classgui_1_1turtlescreenwrap_1_1_turtle_screen_wrap.html#aa5cdc7a7d7f4b175342a3e7310fe308d" target="_top" xlink:title="gui.turtlescreenwrap.Turtle\lScreenWrap.getGradient">
<polygon fill="white" stroke="black" points="241.5,-134.849 241.5,-164.849 384.5,-164.849 384.5,-134.849 241.5,-134.849"/>
<text text-anchor="start" x="249.5" y="-152.849" font-family="Helvetica,sans-Serif" font-size="10.00">gui.turtlescreenwrap.Turtle</text>
<text text-anchor="middle" x="313" y="-141.849" font-family="Helvetica,sans-Serif" font-size="10.00">ScreenWrap.getGradient</text>
</a>
</g>
</g>
<!-- Node1&#45;&gt;Node9 -->
<g id="edge11" class="edge"><title>Node1&#45;&gt;Node9</title>
<path fill="none" stroke="midnightblue" d="M111.634,-227.625C135.622,-212.106 175.068,-188.318 212,-173.849 218.255,-171.399 224.831,-169.151 231.499,-167.097"/>
<polygon fill="midnightblue" stroke="midnightblue" points="232.693,-170.395 241.308,-164.229 230.728,-163.677 232.693,-170.395"/>
</g>
<!-- Node10 -->
<g id="node10" class="node"><title>Node10</title>
<g id="a_node10"><a xlink:href="../../d8/dec/classgui_1_1turtlescreenwrap_1_1_turtle_screen_wrap.html#af28dfff16733c959378cb58e2fb85e0e" target="_top" xlink:title="gui.turtlescreenwrap.Turtle\lScreenWrap.getMaxDeltaX">
<polygon fill="white" stroke="black" points="241.5,-85.8494 241.5,-115.849 384.5,-115.849 384.5,-85.8494 241.5,-85.8494"/>
<text text-anchor="start" x="249.5" y="-103.849" font-family="Helvetica,sans-Serif" font-size="10.00">gui.turtlescreenwrap.Turtle</text>
<text text-anchor="middle" x="313" y="-92.8494" font-family="Helvetica,sans-Serif" font-size="10.00">ScreenWrap.getMaxDeltaX</text>
</a>
</g>
</g>
<!-- Node1&#45;&gt;Node10 -->
<g id="edge12" class="edge"><title>Node1&#45;&gt;Node10</title>
<path fill="none" stroke="midnightblue" d="M100.407,-227.536C120.192,-202.116 163.44,-151.384 212,-124.849 218.247,-121.436 224.975,-118.503 231.881,-115.985"/>
<polygon fill="midnightblue" stroke="midnightblue" points="233.012,-119.297 241.381,-112.801 230.787,-112.66 233.012,-119.297"/>
</g>
<!-- Node11 -->
<g id="node11" class="node"><title>Node11</title>
<g id="a_node11"><a xlink:href="../../d8/dec/classgui_1_1turtlescreenwrap_1_1_turtle_screen_wrap.html#a7cdce0005c619685b6a9f02ea3ae4859" target="_top" xlink:title="gui.turtlescreenwrap.Turtle\lScreenWrap.getMaxDeltaY">
<polygon fill="white" stroke="black" points="241.5,-36.8494 241.5,-66.8494 384.5,-66.8494 384.5,-36.8494 241.5,-36.8494"/>
<text text-anchor="start" x="249.5" y="-54.8494" font-family="Helvetica,sans-Serif" font-size="10.00">gui.turtlescreenwrap.Turtle</text>
<text text-anchor="middle" x="313" y="-43.8494" font-family="Helvetica,sans-Serif" font-size="10.00">ScreenWrap.getMaxDeltaY</text>
</a>
</g>
</g>
<!-- Node1&#45;&gt;Node11 -->
<g id="edge13" class="edge"><title>Node1&#45;&gt;Node11</title>
<path fill="none" stroke="midnightblue" d="M95.5819,-227.84C110.879,-194.799 152.139,-115.563 212,-75.8494 218.086,-71.8119 224.78,-68.4518 231.733,-65.6559"/>
<polygon fill="midnightblue" stroke="midnightblue" points="233.127,-68.8737 241.341,-62.1822 230.747,-62.2906 233.127,-68.8737"/>
</g>
<!-- Node12 -->
<g id="node12" class="node"><title>Node12</title>
<g id="a_node12"><a xlink:href="../../d2/d8c/classgui_1_1turtlescreenwrap_1_1_tesselation_mapper.html#accb8e9b832acd2b297b33650dbef962d" target="_top" xlink:title="gui.turtlescreenwrap.Tesselation\lMapper.map">
<polygon fill="white" stroke="black" points="228,-457.849 228,-487.849 398,-487.849 398,-457.849 228,-457.849"/>
<text text-anchor="start" x="236" y="-475.849" font-family="Helvetica,sans-Serif" font-size="10.00">gui.turtlescreenwrap.Tesselation</text>
<text text-anchor="middle" x="313" y="-464.849" font-family="Helvetica,sans-Serif" font-size="10.00">Mapper.map</text>
</a>
</g>
</g>
<!-- Node1&#45;&gt;Node12 -->
<g id="edge16" class="edge"><title>Node1&#45;&gt;Node12</title>
<path fill="none" stroke="midnightblue" d="M93.5601,-257.985C105.887,-296.211 143.636,-397.195 212,-447.849 214.507,-449.707 217.137,-451.428 219.861,-453.021"/>
<polygon fill="midnightblue" stroke="midnightblue" points="218.358,-456.185 228.845,-457.691 221.586,-449.974 218.358,-456.185"/>
</g>
<!-- Node3&#45;&gt;Node2 -->
<g id="edge3" class="edge"><title>Node3&#45;&gt;Node2</title>
<path fill="none" stroke="midnightblue" d="M389.096,-350.869C408.37,-354.723 429.239,-358.897 448.976,-362.845"/>
<polygon fill="midnightblue" stroke="midnightblue" points="448.377,-366.294 458.869,-364.823 449.75,-359.43 448.377,-366.294"/>
</g>
<!-- Node3&#45;&gt;Node4 -->
<g id="edge4" class="edge"><title>Node3&#45;&gt;Node4</title>
<path fill="none" stroke="midnightblue" d="M381.502,-320.815C405.259,-315.524 432.141,-309.536 456.646,-304.078"/>
<polygon fill="midnightblue" stroke="midnightblue" points="457.625,-307.446 466.625,-301.856 456.104,-300.613 457.625,-307.446"/>
</g>
<!-- Node5&#45;&gt;Node2 -->
<g id="edge6" class="edge"><title>Node5&#45;&gt;Node2</title>
<path fill="none" stroke="midnightblue" d="M387.399,-301.895C396.481,-304.505 405.54,-307.483 414,-310.849 446.075,-323.612 479.938,-343.777 503.482,-359.019"/>
<polygon fill="midnightblue" stroke="midnightblue" points="501.695,-362.033 511.975,-364.594 505.536,-356.181 501.695,-362.033"/>
</g>
<!-- Node5&#45;&gt;Node6 -->
<g id="edge7" class="edge"><title>Node5&#45;&gt;Node6</title>
<path fill="none" stroke="midnightblue" d="M341.006,-271.806C361.789,-259.709 390.788,-241.677 414,-222.849 452.309,-191.776 491.402,-149.692 514.148,-123.949"/>
<polygon fill="midnightblue" stroke="midnightblue" points="516.98,-126.028 520.938,-116.2 511.715,-121.416 516.98,-126.028"/>
</g>
<!-- Node7&#45;&gt;Node2 -->
<g id="edge9" class="edge"><title>Node7&#45;&gt;Node2</title>
<path fill="none" stroke="midnightblue" d="M384.517,-409.746C405.023,-405.645 427.64,-401.121 448.94,-396.861"/>
<polygon fill="midnightblue" stroke="midnightblue" points="449.828,-400.253 458.948,-394.86 448.455,-393.389 449.828,-400.253"/>
</g>
<!-- Node12&#45;&gt;Node2 -->
<g id="edge17" class="edge"><title>Node12&#45;&gt;Node2</title>
<path fill="none" stroke="midnightblue" d="M384.432,-457.802C394.496,-454.916 404.611,-451.602 414,-447.849 445.743,-435.161 479.401,-415.477 502.966,-400.546"/>
<polygon fill="midnightblue" stroke="midnightblue" points="504.955,-403.429 511.479,-395.081 501.173,-397.538 504.955,-403.429"/>
</g>
<!-- Node13 -->
<g id="node13" class="node"><title>Node13</title>
<g id="a_node13"><a xlink:href="../../d2/d8c/classgui_1_1turtlescreenwrap_1_1_tesselation_mapper.html#aa9ff2f06fa612f2250c8a94a084f9c99" target="_top" xlink:title="gui.turtlescreenwrap.Tesselation\lMapper.getDummyOrigin">
<polygon fill="white" stroke="black" points="450,-457.849 450,-487.849 620,-487.849 620,-457.849 450,-457.849"/>
<text text-anchor="start" x="458" y="-475.849" font-family="Helvetica,sans-Serif" font-size="10.00">gui.turtlescreenwrap.Tesselation</text>
<text text-anchor="middle" x="535" y="-464.849" font-family="Helvetica,sans-Serif" font-size="10.00">Mapper.getDummyOrigin</text>
</a>
</g>
</g>
<!-- Node12&#45;&gt;Node13 -->
<g id="edge18" class="edge"><title>Node12&#45;&gt;Node13</title>
<path fill="none" stroke="midnightblue" d="M398.114,-472.849C411.78,-472.849 426.01,-472.849 439.896,-472.849"/>
<polygon fill="midnightblue" stroke="midnightblue" points="439.932,-476.35 449.932,-472.849 439.932,-469.35 439.932,-476.35"/>
</g>
</g>
</svg>
        <g id="navigator" transform="translate(0 0)" fill="#404254">
                <rect fill="#f2f5e9" fill-opacity="0.5" stroke="#606060" stroke-width=".5" x="0" y="0" width="60" height="60"/>
                <use id="zoomplus" xlink:href="#zoomPlus" x="17" y="9" onmousedown="handleZoom(evt,'in')"/>
                <use id="zoomminus" xlink:href="#zoomMin" x="42" y="9" onmousedown="handleZoom(evt,'out')"/>
                <use id="reset" xlink:href="#resetDef" x="30" y="36" onmousedown="handleReset()"/>
                <g id="arrowUp" xlink:href="#dirArrow" transform="translate(30 24)" onmousedown="handlePan(0,-1)">
                  <use xlink:href="#rim" fill="#404040">
                        <set attributeName="fill" to="#808080" begin="arrowUp.mouseover" end="arrowUp.mouseout"/>
                  </use>
                  <path fill="none" stroke="white" stroke-width="1.5" d="M0,-3.0v7 M-2.5,-0.5L0,-3.0L2.5,-0.5"/>
                </g>
                <g id="arrowRight" xlink:href="#dirArrow" transform="rotate(90) translate(36 -43)" onmousedown="handlePan(1,0)">
                  <use xlink:href="#rim" fill="#404040">
                        <set attributeName="fill" to="#808080" begin="arrowRight.mouseover" end="arrowRight.mouseout"/>
                  </use>
                  <path fill="none" stroke="white" stroke-width="1.5" d="M0,-3.0v7 M-2.5,-0.5L0,-3.0L2.5,-0.5"/>
                </g>
                <g id="arrowDown" xlink:href="#dirArrow" transform="rotate(180) translate(-30 -48)" onmousedown="handlePan(0,1)">
                  <use xlink:href="#rim" fill="#404040">
                        <set attributeName="fill" to="#808080" begin="arrowDown.mouseover" end="arrowDown.mouseout"/>
                  </use>
                  <path fill="none" stroke="white" stroke-width="1.5" d="M0,-3.0v7 M-2.5,-0.5L0,-3.0L2.5,-0.5"/>
                </g>
                <g id="arrowLeft" xlink:href="#dirArrow" transform="rotate(270) translate(-36 17)" onmousedown="handlePan(-1,0)">
                  <use xlink:href="#rim" fill="#404040">
                        <set attributeName="fill" to="#808080" begin="arrowLeft.mouseover" end="arrowLeft.mouseout"/>
                  </use>
                  <path fill="none" stroke="white" stroke-width="1.5" d="M0,-3.0v7 M-2.5,-0.5L0,-3.0L2.5,-0.5"/>
                </g>
        </g>
        <svg viewBox="0 0 15 15" width="100%" height="30px" preserveAspectRatio="xMaxYMin meet">
         <g id="arrow_out" transform="scale(0.3 0.3)">
          <a xlink:href="classgui_1_1turtlescreenwrap_1_1_turtle_screen_wrap_a5ef2b5f6381070a4a78575ef1207dc44_cgraph_org.svg" target="_base">
           <rect id="button" ry="5" rx="5" y="6" x="6" height="38" width="38"
                fill="#f2f5e9" fill-opacity="0.5" stroke="#606060" stroke-width="1.0"/>
           <path id="arrow"
             d="M 11.500037,31.436501 C 11.940474,20.09759 22.043105,11.32322 32.158766,21.979434 L 37.068811,17.246167 C 37.068811,17.246167 37.088388,32 37.088388,32 L 22.160133,31.978069 C 22.160133,31.978069 26.997745,27.140456 26.997745,27.140456 C 18.528582,18.264221 13.291696,25.230495 11.500037,31.436501 z"
             style="fill:#404040;"/>
          </a>
         </g>
        </svg>
</svg>
