<?xml version="1.0" encoding="UTF-8" standalone="no"?>
<!DOCTYPE svg PUBLIC "-//W3C//DTD SVG 1.1//EN"
 "http://www.w3.org/Graphics/SVG/1.1/DTD/svg11.dtd">
<!-- Generated by graphviz version 2.36.0 (20140111.2315)
 -->
<!-- Title: gui.turtlescreenwrap.TurtleScreenWrap.getXmovement Pages: 1 -->
<!--zoomable 597 -->
<svg id="main" version="1.1" xmlns="http://www.w3.org/2000/svg" xmlns:xlink="http://www.w3.org/1999/xlink" xml:space="preserve" onload="init(evt)">
<style type="text/css"><![CDATA[
.edge:hover path { stroke: red; }
.edge:hover polygon { stroke: red; fill: red; }
]]></style>
<script type="text/javascript"><![CDATA[
var edges = document.getElementsByTagName('g');
if (edges && edges.length) {
  for (var i=0;i<edges.length;i++) {
    if (edges[i].id.substr(0,4)=='edge') {
      edges[i].setAttribute('class','edge');
    }
  }
}
]]></script>
        <defs>
                <circle id="rim" cx="0" cy="0" r="7"/>
                <circle id="rim2" cx="0" cy="0" r="3.5"/>
                <g id="zoomPlus">
                        <use xlink:href="#rim" fill="#404040">
                                <set attributeName="fill" to="#808080" begin="zoomplus.mouseover" end="zoomplus.mouseout"/>
                        </use>
                        <path d="M-4,0h8M0,-4v8" fill="none" stroke="white" stroke-width="1.5" pointer-events="none"/>
                </g>
                <g id="zoomMin">
                        <use xlink:href="#rim" fill="#404040">
                                <set attributeName="fill" to="#808080" begin="zoomminus.mouseover" end="zoomminus.mouseout"/>
                        </use>
                        <path d="M-4,0h8" fill="none" stroke="white" stroke-width="1.5" pointer-events="none"/>
                </g>
                <g id="dirArrow">
                        <path fill="none" stroke="white" stroke-width="1.5" d="M0,-3.0v7 M-2.5,-0.5L0,-3.0L2.5,-0.5"/>
                </g>
               <g id="resetDef">
                       <use xlink:href="#rim2" fill="#404040">
                               <set attributeName="fill" to="#808080" begin="reset.mouseover" end="reset.mouseout"/>
                       </use>
               </g>
        </defs>

<script type="text/javascript">
var viewWidth = 868;
var viewHeight = 597;
var sectionId = 'dynsection-8';
</script>
<script xlink:href="../../svgpan.js"/>
<svg id="graph" class="graph">
<g id="viewport">
<title>gui.turtlescreenwrap.TurtleScreenWrap.getXmovement</title>
<polygon fill="white" stroke="none" points="-4,4 -4,-593 864,-593 864,4 -4,4"/>
<!-- Node1 -->
<g id="node1" class="node"><title>Node1</title>
<polygon fill="#bfbfbf" stroke="black" points="0.5,-277 0.5,-307 151.5,-307 151.5,-277 0.5,-277"/>
<text text-anchor="start" x="8.5" y="-295" font-family="Helvetica,sans-Serif" font-size="10.00">gui.turtlescreenwrap.Turtle</text>
<text text-anchor="middle" x="76" y="-284" font-family="Helvetica,sans-Serif" font-size="10.00">ScreenWrap.getXmovement</text>
</g>
<!-- Node2 -->
<g id="node2" class="node"><title>Node2</title>
<g id="a_node2"><a xlink:href="../../d7/d9f/classgui_1_1turtlescreenwrap_1_1_horizontal_turtle_screen_wrap.html#a40b4c312a593132d0f3c1ab3f312ae6d" target="_top" xlink:title="gui.turtlescreenwrap.Horizontal\lTurtleScreenWrap.fragmentPoint2DPair">
<polygon fill="white" stroke="black" points="188.5,-299 188.5,-329 389.5,-329 389.5,-299 188.5,-299"/>
<text text-anchor="start" x="196.5" y="-317" font-family="Helvetica,sans-Serif" font-size="10.00">gui.turtlescreenwrap.Horizontal</text>
<text text-anchor="middle" x="289" y="-306" font-family="Helvetica,sans-Serif" font-size="10.00">TurtleScreenWrap.fragmentPoint2DPair</text>
</a>
</g>
</g>
<!-- Node1&#45;&gt;Node2 -->
<g id="edge1" class="edge"><title>Node1&#45;&gt;Node2</title>
<path fill="none" stroke="midnightblue" d="M161.81,-300.843C170.523,-301.751 179.431,-302.68 188.285,-303.603"/>
<polygon fill="midnightblue" stroke="midnightblue" points="161.997,-297.343 151.688,-299.787 161.271,-304.306 161.997,-297.343"/>
</g>
<!-- Node3 -->
<g id="node3" class="node"><title>Node3</title>
<g id="a_node3"><a xlink:href="../../d8/dec/classgui_1_1turtlescreenwrap_1_1_turtle_screen_wrap.html#a5ef2b5f6381070a4a78575ef1207dc44" target="_top" xlink:title="gui.turtlescreenwrap.Turtle\lScreenWrap.fragmentPoint2DPair">
<polygon fill="white" stroke="black" points="426,-277 426,-307 602,-307 602,-277 426,-277"/>
<text text-anchor="start" x="434" y="-295" font-family="Helvetica,sans-Serif" font-size="10.00">gui.turtlescreenwrap.Turtle</text>
<text text-anchor="middle" x="514" y="-284" font-family="Helvetica,sans-Serif" font-size="10.00">ScreenWrap.fragmentPoint2DPair</text>
</a>
</g>
</g>
<!-- Node1&#45;&gt;Node3 -->
<g id="edge15" class="edge"><title>Node1&#45;&gt;Node3</title>
<path fill="none" stroke="midnightblue" d="M161.65,-290.317C170.547,-290.187 179.458,-290.077 188,-290 277.774,-289.191 300.225,-289.27 390,-290 401.639,-290.095 413.897,-290.24 425.983,-290.409"/>
<polygon fill="midnightblue" stroke="midnightblue" points="161.577,-286.818 151.632,-290.471 161.685,-293.817 161.577,-286.818"/>
</g>
<!-- Node2&#45;&gt;Node3 -->
<g id="edge2" class="edge"><title>Node2&#45;&gt;Node3</title>
<path fill="none" stroke="midnightblue" d="M399.967,-303.151C408.678,-302.292 417.401,-301.431 425.924,-300.59"/>
<polygon fill="midnightblue" stroke="midnightblue" points="399.368,-299.693 389.76,-304.158 400.055,-306.659 399.368,-299.693"/>
</g>
<!-- Node4 -->
<g id="node4" class="node"><title>Node4</title>
<g id="a_node4"><a xlink:href="../../df/d1f/classtests_1_1screen_wrap_tests_1_1_turtle_screen_wrap_tests.html#a7b6f09ead374e3a569d64aaf38a0ee6d" target="_top" xlink:title="tests.screenWrapTests.Turtle\lScreenWrapTests.exitBottomLeftDiagonally">
<polygon fill="white" stroke="black" points="638.5,-559 638.5,-589 859.5,-589 859.5,-559 638.5,-559"/>
<text text-anchor="start" x="646.5" y="-577" font-family="Helvetica,sans-Serif" font-size="10.00">tests.screenWrapTests.Turtle</text>
<text text-anchor="middle" x="749" y="-566" font-family="Helvetica,sans-Serif" font-size="10.00">ScreenWrapTests.exitBottomLeftDiagonally</text>
</a>
</g>
</g>
<!-- Node3&#45;&gt;Node4 -->
<g id="edge3" class="edge"><title>Node3&#45;&gt;Node4</title>
<path fill="none" stroke="midnightblue" d="M519.533,-317.348C530.221,-369.359 562.044,-488.334 638,-549 642.82,-552.85 648.12,-556.131 653.708,-558.925"/>
<polygon fill="midnightblue" stroke="midnightblue" points="522.924,-316.451 517.565,-307.312 516.055,-317.798 522.924,-316.451"/>
</g>
<!-- Node5 -->
<g id="node5" class="node"><title>Node5</title>
<g id="a_node5"><a xlink:href="../../df/d1f/classtests_1_1screen_wrap_tests_1_1_turtle_screen_wrap_tests.html#a00650f413c6293abeecbbc5f162bfefe" target="_top" xlink:title="tests.screenWrapTests.Turtle\lScreenWrapTests.exitBottomRight\lDiagonally">
<polygon fill="white" stroke="black" points="660,-499.5 660,-540.5 838,-540.5 838,-499.5 660,-499.5"/>
<text text-anchor="start" x="668" y="-528.5" font-family="Helvetica,sans-Serif" font-size="10.00">tests.screenWrapTests.Turtle</text>
<text text-anchor="start" x="668" y="-517.5" font-family="Helvetica,sans-Serif" font-size="10.00">ScreenWrapTests.exitBottomRight</text>
<text text-anchor="middle" x="749" y="-506.5" font-family="Helvetica,sans-Serif" font-size="10.00">Diagonally</text>
</a>
</g>
</g>
<!-- Node3&#45;&gt;Node5 -->
<g id="edge4" class="edge"><title>Node3&#45;&gt;Node5</title>
<path fill="none" stroke="midnightblue" d="M523.398,-316.555C539.076,-358.642 576.854,-444.418 638,-490 644.666,-494.969 652.105,-499.115 659.884,-502.574"/>
<polygon fill="midnightblue" stroke="midnightblue" points="526.665,-315.294 519.971,-307.082 520.082,-317.676 526.665,-315.294"/>
</g>
<!-- Node6 -->
<g id="node6" class="node"><title>Node6</title>
<g id="a_node6"><a xlink:href="../../df/d1f/classtests_1_1screen_wrap_tests_1_1_turtle_screen_wrap_tests.html#a567edc540b0561af9828e1b8461f0e21" target="_top" xlink:title="tests.screenWrapTests.Turtle\lScreenWrapTests.exitBottomVertically">
<polygon fill="white" stroke="black" points="650.5,-451 650.5,-481 847.5,-481 847.5,-451 650.5,-451"/>
<text text-anchor="start" x="658.5" y="-469" font-family="Helvetica,sans-Serif" font-size="10.00">tests.screenWrapTests.Turtle</text>
<text text-anchor="middle" x="749" y="-458" font-family="Helvetica,sans-Serif" font-size="10.00">ScreenWrapTests.exitBottomVertically</text>
</a>
</g>
</g>
<!-- Node3&#45;&gt;Node6 -->
<g id="edge5" class="edge"><title>Node3&#45;&gt;Node6</title>
<path fill="none" stroke="midnightblue" d="M528.012,-316.126C547.382,-349.62 587.052,-409.617 638,-441 644.336,-444.903 651.215,-448.198 658.336,-450.98"/>
<polygon fill="midnightblue" stroke="midnightblue" points="530.843,-314.022 522.878,-307.036 524.748,-317.464 530.843,-314.022"/>
</g>
<!-- Node7 -->
<g id="node7" class="node"><title>Node7</title>
<g id="a_node7"><a xlink:href="../../df/d1f/classtests_1_1screen_wrap_tests_1_1_turtle_screen_wrap_tests.html#a9bb95a8580f478b494f193f7a076dc26" target="_top" xlink:title="tests.screenWrapTests.Turtle\lScreenWrapTests.exitLeftBottomDiagonally">
<polygon fill="white" stroke="black" points="638.5,-402 638.5,-432 859.5,-432 859.5,-402 638.5,-402"/>
<text text-anchor="start" x="646.5" y="-420" font-family="Helvetica,sans-Serif" font-size="10.00">tests.screenWrapTests.Turtle</text>
<text text-anchor="middle" x="749" y="-409" font-family="Helvetica,sans-Serif" font-size="10.00">ScreenWrapTests.exitLeftBottomDiagonally</text>
</a>
</g>
</g>
<!-- Node3&#45;&gt;Node7 -->
<g id="edge6" class="edge"><title>Node3&#45;&gt;Node7</title>
<path fill="none" stroke="midnightblue" d="M536.097,-314.391C559.012,-337.358 597.761,-372.411 638,-392 646.012,-395.9 654.651,-399.204 663.44,-402"/>
<polygon fill="midnightblue" stroke="midnightblue" points="538.453,-311.796 528.953,-307.106 533.455,-316.697 538.453,-311.796"/>
</g>
<!-- Node8 -->
<g id="node8" class="node"><title>Node8</title>
<g id="a_node8"><a xlink:href="../../df/d1f/classtests_1_1screen_wrap_tests_1_1_turtle_screen_wrap_tests.html#a2d6fdd923f6a332030f21ba77d598288" target="_top" xlink:title="tests.screenWrapTests.Turtle\lScreenWrapTests.exitLeftHorizontally">
<polygon fill="white" stroke="black" points="653,-353 653,-383 845,-383 845,-353 653,-353"/>
<text text-anchor="start" x="661" y="-371" font-family="Helvetica,sans-Serif" font-size="10.00">tests.screenWrapTests.Turtle</text>
<text text-anchor="middle" x="749" y="-360" font-family="Helvetica,sans-Serif" font-size="10.00">ScreenWrapTests.exitLeftHorizontally</text>
</a>
</g>
</g>
<!-- Node3&#45;&gt;Node8 -->
<g id="edge7" class="edge"><title>Node3&#45;&gt;Node8</title>
<path fill="none" stroke="midnightblue" d="M556.401,-311.23C579.956,-321.645 610.218,-334.154 638,-343 649.477,-346.654 661.787,-349.996 673.869,-352.964"/>
<polygon fill="midnightblue" stroke="midnightblue" points="557.628,-307.945 547.071,-307.06 554.772,-314.336 557.628,-307.945"/>
</g>
<!-- Node9 -->
<g id="node9" class="node"><title>Node9</title>
<g id="a_node9"><a xlink:href="../../df/d1f/classtests_1_1screen_wrap_tests_1_1_turtle_screen_wrap_tests.html#a08ce37429aff7988e44b90649df211d6" target="_top" xlink:title="tests.screenWrapTests.Turtle\lScreenWrapTests.exitLeftTopDiagonally">
<polygon fill="white" stroke="black" points="648.5,-304 648.5,-334 849.5,-334 849.5,-304 648.5,-304"/>
<text text-anchor="start" x="656.5" y="-322" font-family="Helvetica,sans-Serif" font-size="10.00">tests.screenWrapTests.Turtle</text>
<text text-anchor="middle" x="749" y="-311" font-family="Helvetica,sans-Serif" font-size="10.00">ScreenWrapTests.exitLeftTopDiagonally</text>
</a>
</g>
</g>
<!-- Node3&#45;&gt;Node9 -->
<g id="edge8" class="edge"><title>Node3&#45;&gt;Node9</title>
<path fill="none" stroke="midnightblue" d="M612.106,-303.253C624.122,-304.645 636.42,-306.07 648.471,-307.467"/>
<polygon fill="midnightblue" stroke="midnightblue" points="612.428,-299.767 602.092,-302.092 611.623,-306.72 612.428,-299.767"/>
</g>
<!-- Node10 -->
<g id="node10" class="node"><title>Node10</title>
<g id="a_node10"><a xlink:href="../../df/d1f/classtests_1_1screen_wrap_tests_1_1_turtle_screen_wrap_tests.html#ac86ad58070045f6e75e619d34b133cbe" target="_top" xlink:title="tests.screenWrapTests.Turtle\lScreenWrapTests.exitRightBOttom\lDiagonally">
<polygon fill="white" stroke="black" points="659.5,-244.5 659.5,-285.5 838.5,-285.5 838.5,-244.5 659.5,-244.5"/>
<text text-anchor="start" x="667.5" y="-273.5" font-family="Helvetica,sans-Serif" font-size="10.00">tests.screenWrapTests.Turtle</text>
<text text-anchor="start" x="667.5" y="-262.5" font-family="Helvetica,sans-Serif" font-size="10.00">ScreenWrapTests.exitRightBOttom</text>
<text text-anchor="middle" x="749" y="-251.5" font-family="Helvetica,sans-Serif" font-size="10.00">Diagonally</text>
</a>
</g>
</g>
<!-- Node3&#45;&gt;Node10 -->
<g id="edge9" class="edge"><title>Node3&#45;&gt;Node10</title>
<path fill="none" stroke="midnightblue" d="M612.288,-280.726C627.927,-278.914 644.041,-277.047 659.46,-275.26"/>
<polygon fill="midnightblue" stroke="midnightblue" points="611.623,-277.28 602.092,-281.908 612.428,-284.233 611.623,-277.28"/>
</g>
<!-- Node11 -->
<g id="node11" class="node"><title>Node11</title>
<g id="a_node11"><a xlink:href="../../df/d1f/classtests_1_1screen_wrap_tests_1_1_turtle_screen_wrap_tests.html#a15854787cfae755b696fae7a5c61feed" target="_top" xlink:title="tests.screenWrapTests.Turtle\lScreenWrapTests.exitRightHorizontally">
<polygon fill="white" stroke="black" points="650,-196 650,-226 848,-226 848,-196 650,-196"/>
<text text-anchor="start" x="658" y="-214" font-family="Helvetica,sans-Serif" font-size="10.00">tests.screenWrapTests.Turtle</text>
<text text-anchor="middle" x="749" y="-203" font-family="Helvetica,sans-Serif" font-size="10.00">ScreenWrapTests.exitRightHorizontally</text>
</a>
</g>
</g>
<!-- Node3&#45;&gt;Node11 -->
<g id="edge10" class="edge"><title>Node3&#45;&gt;Node11</title>
<path fill="none" stroke="midnightblue" d="M552.186,-272.162C576.143,-260.041 608.262,-245 638,-235 647.912,-231.667 658.485,-228.679 669.011,-226.037"/>
<polygon fill="midnightblue" stroke="midnightblue" points="550.406,-269.141 543.102,-276.816 553.598,-275.371 550.406,-269.141"/>
</g>
<!-- Node12 -->
<g id="node12" class="node"><title>Node12</title>
<g id="a_node12"><a xlink:href="../../df/d1f/classtests_1_1screen_wrap_tests_1_1_turtle_screen_wrap_tests.html#a83f756a9cbdd2a8c906c5270c13b6aff" target="_top" xlink:title="tests.screenWrapTests.Turtle\lScreenWrapTests.exitRightTopDiagonally">
<polygon fill="white" stroke="black" points="645.5,-147 645.5,-177 852.5,-177 852.5,-147 645.5,-147"/>
<text text-anchor="start" x="653.5" y="-165" font-family="Helvetica,sans-Serif" font-size="10.00">tests.screenWrapTests.Turtle</text>
<text text-anchor="middle" x="749" y="-154" font-family="Helvetica,sans-Serif" font-size="10.00">ScreenWrapTests.exitRightTopDiagonally</text>
</a>
</g>
</g>
<!-- Node3&#45;&gt;Node12 -->
<g id="edge11" class="edge"><title>Node3&#45;&gt;Node12</title>
<path fill="none" stroke="midnightblue" d="M535.042,-268.956C557.595,-244.536 596.533,-206.703 638,-186 644.908,-182.551 652.303,-179.595 659.87,-177.062"/>
<polygon fill="midnightblue" stroke="midnightblue" points="532.164,-266.919 528.042,-276.679 537.351,-271.62 532.164,-266.919"/>
</g>
<!-- Node13 -->
<g id="node13" class="node"><title>Node13</title>
<g id="a_node13"><a xlink:href="../../df/d1f/classtests_1_1screen_wrap_tests_1_1_turtle_screen_wrap_tests.html#a9b25b860fd3d50aaaf783cc87d8bf644" target="_top" xlink:title="tests.screenWrapTests.Turtle\lScreenWrapTests.exitTopLeftDiagonally">
<polygon fill="white" stroke="black" points="648.5,-98 648.5,-128 849.5,-128 849.5,-98 648.5,-98"/>
<text text-anchor="start" x="656.5" y="-116" font-family="Helvetica,sans-Serif" font-size="10.00">tests.screenWrapTests.Turtle</text>
<text text-anchor="middle" x="749" y="-105" font-family="Helvetica,sans-Serif" font-size="10.00">ScreenWrapTests.exitTopLeftDiagonally</text>
</a>
</g>
</g>
<!-- Node3&#45;&gt;Node13 -->
<g id="edge12" class="edge"><title>Node3&#45;&gt;Node13</title>
<path fill="none" stroke="midnightblue" d="M527.188,-267.818C546.003,-233.101 585.504,-169.723 638,-137 643.557,-133.536 649.543,-130.568 655.751,-128.025"/>
<polygon fill="midnightblue" stroke="midnightblue" points="524.019,-266.325 522.437,-276.801 530.206,-269.598 524.019,-266.325"/>
</g>
<!-- Node14 -->
<g id="node14" class="node"><title>Node14</title>
<g id="a_node14"><a xlink:href="../../df/d1f/classtests_1_1screen_wrap_tests_1_1_turtle_screen_wrap_tests.html#a84f8307a9e2fa54ba4670a8f8c8f5d63" target="_top" xlink:title="tests.screenWrapTests.Turtle\lScreenWrapTests.exitTopRightDiagonally">
<polygon fill="white" stroke="black" points="645.5,-49 645.5,-79 852.5,-79 852.5,-49 645.5,-49"/>
<text text-anchor="start" x="653.5" y="-67" font-family="Helvetica,sans-Serif" font-size="10.00">tests.screenWrapTests.Turtle</text>
<text text-anchor="middle" x="749" y="-56" font-family="Helvetica,sans-Serif" font-size="10.00">ScreenWrapTests.exitTopRightDiagonally</text>
</a>
</g>
</g>
<!-- Node3&#45;&gt;Node14 -->
<g id="edge13" class="edge"><title>Node3&#45;&gt;Node14</title>
<path fill="none" stroke="midnightblue" d="M522.623,-267.289C537.39,-223.759 574.189,-133.701 638,-88 642.767,-84.5856 647.928,-81.6419 653.324,-79.1054"/>
<polygon fill="midnightblue" stroke="midnightblue" points="519.289,-266.222 519.493,-276.814 525.94,-268.406 519.289,-266.222"/>
</g>
<!-- Node15 -->
<g id="node15" class="node"><title>Node15</title>
<g id="a_node15"><a xlink:href="../../df/d1f/classtests_1_1screen_wrap_tests_1_1_turtle_screen_wrap_tests.html#aa462570f354601659fc671244c30d715" target="_top" xlink:title="tests.screenWrapTests.Turtle\lScreenWrapTests.exitTopVertically">
<polygon fill="white" stroke="black" points="661,-0 661,-30 837,-30 837,-0 661,-0"/>
<text text-anchor="start" x="669" y="-18" font-family="Helvetica,sans-Serif" font-size="10.00">tests.screenWrapTests.Turtle</text>
<text text-anchor="middle" x="749" y="-7" font-family="Helvetica,sans-Serif" font-size="10.00">ScreenWrapTests.exitTopVertically</text>
</a>
</g>
</g>
<!-- Node3&#45;&gt;Node15 -->
<g id="edge14" class="edge"><title>Node3&#45;&gt;Node15</title>
<path fill="none" stroke="midnightblue" d="M519.617,-266.985C530.462,-215.669 562.564,-98.342 638,-39 644.836,-33.6221 652.62,-29.3887 660.815,-26.0644"/>
<polygon fill="midnightblue" stroke="midnightblue" points="516.166,-266.393 517.618,-276.888 523.028,-267.779 516.166,-266.393"/>
</g>
</g>
</svg>
        <g id="navigator" transform="translate(0 0)" fill="#404254">
                <rect fill="#f2f5e9" fill-opacity="0.5" stroke="#606060" stroke-width=".5" x="0" y="0" width="60" height="60"/>
                <use id="zoomplus" xlink:href="#zoomPlus" x="17" y="9" onmousedown="handleZoom(evt,'in')"/>
                <use id="zoomminus" xlink:href="#zoomMin" x="42" y="9" onmousedown="handleZoom(evt,'out')"/>
                <use id="reset" xlink:href="#resetDef" x="30" y="36" onmousedown="handleReset()"/>
                <g id="arrowUp" xlink:href="#dirArrow" transform="translate(30 24)" onmousedown="handlePan(0,-1)">
                  <use xlink:href="#rim" fill="#404040">
                        <set attributeName="fill" to="#808080" begin="arrowUp.mouseover" end="arrowUp.mouseout"/>
                  </use>
                  <path fill="none" stroke="white" stroke-width="1.5" d="M0,-3.0v7 M-2.5,-0.5L0,-3.0L2.5,-0.5"/>
                </g>
                <g id="arrowRight" xlink:href="#dirArrow" transform="rotate(90) translate(36 -43)" onmousedown="handlePan(1,0)">
                  <use xlink:href="#rim" fill="#404040">
                        <set attributeName="fill" to="#808080" begin="arrowRight.mouseover" end="arrowRight.mouseout"/>
                  </use>
                  <path fill="none" stroke="white" stroke-width="1.5" d="M0,-3.0v7 M-2.5,-0.5L0,-3.0L2.5,-0.5"/>
                </g>
                <g id="arrowDown" xlink:href="#dirArrow" transform="rotate(180) translate(-30 -48)" onmousedown="handlePan(0,1)">
                  <use xlink:href="#rim" fill="#404040">
                        <set attributeName="fill" to="#808080" begin="arrowDown.mouseover" end="arrowDown.mouseout"/>
                  </use>
                  <path fill="none" stroke="white" stroke-width="1.5" d="M0,-3.0v7 M-2.5,-0.5L0,-3.0L2.5,-0.5"/>
                </g>
                <g id="arrowLeft" xlink:href="#dirArrow" transform="rotate(270) translate(-36 17)" onmousedown="handlePan(-1,0)">
                  <use xlink:href="#rim" fill="#404040">
                        <set attributeName="fill" to="#808080" begin="arrowLeft.mouseover" end="arrowLeft.mouseout"/>
                  </use>
                  <path fill="none" stroke="white" stroke-width="1.5" d="M0,-3.0v7 M-2.5,-0.5L0,-3.0L2.5,-0.5"/>
                </g>
        </g>
        <svg viewBox="0 0 15 15" width="100%" height="30px" preserveAspectRatio="xMaxYMin meet">
         <g id="arrow_out" transform="scale(0.3 0.3)">
          <a xlink:href="classgui_1_1turtlescreenwrap_1_1_turtle_screen_wrap_a85b8832f97733eb375a95c304c180df1_icgraph_org.svg" target="_base">
           <rect id="button" ry="5" rx="5" y="6" x="6" height="38" width="38"
                fill="#f2f5e9" fill-opacity="0.5" stroke="#606060" stroke-width="1.0"/>
           <path id="arrow"
             d="M 11.500037,31.436501 C 11.940474,20.09759 22.043105,11.32322 32.158766,21.979434 L 37.068811,17.246167 C 37.068811,17.246167 37.088388,32 37.088388,32 L 22.160133,31.978069 C 22.160133,31.978069 26.997745,27.140456 26.997745,27.140456 C 18.528582,18.264221 13.291696,25.230495 11.500037,31.436501 z"
             style="fill:#404040;"/>
          </a>
         </g>
        </svg>
</svg>
