<?xml version="1.0" encoding="UTF-8" standalone="no"?>
<!DOCTYPE svg PUBLIC "-//W3C//DTD SVG 1.1//EN"
 "http://www.w3.org/Graphics/SVG/1.1/DTD/svg11.dtd">
<!-- Generated by graphviz version 2.36.0 (20140111.2315)
 -->
<!-- Title: gui.nonbuttonfeatures.TurtleImageFeature Pages: 1 -->
<svg width="602pt" height="77pt"
 viewBox="0.00 0.00 602.00 77.00" xmlns="http://www.w3.org/2000/svg" xmlns:xlink="http://www.w3.org/1999/xlink">
<g id="graph0" class="graph" transform="scale(1 1) rotate(0) translate(4 73)">
<title>gui.nonbuttonfeatures.TurtleImageFeature</title>
<polygon fill="white" stroke="none" points="-4,4 -4,-73 598,-73 598,4 -4,4"/>
<!-- Node1 -->
<g id="node1" class="node"><title>Node1</title>
<polygon fill="#bfbfbf" stroke="black" points="442,-22 442,-52 594,-52 594,-22 442,-22"/>
<text text-anchor="start" x="450" y="-40" font-family="Helvetica,sans-Serif" font-size="10.00">gui.nonbuttonfeatures.Turtle</text>
<text text-anchor="middle" x="518" y="-29" font-family="Helvetica,sans-Serif" font-size="10.00">ImageFeature</text>
</g>
<!-- Node2 -->
<g id="node2" class="node"><title>Node2</title>
<polygon fill="white" stroke="#bfbfbf" points="124,-49.5 124,-68.5 196,-68.5 196,-49.5 124,-49.5"/>
<text text-anchor="middle" x="160" y="-56.5" font-family="Helvetica,sans-Serif" font-size="10.00">BorderPane</text>
</g>
<!-- Node2&#45;&gt;Node1 -->
<g id="edge1" class="edge"><title>Node2&#45;&gt;Node1</title>
<path fill="none" stroke="midnightblue" d="M206.294,-56.2009C265.669,-52.5317 370.632,-46.0452 441.967,-41.6369"/>
<polygon fill="midnightblue" stroke="midnightblue" points="205.874,-52.7201 196.109,-56.8303 206.306,-59.7068 205.874,-52.7201"/>
</g>
<!-- Node3 -->
<g id="node3" class="node"><title>Node3</title>
<polygon fill="white" stroke="#bfbfbf" points="0.5,-0 0.5,-30 319.5,-30 319.5,-0 0.5,-0"/>
<text text-anchor="start" x="8.5" y="-18" font-family="Helvetica,sans-Serif" font-size="10.00">ObservableList&lt; gui.nonbuttonfeatures.tableviews.imageindex.</text>
<text text-anchor="middle" x="160" y="-7" font-family="Helvetica,sans-Serif" font-size="10.00">ImageIndex &gt;</text>
</g>
<!-- Node3&#45;&gt;Node1 -->
<g id="edge2" class="edge"><title>Node3&#45;&gt;Node1</title>
<path fill="none" stroke="#9a32cd" stroke-dasharray="5,2" d="M329.775,-21.1606C361.119,-22.7418 393.569,-24.6719 424,-27 429.829,-27.4459 435.858,-27.9642 441.915,-28.5257"/>
<polygon fill="#9a32cd" stroke="#9a32cd" points="329.802,-17.6578 319.641,-20.6594 329.456,-24.6492 329.802,-17.6578"/>
<text text-anchor="middle" x="381" y="-30" font-family="Helvetica,sans-Serif" font-size="10.00"> myImageFilesList</text>
</g>
</g>
</svg>
