<?xml version="1.0" encoding="UTF-8" standalone="no"?>
<!DOCTYPE svg PUBLIC "-//W3C//DTD SVG 1.1//EN"
 "http://www.w3.org/Graphics/SVG/1.1/DTD/svg11.dtd">
<!-- Generated by graphviz version 2.36.0 (20140111.2315)
 -->
<!-- Title: translator.Translator.translateToList Pages: 1 -->
<svg width="358pt" height="136pt"
 viewBox="0.00 0.00 358.00 136.00" xmlns="http://www.w3.org/2000/svg" xmlns:xlink="http://www.w3.org/1999/xlink">
<g id="graph0" class="graph" transform="scale(1 1) rotate(0) translate(4 132)">
<title>translator.Translator.translateToList</title>
<polygon fill="white" stroke="none" points="-4,4 -4,-132 354,-132 354,4 -4,4"/>
<!-- Node1 -->
<g id="node1" class="node"><title>Node1</title>
<polygon fill="#bfbfbf" stroke="black" points="0.5,-49 0.5,-79 157.5,-79 157.5,-49 0.5,-49"/>
<text text-anchor="start" x="8.5" y="-67" font-family="Helvetica,sans-Serif" font-size="10.00">translator.Translator.translate</text>
<text text-anchor="middle" x="79" y="-56" font-family="Helvetica,sans-Serif" font-size="10.00">ToList</text>
</g>
<!-- Node2 -->
<g id="node2" class="node"><title>Node2</title>
<g id="a_node2"><a xlink:href="../../d3/de0/classtranslator_1_1_translator.html#ad62364674b153e6fb5c67b328700d6e2" target="_top" xlink:title="translator.Translator.matches\lCommandPattern">
<polygon fill="white" stroke="black" points="194,-98 194,-128 350,-128 350,-98 194,-98"/>
<text text-anchor="start" x="202" y="-116" font-family="Helvetica,sans-Serif" font-size="10.00">translator.Translator.matches</text>
<text text-anchor="middle" x="272" y="-105" font-family="Helvetica,sans-Serif" font-size="10.00">CommandPattern</text>
</a>
</g>
</g>
<!-- Node1&#45;&gt;Node2 -->
<g id="edge1" class="edge"><title>Node1&#45;&gt;Node2</title>
<path fill="none" stroke="midnightblue" d="M138.604,-79.0346C158.863,-84.2318 181.739,-90.1006 202.706,-95.4796"/>
<polygon fill="midnightblue" stroke="midnightblue" points="201.95,-98.899 212.506,-97.9938 203.69,-92.1186 201.95,-98.899"/>
</g>
<!-- Node3 -->
<g id="node3" class="node"><title>Node3</title>
<g id="a_node3"><a xlink:href="../../d3/de0/classtranslator_1_1_translator.html#ae163dd69225da8754f9f090cb2b32bd4" target="_top" xlink:title="translator.Translator.matches\lConstantPattern">
<polygon fill="white" stroke="black" points="194,-49 194,-79 350,-79 350,-49 194,-49"/>
<text text-anchor="start" x="202" y="-67" font-family="Helvetica,sans-Serif" font-size="10.00">translator.Translator.matches</text>
<text text-anchor="middle" x="272" y="-56" font-family="Helvetica,sans-Serif" font-size="10.00">ConstantPattern</text>
</a>
</g>
</g>
<!-- Node1&#45;&gt;Node3 -->
<g id="edge2" class="edge"><title>Node1&#45;&gt;Node3</title>
<path fill="none" stroke="midnightblue" d="M157.687,-64C166.224,-64 174.957,-64 183.602,-64"/>
<polygon fill="midnightblue" stroke="midnightblue" points="183.692,-67.5001 193.692,-64 183.692,-60.5001 183.692,-67.5001"/>
</g>
<!-- Node4 -->
<g id="node4" class="node"><title>Node4</title>
<g id="a_node4"><a xlink:href="../../d3/de0/classtranslator_1_1_translator.html#aeb9508fb69ae1c82eec49d2b1d4ee77b" target="_top" xlink:title="translator.Translator.matches\lVariablePattern">
<polygon fill="white" stroke="black" points="194,-0 194,-30 350,-30 350,-0 194,-0"/>
<text text-anchor="start" x="202" y="-18" font-family="Helvetica,sans-Serif" font-size="10.00">translator.Translator.matches</text>
<text text-anchor="middle" x="272" y="-7" font-family="Helvetica,sans-Serif" font-size="10.00">VariablePattern</text>
</a>
</g>
</g>
<!-- Node1&#45;&gt;Node4 -->
<g id="edge3" class="edge"><title>Node1&#45;&gt;Node4</title>
<path fill="none" stroke="midnightblue" d="M138.604,-48.9654C158.863,-43.7682 181.739,-37.8994 202.706,-32.5204"/>
<polygon fill="midnightblue" stroke="midnightblue" points="203.69,-35.8814 212.506,-30.0062 201.95,-29.101 203.69,-35.8814"/>
</g>
</g>
</svg>
