<?xml version="1.0" encoding="UTF-8" standalone="no"?>
<!DOCTYPE svg PUBLIC "-//W3C//DTD SVG 1.1//EN"
 "http://www.w3.org/Graphics/SVG/1.1/DTD/svg11.dtd">
<!-- Generated by graphviz version 2.36.0 (20140111.2315)
 -->
<!-- Title: translator.Translator.createMappingsGivenLanguage Pages: 1 -->
<svg width="532pt" height="185pt"
 viewBox="0.00 0.00 532.00 185.00" xmlns="http://www.w3.org/2000/svg" xmlns:xlink="http://www.w3.org/1999/xlink">
<g id="graph0" class="graph" transform="scale(1 1) rotate(0) translate(4 181)">
<title>translator.Translator.createMappingsGivenLanguage</title>
<polygon fill="white" stroke="none" points="-4,4 -4,-181 528,-181 528,4 -4,4"/>
<!-- Node1 -->
<g id="node1" class="node"><title>Node1</title>
<polygon fill="#bfbfbf" stroke="black" points="0.5,-73 0.5,-103 145.5,-103 145.5,-73 0.5,-73"/>
<text text-anchor="start" x="8.5" y="-91" font-family="Helvetica,sans-Serif" font-size="10.00">translator.Translator.create</text>
<text text-anchor="middle" x="73" y="-80" font-family="Helvetica,sans-Serif" font-size="10.00">MappingsGivenLanguage</text>
</g>
<!-- Node2 -->
<g id="node2" class="node"><title>Node2</title>
<g id="a_node2"><a xlink:href="../../d3/de0/classtranslator_1_1_translator.html#aa3489cc3e82cdd3045a9ae5f324c1364" target="_top" xlink:title="translator.Translator.build\lDictionaryOfCommandsToEnglish">
<polygon fill="white" stroke="black" points="182,-147 182,-177 356,-177 356,-147 182,-147"/>
<text text-anchor="start" x="190" y="-165" font-family="Helvetica,sans-Serif" font-size="10.00">translator.Translator.build</text>
<text text-anchor="middle" x="269" y="-154" font-family="Helvetica,sans-Serif" font-size="10.00">DictionaryOfCommandsToEnglish</text>
</a>
</g>
</g>
<!-- Node1&#45;&gt;Node2 -->
<g id="edge1" class="edge"><title>Node1&#45;&gt;Node2</title>
<path fill="none" stroke="midnightblue" d="M104.237,-103.126C125.626,-113.475 155.159,-127.068 182,-137 188.368,-139.357 195.067,-141.637 201.797,-143.798"/>
<polygon fill="midnightblue" stroke="midnightblue" points="201.057,-147.233 211.646,-146.874 203.144,-140.552 201.057,-147.233"/>
</g>
<!-- Node3 -->
<g id="node3" class="node"><title>Node3</title>
<g id="a_node3"><a xlink:href="../../d3/de0/classtranslator_1_1_translator.html#a493ea832263fd904551261076f06658d" target="_top" xlink:title="translator.Translator.build\lMapOfCommandPaths">
<polygon fill="white" stroke="black" points="200.5,-98 200.5,-128 337.5,-128 337.5,-98 200.5,-98"/>
<text text-anchor="start" x="208.5" y="-116" font-family="Helvetica,sans-Serif" font-size="10.00">translator.Translator.build</text>
<text text-anchor="middle" x="269" y="-105" font-family="Helvetica,sans-Serif" font-size="10.00">MapOfCommandPaths</text>
</a>
</g>
</g>
<!-- Node1&#45;&gt;Node3 -->
<g id="edge2" class="edge"><title>Node1&#45;&gt;Node3</title>
<path fill="none" stroke="midnightblue" d="M145.687,-97.238C160.245,-99.1141 175.621,-101.095 190.373,-102.997"/>
<polygon fill="midnightblue" stroke="midnightblue" points="190.104,-106.491 200.469,-104.298 190.999,-99.5481 190.104,-106.491"/>
</g>
<!-- Node6 -->
<g id="node6" class="node"><title>Node6</title>
<g id="a_node6"><a xlink:href="../../d3/de0/classtranslator_1_1_translator.html#aaf98e6084c26cd5714d7e2a19eee8167" target="_top" xlink:title="translator.Translator.create\lReverseMapping">
<polygon fill="white" stroke="black" points="196.5,-49 196.5,-79 341.5,-79 341.5,-49 196.5,-49"/>
<text text-anchor="start" x="204.5" y="-67" font-family="Helvetica,sans-Serif" font-size="10.00">translator.Translator.create</text>
<text text-anchor="middle" x="269" y="-56" font-family="Helvetica,sans-Serif" font-size="10.00">ReverseMapping</text>
</a>
</g>
</g>
<!-- Node1&#45;&gt;Node6 -->
<g id="edge5" class="edge"><title>Node1&#45;&gt;Node6</title>
<path fill="none" stroke="midnightblue" d="M145.687,-79.1315C158.847,-77.5035 172.675,-75.7928 186.107,-74.1311"/>
<polygon fill="midnightblue" stroke="midnightblue" points="186.789,-77.5735 196.284,-72.8721 185.93,-70.6264 186.789,-77.5735"/>
</g>
<!-- Node7 -->
<g id="node7" class="node"><title>Node7</title>
<g id="a_node7"><a xlink:href="../../d3/de0/classtranslator_1_1_translator.html#ad1d67540ff22bb2d33585767a78fcf60" target="_top" xlink:title="translator.Translator.map\lLanguageToClassPath">
<polygon fill="white" stroke="black" points="201,-0 201,-30 337,-30 337,-0 201,-0"/>
<text text-anchor="start" x="209" y="-18" font-family="Helvetica,sans-Serif" font-size="10.00">translator.Translator.map</text>
<text text-anchor="middle" x="269" y="-7" font-family="Helvetica,sans-Serif" font-size="10.00">LanguageToClassPath</text>
</a>
</g>
</g>
<!-- Node1&#45;&gt;Node7 -->
<g id="edge6" class="edge"><title>Node1&#45;&gt;Node7</title>
<path fill="none" stroke="midnightblue" d="M105.2,-72.7851C126.525,-62.7219 155.599,-49.6538 182,-40 188.475,-37.6321 195.288,-35.3345 202.127,-33.1537"/>
<polygon fill="midnightblue" stroke="midnightblue" points="203.616,-36.3561 212.128,-30.0478 201.54,-29.6711 203.616,-36.3561"/>
</g>
<!-- Node4 -->
<g id="node4" class="node"><title>Node4</title>
<g id="a_node4"><a xlink:href="../../d3/de0/classtranslator_1_1_translator.html#a0271c7134aab7c2eb5a2a718ea765ad2" target="_top" xlink:title="translator.Translator.clip\lPathName">
<polygon fill="white" stroke="black" points="393,-122 393,-152 523,-152 523,-122 393,-122"/>
<text text-anchor="start" x="401" y="-140" font-family="Helvetica,sans-Serif" font-size="10.00">translator.Translator.clip</text>
<text text-anchor="middle" x="458" y="-129" font-family="Helvetica,sans-Serif" font-size="10.00">PathName</text>
</a>
</g>
</g>
<!-- Node3&#45;&gt;Node4 -->
<g id="edge3" class="edge"><title>Node3&#45;&gt;Node4</title>
<path fill="none" stroke="midnightblue" d="M337.511,-121.665C352.132,-123.541 367.673,-125.536 382.543,-127.444"/>
<polygon fill="midnightblue" stroke="midnightblue" points="382.346,-130.947 392.711,-128.749 383.238,-124.004 382.346,-130.947"/>
</g>
<!-- Node5 -->
<g id="node5" class="node"><title>Node5</title>
<g id="a_node5"><a xlink:href="../../d3/de0/classtranslator_1_1_translator.html#a1f98bdb6fe8a0b55cb19673a079dfdc7" target="_top" xlink:title="translator.Translator.find\lCommandName">
<polygon fill="white" stroke="black" points="392.5,-73 392.5,-103 523.5,-103 523.5,-73 392.5,-73"/>
<text text-anchor="start" x="400.5" y="-91" font-family="Helvetica,sans-Serif" font-size="10.00">translator.Translator.find</text>
<text text-anchor="middle" x="458" y="-80" font-family="Helvetica,sans-Serif" font-size="10.00">CommandName</text>
</a>
</g>
</g>
<!-- Node3&#45;&gt;Node5 -->
<g id="edge4" class="edge"><title>Node3&#45;&gt;Node5</title>
<path fill="none" stroke="midnightblue" d="M337.511,-103.974C352.047,-102.031 367.492,-99.9663 382.283,-97.9889"/>
<polygon fill="midnightblue" stroke="midnightblue" points="382.952,-101.431 392.4,-96.6364 382.024,-94.4925 382.952,-101.431"/>
</g>
</g>
</svg>
