<?xml version="1.0" encoding="UTF-8" standalone="no"?>
<!DOCTYPE svg PUBLIC "-//W3C//DTD SVG 1.1//EN"
 "http://www.w3.org/Graphics/SVG/1.1/DTD/svg11.dtd">
<!-- Generated by graphviz version 2.36.0 (20140111.2315)
 -->
<!-- Title: translator.Translator.translate Pages: 1 -->
<svg width="552pt" height="136pt"
 viewBox="0.00 0.00 552.00 136.00" xmlns="http://www.w3.org/2000/svg" xmlns:xlink="http://www.w3.org/1999/xlink">
<g id="graph0" class="graph" transform="scale(1 1) rotate(0) translate(4 132)">
<title>translator.Translator.translate</title>
<polygon fill="white" stroke="none" points="-4,4 -4,-132 548,-132 548,4 -4,4"/>
<!-- Node1 -->
<g id="node1" class="node"><title>Node1</title>
<polygon fill="#bfbfbf" stroke="black" points="0.5,-54.5 0.5,-73.5 157.5,-73.5 157.5,-54.5 0.5,-54.5"/>
<text text-anchor="middle" x="79" y="-61.5" font-family="Helvetica,sans-Serif" font-size="10.00">translator.Translator.translate</text>
</g>
<!-- Node2 -->
<g id="node2" class="node"><title>Node2</title>
<g id="a_node2"><a xlink:href="../../d3/de0/classtranslator_1_1_translator.html#ae5f7587427ac1df42b5764f127ce827c" target="_top" xlink:title="translator.Translator.translate\lToList">
<polygon fill="white" stroke="black" points="194.5,-49 194.5,-79 351.5,-79 351.5,-49 194.5,-49"/>
<text text-anchor="start" x="202.5" y="-67" font-family="Helvetica,sans-Serif" font-size="10.00">translator.Translator.translate</text>
<text text-anchor="middle" x="273" y="-56" font-family="Helvetica,sans-Serif" font-size="10.00">ToList</text>
</a>
</g>
</g>
<!-- Node1&#45;&gt;Node2 -->
<g id="edge1" class="edge"><title>Node1&#45;&gt;Node2</title>
<path fill="none" stroke="midnightblue" d="M157.54,-64C166.388,-64 175.452,-64 184.418,-64"/>
<polygon fill="midnightblue" stroke="midnightblue" points="184.482,-67.5001 194.482,-64 184.482,-60.5001 184.482,-67.5001"/>
</g>
<!-- Node3 -->
<g id="node3" class="node"><title>Node3</title>
<g id="a_node3"><a xlink:href="../../d3/de0/classtranslator_1_1_translator.html#ad62364674b153e6fb5c67b328700d6e2" target="_top" xlink:title="translator.Translator.matches\lCommandPattern">
<polygon fill="white" stroke="black" points="388,-98 388,-128 544,-128 544,-98 388,-98"/>
<text text-anchor="start" x="396" y="-116" font-family="Helvetica,sans-Serif" font-size="10.00">translator.Translator.matches</text>
<text text-anchor="middle" x="466" y="-105" font-family="Helvetica,sans-Serif" font-size="10.00">CommandPattern</text>
</a>
</g>
</g>
<!-- Node2&#45;&gt;Node3 -->
<g id="edge2" class="edge"><title>Node2&#45;&gt;Node3</title>
<path fill="none" stroke="midnightblue" d="M332.604,-79.0346C352.863,-84.2318 375.739,-90.1006 396.706,-95.4796"/>
<polygon fill="midnightblue" stroke="midnightblue" points="395.95,-98.899 406.506,-97.9938 397.69,-92.1186 395.95,-98.899"/>
</g>
<!-- Node4 -->
<g id="node4" class="node"><title>Node4</title>
<g id="a_node4"><a xlink:href="../../d3/de0/classtranslator_1_1_translator.html#ae163dd69225da8754f9f090cb2b32bd4" target="_top" xlink:title="translator.Translator.matches\lConstantPattern">
<polygon fill="white" stroke="black" points="388,-49 388,-79 544,-79 544,-49 388,-49"/>
<text text-anchor="start" x="396" y="-67" font-family="Helvetica,sans-Serif" font-size="10.00">translator.Translator.matches</text>
<text text-anchor="middle" x="466" y="-56" font-family="Helvetica,sans-Serif" font-size="10.00">ConstantPattern</text>
</a>
</g>
</g>
<!-- Node2&#45;&gt;Node4 -->
<g id="edge3" class="edge"><title>Node2&#45;&gt;Node4</title>
<path fill="none" stroke="midnightblue" d="M351.687,-64C360.224,-64 368.957,-64 377.602,-64"/>
<polygon fill="midnightblue" stroke="midnightblue" points="377.692,-67.5001 387.692,-64 377.692,-60.5001 377.692,-67.5001"/>
</g>
<!-- Node5 -->
<g id="node5" class="node"><title>Node5</title>
<g id="a_node5"><a xlink:href="../../d3/de0/classtranslator_1_1_translator.html#aeb9508fb69ae1c82eec49d2b1d4ee77b" target="_top" xlink:title="translator.Translator.matches\lVariablePattern">
<polygon fill="white" stroke="black" points="388,-0 388,-30 544,-30 544,-0 388,-0"/>
<text text-anchor="start" x="396" y="-18" font-family="Helvetica,sans-Serif" font-size="10.00">translator.Translator.matches</text>
<text text-anchor="middle" x="466" y="-7" font-family="Helvetica,sans-Serif" font-size="10.00">VariablePattern</text>
</a>
</g>
</g>
<!-- Node2&#45;&gt;Node5 -->
<g id="edge4" class="edge"><title>Node2&#45;&gt;Node5</title>
<path fill="none" stroke="midnightblue" d="M332.604,-48.9654C352.863,-43.7682 375.739,-37.8994 396.706,-32.5204"/>
<polygon fill="midnightblue" stroke="midnightblue" points="397.69,-35.8814 406.506,-30.0062 395.95,-29.101 397.69,-35.8814"/>
</g>
</g>
</svg>
