<?xml version="1.0" encoding="UTF-8" standalone="no"?>
<!DOCTYPE svg PUBLIC "-//W3C//DTD SVG 1.1//EN"
 "http://www.w3.org/Graphics/SVG/1.1/DTD/svg11.dtd">
<!-- Generated by graphviz version 2.36.0 (20140111.2315)
 -->
<!-- Title: translator.Translator.buildDictionaryOfCommandsToEnglish Pages: 1 -->
<svg width="598pt" height="116pt"
 viewBox="0.00 0.00 598.00 116.00" xmlns="http://www.w3.org/2000/svg" xmlns:xlink="http://www.w3.org/1999/xlink">
<g id="graph0" class="graph" transform="scale(1 1) rotate(0) translate(4 112)">
<title>translator.Translator.buildDictionaryOfCommandsToEnglish</title>
<polygon fill="white" stroke="none" points="-4,4 -4,-112 594,-112 594,4 -4,4"/>
<!-- Node1 -->
<g id="node1" class="node"><title>Node1</title>
<polygon fill="#bfbfbf" stroke="black" points="0,-39 0,-69 174,-69 174,-39 0,-39"/>
<text text-anchor="start" x="8" y="-57" font-family="Helvetica,sans-Serif" font-size="10.00">translator.Translator.build</text>
<text text-anchor="middle" x="87" y="-46" font-family="Helvetica,sans-Serif" font-size="10.00">DictionaryOfCommandsToEnglish</text>
</g>
<!-- Node2 -->
<g id="node2" class="node"><title>Node2</title>
<g id="a_node2"><a xlink:href="../../d3/de0/classtranslator_1_1_translator.html#a5bb5ff750024d44ef3ced7efc65cabfa" target="_top" xlink:title="translator.Translator.create\lMappingsGivenLanguage">
<polygon fill="white" stroke="black" points="210.5,-39 210.5,-69 355.5,-69 355.5,-39 210.5,-39"/>
<text text-anchor="start" x="218.5" y="-57" font-family="Helvetica,sans-Serif" font-size="10.00">translator.Translator.create</text>
<text text-anchor="middle" x="283" y="-46" font-family="Helvetica,sans-Serif" font-size="10.00">MappingsGivenLanguage</text>
</a>
</g>
</g>
<!-- Node1&#45;&gt;Node2 -->
<g id="edge1" class="edge"><title>Node1&#45;&gt;Node2</title>
<path fill="none" stroke="midnightblue" d="M184.418,-54C193.121,-54 201.831,-54 210.266,-54"/>
<polygon fill="midnightblue" stroke="midnightblue" points="184.221,-50.5001 174.221,-54 184.221,-57.5001 184.221,-50.5001"/>
</g>
<!-- Node3 -->
<g id="node3" class="node"><title>Node3</title>
<g id="a_node3"><a xlink:href="../../d4/d39/classcommand_parsing_1_1_set_language.html#a8d6c8cee20a89ad65ab09e0f77e974e9" target="_top" xlink:title="commandParsing.SetLanguage.parse">
<polygon fill="white" stroke="black" points="392.5,-88.5 392.5,-107.5 589.5,-107.5 589.5,-88.5 392.5,-88.5"/>
<text text-anchor="middle" x="491" y="-95.5" font-family="Helvetica,sans-Serif" font-size="10.00">commandParsing.SetLanguage.parse</text>
</a>
</g>
</g>
<!-- Node2&#45;&gt;Node3 -->
<g id="edge2" class="edge"><title>Node2&#45;&gt;Node3</title>
<path fill="none" stroke="midnightblue" d="M360.777,-71.2335C371.263,-73.5369 381.893,-75.8457 392,-78 408.304,-81.4749 426.161,-85.1561 442.114,-88.4003"/>
<polygon fill="midnightblue" stroke="midnightblue" points="361.309,-67.7668 350.79,-69.0321 359.802,-74.6027 361.309,-67.7668"/>
</g>
<!-- Node4 -->
<g id="node4" class="node"><title>Node4</title>
<g id="a_node4"><a xlink:href="../../df/d32/classtests_1_1command_tests_1_1_command_tester.html#a5bc41a0697edcc44372fff6a0a76b492" target="_top" xlink:title="tests.commandTests.Command\lTester.setUpTranslator">
<polygon fill="white" stroke="black" points="406,-39 406,-69 576,-69 576,-39 406,-39"/>
<text text-anchor="start" x="414" y="-57" font-family="Helvetica,sans-Serif" font-size="10.00">tests.commandTests.Command</text>
<text text-anchor="middle" x="491" y="-46" font-family="Helvetica,sans-Serif" font-size="10.00">Tester.setUpTranslator</text>
</a>
</g>
</g>
<!-- Node2&#45;&gt;Node4 -->
<g id="edge3" class="edge"><title>Node2&#45;&gt;Node4</title>
<path fill="none" stroke="midnightblue" d="M366.107,-54C379.156,-54 392.671,-54 405.768,-54"/>
<polygon fill="midnightblue" stroke="midnightblue" points="365.76,-50.5001 355.76,-54 365.76,-57.5001 365.76,-50.5001"/>
</g>
<!-- Node5 -->
<g id="node5" class="node"><title>Node5</title>
<g id="a_node5"><a xlink:href="../../d3/de0/classtranslator_1_1_translator.html#a4b1631651bb2f9db102677a4b3323688" target="_top" xlink:title="translator.Translator.Translator">
<polygon fill="white" stroke="black" points="410.5,-0.5 410.5,-19.5 571.5,-19.5 571.5,-0.5 410.5,-0.5"/>
<text text-anchor="middle" x="491" y="-7.5" font-family="Helvetica,sans-Serif" font-size="10.00">translator.Translator.Translator</text>
</a>
</g>
</g>
<!-- Node2&#45;&gt;Node5 -->
<g id="edge4" class="edge"><title>Node2&#45;&gt;Node5</title>
<path fill="none" stroke="midnightblue" d="M360.777,-36.7665C371.263,-34.4631 381.893,-32.1543 392,-30 408.304,-26.5251 426.161,-22.8439 442.114,-19.5997"/>
<polygon fill="midnightblue" stroke="midnightblue" points="359.802,-33.3973 350.79,-38.9679 361.309,-40.2332 359.802,-33.3973"/>
</g>
</g>
</svg>
