<?xml version="1.0" encoding="UTF-8" standalone="no"?>
<!DOCTYPE svg PUBLIC "-//W3C//DTD SVG 1.1//EN"
 "http://www.w3.org/Graphics/SVG/1.1/DTD/svg11.dtd">
<!-- Generated by graphviz version 2.36.0 (20140111.2315)
 -->
<!-- Title: translator.Translator.Translator Pages: 1 -->
<svg width="730pt" height="185pt"
 viewBox="0.00 0.00 730.00 185.00" xmlns="http://www.w3.org/2000/svg" xmlns:xlink="http://www.w3.org/1999/xlink">
<g id="graph0" class="graph" transform="scale(1 1) rotate(0) translate(4 181)">
<title>translator.Translator.Translator</title>
<polygon fill="white" stroke="none" points="-4,4 -4,-181 726,-181 726,4 -4,4"/>
<!-- Node1 -->
<g id="node1" class="node"><title>Node1</title>
<polygon fill="#bfbfbf" stroke="black" points="0.5,-78.5 0.5,-97.5 161.5,-97.5 161.5,-78.5 0.5,-78.5"/>
<text text-anchor="middle" x="81" y="-85.5" font-family="Helvetica,sans-Serif" font-size="10.00">translator.Translator.Translator</text>
</g>
<!-- Node2 -->
<g id="node2" class="node"><title>Node2</title>
<g id="a_node2"><a xlink:href="../../d3/de0/classtranslator_1_1_translator.html#a5bb5ff750024d44ef3ced7efc65cabfa" target="_top" xlink:title="translator.Translator.create\lMappingsGivenLanguage">
<polygon fill="white" stroke="black" points="198.5,-73 198.5,-103 343.5,-103 343.5,-73 198.5,-73"/>
<text text-anchor="start" x="206.5" y="-91" font-family="Helvetica,sans-Serif" font-size="10.00">translator.Translator.create</text>
<text text-anchor="middle" x="271" y="-80" font-family="Helvetica,sans-Serif" font-size="10.00">MappingsGivenLanguage</text>
</a>
</g>
</g>
<!-- Node1&#45;&gt;Node2 -->
<g id="edge1" class="edge"><title>Node1&#45;&gt;Node2</title>
<path fill="none" stroke="midnightblue" d="M161.729,-88C170.504,-88 179.45,-88 188.25,-88"/>
<polygon fill="midnightblue" stroke="midnightblue" points="188.494,-91.5001 198.494,-88 188.494,-84.5001 188.494,-91.5001"/>
</g>
<!-- Node3 -->
<g id="node3" class="node"><title>Node3</title>
<g id="a_node3"><a xlink:href="../../d3/de0/classtranslator_1_1_translator.html#aa3489cc3e82cdd3045a9ae5f324c1364" target="_top" xlink:title="translator.Translator.build\lDictionaryOfCommandsToEnglish">
<polygon fill="white" stroke="black" points="380,-147 380,-177 554,-177 554,-147 380,-147"/>
<text text-anchor="start" x="388" y="-165" font-family="Helvetica,sans-Serif" font-size="10.00">translator.Translator.build</text>
<text text-anchor="middle" x="467" y="-154" font-family="Helvetica,sans-Serif" font-size="10.00">DictionaryOfCommandsToEnglish</text>
</a>
</g>
</g>
<!-- Node2&#45;&gt;Node3 -->
<g id="edge2" class="edge"><title>Node2&#45;&gt;Node3</title>
<path fill="none" stroke="midnightblue" d="M302.237,-103.126C323.626,-113.475 353.159,-127.068 380,-137 386.368,-139.357 393.067,-141.637 399.797,-143.798"/>
<polygon fill="midnightblue" stroke="midnightblue" points="399.057,-147.233 409.646,-146.874 401.144,-140.552 399.057,-147.233"/>
</g>
<!-- Node4 -->
<g id="node4" class="node"><title>Node4</title>
<g id="a_node4"><a xlink:href="../../d3/de0/classtranslator_1_1_translator.html#a493ea832263fd904551261076f06658d" target="_top" xlink:title="translator.Translator.build\lMapOfCommandPaths">
<polygon fill="white" stroke="black" points="398.5,-98 398.5,-128 535.5,-128 535.5,-98 398.5,-98"/>
<text text-anchor="start" x="406.5" y="-116" font-family="Helvetica,sans-Serif" font-size="10.00">translator.Translator.build</text>
<text text-anchor="middle" x="467" y="-105" font-family="Helvetica,sans-Serif" font-size="10.00">MapOfCommandPaths</text>
</a>
</g>
</g>
<!-- Node2&#45;&gt;Node4 -->
<g id="edge3" class="edge"><title>Node2&#45;&gt;Node4</title>
<path fill="none" stroke="midnightblue" d="M343.687,-97.238C358.245,-99.1141 373.621,-101.095 388.373,-102.997"/>
<polygon fill="midnightblue" stroke="midnightblue" points="388.104,-106.491 398.469,-104.298 388.999,-99.5481 388.104,-106.491"/>
</g>
<!-- Node7 -->
<g id="node7" class="node"><title>Node7</title>
<g id="a_node7"><a xlink:href="../../d3/de0/classtranslator_1_1_translator.html#ad1d67540ff22bb2d33585767a78fcf60" target="_top" xlink:title="translator.Translator.map\lLanguageToClassPath">
<polygon fill="white" stroke="black" points="399,-49 399,-79 535,-79 535,-49 399,-49"/>
<text text-anchor="start" x="407" y="-67" font-family="Helvetica,sans-Serif" font-size="10.00">translator.Translator.map</text>
<text text-anchor="middle" x="467" y="-56" font-family="Helvetica,sans-Serif" font-size="10.00">LanguageToClassPath</text>
</a>
</g>
</g>
<!-- Node2&#45;&gt;Node7 -->
<g id="edge6" class="edge"><title>Node2&#45;&gt;Node7</title>
<path fill="none" stroke="midnightblue" d="M343.687,-79.1315C358.333,-77.3196 373.806,-75.4054 388.64,-73.5703"/>
<polygon fill="midnightblue" stroke="midnightblue" points="389.295,-77.0161 398.789,-72.3147 388.435,-70.069 389.295,-77.0161"/>
</g>
<!-- Node8 -->
<g id="node8" class="node"><title>Node8</title>
<g id="a_node8"><a xlink:href="../../d3/de0/classtranslator_1_1_translator.html#aaf98e6084c26cd5714d7e2a19eee8167" target="_top" xlink:title="translator.Translator.create\lReverseMapping">
<polygon fill="white" stroke="black" points="394.5,-0 394.5,-30 539.5,-30 539.5,-0 394.5,-0"/>
<text text-anchor="start" x="402.5" y="-18" font-family="Helvetica,sans-Serif" font-size="10.00">translator.Translator.create</text>
<text text-anchor="middle" x="467" y="-7" font-family="Helvetica,sans-Serif" font-size="10.00">ReverseMapping</text>
</a>
</g>
</g>
<!-- Node2&#45;&gt;Node8 -->
<g id="edge7" class="edge"><title>Node2&#45;&gt;Node8</title>
<path fill="none" stroke="midnightblue" d="M303.2,-72.7851C324.525,-62.7219 353.599,-49.6538 380,-40 386.475,-37.6321 393.288,-35.3345 400.127,-33.1537"/>
<polygon fill="midnightblue" stroke="midnightblue" points="401.616,-36.3561 410.128,-30.0478 399.54,-29.6711 401.616,-36.3561"/>
</g>
<!-- Node5 -->
<g id="node5" class="node"><title>Node5</title>
<g id="a_node5"><a xlink:href="../../d3/de0/classtranslator_1_1_translator.html#a1f98bdb6fe8a0b55cb19673a079dfdc7" target="_top" xlink:title="translator.Translator.find\lCommandName">
<polygon fill="white" stroke="black" points="590.5,-122 590.5,-152 721.5,-152 721.5,-122 590.5,-122"/>
<text text-anchor="start" x="598.5" y="-140" font-family="Helvetica,sans-Serif" font-size="10.00">translator.Translator.find</text>
<text text-anchor="middle" x="656" y="-129" font-family="Helvetica,sans-Serif" font-size="10.00">CommandName</text>
</a>
</g>
</g>
<!-- Node4&#45;&gt;Node5 -->
<g id="edge4" class="edge"><title>Node4&#45;&gt;Node5</title>
<path fill="none" stroke="midnightblue" d="M535.511,-121.665C550.047,-123.53 565.492,-125.512 580.283,-127.411"/>
<polygon fill="midnightblue" stroke="midnightblue" points="580.036,-130.908 590.4,-128.709 580.927,-123.964 580.036,-130.908"/>
</g>
<!-- Node6 -->
<g id="node6" class="node"><title>Node6</title>
<g id="a_node6"><a xlink:href="../../d3/de0/classtranslator_1_1_translator.html#a0271c7134aab7c2eb5a2a718ea765ad2" target="_top" xlink:title="translator.Translator.clip\lPathName">
<polygon fill="white" stroke="black" points="591,-73 591,-103 721,-103 721,-73 591,-73"/>
<text text-anchor="start" x="599" y="-91" font-family="Helvetica,sans-Serif" font-size="10.00">translator.Translator.clip</text>
<text text-anchor="middle" x="656" y="-80" font-family="Helvetica,sans-Serif" font-size="10.00">PathName</text>
</a>
</g>
</g>
<!-- Node4&#45;&gt;Node6 -->
<g id="edge5" class="edge"><title>Node4&#45;&gt;Node6</title>
<path fill="none" stroke="midnightblue" d="M535.511,-103.974C550.132,-102.02 565.673,-99.9422 580.543,-97.9542"/>
<polygon fill="midnightblue" stroke="midnightblue" points="581.263,-101.389 590.711,-96.5948 580.335,-94.4509 581.263,-101.389"/>
</g>
</g>
</svg>
