<?xml version="1.0" encoding="UTF-8" standalone="no"?>
<!DOCTYPE svg PUBLIC "-//W3C//DTD SVG 1.1//EN"
 "http://www.w3.org/Graphics/SVG/1.1/DTD/svg11.dtd">
<!-- Generated by graphviz version 2.36.0 (20140111.2315)
 -->
<!-- Title: translator.Translator.reverseTranslate Pages: 1 -->
<svg width="648pt" height="60pt"
 viewBox="0.00 0.00 648.00 60.00" xmlns="http://www.w3.org/2000/svg" xmlns:xlink="http://www.w3.org/1999/xlink">
<g id="graph0" class="graph" transform="scale(1 1) rotate(0) translate(4 56)">
<title>translator.Translator.reverseTranslate</title>
<polygon fill="white" stroke="none" points="-4,4 -4,-56 644,-56 644,4 -4,4"/>
<!-- Node1 -->
<g id="node1" class="node"><title>Node1</title>
<polygon fill="#bfbfbf" stroke="black" points="0,-11 0,-41 150,-41 150,-11 0,-11"/>
<text text-anchor="start" x="8" y="-29" font-family="Helvetica,sans-Serif" font-size="10.00">translator.Translator.reverse</text>
<text text-anchor="middle" x="75" y="-18" font-family="Helvetica,sans-Serif" font-size="10.00">Translate</text>
</g>
<!-- Node2 -->
<g id="node2" class="node"><title>Node2</title>
<g id="a_node2"><a xlink:href="../../da/dca/interfacecommand_parsing_1_1drawable_obect_generation_interfaces_1_1_user_defined_command_generator.html#ac81cc65aa45853102af451a42227ffba" target="_top" xlink:title="commandParsing.drawableObect\lGenerationInterfaces.UserDefined\lCommandGenerator.generateDrawableObject\lRepresentingCommand">
<polygon fill="white" stroke="black" points="186,-0 186,-52 422,-52 422,-0 186,-0"/>
<text text-anchor="start" x="194" y="-40" font-family="Helvetica,sans-Serif" font-size="10.00">commandParsing.drawableObect</text>
<text text-anchor="start" x="194" y="-29" font-family="Helvetica,sans-Serif" font-size="10.00">GenerationInterfaces.UserDefined</text>
<text text-anchor="start" x="194" y="-18" font-family="Helvetica,sans-Serif" font-size="10.00">CommandGenerator.generateDrawableObject</text>
<text text-anchor="middle" x="304" y="-7" font-family="Helvetica,sans-Serif" font-size="10.00">RepresentingCommand</text>
</a>
</g>
</g>
<!-- Node1&#45;&gt;Node2 -->
<g id="edge1" class="edge"><title>Node1&#45;&gt;Node2</title>
<path fill="none" stroke="midnightblue" d="M160.141,-26C168.549,-26 177.187,-26 185.854,-26"/>
<polygon fill="midnightblue" stroke="midnightblue" points="160.014,-22.5001 150.014,-26 160.014,-29.5001 160.014,-22.5001"/>
</g>
<!-- Node3 -->
<g id="node3" class="node"><title>Node3</title>
<g id="a_node3"><a xlink:href="../../d3/d58/classcommand_parsing_1_1user_command_parsing_1_1_make_user_instruction.html#ae874a4712e6685abea7e05c70b4bb7b7" target="_top" xlink:title="commandParsing.userCommand\lParsing.MakeUserInstruction.parse">
<polygon fill="white" stroke="black" points="458,-11 458,-41 640,-41 640,-11 458,-11"/>
<text text-anchor="start" x="466" y="-29" font-family="Helvetica,sans-Serif" font-size="10.00">commandParsing.userCommand</text>
<text text-anchor="middle" x="549" y="-18" font-family="Helvetica,sans-Serif" font-size="10.00">Parsing.MakeUserInstruction.parse</text>
</a>
</g>
</g>
<!-- Node2&#45;&gt;Node3 -->
<g id="edge2" class="edge"><title>Node2&#45;&gt;Node3</title>
<path fill="none" stroke="midnightblue" d="M432.37,-26C441.002,-26 449.594,-26 457.972,-26"/>
<polygon fill="midnightblue" stroke="midnightblue" points="432.229,-22.5001 422.229,-26 432.229,-29.5001 432.229,-22.5001"/>
</g>
</g>
</svg>
