<?xml version="1.0" encoding="UTF-8" standalone="no"?>
<!DOCTYPE svg PUBLIC "-//W3C//DTD SVG 1.1//EN"
 "http://www.w3.org/Graphics/SVG/1.1/DTD/svg11.dtd">
<!-- Generated by graphviz version 2.36.0 (20140111.2315)
 -->
<!-- Title: translator.Translator.createMappingsGivenLanguage Pages: 1 -->
<svg width="388pt" height="116pt"
 viewBox="0.00 0.00 388.00 116.00" xmlns="http://www.w3.org/2000/svg" xmlns:xlink="http://www.w3.org/1999/xlink">
<g id="graph0" class="graph" transform="scale(1 1) rotate(0) translate(4 112)">
<title>translator.Translator.createMappingsGivenLanguage</title>
<polygon fill="white" stroke="none" points="-4,4 -4,-112 384,-112 384,4 -4,4"/>
<!-- Node1 -->
<g id="node1" class="node"><title>Node1</title>
<polygon fill="#bfbfbf" stroke="black" points="0.5,-39 0.5,-69 145.5,-69 145.5,-39 0.5,-39"/>
<text text-anchor="start" x="8.5" y="-57" font-family="Helvetica,sans-Serif" font-size="10.00">translator.Translator.create</text>
<text text-anchor="middle" x="73" y="-46" font-family="Helvetica,sans-Serif" font-size="10.00">MappingsGivenLanguage</text>
</g>
<!-- Node2 -->
<g id="node2" class="node"><title>Node2</title>
<g id="a_node2"><a xlink:href="../../d4/d39/classcommand_parsing_1_1_set_language.html#a8d6c8cee20a89ad65ab09e0f77e974e9" target="_top" xlink:title="commandParsing.SetLanguage.parse">
<polygon fill="white" stroke="black" points="182.5,-88.5 182.5,-107.5 379.5,-107.5 379.5,-88.5 182.5,-88.5"/>
<text text-anchor="middle" x="281" y="-95.5" font-family="Helvetica,sans-Serif" font-size="10.00">commandParsing.SetLanguage.parse</text>
</a>
</g>
</g>
<!-- Node1&#45;&gt;Node2 -->
<g id="edge1" class="edge"><title>Node1&#45;&gt;Node2</title>
<path fill="none" stroke="midnightblue" d="M150.777,-71.2335C161.263,-73.5369 171.893,-75.8457 182,-78 198.304,-81.4749 216.161,-85.1561 232.114,-88.4003"/>
<polygon fill="midnightblue" stroke="midnightblue" points="151.309,-67.7668 140.79,-69.0321 149.802,-74.6027 151.309,-67.7668"/>
</g>
<!-- Node3 -->
<g id="node3" class="node"><title>Node3</title>
<g id="a_node3"><a xlink:href="../../df/d32/classtests_1_1command_tests_1_1_command_tester.html#a5bc41a0697edcc44372fff6a0a76b492" target="_top" xlink:title="tests.commandTests.Command\lTester.setUpTranslator">
<polygon fill="white" stroke="black" points="196,-39 196,-69 366,-69 366,-39 196,-39"/>
<text text-anchor="start" x="204" y="-57" font-family="Helvetica,sans-Serif" font-size="10.00">tests.commandTests.Command</text>
<text text-anchor="middle" x="281" y="-46" font-family="Helvetica,sans-Serif" font-size="10.00">Tester.setUpTranslator</text>
</a>
</g>
</g>
<!-- Node1&#45;&gt;Node3 -->
<g id="edge2" class="edge"><title>Node1&#45;&gt;Node3</title>
<path fill="none" stroke="midnightblue" d="M156.107,-54C169.156,-54 182.671,-54 195.768,-54"/>
<polygon fill="midnightblue" stroke="midnightblue" points="155.76,-50.5001 145.76,-54 155.76,-57.5001 155.76,-50.5001"/>
</g>
<!-- Node4 -->
<g id="node4" class="node"><title>Node4</title>
<g id="a_node4"><a xlink:href="../../d3/de0/classtranslator_1_1_translator.html#a4b1631651bb2f9db102677a4b3323688" target="_top" xlink:title="translator.Translator.Translator">
<polygon fill="white" stroke="black" points="200.5,-0.5 200.5,-19.5 361.5,-19.5 361.5,-0.5 200.5,-0.5"/>
<text text-anchor="middle" x="281" y="-7.5" font-family="Helvetica,sans-Serif" font-size="10.00">translator.Translator.Translator</text>
</a>
</g>
</g>
<!-- Node1&#45;&gt;Node4 -->
<g id="edge3" class="edge"><title>Node1&#45;&gt;Node4</title>
<path fill="none" stroke="midnightblue" d="M150.777,-36.7665C161.263,-34.4631 171.893,-32.1543 182,-30 198.304,-26.5251 216.161,-22.8439 232.114,-19.5997"/>
<polygon fill="midnightblue" stroke="midnightblue" points="149.802,-33.3973 140.79,-38.9679 151.309,-40.2332 149.802,-33.3973"/>
</g>
</g>
</svg>
