<?xml version="1.0" encoding="UTF-8" standalone="no"?>
<!DOCTYPE svg PUBLIC "-//W3C//DTD SVG 1.1//EN"
 "http://www.w3.org/Graphics/SVG/1.1/DTD/svg11.dtd">
<!-- Generated by graphviz version 2.36.0 (20140111.2315)
 -->
<!-- Title: translator.Translator.matchesListEndPattern Pages: 1 -->
<!--zoomable 409 -->
<svg id="main" version="1.1" xmlns="http://www.w3.org/2000/svg" xmlns:xlink="http://www.w3.org/1999/xlink" xml:space="preserve" onload="init(evt)">
<style type="text/css"><![CDATA[
.edge:hover path { stroke: red; }
.edge:hover polygon { stroke: red; fill: red; }
]]></style>
<script type="text/javascript"><![CDATA[
var edges = document.getElementsByTagName('g');
if (edges && edges.length) {
  for (var i=0;i<edges.length;i++) {
    if (edges[i].id.substr(0,4)=='edge') {
      edges[i].setAttribute('class','edge');
    }
  }
}
]]></script>
        <defs>
                <circle id="rim" cx="0" cy="0" r="7"/>
                <circle id="rim2" cx="0" cy="0" r="3.5"/>
                <g id="zoomPlus">
                        <use xlink:href="#rim" fill="#404040">
                                <set attributeName="fill" to="#808080" begin="zoomplus.mouseover" end="zoomplus.mouseout"/>
                        </use>
                        <path d="M-4,0h8M0,-4v8" fill="none" stroke="white" stroke-width="1.5" pointer-events="none"/>
                </g>
                <g id="zoomMin">
                        <use xlink:href="#rim" fill="#404040">
                                <set attributeName="fill" to="#808080" begin="zoomminus.mouseover" end="zoomminus.mouseout"/>
                        </use>
                        <path d="M-4,0h8" fill="none" stroke="white" stroke-width="1.5" pointer-events="none"/>
                </g>
                <g id="dirArrow">
                        <path fill="none" stroke="white" stroke-width="1.5" d="M0,-3.0v7 M-2.5,-0.5L0,-3.0L2.5,-0.5"/>
                </g>
               <g id="resetDef">
                       <use xlink:href="#rim2" fill="#404040">
                               <set attributeName="fill" to="#808080" begin="reset.mouseover" end="reset.mouseout"/>
                       </use>
               </g>
        </defs>

<script type="text/javascript">
var viewWidth = 992;
var viewHeight = 409;
var sectionId = 'dynsection-13';
</script>
<script xlink:href="../../svgpan.js"/>
<svg id="graph" class="graph">
<g id="viewport">
<title>translator.Translator.matchesListEndPattern</title>
<polygon fill="white" stroke="none" points="-4,4 -4,-405 988,-405 988,4 -4,4"/>
<!-- Node1 -->
<g id="node1" class="node"><title>Node1</title>
<polygon fill="#bfbfbf" stroke="black" points="0,-245 0,-275 156,-275 156,-245 0,-245"/>
<text text-anchor="start" x="8" y="-263" font-family="Helvetica,sans-Serif" font-size="10.00">translator.Translator.matches</text>
<text text-anchor="middle" x="78" y="-252" font-family="Helvetica,sans-Serif" font-size="10.00">ListEndPattern</text>
</g>
<!-- Node2 -->
<g id="node2" class="node"><title>Node2</title>
<g id="a_node2"><a xlink:href="../../de/dcc/classcommand_parsing_1_1structural_command_parsing_1_1_structural_command.html#a2994b759fcea15db18c7784af0fcae8c" target="_top" xlink:title="commandParsing.structural\lCommandParsing.StructuralCommand.check\lForClosingBrace">
<polygon fill="white" stroke="black" points="200.5,-299.5 200.5,-340.5 433.5,-340.5 433.5,-299.5 200.5,-299.5"/>
<text text-anchor="start" x="208.5" y="-328.5" font-family="Helvetica,sans-Serif" font-size="10.00">commandParsing.structural</text>
<text text-anchor="start" x="208.5" y="-317.5" font-family="Helvetica,sans-Serif" font-size="10.00">CommandParsing.StructuralCommand.check</text>
<text text-anchor="middle" x="317" y="-306.5" font-family="Helvetica,sans-Serif" font-size="10.00">ForClosingBrace</text>
</a>
</g>
</g>
<!-- Node1&#45;&gt;Node2 -->
<g id="edge1" class="edge"><title>Node1&#45;&gt;Node2</title>
<path fill="none" stroke="midnightblue" d="M148.299,-277.544C175.451,-284.418 206.792,-292.352 234.98,-299.489"/>
<polygon fill="midnightblue" stroke="midnightblue" points="149.052,-274.124 138.499,-275.063 147.334,-280.91 149.052,-274.124"/>
</g>
<!-- Node5 -->
<g id="node5" class="node"><title>Node5</title>
<g id="a_node5"><a xlink:href="../../de/dcc/classcommand_parsing_1_1structural_command_parsing_1_1_structural_command.html#aaba2d63efc66bac087cb3b36e2a65a41" target="_top" xlink:title="commandParsing.structural\lCommandParsing.StructuralCommand.extract\lCommandsBetweenBraces">
<polygon fill="white" stroke="black" points="478.5,-154.5 478.5,-195.5 717.5,-195.5 717.5,-154.5 478.5,-154.5"/>
<text text-anchor="start" x="486.5" y="-183.5" font-family="Helvetica,sans-Serif" font-size="10.00">commandParsing.structural</text>
<text text-anchor="start" x="486.5" y="-172.5" font-family="Helvetica,sans-Serif" font-size="10.00">CommandParsing.StructuralCommand.extract</text>
<text text-anchor="middle" x="598" y="-161.5" font-family="Helvetica,sans-Serif" font-size="10.00">CommandsBetweenBraces</text>
</a>
</g>
</g>
<!-- Node1&#45;&gt;Node5 -->
<g id="edge4" class="edge"><title>Node1&#45;&gt;Node5</title>
<path fill="none" stroke="midnightblue" d="M152.914,-242.862C165.907,-240.074 179.325,-237.338 192,-235 287.939,-217.304 397.418,-201.336 478.343,-190.33"/>
<polygon fill="midnightblue" stroke="midnightblue" points="152.109,-239.455 143.08,-244.998 153.595,-246.295 152.109,-239.455"/>
</g>
<!-- Node13 -->
<g id="node13" class="node"><title>Node13</title>
<g id="a_node13"><a xlink:href="../../de/dcc/classcommand_parsing_1_1structural_command_parsing_1_1_structural_command.html#a277f37ab3033f12c95cf3c79f4c13805" target="_top" xlink:title="commandParsing.structural\lCommandParsing.StructuralCommand.findBrace">
<polygon fill="white" stroke="black" points="192,-245 192,-275 442,-275 442,-245 192,-245"/>
<text text-anchor="start" x="200" y="-263" font-family="Helvetica,sans-Serif" font-size="10.00">commandParsing.structural</text>
<text text-anchor="middle" x="317" y="-252" font-family="Helvetica,sans-Serif" font-size="10.00">CommandParsing.StructuralCommand.findBrace</text>
</a>
</g>
</g>
<!-- Node1&#45;&gt;Node13 -->
<g id="edge12" class="edge"><title>Node1&#45;&gt;Node13</title>
<path fill="none" stroke="midnightblue" d="M166.367,-260C174.742,-260 183.34,-260 191.978,-260"/>
<polygon fill="midnightblue" stroke="midnightblue" points="166.275,-256.5 156.275,-260 166.275,-263.5 166.275,-256.5"/>
</g>
<!-- Node3 -->
<g id="node3" class="node"><title>Node3</title>
<g id="a_node3"><a xlink:href="../../d7/d10/classcommand_parsing_1_1structural_command_parsing_1_1_do_times.html#afb2baa6c526f8693dacb3da8d19648f7" target="_top" xlink:title="commandParsing.structural\lCommandParsing.DoTimes.initialize\lLoopVariableParameters">
<polygon fill="white" stroke="black" points="504,-359.5 504,-400.5 692,-400.5 692,-359.5 504,-359.5"/>
<text text-anchor="start" x="512" y="-388.5" font-family="Helvetica,sans-Serif" font-size="10.00">commandParsing.structural</text>
<text text-anchor="start" x="512" y="-377.5" font-family="Helvetica,sans-Serif" font-size="10.00">CommandParsing.DoTimes.initialize</text>
<text text-anchor="middle" x="598" y="-366.5" font-family="Helvetica,sans-Serif" font-size="10.00">LoopVariableParameters</text>
</a>
</g>
</g>
<!-- Node2&#45;&gt;Node3 -->
<g id="edge2" class="edge"><title>Node2&#45;&gt;Node3</title>
<path fill="none" stroke="midnightblue" d="M423.644,-342.719C450.027,-348.393 478.13,-354.437 503.858,-359.97"/>
<polygon fill="midnightblue" stroke="midnightblue" points="424.138,-339.245 413.626,-340.565 422.666,-346.089 424.138,-339.245"/>
</g>
<!-- Node4 -->
<g id="node4" class="node"><title>Node4</title>
<g id="a_node4"><a xlink:href="../../d3/d78/classcommand_parsing_1_1structural_command_parsing_1_1_for.html#a6b84827c7c254153b5a8171a10a4ba8c" target="_top" xlink:title="commandParsing.structural\lCommandParsing.For.initializeLoop\lVariableParameters">
<polygon fill="white" stroke="black" points="506.5,-299.5 506.5,-340.5 689.5,-340.5 689.5,-299.5 506.5,-299.5"/>
<text text-anchor="start" x="514.5" y="-328.5" font-family="Helvetica,sans-Serif" font-size="10.00">commandParsing.structural</text>
<text text-anchor="start" x="514.5" y="-317.5" font-family="Helvetica,sans-Serif" font-size="10.00">CommandParsing.For.initializeLoop</text>
<text text-anchor="middle" x="598" y="-306.5" font-family="Helvetica,sans-Serif" font-size="10.00">VariableParameters</text>
</a>
</g>
</g>
<!-- Node2&#45;&gt;Node4 -->
<g id="edge3" class="edge"><title>Node2&#45;&gt;Node4</title>
<path fill="none" stroke="midnightblue" d="M444.115,-320C465.013,-320 486.316,-320 506.123,-320"/>
<polygon fill="midnightblue" stroke="midnightblue" points="443.897,-316.5 433.897,-320 443.897,-323.5 443.897,-316.5"/>
</g>
<!-- Node6 -->
<g id="node6" class="node"><title>Node6</title>
<g id="a_node6"><a xlink:href="../../d7/d50/classcommand_parsing_1_1structural_command_parsing_1_1_ask.html#aa19ad64684414b0ef6112ac7e75e992d" target="_top" xlink:title="commandParsing.structural\lCommandParsing.Ask.parse">
<polygon fill="white" stroke="black" points="793,-147 793,-177 945,-177 945,-147 793,-147"/>
<text text-anchor="start" x="801" y="-165" font-family="Helvetica,sans-Serif" font-size="10.00">commandParsing.structural</text>
<text text-anchor="middle" x="869" y="-154" font-family="Helvetica,sans-Serif" font-size="10.00">CommandParsing.Ask.parse</text>
</a>
</g>
</g>
<!-- Node5&#45;&gt;Node6 -->
<g id="edge5" class="edge"><title>Node5&#45;&gt;Node6</title>
<path fill="none" stroke="midnightblue" d="M727.952,-168.768C750.162,-167.695 772.575,-166.612 792.761,-165.636"/>
<polygon fill="midnightblue" stroke="midnightblue" points="727.59,-165.281 717.77,-169.26 727.928,-172.273 727.59,-165.281"/>
</g>
<!-- Node7 -->
<g id="node7" class="node"><title>Node7</title>
<g id="a_node7"><a xlink:href="../../d5/dd6/classcommand_parsing_1_1structural_command_parsing_1_1_if_else.html#a00f4fac4f783a99448a471dd359c8e8e" target="_top" xlink:title="commandParsing.structural\lCommandParsing.IfElse.parse">
<polygon fill="white" stroke="black" points="789.5,-245 789.5,-275 948.5,-275 948.5,-245 789.5,-245"/>
<text text-anchor="start" x="797.5" y="-263" font-family="Helvetica,sans-Serif" font-size="10.00">commandParsing.structural</text>
<text text-anchor="middle" x="869" y="-252" font-family="Helvetica,sans-Serif" font-size="10.00">CommandParsing.IfElse.parse</text>
</a>
</g>
</g>
<!-- Node5&#45;&gt;Node7 -->
<g id="edge6" class="edge"><title>Node5&#45;&gt;Node7</title>
<path fill="none" stroke="midnightblue" d="M656.054,-199.503C685.021,-211.321 720.986,-225.054 754,-235 766.028,-238.624 778.917,-241.958 791.544,-244.932"/>
<polygon fill="midnightblue" stroke="midnightblue" points="657.092,-196.145 646.512,-195.576 654.428,-202.619 657.092,-196.145"/>
</g>
<!-- Node8 -->
<g id="node8" class="node"><title>Node8</title>
<g id="a_node8"><a xlink:href="../../db/da0/classcommand_parsing_1_1structural_command_parsing_1_1_tell.html#aaab258a057ef8d0fd8ff6980e59dc719" target="_top" xlink:title="commandParsing.structural\lCommandParsing.Tell.parse">
<polygon fill="white" stroke="black" points="794.5,-98 794.5,-128 943.5,-128 943.5,-98 794.5,-98"/>
<text text-anchor="start" x="802.5" y="-116" font-family="Helvetica,sans-Serif" font-size="10.00">commandParsing.structural</text>
<text text-anchor="middle" x="869" y="-105" font-family="Helvetica,sans-Serif" font-size="10.00">CommandParsing.Tell.parse</text>
</a>
</g>
</g>
<!-- Node5&#45;&gt;Node8 -->
<g id="edge7" class="edge"><title>Node5&#45;&gt;Node8</title>
<path fill="none" stroke="midnightblue" d="M690.349,-152.075C711.235,-146.981 733.361,-141.701 754,-137 767.213,-133.99 781.318,-130.912 794.944,-128.008"/>
<polygon fill="midnightblue" stroke="midnightblue" points="689.411,-148.701 680.53,-154.478 691.075,-155.5 689.411,-148.701"/>
</g>
<!-- Node9 -->
<g id="node9" class="node"><title>Node9</title>
<g id="a_node9"><a xlink:href="../../d3/d0e/classcommand_parsing_1_1structural_command_parsing_1_1_if.html#a89fd19125688d38678f4faff6ad679ed" target="_top" xlink:title="commandParsing.structural\lCommandParsing.If.parse">
<polygon fill="white" stroke="black" points="794.5,-294 794.5,-324 943.5,-324 943.5,-294 794.5,-294"/>
<text text-anchor="start" x="802.5" y="-312" font-family="Helvetica,sans-Serif" font-size="10.00">commandParsing.structural</text>
<text text-anchor="middle" x="869" y="-301" font-family="Helvetica,sans-Serif" font-size="10.00">CommandParsing.If.parse</text>
</a>
</g>
</g>
<!-- Node5&#45;&gt;Node9 -->
<g id="edge8" class="edge"><title>Node5&#45;&gt;Node9</title>
<path fill="none" stroke="midnightblue" d="M669.377,-199.79C686.404,-207.796 703.775,-217.826 718,-230 739.915,-248.755 730.183,-267.729 754,-284 765.962,-292.172 780.135,-297.73 794.351,-301.495"/>
<polygon fill="midnightblue" stroke="midnightblue" points="670.531,-196.471 659.976,-195.55 667.652,-202.852 670.531,-196.471"/>
</g>
<!-- Node10 -->
<g id="node10" class="node"><title>Node10</title>
<g id="a_node10"><a xlink:href="../../d7/d78/classcommand_parsing_1_1structural_command_parsing_1_1_ask_with.html#a934aa5eda34ccd0b9703e578753031fb" target="_top" xlink:title="commandParsing.structural\lCommandParsing.AskWith.parse">
<polygon fill="white" stroke="black" points="783,-49 783,-79 955,-79 955,-49 783,-49"/>
<text text-anchor="start" x="791" y="-67" font-family="Helvetica,sans-Serif" font-size="10.00">commandParsing.structural</text>
<text text-anchor="middle" x="869" y="-56" font-family="Helvetica,sans-Serif" font-size="10.00">CommandParsing.AskWith.parse</text>
</a>
</g>
</g>
<!-- Node5&#45;&gt;Node10 -->
<g id="edge9" class="edge"><title>Node5&#45;&gt;Node10</title>
<path fill="none" stroke="midnightblue" d="M637.707,-148.878C668.125,-129.46 712.197,-103.71 754,-88 763.182,-84.5492 772.977,-81.5444 782.823,-78.9407"/>
<polygon fill="midnightblue" stroke="midnightblue" points="635.616,-146.063 629.114,-154.428 639.413,-151.943 635.616,-146.063"/>
</g>
<!-- Node11 -->
<g id="node11" class="node"><title>Node11</title>
<g id="a_node11"><a xlink:href="../../d0/dfe/classcommand_parsing_1_1structural_command_parsing_1_1_recurring_command.html#a60a1b93f2283ed1f1d5957146b10619b" target="_top" xlink:title="commandParsing.structural\lCommandParsing.RecurringCommand.parse">
<polygon fill="white" stroke="black" points="754.5,-0 754.5,-30 983.5,-30 983.5,-0 754.5,-0"/>
<text text-anchor="start" x="762.5" y="-18" font-family="Helvetica,sans-Serif" font-size="10.00">commandParsing.structural</text>
<text text-anchor="middle" x="869" y="-7" font-family="Helvetica,sans-Serif" font-size="10.00">CommandParsing.RecurringCommand.parse</text>
</a>
</g>
</g>
<!-- Node5&#45;&gt;Node11 -->
<g id="edge10" class="edge"><title>Node5&#45;&gt;Node11</title>
<path fill="none" stroke="midnightblue" d="M622.86,-146.736C650.946,-115.389 700.577,-65.725 754,-39 760.874,-35.5615 768.218,-32.615 775.743,-30.0901"/>
<polygon fill="midnightblue" stroke="midnightblue" points="620.189,-144.472 616.194,-154.285 625.436,-149.105 620.189,-144.472"/>
</g>
<!-- Node12 -->
<g id="node12" class="node"><title>Node12</title>
<g id="a_node12"><a xlink:href="../../d3/d58/classcommand_parsing_1_1user_command_parsing_1_1_make_user_instruction.html#ae874a4712e6685abea7e05c70b4bb7b7" target="_top" xlink:title="commandParsing.userCommand\lParsing.MakeUserInstruction.parse">
<polygon fill="white" stroke="black" points="778,-196 778,-226 960,-226 960,-196 778,-196"/>
<text text-anchor="start" x="786" y="-214" font-family="Helvetica,sans-Serif" font-size="10.00">commandParsing.userCommand</text>
<text text-anchor="middle" x="869" y="-203" font-family="Helvetica,sans-Serif" font-size="10.00">Parsing.MakeUserInstruction.parse</text>
</a>
</g>
</g>
<!-- Node5&#45;&gt;Node12 -->
<g id="edge11" class="edge"><title>Node5&#45;&gt;Node12</title>
<path fill="none" stroke="midnightblue" d="M727.707,-192.225C744.621,-194.488 761.657,-196.768 777.743,-198.921"/>
<polygon fill="midnightblue" stroke="midnightblue" points="728.146,-188.752 717.77,-190.895 727.218,-195.691 728.146,-188.752"/>
</g>
<!-- Node14 -->
<g id="node14" class="node"><title>Node14</title>
<g id="a_node14"><a xlink:href="../../de/dcc/classcommand_parsing_1_1structural_command_parsing_1_1_structural_command.html#aca1700d80302bd0af8325ba9e2e13d21" target="_top" xlink:title="commandParsing.structural\lCommandParsing.StructuralCommand.ignore\lUntilClosingBrace">
<polygon fill="white" stroke="black" points="480.5,-239.5 480.5,-280.5 715.5,-280.5 715.5,-239.5 480.5,-239.5"/>
<text text-anchor="start" x="488.5" y="-268.5" font-family="Helvetica,sans-Serif" font-size="10.00">commandParsing.structural</text>
<text text-anchor="start" x="488.5" y="-257.5" font-family="Helvetica,sans-Serif" font-size="10.00">CommandParsing.StructuralCommand.ignore</text>
<text text-anchor="middle" x="598" y="-246.5" font-family="Helvetica,sans-Serif" font-size="10.00">UntilClosingBrace</text>
</a>
</g>
</g>
<!-- Node13&#45;&gt;Node14 -->
<g id="edge13" class="edge"><title>Node13&#45;&gt;Node14</title>
<path fill="none" stroke="midnightblue" d="M452.506,-260C461.834,-260 471.191,-260 480.411,-260"/>
<polygon fill="midnightblue" stroke="midnightblue" points="452.405,-256.5 442.405,-260 452.405,-263.5 452.405,-256.5"/>
</g>
<!-- Node14&#45;&gt;Node7 -->
<g id="edge15" class="edge"><title>Node14&#45;&gt;Node7</title>
<path fill="none" stroke="midnightblue" d="M726.028,-260C747.586,-260 769.4,-260 789.247,-260"/>
<polygon fill="midnightblue" stroke="midnightblue" points="725.814,-256.5 715.814,-260 725.814,-263.5 725.814,-256.5"/>
</g>
<!-- Node14&#45;&gt;Node9 -->
<g id="edge14" class="edge"><title>Node14&#45;&gt;Node9</title>
<path fill="none" stroke="midnightblue" d="M721.762,-282.362C746.589,-286.884 771.954,-291.505 794.438,-295.6"/>
<polygon fill="midnightblue" stroke="midnightblue" points="722.376,-278.916 711.911,-280.567 721.122,-285.803 722.376,-278.916"/>
</g>
</g>
</svg>
        <g id="navigator" transform="translate(0 0)" fill="#404254">
                <rect fill="#f2f5e9" fill-opacity="0.5" stroke="#606060" stroke-width=".5" x="0" y="0" width="60" height="60"/>
                <use id="zoomplus" xlink:href="#zoomPlus" x="17" y="9" onmousedown="handleZoom(evt,'in')"/>
                <use id="zoomminus" xlink:href="#zoomMin" x="42" y="9" onmousedown="handleZoom(evt,'out')"/>
                <use id="reset" xlink:href="#resetDef" x="30" y="36" onmousedown="handleReset()"/>
                <g id="arrowUp" xlink:href="#dirArrow" transform="translate(30 24)" onmousedown="handlePan(0,-1)">
                  <use xlink:href="#rim" fill="#404040">
                        <set attributeName="fill" to="#808080" begin="arrowUp.mouseover" end="arrowUp.mouseout"/>
                  </use>
                  <path fill="none" stroke="white" stroke-width="1.5" d="M0,-3.0v7 M-2.5,-0.5L0,-3.0L2.5,-0.5"/>
                </g>
                <g id="arrowRight" xlink:href="#dirArrow" transform="rotate(90) translate(36 -43)" onmousedown="handlePan(1,0)">
                  <use xlink:href="#rim" fill="#404040">
                        <set attributeName="fill" to="#808080" begin="arrowRight.mouseover" end="arrowRight.mouseout"/>
                  </use>
                  <path fill="none" stroke="white" stroke-width="1.5" d="M0,-3.0v7 M-2.5,-0.5L0,-3.0L2.5,-0.5"/>
                </g>
                <g id="arrowDown" xlink:href="#dirArrow" transform="rotate(180) translate(-30 -48)" onmousedown="handlePan(0,1)">
                  <use xlink:href="#rim" fill="#404040">
                        <set attributeName="fill" to="#808080" begin="arrowDown.mouseover" end="arrowDown.mouseout"/>
                  </use>
                  <path fill="none" stroke="white" stroke-width="1.5" d="M0,-3.0v7 M-2.5,-0.5L0,-3.0L2.5,-0.5"/>
                </g>
                <g id="arrowLeft" xlink:href="#dirArrow" transform="rotate(270) translate(-36 17)" onmousedown="handlePan(-1,0)">
                  <use xlink:href="#rim" fill="#404040">
                        <set attributeName="fill" to="#808080" begin="arrowLeft.mouseover" end="arrowLeft.mouseout"/>
                  </use>
                  <path fill="none" stroke="white" stroke-width="1.5" d="M0,-3.0v7 M-2.5,-0.5L0,-3.0L2.5,-0.5"/>
                </g>
        </g>
        <svg viewBox="0 0 15 15" width="100%" height="30px" preserveAspectRatio="xMaxYMin meet">
         <g id="arrow_out" transform="scale(0.3 0.3)">
          <a xlink:href="classtranslator_1_1_translator_abd79378932d164889d2d90c7783f1493_icgraph_org.svg" target="_base">
           <rect id="button" ry="5" rx="5" y="6" x="6" height="38" width="38"
                fill="#f2f5e9" fill-opacity="0.5" stroke="#606060" stroke-width="1.0"/>
           <path id="arrow"
             d="M 11.500037,31.436501 C 11.940474,20.09759 22.043105,11.32322 32.158766,21.979434 L 37.068811,17.246167 C 37.068811,17.246167 37.088388,32 37.088388,32 L 22.160133,31.978069 C 22.160133,31.978069 26.997745,27.140456 26.997745,27.140456 C 18.528582,18.264221 13.291696,25.230495 11.500037,31.436501 z"
             style="fill:#404040;"/>
          </a>
         </g>
        </svg>
</svg>
