<?xml version="1.0" encoding="UTF-8" standalone="no"?>
<!DOCTYPE svg PUBLIC "-//W3C//DTD SVG 1.1//EN"
 "http://www.w3.org/Graphics/SVG/1.1/DTD/svg11.dtd">
<!-- Generated by graphviz version 2.36.0 (20140111.2315)
 -->
<!-- Title: translator.Translator.matchesListStartPattern Pages: 1 -->
<svg width="992pt" height="338pt"
 viewBox="0.00 0.00 992.00 338.00" xmlns="http://www.w3.org/2000/svg" xmlns:xlink="http://www.w3.org/1999/xlink">
<g id="graph0" class="graph" transform="scale(1 1) rotate(0) translate(4 334)">
<title>translator.Translator.matchesListStartPattern</title>
<polygon fill="white" stroke="none" points="-4,4 -4,-334 988,-334 988,4 -4,4"/>
<!-- Node1 -->
<g id="node1" class="node"><title>Node1</title>
<polygon fill="#bfbfbf" stroke="black" points="0,-84 0,-114 156,-114 156,-84 0,-84"/>
<text text-anchor="start" x="8" y="-102" font-family="Helvetica,sans-Serif" font-size="10.00">translator.Translator.matches</text>
<text text-anchor="middle" x="78" y="-91" font-family="Helvetica,sans-Serif" font-size="10.00">ListStartPattern</text>
</g>
<!-- Node2 -->
<g id="node2" class="node"><title>Node2</title>
<g id="a_node2"><a xlink:href="../../de/dcc/classcommand_parsing_1_1structural_command_parsing_1_1_structural_command.html#a3f1054710afe4826d31938f0a74af315" target="_top" xlink:title="commandParsing.structural\lCommandParsing.StructuralCommand.check\lForOpeningBrace">
<polygon fill="white" stroke="black" points="200.5,-78.5 200.5,-119.5 433.5,-119.5 433.5,-78.5 200.5,-78.5"/>
<text text-anchor="start" x="208.5" y="-107.5" font-family="Helvetica,sans-Serif" font-size="10.00">commandParsing.structural</text>
<text text-anchor="start" x="208.5" y="-96.5" font-family="Helvetica,sans-Serif" font-size="10.00">CommandParsing.StructuralCommand.check</text>
<text text-anchor="middle" x="317" y="-85.5" font-family="Helvetica,sans-Serif" font-size="10.00">ForOpeningBrace</text>
</a>
</g>
</g>
<!-- Node1&#45;&gt;Node2 -->
<g id="edge1" class="edge"><title>Node1&#45;&gt;Node2</title>
<path fill="none" stroke="midnightblue" d="M166.286,-99C177.319,-99 188.741,-99 200.131,-99"/>
<polygon fill="midnightblue" stroke="midnightblue" points="166.275,-95.5001 156.275,-99 166.275,-102.5 166.275,-95.5001"/>
</g>
<!-- Node3 -->
<g id="node3" class="node"><title>Node3</title>
<g id="a_node3"><a xlink:href="../../de/dcc/classcommand_parsing_1_1structural_command_parsing_1_1_structural_command.html#aaba2d63efc66bac087cb3b36e2a65a41" target="_top" xlink:title="commandParsing.structural\lCommandParsing.StructuralCommand.extract\lCommandsBetweenBraces">
<polygon fill="white" stroke="black" points="478.5,-180.5 478.5,-221.5 717.5,-221.5 717.5,-180.5 478.5,-180.5"/>
<text text-anchor="start" x="486.5" y="-209.5" font-family="Helvetica,sans-Serif" font-size="10.00">commandParsing.structural</text>
<text text-anchor="start" x="486.5" y="-198.5" font-family="Helvetica,sans-Serif" font-size="10.00">CommandParsing.StructuralCommand.extract</text>
<text text-anchor="middle" x="598" y="-187.5" font-family="Helvetica,sans-Serif" font-size="10.00">CommandsBetweenBraces</text>
</a>
</g>
</g>
<!-- Node1&#45;&gt;Node3 -->
<g id="edge15" class="edge"><title>Node1&#45;&gt;Node3</title>
<path fill="none" stroke="midnightblue" d="M144.332,-116.629C159.901,-120.591 176.498,-124.618 192,-128 287.806,-148.899 397.295,-168.372 478.257,-181.94"/>
<polygon fill="midnightblue" stroke="midnightblue" points="144.828,-113.143 134.271,-114.043 143.085,-119.922 144.828,-113.143"/>
</g>
<!-- Node14 -->
<g id="node14" class="node"><title>Node14</title>
<g id="a_node14"><a xlink:href="../../de/dcc/classcommand_parsing_1_1structural_command_parsing_1_1_structural_command.html#a277f37ab3033f12c95cf3c79f4c13805" target="_top" xlink:title="commandParsing.structural\lCommandParsing.StructuralCommand.findBrace">
<polygon fill="white" stroke="black" points="192,-27 192,-57 442,-57 442,-27 192,-27"/>
<text text-anchor="start" x="200" y="-45" font-family="Helvetica,sans-Serif" font-size="10.00">commandParsing.structural</text>
<text text-anchor="middle" x="317" y="-34" font-family="Helvetica,sans-Serif" font-size="10.00">CommandParsing.StructuralCommand.findBrace</text>
</a>
</g>
</g>
<!-- Node1&#45;&gt;Node14 -->
<g id="edge16" class="edge"><title>Node1&#45;&gt;Node14</title>
<path fill="none" stroke="midnightblue" d="M143.461,-81.3494C159.298,-77.1614 176.233,-72.8076 192,-69 208.919,-64.9143 227.204,-60.779 244.402,-57.0139"/>
<polygon fill="midnightblue" stroke="midnightblue" points="142.526,-77.9761 133.762,-83.9292 144.326,-84.7409 142.526,-77.9761"/>
</g>
<!-- Node2&#45;&gt;Node3 -->
<g id="edge2" class="edge"><title>Node2&#45;&gt;Node3</title>
<path fill="none" stroke="midnightblue" d="M368.664,-124.026C399.716,-138.72 440.562,-156.915 478,-170 488.681,-173.733 500.041,-177.25 511.339,-180.479"/>
<polygon fill="midnightblue" stroke="midnightblue" points="369.889,-120.733 359.357,-119.587 366.876,-127.051 369.889,-120.733"/>
</g>
<!-- Node11 -->
<g id="node11" class="node"><title>Node11</title>
<g id="a_node11"><a xlink:href="../../de/dcc/classcommand_parsing_1_1structural_command_parsing_1_1_structural_command.html#aca1700d80302bd0af8325ba9e2e13d21" target="_top" xlink:title="commandParsing.structural\lCommandParsing.StructuralCommand.ignore\lUntilClosingBrace">
<polygon fill="white" stroke="black" points="480.5,-0.5 480.5,-41.5 715.5,-41.5 715.5,-0.5 480.5,-0.5"/>
<text text-anchor="start" x="488.5" y="-29.5" font-family="Helvetica,sans-Serif" font-size="10.00">commandParsing.structural</text>
<text text-anchor="start" x="488.5" y="-18.5" font-family="Helvetica,sans-Serif" font-size="10.00">CommandParsing.StructuralCommand.ignore</text>
<text text-anchor="middle" x="598" y="-7.5" font-family="Helvetica,sans-Serif" font-size="10.00">UntilClosingBrace</text>
</a>
</g>
</g>
<!-- Node2&#45;&gt;Node11 -->
<g id="edge10" class="edge"><title>Node2&#45;&gt;Node11</title>
<path fill="none" stroke="midnightblue" d="M411.436,-75.5851C421.808,-72.5563 432.169,-69.3392 442,-66 458.412,-60.4252 461.551,-56.4668 478,-51 488.008,-47.6737 498.595,-44.5121 509.163,-41.5758"/>
<polygon fill="midnightblue" stroke="midnightblue" points="410.154,-72.3113 401.505,-78.4292 412.082,-79.0408 410.154,-72.3113"/>
</g>
<!-- Node12 -->
<g id="node12" class="node"><title>Node12</title>
<g id="a_node12"><a xlink:href="../../d7/d10/classcommand_parsing_1_1structural_command_parsing_1_1_do_times.html#afb2baa6c526f8693dacb3da8d19648f7" target="_top" xlink:title="commandParsing.structural\lCommandParsing.DoTimes.initialize\lLoopVariableParameters">
<polygon fill="white" stroke="black" points="504,-120.5 504,-161.5 692,-161.5 692,-120.5 504,-120.5"/>
<text text-anchor="start" x="512" y="-149.5" font-family="Helvetica,sans-Serif" font-size="10.00">commandParsing.structural</text>
<text text-anchor="start" x="512" y="-138.5" font-family="Helvetica,sans-Serif" font-size="10.00">CommandParsing.DoTimes.initialize</text>
<text text-anchor="middle" x="598" y="-127.5" font-family="Helvetica,sans-Serif" font-size="10.00">LoopVariableParameters</text>
</a>
</g>
</g>
<!-- Node2&#45;&gt;Node12 -->
<g id="edge13" class="edge"><title>Node2&#45;&gt;Node12</title>
<path fill="none" stroke="midnightblue" d="M443.797,-117.937C464.042,-120.985 484.675,-124.091 503.97,-126.995"/>
<polygon fill="midnightblue" stroke="midnightblue" points="444.307,-114.475 433.897,-116.447 443.265,-121.397 444.307,-114.475"/>
</g>
<!-- Node13 -->
<g id="node13" class="node"><title>Node13</title>
<g id="a_node13"><a xlink:href="../../d3/d78/classcommand_parsing_1_1structural_command_parsing_1_1_for.html#a6b84827c7c254153b5a8171a10a4ba8c" target="_top" xlink:title="commandParsing.structural\lCommandParsing.For.initializeLoop\lVariableParameters">
<polygon fill="white" stroke="black" points="506.5,-60.5 506.5,-101.5 689.5,-101.5 689.5,-60.5 506.5,-60.5"/>
<text text-anchor="start" x="514.5" y="-89.5" font-family="Helvetica,sans-Serif" font-size="10.00">commandParsing.structural</text>
<text text-anchor="start" x="514.5" y="-78.5" font-family="Helvetica,sans-Serif" font-size="10.00">CommandParsing.For.initializeLoop</text>
<text text-anchor="middle" x="598" y="-67.5" font-family="Helvetica,sans-Serif" font-size="10.00">VariableParameters</text>
</a>
</g>
</g>
<!-- Node2&#45;&gt;Node13 -->
<g id="edge14" class="edge"><title>Node2&#45;&gt;Node13</title>
<path fill="none" stroke="midnightblue" d="M444.115,-90.8635C465.013,-89.5153 486.316,-88.1409 506.123,-86.863"/>
<polygon fill="midnightblue" stroke="midnightblue" points="443.651,-87.3861 433.897,-91.5228 444.102,-94.3716 443.651,-87.3861"/>
</g>
<!-- Node4 -->
<g id="node4" class="node"><title>Node4</title>
<g id="a_node4"><a xlink:href="../../d7/d50/classcommand_parsing_1_1structural_command_parsing_1_1_ask.html#aa19ad64684414b0ef6112ac7e75e992d" target="_top" xlink:title="commandParsing.structural\lCommandParsing.Ask.parse">
<polygon fill="white" stroke="black" points="793,-251 793,-281 945,-281 945,-251 793,-251"/>
<text text-anchor="start" x="801" y="-269" font-family="Helvetica,sans-Serif" font-size="10.00">commandParsing.structural</text>
<text text-anchor="middle" x="869" y="-258" font-family="Helvetica,sans-Serif" font-size="10.00">CommandParsing.Ask.parse</text>
</a>
</g>
</g>
<!-- Node3&#45;&gt;Node4 -->
<g id="edge3" class="edge"><title>Node3&#45;&gt;Node4</title>
<path fill="none" stroke="midnightblue" d="M686.207,-224.103C708.286,-229.787 731.983,-235.747 754,-241 767.993,-244.339 782.993,-247.749 797.366,-250.933"/>
<polygon fill="midnightblue" stroke="midnightblue" points="687.079,-220.713 676.522,-221.6 685.328,-227.491 687.079,-220.713"/>
</g>
<!-- Node5 -->
<g id="node5" class="node"><title>Node5</title>
<g id="a_node5"><a xlink:href="../../d5/dd6/classcommand_parsing_1_1structural_command_parsing_1_1_if_else.html#a00f4fac4f783a99448a471dd359c8e8e" target="_top" xlink:title="commandParsing.structural\lCommandParsing.IfElse.parse">
<polygon fill="white" stroke="black" points="789.5,-6 789.5,-36 948.5,-36 948.5,-6 789.5,-6"/>
<text text-anchor="start" x="797.5" y="-24" font-family="Helvetica,sans-Serif" font-size="10.00">commandParsing.structural</text>
<text text-anchor="middle" x="869" y="-13" font-family="Helvetica,sans-Serif" font-size="10.00">CommandParsing.IfElse.parse</text>
</a>
</g>
</g>
<!-- Node3&#45;&gt;Node5 -->
<g id="edge4" class="edge"><title>Node3&#45;&gt;Node5</title>
<path fill="none" stroke="midnightblue" d="M712.855,-174.576C714.636,-173.128 716.354,-171.604 718,-170 759.4,-129.646 711.657,-84.3632 754,-45 763.851,-35.8424 776.276,-29.823 789.274,-25.9293"/>
<polygon fill="midnightblue" stroke="midnightblue" points="710.755,-171.776 704.671,-180.449 714.836,-177.463 710.755,-171.776"/>
</g>
<!-- Node6 -->
<g id="node6" class="node"><title>Node6</title>
<g id="a_node6"><a xlink:href="../../db/da0/classcommand_parsing_1_1structural_command_parsing_1_1_tell.html#aaab258a057ef8d0fd8ff6980e59dc719" target="_top" xlink:title="commandParsing.structural\lCommandParsing.Tell.parse">
<polygon fill="white" stroke="black" points="794.5,-202 794.5,-232 943.5,-232 943.5,-202 794.5,-202"/>
<text text-anchor="start" x="802.5" y="-220" font-family="Helvetica,sans-Serif" font-size="10.00">commandParsing.structural</text>
<text text-anchor="middle" x="869" y="-209" font-family="Helvetica,sans-Serif" font-size="10.00">CommandParsing.Tell.parse</text>
</a>
</g>
</g>
<!-- Node3&#45;&gt;Node6 -->
<g id="edge5" class="edge"><title>Node3&#45;&gt;Node6</title>
<path fill="none" stroke="midnightblue" d="M727.871,-208.665C750.674,-210.021 773.693,-211.391 794.3,-212.616"/>
<polygon fill="midnightblue" stroke="midnightblue" points="727.961,-205.164 717.77,-208.064 727.545,-212.152 727.961,-205.164"/>
</g>
<!-- Node7 -->
<g id="node7" class="node"><title>Node7</title>
<g id="a_node7"><a xlink:href="../../d3/d0e/classcommand_parsing_1_1structural_command_parsing_1_1_if.html#a89fd19125688d38678f4faff6ad679ed" target="_top" xlink:title="commandParsing.structural\lCommandParsing.If.parse">
<polygon fill="white" stroke="black" points="794.5,-55 794.5,-85 943.5,-85 943.5,-55 794.5,-55"/>
<text text-anchor="start" x="802.5" y="-73" font-family="Helvetica,sans-Serif" font-size="10.00">commandParsing.structural</text>
<text text-anchor="middle" x="869" y="-62" font-family="Helvetica,sans-Serif" font-size="10.00">CommandParsing.If.parse</text>
</a>
</g>
</g>
<!-- Node3&#45;&gt;Node7 -->
<g id="edge6" class="edge"><title>Node3&#45;&gt;Node7</title>
<path fill="none" stroke="midnightblue" d="M711.498,-174.903C713.742,-173.36 715.914,-171.728 718,-170 746.787,-146.162 724.657,-117.15 754,-94 765.592,-84.855 779.842,-78.974 794.293,-75.2391"/>
<polygon fill="midnightblue" stroke="midnightblue" points="709.207,-172.202 702.517,-180.418 712.87,-178.168 709.207,-172.202"/>
</g>
<!-- Node8 -->
<g id="node8" class="node"><title>Node8</title>
<g id="a_node8"><a xlink:href="../../d7/d78/classcommand_parsing_1_1structural_command_parsing_1_1_ask_with.html#a934aa5eda34ccd0b9703e578753031fb" target="_top" xlink:title="commandParsing.structural\lCommandParsing.AskWith.parse">
<polygon fill="white" stroke="black" points="783,-153 783,-183 955,-183 955,-153 783,-153"/>
<text text-anchor="start" x="791" y="-171" font-family="Helvetica,sans-Serif" font-size="10.00">commandParsing.structural</text>
<text text-anchor="middle" x="869" y="-160" font-family="Helvetica,sans-Serif" font-size="10.00">CommandParsing.AskWith.parse</text>
</a>
</g>
</g>
<!-- Node3&#45;&gt;Node8 -->
<g id="edge7" class="edge"><title>Node3&#45;&gt;Node8</title>
<path fill="none" stroke="midnightblue" d="M727.836,-185.195C746.547,-182.899 765.404,-180.586 782.956,-178.433"/>
<polygon fill="midnightblue" stroke="midnightblue" points="727.27,-181.738 717.77,-186.43 728.122,-188.686 727.27,-181.738"/>
</g>
<!-- Node9 -->
<g id="node9" class="node"><title>Node9</title>
<g id="a_node9"><a xlink:href="../../d0/dfe/classcommand_parsing_1_1structural_command_parsing_1_1_recurring_command.html#a60a1b93f2283ed1f1d5957146b10619b" target="_top" xlink:title="commandParsing.structural\lCommandParsing.RecurringCommand.parse">
<polygon fill="white" stroke="black" points="754.5,-104 754.5,-134 983.5,-134 983.5,-104 754.5,-104"/>
<text text-anchor="start" x="762.5" y="-122" font-family="Helvetica,sans-Serif" font-size="10.00">commandParsing.structural</text>
<text text-anchor="middle" x="869" y="-111" font-family="Helvetica,sans-Serif" font-size="10.00">CommandParsing.RecurringCommand.parse</text>
</a>
</g>
</g>
<!-- Node3&#45;&gt;Node9 -->
<g id="edge8" class="edge"><title>Node3&#45;&gt;Node9</title>
<path fill="none" stroke="midnightblue" d="M701.901,-176.948C707.424,-174.807 712.826,-172.494 718,-170 736.016,-161.316 735.783,-151.256 754,-143 761.645,-139.535 769.807,-136.563 778.118,-134.015"/>
<polygon fill="midnightblue" stroke="midnightblue" points="700.693,-173.663 692.509,-180.392 703.103,-180.235 700.693,-173.663"/>
</g>
<!-- Node10 -->
<g id="node10" class="node"><title>Node10</title>
<g id="a_node10"><a xlink:href="../../d3/d58/classcommand_parsing_1_1user_command_parsing_1_1_make_user_instruction.html#ae874a4712e6685abea7e05c70b4bb7b7" target="_top" xlink:title="commandParsing.userCommand\lParsing.MakeUserInstruction.parse">
<polygon fill="white" stroke="black" points="778,-300 778,-330 960,-330 960,-300 778,-300"/>
<text text-anchor="start" x="786" y="-318" font-family="Helvetica,sans-Serif" font-size="10.00">commandParsing.userCommand</text>
<text text-anchor="middle" x="869" y="-307" font-family="Helvetica,sans-Serif" font-size="10.00">Parsing.MakeUserInstruction.parse</text>
</a>
</g>
</g>
<!-- Node3&#45;&gt;Node10 -->
<g id="edge9" class="edge"><title>Node3&#45;&gt;Node10</title>
<path fill="none" stroke="midnightblue" d="M637.086,-227.288C667.495,-247.163 711.847,-273.72 754,-290 763.923,-293.832 774.571,-297.144 785.228,-299.988"/>
<polygon fill="midnightblue" stroke="midnightblue" points="638.776,-224.21 628.504,-221.614 634.916,-230.049 638.776,-224.21"/>
</g>
<!-- Node11&#45;&gt;Node5 -->
<g id="edge12" class="edge"><title>Node11&#45;&gt;Node5</title>
<path fill="none" stroke="midnightblue" d="M726.028,-21C747.586,-21 769.4,-21 789.247,-21"/>
<polygon fill="midnightblue" stroke="midnightblue" points="725.814,-17.5001 715.814,-21 725.814,-24.5001 725.814,-17.5001"/>
</g>
<!-- Node11&#45;&gt;Node7 -->
<g id="edge11" class="edge"><title>Node11&#45;&gt;Node7</title>
<path fill="none" stroke="midnightblue" d="M721.762,-43.3618C746.589,-47.8842 771.954,-52.5046 794.438,-56.6002"/>
<polygon fill="midnightblue" stroke="midnightblue" points="722.376,-39.9162 711.911,-41.5674 721.122,-46.8029 722.376,-39.9162"/>
</g>
<!-- Node14&#45;&gt;Node11 -->
<g id="edge17" class="edge"><title>Node14&#45;&gt;Node11</title>
<path fill="none" stroke="midnightblue" d="M452.506,-31.8759C461.834,-31.1738 471.191,-30.4695 480.411,-29.7755"/>
<polygon fill="midnightblue" stroke="midnightblue" points="452.114,-28.3954 442.405,-32.6362 452.639,-35.3757 452.114,-28.3954"/>
</g>
</g>
</svg>
