<?xml version="1.0" encoding="UTF-8" standalone="no"?>
<!DOCTYPE svg PUBLIC "-//W3C//DTD SVG 1.1//EN"
 "http://www.w3.org/Graphics/SVG/1.1/DTD/svg11.dtd">
<!-- Generated by graphviz version 2.36.0 (20140111.2315)
 -->
<!-- Title: translator.Translator.clipPathName Pages: 1 -->
<svg width="728pt" height="116pt"
 viewBox="0.00 0.00 728.00 116.00" xmlns="http://www.w3.org/2000/svg" xmlns:xlink="http://www.w3.org/1999/xlink">
<g id="graph0" class="graph" transform="scale(1 1) rotate(0) translate(4 112)">
<title>translator.Translator.clipPathName</title>
<polygon fill="white" stroke="none" points="-4,4 -4,-112 724,-112 724,4 -4,4"/>
<!-- Node1 -->
<g id="node1" class="node"><title>Node1</title>
<polygon fill="#bfbfbf" stroke="black" points="0,-39 0,-69 130,-69 130,-39 0,-39"/>
<text text-anchor="start" x="8" y="-57" font-family="Helvetica,sans-Serif" font-size="10.00">translator.Translator.clip</text>
<text text-anchor="middle" x="65" y="-46" font-family="Helvetica,sans-Serif" font-size="10.00">PathName</text>
</g>
<!-- Node2 -->
<g id="node2" class="node"><title>Node2</title>
<g id="a_node2"><a xlink:href="../../d3/de0/classtranslator_1_1_translator.html#a493ea832263fd904551261076f06658d" target="_top" xlink:title="translator.Translator.build\lMapOfCommandPaths">
<polygon fill="white" stroke="black" points="166.5,-39 166.5,-69 303.5,-69 303.5,-39 166.5,-39"/>
<text text-anchor="start" x="174.5" y="-57" font-family="Helvetica,sans-Serif" font-size="10.00">translator.Translator.build</text>
<text text-anchor="middle" x="235" y="-46" font-family="Helvetica,sans-Serif" font-size="10.00">MapOfCommandPaths</text>
</a>
</g>
</g>
<!-- Node1&#45;&gt;Node2 -->
<g id="edge1" class="edge"><title>Node1&#45;&gt;Node2</title>
<path fill="none" stroke="midnightblue" d="M140.494,-54C149.103,-54 157.846,-54 166.356,-54"/>
<polygon fill="midnightblue" stroke="midnightblue" points="140.473,-50.5001 130.473,-54 140.473,-57.5001 140.473,-50.5001"/>
</g>
<!-- Node3 -->
<g id="node3" class="node"><title>Node3</title>
<g id="a_node3"><a xlink:href="../../d3/de0/classtranslator_1_1_translator.html#a5bb5ff750024d44ef3ced7efc65cabfa" target="_top" xlink:title="translator.Translator.create\lMappingsGivenLanguage">
<polygon fill="white" stroke="black" points="340.5,-39 340.5,-69 485.5,-69 485.5,-39 340.5,-39"/>
<text text-anchor="start" x="348.5" y="-57" font-family="Helvetica,sans-Serif" font-size="10.00">translator.Translator.create</text>
<text text-anchor="middle" x="413" y="-46" font-family="Helvetica,sans-Serif" font-size="10.00">MappingsGivenLanguage</text>
</a>
</g>
</g>
<!-- Node2&#45;&gt;Node3 -->
<g id="edge2" class="edge"><title>Node2&#45;&gt;Node3</title>
<path fill="none" stroke="midnightblue" d="M313.792,-54C322.594,-54 331.535,-54 340.255,-54"/>
<polygon fill="midnightblue" stroke="midnightblue" points="313.543,-50.5001 303.543,-54 313.543,-57.5001 313.543,-50.5001"/>
</g>
<!-- Node4 -->
<g id="node4" class="node"><title>Node4</title>
<g id="a_node4"><a xlink:href="../../d4/d39/classcommand_parsing_1_1_set_language.html#a8d6c8cee20a89ad65ab09e0f77e974e9" target="_top" xlink:title="commandParsing.SetLanguage.parse">
<polygon fill="white" stroke="black" points="522.5,-88.5 522.5,-107.5 719.5,-107.5 719.5,-88.5 522.5,-88.5"/>
<text text-anchor="middle" x="621" y="-95.5" font-family="Helvetica,sans-Serif" font-size="10.00">commandParsing.SetLanguage.parse</text>
</a>
</g>
</g>
<!-- Node3&#45;&gt;Node4 -->
<g id="edge3" class="edge"><title>Node3&#45;&gt;Node4</title>
<path fill="none" stroke="midnightblue" d="M490.777,-71.2335C501.263,-73.5369 511.893,-75.8457 522,-78 538.304,-81.4749 556.161,-85.1561 572.114,-88.4003"/>
<polygon fill="midnightblue" stroke="midnightblue" points="491.309,-67.7668 480.79,-69.0321 489.802,-74.6027 491.309,-67.7668"/>
</g>
<!-- Node5 -->
<g id="node5" class="node"><title>Node5</title>
<g id="a_node5"><a xlink:href="../../df/d32/classtests_1_1command_tests_1_1_command_tester.html#a5bc41a0697edcc44372fff6a0a76b492" target="_top" xlink:title="tests.commandTests.Command\lTester.setUpTranslator">
<polygon fill="white" stroke="black" points="536,-39 536,-69 706,-69 706,-39 536,-39"/>
<text text-anchor="start" x="544" y="-57" font-family="Helvetica,sans-Serif" font-size="10.00">tests.commandTests.Command</text>
<text text-anchor="middle" x="621" y="-46" font-family="Helvetica,sans-Serif" font-size="10.00">Tester.setUpTranslator</text>
</a>
</g>
</g>
<!-- Node3&#45;&gt;Node5 -->
<g id="edge4" class="edge"><title>Node3&#45;&gt;Node5</title>
<path fill="none" stroke="midnightblue" d="M496.107,-54C509.156,-54 522.671,-54 535.768,-54"/>
<polygon fill="midnightblue" stroke="midnightblue" points="495.76,-50.5001 485.76,-54 495.76,-57.5001 495.76,-50.5001"/>
</g>
<!-- Node6 -->
<g id="node6" class="node"><title>Node6</title>
<g id="a_node6"><a xlink:href="../../d3/de0/classtranslator_1_1_translator.html#a4b1631651bb2f9db102677a4b3323688" target="_top" xlink:title="translator.Translator.Translator">
<polygon fill="white" stroke="black" points="540.5,-0.5 540.5,-19.5 701.5,-19.5 701.5,-0.5 540.5,-0.5"/>
<text text-anchor="middle" x="621" y="-7.5" font-family="Helvetica,sans-Serif" font-size="10.00">translator.Translator.Translator</text>
</a>
</g>
</g>
<!-- Node3&#45;&gt;Node6 -->
<g id="edge5" class="edge"><title>Node3&#45;&gt;Node6</title>
<path fill="none" stroke="midnightblue" d="M490.777,-36.7665C501.263,-34.4631 511.893,-32.1543 522,-30 538.304,-26.5251 556.161,-22.8439 572.114,-19.5997"/>
<polygon fill="midnightblue" stroke="midnightblue" points="489.802,-33.3973 480.79,-38.9679 491.309,-40.2332 489.802,-33.3973"/>
</g>
</g>
</svg>
