<?xml version="1.0" encoding="UTF-8" standalone="no"?>
<!DOCTYPE svg PUBLIC "-//W3C//DTD SVG 1.1//EN"
 "http://www.w3.org/Graphics/SVG/1.1/DTD/svg11.dtd">
<!-- Generated by graphviz version 2.36.0 (20140111.2315)
 -->
<!-- Title: gui.mainclasses.workspace.WorkspaceManager Pages: 1 -->
<!--zoomable 348 -->
<svg id="main" version="1.1" xmlns="http://www.w3.org/2000/svg" xmlns:xlink="http://www.w3.org/1999/xlink" xml:space="preserve" onload="init(evt)">
<style type="text/css"><![CDATA[
.edge:hover path { stroke: red; }
.edge:hover polygon { stroke: red; fill: red; }
]]></style>
<script type="text/javascript"><![CDATA[
var edges = document.getElementsByTagName('g');
if (edges && edges.length) {
  for (var i=0;i<edges.length;i++) {
    if (edges[i].id.substr(0,4)=='edge') {
      edges[i].setAttribute('class','edge');
    }
  }
}
]]></script>
        <defs>
                <circle id="rim" cx="0" cy="0" r="7"/>
                <circle id="rim2" cx="0" cy="0" r="3.5"/>
                <g id="zoomPlus">
                        <use xlink:href="#rim" fill="#404040">
                                <set attributeName="fill" to="#808080" begin="zoomplus.mouseover" end="zoomplus.mouseout"/>
                        </use>
                        <path d="M-4,0h8M0,-4v8" fill="none" stroke="white" stroke-width="1.5" pointer-events="none"/>
                </g>
                <g id="zoomMin">
                        <use xlink:href="#rim" fill="#404040">
                                <set attributeName="fill" to="#808080" begin="zoomminus.mouseover" end="zoomminus.mouseout"/>
                        </use>
                        <path d="M-4,0h8" fill="none" stroke="white" stroke-width="1.5" pointer-events="none"/>
                </g>
                <g id="dirArrow">
                        <path fill="none" stroke="white" stroke-width="1.5" d="M0,-3.0v7 M-2.5,-0.5L0,-3.0L2.5,-0.5"/>
                </g>
               <g id="resetDef">
                       <use xlink:href="#rim2" fill="#404040">
                               <set attributeName="fill" to="#808080" begin="reset.mouseover" end="reset.mouseout"/>
                       </use>
               </g>
        </defs>

<script type="text/javascript">
var viewWidth = 1614;
var viewHeight = 348;
var sectionId = 'dynsection-1';
</script>
<script xlink:href="../../svgpan.js"/>
<svg id="graph" class="graph">
<g id="viewport">
<title>gui.mainclasses.workspace.WorkspaceManager</title>
<polygon fill="white" stroke="none" points="-4,4 -4,-344 1610,-344 1610,4 -4,4"/>
<!-- Node1 -->
<g id="node1" class="node"><title>Node1</title>
<polygon fill="#bfbfbf" stroke="black" points="1168.5,-22 1168.5,-52 1317.5,-52 1317.5,-22 1168.5,-22"/>
<text text-anchor="start" x="1176.5" y="-40" font-family="Helvetica,sans-Serif" font-size="10.00">gui.mainclasses.workspace.</text>
<text text-anchor="middle" x="1243" y="-29" font-family="Helvetica,sans-Serif" font-size="10.00">WorkspaceManager</text>
</g>
<!-- Node2 -->
<g id="node2" class="node"><title>Node2</title>
<polygon fill="white" stroke="#bfbfbf" points="903,-27.5 903,-46.5 959,-46.5 959,-27.5 903,-27.5"/>
<text text-anchor="middle" x="931" y="-34.5" font-family="Helvetica,sans-Serif" font-size="10.00">TabPane</text>
</g>
<!-- Node2&#45;&gt;Node1 -->
<g id="edge1" class="edge"><title>Node2&#45;&gt;Node1</title>
<path fill="none" stroke="midnightblue" d="M969.404,-37C1018.5,-37 1105.76,-37 1168.34,-37"/>
<polygon fill="midnightblue" stroke="midnightblue" points="969.239,-33.5001 959.239,-37 969.239,-40.5001 969.239,-33.5001"/>
</g>
<!-- Node3 -->
<g id="node3" class="node"><title>Node3</title>
<g id="a_node3"><a xlink:href="../../d8/df2/classgui_1_1mainclasses_1_1workspace_1_1_workspace.html" target="_top" xlink:title="gui.mainclasses.workspace.\lWorkspace">
<polygon fill="white" stroke="black" points="856.5,-101 856.5,-131 1005.5,-131 1005.5,-101 856.5,-101"/>
<text text-anchor="start" x="864.5" y="-119" font-family="Helvetica,sans-Serif" font-size="10.00">gui.mainclasses.workspace.</text>
<text text-anchor="middle" x="931" y="-108" font-family="Helvetica,sans-Serif" font-size="10.00">Workspace</text>
</a>
</g>
</g>
<!-- Node3&#45;&gt;Node1 -->
<g id="edge2" class="edge"><title>Node3&#45;&gt;Node1</title>
<path fill="none" stroke="#9a32cd" stroke-dasharray="5,2" d="M969.318,-96.3897C987.745,-87.443 1010.57,-77.4336 1032,-71 1076.22,-57.7242 1127.32,-49.3068 1168.04,-44.1685"/>
<polygon fill="#9a32cd" stroke="#9a32cd" points="967.523,-93.3731 960.114,-100.947 970.629,-99.6463 967.523,-93.3731"/>
<text text-anchor="middle" x="1082" y="-74" font-family="Helvetica,sans-Serif" font-size="10.00"> myActiveWorkspace</text>
</g>
<!-- Node16 -->
<g id="node16" class="node"><title>Node16</title>
<g id="a_node16"><a xlink:href="../../dd/d25/classgui_1_1factories_1_1turtlefactory_1_1_turtle_nodes.html" target="_top" xlink:title="gui.factories.turtlefactory.\lTurtleNodes">
<polygon fill="white" stroke="black" points="1174,-164 1174,-194 1312,-194 1312,-164 1174,-164"/>
<text text-anchor="start" x="1182" y="-182" font-family="Helvetica,sans-Serif" font-size="10.00">gui.factories.turtlefactory.</text>
<text text-anchor="middle" x="1243" y="-171" font-family="Helvetica,sans-Serif" font-size="10.00">TurtleNodes</text>
</a>
</g>
</g>
<!-- Node3&#45;&gt;Node16 -->
<g id="edge18" class="edge"><title>Node3&#45;&gt;Node16</title>
<path fill="none" stroke="#9a32cd" stroke-dasharray="5,2" d="M999.375,-133.487C1010.25,-136.126 1021.42,-138.723 1032,-141 1079.09,-151.135 1132.5,-160.775 1173.68,-167.811"/>
<polygon fill="#9a32cd" stroke="#9a32cd" points="1000.03,-130.045 989.488,-131.061 998.365,-136.844 1000.03,-130.045"/>
<text text-anchor="middle" x="1082" y="-164" font-family="Helvetica,sans-Serif" font-size="10.00"> myWorkspace</text>
</g>
<!-- Node4 -->
<g id="node4" class="node"><title>Node4</title>
<polygon fill="white" stroke="#bfbfbf" points="584,-187.5 584,-206.5 616,-206.5 616,-187.5 584,-187.5"/>
<text text-anchor="middle" x="600" y="-194.5" font-family="Helvetica,sans-Serif" font-size="10.00">Tab</text>
</g>
<!-- Node4&#45;&gt;Node3 -->
<g id="edge3" class="edge"><title>Node4&#45;&gt;Node3</title>
<path fill="none" stroke="midnightblue" d="M626.268,-193.968C668.855,-188.503 757.387,-175.615 830,-155 852.408,-148.638 876.775,-139.191 895.845,-131.188"/>
<polygon fill="midnightblue" stroke="midnightblue" points="625.719,-190.509 616.232,-195.226 626.59,-197.455 625.719,-190.509"/>
</g>
<!-- Node5 -->
<g id="node5" class="node"><title>Node5</title>
<g id="a_node5"><a xlink:href="../../d0/d23/classgui_1_1mainclasses_1_1workspace_1_1_workspace_data_holder.html" target="_top" xlink:title="gui.mainclasses.workspace.\lWorkspaceDataHolder">
<polygon fill="white" stroke="black" points="525.5,-138 525.5,-168 674.5,-168 674.5,-138 525.5,-138"/>
<text text-anchor="start" x="533.5" y="-156" font-family="Helvetica,sans-Serif" font-size="10.00">gui.mainclasses.workspace.</text>
<text text-anchor="middle" x="600" y="-145" font-family="Helvetica,sans-Serif" font-size="10.00">WorkspaceDataHolder</text>
</a>
</g>
</g>
<!-- Node5&#45;&gt;Node3 -->
<g id="edge4" class="edge"><title>Node5&#45;&gt;Node3</title>
<path fill="none" stroke="#9a32cd" stroke-dasharray="5,2" d="M684.877,-143.567C737.82,-137.613 805.564,-129.994 856.412,-124.276"/>
<polygon fill="#9a32cd" stroke="#9a32cd" points="684.38,-140.101 674.834,-144.696 685.163,-147.057 684.38,-140.101"/>
<text text-anchor="middle" x="773" y="-143" font-family="Helvetica,sans-Serif" font-size="10.00"> myDataHolder</text>
</g>
<!-- Node6 -->
<g id="node6" class="node"><title>Node6</title>
<polygon fill="white" stroke="#bfbfbf" points="0.5,-235 0.5,-265 319.5,-265 319.5,-235 0.5,-235"/>
<text text-anchor="start" x="8.5" y="-253" font-family="Helvetica,sans-Serif" font-size="10.00">ObservableList&lt; gui.nonbuttonfeatures.tableviews.imageindex.</text>
<text text-anchor="middle" x="160" y="-242" font-family="Helvetica,sans-Serif" font-size="10.00">ImageIndex &gt;</text>
</g>
<!-- Node6&#45;&gt;Node5 -->
<g id="edge5" class="edge"><title>Node6&#45;&gt;Node5</title>
<path fill="none" stroke="#9a32cd" stroke-dasharray="5,2" d="M267.177,-233.325C284.82,-230.548 302.926,-227.696 320,-225 392.896,-213.491 419.581,-235.008 484,-199 494.73,-193.002 491.567,-184.501 502,-178 509.232,-173.494 517.25,-169.797 525.487,-166.764"/>
<polygon fill="#9a32cd" stroke="#9a32cd" points="266.188,-229.937 256.854,-234.949 267.276,-236.852 266.188,-229.937"/>
<text text-anchor="middle" x="411" y="-226" font-family="Helvetica,sans-Serif" font-size="10.00"> myImageIndexList</text>
</g>
<!-- Node7 -->
<g id="node7" class="node"><title>Node7</title>
<polygon fill="white" stroke="#bfbfbf" points="4,-186 4,-216 316,-216 316,-186 4,-186"/>
<text text-anchor="start" x="12" y="-204" font-family="Helvetica,sans-Serif" font-size="10.00">ObservableList&lt; gui.nonbuttonfeatures.tableviews.colorindex.</text>
<text text-anchor="middle" x="160" y="-193" font-family="Helvetica,sans-Serif" font-size="10.00">ColorIndex &gt;</text>
</g>
<!-- Node7&#45;&gt;Node5 -->
<g id="edge6" class="edge"><title>Node7&#45;&gt;Node5</title>
<path fill="none" stroke="#9a32cd" stroke-dasharray="5,2" d="M326.401,-184.997C377.01,-179.859 432.821,-173.951 484,-168 497.4,-166.442 511.663,-164.672 525.419,-162.908"/>
<polygon fill="#9a32cd" stroke="#9a32cd" points="325.948,-181.525 316.351,-186.014 326.653,-188.489 325.948,-181.525"/>
<text text-anchor="middle" x="411" y="-187" font-family="Helvetica,sans-Serif" font-size="10.00"> myColorIndexList</text>
</g>
<!-- Node8 -->
<g id="node8" class="node"><title>Node8</title>
<polygon fill="white" stroke="#bfbfbf" points="72.5,-137 72.5,-167 247.5,-167 247.5,-137 72.5,-137"/>
<text text-anchor="start" x="80.5" y="-155" font-family="Helvetica,sans-Serif" font-size="10.00">ObservableList&lt; gui.variableslist.</text>
<text text-anchor="middle" x="160" y="-144" font-family="Helvetica,sans-Serif" font-size="10.00">WorkspaceVariable &gt;</text>
</g>
<!-- Node8&#45;&gt;Node5 -->
<g id="edge7" class="edge"><title>Node8&#45;&gt;Node5</title>
<path fill="none" stroke="#9a32cd" stroke-dasharray="5,2" d="M257.71,-152.221C338.457,-152.405 451.85,-152.664 525.374,-152.832"/>
<polygon fill="#9a32cd" stroke="#9a32cd" points="257.543,-148.721 247.535,-152.198 257.527,-155.72 257.543,-148.721"/>
<text text-anchor="middle" x="411" y="-156" font-family="Helvetica,sans-Serif" font-size="10.00"> myVariablesList</text>
</g>
<!-- Node9 -->
<g id="node9" class="node"><title>Node9</title>
<polygon fill="white" stroke="#bfbfbf" points="91,-98.5 91,-117.5 229,-117.5 229,-98.5 91,-98.5"/>
<text text-anchor="middle" x="160" y="-105.5" font-family="Helvetica,sans-Serif" font-size="10.00">ObservableList&lt; String &gt;</text>
</g>
<!-- Node9&#45;&gt;Node5 -->
<g id="edge8" class="edge"><title>Node9&#45;&gt;Node5</title>
<path fill="none" stroke="#9a32cd" stroke-dasharray="5,2" d="M239.33,-109.029C304.963,-110.746 400.98,-115.254 484,-127 502.747,-129.652 522.961,-133.783 541.134,-137.976"/>
<polygon fill="#9a32cd" stroke="#9a32cd" points="239.147,-105.523 229.064,-108.776 238.975,-112.521 239.147,-105.523"/>
<text text-anchor="middle" x="411" y="-141" font-family="Helvetica,sans-Serif" font-size="10.00"> myPreviousCommandsList</text>
<text text-anchor="middle" x="411" y="-130" font-family="Helvetica,sans-Serif" font-size="10.00">mySavedCommandsList</text>
</g>
<!-- Node10 -->
<g id="node10" class="node"><title>Node10</title>
<polygon fill="white" stroke="#bfbfbf" points="23.5,-49 23.5,-79 296.5,-79 296.5,-49 23.5,-49"/>
<text text-anchor="start" x="31.5" y="-67" font-family="Helvetica,sans-Serif" font-size="10.00">ObservableList&lt; gui.factories.userdefinedcommands.</text>
<text text-anchor="middle" x="160" y="-56" font-family="Helvetica,sans-Serif" font-size="10.00">DisplayedUserCommand &gt;</text>
</g>
<!-- Node10&#45;&gt;Node5 -->
<g id="edge9" class="edge"><title>Node10&#45;&gt;Node5</title>
<path fill="none" stroke="#9a32cd" stroke-dasharray="5,2" d="M306.806,-52.9829C365.746,-55.0633 431.988,-66.2736 484,-99 496.84,-107.079 489.776,-119.017 502,-128 509.007,-133.149 516.977,-137.241 525.266,-140.491"/>
<polygon fill="#9a32cd" stroke="#9a32cd" points="306.745,-49.48 296.655,-52.7111 306.557,-56.4775 306.745,-49.48"/>
<text text-anchor="middle" x="411" y="-102" font-family="Helvetica,sans-Serif" font-size="10.00"> myUserDefinedCommandList</text>
</g>
<!-- Node11 -->
<g id="node11" class="node"><title>Node11</title>
<polygon fill="white" stroke="#bfbfbf" points="502.5,-89 502.5,-119 697.5,-119 697.5,-89 502.5,-89"/>
<text text-anchor="start" x="510.5" y="-107" font-family="Helvetica,sans-Serif" font-size="10.00">Map&lt; String, gui.componentdrawers.</text>
<text text-anchor="middle" x="600" y="-96" font-family="Helvetica,sans-Serif" font-size="10.00">ComponentDrawer &gt;</text>
</g>
<!-- Node11&#45;&gt;Node3 -->
<g id="edge10" class="edge"><title>Node11&#45;&gt;Node3</title>
<path fill="none" stroke="#9a32cd" stroke-dasharray="5,2" d="M708.162,-107.909C756.682,-109.678 812.809,-111.726 856.467,-113.318"/>
<polygon fill="#9a32cd" stroke="#9a32cd" points="708.052,-104.402 697.931,-107.535 707.797,-111.398 708.052,-104.402"/>
<text text-anchor="middle" x="773" y="-116" font-family="Helvetica,sans-Serif" font-size="10.00"> myComponentDrawers</text>
</g>
<!-- Node12 -->
<g id="node12" class="node"><title>Node12</title>
<g id="a_node12"><a xlink:href="../../dd/d4c/classgui_1_1componentdrawers_1_1_turtle_screen_drawer.html" target="_top" xlink:title="gui.componentdrawers.Turtle\lScreenDrawer">
<polygon fill="white" stroke="black" points="1450.5,-186 1450.5,-216 1605.5,-216 1605.5,-186 1450.5,-186"/>
<text text-anchor="start" x="1458.5" y="-204" font-family="Helvetica,sans-Serif" font-size="10.00">gui.componentdrawers.Turtle</text>
<text text-anchor="middle" x="1528" y="-193" font-family="Helvetica,sans-Serif" font-size="10.00">ScreenDrawer</text>
</a>
</g>
</g>
<!-- Node12&#45;&gt;Node3 -->
<g id="edge11" class="edge"><title>Node12&#45;&gt;Node3</title>
<path fill="none" stroke="#9a32cd" stroke-dasharray="5,2" d="M1497.11,-180.158C1460.93,-156.355 1397.22,-118.91 1336,-105 1222.93,-79.3099 1087.5,-91.3696 1005.69,-103.148"/>
<polygon fill="#9a32cd" stroke="#9a32cd" points="1495.44,-183.249 1505.7,-185.893 1499.33,-177.428 1495.44,-183.249"/>
<text text-anchor="middle" x="1243" y="-108" font-family="Helvetica,sans-Serif" font-size="10.00"> myTurtleScreenDrawer</text>
</g>
<!-- Node13 -->
<g id="node13" class="node"><title>Node13</title>
<g id="a_node13"><a xlink:href="../../d0/dda/classgui_1_1componentdrawers_1_1_component_drawer.html" target="_top" xlink:title="gui.componentdrawers.Component\lDrawer">
<polygon fill="white" stroke="black" points="1150.5,-213 1150.5,-243 1335.5,-243 1335.5,-213 1150.5,-213"/>
<text text-anchor="start" x="1158.5" y="-231" font-family="Helvetica,sans-Serif" font-size="10.00">gui.componentdrawers.Component</text>
<text text-anchor="middle" x="1243" y="-220" font-family="Helvetica,sans-Serif" font-size="10.00">Drawer</text>
</a>
</g>
</g>
<!-- Node13&#45;&gt;Node12 -->
<g id="edge12" class="edge"><title>Node13&#45;&gt;Node12</title>
<path fill="none" stroke="midnightblue" d="M1345.96,-218.272C1380.36,-214.991 1418.14,-211.386 1450.25,-208.322"/>
<polygon fill="midnightblue" stroke="midnightblue" points="1345.5,-214.8 1335.88,-219.234 1346.17,-221.768 1345.5,-214.8"/>
</g>
<!-- Node14 -->
<g id="node14" class="node"><title>Node14</title>
<polygon fill="white" stroke="#bfbfbf" points="911,-270.5 911,-289.5 951,-289.5 951,-270.5 911,-270.5"/>
<text text-anchor="middle" x="931" y="-277.5" font-family="Helvetica,sans-Serif" font-size="10.00">Pane</text>
</g>
<!-- Node14&#45;&gt;Node12 -->
<g id="edge16" class="edge"><title>Node14&#45;&gt;Node12</title>
<path fill="none" stroke="#9a32cd" stroke-dasharray="5,2" d="M961.253,-279.73C1028.07,-278.73 1196.88,-274.036 1336,-252 1379.44,-245.12 1389.51,-239.346 1432,-228 1446.08,-224.24 1461.28,-220 1475.31,-216.014"/>
<polygon fill="#9a32cd" stroke="#9a32cd" points="961.017,-276.233 951.065,-279.865 961.11,-283.232 961.017,-276.233"/>
<text text-anchor="middle" x="1243" y="-275" font-family="Helvetica,sans-Serif" font-size="10.00"> myGrid</text>
</g>
<!-- Node14&#45;&gt;Node13 -->
<g id="edge13" class="edge"><title>Node14&#45;&gt;Node13</title>
<path fill="none" stroke="midnightblue" d="M961.281,-275.088C1004.67,-267.81 1087.88,-253.853 1152.48,-243.016"/>
<polygon fill="midnightblue" stroke="midnightblue" points="960.675,-271.641 951.392,-276.747 961.833,-278.545 960.675,-271.641"/>
</g>
<!-- Node15 -->
<g id="node15" class="node"><title>Node15</title>
<g id="a_node15"><a xlink:href="../../dd/d6a/classgui_1_1nonbuttonfeatures_1_1_turtle_screen_feature.html" target="_top" xlink:title="gui.nonbuttonfeatures.Turtle\lScreenFeature">
<polygon fill="white" stroke="black" points="1167,-310 1167,-340 1319,-340 1319,-310 1167,-310"/>
<text text-anchor="start" x="1175" y="-328" font-family="Helvetica,sans-Serif" font-size="10.00">gui.nonbuttonfeatures.Turtle</text>
<text text-anchor="middle" x="1243" y="-317" font-family="Helvetica,sans-Serif" font-size="10.00">ScreenFeature</text>
</a>
</g>
</g>
<!-- Node14&#45;&gt;Node15 -->
<g id="edge15" class="edge"><title>Node14&#45;&gt;Node15</title>
<path fill="none" stroke="midnightblue" d="M961.449,-284.275C1008.21,-291.063 1100.9,-304.518 1166.94,-314.104"/>
<polygon fill="midnightblue" stroke="midnightblue" points="961.791,-280.788 951.392,-282.815 960.785,-287.715 961.791,-280.788"/>
</g>
<!-- Node15&#45;&gt;Node12 -->
<g id="edge14" class="edge"><title>Node15&#45;&gt;Node12</title>
<path fill="none" stroke="#9a32cd" stroke-dasharray="5,2" d="M1329.33,-321.924C1362.77,-317.965 1400.58,-309.924 1432,-294 1468.85,-275.323 1500.61,-237.296 1516.39,-216.11"/>
<polygon fill="#9a32cd" stroke="#9a32cd" points="1328.66,-318.475 1319.1,-323.027 1329.41,-325.435 1328.66,-318.475"/>
<text text-anchor="middle" x="1393" y="-321" font-family="Helvetica,sans-Serif" font-size="10.00"> myTurtleScreen</text>
</g>
<!-- Node16&#45;&gt;Node3 -->
<g id="edge22" class="edge"><title>Node16&#45;&gt;Node3</title>
<path fill="none" stroke="#9a32cd" stroke-dasharray="5,2" d="M1164.4,-162.343C1159.34,-159.929 1154.48,-157.165 1150,-154 1138.52,-145.888 1144.25,-134.893 1132,-128 1110.89,-116.122 1053.57,-113.616 1005.68,-113.8"/>
<polygon fill="#9a32cd" stroke="#9a32cd" points="1163.14,-165.609 1173.71,-166.322 1165.89,-159.173 1163.14,-165.609"/>
<text text-anchor="middle" x="1082" y="-131" font-family="Helvetica,sans-Serif" font-size="10.00"> myTurtleNodes</text>
</g>
<!-- Node16&#45;&gt;Node12 -->
<g id="edge17" class="edge"><title>Node16&#45;&gt;Node12</title>
<path fill="none" stroke="#9a32cd" stroke-dasharray="5,2" d="M1322.6,-183.988C1356.3,-186.242 1396.1,-189.058 1432,-192 1437.94,-192.487 1444.1,-193.015 1450.28,-193.563"/>
<polygon fill="#9a32cd" stroke="#9a32cd" points="1322.56,-180.477 1312.35,-183.307 1322.09,-187.462 1322.56,-180.477"/>
<text text-anchor="middle" x="1393" y="-195" font-family="Helvetica,sans-Serif" font-size="10.00"> myTurtleNodes</text>
</g>
<!-- Node17 -->
<g id="node17" class="node"><title>Node17</title>
<polygon fill="white" stroke="#bfbfbf" points="848,-182 848,-212 1014,-212 1014,-182 848,-182"/>
<text text-anchor="start" x="856" y="-200" font-family="Helvetica,sans-Serif" font-size="10.00">List&lt; gui.factories.turtlefactory.</text>
<text text-anchor="middle" x="931" y="-189" font-family="Helvetica,sans-Serif" font-size="10.00">TurtleNode &gt;</text>
</g>
<!-- Node17&#45;&gt;Node16 -->
<g id="edge19" class="edge"><title>Node17&#45;&gt;Node16</title>
<path fill="none" stroke="#9a32cd" stroke-dasharray="5,2" d="M1024.34,-191.638C1072.3,-188.854 1129.88,-185.51 1173.77,-182.962"/>
<polygon fill="#9a32cd" stroke="#9a32cd" points="1024.04,-188.15 1014.26,-192.224 1024.45,-195.138 1024.04,-188.15"/>
<text text-anchor="middle" x="1082" y="-195" font-family="Helvetica,sans-Serif" font-size="10.00"> myTurtleNodes</text>
</g>
<!-- Node18 -->
<g id="node18" class="node"><title>Node18</title>
<polygon fill="white" stroke="#bfbfbf" points="1222.5,-125.5 1222.5,-144.5 1263.5,-144.5 1263.5,-125.5 1222.5,-125.5"/>
<text text-anchor="middle" x="1243" y="-132.5" font-family="Helvetica,sans-Serif" font-size="10.00">Color</text>
</g>
<!-- Node18&#45;&gt;Node12 -->
<g id="edge20" class="edge"><title>Node18&#45;&gt;Node12</title>
<path fill="none" stroke="#9a32cd" stroke-dasharray="5,2" d="M1273.8,-139.897C1311.04,-146.24 1376.64,-158.14 1432,-172 1448.06,-176.02 1465.43,-181.103 1480.88,-185.887"/>
<polygon fill="#9a32cd" stroke="#9a32cd" points="1274.07,-136.394 1263.63,-138.185 1272.91,-143.297 1274.07,-136.394"/>
<text text-anchor="middle" x="1393" y="-175" font-family="Helvetica,sans-Serif" font-size="10.00"> myScreenColor</text>
</g>
<!-- Node19 -->
<g id="node19" class="node"><title>Node19</title>
<g id="a_node19"><a xlink:href="../../d1/d60/classgui_1_1factories_1_1_object_factory.html" target="_top" xlink:title="gui.factories.ObjectFactory">
<polygon fill="white" stroke="black" points="528.5,-50.5 528.5,-69.5 671.5,-69.5 671.5,-50.5 528.5,-50.5"/>
<text text-anchor="middle" x="600" y="-57.5" font-family="Helvetica,sans-Serif" font-size="10.00">gui.factories.ObjectFactory</text>
</a>
</g>
</g>
<!-- Node19&#45;&gt;Node3 -->
<g id="edge21" class="edge"><title>Node19&#45;&gt;Node3</title>
<path fill="none" stroke="#9a32cd" stroke-dasharray="5,2" d="M681.68,-70.5902C725.649,-76.7105 780.951,-84.9745 830,-94 841.276,-96.0749 853.219,-98.5009 864.775,-100.969"/>
<polygon fill="#9a32cd" stroke="#9a32cd" points="682.005,-67.1019 671.62,-69.1997 681.046,-74.036 682.005,-67.1019"/>
<text text-anchor="middle" x="773" y="-97" font-family="Helvetica,sans-Serif" font-size="10.00"> myObjectFactories</text>
</g>
<!-- Node20 -->
<g id="node20" class="node"><title>Node20</title>
<g id="a_node20"><a xlink:href="../../da/d55/interface_control_1_1_slogo_graphics.html" target="_top" xlink:title="Control.SlogoGraphics">
<polygon fill="white" stroke="black" points="538.5,-0.5 538.5,-19.5 661.5,-19.5 661.5,-0.5 538.5,-0.5"/>
<text text-anchor="middle" x="600" y="-7.5" font-family="Helvetica,sans-Serif" font-size="10.00">Control.SlogoGraphics</text>
</a>
</g>
</g>
<!-- Node20&#45;&gt;Node1 -->
<g id="edge25" class="edge"><title>Node20&#45;&gt;Node1</title>
<path fill="none" stroke="#9a32cd" stroke-dasharray="5,2" d="M671.606,-6.37342C753.908,-2.86747 893.973,0.862646 1014,-7 1065.79,-10.3927 1123.78,-18.0759 1168.31,-24.8171"/>
<polygon fill="#9a32cd" stroke="#9a32cd" points="671.452,-2.87669 661.615,-6.81008 671.758,-9.87001 671.452,-2.87669"/>
<text text-anchor="middle" x="931" y="-10" font-family="Helvetica,sans-Serif" font-size="10.00"> myControl</text>
</g>
<!-- Node20&#45;&gt;Node3 -->
<g id="edge23" class="edge"><title>Node20&#45;&gt;Node3</title>
<path fill="none" stroke="#9a32cd" stroke-dasharray="5,2" d="M671.549,-20.3782C717.608,-28.4411 778.524,-41.5661 830,-61 857.805,-71.4973 887.358,-88.5758 907.065,-100.919"/>
<polygon fill="#9a32cd" stroke="#9a32cd" points="672.107,-16.9229 661.66,-18.6846 670.926,-23.8225 672.107,-16.9229"/>
<text text-anchor="middle" x="773" y="-64" font-family="Helvetica,sans-Serif" font-size="10.00"> myControl</text>
</g>
<!-- Node21 -->
<g id="node21" class="node"><title>Node21</title>
<polygon fill="white" stroke="#bfbfbf" points="564,-225.5 564,-244.5 636,-244.5 636,-225.5 564,-225.5"/>
<text text-anchor="middle" x="600" y="-232.5" font-family="Helvetica,sans-Serif" font-size="10.00">BorderPane</text>
</g>
<!-- Node21&#45;&gt;Node3 -->
<g id="edge24" class="edge"><title>Node21&#45;&gt;Node3</title>
<path fill="none" stroke="#9a32cd" stroke-dasharray="5,2" d="M646.011,-229.729C693.389,-223.019 769.363,-208.914 830,-182 838.223,-178.35 881,-149.492 907.874,-131.164"/>
<polygon fill="#9a32cd" stroke="#9a32cd" points="645.495,-226.267 636.061,-231.089 646.443,-233.203 645.495,-226.267"/>
<text text-anchor="middle" x="773" y="-220" font-family="Helvetica,sans-Serif" font-size="10.00"> myPane</text>
</g>
</g>
</svg>
        <g id="navigator" transform="translate(0 0)" fill="#404254">
                <rect fill="#f2f5e9" fill-opacity="0.5" stroke="#606060" stroke-width=".5" x="0" y="0" width="60" height="60"/>
                <use id="zoomplus" xlink:href="#zoomPlus" x="17" y="9" onmousedown="handleZoom(evt,'in')"/>
                <use id="zoomminus" xlink:href="#zoomMin" x="42" y="9" onmousedown="handleZoom(evt,'out')"/>
                <use id="reset" xlink:href="#resetDef" x="30" y="36" onmousedown="handleReset()"/>
                <g id="arrowUp" xlink:href="#dirArrow" transform="translate(30 24)" onmousedown="handlePan(0,-1)">
                  <use xlink:href="#rim" fill="#404040">
                        <set attributeName="fill" to="#808080" begin="arrowUp.mouseover" end="arrowUp.mouseout"/>
                  </use>
                  <path fill="none" stroke="white" stroke-width="1.5" d="M0,-3.0v7 M-2.5,-0.5L0,-3.0L2.5,-0.5"/>
                </g>
                <g id="arrowRight" xlink:href="#dirArrow" transform="rotate(90) translate(36 -43)" onmousedown="handlePan(1,0)">
                  <use xlink:href="#rim" fill="#404040">
                        <set attributeName="fill" to="#808080" begin="arrowRight.mouseover" end="arrowRight.mouseout"/>
                  </use>
                  <path fill="none" stroke="white" stroke-width="1.5" d="M0,-3.0v7 M-2.5,-0.5L0,-3.0L2.5,-0.5"/>
                </g>
                <g id="arrowDown" xlink:href="#dirArrow" transform="rotate(180) translate(-30 -48)" onmousedown="handlePan(0,1)">
                  <use xlink:href="#rim" fill="#404040">
                        <set attributeName="fill" to="#808080" begin="arrowDown.mouseover" end="arrowDown.mouseout"/>
                  </use>
                  <path fill="none" stroke="white" stroke-width="1.5" d="M0,-3.0v7 M-2.5,-0.5L0,-3.0L2.5,-0.5"/>
                </g>
                <g id="arrowLeft" xlink:href="#dirArrow" transform="rotate(270) translate(-36 17)" onmousedown="handlePan(-1,0)">
                  <use xlink:href="#rim" fill="#404040">
                        <set attributeName="fill" to="#808080" begin="arrowLeft.mouseover" end="arrowLeft.mouseout"/>
                  </use>
                  <path fill="none" stroke="white" stroke-width="1.5" d="M0,-3.0v7 M-2.5,-0.5L0,-3.0L2.5,-0.5"/>
                </g>
        </g>
        <svg viewBox="0 0 15 15" width="100%" height="30px" preserveAspectRatio="xMaxYMin meet">
         <g id="arrow_out" transform="scale(0.3 0.3)">
          <a xlink:href="classgui_1_1mainclasses_1_1workspace_1_1_workspace_manager__coll__graph_org.svg" target="_base">
           <rect id="button" ry="5" rx="5" y="6" x="6" height="38" width="38"
                fill="#f2f5e9" fill-opacity="0.5" stroke="#606060" stroke-width="1.0"/>
           <path id="arrow"
             d="M 11.500037,31.436501 C 11.940474,20.09759 22.043105,11.32322 32.158766,21.979434 L 37.068811,17.246167 C 37.068811,17.246167 37.088388,32 37.088388,32 L 22.160133,31.978069 C 22.160133,31.978069 26.997745,27.140456 26.997745,27.140456 C 18.528582,18.264221 13.291696,25.230495 11.500037,31.436501 z"
             style="fill:#404040;"/>
          </a>
         </g>
        </svg>
</svg>
