<?xml version="1.0" encoding="UTF-8" standalone="no"?>
<!DOCTYPE svg PUBLIC "-//W3C//DTD SVG 1.1//EN"
 "http://www.w3.org/Graphics/SVG/1.1/DTD/svg11.dtd">
<!-- Generated by graphviz version 2.36.0 (20140111.2315)
 -->
<!-- Title: commandParsing.colorCommandparsing.SetBackground.operateOnComponents Pages: 1 -->
<svg width="498pt" height="98pt"
 viewBox="0.00 0.00 498.00 98.00" xmlns="http://www.w3.org/2000/svg" xmlns:xlink="http://www.w3.org/1999/xlink">
<g id="graph0" class="graph" transform="scale(1 1) rotate(0) translate(4 94)">
<title>commandParsing.colorCommandparsing.SetBackground.operateOnComponents</title>
<polygon fill="white" stroke="none" points="-4,4 -4,-94 494,-94 494,4 -4,4"/>
<!-- Node1 -->
<g id="node1" class="node"><title>Node1</title>
<polygon fill="#bfbfbf" stroke="black" points="0.5,-27 0.5,-57 215.5,-57 215.5,-27 0.5,-27"/>
<text text-anchor="start" x="8.5" y="-45" font-family="Helvetica,sans-Serif" font-size="10.00">commandParsing.colorCommandparsing.</text>
<text text-anchor="middle" x="108" y="-34" font-family="Helvetica,sans-Serif" font-size="10.00">SetBackground.operateOnComponents</text>
</g>
<!-- Node2 -->
<g id="node2" class="node"><title>Node2</title>
<g id="a_node2"><a xlink:href="../../d1/d65/interfacecommand_parsing_1_1drawable_obect_generation_interfaces_1_1_pane_generator.html#a2258fd0146fdad57ffe132008e82ffd3" target="_top" xlink:title="commandParsing.drawableObect\lGenerationInterfaces.PaneGenerator.generate\lDrawableObjectRepresentingPane">
<polygon fill="white" stroke="black" points="252,-48.5 252,-89.5 490,-89.5 490,-48.5 252,-48.5"/>
<text text-anchor="start" x="260" y="-77.5" font-family="Helvetica,sans-Serif" font-size="10.00">commandParsing.drawableObect</text>
<text text-anchor="start" x="260" y="-66.5" font-family="Helvetica,sans-Serif" font-size="10.00">GenerationInterfaces.PaneGenerator.generate</text>
<text text-anchor="middle" x="371" y="-55.5" font-family="Helvetica,sans-Serif" font-size="10.00">DrawableObjectRepresentingPane</text>
</a>
</g>
</g>
<!-- Node1&#45;&gt;Node2 -->
<g id="edge1" class="edge"><title>Node1&#45;&gt;Node2</title>
<path fill="none" stroke="midnightblue" d="M215.535,-53.0209C224.24,-53.9214 233.093,-54.8372 241.93,-55.7514"/>
<polygon fill="midnightblue" stroke="midnightblue" points="241.586,-59.2344 251.893,-56.7821 242.306,-52.2716 241.586,-59.2344"/>
</g>
<!-- Node3 -->
<g id="node3" class="node"><title>Node3</title>
<g id="a_node3"><a xlink:href="../../d2/df5/classworkspace_state_1_1_palette.html#aaf581bcfba3965b21b0a29d2887fd980" target="_top" xlink:title="workspaceState.Palette.get\lFromPalette">
<polygon fill="white" stroke="black" points="297,-0 297,-30 445,-30 445,-0 297,-0"/>
<text text-anchor="start" x="305" y="-18" font-family="Helvetica,sans-Serif" font-size="10.00">workspaceState.Palette.get</text>
<text text-anchor="middle" x="371" y="-7" font-family="Helvetica,sans-Serif" font-size="10.00">FromPalette</text>
</a>
</g>
</g>
<!-- Node1&#45;&gt;Node3 -->
<g id="edge2" class="edge"><title>Node1&#45;&gt;Node3</title>
<path fill="none" stroke="midnightblue" d="M215.535,-30.9791C239.249,-28.526 264.056,-25.9598 286.677,-23.6196"/>
<polygon fill="midnightblue" stroke="midnightblue" points="287.318,-27.072 296.905,-22.5615 286.598,-20.1092 287.318,-27.072"/>
</g>
</g>
</svg>
