<?xml version="1.0" encoding="UTF-8" standalone="no"?>
<!DOCTYPE svg PUBLIC "-//W3C//DTD SVG 1.1//EN"
 "http://www.w3.org/Graphics/SVG/1.1/DTD/svg11.dtd">
<!-- Generated by graphviz version 2.36.0 (20140111.2315)
 -->
<!-- Title: gui.mainclasses.FeatureBuilder.init Pages: 1 -->
<svg width="460pt" height="375pt"
 viewBox="0.00 0.00 460.00 375.00" xmlns="http://www.w3.org/2000/svg" xmlns:xlink="http://www.w3.org/1999/xlink">
<g id="graph0" class="graph" transform="scale(1 1) rotate(0) translate(4 371)">
<title>gui.mainclasses.FeatureBuilder.init</title>
<polygon fill="white" stroke="none" points="-4,4 -4,-371 456,-371 456,4 -4,4"/>
<!-- Node1 -->
<g id="node1" class="node"><title>Node1</title>
<polygon fill="#bfbfbf" stroke="black" points="0,-179.5 0,-198.5 182,-198.5 182,-179.5 0,-179.5"/>
<text text-anchor="middle" x="91" y="-186.5" font-family="Helvetica,sans-Serif" font-size="10.00">gui.mainclasses.FeatureBuilder.init</text>
</g>
<!-- Node2 -->
<g id="node2" class="node"><title>Node2</title>
<g id="a_node2"><a xlink:href="../../d0/d17/classgui_1_1componentdrawers_1_1optionsholder_1_1_options_holder_drawer.html#aea9961404fef7b09b5ef2ed74d22624f" target="_top" xlink:title="gui.componentdrawers.optionsholder.\lOptionsHolderDrawer.addTabs">
<polygon fill="white" stroke="black" points="236.5,-337 236.5,-367 433.5,-367 433.5,-337 236.5,-337"/>
<text text-anchor="start" x="244.5" y="-355" font-family="Helvetica,sans-Serif" font-size="10.00">gui.componentdrawers.optionsholder.</text>
<text text-anchor="middle" x="335" y="-344" font-family="Helvetica,sans-Serif" font-size="10.00">OptionsHolderDrawer.addTabs</text>
</a>
</g>
</g>
<!-- Node1&#45;&gt;Node2 -->
<g id="edge1" class="edge"><title>Node1&#45;&gt;Node2</title>
<path fill="none" stroke="midnightblue" d="M97.6817,-198.555C113.328,-223.964 159.772,-293.541 218,-327 221.924,-329.255 226.029,-331.307 230.255,-333.174"/>
<polygon fill="midnightblue" stroke="midnightblue" points="229.092,-336.479 239.675,-336.974 231.711,-329.987 229.092,-336.479"/>
</g>
<!-- Node3 -->
<g id="node3" class="node"><title>Node3</title>
<g id="a_node3"><a xlink:href="../../db/d27/classgui_1_1componentdrawers_1_1significantcommands_1_1_significant_commands_drawer.html#aaf135176dc3fd8fdb66506b1674ca91d" target="_top" xlink:title="gui.componentdrawers.significantcommands.\lSignificantCommandsDrawer.addTabs">
<polygon fill="white" stroke="black" points="218,-288 218,-318 452,-318 452,-288 218,-288"/>
<text text-anchor="start" x="226" y="-306" font-family="Helvetica,sans-Serif" font-size="10.00">gui.componentdrawers.significantcommands.</text>
<text text-anchor="middle" x="335" y="-295" font-family="Helvetica,sans-Serif" font-size="10.00">SignificantCommandsDrawer.addTabs</text>
</a>
</g>
</g>
<!-- Node1&#45;&gt;Node3 -->
<g id="edge2" class="edge"><title>Node1&#45;&gt;Node3</title>
<path fill="none" stroke="midnightblue" d="M102.537,-198.743C123.09,-217.189 170.67,-257.225 218,-278 223.756,-280.527 229.789,-282.806 235.949,-284.862"/>
<polygon fill="midnightblue" stroke="midnightblue" points="235.126,-288.271 245.715,-287.911 237.212,-281.589 235.126,-288.271"/>
</g>
<!-- Node4 -->
<g id="node4" class="node"><title>Node4</title>
<g id="a_node4"><a xlink:href="../../d0/d23/classgui_1_1mainclasses_1_1workspace_1_1_workspace_data_holder.html#a838413b345d84fde081ad2fc5b156700" target="_top" xlink:title="gui.mainclasses.workspace.\lWorkspaceDataHolder.getMyColor\lIndexList">
<polygon fill="white" stroke="black" points="245.5,-228.5 245.5,-269.5 424.5,-269.5 424.5,-228.5 245.5,-228.5"/>
<text text-anchor="start" x="253.5" y="-257.5" font-family="Helvetica,sans-Serif" font-size="10.00">gui.mainclasses.workspace.</text>
<text text-anchor="start" x="253.5" y="-246.5" font-family="Helvetica,sans-Serif" font-size="10.00">WorkspaceDataHolder.getMyColor</text>
<text text-anchor="middle" x="335" y="-235.5" font-family="Helvetica,sans-Serif" font-size="10.00">IndexList</text>
</a>
</g>
</g>
<!-- Node1&#45;&gt;Node4 -->
<g id="edge3" class="edge"><title>Node1&#45;&gt;Node4</title>
<path fill="none" stroke="midnightblue" d="M130.346,-198.507C160.202,-205.909 202.918,-216.5 241.526,-226.072"/>
<polygon fill="midnightblue" stroke="midnightblue" points="240.694,-229.472 251.242,-228.482 242.378,-222.678 240.694,-229.472"/>
</g>
<!-- Node5 -->
<g id="node5" class="node"><title>Node5</title>
<g id="a_node5"><a xlink:href="../../d0/d23/classgui_1_1mainclasses_1_1workspace_1_1_workspace_data_holder.html#ac9ccb5bda572375f83f7569de0384a5f" target="_top" xlink:title="gui.mainclasses.workspace.\lWorkspaceDataHolder.getMyImage\lIndexList">
<polygon fill="white" stroke="black" points="243,-168.5 243,-209.5 427,-209.5 427,-168.5 243,-168.5"/>
<text text-anchor="start" x="251" y="-197.5" font-family="Helvetica,sans-Serif" font-size="10.00">gui.mainclasses.workspace.</text>
<text text-anchor="start" x="251" y="-186.5" font-family="Helvetica,sans-Serif" font-size="10.00">WorkspaceDataHolder.getMyImage</text>
<text text-anchor="middle" x="335" y="-175.5" font-family="Helvetica,sans-Serif" font-size="10.00">IndexList</text>
</a>
</g>
</g>
<!-- Node1&#45;&gt;Node5 -->
<g id="edge4" class="edge"><title>Node1&#45;&gt;Node5</title>
<path fill="none" stroke="midnightblue" d="M182.112,-189C198.471,-189 215.637,-189 232.302,-189"/>
<polygon fill="midnightblue" stroke="midnightblue" points="232.602,-192.5 242.602,-189 232.602,-185.5 232.602,-192.5"/>
</g>
<!-- Node6 -->
<g id="node6" class="node"><title>Node6</title>
<g id="a_node6"><a xlink:href="../../d0/d23/classgui_1_1mainclasses_1_1workspace_1_1_workspace_data_holder.html#a9476ee0347a1d675525393b4d7a56acb" target="_top" xlink:title="gui.mainclasses.workspace.\lWorkspaceDataHolder.getMyPrevious\lCommandsList">
<polygon fill="white" stroke="black" points="238,-108.5 238,-149.5 432,-149.5 432,-108.5 238,-108.5"/>
<text text-anchor="start" x="246" y="-137.5" font-family="Helvetica,sans-Serif" font-size="10.00">gui.mainclasses.workspace.</text>
<text text-anchor="start" x="246" y="-126.5" font-family="Helvetica,sans-Serif" font-size="10.00">WorkspaceDataHolder.getMyPrevious</text>
<text text-anchor="middle" x="335" y="-115.5" font-family="Helvetica,sans-Serif" font-size="10.00">CommandsList</text>
</a>
</g>
</g>
<!-- Node1&#45;&gt;Node6 -->
<g id="edge5" class="edge"><title>Node1&#45;&gt;Node6</title>
<path fill="none" stroke="midnightblue" d="M130.346,-179.493C160.202,-172.091 202.918,-161.5 241.526,-151.928"/>
<polygon fill="midnightblue" stroke="midnightblue" points="242.378,-155.322 251.242,-149.518 240.694,-148.528 242.378,-155.322"/>
</g>
<!-- Node7 -->
<g id="node7" class="node"><title>Node7</title>
<g id="a_node7"><a xlink:href="../../d0/d23/classgui_1_1mainclasses_1_1workspace_1_1_workspace_data_holder.html#aac08788e0b6d38aafdc3e778028fe104" target="_top" xlink:title="gui.mainclasses.workspace.\lWorkspaceDataHolder.getMySaved\lCommandsList">
<polygon fill="white" stroke="black" points="243,-48.5 243,-89.5 427,-89.5 427,-48.5 243,-48.5"/>
<text text-anchor="start" x="251" y="-77.5" font-family="Helvetica,sans-Serif" font-size="10.00">gui.mainclasses.workspace.</text>
<text text-anchor="start" x="251" y="-66.5" font-family="Helvetica,sans-Serif" font-size="10.00">WorkspaceDataHolder.getMySaved</text>
<text text-anchor="middle" x="335" y="-55.5" font-family="Helvetica,sans-Serif" font-size="10.00">CommandsList</text>
</a>
</g>
</g>
<!-- Node1&#45;&gt;Node7 -->
<g id="edge6" class="edge"><title>Node1&#45;&gt;Node7</title>
<path fill="none" stroke="midnightblue" d="M102.595,-179.318C123.245,-160.953 170.985,-120.942 218,-99 222.948,-96.6907 228.101,-94.5396 233.365,-92.5384"/>
<polygon fill="midnightblue" stroke="midnightblue" points="234.713,-95.7732 242.939,-89.0966 232.345,-89.1859 234.713,-95.7732"/>
</g>
<!-- Node8 -->
<g id="node8" class="node"><title>Node8</title>
<g id="a_node8"><a xlink:href="../../d0/d23/classgui_1_1mainclasses_1_1workspace_1_1_workspace_data_holder.html#a23c9515c88ddf6000d43d55adeaccec1" target="_top" xlink:title="gui.mainclasses.workspace.\lWorkspaceDataHolder.getMyVariablesList">
<polygon fill="white" stroke="black" points="228,-0 228,-30 442,-30 442,-0 228,-0"/>
<text text-anchor="start" x="236" y="-18" font-family="Helvetica,sans-Serif" font-size="10.00">gui.mainclasses.workspace.</text>
<text text-anchor="middle" x="335" y="-7" font-family="Helvetica,sans-Serif" font-size="10.00">WorkspaceDataHolder.getMyVariablesList</text>
</a>
</g>
</g>
<!-- Node1&#45;&gt;Node8 -->
<g id="edge7" class="edge"><title>Node1&#45;&gt;Node8</title>
<path fill="none" stroke="midnightblue" d="M97.0096,-179.372C111.607,-152.354 156.963,-75.428 218,-39 220.87,-37.2873 223.842,-35.6954 226.894,-34.2158"/>
<polygon fill="midnightblue" stroke="midnightblue" points="228.508,-37.3296 236.258,-30.1053 225.694,-30.9199 228.508,-37.3296"/>
</g>
</g>
</svg>
