<?xml version="1.0" encoding="UTF-8" standalone="no"?>
<!DOCTYPE svg PUBLIC "-//W3C//DTD SVG 1.1//EN"
 "http://www.w3.org/Graphics/SVG/1.1/DTD/svg11.dtd">
<!-- Generated by graphviz version 2.36.0 (20140111.2315)
 -->
<!-- Title: gui.mainclasses.GUIController.drawDrawableObjects Pages: 1 -->
<!--zoomable 136 -->
<svg id="main" version="1.1" xmlns="http://www.w3.org/2000/svg" xmlns:xlink="http://www.w3.org/1999/xlink" xml:space="preserve" onload="init(evt)">
<style type="text/css"><![CDATA[
.edge:hover path { stroke: red; }
.edge:hover polygon { stroke: red; fill: red; }
]]></style>
<script type="text/javascript"><![CDATA[
var edges = document.getElementsByTagName('g');
if (edges && edges.length) {
  for (var i=0;i<edges.length;i++) {
    if (edges[i].id.substr(0,4)=='edge') {
      edges[i].setAttribute('class','edge');
    }
  }
}
]]></script>
        <defs>
                <circle id="rim" cx="0" cy="0" r="7"/>
                <circle id="rim2" cx="0" cy="0" r="3.5"/>
                <g id="zoomPlus">
                        <use xlink:href="#rim" fill="#404040">
                                <set attributeName="fill" to="#808080" begin="zoomplus.mouseover" end="zoomplus.mouseout"/>
                        </use>
                        <path d="M-4,0h8M0,-4v8" fill="none" stroke="white" stroke-width="1.5" pointer-events="none"/>
                </g>
                <g id="zoomMin">
                        <use xlink:href="#rim" fill="#404040">
                                <set attributeName="fill" to="#808080" begin="zoomminus.mouseover" end="zoomminus.mouseout"/>
                        </use>
                        <path d="M-4,0h8" fill="none" stroke="white" stroke-width="1.5" pointer-events="none"/>
                </g>
                <g id="dirArrow">
                        <path fill="none" stroke="white" stroke-width="1.5" d="M0,-3.0v7 M-2.5,-0.5L0,-3.0L2.5,-0.5"/>
                </g>
               <g id="resetDef">
                       <use xlink:href="#rim2" fill="#404040">
                               <set attributeName="fill" to="#808080" begin="reset.mouseover" end="reset.mouseout"/>
                       </use>
               </g>
        </defs>

<script type="text/javascript">
var viewWidth = 1114;
var viewHeight = 136;
var sectionId = 'dynsection-2';
</script>
<script xlink:href="../../svgpan.js"/>
<svg id="graph" class="graph">
<g id="viewport">
<title>gui.mainclasses.GUIController.drawDrawableObjects</title>
<polygon fill="white" stroke="none" points="-4,4 -4,-132 1110,-132 1110,4 -4,4"/>
<!-- Node1 -->
<g id="node1" class="node"><title>Node1</title>
<polygon fill="#bfbfbf" stroke="black" points="0.5,-73 0.5,-103 185.5,-103 185.5,-73 0.5,-73"/>
<text text-anchor="start" x="8.5" y="-91" font-family="Helvetica,sans-Serif" font-size="10.00">gui.mainclasses.GUIController.draw</text>
<text text-anchor="middle" x="93" y="-80" font-family="Helvetica,sans-Serif" font-size="10.00">DrawableObjects</text>
</g>
<!-- Node2 -->
<g id="node2" class="node"><title>Node2</title>
<g id="a_node2"><a xlink:href="../../d3/db0/classgui_1_1mainclasses_1_1workspace_1_1_workspace_manager.html#a4863a19ac83bbd4dea5582dcecf3553d" target="_top" xlink:title="gui.mainclasses.workspace.\lWorkspaceManager.getActiveWorkspace">
<polygon fill="white" stroke="black" points="222,-98 222,-128 430,-128 430,-98 222,-98"/>
<text text-anchor="start" x="230" y="-116" font-family="Helvetica,sans-Serif" font-size="10.00">gui.mainclasses.workspace.</text>
<text text-anchor="middle" x="326" y="-105" font-family="Helvetica,sans-Serif" font-size="10.00">WorkspaceManager.getActiveWorkspace</text>
</a>
</g>
</g>
<!-- Node1&#45;&gt;Node2 -->
<g id="edge1" class="edge"><title>Node1&#45;&gt;Node2</title>
<path fill="none" stroke="midnightblue" d="M185.629,-97.9166C194.14,-98.8376 202.831,-99.7782 211.507,-100.717"/>
<polygon fill="midnightblue" stroke="midnightblue" points="211.355,-104.221 221.673,-101.817 212.108,-97.2617 211.355,-104.221"/>
</g>
<!-- Node3 -->
<g id="node3" class="node"><title>Node3</title>
<g id="a_node3"><a xlink:href="../../d8/df2/classgui_1_1mainclasses_1_1workspace_1_1_workspace.html#a3aa7429441a5bca58fe2c0b94f25645d" target="_top" xlink:title="gui.mainclasses.workspace.\lWorkspace.parseDrawableObject">
<polygon fill="white" stroke="black" points="239.5,-49 239.5,-79 412.5,-79 412.5,-49 239.5,-49"/>
<text text-anchor="start" x="247.5" y="-67" font-family="Helvetica,sans-Serif" font-size="10.00">gui.mainclasses.workspace.</text>
<text text-anchor="middle" x="326" y="-56" font-family="Helvetica,sans-Serif" font-size="10.00">Workspace.parseDrawableObject</text>
</a>
</g>
</g>
<!-- Node1&#45;&gt;Node3 -->
<g id="edge2" class="edge"><title>Node1&#45;&gt;Node3</title>
<path fill="none" stroke="midnightblue" d="M185.629,-78.4801C200.06,-76.9808 215.011,-75.4275 229.526,-73.9194"/>
<polygon fill="midnightblue" stroke="midnightblue" points="229.909,-77.3985 239.494,-72.8838 229.186,-70.436 229.909,-77.3985"/>
</g>
<!-- Node4 -->
<g id="node4" class="node"><title>Node4</title>
<g id="a_node4"><a xlink:href="../../db/db2/classgui_1_1mainclasses_1_1_drawable_object_parser.html#af82adbaff13327029a151db1a0a0acdb" target="_top" xlink:title="gui.mainclasses.Drawable\lObjectParser.parseDrawableObject">
<polygon fill="white" stroke="black" points="466,-49 466,-79 648,-79 648,-49 466,-49"/>
<text text-anchor="start" x="474" y="-67" font-family="Helvetica,sans-Serif" font-size="10.00">gui.mainclasses.Drawable</text>
<text text-anchor="middle" x="557" y="-56" font-family="Helvetica,sans-Serif" font-size="10.00">ObjectParser.parseDrawableObject</text>
</a>
</g>
</g>
<!-- Node3&#45;&gt;Node4 -->
<g id="edge3" class="edge"><title>Node3&#45;&gt;Node4</title>
<path fill="none" stroke="midnightblue" d="M412.597,-64C426.602,-64 441.224,-64 455.549,-64"/>
<polygon fill="midnightblue" stroke="midnightblue" points="455.914,-67.5001 465.914,-64 455.914,-60.5001 455.914,-67.5001"/>
</g>
<!-- Node5 -->
<g id="node5" class="node"><title>Node5</title>
<g id="a_node5"><a xlink:href="../../d0/dda/classgui_1_1componentdrawers_1_1_component_drawer.html#a7866683582ed9aebe665c7998d549fbb" target="_top" xlink:title="gui.componentdrawers.Component\lDrawer.drawShape">
<polygon fill="white" stroke="black" points="690.5,-98 690.5,-128 875.5,-128 875.5,-98 690.5,-98"/>
<text text-anchor="start" x="698.5" y="-116" font-family="Helvetica,sans-Serif" font-size="10.00">gui.componentdrawers.Component</text>
<text text-anchor="middle" x="783" y="-105" font-family="Helvetica,sans-Serif" font-size="10.00">Drawer.drawShape</text>
</a>
</g>
</g>
<!-- Node4&#45;&gt;Node5 -->
<g id="edge4" class="edge"><title>Node4&#45;&gt;Node5</title>
<path fill="none" stroke="midnightblue" d="M626.73,-79.0346C651.026,-84.3494 678.533,-90.3665 703.572,-95.844"/>
<polygon fill="midnightblue" stroke="midnightblue" points="702.883,-99.2759 713.4,-97.9938 704.379,-92.4376 702.883,-99.2759"/>
</g>
<!-- Node6 -->
<g id="node6" class="node"><title>Node6</title>
<g id="a_node6"><a xlink:href="../../db/db2/classgui_1_1mainclasses_1_1_drawable_object_parser.html#adb6188c1155c494e00251c5e7d5f3e7a" target="_top" xlink:title="gui.mainclasses.Drawable\lObjectParser.parseComponentDrawer">
<polygon fill="white" stroke="black" points="684.5,-49 684.5,-79 881.5,-79 881.5,-49 684.5,-49"/>
<text text-anchor="start" x="692.5" y="-67" font-family="Helvetica,sans-Serif" font-size="10.00">gui.mainclasses.Drawable</text>
<text text-anchor="middle" x="783" y="-56" font-family="Helvetica,sans-Serif" font-size="10.00">ObjectParser.parseComponentDrawer</text>
</a>
</g>
</g>
<!-- Node4&#45;&gt;Node6 -->
<g id="edge5" class="edge"><title>Node4&#45;&gt;Node6</title>
<path fill="none" stroke="midnightblue" d="M648.141,-64C656.704,-64 665.445,-64 674.152,-64"/>
<polygon fill="midnightblue" stroke="midnightblue" points="674.345,-67.5001 684.345,-64 674.345,-60.5001 674.345,-67.5001"/>
</g>
<!-- Node7 -->
<g id="node7" class="node"><title>Node7</title>
<g id="a_node7"><a xlink:href="../../db/db2/classgui_1_1mainclasses_1_1_drawable_object_parser.html#ac93f66a3adf4230d9c365f8628083a3c" target="_top" xlink:title="gui.mainclasses.Drawable\lObjectParser.parseNodeToDraw">
<polygon fill="white" stroke="black" points="700,-0 700,-30 866,-30 866,-0 700,-0"/>
<text text-anchor="start" x="708" y="-18" font-family="Helvetica,sans-Serif" font-size="10.00">gui.mainclasses.Drawable</text>
<text text-anchor="middle" x="783" y="-7" font-family="Helvetica,sans-Serif" font-size="10.00">ObjectParser.parseNodeToDraw</text>
</a>
</g>
</g>
<!-- Node4&#45;&gt;Node7 -->
<g id="edge6" class="edge"><title>Node4&#45;&gt;Node7</title>
<path fill="none" stroke="midnightblue" d="M626.73,-48.9654C651.026,-43.6506 678.533,-37.6335 703.572,-32.156"/>
<polygon fill="midnightblue" stroke="midnightblue" points="704.379,-35.5624 713.4,-30.0062 702.883,-28.7241 704.379,-35.5624"/>
</g>
<!-- Node8 -->
<g id="node8" class="node"><title>Node8</title>
<g id="a_node8"><a xlink:href="../../d1/d60/classgui_1_1factories_1_1_object_factory.html#aae1042d4fe6455bf3dbeb6fea18df24a" target="_top" xlink:title="gui.factories.ObjectFactory.generate\lObject">
<polygon fill="white" stroke="black" points="918,-0 918,-30 1106,-30 1106,-0 918,-0"/>
<text text-anchor="start" x="926" y="-18" font-family="Helvetica,sans-Serif" font-size="10.00">gui.factories.ObjectFactory.generate</text>
<text text-anchor="middle" x="1012" y="-7" font-family="Helvetica,sans-Serif" font-size="10.00">Object</text>
</a>
</g>
</g>
<!-- Node7&#45;&gt;Node8 -->
<g id="edge7" class="edge"><title>Node7&#45;&gt;Node8</title>
<path fill="none" stroke="midnightblue" d="M866.273,-15C879.75,-15 893.865,-15 907.771,-15"/>
<polygon fill="midnightblue" stroke="midnightblue" points="907.849,-18.5001 917.849,-15 907.849,-11.5001 907.849,-18.5001"/>
</g>
</g>
</svg>
        <g id="navigator" transform="translate(0 0)" fill="#404254">
                <rect fill="#f2f5e9" fill-opacity="0.5" stroke="#606060" stroke-width=".5" x="0" y="0" width="60" height="60"/>
                <use id="zoomplus" xlink:href="#zoomPlus" x="17" y="9" onmousedown="handleZoom(evt,'in')"/>
                <use id="zoomminus" xlink:href="#zoomMin" x="42" y="9" onmousedown="handleZoom(evt,'out')"/>
                <use id="reset" xlink:href="#resetDef" x="30" y="36" onmousedown="handleReset()"/>
                <g id="arrowUp" xlink:href="#dirArrow" transform="translate(30 24)" onmousedown="handlePan(0,-1)">
                  <use xlink:href="#rim" fill="#404040">
                        <set attributeName="fill" to="#808080" begin="arrowUp.mouseover" end="arrowUp.mouseout"/>
                  </use>
                  <path fill="none" stroke="white" stroke-width="1.5" d="M0,-3.0v7 M-2.5,-0.5L0,-3.0L2.5,-0.5"/>
                </g>
                <g id="arrowRight" xlink:href="#dirArrow" transform="rotate(90) translate(36 -43)" onmousedown="handlePan(1,0)">
                  <use xlink:href="#rim" fill="#404040">
                        <set attributeName="fill" to="#808080" begin="arrowRight.mouseover" end="arrowRight.mouseout"/>
                  </use>
                  <path fill="none" stroke="white" stroke-width="1.5" d="M0,-3.0v7 M-2.5,-0.5L0,-3.0L2.5,-0.5"/>
                </g>
                <g id="arrowDown" xlink:href="#dirArrow" transform="rotate(180) translate(-30 -48)" onmousedown="handlePan(0,1)">
                  <use xlink:href="#rim" fill="#404040">
                        <set attributeName="fill" to="#808080" begin="arrowDown.mouseover" end="arrowDown.mouseout"/>
                  </use>
                  <path fill="none" stroke="white" stroke-width="1.5" d="M0,-3.0v7 M-2.5,-0.5L0,-3.0L2.5,-0.5"/>
                </g>
                <g id="arrowLeft" xlink:href="#dirArrow" transform="rotate(270) translate(-36 17)" onmousedown="handlePan(-1,0)">
                  <use xlink:href="#rim" fill="#404040">
                        <set attributeName="fill" to="#808080" begin="arrowLeft.mouseover" end="arrowLeft.mouseout"/>
                  </use>
                  <path fill="none" stroke="white" stroke-width="1.5" d="M0,-3.0v7 M-2.5,-0.5L0,-3.0L2.5,-0.5"/>
                </g>
        </g>
        <svg viewBox="0 0 15 15" width="100%" height="30px" preserveAspectRatio="xMaxYMin meet">
         <g id="arrow_out" transform="scale(0.3 0.3)">
          <a xlink:href="classgui_1_1mainclasses_1_1_g_u_i_controller_a32ce7160aef646c8557283e20135d34c_cgraph_org.svg" target="_base">
           <rect id="button" ry="5" rx="5" y="6" x="6" height="38" width="38"
                fill="#f2f5e9" fill-opacity="0.5" stroke="#606060" stroke-width="1.0"/>
           <path id="arrow"
             d="M 11.500037,31.436501 C 11.940474,20.09759 22.043105,11.32322 32.158766,21.979434 L 37.068811,17.246167 C 37.068811,17.246167 37.088388,32 37.088388,32 L 22.160133,31.978069 C 22.160133,31.978069 26.997745,27.140456 26.997745,27.140456 C 18.528582,18.264221 13.291696,25.230495 11.500037,31.436501 z"
             style="fill:#404040;"/>
          </a>
         </g>
        </svg>
</svg>
