<?xml version="1.0" encoding="UTF-8" standalone="no"?>
<!DOCTYPE svg PUBLIC "-//W3C//DTD SVG 1.1//EN"
 "http://www.w3.org/Graphics/SVG/1.1/DTD/svg11.dtd">
<!-- Generated by graphviz version 2.36.0 (20140111.2315)
 -->
<!-- Title: gui.mainclasses.GUIController.drawDrawableObjects Pages: 1 -->
<svg width="736pt" height="38pt"
 viewBox="0.00 0.00 736.00 38.00" xmlns="http://www.w3.org/2000/svg" xmlns:xlink="http://www.w3.org/1999/xlink">
<g id="graph0" class="graph" transform="scale(1 1) rotate(0) translate(4 34)">
<title>gui.mainclasses.GUIController.drawDrawableObjects</title>
<polygon fill="white" stroke="none" points="-4,4 -4,-34 732,-34 732,4 -4,4"/>
<!-- Node1 -->
<g id="node1" class="node"><title>Node1</title>
<polygon fill="#bfbfbf" stroke="black" points="0.5,-0 0.5,-30 185.5,-30 185.5,-0 0.5,-0"/>
<text text-anchor="start" x="8.5" y="-18" font-family="Helvetica,sans-Serif" font-size="10.00">gui.mainclasses.GUIController.draw</text>
<text text-anchor="middle" x="93" y="-7" font-family="Helvetica,sans-Serif" font-size="10.00">DrawableObjects</text>
</g>
<!-- Node2 -->
<g id="node2" class="node"><title>Node2</title>
<g id="a_node2"><a xlink:href="../../da/de1/class_control_1_1_slogo_control.html#ac59ba1076929dce517c40f9d492f56b2" target="_top" xlink:title="Control.SlogoControl.draw\lDrawableObjects">
<polygon fill="white" stroke="black" points="222.5,-0 222.5,-30 363.5,-30 363.5,-0 222.5,-0"/>
<text text-anchor="start" x="230.5" y="-18" font-family="Helvetica,sans-Serif" font-size="10.00">Control.SlogoControl.draw</text>
<text text-anchor="middle" x="293" y="-7" font-family="Helvetica,sans-Serif" font-size="10.00">DrawableObjects</text>
</a>
</g>
</g>
<!-- Node1&#45;&gt;Node2 -->
<g id="edge1" class="edge"><title>Node1&#45;&gt;Node2</title>
<path fill="none" stroke="midnightblue" d="M195.897,-15C204.881,-15 213.834,-15 222.459,-15"/>
<polygon fill="midnightblue" stroke="midnightblue" points="195.755,-11.5001 185.755,-15 195.755,-18.5001 195.755,-11.5001"/>
</g>
<!-- Node3 -->
<g id="node3" class="node"><title>Node3</title>
<g id="a_node3"><a xlink:href="../../da/de1/class_control_1_1_slogo_control.html#a3c55ba4e1dadbf4fbcd647017109fa9a" target="_top" xlink:title="Control.SlogoControl.parse\lCommandString">
<polygon fill="white" stroke="black" points="400,-0 400,-30 546,-30 546,-0 400,-0"/>
<text text-anchor="start" x="408" y="-18" font-family="Helvetica,sans-Serif" font-size="10.00">Control.SlogoControl.parse</text>
<text text-anchor="middle" x="473" y="-7" font-family="Helvetica,sans-Serif" font-size="10.00">CommandString</text>
</a>
</g>
</g>
<!-- Node2&#45;&gt;Node3 -->
<g id="edge2" class="edge"><title>Node2&#45;&gt;Node3</title>
<path fill="none" stroke="midnightblue" d="M373.717,-15C382.412,-15 391.227,-15 399.824,-15"/>
<polygon fill="midnightblue" stroke="midnightblue" points="373.584,-11.5001 363.584,-15 373.584,-18.5001 373.584,-11.5001"/>
</g>
<!-- Node4 -->
<g id="node4" class="node"><title>Node4</title>
<g id="a_node4"><a xlink:href="../../da/de1/class_control_1_1_slogo_control.html#a3c3830d88ed47944348f1f82c56d0d58" target="_top" xlink:title="Control.SlogoControl.Slogo\lControl">
<polygon fill="white" stroke="black" points="582,-0 582,-30 728,-30 728,-0 582,-0"/>
<text text-anchor="start" x="590" y="-18" font-family="Helvetica,sans-Serif" font-size="10.00">Control.SlogoControl.Slogo</text>
<text text-anchor="middle" x="655" y="-7" font-family="Helvetica,sans-Serif" font-size="10.00">Control</text>
</a>
</g>
</g>
<!-- Node3&#45;&gt;Node4 -->
<g id="edge3" class="edge"><title>Node3&#45;&gt;Node4</title>
<path fill="none" stroke="midnightblue" d="M556.439,-15C564.906,-15 573.464,-15 581.808,-15"/>
<polygon fill="midnightblue" stroke="midnightblue" points="556.176,-11.5001 546.176,-15 556.176,-18.5001 556.176,-11.5001"/>
</g>
</g>
</svg>
