<?xml version="1.0" encoding="UTF-8" standalone="no"?>
<!DOCTYPE svg PUBLIC "-//W3C//DTD SVG 1.1//EN"
 "http://www.w3.org/Graphics/SVG/1.1/DTD/svg11.dtd">
<!-- Generated by graphviz version 2.36.0 (20140111.2315)
 -->
<!-- Title: gui.mainclasses.GUIController.GUIController Pages: 1 -->
<svg width="1004pt" height="188pt"
 viewBox="0.00 0.00 1004.00 188.00" xmlns="http://www.w3.org/2000/svg" xmlns:xlink="http://www.w3.org/1999/xlink">
<g id="graph0" class="graph" transform="scale(1 1) rotate(0) translate(4 184)">
<title>gui.mainclasses.GUIController.GUIController</title>
<polygon fill="white" stroke="none" points="-4,4 -4,-184 1000,-184 1000,4 -4,4"/>
<!-- Node1 -->
<g id="node1" class="node"><title>Node1</title>
<polygon fill="#bfbfbf" stroke="black" points="0,-117 0,-147 162,-147 162,-117 0,-117"/>
<text text-anchor="start" x="8" y="-135" font-family="Helvetica,sans-Serif" font-size="10.00">gui.mainclasses.GUIController.</text>
<text text-anchor="middle" x="81" y="-124" font-family="Helvetica,sans-Serif" font-size="10.00">GUIController</text>
</g>
<!-- Node2 -->
<g id="node2" class="node"><title>Node2</title>
<g id="a_node2"><a xlink:href="../../d8/d0e/classgui_1_1menus_1_1_main_menu_initializer.html#a00ada82523be8b554312db7e281c1412" target="_top" xlink:title="gui.menus.MainMenuInitializer.init">
<polygon fill="white" stroke="black" points="204.5,-160.5 204.5,-179.5 381.5,-179.5 381.5,-160.5 204.5,-160.5"/>
<text text-anchor="middle" x="293" y="-167.5" font-family="Helvetica,sans-Serif" font-size="10.00">gui.menus.MainMenuInitializer.init</text>
</a>
</g>
</g>
<!-- Node1&#45;&gt;Node2 -->
<g id="edge1" class="edge"><title>Node1&#45;&gt;Node2</title>
<path fill="none" stroke="midnightblue" d="M162.291,-146.529C184.481,-150.544 208.231,-154.842 229.266,-158.648"/>
<polygon fill="midnightblue" stroke="midnightblue" points="228.891,-162.137 239.355,-160.474 230.138,-155.249 228.891,-162.137"/>
</g>
<!-- Node3 -->
<g id="node3" class="node"><title>Node3</title>
<g id="a_node3"><a xlink:href="../../d3/d5c/classgui_1_1mainclasses_1_1_stage_initializer.html#acfc5e18d03fb1e73167d49a7133ea3a5" target="_top" xlink:title="gui.mainclasses.StageInitializer.init">
<polygon fill="white" stroke="black" points="201.5,-122.5 201.5,-141.5 384.5,-141.5 384.5,-122.5 201.5,-122.5"/>
<text text-anchor="middle" x="293" y="-129.5" font-family="Helvetica,sans-Serif" font-size="10.00">gui.mainclasses.StageInitializer.init</text>
</a>
</g>
</g>
<!-- Node1&#45;&gt;Node3 -->
<g id="edge2" class="edge"><title>Node1&#45;&gt;Node3</title>
<path fill="none" stroke="midnightblue" d="M162.291,-132C171.744,-132 181.48,-132 191.169,-132"/>
<polygon fill="midnightblue" stroke="midnightblue" points="191.235,-135.5 201.235,-132 191.235,-128.5 191.235,-135.5"/>
</g>
<!-- Node5 -->
<g id="node5" class="node"><title>Node5</title>
<g id="a_node5"><a xlink:href="../../d5/d3d/classgui_1_1mainclasses_1_1_g_u_i_controller.html#af8e32f667f89b5d6c80f282c2947fe84" target="_top" xlink:title="gui.mainclasses.GUIController.move\lActiveTurtlesInActiveWorkspace">
<polygon fill="white" stroke="black" points="198.5,-73 198.5,-103 387.5,-103 387.5,-73 198.5,-73"/>
<text text-anchor="start" x="206.5" y="-91" font-family="Helvetica,sans-Serif" font-size="10.00">gui.mainclasses.GUIController.move</text>
<text text-anchor="middle" x="293" y="-80" font-family="Helvetica,sans-Serif" font-size="10.00">ActiveTurtlesInActiveWorkspace</text>
</a>
</g>
</g>
<!-- Node1&#45;&gt;Node5 -->
<g id="edge4" class="edge"><title>Node1&#45;&gt;Node5</title>
<path fill="none" stroke="midnightblue" d="M153.683,-116.981C171.913,-113.161 191.637,-109.028 210.324,-105.113"/>
<polygon fill="midnightblue" stroke="midnightblue" points="211.214,-108.503 220.284,-103.026 209.779,-101.651 211.214,-108.503"/>
</g>
<!-- Node4 -->
<g id="node4" class="node"><title>Node4</title>
<g id="a_node4"><a xlink:href="../../d0/d49/classgui_1_1mainclasses_1_1_text_generator.html#afef308a2abfb8f1503d2b276407833e6" target="_top" xlink:title="gui.mainclasses.TextGenerator.get">
<polygon fill="white" stroke="black" points="437,-122.5 437,-141.5 619,-141.5 619,-122.5 437,-122.5"/>
<text text-anchor="middle" x="528" y="-129.5" font-family="Helvetica,sans-Serif" font-size="10.00">gui.mainclasses.TextGenerator.get</text>
</a>
</g>
</g>
<!-- Node3&#45;&gt;Node4 -->
<g id="edge3" class="edge"><title>Node3&#45;&gt;Node4</title>
<path fill="none" stroke="midnightblue" d="M384.751,-132C398.529,-132 412.813,-132 426.779,-132"/>
<polygon fill="midnightblue" stroke="midnightblue" points="426.88,-135.5 436.88,-132 426.88,-128.5 426.88,-135.5"/>
</g>
<!-- Node6 -->
<g id="node6" class="node"><title>Node6</title>
<g id="a_node6"><a xlink:href="../../d3/db0/classgui_1_1mainclasses_1_1workspace_1_1_workspace_manager.html#a4863a19ac83bbd4dea5582dcecf3553d" target="_top" xlink:title="gui.mainclasses.workspace.\lWorkspaceManager.getActiveWorkspace">
<polygon fill="white" stroke="black" points="424,-73 424,-103 632,-103 632,-73 424,-73"/>
<text text-anchor="start" x="432" y="-91" font-family="Helvetica,sans-Serif" font-size="10.00">gui.mainclasses.workspace.</text>
<text text-anchor="middle" x="528" y="-80" font-family="Helvetica,sans-Serif" font-size="10.00">WorkspaceManager.getActiveWorkspace</text>
</a>
</g>
</g>
<!-- Node5&#45;&gt;Node6 -->
<g id="edge5" class="edge"><title>Node5&#45;&gt;Node6</title>
<path fill="none" stroke="midnightblue" d="M387.763,-88C396.306,-88 405.02,-88 413.709,-88"/>
<polygon fill="midnightblue" stroke="midnightblue" points="413.887,-91.5001 423.887,-88 413.887,-84.5001 413.887,-91.5001"/>
</g>
<!-- Node7 -->
<g id="node7" class="node"><title>Node7</title>
<g id="a_node7"><a xlink:href="../../d8/df2/classgui_1_1mainclasses_1_1workspace_1_1_workspace.html#a01dff18cc9fa51688c0ba996b3ff9b6a" target="_top" xlink:title="gui.mainclasses.workspace.\lWorkspace.moveActiveTurtles">
<polygon fill="white" stroke="black" points="449,-24 449,-54 607,-54 607,-24 449,-24"/>
<text text-anchor="start" x="457" y="-42" font-family="Helvetica,sans-Serif" font-size="10.00">gui.mainclasses.workspace.</text>
<text text-anchor="middle" x="528" y="-31" font-family="Helvetica,sans-Serif" font-size="10.00">Workspace.moveActiveTurtles</text>
</a>
</g>
</g>
<!-- Node5&#45;&gt;Node7 -->
<g id="edge6" class="edge"><title>Node5&#45;&gt;Node7</title>
<path fill="none" stroke="midnightblue" d="M365.491,-72.9654C390.875,-67.627 419.629,-61.5802 445.767,-56.0834"/>
<polygon fill="midnightblue" stroke="midnightblue" points="446.578,-59.4893 455.644,-54.0062 445.138,-52.6392 446.578,-59.4893"/>
</g>
<!-- Node8 -->
<g id="node8" class="node"><title>Node8</title>
<g id="a_node8"><a xlink:href="../../dd/d25/classgui_1_1factories_1_1turtlefactory_1_1_turtle_nodes.html#a95e5268536cc20234687d9c3f61f49be" target="_top" xlink:title="gui.factories.turtlefactory.\lTurtleNodes.getActiveNodes">
<polygon fill="white" stroke="black" points="669,-49 669,-79 821,-79 821,-49 669,-49"/>
<text text-anchor="start" x="677" y="-67" font-family="Helvetica,sans-Serif" font-size="10.00">gui.factories.turtlefactory.</text>
<text text-anchor="middle" x="745" y="-56" font-family="Helvetica,sans-Serif" font-size="10.00">TurtleNodes.getActiveNodes</text>
</a>
</g>
</g>
<!-- Node7&#45;&gt;Node8 -->
<g id="edge7" class="edge"><title>Node7&#45;&gt;Node8</title>
<path fill="none" stroke="midnightblue" d="M607.228,-48.0963C623.833,-50.0271 641.446,-52.0751 658.312,-54.0363"/>
<polygon fill="midnightblue" stroke="midnightblue" points="658.363,-57.5658 668.701,-55.2443 659.172,-50.6126 658.363,-57.5658"/>
</g>
<!-- Node10 -->
<g id="node10" class="node"><title>Node10</title>
<g id="a_node10"><a xlink:href="../../da/d55/interface_control_1_1_slogo_graphics.html#a05813100446932183f367405e6c73d67" target="_top" xlink:title="Control.SlogoGraphics.parse\lCommandString">
<polygon fill="white" stroke="black" points="668.5,-0 668.5,-30 821.5,-30 821.5,-0 668.5,-0"/>
<text text-anchor="start" x="676.5" y="-18" font-family="Helvetica,sans-Serif" font-size="10.00">Control.SlogoGraphics.parse</text>
<text text-anchor="middle" x="745" y="-7" font-family="Helvetica,sans-Serif" font-size="10.00">CommandString</text>
</a>
</g>
</g>
<!-- Node7&#45;&gt;Node10 -->
<g id="edge9" class="edge"><title>Node7&#45;&gt;Node10</title>
<path fill="none" stroke="midnightblue" d="M607.228,-30.2676C623.733,-28.4251 641.235,-26.4714 658.009,-24.599"/>
<polygon fill="midnightblue" stroke="midnightblue" points="658.793,-28.0333 668.343,-23.4454 658.017,-21.0765 658.793,-28.0333"/>
</g>
<!-- Node9 -->
<g id="node9" class="node"><title>Node9</title>
<g id="a_node9"><a xlink:href="../../d1/d95/classgui_1_1factories_1_1turtlefactory_1_1_turtle_node.html#a3e07701226a7044520bc57956f81f0ea" target="_top" xlink:title="gui.factories.turtlefactory.\lTurtleNode.isSelected">
<polygon fill="white" stroke="black" points="858,-49 858,-79 996,-79 996,-49 858,-49"/>
<text text-anchor="start" x="866" y="-67" font-family="Helvetica,sans-Serif" font-size="10.00">gui.factories.turtlefactory.</text>
<text text-anchor="middle" x="927" y="-56" font-family="Helvetica,sans-Serif" font-size="10.00">TurtleNode.isSelected</text>
</a>
</g>
</g>
<!-- Node8&#45;&gt;Node9 -->
<g id="edge8" class="edge"><title>Node8&#45;&gt;Node9</title>
<path fill="none" stroke="midnightblue" d="M821.033,-64C829.934,-64 839.036,-64 847.978,-64"/>
<polygon fill="midnightblue" stroke="midnightblue" points="847.985,-67.5001 857.985,-64 847.985,-60.5001 847.985,-67.5001"/>
</g>
</g>
</svg>
